<svg width="13" height="13" viewBox="0 0 13 13" fill="none" xmlns="http://www.w3.org/2000/svg">
<path fill-rule="evenodd" clip-rule="evenodd" d="M5.47821 0.443887C4.31932 0.557415 3.24822 0.9846 2.3091 1.70781C1.85178 2.05999 1.25787 2.72186 0.914654 3.26178C0.76643 3.49496 0.477892 4.08584 0.374529 4.36783C0.258958 4.68315 0.135782 5.16501 0.0751683 5.53891C0.000985557 5.99654 0.000985557 6.86542 0.0751683 7.32305C0.180057 7.96999 0.345982 8.49298 0.62999 9.07198C0.94029 9.70453 1.26294 10.1529 1.77961 10.6696C2.29631 11.1863 2.74469 11.5089 3.37724 11.8192C3.95624 12.1032 4.47923 12.2692 5.12617 12.3741C5.5838 12.4482 6.45268 12.4482 6.91031 12.3741C7.55725 12.2692 8.08024 12.1032 8.65924 11.8192C9.29179 11.5089 9.74017 11.1863 10.2569 10.6696C10.7735 10.1529 11.0962 9.70453 11.4065 9.07198C11.6126 8.65181 11.7163 8.37644 11.8273 7.95419C11.9752 7.39186 12.0127 7.0836 12.0127 6.43098C12.0127 5.77836 11.9752 5.4701 11.8273 4.90777C11.7163 4.48551 11.6126 4.21014 11.4065 3.78998C11.0962 3.15743 10.7735 2.70904 10.2569 2.19235C9.74017 1.67567 9.29179 1.35303 8.65924 1.04273C8.0808 0.758976 7.54746 0.589694 6.92205 0.491308C6.57698 0.437032 5.80647 0.411725 5.47821 0.443887ZM9.16265 3.85397C9.28008 3.89003 9.45922 4.06762 9.50875 4.19711C9.56615 4.34715 9.5604 4.54204 9.49457 4.67801C9.4207 4.83062 5.55638 8.66632 5.38121 8.76093C5.2135 8.8515 5.01544 8.8515 4.84747 8.76093C4.74803 8.70731 2.96804 7.11308 2.66541 6.80659C2.54726 6.68693 2.48848 6.5408 2.49066 6.37229C2.49531 6.01699 2.75439 5.77735 3.10657 5.80254C3.19108 5.80859 3.29407 5.83104 3.33541 5.8524C3.39792 5.88472 4.58466 6.95157 4.96804 7.32009L5.0799 7.42759L6.83435 5.6757C7.79931 4.71217 8.62281 3.90681 8.66436 3.88604C8.82702 3.80465 8.9717 3.79533 9.16265 3.85397Z" fill="#57CD53"/>
</svg>
