<svg width="11" height="10" viewBox="0 0 11 10" fill="none" xmlns="http://www.w3.org/2000/svg">
<path d="M9.22727 0.193999C9.05069 0.095741 8.85647 0.033255 8.65572 0.0101145C8.45497 -0.013026 8.25163 0.00363272 8.05733 0.0591383C7.86302 0.114644 7.68156 0.207907 7.52333 0.333595C7.3651 0.459283 7.23319 0.61493 7.13516 0.791635L4.27927 5.93115L2.64481 4.29669C2.5029 4.14977 2.33316 4.03257 2.14548 3.95195C1.9578 3.87133 1.75594 3.82889 1.55168 3.82712C1.34743 3.82534 1.14486 3.86427 0.955809 3.94161C0.766755 4.01896 0.594999 4.13319 0.450563 4.27762C0.306126 4.42206 0.191901 4.59382 0.114553 4.78287C0.0372052 4.97192 -0.00171685 5.17449 5.80818e-05 5.37874C0.00183302 5.583 0.0442695 5.78486 0.124891 5.97254C0.205513 6.16022 0.322705 6.32997 0.46963 6.47187L3.54626 9.5485C3.83701 9.84002 4.22928 10 4.63385 10L4.84691 9.98462C5.0827 9.95163 5.30761 9.86437 5.50394 9.7297C5.70027 9.59503 5.86267 9.41663 5.97834 9.20854L9.82413 2.28611C9.92232 2.10955 9.98477 1.91538 10.0079 1.71469C10.0311 1.51399 10.0144 1.31071 9.95901 1.11643C9.90359 0.922161 9.81044 0.740708 9.68489 0.582436C9.55933 0.424164 9.40383 0.292173 9.22727 0.193999Z" fill="url(#paint0_linear_1316_2358)"/>
<defs>
<linearGradient id="paint0_linear_1316_2358" x1="4.99215" y1="0" x2="4.99215" y2="10" gradientUnits="userSpaceOnUse">
<stop stop-color="#07A1C0"/>
<stop offset="1" stop-color="#99D592"/>
</linearGradient>
</defs>
</svg>
