<svg width="17" height="17" viewBox="0 0 17 17" fill="none" xmlns="http://www.w3.org/2000/svg">
<path fill-rule="evenodd" clip-rule="evenodd" d="M13.6 1.13333C13.6 1.75926 14.1074 2.26667 14.7333 2.26667H15.3C16.2389 2.26667 17 3.02778 17 3.96667V15.3C17 16.2389 16.2389 17 15.3 17H1.7C0.761116 17 0 16.2389 0 15.3V3.96667C0 3.02778 0.761116 2.26667 1.7 2.26667H2.26667C2.89259 2.26667 3.4 1.75926 3.4 1.13333V0.566667C3.4 0.253705 3.65371 0 3.96667 0C4.27963 0 4.53333 0.253705 4.53333 0.566666V1.13333C4.53333 1.75926 5.04074 2.26667 5.66667 2.26667H11.3333C11.9593 2.26667 12.4667 1.75926 12.4667 1.13333V0.566666C12.4667 0.253705 12.7204 0 13.0333 0C13.3463 0 13.6 0.253705 13.6 0.566666V1.13333ZM6.8 8.5C6.8 8.81296 6.5463 9.06667 6.23333 9.06667H3.96667C3.65371 9.06667 3.4 8.81296 3.4 8.5C3.4 8.18704 3.6537 7.93333 3.96667 7.93333H6.23333C6.54629 7.93333 6.8 8.18704 6.8 8.5ZM13.6 8.5C13.6 8.18704 13.3463 7.93333 13.0333 7.93333H10.7667C10.4537 7.93333 10.2 8.18704 10.2 8.5C10.2 8.81296 10.4537 9.06667 10.7667 9.06667H13.0333C13.3463 9.06667 13.6 8.81296 13.6 8.5ZM6.8 11.9C6.8 12.213 6.54629 12.4667 6.23333 12.4667H3.96667C3.65371 12.4667 3.4 12.213 3.4 11.9C3.4 11.587 3.65371 11.3333 3.96667 11.3333H6.23333C6.54629 11.3333 6.8 11.587 6.8 11.9ZM10.2 11.9C10.2 12.213 10.4537 12.4667 10.7667 12.4667H13.0333C13.3463 12.4667 13.6 12.213 13.6 11.9C13.6 11.587 13.3463 11.3333 13.0333 11.3333H10.7667C10.4537 11.3333 10.2 11.587 10.2 11.9Z" fill="white"/>
</svg>
