<svg width="19" height="20" viewBox="0 0 19 20" fill="none" xmlns="http://www.w3.org/2000/svg">
<path d="M12.5 3.33333H17.5C17.721 3.33333 17.933 3.42113 18.0893 3.57741C18.2455 3.73369 18.3333 3.94565 18.3333 4.16667C18.3333 4.38768 18.2455 4.59964 18.0893 4.75592C17.933 4.9122 17.721 5 17.5 5H16.5783L15.325 16.2933C15.2118 17.3126 14.7267 18.2542 13.9625 18.9381C13.1984 19.622 12.2088 20.0001 11.1833 20H7.15C6.1245 20.0001 5.13497 19.622 4.37082 18.9381C3.60666 18.2542 3.12155 17.3126 3.00833 16.2933L1.75333 5H0.833333C0.61232 5 0.400358 4.9122 0.244078 4.75592C0.0877975 4.59964 0 4.38768 0 4.16667C0 3.94565 0.0877975 3.73369 0.244078 3.57741C0.400358 3.42113 0.61232 3.33333 0.833333 3.33333H5.83333C5.83333 2.44928 6.18452 1.60143 6.80964 0.976311C7.43477 0.351189 8.28261 0 9.16667 0C10.0507 0 10.8986 0.351189 11.5237 0.976311C12.1488 1.60143 12.5 2.44928 12.5 3.33333ZM9.16667 1.66667C8.72464 1.66667 8.30072 1.84226 7.98816 2.15482C7.6756 2.46738 7.5 2.89131 7.5 3.33333H10.8333C10.8333 2.89131 10.6577 2.46738 10.3452 2.15482C10.0326 1.84226 9.6087 1.66667 9.16667 1.66667ZM6.66667 8.33333V15C6.66667 15.221 6.75446 15.433 6.91074 15.5893C7.06703 15.7455 7.27899 15.8333 7.5 15.8333C7.72101 15.8333 7.93298 15.7455 8.08926 15.5893C8.24554 15.433 8.33333 15.221 8.33333 15V8.33333C8.33333 8.11232 8.24554 7.90036 8.08926 7.74408C7.93298 7.5878 7.72101 7.5 7.5 7.5C7.27899 7.5 7.06703 7.5878 6.91074 7.74408C6.75446 7.90036 6.66667 8.11232 6.66667 8.33333ZM10.8333 7.5C10.6123 7.5 10.4004 7.5878 10.2441 7.74408C10.0878 7.90036 10 8.11232 10 8.33333V15C10 15.221 10.0878 15.433 10.2441 15.5893C10.4004 15.7455 10.6123 15.8333 10.8333 15.8333C11.0543 15.8333 11.2663 15.7455 11.4226 15.5893C11.5789 15.433 11.6667 15.221 11.6667 15V8.33333C11.6667 8.11232 11.5789 7.90036 11.4226 7.74408C11.2663 7.5878 11.0543 7.5 10.8333 7.5Z" fill="#EF4949"/>
</svg>
