<svg width="15" height="14" viewBox="0 0 15 14" fill="none" xmlns="http://www.w3.org/2000/svg">
<path d="M5.62474 11.3333H9.37526C9.61424 11.3336 9.84411 11.4394 10.0179 11.6289C10.1917 11.8185 10.2962 12.0775 10.3102 12.3532C10.3242 12.6288 10.2466 12.9002 10.0932 13.112C9.93985 13.3237 9.72227 13.4598 9.48496 13.4924L9.37526 13.5H5.62474C5.38576 13.4997 5.15589 13.394 4.98212 13.2044C4.80834 13.0149 4.70377 12.7558 4.68976 12.4802C4.67576 12.2045 4.75338 11.9331 4.90676 11.7213C5.06015 11.5096 5.27773 11.3735 5.51504 11.3409L5.62474 11.3333H9.37526H5.62474ZM3.74948 5.91667H11.2505C11.4895 5.91697 11.7194 6.0227 11.8931 6.21225C12.0669 6.4018 12.1715 6.66087 12.1855 6.93651C12.1995 7.21216 12.1219 7.48358 11.9685 7.69532C11.8151 7.90706 11.5975 8.04314 11.3602 8.07575L11.2505 8.08333H3.74948C3.5105 8.08303 3.28064 7.9773 3.10686 7.78775C2.93308 7.5982 2.82851 7.33913 2.8145 7.06349C2.8005 6.78784 2.87812 6.51642 3.0315 6.30468C3.18489 6.09294 3.40247 5.95686 3.63978 5.92425L3.74948 5.91667H11.2505H3.74948ZM0.936591 0.5H14.0634C14.3024 0.500306 14.5323 0.606035 14.706 0.795585C14.8798 0.985135 14.9844 1.2442 14.9984 1.51984C15.0124 1.79549 14.9348 2.06691 14.7814 2.27865C14.628 2.49039 14.4104 2.62647 14.1731 2.65908L14.0634 2.66667H0.936591C0.697608 2.66636 0.467746 2.56063 0.293969 2.37108C0.120192 2.18153 0.0156182 1.92247 0.00161276 1.64682C-0.0123927 1.37118 0.0652276 1.09976 0.218615 0.888015C0.372002 0.676274 0.589578 0.540196 0.826888 0.507583L0.936591 0.5H14.0634H0.936591Z" fill="url(#paint0_linear_1417_4678)"/>
<defs>
<linearGradient id="paint0_linear_1417_4678" x1="1.89547e-08" y1="7.08228" x2="15.2394" y2="7.08228" gradientUnits="userSpaceOnUse">
<stop stop-color="#07A1C0"/>
<stop offset="1" stop-color="#99D592"/>
</linearGradient>
</defs>
</svg>
