<?xml version="1.0" encoding="UTF-8"?>
<svg id="Layer_1" data-name="Layer 1" xmlns="http://www.w3.org/2000/svg" viewBox="0 0 73 40">
  <defs>
    <style>
      .cls-1 {
        fill: #c41230;
      }

      .cls-2 {
        fill: #1e417c;
      }
    </style>
  </defs>
  <path class="cls-2" d="m25.31,14.71c-.09.09-.17.2-.22.32-.05.12-.08.25-.08.38s.03.26.08.38c.05.12.12.23.22.32l3.88,3.88-3.88,3.88c-.19.19-.29.44-.29.7s.1.52.29.71c.19.19.44.29.7.29s.52-.11.7-.29l4.59-4.59c.09-.09.17-.2.22-.32.05-.12.08-.25.08-.38s-.03-.26-.08-.38c-.05-.12-.12-.23-.22-.32l-4.59-4.59c-.38-.38-1.02-.38-1.41.01Z"/>
  <path class="cls-1" d="m34.29,14.71c-.09.09-.17.2-.22.32-.05.12-.08.25-.08.38s.03.26.08.38c.05.12.12.23.22.32l3.88,3.88-3.88,3.88c-.19.19-.29.44-.29.7s.11.52.29.71c.19.19.44.29.7.29s.52-.11.71-.29l4.59-4.59c.09-.09.17-.2.22-.32.05-.12.08-.25.08-.38s-.03-.26-.08-.38-.12-.23-.22-.32l-4.59-4.59c-.38-.38-1.02-.38-1.41.01Z"/>
  <path class="cls-2" d="m43.27,14.71c-.09.09-.17.2-.22.32-.05.12-.08.25-.08.38s.03.26.08.38c.05.12.12.23.22.32l3.88,3.88-3.88,3.88c-.19.19-.29.44-.29.7s.11.52.29.71c.19.19.44.29.71.29s.52-.11.7-.29l4.59-4.59c.09-.09.17-.2.22-.32.05-.12.08-.25.08-.38s-.03-.26-.08-.38c-.05-.12-.12-.23-.22-.32l-4.59-4.59c-.38-.38-1.02-.38-1.41.01Z"/>
</svg>