<svg width="20" height="20" viewBox="0 0 20 20" fill="none" xmlns="http://www.w3.org/2000/svg">
<path d="M9.75 0.25C4.37391 0.25 0 4.62391 0 10C0 15.3761 4.37391 19.75 9.75 19.75C15.1261 19.75 19.5 15.3761 19.5 10C19.5 4.62391 15.1261 0.25 9.75 0.25ZM15.375 8.78828C15.375 8.89544 15.3324 8.99822 15.2567 9.074C15.1809 9.14977 15.0781 9.19234 14.9709 9.19234H12.18C12.1001 9.19247 12.0219 9.16885 11.9554 9.12448C11.8889 9.08012 11.837 9.017 11.8065 8.94313C11.7759 8.86927 11.7679 8.78799 11.7836 8.70959C11.7993 8.6312 11.8379 8.55923 11.8945 8.50281L12.9338 7.46359L12.6713 7.15844C12.2017 6.67099 11.6187 6.30749 10.9743 6.10044C10.33 5.89339 9.64436 5.84923 8.97877 5.97193C8.31317 6.09462 7.68835 6.38034 7.16017 6.80354C6.63199 7.22674 6.21691 7.77422 5.95204 8.39705C5.68718 9.01988 5.58077 9.69863 5.64234 10.3726C5.70392 11.0466 5.93155 11.6949 6.30489 12.2594C6.67823 12.8239 7.18564 13.2871 7.78176 13.6076C8.37788 13.9281 9.04413 14.0959 9.72094 14.0959C10.568 14.0951 11.394 13.8323 12.0857 13.3434C12.7774 12.8546 13.3009 12.1636 13.5844 11.3655C13.6172 11.2725 13.668 11.1869 13.734 11.1136C13.7999 11.0403 13.8796 10.9807 13.9685 10.9382C14.0575 10.8957 14.1539 10.8711 14.2524 10.8659C14.3508 10.8607 14.4493 10.8749 14.5423 10.9077C14.6352 10.9406 14.7208 10.9914 14.7941 11.0573C14.8674 11.1232 14.927 11.2029 14.9695 11.2919C15.012 11.3808 15.0366 11.4773 15.0418 11.5757C15.0471 11.6742 15.0328 11.7727 15 11.8656C14.6582 12.8331 14.057 13.6879 13.2621 14.3367C12.4672 14.9855 11.5093 15.4034 10.493 15.5446C9.47675 15.6858 8.44121 15.5449 7.49959 15.1373C6.55797 14.7297 5.74651 14.0711 5.1539 13.2335C4.5613 12.3959 4.21034 11.4115 4.1394 10.3879C4.06846 9.36431 4.28026 8.34092 4.75166 7.42957C5.22306 6.51822 5.93591 5.75399 6.8123 5.22041C7.68869 4.68682 8.69489 4.40442 9.72094 4.40406C10.4782 4.40117 11.228 4.55335 11.9242 4.85123C12.6204 5.14911 13.2483 5.58637 13.7691 6.13609L13.7953 6.16516L13.9973 6.39953L14.6855 5.71141C14.7221 5.67391 14.7659 5.64408 14.8141 5.62364C14.8624 5.6032 14.9143 5.59256 14.9667 5.59234C15.0201 5.59191 15.073 5.60206 15.1224 5.62221C15.1718 5.64235 15.2167 5.6721 15.2546 5.70972C15.2924 5.74734 15.3224 5.79209 15.3428 5.84138C15.3633 5.89067 15.3737 5.94352 15.3736 5.99688L15.375 8.78828Z" fill="#EF4949"/>
</svg>
