<svg width="22" height="22" viewBox="0 0 22 22" fill="none" xmlns="http://www.w3.org/2000/svg">
<path d="M21.7318 20.4425L15.4831 14.1967C16.8894 12.4644 17.577 10.2589 17.4041 8.03489C17.2312 5.8109 16.211 3.73798 14.5538 2.24352C12.8967 0.749062 10.7289 -0.0529934 8.49747 0.00271966C6.26602 0.0584327 4.14103 0.967667 2.56062 2.54296C0.980206 4.11825 0.0648644 6.23949 0.00331699 8.46934C-0.0582304 10.6992 0.738709 12.8676 2.22982 14.5276C3.72093 16.1876 5.79254 17.2125 8.01752 17.391C10.2425 17.5696 12.4512 16.8882 14.1883 15.4873L20.4371 21.732C20.5221 21.817 20.623 21.8844 20.7341 21.9304C20.8452 21.9763 20.9642 22 21.0845 22C21.2047 22 21.3237 21.9763 21.4348 21.9304C21.5459 21.8844 21.6468 21.817 21.7318 21.732C21.8169 21.6471 21.8843 21.5462 21.9303 21.4352C21.9763 21.3242 22 21.2052 22 21.085C22 20.9649 21.9763 20.8459 21.9303 20.7349C21.8843 20.6239 21.8169 20.523 21.7318 20.4381V20.4425ZM8.72467 15.5992C7.36664 15.5986 6.0393 15.1955 4.91047 14.441C3.78163 13.6866 2.90198 12.6145 2.38275 11.3605C1.86352 10.1065 1.728 8.72673 1.99335 7.39574C2.2587 6.06474 2.91298 4.84226 3.87349 3.88284C4.834 2.92343 6.05759 2.27016 7.38958 2.00564C8.72156 1.74112 10.1021 1.87722 11.3567 2.39673C12.6113 2.91624 13.6836 3.79584 14.438 4.92431C15.1924 6.05279 15.5951 7.37947 15.5951 8.73662C15.5933 10.5567 14.8688 12.3017 13.5806 13.5884C12.2924 14.8751 10.546 15.5983 8.72467 15.5992Z" fill="white"/>
</svg>
