<svg width="14" height="14" viewBox="0 0 14 14" fill="none" xmlns="http://www.w3.org/2000/svg">
<path d="M13.8294 13.0089L9.85286 9.03426C10.7478 7.93189 11.1853 6.52838 11.0753 5.11311C10.9653 3.69784 10.3161 2.37871 9.26153 1.42769C8.20698 0.476676 6.82749 -0.0337231 5.40748 0.00173069C3.98747 0.0371844 2.6352 0.615788 1.62948 1.61825C0.623767 2.6207 0.0412773 3.97059 0.00211081 5.38958C-0.0370557 6.80858 0.470087 8.1885 1.41898 9.24483C2.36787 10.3012 3.68616 10.9534 5.10206 11.067C6.51795 11.1806 7.9235 10.747 9.02891 9.85555L13.0054 13.8295C13.0595 13.8835 13.1237 13.9264 13.1944 13.9557C13.2651 13.9849 13.3409 14 13.4174 14C13.4939 14 13.5697 13.9849 13.6403 13.9557C13.711 13.9264 13.7753 13.8835 13.8294 13.8295C13.8835 13.7754 13.9264 13.7112 13.9557 13.6406C13.9849 13.5699 14 13.4942 14 13.4178C14 13.3413 13.9849 13.2656 13.9557 13.1949C13.9264 13.1243 13.8835 13.0601 13.8294 13.006V13.0089ZM5.55206 9.92677C4.68786 9.92635 3.84319 9.66987 3.12484 9.18975C2.40649 8.70963 1.84672 8.02743 1.5163 7.22941C1.18587 6.43139 1.09964 5.55337 1.2685 4.70638C1.43735 3.85938 1.85372 3.08144 2.46495 2.4709C3.07618 1.86036 3.85483 1.44465 4.70246 1.27632C5.55008 1.10798 6.42862 1.19459 7.227 1.52519C8.02537 1.85579 8.70774 2.41553 9.18782 3.13365C9.6679 3.85178 9.92414 4.69603 9.92414 5.55967C9.923 6.71792 9.46195 7.82838 8.64221 8.64718C7.82247 9.46599 6.71107 9.92621 5.55206 9.92677Z" fill="#5F616B"/>
</svg>
