<svg width="16" height="20" viewBox="0 0 16 20" fill="none" xmlns="http://www.w3.org/2000/svg">
<path d="M15.41 5.41L10.58 0.58C10.21 0.21 9.7 0 9.17 0H2C0.9 0 0.0100002 0.9 0.0100002 2L0 18C0 19.1 0.89 20 1.99 20H14C15.1 20 16 19.1 16 18V6.83C16 6.3 15.79 5.79 15.41 5.41ZM10.8 13H9V16C9 16.55 8.55 17 8 17C7.45 17 7 16.55 7 16V13H5.21C4.76 13 4.54 12.46 4.86 12.15L7.66 9.36C7.86 9.17 8.17 9.17 8.37 9.36L11.16 12.15C11.46 12.46 11.24 13 10.8 13ZM10 7C9.45 7 9 6.55 9 6V1.5L14.5 7H10Z" fill="#FE9705"/>
</svg>
