<svg width="76" height="76" viewBox="0 0 76 76" fill="none" xmlns="http://www.w3.org/2000/svg">
<path d="M0.836145 36.0885C0.825797 36.0885 0.815879 36.0881 0.80553 36.0872C0.590364 36.0709 0.429096 35.8835 0.445482 35.6691C0.556299 34.2371 0.7512 32.7995 1.02458 31.395C1.06597 31.184 1.27122 31.046 1.48337 31.0868C1.69509 31.1281 1.8335 31.3322 1.79254 31.5437C1.52477 32.9185 1.33375 34.3269 1.22552 35.7288C1.20956 35.933 1.03838 36.0885 0.836145 36.0885ZM2.46822 27.72C2.42898 27.72 2.38931 27.7144 2.34964 27.7019C2.14396 27.6366 2.03013 27.4174 2.09567 27.2124C2.53118 25.8462 3.05249 24.4902 3.64452 23.182C3.73335 22.986 3.9649 22.8988 4.16153 22.9873C4.35858 23.0754 4.44612 23.3062 4.35729 23.5022C3.77776 24.7829 3.26766 26.1109 2.84078 27.4484C2.78817 27.6143 2.63423 27.72 2.46822 27.72ZM5.98462 19.9471C5.9165 19.9471 5.84707 19.9295 5.78412 19.8921C5.5987 19.7817 5.53834 19.5423 5.64915 19.3575C6.38736 18.1283 7.20577 16.9271 8.08153 15.7886C8.21261 15.6176 8.4584 15.5853 8.62958 15.716C8.8012 15.8471 8.83354 16.0916 8.70245 16.2622C7.8448 17.3775 7.04321 18.5534 6.32053 19.7576C6.24722 19.8796 6.11743 19.9471 5.98462 19.9471ZM11.1879 13.1803C11.09 13.1803 10.9921 13.1438 10.9162 13.0707C10.761 12.9216 10.7567 12.6749 10.9067 12.5202C11.9062 11.4892 12.9765 10.505 14.0872 9.59473C14.2541 9.45806 14.5007 9.4817 14.6379 9.64802C14.775 9.81435 14.7508 10.0597 14.5844 10.1964C13.4965 11.0878 12.4483 12.0517 11.4694 13.0613C11.3927 13.1408 11.2901 13.1803 11.1879 13.1803ZM17.7946 7.76734C17.6662 7.76734 17.5407 7.70459 17.4656 7.58941C17.3484 7.40847 17.4005 7.16737 17.5816 7.05047C18.7907 6.27215 20.0571 5.55615 21.3455 4.92267C21.5392 4.82726 21.7733 4.90633 21.869 5.0993C21.9647 5.29227 21.8854 5.52607 21.6918 5.62105C20.4301 6.24164 19.19 6.94303 18.0064 7.70502C17.9408 7.74714 17.8671 7.76734 17.7946 7.76734ZM25.4604 3.99736C25.2996 3.99736 25.1491 3.89766 25.0918 3.73864C25.0193 3.53579 25.1254 3.31273 25.3289 3.24053C26.6838 2.75833 28.0817 2.35047 29.4835 2.02771C29.6939 1.97915 29.9039 2.1098 29.9526 2.31953C30.0014 2.52883 29.8703 2.73813 29.6599 2.78669C28.2869 3.10258 26.9183 3.50226 25.592 3.97416C25.5484 3.99006 25.504 3.99736 25.4604 3.99736Z" fill="#1E417C"/>
<path d="M35.077 76.0003C35.0666 76.0003 35.0567 75.9998 35.0463 75.999C33.6083 75.8881 32.1647 75.6925 30.7547 75.4192C30.5425 75.3779 30.4041 75.1734 30.4455 74.9623C30.4869 74.7509 30.6921 74.6134 30.9043 74.6542C32.285 74.9224 33.6989 75.1132 35.1067 75.2224C35.3219 75.2387 35.4831 75.4261 35.4663 75.6405C35.4504 75.8451 35.2792 76.0003 35.077 76.0003ZM26.6773 74.3688C26.638 74.3688 26.5979 74.3628 26.5587 74.3504C25.1879 73.9154 23.8275 73.3954 22.5154 72.8053C22.3183 72.7168 22.2308 72.486 22.3196 72.29C22.4084 72.0936 22.64 72.0068 22.837 72.0953C24.122 72.6729 25.454 73.1822 26.7958 73.6077C27.002 73.673 27.1154 73.8922 27.0498 74.0972C26.9968 74.2631 26.8433 74.3688 26.6773 74.3688ZM18.8782 70.8615C18.8101 70.8615 18.7407 70.8438 18.6777 70.806C17.4441 70.0702 16.2393 69.2545 15.0966 68.3812C14.925 68.2506 14.8927 68.006 15.0242 67.835C15.1557 67.6644 15.4011 67.6321 15.5727 67.7632C16.6916 68.618 17.8714 69.417 19.0796 70.1377C19.265 70.2482 19.3249 70.4875 19.2141 70.6719C19.1408 70.794 19.0115 70.8615 18.8782 70.8615Z" fill="#1E417C"/>
<path d="M72.576 52.8797C72.5273 52.8797 72.4777 52.8707 72.4299 52.8514C72.2294 52.771 72.1328 52.5436 72.2138 52.3442C72.7416 51.0424 73.1983 49.6964 73.5717 48.343C73.6286 48.1355 73.8438 48.0134 74.052 48.0701C74.2603 48.1273 74.3828 48.3417 74.3258 48.5493C73.9447 49.9315 73.4781 51.3068 72.9387 52.636C72.8775 52.7878 72.7308 52.8797 72.576 52.8797ZM74.8428 44.6603C74.8234 44.6603 74.8032 44.659 74.7833 44.656C74.5699 44.6233 74.4233 44.4244 74.4561 44.2116C74.6695 42.8273 74.8045 41.4125 74.8584 40.0059C74.8666 39.791 75.0472 39.6229 75.2637 39.6315C75.4797 39.6397 75.6479 39.8206 75.6397 40.0355C75.5849 41.4718 75.4469 42.9167 75.2292 44.3298C75.1994 44.5224 75.0326 44.6603 74.8428 44.6603ZM75.1684 36.1418C74.9662 36.1418 74.7946 35.9862 74.779 35.7816C74.673 34.3793 74.4841 32.9705 74.218 31.5948C74.1771 31.3837 74.3159 31.1792 74.5281 31.1388C74.7402 31.0979 74.945 31.2363 74.986 31.4474C75.2577 32.8523 75.4504 34.2907 75.5591 35.7227C75.575 35.9372 75.4137 36.1241 75.1986 36.1405C75.1887 36.1413 75.1783 36.1418 75.1684 36.1418ZM73.5493 27.7737C73.3832 27.7737 73.2293 27.6675 73.1767 27.5012C72.752 26.1637 72.244 24.8362 71.6671 23.555C71.5787 23.359 71.6667 23.1282 71.8637 23.0401C72.0603 22.952 72.2923 23.0397 72.3807 23.2361C72.9702 24.5443 73.4889 25.9003 73.9222 27.2665C73.9874 27.4715 73.8731 27.6907 73.6674 27.7552C73.6282 27.7676 73.5885 27.7737 73.5493 27.7737ZM70.0471 19.9986C69.9134 19.9986 69.7836 19.9307 69.7103 19.8082C68.9898 18.6036 68.1908 17.4264 67.3349 16.3099C67.2038 16.1388 67.237 15.8943 67.4086 15.7641C67.5802 15.6334 67.8256 15.6661 67.9566 15.8371C68.8302 16.9773 69.6465 18.1794 70.3826 19.4098C70.4929 19.5946 70.4321 19.8336 70.2467 19.9436C70.1838 19.981 70.1148 19.9986 70.0471 19.9986ZM64.8551 13.2241C64.7524 13.2241 64.6498 13.1841 64.5731 13.1046C63.5955 12.0934 62.549 11.1272 61.4624 10.2342C61.296 10.0971 61.2722 9.85168 61.4098 9.68578C61.5474 9.51946 61.7936 9.49625 61.96 9.63292C63.0695 10.5453 64.1384 11.5312 65.1366 12.5644C65.2862 12.7191 65.2819 12.9658 65.1263 13.1149C65.0504 13.188 64.9525 13.2241 64.8551 13.2241Z" fill="#1E417C"/>
<mask id="path-4-inside-1_57489_29163" fill="white">
<path d="M65.3691 38.5881C65.3691 39.0342 65.3579 39.4803 65.3359 39.9259C65.3139 40.3716 65.2812 40.8164 65.2372 41.2604C65.1932 41.7043 65.1384 42.1474 65.0729 42.5888C65.0069 43.0302 64.9306 43.4694 64.8431 43.9069C64.7555 44.3449 64.6577 44.7798 64.5486 45.213C64.4399 45.6458 64.3205 46.0756 64.1902 46.5028C64.0605 46.9295 63.9199 47.3533 63.769 47.7732C63.618 48.1935 63.4572 48.6095 63.2856 49.0217C63.1144 49.4343 62.9329 49.8417 62.7414 50.2452C62.5495 50.6488 62.3486 51.0472 62.1373 51.4404C61.926 51.8341 61.7053 52.2222 61.475 52.6051C61.2447 52.9876 61.0054 53.3645 60.7566 53.7354C60.5078 54.1068 60.25 54.4712 59.9831 54.8296C59.7162 55.1881 59.4406 55.5396 59.1565 55.8847C58.8723 56.2294 58.58 56.5672 58.279 56.8981C57.9784 57.2286 57.6697 57.5518 57.3528 57.8673C57.0363 58.1827 56.712 58.4904 56.38 58.79C56.048 59.0895 55.7091 59.3809 55.3628 59.6642C55.0166 59.9469 54.6634 60.2216 54.3038 60.4872C53.9442 60.7532 53.5781 61.0102 53.2055 61.2577C52.833 61.5057 52.4548 61.7443 52.0706 61.9738C51.6864 62.2033 51.2971 62.4233 50.9017 62.6335C50.5067 62.8436 50.107 63.0443 49.7021 63.2351C49.2972 63.426 48.8875 63.6065 48.474 63.7775C48.0601 63.9481 47.6422 64.1089 47.2205 64.2589C46.7988 64.4093 46.3737 64.5494 45.9451 64.6787C45.5164 64.8085 45.0848 64.9272 44.6506 65.0359C44.216 65.1442 43.7792 65.2417 43.3398 65.329C42.9004 65.4158 42.4593 65.4923 42.016 65.5576C41.5732 65.6234 41.1286 65.678 40.6832 65.7214C40.2373 65.7652 39.7906 65.7983 39.3434 65.8198C38.8959 65.8417 38.4483 65.8529 38.0003 65.8529C37.5527 65.8529 37.1047 65.8417 36.6575 65.8198C36.2099 65.7983 35.7637 65.7652 35.3178 65.7214C34.8719 65.678 34.4278 65.6234 33.9845 65.5576C33.5417 65.4923 33.1006 65.4158 32.6612 65.329C32.2218 65.2417 31.785 65.1442 31.3504 65.0359C30.9157 64.9272 30.4845 64.8085 30.0559 64.6787C29.6273 64.5494 29.2022 64.4093 28.7804 64.2589C28.3587 64.1089 27.9409 63.9481 27.527 63.7775C27.113 63.6065 26.7038 63.426 26.2989 63.2351C25.894 63.0443 25.4939 62.8436 25.0989 62.6335C24.7039 62.4233 24.3145 62.2033 23.9303 61.9738C23.5462 61.7443 23.1676 61.5057 22.7954 61.2577C22.4229 61.0102 22.0568 60.7532 21.6972 60.4872C21.3371 60.2216 20.9844 59.9469 20.6382 59.6642C20.2919 59.3809 19.9526 59.0895 19.621 58.79C19.289 58.4904 18.9647 58.1827 18.6478 57.8673C18.3313 57.5518 18.0225 57.2286 17.7216 56.8981C17.421 56.5672 17.1282 56.2294 16.8441 55.8847C16.5599 55.5396 16.2848 55.1881 16.0179 54.8296C15.751 54.4712 15.4931 54.1068 15.2443 53.7354C14.9955 53.3645 14.7558 52.9876 14.5255 52.6051C14.2953 52.2222 14.0745 51.8341 13.8636 51.4404C13.6524 51.0472 13.451 50.6488 13.2595 50.2452C13.0681 49.8417 12.8866 49.4343 12.7154 49.0217C12.5438 48.6095 12.3825 48.1935 12.2316 47.7732C12.0807 47.3533 11.9405 46.9295 11.8103 46.5028C11.6805 46.0756 11.5611 45.6458 11.452 45.213C11.3433 44.7798 11.245 44.3449 11.1579 43.9069C11.0704 43.4694 10.994 43.0298 10.9281 42.5888C10.8625 42.1474 10.8078 41.7043 10.7638 41.2604C10.7198 40.8164 10.687 40.3716 10.665 39.9259C10.643 39.4803 10.6318 39.0342 10.6318 38.5881C10.6318 38.142 10.643 37.6959 10.665 37.2502C10.687 36.8045 10.7198 36.3597 10.7638 35.9157C10.8078 35.4713 10.8625 35.0287 10.9281 34.5873C10.994 34.1459 11.0704 33.7067 11.1579 33.2688C11.245 32.8312 11.3433 32.3959 11.452 31.9631C11.5611 31.5303 11.6805 31.1006 11.8103 30.6734C11.9405 30.2466 12.0811 29.8228 12.2316 29.4029C12.3825 28.9826 12.5438 28.5666 12.7154 28.154C12.8866 27.7419 13.0681 27.334 13.2595 26.9309C13.451 26.5273 13.6524 26.1289 13.8636 25.7357C14.0745 25.342 14.2953 24.9539 14.5255 24.571C14.7558 24.1885 14.9955 23.8116 15.2443 23.4407C15.4931 23.0694 15.751 22.7049 16.0179 22.3465C16.2848 21.9881 16.5599 21.6365 16.8441 21.2914C17.1282 20.9463 17.421 20.6089 17.7216 20.278C18.0225 19.9475 18.3313 19.6243 18.6478 19.3089C18.9647 18.9934 19.289 18.6857 19.621 18.3861C19.9526 18.0866 20.2919 17.7952 20.6382 17.512C20.9844 17.2292 21.3371 16.9546 21.6972 16.6885C22.0568 16.4229 22.4229 16.1659 22.7954 15.9184C23.1676 15.6704 23.5462 15.4314 23.9303 15.2024C24.3145 14.9729 24.7039 14.7528 25.0989 14.5427C25.4939 14.3321 25.894 14.1318 26.2989 13.941C26.7038 13.7502 27.113 13.5692 27.527 13.3986C27.9409 13.228 28.3587 13.0673 28.7804 12.9168C29.2022 12.7669 29.6273 12.6267 30.0559 12.4974C30.4845 12.3676 30.9157 12.2485 31.3504 12.1402C31.785 12.0319 32.2218 11.9344 32.6612 11.8471C33.1006 11.7599 33.5417 11.6838 33.9845 11.6185C34.4278 11.5527 34.8719 11.4982 35.3178 11.4543C35.7637 11.4109 36.2099 11.3778 36.6575 11.3559C37.1047 11.334 37.5527 11.3232 38.0003 11.3232C38.4483 11.3232 38.8959 11.334 39.3434 11.3559C39.7906 11.3778 40.2373 11.4109 40.6832 11.4543C41.1286 11.4982 41.5732 11.5527 42.016 11.6185C42.4593 11.6838 42.9004 11.7599 43.3398 11.8471C43.7792 11.9344 44.216 12.0319 44.6506 12.1402C45.0848 12.2485 45.5164 12.3676 45.9451 12.4974C46.3737 12.6267 46.7988 12.7669 47.2205 12.9168C47.6422 13.0673 48.0601 13.228 48.474 13.3986C48.8875 13.5692 49.2972 13.7502 49.7021 13.941C50.107 14.1318 50.5067 14.3321 50.9017 14.5427C51.2971 14.7528 51.6864 14.9729 52.0706 15.2024C52.4548 15.4314 52.833 15.6704 53.2055 15.9184C53.5781 16.1659 53.9442 16.4229 54.3038 16.6885C54.6634 16.9546 55.0166 17.2292 55.3628 17.512C55.7091 17.7952 56.048 18.0866 56.38 18.3861C56.712 18.6857 57.0363 18.9934 57.3528 19.3089C57.6697 19.6243 57.9784 19.9475 58.279 20.278C58.58 20.6089 58.8723 20.9463 59.1565 21.2914C59.4406 21.6365 59.7162 21.9881 59.9831 22.3465C60.25 22.7049 60.5078 23.0694 60.7566 23.4407C61.0054 23.8116 61.2447 24.1885 61.475 24.571C61.7053 24.9539 61.926 25.342 62.1373 25.7357C62.3486 26.1289 62.5495 26.5273 62.7414 26.9309C62.9329 27.334 63.1144 27.7419 63.2856 28.1545C63.4572 28.5666 63.618 28.9826 63.769 29.4029C63.9199 29.8228 64.0605 30.2466 64.1902 30.6734C64.3205 31.1006 64.4399 31.5303 64.5486 31.9631C64.6577 32.3959 64.7555 32.8312 64.8431 33.2688C64.9306 33.7067 65.0069 34.1459 65.0729 34.5873C65.1384 35.0287 65.1932 35.4713 65.2372 35.9157C65.2812 36.3597 65.3139 36.8045 65.3359 37.2502C65.3579 37.6959 65.3691 38.142 65.3691 38.5881Z"/>
</mask>
<path d="M65.3691 38.5881C65.3691 39.0342 65.3579 39.4803 65.3359 39.9259C65.3139 40.3716 65.2812 40.8164 65.2372 41.2604C65.1932 41.7043 65.1384 42.1474 65.0729 42.5888C65.0069 43.0302 64.9306 43.4694 64.8431 43.9069C64.7555 44.3449 64.6577 44.7798 64.5486 45.213C64.4399 45.6458 64.3205 46.0756 64.1902 46.5028C64.0605 46.9295 63.9199 47.3533 63.769 47.7732C63.618 48.1935 63.4572 48.6095 63.2856 49.0217C63.1144 49.4343 62.9329 49.8417 62.7414 50.2452C62.5495 50.6488 62.3486 51.0472 62.1373 51.4404C61.926 51.8341 61.7053 52.2222 61.475 52.6051C61.2447 52.9876 61.0054 53.3645 60.7566 53.7354C60.5078 54.1068 60.25 54.4712 59.9831 54.8296C59.7162 55.1881 59.4406 55.5396 59.1565 55.8847C58.8723 56.2294 58.58 56.5672 58.279 56.8981C57.9784 57.2286 57.6697 57.5518 57.3528 57.8673C57.0363 58.1827 56.712 58.4904 56.38 58.79C56.048 59.0895 55.7091 59.3809 55.3628 59.6642C55.0166 59.9469 54.6634 60.2216 54.3038 60.4872C53.9442 60.7532 53.5781 61.0102 53.2055 61.2577C52.833 61.5057 52.4548 61.7443 52.0706 61.9738C51.6864 62.2033 51.2971 62.4233 50.9017 62.6335C50.5067 62.8436 50.107 63.0443 49.7021 63.2351C49.2972 63.426 48.8875 63.6065 48.474 63.7775C48.0601 63.9481 47.6422 64.1089 47.2205 64.2589C46.7988 64.4093 46.3737 64.5494 45.9451 64.6787C45.5164 64.8085 45.0848 64.9272 44.6506 65.0359C44.216 65.1442 43.7792 65.2417 43.3398 65.329C42.9004 65.4158 42.4593 65.4923 42.016 65.5576C41.5732 65.6234 41.1286 65.678 40.6832 65.7214C40.2373 65.7652 39.7906 65.7983 39.3434 65.8198C38.8959 65.8417 38.4483 65.8529 38.0003 65.8529C37.5527 65.8529 37.1047 65.8417 36.6575 65.8198C36.2099 65.7983 35.7637 65.7652 35.3178 65.7214C34.8719 65.678 34.4278 65.6234 33.9845 65.5576C33.5417 65.4923 33.1006 65.4158 32.6612 65.329C32.2218 65.2417 31.785 65.1442 31.3504 65.0359C30.9157 64.9272 30.4845 64.8085 30.0559 64.6787C29.6273 64.5494 29.2022 64.4093 28.7804 64.2589C28.3587 64.1089 27.9409 63.9481 27.527 63.7775C27.113 63.6065 26.7038 63.426 26.2989 63.2351C25.894 63.0443 25.4939 62.8436 25.0989 62.6335C24.7039 62.4233 24.3145 62.2033 23.9303 61.9738C23.5462 61.7443 23.1676 61.5057 22.7954 61.2577C22.4229 61.0102 22.0568 60.7532 21.6972 60.4872C21.3371 60.2216 20.9844 59.9469 20.6382 59.6642C20.2919 59.3809 19.9526 59.0895 19.621 58.79C19.289 58.4904 18.9647 58.1827 18.6478 57.8673C18.3313 57.5518 18.0225 57.2286 17.7216 56.8981C17.421 56.5672 17.1282 56.2294 16.8441 55.8847C16.5599 55.5396 16.2848 55.1881 16.0179 54.8296C15.751 54.4712 15.4931 54.1068 15.2443 53.7354C14.9955 53.3645 14.7558 52.9876 14.5255 52.6051C14.2953 52.2222 14.0745 51.8341 13.8636 51.4404C13.6524 51.0472 13.451 50.6488 13.2595 50.2452C13.0681 49.8417 12.8866 49.4343 12.7154 49.0217C12.5438 48.6095 12.3825 48.1935 12.2316 47.7732C12.0807 47.3533 11.9405 46.9295 11.8103 46.5028C11.6805 46.0756 11.5611 45.6458 11.452 45.213C11.3433 44.7798 11.245 44.3449 11.1579 43.9069C11.0704 43.4694 10.994 43.0298 10.9281 42.5888C10.8625 42.1474 10.8078 41.7043 10.7638 41.2604C10.7198 40.8164 10.687 40.3716 10.665 39.9259C10.643 39.4803 10.6318 39.0342 10.6318 38.5881C10.6318 38.142 10.643 37.6959 10.665 37.2502C10.687 36.8045 10.7198 36.3597 10.7638 35.9157C10.8078 35.4713 10.8625 35.0287 10.9281 34.5873C10.994 34.1459 11.0704 33.7067 11.1579 33.2688C11.245 32.8312 11.3433 32.3959 11.452 31.9631C11.5611 31.5303 11.6805 31.1006 11.8103 30.6734C11.9405 30.2466 12.0811 29.8228 12.2316 29.4029C12.3825 28.9826 12.5438 28.5666 12.7154 28.154C12.8866 27.7419 13.0681 27.334 13.2595 26.9309C13.451 26.5273 13.6524 26.1289 13.8636 25.7357C14.0745 25.342 14.2953 24.9539 14.5255 24.571C14.7558 24.1885 14.9955 23.8116 15.2443 23.4407C15.4931 23.0694 15.751 22.7049 16.0179 22.3465C16.2848 21.9881 16.5599 21.6365 16.8441 21.2914C17.1282 20.9463 17.421 20.6089 17.7216 20.278C18.0225 19.9475 18.3313 19.6243 18.6478 19.3089C18.9647 18.9934 19.289 18.6857 19.621 18.3861C19.9526 18.0866 20.2919 17.7952 20.6382 17.512C20.9844 17.2292 21.3371 16.9546 21.6972 16.6885C22.0568 16.4229 22.4229 16.1659 22.7954 15.9184C23.1676 15.6704 23.5462 15.4314 23.9303 15.2024C24.3145 14.9729 24.7039 14.7528 25.0989 14.5427C25.4939 14.3321 25.894 14.1318 26.2989 13.941C26.7038 13.7502 27.113 13.5692 27.527 13.3986C27.9409 13.228 28.3587 13.0673 28.7804 12.9168C29.2022 12.7669 29.6273 12.6267 30.0559 12.4974C30.4845 12.3676 30.9157 12.2485 31.3504 12.1402C31.785 12.0319 32.2218 11.9344 32.6612 11.8471C33.1006 11.7599 33.5417 11.6838 33.9845 11.6185C34.4278 11.5527 34.8719 11.4982 35.3178 11.4543C35.7637 11.4109 36.2099 11.3778 36.6575 11.3559C37.1047 11.334 37.5527 11.3232 38.0003 11.3232C38.4483 11.3232 38.8959 11.334 39.3434 11.3559C39.7906 11.3778 40.2373 11.4109 40.6832 11.4543C41.1286 11.4982 41.5732 11.5527 42.016 11.6185C42.4593 11.6838 42.9004 11.7599 43.3398 11.8471C43.7792 11.9344 44.216 12.0319 44.6506 12.1402C45.0848 12.2485 45.5164 12.3676 45.9451 12.4974C46.3737 12.6267 46.7988 12.7669 47.2205 12.9168C47.6422 13.0673 48.0601 13.228 48.474 13.3986C48.8875 13.5692 49.2972 13.7502 49.7021 13.941C50.107 14.1318 50.5067 14.3321 50.9017 14.5427C51.2971 14.7528 51.6864 14.9729 52.0706 15.2024C52.4548 15.4314 52.833 15.6704 53.2055 15.9184C53.5781 16.1659 53.9442 16.4229 54.3038 16.6885C54.6634 16.9546 55.0166 17.2292 55.3628 17.512C55.7091 17.7952 56.048 18.0866 56.38 18.3861C56.712 18.6857 57.0363 18.9934 57.3528 19.3089C57.6697 19.6243 57.9784 19.9475 58.279 20.278C58.58 20.6089 58.8723 20.9463 59.1565 21.2914C59.4406 21.6365 59.7162 21.9881 59.9831 22.3465C60.25 22.7049 60.5078 23.0694 60.7566 23.4407C61.0054 23.8116 61.2447 24.1885 61.475 24.571C61.7053 24.9539 61.926 25.342 62.1373 25.7357C62.3486 26.1289 62.5495 26.5273 62.7414 26.9309C62.9329 27.334 63.1144 27.7419 63.2856 28.1545C63.4572 28.5666 63.618 28.9826 63.769 29.4029C63.9199 29.8228 64.0605 30.2466 64.1902 30.6734C64.3205 31.1006 64.4399 31.5303 64.5486 31.9631C64.6577 32.3959 64.7555 32.8312 64.8431 33.2688C64.9306 33.7067 65.0069 34.1459 65.0729 34.5873C65.1384 35.0287 65.1932 35.4713 65.2372 35.9157C65.2812 36.3597 65.3139 36.8045 65.3359 37.2502C65.3579 37.6959 65.3691 38.142 65.3691 38.5881Z" stroke="#1E417C" stroke-width="2" mask="url(#path-4-inside-1_57489_29163)"/>
<path d="M67.5412 42.7703C67.5404 42.7703 67.5399 42.7703 67.5391 42.7703L59.6335 42.7321C59.4175 42.7312 59.2433 42.5558 59.2441 42.3405L59.273 36.374C59.2735 36.2704 59.3153 36.1716 59.389 36.0989C59.4623 36.0267 59.5611 35.9863 59.6641 35.9863C59.665 35.9863 59.6654 35.9863 59.6663 35.9863L67.5718 36.0241C67.715 36.025 67.8461 36.1032 67.9142 36.2287C67.9819 36.3538 67.9763 36.5059 67.8982 36.6254L66.1032 39.3901L67.8715 42.1721C67.9478 42.2924 67.9526 42.4445 67.8832 42.5692C67.8146 42.6934 67.6835 42.7703 67.5412 42.7703ZM60.0281 41.9546L66.8284 41.9877L65.3085 39.5964C65.227 39.4679 65.2278 39.3042 65.3106 39.1765L66.8535 36.7999L60.0535 36.7672L60.0281 41.9546Z" fill="#1E417C"/>
<path d="M59.603 49.2081C59.6022 49.2081 59.6017 49.2081 59.6009 49.2081C59.3853 49.2073 59.2106 49.0319 59.2119 48.8166L59.2434 42.3408C59.2443 42.1263 59.4193 41.9531 59.6345 41.9531C59.6349 41.9531 59.6358 41.9531 59.6362 41.9531C59.8522 41.954 60.0265 42.1293 60.0256 42.3446L59.9941 48.8205C59.9928 49.0349 59.8182 49.2081 59.603 49.2081Z" fill="#1E417C"/>
<path d="M49.8073 74.5264H42.0669C41.8508 74.5264 41.6758 74.3519 41.6758 74.1366C41.6758 73.9217 41.8508 73.7473 42.0669 73.7473H49.4162V68.2169C49.4162 67.6238 49.881 67.1416 50.4523 67.1416H57.8021V61.6113C57.8021 61.0187 58.2669 60.536 58.8378 60.536H66.1875V55.3302C66.1875 54.7371 66.6524 54.2549 67.2237 54.2549H75.6092C75.8252 54.2549 76.0003 54.4289 76.0003 54.6443C76.0003 54.8596 75.8252 55.0341 75.6092 55.0341H67.2237C67.0836 55.0341 66.9697 55.1669 66.9697 55.3302V60.9254C66.9697 61.1407 66.7947 61.3152 66.5786 61.3152H58.8378C58.6981 61.3152 58.5843 61.448 58.5843 61.6113V67.531C58.5843 67.7463 58.4092 67.9208 58.1932 67.9208H50.4523C50.3122 67.9208 50.1984 68.0536 50.1984 68.2169V74.1366C50.1984 74.3519 50.0233 74.5264 49.8073 74.5264Z" fill="#1E417C"/>
<path d="M59.6372 52.01C59.5096 52.01 59.3811 51.9988 59.2552 51.9773L55.2963 51.2914C54.7198 51.1913 54.1968 50.8608 53.8609 50.3842L50.4036 45.4805C50.0629 44.9974 49.9318 44.4112 50.0336 43.8297C50.1358 43.2482 50.4592 42.7415 50.9439 42.402C51.429 42.0629 52.0171 41.9318 52.6009 42.0337C53.1844 42.1351 53.6936 42.4574 54.0342 42.9405L56.9625 47.0938L60.0149 47.6229C61.2201 47.8313 62.0299 48.9779 61.8203 50.1783C61.6354 51.2398 60.7169 52.01 59.6372 52.01ZM52.2159 42.7793C51.9231 42.7793 51.6381 42.8687 51.3936 43.0398C51.0797 43.2594 50.8701 43.5877 50.8041 43.9642C50.7382 44.3407 50.8231 44.7202 51.0439 45.0326L54.5008 49.9363C54.7185 50.2449 55.057 50.4589 55.43 50.5238L59.3888 51.2093C59.4712 51.2235 59.5544 51.2308 59.6372 51.2308C60.3357 51.2308 60.9299 50.7323 61.0498 50.0451C61.1856 49.268 60.6613 48.5254 59.8808 48.3904L56.6688 47.8339C56.5667 47.8163 56.4757 47.7587 56.4157 47.674L53.3939 43.3883C53.1736 43.0754 52.8441 42.867 52.466 42.8012C52.3828 42.7866 52.2991 42.7793 52.2159 42.7793Z" fill="#1E417C"/>
<mask id="path-9-inside-2_57489_29163" fill="white">
<path d="M44.9042 73.5998C44.7486 73.5998 44.5903 73.5809 44.4321 73.5414C43.3959 73.2822 42.7664 72.2353 43.0264 71.203C43.5701 69.0434 44.3579 65.8716 44.4946 65.2326L45.0987 54.3021C45.1573 53.2393 46.0711 52.4258 47.1365 52.4833C48.2033 52.5422 49.0209 53.4512 48.9622 54.514L48.3443 65.6555C48.3284 65.8145 48.2982 66.111 46.7795 72.1407C46.5592 73.0158 45.7705 73.5998 44.9042 73.5998Z"/>
</mask>
<path d="M44.4321 73.5414L42.2484 82.2724L42.2505 82.273L44.4321 73.5414ZM43.0264 71.203L51.7538 73.4012L51.754 73.4004L43.0264 71.203ZM44.4946 65.2326L53.2955 67.115L53.4422 66.4293L53.4809 65.7292L44.4946 65.2326ZM45.0987 54.3021L54.085 54.7988L54.085 54.798L45.0987 54.3021ZM47.1365 52.4833L47.6325 43.497L47.6223 43.4965L47.1365 52.4833ZM48.9622 54.514L57.9484 55.0124L57.9486 55.0099L48.9622 54.514ZM48.3443 65.6555L57.2994 66.5539L57.3194 66.3542L57.3305 66.1538L48.3443 65.6555ZM46.7795 72.1407L38.0521 69.9426L38.052 69.943L46.7795 72.1407ZM44.9042 73.5998V64.5998C45.4802 64.5998 46.0547 64.6701 46.6137 64.8098L44.4321 73.5414L42.2505 82.273C43.1259 82.4917 44.017 82.5998 44.9042 82.5998V73.5998ZM44.4321 73.5414L46.6158 64.8103C50.3775 65.7511 52.7167 69.578 51.7538 73.4012L43.0264 71.203L34.299 69.0048C32.816 74.8926 36.4144 80.8133 42.2484 82.2724L44.4321 73.5414ZM43.0264 71.203L51.754 73.4004C52.2709 71.3474 53.1153 67.9577 53.2955 67.115L44.4946 65.2326L35.6937 63.3502C35.6961 63.3389 35.6857 63.3867 35.6525 63.5284C35.6227 63.6553 35.5834 63.8201 35.5351 64.0203C35.4386 64.42 35.3145 64.9272 35.1753 65.4913C34.8972 66.6179 34.5678 67.9368 34.2988 69.0056L43.0264 71.203ZM44.4946 65.2326L53.4809 65.7292L54.085 54.7988L45.0987 54.3021L36.1124 53.8055L35.5083 64.7359L44.4946 65.2326ZM45.0987 54.3021L54.085 54.798C53.8677 58.7372 50.5016 61.6784 46.6508 61.4702L47.1365 52.4833L47.6223 43.4965C41.6405 43.1731 36.447 47.7415 36.1124 53.8063L45.0987 54.3021ZM47.1365 52.4833L46.6406 61.4697C42.7797 61.2566 39.7587 57.9536 39.9759 54.0182L48.9622 54.514L57.9486 55.0099C58.283 48.9488 53.6269 43.8279 47.6325 43.497L47.1365 52.4833ZM48.9622 54.514L39.976 54.0157L39.3581 65.1571L48.3443 65.6555L57.3305 66.1538L57.9484 55.0124L48.9622 54.514ZM48.3443 65.6555L39.3893 64.757C39.3882 64.7676 39.3943 64.7053 39.4034 64.6282C39.4133 64.545 39.4244 64.4632 39.4363 64.3843C39.4585 64.238 39.4778 64.141 39.4806 64.1272C39.4825 64.1173 39.4582 64.2377 39.3645 64.6361C39.1826 65.4096 38.8103 66.9321 38.0521 69.9426L46.7795 72.1407L55.5069 74.3389C56.2674 71.3197 56.6695 69.6791 56.8864 68.7571C57.0686 67.9825 57.2235 67.3104 57.2994 66.5539L48.3443 65.6555ZM46.7795 72.1407L38.052 69.943C38.8675 66.7045 41.7655 64.5998 44.9042 64.5998V73.5998V82.5998C49.7756 82.5998 54.2509 79.327 55.5071 74.3385L46.7795 72.1407Z" fill="#1E417C" mask="url(#path-9-inside-2_57489_29163)"/>
<path d="M56.3003 68.0225C55.7173 68.0225 55.1593 67.8055 54.7286 67.4114C54.2957 67.0151 54.0313 66.4753 53.9839 65.8912L53.5139 60.0631L48.9894 58.5512C48.8979 58.5202 48.8065 58.4824 48.7121 58.436C46.14 58.24 44.2035 56.0013 44.3915 53.4373L44.8542 47.1179L45.0625 44.1116C45.1491 42.8661 45.717 41.729 46.6618 40.9094C47.6065 40.0898 48.8156 39.6858 50.0652 39.7722C51.3152 39.8582 52.4566 40.4242 53.2793 41.3654C54.1016 42.3066 54.5074 43.5108 54.4207 44.7559L54.2111 47.7797L53.7472 54.1172C53.7209 54.4773 53.651 54.8349 53.5393 55.1839L56.4486 56.1565C57.333 56.4521 57.9526 57.2412 58.0272 58.1674L58.6205 65.5199C58.7232 66.7933 57.7668 67.9125 56.4887 68.0148C56.4253 68.0199 56.3624 68.0225 56.3003 68.0225ZM49.7353 40.5398C48.7932 40.5398 47.8928 40.8746 47.1753 41.4973C46.388 42.1802 45.9149 43.1274 45.8429 44.1649L45.6342 47.1729L45.1715 53.4936C45.0146 55.6347 46.6359 57.5038 48.785 57.6602C48.7876 57.6602 48.7919 57.6602 48.7962 57.6602C48.81 57.6607 48.8242 57.6611 48.838 57.6619C48.8945 57.6654 48.9497 57.6809 48.9997 57.7071C49.0847 57.7526 49.1627 57.787 49.2386 57.8124L54.0072 59.406C54.1555 59.4558 54.2603 59.5886 54.2728 59.7442L54.7635 65.8285C54.8278 66.6219 55.5026 67.2433 56.3003 67.2433C56.3417 67.2433 56.3844 67.2416 56.4266 67.2382C57.2744 67.1703 57.9091 66.4272 57.8409 65.5822L57.2476 58.2297C57.198 57.6151 56.7867 57.0912 56.1998 56.8948L52.9094 55.795C52.8063 55.7606 52.7222 55.6854 52.6774 55.5866C52.6325 55.4882 52.6308 55.3756 52.6726 55.2758C52.8378 54.8817 52.937 54.473 52.9671 54.0604L53.4311 47.7247L53.6407 44.7021C53.7127 43.6647 53.3746 42.6611 52.6895 41.8768C52.0038 41.0925 51.0526 40.621 50.0113 40.5492C49.919 40.5432 49.8272 40.5398 49.7353 40.5398Z" fill="#1E417C"/>
<path d="M51.3752 40.3957C50.3761 40.3957 49.4296 40.0149 48.7099 39.3234C47.9713 38.6134 47.5543 37.6597 47.5358 36.6377C47.5173 35.617 47.8997 34.6492 48.6129 33.9126C49.3261 33.1764 50.2829 32.7603 51.3075 32.7419C52.3346 32.7234 53.3056 33.1042 54.0438 33.8137C54.7825 34.5233 55.1994 35.4769 55.218 36.4994C55.2365 37.5196 54.8541 38.4875 54.1409 39.2241C53.4281 39.9608 52.4708 40.3763 51.4463 40.3948C51.423 40.3953 51.3989 40.3957 51.3752 40.3957ZM51.3773 33.5202C51.3588 33.5202 51.3402 33.5206 51.3213 33.521C50.5059 33.5356 49.744 33.8666 49.1756 34.4536C48.6078 35.0403 48.3029 35.8109 48.318 36.6236C48.3327 37.4376 48.6647 38.1974 49.2528 38.7621C49.8263 39.3131 50.58 39.6165 51.3752 39.6165C51.3941 39.6165 51.4131 39.6161 51.4321 39.6161C52.2479 39.601 53.0098 39.2701 53.5781 38.683C54.146 38.0964 54.4509 37.3258 54.4362 36.5131C54.4211 35.6991 54.0891 34.9397 53.501 34.3746C52.9262 33.8223 52.1742 33.5202 51.3773 33.5202Z" fill="#1E417C"/>
<path d="M42.6663 55.4593C42.6495 55.4593 42.6327 55.4593 42.6155 55.4589C41.3926 55.431 40.4202 54.4176 40.4478 53.1996L40.5953 46.7147C40.6104 46.0602 40.9131 45.4503 41.4254 45.0408L46.8153 40.7353C46.9835 40.6003 47.2297 40.6274 47.3651 40.7955C47.5 40.9631 47.4729 41.2085 47.3043 41.343L41.9148 45.6485C41.5827 45.9136 41.387 46.3086 41.3775 46.7324L41.23 53.2172C41.2119 54.0058 41.8415 54.6621 42.6331 54.6797C42.6444 54.6802 42.6551 54.6802 42.6663 54.6802C43.4403 54.6802 44.0837 54.0531 44.1014 53.2821L44.2299 47.6452C44.2324 47.5304 44.2859 47.4221 44.376 47.3504L46.9214 45.3167C47.09 45.1822 47.3362 45.2088 47.4712 45.3769C47.6066 45.5445 47.5794 45.7899 47.4108 45.9244L45.0073 47.8446L44.8836 53.2997C44.8702 53.8808 44.6326 54.4244 44.2152 54.8306C43.7987 55.2359 43.2485 55.4593 42.6663 55.4593Z" fill="#1E417C"/>
<path d="M57.1392 30.555H29.6811C28.7903 30.555 28.0654 29.833 28.0654 28.9455V16.8371C28.0654 16.6218 28.2409 16.4473 28.4565 16.4473C28.6726 16.4473 28.8476 16.6218 28.8476 16.8371V28.9455C28.8476 29.4032 29.2215 29.7758 29.6811 29.7758H57.1392C57.5989 29.7758 57.9727 29.4032 57.9727 28.9455V16.8371C57.9727 16.6218 58.1478 16.4473 58.3638 16.4473C58.5799 16.4473 58.7549 16.6218 58.7549 16.8371V28.9455C58.7549 29.833 58.0301 30.555 57.1392 30.555Z" fill="#1E417C"/>
<mask id="mask0_57489_29163" style="mask-type:luminance" maskUnits="userSpaceOnUse" x="35" y="0" width="17" height="7">
<path d="M35.3613 0H51.4777V6.51321H35.3613V0Z" fill="white"/>
</mask>
<g mask="url(#mask0_57489_29163)">
<path d="M51.0469 6.40804C50.8308 6.40804 50.6558 6.23398 50.6558 6.01866V2.85768C50.6558 1.7119 49.7205 0.780156 48.5705 0.780156H38.2507C37.1007 0.780156 36.165 1.7119 36.165 2.85768V6.01866C36.165 6.23398 35.9899 6.40804 35.7739 6.40804C35.5583 6.40804 35.3828 6.23398 35.3828 6.01866V2.85768C35.3828 1.28256 36.6695 0.000976562 38.2507 0.000976562H48.5705C50.1517 0.000976562 51.438 1.28256 51.438 2.85768V6.01866C51.438 6.23398 51.2629 6.40804 51.0469 6.40804Z" fill="#1E417C"/>
</g>
<path d="M55.7773 10.0186V14.1426H31.043V10.0186H55.7773Z" stroke="#1E417C" stroke-width="8"/>
<path d="M43.367 26.045C41.2481 26.045 39.2564 25.2228 37.7584 23.7306C36.2604 22.2385 35.4355 20.2542 35.4355 18.1436C35.4355 16.033 36.2604 14.0487 37.7584 12.5565C39.2564 11.0639 41.2481 10.2422 43.367 10.2422C45.4854 10.2422 47.4771 11.0639 48.9751 12.5565C50.4731 14.0487 51.2984 16.033 51.2984 18.1436C51.2984 20.2542 50.4731 22.2385 48.9751 23.7306C47.4771 25.2228 45.4854 26.045 43.367 26.045ZM43.367 11.0214C39.4245 11.0214 36.2173 14.2163 36.2173 18.1436C36.2173 22.0708 39.4245 25.2658 43.367 25.2658C47.309 25.2658 50.5162 22.0708 50.5162 18.1436C50.5162 14.2163 47.309 11.0214 43.367 11.0214Z" fill="#1E417C"/>
<path d="M43.2052 22.0361C43.1573 22.0361 43.1094 22.0343 43.0616 22.0309C42.476 22.0713 41.9068 21.8624 41.4976 21.4546L38.6026 18.5708C37.8161 17.7869 37.8161 16.5122 38.6026 15.7296C39.3891 14.9461 40.6684 14.9461 41.4549 15.7296L43.0616 17.3296L47.8552 12.5544C48.6412 11.7709 49.921 11.7709 50.7075 12.5544C51.4936 13.3379 51.4936 14.6126 50.7075 15.3961L44.6255 21.4546C44.2495 21.8289 43.7398 22.0361 43.2052 22.0361ZM40.0285 15.9208C39.7125 15.9208 39.3964 16.0407 39.1554 16.2805C38.6741 16.7597 38.6741 17.5402 39.1558 18.0198L42.0504 20.9036C42.3044 21.1563 42.661 21.2831 43.0284 21.2522C43.0504 21.25 43.0728 21.25 43.0948 21.2522C43.4626 21.2831 43.8187 21.1563 44.0727 20.9036L50.1543 14.8451C50.6355 14.3655 50.6355 13.585 50.1543 13.1054C49.6731 12.6257 48.8896 12.6257 48.408 13.1054L43.338 18.1561C43.1853 18.3082 42.9378 18.3082 42.7852 18.1561L40.9017 16.2805C40.6611 16.0407 40.345 15.9208 40.0285 15.9208Z" fill="#1E417C"/>
<path d="M31.9362 63.7382C30.7465 63.7382 29.628 63.2766 28.7872 62.4385L21.4297 55.0967C21.2771 54.9446 21.2775 54.6983 21.4301 54.5462L27.1745 48.8233C27.2483 48.7502 27.3474 48.709 27.4513 48.709C27.5553 48.709 27.6544 48.7502 27.7277 48.8233L35.0857 56.1638C35.9269 57.0015 36.39 58.1159 36.39 59.3012C36.39 60.4865 35.9269 61.6005 35.0857 62.4385C34.2444 63.2766 33.1259 63.7382 31.9362 63.7382ZM22.2593 54.8217L29.3404 61.888C30.0338 62.5786 30.9557 62.959 31.9362 62.959C32.9172 62.959 33.8391 62.5786 34.5324 61.8876C35.2262 61.1969 35.6078 60.2781 35.6078 59.3012C35.6078 58.3239 35.2262 57.4054 34.5324 56.7144L27.4509 49.6498L22.2593 54.8217Z" fill="#1E417C"/>
<path d="M16.609 59.3147H13.9744C13.7588 59.3147 13.5833 59.1402 13.5833 58.9253C13.5833 58.71 13.7588 58.5355 13.9744 58.5355H16.6056C24.6366 58.404 31.1697 51.7855 31.1697 43.781C31.1697 35.6441 24.5245 29.0243 16.3568 29.0243C8.18907 29.0243 1.54391 35.6441 1.54391 43.781C1.54391 46.5681 2.32739 49.2812 3.80984 51.6287L4.84299 52.8501C4.98226 53.0147 4.96114 53.2601 4.79599 53.3989C4.63084 53.5377 4.3842 53.5166 4.24492 53.352L3.19453 52.11C3.18288 52.0967 3.17253 52.0821 3.16305 52.067C1.5922 49.5898 0.761719 46.7245 0.761719 43.781C0.761719 41.6837 1.17437 39.6492 1.98761 37.7337C2.77282 35.8835 3.89738 34.2224 5.32938 32.7956C6.76181 31.3687 8.42924 30.2487 10.2864 29.4661C12.2095 28.656 14.2517 28.2451 16.3568 28.2451C18.4619 28.2451 20.5045 28.656 22.4272 29.4661C24.2843 30.2487 25.9518 31.3691 27.3842 32.7956C28.8162 34.2224 29.9403 35.8835 30.726 37.7337C31.5392 39.6492 31.9518 41.6841 31.9518 43.781C31.9518 47.8862 30.3594 51.7572 27.4687 54.6818C26.063 56.1039 24.4232 57.2282 22.5953 58.0241C20.7045 58.8467 18.693 59.2812 16.6155 59.3147C16.6133 59.3147 16.6112 59.3147 16.609 59.3147Z" fill="#1E417C"/>
<path d="M10.0503 40.0495C9.95412 40.0495 9.86098 40.0143 9.78854 39.9498C9.70618 39.8759 9.65918 39.7706 9.65918 39.6602V35.4849C9.65918 33.2247 11.5051 31.3857 13.7741 31.3857H20.4365C20.6525 31.3857 20.8276 31.5602 20.8276 31.7751C20.8276 32.0923 20.7685 32.4073 20.6551 32.703C21.4015 33.2076 21.8366 34.074 21.8366 35.0917V38.8926C21.8366 39.1079 21.6615 39.282 21.4455 39.282H17.328L10.0912 40.0474C10.0774 40.0491 10.0636 40.0495 10.0503 40.0495ZM13.7741 32.1649C11.9363 32.1649 10.4414 33.6545 10.4414 35.4854V39.227L17.2659 38.5054C17.2797 38.5036 17.2935 38.5028 17.3069 38.5028H21.0544V35.0917C21.0544 34.2399 20.656 33.5398 19.9885 33.217C19.916 33.1839 19.8535 33.1293 19.8121 33.0588C19.7423 32.9394 19.7405 32.7915 19.8087 32.6708C19.8984 32.5122 19.9639 32.3416 20.0027 32.1649H13.7741Z" fill="#1E417C"/>
<path d="M16.0008 51.2127C14.6684 51.2127 13.584 50.1327 13.584 48.8051V46.4113C13.584 46.1964 13.7595 46.0219 13.9751 46.0219C14.1911 46.0219 14.3662 46.1964 14.3662 46.4113V48.8051C14.3662 49.7029 15.0996 50.4335 16.0008 50.4335C16.902 50.4335 17.6351 49.7029 17.6351 48.8051V46.4001C17.6351 46.1852 17.8106 46.0107 18.0262 46.0107C18.2422 46.0107 18.4173 46.1852 18.4173 46.4001V48.8051C18.4173 50.1327 17.3332 51.2127 16.0008 51.2127Z" fill="#1E417C"/>
<path d="M25.0292 56.6124C24.8154 56.6124 24.6407 56.4409 24.6381 56.2273C24.6036 53.1807 22.6982 50.4967 19.8967 49.5491C19.2762 49.3389 18.6415 49.2194 18.0102 49.1936C17.7942 49.1851 17.6265 49.0037 17.6351 48.7888C17.6441 48.5739 17.8257 48.4072 18.0417 48.4153C18.748 48.4437 19.4569 48.5769 20.1485 48.8111C23.2635 49.8654 25.3819 52.842 25.4203 56.2183C25.4229 56.4336 25.2496 56.6098 25.034 56.6124C25.0322 56.6124 25.0305 56.6124 25.0292 56.6124Z" fill="#1E417C"/>
<path d="M9.97428 50.6897C9.85872 50.6897 9.74403 50.639 9.66684 50.541C9.53317 50.3721 9.56249 50.1272 9.73238 49.9939C10.9708 49.0231 12.4325 48.4773 13.959 48.4154C14.175 48.4064 14.3565 48.574 14.3656 48.7889C14.3742 49.0037 14.2065 49.1851 13.9904 49.1937C12.6296 49.2491 11.3244 49.7374 10.2162 50.6064C10.1442 50.6627 10.0592 50.6897 9.97428 50.6897Z" fill="#1E417C"/>
<path d="M15.2428 64.1959H1.69247C1.14398 64.1959 0.697266 63.7511 0.697266 63.204V58.2771C0.697266 58.0622 0.872331 57.8877 1.08836 57.8877C1.30439 57.8877 1.47945 58.0622 1.47945 58.2771V63.204C1.47945 63.3213 1.57518 63.4167 1.69247 63.4167H15.2428C15.3601 63.4167 15.4558 63.3213 15.4558 63.204V58.2771C15.4558 58.0622 15.6309 57.8877 15.8469 57.8877C16.0629 57.8877 16.238 58.0622 16.238 58.2771V63.204C16.238 63.7511 15.7913 64.1959 15.2428 64.1959Z" fill="#1E417C"/>
<path d="M12.6636 52.6839C12.448 52.6839 12.2725 52.5094 12.2725 52.2945V50.5574C12.2725 50.0249 11.8378 49.5917 11.3031 49.5917H5.63335C5.09867 49.5917 4.66403 50.0249 4.66403 50.5574V52.2945C4.66403 52.5094 4.48853 52.6839 4.27293 52.6839C4.0569 52.6839 3.88184 52.5094 3.88184 52.2945V50.5574C3.88184 49.5955 4.66747 48.8125 5.63335 48.8125H11.3031C12.269 48.8125 13.0547 49.5955 13.0547 50.5574V52.2945C13.0547 52.5094 12.8796 52.6839 12.6636 52.6839Z" fill="#1E417C"/>
<path d="M15.9404 58.6664H10.6855C10.4699 58.6664 10.2944 58.4919 10.2944 58.277C10.2944 58.0617 10.4699 57.8872 10.6855 57.8872H15.9404C16.0582 57.8872 16.1539 57.7922 16.1539 57.6749V52.8958C16.1539 52.7785 16.0582 52.6835 15.9404 52.6835H0.995631C0.877915 52.6835 0.782189 52.7785 0.782189 52.8958V57.6749C0.782189 57.7922 0.877915 57.8872 0.995631 57.8872H6.25062C6.46664 57.8872 6.64171 58.0617 6.64171 58.277C6.64171 58.4919 6.46664 58.6664 6.25062 58.6664H0.995631C0.446719 58.6664 0 58.2215 0 57.6749V52.8958C0 52.3491 0.446719 51.9043 0.995631 51.9043H15.9404C16.4894 51.9043 16.9361 52.3491 16.9361 52.8958V57.6749C16.9361 58.2215 16.4894 58.6664 15.9404 58.6664Z" fill="#1E417C"/>
<path d="M10.0816 60.1549H6.85501C6.30609 60.1549 5.85938 59.7101 5.85938 59.1634V57.3919C5.85938 56.8452 6.30609 56.4004 6.85501 56.4004H10.0816C10.6306 56.4004 11.0768 56.8452 11.0768 57.3919V59.1634C11.0768 59.7101 10.6306 60.1549 10.0816 60.1549ZM6.85501 57.1796C6.73729 57.1796 6.64156 57.2745 6.64156 57.3919V59.1634C6.64156 59.2803 6.73729 59.3757 6.85501 59.3757H10.0816C10.1994 59.3757 10.2951 59.2803 10.2951 59.1634V57.3919C10.2951 57.2745 10.1994 57.1796 10.0816 57.1796H6.85501Z" fill="#1E417C"/>
<path d="M16.4117 47.1187H15.5618C13.1545 47.1187 11.1835 45.2208 11.0787 42.8481C10.6234 42.7651 10.2047 42.5459 9.87265 42.2111C9.44964 41.7848 9.2168 41.2197 9.2168 40.6197C9.2168 40.0202 9.44964 39.4546 9.87265 39.0282C10.2034 38.6947 10.6203 38.4756 11.0744 38.3922V38.2443C11.0744 35.9708 12.9311 34.1211 15.2134 34.1211H16.7597C19.042 34.1211 20.8992 35.9708 20.8992 38.2443V38.3866C21.9677 38.5718 22.7831 39.5027 22.7831 40.6197C22.7831 41.7384 21.9655 42.6701 20.8944 42.8537C20.7862 45.2239 18.8169 47.1187 16.4117 47.1187ZM15.2134 34.9003C13.3623 34.9003 11.8561 36.4002 11.8561 38.2443V38.7442C11.8561 38.9573 11.6845 39.131 11.4707 39.1335C10.6591 39.1447 9.99856 39.8113 9.99856 40.6197C9.99856 41.4277 10.6591 42.0947 11.4707 42.1059C11.6845 42.1089 11.8561 42.2825 11.8561 42.4957V42.6487C11.8561 44.6836 13.5184 46.3395 15.5618 46.3395H16.4117C18.4547 46.3395 20.117 44.6841 20.117 42.6487V42.4969C20.117 42.2816 20.2921 42.1071 20.5081 42.1071C21.3312 42.1071 22.0009 41.4397 22.0009 40.6197C22.0009 39.7997 21.3312 39.1323 20.5081 39.1323C20.2921 39.1323 20.117 38.9578 20.117 38.7424V38.2443C20.117 36.4002 18.6108 34.8998 16.7597 34.8998H15.2134V34.9003Z" fill="#1E417C"/>
</svg>
