<svg width="76" height="76" viewBox="0 0 76 76" fill="none" xmlns="http://www.w3.org/2000/svg">
<path d="M33.6193 5.76915V0.945835C33.6193 0.423874 34.0971 0 34.685 0C35.2729 0 35.7507 0.423874 35.7507 0.945835V5.76915C35.7507 6.29111 35.2729 6.71499 34.685 6.71499C34.0971 6.71499 33.6193 6.29111 33.6193 5.76915ZM14.7545 14.0439C15.028 14.0439 15.2999 13.9506 15.5077 13.7663C15.9234 13.3976 15.9234 12.7981 15.5077 12.4294L11.666 9.01871C11.2504 8.65001 10.5751 8.65001 10.158 9.01871C9.74238 9.38785 9.74238 9.98687 10.158 10.356L13.9998 13.7663C14.2091 13.9506 14.481 14.0439 14.7545 14.0439ZM6.49887 29.8441H1.0657C0.477814 29.8441 0 30.2685 0 30.7904C0 31.3124 0.477814 31.7363 1.0657 31.7363H6.49887C7.08676 31.7363 7.56457 31.3124 7.56457 30.7904C7.56457 30.2685 7.08676 29.8441 6.49887 29.8441ZM54.6155 14.0439C54.8889 14.0439 55.1604 13.9506 55.3682 13.7663L59.21 10.356C59.6256 9.98687 59.6256 9.38785 59.21 9.01871C58.7944 8.65001 58.1196 8.65001 57.702 9.01871L53.8602 12.4294C53.4446 12.7981 53.4446 13.3976 53.8602 13.7663C54.07 13.9506 54.3435 14.0439 54.6155 14.0439ZM75.8066 72.3388C75.4211 73.6161 74.501 74.682 73.2186 75.3397C72.3662 75.7762 71.4179 76 70.4549 76C69.9702 76 69.48 75.9435 68.9968 75.8283C67.5584 75.4864 66.3574 74.6693 65.617 73.5312L58.8087 63.0648C58.6665 62.8472 58.6295 62.5884 58.7021 62.3471C58.7751 62.1046 58.9543 61.8979 59.1996 61.7735L59.6898 61.5226L57.1052 57.5475C55.2581 58.0725 53.3577 58.3313 51.4731 58.3313C49.8605 58.3313 48.2602 58.1452 46.7113 57.7826C46.6348 58.4162 46.3277 58.9872 45.8657 59.4334C46.4003 59.9506 46.731 60.6381 46.731 61.3934C46.731 62.997 45.262 64.2992 43.4574 64.2992H43.2071C42.7308 66.5841 40.4716 68.3199 37.7612 68.3199H31.6157C28.9068 68.3199 26.646 66.5841 26.1697 64.2992H25.9195C24.1148 64.2992 22.6458 62.9952 22.6458 61.3934C22.6458 60.6381 22.9746 59.9506 23.5111 59.4317C22.9765 58.9146 22.6458 58.2271 22.6458 57.4722C22.6458 56.7168 22.9746 56.0293 23.5111 55.5104C22.9765 54.9933 22.6458 54.3058 22.6458 53.5504C22.6458 52.1457 23.7737 50.9713 25.2694 50.7016V50.6635C25.2694 48.9071 24.3616 47.4047 22.712 46.433C16.6282 42.8507 12.9943 36.8468 12.9943 30.374C12.9943 19.7548 22.7258 11.1157 34.6884 11.1157C39.7045 11.1157 44.5957 12.6707 48.4626 15.4946C52.0966 18.1482 54.6702 21.7997 55.7715 25.83C55.9314 25.8646 56.0894 25.8992 56.2493 25.9373C61.0378 27.0771 65.0415 29.8034 67.5209 33.6161C70.0003 37.4283 70.6593 41.8685 69.3754 46.1208C68.439 49.2254 66.5475 51.9565 63.924 54.0615L66.5065 58.0318L66.9972 57.7809C67.5066 57.5208 68.1586 57.6753 68.4533 58.1281L75.2612 68.5945C75.9967 69.7295 76.1921 71.0602 75.8066 72.3388ZM27.3953 50.6416H35.7364C35.6085 50.4616 35.4826 50.279 35.3617 50.0929C33.7506 47.6175 32.9494 44.921 32.8838 42.2455C32.2411 42.5245 31.5323 42.6839 30.7968 42.7009C30.7879 42.7009 30.7776 42.7009 30.7687 42.7009C30.7598 42.7009 30.7509 42.7009 30.742 42.7009C28.8095 42.6571 27.1841 41.7849 26.4486 40.5395C26.3726 40.5426 26.2961 40.5457 26.2196 40.5457C23.6444 40.5457 21.55 38.6868 21.55 36.4006C21.55 35.9575 21.63 35.5205 21.783 35.1058C20.6462 34.3316 19.9532 33.1191 19.9532 31.8151C19.9532 30.4607 20.7045 29.2232 21.8911 28.4582C21.4701 27.8259 21.241 27.0995 21.241 26.3503C21.241 24.1144 23.2446 22.2871 25.7418 22.2083C26.3316 20.2798 28.3154 18.8782 30.6566 18.8782C32.2944 18.8782 33.7506 19.5687 34.683 20.6363C35.6154 19.5674 37.074 18.8782 38.7099 18.8782C41.0313 18.8782 42.9939 20.2658 43.605 22.1544C45.7112 22.4307 47.4023 23.8525 47.8392 25.6803C49.6794 25.3554 51.5674 25.2827 53.452 25.4688C51.0343 18.1718 43.3794 13.0065 34.683 13.0065C23.8966 13.0065 15.1203 20.797 15.1203 30.3727C15.1203 36.2097 18.3959 41.6242 23.8838 44.8549C26.1436 46.1843 27.3884 48.2384 27.3953 50.6416ZM33.0383 39.7382C33.1607 38.9027 33.3547 38.0782 33.6193 37.2694V33.3464H30.7578C30.1699 33.3464 29.6921 32.9221 29.6921 32.4001C29.6921 31.8786 30.1699 31.4543 30.7578 31.4543H33.6193V27.818H30.7578C30.1699 27.818 29.6921 27.3942 29.6921 26.8722C29.6921 26.3503 30.1699 25.9264 30.7578 25.9264H33.6193V23.3985C33.6193 21.9495 32.2905 20.7703 30.6581 20.7703C29.0795 20.7703 27.7809 21.8659 27.7009 23.2645C27.6851 23.5408 27.534 23.7961 27.2887 23.9646C27.0439 24.1332 26.7275 24.1998 26.4219 24.1429C26.2571 24.1131 26.0848 24.0973 25.9106 24.0973C24.5112 24.0973 23.3724 25.108 23.3724 26.3503C23.3724 26.8547 23.5644 27.339 23.909 27.7313C25.3562 27.5864 26.7541 28.2739 27.3672 29.493C27.502 29.7609 27.6051 30.0429 27.6728 30.3302C27.7932 30.8408 27.424 31.3422 26.8465 31.4494C26.2714 31.5585 25.7062 31.2287 25.5858 30.7164C25.5483 30.5618 25.4935 30.409 25.4204 30.2636C25.1647 29.7561 24.5393 29.4943 23.9356 29.6458C22.8448 29.9168 22.0831 30.8092 22.0831 31.8151C22.0831 32.7 22.671 33.5071 23.5802 33.8714C23.8591 33.9835 24.0704 34.1963 24.1612 34.4547C24.2515 34.7148 24.2111 34.9954 24.0511 35.2275C23.8078 35.5791 23.6799 35.9859 23.6799 36.4006C23.6799 37.5939 24.7328 38.5717 26.0562 38.6457C26.2586 37.2015 27.5607 35.9824 29.429 35.5441C29.9977 35.4101 30.5821 35.7114 30.7312 36.2176C30.8802 36.7238 30.5431 37.2409 29.973 37.3732C28.9033 37.6241 28.1555 38.3098 28.1555 39.0398C28.1555 39.9764 29.3229 40.7663 30.7632 40.8075C31.669 40.779 32.5022 40.3832 33.0383 39.7382ZM35.7507 33.0512C36.1767 32.4509 36.6476 31.872 37.1629 31.3203H35.7507V33.0512ZM42.1592 27.5816C43.3187 26.9874 44.5285 26.5127 45.7734 26.1563C45.578 25.1899 44.7842 24.403 43.7417 24.1162C43.3686 26.2259 41.3724 27.8417 38.891 27.9174C38.3066 27.938 37.809 27.5264 37.7898 27.0045C37.77 26.4829 38.2301 26.0446 38.818 26.0271C40.4202 25.978 41.674 24.8242 41.674 23.4002C41.674 21.9512 40.3457 20.772 38.7133 20.772C37.081 20.772 35.7522 21.9512 35.7522 23.4002V29.4295H38.6136C38.7913 29.4295 38.9582 29.4693 39.1077 29.5368C40.0293 28.8068 41.0471 28.1508 42.1592 27.5816ZM24.7738 53.5474C24.7738 54.107 25.2871 54.5615 25.918 54.5615H39.626C38.7948 53.9542 38.0168 53.2763 37.3046 52.5319H25.918C25.2857 52.5337 24.7738 52.9878 24.7738 53.5474ZM41.0135 64.2975H28.3584C28.7898 65.5293 30.0845 66.4261 31.6123 66.4261H37.7577C39.2849 66.4261 40.5816 65.5293 41.0135 64.2975ZM44.5957 61.3904C44.5957 60.8303 44.0828 60.3762 43.454 60.3762H25.916C25.2857 60.3762 24.7738 60.8321 24.7738 61.3904C24.7738 61.9482 25.2871 62.4041 25.916 62.4041H43.454C44.0843 62.4054 44.5957 61.95 44.5957 61.3904ZM44.532 57.1394C43.9584 56.9357 43.3952 56.7072 42.8463 56.4532H25.918C25.2871 56.4532 24.7758 56.909 24.7758 57.4686C24.7758 58.0287 25.2891 58.4828 25.918 58.4828H43.4554C44.0863 58.4828 44.5996 58.027 44.5996 57.4686C44.5957 57.3552 44.573 57.2449 44.532 57.1394ZM59.6562 54.4858C63.457 52.5367 66.1763 49.3914 67.3111 45.6291C68.4479 41.8654 67.8634 37.9345 65.6703 34.5602C63.4767 31.1863 59.9331 28.7722 55.6935 27.7646C51.4539 26.757 47.0257 27.2742 43.2249 29.2215C35.3775 33.2421 32.6794 42.1825 37.2108 49.1466C40.2494 53.8202 45.7858 56.4374 51.4677 56.4374C54.2531 56.4374 57.0736 55.8086 59.6562 54.4858ZM61.5354 60.575L64.656 58.9745L62.2388 55.2582C61.7521 55.5656 61.2456 55.8559 60.7219 56.1239C60.1962 56.3936 59.6597 56.6362 59.1177 56.8556L61.5354 60.575ZM73.4106 69.5372L67.1354 59.8893L61.1869 62.937L67.4621 72.5849C67.9187 73.2869 68.6596 73.7896 69.5491 74.0011C70.4391 74.2121 71.3646 74.1066 72.1529 73.7015C72.9437 73.2961 73.5103 72.6388 73.7483 71.8488C73.9862 71.0589 73.8672 70.2387 73.4106 69.5372ZM58.2904 52.387C56.1373 53.4909 53.7857 54.0142 51.4628 54.0142C46.7236 54.0142 42.1094 51.8335 39.5727 47.9341C37.7434 45.1216 37.2567 41.8435 38.2034 38.7039C39.1502 35.5664 41.4183 32.9426 44.5868 31.3185C51.1306 27.9647 59.5264 29.9628 63.3045 35.7714C67.084 41.5799 64.8337 49.0332 58.2904 52.387ZM61.4608 36.7172C59.3205 33.4265 55.4235 31.5834 51.4218 31.5834C49.4607 31.5834 47.4734 32.0266 45.6564 32.9566C40.1305 35.7885 38.2321 42.0831 41.4218 46.9865C44.612 51.8917 51.7022 53.5776 57.2262 50.7458C62.7501 47.917 64.6505 41.6224 61.4608 36.7172Z" fill="#1E417C"/>
</svg>
