<svg width="76" height="76" viewBox="0 0 76 76" fill="none" xmlns="http://www.w3.org/2000/svg">
<path d="M25.4196 43.9218C23.7235 43.5472 21.2633 42.8805 19.5198 41.4547C18.9199 40.9637 18.3499 40.4407 17.75 39.8804L17.353 39.5148C16.2138 38.464 14.7979 37.7186 13.4211 37.6399C12.5837 35.6029 11.8415 33.7695 11.069 31.8574C10.1063 29.4779 9.11383 27.015 7.81873 23.8853C6.79152 21.3993 4.69847 20.3113 2.60497 21.1816C0.188252 22.1862 -0.554374 24.4225 0.408274 27.8297C0.973478 29.8388 1.6555 33.0382 2.316 36.1259C2.98485 39.2693 3.68005 42.5238 4.27555 44.6347C4.7156 46.2043 5.24215 47.5745 5.88114 48.8246C8.57848 54.1118 12.3983 56.9771 15.4668 59.278C17.5818 60.8659 19.4074 62.2319 20.2791 63.94C20.7499 64.8611 20.5295 69.264 20.0332 72.7918C19.9427 73.4444 20.2493 74.088 20.793 74.3891C22.8518 75.5186 25.355 76.0001 27.8367 76.0001C30.8019 76.0001 33.7369 75.3056 35.8299 74.1945C36.3003 73.9443 36.6068 73.4307 36.624 72.8657C36.7408 68.764 36.663 58.542 36.2529 55.3383C35.4373 49.0098 31.9974 45.3802 25.4196 43.9218ZM33.7927 71.8103C30.8235 73.0603 26.2698 73.3982 22.9984 72.0836C23.3221 69.4166 23.7621 64.3984 22.774 62.4585C21.5826 60.1209 19.403 58.4864 17.0939 56.7552C14.1203 54.5236 10.7537 52.0004 8.37559 47.3384C7.8319 46.274 7.38308 45.0979 6.99881 43.7324C6.43361 41.7228 5.75158 38.5238 5.09108 35.4314C4.42223 32.2881 3.72748 29.0383 3.13153 26.9269C2.44995 24.5195 3.07576 24.2604 3.62823 24.029C4.46966 23.6771 4.98349 24.5615 5.21185 25.117C6.50255 28.2372 7.49507 30.6955 8.45332 33.0703C9.18717 34.89 9.8951 36.6395 10.6847 38.5658C10.5336 38.7001 10.3826 38.8527 10.2403 39.0195C8.25921 41.3251 8.76864 43.9407 10.1494 45.5097C11.928 47.5283 14.2845 49.5884 16.3649 51.4081C18.54 53.3108 20.5901 55.107 21.4618 56.3754C21.9282 57.0558 22.8215 57.2043 23.4517 56.6996C24.0863 56.1997 24.2198 55.2366 23.7538 54.5562C22.6704 52.973 20.5813 51.1443 18.1602 49.0286C16.0495 47.1811 13.87 45.2737 12.217 43.3988C11.7853 42.913 11.4572 42.1167 12.3333 41.1027C13.3478 39.9223 15.2771 41.6351 15.4971 41.834L15.8897 42.2043C16.4984 42.7693 17.1286 43.3526 17.7974 43.8987C20.0029 45.6996 22.8777 46.487 24.8456 46.9266C31.6047 48.4264 32.9771 52.2365 33.426 55.7643C33.7843 58.542 33.8704 67.4122 33.7927 71.8103ZM73.3622 21.1816C71.2687 20.3113 69.1757 21.3993 68.1485 23.8853C66.8538 27.0197 65.8609 29.4779 64.8987 31.8574C64.1257 33.7695 63.3879 35.5982 62.5461 37.6399C61.1693 37.7186 59.7582 38.464 58.6142 39.5148L58.2172 39.8804C57.6129 40.4407 57.0477 40.9637 56.4478 41.4547C54.6995 42.8805 52.2437 43.5425 50.5477 43.9218C43.9698 45.3849 40.5303 49.0145 39.7187 55.3431C39.3086 58.5467 39.2308 68.7687 39.3476 72.8705C39.3648 73.4354 39.6669 73.949 40.1417 74.1992C42.2352 75.3103 45.1657 76.0048 48.1349 76.0048C50.6166 76.0048 53.1198 75.5186 55.1786 74.3933C55.7267 74.0927 56.0333 73.4491 55.9384 72.7965C55.4377 69.2687 55.2221 64.8658 55.6925 63.9447C56.5642 62.2366 58.3898 60.8659 60.5048 59.2827C63.5733 56.9819 67.3931 54.1161 70.0905 48.8293C70.7294 47.5792 71.256 46.209 71.696 44.6395C72.292 42.5285 72.9867 39.274 73.6556 36.1307C74.3161 33.0382 74.9937 29.8435 75.5633 27.8344C76.5172 24.4225 75.7794 22.1862 73.3622 21.1816ZM72.8313 26.9363C72.2358 29.0472 71.545 32.2975 70.8717 35.4408C70.2117 38.5333 69.5296 41.7322 68.964 43.7414C68.5802 45.1026 68.1313 46.283 67.5872 47.3479C65.2091 52.0051 61.843 54.5331 58.8689 56.7642C56.5598 58.4958 54.3802 60.1299 53.1892 62.4679C52.2007 64.4031 52.6411 69.426 52.9648 72.0925C49.6974 73.4076 45.1398 73.0693 42.1702 71.8197C42.0924 67.4169 42.1833 58.5514 42.5373 55.769C42.9901 52.2412 44.3629 48.4311 51.1172 46.9313C53.0856 46.4959 55.9555 45.7043 58.1654 43.9034C58.8342 43.3573 59.4644 42.774 60.0731 42.209L60.4657 41.8481C60.6818 41.6488 62.611 39.936 63.6295 41.1163C64.5012 42.1304 64.1736 42.9267 63.7419 43.4129C62.0889 45.2878 59.9049 47.1999 57.7987 49.0423C55.3771 51.1579 53.2885 52.9866 52.2051 54.5698C51.7391 55.2507 51.8726 56.2086 52.5072 56.7133C53.1418 57.2132 54.0307 57.07 54.4971 56.3896C55.3644 55.1206 57.4188 53.3245 59.594 51.4218C61.6743 49.6025 64.0265 47.5425 65.809 45.5239C67.1946 43.9543 67.704 41.3387 65.7186 39.0332C65.5763 38.8664 65.4252 38.7137 65.2741 38.5794C66.0638 36.6584 66.7717 34.9037 67.5055 33.0844C68.4633 30.7091 69.4563 28.2556 70.7466 25.1307C70.9754 24.5751 71.4892 23.6912 72.3306 24.0427C72.8875 24.2698 73.5089 24.529 72.8313 26.9363ZM50.7633 61.8059H50.4787C49.9565 61.8059 49.5292 62.2644 49.5292 62.8289C49.5292 63.3938 49.9565 63.8523 50.4787 63.8523H50.7633C51.2859 63.8523 51.7132 63.3938 51.7132 62.8289C51.7132 62.2597 51.2898 61.8059 50.7633 61.8059ZM56.9485 20.7467C57.1944 12.335 52.8396 5.04329 45.5754 1.71479C39.6625 -0.998339 32.4031 -0.303802 27.0814 3.48317C21.8764 7.18203 19.0104 13.2976 19.0104 20.7005C19.0104 27.154 21.0086 32.6354 24.7854 36.5425C28.156 40.0284 32.6921 41.9961 37.5651 42.0795C37.6687 42.0795 37.7724 42.0842 37.876 42.0842C46.8143 42.0795 56.5124 35.4545 56.9485 20.7467ZM28.6522 6.03844C29.7787 5.23789 31.0048 4.61262 32.2907 4.14048C31.2723 5.45982 30.383 7.15423 29.6496 9.1681C28.4972 8.81188 27.4481 8.37179 26.546 7.85819C27.185 7.19145 27.8885 6.58032 28.6522 6.03844ZM25.2386 9.40888C26.3216 10.0756 27.6079 10.6406 29.0277 11.0849C28.2943 13.6355 27.7849 16.5847 27.5561 19.8439C27.5561 19.8533 27.5561 19.8623 27.5561 19.867C25.3897 19.8392 23.4429 19.8067 21.8808 19.7746C22.0314 15.7375 23.1926 12.196 25.2386 9.40888ZM21.8808 21.8253C23.4214 21.8578 25.3335 21.8856 27.4612 21.9134C27.3708 25.3206 27.6685 28.4408 28.3202 31.1445C27.3058 31.6628 26.3993 32.2834 25.6181 32.9963C23.5035 30.2558 22.0793 26.5523 21.8808 21.8253ZM26.9175 34.4824C27.4959 33.9684 28.156 33.5104 28.8898 33.1169C29.4291 34.7369 30.1111 36.1632 30.9315 37.3713C29.4853 36.6537 28.1257 35.6953 26.9175 34.4824ZM36.4601 38.9451C35.9942 38.9036 35.5322 38.8386 35.0702 38.7557C34.9235 38.6676 34.7768 38.5747 34.6345 38.473C32.7698 37.14 31.4835 34.9362 30.6465 32.3343C32.4075 31.6953 34.4488 31.3438 36.6586 31.325C36.6846 31.325 36.7105 31.325 36.7364 31.325L36.4601 38.9451ZM36.8053 29.2791C36.7491 29.2791 36.6933 29.2743 36.6371 29.2791C34.2634 29.3021 32.0536 29.6862 30.1111 30.376C29.5025 27.6911 29.2912 24.7372 29.3558 21.9365C31.7945 21.969 34.4316 21.9968 37.06 22.0246L36.8053 29.2791ZM37.1378 19.9829C34.5177 19.9551 31.8937 19.9273 29.4594 19.8948C29.6926 16.6775 30.1977 13.9041 30.8797 11.5896C32.9253 12.057 35.1567 12.3114 37.414 12.3303L37.1378 19.9829ZM37.483 10.3023C35.4242 10.2886 33.3873 10.0709 31.5226 9.65909C32.9209 5.99698 34.8159 3.80735 36.6889 3.17313C37.0385 3.14532 37.3881 3.1359 37.7377 3.1359L37.483 10.3023ZM54.0957 20.1356C52.8783 20.1261 50.9187 20.1125 48.5192 20.0894C48.4805 16.5894 48.0532 13.4272 47.2544 10.7098C48.3808 10.2745 49.43 9.75144 50.3707 9.12664C52.7703 12.1126 54.1084 15.9457 54.0957 20.1356ZM44.4578 4.53393C46.1753 5.32082 47.6904 6.37676 48.9939 7.63107C48.26 8.08012 47.4616 8.46933 46.6026 8.80246C45.9338 7.09392 45.0963 5.61249 44.0994 4.38126C44.2202 4.43686 44.3414 4.48304 44.4578 4.53393ZM39.6322 3.34888C40.569 3.72866 41.4881 4.38597 42.3129 5.30244C43.0419 6.11289 43.9698 7.42281 44.7814 9.40417C43.0854 9.87206 41.2466 10.1496 39.3863 10.2561L39.6322 3.34888ZM39.313 12.2883C41.4236 12.1818 43.5166 11.8624 45.4503 11.3116C46.1152 13.5431 46.5899 16.4132 46.6286 20.0705C44.3111 20.0522 41.7086 20.0244 39.0411 20.0013L39.313 12.2883ZM38.9678 22.043C41.6524 22.0708 44.272 22.0938 46.6026 22.1122C46.6026 22.1631 46.5987 22.214 46.5987 22.2696C46.4819 25.4827 46.0502 28.3763 45.351 30.8434C43.3313 30.0429 41.0652 29.5241 38.7043 29.3483L38.9678 22.043ZM40.1632 38.8664C39.5804 38.9451 38.9805 38.9917 38.3591 39.0054L38.6309 31.39C40.7934 31.561 42.8737 32.0473 44.7169 32.7786C43.6075 35.7 42.0582 37.8204 40.1632 38.8664ZM44.2852 37.7139C45.131 36.5609 45.8648 35.177 46.4691 33.5891C47.1854 33.9731 47.8459 34.399 48.4414 34.8622C47.2504 36.0289 45.8648 37.001 44.2852 37.7139ZM47.1209 31.6492C47.8977 28.978 48.3681 25.8483 48.4932 22.3483C48.4976 22.2743 48.4976 22.205 48.4976 22.1311C50.8498 22.1494 52.779 22.1678 54.0004 22.1772C53.6249 26.2187 52.2354 30.2601 49.7708 33.3761C48.9851 32.7324 48.0918 32.1585 47.1209 31.6492ZM49.8915 67.3844H50.3061C50.8283 67.3844 51.2556 66.9264 51.2556 66.3614C51.2556 65.7964 50.8283 65.338 50.3061 65.338H49.8915C49.3694 65.338 48.9421 65.7964 48.9421 66.3614C48.9421 66.9264 49.365 67.3844 49.8915 67.3844ZM50.513 68.7362H49.8529C49.3307 68.7362 48.9034 69.1947 48.9034 69.7596C48.9034 70.3241 49.3307 70.7826 49.8529 70.7826H50.513C51.0356 70.7826 51.4629 70.3241 51.4629 69.7596C51.4629 69.1947 51.0356 68.7362 50.513 68.7362Z" fill="#1E417C"/>
</svg>
