<svg width="83" height="48" viewBox="0 0 83 48" fill="none" xmlns="http://www.w3.org/2000/svg">
<path d="M6.25833 41.1063C5.98491 41.1063 5.71913 41.0629 5.46098 40.9757C5.20283 40.8885 4.96615 40.7622 4.75143 40.5975L0.942174 37.6882C0.87871 37.6397 0.818109 37.5884 0.759894 37.5343C0.701679 37.4802 0.646805 37.4233 0.594316 37.3636C0.541827 37.3044 0.492202 37.2424 0.446393 37.178C0.400108 37.1142 0.357162 37.0475 0.317557 36.9794C0.277952 36.9108 0.242164 36.8409 0.209239 36.7691C0.176792 36.6973 0.148161 36.6241 0.122871 36.5494C0.0980586 36.4748 0.076586 36.3993 0.0589306 36.3228C0.0412753 36.2463 0.0279145 36.1689 0.0178939 36.091C0.00835049 36.0132 0.00262444 35.9348 0.000715756 35.8565C-0.00119293 35.7782 0.000715756 35.6993 0.0064418 35.6215C0.012645 35.5431 0.0226656 35.4653 0.0365036 35.3878C0.0503416 35.3104 0.0679969 35.234 0.0894695 35.1584C0.110942 35.0829 0.136232 35.0083 0.16534 34.935C0.19397 34.8618 0.226895 34.79 0.262682 34.7201C0.298947 34.6501 0.338553 34.5816 0.381975 34.5154C0.42492 34.4491 0.471206 34.3853 0.520832 34.3232L2.06257 32.3973C2.1122 32.3353 2.16469 32.2761 2.22004 32.2197C2.27539 32.1628 2.3336 32.1087 2.39468 32.0574C2.45576 32.0066 2.51922 31.9585 2.58459 31.9133C2.65044 31.8681 2.7182 31.8261 2.78835 31.7879C2.85849 31.7492 2.93007 31.7142 3.00355 31.6825C3.07704 31.6508 3.15195 31.6223 3.2283 31.5981C3.30465 31.5734 3.38195 31.5524 3.4602 31.5356C3.53894 31.5183 3.61767 31.5048 3.69783 31.4955C3.77752 31.4857 3.85721 31.4801 3.93785 31.4782C4.01802 31.4764 4.09818 31.4782 4.17835 31.4843C4.25851 31.4899 4.3382 31.4997 4.41741 31.5132C4.49662 31.5267 4.57487 31.544 4.65218 31.565C4.72948 31.586 4.80582 31.6102 4.88074 31.6386C4.95566 31.6671 5.02914 31.6988 5.10072 31.7342C5.17277 31.7692 5.24244 31.8079 5.31019 31.8499C5.37843 31.8919 5.4438 31.9371 5.50727 31.9851L9.31652 34.8945C9.37998 34.943 9.44058 34.9943 9.4988 35.0484C9.55701 35.1025 9.61236 35.1593 9.66438 35.219C9.71687 35.2783 9.76649 35.3403 9.81278 35.4046C9.85859 35.469 9.90153 35.5352 9.94114 35.6033C9.98074 35.6718 10.017 35.7418 10.0495 35.8136C10.0819 35.8854 10.1105 35.9586 10.1358 36.0332C10.1611 36.1078 10.1821 36.1834 10.1998 36.2599C10.2174 36.3363 10.2308 36.4137 10.2408 36.4916C10.2503 36.5695 10.2565 36.6478 10.2585 36.7262C10.2604 36.805 10.258 36.8833 10.2523 36.9617C10.246 37.0395 10.236 37.1174 10.2222 37.1948C10.2088 37.2722 10.1912 37.3487 10.1692 37.4243C10.1478 37.4998 10.1225 37.5744 10.0938 37.6476C10.0647 37.7208 10.0323 37.7926 9.99601 37.8626C9.95975 37.9325 9.92014 38.0011 9.87719 38.0673C9.83377 38.1335 9.78749 38.1974 9.73834 38.2594L8.19612 40.1853C8.09735 40.3098 7.98664 40.4231 7.86497 40.5262C7.74281 40.6293 7.61159 40.7193 7.4713 40.7967C7.33101 40.8745 7.18404 40.9375 7.03087 40.9865C6.8777 41.0359 6.72119 41.0695 6.56134 41.0881C6.46065 41.1002 6.35949 41.1063 6.25833 41.1063ZM3.99702 32.4748C3.88823 32.4748 3.78086 32.4864 3.67445 32.5102C3.56852 32.534 3.46641 32.5694 3.36859 32.6156C3.27029 32.6622 3.17915 32.7191 3.09469 32.7858C3.00975 32.8525 2.93388 32.928 2.86708 33.012L1.32534 34.9378C1.2676 35.0101 1.2175 35.0871 1.17503 35.1691C1.13256 35.2512 1.09916 35.3365 1.07387 35.4251C1.04906 35.5137 1.03284 35.6037 1.02568 35.6951C1.019 35.787 1.02091 35.8784 1.03236 35.9693C1.04381 36.0607 1.06433 36.1498 1.09391 36.237C1.12302 36.3242 1.16072 36.4081 1.207 36.4879C1.25329 36.5681 1.30721 36.6427 1.36829 36.7127C1.42984 36.7821 1.4976 36.8451 1.57156 36.902L5.38082 39.8113C5.45478 39.8678 5.53399 39.9167 5.61797 39.9582C5.70195 39.9997 5.78927 40.0324 5.87994 40.0571C5.9706 40.0818 6.06269 40.0977 6.15622 40.1042C6.25022 40.1112 6.34375 40.1088 6.43727 40.0977C6.53032 40.0865 6.62194 40.0669 6.71117 40.038C6.8004 40.0091 6.88629 39.9722 6.96789 39.927C7.04996 39.8817 7.12631 39.8291 7.19788 39.7694C7.26898 39.7092 7.33387 39.643 7.39161 39.5707L8.93335 37.6448C8.99109 37.5725 9.04119 37.4951 9.08366 37.4135C9.12613 37.3315 9.16001 37.2461 9.18482 37.1575C9.21011 37.0689 9.22633 36.9789 9.23349 36.8871C9.24017 36.7957 9.23826 36.7043 9.22681 36.6129C9.21536 36.5219 9.19484 36.4324 9.16526 36.3452C9.13615 36.258 9.09797 36.1745 9.05169 36.0943C9.0054 36.0146 8.95196 35.9395 8.89041 35.87C8.82885 35.8005 8.76109 35.7371 8.68713 35.6807L4.87788 32.7713C4.75238 32.6753 4.614 32.6016 4.46274 32.5508C4.31195 32.4999 4.15687 32.4748 3.99702 32.4748Z" fill="#1E417C"/>
<path d="M10.6986 47.8041C10.6461 47.8041 10.5941 47.8018 10.5411 47.7976C10.4743 47.792 10.4075 47.7827 10.3416 47.7701C10.2758 47.757 10.2104 47.7407 10.1465 47.7211C10.0821 47.7015 10.0196 47.6787 9.958 47.6521C9.89645 47.6255 9.83632 47.5961 9.77811 47.5635C9.7199 47.5304 9.66359 47.4949 9.60919 47.4558C9.55479 47.4171 9.50278 47.3756 9.45316 47.3313C9.40353 47.287 9.35677 47.2399 9.31239 47.1904C9.26801 47.1415 9.2265 47.0897 9.18785 47.0361C9.1492 46.982 9.11341 46.9265 9.08096 46.8691C9.04852 46.8113 9.01941 46.7521 8.99364 46.6915C8.96787 46.6309 8.94545 46.5688 8.92684 46.5059C8.90775 46.4429 8.89248 46.379 8.88103 46.3142C8.8691 46.2494 8.86099 46.1846 8.85669 46.1188C8.85192 46.0536 8.85144 45.9878 8.85431 45.9221C8.85717 45.8563 8.86337 45.791 8.87387 45.7262C8.88389 45.6614 8.89773 45.597 8.91491 45.5336L11.997 34.2613L12.7113 30.3302L9.62017 33.0983C9.54955 33.1613 9.4732 33.2172 9.3916 33.2662C9.31001 33.3151 9.22459 33.3557 9.13488 33.3884C9.04518 33.421 8.95308 33.4452 8.8586 33.4606C8.76412 33.4756 8.66917 33.4821 8.57373 33.4798C8.47782 33.477 8.38334 33.4653 8.28981 33.4452C8.19677 33.4247 8.1061 33.3958 8.0183 33.3585C7.93051 33.3212 7.84748 33.2755 7.76874 33.2228C7.69001 33.1697 7.617 33.1095 7.5502 33.0428C7.4834 32.9757 7.42375 32.9034 7.37078 32.825C7.3183 32.7472 7.27392 32.6651 7.23765 32.5784C7.20139 32.4921 7.17371 32.403 7.1551 32.3112C7.13602 32.2198 7.12647 32.127 7.126 32.0337C7.12552 31.94 7.13411 31.8472 7.15224 31.7553C7.1699 31.6634 7.19662 31.5744 7.23193 31.4876C7.26724 31.4009 7.31114 31.3179 7.36267 31.2396C7.41468 31.1608 7.47385 31.0875 7.5397 31.0204L12.9542 25.5052C13.1183 25.3378 13.2987 25.1896 13.4948 25.0594C13.6914 24.9298 13.8994 24.8216 14.1189 24.7349C14.3389 24.6482 14.5656 24.5847 14.7994 24.5451C15.0327 24.505 15.268 24.4896 15.5051 24.4989L19.8989 24.6645C20.3498 24.6822 20.786 24.6132 21.2083 24.4574L25.9356 22.7241C25.9938 22.7027 26.0534 22.685 26.1136 22.671C26.1742 22.6565 26.2352 22.6463 26.2968 22.6393C26.3588 22.6323 26.4209 22.6295 26.4829 22.6299C26.5449 22.6304 26.607 22.6346 26.6685 22.643C26.7301 22.6509 26.7912 22.6626 26.8513 22.678C26.9114 22.6934 26.9706 22.7125 27.0283 22.7349C27.086 22.7572 27.1419 22.7834 27.1963 22.8123C27.2511 22.8416 27.3036 22.8738 27.3537 22.9097C27.4043 22.9452 27.452 22.9834 27.4978 23.0249C27.5432 23.0659 27.5861 23.1098 27.6262 23.1564C27.6663 23.203 27.703 23.2515 27.7369 23.3024C27.7708 23.3537 27.8013 23.4064 27.8285 23.4609C27.8562 23.5155 27.8796 23.5714 27.8996 23.6288C27.9201 23.6861 27.9364 23.7449 27.9492 23.8041C27.9621 23.8633 27.9712 23.9235 27.9764 23.9841C27.9817 24.0447 27.9831 24.1054 27.9807 24.166C27.9755 24.3012 27.9516 24.4332 27.9096 24.5619C27.8672 24.6906 27.8075 24.8114 27.7312 24.9242C27.6548 25.0371 27.5646 25.1378 27.4597 25.2259C27.3552 25.3145 27.2402 25.3877 27.1147 25.4451L20.5846 28.4608L19.771 32.9505L21.4478 33.2219C21.5222 33.234 21.5962 33.2499 21.6697 33.2694C21.7427 33.289 21.8143 33.3119 21.8854 33.3389C21.956 33.3655 22.0252 33.3958 22.0925 33.4294C22.1602 33.463 22.2256 33.5003 22.289 33.5404C22.353 33.5805 22.4141 33.6238 22.4732 33.6705C22.5324 33.7166 22.5887 33.7661 22.6426 33.8183C22.6966 33.8701 22.7476 33.9251 22.7958 33.982C22.844 34.0393 22.8889 34.099 22.9308 34.1606C22.9728 34.2221 23.011 34.286 23.0463 34.3513C23.0816 34.4171 23.1131 34.4842 23.1413 34.5532C23.1694 34.6218 23.1938 34.6917 23.2148 34.7631C23.2353 34.8344 23.2525 34.9062 23.2658 34.9794C23.2787 35.0522 23.2882 35.1254 23.2935 35.1995C23.2992 35.2732 23.3006 35.3474 23.2983 35.421C23.2959 35.4952 23.2897 35.5689 23.2797 35.6425C23.2696 35.7157 23.2558 35.7885 23.2381 35.8603L23.2043 35.9988L21.9016 41.9113C21.8806 42.0082 21.85 42.102 21.81 42.1929C21.7704 42.2843 21.7222 42.3706 21.6649 42.4526C21.6081 42.5343 21.5437 42.6103 21.4717 42.6802C21.4001 42.7497 21.3218 42.8122 21.2378 42.8672C21.1534 42.9222 21.0646 42.9689 20.9711 43.0076C20.8776 43.0458 20.7817 43.0747 20.6824 43.0952C20.5832 43.1153 20.483 43.126 20.3813 43.1274C20.2802 43.1283 20.1795 43.1204 20.0797 43.1027C19.98 43.085 19.8832 43.0584 19.7887 43.0225C19.6942 42.9861 19.6045 42.9418 19.5186 42.8891C19.4332 42.836 19.3535 42.7758 19.2795 42.7077C19.206 42.6396 19.1397 42.5655 19.0806 42.4853C19.0214 42.4046 18.9708 42.3193 18.9283 42.2293C18.8863 42.1393 18.8534 42.0465 18.8296 41.95C18.8057 41.8539 18.7914 41.7564 18.7866 41.6576C18.7823 41.5587 18.7876 41.4603 18.8024 41.3624L19.4857 36.8503L15.5314 36.7011L12.4674 46.525C12.4383 46.6169 12.4021 46.7059 12.3586 46.7922C12.3152 46.878 12.2651 46.9605 12.2083 47.0389C12.1511 47.1172 12.0886 47.1909 12.0194 47.2595C11.9507 47.328 11.8767 47.391 11.7975 47.4478C11.7188 47.5052 11.6353 47.556 11.5479 47.6003C11.4611 47.6442 11.3704 47.6815 11.2774 47.7118C11.1839 47.7421 11.0884 47.7649 10.9916 47.7803C10.8947 47.7957 10.7969 47.8036 10.6986 47.8041ZM13.4776 28.4682C13.5148 28.4682 13.5521 28.4724 13.5883 28.4804C13.6246 28.4883 13.6599 28.4999 13.6938 28.5153C13.7277 28.5307 13.7591 28.5494 13.7887 28.5718C13.8183 28.5937 13.845 28.6189 13.8689 28.6468C13.8932 28.6748 13.9137 28.7047 13.9309 28.7373C13.9481 28.7695 13.9615 28.8031 13.971 28.8385C13.9806 28.8735 13.9863 28.9094 13.9877 28.9457C13.9896 28.9821 13.9872 29.0185 13.9806 29.0544L12.999 34.4567C12.9966 34.4707 12.9933 34.4842 12.9895 34.4982L9.90217 45.791C9.88834 45.8418 9.87975 45.8931 9.87593 45.9454C9.87211 45.9976 9.87402 46.0498 9.8807 46.1021C9.88738 46.1538 9.89931 46.2046 9.91649 46.2545C9.93319 46.3044 9.95514 46.352 9.98138 46.3977C10.0081 46.4429 10.0386 46.4858 10.0735 46.5255C10.1088 46.5651 10.147 46.6015 10.1894 46.6337C10.2314 46.6663 10.2763 46.6943 10.3245 46.7181C10.3722 46.7423 10.4218 46.7614 10.4733 46.7759C10.5249 46.7899 10.5774 46.7997 10.6308 46.8039C10.6843 46.8081 10.7377 46.8076 10.7911 46.802C10.8446 46.7959 10.8966 46.7852 10.9481 46.7698C10.9992 46.754 11.0483 46.7334 11.0956 46.7083C11.1428 46.6835 11.1867 46.6542 11.2282 46.6206C11.2693 46.587 11.307 46.5502 11.3408 46.5096C11.3747 46.469 11.4043 46.4252 11.4296 46.379C11.4549 46.3329 11.4754 46.2848 11.4912 46.2345L14.6696 36.0426C14.6858 35.9899 14.7106 35.9414 14.7435 35.8967C14.7765 35.8519 14.8161 35.8137 14.8619 35.7815C14.9082 35.7498 14.9578 35.726 15.0122 35.7102C15.0661 35.6943 15.1215 35.6878 15.1778 35.6896L20.0945 35.8752C20.1303 35.8766 20.1656 35.8813 20.2005 35.8902C20.2353 35.8985 20.2687 35.9107 20.3007 35.9265C20.3331 35.9419 20.3632 35.9606 20.3913 35.982C20.4195 36.0039 20.4448 36.0282 20.4677 36.0552C20.4906 36.0823 20.5106 36.1112 20.5273 36.142C20.544 36.1732 20.5569 36.2054 20.5665 36.2394C20.5765 36.273 20.5822 36.3075 20.5846 36.3425C20.587 36.3775 20.5851 36.412 20.5798 36.4465L19.813 41.5084C19.8078 41.5429 19.8059 41.5774 19.8078 41.6123C19.8092 41.6473 19.814 41.6814 19.8226 41.7154C19.8311 41.749 19.8426 41.7816 19.8574 41.8133C19.8722 41.845 19.8903 41.8749 19.9108 41.9033C19.9318 41.9318 19.9552 41.9579 19.981 41.9817C20.0067 42.0054 20.0349 42.0269 20.065 42.0451C20.095 42.0637 20.127 42.0796 20.1599 42.0922C20.1933 42.1048 20.2277 42.1141 20.2625 42.1206C20.2978 42.1267 20.3331 42.1295 20.3684 42.129C20.4042 42.1286 20.4395 42.1248 20.4744 42.1178C20.5092 42.1108 20.5431 42.1006 20.576 42.0871C20.6089 42.0735 20.6399 42.0572 20.6695 42.0376C20.6991 42.0185 20.7268 41.9966 20.7521 41.9719C20.7774 41.9472 20.8003 41.9206 20.8198 41.8917C20.8399 41.8632 20.8571 41.8329 20.8714 41.8007C20.8852 41.7686 20.8962 41.7359 20.9033 41.7019L22.207 35.7834C22.2079 35.7796 22.2084 35.7754 22.2094 35.7717L22.2451 35.6276C22.2642 35.5497 22.2747 35.4709 22.2776 35.3907C22.28 35.311 22.2743 35.2317 22.2599 35.1529C22.2456 35.0741 22.2232 34.9976 22.1927 34.9235C22.1626 34.8489 22.1249 34.7785 22.0796 34.7118C22.0342 34.6451 21.9822 34.5835 21.924 34.5276C21.8658 34.4711 21.8023 34.4213 21.7336 34.3779C21.6649 34.3345 21.5924 34.2981 21.516 34.2692C21.4397 34.2403 21.3614 34.2193 21.2803 34.2063L19.0949 33.8519C19.0615 33.8467 19.029 33.8384 18.9975 33.8262C18.9656 33.8146 18.9355 33.8001 18.9069 33.7829C18.8782 33.7651 18.852 33.7451 18.8272 33.7222C18.8028 33.6999 18.7809 33.6751 18.7613 33.6481C18.7418 33.621 18.7251 33.5926 18.7112 33.5623C18.6979 33.5324 18.6874 33.5012 18.6797 33.469C18.6726 33.4369 18.6683 33.4042 18.6678 33.3711C18.6668 33.338 18.6692 33.3054 18.6754 33.2732L19.6245 28.0327C19.6393 27.953 19.6713 27.8811 19.7219 27.8168C19.772 27.7524 19.8345 27.703 19.9094 27.6685L26.6785 24.5432C26.7616 24.505 26.8284 24.4486 26.879 24.3735C26.9295 24.2989 26.9567 24.2163 26.9601 24.1268C26.9615 24.0872 26.9582 24.048 26.9501 24.0093C26.9415 23.9701 26.9286 23.9333 26.9104 23.8974C26.8928 23.8619 26.8708 23.8288 26.8446 23.7985C26.8184 23.7682 26.7892 23.7412 26.7563 23.7183C26.7234 23.695 26.6881 23.6759 26.6499 23.6614C26.6122 23.6465 26.5736 23.6367 26.533 23.6316C26.4929 23.626 26.4528 23.6255 26.4123 23.6302C26.3722 23.6348 26.3326 23.6437 26.2949 23.6577L21.5676 25.3915C21.0169 25.5938 20.4476 25.6838 19.8593 25.661L15.4655 25.4955C15.3009 25.4894 15.1372 25.5001 14.975 25.5276C14.8127 25.5556 14.6548 25.5994 14.5021 25.6601C14.3494 25.7202 14.2043 25.7953 14.0679 25.8858C13.9314 25.9758 13.8059 26.0793 13.6919 26.1954L8.27693 31.711C8.23542 31.7534 8.20297 31.8024 8.18054 31.8574C8.15812 31.9125 8.14714 31.9698 8.14714 32.0286C8.14762 32.0878 8.15907 32.1452 8.18245 32.1997C8.20536 32.2547 8.2378 32.3032 8.28027 32.3452C8.32274 32.3876 8.37189 32.4207 8.42724 32.4445C8.48259 32.4683 8.54081 32.4809 8.60141 32.4823C8.66201 32.4842 8.7207 32.4744 8.77748 32.4539C8.83427 32.4333 8.88485 32.403 8.9297 32.3629L13.1326 28.5997C13.23 28.5121 13.3454 28.4682 13.4776 28.4682Z" fill="#1E417C"/>
<path d="M18.072 24.034C18.0277 24.034 17.9828 24.033 17.938 24.0312C17.8272 24.027 17.717 24.0176 17.6073 24.0027C17.4975 23.9883 17.3887 23.9682 17.2809 23.943C17.173 23.9179 17.0666 23.8875 16.9617 23.8521C16.8572 23.8167 16.7546 23.7761 16.6534 23.7309C16.5527 23.6856 16.4549 23.6357 16.359 23.5812C16.2636 23.5266 16.1705 23.4674 16.0808 23.4035C15.9911 23.3401 15.9047 23.2725 15.8217 23.2007C15.7392 23.1284 15.6599 23.0528 15.5845 22.9736C15.5092 22.8938 15.4381 22.8113 15.3713 22.7245C15.304 22.6383 15.2419 22.5492 15.1837 22.4569C15.1255 22.3646 15.0725 22.2699 15.0239 22.1724C14.9757 22.075 14.9323 21.9756 14.8936 21.874C14.8554 21.7723 14.822 21.6693 14.7939 21.5643C14.7657 21.4594 14.7433 21.3536 14.7256 21.2468C14.7085 21.14 14.6965 21.0323 14.6899 20.9241C14.6832 20.8159 14.6817 20.7082 14.686 20.5995C14.6903 20.4914 14.7004 20.3836 14.7151 20.2764C14.7304 20.1691 14.7509 20.0628 14.7767 19.9574C14.8025 19.8525 14.8335 19.7485 14.8697 19.6459C14.906 19.5438 14.9475 19.4435 14.9938 19.3451C15.0401 19.2467 15.0912 19.1507 15.147 19.0574C15.2033 18.9637 15.2639 18.8732 15.3288 18.7856C15.3942 18.6979 15.4633 18.6135 15.5368 18.5328C15.6103 18.4517 15.6881 18.3743 15.7692 18.3006C15.8508 18.2274 15.9357 18.1579 16.024 18.0921C16.1123 18.0269 16.2034 17.9658 16.2979 17.9093C16.3924 17.8525 16.4897 17.8007 16.5895 17.7531C16.6892 17.706 16.7908 17.6636 16.8949 17.6258C16.9989 17.5885 17.1048 17.5559 17.2117 17.5284C17.3191 17.5013 17.4274 17.4789 17.5371 17.4617C17.6464 17.4449 17.7566 17.4332 17.8673 17.4267C17.978 17.4202 18.0887 17.4192 18.1994 17.4234C18.3101 17.4276 18.4204 17.437 18.5301 17.4519C18.6403 17.4663 18.7491 17.4864 18.857 17.5116C18.9643 17.5368 19.0708 17.5671 19.1757 17.6025C19.2802 17.6379 19.3833 17.6785 19.484 17.7238C19.5847 17.769 19.683 17.8189 19.7784 17.8734C19.8743 17.9285 19.9669 17.9872 20.0566 18.0511C20.1463 18.1145 20.2327 18.1821 20.3157 18.2544C20.3987 18.3262 20.4775 18.4018 20.5528 18.4811C20.6282 18.5608 20.6993 18.6438 20.7661 18.7301C20.8334 18.8163 20.8959 18.9054 20.9537 18.9977C21.0119 19.0901 21.0649 19.1847 21.1135 19.2822C21.1617 19.3796 21.2051 19.4794 21.2438 19.5806C21.2824 19.6823 21.3154 19.7853 21.3435 19.8903C21.3717 19.9952 21.3946 20.101 21.4118 20.2078C21.4294 20.3146 21.4413 20.4223 21.448 20.5305C21.4542 20.6387 21.4557 20.7469 21.4514 20.8551C21.4471 20.9605 21.438 21.0654 21.4232 21.1698C21.4089 21.2748 21.3893 21.3783 21.3645 21.4813C21.3402 21.5839 21.3106 21.6851 21.2758 21.7854C21.2414 21.8852 21.2018 21.9836 21.1579 22.0796C21.1135 22.1762 21.0649 22.2704 21.0114 22.3622C20.958 22.4536 20.9002 22.5427 20.8377 22.629C20.7757 22.7157 20.7094 22.7987 20.6392 22.8789C20.5686 22.9591 20.4946 23.0356 20.4169 23.1088C20.3391 23.1825 20.258 23.2515 20.173 23.3172C20.0886 23.383 20.0008 23.4445 19.9101 23.5019C19.8194 23.5593 19.7264 23.6124 19.6305 23.6609C19.5346 23.7099 19.4363 23.7537 19.3361 23.7933C19.2359 23.833 19.1342 23.8675 19.0302 23.8978C18.9267 23.9276 18.8221 23.9528 18.7157 23.9729C18.6098 23.9929 18.5029 24.0083 18.3956 24.0186C18.2877 24.0288 18.1799 24.034 18.072 24.034ZM18.0677 18.4186C17.9909 18.4186 17.9141 18.4223 17.8377 18.4298C17.7614 18.4368 17.6855 18.4479 17.6101 18.4624C17.5352 18.4769 17.4608 18.495 17.3873 18.5165C17.3138 18.5384 17.2413 18.5636 17.1702 18.592C17.0991 18.6205 17.0299 18.6522 16.9621 18.6872C16.8944 18.7226 16.8285 18.7608 16.7641 18.8019C16.7002 18.8434 16.6386 18.8877 16.579 18.9348C16.5193 18.9823 16.4621 19.0322 16.4077 19.0849C16.3528 19.1376 16.3013 19.1927 16.2521 19.2505C16.203 19.3083 16.1567 19.368 16.1137 19.43C16.0703 19.492 16.0307 19.5559 15.9935 19.6217C15.9567 19.6874 15.9233 19.755 15.8938 19.824C15.8637 19.8931 15.837 19.9635 15.8141 20.0348C15.7907 20.1062 15.7716 20.1789 15.7559 20.2521C15.7401 20.3253 15.7277 20.3995 15.7191 20.4741C15.711 20.5487 15.7062 20.6233 15.7053 20.6984C15.7043 20.7735 15.7072 20.8481 15.7134 20.9227C15.7201 20.9978 15.7301 21.0719 15.7444 21.1456C15.7582 21.2193 15.7754 21.292 15.7969 21.3643C15.8179 21.4366 15.8427 21.5075 15.8708 21.5769C15.899 21.6469 15.931 21.715 15.9658 21.7817C16.0011 21.8483 16.0393 21.9132 16.0808 21.9766C16.1223 22.0395 16.1667 22.1001 16.2144 22.1594C16.2621 22.2181 16.3127 22.2746 16.3657 22.3286C16.4191 22.3823 16.4749 22.434 16.5332 22.4825C16.5914 22.5315 16.652 22.5772 16.715 22.6201C16.778 22.663 16.8428 22.7026 16.9101 22.7395C16.9769 22.7763 17.0452 22.8099 17.1158 22.8402C17.1859 22.8705 17.2575 22.8971 17.3305 22.9204C17.4035 22.9442 17.4775 22.9638 17.5524 22.9806C17.6273 22.9969 17.7027 23.0095 17.7791 23.0188C17.8549 23.0281 17.9313 23.0333 18.0081 23.0356C18.0849 23.0374 18.1617 23.0356 18.2381 23.03C18.3149 23.0249 18.3908 23.016 18.4667 23.0034C18.5421 22.9903 18.617 22.9745 18.6914 22.9544C18.7654 22.9349 18.8384 22.9115 18.9099 22.885C18.9815 22.8584 19.0517 22.8281 19.1204 22.795C19.1896 22.7614 19.2564 22.725 19.3213 22.6854C19.3866 22.6453 19.4496 22.6028 19.5102 22.5571C19.5713 22.5114 19.6295 22.4629 19.6854 22.4116C19.7417 22.3604 19.7951 22.3063 19.8457 22.2498C19.8963 22.1934 19.944 22.1351 19.9888 22.074C20.0332 22.0129 20.0752 21.9505 20.1134 21.8852C20.152 21.8204 20.1873 21.7541 20.2193 21.6856C20.2508 21.6175 20.2794 21.548 20.3042 21.4771C20.3291 21.4063 20.3505 21.334 20.3682 21.2612C20.3858 21.188 20.4002 21.1148 20.4107 21.0402C20.4211 20.9661 20.4278 20.8915 20.4307 20.8164C20.4336 20.7408 20.4326 20.6653 20.4278 20.5897C20.4231 20.5147 20.4149 20.4396 20.4025 20.365C20.3901 20.2904 20.3744 20.2162 20.3548 20.143C20.3353 20.0703 20.3119 19.998 20.2852 19.9271C20.258 19.8562 20.2279 19.7867 20.194 19.7187C20.1601 19.651 20.1229 19.5848 20.0824 19.5205C20.0418 19.4557 19.9984 19.3936 19.9516 19.3335C19.9049 19.2729 19.8552 19.215 19.8023 19.1595C19.7498 19.1045 19.6949 19.0514 19.6367 19.0015C19.5789 18.9511 19.5188 18.904 19.4563 18.8592C19.3933 18.8149 19.3289 18.7739 19.2621 18.7357C19.1953 18.6974 19.1266 18.6625 19.0564 18.6307C18.9863 18.599 18.9142 18.5711 18.8412 18.5459C18.7682 18.5212 18.6938 18.5002 18.6189 18.4825C18.5435 18.4647 18.4676 18.4507 18.3908 18.4405C18.3144 18.4298 18.2371 18.4232 18.1598 18.4204C18.1288 18.419 18.0983 18.4186 18.0677 18.4186Z" fill="#1E417C"/>
<path d="M69.4687 10.524C69.4053 10.524 69.3437 10.5128 69.2845 10.4904L68.6566 10.2535C68.3951 10.1551 68.1427 10.0381 67.8998 9.90236C67.6564 9.76666 67.4245 9.61417 67.205 9.44443C66.9851 9.27469 66.7799 9.09003 66.5885 8.88998C66.3972 8.68993 66.2221 8.47729 66.0636 8.25159C65.9052 8.02589 65.7649 7.78994 65.6428 7.54372C65.5206 7.29704 65.4185 7.04336 65.3355 6.78222C65.2524 6.52062 65.1899 6.25482 65.1479 5.98435C65.106 5.71342 65.085 5.44156 65.085 5.16783V2.63619C65.085 2.60355 65.0883 2.57137 65.095 2.5392C65.1017 2.50702 65.1112 2.47578 65.1241 2.44547C65.137 2.41515 65.1527 2.38624 65.1713 2.3592C65.1899 2.33215 65.2109 2.30697 65.2348 2.28365C65.2582 2.26034 65.2844 2.23982 65.3121 2.22163C65.3398 2.20345 65.3694 2.18806 65.4004 2.17547C65.4314 2.16288 65.4634 2.15355 65.4963 2.14702C65.5292 2.14049 65.5621 2.1377 65.596 2.1377H67.7767C67.8106 2.1377 67.8435 2.14049 67.8764 2.14702C67.9093 2.15355 67.9413 2.16288 67.9723 2.17547C68.0033 2.18806 68.0329 2.20345 68.0606 2.22163C68.0888 2.23982 68.1145 2.26034 68.1379 2.28365C68.1618 2.30697 68.1828 2.33215 68.2014 2.3592C68.22 2.38624 68.2357 2.41515 68.2486 2.44547C68.2615 2.47578 68.271 2.50702 68.2777 2.5392C68.2844 2.57137 68.2877 2.60355 68.2877 2.63619V5.27042C68.2882 5.67099 68.3226 6.06829 68.3913 6.46326C68.46 6.85823 68.5616 7.24481 68.6962 7.62299C68.8308 8.00118 68.9963 8.36584 69.1934 8.71744C69.3905 9.06858 69.6157 9.40153 69.8696 9.71583C69.9302 9.79091 69.9659 9.87578 69.9764 9.9709C69.9869 10.066 69.9712 10.1565 69.9282 10.2428C69.8858 10.3286 69.8228 10.3971 69.7398 10.4479C69.6567 10.4988 69.5665 10.524 69.4687 10.524ZM66.1066 3.13515V5.16783C66.1066 5.34969 66.118 5.53109 66.1409 5.71156C66.1634 5.89202 66.1977 6.07015 66.2426 6.24689C66.2879 6.42316 66.3437 6.59616 66.4105 6.7659C66.4773 6.93564 66.5546 7.10118 66.642 7.2616C66.7293 7.42201 66.8266 7.57683 66.9335 7.72558C67.0404 7.8748 67.1559 8.01657 67.2809 8.1518C67.4054 8.28703 67.5381 8.41387 67.6789 8.53325C67.8191 8.65216 67.9666 8.76267 68.1212 8.86433C67.8406 8.30475 67.6283 7.72185 67.4842 7.11517C67.3396 6.50803 67.2671 5.89342 67.2666 5.27042V3.13515H66.1066Z" fill="#1E417C"/>
<path d="M76.3927 10.5244C76.2949 10.5244 76.2042 10.4992 76.1217 10.4484C76.0386 10.3976 75.9756 10.329 75.9332 10.2432C75.8902 10.157 75.8745 10.0665 75.885 9.97137C75.8955 9.87625 75.9313 9.79138 75.9919 9.7163C76.2457 9.402 76.4709 9.06905 76.668 8.71744C76.8651 8.36631 77.0307 8.00165 77.1652 7.62346C77.2998 7.24528 77.4014 6.8587 77.4697 6.46373C77.5384 6.06876 77.5732 5.67099 77.5737 5.27089V2.63666C77.5737 2.60401 77.577 2.57137 77.5832 2.5392C77.5899 2.50749 77.5995 2.47624 77.6123 2.44593C77.6252 2.41562 77.641 2.38671 77.6596 2.35966C77.6782 2.33215 77.6997 2.30697 77.723 2.28412C77.7469 2.2608 77.7727 2.24029 77.8003 2.2221C77.8285 2.20391 77.8581 2.18852 77.8891 2.17593C77.9196 2.16334 77.9516 2.15402 77.9845 2.14749C78.0175 2.14096 78.0509 2.1377 78.0843 2.1377H80.2654C80.2988 2.1377 80.3322 2.14096 80.3651 2.14749C80.3981 2.15402 80.43 2.16334 80.461 2.17593C80.4916 2.18852 80.5212 2.20391 80.5493 2.2221C80.577 2.24029 80.6028 2.2608 80.6266 2.28412C80.65 2.30697 80.6715 2.33215 80.6901 2.35966C80.7087 2.38671 80.7244 2.41562 80.7373 2.44593C80.7502 2.47624 80.7598 2.50749 80.7664 2.5392C80.7726 2.57137 80.776 2.60401 80.776 2.63666V5.1683C80.776 5.44203 80.755 5.71389 80.713 5.98482C80.671 6.25528 80.609 6.52109 80.5259 6.78269C80.4429 7.04383 80.3403 7.29797 80.2182 7.54419C80.096 7.7904 79.9557 8.02636 79.7973 8.25206C79.6389 8.47776 79.4642 8.6904 79.2729 8.89045C79.0815 9.0905 78.8759 9.27516 78.6564 9.4449C78.4364 9.61464 78.205 9.76713 77.9616 9.90283C77.7183 10.0385 77.4658 10.1556 77.2048 10.2544L76.5764 10.4909C76.5172 10.5132 76.4562 10.5244 76.3927 10.5244ZM78.5948 3.13562V5.27089C78.5944 5.89342 78.5218 6.5085 78.3772 7.11518C78.2331 7.72186 78.0208 8.30522 77.7402 8.8648C77.8943 8.76314 78.0423 8.65263 78.1826 8.53325C78.3233 8.41434 78.456 8.28703 78.5805 8.1518C78.7051 8.01703 78.821 7.87481 78.9279 7.72605C79.0348 7.5773 79.1321 7.42248 79.2194 7.26207C79.3068 7.10119 79.3841 6.93611 79.4509 6.76637C79.5177 6.59663 79.5735 6.42363 79.6188 6.24689C79.6637 6.07062 79.6976 5.89202 79.7205 5.71156C79.7434 5.53109 79.7544 5.35016 79.7548 5.1683V3.13562H78.5948Z" fill="#1E417C"/>
<path d="M74.3483 15.2103H71.5125C71.4791 15.2103 71.4457 15.207 71.4128 15.2005C71.3799 15.1939 71.3479 15.1846 71.3169 15.172C71.2859 15.1594 71.2568 15.144 71.2286 15.1259C71.2009 15.1077 71.1752 15.0872 71.1513 15.0638C71.1274 15.041 71.1065 15.0158 71.0878 14.9883C71.0692 14.9613 71.0535 14.9323 71.0406 14.902C71.0277 14.8717 71.0182 14.8409 71.0115 14.8088C71.0048 14.7766 71.002 14.7439 71.002 14.7113V12.4189C71.002 12.3858 71.0048 12.3536 71.0115 12.3214C71.0182 12.2892 71.0277 12.258 71.0406 12.2277C71.0535 12.1974 71.0692 12.1689 71.0878 12.1414C71.1065 12.1144 71.1274 12.0892 71.1513 12.0659C71.1752 12.0426 71.2009 12.022 71.2286 12.0039C71.2568 11.9857 71.2859 11.9703 71.3169 11.9577C71.3479 11.9451 71.3799 11.9358 71.4128 11.9292C71.4457 11.9232 71.4791 11.9199 71.5125 11.9199H74.3483C74.3818 11.9199 74.4152 11.9232 74.4481 11.9292C74.481 11.9358 74.513 11.9451 74.544 11.9577C74.5745 11.9703 74.6041 11.9857 74.6323 12.0039C74.6599 12.022 74.6857 12.0426 74.7096 12.0659C74.7329 12.0892 74.7544 12.1144 74.773 12.1414C74.7916 12.1689 74.8074 12.1974 74.8203 12.2277C74.8332 12.258 74.8427 12.2892 74.8494 12.3214C74.8556 12.3536 74.8589 12.3858 74.8589 12.4189V14.7113C74.8589 14.7439 74.8556 14.7766 74.8494 14.8088C74.8427 14.8409 74.8332 14.8717 74.8203 14.902C74.8074 14.9323 74.7916 14.9613 74.773 14.9883C74.7544 15.0158 74.7329 15.041 74.7096 15.0638C74.6857 15.0872 74.6599 15.1077 74.6323 15.1259C74.6041 15.144 74.575 15.1594 74.544 15.172C74.513 15.1846 74.481 15.1939 74.4481 15.2005C74.4152 15.207 74.3818 15.2103 74.3483 15.2103ZM72.0231 14.2123H73.8378V12.9174H72.0231V14.2123Z" fill="#1E417C"/>
<path d="M77.129 18.5076H68.7332C68.6998 18.5076 68.6664 18.5044 68.6335 18.4978C68.6006 18.4913 68.5691 18.482 68.5381 18.4694C68.507 18.4568 68.4775 18.4414 68.4498 18.4232C68.4216 18.405 68.3959 18.3845 68.372 18.3612C68.3486 18.3384 68.3272 18.3132 68.3085 18.2857C68.2899 18.2586 68.2742 18.2297 68.2613 18.1994C68.2484 18.1691 68.2389 18.1383 68.2322 18.1061C68.226 18.074 68.2227 18.0413 68.2227 18.0087V16.9096C68.2227 16.8443 68.2351 16.7813 68.2604 16.7212C68.2856 16.6606 68.3219 16.6069 68.3687 16.5603C68.4154 16.5137 68.4694 16.4778 68.5309 16.4516C68.592 16.426 68.6564 16.412 68.7232 16.4111C68.853 16.4078 68.9818 16.3938 69.1092 16.3696C69.2371 16.3453 69.3617 16.3108 69.4833 16.266C69.605 16.2213 69.7219 16.1672 69.8345 16.1033C69.9467 16.0399 70.0531 15.9671 70.1528 15.886C70.253 15.8049 70.3451 15.7163 70.43 15.6202C70.515 15.5241 70.5909 15.4215 70.6581 15.3129C70.7254 15.2042 70.7832 15.0909 70.8309 14.9729C70.8791 14.855 70.9163 14.7337 70.9435 14.6097C70.9554 14.5537 70.9764 14.501 71.0069 14.4521C71.0375 14.4026 71.0757 14.3602 71.121 14.3238C71.1668 14.2879 71.2169 14.2599 71.2723 14.2408C71.3276 14.2217 71.3849 14.2119 71.4436 14.2119H74.4187C74.4774 14.2119 74.5347 14.2217 74.59 14.2408C74.6454 14.2599 74.696 14.2879 74.7413 14.3238C74.7871 14.3602 74.8248 14.4026 74.8553 14.4521C74.8859 14.501 74.9073 14.5537 74.9188 14.6097C74.946 14.7337 74.9837 14.855 75.0314 14.9729C75.0796 15.0909 75.1369 15.2042 75.2041 15.3129C75.2714 15.4215 75.3478 15.5241 75.4322 15.6202C75.5172 15.7163 75.6097 15.8049 75.7095 15.886C75.8097 15.9671 75.9156 16.0399 76.0282 16.1033C76.1408 16.1672 76.2577 16.2213 76.3794 16.266C76.5011 16.3108 76.6256 16.3453 76.753 16.3696C76.8809 16.3938 77.0093 16.4078 77.1395 16.4111C77.2063 16.412 77.2703 16.426 77.3318 16.4516C77.3929 16.4778 77.4473 16.5137 77.4941 16.5603C77.5408 16.6069 77.5766 16.6606 77.6019 16.7212C77.6272 16.7813 77.6401 16.8443 77.6401 16.9096V18.0087C77.6401 18.0413 77.6368 18.074 77.6301 18.1061C77.6234 18.1383 77.6139 18.1696 77.601 18.1994C77.5881 18.2297 77.5723 18.2586 77.5537 18.2857C77.5351 18.3132 77.5141 18.3384 77.4903 18.3617C77.4664 18.3845 77.4406 18.4055 77.413 18.4237C77.3848 18.4419 77.3552 18.4573 77.3242 18.4694C77.2932 18.482 77.2617 18.4918 77.2288 18.4978C77.1959 18.5044 77.1624 18.5076 77.129 18.5076ZM69.2443 17.5097H76.618V17.3614C76.4715 17.3362 76.3274 17.3022 76.1852 17.2588C76.0435 17.215 75.9051 17.1623 75.7705 17.1008C75.636 17.0392 75.5057 16.9688 75.3807 16.8904C75.2557 16.8116 75.1364 16.7254 75.0233 16.6312C74.9097 16.537 74.8033 16.4358 74.7041 16.3276C74.6048 16.2194 74.5132 16.1056 74.4292 15.9853C74.3452 15.8655 74.2698 15.7405 74.2035 15.6104C74.1367 15.4808 74.079 15.3469 74.0308 15.2098H71.832C71.7833 15.3469 71.726 15.4808 71.6592 15.6104C71.5924 15.7405 71.517 15.8655 71.4331 15.9853C71.3496 16.1056 71.2579 16.2194 71.1582 16.3276C71.059 16.4358 70.9525 16.537 70.8395 16.6312C70.7259 16.7254 70.6066 16.8116 70.4816 16.8904C70.3566 16.9688 70.2268 17.0392 70.0917 17.1008C69.9572 17.1623 69.8188 17.215 69.6771 17.2588C69.5349 17.3022 69.3908 17.3362 69.2443 17.3614V17.5097Z" fill="#1E417C"/>
<path d="M71.1624 8.83352C71.1218 8.83352 71.0822 8.82886 71.0431 8.81953C71.0039 8.81067 70.9662 8.79715 70.9305 8.77896C70.8942 8.76124 70.8613 8.73933 70.8303 8.71415C70.7997 8.6885 70.7725 8.65959 70.7491 8.62788C70.7253 8.59617 70.7057 8.56166 70.6904 8.52529C70.6747 8.48891 70.6642 8.45161 70.6575 8.41244C70.6513 8.37373 70.6499 8.33456 70.6532 8.29539C70.6561 8.25622 70.6642 8.21798 70.6766 8.18068L71.2373 6.49494L69.769 5.45318C69.7256 5.42194 69.6879 5.3851 69.6564 5.34267C69.6244 5.30023 69.6006 5.2536 69.5839 5.2037C69.5672 5.15334 69.5586 5.10205 69.5586 5.04935C69.5586 4.99666 69.5672 4.94536 69.5839 4.89547C69.6006 4.8451 69.6244 4.79894 69.6564 4.75604C69.6879 4.7136 69.7256 4.67676 69.769 4.64599C69.8129 4.61474 69.8602 4.59143 69.9117 4.57511C69.9628 4.55878 70.0157 4.55039 70.0696 4.55039H71.8838L72.4445 2.86512C72.4612 2.81475 72.4856 2.76859 72.5171 2.72615C72.549 2.68325 72.5867 2.64641 72.6301 2.61564C72.6736 2.58439 72.7213 2.56108 72.7723 2.54476C72.8239 2.52844 72.8764 2.52051 72.9303 2.52051C72.9842 2.52051 73.0367 2.52844 73.0882 2.54476C73.1393 2.56108 73.187 2.58439 73.2304 2.61564C73.2743 2.64641 73.3115 2.68325 73.3435 2.72615C73.375 2.76859 73.3993 2.81475 73.416 2.86512L73.9767 4.55039H75.7914C75.8453 4.55039 75.8978 4.55878 75.9489 4.57511C76.0004 4.59143 76.0476 4.61474 76.0915 4.64599C76.135 4.67676 76.1727 4.7136 76.2041 4.75604C76.2361 4.79894 76.2605 4.8451 76.2767 4.89547C76.2934 4.94536 76.302 4.99666 76.302 5.04935C76.302 5.10205 76.2934 5.15334 76.2767 5.2037C76.2605 5.2536 76.2361 5.30023 76.2041 5.34267C76.1727 5.3851 76.135 5.42194 76.0915 5.45318L74.6233 6.49494L75.184 8.18068C75.2007 8.23057 75.2092 8.28187 75.2092 8.33456C75.2092 8.38726 75.2007 8.43855 75.184 8.48891C75.1673 8.53881 75.1434 8.58544 75.1114 8.62788C75.0799 8.67031 75.0422 8.70715 74.9988 8.73839C74.9549 8.76917 74.9077 8.79295 74.8561 8.80927C74.8051 8.82513 74.7521 8.83352 74.6982 8.83352C74.6443 8.83352 74.5918 8.82513 74.5407 8.80927C74.4892 8.79295 74.442 8.76917 74.3981 8.73839L72.9303 7.69664L71.4625 8.73793C71.3733 8.80181 71.2731 8.83352 71.1624 8.83352ZM71.6414 5.54831L72.1377 5.90085C72.1816 5.93162 72.2188 5.96846 72.2508 6.0109C72.2823 6.0538 72.3066 6.09997 72.3233 6.14986C72.34 6.20022 72.3481 6.25152 72.3481 6.30421C72.3481 6.35691 72.34 6.4082 72.3233 6.45856L72.1339 7.02841L72.6301 6.67633C72.6736 6.64509 72.7213 6.62178 72.7723 6.60545C72.8239 6.58913 72.8764 6.58074 72.9303 6.58074C72.9842 6.58074 73.0367 6.58913 73.0882 6.60545C73.1393 6.62178 73.187 6.64509 73.2304 6.67633L73.7272 7.02841L73.5377 6.4581C73.521 6.4082 73.5124 6.35691 73.5124 6.30421C73.5124 6.25152 73.521 6.20022 73.5377 6.14986C73.5539 6.09997 73.5783 6.05333 73.6102 6.0109C73.6417 5.96846 73.6794 5.93162 73.7229 5.90038L74.2196 5.54831H73.606C73.552 5.54831 73.4995 5.53992 73.448 5.5236C73.397 5.50774 73.3492 5.48396 73.3058 5.45318C73.2619 5.42194 73.2242 5.3851 73.1927 5.34267C73.1608 5.29976 73.1369 5.2536 73.1202 5.2037L72.9303 4.6334L72.7408 5.2037C72.7241 5.2536 72.6998 5.29976 72.6683 5.34267C72.6368 5.3851 72.5991 5.42194 72.5552 5.45318C72.5118 5.48396 72.4641 5.50774 72.413 5.5236C72.3615 5.53992 72.309 5.54831 72.2551 5.54831H71.6414Z" fill="#1E417C"/>
<path d="M37.0023 22.1987C36.8611 22.1991 36.7408 22.1502 36.6411 22.0527L35.1347 20.581C35.1108 20.5577 35.0894 20.5325 35.0707 20.5055C35.0521 20.4784 35.0364 20.4495 35.0235 20.4192C35.0106 20.3889 35.0006 20.3576 34.9939 20.3255C34.9877 20.2933 34.9844 20.2606 34.9844 20.228C34.9844 20.1954 34.9872 20.1627 34.9939 20.1305C35.0006 20.0984 35.0101 20.0671 35.023 20.0368C35.0359 20.0065 35.0517 19.9776 35.0703 19.9505C35.0889 19.9235 35.1099 19.8979 35.1337 19.875C35.1576 19.8517 35.1834 19.8312 35.2115 19.8125C35.2392 19.7943 35.2688 19.7789 35.2998 19.7668C35.3308 19.7542 35.3628 19.7444 35.3957 19.7384C35.4286 19.7318 35.462 19.7286 35.4954 19.7286C35.5288 19.7286 35.5622 19.7318 35.5952 19.7384C35.6281 19.7449 35.66 19.7542 35.6911 19.7668C35.7221 19.7794 35.7517 19.7948 35.7793 19.8134C35.807 19.8316 35.8333 19.8522 35.8566 19.8755L37.0023 20.9942L39.654 18.4038C39.6778 18.3809 39.7036 18.3599 39.7313 18.3417C39.7594 18.3236 39.789 18.3082 39.8195 18.2956C39.8506 18.283 39.8825 18.2737 39.9155 18.2671C39.9484 18.2611 39.9818 18.2578 40.0152 18.2578C40.0486 18.2578 40.082 18.2611 40.1149 18.2671C40.1478 18.2737 40.1798 18.283 40.2108 18.2956C40.2418 18.3082 40.2709 18.3236 40.2991 18.3417C40.3268 18.3599 40.3525 18.3809 40.3764 18.4038C40.4003 18.4271 40.4213 18.4523 40.4399 18.4793C40.4585 18.5068 40.4742 18.5353 40.4871 18.5656C40.5 18.5959 40.5095 18.6271 40.5162 18.6593C40.5229 18.6915 40.5258 18.7237 40.5258 18.7568C40.5258 18.7894 40.5229 18.8221 40.5162 18.8538C40.5095 18.8859 40.5 18.9172 40.4871 18.9475C40.4742 18.9778 40.4585 19.0067 40.4399 19.0338C40.4213 19.0613 40.4003 19.0865 40.3764 19.1093L37.3631 22.0527C37.2633 22.1502 37.1431 22.1987 37.0023 22.1987Z" fill="#1E417C"/>
<path d="M37.7557 24.9667C37.5968 24.9667 37.4384 24.9588 37.2804 24.9439C37.1225 24.9285 36.9655 24.9056 36.8095 24.8753C36.6534 24.8455 36.4998 24.8077 36.3476 24.7625C36.1953 24.7177 36.046 24.6655 35.8995 24.6058C35.7525 24.5466 35.6089 24.4803 35.4691 24.4071C35.3288 24.3339 35.1928 24.2542 35.0606 24.1679C34.9285 24.0816 34.8011 23.9893 34.6784 23.8909C34.5553 23.7925 34.4379 23.6885 34.3253 23.5785C34.2132 23.4689 34.1068 23.3542 34.0056 23.2339C33.9049 23.114 33.8104 22.9895 33.7222 22.8604C33.6339 22.7316 33.5523 22.5987 33.4774 22.4616C33.4025 22.325 33.3347 22.1847 33.2736 22.0415C33.213 21.8979 33.1596 21.7519 33.1133 21.6036C33.0675 21.4549 33.0288 21.3047 32.9978 21.1522C32.9668 21.0002 32.9434 20.8468 32.9277 20.6924C32.9124 20.5381 32.9043 20.3828 32.9043 20.228C32.9043 20.0727 32.9124 19.9179 32.9277 19.7635C32.9434 19.6087 32.9668 19.4558 32.9978 19.3033C33.0288 19.1513 33.0675 19.0006 33.1133 18.8523C33.1596 18.7036 33.213 18.5576 33.2736 18.4145C33.3347 18.2708 33.4025 18.131 33.4774 17.9939C33.5523 17.8572 33.6339 17.7243 33.7222 17.5952C33.8104 17.466 33.9049 17.3415 34.0056 17.2216C34.1063 17.1018 34.2132 16.9866 34.3253 16.877C34.4379 16.7674 34.5553 16.663 34.6784 16.5646C34.8011 16.4662 34.9285 16.3739 35.0606 16.2876C35.1928 16.2013 35.3288 16.1216 35.4691 16.0488C35.6089 15.9756 35.7525 15.9094 35.8995 15.8497C36.046 15.7905 36.1953 15.7383 36.3476 15.693C36.4998 15.6483 36.6534 15.6105 36.8095 15.5802C36.9655 15.5499 37.1225 15.527 37.2804 15.5121C37.4384 15.4967 37.5968 15.4893 37.7557 15.4893C37.9146 15.4893 38.0735 15.4967 38.2314 15.5121C38.3894 15.527 38.5464 15.5499 38.7024 15.5802C38.858 15.6105 39.0121 15.6483 39.1643 15.693C39.316 15.7383 39.4659 15.7905 39.6124 15.8497C39.7593 15.9094 39.9025 15.9756 40.0428 16.0488C40.1831 16.1216 40.3191 16.2013 40.4512 16.2876C40.5834 16.3739 40.7108 16.4662 40.8334 16.5646C40.9566 16.663 41.0739 16.7674 41.1866 16.877C41.2987 16.9866 41.4051 17.1018 41.5063 17.2216C41.6069 17.3415 41.7014 17.466 41.7897 17.5952C41.878 17.7243 41.9596 17.8572 42.0345 17.9939C42.1094 18.131 42.1772 18.2708 42.2378 18.4145C42.2988 18.5576 42.3523 18.7036 42.3986 18.8523C42.4444 19.0006 42.483 19.1513 42.514 19.3033C42.5451 19.4558 42.5684 19.6087 42.5837 19.7635C42.5995 19.9179 42.6071 20.0727 42.6071 20.228C42.6071 20.3828 42.599 20.5376 42.5832 20.692C42.5675 20.8468 42.5441 20.9997 42.5131 21.1518C42.4821 21.3042 42.4434 21.4544 42.3971 21.6027C42.3508 21.7514 42.2974 21.8969 42.2363 22.0406C42.1757 22.1837 42.1075 22.3236 42.0326 22.4607C41.9577 22.5973 41.8761 22.7302 41.7878 22.8594C41.6995 22.9881 41.605 23.1126 41.5043 23.2325C41.4037 23.3528 41.2968 23.4675 41.1846 23.5771C41.0725 23.6867 40.9546 23.7907 40.832 23.8895C40.7094 23.9879 40.582 24.0802 40.4498 24.1665C40.3176 24.2528 40.1816 24.3321 40.0418 24.4053C39.9015 24.4785 39.7584 24.5452 39.6114 24.6044C39.4649 24.6641 39.3156 24.7163 39.1633 24.7615C39.0116 24.8063 38.8575 24.8441 38.7019 24.8748C38.5464 24.9052 38.3894 24.928 38.2314 24.9434C38.073 24.9588 37.9146 24.9662 37.7557 24.9667ZM37.7557 16.4867C37.6307 16.4867 37.5052 16.4928 37.3806 16.5049C37.2556 16.517 37.1316 16.5347 37.0089 16.5585C36.8858 16.5828 36.7641 16.6122 36.6439 16.6481C36.5241 16.6835 36.4063 16.7245 36.2903 16.7716C36.1743 16.8183 36.0613 16.871 35.9506 16.9288C35.8399 16.9861 35.7325 17.0491 35.628 17.1172C35.524 17.1853 35.4233 17.2585 35.3264 17.3359C35.2291 17.4138 35.1365 17.4958 35.0477 17.5826C34.959 17.6693 34.875 17.7598 34.7953 17.8544C34.7156 17.9491 34.6412 18.0475 34.5715 18.1496C34.5019 18.2513 34.4374 18.3562 34.3783 18.4644C34.3191 18.5726 34.2657 18.6831 34.2175 18.7964C34.1693 18.9092 34.1273 19.0249 34.091 19.1419C34.0543 19.259 34.0242 19.3779 33.9994 19.4982C33.9751 19.618 33.9565 19.7393 33.9445 19.861C33.9321 19.9832 33.9259 20.1053 33.9259 20.228C33.9259 20.3506 33.9321 20.4728 33.9445 20.5945C33.9565 20.7167 33.9751 20.8375 33.9994 20.9578C34.0242 21.0781 34.0543 21.1965 34.091 21.314C34.1273 21.4311 34.1693 21.5463 34.2175 21.6596C34.2657 21.7729 34.3191 21.8834 34.3783 21.9916C34.4374 22.0993 34.5019 22.2042 34.5715 22.3064C34.6412 22.408 34.7156 22.5064 34.7953 22.6011C34.875 22.6957 34.959 22.7867 35.0477 22.8734C35.1365 22.9597 35.2291 23.0422 35.3264 23.1196C35.4233 23.1975 35.524 23.2702 35.628 23.3383C35.7325 23.4064 35.8399 23.4694 35.9506 23.5272C36.0613 23.585 36.1743 23.6372 36.2903 23.6843C36.4063 23.731 36.5241 23.7725 36.6439 23.8079C36.7641 23.8434 36.8858 23.8732 37.0089 23.897C37.1316 23.9208 37.2556 23.9389 37.3806 23.9511C37.5052 23.9627 37.6307 23.9688 37.7557 23.9688C37.8812 23.9688 38.0067 23.9627 38.1312 23.9511C38.2562 23.9389 38.3798 23.9208 38.5029 23.897C38.6261 23.8732 38.7477 23.8434 38.8675 23.8079C38.9877 23.7725 39.1056 23.731 39.2216 23.6843C39.3375 23.6372 39.4506 23.585 39.5613 23.5272C39.672 23.4694 39.7794 23.4064 39.8839 23.3383C39.9879 23.2702 40.0886 23.1975 40.1854 23.1196C40.2823 23.0422 40.3754 22.9597 40.4641 22.8734C40.5529 22.7867 40.6368 22.6957 40.7165 22.6011C40.7962 22.5064 40.8707 22.408 40.9403 22.3064C41.01 22.2042 41.0744 22.0993 41.1336 21.9916C41.1928 21.8834 41.2462 21.7729 41.2944 21.6596C41.3421 21.5463 41.3846 21.4311 41.4208 21.314C41.4571 21.1965 41.4876 21.0781 41.5125 20.9578C41.5368 20.8375 41.5549 20.7167 41.5673 20.5945C41.5797 20.4728 41.5859 20.3506 41.5859 20.228C41.5855 20.1053 41.5793 19.9832 41.5669 19.8615C41.5544 19.7393 41.5363 19.6185 41.5115 19.4982C41.4872 19.3784 41.4566 19.2594 41.4199 19.1424C41.3836 19.0253 41.3412 18.9102 41.293 18.7969C41.2452 18.6835 41.1913 18.573 41.1322 18.4653C41.073 18.3571 41.0086 18.2522 40.9389 18.1505C40.8692 18.0484 40.7948 17.9505 40.7151 17.8558C40.6354 17.7612 40.5514 17.6702 40.4627 17.584C40.3739 17.4972 40.2814 17.4152 40.1845 17.3373C40.0876 17.2594 39.9869 17.1867 39.8824 17.1186C39.7784 17.0505 39.6711 16.9875 39.5604 16.9297C39.4496 16.8719 39.3366 16.8197 39.2211 16.7726C39.1051 16.7259 38.9873 16.6844 38.867 16.649C38.7473 16.6131 38.6256 16.5832 38.5029 16.5595C38.3798 16.5352 38.2558 16.5175 38.1312 16.5054C38.0062 16.4932 37.8812 16.4872 37.7557 16.4867Z" fill="#1E417C"/>
<path d="M47.208 29.9681C47.0066 29.9685 46.8129 29.9312 46.6263 29.8557C46.4402 29.7806 46.2761 29.6729 46.1344 29.5335L42.599 26.0804C42.5284 26.0114 42.4649 25.9363 42.4096 25.8552C42.3542 25.7745 42.3074 25.6887 42.2693 25.5987C42.2306 25.5087 42.202 25.4159 42.1824 25.3203C42.1629 25.2247 42.1533 25.1286 42.1533 25.0312C42.1533 24.9337 42.1629 24.8372 42.1824 24.7416C42.2015 24.646 42.2306 24.5532 42.2688 24.4627C42.307 24.3727 42.3537 24.2874 42.4091 24.2062C42.4644 24.1251 42.5274 24.0505 42.598 23.9815C42.6687 23.9125 42.7455 23.8509 42.828 23.7968C42.9111 23.7427 42.9989 23.697 43.091 23.6597C43.1831 23.6224 43.278 23.5944 43.3758 23.5753C43.4737 23.5562 43.5729 23.5469 43.6726 23.5469C43.7724 23.5469 43.8711 23.5567 43.969 23.5753C44.0668 23.5944 44.1617 23.6229 44.2538 23.6602C44.3459 23.6975 44.4337 23.7432 44.5163 23.7973C44.5993 23.8518 44.6761 23.9134 44.7467 23.9824L48.2821 27.4355C48.3522 27.5045 48.4152 27.5791 48.4706 27.6603C48.5264 27.7414 48.5732 27.8267 48.6113 27.9167C48.6495 28.0067 48.6782 28.0995 48.6977 28.1951C48.7168 28.2907 48.7268 28.3873 48.7268 28.4847C48.7268 28.5817 48.7168 28.6782 48.6977 28.7738C48.6782 28.8694 48.6495 28.9622 48.6113 29.0522C48.5732 29.1422 48.5264 29.2276 48.4706 29.3087C48.4152 29.3898 48.3522 29.4645 48.2821 29.5335C48.1399 29.6729 47.9758 29.7806 47.7897 29.8557C47.6036 29.9312 47.4094 29.9685 47.208 29.9681ZM43.6726 24.5457C43.6235 24.5457 43.5753 24.5527 43.5285 24.5667C43.4813 24.5802 43.4374 24.6008 43.3963 24.6273C43.3553 24.6539 43.3195 24.6861 43.288 24.7229C43.257 24.7602 43.2322 24.8008 43.2131 24.8456C43.1945 24.8899 43.1826 24.936 43.1778 24.9836C43.173 25.0316 43.1754 25.0787 43.185 25.1258C43.1945 25.1729 43.2107 25.2177 43.2341 25.2601C43.2575 25.3026 43.2861 25.3408 43.321 25.3748L46.8563 28.8279C46.8797 28.8503 46.9045 28.8708 46.9317 28.8886C46.9589 28.9063 46.9875 28.9212 47.0176 28.9333C47.0481 28.9454 47.0792 28.9548 47.1111 28.9608C47.1431 28.9674 47.1755 28.9702 47.208 28.9702C47.2409 28.9702 47.2729 28.9674 47.3049 28.9608C47.3373 28.9548 47.3683 28.9454 47.3984 28.9333C47.4284 28.9212 47.4571 28.9063 47.4843 28.8886C47.5115 28.8708 47.5368 28.8503 47.5597 28.8279C47.5826 28.8055 47.6036 28.7808 47.6217 28.7543C47.6398 28.7277 47.6551 28.6997 47.6675 28.6703C47.6799 28.6409 47.6895 28.6106 47.6957 28.5794C47.7023 28.5481 47.7052 28.5164 47.7052 28.4847C47.7052 28.4525 47.7023 28.4208 47.6957 28.3896C47.6895 28.3583 47.6799 28.328 47.6675 28.2987C47.6551 28.2693 47.6398 28.2413 47.6217 28.2147C47.6036 28.1881 47.5826 28.1634 47.5597 28.141L44.0243 24.688C43.9274 24.5928 43.8101 24.5453 43.6726 24.5457Z" fill="#1E417C"/>
<path d="M42.8404 24.7164C42.6991 24.7169 42.5789 24.6679 42.4791 24.5705L41.0204 23.1454C40.9966 23.1221 40.9751 23.0969 40.9565 23.0699C40.9379 23.0428 40.9221 23.0139 40.9092 22.9836C40.8964 22.9533 40.8868 22.922 40.8801 22.8899C40.8735 22.8577 40.8701 22.8255 40.8701 22.7924C40.8701 22.7598 40.8735 22.7271 40.8797 22.6949C40.8863 22.6628 40.8959 22.6315 40.9088 22.6012C40.9217 22.5709 40.9374 22.5424 40.956 22.5149C40.9746 22.4879 40.9961 22.4622 41.0195 22.4394C41.0433 22.4161 41.0691 22.3956 41.0973 22.3774C41.1249 22.3587 41.1545 22.3438 41.1855 22.3312C41.2165 22.3186 41.2485 22.3088 41.2814 22.3028C41.3144 22.2962 41.3478 22.293 41.3812 22.293C41.415 22.293 41.448 22.2962 41.4809 22.3028C41.5138 22.3093 41.5458 22.3186 41.5768 22.3312C41.6078 22.3438 41.6374 22.3592 41.6651 22.3778C41.6932 22.396 41.719 22.4165 41.7429 22.4399L43.2016 23.8649C43.2374 23.8999 43.2669 23.9391 43.2908 23.9824C43.3147 24.0263 43.3314 24.072 43.3414 24.1205C43.3514 24.169 43.3538 24.2175 43.3485 24.2664C43.3438 24.3159 43.3318 24.363 43.3123 24.4087C43.2932 24.4544 43.2674 24.4959 43.2355 24.5341C43.203 24.5723 43.1663 24.605 43.1243 24.6325C43.0823 24.66 43.0369 24.681 42.9888 24.695C42.9406 24.7094 42.8909 24.7164 42.8404 24.7164Z" fill="#1E417C"/>
<path d="M56.5225 11.5394V8.96582H56.4834V12.4646C56.4834 12.688 56.4724 12.9109 56.45 13.1333C56.4275 13.3562 56.3937 13.5768 56.3493 13.7964C56.3044 14.0156 56.2491 14.232 56.1828 14.446C56.116 14.66 56.0391 14.8703 55.9513 15.0769C55.864 15.2835 55.7662 15.4854 55.6583 15.6827C55.5505 15.8795 55.4326 16.0711 55.3057 16.2572C55.1783 16.4432 55.0423 16.6223 54.8973 16.7953C54.7517 16.9678 54.5981 17.1334 54.4363 17.2915C54.2746 17.4496 54.1052 17.5997 53.9281 17.7415C53.7511 17.8832 53.5679 18.0166 53.3775 18.1406C53.1871 18.2647 52.991 18.3799 52.7891 18.4852C52.5873 18.5906 52.3807 18.6858 52.1693 18.7716C51.9574 18.8569 51.7422 18.9324 51.5232 18.9973C51.3042 19.0621 51.0823 19.1162 50.858 19.16C50.6337 19.2034 50.4076 19.2365 50.1795 19.2584C49.9519 19.2803 49.7233 19.291 49.4947 19.291H49.0381V22.0321H58.853V11.5394H56.5225Z" fill="#D6CEFB" fill-opacity="0.03"/>
<path d="M58.8523 22.531H49.0374C49.0035 22.531 48.9706 22.5277 48.9377 22.5212C48.9048 22.5146 48.8728 22.5053 48.8418 22.4927C48.8108 22.4801 48.7817 22.4647 48.7535 22.4466C48.7258 22.4284 48.7001 22.4078 48.6762 22.3845C48.6523 22.3617 48.6313 22.3365 48.6127 22.309C48.5941 22.2819 48.5784 22.253 48.5655 22.2227C48.5526 22.1924 48.5431 22.1612 48.5364 22.1295C48.5297 22.0973 48.5264 22.0646 48.5264 22.032V8.96576C48.5264 8.93312 48.5297 8.90047 48.5364 8.8683C48.5431 8.83612 48.5526 8.80488 48.5655 8.77503C48.5784 8.74472 48.5941 8.71581 48.6127 8.68876C48.6313 8.66125 48.6523 8.63607 48.6762 8.61275C48.7001 8.5899 48.7258 8.56892 48.7535 8.55073C48.7817 8.53255 48.8108 8.51716 48.8418 8.50503C48.8728 8.49244 48.9048 8.48265 48.9377 8.47659C48.9706 8.47006 49.0035 8.4668 49.0374 8.4668H56.5218C56.5552 8.4668 56.5886 8.47006 56.6216 8.47659C56.6545 8.48265 56.6865 8.49244 56.7175 8.50503C56.748 8.51716 56.7776 8.53255 56.8058 8.55073C56.8334 8.56892 56.8592 8.5899 56.8831 8.61275C56.9064 8.63607 56.9279 8.66125 56.9465 8.68876C56.9651 8.71581 56.9809 8.74472 56.9938 8.77503C57.0066 8.80488 57.0162 8.83612 57.0229 8.8683C57.0291 8.90047 57.0324 8.93312 57.0324 8.96576V11.0409H58.8523C58.8857 11.0409 58.9191 11.0441 58.9521 11.0502C58.985 11.0567 59.017 11.0661 59.048 11.0786C59.079 11.0912 59.1081 11.1066 59.1363 11.1248C59.1639 11.143 59.1897 11.1635 59.2136 11.1868C59.2374 11.2101 59.2584 11.2353 59.277 11.2624C59.2956 11.2899 59.3114 11.3183 59.3243 11.3486C59.3371 11.379 59.3467 11.4102 59.3534 11.4424C59.36 11.4746 59.3629 11.5067 59.3629 11.5394V22.032C59.3629 22.0646 59.3596 22.0973 59.3534 22.1295C59.3467 22.1612 59.3371 22.1924 59.3243 22.2227C59.3114 22.253 59.2956 22.2819 59.277 22.309C59.2584 22.3365 59.2374 22.3617 59.2136 22.3845C59.1897 22.4078 59.1639 22.4284 59.1363 22.4466C59.1081 22.4647 59.079 22.4801 59.048 22.4927C59.017 22.5053 58.985 22.5146 58.9521 22.5212C58.9191 22.5277 58.8857 22.531 58.8523 22.531ZM49.548 21.533H58.3418V12.0383H56.5218C56.4884 12.0383 56.455 12.0351 56.4221 12.029C56.3892 12.0225 56.3572 12.0131 56.3262 12.0006C56.2952 11.988 56.2661 11.9726 56.2379 11.9544C56.2102 11.9362 56.1845 11.9157 56.1606 11.8924C56.1368 11.8691 56.1158 11.8439 56.0972 11.8168C56.0785 11.7893 56.0628 11.7609 56.0499 11.7306C56.037 11.7002 56.0275 11.669 56.0208 11.6368C56.0146 11.6047 56.0113 11.5725 56.0113 11.5394V9.46472H49.548V21.533Z" fill="#1E417C"/>
<path d="M58.8528 12.0382H56.5223C56.4889 12.0382 56.4555 12.035 56.4226 12.0289C56.3896 12.0224 56.3577 12.013 56.3267 12.0005C56.2956 11.9879 56.2665 11.9725 56.2384 11.9543C56.2107 11.9361 56.1849 11.9156 56.1611 11.8923C56.1372 11.869 56.1162 11.8438 56.0976 11.8167C56.079 11.7892 56.0633 11.7608 56.0504 11.7305C56.0375 11.7001 56.0279 11.6689 56.0213 11.6367C56.0151 11.6046 56.0117 11.5724 56.0117 11.5393V8.96566C56.0117 8.91483 56.0194 8.8654 56.0346 8.81737C56.0499 8.76887 56.0728 8.72364 56.1019 8.68214C56.1315 8.64063 56.1668 8.60426 56.2074 8.57302C56.2484 8.54177 56.2928 8.51706 56.3414 8.49887C56.3896 8.48115 56.4397 8.47089 56.4918 8.46763C56.5433 8.46483 56.5943 8.46903 56.6449 8.48115C56.695 8.49328 56.7423 8.51286 56.7866 8.53898C56.831 8.56509 56.8706 8.59727 56.905 8.63504L59.2355 11.2091C59.2679 11.245 59.2947 11.2847 59.3156 11.328C59.3362 11.3719 59.3505 11.4171 59.3576 11.4647C59.3653 11.5122 59.3653 11.5598 59.3586 11.6074C59.3519 11.6549 59.3386 11.7006 59.3185 11.7444C59.2985 11.7883 59.2722 11.8284 59.2403 11.8648C59.2078 11.9011 59.1715 11.9324 59.13 11.9585C59.0885 11.9846 59.0446 12.0042 58.9974 12.0182C58.9501 12.0317 58.9019 12.0382 58.8528 12.0382ZM57.0329 11.0408H57.7195L57.0329 10.2825V11.0408Z" fill="#1E417C"/>
<path d="M56.8555 21.3372C56.7753 21.3372 56.6994 21.3199 56.6274 21.2845L56.1731 21.0625C56.0968 21.1026 56.0161 21.1301 55.9307 21.1441C55.8453 21.1586 55.7594 21.1591 55.674 21.1465C55.5881 21.1334 55.507 21.1073 55.4301 21.0681C55.3528 21.0294 55.2846 20.9795 55.224 20.9184C55.1066 20.9795 54.9811 21.0098 54.848 21.0094C54.7149 21.0084 54.5898 20.9772 54.4729 20.9152C54.4357 20.9781 54.3885 21.0331 54.3327 21.0807C54.2763 21.1287 54.2134 21.166 54.1446 21.1931C54.0755 21.2206 54.0039 21.236 53.9294 21.2402C53.8555 21.2444 53.7825 21.2365 53.7104 21.2169C53.6388 21.1973 53.5725 21.1665 53.5114 21.1255C53.4499 21.084 53.3969 21.0341 53.353 20.9758C53.3086 20.9175 53.2748 20.8536 53.2523 20.7841C53.2299 20.7151 53.2194 20.6442 53.2208 20.5715L52.8902 21.035C52.8706 21.0616 52.8491 21.0863 52.8248 21.1092C52.8005 21.1315 52.7742 21.1516 52.7461 21.1693C52.7179 21.187 52.6883 21.2015 52.6568 21.2136C52.6258 21.2253 52.5938 21.2341 52.5609 21.2397C52.528 21.2458 52.4946 21.2481 52.4612 21.2477C52.4278 21.2467 52.3944 21.243 52.3619 21.236C52.329 21.229 52.2975 21.2187 52.2665 21.2057C52.236 21.1926 52.2069 21.1768 52.1797 21.1581C52.152 21.1395 52.1267 21.118 52.1033 21.0947C52.0804 21.0709 52.0594 21.0453 52.0413 21.0178C52.0236 20.9902 52.0084 20.9613 51.996 20.931C51.984 20.9002 51.975 20.869 51.9688 20.8368C51.963 20.8047 51.9602 20.772 51.9611 20.7394C51.9616 20.7067 51.9654 20.6745 51.9726 20.6424C51.9797 20.6107 51.9897 20.5794 52.0031 20.5496C52.0169 20.5197 52.0332 20.4913 52.0523 20.4642L52.6983 19.5591C52.7208 19.5274 52.7451 19.4976 52.7714 19.4686C52.7976 19.4402 52.8253 19.4132 52.8549 19.3875C52.8844 19.3619 52.9155 19.3385 52.9479 19.3166C52.9804 19.2947 53.0138 19.2747 53.0486 19.2569C53.0834 19.2388 53.1192 19.2229 53.156 19.2089C53.1927 19.1949 53.2299 19.1833 53.2681 19.1739C53.3063 19.1641 53.3449 19.1571 53.3836 19.152C53.4227 19.1469 53.4618 19.1441 53.5014 19.1436C53.5406 19.1432 53.5802 19.145 53.6193 19.1488C53.6584 19.153 53.6971 19.159 53.7352 19.1674C53.7739 19.1763 53.8116 19.187 53.8488 19.1996C53.8855 19.2126 53.9218 19.2276 53.9571 19.2443C53.9924 19.2616 54.0263 19.2807 54.0597 19.3017C54.0926 19.3227 54.1241 19.3455 54.1542 19.3703C54.1843 19.395 54.2129 19.4211 54.2401 19.4491C54.2673 19.477 54.2926 19.5064 54.316 19.5372C54.4453 19.5428 54.566 19.5768 54.6781 19.6398C54.7903 19.7027 54.8814 19.7871 54.9515 19.8935C55.0284 19.8599 55.1085 19.8389 55.1925 19.8305C55.276 19.8221 55.359 19.8263 55.4416 19.8436C55.5237 19.8608 55.6015 19.8897 55.674 19.9312C55.747 19.9723 55.8114 20.0236 55.8677 20.0847C55.9727 20.0446 56.081 20.0268 56.1936 20.0315C56.3062 20.0366 56.4131 20.0641 56.5133 20.1136L57.0845 20.3924C57.1356 20.4171 57.1814 20.4502 57.2219 20.4904C57.262 20.5305 57.2945 20.5762 57.3188 20.627C57.3431 20.6778 57.3584 20.7314 57.3641 20.7874C57.3698 20.8434 57.3665 20.8984 57.3531 20.9534C57.3398 21.008 57.3178 21.0593 57.2868 21.1064C57.2558 21.1539 57.2176 21.195 57.1728 21.2299C57.1274 21.2649 57.0778 21.2915 57.0234 21.3097C56.969 21.3283 56.9132 21.3377 56.8555 21.3372Z" fill="#1E417C"/>
<path d="M56.0009 14.6723H51.369C51.3356 14.6723 51.3022 14.669 51.2697 14.6629C51.2368 14.6564 51.2048 14.6471 51.1738 14.6345C51.1428 14.6219 51.1132 14.6065 51.0855 14.5883C51.0574 14.5701 51.0316 14.5496 51.0082 14.5263C50.9844 14.503 50.9634 14.4778 50.9443 14.4508C50.9257 14.4232 50.9099 14.3948 50.8975 14.3645C50.8846 14.3342 50.8746 14.3029 50.8684 14.2708C50.8617 14.2386 50.8584 14.2064 50.8584 14.1733C50.8584 14.1407 50.8617 14.1085 50.8684 14.0763C50.8746 14.0441 50.8846 14.0129 50.8975 13.9826C50.9099 13.9523 50.9257 13.9238 50.9443 13.8963C50.9634 13.8693 50.9844 13.8441 51.0082 13.8208C51.0316 13.7974 51.0574 13.7769 51.0855 13.7587C51.1132 13.7406 51.1428 13.7252 51.1738 13.7126C51.2048 13.7 51.2368 13.6907 51.2697 13.6841C51.3022 13.6781 51.3356 13.6748 51.369 13.6748H56.0009C56.0343 13.6748 56.0677 13.6781 56.1006 13.6841C56.1335 13.6907 56.1655 13.7 56.1965 13.7126C56.227 13.7252 56.2566 13.7406 56.2848 13.7587C56.3125 13.7769 56.3382 13.7974 56.3621 13.8208C56.3855 13.8441 56.4069 13.8693 56.4255 13.8963C56.4442 13.9238 56.4599 13.9523 56.4728 13.9826C56.4857 14.0129 56.4952 14.0441 56.5019 14.0763C56.5081 14.1085 56.5114 14.1407 56.5114 14.1733C56.5114 14.2064 56.5081 14.2386 56.5019 14.2708C56.4952 14.3029 56.4857 14.3342 56.4728 14.3645C56.4599 14.3948 56.4442 14.4232 56.4255 14.4508C56.4069 14.4778 56.3855 14.503 56.3621 14.5263C56.3382 14.5496 56.3125 14.5701 56.2848 14.5883C56.2566 14.6065 56.227 14.6219 56.1965 14.6345C56.1655 14.6471 56.1335 14.6564 56.1006 14.6629C56.0677 14.669 56.0343 14.6723 56.0009 14.6723Z" fill="#1E417C"/>
<path d="M56.0009 17.1688H51.369C51.3356 17.1688 51.3022 17.1656 51.2697 17.159C51.2368 17.1525 51.2048 17.1432 51.1738 17.1306C51.1428 17.118 51.1132 17.1026 51.0855 17.0844C51.0574 17.0662 51.0316 17.0457 51.0082 17.0224C50.9844 16.9995 50.9634 16.9744 50.9443 16.9469C50.9257 16.9198 50.9099 16.8909 50.8975 16.8606C50.8846 16.8303 50.8746 16.799 50.8684 16.7673C50.8617 16.7351 50.8584 16.7025 50.8584 16.6699C50.8584 16.6372 50.8617 16.6046 50.8684 16.5724C50.8746 16.5402 50.8846 16.509 50.8975 16.4787C50.9099 16.4488 50.9257 16.4199 50.9443 16.3929C50.9634 16.3654 50.9844 16.3402 51.0082 16.3169C51.0316 16.294 51.0574 16.273 51.0855 16.2548C51.1132 16.2366 51.1428 16.2213 51.1738 16.2087C51.2048 16.1965 51.2368 16.1868 51.2697 16.1807C51.3022 16.1742 51.3356 16.1709 51.369 16.1709H56.0009C56.0343 16.1709 56.0677 16.1742 56.1006 16.1807C56.1335 16.1868 56.1655 16.1965 56.1965 16.2087C56.227 16.2213 56.2566 16.2366 56.2848 16.2548C56.3125 16.273 56.3382 16.294 56.3621 16.3169C56.3855 16.3402 56.4069 16.3654 56.4255 16.3929C56.4442 16.4199 56.4599 16.4488 56.4728 16.4787C56.4857 16.509 56.4952 16.5402 56.5019 16.5724C56.5081 16.6046 56.5114 16.6372 56.5114 16.6699C56.5114 16.7025 56.5081 16.7351 56.5019 16.7673C56.4952 16.799 56.4857 16.8303 56.4728 16.8606C56.4599 16.8909 56.4442 16.9198 56.4255 16.9469C56.4069 16.9744 56.3855 16.9995 56.3621 17.0224C56.3382 17.0457 56.3125 17.0662 56.2848 17.0844C56.2566 17.1026 56.227 17.118 56.1965 17.1306C56.1655 17.1432 56.1335 17.1525 56.1006 17.159C56.0677 17.1656 56.0343 17.1688 56.0009 17.1688Z" fill="#1E417C"/>
<path d="M23.7344 48H16.6356C16.6022 47.9996 16.5688 47.9968 16.5363 47.9902C16.5034 47.9837 16.4714 47.9744 16.4404 47.9618C16.4094 47.9492 16.3798 47.9338 16.3521 47.9156C16.324 47.8974 16.2982 47.8769 16.2748 47.8536C16.251 47.8303 16.2295 47.8051 16.2109 47.7781C16.1923 47.751 16.1765 47.7221 16.1641 47.6918C16.1512 47.6615 16.1412 47.6302 16.135 47.5981C16.1283 47.5664 16.125 47.5337 16.125 47.5011C16.125 47.468 16.1283 47.4358 16.135 47.4036C16.1412 47.3714 16.1512 47.3402 16.1641 47.3099C16.1765 47.2796 16.1923 47.2511 16.2109 47.2236C16.2295 47.1966 16.251 47.1714 16.2748 47.1481C16.2982 47.1252 16.324 47.1042 16.3521 47.0861C16.3798 47.0679 16.4094 47.0525 16.4404 47.0399C16.4714 47.0273 16.5034 47.018 16.5363 47.0114C16.5688 47.0054 16.6022 47.0021 16.6356 47.0021H23.2234V42.3576C23.2234 42.3245 23.2267 42.2923 23.2334 42.2601C23.2401 42.2279 23.2496 42.1967 23.2625 42.1664C23.2754 42.1361 23.2911 42.1076 23.3098 42.0801C23.3284 42.0531 23.3494 42.0279 23.3732 42.0046C23.3966 41.9813 23.4228 41.9607 23.4505 41.9426C23.4782 41.9244 23.5078 41.909 23.5388 41.8964C23.5698 41.8838 23.6018 41.8745 23.6347 41.8679C23.6676 41.8619 23.7006 41.8586 23.7344 41.8586H32.5086V37.2584C32.5086 37.2257 32.512 37.1931 32.5187 37.1609C32.5254 37.1288 32.5349 37.0975 32.5478 37.0672C32.5607 37.0374 32.5764 37.0084 32.595 36.9809C32.6136 36.9539 32.6346 36.9287 32.6585 36.9054C32.6819 36.8825 32.7081 36.8616 32.7358 36.8434C32.7635 36.8252 32.793 36.8098 32.8241 36.7972C32.8551 36.7851 32.887 36.7753 32.92 36.7692C32.9529 36.7627 32.9858 36.7594 33.0197 36.7594H41.7939V32.1741C41.7939 32.1415 41.7973 32.1088 41.8039 32.0767C41.8106 32.0445 41.8202 32.0132 41.833 31.9829C41.8459 31.9531 41.8617 31.9242 41.8803 31.8967C41.8989 31.8696 41.9199 31.8444 41.9437 31.8211C41.9676 31.7983 41.9934 31.7773 42.021 31.7591C42.0492 31.7409 42.0783 31.7255 42.1093 31.7129C42.1403 31.7008 42.1723 31.691 42.2052 31.685C42.2382 31.6784 42.2711 31.6752 42.305 31.6752H50.8664V27.0451C50.8664 27.0124 50.8697 26.9798 50.8764 26.9476C50.8831 26.9159 50.8926 26.8847 50.9055 26.8544C50.9184 26.8241 50.9341 26.7951 50.9527 26.7681C50.9713 26.7406 50.9923 26.7154 51.0162 26.6925C51.0396 26.6692 51.0653 26.6487 51.0935 26.6305C51.1212 26.6123 51.1507 26.597 51.1818 26.5844C51.2128 26.5718 51.2448 26.5624 51.2777 26.5559C51.3106 26.5494 51.3435 26.5461 51.3774 26.5461H60.0452V21.8974C60.0452 21.8648 60.0485 21.8321 60.0552 21.7999C60.0614 21.7678 60.0715 21.737 60.0843 21.7067C60.0972 21.6764 60.113 21.6475 60.1316 21.6204C60.1502 21.5929 60.1712 21.5677 60.195 21.5449C60.2184 21.5215 60.2442 21.501 60.2723 21.4828C60.3 21.4647 60.3296 21.4493 60.3606 21.4367C60.3916 21.4241 60.4236 21.4148 60.4565 21.4082C60.4895 21.4017 60.5224 21.3984 60.5558 21.3984H82.4899C82.5233 21.3984 82.5567 21.4017 82.5896 21.4082C82.6221 21.4148 82.654 21.4241 82.685 21.4367C82.7161 21.4493 82.7456 21.4647 82.7733 21.4828C82.8015 21.501 82.8272 21.5215 82.8511 21.5449C82.8745 21.5677 82.896 21.5929 82.9146 21.6204C82.9332 21.6475 82.9489 21.6764 82.9618 21.7067C82.9742 21.737 82.9842 21.7678 82.9904 21.7999C82.9971 21.8321 83.0005 21.8648 83.0005 21.8974C83.0005 21.93 82.9971 21.9627 82.9904 21.9949C82.9842 22.027 82.9742 22.0583 82.9618 22.0881C82.9489 22.1184 82.9332 22.1473 82.9146 22.1744C82.896 22.2019 82.8745 22.2271 82.8511 22.2504C82.8272 22.2733 82.8015 22.2942 82.7733 22.3124C82.7456 22.3306 82.7161 22.346 82.685 22.3581C82.654 22.3707 82.6221 22.3805 82.5896 22.3866C82.5567 22.3931 82.5233 22.3964 82.4899 22.3964H61.0668V27.0451C61.0668 27.0777 61.0635 27.1104 61.0568 27.1425C61.0506 27.1747 61.0406 27.206 61.0277 27.2363C61.0148 27.2661 60.9991 27.295 60.9805 27.3225C60.9619 27.3496 60.9409 27.3748 60.917 27.3981C60.8936 27.4209 60.8679 27.4419 60.8397 27.4601C60.812 27.4783 60.7824 27.4937 60.7514 27.5063C60.7204 27.5184 60.6884 27.5282 60.6555 27.5343C60.6226 27.5408 60.5897 27.544 60.5558 27.544H51.888V32.1741C51.888 32.2068 51.8846 32.2394 51.878 32.2716C51.8718 32.3038 51.8617 32.3345 51.8489 32.3648C51.836 32.3952 51.8202 32.4241 51.8016 32.4511C51.783 32.4786 51.762 32.5038 51.7381 32.5267C51.7148 32.55 51.689 32.5705 51.6608 32.5887C51.6332 32.6069 51.6036 32.6223 51.5726 32.6348C51.5416 32.6474 51.5096 32.6568 51.4767 32.6633C51.4437 32.6698 51.4108 32.6731 51.3774 32.6731H42.8155V37.2584C42.8155 37.291 42.8122 37.3237 42.8055 37.3559C42.7993 37.3876 42.7893 37.4188 42.7769 37.4491C42.764 37.4794 42.7483 37.5083 42.7296 37.5354C42.711 37.5629 42.6896 37.5881 42.6662 37.6109C42.6423 37.6342 42.6166 37.6548 42.5884 37.6729C42.5607 37.6911 42.5311 37.7065 42.5001 37.7191C42.4691 37.7317 42.4371 37.741 42.4047 37.7476C42.3718 37.7541 42.3384 37.7574 42.305 37.7574H33.5303V42.3571C33.5303 42.3902 33.5269 42.4224 33.5203 42.4546C33.514 42.4868 33.504 42.518 33.4911 42.5483C33.4787 42.5786 33.463 42.6071 33.4444 42.6346C33.4253 42.6616 33.4043 42.6868 33.3804 42.7101C33.3571 42.7334 33.3313 42.754 33.3031 42.7721C33.2755 42.7903 33.2459 42.8057 33.2149 42.8183C33.1838 42.8309 33.1519 42.8402 33.119 42.8468C33.086 42.8528 33.0531 42.8561 33.0197 42.8561H24.245V47.5011C24.245 47.5337 24.2417 47.5659 24.235 47.5981C24.2288 47.6302 24.2188 47.6615 24.2059 47.6918C24.1935 47.7221 24.1777 47.751 24.1591 47.7781C24.14 47.8051 24.119 47.8303 24.0952 47.8536C24.0718 47.8769 24.046 47.8974 24.0179 47.9156C23.9902 47.9338 23.9606 47.9492 23.9296 47.9618C23.8986 47.9744 23.8666 47.9837 23.8337 47.9902C23.8008 47.9968 23.7678 48 23.7344 48Z" fill="#1E417C"/>
<path d="M74.3187 11.9312H71.5039C71.428 11.9312 71.356 11.9154 71.2878 11.8841C71.2195 11.8529 71.1608 11.809 71.1122 11.7526L69.2016 9.52688C68.8885 9.16176 68.6103 8.77331 68.367 8.36062C68.1236 7.9484 67.9184 7.51845 67.7519 7.07079C67.5854 6.62359 67.4594 6.16566 67.375 5.69654C67.29 5.22789 67.2475 4.75551 67.2471 4.2794V0.498494C67.2471 0.465852 67.2504 0.433676 67.2571 0.4015C67.2638 0.369324 67.2733 0.338081 67.2862 0.30777C67.2991 0.277459 67.3148 0.248548 67.3334 0.221501C67.352 0.194455 67.373 0.169274 67.3969 0.145958C67.4208 0.122642 67.4465 0.102124 67.4742 0.0839373C67.5024 0.0657509 67.5315 0.0503624 67.5625 0.0377718C67.5935 0.0251812 67.6255 0.0158548 67.6584 0.00932637C67.6913 0.00279785 67.7242 0 67.7581 0H78.0645C78.0979 0 78.1313 0.00279785 78.1643 0.00932637C78.1972 0.0158548 78.2291 0.0251812 78.2602 0.0377718C78.2907 0.0503624 78.3203 0.0657509 78.3484 0.0839373C78.3761 0.102124 78.4019 0.122642 78.4257 0.145958C78.4491 0.169274 78.4706 0.194455 78.4892 0.221501C78.5078 0.248548 78.5236 0.277459 78.5364 0.30777C78.5493 0.338081 78.5589 0.369324 78.5656 0.4015C78.5718 0.433676 78.5751 0.465852 78.5751 0.498494V4.2794C78.5751 4.75551 78.5326 5.22789 78.4477 5.69654C78.3628 6.16566 78.2373 6.62359 78.0707 7.07125C77.9042 7.51845 77.699 7.9484 77.4557 8.36062C77.2123 8.77331 76.9341 9.16176 76.6211 9.52688L74.71 11.7531C74.6618 11.8095 74.6031 11.8533 74.5349 11.8846C74.4662 11.9154 74.3941 11.9312 74.3187 11.9312ZM71.742 10.9333H74.0806L75.838 8.8857C76.1129 8.56534 76.3572 8.22399 76.571 7.86213C76.7848 7.50026 76.9646 7.12255 77.1107 6.72991C77.2572 6.33727 77.3674 5.93483 77.4418 5.52354C77.5163 5.11178 77.5535 4.69722 77.554 4.2794V0.997455H68.2687V4.2794C68.2692 4.69722 68.3064 5.11225 68.3808 5.52354C68.4553 5.9353 68.5655 6.33727 68.7115 6.72991C68.858 7.12301 69.0379 7.50026 69.2517 7.86213C69.4654 8.22446 69.7097 8.56534 69.9841 8.8857L71.742 10.9333Z" fill="#1E417C"/>
</svg>
