<svg width="76" height="63" viewBox="0 0 76 63" fill="none" xmlns="http://www.w3.org/2000/svg">
<mask id="mask0_57489_16065" style="mask-type:luminance" maskUnits="userSpaceOnUse" x="20" y="0" width="35" height="19">
<path d="M20.9961 0.829102H54.6702V18.8172H20.9961V0.829102Z" fill="white"/>
</mask>
<g mask="url(#mask0_57489_16065)">
<path d="M54.0938 2.05469V3.58887H51.0771V15.7275L51.2578 15.8779C51.3556 15.9595 51.4598 16.1434 51.46 16.4014V18.9863H50.665V16.4014C50.6652 16.1432 50.7695 15.9595 50.8672 15.8779L51.0469 15.7275V3.58887H46.0566V9.23145H29.5508V3.58887H21.5322V2.05469H54.0938Z" stroke="#1E417C"/>
</g>
<path d="M38.0264 28.7363C43.0204 28.7364 47.5198 29.9445 50.7539 31.875C53.9981 33.8117 55.8915 36.4194 55.8916 39.21C55.8916 39.4707 55.8687 39.7503 55.832 40.0254L38.0264 52.6562L20.1611 39.9795V39.21C20.1612 36.4194 22.0547 33.8117 25.2988 31.875C28.5329 29.9445 33.0325 28.7363 38.0264 28.7363Z" stroke="#1E417C"/>
<path d="M46.3086 11.9277V15.9473C46.3085 21.8535 42.5011 26.4209 38.0459 26.4209C33.7001 26.4209 30.0005 22.0893 29.793 16.4473H29.8018V11.9277H46.3086Z" stroke="#1E417C"/>
<path d="M67.0488 40.8066C67.0716 40.8732 67.0698 40.9444 67.0527 41C67.044 41.0284 67.0337 41.0452 67.0264 41.0547L67.0176 41.0654H67.0166L53.4434 48.3818L53.8857 49.2783L69.2334 42.3848C69.2405 42.3969 69.2492 42.4118 69.2549 42.4316L69.2627 42.457C69.2794 42.506 69.2786 42.5655 69.2588 42.6182C69.2483 42.646 69.2367 42.6617 69.2295 42.6699L69.2256 42.6758L53.0742 49.9443L53.4492 50.8711L71.1582 44.502C71.1694 44.5155 71.1849 44.5393 71.1943 44.5781C71.2089 44.6499 71.1984 44.7191 71.1758 44.7686C71.1519 44.8207 71.1313 44.8198 71.1504 44.8125L52.8623 51.3877L53.1621 52.3408L72.7598 47.0449C72.7625 47.0486 72.7665 47.0523 72.7695 47.0576L72.793 47.1309L72.7939 47.1367C72.8044 47.1975 72.7924 47.2617 72.7695 47.3066C72.761 47.3233 72.7531 47.3316 72.749 47.3359L52.6143 52.7861L52.834 53.7607L73.9531 49.9648C73.958 49.9706 73.9655 49.9785 73.9717 49.9912L73.9922 50.0703C74.0006 50.1492 73.9817 50.2149 73.96 50.252C73.9548 50.2607 73.9493 50.2651 73.9463 50.2686L52.5615 54.1162L52.6943 55.1064L74.9424 53.0996C74.9487 53.1073 74.9574 53.1196 74.9648 53.1377L74.9834 53.2236C74.9875 53.3009 74.9649 53.358 74.9453 53.3867C74.9429 53.3902 74.9402 53.3924 74.9385 53.3945L52.5098 55.4014L52.5547 56.3994H74.9219L74.9492 56.4521C74.9573 56.4762 74.9638 56.5069 74.9639 56.5439C74.9639 56.6191 74.9395 56.6686 74.9229 56.6895H1.12988C1.11325 56.6685 1.08887 56.6191 1.08887 56.5439C1.08897 56.4706 1.11263 56.4188 1.13379 56.3916C1.14109 56.3822 1.14768 56.3778 1.15137 56.375H23.5166L23.5615 55.377L1.13086 53.3691C1.12953 53.3674 1.12763 53.3657 1.12598 53.3633C1.10644 53.3348 1.08481 53.2774 1.08887 53.2002L1.08789 53.1992C1.09181 53.1317 1.11517 53.0918 1.12891 53.0752L23.377 55.082L23.5098 54.0918L2.12402 50.2441C2.12114 50.2406 2.11592 50.2363 2.11133 50.2285C2.08971 50.1916 2.07095 50.1261 2.0791 50.0469C2.08541 49.988 2.10632 49.9556 2.11816 49.9414L23.2383 53.7373L23.457 52.7627L3.33594 47.3115C3.33299 47.3088 3.32596 47.3027 3.31836 47.2881C3.30448 47.2614 3.29279 47.2188 3.29297 47.165L3.29785 47.1074C3.30489 47.0638 3.31764 47.037 3.32715 47.0215L22.8896 52.3408L23.1904 51.3877L4.90137 44.8125L4.90039 44.8115C4.89542 44.8064 4.88514 44.7943 4.87402 44.7686C4.8564 44.7276 4.84783 44.6774 4.85059 44.6289L4.85645 44.582L4.8584 44.5752C4.86654 44.5369 4.87698 44.5124 4.88574 44.499L22.6035 50.8711L22.9775 49.9443L6.82715 42.6758H6.83105C6.82541 42.6693 6.81437 42.6545 6.80371 42.625C6.78318 42.568 6.7797 42.4955 6.79785 42.4316L6.79688 42.4307C6.80304 42.4093 6.81195 42.3954 6.81836 42.3857L22.167 49.2783L22.6094 48.3818L9.03613 41.0654H9.03516C9.03937 41.0677 9.01622 41.0559 8.99902 41C8.98629 40.9584 8.98271 40.908 8.99121 40.8574L9.00391 40.8066C9.00917 40.7912 9.01652 40.7803 9.02148 40.7715L37.7891 56.291L38.0264 56.4189L38.2637 56.291L67.0303 40.7715L67.0488 40.8066Z" stroke="#1E417C"/>
<mask id="mask1_57489_16065" style="mask-type:luminance" maskUnits="userSpaceOnUse" x="0" y="58" width="76" height="5">
<path d="M0 58.3643H76V62.9996H0V58.3643Z" fill="white"/>
</mask>
<g mask="url(#mask1_57489_16065)">
<path d="M1.08594 58.9805H74.9678C75.1637 58.9807 75.4794 59.1934 75.4795 59.7949C75.4795 60.3647 75.1314 60.6104 74.9287 60.6104H41.0273L40.8779 60.8281C40.1679 61.8688 39.1267 62.4989 38.0078 62.499C36.8924 62.499 35.8667 61.8723 35.1338 60.8242L34.9844 60.6104H1.08594C0.869621 60.6104 0.536133 60.3713 0.536133 59.7949C0.536216 59.2257 0.883406 58.9805 1.08594 58.9805Z" stroke="#1E417C"/>
</g>
</svg>
