<svg width="73" height="70" viewBox="0 0 73 70" fill="none" xmlns="http://www.w3.org/2000/svg">
<mask id="mask0_58624_18525" style="mask-type:luminance" maskUnits="userSpaceOnUse" x="0" y="0" width="73" height="70">
<path d="M0 0H72.7094V70H0V0Z" fill="white"/>
</mask>
<g mask="url(#mask0_58624_18525)">
<path d="M58.1656 46.3718C58.1488 46.3774 58.131 46.3829 58.1142 46.3885L40.5188 52.5918C40.174 50.899 39.1809 49.1783 37.4278 48.396L25.5413 43.071C22.6433 41.7754 20.1471 42.282 18.086 42.9493L10.7178 45.3396L10.3752 44.1657C10.3339 44.0251 10.2792 43.89 10.2123 43.7606C10.1442 43.6312 10.065 43.5095 9.97347 43.3957C9.88197 43.2819 9.78042 43.1781 9.66883 43.0844C9.55724 42.9906 9.43784 42.9092 9.30951 42.8389C9.18119 42.7686 9.04839 42.7117 8.90891 42.6681C8.76942 42.6235 8.6277 42.5945 8.48264 42.5789C8.33757 42.5621 8.1925 42.561 8.04744 42.5744C7.90237 42.5867 7.75954 42.6146 7.62005 42.6547L1.8241 44.3543C1.68461 44.3955 1.54959 44.4502 1.42126 44.5183C1.29182 44.5852 1.17019 44.6656 1.05636 44.7571C0.943659 44.8486 0.839881 44.9501 0.746146 45.0617C0.652411 45.1744 0.570951 45.2938 0.500649 45.4222C0.430348 45.5505 0.373437 45.6833 0.328802 45.8228C0.285282 45.9623 0.255152 46.1051 0.23953 46.2502C0.223907 46.3952 0.221676 46.5403 0.233951 46.6854C0.246226 46.8315 0.273007 46.9744 0.313179 47.115L6.51978 68.3783C6.55995 68.5178 6.61463 68.6528 6.68158 68.7834C6.74854 68.9128 6.82777 69.0345 6.91927 69.1483C7.01077 69.2621 7.11232 69.3659 7.22391 69.4607C7.3355 69.5545 7.45601 69.6359 7.58323 69.7074C7.71155 69.7777 7.84435 69.8346 7.98383 69.8781C8.12332 69.9227 8.26504 69.9517 8.4101 69.9685C8.55517 69.9841 8.70024 69.9852 8.8453 69.9729C8.99037 69.9607 9.1332 69.9339 9.27269 69.8926L15.0787 68.192C15.2171 68.1507 15.3521 68.096 15.4804 68.0279C15.6087 67.9599 15.7304 67.8806 15.8431 67.788C15.9569 67.6965 16.0596 67.595 16.1522 67.4834C16.2459 67.3718 16.3274 67.2513 16.3966 67.1229C16.4669 66.9957 16.5238 66.8618 16.5673 66.7223C16.6108 66.584 16.6398 66.4411 16.6554 66.2972C16.6711 66.1521 16.6722 66.007 16.6599 65.862C16.6476 65.7158 16.6208 65.5741 16.5796 65.4335L16.1209 63.8634L18.3561 63.2765L28.5776 67.0236C30.112 67.5849 31.7088 68.0949 33.3403 68.0949C34.4696 68.1027 35.5352 67.8483 36.5396 67.3327L59.2926 55.6795C59.2993 55.675 59.3071 55.6716 59.3149 55.6672C59.518 55.5567 59.7312 55.4474 59.9577 55.3313C61.6884 54.4453 64.3041 53.1073 63.2552 49.5153C62.5678 47.1618 60.2846 45.7525 58.1656 46.3718ZM14.6636 66.1733C14.6312 66.2325 14.5843 66.2715 14.5207 66.2916L8.72144 67.9911C8.65672 68.009 8.59534 68.0012 8.5362 67.9688C8.47706 67.9364 8.438 67.8885 8.41791 67.8248L2.21243 46.5615C2.19346 46.4957 2.20127 46.4332 2.23475 46.374C2.26488 46.316 2.31286 46.2769 2.37535 46.2569H2.37758L8.178 44.5551C8.1992 44.5495 8.22152 44.5462 8.24384 44.5462C8.28512 44.5462 8.32418 44.5562 8.361 44.5763C8.41903 44.6087 8.45809 44.6555 8.47706 44.7192L14.6837 65.9925C14.7026 66.0562 14.6959 66.1164 14.6636 66.1733ZM59.0605 53.5671C58.8362 53.682 58.6052 53.8003 58.3832 53.9219L35.6424 65.5685C33.79 66.5137 31.9688 66.1555 29.2572 65.1623L18.7455 61.3091C18.5513 61.2377 18.3549 61.2277 18.1552 61.2801L15.5674 61.9608L11.2713 47.2411L18.6931 44.833C21.1402 44.0407 22.8911 44.0541 24.7345 44.8787L36.6221 50.2038C37.8318 50.7439 38.6787 52.2816 38.6832 53.9431C38.6832 53.9476 38.6832 53.9509 38.6832 53.9554C38.6832 53.9599 38.6832 53.9654 38.6832 53.9699C38.6821 54.4486 38.5984 54.9128 38.4299 55.3614C37.6487 57.4281 35.6301 57.5017 34.137 56.9393L26.135 53.9297C26.0122 53.884 25.885 53.8628 25.7544 53.8672C25.6239 53.8717 25.4978 53.9018 25.3784 53.9554C25.2601 54.0101 25.1552 54.0848 25.0659 54.1808C24.9767 54.2768 24.9086 54.3861 24.8628 54.51C24.816 54.6327 24.7959 54.76 24.8003 54.8905C24.8048 55.0222 24.8338 55.1472 24.8874 55.2677C24.9421 55.3871 25.0168 55.4909 25.1128 55.5813C25.2088 55.6705 25.3181 55.7386 25.4409 55.7844L33.4418 58.7939C34.1727 59.0774 34.9304 59.2235 35.7138 59.2302C37.7771 59.2302 39.5134 58.0887 40.2789 56.0667C40.4508 55.6114 40.5635 55.1416 40.6181 54.6573L58.7425 48.2677C59.7925 47.9764 60.9865 48.7977 61.3593 50.0721C61.9217 51.9992 60.9575 52.5951 59.0605 53.5671ZM37.3899 18.9074C34.83 19.2969 32.5313 20.5243 30.6644 22.5151C28.5899 24.7279 27.1649 27.8134 26.655 31.2001L26.1138 34.7844C26.0479 35.1838 26.0267 35.5844 26.0501 35.9884C26.0736 36.3924 26.1405 36.7874 26.2532 37.1768C26.3648 37.5652 26.5177 37.9367 26.7119 38.2905C26.906 38.6453 27.1359 38.9734 27.4037 39.2758C29.9736 42.2709 39.3427 42.5041 42.167 42.5041H42.1748C44.2493 42.5041 54.732 42.3468 57.3677 39.2769C57.6344 38.9745 57.8654 38.6465 58.0596 38.2916C58.2537 37.9379 58.4077 37.5663 58.5193 37.1768C58.6309 36.7885 58.6978 36.3924 58.7213 35.9895C58.7458 35.5856 58.7246 35.1838 58.6588 34.7855L58.1176 31.2012C57.6065 27.8134 56.1826 24.7279 54.1071 22.5151C52.2413 20.5243 49.9414 19.2969 47.3816 18.9074C47.8279 18.5369 48.2352 18.1263 48.6035 17.6777C50.3733 15.524 51.3084 12.4899 51.3084 8.9012C51.3084 8.60883 51.2939 8.31647 51.2649 8.02522C51.237 7.73397 51.1935 7.44496 51.1366 7.15706C51.0796 6.87027 51.0082 6.58683 50.9234 6.30675C50.8386 6.02666 50.7404 5.75103 50.6277 5.48098C50.5161 5.20982 50.3911 4.94536 50.2539 4.68758C50.1155 4.42981 49.966 4.17874 49.8031 3.93547C49.6413 3.69221 49.4672 3.45675 49.2819 3.23023C49.0967 3.00482 48.9003 2.78833 48.6939 2.58078C48.4874 2.37434 48.2709 2.17794 48.0455 1.99159C47.819 1.80635 47.5847 1.63227 47.3414 1.46935C47.0993 1.30643 46.8482 1.15578 46.5904 1.01853C46.3337 0.880155 46.0693 0.755175 45.7992 0.643586C45.5292 0.53088 45.2547 0.432682 44.9757 0.347874C44.6956 0.263066 44.4122 0.191649 44.1265 0.134738C43.8397 0.0778276 43.5507 0.0343077 43.2606 0.00641048C42.9693 -0.0226029 42.6781 -0.0371094 42.3857 -0.0371094C42.0933 -0.0371094 41.8021 -0.0226029 41.512 0.00641048C41.2207 0.0343077 40.9328 0.0778276 40.646 0.134738C40.3593 0.191649 40.0758 0.263066 39.7968 0.347874C39.5168 0.432682 39.2422 0.53088 38.9722 0.643586C38.7022 0.755175 38.4388 0.880155 38.181 1.01853C37.9233 1.15578 37.6733 1.30643 37.43 1.46935C37.1868 1.63227 36.9524 1.80635 36.727 1.99159C36.5016 2.17794 36.2851 2.37434 36.0787 2.58078C35.8711 2.78833 35.6758 3.00482 35.4906 3.23023C35.3054 3.45675 35.1313 3.69221 34.9684 3.93547C34.8066 4.17874 34.6559 4.42981 34.5187 4.68758C34.3803 4.94536 34.2553 5.20982 34.1437 5.48098C34.0321 5.75103 33.9339 6.02666 33.8491 6.30675C33.7632 6.58683 33.6929 6.87027 33.636 7.15706C33.578 7.44496 33.5356 7.73397 33.5065 8.02522C33.4775 8.31647 33.463 8.60883 33.463 8.9012C33.463 12.4899 34.3981 15.524 36.168 17.6777C36.5362 18.1263 36.9435 18.5369 37.3899 18.9085V18.9074ZM56.1625 31.498L56.7037 35.0823C56.7484 35.3401 56.7629 35.6001 56.7484 35.8612C56.7339 36.1212 56.6904 36.3778 56.6189 36.6289C56.5464 36.88 56.4471 37.1199 56.321 37.3487C56.1938 37.5774 56.0443 37.7895 55.8702 37.9836L55.8691 37.9847C54.7878 39.2457 49.7361 40.5223 42.1737 40.5234H42.1648C35.6379 40.5234 30.1845 39.48 28.9013 37.9836C28.7272 37.7895 28.5765 37.5774 28.4504 37.3487C28.3232 37.1199 28.2239 36.88 28.1525 36.6289C28.08 36.3778 28.0364 36.1212 28.0219 35.8601C28.0074 35.599 28.0219 35.3401 28.0666 35.0823L28.6089 31.498C29.4146 26.1507 33.001 20.7553 39.1943 20.7553H45.5772C51.7704 20.7542 55.3557 26.1507 56.1625 31.498ZM42.3857 1.94025C42.6122 1.94025 42.8399 1.95141 43.0664 1.97485C43.2918 1.99716 43.5172 2.03064 43.7393 2.07528C43.9625 2.11991 44.1834 2.17571 44.401 2.24155C44.6186 2.3085 44.8318 2.38438 45.0427 2.47254C45.2524 2.55957 45.4578 2.65666 45.6575 2.7649C45.8584 2.87203 46.0537 2.98919 46.2422 3.11529C46.4319 3.2425 46.6138 3.37864 46.7901 3.52259C46.9653 3.66766 47.1338 3.82053 47.2945 3.98122C47.4552 4.14303 47.6081 4.31153 47.752 4.48784C47.896 4.66415 48.0321 4.84604 48.1582 5.03574C48.2843 5.22544 48.4015 5.42073 48.5086 5.62159C48.6157 5.82245 48.7128 6.02777 48.801 6.23868C48.888 6.44958 48.9639 6.66383 49.0309 6.88143C49.0967 7.10015 49.1525 7.32109 49.1971 7.54427C49.2418 7.76745 49.2752 7.99286 49.2976 8.21939C49.3199 8.44591 49.331 8.67356 49.331 8.9012C49.331 15.6836 45.7312 18.7735 42.3857 18.7735C39.0403 18.7735 35.4393 15.6847 35.4393 8.9012C35.4393 8.67356 35.4516 8.44591 35.4739 8.21939C35.4962 7.99286 35.5297 7.76745 35.5743 7.54427C35.6189 7.32109 35.6736 7.10015 35.7406 6.88143C35.8064 6.66383 35.8834 6.44958 35.9704 6.23868C36.0575 6.02889 36.1546 5.82245 36.2617 5.62159C36.3688 5.42073 36.486 5.22544 36.6121 5.03574C36.7393 4.84604 36.8743 4.66415 37.0183 4.48784C37.1633 4.31153 37.3151 4.14303 37.4758 3.98122C37.6376 3.82053 37.805 3.66766 37.9813 3.52259C38.1565 3.37864 38.3395 3.2425 38.5281 3.11641C38.7178 2.98919 38.9119 2.87203 39.1128 2.7649C39.3137 2.65666 39.519 2.55957 39.7288 2.47254C39.9386 2.3855 40.1528 2.3085 40.3704 2.24155C40.588 2.17571 40.8078 2.11991 41.031 2.07528C41.2542 2.03064 41.4785 1.99716 41.705 1.97485C41.9315 1.95141 42.1581 1.94025 42.3857 1.94025ZM6.97172 47.6897C7.00519 47.818 7.013 47.9474 6.99403 48.078C6.97618 48.2085 6.93378 48.3313 6.86571 48.4451C6.79875 48.5589 6.71171 48.656 6.60682 48.7341C6.50081 48.8134 6.38364 48.8692 6.25531 48.9015C6.12699 48.9339 5.99754 48.9395 5.8681 48.9194C5.73754 48.9004 5.61591 48.8558 5.50208 48.7866C5.38938 48.7185 5.29453 48.6304 5.21642 48.5232C5.13942 48.4161 5.08474 48.2989 5.05461 48.1695L5.05015 48.1539C5.0189 48.0267 5.01221 47.8972 5.03118 47.7678C5.05015 47.6372 5.09367 47.5167 5.16174 47.404C5.22869 47.2913 5.31573 47.1953 5.42062 47.1172C5.52552 47.0391 5.64269 46.9833 5.7699 46.9521C5.89711 46.9197 6.02544 46.9141 6.15488 46.9331C6.28433 46.9521 6.40596 46.9956 6.51755 47.0636C6.63025 47.1317 6.7251 47.2176 6.80322 47.3236C6.88133 47.4297 6.93601 47.5457 6.96837 47.674L6.97172 47.6897ZM56.0956 11.0136V19.5836C56.0967 19.7131 56.1235 19.8381 56.1737 19.9586C56.225 20.078 56.2964 20.184 56.3891 20.2755C56.4817 20.367 56.5877 20.4384 56.7082 20.4875C56.8287 20.5366 56.9537 20.5623 57.0831 20.5623C57.2137 20.5623 57.3387 20.5366 57.4592 20.4875C57.5797 20.4384 57.6857 20.367 57.7784 20.2755C57.871 20.184 57.9424 20.078 57.9926 19.9586C58.0439 19.8381 58.0707 19.7131 58.0718 19.5836V11.0136C58.2281 10.9623 58.3787 10.8986 58.5238 10.8239C58.67 10.748 58.8094 10.6621 58.9411 10.565C59.0739 10.4679 59.1978 10.3608 59.3138 10.2436C59.4288 10.1276 59.5348 10.0026 59.6307 9.86868C59.7278 9.73589 59.8126 9.5964 59.8863 9.4491C59.961 9.30292 60.0235 9.15116 60.0737 8.99493C60.124 8.83759 60.1619 8.67914 60.1876 8.51622C60.2132 8.35329 60.2266 8.19037 60.2266 8.02634C60.2266 7.86119 60.2132 7.69827 60.1876 7.53534C60.1619 7.37354 60.124 7.21397 60.0737 7.05663C60.0235 6.9004 59.961 6.74864 59.8863 6.60246C59.8126 6.45628 59.7278 6.31567 59.6307 6.18288C59.5348 6.04897 59.4288 5.92399 59.3138 5.80794C59.1978 5.69077 59.0739 5.58365 58.9411 5.48656C58.8094 5.38948 58.67 5.30356 58.5238 5.22768C58.3787 5.15291 58.2281 5.08931 58.0718 5.03797V3.32396C58.0707 3.19452 58.0439 3.06954 57.9926 2.94902C57.9424 2.82962 57.871 2.72361 57.7784 2.63211C57.6857 2.54061 57.5797 2.46919 57.4592 2.42009C57.3387 2.37099 57.2137 2.34532 57.0831 2.34532C56.9537 2.34532 56.8287 2.37099 56.7082 2.42009C56.5877 2.46919 56.4817 2.54061 56.3891 2.63211C56.2964 2.72361 56.225 2.82962 56.1737 2.94902C56.1235 3.06954 56.0967 3.19452 56.0956 3.32396V5.03797C55.9394 5.08931 55.7887 5.15291 55.6425 5.22879C55.4975 5.30356 55.358 5.3906 55.2252 5.48768C55.0935 5.58476 54.9685 5.69077 54.8536 5.80794C54.7375 5.92511 54.6315 6.05009 54.5356 6.18288C54.4396 6.31567 54.3548 6.45628 54.28 6.60246C54.2064 6.74976 54.1439 6.90152 54.0937 7.05774C54.0423 7.21397 54.0044 7.37354 53.9787 7.53534C53.9531 7.69827 53.9408 7.86119 53.9408 8.02634C53.9408 8.19037 53.9531 8.35441 53.9787 8.51622C54.0044 8.67914 54.0423 8.83871 54.0937 8.99493C54.1439 9.15116 54.2064 9.30292 54.28 9.4491C54.3548 9.5964 54.4396 9.73589 54.5356 9.86979C54.6315 10.0026 54.7375 10.1276 54.8536 10.2447C54.9685 10.3608 55.0935 10.4679 55.2252 10.565C55.358 10.6621 55.4975 10.748 55.6425 10.8239C55.7887 10.8986 55.9394 10.9623 56.0956 11.0136ZM57.0831 6.858C57.1601 6.858 57.236 6.86581 57.3108 6.88031C57.3856 6.89594 57.4581 6.91826 57.5295 6.94727C57.5998 6.97628 57.6668 7.01199 57.7304 7.05551C57.794 7.09791 57.8531 7.1459 57.9067 7.20058C57.9614 7.25414 58.0093 7.31328 58.0517 7.37689C58.0942 7.44049 58.1299 7.50856 58.16 7.57886C58.189 7.65028 58.2113 7.72282 58.2258 7.79758C58.2414 7.87346 58.2481 7.94934 58.2481 8.02634C58.2481 8.10222 58.2414 8.1781 58.2258 8.25398C58.2113 8.32874 58.189 8.40128 58.16 8.4727C58.131 8.543 58.0942 8.61107 58.0517 8.67467C58.0093 8.73828 57.9614 8.79742 57.9078 8.85098C57.8531 8.90566 57.794 8.95365 57.7304 8.99716C57.6668 9.03957 57.5998 9.07528 57.5295 9.10429C57.4592 9.13442 57.3856 9.15562 57.3108 9.17124C57.236 9.18575 57.1601 9.19356 57.0831 9.19356C57.0073 9.19356 56.9314 9.18575 56.8566 9.17124C56.7819 9.15562 56.7082 9.13442 56.6379 9.10429C56.5676 9.07528 56.4995 9.03957 56.4359 8.99716C56.3723 8.95365 56.3143 8.90566 56.2596 8.85098C56.2061 8.79742 56.1581 8.73828 56.1146 8.67467C56.0722 8.61107 56.0364 8.543 56.0074 8.4727C55.9784 8.40239 55.9561 8.32874 55.9416 8.25398C55.926 8.1781 55.9193 8.10222 55.9193 8.02634C55.9193 7.94934 55.926 7.87346 55.9416 7.7987C55.9561 7.72281 55.9784 7.65028 56.0074 7.57998C56.0376 7.50856 56.0733 7.44161 56.1157 7.378C56.1581 7.3144 56.2061 7.25526 56.2607 7.20058C56.3143 7.14701 56.3734 7.09903 56.437 7.05551C56.5007 7.01311 56.5676 6.9774 56.6379 6.94838C56.7082 6.91826 56.7819 6.89594 56.8566 6.88143C56.9314 6.86692 57.0073 6.85911 57.0831 6.85911V6.858ZM14.4649 26.2277C14.6513 26.2277 14.8354 26.2466 15.0184 26.2835C15.2014 26.3192 15.3789 26.3739 15.5518 26.4453C15.7237 26.5167 15.8866 26.6049 16.0417 26.7086C16.1968 26.8124 16.3408 26.9307 16.4724 27.0624C16.6041 27.1952 16.7224 27.338 16.8251 27.4942C16.9288 27.6493 17.017 27.8134 17.0884 27.9863C17.1598 28.1582 17.2134 28.3367 17.2502 28.5197C17.287 28.7027 17.3049 28.888 17.3049 29.0754C17.3049 29.206 17.3306 29.3321 17.3808 29.4537C17.431 29.5754 17.5024 29.6825 17.595 29.7751C17.6876 29.8677 17.7948 29.9403 17.9153 29.9905C18.0369 30.0407 18.163 30.0652 18.2936 30.0652C18.4241 30.0652 18.5502 30.0407 18.6719 29.9905C18.7924 29.9403 18.8995 29.8677 18.9921 29.7751C19.0847 29.6825 19.1562 29.5754 19.2064 29.4537C19.2566 29.3321 19.2823 29.206 19.2823 29.0754C19.2823 28.888 19.3001 28.7027 19.3369 28.5197C19.3738 28.3367 19.4273 28.1582 19.4987 27.9863C19.5702 27.8134 19.6583 27.6493 19.7621 27.4942C19.8647 27.338 19.983 27.1952 20.1147 27.0624C20.2464 26.9307 20.3903 26.8124 20.5454 26.7086C20.7006 26.6049 20.8635 26.5167 21.0353 26.4453C21.2083 26.3739 21.3857 26.3192 21.5687 26.2835C21.7517 26.2466 21.9359 26.2277 22.1222 26.2277C22.255 26.2288 22.3822 26.2054 22.5038 26.1563C22.6266 26.106 22.7348 26.0346 22.8286 25.942C22.9223 25.8483 22.9948 25.7411 23.0462 25.6195C23.0975 25.4968 23.122 25.3696 23.122 25.2368C23.122 25.1051 23.0975 24.9779 23.0462 24.8551C22.9948 24.7335 22.9223 24.6253 22.8286 24.5326C22.7348 24.44 22.6266 24.3686 22.5038 24.3184C22.3822 24.2693 22.255 24.2447 22.1222 24.247C21.9359 24.247 21.7517 24.228 21.5687 24.1912C21.3857 24.1543 21.2083 24.1008 21.0364 24.0294C20.8635 23.958 20.7006 23.8698 20.5454 23.766C20.3903 23.6622 20.2464 23.544 20.1147 23.4123C19.983 23.2795 19.8647 23.1355 19.7621 22.9804C19.6583 22.8253 19.5702 22.6613 19.4987 22.4883C19.4273 22.3165 19.3738 22.1379 19.3369 21.9549C19.3001 21.7719 19.2823 21.5867 19.2823 21.3992C19.2823 21.2686 19.2566 21.1414 19.2064 21.0209C19.1562 20.8993 19.0847 20.7922 18.9921 20.6995C18.8995 20.6069 18.7924 20.5344 18.6719 20.4842C18.5502 20.434 18.4241 20.4094 18.2936 20.4094C18.163 20.4094 18.0369 20.434 17.9153 20.4842C17.7948 20.5344 17.6876 20.6058 17.595 20.6995C17.5024 20.7922 17.431 20.8993 17.3808 21.0209C17.3306 21.1414 17.3049 21.2686 17.3049 21.3992C17.3049 21.5867 17.287 21.7719 17.2502 21.9549C17.2134 22.1379 17.1598 22.3165 17.0884 22.4883C17.017 22.6613 16.9288 22.8253 16.8251 22.9804C16.7224 23.1355 16.6041 23.2795 16.4724 23.4123C16.3408 23.544 16.1968 23.6622 16.0417 23.766C15.8866 23.8698 15.7237 23.958 15.5518 24.0294C15.3789 24.1008 15.2014 24.1543 15.0184 24.1912C14.8354 24.228 14.6513 24.247 14.4649 24.247C14.3322 24.2447 14.2049 24.2693 14.0833 24.3184C13.9606 24.3686 13.8523 24.44 13.7586 24.5326C13.6648 24.6253 13.5923 24.7335 13.541 24.8551C13.4897 24.9779 13.4651 25.1051 13.4651 25.2368C13.4651 25.3696 13.4897 25.4968 13.541 25.6195C13.5923 25.7411 13.6648 25.8483 13.7586 25.942C13.8523 26.0346 13.9606 26.106 14.0833 26.1563C14.2049 26.2054 14.3322 26.2288 14.4649 26.2277ZM18.2936 24.3262C18.5558 24.671 18.8593 24.9745 19.2019 25.2368C18.8593 25.5001 18.5558 25.8036 18.2936 26.1484C18.0313 25.8036 17.7278 25.5001 17.3852 25.2368C17.7278 24.9745 18.0313 24.671 18.2936 24.3262ZM70.485 6.19962V3.32396C70.485 3.1934 70.4594 3.06619 70.4091 2.94567C70.3589 2.82404 70.2875 2.71692 70.1949 2.6243C70.1023 2.53168 69.9952 2.45914 69.8746 2.40893C69.753 2.35871 69.6269 2.33416 69.4964 2.33416C69.3647 2.33416 69.2397 2.35871 69.1181 2.40893C68.9964 2.45914 68.8904 2.53168 68.7978 2.6243C68.7052 2.71692 68.6338 2.82404 68.5835 2.94567C68.5333 3.06619 68.5077 3.1934 68.5077 3.32396V6.19962C68.3526 6.25095 68.2019 6.31456 68.0557 6.39044C67.9095 6.4652 67.7701 6.55113 67.6384 6.64821C67.5056 6.74529 67.3817 6.85242 67.2657 6.96959C67.1507 7.08564 67.0447 7.21062 66.9488 7.34453C66.8528 7.47732 66.7669 7.61792 66.6932 7.7641C66.6185 7.91028 66.556 8.06205 66.5058 8.21939C66.4555 8.37561 66.4176 8.53518 66.3919 8.69699C66.3663 8.85991 66.354 9.02283 66.354 9.18798C66.354 9.35202 66.3663 9.51494 66.3919 9.67786C66.4176 9.84078 66.4555 9.99924 66.5058 10.1566C66.556 10.3128 66.6185 10.4646 66.6932 10.6107C66.7669 10.758 66.8528 10.8975 66.9488 11.0303C67.0447 11.1642 67.1507 11.2892 67.2657 11.4053C67.3817 11.5224 67.5056 11.6296 67.6384 11.7266C67.7701 11.8237 67.9095 11.9096 68.0557 11.9855C68.2019 12.0603 68.3526 12.1239 68.5077 12.1752V19.5836C68.5077 19.7142 68.5333 19.8414 68.5835 19.9619C68.6338 20.0836 68.7052 20.1907 68.7978 20.2833C68.8904 20.377 68.9964 20.4485 69.1181 20.4987C69.2397 20.5489 69.3647 20.5734 69.4964 20.5734C69.6269 20.5734 69.753 20.5489 69.8746 20.4987C69.9952 20.4485 70.1023 20.377 70.1949 20.2833C70.2875 20.1907 70.3589 20.0836 70.4091 19.9619C70.4594 19.8414 70.485 19.7142 70.485 19.5836V12.1752C70.6401 12.1239 70.7908 12.0603 70.937 11.9855C71.0832 11.9096 71.2215 11.8237 71.3543 11.7266C71.4871 11.6296 71.611 11.5224 71.7259 11.4053C71.842 11.2892 71.948 11.1642 72.0439 11.0303C72.1399 10.8975 72.2247 10.7569 72.2995 10.6107C72.3731 10.4646 72.4356 10.3128 72.4869 10.1566C72.5372 9.99924 72.5751 9.83966 72.6008 9.67786C72.6264 9.51494 72.6387 9.35202 72.6387 9.18798C72.6387 9.02283 72.6264 8.85991 72.6008 8.69699C72.5751 8.53518 72.5372 8.37561 72.4869 8.21939C72.4356 8.06205 72.3731 7.91028 72.2995 7.7641C72.2247 7.61792 72.1399 7.47732 72.0439 7.34453C71.948 7.21062 71.842 7.08564 71.7259 6.96959C71.611 6.85242 71.4871 6.74529 71.3543 6.64821C71.2215 6.55113 71.0832 6.4652 70.937 6.39044C70.7908 6.31456 70.6401 6.25095 70.485 6.19962ZM69.4964 10.3552C69.4194 10.3552 69.3446 10.3474 69.2687 10.3329C69.1939 10.3173 69.1214 10.2949 69.05 10.2659C68.9797 10.2369 68.9127 10.2012 68.8491 10.1588C68.7855 10.1153 68.7264 10.0673 68.6728 10.0126C68.6181 9.95907 68.5702 9.89992 68.5278 9.83632C68.4854 9.77271 68.4496 9.70464 68.4195 9.63434C68.3905 9.56404 68.3682 9.49039 68.3537 9.41563C68.3392 9.33974 68.3314 9.26386 68.3314 9.18798C68.3314 9.11099 68.3392 9.03511 68.3537 8.95922C68.3682 8.88446 68.3905 8.81193 68.4195 8.74051C68.4496 8.67021 68.4854 8.60214 68.5278 8.53853C68.5702 8.47493 68.6181 8.41578 68.6728 8.36222C68.7264 8.30754 68.7855 8.25956 68.8491 8.21716C68.9127 8.17364 68.9797 8.13793 69.05 8.10891C69.1214 8.0799 69.1939 8.05758 69.2687 8.04196C69.3435 8.02745 69.4194 8.01964 69.4964 8.01964C69.5722 8.01964 69.6481 8.02745 69.724 8.04196C69.7988 8.05758 69.8713 8.0799 69.9416 8.10891C70.013 8.13793 70.08 8.17364 70.1436 8.21716C70.2072 8.25956 70.2663 8.30754 70.3199 8.36222C70.3734 8.41578 70.4225 8.47493 70.4649 8.53853C70.5073 8.60214 70.5431 8.67021 70.5721 8.74051C70.6011 8.81193 70.6234 8.88446 70.639 8.96034C70.6535 9.03511 70.6613 9.11099 70.6613 9.18798C70.6613 9.26386 70.6535 9.33974 70.6379 9.41563C70.6234 9.49039 70.6011 9.56292 70.5721 9.63434C70.5431 9.70464 70.5062 9.7716 70.4638 9.83632C70.4214 9.89992 70.3734 9.95795 70.3199 10.0126C70.2652 10.0673 70.2061 10.1153 70.1425 10.1577C70.08 10.2001 70.0119 10.2358 69.9416 10.2659C69.8713 10.2949 69.7988 10.3173 69.7229 10.3318C69.6481 10.3474 69.5722 10.3552 69.4964 10.3552ZM21.2083 16.1579C21.4538 16.1579 21.6982 16.1824 21.9392 16.2304C22.1802 16.2784 22.4146 16.3498 22.6411 16.4446C22.8687 16.5395 23.0841 16.6544 23.2894 16.7917C23.4936 16.9289 23.6822 17.084 23.8563 17.2581C24.0304 17.4333 24.1855 17.623 24.3227 17.8272C24.4589 18.0326 24.5749 18.249 24.6687 18.4767C24.7624 18.7043 24.8338 18.9387 24.8818 19.1808C24.9309 19.4218 24.9543 19.6662 24.9555 19.9128C24.9532 20.0456 24.9778 20.1728 25.0269 20.2956C25.076 20.4183 25.1474 20.5266 25.24 20.6214C25.3326 20.7152 25.4409 20.7877 25.5625 20.839C25.6841 20.8892 25.8113 20.9149 25.943 20.9149C26.0758 20.9149 26.2019 20.8892 26.3247 20.839C26.4463 20.7877 26.5534 20.7152 26.646 20.6214C26.7387 20.5266 26.8101 20.4183 26.8592 20.2956C26.9094 20.1728 26.9328 20.0456 26.9317 19.9128C26.9317 19.6662 26.9563 19.4218 27.0042 19.1797C27.0533 18.9387 27.1248 18.7032 27.2185 18.4756C27.3133 18.2479 27.4294 18.0314 27.5655 17.8272C27.7028 17.6219 27.8579 17.4322 28.032 17.2581C28.2061 17.084 28.3958 16.9278 28.6 16.7906C28.8053 16.6544 29.0207 16.5384 29.2483 16.4435C29.4759 16.3498 29.7103 16.2784 29.9513 16.2304C30.1923 16.1813 30.4367 16.1579 30.6822 16.1579C30.8128 16.1556 30.9366 16.13 31.0572 16.0786C31.1766 16.0273 31.2826 15.9559 31.373 15.8633C31.4645 15.7706 31.5348 15.6635 31.585 15.543C31.6341 15.4225 31.6586 15.2975 31.6586 15.1669C31.6586 15.0364 31.6341 14.9114 31.585 14.7909C31.5348 14.6704 31.4645 14.5632 31.373 14.4706C31.2826 14.378 31.1766 14.3066 31.0572 14.2553C30.9366 14.2039 30.8128 14.1783 30.6822 14.176C30.4356 14.176 30.1923 14.1515 29.9513 14.1035C29.7092 14.0555 29.4748 13.9841 29.2472 13.8892C29.0207 13.7944 28.8042 13.6783 28.6 13.5411C28.3946 13.4049 28.2049 13.2487 28.0309 13.0746C27.8568 12.8994 27.7017 12.7097 27.5644 12.5044C27.4283 12.2991 27.3122 12.0826 27.2185 11.855C27.1236 11.6273 27.0522 11.3919 27.0042 11.1508C26.9563 10.9087 26.9317 10.6643 26.9317 10.4177C26.9328 10.2849 26.9094 10.1577 26.8592 10.0349C26.8101 9.9122 26.7387 9.80284 26.646 9.70911C26.5534 9.61537 26.4463 9.54284 26.3247 9.49151C26.2019 9.44018 26.0758 9.41451 25.943 9.41451C25.8113 9.41451 25.6841 9.44018 25.5625 9.49151C25.4409 9.54284 25.3326 9.61537 25.24 9.70911C25.1474 9.80284 25.076 9.9122 25.0269 10.0349C24.9778 10.1577 24.9532 10.2849 24.9555 10.4177C24.9543 10.6643 24.9309 10.9076 24.8829 11.1497C24.8349 11.3919 24.7635 11.6262 24.6698 11.855C24.5749 12.0826 24.46 12.2991 24.3227 12.5044C24.1866 12.7086 24.0315 12.8983 23.8574 13.0735C23.6833 13.2476 23.4936 13.4038 23.2894 13.5411C23.0852 13.6783 22.8699 13.7944 22.6422 13.8881C22.4146 13.983 22.1802 14.0544 21.9392 14.1035C21.6982 14.1515 21.4549 14.176 21.2083 14.176C21.0766 14.1749 20.9494 14.1983 20.8267 14.2486C20.7039 14.2977 20.5957 14.3691 20.5019 14.4628C20.4082 14.5554 20.3357 14.6626 20.2843 14.7853C20.2341 14.9069 20.2084 15.0341 20.2084 15.1669C20.2084 15.2997 20.2341 15.4269 20.2843 15.5486C20.3357 15.6713 20.4082 15.7785 20.5019 15.8711C20.5957 15.9648 20.7039 16.0362 20.8267 16.0853C20.9494 16.1355 21.0766 16.159 21.2083 16.1579ZM25.9441 13.6382C26.3548 14.2452 26.8636 14.7541 27.4685 15.1669C26.8636 15.5798 26.3559 16.0887 25.9441 16.6946C25.5324 16.0887 25.0246 15.5798 24.4198 15.1669C25.0246 14.7541 25.5324 14.2452 25.9441 13.6382ZM64.2784 12.0224V3.32396C64.2784 3.1934 64.2539 3.06731 64.2026 2.94567C64.1523 2.82516 64.0809 2.71803 63.9883 2.62541C63.8957 2.53279 63.7897 2.46138 63.668 2.41116C63.5475 2.36095 63.4214 2.33528 63.2909 2.33528C63.1592 2.33528 63.0342 2.36095 62.9126 2.41116C62.7921 2.46138 62.6849 2.53279 62.5923 2.62541C62.4997 2.71803 62.4283 2.82516 62.3781 2.94567C62.3279 3.06731 62.3022 3.1934 62.3022 3.32396V12.0224C62.146 12.0748 61.9953 12.1384 61.8502 12.2132C61.7041 12.2891 61.5657 12.375 61.4329 12.4732C61.3001 12.5703 61.1762 12.6774 61.0613 12.7934C60.9453 12.9106 60.8392 13.0356 60.7433 13.1684C60.6473 13.3023 60.5625 13.4418 60.4889 13.5891C60.4141 13.7352 60.3516 13.887 60.3014 14.0432C60.2512 14.2006 60.2132 14.3602 60.1876 14.522C60.1619 14.6849 60.1496 14.8478 60.1496 15.0129C60.1496 15.177 60.1619 15.3399 60.1876 15.5028C60.2132 15.6657 60.2512 15.8242 60.3014 15.9815C60.3516 16.1378 60.4141 16.2895 60.4889 16.4357C60.5625 16.583 60.6473 16.7225 60.7433 16.8564C60.8392 16.9892 60.9453 17.1142 61.0613 17.2313C61.1762 17.3474 61.3001 17.4545 61.4329 17.5527C61.5657 17.6498 61.7041 17.7357 61.8502 17.8116C61.9953 17.8864 62.146 17.95 62.3022 18.0024V19.5836C62.3022 19.7142 62.3279 19.8403 62.3781 19.9619C62.4283 20.0825 62.4997 20.1896 62.5923 20.2822C62.6849 20.3748 62.7921 20.4462 62.9126 20.4964C63.0342 20.5467 63.1592 20.5723 63.2909 20.5723C63.4214 20.5723 63.5475 20.5467 63.668 20.4964C63.7897 20.4462 63.8957 20.3748 63.9883 20.2822C64.0809 20.1896 64.1523 20.0825 64.2026 19.9619C64.2539 19.8403 64.2784 19.7142 64.2784 19.5836V18.0024C64.4347 17.9511 64.5853 17.8875 64.7315 17.8116C64.8765 17.7357 65.016 17.6498 65.1477 17.5527C65.2805 17.4545 65.4044 17.3485 65.5204 17.2313C65.6354 17.1142 65.7414 16.9892 65.8373 16.8564C65.9333 16.7225 66.0181 16.583 66.0929 16.4357C66.1665 16.2895 66.229 16.1378 66.2792 15.9815C66.3294 15.8253 66.3674 15.6657 66.3931 15.5028C66.4187 15.3399 66.4321 15.177 66.4321 15.0129C66.4321 14.8478 66.4187 14.6849 66.3931 14.522C66.3674 14.3602 66.3294 14.2006 66.2792 14.0444C66.229 13.887 66.1665 13.7352 66.0929 13.5891C66.0181 13.4429 65.9333 13.3023 65.8373 13.1695C65.7414 13.0356 65.6354 12.9106 65.5204 12.7934C65.4044 12.6774 65.2805 12.5703 65.1477 12.4732C65.016 12.375 64.8765 12.2891 64.7315 12.2132C64.5853 12.1384 64.4347 12.0748 64.2784 12.0224ZM63.2909 16.1813C63.2139 16.1813 63.138 16.1746 63.0632 16.1601C62.9873 16.1445 62.9148 16.1221 62.8434 16.0931C62.7731 16.0641 62.705 16.0284 62.6414 15.986C62.5778 15.9425 62.5187 15.8945 62.464 15.8398C62.4104 15.7863 62.3613 15.7271 62.3189 15.6635C62.2765 15.5988 62.2408 15.5318 62.2107 15.4604C62.1817 15.3901 62.1594 15.3165 62.1437 15.2417C62.1292 15.1658 62.1214 15.0899 62.1214 15.0129C62.1214 14.936 62.1292 14.8601 62.1437 14.7842C62.1594 14.7094 62.1806 14.6358 62.2107 14.5655C62.2397 14.4941 62.2754 14.4271 62.3178 14.3624C62.3602 14.2988 62.4093 14.2396 62.4629 14.185C62.5176 14.1314 62.5767 14.0823 62.6403 14.0399C62.7039 13.9975 62.7709 13.9607 62.8423 13.9316C62.9126 13.9026 62.9862 13.8803 63.061 13.8647C63.1369 13.8502 63.2128 13.8424 63.2886 13.8424C63.3656 13.8424 63.4415 13.8502 63.5163 13.8658C63.5922 13.8803 63.6647 13.9026 63.7361 13.9316C63.8064 13.9618 63.8734 13.9975 63.9381 14.0399C64.0017 14.0834 64.0597 14.1314 64.1144 14.1861C64.1691 14.2407 64.2171 14.2999 64.2595 14.3635C64.3019 14.4271 64.3376 14.4952 64.3666 14.5666C64.3967 14.6369 64.4179 14.7105 64.4335 14.7853C64.4481 14.8612 64.4559 14.9371 64.4547 15.0141C64.4547 15.0911 64.4481 15.1669 64.4324 15.2417C64.4179 15.3176 64.3956 15.3901 64.3666 15.4604C64.3365 15.5318 64.3008 15.5988 64.2583 15.6624C64.2159 15.726 64.168 15.7851 64.1133 15.8398C64.0597 15.8934 64.0006 15.9425 63.937 15.9849C63.8734 16.0273 63.8064 16.063 63.7361 16.0931C63.6647 16.1221 63.5922 16.1445 63.5174 16.159C63.4426 16.1746 63.3667 16.1813 63.2897 16.1813H63.2909Z" fill="#1E417C"/>
</g>
</svg>
