<svg width="71" height="91" viewBox="0 0 71 91" fill="none" xmlns="http://www.w3.org/2000/svg">
<path d="M69.4573 70.6859C68.2312 69.0486 65.8834 68.3897 63.6426 69.031L44.7761 74.4609C44.7585 72.0754 42.998 70.0093 40.6503 69.5114L23.1344 65.4873C20.5565 64.7215 16.2533 65.8608 13.639 66.2167C13.7987 64.597 12.3588 63.2439 10.7404 63.4036L2.72125 64.0626C1.19212 64.1871 0 65.4333 0 66.8945V86.4626C0 87.1743 0.284197 87.8333 0.799776 88.3136C1.35182 88.8305 2.13399 89.0795 2.89856 89.009L10.919 88.3501C12.0205 88.2608 12.9285 87.5843 13.3724 86.694L17.4266 86.3909L34.6582 90.718C36.8098 91.2524 39.0859 91.0211 41.1482 90.0767L67.0756 78.3428C69.9917 77.1143 71.4316 73.2499 69.4573 70.6859ZM11.5766 74.6571V85.5182C11.5766 85.8929 11.1855 86.2664 10.7228 86.3016L2.70365 86.9606C2.36538 86.997 2.02711 86.8185 2.02711 86.4626V66.8945C2.02711 66.5197 2.41819 66.1463 2.88095 66.1098C3.04066 66.1098 10.7769 65.4521 10.9718 65.4521C11.2924 65.4521 11.5766 65.6294 11.5766 65.9501V74.6571ZM68.2312 74.1402C67.9822 75.1375 67.2177 75.9926 66.2041 76.4553L40.2768 88.1891C38.6232 88.9374 36.7922 89.1159 35.1386 88.706L17.7472 84.3261C17.658 84.3085 17.5863 84.2896 17.4982 84.2896C17.4806 84.2896 17.4442 84.2896 17.4266 84.2896L13.639 84.5751C13.639 81.5658 13.639 71.4341 13.639 68.2652L19.2223 67.3572C20.3968 67.1611 21.5701 67.1963 22.6905 67.4641L40.2064 71.4882C44.9535 72.8236 42.3039 78.9666 38.0372 78.4497L27.0289 77.328C26.4605 77.2752 25.9625 77.6839 25.9085 78.2536C25.8557 78.8232 26.2643 79.3224 26.834 79.3753L37.841 80.497C40.5434 80.7824 43.2822 79.1615 44.331 76.7232L64.2474 70.9889C66.4883 70.2948 68.8172 71.8088 68.2312 74.1402ZM13.3548 55.6046L21.3387 51.1354L21.5877 60.3768C21.5877 61.374 23.0099 61.7475 23.5079 60.8572L35.3687 40.3095C36.1157 39.936 36.8802 39.0809 37.6813 39.1878C38.2321 39.3487 39.0142 39.9536 39.6191 40.3095L51.4799 60.8572C51.9603 61.7475 53.4002 61.374 53.4002 60.3768L53.6491 51.1354L61.6331 55.6046C62.043 55.8359 62.541 55.7655 62.8604 55.4272C63.1811 55.1066 63.2515 54.5897 63.0201 54.1987L51.6396 34.4696C51.7641 33.793 51.7465 32.5645 52.0672 32.1369C53.1876 31.2466 55.7127 31.2642 56.4056 29.6269C57.2418 28.0777 55.6586 26.1009 55.6586 24.6761C56.2987 23.3758 58.5748 22.3082 58.4868 20.51C58.5572 18.7469 56.3163 17.6428 55.6586 16.3791C55.641 14.9367 57.2594 12.9599 56.4056 11.4282C55.7127 9.79096 53.2052 9.80856 52.0672 8.91825C51.8534 8.65166 51.7817 7.86823 51.7289 7.26211C51.6396 4.30696 50.235 3.11358 47.3012 3.71844C46.6788 3.80773 45.9142 3.91462 45.5935 3.75491C44.4731 2.84573 43.9223 0.388559 42.1794 0.0867569C40.4906 -0.394869 38.9262 1.61715 37.5027 1.92021C36.0629 1.61715 34.4973 -0.394869 32.826 0.0691517C31.0655 0.370954 30.5323 2.82813 29.4119 3.75491C28.0073 4.07558 25.7488 2.97148 24.4158 4.12839C22.9923 5.17841 23.5796 7.61798 22.9395 8.93585C21.819 9.82617 19.294 9.80857 18.6011 11.4471C17.7824 12.9951 19.3468 14.9543 19.3468 16.3967C18.7067 17.6781 16.4482 18.7822 16.5375 20.5452C16.4671 22.3258 18.7067 23.4123 19.3468 24.6937C19.4185 25.032 19.1519 25.7802 18.9205 26.3675C17.7108 29.0749 18.5118 30.7486 21.3928 31.478C21.9788 31.6741 22.7081 31.9055 22.9395 32.1721C23.2413 32.5821 23.2413 33.8283 23.3482 34.5048L11.9853 54.2163C11.7539 54.6073 11.8256 55.1242 12.145 55.4449C12.4481 55.7655 12.9461 55.8359 13.3548 55.6046ZM59.3394 51.9905L53.3825 48.6606L50.6802 43.9776C50.3947 43.4796 49.7722 43.3187 49.2755 43.6041C48.7775 43.8883 48.6166 44.5121 48.902 45.01L51.6044 49.693L51.4083 56.7086L42.3215 40.9684C43.9223 40.5056 44.4555 38.2082 45.5407 37.3367C46.9806 37.016 49.2755 38.1553 50.6085 36.8915L59.3394 51.9905ZM22.0152 29.5012C20.183 28.9139 20.1114 28.9139 20.8231 27.0805C21.8014 24.9251 21.4984 23.4475 19.6675 21.9347C18.2452 20.5993 18.2087 20.51 19.6675 19.1393C21.4984 17.6252 21.7838 16.1301 20.8231 13.9923C20.6093 13.4403 20.2899 12.5864 20.432 12.3186C20.5741 12.0344 21.4456 11.7489 22.0152 11.5716C24.3265 11.0019 25.2508 9.79096 25.3049 7.44067C25.3577 6.79934 25.4294 5.92663 25.6783 5.73046C26.8868 5.37459 29.0208 6.31898 30.301 5.60597C31.6528 5.07153 32.2036 2.77531 33.2888 2.08117C34.5337 2.31255 36.0088 4.03911 37.4851 3.96869C38.979 4.05671 40.4553 2.29494 41.7003 2.08117C42.749 2.79292 43.3174 5.05392 44.6693 5.60597C45.9318 6.31898 48.0658 5.37459 49.2755 5.71286C49.8967 6.79934 49.4528 9.13202 50.4312 10.182C51.2486 11.393 53.6139 11.4282 54.5382 12.3186C54.6627 12.5864 54.3433 13.4226 54.1295 13.9923C53.1512 16.1301 53.4542 17.6076 55.2852 19.1204C56.7263 20.4735 56.7439 20.5452 55.2852 21.9159C53.4542 23.4299 53.1512 24.9075 54.1295 27.0629C54.8237 28.8611 54.8048 28.9139 52.9386 29.5012C49.9156 30.2494 49.7722 31.7986 49.5421 34.5589C49.4352 35.1989 49.3459 35.2706 49.239 35.3599C48.9725 35.5196 48.1375 35.4127 47.5326 35.3247C45.22 34.8431 43.833 35.502 42.7666 37.6209C42.4284 38.173 41.9845 38.9388 41.6814 39.0105C41.4865 39.0809 40.5082 38.5288 40.1523 38.2446C37.7517 36.3747 36.2942 37.1405 34.071 38.6898C33.5202 39.0281 33.3064 39.0105 33.2712 39.0105C32.9505 38.9388 32.5066 38.173 32.1684 37.6209C31.102 35.502 29.715 34.8607 27.4024 35.3247C26.8164 35.4127 26.0154 35.5196 25.7136 35.3599C25.5715 35.2706 25.5174 35.1989 25.3929 34.5224C25.198 31.781 25.0018 30.2494 22.0152 29.5012ZM24.3265 36.8727C25.6419 38.1553 27.972 36.9984 29.3943 37.3178C29.6961 37.4612 30.0884 38.1377 30.4078 38.6533C30.941 39.5801 31.5635 40.5773 32.6135 40.9508L23.5267 56.691L23.3306 49.6754L26.033 44.9924C26.3184 44.4945 26.1575 43.8707 25.6595 43.5865C25.1804 43.3011 24.5403 43.462 24.2548 43.96L21.5349 48.6606L15.6132 51.9905L24.3265 36.8727ZM37.4851 34.2734C45.0427 34.2734 51.2133 28.1129 51.2133 20.5276C50.4664 2.29494 24.5214 2.31255 23.7757 20.5276C23.7569 28.1129 29.9099 34.2734 37.4851 34.2734ZM37.4851 8.86417C43.9223 8.86417 49.151 14.0992 49.151 20.5452C48.5097 36.0364 26.4605 36.0364 25.8204 20.5452C25.8204 14.0992 31.0479 8.86417 37.4851 8.86417ZM32.6839 22.8427L31.9018 27.4011C31.8301 27.7922 31.991 28.1657 32.3105 28.3971C32.6311 28.6297 33.0398 28.6649 33.3957 28.4688L37.4851 26.3146L41.5758 28.4688C41.9128 28.6473 42.3404 28.6297 42.6598 28.3971C42.9804 28.1657 43.1401 27.7746 43.0685 27.4011L42.2863 22.8427L45.5935 19.6197C45.879 19.3518 45.967 18.9431 45.8601 18.5684C45.7369 18.1949 45.4162 17.9283 45.0251 17.8742L40.4553 17.2153L38.4094 13.0668C38.2321 12.7109 37.8762 12.4971 37.4851 12.4971C37.094 12.4971 36.7381 12.7109 36.5608 13.0668L34.5161 17.2153L29.9451 17.8742C29.554 17.9283 29.2346 18.1949 29.1101 18.5684C28.9856 18.9431 29.0925 19.3518 29.3767 19.6197L32.6839 22.8427ZM35.3511 19.1569C35.6894 19.1028 35.9736 18.889 36.1157 18.5872L37.4851 15.827L38.8369 18.5872C38.979 18.889 39.2808 19.1028 39.6015 19.1569L42.6422 19.6021L40.4377 21.7562C40.1888 21.9875 40.0819 22.3258 40.1347 22.6641L40.6503 25.6909L37.9303 24.2662C37.6272 24.1064 37.2713 24.1064 36.9695 24.2662L34.2483 25.6909L34.7651 22.6641C34.8179 22.3258 34.711 21.9875 34.4621 21.7562L32.2576 19.6021L35.3511 19.1569Z" fill="#1E417C"/>
</svg>
