<svg width="71" height="70" viewBox="0 0 71 70" fill="none" xmlns="http://www.w3.org/2000/svg">
<path d="M39.6378 54.4897L40.6771 50.1116L42.954 49.0734L46.9445 51.1581C47.3125 51.3493 47.7617 51.2825 48.0577 50.9926L51.0121 48.0886C51.3071 47.7977 51.3811 47.3496 51.195 46.9795L49.1751 42.9582L50.2514 40.7008L54.6489 39.7335C55.0539 39.6441 55.3551 39.3048 55.3952 38.8916L55.79 34.7695C55.83 34.3573 55.5988 33.9667 55.2174 33.8022L51.083 32.0188L50.4549 29.599L53.2026 26.033C53.4555 25.7051 53.4678 25.2518 53.2324 24.9095L50.8836 21.4988C50.6482 21.1575 50.2195 21.0064 49.8227 21.1256L45.5084 22.4147L43.47 20.9642L43.2809 16.468C43.2634 16.0548 42.9807 15.6991 42.5808 15.5881L38.5873 14.4841C38.1874 14.373 37.7618 14.5334 37.5336 14.8788L35.0583 18.638L32.5635 18.8354L29.527 15.513C29.2474 15.2077 28.8012 15.1162 28.425 15.2889L24.6545 17.0077C24.2772 17.1804 24.0542 17.5751 24.1025 17.9873L24.6237 22.4558L22.8402 24.2095L18.3758 23.6153C17.9656 23.5608 17.5658 23.7767 17.3869 24.1509L15.6055 27.8895C15.4266 28.2637 15.5109 28.7098 15.8121 28.9945L19.0871 32.0825L18.8486 34.5712L15.0463 36.9827C14.6968 37.2048 14.5302 37.6272 14.6341 38.0281L15.6733 42.0371C15.7782 42.438 16.1287 42.7259 16.543 42.7505L21.0382 43.0126L22.4567 45.0727L21.0957 49.3623C20.9703 49.757 21.1142 50.1877 21.4524 50.4283L24.8272 52.8306C25.1654 53.0711 25.6197 53.066 25.9518 52.8193L29.565 50.1332L31.9766 50.8004L33.6932 54.9594C33.8423 55.3192 34.1918 55.5505 34.5762 55.5505C34.6019 55.5505 34.6266 55.5495 34.6523 55.5474L38.7836 55.2205C39.1968 55.1887 39.5422 54.8926 39.6378 54.4897ZM35.1951 53.5902L33.5647 49.6408C33.4527 49.3695 33.2204 49.1639 32.9367 49.0847L29.6246 48.1688C29.5403 48.1462 29.455 48.1349 29.3697 48.1349C29.1661 48.1349 28.9657 48.1997 28.7992 48.323L25.3689 50.8734L23.128 49.277L24.4191 45.2053C24.5085 44.9246 24.4633 44.6183 24.2957 44.3757L22.3478 41.5468C22.1802 41.3042 21.9099 41.1521 21.6159 41.1346L17.3489 40.8858L16.6581 38.2234L20.2672 35.9342C20.516 35.7759 20.6774 35.5117 20.7061 35.2188L21.033 31.8008C21.0618 31.5068 20.9529 31.217 20.738 31.0155L17.6295 28.0828L18.8127 25.6003L23.0509 26.1646C23.3428 26.2026 23.6368 26.105 23.8465 25.8984L26.2971 23.4899C26.5068 23.2833 26.6096 22.9913 26.5757 22.6984L26.0803 18.456L28.5843 17.314L31.4677 20.4677C31.6671 20.6857 31.955 20.7987 32.249 20.7761L35.6751 20.5047C35.9691 20.4811 36.2364 20.3238 36.3977 20.0771L38.7476 16.5091L41.4008 17.2431L41.5807 21.5101C41.593 21.8051 41.741 22.0765 41.9805 22.2481L44.7796 24.2403C45.0202 24.4109 45.3255 24.4623 45.6081 24.378L49.7035 23.1538L51.2639 25.4193L48.656 28.8044C48.4761 29.0377 48.4144 29.341 48.4885 29.6257L49.3509 32.9501C49.4249 33.2348 49.6264 33.4702 49.8967 33.5874L53.8214 35.2794L53.5593 38.0179L49.3848 38.9358C49.097 38.9995 48.8544 39.1918 48.7269 39.458L47.2488 42.5583C47.1223 42.8245 47.1254 43.1339 47.258 43.3971L49.1751 47.2149L47.2128 49.1433L43.4248 47.1656C43.1637 47.0288 42.8533 47.0206 42.585 47.1429L39.459 48.5687C39.1907 48.691 38.9933 48.9295 38.9255 49.2163L37.9386 53.3723L35.1951 53.5902Z" fill="#1E417C"/>
<path d="M42.0631 41.9667C42.9687 41.0621 43.68 40.0085 44.1765 38.8356C44.6905 37.6206 44.9516 36.3295 44.9516 35.0003C44.9516 33.6702 44.6905 32.3801 44.1765 31.1651C43.68 29.9911 42.9687 28.9375 42.0631 28.0329C41.1585 27.1283 40.1038 26.418 38.9299 25.9225C37.7128 25.4086 36.4217 25.1475 35.0905 25.1475C33.7604 25.1475 32.4682 25.4075 31.2522 25.9225C30.0783 26.418 29.0236 27.1283 28.118 28.0329C27.2134 28.9375 26.502 29.9911 26.0055 31.1651C25.4916 32.3801 25.2305 33.6702 25.2305 35.0003C25.2305 36.3295 25.4905 37.6206 26.0055 38.8356C26.502 40.0085 27.2134 41.0621 28.118 41.9667C29.0236 42.8713 30.0783 43.5816 31.2522 44.0781C32.4682 44.5921 33.7604 44.8522 35.0905 44.8522C36.4217 44.8522 37.7128 44.5921 38.9299 44.0781C40.1038 43.5816 41.1585 42.8713 42.0631 41.9667ZM29.4697 40.617C27.9679 39.1162 27.1414 37.122 27.1414 35.0003C27.1414 32.8786 27.9679 30.8834 29.4697 29.3836C30.9705 27.8828 32.9678 27.0574 35.0905 27.0574C37.2143 27.0574 39.2105 27.8828 40.7124 29.3836C42.2132 30.8834 43.0407 32.8786 43.0407 35.0003C43.0407 37.122 42.2132 39.1162 40.7124 40.617C39.2105 42.1168 37.2143 42.9433 35.0905 42.9433C32.9678 42.9433 30.9705 42.1168 29.4697 40.617Z" fill="#1E417C"/>
<path d="M21.4223 9.09742C20.8508 9.70699 20.382 10.4173 20.0387 11.2068C19.2554 13.0098 19.2215 15.0091 19.9431 16.8379C20.0911 17.2131 20.4509 17.4423 20.8323 17.4423C20.9484 17.4423 21.0667 17.4207 21.1818 17.3755C21.6731 17.1822 21.9137 16.6281 21.7204 16.1368C21.1859 14.783 21.2106 13.3027 21.7914 11.9674C22.3711 10.6321 23.4371 9.60317 24.7919 9.06863C26.1468 8.53513 27.6291 8.5598 28.9654 9.13956C30.3017 9.71932 31.3317 10.7843 31.8663 12.1381C32.0595 12.6284 32.6146 12.87 33.106 12.6757C33.5963 12.4824 33.8379 11.9284 33.6436 11.438C32.922 9.60933 31.5301 8.17124 29.7261 7.38794C28.9376 7.04563 28.1101 6.84724 27.2765 6.79173C27.3125 6.71875 27.3474 6.64474 27.3793 6.5697C27.8799 5.4184 27.9015 4.14169 27.4409 2.97394C26.4891 0.564434 23.7527 -0.622844 21.3411 0.328006C18.9296 1.27886 17.7412 4.01217 18.6921 6.4227C19.2009 7.70969 20.2176 8.64717 21.4223 9.09742ZM22.0422 2.1043C22.3783 1.97272 22.7237 1.91002 23.064 1.91002C24.1762 1.91002 25.2309 2.58024 25.6636 3.675C25.9371 4.36784 25.9237 5.12646 25.6266 5.81004C25.3306 6.4926 24.7847 7.01994 24.0909 7.29337C23.398 7.5668 22.6394 7.55344 21.9548 7.25739C21.2712 6.96032 20.7439 6.4155 20.4704 5.72267C19.9061 4.29177 20.6113 2.66864 22.0422 2.1043Z" fill="#1E417C"/>
<path d="M51.3659 63.5771C50.8581 62.2912 49.8404 61.3527 48.6357 60.9024C49.2082 60.2929 49.677 59.5826 50.0203 58.7931C50.8036 56.9901 50.8375 54.9907 50.1159 53.162C49.9216 52.6717 49.3676 52.4311 48.8762 52.6244C48.3859 52.8176 48.1443 53.3727 48.3386 53.8631C48.8731 55.2169 48.8474 56.6981 48.2677 58.0324C47.6869 59.3677 46.6219 60.3967 45.2671 60.9302C45.2671 60.9312 45.2671 60.9312 45.2661 60.9312H45.265C44.6174 61.1872 43.94 61.3146 43.2636 61.3136C42.5266 61.3136 41.7895 61.1625 41.0926 60.8603C39.7573 60.2805 38.7263 59.2156 38.1917 57.8618C37.9985 57.3714 37.4434 57.1309 36.9531 57.3242C36.4617 57.5174 36.2212 58.0715 36.4144 58.5618C37.136 60.3905 38.5279 61.8286 40.3319 62.6109C41.1224 62.9542 41.9499 63.1526 42.7846 63.2081C42.212 64.3584 42.1092 65.7379 42.617 67.0249C43.3458 68.8711 45.1221 69.9998 46.9971 69.9998C47.5697 69.9998 48.1525 69.8939 48.7169 69.6718C51.1284 68.722 52.3167 65.9877 51.3659 63.5771ZM48.0158 67.8956C46.5839 68.4599 44.9597 67.7558 44.3954 66.3248C43.83 64.8939 44.5352 63.2718 45.9671 62.7075C46.3022 62.5749 46.6476 62.5122 46.9879 62.5122C48.1011 62.5122 49.1558 63.1824 49.5875 64.2782C50.1529 65.7091 49.4477 67.3312 48.0158 67.8956Z" fill="#1E417C"/>
<path d="M3.25318 26.3355C3.85453 26.5966 4.48877 26.7272 5.12507 26.7272C5.70792 26.7272 6.29282 26.6172 6.85099 26.3962C6.92809 26.3664 7.00313 26.3345 7.07714 26.3006C7.10387 27.1353 7.27451 27.9679 7.59009 28.7677C8.31273 30.5964 9.70354 32.0345 11.5076 32.8167C11.632 32.8712 11.7605 32.8959 11.8879 32.8959C12.257 32.8959 12.6085 32.6811 12.7648 32.3213C12.9745 31.8381 12.7524 31.2759 12.2693 31.0662C10.933 30.4864 9.90297 29.4214 9.36843 28.0666C8.8339 26.7128 8.85857 25.2326 9.43833 23.8973C10.0191 22.562 11.0851 21.533 12.4399 20.9984C13.7948 20.4649 15.2771 20.4896 16.6134 21.0694C17.0965 21.2801 17.6598 21.0581 17.8695 20.5739C18.0803 20.0908 17.8582 19.5285 17.3741 19.3188C15.57 18.5355 13.5686 18.5016 11.7389 19.2232C10.9381 19.5388 10.2124 19.9818 9.58327 20.5318C9.55758 20.4547 9.52982 20.3776 9.50001 20.3015C9.03846 19.1348 8.15032 18.2158 6.99902 17.7162C5.84669 17.2166 4.56895 17.195 3.40018 17.6556C2.2314 18.1161 1.31242 19.0032 0.812837 20.1545C0.312227 21.3058 0.29064 22.5825 0.75116 23.7503C1.21168 24.917 2.10085 25.836 3.25318 26.3355ZM2.56549 20.9152C2.86256 20.2316 3.4084 19.7053 4.10226 19.4319C4.43429 19.3013 4.78071 19.2355 5.12713 19.2355C5.50438 19.2355 5.88164 19.3136 6.23834 19.4678C6.92192 19.7649 7.44926 20.3097 7.72269 21.0026C7.99612 21.6954 7.98379 22.454 7.68671 23.1366C7.38964 23.8202 6.8438 24.3475 6.14993 24.6209C5.4571 24.8933 4.69847 24.881 4.01489 24.5839C3.33028 24.2879 2.80294 23.742 2.52951 23.0492C2.25607 22.3564 2.26944 21.5988 2.56549 20.9152Z" fill="#1E417C"/>
<path d="M66.8054 43.6649C65.6541 43.1653 64.3753 43.1437 63.2076 43.6042C63.1315 43.634 63.0564 43.6659 62.9824 43.6998C62.9547 42.8651 62.784 42.0325 62.4685 41.2328C61.7468 39.404 60.355 37.967 58.551 37.1837C58.0668 36.974 57.5045 37.195 57.2938 37.6791C57.0841 38.1623 57.3061 38.7246 57.7903 38.9353C59.1256 39.5151 60.1566 40.579 60.6911 41.9338C61.2257 43.2876 61.2 44.7679 60.6202 46.1032C60.6202 46.1032 60.6192 46.1032 60.6192 46.1042C60.0394 47.4385 58.9734 48.4674 57.6186 49.002C56.2638 49.5355 54.7815 49.5108 53.4451 48.931C52.961 48.7213 52.3987 48.9424 52.189 49.4265C51.9783 49.9096 52.2003 50.4719 52.6845 50.6827C53.625 51.0908 54.6201 51.2953 55.6162 51.2953C56.53 51.2953 57.4449 51.1226 58.3197 50.7772C59.1204 50.4627 59.8462 50.0186 60.4753 49.4687C60.501 49.5458 60.5287 49.6229 60.5585 49.6989C61.0191 50.8656 61.9082 51.7846 63.0595 52.2842C63.6681 52.5484 64.3023 52.6728 64.9263 52.6728C66.7437 52.6728 68.4778 51.614 69.2457 49.8459C69.7463 48.6946 69.7679 47.4179 69.3074 46.2502C68.8458 45.0834 67.9577 44.1655 66.8054 43.6649ZM67.4931 49.0852C66.8804 50.4956 65.2326 51.1452 63.8212 50.5326C63.1366 50.2365 62.6103 49.6907 62.3359 48.9979C62.0624 48.305 62.0758 47.5474 62.3729 46.8638C62.6689 46.1803 63.2147 45.654 63.9086 45.3805C64.2406 45.25 64.5871 45.1842 64.9335 45.1842C65.3107 45.1842 65.688 45.2623 66.0447 45.4165C66.7283 45.7136 67.2556 46.2584 67.529 46.9512C67.8025 47.6441 67.7901 48.4027 67.4931 49.0852Z" fill="#1E417C"/>
<path d="M17.3903 48.836C17.196 48.3457 16.6409 48.1052 16.1506 48.2984C14.7957 48.8329 13.3134 48.8073 11.9771 48.2275C10.6408 47.6477 9.61076 46.5838 9.07623 45.229C8.5417 43.8752 8.56739 42.3949 9.14716 41.0596C9.72692 39.7243 10.7929 38.6953 12.1488 38.1608C12.6391 37.9676 12.8807 37.4135 12.6864 36.9232C12.4931 36.4328 11.938 36.1913 11.4467 36.3855C9.61693 37.1061 8.1778 38.4969 7.39451 40.2989C7.0522 41.0874 6.85278 41.9138 6.79727 42.7475C6.72429 42.7115 6.65027 42.6766 6.57523 42.6437C5.42291 42.1441 4.14517 42.1225 2.97639 42.583C0.564831 43.5339 -0.623475 46.2672 0.328403 48.6777C1.05722 50.5239 2.83248 51.6516 4.70745 51.6516C5.28105 51.6516 5.86287 51.5467 6.42721 51.3237C7.59598 50.8642 8.51497 49.976 9.01558 48.8247C9.04745 48.7497 9.07828 48.6746 9.10707 48.5986C9.71664 49.1691 10.4269 49.6368 11.2164 49.9791C12.157 50.3882 13.152 50.5928 14.1471 50.5928C15.0609 50.5928 15.9758 50.4201 16.8516 50.0747C17.343 49.8815 17.5835 49.3264 17.3903 48.836ZM7.26293 48.064C6.96585 48.7476 6.42001 49.2739 5.72615 49.5474C4.29422 50.1117 2.67007 49.4076 2.10572 47.9767C1.54138 46.5458 2.24655 44.9237 3.67848 44.3593C4.00948 44.2277 4.35693 44.163 4.70231 44.163C5.0806 44.163 5.45683 44.2401 5.81353 44.3953C6.49814 44.6914 7.02547 45.2372 7.29891 45.93C7.57234 46.6229 7.56001 47.3805 7.26293 48.064Z" fill="#1E417C"/>
<path d="M69.7301 21.3245C69.2696 20.1568 68.3804 19.2388 67.2291 18.7392C66.0768 18.2396 64.7991 18.217 63.6303 18.6775C62.4615 19.1381 61.5425 20.0262 61.0429 21.1775C61.01 21.2526 60.9792 21.3276 60.9504 21.4037C60.3409 20.8332 59.6305 20.3654 58.8421 20.0221C57.037 19.2398 55.0356 19.2059 53.2059 19.9265C52.7155 20.1208 52.474 20.6748 52.6683 21.1652C52.8615 21.6555 53.4166 21.8971 53.908 21.7028C55.2628 21.1693 56.7441 21.194 58.0804 21.7737C59.4167 22.3535 60.4467 23.4184 60.9813 24.7722C61.5158 26.126 61.4911 27.6073 60.9103 28.9426C60.3306 30.2769 59.2646 31.3069 57.9098 31.8404C57.4184 32.0337 57.1779 32.5887 57.3721 33.0791C57.5202 33.4543 57.88 33.6835 58.2603 33.6835C58.3775 33.6835 58.4957 33.6619 58.6108 33.6167C60.4406 32.8951 61.8797 31.5053 62.664 29.7023C63.0063 28.9138 63.2057 28.0863 63.2613 27.2527C63.9078 27.5734 64.6274 27.7471 65.3613 27.7471C65.9339 27.7471 66.5168 27.6412 67.0811 27.4192C68.2499 26.9587 69.1689 26.0705 69.6684 24.9192C70.1691 23.769 70.1906 22.4923 69.7301 21.3245ZM67.9158 24.1596C67.6187 24.8421 67.0739 25.3695 66.38 25.6429C66.0449 25.7745 65.6995 25.8372 65.3593 25.8372C64.246 25.8372 63.1913 25.168 62.7596 24.0722C62.4852 23.3783 62.4985 22.6208 62.7956 21.9372C63.0927 21.2546 63.6375 20.7273 64.3313 20.4538C64.6634 20.3233 65.0098 20.2585 65.3562 20.2585C65.7335 20.2585 66.1107 20.3356 66.4674 20.4908C67.151 20.7869 67.6783 21.3317 67.9518 22.0256C68.2262 22.7184 68.2129 23.476 67.9158 24.1596Z" fill="#1E417C"/>
<path d="M32.3481 57.2467C31.8639 57.036 31.3016 57.258 31.0909 57.7422C30.5111 59.0765 29.4451 60.1065 28.0903 60.64C26.7355 61.1745 25.2532 61.1488 23.9168 60.5701C22.5805 59.9903 21.5505 58.9253 21.016 57.5715C20.4814 56.2177 20.5061 54.7365 21.0869 53.4012C21.2966 52.918 21.0746 52.3557 20.5904 52.146C20.1062 51.9353 19.544 52.1573 19.3343 52.6405C18.5499 54.4435 18.516 56.4439 19.2387 58.2716C19.5542 59.0713 19.9973 59.797 20.5483 60.4251C20.4712 60.4508 20.3941 60.4786 20.318 60.5084C19.1503 60.9689 18.2313 61.857 17.7307 63.0083C17.23 64.1586 17.2085 65.4364 17.67 66.6031C18.1305 67.7708 19.0187 68.6888 20.171 69.1884C20.7795 69.4525 21.4128 69.5779 22.0378 69.5779C23.8541 69.5769 25.5883 68.5192 26.3572 66.7511C26.8568 65.5998 26.8794 64.3231 26.4178 63.1553C26.388 63.0793 26.3562 63.0042 26.3222 62.9292C27.158 62.9025 27.9906 62.7318 28.7914 62.4162C30.6211 61.6957 32.0602 60.3059 32.8435 58.5029C33.0543 58.0187 32.8322 57.4564 32.3481 57.2467ZM24.6035 65.9894C23.9909 67.4008 22.3441 68.0494 20.9317 67.4367C20.2481 67.1407 19.7208 66.5959 19.4473 65.902C19.1739 65.2092 19.1862 64.4516 19.4833 63.768C19.7804 63.0844 20.3262 62.5581 21.0191 62.2847C21.3511 62.1541 21.6975 62.0883 22.0439 62.0883C22.4222 62.0883 22.7984 62.1665 23.1551 62.3207C23.8397 62.6177 24.3671 63.1625 24.6405 63.8554C24.9139 64.5482 24.9006 65.3068 24.6035 65.9894Z" fill="#1E417C"/>
<path d="M37.7113 12.7546C38.1954 12.9643 38.7577 12.7423 38.9674 12.2591C39.5482 10.9238 40.6142 9.89485 41.969 9.36032C43.3238 8.82579 44.8061 8.85149 46.1425 9.43125C47.4778 10.011 48.5088 11.076 49.0433 12.4298C49.5779 13.7836 49.5522 15.2648 48.9724 16.5991C48.7617 17.0833 48.9837 17.6456 49.4679 17.8553C49.5923 17.9087 49.7208 17.9344 49.8482 17.9344C50.2172 17.9344 50.5688 17.7196 50.7251 17.3598C51.5083 15.5568 51.5423 13.5574 50.8207 11.7287C50.5051 10.929 50.06 10.2032 49.509 9.57413C50.7281 9.16501 51.7766 8.26145 52.3287 6.99296C52.8282 5.84166 52.8498 4.56495 52.3893 3.39721C51.9288 2.23049 51.0406 1.31253 49.8883 0.811921C48.736 0.312339 47.4582 0.290753 46.2895 0.751272C45.1207 1.21179 44.2017 2.09891 43.7021 3.25021C43.2015 4.40151 43.1799 5.67822 43.6404 6.84597C43.6713 6.92203 43.7032 6.99707 43.7371 7.07109C42.9014 7.09781 42.0677 7.26845 41.2679 7.58403C39.4382 8.30565 37.9991 9.69543 37.2148 11.4984C37.0051 11.9816 37.2271 12.5439 37.7113 12.7546ZM45.4548 4.01089C45.7519 3.32731 46.2977 2.801 46.9905 2.52756C47.3226 2.39599 47.669 2.33123 48.0154 2.33123C48.3926 2.33123 48.7699 2.40832 49.1266 2.56354C49.8112 2.86062 50.3385 3.40543 50.612 4.09826C50.8854 4.7911 50.8721 5.5487 50.575 6.23228C49.9623 7.64262 48.3155 8.29229 46.9042 7.67963C46.9031 7.67963 46.9031 7.67963 46.9031 7.67963C46.2196 7.38255 45.6922 6.83774 45.4188 6.14491C45.1454 5.45207 45.1577 4.69447 45.4548 4.01089Z" fill="#1E417C"/>
</svg>
