<svg width="70" height="70" viewBox="0 0 70 70" fill="none" xmlns="http://www.w3.org/2000/svg">
<path d="M15.1834 33.3946C15.2137 33.9758 14.7685 34.4719 14.1879 34.5022C13.6055 34.5325 13.1106 34.0827 13.0804 33.5016C12.7427 26.8985 14.2434 20.2362 17.8309 14.8864C18.1525 14.4032 18.8058 14.275 19.2903 14.5952C19.7729 14.9193 19.9012 15.5739 19.5816 16.0572C16.2562 21.0101 14.8709 27.271 15.1834 33.3946ZM39.1703 8.17259C38.6013 8.03084 38.2592 7.45868 38.401 6.89296C38.5427 6.32854 39.1142 5.98189 39.6799 6.12364C43.781 7.14941 47.5497 9.36137 50.7056 12.2731C51.1328 12.6667 51.1631 13.3336 50.7707 13.7608C50.377 14.1873 49.7101 14.2176 49.2784 13.8252C46.368 11.1403 42.9434 9.11266 39.1703 8.17259ZM59.3653 34.2683C59.2976 33.6903 59.7126 33.1652 60.2886 33.0963C60.8666 33.0325 61.3917 33.4429 61.4613 34.0241C62.018 38.6768 61.6797 43.3384 60.3659 47.7301C60.1984 48.2901 59.6082 48.6071 59.0534 48.4408C58.4935 48.2733 58.1765 47.6883 58.3427 47.1283C59.5708 43.0259 59.8878 38.6207 59.3653 34.2683ZM43.2334 62.0869C43.8062 61.98 44.3539 62.3601 44.4615 62.9291C44.5639 63.5025 44.1883 64.0496 43.6148 64.1572C36.0369 65.5553 28.6775 62.3524 23.2156 56.9169C22.8006 56.5065 22.8006 55.8396 23.211 55.4292C23.6215 55.0142 24.2884 55.0142 24.6988 55.4246C29.6517 60.3505 36.3746 63.3621 43.2334 62.0869ZM49.8248 59.5676C49.7733 58.9897 50.2004 58.4768 50.7784 58.4253C51.3589 58.3744 51.8686 58.7983 51.9201 59.3789C51.9878 60.0895 53.4079 60.5283 54.2165 59.866C54.4053 59.7171 54.5193 59.5193 54.5193 59.3234C54.5193 58.7242 53.7713 58.5793 53.0232 58.433C51.415 58.1205 49.8113 57.8086 49.8113 55.473C49.8113 54.0877 50.8506 53.0136 52.1508 52.638V52.2655C52.1508 51.6798 52.6173 51.2095 53.2326 51.2095V51.214C53.8318 51.2185 54.2977 51.7011 54.2842 52.2881L54.2751 52.638C55.5831 53.0065 56.6321 54.0832 56.6321 55.473C56.6321 56.0535 56.1566 56.529 55.576 56.529C54.9903 56.529 54.5193 56.0535 54.5193 55.473C54.5193 54.7249 53.0535 54.2494 52.2236 54.9253C52.0393 55.0793 51.9246 55.2726 51.9246 55.473C51.9246 56.0722 52.6727 56.2165 53.4214 56.3628C55.0251 56.6753 56.6334 56.9878 56.6334 59.3234C56.6334 60.7171 55.5818 61.7912 54.2674 62.1623L54.2629 62.5309C54.2629 63.1114 53.7925 63.5869 53.2068 63.5869C52.6263 63.5869 52.1508 63.1114 52.1508 62.5309V62.1552C50.9395 61.8092 49.9485 60.8511 49.8248 59.5676ZM53.2191 47.3242C58.7835 47.3242 63.2944 51.8371 63.2944 57.3995C63.2944 62.9639 58.7815 67.4748 53.2191 67.4748C47.6554 67.4748 43.1438 62.9619 43.1438 57.3995C43.1438 51.8358 47.6554 47.3242 53.2191 47.3242ZM58.8524 51.7675C55.7429 48.658 50.7011 48.658 47.589 51.7675C44.4795 54.877 44.4795 59.9188 47.589 63.0315C50.7024 66.141 55.7448 66.141 58.8524 63.0315C61.9606 59.9188 61.9606 54.877 58.8524 51.7675ZM31.8366 9.88649C34.0556 9.88649 35.1813 12.5856 33.6078 14.159C32.0344 15.7324 29.3353 14.6113 29.3353 12.3923C29.3353 11.007 30.4545 9.88649 31.8366 9.88649ZM32.1143 12.1146C31.7503 11.7512 31.1955 12.3033 31.5576 12.6667C31.9223 13.0301 32.4777 12.478 32.1143 12.1146ZM30.8314 5.9864C31.2464 5.57146 31.9133 5.57146 32.3237 5.9864C32.7386 6.39684 32.7386 7.06371 32.3237 7.47865L26.144 13.6584C25.7336 14.0681 25.0667 14.0681 24.6517 13.6584C24.242 13.2434 24.242 12.5765 24.6517 12.1661L30.8314 5.9864ZM25.028 4.68616C27.2471 4.68616 28.3682 7.38458 26.7986 8.95866C25.2252 10.5276 22.5261 9.40776 22.5261 7.18742C22.5261 5.80664 23.6472 4.68616 25.028 4.68616ZM25.3025 6.91101C24.9385 6.54761 24.3863 7.09979 24.7503 7.46319C25.1137 7.8253 25.6659 7.27312 25.3025 6.91101ZM28.4326 0C33.8385 0 38.2212 4.38397 38.2212 9.78984C38.2212 15.1957 33.8385 19.5784 28.4326 19.5784C23.0274 19.5784 18.6428 15.1938 18.6428 9.78984C18.6428 4.38268 23.0274 0 28.4326 0ZM33.8598 4.36142C30.8617 1.36339 26.0035 1.36339 23.0061 4.36142C20.0036 7.35945 20.0036 12.2215 23.0061 15.2195C26.0035 18.2176 30.8617 18.2176 33.8598 15.2195C36.8572 12.2215 36.8572 7.35945 33.8598 4.36142ZM53.5239 25.5828H54.5799V27.6949H50.3119V25.5828H53.5239ZM64.8813 25.5828H65.9374V27.6949H55.9394V25.5828H64.8813ZM53.5239 18.6879H54.5799V20.8H50.3119V18.6879H53.5239ZM64.8813 18.6879H65.9374V20.8H55.9394V18.6879H64.8813ZM62.7267 24.2478H61.6707V22.1351H65.9387V24.2478H62.7267ZM51.368 24.2478H50.3119V22.1351H60.3073V24.2478H51.368ZM67.1139 16.6016H49.1309C48.7507 16.6016 48.4337 16.9141 48.4337 17.2988V29.7742C48.4337 30.1543 48.7507 30.4707 49.1309 30.4707H53.732C54.1682 30.4707 54.5406 30.7361 54.7023 31.1124C55.2667 32.2406 55.1682 33.3495 54.9117 34.4642C55.9517 33.7026 57.0754 32.5486 57.2551 31.3689C57.3318 30.8463 57.7848 30.4707 58.2989 30.4707H67.1126C67.4973 30.4707 67.8098 30.1588 67.8098 29.7742V17.2988C67.8111 16.9141 67.4947 16.6016 67.1139 16.6016ZM49.1309 14.4876H67.1139C68.6622 14.4876 69.9232 15.7492 69.9232 17.2968V29.7722C69.9232 31.316 68.6622 32.5815 67.1139 32.5815H59.1088C58.788 33.4539 58.2113 34.2831 57.48 35.0273C56.4748 36.0453 55.1579 36.9178 53.8106 37.5118C52.9343 37.9435 52.1302 37.2 52.2674 36.4049C52.4813 35.1858 53.1179 33.6072 52.973 32.5815H49.1321C47.589 32.5815 46.3261 31.3205 46.3261 29.7722V17.2968C46.3261 15.7505 47.5871 14.4876 49.1309 14.4876ZM21.6962 35.3759C21.6801 35.3153 21.6666 35.2567 21.6621 35.1961C21.3844 33.7632 21.2214 32.3869 21.1698 31.0957C19.2794 33.8579 17.0301 36.1207 14.7975 38.084L21.4778 52.1115C23.9282 51.4704 26.597 50.9653 29.4829 50.8802C25.5377 47.1238 22.7574 40.709 21.6962 35.3759ZM23.5448 33.7374C25.47 33.4159 27.2864 34.2548 28.5235 35.7908C30.8076 38.6252 30.6871 43.2495 28.1298 45.888C28.8991 47.0723 29.7168 48.1077 30.5421 48.9627C31.7728 50.2243 33.9384 51.982 35.7425 51.3364C37.1664 50.8229 38.0176 48.8983 38.236 46.2005C38.7586 39.7689 35.5073 30.711 31.0125 26.0835C28.1852 23.1718 25.106 22.2936 23.8193 26.1956C23.0951 28.4179 23.1601 31.2194 23.5448 33.7374ZM26.9952 43.9725C28.4313 42.0305 28.3682 38.9603 26.8792 37.1123C26.126 36.18 25.0699 35.6504 23.9417 35.8115C24.5796 38.604 25.6524 41.4738 26.9952 43.9725ZM25.1273 21.7208C27.4024 20.9167 30.0576 22.0797 32.5215 24.6112C37.4261 29.662 40.908 39.3527 40.3397 46.3668C40.053 49.8983 38.7308 52.4949 36.4512 53.3158C35.267 53.7397 33.9757 53.6321 32.6633 53.0709C28.4674 52.6985 24.6356 53.4182 21.2484 54.3538L20.3071 54.6192C20.0461 56.6798 19.559 61.71 20.9359 62.98C21.5442 63.5444 22.155 63.353 22.9636 63.9336C23.3953 64.2416 23.7168 64.67 23.8914 65.3279L24.3579 67.0688C24.4907 67.6333 24.1363 68.2016 23.5706 68.3343L16.5352 69.9728C15.9244 70.1146 15.3162 69.6861 15.2485 69.0617C14.9785 66.6449 14.2343 64.3698 13.0849 62.3479C11.9728 60.3943 10.4812 58.6611 8.67963 57.2545C8.0643 57.1643 7.48184 56.9891 6.93416 56.7023C6.64744 56.9079 6.46316 57.0406 6.13005 57.2062C4.4445 58.0406 2.1739 57.7964 1.27958 55.9916C0.591448 54.607 -0.161121 53.3789 0.0302426 51.7842C0.14171 50.8822 0.552144 50.0568 1.35626 49.4228L2.71578 48.3622C2.84851 45.1039 5.94899 42.602 9.79302 39.4976C10.7466 38.7277 11.7511 37.919 12.7608 37.0518C12.7904 37.0215 12.8252 36.9957 12.8587 36.9706C16.2362 34.066 19.7098 30.4997 21.8051 25.5906C22.4462 23.6576 23.5506 22.2845 25.1015 21.7279L25.1273 21.7208ZM19.4166 52.6882L13.1345 39.4989C12.447 40.0679 11.7711 40.6155 11.1158 41.1407C7.35362 44.1773 4.40519 46.5549 4.88521 49.2269L7.16032 54.29C9.01597 56.0129 12.2537 54.9704 16.4792 53.6096L19.4166 52.6882ZM18.1041 55.2996C15.9321 55.9916 13.6267 56.7842 11.715 57.125C14.5849 59.9781 16.4869 63.6378 17.1763 67.6584L22.0268 66.5257C21.7826 65.6146 21.9153 65.6397 21.1879 65.4484C19.8876 65.0985 18.9083 64.1919 18.4605 62.9258C17.7195 60.8421 17.8342 57.8235 18.1041 55.2996ZM5.29114 55.2707L3.21384 50.6463C2.66617 51.078 2.21772 51.3177 2.13202 52.0316C2.06695 52.54 2.2087 53.118 2.47867 53.6656L3.23639 55.1714C3.63587 55.7371 4.67968 55.6089 5.29114 55.2707Z" fill="#1E417C"/>
</svg>
