<svg width="70" height="70" viewBox="0 0 70 70" fill="none" xmlns="http://www.w3.org/2000/svg">
<path d="M32.849 39.707H27.8279C27.2043 39.707 26.6988 40.2126 26.6988 40.8361V56.8627C26.6988 57.4862 27.2043 57.9918 27.8279 57.9918H32.849C33.4726 57.9918 33.9781 57.4862 33.9781 56.8627V40.8361C33.9781 40.2126 33.4726 39.707 32.849 39.707ZM31.7199 55.7336H28.957V41.9652H31.7199V55.7336ZM42.1725 41.8H37.151C36.5274 41.8 36.0223 42.3056 36.0223 42.9291V56.8627C36.0223 57.4862 36.5274 57.9918 37.151 57.9918H42.1725C42.7956 57.9918 43.3012 57.4862 43.3012 56.8627V42.9291C43.3012 42.3056 42.796 41.8 42.1725 41.8ZM41.0434 55.7336H38.2801V44.0578H41.0434V55.7336ZM23.5256 45.9236H18.5044C17.8809 45.9236 17.3753 46.4292 17.3753 47.0527V56.8623C17.3753 57.4858 17.8809 57.9914 18.5044 57.9914H23.5256C24.1491 57.9914 24.6546 57.4858 24.6546 56.8623V47.0527C24.6546 46.4292 24.1491 45.9236 23.5256 45.9236ZM22.3965 55.7336H19.6335V48.1818H22.3965V55.7336ZM18.7129 41.1328C18.33 40.6411 18.4182 39.9314 18.9099 39.5482L28.2334 32.2887C28.5288 32.0587 28.9192 31.99 29.2751 32.1056L37.9377 34.9134L44.6035 28.1909C43.9966 28.2242 43.4676 27.7731 43.414 27.1634C43.3596 26.5423 43.8191 25.9946 44.4402 25.9398L47.4753 25.6737C47.812 25.6436 48.1453 25.7675 48.3816 26.0097C48.6183 26.252 48.7334 26.5876 48.6957 26.924L48.3573 29.9518C48.293 30.5289 47.8041 30.9554 47.2366 30.9554C47.1949 30.9554 47.1524 30.953 47.1099 30.9483C46.5507 30.8859 46.1341 30.4244 46.1087 29.8795L39.0525 36.9965C38.7527 37.2987 38.3079 37.4067 37.9028 37.2753L29.1488 34.438L20.2975 41.3302C20.0914 41.4906 19.8472 41.5685 19.6045 41.5685C19.2681 41.5685 18.9353 41.4187 18.7129 41.1328ZM25.8433 22.717C25.8433 22.0934 26.3489 21.5879 26.9724 21.5879H28.6126C29.2362 21.5879 29.7417 22.0934 29.7417 22.717C29.7417 23.3405 29.2362 23.8461 28.6126 23.8461H26.9724C26.3489 23.8461 25.8433 23.3405 25.8433 22.717ZM30.8939 22.717C30.8939 22.0934 31.3994 21.5879 32.023 21.5879H44.7846C45.4081 21.5879 45.9137 22.0934 45.9137 22.717C45.9137 23.3405 45.4081 23.8461 44.7846 23.8461H32.023C31.3994 23.8461 30.8939 23.3405 30.8939 22.717ZM25.8433 17.8511C25.8433 17.2276 26.3489 16.722 26.9724 16.722H28.6126C29.2362 16.722 29.7417 17.2276 29.7417 17.8511C29.7417 18.4746 29.2362 18.9802 28.6126 18.9802H26.9724C26.3489 18.9802 25.8433 18.4746 25.8433 17.8511ZM30.8939 17.8511C30.8939 17.2276 31.3994 16.722 32.023 16.722H44.7846C45.4081 16.722 45.9137 17.2276 45.9137 17.8511C45.9137 18.4746 45.4081 18.9802 44.7846 18.9802H32.023C31.3994 18.9802 30.8939 18.4746 30.8939 17.8511ZM19.3924 10.9911C20.377 10.9911 21.1784 10.1901 21.1784 9.20513V5.88774C21.1784 4.90281 20.377 4.10176 19.3924 4.10176H4.93935C3.95442 4.10176 3.15337 4.90321 3.15337 5.88774V9.20513C3.15337 10.1901 3.95442 10.9911 4.93935 10.9911H19.3924ZM5.41156 6.35995H18.9202V8.73292H5.41156V6.35995ZM8.65508 12.9089V13.7632C8.65508 14.125 8.36 14.4201 7.9982 14.4201H5.54302C5.18121 14.4201 4.88613 14.125 4.88613 13.7632V12.9089C4.88613 12.5471 5.18121 12.2521 5.54302 12.2521H7.9982C8.36 12.2521 8.65508 12.5471 8.65508 12.9089ZM14.0504 12.9089V13.7632C14.0504 14.125 13.7553 14.4201 13.3935 14.4201H10.9379C10.5761 14.4201 10.281 14.125 10.281 13.7632V12.9089C10.281 12.5471 10.5761 12.2521 10.9379 12.2521H13.3935C13.7553 12.2521 14.0504 12.5471 14.0504 12.9089ZM19.4456 12.9089V13.7632C19.4456 14.125 19.1506 14.4201 18.7887 14.4201H16.3332C15.9714 14.4201 15.6763 14.125 15.6763 13.7632V12.9089C15.6763 12.5471 15.9714 12.2521 16.3332 12.2521H18.7887C19.1506 12.2521 19.4456 12.5471 19.4456 12.9089ZM8.65508 17.5159V18.3698C8.65508 18.7316 8.36 19.027 7.9982 19.027H5.54302C5.18121 19.027 4.88613 18.732 4.88613 18.3698V17.5159C4.88613 17.1541 5.18121 16.859 5.54302 16.859H7.9982C8.36 16.859 8.65508 17.1541 8.65508 17.5159ZM14.0504 17.5159V18.3698C14.0504 18.7316 13.7553 19.027 13.3935 19.027H10.9379C10.5761 19.027 10.281 18.732 10.281 18.3698V17.5159C10.281 17.1541 10.5761 16.859 10.9379 16.859H13.3935C13.7553 16.859 14.0504 17.1541 14.0504 17.5159ZM19.4456 17.5159V18.3698C19.4456 18.7316 19.1506 19.027 18.7887 19.027H16.3332C15.9714 19.027 15.6763 18.732 15.6763 18.3698V17.5159C15.6763 17.1541 15.9714 16.859 16.3332 16.859H18.7887C19.1506 16.859 19.4456 17.1541 19.4456 17.5159ZM8.65508 22.1228V22.9767C8.65508 23.3385 8.36 23.634 7.9982 23.634H5.54302C5.18121 23.634 4.88613 23.3385 4.88613 22.9767V22.1228C4.88613 21.761 5.18121 21.4659 5.54302 21.4659H7.9982C8.36 21.4659 8.65508 21.761 8.65508 22.1228ZM14.0504 22.1228V22.9767C14.0504 23.3385 13.7553 23.634 13.3935 23.634H10.9379C10.5761 23.634 10.281 23.3385 10.281 22.9767V22.1228C10.281 21.761 10.5761 21.4659 10.9379 21.4659H13.3935C13.7553 21.4659 14.0504 21.761 14.0504 22.1228ZM19.4456 22.1228V22.9767C19.4456 23.3385 19.1506 23.634 18.7887 23.634H16.3332C15.9714 23.634 15.6763 23.3385 15.6763 22.9767V22.1228C15.6763 21.761 15.9714 21.4659 16.3332 21.4659H18.7887C19.1506 21.4659 19.4456 21.761 19.4456 22.1228ZM56.958 43.916C56.8853 43.916 56.8126 43.9176 56.7404 43.9188V15.411C56.7404 15.102 56.6792 14.8089 56.5632 14.5389C56.5466 14.4983 56.5283 14.459 56.5072 14.4209C56.4028 14.2148 56.2658 14.023 56.0942 13.851L50.0464 7.80319C49.8744 7.63163 49.6826 7.49421 49.4765 7.39016C49.4384 7.36911 49.3987 7.35044 49.3581 7.33416C49.0885 7.2178 48.7954 7.15703 48.4864 7.15703H24.3318V3.98698C24.3318 1.78876 22.543 0 20.3448 0H3.98659C1.78836 0 0 1.78876 0 3.98698V24.8778C0 27.0761 1.78836 28.8644 3.98659 28.8644H13.2596V60.6368C13.2596 61.8533 14.2497 62.843 15.4658 62.843H45.3215C47.4757 67.0857 51.8828 70 56.958 70C64.1492 70 70 64.1492 70 56.958C70 49.7668 64.1492 43.916 56.958 43.916ZM50.0615 11.0118L52.8852 13.8359H50.0615V11.0118ZM2.25819 24.8778V3.98698C2.25819 3.03343 3.03343 2.25819 3.98659 2.25819H20.3448C21.2979 2.25819 22.0736 3.03343 22.0736 3.98698V24.8778C22.0736 25.831 21.2979 26.6062 20.3448 26.6062H3.98659C3.03343 26.6062 2.25819 25.831 2.25819 24.8778ZM15.5178 60.5848V28.8644H20.3448C22.5434 28.8644 24.3318 27.0761 24.3318 24.8778V9.41523H47.8033V14.4265C47.8033 15.3459 48.5515 16.0937 49.4709 16.0937H54.4822V44.1527C53.8455 44.2758 53.2252 44.445 52.6247 44.6571V34.2494C52.6247 33.6259 52.1191 33.1203 51.4956 33.1203H46.4744C45.8509 33.1203 45.3453 33.6259 45.3453 34.2494V51.0246C44.4319 52.8054 43.916 54.8225 43.916 56.958C43.916 58.2162 44.0959 59.433 44.4299 60.5848H15.5178ZM50.3665 45.7087C49.3494 46.3068 48.4205 47.0388 47.6035 47.8804V35.3785H50.3665V45.7087ZM56.958 67.7418C51.0115 67.7418 46.1742 62.9045 46.1742 56.958C46.1742 51.0119 51.0115 46.1742 56.958 46.1742C62.9041 46.1742 67.7418 51.0119 67.7418 56.958C67.7418 62.9045 62.9041 67.7418 56.958 67.7418ZM61.8795 59.6106C62.0038 60.6336 61.7278 61.5693 61.0816 62.3163C60.4041 63.0999 59.3238 63.6456 58.0871 63.8513V64.4967C58.0871 65.1202 57.5815 65.6254 56.958 65.6254C56.3345 65.6254 55.8289 65.1202 55.8289 64.4967V63.8331C53.9357 63.4665 52.4813 62.202 52.0409 60.4358C51.89 59.8306 52.2581 59.2178 52.8634 59.0669C53.4683 58.9167 54.0811 59.2845 54.232 59.8894C54.5723 61.2556 55.9862 61.7143 57.0867 61.6829C58.0525 61.6599 58.9505 61.3286 59.3739 60.8393C59.6014 60.576 59.6852 60.2722 59.638 59.8826C59.5581 59.2245 59.1618 58.4191 56.786 58.0295C53.2911 57.4556 52.475 55.6359 52.4059 54.2105C52.3102 52.2391 53.6764 50.5897 55.8055 50.1068C55.8134 50.1052 55.8214 50.1032 55.8289 50.1016V49.4193C55.8289 48.7958 56.3345 48.2906 56.958 48.2906C57.5815 48.2906 58.0871 48.7958 58.0871 49.4193V50.0917C59.4807 50.384 60.8147 51.2545 61.5062 52.9019C61.7476 53.477 61.4772 54.1386 60.9025 54.3801C60.3274 54.6216 59.6658 54.3511 59.4243 53.7764C58.8484 52.4047 57.4425 52.0512 56.3047 52.309C55.4774 52.4968 54.6112 53.0659 54.6613 54.1013C54.6788 54.4572 54.7244 55.4024 57.1518 55.8011C60.0395 56.2749 61.6301 57.5565 61.8795 59.6106Z" fill="#1E417C"/>
</svg>
