<svg width="71" height="74" viewBox="0 0 71 74" fill="none" xmlns="http://www.w3.org/2000/svg">
<mask id="mask0_58624_18661" style="mask-type:luminance" maskUnits="userSpaceOnUse" x="0" y="0" width="71" height="74">
<path d="M0 0H70.4125V74H0V0Z" fill="white"/>
</mask>
<g mask="url(#mask0_58624_18661)">
<path d="M70.2998 38.8992C70.2998 48.2753 66.644 57.0895 60.0106 63.7199C53.375 70.3502 44.5533 74 35.1697 74C25.7853 74 16.9635 70.3502 10.3279 63.7199C3.69458 57.0895 0.0395508 48.2753 0.0395508 38.8992C0.0395508 29.6468 3.61205 20.9151 10.0961 14.3155C10.496 13.9089 11.1457 13.9044 11.5523 14.3013C11.9559 14.6981 11.9626 15.3501 11.5658 15.7537C5.46057 21.9707 2.09663 30.1885 2.09663 38.8992C2.09663 57.1218 16.9343 71.9444 35.1697 71.9444C53.405 71.9444 68.2419 57.1218 68.2419 38.8992C68.2419 30.1907 64.878 21.9707 58.7728 15.7537C58.3759 15.3501 58.3804 14.6981 58.787 14.3013C59.1906 13.9021 59.8433 13.9089 60.2402 14.3155C66.7265 20.9151 70.2998 29.6468 70.2998 38.8992ZM11.9882 21.1154C18.2584 19.516 27.2752 16.6487 34.625 12.0649C34.9581 11.8578 35.3805 11.8578 35.7136 12.0649C43.0634 16.6487 52.0801 19.516 58.3504 21.1154C58.805 21.2317 59.1246 21.6428 59.1246 22.1132V44.5775C59.1246 47.5761 58.3939 50.2626 56.8927 52.7878C53.3405 58.7625 45.4303 63.4513 38.4503 67.588C37.4908 68.1566 36.586 68.6938 35.7023 69.2257C35.5388 69.3269 35.3535 69.375 35.1697 69.375C34.9859 69.375 34.802 69.3269 34.637 69.2257C33.7548 68.6938 32.8478 68.1566 31.8882 67.588C24.9083 63.4513 16.9981 58.7625 13.4466 52.7878C11.9446 50.2626 11.2147 47.5761 11.2147 44.5775V22.1132C11.2147 21.6428 11.5335 21.2317 11.9882 21.1154ZM13.2718 44.5775C13.2718 47.195 13.9079 49.5371 15.2163 51.7398C18.4977 57.2621 26.1686 61.8091 32.9378 65.819C33.7112 66.2781 34.4487 66.7162 35.1697 67.1476C35.8906 66.7162 36.6273 66.2781 37.4015 65.819C44.1699 61.8091 51.8416 57.2621 55.1222 51.7398C56.4314 49.5371 57.0668 47.195 57.0668 44.5775V22.9069C50.8588 21.2782 42.3334 18.4882 35.1697 14.143C28.0059 18.4882 19.4805 21.2782 13.2718 22.9069V44.5775ZM16.755 50.8268C15.6162 48.9085 15.0625 46.8649 15.0625 44.5775V25.0608C15.0625 24.6024 15.3678 24.1958 15.8135 24.072C23.0965 22.0262 29.4358 19.4837 34.6618 16.5174C34.9768 16.3388 35.3625 16.3388 35.6768 16.5174C40.9028 19.4837 47.242 22.0262 54.5251 24.072C54.9707 24.1958 55.276 24.6024 55.276 25.0608V44.5775C55.276 46.8649 54.7231 48.9085 53.5843 50.8268C50.4657 56.0707 42.2689 60.8908 36.2852 64.4101L35.6903 64.7589C35.5298 64.8557 35.3505 64.9015 35.1697 64.9015C34.9881 64.9015 34.8088 64.8557 34.6483 64.7589L34.0533 64.4101C28.0697 60.8908 19.8729 56.0707 16.755 50.8268ZM17.1196 44.5775C17.1196 46.5115 17.5652 48.1635 18.5255 49.7757C21.3725 54.5681 29.3053 59.2321 35.0984 62.6396L35.1697 62.6808L35.2409 62.6396C41.0333 59.2321 48.9668 54.5681 51.8138 49.7757C52.7733 48.1635 53.219 46.5115 53.219 44.5775V25.8387C46.3215 23.8522 40.2553 21.4155 35.1697 18.5895C30.0832 21.4155 24.017 23.8522 17.1196 25.8387V44.5775ZM20.7199 49.5124V35.596C20.7199 34.3979 21.6959 33.4234 22.8947 33.4234H26.2654C26.9428 33.4234 27.5513 33.7377 27.9481 34.2261C32.7885 33.3018 34.1824 30.7691 33.631 24.2445C33.5462 23.2258 34.2739 22.3375 35.2912 22.2257C36.7811 22.0577 38.058 22.4666 38.9852 23.4066C41.1923 25.6504 40.926 30.4315 40.6229 33.1758H45.9659C47.6719 33.1758 49.056 34.5584 49.056 36.2614C49.056 36.9126 48.8542 37.5158 48.5076 38.0139C49.1843 38.5803 49.6187 39.4318 49.6187 40.3816C49.6187 41.3403 49.1776 42.1986 48.4911 42.765C48.8287 43.2609 49.026 43.8573 49.026 44.5017C49.026 45.591 48.4589 46.5483 47.6029 47.099C47.8092 47.4981 47.9285 47.9474 47.9285 48.4291C47.9285 50.024 46.6291 51.3219 45.0334 51.3219H42.1721C41.5682 51.3707 40.9373 51.4322 40.2688 51.4967C38.6529 51.655 36.9004 51.8245 35.2177 51.8245C34.1891 51.8245 33.1853 51.76 32.2536 51.5905C31.4546 51.4464 30.8484 51.2649 30.3135 51.1066C29.6384 50.9048 29.0389 50.7255 28.1229 50.6339C27.7418 51.2626 27.0531 51.685 26.2654 51.685H22.8947C21.6959 51.685 20.7221 50.7097 20.7221 49.5124H20.7199ZM41.0776 39.3493C40.5081 39.3493 40.0438 39.8122 40.0438 40.3816C40.0438 40.9502 40.5081 41.4139 41.0776 41.4139H46.5278C47.0972 41.4139 47.5616 40.9502 47.5616 40.3816C47.5616 39.8122 47.0972 39.3493 46.5278 39.3493H41.0776ZM46.969 44.5017C46.969 43.9331 46.5053 43.4694 45.9359 43.4694H41.2426C40.6732 43.4694 40.2096 43.9331 40.2096 44.5017C40.2096 45.0704 40.6732 45.534 41.2426 45.534H45.9359C46.5053 45.534 46.969 45.0704 46.969 44.5017ZM45.8714 48.4268C45.8714 47.9662 45.4948 47.5896 45.0312 47.5896C44.5698 47.5896 42.1286 47.5896 42.1286 47.5896C41.665 47.5896 41.2884 47.9662 41.2884 48.4291C41.2884 48.8905 41.665 49.2663 42.1286 49.2663H45.0312C45.4948 49.2663 45.8714 48.8905 45.8714 48.4268ZM41.8765 35.2284C41.3071 35.2284 40.8427 35.692 40.8427 36.2614C40.8427 36.8301 41.3071 37.2937 41.8765 37.2937H45.9659C46.5353 37.2937 46.999 36.8301 46.999 36.2614C46.999 35.692 46.5353 35.2284 45.9659 35.2284H41.8765ZM28.4373 36.2247V48.5994C29.4891 48.7157 30.2055 48.9295 30.901 49.1358C31.4314 49.2941 31.934 49.4434 32.6204 49.5694C34.6115 49.9295 37.1322 49.7322 39.4444 49.5124C39.3071 49.177 39.2313 48.8102 39.2313 48.4291C39.2313 47.9452 39.3528 47.4913 39.5621 47.0892C38.7144 46.5386 38.1517 45.5843 38.1517 44.5017C38.1517 43.7538 38.4181 43.0681 38.8637 42.5309C38.5629 42.2233 38.3288 41.852 38.1772 41.4386C37.5868 41.8842 36.8614 42.2669 35.9731 42.5587C35.8673 42.5954 35.7571 42.6112 35.6513 42.6112C35.2199 42.6112 34.8178 42.3359 34.676 41.9045C34.4967 41.3658 34.7908 40.7852 35.3302 40.6059C37.9657 39.7386 38.8382 37.9749 38.4368 34.3131C38.4368 34.3109 38.4368 34.3064 38.4368 34.3019C38.4346 34.2861 38.4346 34.2696 38.4346 34.2539C38.4346 34.2328 38.4323 34.2126 38.4323 34.1938C38.4323 34.1803 38.4346 34.1668 38.4346 34.1526C38.4346 34.1301 38.4368 34.1068 38.4391 34.0836C38.4391 34.0791 38.4391 34.0746 38.4413 34.0701C39.0655 29.2087 38.7557 26.1073 37.5186 24.85C37.0639 24.3886 36.4803 24.1958 35.6978 24.2513C36.1937 30.4593 35.0939 34.8803 28.4373 36.2247ZM22.7777 49.5124C22.7777 49.5739 22.8324 49.6272 22.8947 49.6272H26.2654C26.3269 49.6272 26.3802 49.5739 26.3802 49.5124V35.596C26.3802 35.5337 26.3269 35.479 26.2654 35.479H22.8947C22.8324 35.479 22.7777 35.5337 22.7777 35.596V49.5124ZM45.3755 13.455C45.146 12.9389 45.233 12.3537 45.6006 11.9268L47.3021 9.96354L46.5488 7.4766C46.386 6.93494 46.5443 6.36629 46.9645 5.98968C47.3823 5.61082 47.9675 5.51255 48.4866 5.73311L50.8836 6.73989L53.0172 5.25522C53.4808 4.93413 54.0704 4.90938 54.5596 5.19146C55.0487 5.47354 55.3241 5.99643 55.276 6.55834C55.228 7.121 55.0577 9.14882 55.0577 9.14882L57.1291 10.7183C57.5792 11.0574 57.7855 11.6125 57.6685 12.1632C57.5514 12.7161 57.1358 13.1384 56.5874 13.2667L54.0547 13.8586L53.2002 16.3111C53.0172 16.846 52.5528 17.2128 51.9901 17.2721C51.9376 17.2766 51.8873 17.2796 51.8341 17.2796C51.3337 17.2796 50.8723 17.0223 50.6082 16.5842L49.2624 14.3613L46.6636 14.308C46.0987 14.2968 45.6051 13.9712 45.3755 13.455ZM48.0163 12.2802L49.8685 12.317C50.2226 12.3237 50.546 12.512 50.7298 12.8128L51.69 14.4003L52.2985 12.6493C52.4132 12.317 52.6908 12.0649 53.0352 11.9846L54.8402 11.5622L53.3638 10.4429C53.0809 10.2314 52.9294 9.89002 52.9594 9.53893L53.1154 7.69191L51.5933 8.7497C51.3037 8.95151 50.9323 8.99052 50.606 8.85248L48.8978 8.13453L49.4349 9.90803C49.5362 10.2456 49.4582 10.6125 49.2286 10.8788L48.0163 12.2802ZM12.6701 12.1632C12.5531 11.6125 12.7594 11.0574 13.2095 10.716L15.2808 9.14882L15.0625 6.55834C15.0145 5.99643 15.2898 5.47354 15.7767 5.19146C16.2659 4.90938 16.8585 4.93413 17.3221 5.25522L19.455 6.73989L21.8519 5.73311C22.3711 5.51255 22.9562 5.61082 23.3741 5.98968C23.795 6.36629 23.9533 6.9372 23.7897 7.4766L23.0373 9.96054L24.738 11.9268C25.1056 12.3537 25.1926 12.9389 24.963 13.455C24.7335 13.9689 24.2398 14.2968 23.6749 14.308L21.0762 14.3613L19.7303 16.5842C19.4662 17.0223 19.0049 17.2796 18.5045 17.2796C18.452 17.2796 18.3987 17.2766 18.3484 17.2698C17.7858 17.2128 17.3221 16.8437 17.1383 16.3111L16.2839 13.8586L13.7519 13.2667C13.2027 13.1384 12.7871 12.7161 12.6701 12.1632ZM15.4969 11.5645L17.3034 11.9869C17.6477 12.0649 17.9261 12.317 18.0408 12.6493L18.6493 14.4003L19.6088 12.8128C19.7926 12.512 20.1167 12.3237 20.47 12.317L22.323 12.2802L21.1107 10.8788C20.8811 10.6125 20.8031 10.2456 20.9037 9.90803L21.4408 8.13453L19.7326 8.85248C19.407 8.99052 19.0349 8.95151 18.7453 8.7497L17.2231 7.69191L17.3792 9.53893C17.4092 9.89002 17.2576 10.2314 16.9755 10.4429L15.4969 11.5622V11.5645ZM29.3743 5.98068C28.9632 5.59507 28.8139 5.02191 28.9887 4.48476C29.1627 3.94986 29.6196 3.57175 30.18 3.50273L32.7585 3.17714L33.865 0.828232C34.1044 0.316589 34.6047 0 35.1697 0C35.7346 0 36.2327 0.316589 36.4735 0.828232L37.5778 3.17714L40.1586 3.50273C40.719 3.57175 41.1736 3.94761 41.3484 4.48476C41.5224 5.02191 41.3754 5.59507 40.965 5.98068L39.0685 7.75868L39.5569 10.3094C39.6627 10.8623 39.4444 11.413 38.9875 11.7438C38.7354 11.9291 38.4413 12.0214 38.1427 12.0214C37.9064 12.0214 37.6679 11.9614 37.4473 11.8421L35.1697 10.587L32.892 11.8421C32.3984 12.1129 31.8057 12.0761 31.3488 11.7438C30.8942 11.413 30.6759 10.8623 30.7817 10.3094L31.2708 7.75868L29.3743 5.98068ZM31.7367 5.37751L33.0916 6.64611C33.3489 6.88693 33.4637 7.24253 33.3969 7.58838L33.0481 9.40764L34.6738 8.51564C34.9813 8.34609 35.358 8.34609 35.6655 8.51564L37.2912 9.40764L36.9417 7.58838C36.8756 7.24253 36.9904 6.88693 37.247 6.64611L38.6019 5.37751L36.7608 5.14794C36.4113 5.10443 36.1082 4.88387 35.9566 4.56503L35.1697 2.88831L34.3819 4.56503C34.2304 4.88387 33.9273 5.10443 33.5785 5.14794L31.7389 5.37751H31.7367Z" fill="#1E417C"/>
</g>
</svg>
