<svg width="70" height="76" viewBox="0 0 70 76" fill="none" xmlns="http://www.w3.org/2000/svg">
<path d="M11.1891 11.1299C9.3985 9.25264 6.30976 10.5862 6.30976 13.2888C6.30976 14.9146 7.54777 16.3174 9.17213 16.3174C11.7229 16.3153 13.0056 13.0311 11.1891 11.1299ZM9.17213 8.51065C12.6479 8.51065 14.8494 12.3823 13.2194 15.5352C15.0359 16.1572 16.2634 17.9603 16.2634 19.9561V22.0606C19.2593 18.3803 18.9952 13.0064 15.6577 9.63811C12.0799 6.02205 6.26993 6.02699 2.68725 9.63811C-0.612483 12.9682 -0.90941 18.2674 1.99628 21.9526V19.9575C1.99628 17.9327 3.25875 16.1099 5.11506 15.5119C3.51096 12.3597 5.71241 8.51065 9.17213 8.51065ZM5.59993 24.713L5.58106 21.4281C5.58106 20.9494 5.96253 20.559 6.43761 20.559C6.91199 20.559 7.29905 20.9438 7.29905 21.4231L7.3235 25.2566C8.5182 25.5044 9.7611 25.5094 10.9544 25.2707L10.9299 21.6547C10.9299 21.1753 11.3114 20.7856 11.7865 20.7856C12.2616 20.78 12.6479 21.1704 12.6535 21.6497L12.6724 24.7462C13.3389 24.4694 13.9607 24.1136 14.5371 23.6936V19.954C14.5371 19.1435 14.2332 18.4135 13.7392 17.889C13.2837 17.3962 12.6619 17.0841 11.9814 17.0594C11.2031 17.6821 10.2292 18.0584 9.17213 18.0584C8.11577 18.0584 7.14185 17.6835 6.36355 17.0559C5.64813 17.0615 4.99769 17.3771 4.51772 17.8911C4.02866 18.4135 3.71986 19.1456 3.71986 19.9561V23.6307C4.29834 24.0663 4.92992 24.4271 5.59993 24.713ZM58.5472 61.2816C56.7566 59.4101 53.6672 60.738 53.6672 63.4405C53.6672 65.0699 54.9003 66.4692 56.5302 66.4692C59.0803 66.4678 60.363 63.1828 58.5472 61.2816ZM56.5302 58.6674C60.006 58.6674 62.2075 62.5362 60.5775 65.6919C62.394 66.3139 63.6215 68.1177 63.6215 70.1078V72.2131C66.6174 68.5377 66.3533 63.1581 63.0151 59.7948C59.438 56.1795 53.628 56.1795 50.0453 59.7948C46.7456 63.12 46.4487 68.4241 49.3544 72.1044V70.1093C49.3544 68.0894 50.6168 66.2616 52.4725 65.6693C50.8684 62.5171 53.0698 58.6674 56.5302 58.6674ZM52.958 74.8704L52.9392 71.5855C52.9392 71.1061 53.3206 70.7157 53.795 70.7108C54.2701 70.7108 54.6571 71.0955 54.6571 71.5749L54.6809 75.4084C55.8756 75.6562 57.1192 75.6611 58.3118 75.4225L58.288 71.8064C58.288 71.3278 58.6695 70.9374 59.1446 70.9374C59.619 70.9374 60.006 71.3221 60.0109 71.8015L60.0298 74.898C60.6963 74.6212 61.3181 74.271 61.8952 73.851V70.1057C61.8952 69.3009 61.5913 68.5688 61.0973 68.0407C60.6411 67.5515 60.02 67.2359 59.3395 67.2112C58.5605 67.8388 57.5866 68.2102 56.5302 68.2102C55.4739 68.2102 54.5 67.8388 53.721 67.2084C53.0062 67.2133 52.3551 67.5338 51.8751 68.0428C51.3868 68.5709 51.0773 69.3023 51.0773 70.1078V73.7825C51.6557 74.2188 52.288 74.5845 52.958 74.8704ZM13.9984 39.8041C12.2078 37.9326 9.12393 39.2605 9.12393 41.963C9.12393 43.5889 10.357 44.9917 11.987 44.9917C14.5322 44.9903 15.8149 41.7054 13.9984 39.8041ZM11.987 37.1899C15.4628 37.1899 17.6587 41.0587 16.0287 44.2144C17.8487 44.8364 19.0727 46.6353 19.0727 48.6304V50.7356C22.0734 47.0546 21.8093 41.6807 18.4705 38.3173C14.8878 34.702 9.07712 34.702 5.50002 38.3173C2.20029 41.6425 1.89847 46.9417 4.80416 50.6269V48.6318C4.80416 46.612 6.06593 44.7842 7.92783 44.1918C6.32513 41.034 8.52658 37.1899 11.987 37.1899ZM8.4141 53.3929L8.39523 50.108C8.39034 49.6237 8.7767 49.2382 9.25178 49.2333C9.72686 49.2333 10.1132 49.618 10.1132 50.0974L10.1377 53.9309C11.3275 54.1787 12.5704 54.1836 13.7686 53.9471L13.7448 50.3311C13.7448 49.8517 14.1263 49.4613 14.6007 49.4613C15.0757 49.4564 15.4628 49.8468 15.4628 50.3254L15.4817 53.4226C16.1482 53.1451 16.7728 52.79 17.3512 52.3749V48.6304C17.3512 47.8248 17.0424 47.0899 16.5541 46.5654C16.0944 46.0754 15.4761 45.7598 14.7928 45.7358C14.0194 46.3634 13.0455 46.7341 11.9884 46.7341C10.932 46.7341 9.95812 46.3599 9.17912 45.7323C8.4644 45.7372 7.80836 46.0528 7.33328 46.5668C6.84003 47.0899 6.53612 47.827 6.53612 48.6318V52.3071C7.11251 52.7413 7.74479 53.107 8.4141 53.3929ZM31.0658 61.6127C29.2758 59.7412 26.192 61.0691 26.192 63.7716C26.192 65.3975 27.4244 66.8003 29.0544 66.8003C31.5995 66.7982 32.8809 63.5139 31.0658 61.6127ZM29.0544 58.9985C32.5253 58.9985 34.7267 62.8673 33.0968 66.023C34.9133 66.645 36.1408 68.4438 36.1408 70.439V72.5442C39.1359 68.8632 38.8774 63.4892 35.5378 60.1259C31.9552 56.5106 26.1452 56.5106 22.5625 60.1259C19.2676 63.4511 18.9658 68.7502 21.8715 72.4355V70.4404C21.8715 68.4205 23.134 66.5928 24.9903 66.0004C23.3862 62.8426 25.589 58.9985 29.0544 58.9985ZM25.4801 75.2015L25.4612 71.9166C25.4563 71.4372 25.8378 71.0468 26.3177 71.0419C26.7928 71.0419 27.1792 71.4266 27.1792 71.906L27.2036 75.7395C28.3934 75.9873 29.6363 75.9922 30.8345 75.7536L30.8108 72.1376C30.8052 71.6589 31.1922 71.2685 31.6666 71.2685C32.1417 71.2628 32.5288 71.6533 32.5288 72.1326L32.5476 75.2291C33.2141 74.9523 33.8387 74.5965 34.4172 74.1821V70.4368C34.4172 69.632 34.1084 68.8964 33.6194 68.3718C33.1603 67.8826 32.542 67.567 31.8587 67.5423C31.0798 68.1699 30.1114 68.5413 29.0544 68.5413C27.998 68.5413 27.0185 68.1664 26.2451 67.5395C25.5255 67.5444 24.8743 67.8649 24.3992 68.3739C23.906 68.8964 23.6021 69.6334 23.6021 70.439V74.1136C24.1785 74.5499 24.8108 74.9156 25.4801 75.2015ZM53.3688 21.8185L49.6338 26.8324C49.346 27.2122 48.8073 27.292 48.4308 27.0046C48.0493 26.7187 47.9711 26.1702 48.2547 25.7903L51.9946 20.7764C47.8488 18.4453 42.6704 21.4683 42.6704 26.3092C42.6704 29.8067 45.4797 32.6419 48.945 32.6419C52.4103 32.6419 55.2196 29.8067 55.2196 26.3092C55.2196 24.5648 54.5104 22.96 53.3688 21.8185ZM56.5009 17.6157L54.4119 20.4157C57.7144 23.5418 57.799 28.7943 54.6034 32.02C51.4762 35.1722 46.4159 35.1722 43.2873 32.02C40.1636 28.8691 40.1636 23.7564 43.2873 20.6042C45.8716 17.9956 49.8895 17.4781 53.0405 19.3736L55.1301 16.5737C50.5924 13.634 44.6406 14.2962 40.8385 18.1346C36.3651 22.6501 36.3651 29.9754 40.8385 34.4909C45.3176 39.0057 52.571 39.0057 57.0479 34.4909C61.7345 29.7615 61.4788 22.026 56.5009 17.6157ZM59.6294 13.4264L57.544 16.2214C63.354 21.2699 63.6956 30.2409 58.2692 35.7179C53.1201 40.914 44.7705 40.914 39.6215 35.7179C34.4724 30.5211 34.4724 22.0938 39.6215 16.8978C44.0314 12.4472 50.9466 11.7151 56.1697 15.1744L58.2552 12.3787C51.6474 7.87456 42.8038 8.7528 37.1748 14.4282C30.6759 20.9875 30.6759 31.6274 37.1748 38.1889C43.6736 44.7475 54.2163 44.7475 60.7173 38.1889C67.6304 31.2095 67.1176 19.7591 59.6294 13.4264ZM64.1567 7.25611L69.8787 4.86L63.1982 0L62.7531 6.24303L59.6902 10.4676C59.4066 10.8581 59.4897 11.4017 59.8768 11.6819C60.2582 11.9679 60.7969 11.8838 61.0798 11.4941L64.1567 7.25611ZM21.7667 22.2279C21.3105 22.0938 21.0415 21.6166 21.1743 21.1513C21.307 20.691 21.78 20.4192 22.2411 20.5533L29.8711 22.7666C30.3273 22.9007 30.5914 23.378 30.4635 23.8432C30.3308 24.3035 29.8571 24.5753 29.3967 24.4412L21.7667 22.2279ZM35.7104 52.8352C35.5001 53.2659 34.9852 53.4431 34.5604 53.2306C34.1308 53.0181 33.9582 52.4956 34.1685 52.065L37.6981 44.8872C37.9084 44.4566 38.4268 44.2787 38.8529 44.4919C39.2798 44.7044 39.4559 45.2268 39.2449 45.6575L35.7104 52.8352ZM53.5498 54.6334C53.6539 55.1021 53.3639 55.5674 52.8993 55.6705C52.4347 55.7728 51.9736 55.482 51.8716 55.0132L50.1243 47.1993C50.0209 46.7306 50.3108 46.2653 50.7754 46.163C51.24 46.0549 51.7012 46.3507 51.8025 46.8195L53.5498 54.6334ZM24.4237 42.8272C24.0178 43.0799 23.4896 42.9564 23.2339 42.5504C22.9838 42.141 23.106 41.6023 23.5141 41.3495L30.2442 37.1009C30.6501 36.8489 31.1783 36.9724 31.434 37.3833C31.6841 37.7878 31.5618 38.3265 31.1538 38.5793L24.4237 42.8272Z" fill="#1E417C"/>
</svg>
