<svg width="70" height="70" viewBox="0 0 70 70" fill="none" xmlns="http://www.w3.org/2000/svg">
<mask id="mask0_58624_18008" style="mask-type:luminance" maskUnits="userSpaceOnUse" x="0" y="0" width="70" height="70">
<path d="M0 0H69.8985V70H0V0Z" fill="white"/>
</mask>
<g mask="url(#mask0_58624_18008)">
<path d="M66.1223 6.59468H63.1492L62.1502 2.86689C61.6109 0.855073 59.5356 -0.342976 57.5242 0.195175L39.1969 5.10793C38.7326 5.23285 38.4573 5.70993 38.5819 6.17431L44.6942 28.994H38.6719V22.8859C38.6719 21.3409 37.4159 20.0849 35.8717 20.0849H16.2956C14.7513 20.0849 13.4954 21.3409 13.4954 22.8859V28.994H3.97922C1.78498 28.994 0 30.7797 0 32.9744V66.0034C0 68.198 1.78498 69.9834 3.97922 69.9834H48.1881C50.3819 69.9834 52.1673 68.198 52.1673 66.0034V38.1893H66.1223C68.2047 38.1893 69.8985 36.4947 69.8985 34.4119V10.372C69.8985 8.28924 68.2047 6.59468 66.1223 6.59468ZM57.9751 1.87784C59.0597 1.58754 60.1792 2.23317 60.4695 3.31819L61.3484 6.59468H47.1467C46.6668 6.59468 46.2766 6.98491 46.2766 7.46516V28.1746L40.4874 6.56454L57.9751 1.87784ZM13.5723 30.7349H38.5949V68.2428H13.5723V30.7349ZM11.8322 68.2428H9.68155V30.7349H11.8322V68.2428ZM32.8232 28.994H19.3453V25.9348H32.8232V28.994ZM40.3351 30.7349H42.4857V68.2428H40.3351V30.7349ZM15.2356 22.8859C15.2356 22.3014 15.7111 21.8255 16.2956 21.8255H35.8701C36.4546 21.8255 36.9301 22.3014 36.9301 22.8859V28.994H34.5622V25.0647C34.5622 24.5845 34.172 24.1942 33.6921 24.1942H18.4752C17.9953 24.1942 17.6051 24.5845 17.6051 25.0647V28.994H15.2372V22.8859H15.2356ZM1.74016 66.0034V32.9744C1.74016 31.7398 2.74508 30.7349 3.97922 30.7349H7.94099V68.2428H3.97922C2.74508 68.2428 1.74016 67.2375 1.74016 66.0034ZM50.4271 66.0034C50.4271 67.2375 49.4218 68.2428 48.1881 68.2428H44.2259V30.7349H45.1614L46.2766 34.9009V37.3188C46.2766 37.7991 46.6668 38.1893 47.1467 38.1893H50.4271V66.0034ZM68.1583 34.4119C68.1583 35.5346 67.2446 36.4483 66.1223 36.4483H48.0167V8.33564H66.1223C67.2446 8.33564 68.1583 9.24935 68.1583 10.372V34.4119ZM58.0869 25.6754C62.0923 25.6754 65.3522 22.416 65.3522 18.4082C65.3522 14.4 62.0935 11.141 58.0869 11.141C54.0799 11.141 50.8213 14.4 50.8213 18.4082C50.8213 22.416 54.0815 25.6754 58.0869 25.6754ZM52.6313 19.2783H54.7137C54.7906 20.7432 55.0587 22.165 55.5128 23.2948C54.0046 22.4973 52.9081 21.0232 52.6313 19.2783ZM58.0869 12.8828C58.5275 12.8828 59.5499 14.5075 59.7196 17.5393H56.4554C56.6236 14.5075 57.6475 12.8828 58.0869 12.8828ZM59.7196 19.2783C59.5499 22.3085 58.5275 23.9345 58.0869 23.9345C57.6459 23.9345 56.6236 22.3101 56.4538 19.2783H59.7196ZM60.6623 23.2964C61.1164 22.1665 61.3844 20.7448 61.4614 19.2799H63.5438C63.2654 21.0232 62.1689 22.4985 60.6623 23.2964ZM63.5422 17.5377H61.4598C61.3829 16.0728 61.1148 14.6511 60.6607 13.5212C62.1689 14.3191 63.2654 15.794 63.5422 17.5377ZM55.5128 13.5212C55.0587 14.6511 54.7906 16.0728 54.7137 17.5377H52.6313C52.9081 15.794 54.0046 14.3191 55.5128 13.5212ZM66.0918 29.3525C66.0918 29.8327 65.7015 30.2225 65.2217 30.2225H50.9518C50.4719 30.2225 50.0817 29.8327 50.0817 29.3525C50.0817 28.8722 50.4719 28.482 50.9518 28.482H65.2217C65.7031 28.482 66.0918 28.8722 66.0918 29.3525ZM66.0918 32.7713C66.0918 33.2516 65.7015 33.6418 65.2217 33.6418H50.9518C50.4719 33.6418 50.0817 33.2516 50.0817 32.7713C50.0817 32.2911 50.4719 31.9008 50.9518 31.9008H65.2217C65.7031 31.9008 66.0918 32.2911 66.0918 32.7713Z" fill="#1E417C"/>
</g>
</svg>
