<svg width="71" height="83" viewBox="0 0 71 83" fill="none" xmlns="http://www.w3.org/2000/svg">
<path d="M8.01779 51.0641C8.13738 51.1837 8.24487 51.314 8.33893 51.4551C8.43299 51.5962 8.51227 51.7454 8.57677 51.9026C8.64261 52.0585 8.69098 52.221 8.72457 52.3877C8.75682 52.5529 8.77295 52.7209 8.77295 52.8915C8.77295 53.0608 8.75682 53.2288 8.72457 53.3954C8.69098 53.562 8.64261 53.7233 8.57677 53.8805C8.51227 54.0364 8.43299 54.1855 8.33893 54.3266C8.24487 54.4677 8.13738 54.598 8.01779 54.7176C7.8982 54.8386 7.76786 54.9447 7.62677 55.0401C7.48569 55.1342 7.33654 55.2134 7.18067 55.2779C7.02346 55.3438 6.86221 55.3922 6.69694 55.4257C6.53032 55.458 6.36236 55.4755 6.19305 55.4755C6.02375 55.4755 5.85579 55.458 5.68917 55.4257C5.52389 55.3922 5.36131 55.3438 5.20544 55.2779C5.04823 55.2134 4.90042 55.1342 4.75933 55.0401C4.61824 54.946 4.48791 54.8386 4.36832 54.719C4.24873 54.598 4.14123 54.4677 4.04717 54.3266C3.95311 54.1855 3.87384 54.0364 3.80934 53.8805C3.7435 53.7233 3.69513 53.562 3.66153 53.3954C3.62928 53.2288 3.61182 53.0608 3.61182 52.8915C3.61182 52.7209 3.62928 52.5529 3.66153 52.3877C3.69513 52.221 3.7435 52.0585 3.80934 51.9026C3.87384 51.7454 3.95311 51.5962 4.04717 51.4551C4.14123 51.314 4.24873 51.1837 4.36832 51.0641C4.48791 50.9445 4.61824 50.837 4.75933 50.743C4.90042 50.6489 5.04823 50.5683 5.20544 50.5038C5.36131 50.4393 5.52255 50.3896 5.68917 50.3573C5.85579 50.3237 6.02375 50.3076 6.19305 50.3076C6.36236 50.3076 6.53032 50.3237 6.69694 50.3573C6.86221 50.3896 7.02346 50.4393 7.18067 50.5038C7.33654 50.5683 7.48569 50.6489 7.62677 50.743C7.76786 50.837 7.8982 50.9445 8.01779 51.0641Z" fill="#1E417C"/>
<path d="M21.9494 51.0641C22.069 51.1837 22.1765 51.314 22.2706 51.4551C22.3646 51.5962 22.4439 51.7454 22.5084 51.9026C22.5742 52.0585 22.6226 52.221 22.6562 52.3877C22.6885 52.5529 22.7046 52.7209 22.7046 52.8915C22.7046 53.0608 22.6885 53.2288 22.6562 53.3954C22.6226 53.562 22.5742 53.7233 22.5084 53.8805C22.4439 54.0364 22.3646 54.1855 22.2706 54.3266C22.1765 54.4677 22.069 54.598 21.9494 54.7176C21.8298 54.8386 21.6995 54.9447 21.5584 55.0401C21.4173 55.1342 21.2682 55.2134 21.1123 55.2779C20.9551 55.3438 20.7939 55.3922 20.6286 55.4257C20.462 55.458 20.294 55.4755 20.1247 55.4755C19.9554 55.4755 19.7874 55.458 19.6208 55.4257C19.4555 55.3922 19.2929 55.3438 19.1371 55.2779C18.9799 55.2134 18.8321 55.1342 18.691 55.0401C18.5499 54.946 18.4195 54.8386 18.3 54.719C18.1804 54.598 18.0729 54.4677 17.9788 54.3266C17.8848 54.1855 17.8055 54.0364 17.741 53.8805C17.6751 53.7233 17.6268 53.562 17.5932 53.3954C17.5609 53.2288 17.5435 53.0608 17.5435 52.8915C17.5435 52.7209 17.5609 52.5529 17.5932 52.3877C17.6268 52.221 17.6751 52.0585 17.741 51.9026C17.8055 51.7454 17.8848 51.5962 17.9788 51.4551C18.0729 51.314 18.1804 51.1837 18.3 51.0641C18.4195 50.9445 18.5499 50.837 18.691 50.743C18.8321 50.6489 18.9799 50.5683 19.1371 50.5038C19.2929 50.4393 19.4542 50.3896 19.6208 50.3573C19.7874 50.3237 19.9554 50.3076 20.1247 50.3076C20.294 50.3076 20.462 50.3237 20.6286 50.3573C20.7939 50.3896 20.9551 50.4393 21.1123 50.5038C21.2682 50.5683 21.4173 50.6489 21.5584 50.743C21.6995 50.837 21.8298 50.9445 21.9494 51.0641Z" fill="#1E417C"/>
<path d="M35.8806 51.0641C36.0002 51.1837 36.1077 51.314 36.2017 51.4551C36.2958 51.5962 36.3751 51.7454 36.4396 51.9026C36.5054 52.0585 36.5538 52.221 36.5874 52.3877C36.6196 52.5529 36.6357 52.7209 36.6357 52.8915C36.6357 53.0608 36.6196 53.2288 36.5874 53.3954C36.5538 53.562 36.5054 53.7233 36.4396 53.8805C36.3751 54.0364 36.2958 54.1855 36.2017 54.3266C36.1077 54.4677 36.0002 54.598 35.8806 54.7176C35.761 54.8386 35.6307 54.9447 35.4896 55.0401C35.3485 55.1342 35.1993 55.2134 35.0435 55.2779C34.8863 55.3438 34.725 55.3922 34.5597 55.4257C34.3931 55.458 34.2252 55.4755 34.0558 55.4755C33.8865 55.4755 33.7186 55.458 33.552 55.4257C33.3867 55.3922 33.2241 55.3438 33.0682 55.2779C32.911 55.2134 32.7632 55.1342 32.6221 55.0401C32.481 54.946 32.3507 54.8386 32.2311 54.719C32.1115 54.598 32.004 54.4677 31.91 54.3266C31.8159 54.1855 31.7366 54.0364 31.6721 53.8805C31.6063 53.7233 31.5579 53.562 31.5243 53.3954C31.4921 53.2288 31.4746 53.0608 31.4746 52.8915C31.4746 52.7209 31.4921 52.5529 31.5243 52.3877C31.5579 52.221 31.6063 52.0585 31.6721 51.9026C31.7366 51.7454 31.8159 51.5962 31.91 51.4551C32.004 51.314 32.1115 51.1837 32.2311 51.0641C32.3507 50.9445 32.481 50.837 32.6221 50.743C32.7632 50.6489 32.911 50.5683 33.0682 50.5038C33.2241 50.4393 33.3853 50.3896 33.552 50.3573C33.7186 50.3237 33.8865 50.3076 34.0558 50.3076C34.2252 50.3076 34.3931 50.3237 34.5597 50.3573C34.725 50.3896 34.8863 50.4393 35.0435 50.5038C35.1993 50.5683 35.3485 50.6489 35.4896 50.743C35.6307 50.837 35.761 50.9445 35.8806 51.0641Z" fill="#1E417C"/>
<mask id="mask0_58624_18422" style="mask-type:luminance" maskUnits="userSpaceOnUse" x="0" y="55" width="13" height="28">
<path d="M0 55.7256H12.4829V82.9999H0V55.7256Z" fill="white"/>
</mask>
<g mask="url(#mask0_58624_18422)">
<path d="M10.0738 56.0547H2.33143C1.04417 56.0547 0.00146484 57.0987 0.00146484 58.3887V68.6948C0.00146484 69.3223 0.483851 69.8638 1.11001 69.8934C1.77917 69.9243 2.33143 69.3909 2.33143 68.7271V60.0965C2.33143 59.9366 2.46177 59.8049 2.62301 59.8049C2.78426 59.8049 2.91459 59.9366 2.91459 60.0965V81.4814C2.91459 82.2984 3.58241 82.9931 4.39938 82.9783C5.19081 82.9635 5.82772 82.3159 5.82772 81.519V69.5575C5.82772 69.3277 6.0145 69.1409 6.24427 69.1409C6.47404 69.1409 6.66081 69.3277 6.66081 69.5575V81.4814C6.66081 82.2984 7.32863 82.9931 8.1456 82.9783C8.93703 82.9635 9.57394 82.3159 9.57394 81.519V60.0549C9.57394 59.9178 9.68547 59.8049 9.82387 59.8049C9.96227 59.8049 10.0738 59.9178 10.0738 60.0549V68.6948C10.0738 69.3223 10.5562 69.8638 11.1823 69.8934C11.8515 69.9243 12.4051 69.3909 12.4051 68.7271V58.3887C12.4051 57.0987 11.3611 56.0547 10.0738 56.0547Z" fill="#1E417C"/>
</g>
<mask id="mask1_58624_18422" style="mask-type:luminance" maskUnits="userSpaceOnUse" x="13" y="55" width="14" height="28">
<path d="M13.8589 55.7256H26.5864V82.9999H13.8589V55.7256Z" fill="white"/>
</mask>
<g mask="url(#mask1_58624_18422)">
<path d="M24.1206 56.0547H16.3782C15.0909 56.0547 14.0469 57.0987 14.0469 58.3887V68.6948C14.0469 69.3223 14.5293 69.8638 15.1568 69.8934C15.8259 69.9243 16.3782 69.3909 16.3782 68.7271V60.0965C16.3782 59.9366 16.5085 59.8049 16.6698 59.8049C16.831 59.8049 16.9613 59.9366 16.9613 60.0965V81.4814C16.9613 82.2984 17.6292 82.9931 18.4461 82.9783C19.2376 82.9635 19.8745 82.3159 19.8745 81.519V69.5575C19.8745 69.3277 20.0613 69.1409 20.291 69.1409C20.5208 69.1409 20.7076 69.3277 20.7076 69.5575V81.4814C20.7076 82.2984 21.3754 82.9931 22.191 82.9783C22.9838 82.9635 23.6207 82.3159 23.6207 81.519V60.0549C23.6207 59.9178 23.7322 59.8049 23.8706 59.8049C24.0077 59.8049 24.1206 59.9178 24.1206 60.0549V68.6948C24.1206 69.3223 24.6016 69.8638 25.2291 69.8934C25.8983 69.9243 26.4505 69.3909 26.4505 68.7271V58.3887C26.4519 57.0987 25.4078 56.0547 24.1206 56.0547Z" fill="#1E417C"/>
</g>
<path d="M40.4978 68.7265V58.3867C40.4978 57.0981 39.4537 56.0527 38.1664 56.0527H30.4241C29.1368 56.0527 28.0928 57.0981 28.0928 58.3867V68.6929C28.0928 69.3217 28.5752 69.8632 29.2027 69.8914C29.8718 69.9237 30.4241 69.3902 30.4241 68.7265V60.0959C30.4241 59.9347 30.5544 59.8043 30.7157 59.8043C30.8769 59.8043 31.0072 59.9347 31.0072 60.0959V81.4808C31.0072 82.2978 31.6751 82.9925 32.492 82.9777C33.2835 82.9629 33.9204 82.3152 33.9204 81.5184V69.5569C33.9204 69.3271 34.1071 69.1403 34.3369 69.1403C34.5667 69.1403 34.7535 69.3271 34.7535 69.5569V81.4808C34.7535 82.2978 35.4213 82.9925 36.2369 82.9777C37.0297 82.9629 37.6666 82.3152 37.6666 81.5184V60.0543C37.6666 59.9159 37.7781 59.8043 37.9165 59.8043C38.0536 59.8043 38.1651 59.9172 38.1651 60.0543V68.6929C38.1651 69.3217 38.6475 69.8632 39.275 69.8914C39.9455 69.9237 40.4978 69.3902 40.4978 68.7265Z" fill="#1E417C"/>
<path d="M49.792 52.5423V58.6023C49.792 58.9154 49.9479 59.2097 50.2072 59.3844L53.1902 61.4012C53.3528 61.5101 53.5355 61.5625 53.7169 61.5625C54.0206 61.5625 54.3176 61.4174 54.5003 61.1473C54.7919 60.7146 54.6777 60.1274 54.2463 59.8358L51.6785 58.0998V52.5409C51.6785 52.0196 51.2566 51.5977 50.7353 51.5977C50.2139 51.5977 49.792 52.0196 49.792 52.5423Z" fill="#1E417C"/>
<path d="M25.1942 42.3931H33.1516C33.673 42.3931 34.0949 41.9699 34.0949 41.4485C34.0949 40.9272 33.673 40.5039 33.1516 40.5039H25.1942C24.6742 40.5039 24.251 40.9272 24.251 41.4485C24.251 41.9699 24.6742 42.3931 25.1942 42.3931Z" fill="#1E417C"/>
<path d="M23.3886 37.234H44.5262C45.0463 37.234 45.4695 36.8107 45.4695 36.2893C45.4695 35.768 45.0463 35.3447 44.5262 35.3447H23.3886C22.8686 35.3447 22.4453 35.768 22.4453 36.2893C22.4453 36.8107 22.8686 37.234 23.3886 37.234Z" fill="#1E417C"/>
<path d="M25.1943 37.234H46.3319C46.8519 37.234 47.2752 36.8107 47.2752 36.2893C47.2752 35.768 46.8519 35.3447 46.3319 35.3447H25.1943C24.6742 35.3447 24.251 35.768 24.251 36.2893C24.251 36.8107 24.6742 37.234 25.1943 37.234Z" fill="#1E417C"/>
<path d="M10.0615 44.506C10.0615 45.0274 10.4834 45.4507 11.0048 45.4507H19.2107C19.7307 45.4507 20.154 45.0274 20.154 44.506V36.2893C20.154 35.768 19.7307 35.3447 19.2107 35.3447H11.0048C10.4834 35.3447 10.0615 35.768 10.0615 36.2893V44.506ZM11.9481 37.234H18.2675V43.5614H11.9481V37.234Z" fill="#1E417C"/>
<path d="M25.1942 25.108H33.1516C33.673 25.108 34.0949 24.6847 34.0949 24.1634C34.0949 23.642 33.673 23.2188 33.1516 23.2188H25.1942C24.6742 23.2188 24.251 23.642 24.251 24.1634C24.251 24.6847 24.6742 25.108 25.1942 25.108Z" fill="#1E417C"/>
<path d="M46.3319 19.9488C46.8519 19.9488 47.2752 19.5255 47.2752 19.0042C47.2752 18.4828 46.8519 18.0596 46.3319 18.0596H25.1943C24.6742 18.0596 24.251 18.4828 24.251 19.0042C24.251 19.5255 24.6742 19.9488 25.1943 19.9488H46.3319Z" fill="#1E417C"/>
<path d="M19.2107 18.0596H11.0048C10.4834 18.0596 10.0615 18.4828 10.0615 19.0042V27.2209C10.0615 27.7422 10.4834 28.1655 11.0048 28.1655H19.2107C19.7321 28.1655 20.154 27.7422 20.154 27.2209V19.0042C20.154 18.4828 19.7321 18.0596 19.2107 18.0596ZM18.2675 26.2763H11.9481V19.9488H18.2675V26.2763Z" fill="#1E417C"/>
<path d="M69.7781 33.29L67.3514 31.9705V30.0087L69.7781 28.6892C70.1772 28.4715 70.3653 27.9999 70.2256 27.5672L69.16 24.2832C69.019 23.8506 68.5903 23.5791 68.1388 23.6383L65.4017 23.9997L64.2502 22.4128L65.438 19.9162C65.6342 19.5051 65.5092 19.0133 65.1411 18.7459L62.3515 16.7169C61.9834 16.4482 61.4781 16.4818 61.1476 16.7948L59.1455 18.6988L57.2818 18.0928L56.7779 15.3732C56.6959 14.9258 56.3049 14.6019 55.8507 14.6019H53.2803V10.9121C53.2803 9.23521 51.9433 7.87136 50.2973 7.87136H39.8689V4.8803C39.8689 4.35894 39.4456 3.93568 38.9256 3.93568H32.1722C31.722 1.69574 29.7025 0 27.2865 0C24.8692 0 22.8496 1.69574 22.3995 3.93568H15.6461C15.1261 3.93568 14.7028 4.35894 14.7028 4.8803V7.87136H4.27438C2.6297 7.87136 1.29004 9.23521 1.29004 10.9121V50.011C1.29004 50.5323 1.7133 50.9556 2.23331 50.9556C2.75467 50.9556 3.17659 50.5323 3.17659 50.011V10.9121C3.17659 10.2766 3.66972 9.7606 4.27438 9.7606H14.7915C15.2268 11.9992 17.2397 13.6963 19.6489 13.6963H34.9214C37.332 13.6963 39.3435 11.9992 39.7802 9.7606H50.2973C50.9019 9.7606 51.3937 10.2766 51.3937 10.9121V47.3827C50.4813 47.4808 49.5932 47.7106 48.7439 48.0693C47.6247 48.5436 46.6196 49.2222 45.7569 50.0862C44.8943 50.9502 44.2157 51.9566 43.7427 53.0773C43.2523 54.2382 43.0037 55.4704 43.0037 56.7402C43.0037 58.01 43.2523 59.2421 43.7427 60.4031C44.2157 61.5237 44.8943 62.5302 45.7569 63.3942C46.6196 64.2581 47.6247 64.9367 48.7439 65.411C49.5932 65.7698 50.4813 65.9996 51.3937 66.0977V67.7974C51.3937 68.433 50.9019 68.949 50.2973 68.949H41.2408C40.7208 68.949 40.2975 69.3722 40.2975 69.8936C40.2975 70.415 40.7208 70.8382 41.2408 70.8382H50.2973C51.9419 70.8382 53.2803 69.4744 53.2803 67.7974V66.1098C54.2397 66.0211 55.1708 65.7873 56.0604 65.411C57.1797 64.9367 58.1847 64.2581 59.0474 63.3942C59.91 62.5302 60.5886 61.5237 61.0616 60.4031C61.552 59.2421 61.8006 58.01 61.8006 56.7402C61.8006 55.4704 61.552 54.2382 61.0616 53.0773C60.5886 51.9566 59.91 50.9502 59.0474 50.0862C58.1847 49.2222 57.1797 48.5436 56.0604 48.0707C55.1937 47.7025 54.2853 47.4714 53.3515 47.3773H55.8507C56.3049 47.3773 56.6946 47.0521 56.7779 46.6047L57.2818 43.8864L59.1441 43.2804L61.1476 45.1831C61.4781 45.4961 61.9834 45.5297 62.3515 45.2623L65.1411 43.2334C65.5092 42.9646 65.6342 42.4728 65.438 42.0617L64.2488 39.5664L65.4017 37.9795L68.1388 38.3396C68.5903 38.3988 69.019 38.1287 69.1587 37.696L70.2243 34.412C70.3653 33.978 70.1772 33.5064 69.7781 33.29ZM37.9823 8.84957C37.9823 10.4808 36.609 11.807 34.9214 11.807H19.6489C17.9626 11.807 16.5893 10.4808 16.5893 8.84957V5.82491H23.2487C23.77 5.82491 24.192 5.40165 24.192 4.8803C24.192 3.23024 25.58 1.88789 27.2852 1.88789C28.9916 1.88789 30.3797 3.23024 30.3797 4.8803C30.3797 5.40165 30.8016 5.82491 31.323 5.82491H37.9823V8.84957ZM53.2803 25.8258C53.5597 25.7815 53.8419 25.7573 54.1268 25.7573C57.0077 25.7573 59.3511 28.1047 59.3511 30.9896C59.3511 33.8732 57.0077 36.2206 54.1268 36.2206C53.8419 36.2206 53.5597 36.1978 53.2803 36.1521V25.8258ZM57.7145 51.4218C59.1334 52.8421 59.9141 54.7314 59.9141 56.7402C59.9141 58.749 59.1334 60.6382 57.7145 62.0585C56.2955 63.4788 54.409 64.2608 52.4028 64.2608C50.3967 64.2608 48.5101 63.4788 47.0912 62.0585C45.6723 60.6382 44.8916 58.749 44.8916 56.7402C44.8916 54.7314 45.6723 52.8421 47.0912 51.4218C48.5101 50.0016 50.3967 49.2182 52.4028 49.2182C54.409 49.2182 56.2955 50.0016 57.7145 51.4218ZM67.6081 36.3644L65.0913 36.0325C64.7487 35.9868 64.4087 36.1333 64.2045 36.4141L62.3932 38.9107C62.1903 39.1902 62.1567 39.5597 62.3059 39.8714L63.3983 42.1651L61.8772 43.2723L60.0364 41.5228C59.7851 41.2837 59.425 41.2017 59.0958 41.3092L56.1652 42.2632C55.836 42.3694 55.5914 42.6489 55.5283 42.9888L55.066 45.4881H53.2803V38.0588C53.5611 38.0924 53.8433 38.1099 54.1268 38.1099C56.0254 38.1099 57.8112 37.3681 59.1549 36.0244C60.4972 34.6794 61.2376 32.8909 61.2376 30.9896C61.2376 29.087 60.4972 27.2998 59.1549 25.9548C57.8112 24.6098 56.0254 23.8694 54.1268 23.8694C53.8433 23.8694 53.5611 23.8855 53.2803 23.9191V16.4898H55.066L55.5283 18.9891C55.5914 19.329 55.836 19.6085 56.1652 19.716L59.0958 20.6687C59.425 20.7762 59.7851 20.6942 60.0364 20.4564L61.8772 18.7069L63.3983 19.8128L62.3059 22.1065C62.1567 22.4195 62.1903 22.7877 62.3932 23.0685L64.2045 25.5651C64.4087 25.8446 64.7487 25.9911 65.0913 25.9454L67.6081 25.6135L68.1886 27.4033L65.958 28.6167C65.6543 28.7819 65.4649 29.1004 65.4649 29.4457V32.5322C65.4649 32.8789 65.6543 33.1973 65.958 33.3626L68.1886 34.5746L67.6081 36.3644Z" fill="#1E417C"/>
</svg>
