<svg width="70" height="84" viewBox="0 0 70 84" fill="none" xmlns="http://www.w3.org/2000/svg">
<path fill-rule="evenodd" clip-rule="evenodd" d="M64.6693 16.0346C66.2046 16.0346 67.4498 17.2821 67.4498 18.8166C67.4498 20.3515 66.2046 21.5991 64.6693 21.5991C63.1336 21.5991 61.8856 20.3515 61.8856 18.8166C61.8856 17.2821 63.1336 16.0346 64.6693 16.0346ZM65.8183 43.9566C65.8183 47.057 64.564 49.8824 62.5374 51.9391V50.8183C62.5374 47.7084 60.7672 44.9911 58.1783 43.6354C59.0618 42.709 59.6055 41.4615 59.6055 40.078C59.6055 37.2307 57.2853 34.9085 54.4341 34.9085C51.5825 34.9085 49.2622 37.2307 49.2622 40.078C49.2622 41.4615 49.8027 42.709 50.6894 43.6354C48.1005 44.9911 46.3271 47.7084 46.3271 50.8183V51.9391C44.3038 49.8824 43.0494 47.057 43.0494 43.9566C43.0494 37.6786 48.1561 32.5739 54.4341 32.5739C60.7116 32.5739 65.8183 37.6786 65.8183 43.9566ZM51.7895 40.078C51.7895 41.5354 52.9759 42.7213 54.4341 42.7213C55.8891 42.7213 57.0754 41.5354 57.0754 40.078C57.0754 38.6174 55.8891 37.4346 54.4341 37.4346C52.9759 37.4346 51.7895 38.6174 51.7895 40.078ZM48.8576 53.8663C52.3086 55.83 56.5596 55.8269 60.0101 53.8663V50.8183C60.0101 47.7485 57.5079 45.2443 54.4341 45.2443C51.3567 45.2443 48.8576 47.7485 48.8576 50.8183V53.8663ZM42.3913 58.3963L45.2831 54.4219C43.9298 53.2391 42.8054 51.7877 41.9927 50.1697L28.2016 55.5308C28.6467 57.0899 28.8073 58.591 28.7083 60.24L35.4771 61.2837C36.5863 58.6093 39.6049 57.2938 42.3913 58.3963ZM40.383 66.101C38.8477 66.101 37.5998 64.8535 37.5998 63.3186C37.5998 61.7841 38.8477 60.5393 40.383 60.5393C41.9156 60.5393 43.1667 61.7841 43.1667 63.3186C43.1667 64.8535 41.9187 66.101 40.383 66.101ZM22.9279 67.3271V66.2183C22.9279 63.0964 21.1578 60.3883 18.5688 59.0354C19.4524 58.1089 19.9992 56.8522 19.9992 55.4656C19.9992 52.6187 17.6762 50.2965 14.8246 50.2965C11.973 50.2965 9.65272 52.6187 9.65272 55.4656C9.65272 56.8522 10.1964 58.1089 11.0799 59.0354C8.49101 60.3883 6.72082 63.0964 6.72082 66.2183V67.3271C4.69428 65.2704 3.44314 62.4569 3.44314 59.3442C3.44314 53.0786 8.54983 47.9743 14.8246 47.9743C21.1021 47.9743 26.2088 53.0786 26.2088 59.3442C26.2088 62.4569 24.9577 65.2704 22.9279 67.3271ZM33.7192 78.1537C33.7192 79.6883 32.4744 80.9358 30.9387 80.9358C29.4034 80.9358 28.1555 79.6883 28.1555 78.1537C28.1555 76.6188 29.4034 75.3713 30.9387 75.3713C32.4744 75.3713 33.7192 76.6188 33.7192 78.1537ZM12.18 55.4656C12.18 56.9266 13.3664 58.1089 14.8246 58.1089C16.2828 58.1089 17.4691 56.9266 17.4691 55.4656C17.4691 54.0173 16.2828 52.8222 14.8246 52.8222C13.3664 52.8222 12.18 54.0173 12.18 55.4656ZM9.25131 69.2662C12.7114 71.2117 16.9378 71.2149 20.3979 69.2662V66.2183C20.3979 63.1397 17.8984 60.6442 14.8246 60.6442C11.7504 60.6442 9.25131 63.1397 9.25131 66.2183V69.2662ZM8.04945 33.4698C9.96789 32.3148 10.9937 30.0387 10.4901 27.7785L13.765 26.1692C15.3929 28.8003 17.8769 30.8602 20.8271 31.9472L17.1754 45.6397C15.3651 45.3369 13.6875 45.3738 11.8959 45.757L8.04945 33.4698ZM2.5195 28.9302C2.5195 30.4647 3.76745 31.7123 5.30276 31.7123C6.83846 31.7123 8.08641 30.4647 8.08641 28.9302C8.08641 27.3953 6.83846 26.1478 5.30276 26.1478C3.76745 26.1478 2.5195 27.3953 2.5195 28.9302ZM25.619 7.50831C19.3411 7.50831 14.2344 12.613 14.2344 18.8909C14.2344 21.9914 15.4887 24.8167 17.5152 26.8735V25.7555C17.5152 22.6428 19.2854 19.9255 21.8743 18.573C20.9908 17.6434 20.444 16.399 20.444 15.0123C20.444 12.156 22.7642 9.84286 25.619 9.84286C28.4706 9.84286 30.7905 12.156 30.7905 15.0123C30.7905 16.399 30.2468 17.6434 29.3633 18.573C31.9522 19.9255 33.7224 22.6428 33.7224 25.7555V26.8735C35.7489 24.8167 37.0032 21.9914 37.0032 18.8909C37.0032 12.613 31.8965 7.50831 25.619 7.50831ZM25.619 20.1818C22.5448 20.1818 20.0425 22.6861 20.0425 25.7527V28.8003C23.4935 30.7644 27.7445 30.7644 31.1923 28.8003V25.7527C31.1923 22.6861 28.6928 20.1818 25.619 20.1818ZM22.9744 15.0123C22.9744 13.5518 24.1608 12.369 25.619 12.369C27.0772 12.369 28.2604 13.5518 28.2604 15.0123C28.2604 16.4729 27.0772 17.6557 25.619 17.6557C24.1608 17.6557 22.9744 16.4729 22.9744 15.0123ZM41.069 47.8137C39.8644 43.6664 40.6704 39.2751 43.1452 35.8349L35.2175 28.9394C32.0726 31.944 27.735 33.343 23.2741 32.5958L19.6225 46.2911C22.9681 47.5264 25.7116 50.0092 27.2871 53.1744L41.069 47.8137ZM44.8999 17.4208L39.515 18.1867C39.6788 21.46 38.6995 24.5326 36.886 27.0341L44.8073 33.9264C46.5095 32.2961 48.6227 31.0824 50.9736 30.4866L49.4013 20.7343C47.3561 20.5737 45.6352 19.2431 44.8999 17.4208ZM49.8278 12.6559C51.3599 12.6559 52.611 13.9039 52.611 15.4384C52.611 16.9733 51.3599 18.2209 49.8278 18.2209C48.2921 18.2209 47.0441 16.9733 47.0441 15.4384C47.0441 13.9039 48.2921 12.6559 49.8278 12.6559ZM7.32651 8.10725C5.79121 8.10725 4.54603 6.85969 4.54603 5.32518C4.54603 3.79028 5.79121 2.54272 7.32651 2.54272C8.86182 2.54272 10.1102 3.79028 10.1102 5.32518C10.1102 6.85969 8.86182 8.10725 7.32651 8.10725ZM64.6693 24.122C67.598 24.122 69.9799 21.735 69.9799 18.8166C69.9799 15.8863 67.598 13.4993 64.6693 13.4993C61.7402 13.4993 59.3551 15.8863 59.3551 18.8166C59.3551 20.5737 60.2236 22.1428 61.5518 23.1121L58.484 30.6472C56.8775 30.1655 55.194 29.9648 53.4731 30.082L51.8976 20.3301C53.8006 19.5209 55.1383 17.6342 55.1383 15.4384C55.1383 12.5172 52.7565 10.1302 49.8278 10.1302C47.0751 10.1302 44.8041 12.2299 44.5414 14.9166L39.1538 15.6824C37.7015 9.55591 32.1871 4.98537 25.619 4.98537C21.5039 4.98537 17.7994 6.78577 15.2506 9.62984L12.2261 7.38193C13.6815 3.9727 11.1821 0.0166016 7.32651 0.0166016C4.39779 0.0166016 2.01594 2.39447 2.01594 5.32518C2.01594 9.81822 7.26769 12.2545 10.7155 9.41681L13.74 11.6556C11.4972 15.3243 11.0708 19.8512 12.6434 23.8999L9.36855 25.5087C8.39244 24.3569 6.93424 23.6125 5.30276 23.6125C2.37403 23.6125 -0.0078125 25.9995 -0.0078125 28.9302C-0.0078125 31.8605 2.37403 34.2352 5.30276 34.2352C5.41722 34.2352 5.52532 34.2352 5.6366 34.2261L9.48301 46.5042C4.45343 48.601 0.912654 53.5698 0.912654 59.3442C0.912654 67.0183 7.15363 73.2529 14.8278 73.2529C17.8244 73.2529 20.5986 72.3019 22.8723 70.6835L26.6261 75.0625C24.133 78.4963 26.5705 83.4619 30.9387 83.4619C33.8678 83.4619 36.2497 81.0841 36.2497 78.1537C36.2497 74.2195 32.1004 71.6195 28.5445 73.4103L24.7939 69.0317C26.4779 67.3053 27.7135 65.1404 28.3192 62.7351L35.0943 63.7788C35.3288 66.4961 37.6089 68.6272 40.383 68.6272C44.8876 68.6272 47.3497 63.3309 44.4365 59.8879L47.3283 55.9012C49.4104 57.1487 51.8388 57.8621 54.4341 57.8621C62.105 57.8621 68.3456 51.618 68.3456 43.9566C68.3456 38.5864 65.2901 33.9264 60.8261 31.6042L63.8967 24.0696C64.1502 24.1033 64.4034 24.122 64.6693 24.122Z" fill="#1E417C"/>
</svg>
