<svg width="76" height="76" viewBox="0 0 76 76" fill="none" xmlns="http://www.w3.org/2000/svg">
<path d="M16.7994 59.1943L4.05324 60.8443C2.27098 61.0774 2.01556 63.0091 2.72497 64.1007C3.06392 64.6167 3.67667 64.9412 4.53653 64.761L17.1431 62.1078C18.9354 61.7312 18.6109 58.9633 16.7994 59.1943ZM3.76502 58.5767L11.3249 57.6015C11.1954 55.7713 11.7885 54.1457 13.0201 52.9103C14.0833 51.8519 15.5459 51.1964 17.1628 51.1964C19.2893 51.1964 20.7291 52.0321 21.8754 53.6297C23.0222 52.0321 24.462 51.1964 26.5836 51.1964C29.8201 51.1964 32.443 53.8212 32.443 57.0527C32.443 57.2298 32.433 57.41 32.4247 57.6002L39.9845 58.575C40.4481 58.6358 40.8675 58.7521 41.2375 58.9144C40.0733 52.1139 34.569 46.893 27.7204 46.0901L22.3246 51.4833C21.8789 51.9289 21.1599 51.9289 20.7125 51.4833L15.405 46.1789C8.81702 47.2193 3.63381 52.3435 2.50541 58.9157C2.88373 58.7534 3.30141 58.6371 3.76502 58.5767ZM13.6048 57.305L16.5124 56.928C21.2202 56.3201 22.2524 63.3712 17.6133 64.3513L17.1121 64.4527C18.5471 66.2095 20.2095 67.8989 21.8754 69.5717C23.5842 67.853 25.2567 66.1391 26.6392 64.4527L26.138 64.3513C21.4988 63.3712 22.5293 56.3201 27.2336 56.928L30.1447 57.305C30.1823 56.209 29.8481 55.2749 29.1046 54.5376C28.4591 53.8916 27.5682 53.4919 26.5836 53.4919C24.6094 53.4919 23.8116 54.5507 22.8962 56.3857C22.4785 57.2215 21.2762 57.2363 20.8533 56.3905C19.9344 54.5555 19.1401 53.4919 17.1611 53.4919C15.1973 53.4919 13.6 55.0895 13.6 57.0544C13.6 57.1414 13.6 57.2263 13.6048 57.305ZM14.6125 64.9788L11.0135 65.7358V73.7062H32.7343V65.7358L29.1357 64.9788C27.3237 67.3614 25.0026 69.6849 22.6815 72.0067C22.2358 72.4524 21.512 72.4524 21.0615 72.0067C18.9075 69.8503 16.4503 67.3973 14.6125 64.9788ZM8.72036 66.2178L5.00014 66.9976C2.34796 67.5595 0.49222 65.7997 0.133144 63.5746C0.062728 63.1469 0.0496069 62.706 0.100779 62.2735C0.0399849 62.1392 0.00237161 61.9849 0.00237161 61.8279C-0.141959 52.9138 6.31704 45.2727 15.0971 43.9026L16.5601 41.366C15.3071 40.3405 14.0619 38.8999 12.8447 37.019C12.2503 36.1045 11.9621 35.1704 11.9621 34.0972V28.8816C11.1954 26.0612 11.0659 24.0276 11.6131 22.3776C12.2027 20.613 13.4938 19.4103 15.5363 18.3091C15.559 18.296 15.5774 18.2859 15.6019 18.2763C17.1151 17.5748 18.7452 17.2258 20.3652 17.2228C26.6016 3.24657 42.7561 -3.58978 57.2158 1.88997C64.7245 4.73786 70.3708 10.3584 73.4258 17.1388C76.4813 23.9244 76.951 31.8817 74.109 39.3884C69.329 52.0089 56.5702 59.5892 43.3868 57.9636C43.6426 59.2271 43.7668 60.5185 43.7441 61.8279C43.7441 61.9849 43.7065 62.1392 43.6457 62.2735C43.6916 62.706 43.6833 63.1469 43.6129 63.5746C43.2507 65.7997 41.3981 67.5595 38.7415 66.9976L35.0213 66.2178V74.8533C35.0213 75.4888 34.51 76 33.8745 76H9.86669C9.23601 76 8.72036 75.4888 8.72036 74.8533V66.2178ZM39.6963 60.8443L26.9506 59.196C25.1403 58.9633 24.8145 61.7325 26.6016 62.1078L39.213 64.761C40.9218 65.1232 41.6277 63.4744 41.3163 62.2341C41.1492 61.5541 40.6252 60.9641 39.6963 60.8443ZM18.0721 19.8148C19.1777 21.3993 19.5399 23.3266 19.2792 25.2504C22.2179 27.364 25.9149 27.9308 29.388 26.9774C28.4919 21.747 23.1696 18.4727 18.0721 19.8148ZM16.9384 25.3799C17.2678 23.7163 17.004 22.022 15.908 20.7442C14.8024 21.4356 14.1013 22.1646 13.7868 23.1036C13.4426 24.1295 13.5034 25.4813 13.9407 27.3623C15.0398 26.9971 16.2522 26.2908 16.9384 25.3799ZM22.7751 17.4751C27.7024 18.5203 31.4209 22.6544 31.7826 27.7082C31.8154 28.2146 31.5176 28.6651 31.0719 28.8453V34.0989C31.0719 35.1721 30.7837 36.1063 30.1888 37.0203C29.4978 38.0939 28.7818 39.0359 28.0479 39.8489C30.1888 37.9216 32.6215 35.9012 33.4538 31.8309C33.8583 29.8516 34.7344 29.3451 35.9747 29.5975C37.3441 29.8809 38.7332 31.5392 40.3025 32.0028C42.114 32.542 44.4076 31.2003 47.0449 22.2761C47.4626 20.8636 48.3456 20.2132 49.4412 20.1214C53.1794 19.8196 58.747 27.5805 53.8197 31.2886C51.841 32.7747 50.026 35.0379 49.2037 37.2761C47.1971 42.7428 52.3702 43.9371 57.6138 43.7552C61.0865 43.634 61.8348 48.3122 62.1038 51.1636C66.4726 48.163 69.9925 43.844 71.9943 38.5068C70.6429 38.641 69.1064 38.4967 68.0432 37.7349C66.854 36.8795 66.641 35.5294 67.2638 34.1908C68.4858 31.5703 68.9166 29.5551 68.7443 28.1849C68.6183 27.1624 68.1875 26.5414 67.1803 26.5134C66.2937 26.4907 65.1277 26.8939 63.768 27.7673C60.4392 29.8988 57.7642 26.1513 57.8578 22.6579C57.9038 20.8325 58.7081 19.189 60.5227 18.7381C65.7007 17.462 65.0783 11.8314 64.7525 9.08668C62.3706 6.96475 59.571 5.23117 56.408 4.03332C54.128 3.1696 51.8065 2.63562 49.4937 2.41258C48.2358 4.87868 46.0341 6.50905 43.0955 6.63063C42.4123 6.65818 41.9863 6.87641 41.8783 7.46637C41.7768 8.04627 42.0406 8.94761 42.4534 9.20301C47.1022 12.0741 45.6195 16.7181 42.3646 19.7099C40.3681 21.5405 37.7636 22.6465 36.0959 22.1484C32.8541 21.1815 33.4078 19.4086 34.2611 16.6818C35.0178 14.2616 36.109 10.7551 33.044 6.16006C28.7145 8.7788 25.0927 12.6391 22.7751 17.4751ZM28.7783 29.468C25.1338 30.1463 21.358 29.4256 18.2654 27.336C17.207 28.4421 15.7213 29.245 14.2587 29.6583V34.0989C14.2587 34.7313 14.4157 35.2408 14.7599 35.7704C16.2732 38.1071 18.7058 41.0743 21.543 41.0516C24.3575 41.0284 26.78 38.0791 28.2758 35.7704C28.6196 35.2408 28.777 34.7296 28.777 34.0989V29.468H28.7783ZM26.5456 41.3022L26.4721 41.363L26.4817 41.3761L26.5456 41.3022ZM24.549 42.6081C22.5621 43.575 20.4916 43.5833 18.485 42.6133L17.235 44.7777L21.5203 49.0613L25.8021 44.7777L24.549 42.6081ZM27.6972 43.4867L27.8826 43.8077C34.6626 44.5599 40.4284 49.1265 42.7185 55.5649C48.7318 56.5265 54.7779 55.3698 59.9135 52.5219C59.8299 51.1421 59.435 45.9821 57.689 46.0429C53.8166 46.1723 51.1286 45.5692 49.3725 44.514C46.3451 42.6933 45.9274 39.5621 47.0545 36.4929C48.0211 33.8496 50.1471 31.1937 52.4503 29.4597C55.3382 27.2901 51.2891 22.2744 49.6231 22.4086C49.4788 22.4218 49.3445 22.5761 49.2431 22.9251C46.0617 33.6647 42.589 35.072 39.6587 34.2039C37.778 33.6467 36.0924 31.9604 35.5159 31.844C35.3585 31.8112 35.7534 31.9932 35.6926 32.2945C34.7541 36.9075 32.1727 39.2196 29.94 41.227C29.0766 42.0002 28.2692 42.7196 27.6972 43.4867ZM35.0672 5.05405C40.7464 13.7027 33.9992 19.1282 36.7528 19.9557C38.4712 20.4669 43.2542 16.8161 43.1099 13.7683C43.0675 12.8538 42.5304 11.9333 41.2524 11.1483C38.8837 9.68495 38.633 4.52969 43.0084 4.34295C44.6713 4.27429 45.9703 3.52034 46.8909 2.28488C42.7613 2.28969 38.7166 3.25662 35.0672 5.05405ZM67.2638 11.6547C67.3618 15.1761 66.5478 19.6067 61.0698 20.9637C59.6169 21.321 60.0071 24.8043 61.2977 25.8452C61.6187 26.1054 62.0412 26.1566 62.5328 25.8399C64.9243 24.308 67.9387 23.4101 69.8224 25.2683C72.0236 27.4279 70.9639 31.6835 69.3439 35.1573C69.1816 35.5014 69.1392 35.7048 69.3815 35.8815C70.1285 36.4207 71.8242 36.2895 72.7855 36.0538C74.4484 29.9041 73.816 23.5772 71.3409 18.083C70.2956 15.7691 68.9262 13.6012 67.2638 11.6547Z" fill="#1E417C"/>
</svg>
