<svg width="70" height="70" viewBox="0 0 70 70" fill="none" xmlns="http://www.w3.org/2000/svg">
<path fill-rule="evenodd" clip-rule="evenodd" d="M34.9989 12.9658C47.168 12.9658 57.0341 22.8306 57.0341 35.0004C57.0341 47.1692 47.168 57.035 34.9989 57.035C22.8287 57.035 12.9637 47.1692 12.9637 35.0004C12.9637 22.8306 22.8309 12.9658 34.9989 12.9658ZM15.3148 5.40304C15.1729 5.93211 14.6299 6.24572 14.1019 6.10492C13.5728 5.96305 13.2581 5.4201 13.4 4.89209L14.4795 0.863216C14.6214 0.33414 15.1643 0.0194672 15.6924 0.161336L19.7214 1.24082C20.2505 1.38269 20.5641 1.92564 20.4233 2.45471C20.2814 2.98272 19.7384 3.2974 19.2093 3.15553L17.4866 2.69365L21.9359 10.3994C22.2079 10.873 22.0458 11.4768 21.5721 11.7488C21.0985 12.0208 20.4947 11.8576 20.2227 11.3839L15.7766 3.6814L15.3148 5.40304ZM3.16056 19.2166C3.30243 19.7446 2.98775 20.2876 2.45866 20.4295C1.93063 20.5713 1.38767 20.2567 1.2458 19.7276L0.166278 15.6987C0.0244046 15.1707 0.339087 14.6277 0.867112 14.4859L4.89611 13.4064C5.4252 13.2645 5.9671 13.5792 6.10897 14.1083C6.25084 14.6363 5.93616 15.1792 5.40813 15.3211L3.68858 15.7808L11.386 20.2247C11.8597 20.4988 12.0207 21.1047 11.7466 21.5772C11.4724 22.0498 10.8665 22.2119 10.394 21.9367L2.69974 17.495L3.16056 19.2166ZM4.77984 37.2319C5.17559 37.6095 5.19052 38.2357 4.81504 38.6303C4.43849 39.0261 3.81232 39.0421 3.41657 38.6666L0.308152 35.7172C-0.104669 35.3257 -0.101468 34.6719 0.310285 34.2804L3.41657 31.3342C3.81232 30.9577 4.43849 30.9737 4.81504 31.3694C5.19266 31.7651 5.17666 32.3913 4.77984 32.7689L3.46777 34.0126H7.16395C7.70905 34.0126 8.15067 34.4543 8.15067 35.0004C8.15067 35.5455 7.70905 35.9882 7.16395 35.9882H3.46777L4.77984 37.2319ZM5.49881 54.6285C6.02683 54.7704 6.34151 55.3133 6.19964 55.8413C6.05777 56.3704 5.51587 56.6851 4.98678 56.5432L0.957784 55.4637C0.429758 55.3218 0.115076 54.7789 0.256949 54.2509L1.33647 50.222C1.47834 49.6929 2.0213 49.3783 2.54933 49.5201C3.07842 49.662 3.3931 50.205 3.25123 50.733L2.78934 52.4567L10.3982 48.0641C10.8719 47.7921 11.4756 47.9542 11.7476 48.4279C12.0197 48.9015 11.8565 49.5052 11.3839 49.7772L3.77819 54.1688L5.49881 54.6285ZM19.2296 66.8111C19.7587 66.6693 20.3006 66.9839 20.4425 67.5119C20.5843 68.041 20.2697 68.584 19.7416 68.7248L15.7126 69.8053C15.1835 69.9472 14.6417 69.6325 14.4998 69.1034L13.4203 65.0746C13.2784 64.5466 13.5931 64.0036 14.1211 63.8617C14.6502 63.7199 15.1921 64.0346 15.334 64.5636L15.7948 66.2821L20.2227 58.6115C20.4969 58.139 21.1028 57.9768 21.5753 58.252C22.0479 58.5251 22.21 59.1321 21.9348 59.6035L17.5079 67.2709L19.2296 66.8111ZM37.2476 65.3583C37.6348 64.9711 38.2641 64.9711 38.6503 65.3583C39.0375 65.7455 39.0375 66.3749 38.6503 66.761L35.7019 69.7104C35.3147 70.0965 34.6853 70.0965 34.2992 69.7104L31.3497 66.761C30.9625 66.3749 30.9625 65.7455 31.3497 65.3583C31.7369 64.9711 32.3663 64.9711 32.7524 65.3583L34.0122 66.6181V62.8345C34.0122 62.2895 34.4549 61.8468 35 61.8468C35.5461 61.8468 35.9878 62.2895 35.9878 62.8345V66.6181L37.2476 65.3583ZM54.7098 64.6447C54.8516 64.1156 55.3946 63.8009 55.9226 63.9428C56.4517 64.0847 56.7664 64.6276 56.6245 65.1556L55.545 69.1845C55.4031 69.7125 54.8602 70.0272 54.3321 69.8853L50.3031 68.8058C49.774 68.664 49.4594 68.1221 49.6012 67.593C49.7431 67.065 50.2861 66.7503 50.8141 66.8911L52.5379 67.3541L48.0609 59.6014C47.7889 59.1278 47.9521 58.524 48.4257 58.252C48.8983 57.98 49.502 58.1432 49.774 58.6158L54.2479 66.3663L54.7098 64.6447ZM66.9717 50.862C66.8298 50.334 67.1445 49.7911 67.6736 49.6492C68.2016 49.5073 68.7446 49.822 68.8864 50.3511L69.966 54.3789C70.1078 54.908 69.7932 55.4509 69.2641 55.5928L65.2361 56.6723C64.707 56.8141 64.1641 56.4995 64.0233 55.9704C63.8814 55.4424 64.1961 54.8994 64.7241 54.7576L66.4437 54.2968L58.6129 49.7751C58.1393 49.502 57.9782 48.8951 58.2523 48.4236C58.5265 47.95 59.1324 47.7889 59.6049 48.0641L67.4336 52.5837L66.9717 50.862ZM65.266 32.7529C64.8788 32.3657 64.8788 31.7374 65.266 31.3502C65.6522 30.963 66.2815 30.963 66.6687 31.3502L69.6171 34.2985C70.0044 34.6857 70.0044 35.3151 69.6171 35.7012L66.6687 38.6506C66.2815 39.0378 65.6522 39.0378 65.266 38.6506C64.8788 38.2634 64.8788 37.634 65.266 37.2479L66.5258 35.9882H62.8349C62.2899 35.9882 61.8472 35.5455 61.8472 35.0004C61.8472 34.4543 62.2899 34.0126 62.8349 34.0126H66.5258L65.266 32.7529ZM64.5897 15.3211C64.0606 15.1792 63.747 14.6363 63.8878 14.1083C64.0297 13.5792 64.5726 13.2645 65.1017 13.4064L69.1297 14.4859C69.6588 14.6277 69.9734 15.1707 69.8316 15.6987L68.752 19.7276C68.6102 20.2567 68.0672 20.5713 67.5381 20.4295C67.0101 20.2876 66.6954 19.7446 66.8373 19.2166L67.2992 17.4929L59.6007 21.9377C59.127 22.2108 58.5233 22.0476 58.2513 21.574C57.9792 21.1004 58.1425 20.4967 58.615 20.2247L66.3114 15.783L64.5897 15.3211ZM50.861 3.02859C50.333 3.16939 49.79 2.85579 49.6482 2.32671C49.5063 1.7987 49.821 1.25576 50.3501 1.11389L54.378 0.0344007C54.9071 -0.107469 55.4501 0.207204 55.5909 0.735214L56.6714 4.76409C56.8133 5.2921 56.4986 5.83504 55.9695 5.97691C55.4415 6.11878 54.8986 5.80411 54.7567 5.2761L54.2959 3.5566L49.774 11.3871C49.501 11.8608 48.894 12.0218 48.4225 11.7466C47.9489 11.4736 47.7878 10.8666 48.063 10.3951L52.5827 2.56672L50.861 3.02859ZM32.7513 4.64249C32.3641 5.02863 31.7348 5.02863 31.3486 4.64249C30.9614 4.25528 30.9614 3.62594 31.3486 3.23979L34.297 0.290406C34.6842 -0.0968018 35.3136 -0.0968018 35.6998 0.290406L38.6492 3.23979C39.0354 3.62594 39.0354 4.25528 38.6492 4.64249C38.262 5.02863 37.6326 5.02863 37.2465 4.64249L35.9867 3.38273V7.16627C35.9867 7.71135 35.544 8.15402 34.9989 8.15402C34.4528 8.15402 34.0111 7.71135 34.0111 7.16627V3.38273L32.7513 4.64249ZM34.9989 9.04897C20.6665 9.04897 9.04671 20.6684 9.04671 35.0004C9.04671 49.3324 20.6665 60.9518 34.9989 60.9518C49.3314 60.9518 60.9511 49.3324 60.9511 35.0004C60.9511 20.6684 49.3324 9.04897 34.9989 9.04897ZM51.9469 18.0529C42.5876 8.69377 27.4103 8.69377 18.0509 18.0529C8.6915 27.412 8.6915 42.5888 18.0509 51.9479C27.4103 61.307 42.5876 61.307 51.9469 51.9479C61.3074 42.5888 61.3074 27.412 51.9469 18.0529ZM34.0069 30.3528V30.7561C33.657 30.8937 33.3423 31.1017 33.081 31.363C31.3763 33.0676 32.5913 35.9924 34.9989 35.9924C35.4011 35.9924 35.7275 36.3178 35.7275 36.721C35.7275 37.4559 34.7653 37.7141 34.3824 37.1146C34.089 36.6538 33.4778 36.5194 33.018 36.8127C32.5572 37.106 32.4228 37.7162 32.7161 38.177C33.0266 38.6634 33.4756 39.0335 34.0069 39.2447V39.649C34.0069 40.1984 34.4506 40.641 34.9989 40.641C35.5472 40.641 35.991 40.1984 35.991 39.649V39.2458C36.3409 39.1082 36.6555 38.9002 36.9158 38.6389C38.6204 36.9343 37.4065 34.0094 34.9989 34.0094C34.5968 34.0094 34.2704 33.6841 34.2704 33.282C34.2704 32.53 35.2901 32.2643 35.6464 32.947C35.8982 33.4334 36.4977 33.6212 36.983 33.3694C37.4684 33.1166 37.6572 32.5172 37.4044 32.0329C37.1057 31.4579 36.5969 31.0025 35.991 30.7625V30.3539C35.991 29.8056 35.5472 29.3619 34.9989 29.3619C34.4517 29.3608 34.0069 29.8046 34.0069 30.3528ZM39.8098 15.5302C42.1438 18.2342 43.5412 22.4402 44.2751 26.2504H53.0446C50.4599 20.9297 45.6149 16.9606 39.8098 15.5302ZM44.6079 28.2344C45.2352 32.6153 45.2352 37.3855 44.6079 41.7664H53.8809C55.4426 37.4111 55.4426 32.5918 53.8809 28.2344H44.6079ZM44.2751 43.7504C43.5412 47.5606 42.1438 51.7666 39.8098 54.4696C45.6149 53.0402 50.4621 49.0711 53.0446 43.7504H44.2751ZM30.1891 54.4696C27.8551 51.7666 26.4577 47.5606 25.7238 43.7504H16.9543C19.5368 49.0711 24.384 53.0402 30.1891 54.4696ZM25.391 41.7664C24.7638 37.3855 24.7638 32.6153 25.391 28.2344H16.118C14.5563 32.5918 14.5563 37.409 16.118 41.7664H25.391ZM25.7238 26.2504C26.4577 22.4402 27.8551 18.2342 30.1891 15.5302C24.384 16.9606 19.5368 20.9297 16.9543 26.2504H25.7238ZM40.5139 20.5127C37.3137 13.1045 32.6831 13.1045 29.4851 20.5127C28.7703 22.165 28.1794 24.1031 27.7431 26.2504H42.2537C41.8195 24.1031 41.2286 22.165 40.5139 20.5127ZM27.3943 28.2344C26.7414 32.5918 26.7414 37.409 27.3943 41.7664H42.6036C43.2575 37.409 43.2575 32.5918 42.6036 28.2344H27.3943ZM27.7431 43.7504C28.1794 45.8966 28.7703 47.8358 29.4851 49.4881C32.6841 56.8963 37.3158 56.8963 40.5139 49.4881C41.2286 47.8358 41.8195 45.8966 42.2558 43.7504H27.7431Z" fill="#1E417C"/>
</svg>
