<svg width="71" height="69" viewBox="0 0 71 69" fill="none" xmlns="http://www.w3.org/2000/svg">
<path d="M22.291 2.66309C24.5532 2.66326 26.3867 4.49656 26.3867 6.75781C26.3867 7.90812 25.9135 9.13651 25.1279 10.0732C24.3433 11.0088 23.3294 11.5634 22.291 11.5635C21.2523 11.5635 20.2378 11.0088 19.4531 10.0732C18.6675 9.13652 18.1943 7.90812 18.1943 6.75781C18.1943 4.4965 20.0283 2.66309 22.291 2.66309Z" stroke="#1E417C" stroke-width="2"/>
<path d="M17.6396 13.5635H26.4668C28.3864 13.5636 29.9414 15.119 29.9414 17.0371V24.3594H14.1641V17.0371L14.1689 16.8584C14.262 15.0233 15.7798 13.5635 17.6396 13.5635Z" stroke="#1E417C" stroke-width="2"/>
<path d="M48.0059 2.66309C50.268 2.66326 52.1016 4.49656 52.1016 6.75781C52.1016 7.90812 51.6283 9.13651 50.8428 10.0732C50.0582 11.0088 49.0442 11.5634 48.0059 11.5635C46.9672 11.5635 45.9527 11.0088 45.168 10.0732C44.3824 9.13652 43.9092 7.90812 43.9092 6.75781C43.9092 4.4965 45.7431 2.66309 48.0059 2.66309Z" stroke="#1E417C" stroke-width="2"/>
<path d="M43.8301 13.5635H52.6562C54.5765 13.5635 56.1318 15.1189 56.1318 17.0371V24.3594H40.3545V17.0371C40.3545 15.119 41.9099 13.5635 43.8301 13.5635Z" stroke="#1E417C" stroke-width="2"/>
<mask id="mask0_58624_8552" style="mask-type:luminance" maskUnits="userSpaceOnUse" x="29" y="0" width="12" height="12">
<path d="M40.4307 0.5V11.2314H30.377V0.5H40.4307Z" fill="white" stroke="white"/>
</mask>
<g mask="url(#mask0_58624_8552)">
<path d="M35.4023 1.00586C37.8612 1.00609 39.8542 2.99891 39.8545 5.45605C39.8545 6.70485 39.3412 8.03524 38.4912 9.04883C37.6422 10.0612 36.5391 10.6678 35.4023 10.668C34.2652 10.668 33.1616 10.0612 32.3125 9.04883C31.4624 8.03525 30.9492 6.70485 30.9492 5.45605C30.9495 2.99881 32.9428 1.00586 35.4023 1.00586Z" stroke="#1E417C" stroke-width="2"/>
</g>
<path d="M30.1133 12.668H40.1826C42.1021 12.668 43.658 14.2234 43.6582 16.1416V24.3584H26.6377V16.1416C26.6379 14.2234 28.1938 12.668 30.1133 12.668Z" stroke="#1E417C" stroke-width="2"/>
<path d="M2.32324 23.3809C3.17864 23.1233 4.08635 23.511 4.49902 24.2842L4.5752 24.4443L10.7422 39.1963L11.3965 40.7627L12.4492 39.4307C12.6419 39.1868 12.8969 38.979 13.2148 38.834V38.835C13.9308 38.5091 14.7646 38.6178 15.3701 39.1055L15.4883 39.209L22.0771 45.3906V45.3916C22.1726 45.4815 22.2731 45.5569 22.3662 45.6191V45.6201C23.631 46.4654 24.3132 47.3688 24.707 48.3662C25.1142 49.3975 25.2423 50.597 25.2754 52.0928C25.3348 54.7769 25.0791 58.2806 26.0645 62.5596H15.3701C15.2005 57.3452 13.6963 54.6656 11.9404 52.7236C11.4921 52.2278 11.0368 51.7884 10.6133 51.3857C10.1818 50.9756 9.79326 50.6121 9.43457 50.2305C8.73494 49.4861 8.19902 48.7268 7.89941 47.6787L7.89355 47.6572L1.08398 25.71C0.79751 24.7866 1.26809 23.8093 2.14258 23.4453L2.32324 23.3809Z" stroke="#1E417C" stroke-width="2"/>
<path d="M65.873 24.4443C66.2174 23.6207 67.094 23.1649 67.9541 23.3379L68.125 23.3809C69.0518 23.6601 69.5984 24.5973 69.4111 25.5254L69.3643 25.71L62.5547 47.6572L62.5488 47.6787C62.2492 48.7268 61.7133 49.4861 61.0137 50.2305C60.655 50.6121 60.2664 50.9756 59.835 51.3857C59.4114 51.7884 58.9561 52.2278 58.5078 52.7236C56.752 54.6656 55.2488 57.3453 55.0791 62.5596H44.3838C45.3691 58.2805 45.1144 54.7768 45.1738 52.0928C45.207 50.5971 45.334 49.3975 45.7412 48.3662C46.1105 47.4313 46.7331 46.5787 47.8516 45.7793L48.082 45.6201L48.084 45.6182C48.1752 45.5569 48.2753 45.4818 48.3711 45.3916L48.3701 45.3906L54.96 39.209C55.5718 38.635 56.4705 38.4872 57.2344 38.835V38.834C57.552 38.979 57.8065 39.187 57.999 39.4307L59.0518 40.7627L59.707 39.1963L65.873 24.4443Z" stroke="#1E417C" stroke-width="2"/>
<path d="M36.9365 25.4922C38.9824 23.1753 41.157 22.5892 42.917 22.9473C44.7098 23.3121 46.289 24.6979 47.0479 26.7539C48.5037 30.6986 46.9174 37.4863 36.5645 43.0869L36.0645 43.3525C36.0035 43.3844 35.916 43.3919 35.8418 43.376L35.7734 43.3525L35.2734 43.0869C24.9204 37.4862 23.3341 30.6986 24.79 26.7539C25.5489 24.698 27.1281 23.3121 28.9209 22.9473C30.6808 22.5893 32.8546 23.1757 34.9004 25.4922V25.4932C35.4361 26.1012 36.4017 26.1012 36.9375 25.4932L36.9365 25.4922Z" stroke="#1E417C" stroke-width="2"/>
<path d="M12.9229 62.9844H28.3916C28.4725 62.9844 28.5371 63.0499 28.5371 63.1299V67.8545C28.537 67.9349 28.472 68 28.3916 68H12.9229C12.8427 67.9999 12.7774 67.9346 12.7773 67.8545V63.1299L12.7891 63.0732C12.8111 63.0213 12.8624 62.9844 12.9229 62.9844Z" stroke="#1E417C" stroke-width="2"/>
<path d="M41.9961 62.9844H57.4648C57.5462 62.9846 57.6104 63.0502 57.6104 63.1299V67.8545C57.6103 67.9345 57.5457 67.9998 57.4648 68H41.9961C41.9157 67.9999 41.8507 67.9348 41.8506 67.8545V63.1299L41.8623 63.0732C41.8843 63.0212 41.9355 62.9844 41.9961 62.9844Z" stroke="#1E417C" stroke-width="2"/>
</svg>
