<svg width="71" height="85" viewBox="0 0 71 85" fill="none" xmlns="http://www.w3.org/2000/svg">
<path d="M15.542 2.44238C15.6926 2.47716 15.8645 2.54382 15.9971 2.66504C16.122 2.77932 16.2276 2.95621 16.2344 3.25195C16.2404 3.51977 16.1652 3.89217 15.9316 4.40039L15.8213 4.62695C15.3513 5.54569 15.1901 6.32817 15.1484 6.88672C15.1277 7.1654 15.1365 7.38777 15.1514 7.54297C15.1588 7.62059 15.1675 7.68188 15.1748 7.72461C15.1784 7.74572 15.1821 7.76234 15.1846 7.77441C15.1858 7.78037 15.1867 7.78538 15.1875 7.78906C15.1879 7.79092 15.1892 7.79269 15.1895 7.79395V7.79688L15.2451 8.02539L15.4766 7.9834H15.4795C15.4816 7.98303 15.4849 7.9822 15.4893 7.98145C15.4979 7.97994 15.5113 7.97749 15.5283 7.97461C15.5623 7.96886 15.6123 7.96117 15.6758 7.95117C15.8036 7.93103 15.9863 7.90369 16.2031 7.87598C16.6378 7.8204 17.2065 7.76245 17.752 7.75293C18.3071 7.74325 18.8023 7.7852 19.1104 7.90527C19.2625 7.96465 19.3331 8.02928 19.3613 8.08105C19.3835 8.12197 19.4018 8.19703 19.3398 8.34473L19.2998 8.44141L19.3398 8.53809V8.53906H19.3408L19.3418 8.54199C19.3429 8.54464 19.3444 8.54896 19.3467 8.55469C19.3513 8.56609 19.3583 8.58347 19.3672 8.60645C19.3852 8.65278 19.4118 8.72242 19.4424 8.81055C19.5036 8.98684 19.5836 9.23932 19.6582 9.54199C19.8083 10.1513 19.933 10.9509 19.8467 11.7373C19.7607 12.5203 19.4674 13.275 18.7979 13.8311C18.1257 14.3892 17.0379 14.777 15.2998 14.748H15.2715L15.2441 14.7529L15.2412 14.7539C15.2381 14.7545 15.2326 14.7556 15.2256 14.7568C15.2112 14.7595 15.1886 14.7631 15.1592 14.7676C15.1 14.7765 15.0117 14.7888 14.9004 14.7979C14.6774 14.816 14.3623 14.8241 13.998 14.7852C13.2687 14.7071 12.3535 14.44 11.5752 13.6914L11.5596 13.6777H11.5586V13.6768H11.5576C11.5567 13.676 11.5551 13.6749 11.5537 13.6738C11.551 13.6717 11.5475 13.6686 11.543 13.665C11.5335 13.6578 11.52 13.6472 11.5029 13.6348C11.4689 13.6099 11.4196 13.5758 11.3564 13.5352C11.2296 13.4536 11.0447 13.3468 10.8105 13.2412C10.4013 13.0567 9.83639 12.8745 9.15723 12.8438L8.8584 12.8408H8.85742C8.85508 12.8409 8.85586 12.8407 8.85449 12.8398C8.85016 12.837 8.83672 12.8257 8.81738 12.7949C8.77607 12.7292 8.73532 12.6139 8.7041 12.4424C8.6425 12.1038 8.63301 11.6355 8.65137 11.1484C8.66958 10.6655 8.71354 10.1802 8.75391 9.81445C8.77383 9.63393 8.79275 9.48308 8.80664 9.37695C8.85904 9.36462 8.9225 9.35166 8.99414 9.33203C9.22083 9.26991 9.53849 9.16777 9.90723 9.00879C10.598 8.71091 11.4738 8.21015 12.2676 7.38574L12.4248 7.21582H12.4258C12.7852 6.81518 13.431 6.06058 14.0518 5.16406C14.6266 4.33389 15.1874 3.36388 15.4736 2.43066C15.4951 2.4345 15.5183 2.43691 15.542 2.44238Z" stroke="#1E417C" stroke-width="0.5"/>
<path d="M8.58264 9.17129C8.58264 9.17129 10.6316 8.83406 12.2394 7.04852C12.9503 6.25598 14.7955 4.06665 15.2955 2.15896C15.2955 2.15896 17.3663 2.15531 16.0438 4.7407C15.136 6.51529 15.4326 7.73758 15.4326 7.73758C15.4326 7.73758 20.226 6.87808 19.5706 8.44125C19.5706 8.44125 22.3934 15.1163 15.2955 14.9978C15.2955 14.9978 13.0615 15.4682 11.4018 13.8717C11.4018 13.8717 10.3982 13.0569 8.86427 13.0902C8.00477 13.1125 8.58264 9.17129 8.58264 9.17129Z" stroke="#1E417C" stroke-width="0.5" stroke-miterlimit="10" stroke-linecap="round" stroke-linejoin="round"/>
<path d="M20.126 1.25195C20.8167 1.25923 21.6275 1.4182 22.5264 1.86816L22.917 2.0791L23.0215 2.13965L23.1338 2.0957L23.1357 2.09473C23.1372 2.09417 23.1396 2.09392 23.1426 2.09277C23.1488 2.09039 23.1583 2.08676 23.1709 2.08203C23.196 2.07258 23.2336 2.05831 23.2822 2.04102C23.3794 2.00643 23.5204 1.95789 23.6943 1.9043C24.0432 1.7968 24.5214 1.66839 25.04 1.58301C25.5605 1.49736 26.1123 1.45677 26.6113 1.51855C27.0624 1.57445 27.4516 1.71293 27.7422 1.95801C27.7289 2.04076 27.7092 2.16113 27.6816 2.31348C27.6253 2.62444 27.5373 3.06864 27.4131 3.59961C27.1643 4.66289 26.7698 6.06948 26.1846 7.44922C25.5981 8.83196 24.8276 10.1706 23.8369 11.1143C22.8909 12.0154 21.7512 12.5493 20.3672 12.4316L20.1387 11.5146L19.8867 12.4307C18.5011 12.5497 17.36 12.0162 16.4131 11.1143C15.4226 10.1706 14.6529 8.83189 14.0664 7.44922C13.4812 6.06942 13.0857 4.66294 12.8369 3.59961C12.7127 3.06868 12.6257 2.62442 12.5693 2.31348C12.5417 2.16095 12.5201 2.04079 12.5068 1.95801C12.7975 1.71253 13.188 1.57446 13.6396 1.51855C14.1385 1.45686 14.6897 1.49741 15.21 1.58301C15.7287 1.66836 16.2067 1.79683 16.5557 1.9043C16.7296 1.95787 16.8705 2.00643 16.9678 2.04102C17.0163 2.05828 17.054 2.07258 17.0791 2.08203C17.0917 2.08675 17.1012 2.0904 17.1074 2.09277C17.1104 2.09391 17.1128 2.09417 17.1143 2.09473L17.1162 2.0957L17.2285 2.13965L17.333 2.0791C18.3873 1.46721 19.3332 1.26062 20.126 1.25195Z" stroke="#1E417C" stroke-width="0.5"/>
<path d="M23.0424 1.86336C21.9495 1.2299 20.9606 1.01157 20.1271 1.00021C19.2899 1.01157 18.3005 1.2299 17.2077 1.86336C17.2077 1.86336 13.6439 0.459274 12.2402 1.86336C12.2402 1.86336 13.8813 13.4203 20.0824 12.6647L20.1271 12.502L20.1677 12.6647C26.3692 13.4203 28.0103 1.86336 28.0103 1.86336C26.6062 0.459274 23.0424 1.86336 23.0424 1.86336Z" stroke="#1E417C" stroke-width="0.5" stroke-miterlimit="10" stroke-linecap="round" stroke-linejoin="round"/>
<path d="M20.1133 11.666L23.0361 11.8115C24.8912 13.8089 27.8885 17.8107 30.3018 22.2266C31.5224 24.46 32.5902 26.7927 33.2861 29.0195C33.9395 31.1102 34.2597 33.0919 34.083 34.8037L34.041 35.1426C33.5215 38.7009 31.1991 40.3275 28.9775 41.0742C27.8636 41.4486 26.7791 41.5989 25.9717 41.6553C25.5685 41.6834 25.235 41.6879 25.0039 41.6855C24.8887 41.6844 24.7988 41.6823 24.7383 41.6797C24.708 41.6784 24.685 41.6767 24.6699 41.6758C24.6624 41.6753 24.6569 41.675 24.6533 41.6748H24.6484L24.541 41.667L24.4609 41.7402C23.1687 42.9368 21.6256 43.3563 20.1221 43.3779H19.8809C18.3739 43.3562 16.8352 42.9368 15.543 41.7402L15.4639 41.667L15.3555 41.6748H15.3506C15.347 41.675 15.3414 41.6754 15.334 41.6758C15.3189 41.6767 15.2958 41.6784 15.2656 41.6797C15.2051 41.6823 15.1152 41.6844 15 41.6855C14.7689 41.6879 14.4354 41.6834 14.0322 41.6553C13.2248 41.5989 12.1403 41.4486 11.0264 41.0742C8.87418 40.3509 6.62712 38.8018 6.0166 35.4707L5.96289 35.1426C5.70188 33.3557 6.01912 31.2496 6.71582 29.0195C7.41156 26.7926 8.48031 24.4601 9.70117 22.2266C12.1145 17.8114 15.1107 13.8092 16.9658 11.8115L19.8906 11.666L20.002 11.6602L20.1133 11.666Z" stroke="#1E417C" stroke-width="0.5"/>
<path d="M23.1525 11.5681L20.126 11.4163V11.4053L20.0002 11.409L19.8776 11.4053V11.4163L16.8512 11.5681C13.1206 15.5466 4.64086 27.8222 5.71543 35.1787C6.7896 42.5392 15.3732 41.924 15.3732 41.924C16.7217 43.1722 18.3254 43.6056 19.8776 43.6279H20.126C21.6746 43.6056 23.2824 43.1722 24.6309 41.924C24.6309 41.924 33.2141 42.5392 34.2886 35.1787C35.3591 27.8222 26.8831 15.5466 23.1525 11.5681Z" stroke="#1E417C" stroke-width="0.5" stroke-miterlimit="10" stroke-linecap="round" stroke-linejoin="round"/>
<path d="M16.5264 11.6035H23.2754C23.5083 11.6035 23.7001 11.7923 23.7002 12.0273C23.7002 12.2599 23.5073 12.4521 23.2754 12.4521H16.5264C16.2939 12.4521 16.1016 12.2598 16.1016 12.0273C16.1017 11.8219 16.2477 11.6518 16.4404 11.6123L16.5264 11.6035Z" stroke="#1E417C" stroke-width="0.5"/>
<path d="M15.8516 12.0277C15.8516 12.3982 16.1555 12.7021 16.526 12.7021H23.2758C23.6459 12.7021 23.9498 12.3982 23.9498 12.0277C23.9498 11.6536 23.6459 11.3537 23.2758 11.3537H16.526C16.1555 11.3537 15.8516 11.6536 15.8516 12.0277Z" stroke="#1E417C" stroke-width="0.5" stroke-miterlimit="10" stroke-linecap="round" stroke-linejoin="round"/>
<path d="M23.8452 25.1476C23.8452 25.1476 23.6414 22.7655 20.5037 22.5322C18.0032 22.3435 16.5102 23.2285 16.2473 24.8956C16.2473 24.8956 15.8918 27.2809 17.3807 28.0479C19.1406 28.9589 24.001 29.0774 24.0529 32.3076C24.0529 32.3076 24.2489 35.182 20.2517 35.182C20.2517 35.182 16.3954 35.2858 16.1953 32.8709" stroke="#1E417C" stroke-width="0.5" stroke-miterlimit="10" stroke-linecap="round" stroke-linejoin="round"/>
<path d="M18.46 20.4584V22.666" stroke="#1E417C" stroke-width="0.5" stroke-miterlimit="10" stroke-linecap="round" stroke-linejoin="round"/>
<path d="M21.2822 20.4584V22.666" stroke="#1E417C" stroke-width="0.5" stroke-miterlimit="10" stroke-linecap="round" stroke-linejoin="round"/>
<path d="M18.7148 35.1817V37.3896" stroke="#1E417C" stroke-width="0.5" stroke-miterlimit="10" stroke-linecap="round" stroke-linejoin="round"/>
<path d="M21.5342 35.1817V37.3896" stroke="#1E417C" stroke-width="0.5" stroke-miterlimit="10" stroke-linecap="round" stroke-linejoin="round"/>
<path d="M22.1084 6.31738H25.7949C26.2266 6.31763 26.5781 6.66799 26.5781 7.10449C26.5781 7.53683 26.2272 7.88842 25.7949 7.88867H22.1084C21.6717 7.8886 21.3213 7.53637 21.3213 7.10449C21.3214 6.66845 21.6724 6.31745 22.1084 6.31738Z" stroke="#1E417C" stroke-width="0.5"/>
<path d="M21.0713 7.1041C21.0713 7.67466 21.5343 8.1377 22.1085 8.1377H25.7945C26.365 8.1377 26.828 7.67466 26.828 7.1041C26.828 6.52989 26.365 6.06686 25.7945 6.06686H22.1085C21.5343 6.06686 21.0713 6.52989 21.0713 7.1041Z" stroke="#1E417C" stroke-width="0.5" stroke-miterlimit="10" stroke-linecap="round" stroke-linejoin="round"/>
<path d="M22.1084 8.3877H25.7949C26.2271 8.38795 26.5779 8.73874 26.5781 9.1709C26.5781 9.60277 26.2273 9.95385 25.7949 9.9541H22.1084C21.6717 9.95403 21.3213 9.6023 21.3213 9.1709C21.3215 8.7392 21.6719 8.38776 22.1084 8.3877Z" stroke="#1E417C" stroke-width="0.5"/>
<path d="M21.0713 9.1719C21.0713 9.74206 21.5343 10.2051 22.1085 10.2051H25.7945C26.365 10.2051 26.828 9.74206 26.828 9.1719C26.828 8.60134 26.365 8.13832 25.7945 8.13832H22.1085C21.5343 8.13832 21.0713 8.60134 21.0713 9.1719Z" stroke="#1E417C" stroke-width="0.5" stroke-miterlimit="10" stroke-linecap="round" stroke-linejoin="round"/>
<path d="M22.1084 10.4551H25.7949C26.2271 10.4553 26.5779 10.8061 26.5781 11.2383C26.5781 11.6706 26.2272 12.0222 25.7949 12.0225H22.1084C21.6717 12.0224 21.3213 11.6702 21.3213 11.2383C21.3215 10.8066 21.6719 10.4551 22.1084 10.4551Z" stroke="#1E417C" stroke-width="0.5"/>
<path d="M21.0713 11.2389C21.0713 11.8094 21.5343 12.2725 22.1085 12.2725H25.7945C26.365 12.2725 26.828 11.8094 26.828 11.2389C26.828 10.6683 26.365 10.2053 25.7945 10.2053H22.1085C21.5343 10.2053 21.0713 10.6683 21.0713 11.2389Z" stroke="#1E417C" stroke-width="0.5" stroke-miterlimit="10" stroke-linecap="round" stroke-linejoin="round"/>
<path d="M22.1084 12.5225H25.7949C26.2273 12.5227 26.5781 12.8738 26.5781 13.3057C26.5781 13.7411 26.2278 14.0886 25.7949 14.0889H22.1084C21.6712 14.0888 21.3213 13.7406 21.3213 13.3057C21.3213 12.8743 21.6717 12.5225 22.1084 12.5225Z" stroke="#1E417C" stroke-width="0.5"/>
<path d="M21.0713 13.3053C21.0713 13.8795 21.5343 14.3389 22.1085 14.3389H25.7945C26.365 14.3389 26.828 13.8795 26.828 13.3053C26.828 12.7351 26.365 12.2721 25.7945 12.2721H22.1085C21.5343 12.2721 21.0713 12.7351 21.0713 13.3053Z" stroke="#1E417C" stroke-width="0.5" stroke-miterlimit="10" stroke-linecap="round" stroke-linejoin="round"/>
<path d="M9.99219 7.34375V16.1895H7.39551V7.34375H9.99219Z" stroke="#1E417C" stroke-width="0.5"/>
<path d="M7.14551 16.4395H10.2426V7.09375H7.14551V16.4395Z" stroke="#1E417C" stroke-width="0.5" stroke-miterlimit="10" stroke-linecap="round" stroke-linejoin="round"/>
<path d="M7.7373 7.34375V17.082H1.25V7.34375H7.7373Z" stroke="#1E417C" stroke-width="0.5"/>
<path d="M1 17.332H7.98676V7.09355H1V17.332Z" stroke="#1E417C" stroke-width="0.5" stroke-miterlimit="10" stroke-linecap="round" stroke-linejoin="round"/>
<path d="M30.3867 53.2715V76.1406H26.0039V53.2715H30.3867Z" stroke="#1E417C" stroke-width="0.5"/>
<path d="M30.6366 76.3916H25.7539V53.0221H30.6366V76.3916Z" stroke="#1E417C" stroke-width="0.5" stroke-miterlimit="10" stroke-linecap="round" stroke-linejoin="round"/>
<path d="M24.8604 75.2012H31.5293C31.9022 75.2014 32.2049 75.504 32.2051 75.877V77.3066C32.2051 77.6797 31.9023 77.9831 31.5293 77.9834H24.8604C24.4902 77.9833 24.1846 77.6792 24.1846 77.3066V75.877C24.1847 75.5046 24.4903 75.2013 24.8604 75.2012Z" stroke="#1E417C" stroke-width="0.5"/>
<path d="M24.8613 74.2744H31.5293C32.4135 74.2744 33.1318 74.9924 33.1318 75.877V77.3066C33.1316 78.1906 32.4133 78.9082 31.5293 78.9082H24.8613C23.9769 78.9082 23.259 78.1905 23.2588 77.3066V75.877C23.2588 74.9925 23.9767 74.2744 24.8613 74.2744ZM24.6113 77.5566H31.7793V75.627H24.6113V77.5566Z" stroke="#1E417C" stroke-width="0.5"/>
<path d="M24.8604 51.6348H31.5293C31.9029 51.635 32.2049 51.9346 32.2051 52.3105V53.7373C32.205 54.11 31.9022 54.4128 31.5293 54.4131H24.8604C24.4903 54.4129 24.1846 54.1094 24.1846 53.7373V52.3105C24.1847 51.9351 24.4897 51.6349 24.8604 51.6348Z" stroke="#1E417C" stroke-width="0.5"/>
<path d="M24.8613 50.708H31.5293C32.4138 50.708 33.1318 51.4231 33.1318 52.3105V53.7363C33.1318 54.6205 32.4135 55.3389 31.5293 55.3389H24.8613C23.9767 55.3389 23.2588 54.6204 23.2588 53.7363V52.3105L23.2666 52.1455C23.3488 51.3359 24.0318 50.708 24.8613 50.708ZM24.6113 53.9863H31.7793V52.0605H24.6113V53.9863Z" stroke="#1E417C" stroke-width="0.5"/>
<path d="M40.7822 53.2715V76.1406H36.4033V53.2715H40.7822Z" stroke="#1E417C" stroke-width="0.5"/>
<path d="M41.0319 76.3916H36.1533V53.0221H41.0319V76.3916Z" stroke="#1E417C" stroke-width="0.5" stroke-miterlimit="10" stroke-linecap="round" stroke-linejoin="round"/>
<path d="M35.2598 75.2012H41.9238C42.297 75.2013 42.5995 75.5041 42.5996 75.877V77.3066C42.5996 77.6797 42.2971 77.9833 41.9238 77.9834H35.2598C34.8864 77.9834 34.583 77.6797 34.583 77.3066V75.877C34.5831 75.5507 34.815 75.278 35.123 75.2148L35.2598 75.2012Z" stroke="#1E417C" stroke-width="0.5"/>
<path d="M35.2598 74.2744H41.9238C42.8118 74.2744 43.5264 74.9921 43.5264 75.877V77.3066C43.5261 78.1909 42.8116 78.9082 41.9238 78.9082H35.2598C34.3753 78.9082 33.6575 78.1905 33.6572 77.3066V75.877C33.6572 74.9925 34.3751 74.2744 35.2598 74.2744ZM35.0098 77.5566H42.1738V75.627H35.0098V77.5566Z" stroke="#1E417C" stroke-width="0.5"/>
<path d="M35.2598 51.6348H41.9238C42.2977 51.6349 42.5995 51.9346 42.5996 52.3105V53.7373C42.5996 54.11 42.297 54.413 41.9238 54.4131H35.2598C34.8865 54.4131 34.5831 54.11 34.583 53.7373V52.3105C34.5831 51.9816 34.8147 51.711 35.123 51.6484L35.2598 51.6348Z" stroke="#1E417C" stroke-width="0.5"/>
<path d="M35.2598 50.708H41.9238C42.8121 50.708 43.5264 51.4228 43.5264 52.3105V53.7363C43.5264 54.6208 42.8118 55.3389 41.9238 55.3389H35.2598C34.3752 55.3389 33.6572 54.6204 33.6572 53.7363V52.3105L33.665 52.1455C33.7473 51.3359 34.4303 50.708 35.2598 50.708ZM35.0098 53.9863H42.1738V52.0605H35.0098V53.9863Z" stroke="#1E417C" stroke-width="0.5"/>
<path d="M53.5625 53.2715V76.1406H49.1797V53.2715H53.5625Z" stroke="#1E417C" stroke-width="0.5"/>
<path d="M53.8123 76.3916H48.9297V53.0221H53.8123V76.3916Z" stroke="#1E417C" stroke-width="0.5" stroke-miterlimit="10" stroke-linecap="round" stroke-linejoin="round"/>
<path d="M48.0371 75.2012H54.7061C55.076 75.2014 55.3817 75.5046 55.3818 75.877V77.3066C55.3818 77.6791 55.0761 77.9831 54.7061 77.9834H48.0371C47.664 77.9833 47.3613 77.6798 47.3613 77.3066V75.877C47.3615 75.5039 47.6641 75.2013 48.0371 75.2012Z" stroke="#1E417C" stroke-width="0.5"/>
<path d="M48.0371 74.2744H54.7051C55.5863 74.2745 56.3076 74.9929 56.3076 75.877V77.3066C56.3074 78.1901 55.5861 78.9081 54.7051 78.9082H48.0371C47.1531 78.9082 46.4348 78.1906 46.4346 77.3066V75.877C46.4346 74.9924 47.1529 74.2744 48.0371 74.2744ZM47.7871 77.5566H54.9551V75.627H47.7871V77.5566Z" stroke="#1E417C" stroke-width="0.5"/>
<path d="M48.0371 51.6348H54.7061C55.0766 51.635 55.3817 51.9352 55.3818 52.3105V53.7373C55.3818 54.1094 55.076 54.4128 54.7061 54.4131H48.0371C47.6641 54.4129 47.3614 54.1101 47.3613 53.7373V52.3105C47.3615 51.9345 47.6634 51.6349 48.0371 51.6348Z" stroke="#1E417C" stroke-width="0.5"/>
<path d="M48.0371 50.708H54.7051C55.5866 50.7081 56.3076 51.4235 56.3076 52.3105V53.7363C56.3076 54.6201 55.5862 55.3387 54.7051 55.3389H48.0371C47.153 55.3389 46.4346 54.6205 46.4346 53.7363V52.3105L46.4424 52.1455C46.5246 51.3359 47.208 50.708 48.0371 50.708ZM47.7871 53.9863H54.9551V52.0605H47.7871V53.9863Z" stroke="#1E417C" stroke-width="0.5"/>
<path d="M63.957 53.2715V76.1406H59.5742V53.2715H63.957Z" stroke="#1E417C" stroke-width="0.5"/>
<path d="M64.2069 76.3916H59.3242V53.0221H64.2069V76.3916Z" stroke="#1E417C" stroke-width="0.5" stroke-miterlimit="10" stroke-linecap="round" stroke-linejoin="round"/>
<path d="M58.4316 75.2012H65.1006C65.4735 75.2014 65.7762 75.504 65.7764 75.877V77.3066C65.7764 77.6797 65.4736 77.9831 65.1006 77.9834H58.4316C58.0585 77.9833 57.7559 77.6798 57.7559 77.3066V75.877C57.756 75.5039 58.0586 75.2013 58.4316 75.2012Z" stroke="#1E417C" stroke-width="0.5"/>
<path d="M58.4316 74.2744H65.0996C65.9838 74.2744 66.7021 74.9924 66.7021 75.877V77.3066C66.7019 78.1906 65.9836 78.9082 65.0996 78.9082H58.4316C57.5472 78.9082 56.8294 78.1905 56.8291 77.3066V75.877C56.8291 74.9925 57.547 74.2744 58.4316 74.2744ZM58.1816 77.5566H65.3496V75.627H58.1816V77.5566Z" stroke="#1E417C" stroke-width="0.5"/>
<path d="M58.4316 51.6348H65.1006C65.4742 51.635 65.7762 51.9346 65.7764 52.3105V53.7373C65.7763 54.11 65.4735 54.4128 65.1006 54.4131H58.4316C58.0586 54.4129 57.7559 54.1101 57.7559 53.7373V52.3105C57.756 51.9345 58.058 51.6349 58.4316 51.6348Z" stroke="#1E417C" stroke-width="0.5"/>
<path d="M58.4316 50.708H65.0996C65.9841 50.708 66.7021 51.4231 66.7021 52.3105V53.7363C66.7021 54.6205 65.9838 55.3389 65.0996 55.3389H58.4316C57.547 55.3389 56.8291 54.6204 56.8291 53.7363V52.3105L56.8369 52.1455C56.9191 51.3359 57.6021 50.708 58.4316 50.708ZM58.1816 53.9863H65.3496V52.0605H58.1816V53.9863Z" stroke="#1E417C" stroke-width="0.5"/>
<path d="M67.666 48.8008V52.0596H22.5332V48.8008L45.0996 35.6152L67.666 48.8008Z" stroke="#1E417C" stroke-width="0.5"/>
<path d="M67.9161 52.3105H22.2832V48.6583L45.0996 35.3268L67.9161 48.6583V52.3105Z" stroke="#1E417C" stroke-width="0.5" stroke-miterlimit="10" stroke-linecap="round" stroke-linejoin="round"/>
<path d="M66.7734 77.5566V80.3086H23.1924V77.5566H66.7734Z" stroke="#1E417C" stroke-width="0.5"/>
<path d="M67.023 80.5586H22.9424V77.3065H67.023V80.5586Z" stroke="#1E417C" stroke-width="0.5" stroke-miterlimit="10" stroke-linecap="round" stroke-linejoin="round"/>
<path d="M68.458 79.6826V82.4346H21.5029V79.6826H68.458Z" stroke="#1E417C" stroke-width="0.5"/>
<path d="M68.7083 82.6846H21.2529V79.4324H68.7083V82.6846Z" stroke="#1E417C" stroke-width="0.5" stroke-miterlimit="10" stroke-linecap="round" stroke-linejoin="round"/>
<path d="M70.3623 81.998V84.75H19.5986V81.998H70.3623Z" stroke="#1E417C" stroke-width="0.5"/>
</svg>
