<svg width="71" height="70" viewBox="0 0 71 70" fill="none" xmlns="http://www.w3.org/2000/svg">
<path d="M29.3861 28.7061C29.4976 28.7061 29.6092 28.6739 29.7068 28.6042C30.4503 28.0806 31.5768 28.2609 31.5875 28.263C31.8933 28.3156 32.1776 28.1128 32.2301 27.8114C32.2827 27.5088 32.0799 27.2213 31.7774 27.1687C31.713 27.1569 30.1928 26.9037 29.0664 27.6966C28.8143 27.8725 28.7542 28.219 28.9312 28.4701C29.0395 28.6246 29.2123 28.7061 29.3861 28.7061Z" fill="#1E417C"/>
<path d="M39.0716 32.7178C39.3462 32.7178 39.593 32.6051 39.77 32.4228C39.8129 32.4249 39.8526 32.4303 39.8966 32.4303C40.2313 32.4303 40.5864 32.3766 40.9018 32.2414C41.1851 32.1202 41.3159 31.7941 41.1947 31.5119C41.0746 31.2308 40.7473 31.1 40.4641 31.2201C40.4266 31.2362 40.3869 31.2469 40.3461 31.2587C40.3558 31.248 40.3676 31.2394 40.3761 31.2287C40.5628 30.9852 40.5178 30.6365 40.2742 30.4498C40.0307 30.2621 39.681 30.3071 39.4943 30.5517C39.3537 30.7341 39.1231 30.762 38.9976 30.762C38.9557 30.762 38.9171 30.777 38.8785 30.7856C38.8763 30.7867 38.8731 30.7867 38.871 30.7867C38.8313 30.7974 38.7916 30.8049 38.7551 30.8232C38.371 30.9551 38.0942 31.3145 38.0942 31.7426C38.0942 32.2811 38.532 32.7178 39.0716 32.7178Z" fill="#1E417C"/>
<path d="M31.5729 30.8225C31.5364 30.8032 31.4967 30.7957 31.457 30.786C31.4549 30.7849 31.4517 30.7849 31.4495 30.7849C31.4098 30.7763 31.3723 30.7603 31.3304 30.7603C31.2049 30.7603 30.9743 30.7334 30.8337 30.55C30.647 30.3064 30.2973 30.2614 30.0538 30.4481C29.8102 30.6347 29.7652 30.9834 29.9518 31.2269C29.9615 31.2387 29.9744 31.2484 29.984 31.2602C29.9454 31.2484 29.9057 31.2377 29.8725 31.2226C29.5903 31.0971 29.262 31.2226 29.1376 31.5027C29.012 31.7827 29.1376 32.112 29.4176 32.2365C29.7201 32.3716 30.0763 32.4253 30.4207 32.4253C30.4657 32.4253 30.5097 32.4199 30.5537 32.4178C30.7318 32.6023 30.9807 32.7171 31.2564 32.7171C31.796 32.7171 32.2338 32.2794 32.2338 31.7408C32.2338 31.3138 31.957 30.9544 31.5729 30.8225Z" fill="#1E417C"/>
<path d="M33.3619 36.6477C33.9606 36.8172 34.5699 36.902 35.1761 36.902C35.7812 36.902 36.3916 36.8172 36.9892 36.6477C37.9772 36.3677 38.5533 35.3389 38.2744 34.3551C38.0502 33.5569 37.3121 32.999 36.4817 32.999C36.309 32.999 36.1395 33.0226 35.9753 33.0698C35.4432 33.22 34.9079 33.219 34.3811 33.0709C34.2148 33.0226 34.0421 32.999 33.8694 32.999C33.0411 32.999 32.3041 33.5558 32.0777 34.3519C31.7999 35.3389 32.3749 36.3677 33.3619 36.6477ZM33.1495 34.6544C33.2396 34.3336 33.5357 34.1105 33.8694 34.1105C33.9391 34.1105 34.0078 34.1191 34.0764 34.1394C34.8049 34.3454 35.5494 34.3444 36.2779 34.1394C36.6609 34.03 37.0932 34.2682 37.2027 34.6576C37.3153 35.0524 37.0836 35.4665 36.6855 35.5792C35.6857 35.8613 34.6633 35.8613 33.6655 35.5792C33.2686 35.4655 33.0369 35.0513 33.1495 34.6544Z" fill="#1E417C"/>
<path d="M35.7205 51.6446C35.7205 51.7175 35.7055 51.7884 35.6776 51.857C35.6497 51.9246 35.609 51.9847 35.5575 52.0372C35.5049 52.0887 35.4448 52.1295 35.3762 52.1574C35.3086 52.1853 35.2378 52.1992 35.1637 52.1992C35.0897 52.1992 35.0189 52.1853 34.9513 52.1574C34.8827 52.1295 34.8226 52.0887 34.77 52.0372C34.7185 51.9847 34.6777 51.9246 34.6498 51.857C34.622 51.7884 34.6069 51.7175 34.6069 51.6446C34.6069 51.5706 34.622 51.4998 34.6498 51.4311C34.6777 51.3635 34.7185 51.3034 34.77 51.2509C34.8226 51.1994 34.8827 51.1586 34.9513 51.1307C35.0189 51.1028 35.0897 51.0889 35.1637 51.0889C35.2378 51.0889 35.3086 51.1028 35.3762 51.1307C35.4448 51.1586 35.5049 51.1994 35.5575 51.2509C35.609 51.3034 35.6497 51.3635 35.6776 51.4311C35.7055 51.4998 35.7205 51.5706 35.7205 51.6446Z" fill="#1E417C"/>
<path d="M35.7205 56.8321C35.7205 56.9061 35.7055 56.9769 35.6776 57.0445C35.6497 57.1132 35.609 57.1733 35.5575 57.2247C35.5049 57.2773 35.4448 57.317 35.3762 57.346C35.3086 57.3739 35.2378 57.3878 35.1637 57.3878C35.0897 57.3878 35.0189 57.3739 34.9513 57.346C34.8827 57.317 34.8226 57.2773 34.77 57.2247C34.7185 57.1733 34.6777 57.1132 34.6498 57.0445C34.622 56.9769 34.6069 56.9061 34.6069 56.8321C34.6069 56.7591 34.622 56.6883 34.6498 56.6197C34.6777 56.5521 34.7185 56.492 34.77 56.4394C34.8226 56.3869 34.8827 56.3472 34.9513 56.3193C35.0189 56.2914 35.0897 56.2764 35.1637 56.2764C35.2378 56.2764 35.3086 56.2914 35.3762 56.3193C35.4448 56.3472 35.5049 56.3869 35.5575 56.4394C35.609 56.492 35.6497 56.5521 35.6776 56.6197C35.7055 56.6883 35.7205 56.7591 35.7205 56.8321Z" fill="#1E417C"/>
<path d="M2.62018 28.4688H7.81911C8.12701 28.4688 8.37591 28.2199 8.37591 27.9141C8.37591 27.6073 8.12701 27.3584 7.81911 27.3584H2.62018C2.31335 27.3584 2.06445 27.6073 2.06445 27.9141C2.06445 28.2199 2.31335 28.4688 2.62018 28.4688Z" fill="#1E417C"/>
<path d="M13.4665 30.334H2.62018C2.31335 30.334 2.06445 30.5829 2.06445 30.8897C2.06445 31.1965 2.31335 31.4454 2.62018 31.4454H13.4665C13.7744 31.4454 14.0233 31.1965 14.0233 30.8897C14.0233 30.5829 13.7744 30.334 13.4665 30.334Z" fill="#1E417C"/>
<path d="M12.2384 8.75612C12.5453 8.75612 12.7942 8.50722 12.7942 8.20039V6.79391C12.7942 6.48815 12.5453 6.23926 12.2384 6.23926C11.9305 6.23926 11.6816 6.48815 11.6816 6.79391V8.20039C11.6816 8.50722 11.9305 8.75612 12.2384 8.75612Z" fill="#1E417C"/>
<path d="M14.9674 8.75612C15.2743 8.75612 15.5242 8.50722 15.5242 8.20039V6.79391C15.5242 6.48815 15.2743 6.23926 14.9674 6.23926C14.6606 6.23926 14.4106 6.48815 14.4106 6.79391V8.20039C14.4106 8.50722 14.6606 8.75612 14.9674 8.75612Z" fill="#1E417C"/>
<path d="M16.902 10.1418C17.0544 9.87789 16.9643 9.54424 16.7025 9.38868C16.4407 9.23312 16.0996 9.32002 15.9408 9.58072C15.915 9.62363 15.2831 10.6289 13.6031 10.6289C11.9241 10.6289 11.2922 9.62363 11.2686 9.58608C11.1141 9.32002 10.774 9.22776 10.508 9.38332C10.2419 9.53673 10.1507 9.87575 10.3052 10.1418C10.3428 10.2073 11.2568 11.7403 13.6031 11.7403C15.9494 11.7403 16.8634 10.2073 16.902 10.1418Z" fill="#1E417C"/>
<path d="M22.235 8.75612C22.5419 8.75612 22.7907 8.50722 22.7907 8.20039V6.79391C22.7907 6.48815 22.5419 6.23926 22.235 6.23926C21.9282 6.23926 21.6782 6.48815 21.6782 6.79391V8.20039C21.6782 8.50722 21.9271 8.75612 22.235 8.75612Z" fill="#1E417C"/>
<path d="M24.9664 8.75612C25.2732 8.75612 25.5232 8.50722 25.5232 8.20039V6.79391C25.5232 6.48815 25.2732 6.23926 24.9664 6.23926C24.6595 6.23926 24.4106 6.48815 24.4106 6.79391V8.20039C24.4106 8.50722 24.6595 8.75612 24.9664 8.75612Z" fill="#1E417C"/>
<path d="M20.5017 11.5234C20.7646 11.679 21.1047 11.591 21.2624 11.3325C21.2892 11.2895 21.9211 10.2832 23.6001 10.2832C25.2801 10.2832 25.912 11.2895 25.9356 11.326C26.0375 11.5041 26.2253 11.6039 26.4173 11.6039C26.5117 11.6039 26.6072 11.5803 26.6952 11.5299C26.9612 11.3764 27.0524 11.0364 26.899 10.7714C26.8604 10.7059 25.9463 9.17285 23.6001 9.17285C21.2549 9.17285 20.3397 10.7059 20.3022 10.7714C20.1498 11.0342 20.24 11.3679 20.5017 11.5234Z" fill="#1E417C"/>
<mask id="mask0_58624_18366" style="mask-type:luminance" maskUnits="userSpaceOnUse" x="0" y="0" width="71" height="70">
<path d="M0 0H70.309V70H0V0Z" fill="white"/>
</mask>
<g mask="url(#mask0_58624_18366)">
<path d="M69.0367 39.4119C67.9317 38.2575 66.2946 37.8209 64.7755 38.2543L62.5386 35.9166C62.8401 34.2677 62.9978 32.579 62.9978 30.8904C62.9978 22.8216 59.5122 15.2185 53.4271 9.92945C55.3292 7.70869 55.9407 5.85591 56.092 4.60177C56.2154 3.57937 55.8763 2.55267 55.1651 1.78667L54.1223 0.666633C53.7436 0.258958 53.2286 0.0240078 52.6729 0.0025512C52.1075 -0.0189054 51.585 0.179568 51.1773 0.558277L50.0745 1.58068C49.2323 2.3617 49.184 3.68021 49.965 4.52131C50.2622 4.83994 50.3298 5.30018 50.1388 5.69284C49.9629 6.05438 49.6979 6.51141 49.3546 6.98024C45.0708 4.44085 40.1776 3.09767 35.1643 3.09767C32.5831 3.09767 30.0308 3.45277 27.5708 4.14797C26.483 3.27254 25.1033 2.7447 23.6003 2.7447C21.6381 2.7447 19.7885 3.66519 18.5966 5.19076C17.4358 3.70596 15.6313 2.7447 13.6026 2.7447C10.1073 2.7447 7.2632 5.58448 7.2632 9.0744C7.2632 12.0719 9.3638 14.5845 12.1703 15.2346C10.3808 17.848 9.0677 20.7125 8.25879 23.77H3.34952C1.56433 23.77 0.112793 25.2194 0.112793 27.0003V33.6712C0.112793 35.4531 1.56433 36.9025 3.34952 36.9025H7.98844C8.97651 41.3741 11.046 45.5077 14.0338 48.9805C13.6862 48.9375 13.3343 48.9998 13.02 49.1703C12.7926 49.2937 12.6048 49.4686 12.4589 49.6724L10.8915 49.1993C9.85516 48.886 8.76838 49.4418 8.41435 50.4631C8.0807 51.4286 8.527 52.4875 9.4507 52.9263L13.3751 54.7855C14.2709 55.2104 14.8503 56.1234 14.8503 57.1136V69.4436C14.8503 69.7504 15.0992 69.9993 15.4071 69.9993C15.7139 69.9993 15.9628 69.7504 15.9628 69.4436V57.1136C15.9628 55.6974 15.1346 54.3886 13.8525 53.7814L9.92811 51.9221C9.51722 51.7269 9.31875 51.2559 9.4668 50.8257C9.6245 50.3698 10.1083 50.1252 10.5697 50.2625L12.1457 50.7377C12.18 51.389 12.5887 51.9919 13.2271 52.2354L16.393 53.4391C16.6794 53.5464 17.0013 53.4037 17.1107 53.1173C17.2201 52.8308 17.0753 52.509 16.7889 52.3996L13.6229 51.1958C13.3429 51.0896 13.1884 50.7796 13.2721 50.4921C13.3161 50.3419 13.4159 50.2196 13.5521 50.1445C13.6895 50.0704 13.8461 50.0533 13.9963 50.0983L19.0354 51.5992C20.3421 51.9887 21.2529 53.2095 21.2529 54.571V69.4436C21.2529 69.7504 21.5018 69.9993 21.8097 69.9993C22.1165 69.9993 22.3654 69.7504 22.3654 69.4436V67.2325C22.9308 67.6166 23.5874 67.8869 24.363 68.0532V69.4436C24.363 69.7504 24.6119 69.9993 24.9198 69.9993C25.2267 69.9993 25.4756 69.7504 25.4756 69.4436V57.7165C25.4756 57.4097 25.2267 57.1608 24.9198 57.1608C24.6119 57.1608 24.363 57.4097 24.363 57.7165V64.5C23.5627 64.1363 22.8954 63.6589 22.3654 63.0764V57.6028C24.775 53.2793 27.8465 50.9673 30.1327 49.7604L31.9726 51.8363C32.0788 51.9565 32.2312 52.0241 32.3899 52.0241C32.4093 52.0241 32.4286 52.023 32.4479 52.0209C32.627 52.0026 32.7848 51.8985 32.8738 51.7419L32.9006 51.6947V60.4608C32.9006 60.7676 33.1495 61.0165 33.4563 61.0165H36.8722C37.1791 61.0165 37.428 60.7676 37.428 60.4608V51.6969L37.4548 51.7441C37.5438 51.8996 37.7015 52.0037 37.8807 52.023C37.9 52.0241 37.9204 52.0251 37.9386 52.0251C38.0974 52.0251 38.2497 51.9576 38.356 51.8385L40.1948 49.7625C42.4821 50.9684 45.5536 53.2825 47.9632 57.6049V63.0774C47.4332 63.66 46.7659 64.1385 45.9655 64.5011V57.7176C45.9655 57.4107 45.7166 57.1619 45.4087 57.1619C45.1019 57.1619 44.853 57.4107 44.853 57.7176V69.4447C44.853 69.7515 45.1019 70.0004 45.4087 70.0004C45.7166 70.0004 45.9655 69.7515 45.9655 69.4447V68.0543C46.7412 67.8869 47.3988 67.6177 47.9632 67.2336V69.4447C47.9632 69.7515 48.212 70.0004 48.5189 70.0004C48.8268 70.0004 49.0757 69.7515 49.0757 69.4447V54.572C49.0757 53.2117 49.9876 51.9908 51.2932 51.6014L56.3334 50.1005C56.4814 50.0554 56.6391 50.0726 56.7764 50.1466C56.9127 50.2206 57.0125 50.344 57.0565 50.4931C57.1401 50.7817 56.9867 51.0907 56.7056 51.198L53.5408 52.4017C53.2533 52.5111 53.1095 52.8319 53.2179 53.1184C53.3273 53.4059 53.6502 53.5486 53.9367 53.4402L57.1015 52.2365C57.7409 51.994 58.1497 51.3922 58.184 50.7399L59.76 50.2636C60.2192 50.1262 60.7051 50.3708 60.8618 50.8268C61.0109 51.257 60.8124 51.728 60.4005 51.9243L56.4761 53.7835C55.1951 54.3907 54.3658 55.6985 54.3658 57.1157V69.4458C54.3658 69.7526 54.6158 70.0015 54.9226 70.0015C55.2294 70.0015 55.4794 69.7526 55.4794 69.4458V57.1157C55.4794 56.1255 56.0577 55.2114 56.9535 54.7877L60.8779 52.9274C61.8027 52.4897 62.2479 51.4308 61.9142 50.4652C61.5613 49.4439 60.4756 48.8871 59.4381 49.2015L57.8697 49.6746C57.7238 49.4697 57.536 49.2959 57.3086 49.1714C56.9899 48.9987 56.6338 48.9386 56.2808 48.9847C58.4576 46.4496 60.1698 43.5273 61.3124 40.4043L61.8885 41.0083C61.3875 42.5027 61.7469 44.1559 62.8519 45.3114C63.6726 46.1696 64.784 46.632 65.9309 46.632C66.3514 46.632 66.7763 46.5698 67.1936 46.4432C67.4457 46.366 67.6077 46.1246 67.5852 45.8628C67.5627 45.6021 67.3599 45.3918 67.0992 45.3596C66.8353 45.3275 66.4534 45.2191 66.1347 44.8855C65.8386 44.5754 65.6809 44.1688 65.6906 43.7408C65.7002 43.3127 65.8773 42.9136 66.1873 42.6175C66.8278 42.006 67.847 42.0296 68.4585 42.669C68.7771 43.0026 68.8683 43.3878 68.8887 43.6528C68.9091 43.9146 69.1097 44.1259 69.3704 44.1602C69.6311 44.1946 69.88 44.0433 69.968 43.7965C70.5151 42.2635 70.1579 40.5845 69.0367 39.4119ZM51.1387 6.17776C51.5335 5.36885 51.3919 4.42154 50.7804 3.76389C50.4156 3.37231 50.4392 2.75651 50.8308 2.39389L51.9348 1.37041C52.1236 1.19447 52.3746 1.10327 52.631 1.11186C52.8907 1.12259 53.1299 1.23201 53.3069 1.42191L54.3486 2.54194C54.8389 3.0687 55.0706 3.7714 54.988 4.46874C54.8228 5.84089 54.0064 8.05092 51.0593 10.7823C48.1133 13.5148 45.8465 14.1639 44.4636 14.2272C43.7566 14.2551 43.0764 13.974 42.5872 13.4483L41.5455 12.3283C41.3685 12.1384 41.2762 11.8906 41.2859 11.632C41.2955 11.3735 41.406 11.1342 41.5959 10.9583L42.6977 9.93481C42.8854 9.76208 43.1215 9.67626 43.3586 9.67626C43.6203 9.67626 43.88 9.78032 44.0709 9.98523C44.6835 10.644 45.6179 10.8542 46.4548 10.5216C47.1896 10.2298 48.2668 9.69557 49.2237 8.80834C50.1807 7.92111 50.7933 6.88797 51.1387 6.17776ZM23.6003 3.85616C26.4819 3.85616 28.8271 6.19707 28.8271 9.0744C28.8271 11.9517 26.4819 14.2926 23.6003 14.2926C21.8462 14.2926 20.2101 13.3947 19.2467 11.941C19.6876 11.0795 19.9419 10.1065 19.9419 9.0744C19.9419 8.04234 19.6876 7.06928 19.2467 6.2078C20.2101 4.75411 21.8462 3.85616 23.6003 3.85616ZM8.3768 9.0744C8.3768 6.19707 10.7209 3.85616 13.6036 3.85616C16.4852 3.85616 18.8294 6.19707 18.8294 9.0744C18.8294 11.9517 16.4852 14.2926 13.6036 14.2926C10.7209 14.2926 8.3768 11.9517 8.3768 9.0744ZM1.22639 33.6712V27.0003C1.22639 25.832 2.17799 24.8804 3.34952 24.8804H13.0125C14.183 24.8804 15.1346 25.832 15.1346 27.0003V33.8235C15.1346 33.9973 15.2172 34.1625 15.3577 34.2677C16.0057 34.7537 16.7588 35.319 17.3875 35.7922H3.34952C2.17799 35.7922 1.22639 34.8406 1.22639 33.6712ZM24.362 65.6973V66.9117C23.5219 66.6972 22.8847 66.3324 22.3654 65.7745V64.5794C22.9426 65.0321 23.6099 65.4044 24.362 65.6973ZM32.2891 50.5189L30.8537 48.8989C31.0275 48.0149 31.5156 47.4227 32.3706 47.0655L33.4746 48.4269L32.2891 50.5189ZM39.7506 46.9871C39.3869 46.5784 38.9106 46.2598 38.3313 46.0248V45.0635C40.9876 44.069 43.1097 42.035 44.1449 40.4901C44.6041 41.1799 44.853 41.9899 44.853 42.8342C44.853 45.1741 42.9455 47.0794 40.6014 47.0794C40.3139 47.0783 40.0296 47.0429 39.7506 46.9871ZM46.3196 32.8966C47.1446 33.4351 47.4718 34.685 47.0362 35.8683C46.7315 36.6944 46.1104 37.3048 45.4259 37.5151C45.8089 36.203 46.1147 34.6324 46.3196 32.8966ZM45.7091 31.0738C45.0204 30.3046 43.7855 29.1127 42.2943 28.5141C41.4425 28.1729 40.5778 28.0753 39.6616 27.9712C38.1746 27.8039 36.4892 27.6129 34.4101 26.2708C31.2506 24.2303 31.0382 20.5826 31.0371 20.5472C31.0242 20.2705 30.8086 20.0441 30.5318 20.0183C30.2604 19.9958 30.0018 20.175 29.9385 20.4453C29.0384 24.2989 27.2425 27.865 24.6173 31.0685C23.5938 28.3628 24.0798 24.3408 25.8875 21.2896C27.2876 18.9273 30.0329 16.1111 35.1632 16.1111C40.2967 16.1111 43.0421 18.9294 44.4421 21.2929C46.2509 24.3461 46.7358 28.3692 45.7091 31.0738ZM24.9016 37.5151C24.2182 37.3048 23.596 36.6944 23.2924 35.8683C22.8568 34.685 23.1829 33.4351 24.009 32.8966C24.2139 34.6324 24.5197 36.203 24.9016 37.5151ZM25.0572 32.2872C27.5118 29.4217 29.312 26.2622 30.4181 22.8635C30.9084 24.2388 31.8793 25.9597 33.8061 27.2042C36.1041 28.6879 38.0073 28.9024 39.5361 29.0752C40.4115 29.1749 41.1678 29.2597 41.8791 29.5461C43.5163 30.2027 44.867 31.7701 45.2725 32.2776C44.9378 35.4649 44.2394 38.1953 43.3907 39.6071C42.2417 41.5189 38.9921 44.5518 35.1632 44.5518C31.3332 44.5518 28.0847 41.5189 26.9357 39.6071C26.0892 38.1964 25.3919 35.4703 25.0572 32.2872ZM35.1643 45.6633C35.8702 45.6633 36.5568 45.5646 37.2188 45.4026V46.2126L35.9185 47.8154H34.4101L33.1087 46.2093V45.4026C33.7718 45.5646 34.4573 45.6633 35.1643 45.6633ZM36.3154 59.9072H34.0131V49.7325L34.4691 48.9268H35.8584L36.3144 49.7325V59.9072H36.3154ZM38.0395 50.5189L36.854 48.4269L37.9579 47.0655C38.8119 47.4227 39.3011 48.0138 39.4749 48.8989L38.0395 50.5189ZM45.9666 66.9117V65.6973C46.7187 65.4055 47.386 65.0321 47.9632 64.5794V65.7745C47.4428 66.3324 46.8056 66.6972 45.9666 66.9117ZM54.2478 49.5619L50.9746 50.5371C49.2023 51.065 47.9632 52.7246 47.9632 54.572V55.4646C45.545 51.8299 42.7063 49.8055 40.5606 48.7015C40.5252 48.5191 40.4802 48.3453 40.4254 48.179C40.4845 48.1812 40.5424 48.1898 40.6025 48.1898C43.5603 48.1898 45.9666 45.7877 45.9666 42.8331C45.9666 41.5779 45.53 40.3849 44.7361 39.4258C44.8401 39.1984 44.9431 38.957 45.0408 38.6974C46.341 38.6405 47.5512 37.6943 48.0812 36.2513C48.7442 34.4511 48.0897 32.5018 46.6253 31.7905C47.9181 28.7748 47.4364 24.1627 45.4023 20.7275C43.2137 17.0348 39.5779 15.0007 35.1643 15.0007C30.7528 15.0007 27.1181 17.0337 24.9306 20.7243C22.8943 24.1605 22.4116 28.7737 23.7043 31.7916C22.2388 32.5018 21.5855 34.4522 22.2474 36.2524C22.7785 37.6943 23.9875 38.6405 25.2878 38.6985C25.5035 39.2692 25.7363 39.7691 25.983 40.179C26.9271 41.7507 29.1597 44.0014 31.9962 45.0635V46.0259C30.7614 46.5258 30.0147 47.4238 29.769 48.7004C27.6234 49.8044 24.7847 51.8277 22.3654 55.4636V54.572C22.3654 52.7246 21.1263 51.065 19.3529 50.5371L16.0776 49.5609C12.6198 46.0377 10.2274 41.6766 9.12778 36.9036H19.0493C19.2886 36.9036 19.501 36.7502 19.5771 36.5238C19.6533 36.2975 19.575 36.0475 19.3851 35.9037C19.3851 35.9037 17.6428 34.5927 16.2471 33.5456V27.0003C16.2471 25.2194 14.7955 23.77 13.0114 23.77H9.41208C10.2446 20.7607 11.5867 17.9478 13.4137 15.3944C13.477 15.3966 13.5382 15.4041 13.6015 15.4041C15.6302 15.4041 17.4347 14.4439 18.5966 12.958C19.7885 14.4836 21.637 15.4041 23.6003 15.4041C27.0955 15.4041 29.9385 12.5643 29.9385 9.0744C29.9385 7.54669 29.3935 6.14343 28.487 5.04807C30.6573 4.49127 32.8995 4.20804 35.1632 4.20804C39.9105 4.20804 44.5462 5.46218 48.6176 7.83528C48.565 7.88785 48.521 7.94256 48.4663 7.99406C47.6359 8.76435 46.6908 9.23211 46.0439 9.48851C45.6373 9.64944 45.1834 9.54859 44.8863 9.22889C44.1053 8.38886 42.7846 8.33951 41.9414 9.12053L40.8396 10.1419C40.4319 10.5206 40.1948 11.0345 40.1744 11.5902C40.154 12.1459 40.3514 12.6759 40.7301 13.0836L41.7718 14.2036C42.4477 14.931 43.3822 15.3397 44.3563 15.3397C44.4089 15.3397 44.4614 15.3387 44.5151 15.3365C46.0835 15.2646 48.624 14.5576 51.8178 11.5966C52.1279 11.3091 52.409 11.027 52.6772 10.7491C58.5327 15.8289 61.8853 23.1349 61.8853 30.8904C61.8853 32.2389 61.7801 33.5875 61.5795 34.9135L57.8847 31.0502C58.3868 29.5558 58.0263 27.9026 56.9213 26.7471C55.8002 25.5756 54.1373 25.1411 52.5795 25.6153C52.3285 25.6925 52.1654 25.9339 52.188 26.1946C52.2105 26.4564 52.4132 26.6667 52.6739 26.6988C52.9389 26.731 53.3198 26.8394 53.6384 27.173C54.2499 27.8124 54.2274 28.8306 53.5869 29.441C52.9454 30.0525 51.9262 30.0289 51.3147 29.3895C50.996 29.0559 50.9048 28.6707 50.8845 28.4057C50.8641 28.1439 50.6635 27.9326 50.4028 27.8983C50.1442 27.8639 49.8932 28.0152 49.8052 28.262C49.2602 29.7929 49.6175 31.4729 50.7386 32.6455C51.8425 33.801 53.4807 34.2365 54.9998 33.8031L60.4541 39.5063C59.1731 43.2515 57.0361 46.72 54.2478 49.5619ZM67.361 41.0608C66.6347 41.0437 65.9448 41.3108 65.4202 41.8118C64.8945 42.3128 64.5963 42.9887 64.5791 43.7139C64.5652 44.334 64.7583 44.9273 65.1284 45.4144C64.5781 45.2685 64.0685 44.9724 63.6576 44.5432C62.7757 43.6206 62.5343 42.2688 63.045 41.0984C63.134 40.8935 63.0922 40.6553 62.9366 40.4933L55.5609 32.7807C55.4536 32.6691 55.3077 32.6091 55.1586 32.6091C55.0921 32.6091 55.0245 32.6209 54.9601 32.6466C53.7661 33.1015 52.424 32.799 51.5421 31.8774C51.1312 31.4483 50.8587 30.9258 50.7386 30.3701C51.7856 31.2391 53.3466 31.2058 54.354 30.2446C55.3625 29.2833 55.4676 27.7266 54.6458 26.6431C55.1962 26.789 55.7058 27.084 56.1167 27.5131C56.9985 28.4358 57.2388 29.7875 56.7292 30.958C56.6391 31.1629 56.682 31.4021 56.8365 31.5631L64.2144 39.2746C64.3689 39.4366 64.606 39.4902 64.8152 39.4097C66.0092 38.9549 67.3503 39.2563 68.2321 40.179C68.643 40.6081 68.9155 41.1306 69.0357 41.6852C68.5658 41.2958 67.9811 41.0758 67.361 41.0608Z" fill="#1E417C"/>
</g>
<path d="M11.1619 48.4944C11.2735 48.4944 11.3862 48.4611 11.4838 48.3914C11.7348 48.2122 11.7928 47.8657 11.6147 47.6157C9.9239 45.248 8.60861 42.6517 7.70422 39.901C7.60766 39.6092 7.2944 39.4515 7.00151 39.5459C6.7097 39.6414 6.55092 39.9557 6.64641 40.2475C7.58728 43.1055 8.95299 45.8016 10.7092 48.2616C10.8165 48.4128 10.9881 48.4944 11.1619 48.4944Z" fill="#1E417C"/>
<path d="M62.9981 23.1038C63.0678 23.3494 63.291 23.5104 63.5334 23.5104C63.5828 23.5104 63.6343 23.5029 63.6836 23.4889C63.9797 23.4063 64.1525 23.1006 64.0698 22.8045C63.0303 19.0925 61.303 15.6583 58.9342 12.5933C58.7465 12.3497 58.3967 12.3057 58.1543 12.4924C57.9107 12.6802 57.8657 13.0288 58.0534 13.2713C60.3342 16.2226 61.9982 19.5302 62.9981 23.1038Z" fill="#1E417C"/>
<path d="M29.7067 2.5479C33.2771 1.86558 37.0502 1.86558 40.6249 2.5479C40.6592 2.55434 40.6946 2.55756 40.73 2.55756C40.9918 2.55756 41.2246 2.37303 41.275 2.10697C41.333 1.8055 41.1356 1.51476 40.8341 1.45683C37.121 0.748764 33.2063 0.748764 29.4975 1.45683C29.195 1.51476 28.9976 1.8055 29.0555 2.10697C29.1134 2.40843 29.4042 2.60583 29.7067 2.5479Z" fill="#1E417C"/>
<path d="M53.6096 47.3038C53.7137 47.3929 53.8424 47.4369 53.9701 47.4369C54.1267 47.4369 54.2834 47.3703 54.3939 47.2416C56.31 44.9962 57.8044 42.4622 58.8333 39.7093C58.9405 39.4228 58.7946 39.102 58.5071 38.9948C58.2196 38.8886 57.8988 39.0334 57.7905 39.3209C56.8067 41.9515 55.3798 44.3739 53.5463 46.5207C53.3479 46.7545 53.3758 47.1054 53.6096 47.3038Z" fill="#1E417C"/>
<path d="M14.4047 16.519C13.2461 18.184 12.2912 19.9864 11.5671 21.8756C11.4576 22.1621 11.6003 22.4839 11.8879 22.5933C11.9533 22.6191 12.0198 22.6298 12.0863 22.6298C12.3105 22.6298 12.5208 22.4946 12.6056 22.2736C13.2986 20.4681 14.2105 18.7451 15.3188 17.153C15.4936 16.8998 15.4314 16.5544 15.1782 16.3795C14.9272 16.2046 14.5796 16.2669 14.4047 16.519Z" fill="#1E417C"/>
</svg>
