<svg width="70" height="70" viewBox="0 0 70 70" fill="none" xmlns="http://www.w3.org/2000/svg">
<mask id="mask0_58624_17888" style="mask-type:luminance" maskUnits="userSpaceOnUse" x="56" y="8" width="14" height="44">
<path d="M56.7969 8.06152H69.1354V51.5097H56.7969V8.06152Z" fill="white"/>
</mask>
<g mask="url(#mask0_58624_17888)">
<path d="M65.6006 51.4978C65.5492 51.4978 65.4972 51.4865 65.4476 51.4629C65.2624 51.3742 65.1805 51.1447 65.2652 50.9508C65.8077 49.7036 66.2876 48.4109 66.6912 47.1081C66.7545 46.9053 66.9628 46.7941 67.1564 46.8597C67.3506 46.926 67.4567 47.1442 67.3935 47.347C66.9814 48.6776 66.4908 49.9981 65.9365 51.2713C65.8749 51.4138 65.7406 51.4978 65.6006 51.4978ZM68.0676 43.515C68.0433 43.515 68.019 43.5121 67.9942 43.5073C67.7943 43.4654 67.6651 43.2613 67.7051 43.052C67.9665 41.6883 68.1551 40.2909 68.2657 38.8995C68.2827 38.6866 68.4616 38.5287 68.6643 38.5464C68.8675 38.5642 69.0183 38.7511 69.0013 38.9639C68.8884 40.385 68.6959 41.8113 68.4289 43.204C68.3939 43.3879 68.2398 43.515 68.0676 43.515ZM68.7399 35.0823C68.5412 35.0823 68.3769 34.9167 68.3713 34.7068C68.3307 33.3106 68.2132 31.9055 68.0224 30.5306C67.9931 30.3189 68.1331 30.1226 68.3346 30.0918C68.5361 30.0611 68.7236 30.2077 68.7529 30.4188C68.9483 31.8233 69.0679 33.2579 69.1091 34.6837C69.1154 34.8972 68.955 35.0752 68.7512 35.0817C68.7473 35.0817 68.7433 35.0823 68.7399 35.0823ZM67.5753 26.7116C67.4121 26.7116 67.2625 26.5975 67.2191 26.4248C66.877 25.0783 66.4558 23.7389 65.9681 22.4432C65.893 22.2445 65.9861 22.0198 66.1758 21.9417C66.3655 21.8631 66.5795 21.9606 66.6545 22.1593C67.153 23.4828 67.5832 24.8506 67.9321 26.2255C67.9846 26.4319 67.8677 26.6436 67.6707 26.6986C67.6385 26.7075 67.6069 26.7116 67.5753 26.7116ZM64.612 18.8436C64.4799 18.8436 64.3524 18.7697 64.2863 18.6396C63.6591 17.4119 62.9563 16.2091 62.1975 15.0631C62.0812 14.8874 62.123 14.6467 62.2907 14.5249C62.4578 14.4031 62.6881 14.4469 62.8044 14.6219C63.5789 15.7922 64.2965 17.021 64.9367 18.2741C65.0332 18.4628 64.9654 18.6969 64.7859 18.7981C64.73 18.8288 64.6708 18.8436 64.612 18.8436ZM60.0094 11.8916C59.9066 11.8916 59.805 11.8472 59.7322 11.7603C58.8538 10.7136 57.9087 9.7089 56.9225 8.77397C56.7712 8.63086 56.7593 8.38603 56.896 8.22755C57.0331 8.06966 57.2663 8.05724 57.4176 8.20035C58.4247 9.15539 59.3901 10.1808 60.2866 11.25C60.4209 11.4102 60.4057 11.6545 60.2527 11.7958C60.1827 11.8603 60.0958 11.8916 60.0094 11.8916Z" fill="#1E417C"/>
</g>
<path d="M6.17843 15.6722C6.10166 15.6722 6.02488 15.6473 5.95826 15.5959C5.79511 15.4681 5.76068 15.2263 5.88262 15.0548C6.69216 13.9129 7.57397 12.8076 8.5032 11.7698C8.6432 11.6137 8.87635 11.606 9.02539 11.752C9.17386 11.8981 9.1812 12.1429 9.04176 12.2985C8.13173 13.3156 7.26799 14.3978 6.47482 15.516C6.40255 15.6183 6.29134 15.6722 6.17843 15.6722ZM11.7041 9.50075C11.5991 9.50075 11.4952 9.45462 11.4224 9.36414C11.2903 9.20152 11.3095 8.95729 11.4653 8.81891C12.5018 7.89876 13.5998 7.03183 14.7289 6.24237C14.8988 6.1241 15.128 6.172 15.2409 6.3494C15.3544 6.5274 15.3081 6.76749 15.1388 6.88577C14.0334 7.65867 12.958 8.50786 11.9424 9.40909C11.8729 9.47059 11.7882 9.50075 11.7041 9.50075ZM18.4221 4.80537C18.2877 4.80537 18.1585 4.72849 18.093 4.59485C18.0004 4.40443 18.0721 4.17143 18.2533 4.07445C19.4631 3.42514 20.7215 2.84384 21.9928 2.34591C22.1836 2.27081 22.3964 2.37253 22.4676 2.573C22.5387 2.77287 22.4422 2.99582 22.2508 3.07033C21.006 3.55761 19.7747 4.12708 18.5898 4.76279C18.5361 4.79177 18.4786 4.80537 18.4221 4.80537ZM25.9852 1.84385C25.8192 1.84385 25.6685 1.72617 25.6273 1.54995C25.5782 1.34238 25.699 1.13304 25.8971 1.08159C27.2142 0.741562 28.5657 0.477817 29.9149 0.298635C30.117 0.271433 30.3016 0.421638 30.3276 0.633344C30.353 0.84505 30.2102 1.03901 30.0081 1.06563C28.6871 1.24126 27.3632 1.49968 26.0738 1.83262C26.0445 1.8403 26.0146 1.84385 25.9852 1.84385ZM38.0369 0.963912C38.0245 0.963912 38.0121 0.963321 37.9991 0.962138C36.8243 0.836771 35.6258 0.773495 34.4374 0.773495C34.2918 0.773495 34.145 0.774087 34.0005 0.776452C33.9988 0.776452 33.9971 0.776452 33.996 0.776452C33.7939 0.776452 33.629 0.606141 33.6268 0.394435C33.6245 0.180955 33.7877 0.00532222 33.9915 0.00295679C34.1388 0.000591357 34.2884 0 34.4374 0C35.6506 0 36.874 0.064458 38.0742 0.192191C38.2769 0.214071 38.4248 0.403897 38.4039 0.616194C38.3847 0.815482 38.2244 0.963912 38.0369 0.963912Z" fill="#1E417C"/>
<path d="M43.7591 34.1801C41.6212 34.1801 39.5499 33.7366 37.6023 32.8608C35.7207 32.0152 34.0327 30.8041 32.5847 29.2612C31.1366 27.719 30.0002 25.9206 29.2076 23.9171C28.3868 21.8438 27.9707 19.6392 27.9707 17.3643C27.9707 17.1502 28.1355 16.9775 28.3393 16.9775H59.1783C59.3821 16.9775 59.5475 17.1502 59.5475 17.3643C59.5475 19.6392 59.1314 21.8438 58.3106 23.9171C57.5174 25.9206 56.381 27.719 54.9335 29.2612C53.4849 30.8041 51.797 32.0152 49.9154 32.8608C47.9677 33.7366 45.8964 34.1801 43.7591 34.1801ZM28.7131 17.7504C28.9061 26.4192 35.5812 33.4066 43.7591 33.4066C51.9364 33.4066 58.6121 26.4192 58.8051 17.7504H28.7131Z" fill="#1E417C"/>
<path d="M39.8396 29.2512C39.7933 29.2512 39.7464 29.2423 39.7024 29.224L38.3955 28.6758C38.3797 28.6693 38.3645 28.6616 38.3498 28.6527L36.5201 27.5575C36.4411 27.5102 36.3818 27.4345 36.353 27.344L35.8302 25.7012C35.8178 25.6616 35.8116 25.6202 35.8116 25.5788V23.162L35.0924 20.1472L33.2164 19.6558C33.1312 19.6339 33.0567 19.5807 33.0053 19.5056L31.699 17.589C31.6182 17.4707 31.6075 17.3158 31.6707 17.1869C31.734 17.0586 31.861 16.9775 31.9993 16.9775H45.0666C45.2704 16.9775 45.4353 17.1502 45.4353 17.3643V18.1857C45.4353 18.2229 45.4302 18.2608 45.42 18.2969L44.6359 21.0348C44.5958 21.1744 44.4852 21.2785 44.3485 21.3045L41.7353 21.8018L41.5117 23.4428C41.5061 23.4842 41.4942 23.5239 41.4762 23.5611L40.692 25.2039C40.6824 25.2246 40.6706 25.2447 40.6576 25.263L39.9474 26.2553V27.457L40.2015 28.7887C40.228 28.9277 40.1794 29.0714 40.0756 29.1619C40.0078 29.2204 39.9243 29.2512 39.8396 29.2512ZM38.6936 27.9679L39.3439 28.2405L39.2163 27.5711C39.2113 27.5463 39.209 27.5208 39.209 27.4954V26.1264C39.209 26.0425 39.235 25.9614 39.283 25.8946L40.0468 24.8272L40.7891 23.2714L41.042 21.4169C41.0646 21.2519 41.1849 21.1206 41.3413 21.091L43.9934 20.5854L44.6974 18.1289V17.7504H32.7163L33.5269 18.9403L35.4859 19.453C35.6185 19.4879 35.7219 19.5961 35.7546 19.7344L36.5387 23.0206C36.5461 23.0514 36.5495 23.0827 36.5495 23.1141V25.5161L37.009 26.9591L38.6936 27.9679Z" fill="#1E417C"/>
<path d="M54.213 29.798C54.1712 29.798 54.1289 29.791 54.0888 29.7756L50.4413 28.4107L46.7939 27.3191C46.6025 27.2617 46.489 27.0559 46.5376 26.8531L47.3212 23.5675C47.3477 23.4581 47.4183 23.3659 47.5142 23.3156L51.6958 21.1246C51.781 21.0803 51.8787 21.072 51.9696 21.101L55.346 22.1896L58.1665 22.7266L58.2139 22.7272C58.3341 22.7272 58.447 22.7887 58.5165 22.8922C58.5854 22.9957 58.6017 23.1281 58.5605 23.2464C57.7143 25.6716 56.3255 27.8897 54.5444 29.6614C54.5088 29.6969 54.4665 29.7247 54.4202 29.7431L54.3434 29.7732C54.3017 29.7898 54.2571 29.798 54.213 29.798ZM47.3404 26.678L50.6559 27.6703C50.6632 27.6727 50.6711 27.6757 50.6785 27.678L54.1566 28.9796C55.6893 27.4202 56.9081 25.5107 57.7047 23.425L55.1925 22.9466C55.1784 22.9436 55.1637 22.9401 55.1502 22.9353L51.8939 21.8857L47.9963 23.9276L47.3404 26.678Z" fill="#1E417C"/>
<path d="M48.4643 13.4055C48.2599 13.4055 48.0951 13.2323 48.0951 13.0188V11.6137C48.0951 10.5132 47.1952 9.73852 46.6595 9.37483C45.8098 8.79826 44.6988 8.44049 43.76 8.44049C42.8206 8.44049 41.7096 8.79826 40.8606 9.37483C40.3259 9.73733 39.43 10.5085 39.4249 11.6042L39.4899 12.9768C39.5 13.1897 39.3431 13.3712 39.1393 13.3819C38.936 13.3925 38.7627 13.2281 38.7526 13.0146L38.6871 11.6326C38.6865 11.6261 38.6865 11.6196 38.6865 11.6137C38.6865 10.5268 39.316 9.50079 40.4592 8.72552C41.4364 8.06261 42.6699 7.66699 43.76 7.66699C44.8496 7.66699 46.0836 8.06261 47.0603 8.72552C48.2035 9.50079 48.8329 10.5268 48.8329 11.6137V13.0188C48.8329 13.2323 48.6681 13.4055 48.4643 13.4055Z" fill="#1E417C"/>
<path d="M45.5885 13.3692H41.9298C41.726 13.3692 41.5605 13.1959 41.5605 12.9825C41.5605 12.769 41.726 12.5957 41.9298 12.5957H45.5885C45.7923 12.5957 45.9577 12.769 45.9577 12.9825C45.9577 13.1959 45.7923 13.3692 45.5885 13.3692Z" fill="#1E417C"/>
<mask id="mask1_58624_17888" style="mask-type:luminance" maskUnits="userSpaceOnUse" x="40" y="0" width="7" height="7">
<path d="M40.7529 0H46.8228V6.3015H40.7529V0Z" fill="white"/>
</mask>
<g mask="url(#mask1_58624_17888)">
<path d="M43.7598 6.25006C42.1153 6.25006 40.7773 4.84795 40.7773 3.12473C40.7773 1.40152 42.1153 0 43.7598 0C45.4043 0 46.7422 1.40152 46.7422 3.12473C46.7422 4.84795 45.4043 6.25006 43.7598 6.25006ZM43.7598 0.773495C42.5223 0.773495 41.5152 1.82848 41.5152 3.12473C41.5152 4.42158 42.5223 5.47656 43.7598 5.47656C44.9973 5.47656 46.0038 4.42158 46.0038 3.12473C46.0038 1.82848 44.9973 0.773495 43.7598 0.773495Z" fill="#1E417C"/>
</g>
<path d="M39.8393 16.1071H30.4307C30.2269 16.1071 30.0615 15.9339 30.0615 15.7204V14.3514C30.0615 13.2645 30.691 12.2391 31.8342 11.4632C32.8114 10.8009 34.0449 10.4053 35.135 10.4053C36.2251 10.4053 37.4586 10.8009 38.4353 11.4632C39.5785 12.2391 40.2085 13.2645 40.2085 14.3514V15.7204C40.2079 15.9339 40.0431 16.1071 39.8393 16.1071ZM30.7999 15.3336H39.4701V14.3514C39.4701 13.2509 38.5708 12.4762 38.0345 12.1125C37.1848 11.5365 36.0738 11.1782 35.135 11.1782C34.1962 11.1782 33.0852 11.5365 32.2356 12.1125C31.6992 12.4762 30.7999 13.2509 30.7999 14.3514V15.3336Z" fill="#1E417C"/>
<path d="M35.1348 8.98834C33.4903 8.98834 32.1523 7.58682 32.1523 5.8636C32.1523 4.14039 33.4903 2.73828 35.1348 2.73828C36.7793 2.73828 38.1172 4.14039 38.1172 5.8636C38.1172 7.58682 36.7793 8.98834 35.1348 8.98834ZM35.1348 3.51178C33.8973 3.51178 32.8902 4.56676 32.8902 5.8636C32.8902 7.15986 33.8973 8.21484 35.1348 8.21484C36.3723 8.21484 37.3788 7.15986 37.3788 5.8636C37.3788 4.56676 36.3723 3.51178 35.1348 3.51178Z" fill="#1E417C"/>
<path d="M57.0883 16.1071H47.6798C47.476 16.1071 47.3105 15.9339 47.3105 15.7204V14.3514C47.3105 13.2645 47.94 12.2391 49.0832 11.4632C50.0604 10.8009 51.2939 10.4053 52.384 10.4053C53.4736 10.4053 54.7077 10.8009 55.6843 11.4632C56.8275 12.2391 57.457 13.2645 57.457 14.3514V15.7204C57.457 15.9339 57.2921 16.1071 57.0883 16.1071ZM48.049 15.3336H56.7191V14.3514C56.7191 13.2509 55.8192 12.4762 55.2835 12.1125C54.4339 11.5365 53.3229 11.1782 52.384 11.1782C51.4446 11.1782 50.3336 11.5365 49.4846 12.1125C48.9483 12.4762 48.049 13.2509 48.049 14.3514V15.3336Z" fill="#1E417C"/>
<path d="M52.3844 8.98834C50.7393 8.98834 49.4014 7.58682 49.4014 5.8636C49.4014 4.14039 50.7393 2.73828 52.3844 2.73828C54.0289 2.73828 55.3668 4.14039 55.3668 5.8636C55.3668 7.58682 54.0289 8.98834 52.3844 8.98834ZM52.3844 3.51178C51.1469 3.51178 50.1398 4.56676 50.1398 5.8636C50.1398 7.15986 51.1469 8.21484 52.3844 8.21484C53.6218 8.21484 54.6284 7.15986 54.6284 5.8636C54.6284 4.56676 53.6218 3.51178 52.3844 3.51178Z" fill="#1E417C"/>
<path d="M55.1648 67.2855H31.907C31.1844 67.2855 30.5967 66.6693 30.5967 65.9124V39.1475C30.5967 38.3906 31.1844 37.7744 31.907 37.7744H55.8772C56.081 37.7744 56.2458 37.9477 56.2458 38.1612C56.2458 38.3746 56.081 38.5479 55.8772 38.5479H31.907C31.5914 38.5479 31.3351 38.817 31.3351 39.1475V65.9124C31.3351 66.2429 31.5914 66.5114 31.907 66.5114H55.1648C55.3685 66.5114 55.5334 66.6847 55.5334 66.8982C55.5334 67.1122 55.3685 67.2855 55.1648 67.2855Z" fill="#1E417C"/>
<path d="M55.7807 42.4479C55.7773 42.4479 55.7739 42.4479 55.7705 42.4473C55.5667 42.442 55.4058 42.2646 55.4115 42.0511L55.4984 38.5479H31.907C31.5914 38.5479 31.3345 38.817 31.3345 39.1475V41.6744H48.4044C48.6082 41.6744 48.7736 41.8471 48.7736 42.0612C48.7736 42.2746 48.6082 42.4473 48.4044 42.4473H30.9659C30.7615 42.4473 30.5967 42.2746 30.5967 42.0612V39.1475C30.5967 38.3906 31.1844 37.7744 31.907 37.7744H55.8772C55.9766 37.7744 56.072 37.817 56.1414 37.8915C56.2108 37.966 56.2487 38.0671 56.2458 38.1712L56.1493 42.0706C56.1442 42.2811 55.9799 42.4479 55.7807 42.4479Z" fill="#1E417C"/>
<path d="M47.9815 48.327C47.7771 48.327 47.6123 48.1537 47.6123 47.9403V46.6895C47.6123 45.7239 46.862 44.9385 45.9407 44.9385H35.7542C34.8328 44.9385 34.0826 45.7239 34.0826 46.6895V47.9403C34.0826 48.1543 33.9177 48.327 33.7139 48.327C33.5101 48.327 33.3447 48.1537 33.3447 47.9403V46.6895C33.3447 45.2975 34.4258 44.165 35.7542 44.165H45.9407C47.2696 44.165 48.3501 45.2975 48.3501 46.6895V47.9403C48.3501 48.1537 48.1853 48.327 47.9815 48.327Z" fill="#1E417C"/>
<path d="M45.9407 59.8871H35.7542C34.4252 59.8871 33.3447 58.7547 33.3447 57.3626V52.876C33.3447 52.6625 33.5096 52.4893 33.7139 52.4893C33.9177 52.4893 34.0826 52.6625 34.0826 52.876V57.3626C34.0826 58.3283 34.8323 59.1136 35.7542 59.1136H45.9407C46.862 59.1136 47.6123 58.3283 47.6123 57.3626V53.0463C47.6123 52.8328 47.7771 52.6596 47.9809 52.6596C48.1853 52.6596 48.3501 52.8328 48.3501 53.0463V57.3626C48.3501 58.7547 47.2696 59.8871 45.9407 59.8871Z" fill="#1E417C"/>
<path d="M47.9809 63.5118H33.7134C33.5096 63.5118 33.3447 63.3385 33.3447 63.125C33.3447 62.9115 33.5096 62.7383 33.7134 62.7383H47.9809C48.1853 62.7383 48.3501 62.9115 48.3501 63.125C48.3501 63.3385 48.1853 63.5118 47.9809 63.5118Z" fill="#1E417C"/>
<path d="M44.8532 56.9772H36.8435C36.1068 56.9772 35.5078 56.3492 35.5078 55.5775V51.1133C35.5078 50.8992 35.6727 50.7266 35.8765 50.7266C36.0803 50.7266 36.2457 50.8998 36.2457 51.1133V55.5775C36.2457 55.9228 36.5138 56.2037 36.8435 56.2037H44.8532C45.1828 56.2037 45.451 55.9228 45.451 55.5775V51.1133C45.451 50.8992 45.6164 50.7266 45.8202 50.7266C46.024 50.7266 46.1894 50.8998 46.1894 51.1133V55.5775C46.1894 56.3492 45.5899 56.9772 44.8532 56.9772Z" fill="#1E417C"/>
<path d="M40.8476 52.9883C40.7143 52.9883 40.5811 52.9688 40.4518 52.9286L33.0886 50.6566C32.8215 50.5744 32.6426 50.3231 32.6426 50.0321C32.6426 49.7406 32.8215 49.4899 33.0886 49.4071L40.4518 47.1351C40.7104 47.0552 40.9847 47.0552 41.2439 47.1351L48.6065 49.4071C48.8736 49.4899 49.0525 49.7406 49.0525 50.0321C49.0525 50.3231 48.8736 50.5744 48.6065 50.6566L41.2439 52.9286C41.114 52.9688 40.9808 52.9883 40.8476 52.9883ZM33.6774 50.0321L40.6601 52.1864C40.7826 52.2243 40.9125 52.2243 41.035 52.1864L48.0177 50.0321L41.035 47.8772C40.9125 47.8394 40.7826 47.8394 40.6601 47.8772L33.6774 50.0321Z" fill="#1E417C"/>
<path d="M51.8666 50.0766C51.6521 50.0766 51.4499 49.9903 51.2964 49.8324L50.0719 48.5746C49.9167 48.4149 49.8303 48.2014 49.828 47.9738C49.8258 47.7461 49.9088 47.5308 50.0606 47.3682L50.6364 46.7526C50.5314 46.535 50.4394 46.3091 50.3626 46.0791L49.5401 46.0873C49.3222 46.0897 49.1173 46.0028 48.962 45.8431C48.8068 45.684 48.7204 45.4706 48.7182 45.2423L48.7012 43.4457C48.699 43.2181 48.7819 43.0028 48.9344 42.8402C49.0862 42.6776 49.29 42.5865 49.5074 42.5841L50.3299 42.5759C50.4022 42.3441 50.4897 42.1164 50.5913 41.8964L50.0036 41.2932C49.8484 41.1335 49.762 40.9201 49.7597 40.6924C49.7575 40.4641 49.8405 40.2495 49.9923 40.0868L51.1931 38.8036C51.3455 38.641 51.5493 38.5499 51.7667 38.5475C51.9851 38.5452 52.1895 38.6321 52.3447 38.7918L52.9319 39.395C53.1396 39.2844 53.3553 39.1886 53.5754 39.1081L53.567 38.2465C53.563 37.7758 53.9243 37.3897 54.3731 37.3849L56.0882 37.3672C56.091 37.3672 56.0938 37.3672 56.0966 37.3672C56.5415 37.3672 56.9062 37.7445 56.9107 38.2122L56.9186 39.0738C57.1399 39.1495 57.3573 39.2412 57.5673 39.3476L58.1431 38.732C58.457 38.3961 58.9735 38.3908 59.2942 38.7202L60.5187 39.9786C60.6739 40.1377 60.7608 40.3512 60.7631 40.5794C60.7648 40.8071 60.6824 41.0224 60.53 41.185L59.9541 41.8C60.0597 42.0176 60.1517 42.2435 60.2285 42.4741L61.0505 42.4659C61.2672 42.4635 61.4733 42.5498 61.6285 42.7095C61.7838 42.8692 61.8707 43.0827 61.873 43.3103L61.8894 45.1075C61.8916 45.3351 61.8092 45.5504 61.6568 45.713C61.5043 45.8756 61.3011 45.9667 61.0832 45.9685L60.2612 45.9774C60.189 46.2092 60.1009 46.4368 59.9999 46.6568L60.587 47.26C60.7422 47.4197 60.8292 47.6332 60.8314 47.8608C60.8331 48.0885 60.7507 48.3038 60.5983 48.4664L59.3975 49.7496C59.2451 49.9122 59.0418 50.0027 58.8245 50.0051C58.6054 50.008 58.4017 49.9205 58.2464 49.7614L57.6587 49.1577C57.4233 49.283 57.1777 49.3901 56.9271 49.4764C56.7334 49.5426 56.5251 49.4327 56.4613 49.2292C56.3975 49.0264 56.5031 48.8082 56.6967 48.7414C56.9372 48.6586 57.1721 48.5539 57.3956 48.4297C57.6316 48.2984 57.9178 48.3404 58.107 48.535L58.763 49.2091C58.7816 49.228 58.8036 49.2322 58.8171 49.2316C58.8313 49.2316 58.8522 49.2275 58.8708 49.2079L60.071 47.9247C60.0896 47.9052 60.093 47.8833 60.093 47.8685C60.093 47.8531 60.0891 47.8313 60.0704 47.8123L59.4139 47.1382C59.2247 46.9436 59.179 46.645 59.2998 46.3948C59.4139 46.1583 59.5093 45.9099 59.5832 45.6568C59.6623 45.389 59.8926 45.2074 60.1574 45.2044L61.0764 45.195C61.1182 45.195 61.1521 45.1589 61.1515 45.1146L61.1346 43.318C61.1346 43.2908 61.1222 43.2725 61.112 43.2618C61.1018 43.2512 61.0843 43.2394 61.0589 43.2394C61.0584 43.2394 61.0584 43.2394 61.0578 43.2394L60.1393 43.2488C59.8751 43.25 59.6402 43.0744 59.5567 42.8083C59.4782 42.5563 59.3777 42.3103 59.2592 42.0762C59.1339 41.8284 59.1739 41.5292 59.3597 41.3311L60.0032 40.6433C60.0213 40.6238 60.0253 40.6019 60.0247 40.5865C60.0247 40.5718 60.0207 40.5499 60.0021 40.5304L58.7776 39.2725C58.7477 39.2418 58.6992 39.2424 58.6698 39.2737L58.0268 39.9615C57.8411 40.1596 57.556 40.2075 57.3172 40.0809C57.0919 39.9615 56.8548 39.8615 56.6132 39.7835C56.3575 39.7013 56.1841 39.46 56.1813 39.1821L56.1723 38.2199C56.1717 38.1756 56.1379 38.1401 56.0955 38.1407L54.3805 38.1584C54.3387 38.159 54.3048 38.1951 54.3054 38.2388L54.3144 39.2016C54.3172 39.4789 54.1479 39.7243 53.8938 39.8113C53.6539 39.8941 53.4185 39.9993 53.1955 40.1235C52.959 40.2548 52.6733 40.2122 52.4842 40.0182L51.8276 39.3441C51.8096 39.3252 51.7887 39.3216 51.774 39.321C51.7593 39.3216 51.7384 39.3258 51.7204 39.3453L50.5196 40.6279C50.5015 40.6474 50.4976 40.6693 50.4981 40.6847C50.4981 40.6995 50.5021 40.7214 50.5207 40.7409L51.1773 41.415C51.3664 41.609 51.4121 41.9076 51.2913 42.1578C51.1773 42.3943 51.0819 42.6427 51.0073 42.8958C50.9289 43.1637 50.6985 43.3458 50.4338 43.3482L49.5147 43.3576C49.4887 43.3582 49.4712 43.3706 49.4611 43.3819C49.4515 43.3925 49.4391 43.4109 49.4396 43.4381L49.4566 45.2352C49.4566 45.2624 49.469 45.2807 49.4791 45.2908C49.4893 45.3014 49.5068 45.3138 49.5322 45.3138C49.5328 45.3138 49.5328 45.3138 49.5333 45.3138L50.4518 45.3044C50.4541 45.3044 50.4558 45.3044 50.4581 45.3044C50.7206 45.3044 50.9515 45.4806 51.0339 45.7449C51.1129 45.9963 51.2134 46.2429 51.332 46.477C51.4573 46.7242 51.4166 47.0241 51.2315 47.2222L50.5879 47.9099C50.5585 47.9412 50.5591 47.9915 50.589 48.0223L51.8135 49.2801C51.8321 49.2996 51.8513 49.3031 51.8677 49.3031C51.8818 49.3031 51.9027 49.2984 51.9208 49.2789L52.5643 48.5917C52.7501 48.3936 53.0352 48.3451 53.2734 48.4717C53.4992 48.5917 53.7363 48.6917 53.9779 48.7691C54.1727 48.8318 54.2822 49.0483 54.2224 49.2523C54.1625 49.4569 53.9565 49.5716 53.7612 49.5089C53.5094 49.4279 53.2615 49.3256 53.0239 49.2056L52.448 49.8206C52.2956 49.9832 52.0924 50.0743 51.8745 50.0766C51.8717 50.0766 51.8694 50.0766 51.8666 50.0766Z" fill="#1E417C"/>
<path d="M55.2953 47.5315C53.596 47.5315 52.205 46.0921 52.1886 44.308C52.1802 43.4381 52.4958 42.6173 53.0772 41.9964C53.6581 41.3755 54.4355 41.0289 55.2654 41.0207C56.0964 41.0124 56.8788 41.3424 57.4716 41.9515C58.0638 42.56 58.3946 43.3743 58.4031 44.2441C58.42 46.0389 57.0397 47.5138 55.3263 47.5315C55.3162 47.5315 55.3054 47.5315 55.2953 47.5315ZM52.9265 44.3003C52.9395 45.6604 53.9997 46.758 55.2953 46.758C55.3032 46.758 55.3111 46.758 55.319 46.758C56.6253 46.7444 57.6776 45.6202 57.6646 44.2518C57.6584 43.5883 57.4061 42.968 56.9545 42.5038C56.5085 42.0455 55.9202 41.7936 55.2964 41.7936C55.2885 41.7936 55.2806 41.7936 55.2727 41.7936C54.6399 41.8001 54.0471 42.0644 53.6039 42.5381C53.1613 43.0118 52.9203 43.6374 52.9265 44.3003Z" fill="#1E417C"/>
<path d="M60.8737 64.7758C60.6699 64.7758 60.5044 64.6025 60.5044 64.389V63.0443C60.5044 62.9118 60.5694 62.7888 60.6761 62.7179C62.2545 61.667 63.1967 59.8693 63.1967 57.9095V53.1592C63.1967 52.689 62.832 52.307 62.3832 52.307C61.935 52.307 61.5697 52.689 61.5697 53.1592V56.6653C61.5697 56.8788 61.4049 57.0515 61.2005 57.0515C60.9967 57.0515 60.8319 56.8788 60.8319 56.6653V52.6843C60.8319 52.2148 60.4666 51.8322 60.0184 51.8322C59.5718 51.8322 59.2088 52.2106 59.2049 52.6772V56.5861C59.2049 56.7996 59.0395 56.9728 58.8357 56.9728C58.6319 56.9728 58.467 56.7996 58.467 56.5861V52.6843C58.467 52.6814 58.467 52.6778 58.467 52.6743V52.1574C58.467 51.6873 58.1018 51.3053 57.6535 51.3053C57.2087 51.3053 56.8463 51.6808 56.84 52.145V56.6653C56.84 56.8788 56.6746 57.0521 56.4708 57.0521C56.267 57.0521 56.1016 56.8788 56.1016 56.6653V52.1574C56.1016 52.1515 56.1016 52.1456 56.1016 52.1403V47.8606C56.1016 47.3905 55.7369 47.0085 55.2881 47.0085C54.8399 47.0085 54.4746 47.3905 54.4746 47.8606V56.4542C54.4746 56.6275 54.3651 56.7795 54.2059 56.8262C54.0467 56.8735 53.8768 56.8037 53.791 56.6559L51.9788 53.5495C51.7507 53.158 51.2669 53.0161 50.878 53.2272C50.5466 53.4075 50.4015 53.8168 50.5404 54.1799L53.078 60.7936C53.3856 61.5961 53.9671 62.2401 54.7151 62.6061C54.845 62.67 54.928 62.8066 54.928 62.9562V64.3802C54.928 64.5937 54.7625 64.7669 54.5588 64.7669C54.355 64.7669 54.1895 64.5937 54.1895 64.3802V63.1945C53.3744 62.7315 52.7409 61.9893 52.3932 61.0822L49.8556 54.4684C49.5739 53.7334 49.8675 52.9049 50.5381 52.5406C51.2698 52.1438 52.1792 52.4093 52.6088 53.1462L53.7368 55.0793V47.8606C53.7368 46.9641 54.4329 46.2344 55.2881 46.2344C56.144 46.2344 56.84 46.9641 56.84 47.8606V50.773C57.0766 50.6199 57.3555 50.5318 57.6535 50.5318C58.2576 50.5318 58.7826 50.8955 59.0383 51.4247C59.3059 51.1959 59.6469 51.0587 60.0184 51.0587C60.6089 51.0587 61.1226 51.4058 61.3851 51.915C61.655 51.6772 62.0039 51.5329 62.3832 51.5329C63.2391 51.5329 63.9351 52.2627 63.9351 53.1592V57.9095C63.9351 58.9959 63.6715 60.0733 63.1719 61.0254C62.7061 61.9142 62.0417 62.6806 61.2429 63.2525V64.389C61.2429 64.6025 61.0775 64.7758 60.8737 64.7758Z" fill="#1E417C"/>
<path d="M62.1926 70.0001C61.9888 70.0001 61.8234 69.8268 61.8234 69.6133V65.1149C61.8234 64.9274 61.6783 64.7754 61.4994 64.7754H53.8076C53.6286 64.7754 53.4835 64.9274 53.4835 65.1149V69.6133C53.4835 69.8268 53.3181 70.0001 53.1143 70.0001C52.9105 70.0001 52.7451 69.8268 52.7451 69.6133V65.1149C52.7451 64.5011 53.2216 64.002 53.8076 64.002H61.4994C62.0854 64.002 62.5618 64.5011 62.5618 65.1149V69.6133C62.5613 69.8268 62.3964 70.0001 62.1926 70.0001Z" fill="#1E417C"/>
<path d="M24.646 59.3876H2.18193C0.978907 59.3876 0 58.3622 0 57.1014V30.0226C0 29.1113 0.707364 28.3691 1.57788 28.3691H24.5229C25.4606 28.3691 26.2239 29.1687 26.2239 30.1515V57.7348C26.2239 58.646 25.5159 59.3876 24.646 59.3876ZM0.737849 46.7397V57.1014C0.737849 57.9358 1.38594 58.6141 2.18193 58.6141H24.646C25.1089 58.6141 25.4854 58.2197 25.4854 57.7342V30.1515C25.4854 29.595 25.0541 29.1426 24.5235 29.1426H1.57788C1.11496 29.1426 0.737849 29.5377 0.737849 30.0226V46.7397Z" fill="#1E417C"/>
<path d="M19.0295 43.7811C17.6436 43.7811 16.5156 42.5996 16.5156 41.1466C16.5156 39.6942 17.6436 38.5127 19.0295 38.5127C20.416 38.5127 21.544 39.6942 21.544 41.1466C21.544 42.5996 20.416 43.7811 19.0295 43.7811ZM19.0295 39.2862C18.0506 39.2862 17.2535 40.1206 17.2535 41.1466C17.2535 42.1726 18.0506 43.0076 19.0295 43.0076C20.009 43.0076 20.8055 42.1726 20.8055 41.1466C20.8055 40.1206 20.009 39.2862 19.0295 39.2862Z" fill="#1E417C"/>
<path d="M19.0295 50.4188C17.6436 50.4188 16.5156 49.2373 16.5156 47.7843C16.5156 46.3319 17.6436 45.1504 19.0295 45.1504C20.416 45.1504 21.544 46.3319 21.544 47.7843C21.544 49.2373 20.416 50.4188 19.0295 50.4188ZM19.0295 45.9239C18.0506 45.9239 17.2535 46.7583 17.2535 47.7843C17.2535 48.8109 18.0506 49.6453 19.0295 49.6453C20.009 49.6453 20.8055 48.8109 20.8055 47.7843C20.8055 46.7583 20.009 45.9239 19.0295 45.9239Z" fill="#1E417C"/>
<path d="M19.0295 56.9686C17.6436 56.9686 16.5156 55.7871 16.5156 54.3347C16.5156 52.8817 17.6436 51.7002 19.0295 51.7002C20.416 51.7002 21.544 52.8817 21.544 54.3347C21.544 55.7871 20.416 56.9686 19.0295 56.9686ZM19.0295 52.4737C18.0506 52.4737 17.2535 53.3087 17.2535 54.3347C17.2535 55.3607 18.0506 56.1951 19.0295 56.1951C20.009 56.1951 20.8055 55.3607 20.8055 54.3347C20.8055 53.3087 20.009 52.4737 19.0295 52.4737Z" fill="#1E417C"/>
<path d="M14.0684 41.5333H5.61669C5.41289 41.5333 5.24805 41.36 5.24805 41.1465C5.24805 40.933 5.41289 40.7598 5.61669 40.7598H14.0684C14.2722 40.7598 14.4376 40.933 14.4376 41.1465C14.4376 41.36 14.2722 41.5333 14.0684 41.5333Z" fill="#1E417C"/>
<path d="M14.0677 48.1713H5.59284C5.38904 48.1713 5.22363 47.9987 5.22363 47.7846C5.22363 47.5711 5.38904 47.3984 5.59284 47.3984H14.0677C14.2715 47.3984 14.4369 47.5711 14.4369 47.7846C14.4369 47.9987 14.2715 48.1713 14.0677 48.1713Z" fill="#1E417C"/>
<path d="M14.0683 54.7221H5.57819C5.37439 54.7221 5.20898 54.5488 5.20898 54.3353V38.9346C5.20898 38.7205 5.37439 38.5479 5.57819 38.5479C5.78199 38.5479 5.9474 38.7205 5.9474 38.9346V53.9486H14.0683C14.2721 53.9486 14.4369 54.1218 14.4369 54.3353C14.4369 54.5488 14.2721 54.7221 14.0683 54.7221Z" fill="#1E417C"/>
<path d="M18.9624 36.7649C18.7586 36.7649 18.5938 36.5923 18.5938 36.3788V32.393C18.5938 32.2351 18.6547 32.0885 18.7665 31.9809C18.8715 31.8791 19.0036 31.8259 19.1493 31.8259C19.313 31.8259 19.4609 31.8945 19.567 32.0199C19.5704 32.0234 19.5738 32.0276 19.5766 32.0311L22.0555 35.2026V32.1973C22.0555 31.9838 22.2209 31.8105 22.4247 31.8105C22.6285 31.8105 22.7939 31.9838 22.7939 32.1973V36.2848C22.7939 36.4486 22.6957 36.594 22.5489 36.649C22.4021 36.704 22.2378 36.6561 22.139 36.5302L19.3316 32.9389V36.3782C19.3316 36.5923 19.1668 36.7649 18.9624 36.7649Z" fill="#1E417C"/>
<path d="M5.54694 36.7649C5.34258 36.7649 5.17773 36.5923 5.17773 36.3788V32.3741C5.17773 32.2174 5.23814 32.0719 5.34879 31.9649C5.45266 31.8638 5.58477 31.8105 5.73098 31.8105H6.72174C7.24507 31.8105 7.69613 31.9891 8.06252 32.341C8.4464 32.697 8.64117 33.1411 8.64117 33.6609C8.64117 34.1766 8.4464 34.6213 8.06252 34.9838C7.69218 35.3333 7.24112 35.5107 6.72174 35.5107H5.91558V36.3788C5.91558 36.5923 5.75074 36.7649 5.54694 36.7649ZM5.91558 34.7372H6.72174C7.05764 34.7372 7.33426 34.6301 7.56855 34.409C7.79662 34.1937 7.90275 33.956 7.90275 33.6609C7.90275 33.3635 7.79718 33.1275 7.57137 32.9176C7.56911 32.9164 7.56742 32.9146 7.56572 32.9128C7.33596 32.6917 7.0599 32.584 6.72174 32.584H5.91558V34.7372Z" fill="#1E417C"/>
<path d="M13.8386 36.8112C13.7855 36.8112 13.7319 36.7988 13.6805 36.7734C13.4965 36.6817 13.418 36.4511 13.5055 36.2583L15.3781 32.1235C15.4385 31.9899 15.5666 31.9041 15.7078 31.9023C15.7089 31.9023 15.7106 31.9023 15.7117 31.9023C15.8512 31.9023 15.9793 31.9851 16.042 32.1164L18.0105 36.2512C18.1014 36.4428 18.0275 36.6746 17.8451 36.7704C17.6628 36.8656 17.4409 36.7881 17.35 36.5965L16.8329 35.5108H14.6611L14.1722 36.59C14.109 36.7296 13.9769 36.8112 13.8386 36.8112ZM15.0111 34.7373H16.4648L15.7196 33.1732L15.0111 34.7373Z" fill="#1E417C"/>
<path d="M12.4719 36.7649H9.87507C9.67127 36.7649 9.50586 36.5923 9.50586 36.3788V32.1973C9.50586 31.9838 9.67127 31.8105 9.87507 31.8105C10.0789 31.8105 10.2443 31.9838 10.2443 32.1973V35.992H12.4719C12.6757 35.992 12.8411 36.1647 12.8411 36.3788C12.8411 36.5923 12.6757 36.7649 12.4719 36.7649Z" fill="#1E417C"/>
<path d="M20.2782 29.1429H5.94579C5.22826 29.1429 4.64453 28.5314 4.64453 27.7798V20.628C4.64453 20.4145 4.80994 20.2412 5.01374 20.2412C5.21754 20.2412 5.38295 20.4145 5.38295 20.628V27.7798C5.38295 28.1051 5.63529 28.3694 5.94579 28.3694H20.2782C20.5882 28.3694 20.8411 28.1051 20.8411 27.7798V20.628C20.8411 20.4145 21.0059 20.2412 21.2097 20.2412C21.4135 20.2412 21.5789 20.4145 21.5789 20.628V27.7798C21.5789 28.5314 20.9952 29.1429 20.2782 29.1429Z" fill="#1E417C"/>
<path d="M13.1117 24.9725C12.9254 24.9725 12.7391 24.9447 12.5579 24.8885L1.21748 21.3894C0.892304 21.2889 0.673828 20.9826 0.673828 20.6278C0.673828 20.2724 0.892304 19.9666 1.21748 19.8661L12.5579 16.367C12.9203 16.2553 13.3031 16.2553 13.6649 16.367L25.0054 19.8661C25.3305 19.9666 25.549 20.2724 25.549 20.6278C25.549 20.9832 25.3305 21.2889 25.0054 21.3894L13.6649 24.8885C13.4843 24.9447 13.298 24.9725 13.1117 24.9725ZM1.42636 20.6082C1.41902 20.61 1.41563 20.6124 1.41506 20.613C1.41111 20.6183 1.41111 20.6372 1.41506 20.6425C1.41563 20.6431 1.41902 20.6449 1.42636 20.6473L12.7662 24.1463C12.992 24.2161 13.2308 24.2161 13.4566 24.1463L24.797 20.6473C24.8038 20.6449 24.8072 20.6431 24.8078 20.6425C24.8123 20.6372 24.8123 20.6183 24.8078 20.613C24.8072 20.6124 24.8038 20.61 24.797 20.6082L13.4566 17.1086C13.2308 17.0388 12.992 17.0388 12.7668 17.1086L1.42636 20.6082Z" fill="#1E417C"/>
</svg>
