<svg width="76" height="76" viewBox="0 0 76 76" fill="none" xmlns="http://www.w3.org/2000/svg">
<mask id="mask0_58624_6632" style="mask-type:luminance" maskUnits="userSpaceOnUse" x="0" y="0" width="62" height="76">
<path d="M0 0H61.2957V76H0V0Z" fill="white"/>
</mask>
<g mask="url(#mask0_58624_6632)">
<path d="M42.2322 26.0143L41.3861 29.4951C40.9618 31.229 39.3029 32.2724 37.6829 31.8177L35.4006 31.1784C34.2317 33.1412 32.6793 34.8245 30.8634 36.1037L31.4863 38.5406C31.9286 40.2715 30.9791 42.063 29.3647 42.5401L26.1297 43.4917C25.863 43.5681 25.593 43.6093 25.323 43.6093C24.8034 43.6093 24.2902 43.4629 23.8271 43.1799C23.1208 42.7501 22.6165 42.0536 22.4025 41.2167L21.7824 38.7888C19.6103 38.684 17.4735 38.0824 15.5269 37.0295L13.874 38.824C12.6986 40.0998 10.7729 40.1127 9.58549 38.8528L7.48753 36.6284C7.12861 36.2496 7.12259 35.6296 7.47873 35.2444C7.83487 34.8592 8.41332 34.8562 8.7727 35.235L10.8707 37.4559C11.3426 37.9583 12.1054 37.9523 12.574 37.4465L14.7077 35.1298C14.9985 34.815 15.4468 34.748 15.8085 34.9645C17.8356 36.196 20.1323 36.8448 22.4562 36.8448C22.465 36.8448 22.4771 36.8419 22.4826 36.8448C22.8925 36.8448 23.2542 37.1377 23.364 37.5641L24.1656 40.6949C24.2513 41.029 24.4505 41.3055 24.732 41.4778C25.0113 41.6461 25.3378 41.6907 25.6462 41.5984L28.8807 40.6473C29.5217 40.4592 29.8987 39.7468 29.7236 39.0593L28.9196 35.919C28.8099 35.4926 28.9817 35.0409 29.335 34.815C31.3408 33.5423 33.0178 31.7224 34.1812 29.5556C34.3859 29.1734 34.8073 28.9858 35.2047 29.0974L38.1456 29.9215C38.7898 30.0997 39.4483 29.6892 39.6146 28.9987L40.4635 25.5209C40.6325 24.8304 40.2468 24.124 39.6026 23.9428L36.6737 23.1217C36.2731 23.0105 35.9943 22.6253 35.9883 22.183C35.9675 19.6856 35.3325 17.2195 34.1571 15.0527C33.9496 14.668 34.0089 14.1845 34.2965 13.8693L36.4306 11.556C36.6589 11.3078 36.7807 10.9832 36.7807 10.6396C36.7775 10.2932 36.6501 9.97149 36.4213 9.72974L35.3737 8.6163C35.0148 8.23755 35.0088 7.61704 35.3649 7.23183C35.7211 6.84364 36.3 6.84364 36.6589 7.2224L37.7065 8.33286C38.2822 8.94393 38.6027 9.75853 38.6087 10.6272C38.6147 11.4954 38.303 12.3135 37.7334 12.934L36.0805 14.7285C37.0864 16.7995 37.6736 19.084 37.7954 21.4101L40.0657 22.0465C41.6829 22.5012 42.6564 24.2798 42.2322 26.0143ZM22.0913 11.9571C27.1181 11.9571 31.1954 16.3255 31.1954 21.7154C31.1954 27.1054 27.1181 31.4772 22.0913 31.4772C17.0641 31.4772 12.9895 27.1054 12.9895 21.7154C12.9895 16.3255 17.0641 11.9571 22.0913 11.9571ZM60.9068 41.5761C55.2182 31.649 56.0222 33.6122 54.3397 21.2255C52.0875 4.61975 36.9558 -2.45649 22.5748 0.887785C0.819437 5.94366 -5.38275 29.3675 4.78426 47.9653C7.01885 52.0537 7.52921 57.119 5.91197 61.7867L0.988479 76.0032H30.0056C29.875 64.7363 34.6175 59.2987 34.6175 59.2987C42.8611 66.1396 52.0102 64.3258 52.0102 64.3258C55.4554 63.9852 57.5686 61.4973 56.1116 57.6253C55.3488 55.7638 56.1501 54.5739 56.7049 53.5076C58.343 50.3545 55.9213 49.6545 55.9037 47.4465C55.8949 46.489 56.6308 45.7191 57.5209 45.6203C58.8505 45.4709 59.9931 44.8568 60.6961 44.074C61.2958 43.4058 61.3579 42.3653 60.9068 41.5761Z" fill="#1E417C"/>
</g>
<path d="M66.5385 62.603C66.3694 62.603 66.1999 62.5523 66.0457 62.4471C65.6215 62.1547 65.4969 61.5466 65.7697 61.0919C67.197 58.7151 67.951 55.9725 67.951 53.1594C67.951 50.3467 67.197 47.6041 65.7697 45.2243C65.4969 44.7691 65.6215 44.1645 66.0457 43.8721C66.4699 43.5793 67.0368 43.7098 67.31 44.1645C68.9245 46.8595 69.779 49.9715 69.779 53.1594C69.779 56.3478 68.9245 59.4562 67.31 62.1512C67.135 62.4441 66.8409 62.603 66.5385 62.603Z" fill="#1E417C"/>
<path d="M71.5705 66.9333C71.4015 66.9333 71.2292 66.8822 71.075 66.7774C70.6508 66.4845 70.529 65.8799 70.8017 65.4252C73.0039 61.7469 74.1701 57.5056 74.1701 53.1591C74.1701 48.813 73.0039 44.5718 70.8017 40.8934C70.529 40.4387 70.6508 39.8306 71.075 39.5382C71.5025 39.2453 72.0661 39.3789 72.3389 39.8341C74.7341 43.8272 75.998 48.4343 75.998 53.1591C75.998 57.8843 74.7341 62.4915 72.3389 66.4845C72.1638 66.7739 71.8702 66.9333 71.5705 66.9333Z" fill="#1E417C"/>
<path d="M62.1955 57.5822C62.0232 57.5822 61.8542 57.531 61.7 57.4263C61.2758 57.1334 61.154 56.5258 61.4267 56.0706C61.9491 55.196 62.2252 54.1902 62.2252 53.1592C62.2252 52.1252 61.9491 51.12 61.4267 50.2448C61.154 49.7901 61.2758 49.1855 61.7 48.8926C62.1242 48.5997 62.6911 48.7303 62.9643 49.1855C63.6761 50.3784 64.0564 51.7499 64.0564 53.1592C64.0564 54.5655 63.6761 55.9401 62.9643 57.1304C62.7888 57.4228 62.4952 57.5822 62.1955 57.5822Z" fill="#1E417C"/>
</svg>
