<svg width="71" height="70" viewBox="0 0 71 70" fill="none" xmlns="http://www.w3.org/2000/svg">
<mask id="mask0_58624_8852" style="mask-type:luminance" maskUnits="userSpaceOnUse" x="0" y="0" width="71" height="70">
<path d="M0 0H70.1254V70H0V0Z" fill="white"/>
</mask>
<g mask="url(#mask0_58624_8852)">
<path d="M49.8057 65.6338H1.05362V68.644H49.8057V65.6338ZM26.3893 63.7139H31.775V40.7954H26.3893V63.7139ZM19.0857 63.7139H24.4715V46.9425H19.0857V63.7139ZM11.7822 63.7139H17.1686V41.0848H11.7822V63.7139ZM4.48073 63.7139H9.86648V51.9345H4.48073V63.7139ZM2.79323 38.6494C2.50447 38.3599 2.10443 38.1831 1.66425 38.1831C1.22477 38.1831 0.826839 38.3599 0.540191 38.6494C0.250725 38.9382 0.0732422 39.3326 0.0732422 39.777C0.0732422 40.2157 0.250725 40.6137 0.540191 40.8996C0.826839 41.1884 1.22477 41.3659 1.66425 41.3659C2.10443 41.3659 2.50236 41.1884 2.79323 40.8996C3.07988 40.6137 3.26018 40.2157 3.26018 39.777C3.26018 39.3326 3.07988 38.9382 2.79323 38.6494ZM13.8134 29.4999C13.5239 29.2146 13.1238 29.0336 12.6844 29.0336C12.2449 29.0336 11.8463 29.2146 11.5554 29.4999C11.2687 29.7893 11.0884 30.1887 11.0884 30.6275C11.0884 31.0669 11.2687 31.4642 11.5554 31.755C11.8448 32.041 12.2449 32.2164 12.6844 32.2164C13.1238 32.2164 13.5225 32.0396 13.8134 31.755C14.0993 31.4663 14.2754 31.0669 14.2754 30.6275C14.2754 30.1887 14.0993 29.7908 13.8134 29.4999ZM23.4291 33.7609C23.1425 33.4721 22.7445 33.2946 22.3051 33.2946C21.8649 33.2946 21.4669 33.4721 21.1761 33.7609C20.8866 34.0496 20.7091 34.4447 20.7091 34.8885C20.7091 35.3272 20.8866 35.7252 21.1761 36.0111C21.4655 36.2999 21.8649 36.4773 22.3051 36.4773C22.7445 36.4773 23.1425 36.2999 23.4291 36.0111C23.7186 35.7252 23.8961 35.3272 23.8961 34.8885C23.8961 34.4447 23.7186 34.0496 23.4291 33.7609ZM39.0765 50.8534C36.9784 49.4047 35.1556 47.4904 33.7865 45.1458C33.7548 45.1014 33.7231 45.05 33.7006 45.0007L33.6907 44.9881V63.7153H39.0765V50.8534ZM46.3786 53.7967C45.7884 53.7009 45.213 53.5748 44.6383 53.4213C43.3783 53.0861 42.1549 52.6121 40.9943 52.0099V63.7153H46.38V53.7967H46.3786ZM52.3898 24.5381C49.4395 23.7507 46.1927 24.0768 43.3417 25.7058C43.3241 25.715 43.31 25.7234 43.2966 25.7326C40.428 27.3856 38.506 30.0429 37.7129 32.9988C36.9241 35.9456 37.2502 39.1875 38.8814 42.0399C38.8912 42.0526 38.899 42.0666 38.9088 42.0814C40.5639 44.9465 43.2198 46.8657 46.1849 47.658C49.15 48.4497 52.4137 48.1144 55.2774 46.4664C58.1432 44.8134 60.0687 42.1561 60.8617 39.1973C61.6506 36.2541 61.3245 33.0087 59.6933 30.1612C59.6835 30.1471 59.6757 30.1295 59.6659 30.1168C58.0108 27.2546 55.3499 25.3304 52.3898 24.5381ZM42.3951 24.0493C45.7081 22.1569 49.4712 21.7773 52.8835 22.6922C56.2965 23.607 59.3665 25.8108 61.2871 29.0977C61.3195 29.1421 61.3463 29.1935 61.3688 29.2428C63.2465 32.5424 63.6268 36.2921 62.7105 39.6903C61.7992 43.1034 59.5877 46.1649 56.2965 48.0827C56.2564 48.1102 56.2148 48.137 56.1697 48.1546C52.8616 50.0421 49.1035 50.4175 45.6891 49.5089C42.2528 48.5905 39.1708 46.3579 37.2488 43.0393C37.239 43.0217 37.2263 43.0026 37.2171 42.9801C35.3268 39.6763 34.9458 35.9139 35.8578 32.5058C36.7819 29.0738 39.0131 25.9967 42.3359 24.0817C42.3535 24.0691 42.3761 24.0592 42.3951 24.0493ZM55.0062 51.0704C55.0379 51.0563 55.0696 51.0436 55.102 51.0337C55.8281 50.7478 56.5395 50.414 57.2367 50.0153C57.2783 49.9879 57.3184 49.9611 57.3628 49.9435C61.166 47.725 63.7226 44.1845 64.7797 40.246C65.8404 36.3083 65.4002 31.9706 63.2254 28.1589C63.1937 28.1173 63.1711 28.0772 63.1486 28.0328C60.9322 24.2346 57.3868 21.6815 53.4385 20.6272C49.5 19.5735 45.1566 20.0074 41.3394 22.1844C41.295 22.216 41.2436 22.2435 41.1943 22.2661C38.3524 23.9219 36.2128 26.3172 34.8711 29.0688C34.8436 29.1597 34.8021 29.2491 34.7479 29.3308C34.3527 30.1725 34.0365 31.0507 33.7914 31.9515C33.147 34.3504 33.0625 36.9034 33.5837 39.3938C33.6527 39.5241 33.6921 39.6748 33.6921 39.8326V39.8643C34.0457 41.318 34.6084 42.7442 35.3972 44.1063H35.3923L35.3972 44.1112C36.6988 46.3614 38.4609 48.1771 40.5062 49.5075C40.5386 49.5244 40.5752 49.5491 40.6055 49.5758C42.0113 50.4717 43.5382 51.1471 45.1341 51.5718C45.8778 51.7718 46.6392 51.9155 47.4005 52.0064C47.4322 52.0113 47.4646 52.0113 47.4963 52.0162C49.9874 52.3022 52.5623 52.0036 55.0062 51.0704ZM58.1467 54.7883L61.0667 53.1086L59.6835 50.7175C59.2482 51.0309 58.7939 51.3197 58.327 51.5915C58.2777 51.6232 58.2312 51.6507 58.177 51.6725C57.715 51.9395 57.2431 52.1789 56.7663 52.4008L58.1467 54.7883ZM68.5365 69.5539C68.5766 69.5271 68.6132 69.5046 68.6548 69.4856C69.3485 69.0637 69.8155 68.4073 70.0106 67.6749C70.2155 66.9191 70.1338 66.0951 69.7162 65.3746L63.1937 54.089L58.2791 56.9224L57.9354 57.1167L64.4635 68.4073C64.8805 69.1229 65.5509 69.6067 66.3088 69.811C67.0363 70.0075 67.8343 69.9342 68.5365 69.5539ZM54.8745 31.0521C56.5846 32.0938 58.1481 33.6109 59.4581 35.5434C59.6849 35.8597 59.7025 36.2956 59.4708 36.6337C58.1565 38.5761 56.5923 40.1009 54.8745 41.1468C53.1251 42.2103 51.2305 42.7759 49.2859 42.7759C47.3456 42.7759 45.4461 42.2103 43.6966 41.1468C41.9873 40.1059 40.428 38.5853 39.1138 36.6513C38.8912 36.3351 38.8736 35.904 39.1039 35.5653C40.4181 33.6186 41.9824 32.0938 43.6966 31.0521C45.4461 29.9837 47.3456 29.4238 49.2859 29.4238C51.2305 29.4238 53.1236 29.9837 54.8745 31.0521ZM51.8777 33.7341C51.2157 33.0728 50.3008 32.6657 49.2859 32.6657C48.2753 32.6657 47.359 33.0728 46.6969 33.7341C46.0349 34.3997 45.6222 35.3131 45.6222 36.3224C45.6222 37.3317 46.0349 38.2465 46.6969 38.9079C47.359 39.5741 48.2732 39.9812 49.2859 39.9812C50.3008 39.9812 51.2178 39.5741 51.8777 38.9079C52.5398 38.2465 52.9525 37.3331 52.9525 36.3224C52.9525 35.3117 52.5398 34.3983 51.8777 33.7341ZM44.72 39.5326C44.0805 38.6219 43.7044 37.5183 43.7044 36.3224C43.7044 34.7828 44.3298 33.389 45.3405 32.3797C45.3771 32.3382 45.4172 32.298 45.4637 32.2614C45.2017 32.3875 44.9475 32.5284 44.6932 32.6833C43.3734 33.4897 42.1458 34.6391 41.071 36.1005C42.1458 37.5584 43.3734 38.7135 44.6932 39.5136L44.72 39.5326ZM53.111 32.2614C53.1511 32.298 53.1927 32.3382 53.2342 32.3797C54.2449 33.389 54.8703 34.7828 54.8703 36.3224C54.8703 37.5169 54.4942 38.6219 53.8498 39.5326L53.8765 39.515C55.2013 38.7135 56.4289 37.5584 57.5037 36.102C56.4289 34.6391 55.2013 33.4897 53.8765 32.6847C53.6272 32.5298 53.368 32.3889 53.111 32.2614ZM34.7253 3.35781C32.6448 1.28014 29.7762 -0.000976562 26.6062 -0.000976562C23.434 -0.000976562 20.5633 1.28014 18.4878 3.35781C16.4122 5.43056 15.1248 8.29704 15.1248 11.4607C15.1248 13.4201 15.6142 15.2632 16.4756 16.8697C17.3651 18.5269 18.6526 19.944 20.2112 20.9899C20.6239 21.2392 20.7922 21.7688 20.5795 22.2118C20.2436 22.9316 19.8407 23.6155 19.3787 24.2522H19.3738C19.3048 24.3437 19.2378 24.4374 19.1688 24.529C19.7351 24.5113 20.2978 24.4423 20.8415 24.324C22.0029 24.0754 23.0946 23.6091 24.0609 22.957C24.2609 22.8119 24.513 22.74 24.7821 22.7851C25.0631 22.8267 25.3673 22.8612 25.6934 22.8887C25.9878 22.9112 26.2914 22.9253 26.6097 22.9253C29.7776 22.9253 32.6483 21.6399 34.7288 19.5672C36.8044 17.4937 38.0869 14.6273 38.0869 11.4593C38.0834 8.29704 36.8009 5.43056 34.7253 3.35781ZM27.4267 8.83019L25.9442 7.02438L24.4989 8.78582C24.3947 8.93091 24.2496 9.0443 24.0735 9.11614L21.8973 9.9627L23.1573 11.927C23.2432 12.0629 23.2981 12.2207 23.3073 12.3932L23.4432 14.7202L25.692 14.1307C25.8456 14.0864 26.0181 14.0814 26.1857 14.1258L28.4472 14.7181L28.5832 12.4137C28.5881 12.246 28.6374 12.0784 28.7332 11.9256L29.9939 9.96129L27.8169 9.11473V9.1098C27.6718 9.05698 27.5359 8.96119 27.4267 8.83019ZM26.6928 4.92417L28.7465 7.42371L31.7785 8.60975C32.2723 8.79991 32.5124 9.35771 32.3223 9.84579C32.2948 9.91481 32.2624 9.97679 32.223 10.0359L30.4812 12.7524L30.2911 15.9894C30.2587 16.5197 29.8114 16.9226 29.2804 16.8951C29.2036 16.8902 29.1219 16.8775 29.0487 16.8507L25.9427 16.0408L22.7924 16.8648C22.2811 16.9958 21.7592 16.6923 21.6268 16.1816C21.6092 16.1175 21.5993 16.0549 21.5993 15.9915H21.5951L21.4092 12.7538L19.6506 10.0155C19.3639 9.57111 19.497 8.98373 19.94 8.69779C19.9943 8.66116 20.0485 8.6337 20.1077 8.61186C21.1183 8.21746 22.129 7.81953 23.1396 7.42512L25.2025 4.9129C25.5385 4.50582 26.1414 4.44665 26.5491 4.7819C26.6062 4.82486 26.6513 4.87487 26.6928 4.92417ZM4.18985 39.1156L2.90733 37.6944L9.77422 31.5205L11.0567 32.9418L4.18985 39.1156ZM14.381 32.6509L15.2241 30.9388L20.0964 33.3298L19.2533 35.0399L14.381 32.6509ZM24.9786 34.973L24.0348 33.3073L33.278 28.0645L34.2217 29.7253L24.9786 34.973Z" fill="#1E417C"/>
</g>
</svg>
