<svg width="70" height="84" viewBox="0 0 70 84" fill="none" xmlns="http://www.w3.org/2000/svg">
<mask id="mask0_58624_34956" style="mask-type:luminance" maskUnits="userSpaceOnUse" x="0" y="0" width="70" height="84">
<path d="M0 0H69.8171V84H0V0Z" fill="white"/>
</mask>
<g mask="url(#mask0_58624_34956)">
<path d="M34.8843 8.11342C37.1203 8.11342 38.9385 6.29395 38.9385 4.05671C38.9385 1.81822 37.1203 0 34.8843 0C32.6508 0 30.8301 1.81822 30.8301 4.05671C30.8301 6.29395 32.6508 8.11342 34.8843 8.11342ZM34.8843 2.09133C35.968 2.09133 36.8497 2.97301 36.8497 4.05671C36.8497 5.14041 35.968 6.02209 34.8843 6.02209C33.8018 6.02209 32.9202 5.14041 32.9202 4.05671C32.9202 2.97301 33.8018 2.09133 34.8843 2.09133ZM62.5517 20.9183C64.7877 20.9183 66.6059 19.0988 66.6059 16.8604C66.6059 14.6231 64.7877 12.8036 62.5517 12.8036C60.3182 12.8036 58.4975 14.6231 58.4975 16.8604C58.5 19.0963 60.3182 20.9183 62.5517 20.9183ZM62.5517 14.895C63.6354 14.895 64.5171 15.7767 64.5171 16.8604C64.5171 17.9441 63.6354 18.827 62.5517 18.827C61.4693 18.827 60.5876 17.9441 60.5876 16.8604C60.5901 15.7767 61.4693 14.895 62.5517 14.895ZM62.5517 21.0168C58.5798 21.0168 55.3462 24.2517 55.3462 28.2274V28.5441C55.3462 28.6813 55.3599 28.816 55.3823 28.9469L49.1682 32.5372L49.4351 31.4062C49.8691 29.563 48.7242 27.7111 46.8836 27.2759C46.0929 27.0888 45.2798 27.1886 44.5603 27.5502C44.064 26.4927 43.1099 25.6634 41.8878 25.3741C40.8976 25.1409 39.905 25.303 39.0782 25.7569C39.0021 25.5774 38.9148 25.4003 38.8101 25.2307C38.2526 24.3303 37.3822 23.6993 36.3558 23.4573C36.2137 23.4237 36.0702 23.3975 35.9293 23.38V18.1087H39.7192C41.0248 18.1087 42.0898 17.0437 42.0898 15.7367V15.4187C42.0898 11.4443 38.8574 8.2082 34.883 8.2082C30.9086 8.2082 27.6762 11.4418 27.6762 15.4187V15.7367C27.6762 17.0437 28.7412 18.1087 30.0469 18.1087H33.8405V23.7005C33.3803 23.9063 32.9626 24.1981 32.6109 24.5585C32.1033 23.9661 31.4299 23.5459 30.658 23.3651C29.699 23.1381 28.7063 23.3002 27.8645 23.8215C27.0215 24.3428 26.4329 25.1583 26.2072 26.1186L24.7406 32.3427C24.586 32.9987 24.6172 33.6708 24.8167 34.3018L24.3865 34.7271L14.385 28.9482C14.4087 28.8172 14.4224 28.6838 14.4224 28.5454V28.2286C14.4224 24.253 11.19 21.0193 7.21559 21.0193C3.24119 21.0193 0.00878906 24.253 0.00878906 28.2286V28.5454C0.00878906 29.8523 1.07378 30.9173 2.37947 30.9173H12.0505C12.4458 30.9173 12.8162 30.8188 13.1442 30.6479L22.8401 36.251L21.2015 37.8697C19.9768 39.0794 19.9145 41.0373 21.0531 42.4265L24.5922 46.7389L13.5233 53.1338C12.8037 52.4804 11.8485 52.0813 10.8009 52.0813C8.56742 52.0813 6.7467 53.9008 6.7467 56.1393C6.7467 58.3765 8.56492 60.196 10.8009 60.196C13.0369 60.196 14.8551 58.3765 14.8551 56.1393C14.8551 55.7053 14.7865 55.2863 14.6593 54.8947L25.9366 48.3787L26.3169 48.8402V59.6909C26.3169 60.267 26.7846 60.7359 27.362 60.7359H33.8405V66.026C32.1083 66.4874 30.8301 68.0699 30.8301 69.9455C30.8301 72.1828 32.6483 74.0023 34.8843 74.0023C37.1203 74.0023 38.9385 72.1828 38.9385 69.9455C38.9385 68.0699 37.6603 66.4874 35.9293 66.026V60.7347H43.7572C44.3346 60.7347 44.8022 60.2658 44.8022 59.6884V48.9536C44.806 48.9499 44.8097 48.9487 44.8134 48.9449L55.1067 54.8922C54.9795 55.285 54.9109 55.7028 54.9109 56.1368C54.9109 58.3752 56.7292 60.1947 58.9652 60.1947C61.1987 60.1947 63.0194 58.3752 63.0194 56.1368C63.0194 53.8995 61.2012 52.08 58.9652 52.08C57.9176 52.08 56.9624 52.4791 56.2428 53.1326L46.2551 47.3624C47.8201 45.1626 48.2217 42.3779 47.4423 39.0457C47.6443 38.7289 47.7964 38.3785 47.885 38.0019L48.5135 35.3357L56.6244 30.6492C56.9512 30.82 57.324 30.9198 57.7181 30.9198H67.3879C68.6948 30.9198 69.7585 29.8548 69.7585 28.5479V28.2299C69.7585 24.253 66.5261 21.0168 62.5517 21.0168ZM29.7701 15.7417V15.425C29.7701 12.6016 32.0647 10.3045 34.8868 10.3045C37.7076 10.3045 40.0035 12.6016 40.0035 15.425V15.7417C40.0035 15.8939 39.8738 16.0223 39.7229 16.0223H30.0519C29.8973 16.0223 29.7701 15.8939 29.7701 15.7417ZM12.3323 28.5454C12.3323 28.6975 12.2039 28.826 12.0517 28.826H2.38071C2.22982 28.826 2.10137 28.6975 2.10137 28.5454V28.2286C2.10137 25.4053 4.39597 23.1107 7.21684 23.1107C10.039 23.1107 12.3336 25.4065 12.3336 28.2286V28.5454H12.3323ZM10.8047 58.1009C9.7222 58.1009 8.84052 57.2192 8.84052 56.1355C8.84052 55.0518 9.7222 54.1701 10.8047 54.1701C11.8884 54.1701 12.7675 55.0518 12.7675 56.1355C12.7675 57.2192 11.8884 58.1009 10.8047 58.1009ZM36.8497 69.943C36.8497 71.0267 35.968 71.9097 34.8843 71.9097C33.8018 71.9097 32.9202 71.0267 32.9202 69.943C32.9202 68.8593 33.8018 67.9777 34.8843 67.9777C35.968 67.9777 36.8497 68.8593 36.8497 69.943ZM45.3946 29.4794C45.7014 29.2899 46.0618 29.2313 46.4072 29.3123C47.1255 29.4819 47.5732 30.2065 47.4049 30.926L45.851 37.5193C45.7687 37.866 45.5554 38.1603 45.2499 38.3511C44.9431 38.5406 44.5852 38.5992 44.2385 38.5182C43.519 38.3486 43.0713 37.6253 43.2409 36.9057L44.7935 30.3112C44.8745 29.9645 45.0878 29.6702 45.3946 29.4794ZM41.4102 27.413C42.4116 27.65 43.0351 28.6576 42.7982 29.6615L41.2044 36.4231C41.2044 36.4231 41.2044 36.4231 41.2044 36.4244L41.1645 36.594C40.9276 37.5954 39.9212 38.2201 38.9186 37.9832C38.4359 37.8697 38.0244 37.5717 37.7613 37.1452C37.4994 36.7174 37.4146 36.2173 37.5306 35.7347L39.1642 28.7998C39.3999 27.7996 40.4051 27.1773 41.4102 27.413ZM35.877 25.4975C36.3596 25.611 36.7711 25.9091 37.0342 26.3356C37.2974 26.7633 37.3809 27.2634 37.2649 27.746L37.129 28.3222V28.3247L35.3582 35.8357C35.3008 36.0777 35.1985 36.3034 35.0551 36.4992L32.0135 33.7531L33.4115 27.8208L33.631 26.888C33.8679 25.8841 34.8756 25.2606 35.877 25.4975ZM28.2412 26.5987C28.3384 26.1822 28.5966 25.8293 28.9632 25.6011C29.3311 25.3716 29.7626 25.303 30.1791 25.4003C30.5956 25.4975 30.9485 25.7557 31.1768 26.1236C31.405 26.4915 31.4748 26.9229 31.3775 27.3395L30.2178 32.2616C29.1715 31.6967 27.8895 31.7366 26.8806 32.3751L28.2412 26.5987ZM42.7146 48.4636V58.6434H28.4095V48.4636C28.4095 48.4586 28.4095 48.4536 28.4095 48.4498C28.4095 48.4199 28.4083 48.39 28.4045 48.3613C28.4033 48.3476 28.4008 48.3351 28.3995 48.3214C28.3958 48.3002 28.3945 48.279 28.3908 48.2578C28.3871 48.2428 28.3833 48.2266 28.3783 48.2116C28.3746 48.1942 28.3696 48.1767 28.3646 48.1593C28.3596 48.1431 28.3546 48.1256 28.3472 48.1094C28.3422 48.0944 28.3372 48.0782 28.3297 48.0632C28.3222 48.0458 28.3135 48.0296 28.3073 48.0146C28.2998 47.9996 28.2935 47.9847 28.2861 47.971C28.2761 47.951 28.2649 47.9335 28.2549 47.9161C28.2474 47.9049 28.2412 47.8936 28.2337 47.8812C28.2187 47.8575 28.2013 47.835 28.1838 47.8138C28.1801 47.8088 28.1763 47.8039 28.1726 47.8001L22.673 41.0984C22.2153 40.5409 22.2166 39.8089 22.673 39.3575L27.7922 34.3043C28.2511 33.8504 28.9857 33.833 29.4658 34.2669L37.124 41.1819C37.1377 41.1944 37.1402 41.2156 37.1278 41.2293C36.7162 41.7331 36.2461 41.9963 35.6487 42.0561C34.6074 42.1584 32.6258 41.6708 29.0804 38.7526C28.634 38.3872 27.9768 38.4521 27.6089 38.8973C27.2435 39.3437 27.3071 40.0022 27.7536 40.3688C30.9211 42.974 33.4689 44.2148 35.5253 44.1562C36.0017 46.1802 35.7173 47.84 34.6411 49.4487C34.3194 49.9276 34.4478 50.5773 34.9267 50.8978C35.1063 51.0188 35.3083 51.0762 35.5066 51.0762C35.842 51.0762 36.1738 50.914 36.3758 50.6122C37.8024 48.4835 38.1778 46.2325 37.5393 43.5962C37.9845 43.3369 38.391 42.9902 38.7477 42.5524C39.3313 41.8379 39.375 40.8552 38.9161 40.1032C39.0607 40.1194 39.2054 40.1281 39.3488 40.1281C40.2517 40.1281 41.1146 39.8139 41.8018 39.2727C42.2669 39.8949 42.9441 40.3651 43.7572 40.5571C44.0191 40.6182 44.2834 40.6494 44.5466 40.6494C44.9032 40.6494 45.2574 40.5921 45.5966 40.4798C46.0954 43.5838 45.2749 45.937 43.1112 47.6467C42.8693 47.835 42.7146 48.1306 42.7146 48.4636ZM58.9652 54.1701C60.0476 54.1701 60.9293 55.0518 60.9293 56.1355C60.9293 57.2192 60.0476 58.1009 58.9652 58.1009C57.8815 58.1009 57.0023 57.2192 57.0023 56.1355C57.0023 55.0518 57.8815 54.1701 58.9652 54.1701ZM67.6685 28.5454C67.6685 28.6975 67.54 28.826 67.3879 28.826H57.7181C57.566 28.826 57.4375 28.6975 57.4375 28.5454V28.2286C57.4375 25.4053 59.7321 23.1107 62.5542 23.1107C65.3751 23.1107 67.6709 25.4065 67.6709 28.2286V28.5454H67.6685ZM58.9652 60.2932C54.992 60.2932 51.7584 63.5281 51.7584 67.505V67.8218C51.7584 69.13 52.8221 70.1937 54.129 70.1937H63.7988C65.1057 70.1937 66.1695 69.13 66.1695 67.8218V67.505C66.1707 63.5281 62.9383 60.2932 58.9652 60.2932ZM64.0806 67.8218C64.0806 67.9739 63.9522 68.1024 63.8013 68.1024H54.1303C53.9781 68.1024 53.8497 67.9739 53.8497 67.8218V67.505C53.8497 64.6817 56.1455 62.3846 58.9664 62.3846C61.7873 62.3846 64.0831 64.6817 64.0831 67.505V67.8218H64.0806ZM34.8843 74.0995C30.9124 74.0995 27.6787 77.3344 27.6787 81.3101V81.6268C27.6787 82.9338 28.7425 83.9987 30.0482 83.9987H39.7192C41.0248 83.9987 42.0898 82.9338 42.0898 81.6268V81.3101C42.0911 77.3344 38.8587 74.0995 34.8843 74.0995ZM40.001 81.6281C40.001 81.7802 39.8726 81.9087 39.7204 81.9087H30.0507C29.8985 81.9087 29.7701 81.7802 29.7701 81.6281V81.3113C29.7701 78.488 32.0647 76.1934 34.8868 76.1934C37.7076 76.1934 40.0035 78.4892 40.0035 81.3113V81.6281H40.001ZM7.21684 20.9183C9.45159 20.9183 11.2711 19.0988 11.2711 16.8604C11.2711 14.6231 9.45408 12.8036 7.21684 12.8036C4.98085 12.8036 3.16262 14.6231 3.16262 16.8604C3.16262 19.0963 4.98085 20.9183 7.21684 20.9183ZM7.21684 14.895C8.30054 14.895 9.18222 15.7767 9.18222 16.8604C9.18222 17.9441 8.30054 18.827 7.21684 18.827C6.13439 18.827 5.25271 17.9441 5.25271 16.8604C5.25271 15.7767 6.13439 14.895 7.21684 14.895ZM10.8047 60.2932C6.83274 60.2932 3.5991 63.5281 3.5991 67.505V67.8218C3.5991 69.13 4.66285 70.1937 5.96853 70.1937H15.6395C16.9452 70.1937 18.009 69.13 18.009 67.8218V67.505C18.009 63.5281 14.7778 60.2932 10.8047 60.2932ZM15.9201 67.8218C15.9201 67.9739 15.7904 68.1024 15.6395 68.1024H5.96853C5.81763 68.1024 5.68794 67.9739 5.68794 67.8218V67.505C5.68794 64.6817 7.98379 62.3846 10.8047 62.3846C13.6255 62.3846 15.9214 64.6817 15.9214 67.505V67.8218H15.9201Z" fill="#1E417C"/>
</g>
</svg>
