<svg width="70" height="66" viewBox="0 0 70 66" fill="none" xmlns="http://www.w3.org/2000/svg">
<mask id="mask0_58624_27595" style="mask-type:luminance" maskUnits="userSpaceOnUse" x="0" y="0" width="70" height="66">
<path d="M0 0H69.7181V66H0V0Z" fill="white"/>
</mask>
<g mask="url(#mask0_58624_27595)">
<path fill-rule="evenodd" clip-rule="evenodd" d="M12.5057 6.5556C12.069 6.11895 11.4649 5.84907 10.7978 5.84907C10.1308 5.84907 9.52666 6.11895 9.09002 6.5556C8.65268 6.99224 8.3828 7.59566 8.3828 8.26205C8.3828 8.92912 8.65337 9.53254 9.09002 9.96849C9.52666 10.4051 10.1308 10.6757 10.7978 10.6757C11.4649 10.6757 12.069 10.4051 12.5057 9.96849C12.943 9.53254 13.2129 8.92912 13.2129 8.26205C13.2129 7.59566 12.943 6.99224 12.5057 6.5556ZM10.7978 -0.00585938C13.7693 -0.00585938 16.459 1.19751 18.4063 3.1427C20.3535 5.08858 21.5576 7.77627 21.5576 10.7442C21.5576 13.7129 20.3535 16.4005 18.4063 18.3457C16.459 20.2916 13.7693 21.495 10.7978 21.495C7.82644 21.495 5.13667 20.2916 3.18941 18.3457C1.24215 16.4005 0.0380859 13.7129 0.0380859 10.7442C0.0380859 7.77627 1.24215 5.08858 3.18941 3.1427C5.13667 1.19751 7.82644 -0.00585938 10.7978 -0.00585938ZM17.4022 16.714C16.7739 15.656 15.8957 14.7598 14.8474 14.1073C13.6738 13.3772 12.2863 12.9551 10.7978 12.9551C9.30938 12.9551 7.92124 13.3772 6.74832 14.1073C5.69995 14.7598 4.82113 15.656 4.19349 16.714C4.29314 16.824 4.39486 16.932 4.50004 17.0365C6.11169 18.6467 8.33851 19.6425 10.7978 19.6425C13.2572 19.6425 15.484 18.6467 17.0957 17.0365C17.2001 16.932 17.3026 16.824 17.4022 16.714ZM3.03648 15.1114C2.30782 13.8215 1.89193 12.3316 1.89193 10.7442C1.89193 8.28696 2.8884 6.0629 4.50004 4.45264C6.11169 2.84237 8.33851 1.84591 10.7978 1.84591C13.2572 1.84591 15.484 2.84237 17.0957 4.45264C18.7073 6.0629 19.7045 8.28696 19.7045 10.7442C19.7045 12.3316 19.2879 13.8215 18.5592 15.1114C17.8278 14.0824 16.8971 13.2056 15.8245 12.5379C15.1256 12.1026 14.3664 11.7559 13.563 11.5116C13.6509 11.4376 13.7354 11.3594 13.8163 11.2784C14.5893 10.5062 15.0667 9.43981 15.0667 8.26274C15.0667 7.08497 14.5886 6.01861 13.8163 5.24635C13.0441 4.47478 11.977 3.99731 10.7978 3.99731C9.6187 3.99731 8.55165 4.47478 7.77939 5.24635C7.00643 6.01861 6.52896 7.08497 6.52896 8.26274C6.52896 9.43981 7.00712 10.5062 7.77939 11.2784C7.86035 11.3594 7.94477 11.4376 8.03265 11.5116C7.22925 11.7559 6.47014 12.1026 5.77054 12.5379C4.69864 13.2056 3.76792 14.0824 3.03648 15.1121V15.1114ZM60.6288 51.052C60.1921 50.6153 59.588 50.3455 58.921 50.3455C58.2539 50.3455 57.6498 50.6153 57.2131 51.052C56.7758 51.4886 56.5052 52.092 56.5052 52.7584C56.5052 53.4255 56.7758 54.0289 57.2131 54.4649C57.6498 54.9015 58.2539 55.1721 58.921 55.1721C59.588 55.1721 60.1921 54.9015 60.6288 54.4649C61.0661 54.0289 61.336 53.4255 61.336 52.7584C61.336 52.092 61.0661 51.4886 60.6288 51.052ZM58.921 44.4905C61.8917 44.4905 64.5821 45.6939 66.5287 47.6391C68.476 49.585 69.6807 52.2727 69.6807 55.2406C69.6807 58.2092 68.476 60.8969 66.5287 62.8421C64.5821 64.788 61.8917 65.9914 58.921 65.9914C55.9496 65.9914 53.2598 64.788 51.3125 62.8421C49.3653 60.8969 48.1605 58.2092 48.1605 55.2406C48.1605 52.2727 49.3653 49.585 51.3125 47.6391C53.2598 45.6939 55.9496 44.4905 58.921 44.4905ZM65.5253 61.2104C64.897 60.1524 64.0189 59.2562 62.9705 58.6037C61.7969 57.8736 60.4094 57.4515 58.921 57.4515C57.4318 57.4515 56.0444 57.8736 54.8714 58.6037C53.8231 59.2562 52.9442 60.1524 52.3159 61.2104C52.4156 61.3204 52.518 61.4284 52.6232 61.5329C54.2348 63.1431 56.4609 64.1389 58.921 64.1389C61.3803 64.1389 63.6071 63.1431 65.2188 61.5329C65.3233 61.4284 65.4257 61.3204 65.5253 61.2104ZM51.1589 59.6078C50.4302 58.3179 50.0143 56.828 50.0143 55.2406C50.0143 52.7833 51.0115 50.5593 52.6232 48.949C54.2348 47.3388 56.4616 46.3423 58.921 46.3423C61.3803 46.3423 63.6071 47.3388 65.2188 48.949C66.8304 50.5593 67.8269 52.7833 67.8269 55.2406C67.8269 56.828 67.411 58.3179 66.6823 59.6078C65.9509 58.5788 65.0202 57.702 63.9476 57.0342C63.2487 56.599 62.4896 56.2516 61.6862 56.008C61.7733 55.934 61.8585 55.8558 61.9394 55.7748C62.7117 55.0026 63.1898 53.9362 63.1898 52.7584C63.1898 51.5814 62.7117 50.515 61.9394 49.7427C61.1665 48.9712 60.0994 48.4937 58.921 48.4937C57.7418 48.4937 56.6748 48.9712 55.9018 49.7427C55.1295 50.515 54.6521 51.5807 54.6521 52.7584C54.6521 53.9369 55.1295 55.0026 55.9018 55.7748C55.9835 55.8558 56.0679 55.9333 56.1551 56.008C55.3517 56.2516 54.5926 56.599 53.8936 57.0342C52.8211 57.7013 51.891 58.5788 51.1589 59.6078ZM60.6288 6.55629C60.1915 6.11964 59.588 5.84907 58.921 5.84907C58.2539 5.84907 57.6498 6.11964 57.2124 6.55629C56.7758 6.99293 56.5052 7.59566 56.5052 8.26274C56.5052 8.92912 56.7758 9.53254 57.2124 9.96919C57.6498 10.4058 58.2539 10.6757 58.921 10.6757C59.588 10.6757 60.1915 10.4058 60.6288 9.96919C61.0654 9.53254 61.336 8.92912 61.336 8.26274C61.336 7.59566 61.0654 6.99293 60.6288 6.55629ZM58.921 -0.00585938C61.8917 -0.00585938 64.5821 1.19751 66.5287 3.1427C68.476 5.08858 69.6807 7.77627 69.6807 10.7442C69.6807 13.7129 68.476 16.4005 66.5287 18.3457C64.5821 20.2916 61.8917 21.495 58.921 21.495C55.9496 21.495 53.2598 20.2916 51.3125 18.3457C49.3653 16.4005 48.1605 13.7129 48.1605 10.7442C48.1605 7.77627 49.3653 5.08858 51.3125 3.1427C53.2598 1.19751 55.9496 -0.00585938 58.921 -0.00585938ZM65.5253 16.714C64.897 15.656 64.0189 14.7598 62.9705 14.1073C61.7969 13.3772 60.4094 12.9551 58.921 12.9551C57.4318 12.9551 56.0444 13.3772 54.8714 14.1073C53.8231 14.7598 52.9442 15.656 52.3159 16.714C52.4156 16.824 52.518 16.932 52.6232 17.0365C54.2348 18.6467 56.4609 19.6425 58.921 19.6425C61.3803 19.6425 63.6071 18.6467 65.2188 17.0365C65.3233 16.932 65.4257 16.824 65.5253 16.714ZM51.1589 15.1114C50.4302 13.8215 50.0143 12.3316 50.0143 10.7442C50.0143 8.28696 51.0115 6.0629 52.6232 4.45264C54.2348 2.84237 56.4616 1.84591 58.921 1.84591C61.3803 1.84591 63.6071 2.84237 65.2188 4.45264C66.8304 6.0629 67.8269 8.28696 67.8269 10.7442C67.8269 12.3316 67.411 13.8215 66.6823 15.1114C65.9509 14.0824 65.0202 13.2056 63.9476 12.5379C63.2487 12.1026 62.4896 11.7552 61.6862 11.5116C61.774 11.4376 61.8585 11.3594 61.9394 11.2784C62.7124 10.5062 63.1898 9.43981 63.1898 8.26205C63.1898 7.08497 62.7117 6.01861 61.9394 5.24635C61.1672 4.47478 60.1001 3.99731 58.921 3.99731C57.7418 3.99731 56.6748 4.47478 55.9025 5.24635C55.1295 6.01861 54.6521 7.08497 54.6521 8.26205C54.6521 9.43981 55.1302 10.5062 55.9025 11.2784C55.9835 11.3594 56.0679 11.4376 56.1558 11.5116C55.3524 11.7552 54.5933 12.1026 53.8936 12.5379C52.8218 13.2049 51.891 14.0824 51.1596 15.1114H51.1589ZM12.5057 51.052C12.069 50.6153 11.4649 50.3455 10.7978 50.3455C10.1308 50.3455 9.52666 50.6153 9.09002 51.052C8.65268 51.4886 8.3828 52.092 8.3828 52.7584C8.3828 53.4255 8.65268 54.0289 9.09002 54.4649C9.52666 54.9015 10.1308 55.1721 10.7978 55.1721C11.4649 55.1721 12.069 54.9015 12.5057 54.4649C12.943 54.0289 13.2129 53.4255 13.2129 52.7584C13.2129 52.092 12.943 51.4886 12.5057 51.052ZM10.7978 44.4905C13.7693 44.4905 16.459 45.6939 18.4063 47.6391C20.3535 49.585 21.5576 52.2727 21.5576 55.2406C21.5576 58.2092 20.3535 60.8969 18.4063 62.8421C16.459 64.788 13.7693 65.9914 10.7978 65.9914C7.82644 65.9914 5.13667 64.788 3.18941 62.8421C1.24215 60.8969 0.0380859 58.2092 0.0380859 55.2406C0.0380859 52.2727 1.24215 49.585 3.18941 47.6391C5.13667 45.6939 7.82644 44.4905 10.7978 44.4905ZM17.4022 61.2104C16.7746 60.1524 15.8957 59.2562 14.8474 58.6037C13.6745 57.8736 12.2863 57.4515 10.7978 57.4515C9.30938 57.4515 7.92194 57.8736 6.74832 58.6037C5.69995 59.2562 4.82182 60.1524 4.19349 61.2104C4.29314 61.3204 4.39486 61.4284 4.50004 61.5329C6.11169 63.1431 8.33851 64.1389 10.7978 64.1389C13.2572 64.1389 15.484 63.1431 17.0957 61.5329C17.2008 61.4284 17.3026 61.3204 17.4022 61.2104ZM3.03648 59.6078C2.30782 58.3179 1.89193 56.828 1.89193 55.2406C1.89193 52.7833 2.8884 50.5593 4.50004 48.949C6.11169 47.3388 8.33851 46.3423 10.7978 46.3423C13.2572 46.3423 15.484 47.3388 17.0957 48.949C18.7073 50.5593 19.7045 52.7833 19.7045 55.2406C19.7045 56.828 19.2886 58.3179 18.5599 59.6078C17.8278 58.5788 16.8977 57.702 15.8252 57.0342C15.1256 56.599 14.3671 56.2516 13.563 56.008C13.6509 55.934 13.7354 55.8558 13.8163 55.7748C14.5893 55.0026 15.0667 53.9362 15.0667 52.7584C15.0667 51.5814 14.5886 50.515 13.8163 49.7427C13.0441 48.9712 11.9763 48.4937 10.7978 48.4937C9.61939 48.4937 8.55165 48.9712 7.77939 49.7427C7.00643 50.515 6.52896 51.5807 6.52896 52.7584C6.52896 53.9369 7.00712 55.0026 7.77939 55.7748C7.86035 55.8558 7.94477 55.9333 8.03265 56.008C7.22856 56.2516 6.47014 56.599 5.77054 57.0342C4.69864 57.7013 3.76792 58.5788 3.03648 59.6078ZM26.2299 25.2995C26.2943 25.3452 26.3573 25.3937 26.4188 25.4449L26.4182 25.4456L26.4368 25.4608L26.4361 25.4615L29.2096 27.826L29.5169 28.0855C29.5287 28.0959 29.5397 28.1056 29.5508 28.116C29.7861 28.2973 30.0774 28.3734 30.3625 28.3492C30.6469 28.3256 30.9216 28.1997 31.1244 27.9769C31.1472 27.9464 31.1721 27.918 31.1984 27.8911C31.3735 27.6558 31.4469 27.3658 31.4233 27.0814C31.3977 26.7797 31.26 26.4891 31.0157 26.2822L27.0901 22.9537C27.0783 22.9433 27.0672 22.9336 27.0562 22.9233C26.8209 22.742 26.5296 22.6658 26.2438 22.6901C25.9469 22.715 25.6611 22.8506 25.4563 23.0914L25.4501 23.099C25.4404 23.1108 25.43 23.1219 25.4196 23.1329C25.2362 23.371 25.1594 23.6671 25.1836 23.9571C25.2086 24.2595 25.347 24.5501 25.5905 24.757L26.2299 25.2989V25.2995ZM25.0591 29.7982L23.7457 28.6778C23.5007 28.4689 23.3616 28.1755 23.336 27.871C23.3111 27.5658 23.3983 27.2523 23.6059 27.006L23.6052 27.0053L23.6142 26.9942C23.8183 26.7576 24.1007 26.624 24.3927 26.5998C24.6411 26.579 24.8965 26.6372 25.1151 26.7776L28.2326 29.4204L28.3647 29.5331C28.6097 29.7421 28.7481 30.0362 28.7737 30.3407C28.7993 30.6459 28.7114 30.9586 28.5045 31.2057V31.2064L28.4962 31.2168C28.2921 31.4541 28.0097 31.587 27.7177 31.6119C27.434 31.6354 27.1427 31.5565 26.906 31.3704L25.239 29.9407L25.2134 29.9193H25.2141C25.1636 29.8771 25.1117 29.8362 25.0591 29.7982ZM22.5527 33.1619L25.0515 35.3037L25.0695 35.3182C25.3082 35.5175 25.6071 35.6019 25.8978 35.5777C26.1863 35.5535 26.4652 35.4227 26.6673 35.1895L26.6818 35.1715C26.888 34.9244 26.9759 34.6103 26.9503 34.3037C26.9247 33.9965 26.787 33.7017 26.5427 33.4927L25.7635 32.8243C25.7393 32.8056 25.7158 32.7862 25.6916 32.7661L25.6923 32.7654L25.6736 32.7502V32.7495L25.6701 32.7461L23.936 31.2687C23.7145 31.1178 23.4537 31.0555 23.1983 31.0763C22.9091 31.1005 22.6302 31.232 22.4288 31.4645L22.4143 31.4825C22.2074 31.7302 22.1202 32.0444 22.1458 32.3509C22.1714 32.6575 22.3091 32.9523 22.5527 33.1613V33.1619ZM37.7813 19.2183L35.3746 18.4219C35.304 18.3983 35.2348 18.3783 35.167 18.361C34.5857 18.2136 34.1622 18.3215 33.855 18.5776C33.4917 18.88 33.2218 19.3941 33.0232 19.9761L34.9331 21.5877L37.7813 19.2183ZM31.4123 21.0355L34.12 23.3205C34.365 23.5274 34.5034 23.8173 34.529 24.1169C34.5532 24.4041 34.475 24.6989 34.2902 24.9363C34.2688 24.9591 34.2487 24.9826 34.23 25.0075C34.0259 25.2304 33.7491 25.357 33.4633 25.3812C33.1761 25.4054 32.8813 25.3272 32.6426 25.1418C32.617 25.1176 32.5893 25.0947 32.5596 25.0733L27.8575 21.1047C27.6125 20.8978 27.4741 20.6079 27.4485 20.3082C27.4243 20.0204 27.5025 19.7256 27.6887 19.4875C27.7094 19.4654 27.7295 19.4418 27.7475 19.4176C27.9523 19.1948 28.2284 19.0682 28.5142 19.044C28.8166 19.019 29.1259 19.1062 29.3702 19.3124L31.3244 20.9615C31.3521 20.9878 31.3811 21.0127 31.4123 21.0355ZM17.9177 38.1408L24.7269 46.4855L31.705 40.9019C31.9084 40.7379 32.161 40.6749 32.4011 40.7053C32.9582 40.7614 33.3561 40.8091 33.745 40.8562C36.1745 41.1496 38.2214 41.3959 40.0691 39.8597L46.9751 34.1148L46.9737 34.1127C46.9952 34.0941 47.0166 34.0768 47.0381 34.0608C47.0665 34.0345 47.0935 34.0069 47.1191 33.9778L47.1308 33.9647C47.3024 33.7619 47.4014 33.4969 47.4235 33.2208C47.4519 32.872 47.3592 32.5191 47.1419 32.2575L47.1412 32.2568C47.0132 32.1039 46.8554 31.9897 46.6824 31.9164C46.5018 31.8396 46.3025 31.8077 46.1025 31.8216C45.5925 31.8575 45.1503 31.4742 45.1144 30.9649C45.0874 30.5801 45.2991 30.2341 45.6244 30.0722C45.9233 29.902 46.1247 29.6245 46.2354 29.3269C46.3662 28.9754 46.3759 28.6287 46.2755 28.4177C45.9593 27.7589 45.2804 27.6599 44.8798 27.6018C44.5331 27.552 44.2708 27.5139 44.0051 27.3001C43.4716 26.8724 43.3941 26.4026 43.9096 25.7611L43.9733 25.6822C44.5449 24.9729 45.2728 24.0699 44.5476 23.2C44.3248 22.9322 44.0231 22.7745 43.7131 22.7413C43.4266 22.7101 43.1318 22.7862 42.8868 22.98L42.8654 22.9973C42.4737 23.3232 41.8918 23.2692 41.5658 22.8783C41.2448 22.4921 41.2918 21.9226 41.6676 21.5946V21.5939C42.0606 21.2507 42.3526 20.8058 42.444 20.3636C42.509 20.0501 42.4627 19.7346 42.2544 19.4744L42.2295 19.4418C42.0565 19.2488 41.77 19.1235 41.4558 19.0889C41.1313 19.0529 40.7956 19.1221 40.5465 19.3207C40.4891 19.3664 40.577 19.2924 40.5313 19.3304L40.3029 19.5207C40.2656 19.5574 40.2254 19.5906 40.1832 19.6197L36.1275 22.9938C36.2645 23.3025 36.3468 23.6312 36.3752 23.9647C36.4403 24.7335 36.2112 25.5286 35.6728 26.1659C35.1345 26.8019 34.3871 27.1603 33.6156 27.2254C33.5041 27.2344 33.392 27.2378 33.2799 27.2344C33.2689 27.871 33.0571 28.5097 32.6357 29.0474L32.6336 29.0508H32.6329L32.6177 29.0702C32.6025 29.0917 32.5859 29.1131 32.5679 29.1339L32.5623 29.1408C32.0496 29.7449 31.3486 30.0964 30.6192 30.1836L30.6199 30.1885C30.6843 30.9586 30.4573 31.7551 29.9238 32.3918H29.9231L29.9072 32.4104V32.4098L29.9037 32.4139C29.5432 32.8353 29.0913 33.1329 28.6014 33.3017C28.7073 33.5758 28.7723 33.8615 28.7965 34.1515C28.8602 34.9224 28.6332 35.7202 28.1004 36.3576L28.0997 36.3569L28.0782 36.3825L28.0748 36.3866C27.5406 37.0087 26.8064 37.3596 26.0493 37.4225C25.293 37.4848 24.5117 37.2613 23.882 36.7354L23.8571 36.7139V36.7132L23.8529 36.7105L21.777 34.9307L17.9177 38.1408ZM45.0258 47.3187L51.7962 39.0217L47.8519 35.7887C45.661 37.6287 43.448 39.4487 41.2489 41.2776C40.5507 41.8589 39.8573 42.2512 39.157 42.5087L45.0258 47.3187ZM53.6563 38.1588L49.0262 34.3646C49.1604 34.0463 49.2421 33.7072 49.2698 33.3654C49.3348 32.5634 49.1016 31.7275 48.5612 31.0784H48.5605C48.3314 30.803 48.0629 30.5781 47.7702 30.4044C47.8463 30.2625 47.9114 30.1179 47.9661 29.9705C48.2685 29.1574 48.2449 28.2571 47.9405 27.6226C47.454 26.6081 46.7336 26.1763 46.0797 25.968C46.8167 24.894 47.2824 23.5993 45.9669 22.0209C45.4943 21.4535 44.8673 21.0888 44.2016 20.9504C44.2217 20.8777 44.2397 20.8051 44.2542 20.7324C44.4258 19.9062 44.2874 19.0557 43.7027 18.3243C43.6902 18.3084 43.6771 18.2938 43.6639 18.2786C43.6529 18.2662 43.6418 18.2537 43.6307 18.2412C43.1463 17.6856 42.4177 17.3354 41.6593 17.2517C40.9057 17.1687 40.1043 17.3403 39.4601 17.824L35.9538 16.6635C35.8403 16.6261 35.7303 16.5936 35.623 16.5666C34.3878 16.2532 33.4253 16.5355 32.6751 17.159C32.1852 17.5672 31.8136 18.1118 31.5334 18.7187L30.5653 17.9015C29.9279 17.3631 29.1315 17.1348 28.362 17.1991C27.6125 17.2621 26.8846 17.6025 26.351 18.206C26.3164 18.2406 26.2853 18.2779 26.2576 18.316C25.7532 18.9429 25.54 19.7138 25.6023 20.4598C25.6154 20.6113 25.6397 20.7615 25.675 20.9096C25.0785 21.0452 24.518 21.3614 24.0841 21.8527C24.0412 21.8963 24.0031 21.9434 23.9699 21.9932C23.482 22.616 23.2758 23.3758 23.3374 24.1093C23.3602 24.3806 23.4198 24.6491 23.5146 24.9072C23.0226 25.0753 22.5679 25.3736 22.2067 25.7971L22.2032 25.8012L22.2025 25.8006L22.1873 25.8192H22.1866C21.6524 26.4559 21.4261 27.2523 21.4905 28.0225C21.5341 28.5471 21.7133 29.0612 22.0219 29.5055C21.6496 29.6805 21.3071 29.9352 21.0213 30.268L21.0179 30.2722L21.0172 30.2715L20.9957 30.2971C20.4629 30.9344 20.2359 31.7323 20.2996 32.5032C20.3293 32.8575 20.4207 33.2069 20.5715 33.5342L16.0667 37.2814C16.0584 37.2876 16.0501 37.2938 16.0418 37.3007C15.6459 37.6225 15.5864 38.2038 15.9082 38.5996L23.8557 48.3387L23.8702 48.3567C24.1899 48.7546 24.7719 48.8175 25.1698 48.4978L32.5651 42.5799C32.8592 42.6132 33.1969 42.654 33.5284 42.6941C34.6681 42.8311 35.7365 42.9598 36.7655 42.9342L44.5483 49.313C44.5566 49.3206 44.5656 49.3275 44.5746 49.3352C44.9704 49.6569 45.5524 49.5967 45.8742 49.2016L53.812 39.4743C54.1338 39.0785 54.0736 38.4972 53.6777 38.1754C53.6708 38.1699 53.6639 38.1643 53.657 38.1588H53.6563ZM39.9853 6.3909C39.7231 5.95356 39.8663 5.38682 40.3036 5.12525C40.7417 4.86368 41.3091 5.00623 41.5707 5.44357L43.4197 8.52431C43.5726 8.75198 43.6231 9.04469 43.5318 9.32564C43.455 9.5623 43.2917 9.74637 43.0882 9.85501L40.0005 11.7047C39.5632 11.9663 38.9958 11.8237 38.7335 11.3864C38.4719 10.9484 38.6145 10.3816 39.0525 10.12L40.3306 9.3547C39.7826 9.22806 39.2297 9.12081 38.6719 9.03292C37.4443 8.83986 36.1711 8.73952 34.8591 8.73952C33.547 8.73952 32.2738 8.83986 31.0462 9.03292C29.7882 9.23083 28.5543 9.52908 27.3523 9.91867C26.8666 10.0764 26.3448 9.81141 26.187 9.32564C26.0286 8.84055 26.2943 8.31879 26.7808 8.16102C28.0596 7.74582 29.3896 7.42612 30.7639 7.20953C32.1125 6.99709 33.4806 6.88706 34.8591 6.88706C36.2375 6.88706 37.6056 6.99778 38.9543 7.20953C39.5355 7.30087 40.1092 7.41159 40.6739 7.53892L39.9853 6.3909ZM61.4841 38.1138C61.9221 37.8523 62.4896 37.9948 62.7518 38.4321C63.0134 38.8702 62.8708 39.4369 62.4328 39.6985L59.35 41.5454C59.1216 41.6983 58.8282 41.7489 58.5473 41.6575C58.3106 41.5807 58.1259 41.4174 58.0172 41.214L56.1661 38.1297C55.9046 37.6924 56.0471 37.1257 56.4852 36.8634C56.9225 36.6018 57.4899 36.7444 57.7522 37.1817L58.5182 38.4591C58.6449 37.9118 58.7528 37.3596 58.84 36.8018C59.0338 35.5756 59.1341 34.3037 59.1341 32.9924C59.1341 31.6818 59.0338 30.4099 58.84 29.1837C58.6421 27.9263 58.3438 26.6932 57.9536 25.4926C57.7958 25.0075 58.0615 24.4858 58.5473 24.328C59.0331 24.1702 59.5548 24.4359 59.7126 24.921C60.1285 26.1984 60.4482 27.5285 60.6648 28.9014C60.8772 30.2487 60.9879 31.6153 60.9879 32.9924C60.9879 34.3702 60.8772 35.7368 60.6648 37.0842C60.5734 37.6647 60.4634 38.2377 60.3354 38.8024L61.4841 38.1138ZM29.7335 59.5939C29.9951 60.0313 29.8525 60.598 29.4145 60.8603C28.9771 61.1218 28.4097 60.9793 28.1474 60.5419L26.2991 57.4612C26.1462 57.2335 26.0957 56.9401 26.187 56.6592C26.2638 56.4232 26.4272 56.2391 26.6306 56.1305L29.7176 54.2808C30.1556 54.0192 30.723 54.1618 30.9846 54.5991C31.2469 55.0365 31.1043 55.6032 30.6663 55.8648L29.3882 56.6308C29.9355 56.7574 30.4884 56.8647 31.0462 56.9526C32.2738 57.1457 33.547 57.246 34.8591 57.246C36.1711 57.246 37.4443 57.1457 38.6719 56.9526C39.93 56.7547 41.1645 56.4564 42.3658 56.0661C42.8516 55.9084 43.374 56.1741 43.5318 56.6592C43.6896 57.145 43.4238 57.666 42.938 57.8245C41.6593 58.239 40.3286 58.5594 38.9543 58.7753C37.6056 58.9877 36.2375 59.0985 34.8598 59.0985C33.4813 59.0985 32.1132 58.9877 30.7645 58.7753C30.1833 58.6839 29.6096 58.5739 29.0443 58.4459L29.7335 59.5939ZM8.23402 27.871C7.79599 28.1333 7.22856 27.9907 6.96699 27.5527C6.70472 27.1153 6.84797 26.5486 7.2853 26.287L10.3695 24.4394C10.5972 24.2872 10.8899 24.2367 11.1715 24.328C11.4075 24.4048 11.5923 24.5681 11.7009 24.7716L13.552 27.8558C13.8135 28.2931 13.671 28.8598 13.2337 29.1214C12.7956 29.383 12.2282 29.2404 11.9666 28.8031L11.1999 27.5264C11.0733 28.073 10.966 28.6259 10.8781 29.183C10.6844 30.4099 10.584 31.6818 10.584 32.9924C10.584 34.3037 10.6844 35.5756 10.8781 36.8018C11.076 38.0585 11.3743 39.2923 11.7646 40.4922C11.923 40.978 11.6573 41.4991 11.1715 41.6575C10.6857 41.8146 10.1633 41.5496 10.0055 41.0638C9.59033 39.7864 9.26993 38.4571 9.05334 37.0835C8.8409 35.7362 8.73018 34.3695 8.73018 32.9924C8.73018 31.6153 8.8409 30.2487 9.05334 28.9014C9.14468 28.3201 9.25471 27.7478 9.38273 27.1831L8.23402 27.871Z" fill="#1E417C"/>
</g>
</svg>
