<svg width="60" height="64" viewBox="0 0 60 64" fill="none" xmlns="http://www.w3.org/2000/svg">
<path d="M29.5862 11.3493C29.7722 11.3493 29.9581 11.3404 30.1432 11.3217C30.3291 11.3039 30.5124 11.2763 30.6957 11.2408C30.8781 11.2043 31.0587 11.1589 31.2366 11.1046C31.4146 11.0512 31.5899 10.989 31.7616 10.9178C31.9342 10.8466 32.1015 10.7665 32.2661 10.6793C32.4307 10.5922 32.5899 10.4961 32.7447 10.3929C32.8995 10.2896 33.049 10.1793 33.1931 10.061C33.3364 9.94354 33.4743 9.81898 33.606 9.6873C33.7377 9.55562 33.8622 9.41861 33.9806 9.27447C34.0989 9.13123 34.2092 8.98175 34.3133 8.82783C34.4165 8.67302 34.5117 8.51376 34.5998 8.35005C34.6879 8.18634 34.7671 8.01818 34.8382 7.84647C34.9094 7.67475 34.9726 7.50036 35.026 7.32242C35.0802 7.14448 35.1256 6.96386 35.1621 6.78236C35.1986 6.59997 35.2253 6.41579 35.244 6.23073C35.2618 6.04656 35.2715 5.86061 35.2715 5.67465C35.2715 5.4887 35.2618 5.30364 35.244 5.11858C35.2253 4.93351 35.1986 4.75023 35.1621 4.56784C35.1256 4.38544 35.0802 4.20572 35.026 4.02778C34.9726 3.84983 34.9094 3.67545 34.8382 3.50373C34.7671 3.33201 34.6879 3.16385 34.5998 3.00015C34.5117 2.83644 34.4165 2.67718 34.3133 2.52236C34.2092 2.36755 34.0989 2.21897 33.9806 2.07483C33.8622 1.93159 33.7377 1.79368 33.606 1.662C33.4743 1.53121 33.3364 1.40665 33.1931 1.28832C33.049 1.17088 32.8995 1.05966 32.7447 0.956452C32.5899 0.853244 32.4307 0.758044 32.2661 0.670851C32.1015 0.582768 31.9342 0.503583 31.7616 0.432405C31.5899 0.361228 31.4146 0.298947 31.2366 0.244674C31.0587 0.190401 30.8781 0.145915 30.6957 0.109436C30.5124 0.0729573 30.3291 0.0462655 30.1432 0.0275814C29.9581 0.00978695 29.7722 0 29.5862 0C29.4003 0 29.2143 0.00978695 29.0292 0.0275814C28.8433 0.0462655 28.66 0.0729573 28.4767 0.109436C28.2943 0.145915 28.1137 0.190401 27.9358 0.244674C27.7578 0.298947 27.5826 0.361228 27.4108 0.432405C27.2382 0.503583 27.071 0.582768 26.9064 0.670851C26.7418 0.758044 26.5825 0.853244 26.4277 0.956452C26.2729 1.05966 26.1234 1.17088 25.9802 1.28832C25.836 1.40665 25.6981 1.53121 25.5664 1.662C25.4348 1.79368 25.3102 1.93159 25.1919 2.07483C25.0735 2.21897 24.9632 2.36755 24.8591 2.52236C24.7559 2.67718 24.6607 2.83644 24.5726 3.00015C24.4845 3.16385 24.4054 3.33201 24.3342 3.50373C24.263 3.67545 24.1998 3.84983 24.1464 4.02778C24.0922 4.20572 24.0468 4.38544 24.0103 4.56784C23.9738 4.75023 23.9471 4.93351 23.9285 5.11858C23.9107 5.30364 23.9009 5.4887 23.9009 5.67465C23.9009 5.86061 23.9107 6.04656 23.9285 6.23073C23.9471 6.41579 23.9738 6.59997 24.0103 6.78236C24.0468 6.96386 24.0922 7.14448 24.1464 7.32242C24.1998 7.50036 24.263 7.67475 24.3342 7.84647C24.4054 8.01818 24.4845 8.18634 24.5726 8.35005C24.6607 8.51376 24.7559 8.67302 24.8591 8.82783C24.9632 8.98175 25.0735 9.13123 25.1919 9.27447C25.3102 9.41861 25.4348 9.55562 25.5664 9.6873C25.6981 9.81898 25.836 9.94354 25.9802 10.061C26.1234 10.1793 26.2729 10.2896 26.4277 10.3929C26.5825 10.4961 26.7418 10.5922 26.9064 10.6793C27.071 10.7665 27.2382 10.8466 27.4108 10.9178C27.5826 10.989 27.7578 11.0512 27.9358 11.1046C28.1137 11.1589 28.2943 11.2043 28.4767 11.2408C28.66 11.2763 28.8433 11.3039 29.0292 11.3217C29.2143 11.3404 29.4003 11.3493 29.5862 11.3493ZM29.5862 1.93337C29.709 1.93337 29.8318 1.9396 29.9537 1.95205C30.0756 1.96362 30.1974 1.98141 30.3176 2.00544C30.4377 2.02946 30.5569 2.05971 30.6743 2.0953C30.7918 2.13 30.9074 2.17181 31.0204 2.21897C31.1343 2.26523 31.2447 2.31773 31.3532 2.37556C31.4609 2.43339 31.5667 2.49656 31.6682 2.56418C31.7705 2.63269 31.8692 2.70565 31.9635 2.78305C32.0588 2.86046 32.1495 2.9432 32.2367 3.02951C32.323 3.11581 32.4057 3.20656 32.4831 3.30176C32.5614 3.39607 32.6344 3.49483 32.7029 3.59626C32.7705 3.69858 32.8337 3.80357 32.8915 3.91122C32.9494 4.01977 33.0019 4.13009 33.049 4.24309C33.0962 4.35608 33.1371 4.47175 33.1727 4.58919C33.2083 4.70574 33.2385 4.82497 33.2625 4.94508C33.2866 5.06519 33.3044 5.1862 33.3159 5.30809C33.3284 5.42998 33.3346 5.55276 33.3346 5.67465C33.3346 5.79743 33.3284 5.91933 33.3159 6.04122C33.3044 6.16311 33.2866 6.285 33.2625 6.40512C33.2385 6.52523 33.2083 6.64356 33.1727 6.761C33.1371 6.87845 33.0962 6.99322 33.049 7.10622C33.0019 7.2201 32.9494 7.33043 32.8915 7.43808C32.8337 7.54663 32.7705 7.65162 32.7029 7.75305C32.6344 7.85536 32.5614 7.95323 32.4831 8.04843C32.4057 8.14275 32.323 8.2335 32.2367 8.32069C32.1495 8.40699 32.0588 8.48885 31.9635 8.56714C31.8692 8.64455 31.7705 8.71751 31.6682 8.78512C31.5667 8.85363 31.4609 8.9168 31.3532 8.97464C31.2447 9.03158 31.1343 9.08407 31.0204 9.13123C30.9074 9.17838 30.7918 9.21931 30.6743 9.2549C30.5569 9.29049 30.4377 9.31985 30.3176 9.34387C30.1974 9.36789 30.0756 9.38569 29.9537 9.39814C29.8318 9.40971 29.709 9.41594 29.5862 9.41594C29.4634 9.41594 29.3406 9.40971 29.2188 9.39814C29.0969 9.38569 28.975 9.36789 28.8549 9.34387C28.7347 9.31985 28.6155 9.29049 28.4981 9.2549C28.3806 9.21931 28.265 9.17838 28.152 9.13123C28.0381 9.08407 27.9278 9.03158 27.8192 8.97464C27.7116 8.9168 27.6057 8.85363 27.5043 8.78512C27.4019 8.71751 27.3032 8.64455 27.2089 8.56714C27.1137 8.48885 27.0229 8.40699 26.9357 8.32069C26.8494 8.2335 26.7667 8.14275 26.6893 8.04843C26.611 7.95323 26.538 7.85536 26.4695 7.75305C26.4019 7.65162 26.3387 7.54663 26.2809 7.43808C26.2231 7.33043 26.1706 7.2201 26.1234 7.10622C26.0763 6.99322 26.0353 6.87845 25.9997 6.761C25.9641 6.64356 25.9339 6.52523 25.9099 6.40512C25.8859 6.285 25.8681 6.16311 25.8565 6.04122C25.844 5.91933 25.8378 5.79743 25.8378 5.67465C25.8378 5.55276 25.844 5.42998 25.8565 5.30809C25.8681 5.1862 25.8859 5.06519 25.9099 4.94508C25.9339 4.82497 25.9641 4.70574 25.9997 4.58919C26.0353 4.47175 26.0763 4.35608 26.1234 4.24309C26.1706 4.13009 26.2231 4.01977 26.2809 3.91122C26.3387 3.80357 26.4019 3.69858 26.4695 3.59626C26.538 3.49483 26.611 3.39607 26.6893 3.30176C26.7667 3.20656 26.8494 3.11581 26.9357 3.02951C27.0229 2.9432 27.1137 2.86046 27.2089 2.78305C27.3032 2.70565 27.4019 2.63269 27.5043 2.56418C27.6057 2.49656 27.7116 2.43339 27.8192 2.37556C27.9278 2.31773 28.0381 2.26523 28.152 2.21897C28.265 2.17181 28.3806 2.13 28.4981 2.0953C28.6155 2.05971 28.7347 2.02946 28.8549 2.00544C28.975 1.98141 29.0969 1.96362 29.2188 1.95205C29.3406 1.9396 29.4634 1.93337 29.5862 1.93337Z" fill="#1E417C"/>
<mask id="mask0_58624_11991" style="mask-type:luminance" maskUnits="userSpaceOnUse" x="0" y="12" width="60" height="52">
<path d="M0 12.752H59.0767V64H0V12.752Z" fill="white"/>
</mask>
<g mask="url(#mask0_58624_11991)">
<path d="M58.7966 44.4693L55.4067 41.0954C55.3631 41.0447 55.3151 40.9993 55.2617 40.9584C55.2092 40.9184 55.1532 40.8828 55.0927 40.8543C55.0322 40.825 54.9699 40.8027 54.9058 40.7867C54.8409 40.7707 54.775 40.7609 54.7083 40.7582C54.6416 40.7556 54.5757 40.76 54.5099 40.7716C54.444 40.7822 54.38 40.8 54.3177 40.8241C54.2554 40.849 54.1967 40.8792 54.1406 40.9157C54.0846 40.9522 54.033 40.994 53.9858 41.0412C53.9387 41.0883 53.8969 41.139 53.8604 41.1951C53.8239 41.2511 53.7937 41.3099 53.7687 41.3721C53.7447 41.4335 53.7269 41.4976 53.7162 41.5634C53.7047 41.6293 53.7002 41.6951 53.7029 41.7618C53.7056 41.8286 53.7154 41.8935 53.7314 41.9585C53.7474 42.0234 53.7696 42.0857 53.799 42.1453C53.8284 42.2058 53.8631 42.2619 53.904 42.3144C53.9449 42.3668 53.9903 42.4149 54.041 42.4585L55.7742 44.189H45.3057C44.6464 41.898 41.6543 40.0028 37.1603 38.969L48.1528 27.9676V30.3938C48.1528 30.4579 48.159 30.5202 48.1715 30.5825C48.184 30.6447 48.2017 30.7052 48.2267 30.764C48.2507 30.8227 48.28 30.8787 48.3156 30.9312C48.3512 30.9837 48.3913 31.0327 48.4366 31.078C48.4811 31.1225 48.5301 31.1626 48.5834 31.1981C48.6359 31.2337 48.692 31.2631 48.7507 31.2871C48.8094 31.312 48.8699 31.3298 48.9322 31.3423C48.9945 31.3547 49.0577 31.361 49.1208 31.361C49.1849 31.361 49.2481 31.3547 49.3103 31.3423C49.3726 31.3298 49.4331 31.312 49.4918 31.2871C49.5506 31.2631 49.6066 31.2337 49.6591 31.1981C49.7116 31.1626 49.7605 31.1225 49.8059 31.078C49.8513 31.0327 49.8913 30.9837 49.926 30.9312C49.9616 30.8787 49.9919 30.8227 50.0159 30.764C50.0399 30.7052 50.0586 30.6447 50.0711 30.5825C50.0835 30.5202 50.0897 30.4579 50.0897 30.3938V25.6187C50.0897 25.5555 50.0835 25.4924 50.0711 25.4301C50.0586 25.3678 50.0399 25.3073 50.0159 25.2486C49.9919 25.1898 49.9616 25.1347 49.926 25.0813C49.8913 25.0288 49.8513 24.9799 49.8059 24.9354C49.7605 24.89 49.7116 24.85 49.6591 24.8153C49.6066 24.7797 49.5506 24.7503 49.4918 24.7254C49.4331 24.7014 49.3726 24.6827 49.3103 24.6703C49.2481 24.6587 49.1849 24.6525 49.1208 24.6525H44.327C44.2638 24.6525 44.2007 24.6587 44.1384 24.6703C44.0761 24.6827 44.0156 24.7014 43.9569 24.7254C43.8982 24.7503 43.8421 24.7797 43.7887 24.8153C43.7362 24.85 43.6873 24.89 43.6419 24.9354C43.5974 24.9799 43.5574 25.0288 43.5218 25.0813C43.4862 25.1347 43.4569 25.1898 43.4319 25.2486C43.4079 25.3073 43.3892 25.3678 43.3777 25.4301C43.3652 25.4924 43.359 25.5555 43.359 25.6187C43.359 25.6819 43.3652 25.745 43.3777 25.8073C43.3892 25.8696 43.4079 25.9301 43.4319 25.9888C43.4569 26.0475 43.4862 26.1027 43.5218 26.1561C43.5574 26.2086 43.5974 26.2575 43.6419 26.302C43.6873 26.3474 43.7362 26.3874 43.7887 26.4221C43.8421 26.4577 43.8982 26.488 43.9569 26.512C44.0156 26.536 44.0761 26.5547 44.1384 26.5671C44.2007 26.5796 44.2638 26.5858 44.327 26.5858H46.7871L34.9618 38.3889V33.1689H36.1825C36.3364 33.1689 36.4885 33.1538 36.6398 33.1235C36.7902 33.0941 36.937 33.0497 37.0793 32.9909C37.2217 32.9322 37.356 32.8602 37.4841 32.7747C37.6123 32.6893 37.7306 32.5923 37.8391 32.4838C37.9486 32.3753 38.0456 32.2569 38.131 32.1288C38.2164 32.0016 38.2884 31.8663 38.3472 31.7249C38.4068 31.5825 38.4513 31.4366 38.4806 31.2853C38.5109 31.135 38.526 30.9828 38.526 30.8289V17.8461C38.5278 17.5934 38.5091 17.3416 38.47 17.0916C38.4308 16.8416 38.3712 16.596 38.292 16.3558C38.2119 16.1156 38.1132 15.8833 37.9957 15.6591C37.8783 15.4349 37.743 15.2214 37.5909 15.0194C37.4379 14.8175 37.2697 14.6288 37.0864 14.4544C36.9031 14.2792 36.7065 14.1208 36.4974 13.9776C36.2875 13.8352 36.0677 13.7106 35.8382 13.6039C35.6077 13.4971 35.371 13.4099 35.1264 13.3414C34.1717 13.0985 33.2028 12.9339 32.2214 12.8485C32.1227 12.8387 32.0248 12.8441 31.9269 12.8645C31.8299 12.8841 31.7383 12.9188 31.652 12.9668C31.5648 13.0158 31.4874 13.0763 31.4198 13.1483C31.3513 13.2204 31.2961 13.3005 31.2525 13.3903L29.5389 16.9475L27.8342 13.3903C27.7906 13.3005 27.7354 13.2204 27.6669 13.1483C27.5993 13.0754 27.5219 13.0158 27.4356 12.9668C27.3484 12.9188 27.2568 12.8841 27.1598 12.8645C27.0619 12.8441 26.9641 12.8387 26.8653 12.8485C25.8839 12.933 24.915 13.0976 23.9603 13.3414C23.7157 13.4099 23.4781 13.4971 23.2477 13.6039C23.0181 13.7106 22.7975 13.8352 22.5884 13.9776C22.3784 14.1199 22.1818 14.2783 21.9976 14.4536C21.8134 14.6279 21.6453 14.8166 21.4923 15.0185C21.3392 15.2205 21.204 15.434 21.0857 15.6582C20.9673 15.8825 20.8686 16.1147 20.7885 16.3549C20.7084 16.596 20.6488 16.8407 20.6088 17.0916C20.5687 17.3416 20.55 17.5934 20.5509 17.8461V30.8289C20.5509 30.9837 20.5661 31.1359 20.5963 31.2871C20.6266 31.4375 20.671 31.5843 20.7307 31.7266C20.7894 31.869 20.8623 32.0042 20.9477 32.1324C21.034 32.2596 21.1319 32.3779 21.2414 32.4865C21.3499 32.5959 21.4691 32.6929 21.5981 32.7774C21.7263 32.8628 21.8615 32.9349 22.0047 32.9936C22.1471 33.0514 22.2948 33.0959 22.446 33.1253C22.5973 33.1546 22.7503 33.1689 22.9042 33.1689H24.2121V38.3889L12.3868 26.5858H14.8469C14.9101 26.5858 14.9733 26.5796 15.0355 26.5671C15.0978 26.5547 15.1583 26.536 15.217 26.512C15.2758 26.488 15.3318 26.4577 15.3852 26.4221C15.4377 26.3874 15.4866 26.3474 15.532 26.302C15.5765 26.2575 15.6165 26.2086 15.6521 26.1561C15.6877 26.1027 15.7171 26.0475 15.742 25.9888C15.766 25.9301 15.7847 25.8696 15.7962 25.8073C15.8087 25.745 15.8149 25.6819 15.8149 25.6187C15.8149 25.5555 15.8087 25.4924 15.7962 25.4301C15.7847 25.3678 15.766 25.3073 15.742 25.2486C15.7171 25.1898 15.6877 25.1347 15.6521 25.0813C15.6165 25.0288 15.5765 24.9799 15.532 24.9354C15.4866 24.89 15.4377 24.85 15.3852 24.8153C15.3318 24.7797 15.2758 24.7503 15.217 24.7254C15.1583 24.7014 15.0978 24.6827 15.0355 24.6703C14.9733 24.6587 14.9101 24.6525 14.8469 24.6525H10.0629C9.99881 24.6525 9.93564 24.6587 9.87336 24.6703C9.81108 24.6827 9.75058 24.7014 9.69186 24.7254C9.63313 24.7503 9.57708 24.7797 9.52459 24.8153C9.4712 24.85 9.42227 24.89 9.37778 24.9354C9.33241 24.9799 9.29237 25.0288 9.25767 25.0813C9.22208 25.1347 9.19183 25.1898 9.16781 25.2486C9.14379 25.3073 9.1251 25.3678 9.11265 25.4301C9.10019 25.4924 9.09396 25.5555 9.09396 25.6187V30.3938C9.09396 30.4579 9.10019 30.5202 9.11265 30.5825C9.1251 30.6447 9.14379 30.7052 9.16781 30.764C9.19183 30.8227 9.22208 30.8787 9.25767 30.9312C9.29237 30.9837 9.33241 31.0327 9.37778 31.078C9.42227 31.1225 9.4712 31.1626 9.52459 31.1981C9.57708 31.2337 9.63313 31.2631 9.69186 31.2871C9.75058 31.312 9.81108 31.3298 9.87336 31.3423C9.93564 31.3547 9.99881 31.361 10.0629 31.361C10.126 31.361 10.1892 31.3547 10.2515 31.3423C10.3138 31.3298 10.3743 31.312 10.433 31.2871C10.4917 31.2631 10.5478 31.2337 10.6003 31.1981C10.6536 31.1626 10.7026 31.1225 10.7471 31.078C10.7924 31.0327 10.8325 30.9837 10.8681 30.9312C10.9028 30.8787 10.933 30.8227 10.957 30.764C10.982 30.7052 10.9997 30.6447 11.0122 30.5825C11.0247 30.5202 11.0309 30.4579 11.0309 30.3938V27.9676L22.0136 38.9298C17.5196 39.9646 14.5373 41.8303 13.878 44.1507H3.40952L5.13291 42.43C5.17829 42.3846 5.21922 42.3357 5.25481 42.2832C5.2904 42.2298 5.32065 42.1738 5.34467 42.1151C5.36958 42.0563 5.38827 41.9958 5.40072 41.9327C5.41318 41.8704 5.41941 41.8072 5.41941 41.7431C5.41941 41.6791 5.41318 41.6159 5.40072 41.5536C5.38827 41.4914 5.36958 41.4309 5.34467 41.3712C5.32065 41.3125 5.2904 41.2565 5.25481 41.204C5.21922 41.1506 5.17829 41.1017 5.13291 41.0572C5.08843 41.0127 5.03949 40.9726 4.98611 40.9379C4.93362 40.9024 4.87845 40.873 4.81973 40.849C4.76101 40.825 4.70051 40.8063 4.63823 40.7947C4.57595 40.7822 4.51367 40.776 4.4505 40.776C4.38644 40.776 4.32416 40.7822 4.26188 40.7947C4.19959 40.8063 4.13909 40.825 4.08126 40.849C4.02254 40.873 3.96649 40.9024 3.91399 40.9379C3.8615 40.9726 3.81257 41.0127 3.76719 41.0572L0.377344 44.4693C0.332858 44.5146 0.29282 44.5627 0.258121 44.6161C0.223422 44.6686 0.193171 44.7237 0.169149 44.7824C0.145126 44.8412 0.127332 44.9008 0.114876 44.9631C0.102419 45.0253 0.0961914 45.0876 0.0961914 45.1508C0.0961914 45.214 0.102419 45.2771 0.114876 45.3385C0.127332 45.4008 0.145126 45.4613 0.169149 45.5191C0.193171 45.5779 0.223422 45.6339 0.258121 45.6864C0.29282 45.7389 0.332858 45.7878 0.377344 45.8323L3.76719 49.2159C3.81257 49.2604 3.8615 49.3005 3.91399 49.3352C3.96649 49.3699 4.02254 49.4001 4.08126 49.4241C4.13909 49.4482 4.19959 49.4659 4.26188 49.4784C4.32416 49.4909 4.38644 49.4971 4.4505 49.4971C4.51367 49.4971 4.57595 49.4909 4.63823 49.4784C4.70051 49.4659 4.76101 49.4482 4.81973 49.4241C4.87845 49.4001 4.93362 49.3699 4.98611 49.3352C5.03949 49.3005 5.08843 49.2604 5.13291 49.2159C5.17829 49.1706 5.21922 49.1216 5.25481 49.0691C5.2904 49.0157 5.32065 48.9606 5.34467 48.901C5.36958 48.8423 5.38827 48.7817 5.40072 48.7195C5.41318 48.6563 5.41941 48.5931 5.41941 48.5291C5.41941 48.4659 5.41318 48.4027 5.40072 48.3396C5.38827 48.2773 5.36958 48.2168 5.34467 48.1581C5.32065 48.0984 5.2904 48.0433 5.25481 47.9899C5.21922 47.9374 5.17829 47.8885 5.13291 47.8431L3.39973 46.0841H13.8878C14.556 48.4036 17.597 50.3085 22.0038 51.3237L12.813 60.4976V58.0616C12.813 57.9975 12.8068 57.9352 12.7943 57.8729C12.7819 57.8107 12.7632 57.7502 12.7392 57.6914C12.7151 57.6327 12.6849 57.5767 12.6502 57.5242C12.6146 57.4717 12.5746 57.4227 12.5292 57.3774C12.4847 57.3329 12.4358 57.2928 12.3824 57.2573C12.3299 57.2217 12.2738 57.1923 12.2151 57.1683C12.1564 57.1434 12.0959 57.1256 12.0336 57.1131C11.9713 57.1007 11.9082 57.0944 11.8441 57.0944C11.7809 57.0944 11.7178 57.1007 11.6555 57.1131C11.5932 57.1256 11.5327 57.1434 11.474 57.1683C11.4152 57.1923 11.3592 57.2226 11.3067 57.2573C11.2533 57.2928 11.2044 57.3329 11.1599 57.3774C11.1145 57.4227 11.0745 57.4717 11.0389 57.5242C11.0042 57.5767 10.9739 57.6327 10.9499 57.6914C10.925 57.7502 10.9072 57.8107 10.8948 57.8729C10.8823 57.9352 10.8761 57.9975 10.8761 58.0616V62.8367C10.8761 62.8999 10.8823 62.963 10.8948 63.0253C10.9072 63.0876 10.925 63.1481 10.9499 63.2068C10.9739 63.2656 11.0042 63.3207 11.0389 63.3741C11.0745 63.4266 11.1145 63.4755 11.1599 63.52C11.2044 63.5654 11.2533 63.6054 11.3067 63.6401C11.3592 63.6757 11.4152 63.7051 11.474 63.73C11.5327 63.754 11.5932 63.7727 11.6555 63.7851C11.7178 63.7967 11.7809 63.8029 11.8441 63.8029H16.629C16.6922 63.8029 16.7554 63.7967 16.8176 63.7851C16.8799 63.7727 16.9404 63.754 16.9992 63.73C17.0579 63.7051 17.1139 63.6757 17.1664 63.6401C17.2198 63.6054 17.2687 63.5654 17.3132 63.52C17.3586 63.4755 17.3986 63.4266 17.4342 63.3741C17.4689 63.3207 17.4992 63.2656 17.5232 63.2068C17.5481 63.1481 17.5659 63.0876 17.5784 63.0253C17.5908 62.963 17.597 62.8999 17.597 62.8367C17.597 62.7735 17.5908 62.7104 17.5784 62.6481C17.5659 62.5858 17.5481 62.5253 17.5232 62.4666C17.4992 62.4079 17.4689 62.3527 17.4342 62.2993C17.3986 62.2468 17.3586 62.1979 17.3132 62.1534C17.2687 62.108 17.2198 62.068 17.1664 62.0333C17.1139 61.9977 17.0579 61.9674 16.9992 61.9434C16.9404 61.9194 16.8799 61.9007 16.8176 61.8883C16.7554 61.8758 16.6922 61.8696 16.629 61.8696H14.1689L24.3091 51.749C27.828 52.2534 31.3459 52.2534 34.8648 51.749L45.005 61.8696H42.5449C42.4817 61.8696 42.4185 61.8758 42.3563 61.8883C42.294 61.9007 42.2335 61.9194 42.1748 61.9434C42.116 61.9674 42.06 61.9977 42.0075 62.0333C41.9541 62.068 41.9052 62.108 41.8607 62.1534C41.8153 62.1979 41.7753 62.2468 41.7397 62.2993C41.705 62.3527 41.6747 62.4079 41.6507 62.4666C41.6258 62.5253 41.608 62.5858 41.5956 62.6481C41.5831 62.7104 41.5769 62.7735 41.5769 62.8367C41.5769 62.8999 41.5831 62.963 41.5956 63.0253C41.608 63.0876 41.6258 63.1481 41.6507 63.2068C41.6747 63.2656 41.705 63.3207 41.7397 63.3741C41.7753 63.4266 41.8153 63.4755 41.8607 63.52C41.9052 63.5654 41.9541 63.6054 42.0075 63.6401C42.06 63.6757 42.116 63.7051 42.1748 63.73C42.2335 63.754 42.294 63.7727 42.3563 63.7851C42.4185 63.7967 42.4817 63.8029 42.5449 63.8029H47.3298C47.393 63.8029 47.4562 63.7967 47.5184 63.7851C47.5807 63.7727 47.6412 63.754 47.6999 63.73C47.7587 63.7051 47.8147 63.6757 47.8672 63.6401C47.9206 63.6054 47.9695 63.5654 48.014 63.52C48.0594 63.4755 48.0994 63.4266 48.135 63.3741C48.1697 63.3207 48.2 63.2656 48.224 63.2068C48.2489 63.1481 48.2667 63.0876 48.2792 63.0253C48.2916 62.963 48.2978 62.8999 48.2978 62.8367V58.0616C48.2978 57.9975 48.2916 57.9352 48.2792 57.8729C48.2667 57.8107 48.2489 57.7502 48.224 57.6914C48.2 57.6327 48.1697 57.5767 48.135 57.5242C48.0994 57.4717 48.0594 57.4227 48.014 57.3774C47.9695 57.3329 47.9206 57.2928 47.8672 57.2573C47.8147 57.2217 47.7587 57.1923 47.6999 57.1683C47.6412 57.1434 47.5807 57.1256 47.5184 57.1131C47.4562 57.1007 47.393 57.0944 47.3298 57.0944C47.2658 57.0944 47.2026 57.1007 47.1403 57.1131C47.078 57.1256 47.0175 57.1434 46.9588 57.1683C46.9001 57.1923 46.844 57.2226 46.7915 57.2573C46.7382 57.2928 46.6892 57.3329 46.6447 57.3774C46.5994 57.4227 46.5593 57.4717 46.5237 57.5242C46.489 57.5767 46.4588 57.6327 46.4348 57.6914C46.4107 57.7502 46.392 57.8107 46.3796 57.8729C46.3671 57.9352 46.3609 57.9975 46.3609 58.0616V60.4976L37.1799 51.3237C41.5867 50.3085 44.6277 48.4232 45.2959 46.0841H55.7742L54.041 47.8137C53.9965 47.8591 53.9565 47.908 53.9209 47.9605C53.8862 48.013 53.8568 48.0682 53.8328 48.1269C53.8079 48.1856 53.7901 48.2461 53.7776 48.3075C53.7652 48.3698 53.759 48.4321 53.759 48.4953C53.759 48.5593 53.7652 48.6216 53.7776 48.6839C53.7901 48.7453 53.8079 48.8058 53.8328 48.8645C53.8568 48.9223 53.8862 48.9784 53.9209 49.0309C53.9565 49.0834 53.9965 49.1323 54.041 49.1768C54.0855 49.2222 54.1344 49.2613 54.1878 49.2969C54.2403 49.3316 54.2955 49.361 54.3542 49.385C54.4129 49.409 54.4734 49.4277 54.5357 49.4401C54.598 49.4526 54.6602 49.4579 54.7234 49.4579C54.7875 49.4579 54.8498 49.4526 54.912 49.4401C54.9743 49.4277 55.0348 49.409 55.0927 49.385C55.1514 49.361 55.2074 49.3316 55.2599 49.2969C55.3124 49.2613 55.3613 49.2222 55.4067 49.1768L58.7966 45.8038C58.9852 45.6134 59.0786 45.3848 59.0768 45.117C59.0679 44.8643 58.9745 44.649 58.7966 44.4693ZM22.963 31.2738C22.9078 31.2756 22.8553 31.2658 22.8037 31.2462C22.753 31.2257 22.7076 31.1964 22.6685 31.1581C22.6293 31.1199 22.5991 31.0763 22.5777 31.0255C22.5564 30.9748 22.5466 30.9223 22.5466 30.8681V17.8461C22.5448 17.7002 22.5546 17.5542 22.5768 17.4092C22.5982 17.2642 22.632 17.1227 22.6765 16.983C22.7219 16.8434 22.777 16.7081 22.8437 16.5782C22.9105 16.4474 22.987 16.3229 23.0742 16.2045C23.1605 16.0862 23.2566 15.9759 23.3607 15.8736C23.4657 15.7704 23.5778 15.6769 23.6979 15.5915C23.8171 15.507 23.9426 15.4323 24.0751 15.3682C24.2068 15.3032 24.3429 15.2499 24.4835 15.2072C25.0983 15.0479 25.7211 14.9287 26.3519 14.8495L28.6376 19.5962C28.7177 19.7643 28.8369 19.8978 28.9944 19.9974C29.151 20.0971 29.3236 20.1469 29.5096 20.1469C29.6955 20.1469 29.8672 20.0971 30.0247 19.9974C30.1822 19.8978 30.3014 19.7643 30.3815 19.5962L32.6761 14.8495C33.3069 14.9296 33.9297 15.0488 34.5454 15.2072C34.686 15.2499 34.8221 15.3032 34.9538 15.3682C35.0854 15.4323 35.2118 15.507 35.331 15.5915C35.4511 15.6769 35.5632 15.7704 35.6673 15.8736C35.7723 15.9759 35.8684 16.0862 35.9547 16.2045C36.041 16.3229 36.1184 16.4474 36.1851 16.5782C36.2519 16.7081 36.307 16.8434 36.3524 16.983C36.3969 17.1227 36.4307 17.2642 36.4521 17.4092C36.4743 17.5542 36.4841 17.7002 36.4823 17.8461V30.8289C36.4823 30.8832 36.4725 30.9348 36.4512 30.9846C36.4307 31.0344 36.4013 31.078 36.3631 31.1163C36.3248 31.1546 36.2812 31.1839 36.2314 31.2044C36.1816 31.2248 36.13 31.2355 36.0757 31.2355H34.9618V23.8882C34.9618 23.825 34.9555 23.7618 34.9431 23.6996C34.9306 23.6373 34.9128 23.5768 34.8879 23.5181C34.8639 23.4602 34.8345 23.4042 34.799 23.3517C34.7634 23.2983 34.7233 23.2494 34.678 23.2049C34.6335 23.1595 34.5845 23.1195 34.5311 23.0848C34.4787 23.0492 34.4226 23.0198 34.3639 22.9949C34.3052 22.9709 34.2447 22.9522 34.1824 22.9406C34.1201 22.9282 34.0569 22.9219 33.9938 22.9219C33.9297 22.9219 33.8665 22.9282 33.8042 22.9406C33.742 22.9522 33.6815 22.9709 33.6227 22.9949C33.564 23.0198 33.508 23.0492 33.4555 23.0848C33.403 23.1195 33.354 23.1595 33.3087 23.2049C33.2633 23.2494 33.2233 23.2983 33.1886 23.3517C33.153 23.4042 33.1227 23.4602 33.0987 23.5181C33.0747 23.5768 33.056 23.6373 33.0435 23.6996C33.0311 23.7618 33.0248 23.825 33.0248 23.8882V42.9229C33.0186 42.9994 33.0044 43.0742 32.9839 43.148C32.9626 43.2219 32.9359 43.293 32.9012 43.3616C32.8674 43.4301 32.8273 43.495 32.7811 43.5564C32.7348 43.6178 32.6841 43.6747 32.6271 43.7263C32.5702 43.7779 32.5097 43.8242 32.4447 43.8643C32.3789 43.9052 32.3104 43.939 32.2392 43.9666C32.168 43.9941 32.0942 44.0155 32.0186 44.0297C31.9429 44.044 31.8673 44.0511 31.7899 44.0511C31.7134 44.0511 31.6369 44.044 31.5621 44.0297C31.4865 44.0155 31.4127 43.9941 31.3415 43.9666C31.2694 43.939 31.2009 43.9052 31.136 43.8643C31.071 43.8242 31.0096 43.7779 30.9536 43.7263C30.8966 43.6747 30.845 43.6178 30.7988 43.5564C30.7534 43.495 30.7133 43.4301 30.6786 43.3616C30.6448 43.293 30.6173 43.2219 30.5968 43.148C30.5763 43.0742 30.5621 42.9994 30.5559 42.9229V34.5026C30.5559 34.4394 30.5496 34.3762 30.5372 34.314C30.5247 34.2517 30.506 34.1912 30.482 34.1325C30.4571 34.0737 30.4277 34.0186 30.3922 33.9661C30.3566 33.9127 30.3165 33.8638 30.272 33.8193C30.2267 33.7739 30.1777 33.7339 30.1252 33.6992C30.0719 33.6636 30.0167 33.6342 29.958 33.6093C29.8992 33.5853 29.8379 33.5666 29.7756 33.555C29.7133 33.5426 29.6501 33.5363 29.587 33.5363C29.5238 33.5363 29.4606 33.5426 29.3983 33.555C29.3361 33.5666 29.2747 33.5853 29.2159 33.6093C29.1572 33.6342 29.1021 33.6636 29.0487 33.6992C28.9962 33.7339 28.9472 33.7739 28.9019 33.8193C28.8574 33.8638 28.8173 33.9127 28.7818 33.9661C28.7462 34.0186 28.7168 34.0737 28.6919 34.1325C28.6679 34.1912 28.6492 34.2517 28.6367 34.314C28.6243 34.3762 28.618 34.4394 28.618 34.5026V42.9229C28.6118 42.9994 28.5976 43.0742 28.5771 43.148C28.5567 43.2219 28.5291 43.293 28.4953 43.3616C28.4606 43.4301 28.4205 43.495 28.3752 43.5564C28.3289 43.6178 28.2773 43.6747 28.2203 43.7263C28.1643 43.7779 28.1029 43.8242 28.0379 43.8643C27.973 43.9052 27.9045 43.939 27.8324 43.9666C27.7612 43.9941 27.6874 44.0155 27.6118 44.0297C27.537 44.044 27.4605 44.0511 27.384 44.0511C27.3066 44.0511 27.231 44.044 27.1553 44.0297C27.0797 44.0155 27.0059 43.9941 26.9347 43.9666C26.8635 43.939 26.795 43.9052 26.7292 43.8643C26.6642 43.8242 26.6037 43.7779 26.5468 43.7263C26.4898 43.6747 26.4391 43.6178 26.3929 43.5564C26.3466 43.495 26.3065 43.4301 26.2727 43.3616C26.238 43.293 26.2113 43.2219 26.19 43.148C26.1695 43.0742 26.1553 42.9994 26.1491 42.9229V23.8882C26.1491 23.825 26.1428 23.7618 26.1304 23.6996C26.1179 23.6373 26.0992 23.5768 26.0752 23.5181C26.0512 23.4602 26.0209 23.4042 25.9854 23.3517C25.9507 23.2983 25.9106 23.2494 25.8652 23.2049C25.8199 23.1595 25.7709 23.1195 25.7184 23.0848C25.6659 23.0492 25.6099 23.0198 25.5512 22.9949C25.4925 22.9709 25.4319 22.9522 25.3697 22.9406C25.3074 22.9282 25.2442 22.9219 25.1802 22.9219C25.117 22.9219 25.0538 22.9282 24.9915 22.9406C24.9293 22.9522 24.8688 22.9709 24.81 22.9949C24.7513 23.0198 24.6953 23.0492 24.6428 23.0848C24.5894 23.1195 24.5404 23.1595 24.496 23.2049C24.4506 23.2494 24.4105 23.2983 24.375 23.3517C24.3403 23.4042 24.31 23.4602 24.286 23.5181C24.2611 23.5768 24.2433 23.6373 24.2308 23.6996C24.2184 23.7618 24.2121 23.825 24.2121 23.8882V31.2355L22.963 31.2738ZM29.5478 50.2311C21.3454 50.2311 15.6316 47.553 15.6316 45.1561C15.6316 43.5119 18.614 41.4051 24.173 40.5055V42.9229C24.1739 43.1302 24.1943 43.3358 24.2353 43.5386C24.2762 43.7424 24.3367 43.939 24.4168 44.1312C24.4968 44.3225 24.5947 44.504 24.7095 44.6766C24.8252 44.8492 24.9568 45.0084 25.1036 45.1552C25.2504 45.302 25.4106 45.4328 25.5832 45.5485C25.7558 45.6633 25.9382 45.7611 26.1295 45.8403C26.3217 45.9204 26.5192 45.9809 26.7229 46.0218C26.9267 46.0628 27.1322 46.0832 27.3404 46.0841C27.7532 46.085 28.1509 46.0085 28.5335 45.8528C28.9161 45.6971 29.2542 45.4746 29.5478 45.1846C29.8423 45.4746 30.1804 45.6971 30.563 45.8528C30.9456 46.0085 31.3433 46.085 31.7561 46.0841C31.9661 46.0859 32.1734 46.0672 32.3789 46.0281C32.5844 45.9889 32.7846 45.9302 32.9786 45.8519C33.1725 45.7736 33.3576 45.6766 33.532 45.5618C33.7073 45.4462 33.8692 45.3154 34.0178 45.1686C34.1673 45.0218 34.2998 44.8616 34.4173 44.689C34.5347 44.5155 34.6335 44.3322 34.7144 44.1401C34.7954 43.947 34.8568 43.7486 34.8986 43.5431C34.9404 43.3384 34.9618 43.132 34.9618 42.9229V40.4771C40.5208 41.3659 43.5138 43.4737 43.5138 45.117C43.5138 47.5148 37.7902 50.192 29.587 50.192L29.5478 50.2311Z" fill="#1E417C"/>
</g>
</svg>
