<svg width="70" height="70" viewBox="0 0 70 70" fill="none" xmlns="http://www.w3.org/2000/svg">
<mask id="mask0_58624_18731" style="mask-type:luminance" maskUnits="userSpaceOnUse" x="0" y="0" width="69" height="70">
<path d="M0 0H68.9078V69.9998H0V0Z" fill="white"/>
</mask>
<g mask="url(#mask0_58624_18731)">
<path d="M2.33295 39.6662C2.33295 37.7369 3.90345 36.1664 5.83365 36.1664H22.1669C24.0962 36.1664 25.6667 37.7369 25.6667 39.6662V64.1661C25.6667 66.0955 24.0962 67.666 22.1669 67.666H5.83365C3.90345 67.666 2.33295 66.0955 2.33295 64.1661V39.6662ZM30.3335 25.6659H32.6664V27.9997H30.3335V25.6659ZM41.9999 13.9995H44.3329V16.3333H41.9999V13.9995ZM53.6664 2.33296H55.9993V4.66677H53.6664V2.33296ZM34.9994 50.1667V62.9992H27.9997V50.1667H34.9994ZM44.3329 38.4993V62.9992H37.3332V38.4993H44.3329ZM46.6667 26.8328H53.6664V62.9992H46.6667V26.8328ZM55.9993 15.1664H62.9999V62.9992H55.9993V15.1664ZM5.83365 69.9998H22.1669C24.9836 69.9998 27.3402 67.9911 27.8831 65.333H68.8327V62.9992H65.3328V13.9995C65.3328 13.3552 64.811 12.8334 64.1659 12.8334H54.8333C54.1882 12.8334 53.6664 13.3552 53.6664 13.9995V24.4999H45.4998C44.8555 24.4999 44.3329 25.0217 44.3329 25.6659V36.1664H36.1663C35.522 36.1664 34.9994 36.6882 34.9994 37.3333V47.8329H27.9997V39.6662C27.9997 37.5849 26.9028 35.7569 25.2597 34.7242L29.6495 30.3327H33.8333C34.4776 30.3327 34.9994 29.8109 34.9994 29.1667V24.982L41.316 18.6662H45.4998C46.144 18.6662 46.6667 18.1444 46.6667 17.4993V13.3155L52.9824 6.99973H57.1662C57.8105 6.99973 58.3331 6.47707 58.3331 5.83282V4.66677H65.3328V2.33296H58.3331V1.16606C58.3331 0.521813 57.8105 0 57.1662 0H52.4995C51.8552 0 51.3326 0.521813 51.3326 1.16606V5.34985L45.0168 11.6665H40.833C40.1888 11.6665 39.6661 12.1883 39.6661 12.8334V17.0172L33.3503 23.333H29.1666C28.5215 23.333 27.9997 23.8548 27.9997 24.4999V28.6837L22.8128 33.8697C22.6009 33.8461 22.3855 33.8326 22.1669 33.8326H5.83365C2.61666 33.8326 0 36.4509 0 39.6662V64.1661C0 67.3814 2.61666 69.9998 5.83365 69.9998Z" fill="#1E417C"/>
</g>
<path d="M6.99995 40.8338H21.0002V44.3337H6.99995V40.8338ZM5.83389 46.6666H22.1671C22.8113 46.6666 23.3332 46.1448 23.3332 45.5006V39.6669C23.3332 39.0227 22.8113 38.5 22.1671 38.5H5.83389C5.1888 38.5 4.66699 39.0227 4.66699 39.6669V45.5006C4.66699 46.1448 5.1888 46.6666 5.83389 46.6666Z" fill="#1E417C"/>
<path d="M19.8329 62.9995H15.1662V51.333H19.8329V62.9995ZM8.16645 58.3335H12.8332V62.9995H8.16645V58.3335ZM8.16645 51.333H12.8332V55.9997H8.16645V51.333ZM20.9998 49H6.99955C6.35531 49 5.8335 49.5218 5.8335 50.1669V64.1664C5.8335 64.8114 6.35531 65.3333 6.99955 65.3333H20.9998C21.644 65.3333 22.1667 64.8114 22.1667 64.1664V50.1669C22.1667 49.5218 21.644 49 20.9998 49Z" fill="#1E417C"/>
<mask id="mask1_58624_18731" style="mask-type:luminance" maskUnits="userSpaceOnUse" x="47" y="67" width="6" height="3">
<path d="M47.7241 67.5029H52.6957V69.9997H47.7241V67.5029Z" fill="white"/>
</mask>
<g mask="url(#mask1_58624_18731)">
<path d="M52.4988 69.9998V67.666H47.832V69.9998H52.4988Z" fill="#1E417C"/>
</g>
<mask id="mask2_58624_18731" style="mask-type:luminance" maskUnits="userSpaceOnUse" x="38" y="67" width="6" height="3">
<path d="M38.4302 67.5029H43.1856V69.9997H38.4302V67.5029Z" fill="white"/>
</mask>
<g mask="url(#mask2_58624_18731)">
<path d="M43.1664 69.9998V67.666H38.5005V69.9998H43.1664Z" fill="#1E417C"/>
</g>
<mask id="mask3_58624_18731" style="mask-type:luminance" maskUnits="userSpaceOnUse" x="29" y="67" width="5" height="3">
<path d="M29.1353 67.5029H33.8907V69.9997H29.1353V67.5029Z" fill="white"/>
</mask>
<g mask="url(#mask3_58624_18731)">
<path d="M33.8333 69.9998V67.666H29.1665V69.9998H33.8333Z" fill="#1E417C"/>
</g>
<mask id="mask4_58624_18731" style="mask-type:luminance" maskUnits="userSpaceOnUse" x="57" y="67" width="5" height="3">
<path d="M57.0195 67.5029H61.9911V69.9997H57.0195V67.5029Z" fill="white"/>
</mask>
<g mask="url(#mask4_58624_18731)">
<path d="M61.8333 69.9998V67.666H57.1665V69.9998H61.8333Z" fill="#1E417C"/>
</g>
<mask id="mask5_58624_18731" style="mask-type:luminance" maskUnits="userSpaceOnUse" x="67" y="2" width="3" height="3">
<path d="M67.6113 2.22363H70V4.8175H67.6113V2.22363Z" fill="white"/>
</mask>
<g mask="url(#mask5_58624_18731)">
<path d="M67.667 4.66681H69.9999V2.33301H67.667V4.66681Z" fill="#1E417C"/>
</g>
</svg>
