<svg width="71" height="62" viewBox="0 0 71 62" fill="none" xmlns="http://www.w3.org/2000/svg">
<mask id="mask0_58624_15121" style="mask-type:luminance" maskUnits="userSpaceOnUse" x="0" y="0" width="71" height="62">
<path d="M0 0H70.4889V62H0V0Z" fill="white"/>
</mask>
<g mask="url(#mask0_58624_15121)">
<path d="M38.8603 21.856C44.0227 24.9361 49.6691 26.7402 55.2609 27.107L55.0629 30.0543C55.0343 30.4803 55.2548 30.8846 55.6298 31.0908C55.7958 31.1826 55.9789 31.2276 56.1613 31.2276C56.3899 31.2276 56.6172 31.1568 56.8098 31.0166L66.4889 23.9711C66.7625 23.7717 66.9292 23.4587 66.9408 23.1205C66.9531 22.7829 66.8088 22.459 66.5502 22.2412L57.8388 14.9092C57.5216 14.6425 57.0807 14.5765 56.6989 14.7384C56.3171 14.9004 56.0585 15.2631 56.0306 15.6769L55.8217 18.7807C49.8957 18.3854 42.2411 16.0403 37.1787 13.0208C31.744 9.77874 27.7024 5.73438 24.8244 0.657654C24.5529 0.179245 23.9697 -0.0255936 23.4586 0.177884C22.9475 0.381361 22.6651 0.931226 22.7978 1.46476C24.8026 9.53035 30.6565 16.9631 38.8603 21.856ZM36.0497 14.9092C41.7049 18.2826 50.4387 20.8563 56.818 21.0299C57.4026 21.0435 57.9068 20.593 57.9463 20.0043L58.0817 17.9907L64.0574 23.0197L57.4175 27.8522L57.5332 26.1359C57.5536 25.8378 57.4515 25.5445 57.2501 25.3233C57.0494 25.1021 56.7676 24.9722 56.4682 24.9633C50.8804 24.7925 45.1817 23.0653 39.9886 19.9676C35.2208 17.1237 31.3017 13.3814 28.5653 9.16491C30.7232 11.3086 33.2078 13.214 36.0497 14.9092ZM69.388 54.9895H66.6359V41.8023C66.6359 41.1952 66.1425 40.7025 65.5348 40.7025H57.6496C57.0412 40.7025 56.5485 41.1952 56.5485 41.8023V54.9895H51.9937V33.885C51.9937 33.2773 51.501 32.7853 50.8926 32.7853H43.0074C42.3997 32.7853 41.9063 33.2773 41.9063 33.885V54.9895H37.3515V25.6173C37.3515 25.0103 36.8588 24.5176 36.2511 24.5176H28.3659C27.7575 24.5176 27.2648 25.0103 27.2648 25.6173V31.8278C26.4039 30.8009 25.4593 29.7222 24.4236 28.5844C25.4362 27.9746 26.114 26.8654 26.114 25.601C26.114 23.9289 24.9278 22.5284 23.3511 22.1949L25.4525 20.0955C26.8374 18.7127 26.8374 16.4615 25.4525 15.078C24.2807 13.9075 22.4167 13.7074 21.0209 14.6023C20.9658 14.6377 20.9338 14.6404 20.874 14.6152C20.8134 14.5907 20.793 14.5662 20.7794 14.5023C20.4255 12.8833 18.9658 11.708 17.308 11.708C15.6509 11.7087 14.1919 12.8833 13.838 14.5023C13.8237 14.5662 13.8033 14.5907 13.7434 14.6152C13.6828 14.6404 13.6508 14.6377 13.5964 14.6023C12.2 13.7074 10.3367 13.9068 9.16414 15.078C8.49518 15.7463 8.12702 16.6371 8.12702 17.5871C8.12702 18.5364 8.49518 19.4272 9.16414 20.0955L11.2656 22.1949C9.68951 22.5284 8.50267 23.9282 8.50267 25.601C8.50267 26.8654 9.18047 27.9746 10.1924 28.5844C6.43523 32.7145 3.86965 36.0593 2.17786 39.0264C-0.623187 43.9398 -0.679671 49.3697 2.02202 53.9238C4.99115 58.9284 10.7089 62.005 17.0018 62.005C17.1032 62.005 17.5128 62.005 17.6156 62.005C20.5092 62.005 23.2803 61.3524 25.7193 60.1628H69.388C69.9964 60.1628 70.4891 59.6708 70.4891 59.0631V56.0892C70.4891 55.4815 69.9964 54.9895 69.388 54.9895ZM58.7507 42.902H64.4337V54.9895H58.7507V42.902ZM44.1085 34.9847H49.7922V54.9895H44.1085V34.9847ZM29.467 26.717H35.15V54.9895H31.8985C32.1441 54.6445 32.3776 54.2899 32.5947 53.9238C35.2963 49.3697 35.2399 43.9398 32.4388 39.0271C31.6494 37.6422 30.6688 36.175 29.4663 34.5846V26.717H29.467ZM10.3285 17.5871C10.3285 17.2251 10.468 16.8862 10.7212 16.6337C11.1669 16.1886 11.8754 16.1124 12.4068 16.4533C13.067 16.8759 13.8611 16.9467 14.5859 16.6473C15.3107 16.3472 15.8217 15.7367 15.9891 14.9712C16.1239 14.3553 16.6785 13.9075 17.3087 13.9075C17.9382 13.9075 18.4935 14.3546 18.6282 14.9712C18.7949 15.7367 19.3067 16.3472 20.0315 16.6473C20.7555 16.9474 21.5497 16.8766 22.2105 16.4533C22.7413 16.1124 23.4504 16.1886 23.8962 16.6337C24.4222 17.159 24.4222 18.0145 23.8962 18.5405L20.3132 22.1194H14.3042L10.7212 18.5405C10.468 18.288 10.3285 17.9491 10.3285 17.5871ZM11.9883 24.3189H22.6283C23.3368 24.3189 23.9125 24.8939 23.9125 25.6017C23.9125 26.3087 23.3368 26.8838 22.6283 26.8838H11.9883C11.2806 26.8838 10.7042 26.3087 10.7042 25.601C10.7042 24.8939 11.2806 24.3189 11.9883 24.3189ZM17.2896 59.8035C11.661 59.894 6.53459 57.2155 3.9166 52.8023C1.59533 48.8899 1.65726 44.3842 4.0915 40.1152C5.8316 37.0631 8.58025 33.5495 12.7233 29.0832H21.8934C26.0364 33.5495 28.7851 37.0631 30.5252 40.1152C32.9594 44.3842 33.0213 48.8899 30.7008 52.8023C28.127 57.1399 23.1326 59.8056 17.6156 59.8056C17.5196 59.8056 17.3026 59.8028 17.2896 59.8035ZM68.2869 57.9641H29.1335C29.4316 57.7157 29.7194 57.4571 29.9984 57.1889H68.2869V57.9641ZM22.4732 47.3288C22.6032 48.4006 22.3146 49.3799 21.6375 50.1618C20.9032 51.0098 19.7184 51.5937 18.3642 51.7985V52.6008C18.3642 53.2079 17.8708 53.7006 17.2631 53.7006C16.6547 53.7006 16.162 53.2079 16.162 52.6008V51.7815C14.1095 51.4188 12.5273 50.0713 12.055 48.1767C11.908 47.5874 12.2667 46.9906 12.8567 46.8436C13.4467 46.698 14.0442 47.0552 14.1912 47.6446C14.5621 49.1315 16.0395 49.6651 17.2556 49.6787C17.2658 49.6787 17.2767 49.6787 17.2876 49.6793C17.3277 49.6793 17.3665 49.6787 17.4053 49.678C18.4846 49.6521 19.4925 49.2772 19.9723 48.7232C20.2431 48.4102 20.3431 48.0515 20.2873 47.5935C20.1955 46.8388 19.7504 45.9174 17.0964 45.4819C13.3909 44.8741 12.5266 42.9619 12.4538 41.464C12.3531 39.3918 13.7951 37.6579 16.0415 37.1481C16.081 37.1393 16.1218 37.1304 16.162 37.123V36.2859C16.162 35.6782 16.6554 35.1862 17.2631 35.1862C17.8708 35.1862 18.3642 35.6782 18.3642 36.2859V37.1128C19.8729 37.402 21.3299 38.3234 22.0771 40.1016C22.3126 40.6617 22.0492 41.3061 21.4885 41.5409C20.9277 41.7764 20.2826 41.513 20.0471 40.953C19.5265 39.7144 18.4098 39.2101 17.3271 39.206C17.1283 39.204 16.7527 39.2428 16.5281 39.2938C15.5835 39.5075 14.5947 40.1622 14.6533 41.3579C14.673 41.7703 14.7261 42.8646 17.4529 43.3117C18.5969 43.4995 22.0771 44.0698 22.4732 47.3288Z" fill="#1E417C"/>
</g>
</svg>
