<svg width="115" height="70" viewBox="0 0 115 70" fill="none" xmlns="http://www.w3.org/2000/svg">
<path d="M36.6223 50.6402L31.1398 43.1611L32.0446 49.7354C32.1254 50.0116 32.0982 50.3377 31.9882 50.613L26.6157 64.6156C25.9035 66.4215 26.5621 68.5863 28.2327 69.5174C28.5888 69.7101 28.9449 69.82 29.3029 69.9027C31.0571 70.2851 32.8668 69.3812 33.6053 67.6815L37.5271 58.4209L36.8421 51.1617C36.813 50.9691 36.7595 50.7765 36.6223 50.6402Z" fill="#1E417C"/>
<path d="M54.6688 27.2254L47.7967 26.2971C47.7967 26.2971 43.4652 20.0226 42.9108 19.2408C42.4316 18.5671 41.5353 17.0929 40.4717 16.3619C39.0933 15.4148 37.4067 15.0352 35.7737 15.3538C34.9121 15.5351 33.9613 16.0594 33.437 16.4371C32.9118 16.8139 24.9074 22.5829 24.9074 22.5829L23.157 23.9209C22.4495 24.4593 22.0004 25.272 21.9224 26.1581L21.1538 34.6322C21.1275 34.9394 21.1406 35.2391 21.197 35.5285C21.3098 36.1064 21.6142 36.6044 22.0004 37.0262L18.9749 43.2933L12.8065 40.3204C11.2609 39.5744 9.40333 40.2218 8.6573 41.7683L0.310026 59.067C-0.436944 60.6108 0.212309 62.4674 1.75887 63.2144L8.56522 66.4944C8.5718 68.4262 10.1447 70 12.0802 70C14.0195 70 15.5961 68.4234 15.5961 66.4841C15.5961 66.2323 15.5041 66.0124 15.4533 65.7775L23.5704 48.958C24.3155 47.4115 23.6681 45.5539 22.1206 44.8107L21.1434 44.339L24.1708 38.0645C24.2384 38.0673 24.2948 38.0974 24.3615 38.0974C26.0265 38.0814 27.3541 36.6786 27.5044 35.0249L28.1283 28.1218L30.7084 26.3347L29.7613 35.6751C29.6674 36.6147 29.922 37.5533 30.481 38.3163L38.5098 49.2521C38.8734 49.7501 39.0989 50.3355 39.1553 50.9481L40.56 65.9457C40.7291 67.8907 41.8932 69.6919 43.8213 69.9596C44.2037 70.016 44.5814 70.0104 44.9403 69.9568C46.7152 69.6919 48.3134 68.1585 48.1847 66.3498L47.3438 48.5484C47.3203 48.0504 47.1888 47.5609 46.9529 47.1193C46.9529 47.1193 42.0727 37.8991 41.7843 37.3316C41.5719 36.9144 41.6067 36.3309 41.6367 35.9185C41.6687 35.5069 42.1187 29.27 42.1187 29.27L43.3797 31.0758C43.888 31.8059 44.6782 32.2879 45.5614 32.4082L53.997 33.5479C54.3023 33.5883 54.604 33.5855 54.8933 33.5432C56.361 33.3261 57.5467 32.0925 57.6031 30.498C57.6586 28.8359 56.3178 27.4472 54.6688 27.2254ZM9.9652 53.0386L6.52068 60.2547C6.25384 60.8165 5.58298 61.0542 5.02205 60.7874C4.46017 60.5196 4.22246 59.8478 4.49024 59.2859L7.93476 52.0718C8.20254 51.5099 8.87341 51.2722 9.4334 51.54C9.99621 51.8078 10.233 52.4787 9.9652 53.0386ZM12.0802 67.8324C11.3361 67.8324 10.7291 67.2273 10.7291 66.4841C10.7291 65.74 11.3361 65.1349 12.0802 65.1349C12.8244 65.1349 13.4304 65.74 13.4304 66.4841C13.4304 67.2273 12.8244 67.8324 12.0802 67.8324Z" fill="#1E417C"/>
<path d="M38.454 13.6053C42.1193 13.0594 44.6515 9.64499 44.1056 5.97967C43.5616 2.31623 40.1462 -0.215011 36.4781 0.330888C32.8109 0.873968 30.2806 4.28842 30.8246 7.95374C31.3705 11.62 34.7868 14.1484 38.454 13.6053Z" fill="#1E417C"/>
<path d="M77.6035 27.4423C78.0704 28.0737 78.9114 28.3067 79.6367 28.0014L104.074 17.7289C105.023 17.3305 105.373 16.156 104.796 15.3019C103.419 13.263 100.715 12.4635 98.4049 13.5581L93.2269 16.0085C93.0493 16.094 92.8426 16.0968 92.6641 16.017L84.4126 12.3507C84.1571 12.2361 83.8658 12.2333 83.6074 12.3432L81.7273 13.1324C81.1213 13.3861 80.9127 14.1416 81.3036 14.6705L84.6334 19.1871C84.8853 19.5301 84.7622 20.0168 84.3798 20.1991L80.0934 22.2267C79.8989 22.3178 79.6715 22.3131 79.4826 22.2088L74.983 19.7678C74.8411 19.6936 74.672 19.6851 74.5235 19.7471L73.1649 20.3165C72.8492 20.4509 72.7411 20.8436 72.9441 21.1199L77.6035 27.4423Z" fill="#1E417C"/>
<mask id="mask0_58624_18682" style="mask-type:luminance" maskUnits="userSpaceOnUse" x="62" y="0" width="53" height="49">
<path d="M62.9839 0H114.915V48.1068H62.9839V0Z" fill="white"/>
</mask>
<g mask="url(#mask0_58624_18682)">
<path d="M112.945 0.0273438H64.9714C63.9106 0.0273438 63.0527 0.886124 63.0527 1.94504V46.0924C63.0527 47.1513 63.9106 48.011 64.9714 48.011H112.945C114.005 48.011 114.864 47.1513 114.864 46.0924V1.94504C114.864 0.886124 114.005 0.0273438 112.945 0.0273438ZM111.026 44.1738H66.8909V3.86367H111.026V44.1738Z" fill="#1E417C"/>
</g>
<path d="M101.46 32.7451H76.4568C75.3969 32.7451 74.5391 33.6039 74.5391 34.6637C74.5391 35.7236 75.3969 36.5824 76.4568 36.5824H101.46C102.52 36.5824 103.38 35.7236 103.38 34.6637C103.38 33.6039 102.52 32.7451 101.46 32.7451Z" fill="#1E417C"/>
</svg>
