<svg width="70" height="82" viewBox="0 0 70 82" fill="none" xmlns="http://www.w3.org/2000/svg">
<mask id="mask0_58624_18779" style="mask-type:luminance" maskUnits="userSpaceOnUse" x="0" y="0" width="70" height="82">
<path d="M0 0H69.9604V82H0V0Z" fill="white"/>
</mask>
<g mask="url(#mask0_58624_18779)">
<path fill-rule="evenodd" clip-rule="evenodd" d="M8.20566 49.4487C8.70404 49.919 8.72705 50.7029 8.25744 51.2042L7.14201 52.3857C6.8975 52.6468 6.56884 52.7727 6.23946 52.7727C5.93453 52.7727 5.62961 52.6677 5.39012 52.4375C4.89174 51.9672 4.86873 51.184 5.33834 50.6921L6.45377 49.5012C6.92339 49.0093 7.708 48.9783 8.20566 49.4487ZM2.77092 57.5278C2.14381 57.2559 1.85758 56.5245 2.13158 55.8974L2.70907 54.5806C2.9838 53.9528 3.71447 53.6709 4.34086 53.9427C4.96797 54.2146 5.2542 54.946 4.9802 55.5731L4.40199 56.8899C4.19847 57.3602 3.74395 57.6321 3.26643 57.6321C3.10102 57.6321 2.93202 57.6011 2.77092 57.5278ZM2.45018 62.8057C1.76553 62.8057 1.21105 62.252 1.21105 61.5623V60.193C1.21105 59.5134 1.76553 58.9596 2.45018 58.9596C3.13482 58.9596 3.6893 59.5134 3.6893 60.193V61.5623C3.6893 62.252 3.13482 62.8057 2.45018 62.8057ZM4.34158 67.8126C4.17977 67.8852 4.01148 67.9168 3.84536 67.9168C3.36855 67.9168 2.91332 67.645 2.70979 67.1747L2.1323 65.8579C1.85758 65.2308 2.14381 64.4994 2.77092 64.2275C3.39804 63.9557 4.12871 64.2376 4.40271 64.8647L4.9802 66.1815C5.2542 66.8093 4.96797 67.5407 4.34158 67.8126ZM8.25744 70.5612C8.72705 71.0524 8.70332 71.8363 8.20566 72.3066C7.96618 72.5368 7.66053 72.641 7.35632 72.641C7.02695 72.641 6.69757 72.5159 6.45377 72.2549L5.33834 71.0733C4.86873 70.572 4.89174 69.7881 5.39012 69.3178C5.88851 68.8575 6.6724 68.8784 7.14201 69.3696L8.25744 70.5612ZM13.8008 76.0592C13.567 76.4454 13.16 76.6547 12.7429 76.6547C12.5221 76.6547 12.2984 76.5921 12.0971 76.4663L10.5185 75.5048C9.93525 75.1495 9.75187 74.3865 10.1093 73.8011C10.4667 73.2157 11.2298 73.038 11.8137 73.394L13.3916 74.3555C13.9748 74.7108 14.1582 75.4738 13.8008 76.0592ZM20.8098 78.8395C20.6307 79.3516 20.1524 79.6651 19.6418 79.6651C19.5045 79.6651 19.3657 79.6443 19.2283 79.5918L17.2959 78.9122C16.6508 78.6828 16.3128 77.9823 16.5408 77.3343C16.7688 76.6864 17.4771 76.3519 18.1222 76.5814L20.0554 77.261C20.7004 77.4911 21.0385 78.2016 20.8098 78.8395ZM28.8026 80.449C28.7033 81.0553 28.1776 81.4839 27.5814 81.4839C27.5145 81.4839 27.4469 81.4839 27.3793 81.4731L25.2233 81.1179C24.548 81.0028 24.0906 80.3649 24.2006 79.6961C24.3121 79.0172 24.9493 78.5677 25.6246 78.672L27.7806 79.0272C28.4559 79.1423 28.9133 79.7802 28.8026 80.449ZM37.2556 80.7209C37.27 81.4106 36.7263 81.9751 36.0424 81.9852C35.6533 81.996 35.2772 81.996 34.9011 81.996C34.525 81.996 34.1488 81.996 33.7598 81.9852C33.0751 81.9751 32.5314 81.4106 32.5458 80.7209C32.5602 80.0413 33.1276 79.4976 33.8108 79.5084C34.5545 79.5292 35.2477 79.5292 35.9913 79.5084C36.6753 79.4976 37.2413 80.0413 37.2556 80.7209ZM45.6001 79.6961C45.7116 80.3649 45.2542 81.0028 44.5789 81.1179L42.4228 81.4731C42.3545 81.4839 42.2869 81.4839 42.2208 81.4839C41.6239 81.4839 41.0989 81.0553 40.9989 80.449C40.8881 79.7802 41.3455 79.1423 42.0216 79.0272L44.1769 78.672C44.8522 78.5677 45.4894 79.0172 45.6001 79.6961ZM53.2607 77.3343C53.4886 77.9823 53.1514 78.682 52.5056 78.9122L50.5732 79.5918C50.4365 79.6443 50.297 79.6651 50.1596 79.6651C49.649 79.6651 49.1715 79.3516 48.9917 78.8395C48.763 78.2016 49.101 77.4911 49.7468 77.261L51.6792 76.5814C52.3243 76.3519 53.0327 76.6864 53.2607 77.3343ZM59.6929 73.8011C60.0496 74.3865 59.8669 75.1495 59.283 75.5048L57.7051 76.4663C57.503 76.5921 57.2794 76.6547 57.0593 76.6547C56.6422 76.6547 56.2351 76.4454 56.0014 76.0592C55.644 75.4738 55.8267 74.7108 56.4106 74.3555L57.9885 73.394C58.5717 73.038 59.3347 73.2157 59.6929 73.8011ZM64.4113 69.3178C64.9097 69.7881 64.9327 70.572 64.4638 71.0733L63.3477 72.2541C63.1039 72.5159 62.7752 72.641 62.4459 72.641C62.1409 72.641 61.8353 72.5368 61.5958 72.3066C61.0981 71.8363 61.0744 71.0524 61.544 70.5612L62.6602 69.3696C63.1298 68.8784 63.9137 68.8575 64.4113 69.3178ZM67.6699 65.8579L67.0924 67.1747C66.8881 67.645 66.4336 67.9168 65.9561 67.9168C65.79 67.9168 65.6217 67.8852 65.4599 67.8126C64.8335 67.5407 64.5473 66.8093 64.8213 66.1815L65.3995 64.8647C65.6735 64.2376 66.4041 63.9557 67.0305 64.2275C67.6577 64.4994 67.9439 65.2308 67.6699 65.8579ZM68.5904 60.193V61.5623C68.5904 62.252 68.0359 62.8057 67.3513 62.8057C66.6674 62.8057 66.1122 62.252 66.1122 61.5623V60.193C66.1122 59.5134 66.6666 58.9596 67.3513 58.9596C68.0359 58.9596 68.5904 59.5134 68.5904 60.193ZM64.822 55.5731C64.5473 54.946 64.8335 54.2146 65.4606 53.9427C66.087 53.6709 66.8184 53.9528 67.0924 54.5806L67.6699 55.8974C67.9439 56.5245 67.6577 57.2559 67.0313 57.5278C66.8694 57.6011 66.7012 57.6321 66.535 57.6321C66.0575 57.6321 65.603 57.3602 65.3995 56.8899L64.822 55.5731ZM64.4638 50.6921C64.9327 51.1833 64.9097 51.9672 64.4113 52.4375C64.1726 52.6677 63.8669 52.7719 63.562 52.7719C63.2326 52.7719 62.904 52.6468 62.6602 52.385L61.544 51.2042C61.0751 50.7029 61.0981 49.919 61.5958 49.4479C62.0942 48.9783 62.8788 49.0093 63.3477 49.5005L64.4638 50.6921ZM67.2377 26.0046C67.416 25.691 67.3204 25.294 67.0162 25.0956L66.8709 25.0013C66.5581 24.7921 66.1301 24.8755 65.9165 25.179C64.3826 27.4055 62.6702 29.5371 60.827 31.5127C59.0133 33.4566 56.8479 35.7773 53.9712 36.9373C53.3988 37.23 52.7702 37.4285 52.1057 37.5019C51.9151 37.5436 51.7231 37.5752 51.526 37.5961C50.8982 37.6903 50.32 37.732 49.7864 37.732C46.3883 37.732 44.7386 36.07 42.5674 33.896L37.4246 28.7532C37.2916 28.618 37.1168 28.5447 36.9342 28.5447C36.9335 28.5447 36.9327 28.5447 36.932 28.5447C36.7479 28.5447 36.5732 28.618 36.4408 28.7532L36.3452 28.8582C36.1115 29.0876 36.0741 29.4228 36.2502 29.7047C36.6889 30.4152 37.119 31.0841 37.5347 31.732C40.3632 36.1326 42.5976 39.6134 42.5681 45.9888C42.5451 50.9222 40.9277 57.6321 39.5009 63.5587C39.1773 64.8963 38.8723 66.1714 38.5983 67.3631C38.5566 67.5407 38.6702 67.7291 38.8508 67.7709L39.1082 67.8435C39.2707 67.8859 39.4175 67.8226 39.5002 67.6766L46.7479 54.7058C46.9723 54.3088 47.3908 54.0787 47.8295 54.0787C47.9633 54.0787 48.0985 54.0995 48.2308 54.1412C48.7975 54.3397 49.1442 54.9043 49.055 55.4997L47.1406 68.1045C47.1104 68.3038 47.1945 68.439 47.2463 68.5022C47.2995 68.5749 47.4175 68.6799 47.6195 68.7007L47.9122 68.7216C48.1503 68.7324 48.3394 68.6173 48.4308 68.3972C51.5519 60.7575 54.21 52.8036 56.5566 44.0657C56.8946 42.8115 57.3757 41.7658 58.1172 40.7C61.3211 36.0592 64.389 31.1157 67.2377 26.0046ZM33.5519 29.7047C33.7274 29.4221 33.69 29.0876 33.4563 28.8582L33.3614 28.7532C33.2283 28.618 33.0543 28.5447 32.8702 28.5447C32.8694 28.5447 32.868 28.5447 32.8673 28.5447C32.6846 28.5447 32.5106 28.618 32.3775 28.7532L27.2348 33.896C24.722 36.4152 22.9068 38.2333 18.2754 37.5961C18.0791 37.5752 17.8863 37.5436 17.6958 37.5019C17.0313 37.4285 16.4034 37.23 15.831 36.9373C12.9536 35.7773 10.7889 33.4566 8.97445 31.5127C7.13123 29.5371 5.41961 27.4055 3.88563 25.179C3.75115 24.9906 3.53324 24.8863 3.31245 24.8863C3.18013 24.8863 3.04708 24.9179 2.92986 25.0013L2.78603 25.0956C2.4811 25.294 2.38617 25.691 2.5638 26.0046C5.4117 31.1157 8.48038 36.0592 11.6857 40.7C12.4264 41.7658 12.9076 42.8115 13.2463 44.0657C15.5922 52.8036 18.2502 60.7575 21.3721 68.3972C21.462 68.6173 21.6512 68.7324 21.8907 68.7216L22.1826 68.7007C22.3847 68.6799 22.5034 68.5749 22.5559 68.5022C22.6084 68.439 22.6918 68.303 22.6616 68.1045L20.7479 55.4997C20.658 54.9043 21.0047 54.3397 21.5714 54.1412C22.1381 53.9528 22.7623 54.1829 23.055 54.7058L30.3027 67.6766C30.3855 67.8226 30.5314 67.8852 30.6947 67.8435L30.9514 67.7701C31.1319 67.7284 31.2456 67.5407 31.2031 67.3631C30.9306 66.1714 30.6242 64.8963 30.3006 63.558C28.8738 57.6321 27.2571 50.9222 27.2341 45.9888C27.2053 39.6134 29.439 36.1326 32.2675 31.732C32.6832 31.0841 33.1132 30.4152 33.5519 29.7047ZM4.85507 22.3987C7.09167 22.608 8.99243 22.5138 10.6666 22.1376C15.4246 21.0502 16.548 18.4584 17.9698 15.1761C18.1906 14.6748 18.4185 14.1419 18.6717 13.5983L21.6742 7.097C21.9863 7.71404 22.3035 8.35122 22.6213 8.99919C20.9025 15.5004 19.7267 20.8518 19.2772 26.4958C18.9716 26.4332 18.6573 26.4123 18.3365 26.4123C15.3024 26.4123 12.8292 28.8474 12.7716 31.8679C12.0755 31.1991 11.4189 30.4986 10.7875 29.8198C9.02623 27.9276 7.39084 25.9003 5.9259 23.778C5.53755 23.2142 4.99386 22.8165 4.39048 22.608C4.40846 22.5763 4.42716 22.5555 4.44298 22.5447C4.50627 22.4821 4.64435 22.3778 4.85507 22.3987ZM11.1614 12.9186C9.45773 12.9186 8.07189 14.3088 8.07189 16.0125C8.07189 17.7061 9.45773 19.0963 11.1614 19.0963C11.8 19.0963 12.3941 18.8971 12.8867 18.5734C12.8874 18.5627 12.8889 18.5627 12.8896 18.5627C12.9076 18.5526 12.9248 18.5418 12.9435 18.5317C13.037 18.4584 13.1269 18.385 13.2139 18.3117C13.849 17.7478 14.251 16.9215 14.251 16.0125C14.2517 14.3088 12.8651 12.9186 11.1614 12.9186ZM21.6864 27.5307C22.0115 22.5871 22.9241 17.9046 24.2905 12.449C25.8943 15.8766 27.3031 19.3264 27.8842 22.3052C28.2639 24.2491 28.5228 26.4332 28.676 28.9524L25.4793 32.1506C24.7393 32.8928 24.1244 33.499 23.526 33.9902C23.7691 33.3631 23.9043 32.6835 23.9043 31.9729C23.9043 30.165 23.0327 28.5447 21.6864 27.5307ZM16.8572 34.6799C15.8979 34.157 15.2463 33.1437 15.2463 31.9729C15.2463 30.2692 16.6328 28.8899 18.3365 28.8899C20.0403 28.8899 21.4261 30.2692 21.4261 31.9729C21.4261 33.6766 20.0403 35.0668 18.3365 35.0668C18.2438 35.0668 18.1524 35.056 18.0618 35.0459C17.6469 34.9618 17.2449 34.8367 16.8572 34.6799ZM22.6127 3.01069C22.6465 2.92727 22.7342 2.78056 22.9349 2.71799L23.0413 2.68635C23.2844 2.60293 23.5311 2.69714 23.6555 2.92655C25.544 6.3131 27.7389 9.0409 30.1769 11.0164C32.9579 13.2847 36.8436 13.2847 39.6246 11.0164C42.0633 9.0409 44.2574 6.3131 46.146 2.92655C46.2488 2.73885 46.4149 2.65471 46.6408 2.6655C46.8292 2.67556 47.0852 2.76977 47.1859 3.01069C47.252 3.16675 47.2492 3.29261 47.1751 3.4386C46.7731 4.2642 46.3502 5.11138 45.9158 5.97869C43.3484 11.1207 40.438 16.9424 39.4851 21.8341C39.1945 23.3185 38.9716 24.9172 38.8098 26.6943C38.2675 26.2865 37.6174 26.0672 36.9342 26.0672C36.9306 26.0672 36.927 26.0672 36.9234 26.0672C36.1762 26.0779 35.4685 26.339 34.9004 26.8093C34.3322 26.339 33.6246 26.0779 32.8774 26.0672C32.187 26.0672 31.5354 26.2865 30.991 26.6943C30.8292 24.9172 30.6062 23.3185 30.3164 21.8341C29.3628 16.9424 26.4531 11.1207 23.8856 5.97869C23.4513 5.11138 23.0277 4.2642 22.6264 3.4386C22.5336 3.2509 22.5782 3.08405 22.6127 3.01069ZM34.9011 4.06571C33.1974 4.06571 31.8108 5.44579 31.8108 7.14949C31.8108 8.7482 33.0277 10.0657 34.5818 10.2225C34.7939 10.2326 35.0075 10.2326 35.2197 10.2225C36.7745 10.0657 37.9906 8.7482 37.9906 7.14949C37.9906 5.44579 36.6048 4.06571 34.9011 4.06571ZM45.5109 12.449C46.8774 17.9046 47.79 22.5871 48.115 27.5307C46.7688 28.5447 45.8971 30.165 45.8971 31.9729C45.8971 32.6835 46.0323 33.3631 46.2754 33.9902C45.6771 33.499 45.0629 32.8928 44.3229 32.1506L41.1255 28.9524C41.2787 26.4332 41.5376 24.2491 41.9173 22.3045C42.4984 19.3257 43.9079 15.8766 45.5109 12.449ZM51.7396 35.0459C51.649 35.056 51.5577 35.0668 51.4649 35.0668C49.7619 35.0668 48.3754 33.6766 48.3754 31.9729C48.3754 30.2692 49.7619 28.8899 51.4649 28.8899C53.1693 28.8899 54.5552 30.2692 54.5552 31.9729C54.5552 33.1437 53.9036 34.157 52.945 34.6799C52.5566 34.8367 52.1553 34.9618 51.7396 35.0459ZM51.8331 15.1869C52.6422 17.0582 53.3872 18.7719 54.8637 20.0887C55.0787 20.2879 55.3096 20.4756 55.5534 20.6324C56.4653 21.2703 57.6174 21.7824 59.1348 22.1376C60.809 22.5138 62.7105 22.608 64.9464 22.3987C65.1564 22.3778 65.2952 22.4828 65.3585 22.5454C65.3743 22.5555 65.393 22.5763 65.4117 22.608C64.8076 22.8172 64.2639 23.2142 63.8763 23.778C62.4106 25.9003 60.7752 27.9276 59.0147 29.8198C58.3826 30.4994 57.726 31.1991 57.0305 31.8679C56.9723 28.8474 54.4991 26.4123 51.4649 26.4123C51.1442 26.4123 50.8306 26.4332 50.5242 26.4958C50.0755 20.8518 48.8989 15.5112 47.1808 8.99919C47.498 8.35122 47.8159 7.71404 48.1273 7.097L51.1298 13.5983C51.3844 14.1419 51.6131 14.6748 51.8331 15.1869ZM58.64 12.9186C56.9363 12.9186 55.5505 14.3088 55.5505 16.0125C55.5505 16.9532 55.9798 17.7996 56.6523 18.3642C56.6666 18.3857 56.6796 18.3958 56.694 18.4066C57.2262 18.8352 57.9029 19.0963 58.6408 19.0963C60.3437 19.0963 61.7303 17.7061 61.7303 16.0132C61.7303 14.3088 60.3437 12.9186 58.64 12.9186ZM68.3883 23.0366L68.2438 22.9316C68.1611 22.8798 68.0755 22.8273 67.9899 22.7856C67.9575 22.0226 67.6368 21.3012 67.0859 20.7683C66.4581 20.152 65.5958 19.8485 64.7213 19.9327C63.9245 20.0053 63.1823 20.0369 62.4854 20.0262C63.5455 19.0129 64.2078 17.5911 64.2078 16.0132C64.2078 12.9402 61.7102 10.4418 58.64 10.4418C56.5278 10.4418 54.6861 11.6227 53.7425 13.3581C53.6274 13.097 53.5081 12.8352 53.3801 12.5533L49.5311 4.22321C49.7893 3.51267 49.7691 2.74964 49.4671 2.0391C49.0162 0.983366 47.9583 0.251256 46.7716 0.188688C45.6109 0.126121 44.5408 0.711522 43.9813 1.72555C42.9011 3.65866 41.7217 5.3523 40.4559 6.78416C40.2668 3.8888 37.8482 1.58962 34.9011 1.58962C31.9532 1.58962 29.5347 3.8888 29.3463 6.78416C28.0805 5.3523 26.9004 3.65866 25.8209 1.72555C25.1161 0.460533 23.6627 -0.114081 22.2848 0.324611L22.1783 0.356254C21.3455 0.628099 20.6731 1.23436 20.3315 2.0391C20.0352 2.73885 20.0165 3.51267 20.2711 4.22321L16.4221 12.5533C16.2941 12.8359 16.174 13.097 16.0589 13.3581C15.1154 11.6227 13.2743 10.4418 11.1614 10.4418C8.09131 10.4418 5.59365 12.9402 5.59365 16.0132C5.59365 17.5911 6.256 19.0129 7.31605 20.0262C6.61918 20.0369 5.87772 20.0053 5.08016 19.9327C4.20566 19.8485 3.34338 20.152 2.71555 20.7683C2.16467 21.3012 1.84464 22.0226 1.81156 22.7856C1.72526 22.8273 1.64039 22.8798 1.55769 22.9316L1.41314 23.0366C0.0438465 23.9456 -0.401317 25.7745 0.399114 27.2171C3.28513 32.3908 6.39624 37.3969 9.64543 42.1002C10.2258 42.9474 10.5868 43.7205 10.8522 44.7137C13.2262 53.5458 15.9158 61.5932 19.0773 69.3379C19.5411 70.467 20.6386 71.1984 21.8518 71.1984C21.9216 71.1984 21.9928 71.1984 22.064 71.1883L22.356 71.1675C23.1916 71.115 23.9698 70.7072 24.4904 70.0592C25.0111 69.4012 25.2369 68.554 25.1111 67.7284L24.2229 61.8751L28.1388 68.8784C28.776 70.0175 30.0532 70.5713 31.3168 70.2369L31.5742 70.1743C33.0651 69.7874 33.9633 68.303 33.6195 66.8086C33.3427 65.5961 33.0356 64.321 32.7105 62.9726C31.3146 57.1826 29.7332 50.6188 29.7123 45.978C29.6864 40.334 31.6433 37.2818 34.3531 33.0704C34.5329 32.7878 34.7163 32.5058 34.9011 32.2131C35.0859 32.5058 35.2686 32.7878 35.4491 33.0704C38.1575 37.2825 40.1158 40.334 40.0899 45.978C40.0683 50.6188 38.4869 57.1826 37.0917 62.9726C36.7666 64.321 36.4588 65.5961 36.1826 66.8086C35.8389 68.303 36.7364 69.7874 38.2272 70.1743L38.4847 70.2369C39.749 70.5713 41.0255 70.0175 41.6627 68.8784L45.5785 61.8751L44.6904 67.7284C44.5645 68.554 44.7911 69.4005 45.311 70.0592C45.8324 70.7072 46.6098 71.115 47.4455 71.1675L47.7375 71.1883C47.8094 71.1984 47.8799 71.1984 47.9504 71.1984C49.1629 71.1984 50.2603 70.467 50.7242 69.3379C53.8849 61.5932 56.5753 53.545 58.9493 44.7137C59.2139 43.7205 59.575 42.9474 60.156 42.1002C63.4045 37.3969 66.5156 32.3908 69.4024 27.2171C70.2028 25.7745 69.7576 23.9456 68.3883 23.0366Z" fill="#1E417C"/>
</g>
</svg>
