<svg width="70" height="82" viewBox="0 0 70 82" fill="none" xmlns="http://www.w3.org/2000/svg">
<path d="M37.3423 5.38292C37.3423 5.46189 37.3383 5.54086 37.3303 5.61983C37.3229 5.69823 37.3114 5.77606 37.296 5.85388C37.2805 5.93114 37.2611 6.00782 37.2382 6.08335C37.2153 6.15946 37.189 6.23329 37.1586 6.30653C37.1283 6.37978 37.0945 6.45074 37.0573 6.52056C37.0201 6.59037 36.9795 6.6579 36.9355 6.72371C36.892 6.78952 36.8445 6.85304 36.7947 6.91427C36.7443 6.97493 36.6917 7.03387 36.6356 7.08938C36.5795 7.14546 36.5211 7.19868 36.4599 7.24846C36.3993 7.29882 36.3357 7.34575 36.2699 7.38981C36.2041 7.43387 36.1366 7.4745 36.0668 7.5117C35.9975 7.54889 35.926 7.58266 35.8528 7.61299C35.7801 7.64274 35.7057 7.66964 35.6301 7.69253C35.5546 7.71542 35.4779 7.73488 35.4001 7.75033C35.3228 7.76578 35.245 7.77722 35.166 7.78466C35.0877 7.79267 35.0087 7.79668 34.9297 7.79668C34.8507 7.79668 34.7718 7.79267 34.6934 7.78466C34.6144 7.77722 34.5366 7.76578 34.4593 7.75033C34.3815 7.73488 34.3048 7.71542 34.2293 7.69253C34.1537 7.66964 34.0793 7.64274 34.0067 7.61299C33.9334 7.58266 33.8619 7.54889 33.7926 7.5117C33.7228 7.4745 33.6553 7.43387 33.5895 7.38981C33.5237 7.34575 33.4602 7.29882 33.3995 7.24846C33.3383 7.19868 33.2799 7.14546 33.2238 7.08938C33.1677 7.03387 33.1151 6.97493 33.0647 6.91427C33.0149 6.85304 32.9675 6.78952 32.924 6.72371C32.8799 6.6579 32.8393 6.59037 32.8021 6.52056C32.7649 6.45074 32.7311 6.37978 32.7008 6.30653C32.6705 6.23329 32.6441 6.15946 32.6212 6.08335C32.5983 6.00782 32.5789 5.93114 32.5634 5.85388C32.548 5.77606 32.5365 5.69823 32.5291 5.61983C32.5211 5.54086 32.5171 5.46189 32.5171 5.38292C32.5171 5.30395 32.5211 5.22498 32.5291 5.14658C32.5365 5.06761 32.548 4.98978 32.5634 4.91195C32.5789 4.8347 32.5983 4.75802 32.6212 4.68248C32.6441 4.60694 32.6705 4.53255 32.7008 4.4593C32.7311 4.38662 32.7649 4.31509 32.8021 4.24528C32.8393 4.17546 32.8799 4.10794 32.924 4.04213C32.9675 3.97632 33.0149 3.9128 33.0647 3.85214C33.1151 3.79091 33.1677 3.73254 33.2238 3.67646C33.2799 3.62038 33.3383 3.56773 33.3995 3.51737C33.4602 3.46701 33.5237 3.42009 33.5895 3.37603C33.6553 3.33253 33.7228 3.2919 33.7926 3.25471C33.8619 3.21694 33.9334 3.18318 34.0067 3.15342C34.0793 3.12309 34.1537 3.09619 34.2293 3.0733C34.3048 3.05041 34.3815 3.03153 34.4593 3.01608C34.5366 3.00063 34.6144 2.98861 34.6934 2.98117C34.7718 2.97316 34.8507 2.96973 34.9297 2.96973C35.0087 2.96973 35.0877 2.97316 35.166 2.98117C35.245 2.98861 35.3228 3.00063 35.4001 3.01608C35.4779 3.03153 35.5546 3.05041 35.6301 3.0733C35.7057 3.09619 35.7801 3.12309 35.8528 3.15342C35.926 3.18318 35.9975 3.21694 36.0668 3.25471C36.1366 3.2919 36.2041 3.33253 36.2699 3.37603C36.3357 3.42009 36.3993 3.46701 36.4599 3.51737C36.5211 3.56773 36.5795 3.62038 36.6356 3.67646C36.6917 3.73254 36.7443 3.79091 36.7947 3.85214C36.8445 3.9128 36.892 3.97632 36.9355 4.04213C36.9795 4.10794 37.0201 4.17546 37.0573 4.24528C37.0945 4.31509 37.1283 4.38662 37.1586 4.4593C37.189 4.53255 37.2153 4.60694 37.2382 4.68248C37.2611 4.75802 37.2805 4.8347 37.296 4.91195C37.3114 4.98978 37.3229 5.06761 37.3303 5.14658C37.3383 5.22498 37.3423 5.30395 37.3423 5.38292Z" fill="#1E417C"/>
<path d="M38.8661 1.088V8.3001H37.602L32.1942 8.29724L31.5864 8.3001H30.993V1.088C30.993 -0.362665 29.1006 -0.362665 29.104 1.088V8.45518C29.104 10.0569 30.0477 11.6278 31.9218 11.6278H31.9246L31.9218 31.1982C31.9218 31.945 32.5284 32.5522 33.2734 32.5522C34.022 32.5522 34.6268 31.945 34.6268 31.1982L34.6274 19.8465H35.2311L35.2265 31.1982C35.2265 31.945 35.8314 32.5522 36.5782 32.5522C37.3267 32.5522 37.9299 31.945 37.9299 31.1982L37.9373 11.6278C39.812 11.6278 40.7551 10.0569 40.7551 8.45518V1.088C40.7574 -0.361521 38.8661 -0.361521 38.8661 1.088Z" fill="#1E417C"/>
<path d="M12.5147 66.1713C12.5147 66.2583 12.5107 66.3452 12.5021 66.4317C12.4935 66.5181 12.4809 66.6039 12.4637 66.6892C12.4466 66.7744 12.426 66.8591 12.4002 66.9421C12.375 67.0251 12.3459 67.1069 12.3127 67.1876C12.2795 67.2677 12.2423 67.3461 12.2017 67.4228C12.1605 67.4995 12.1158 67.5739 12.0677 67.6466C12.0191 67.7187 11.9676 67.7885 11.9121 67.856C11.8572 67.923 11.7988 67.987 11.7376 68.0488C11.6758 68.1101 11.6117 68.1684 11.5447 68.224C11.4772 68.2789 11.4074 68.3304 11.3353 68.379C11.2632 68.4271 11.1888 68.4717 11.1121 68.5129C11.0354 68.5541 10.957 68.5908 10.8763 68.6245C10.7962 68.6577 10.7144 68.6869 10.6314 68.7121C10.5484 68.7373 10.4637 68.7584 10.3785 68.7756C10.2932 68.7922 10.2074 68.8054 10.1209 68.8134C10.0345 68.822 9.94812 68.8265 9.86114 68.8265C9.77416 68.8265 9.68718 68.822 9.60077 68.8134C9.51436 68.8054 9.42852 68.7922 9.34325 68.7756C9.25799 68.7584 9.17386 68.7373 9.09032 68.7121C9.00734 68.6869 8.92551 68.6577 8.84539 68.6245C8.76528 68.5908 8.68631 68.5541 8.6102 68.5129C8.53351 68.4717 8.45855 68.4271 8.38644 68.379C8.31434 68.3304 8.24453 68.2789 8.17757 68.224C8.11005 68.1684 8.04595 68.1101 7.98415 68.0488C7.92292 67.987 7.86455 67.923 7.80961 67.856C7.75411 67.7885 7.7026 67.7187 7.65453 67.6466C7.60589 67.5739 7.56126 67.4995 7.52063 67.4228C7.47942 67.3461 7.44223 67.2677 7.40904 67.1876C7.37585 67.1069 7.34666 67.0251 7.32148 66.9421C7.2963 66.8591 7.27513 66.7744 7.25796 66.6892C7.24137 66.6039 7.2282 66.5181 7.21962 66.4317C7.21161 66.3452 7.20703 66.2583 7.20703 66.1713C7.20703 66.0843 7.21161 65.9979 7.21962 65.9115C7.2282 65.8245 7.24137 65.7387 7.25796 65.6534C7.27513 65.5681 7.2963 65.484 7.32148 65.401C7.34666 65.3175 7.37585 65.2356 7.40904 65.1555C7.44223 65.0748 7.47942 64.9964 7.52063 64.9198C7.56126 64.8431 7.60589 64.7687 7.65453 64.6966C7.7026 64.6239 7.75411 64.5541 7.80961 64.4871C7.86455 64.4202 7.92292 64.3555 7.98415 64.2943C8.04595 64.2325 8.11005 64.1741 8.17757 64.1192C8.24453 64.0642 8.31434 64.0122 8.38644 63.9641C8.45855 63.9155 8.53351 63.8708 8.6102 63.8302C8.68631 63.789 8.76528 63.7518 8.84539 63.7186C8.92551 63.6854 9.00734 63.6562 9.09032 63.6311C9.17386 63.6053 9.25799 63.5847 9.34325 63.5675C9.42852 63.5504 9.51436 63.5378 9.60077 63.5292C9.68718 63.5206 9.77416 63.5166 9.86114 63.5166C9.94812 63.5166 10.0345 63.5206 10.1209 63.5292C10.2074 63.5378 10.2932 63.5504 10.3785 63.5675C10.4637 63.5847 10.5484 63.6053 10.6314 63.6311C10.7144 63.6562 10.7962 63.6854 10.8763 63.7186C10.957 63.7518 11.0354 63.789 11.1121 63.8302C11.1888 63.8708 11.2632 63.9155 11.3353 63.9641C11.4074 64.0122 11.4772 64.0642 11.5447 64.1192C11.6117 64.1741 11.6758 64.2325 11.7376 64.2943C11.7988 64.3555 11.8572 64.4202 11.9121 64.4871C11.9676 64.5541 12.0191 64.6239 12.0677 64.6966C12.1158 64.7687 12.1605 64.8431 12.2017 64.9198C12.2423 64.9964 12.2795 65.0748 12.3127 65.1555C12.3459 65.2356 12.375 65.3175 12.4002 65.401C12.426 65.484 12.4466 65.5681 12.4637 65.6534C12.4809 65.7387 12.4935 65.8245 12.5021 65.9115C12.5107 65.9979 12.5147 66.0843 12.5147 66.1713Z" fill="#1E417C"/>
<path d="M3.56345 65.6032L8.66165 60.5033L9.08054 60.9239L9.55493 61.3977L14.6714 66.5216L15.1046 66.9503L15.5235 67.3709L10.4253 72.4714C9.401 73.4963 10.7378 74.8348 11.7615 73.8081L16.969 68.5984C18.101 67.4641 18.5439 65.6873 17.2185 64.3614L17.2168 64.3597L31.0516 50.5226C31.5798 49.9944 31.5798 49.1372 31.0522 48.6084C30.5234 48.0791 29.6662 48.0791 29.1369 48.6078L21.1139 56.6354L19.3914 54.9106L27.4178 46.8865C27.946 46.3583 27.9489 45.5016 27.4178 44.9723C26.8885 44.443 26.0335 44.4447 25.5053 44.974L11.6688 58.8083C10.3446 57.4829 8.56665 57.9247 7.43474 59.0583L2.22723 64.267C1.20004 65.2919 2.53797 66.6292 3.56345 65.6032Z" fill="#1E417C"/>
<path d="M34.9293 74.2061C33.596 74.2061 32.5161 75.2876 32.5161 76.6204C32.5161 77.9503 33.596 79.0313 34.9293 79.0313C36.2615 79.0313 37.3419 77.9503 37.3419 76.6204C37.3425 75.2865 36.2615 74.2061 34.9293 74.2061ZM34.9293 78.5729C33.8512 78.5729 32.9739 77.6979 32.9739 76.6204C32.9739 75.5388 33.8512 74.6644 34.9293 74.6644C36.0074 74.6644 36.8835 75.54 36.8835 76.6204C36.8847 77.6979 36.0074 78.5729 34.9293 78.5729Z" fill="#1E417C"/>
<mask id="mask0_58624_18625" style="mask-type:luminance" maskUnits="userSpaceOnUse" x="29" y="49" width="12" height="33">
<path d="M29.0098 49.3457H40.876V81.9996H29.0098V49.3457Z" fill="white"/>
</mask>
<g mask="url(#mask0_58624_18625)">
<path d="M30.0475 82.0009C30.5202 82.0009 30.994 81.6375 30.994 80.9141V73.6998H32.257L37.6647 73.7032L38.273 73.6998H38.8659V80.9141C38.8659 81.6375 39.3397 82.0009 39.8113 82.0009C40.2851 82.0009 40.7561 81.6375 40.7538 80.9141V73.5447C40.7538 71.9424 39.8113 70.3727 37.9371 70.3727H37.9343L37.9371 50.8039C37.9371 50.0548 37.3305 49.4482 36.5855 49.4482C35.837 49.4482 35.2321 50.0548 35.2321 50.8039L35.2304 62.1534H34.6278L34.6324 50.8039C34.6324 50.0548 34.0264 49.4482 33.2807 49.4482C32.5322 49.4482 31.9285 50.0548 31.9285 50.8039L31.9216 70.3727C30.0475 70.3727 29.105 71.9429 29.105 73.5447V80.9141C29.1033 81.6375 29.5748 82.0009 30.0475 82.0009ZM29.5622 73.5447C29.5622 72.2382 30.301 70.8305 31.9216 70.8305H32.38V70.3727L32.3863 50.8039C32.3863 50.3072 32.7869 49.9066 33.2807 49.9066C33.7734 49.9066 34.174 50.3072 34.174 50.8039L34.1694 62.1534L34.1689 62.6118H35.6888V62.1534L35.6905 50.8039C35.6905 50.3072 36.0922 49.9066 36.5855 49.9066C37.0782 49.9066 37.4788 50.3072 37.4788 50.8039L37.4753 70.3727L37.4782 70.8305H37.9371C39.5583 70.8305 40.2965 72.2394 40.2965 73.5447V80.9141C40.2965 81.1282 40.2393 81.3027 40.1294 81.4132C40.0453 81.495 39.9314 81.5436 39.8107 81.5436C39.5864 81.5436 39.3231 81.3788 39.3231 80.9147V73.2414H38.2685L37.6642 73.2454L32.2558 73.2414H30.5356V80.9141C30.5356 81.3788 30.2724 81.5425 30.0475 81.5425C29.9267 81.5425 29.8134 81.4944 29.7299 81.4126C29.6194 81.3021 29.5622 81.1282 29.5622 80.913V73.5447Z" fill="#1E417C"/>
</g>
<path d="M68.2691 40.2614C68.2691 40.3404 68.2651 40.4194 68.2576 40.4978C68.2496 40.5762 68.2382 40.6546 68.2227 40.7318C68.2073 40.8096 68.1878 40.8863 68.1649 40.9619C68.142 41.0374 68.1157 41.1118 68.0854 41.185C68.0551 41.2577 68.0213 41.3292 67.9841 41.3991C67.9469 41.4689 67.9063 41.5364 67.8622 41.6022C67.8187 41.668 67.7718 41.731 67.7214 41.7922C67.6711 41.8534 67.6184 41.9118 67.5624 41.9679C67.5068 42.024 67.4479 42.0766 67.3872 42.127C67.326 42.1767 67.2625 42.2242 67.1967 42.2677C67.1309 42.3118 67.0633 42.3524 66.9935 42.3896C66.9243 42.4268 66.8528 42.4606 66.7795 42.4909C66.7068 42.5212 66.6324 42.5476 66.5569 42.571C66.4814 42.5939 66.4047 42.6128 66.3274 42.6283C66.2496 42.6437 66.1718 42.6552 66.0928 42.6632C66.0144 42.6706 65.9354 42.6746 65.8565 42.6746C65.7775 42.6746 65.6985 42.6706 65.6201 42.6632C65.5417 42.6552 65.4633 42.6437 65.3861 42.6283C65.3082 42.6128 65.2321 42.5939 65.156 42.571C65.0805 42.5476 65.0061 42.5212 64.9334 42.4909C64.8602 42.4606 64.7892 42.4268 64.7194 42.3896C64.6496 42.3524 64.5821 42.3118 64.5162 42.2677C64.4504 42.2242 64.3869 42.1767 64.3263 42.127C64.265 42.0766 64.2067 42.024 64.1506 41.9679C64.0951 41.9118 64.0419 41.8534 63.9915 41.7922C63.9417 41.731 63.8948 41.668 63.8507 41.6022C63.8067 41.5364 63.766 41.4689 63.7288 41.3991C63.6916 41.3292 63.6579 41.2577 63.6275 41.185C63.5972 41.1118 63.5709 41.0374 63.548 40.9619C63.5251 40.8863 63.5057 40.8096 63.4902 40.7318C63.4747 40.6546 63.4633 40.5762 63.4559 40.4978C63.4479 40.4194 63.4438 40.3404 63.4438 40.2614C63.4438 40.1819 63.4479 40.1035 63.4559 40.0245C63.4633 39.9461 63.4747 39.8677 63.4902 39.7905C63.5057 39.7126 63.5251 39.6359 63.548 39.5604C63.5709 39.4849 63.5972 39.4105 63.6275 39.3378C63.6579 39.2646 63.6916 39.193 63.7288 39.1232C63.766 39.054 63.8067 38.9859 63.8507 38.9201C63.8948 38.8548 63.9417 38.7913 63.9915 38.7301C64.0419 38.6688 64.0951 38.6105 64.1506 38.5544C64.2067 38.4989 64.265 38.4457 64.3263 38.3953C64.3869 38.3455 64.4504 38.2986 64.5162 38.2545C64.5821 38.2105 64.6496 38.1698 64.7194 38.1326C64.7892 38.0954 64.8602 38.0617 64.9334 38.0313C65.0061 38.001 65.0805 37.9747 65.156 37.9518C65.2321 37.9289 65.3082 37.9095 65.3861 37.894C65.4633 37.8786 65.5417 37.8671 65.6201 37.8591C65.6985 37.8517 65.7775 37.8477 65.8565 37.8477C65.9354 37.8477 66.0144 37.8517 66.0928 37.8591C66.1718 37.8671 66.2496 37.8786 66.3274 37.894C66.4047 37.9095 66.4814 37.9289 66.5569 37.9518C66.6324 37.9747 66.7068 38.001 66.7795 38.0313C66.8528 38.0617 66.9243 38.0954 66.9935 38.1326C67.0633 38.1698 67.1309 38.2105 67.1967 38.2545C67.2625 38.2986 67.326 38.3455 67.3872 38.3953C67.4479 38.4457 67.5068 38.4989 67.5624 38.5544C67.6184 38.6105 67.6711 38.6688 67.7214 38.7301C67.7718 38.7913 67.8187 38.8548 67.8622 38.9201C67.9063 38.9859 67.9469 39.054 67.9841 39.1232C68.0213 39.193 68.0551 39.2646 68.0854 39.3378C68.1157 39.4105 68.142 39.4849 68.1649 39.5604C68.1878 39.6359 68.2073 39.7126 68.2227 39.7905C68.2382 39.8677 68.2496 39.9461 68.2576 40.0245C68.2651 40.1035 68.2691 40.1819 68.2691 40.2614Z" fill="#1E417C"/>
<path d="M68.7728 44.1995H62.9416V42.936L62.9444 37.5247L62.9416 36.9182V36.3242H68.7728C70.2229 36.3242 70.2229 34.4317 68.7728 34.4346H62.7859C61.1847 34.4346 59.6156 35.3776 59.6156 37.2535V37.2564L44.638 37.2535C43.8895 37.2535 43.2847 37.8601 43.2847 38.604C43.2847 39.3554 43.8895 39.9597 44.638 39.9574L51.4009 39.9602V40.5634L44.638 40.5588C43.8913 40.56 43.2847 41.1637 43.2847 41.9093C43.2847 42.659 43.8913 43.2633 44.638 43.2633L59.6156 43.2696C59.6156 45.1443 61.1859 46.0868 62.7859 46.0891L68.7728 46.0868C70.2218 46.0919 70.2218 44.1995 68.7728 44.1995Z" fill="#1E417C"/>
<path d="M6.4154 41.0915C6.4154 39.7581 5.33556 38.6777 4.00221 38.6777C2.67172 38.6777 1.59131 39.7581 1.59131 41.0915C1.59131 42.4254 2.67172 43.5058 4.00221 43.5058C5.33556 43.5058 6.4154 42.4254 6.4154 41.0915ZM2.09489 41.0915C2.09489 40.038 2.95098 39.1819 4.00278 39.1819C5.05516 39.1819 5.91125 40.038 5.91125 41.0915C5.91125 42.1439 5.05516 43.0011 4.00278 43.0011C2.95098 43.0011 2.09489 42.1439 2.09489 41.0915Z" fill="#1E417C"/>
<path d="M0 36.2067C0 36.6789 0.361664 37.1533 1.08671 37.1533H6.92083V38.4174L6.91797 43.8274L6.92083 44.4357V45.0297H1.08671C0.361664 45.0297 0 45.5019 0 45.9757C0 46.4484 0.361664 46.9205 1.08671 46.9188H7.07534C8.6765 46.9188 10.2468 45.9757 10.2468 44.0998V44.097L25.2243 44.0998C25.9711 44.0998 26.5777 43.4938 26.5777 42.7476C26.5777 41.9985 25.9711 41.3937 25.2243 41.3937L15.7089 41.3919V40.7888L25.2243 40.7934C25.9711 40.7934 26.5777 40.1885 26.5777 39.4411C26.5777 38.6926 25.9711 38.0895 25.2243 38.0895L10.2468 38.0826C10.2468 36.2079 8.6765 35.2637 7.07534 35.2637H1.08671C0.361664 35.262 0 35.7341 0 36.2067ZM7.07534 35.7667C8.40239 35.7667 9.74146 36.4831 9.74146 38.082V38.5856H10.2468L25.2243 38.5919C25.693 38.5919 26.0741 38.973 26.0741 39.4406C26.0741 39.9075 25.693 40.2875 25.2243 40.2875L15.7089 40.2829H15.2053V41.8955H15.7089L25.2243 41.8978C25.693 41.8978 26.0741 42.2784 26.0741 42.7476C26.0741 43.2157 25.693 43.5951 25.2243 43.5951L10.2468 43.5922L9.74146 43.5951V44.1004C9.74146 45.6999 8.40182 46.414 7.07534 46.414H1.08671C0.882986 46.4146 0.722183 46.3614 0.620322 46.2601C0.544785 46.1863 0.503583 46.0861 0.503583 45.9757C0.503583 45.7617 0.656947 45.5339 1.08671 45.5339H7.42441V44.4323L7.42155 43.8274L7.42441 38.4174V36.648H1.08671C0.656947 36.648 0.503583 36.4202 0.503583 36.2079C0.503583 36.0986 0.544785 35.9973 0.620322 35.9218C0.721611 35.8205 0.882986 35.7684 1.08671 35.7684H7.07534V35.7667Z" fill="#1E417C"/>
<path d="M11.2801 17.8568C11.7511 17.3859 11.9863 16.769 11.988 16.1504L13.1909 14.9458L11.0981 14.2551L11.0781 14.2763C10.1299 13.5157 8.74673 13.5638 7.8689 14.4439C6.9882 15.3241 6.93956 16.706 7.70123 17.6525L7.68578 17.6691L8.36847 19.7693L9.57364 18.5641C10.1917 18.5641 10.8091 18.3278 11.2801 17.8568Z" fill="#1E417C"/>
<path d="M15.8629 14.2024L10.6577 8.99376C9.63395 7.96485 8.29488 9.30335 9.3215 10.3294L14.4197 15.4299L13.9997 15.8499L13.5264 16.3226L9.70147 20.1464L9.27343 20.5785L8.8534 20.9985L3.75519 15.898C2.73086 14.8719 1.39121 16.2093 2.4207 17.2336L7.62648 22.4423C8.76069 23.5759 10.5352 24.0194 11.8612 22.6929L11.8652 22.6912L15.3405 26.1705L18.8701 32.2221L20.1274 30.9648L25.6931 36.5352C26.2224 37.0628 27.0785 37.0628 27.6061 36.5352C28.1366 36.0041 28.1332 35.1486 27.6061 34.6204L22.0404 29.0495L22.4667 28.6232L28.0302 34.1975C28.5595 34.7251 29.4156 34.7251 29.9426 34.1975C30.4737 33.6665 30.4703 32.8132 29.9426 32.2822L24.3775 26.7101L25.6376 25.4489L19.5923 21.9215L16.1153 18.4382C17.4389 17.1123 16.9971 15.336 15.8629 14.2024Z" fill="#1E417C"/>
<path d="M51.098 65.6847L55.6577 70.2456C56.1693 70.7589 56.7599 70.6833 57.0947 70.3486C57.4289 70.0132 57.5067 69.4221 56.994 68.9093L52.543 64.4584L52.9641 64.0383L53.7624 63.2383L57.5874 59.4174L58.3387 58.6603L58.7588 58.2403L63.2092 62.693C63.7214 63.2046 64.3142 63.1273 64.6484 62.792C64.9809 62.4583 65.0593 61.8672 64.5454 61.355L59.9845 56.7925C58.8543 55.6617 56.7525 55.5415 55.4271 56.868L55.7842 57.2262C56.939 56.0691 58.7376 56.2585 59.6286 57.1507L64.19 61.7133C64.3342 61.8552 64.4109 62.0068 64.4109 62.1505C64.4109 62.2563 64.368 62.3576 64.2902 62.4332C64.1385 62.5854 63.8696 62.6392 63.5674 62.3353L59.1164 57.8832L58.7588 57.5261L58.4017 57.8832L57.9817 58.3055L57.2309 59.0603L53.4054 62.8841L52.6076 63.6812L52.1882 64.1024L51.8299 64.4595L52.1859 64.8166L56.6369 69.267C56.9402 69.5726 56.8875 69.841 56.7382 69.9926C56.6586 70.0687 56.5596 70.1116 56.4537 70.1116C56.3101 70.1116 56.1608 70.0344 56.0148 69.8902L51.4557 65.3293C50.5161 64.3908 50.0748 62.9367 51.205 61.806L51.5621 61.4483L51.205 61.0912L49.023 58.9052L48.967 58.8486L48.8937 58.8142L44.4433 56.5699L45.209 55.8019L45.5643 55.4448L45.2113 55.0866L39.6455 49.5163C39.3142 49.1855 39.3142 48.6482 39.6455 48.3162C39.9734 47.9883 40.5108 47.9883 40.8421 48.3191L46.4078 53.8894L46.7649 54.2477L47.1226 53.8894L48.1961 52.8136L48.5532 52.4582L48.1961 52.1L42.6321 46.5297C42.2996 46.1989 42.2996 45.6616 42.6321 45.3291C42.9623 44.9983 43.4997 44.9983 43.831 45.3291L49.3956 50.9005L49.7538 51.2576L50.1098 50.9005L50.8749 50.1332L53.1215 54.591L53.1553 54.6643L53.2114 54.7203L55.3939 56.9046L55.4294 56.8691L55.7516 56.5464L53.5696 54.3632L51.0105 49.2856L49.7538 50.5429L44.1881 44.9737C43.661 44.445 42.8021 44.445 42.2739 44.9737C41.7446 45.5019 41.7468 46.3591 42.2739 46.8885L47.8391 52.4594L46.7649 53.5335L41.1992 47.9632C40.6727 47.4356 39.8161 47.4315 39.2884 47.9603C38.7585 48.4902 38.7614 49.3457 39.2884 49.8751L44.8542 55.4459L43.5929 56.7066L48.6654 59.2634L50.8474 61.4489C49.5243 62.7748 49.9667 64.5522 51.098 65.6847Z" fill="#1E417C"/>
<path d="M56.1891 65.3078L56.2097 65.286C57.158 66.046 58.5405 65.9973 59.4184 65.1172C60.2962 64.2371 60.3466 62.8562 59.5872 61.9091L59.6015 61.8931L57.7674 59.9395L54.2446 63.4662L56.1891 65.3078ZM57.7583 60.6668L59.0332 62.0242L59.1929 62.2245C59.8058 62.9861 59.748 64.0757 59.0636 64.7618C58.3769 65.448 57.2884 65.5029 56.5268 64.8912L56.3648 64.7784L54.968 63.4571L57.7583 60.6668Z" fill="#1E417C"/>
<path d="M56.9551 19.1016C57.8844 20.031 59.3786 20.0384 60.3228 19.1365C60.6707 19.0078 60.9986 18.8115 61.2785 18.5299C62.3137 17.4947 62.3137 15.8129 61.2773 14.776C60.241 13.7385 58.5609 13.739 57.5256 14.776C57.2458 15.0541 57.049 15.3825 56.9191 15.7299C56.0172 16.6781 56.0263 18.1734 56.9551 19.1016ZM60.9214 15.133C61.7609 15.972 61.7609 17.3351 60.9231 18.1723C60.7102 18.3874 60.4487 18.5517 60.1483 18.6656L60.0527 18.6999L59.9772 18.7731C59.2195 19.4936 58.051 19.481 57.3122 18.7445C56.5746 18.0069 56.562 16.8361 57.2824 16.0795L57.3551 16.004L57.3917 15.9073C57.5033 15.6069 57.6681 15.3465 57.8822 15.133C58.7194 14.2941 60.0836 14.2941 60.9214 15.133Z" fill="#1E417C"/>
<path d="M60.7873 23.8669L65.0203 19.631C65.3865 19.2659 65.4632 18.8997 65.4632 18.6565C65.4649 17.7581 64.2752 16.9907 63.3298 17.9377L59.3813 21.8851L54.1709 16.6713L58.1183 12.7245C59.0654 11.7769 58.2974 10.5866 57.3978 10.5889C57.1552 10.5889 56.7872 10.6661 56.4267 11.0306L52.1932 15.2682C51.0744 16.3869 50.4988 18.213 51.772 19.6797L50.1182 21.3369L40.5902 28.2824L41.8783 29.5716L39.7324 31.7187C39.1058 32.3459 39.1058 33.3634 39.7307 33.9894C40.3573 34.6155 41.3748 34.6155 42.0002 33.9894L44.1467 31.8429L44.216 31.9104L42.0695 34.0575C41.4428 34.6847 41.4428 35.7022 42.0677 36.3282C42.6927 36.9543 43.7113 36.9543 44.3373 36.3265L46.4838 34.18L47.7731 35.4716L54.6894 25.9779L56.3804 24.2886C57.8442 25.5607 59.6697 24.9856 60.7873 23.8669ZM54.3094 25.6529L47.7176 34.6985L46.4867 33.4653L43.9819 35.9711C43.551 36.4009 42.8546 36.3992 42.4254 35.9711C41.9968 35.5408 41.9968 34.8432 42.4254 34.414L44.9302 31.911L44.1496 31.1293L41.6449 33.6341C41.2151 34.0638 40.5187 34.0638 40.0889 33.6341C39.6597 33.2043 39.6586 32.5062 40.0889 32.077L42.5931 29.5739L41.3656 28.3453L50.4461 21.7203L52.3014 19.8657L52.477 19.6848L52.2996 19.5046C51.0538 18.2593 51.5563 16.6193 52.5497 15.6258L56.7821 11.3906C56.9749 11.1983 57.1884 11.0959 57.4007 11.0959C57.9123 11.0913 58.377 11.754 57.7612 12.3697L53.459 16.6736L59.3813 22.5999L63.6852 18.2948C64.3021 17.6814 64.9596 18.1443 64.9596 18.6576C64.9596 18.8688 64.8566 19.0811 64.6643 19.2734L60.4302 23.5109C59.4351 24.5049 57.7996 25.0079 56.5515 23.7604L56.3752 23.5836L54.3094 25.6529Z" fill="#1E417C"/>
</svg>
