<svg width="71" height="74" viewBox="0 0 71 74" fill="none" xmlns="http://www.w3.org/2000/svg">
<path d="M45.5184 25.8821C45.5184 24.5082 46.578 23.3428 48.0308 22.9583V22.348C48.0308 21.7691 48.4995 21.2992 49.0774 21.2992C49.6553 21.2992 50.124 21.7691 50.124 22.348V22.9583C51.0843 23.2121 51.8944 23.8051 52.3199 24.6108C52.591 25.1228 52.3955 25.7568 51.8846 26.0269C51.3737 26.298 50.7408 26.1025 50.4697 25.5916C50.299 25.2676 49.7903 24.9187 49.0774 24.9187C48.2133 24.9187 47.6117 25.4263 47.6117 25.8821C47.6117 26.42 47.7651 26.5756 49.2751 26.864C50.5345 27.1038 52.6407 27.5056 52.6407 29.9045C52.6407 31.2784 51.58 32.4439 50.124 32.8284V33.4387C50.124 34.0176 49.6553 34.4864 49.0774 34.4864C48.4995 34.4864 48.0308 34.0176 48.0308 33.4387V32.8295C47.2153 32.6167 46.51 32.1576 46.0466 31.5139C45.7085 31.044 45.8155 30.3895 46.2842 30.0514C46.753 29.7122 47.4075 29.8192 47.7445 30.289C47.9973 30.6401 48.5212 30.868 49.0774 30.868C49.9437 30.868 50.5475 30.3603 50.5475 29.9045C50.5475 29.3655 50.3941 29.2111 48.8841 28.9227C47.6257 28.6829 45.5184 28.2811 45.5184 25.8821ZM70.4789 30.3841C70.4789 30.963 70.0101 31.4318 69.4322 31.4318H67.7494C67.2234 40.9444 59.588 48.5895 50.0862 49.1155V51.6657C50.0862 52.2446 49.6175 52.7144 49.0396 52.7144C48.4617 52.7144 47.993 52.2446 47.993 51.6657V49.1155C38.4912 48.5895 30.8547 40.9444 30.3287 31.4318H28.6513C28.0734 31.4318 27.6047 30.9619 27.6047 30.3841C27.6047 29.8051 28.0734 29.3353 28.6513 29.3353H30.3309C30.6884 22.7854 34.3835 16.9571 40.187 13.8431C40.3727 13.1562 40.686 12.6993 41.0457 12.4228C39.4816 9.92555 38.6953 6.81265 39.878 5.41174C40.3587 4.84359 41.5069 4.10587 43.801 5.55431L45.0983 6.37412C45.3024 6.50265 45.4277 6.56098 45.4947 6.5869C45.5163 6.57394 45.54 6.5599 45.5605 6.54694L47.4324 5.43442C48.5449 4.76906 49.5375 4.77014 50.6511 5.4355L52.5219 6.54694C52.5424 6.5599 52.5662 6.57394 52.5878 6.5869C52.6548 6.56098 52.7801 6.50265 52.9853 6.37304L54.2814 5.55539C56.5724 4.10695 57.7194 4.84251 58.2001 5.41065C59.3796 6.80509 58.6041 9.89963 57.053 12.3936C57.404 12.6658 57.7076 13.1303 57.8933 13.8421C63.6957 16.9571 67.3897 22.7865 67.7483 29.3364H69.4312C70.0101 29.3364 70.4778 29.8051 70.4778 30.3841H70.4789ZM57.3079 17.7305C59.4606 20.8034 61.1888 25.2697 61.7353 29.3353H65.6529C65.3224 23.9703 62.4698 19.1595 57.9549 16.3015C57.8415 16.8437 57.633 17.3492 57.3079 17.7305ZM43.5828 12.3742C47.0954 13.0341 50.6976 13.0255 54.5212 12.3483C56.3423 10.1329 56.9374 7.40239 56.6274 6.80509C56.5119 6.80725 56.1414 6.85693 55.3983 7.32679L54.1021 8.1466C52.8913 8.91024 52.1892 8.78927 51.4494 8.34642L49.5807 7.23606C49.1228 6.9617 48.9618 6.9617 48.5039 7.23497L46.6342 8.34642C45.8943 8.78927 45.1922 8.91024 43.9825 8.1466L42.6853 7.32679C41.9389 6.85585 41.5673 6.80617 41.4529 6.80509C41.1407 7.40347 41.7423 10.1535 43.5828 12.3742ZM55.9545 14.7882C55.9372 14.717 55.9275 14.6435 55.9254 14.569C55.9038 14.4448 55.8768 14.3303 55.8422 14.2341C51.0616 15.2019 46.6029 15.2052 42.2435 14.2428C42.2079 14.3368 42.1798 14.4523 42.1582 14.5798C42.1549 14.6467 42.1463 14.7148 42.1301 14.7796C42.0696 15.3639 42.1387 16.0952 42.3332 16.3382C47.1138 17.3287 51.6243 17.3298 55.7417 16.3415C55.9448 16.1179 56.0161 15.3888 55.9545 14.7872V14.7882ZM38.421 29.3353H38.7731C39.3509 29.3353 39.8197 29.8051 39.8197 30.383C39.8197 30.9619 39.3509 31.4318 38.7731 31.4318H38.2471C38.2168 32.9364 38.4166 34.2855 38.9081 35.3224C39.514 36.598 40.5164 37.2191 41.9724 37.2191H56.1868C57.6244 37.2191 58.6084 36.6142 59.1981 35.3699C59.6907 34.3287 59.8764 32.9612 59.8257 31.4318H59.3051C58.7272 31.4318 58.2584 30.9619 58.2584 30.383C58.2584 29.8051 58.7272 29.3353 59.3051 29.3353H59.6248C59.0491 25.5538 57.3533 21.296 55.3345 18.5784C53.3914 18.9769 51.3737 19.1789 49.2945 19.1789C47.131 19.1789 44.9006 18.9607 42.614 18.5287C40.6114 21.2441 38.9502 25.5289 38.421 29.3353ZM32.4263 29.3353H36.3126C36.817 25.22 38.5301 20.6987 40.6838 17.6246C40.4095 17.2628 40.2258 16.8027 40.1211 16.3058C35.6073 19.1638 32.7568 23.9714 32.4263 29.3353ZM65.6529 31.4318H61.9081C61.9589 33.2691 61.7148 34.9465 61.0894 36.2675C60.1454 38.2614 58.4507 39.3145 56.1868 39.3145H41.9724C39.6912 39.3145 37.9781 38.2452 37.0179 36.221C36.3925 34.9044 36.1354 33.2453 36.1635 31.4318H32.4263C32.9469 39.7876 39.6458 46.4951 47.993 47.0157V41.5255C47.993 40.9466 48.4617 40.4778 49.0396 40.4778C49.6175 40.4778 50.0862 40.9466 50.0862 41.5255V47.0157C58.4334 46.4951 65.1323 39.7876 65.6529 31.4318ZM14.1637 10.4116C13.7532 9.48702 13.9185 8.44687 14.5957 7.69511L20.7653 0.863356C21.2438 0.333017 21.9254 0.0273438 22.635 0.0273438C23.3447 0.0273438 24.0262 0.331937 24.5047 0.863356L30.6733 7.69403C31.3516 8.44687 31.5168 9.48918 31.1064 10.4138C30.697 11.3362 29.8146 11.9097 28.8036 11.9097H26.8421V36.948C26.8421 39.2702 24.9551 41.1604 22.635 41.1604C20.3149 41.1604 18.428 39.2702 18.428 36.948V11.9097H16.4665C15.4566 11.9097 14.5741 11.3362 14.1637 10.4116ZM16.0766 9.56047C16.1187 9.65444 16.2245 9.8143 16.4654 9.8143H19.4735C20.0514 9.8143 20.5202 10.2831 20.5202 10.862V36.9469C20.5202 38.1145 21.4685 39.065 22.635 39.065C23.8005 39.065 24.7488 38.1145 24.7488 36.9469V10.862C24.7488 10.2831 25.2176 9.8143 25.7955 9.8143H28.8036C29.0455 9.8143 29.1525 9.65552 29.1946 9.56155C29.2367 9.4665 29.2832 9.27964 29.1201 9.09818L22.9515 2.26859C22.8381 2.14222 22.7042 2.12385 22.635 2.12385C22.5648 2.12385 22.432 2.14222 22.3186 2.26751L16.1489 9.09926C15.988 9.27856 16.0344 9.46542 16.0766 9.56047ZM4.67806 26.3185H2.71657C1.7045 26.3185 0.822038 25.7439 0.412673 24.8193C0.00330861 23.8947 0.169647 22.8556 0.847961 22.106L7.01652 15.2721C7.49717 14.7429 8.17765 14.4394 8.8862 14.4394C9.59368 14.4394 10.2752 14.7418 10.7537 15.27L16.9244 22.1071C17.6017 22.8556 17.768 23.8958 17.3587 24.8193C16.9493 25.7439 16.0668 26.3185 15.0548 26.3185H13.0933V42.3313C13.0933 44.6568 11.2052 46.5491 8.8862 46.5491C6.56611 46.5491 4.67806 44.6568 4.67806 42.3313V26.3185ZM5.7247 24.2231C6.30256 24.2231 6.77133 24.6919 6.77133 25.2708V42.3313C6.77133 43.501 7.71967 44.4526 8.8862 44.4526C10.0517 44.4526 11 43.501 11 42.3313V25.2708C11 24.6919 11.4688 24.2231 12.0466 24.2231H15.0548C15.2978 24.2231 15.4036 24.0643 15.4458 23.9693C15.4879 23.8753 15.5333 23.6917 15.3723 23.5134L9.20268 16.6774C9.09142 16.5542 8.95641 16.5359 8.8862 16.5359C8.816 16.5359 8.68098 16.5542 8.56757 16.6795L2.40009 23.5124C2.23807 23.6917 2.28452 23.8753 2.32556 23.9693C2.36769 24.0643 2.47462 24.2231 2.71657 24.2231H5.7247ZM68.5001 48.0203C69.1719 49.1825 69.3502 50.5434 69.0013 51.8493C68.6524 53.1562 67.8196 54.2461 66.6553 54.9201L45.0507 67.4116C44.0862 67.9668 43.0201 68.2509 41.9465 68.2509C41.4107 68.2509 40.8728 68.1796 40.3447 68.037L25.547 64.0633C24.5436 63.8418 24.2844 63.8343 23.6223 64.2188L22.1879 65.0472L23.0239 66.4968C23.848 67.9214 23.376 69.7242 21.9492 70.6001L17.1253 73.5467C16.6663 73.8286 16.1468 73.9733 15.6153 73.9733C15.3691 73.9733 15.1206 73.942 14.8744 73.8794C14.0859 73.6785 13.4011 73.1611 12.9961 72.459L3.35276 55.7334C2.54159 54.326 3.02764 52.4876 4.43503 51.6322L9.25128 48.6888C9.92852 48.2752 10.731 48.1574 11.5098 48.3562C12.2972 48.5571 12.9809 49.0744 13.3849 49.7754L14.222 51.2282L24.5047 45.2811C25.7198 44.5822 27.3605 44.4148 28.6999 44.8479L43.5353 48.8293C45.9623 49.4817 47.4086 51.9875 46.7584 54.4156C46.7206 54.5582 46.6763 54.6975 46.6255 54.8326L61.6079 46.1679C64.0219 44.7756 67.1132 45.6073 68.5001 48.0203ZM21.2125 67.5466L11.5725 50.8242C11.4482 50.6082 11.2365 50.4494 10.9924 50.3868C10.9179 50.3674 10.8434 50.3587 10.7699 50.3587C10.6176 50.3587 10.4707 50.3987 10.3422 50.4775L5.52163 53.4241C5.07878 53.692 4.91893 54.2579 5.16519 54.6846L14.8085 71.4102C14.9327 71.6262 15.1444 71.785 15.3896 71.8477C15.6164 71.9049 15.8454 71.8736 16.0333 71.758L20.8572 68.8125C21.3065 68.536 21.4631 67.9798 21.2125 67.5466ZM66.6877 49.068C66.2956 48.3864 65.6594 47.8982 64.8947 47.693C64.1299 47.4878 63.3339 47.5914 62.6534 47.9835L46.8092 57.1473C45.0821 58.142 44.3335 58.3948 43.0179 58.0459L41.2466 57.5771C41.2433 57.5771 41.2412 57.5761 41.2379 57.575C41.2282 57.5728 41.2185 57.5685 41.2077 57.5653L30.0608 54.6101C29.5024 54.461 29.1697 53.8875 29.3177 53.328C29.4657 52.7685 30.0392 52.4358 30.5966 52.5838L41.8104 55.5573C43.1162 55.8835 44.3962 55.1501 44.7364 53.8734C44.906 53.2405 44.8174 52.5773 44.4869 52.0048C44.1564 51.4323 43.6261 51.023 42.9931 50.8534L28.1307 46.8656C28.1112 46.8602 28.0907 46.8537 28.0713 46.8472C27.2925 46.588 26.2556 46.6906 25.5503 47.0968L15.2686 53.0428L21.1423 63.2316L22.5735 62.4042C23.9031 61.6308 24.8028 61.7507 26.0223 62.0218C26.0374 62.0251 26.0514 62.0294 26.0666 62.0326L40.8869 66.0129C41.9378 66.2959 43.0449 66.1479 44.0052 65.5949L65.6075 53.1044C66.288 52.7112 66.7752 52.0729 66.9793 51.3071C67.1834 50.5423 67.0798 49.7474 66.6877 49.068ZM10.2158 53.9253C9.92636 53.4241 9.28693 53.2523 8.78575 53.5418C8.28566 53.8313 8.11392 54.4718 8.40339 54.973L9.54291 56.9507C9.73734 57.2866 10.0884 57.4745 10.4502 57.4745C10.6284 57.4745 10.8077 57.4292 10.973 57.3341C11.4731 57.0446 11.6448 56.4041 11.3554 55.903L10.2158 53.9253Z" fill="#1E417C"/>
</svg>
