<svg width="70" height="75" viewBox="0 0 70 75" fill="none" xmlns="http://www.w3.org/2000/svg">
<mask id="mask0_58624_30879" style="mask-type:luminance" maskUnits="userSpaceOnUse" x="0" y="0" width="70" height="75">
<path d="M0 0H69.2214V75H0V0Z" fill="white"/>
</mask>
<g mask="url(#mask0_58624_30879)">
<path d="M51.1709 2.6356C50.4097 2.34249 49.6484 2.05044 48.8872 1.75733C45.3161 0.588087 41.3929 0.00292969 37.2946 0.00292969C37.2946 0.00292969 37.2946 0.00292969 37.2366 0.00292969C35.129 0.00292969 32.9623 0.17794 30.9137 0.529034C26.1713 1.34825 14.5196 4.56608 8.60687 17.5523C6.79127 21.5303 6.32315 25.4492 7.14344 29.9533C7.43548 31.5327 6.32315 33.4052 5.26986 35.2766C5.09378 35.5698 4.97675 35.8038 4.80066 36.0959C4.15753 37.2071 3.39628 38.2014 2.69302 39.1376C1.75677 40.3079 0.936476 41.4192 0.351319 42.7065C0.000224128 43.5837 0.0582032 44.5189 0.527403 45.2211C1.11256 46.0994 1.99083 46.4494 2.63504 46.6255C2.75207 46.6835 2.81005 46.6835 2.92708 46.7425L3.2202 46.8595C3.74738 47.0345 4.27456 47.2106 4.5666 47.5027C4.80066 47.7367 4.27456 48.965 3.98144 49.6082C3.33723 51.0716 2.45896 53.0601 4.09847 54.3474C4.44957 54.6395 4.85972 54.7565 5.32784 54.8145C4.97675 55.2246 4.68363 55.7507 4.74268 56.3359C4.80066 57.7982 6.26517 58.0913 6.96736 58.2084C7.02533 58.2084 7.08439 58.2084 7.14344 58.2664C7.14344 58.7345 7.08439 59.5537 6.96736 60.1968C6.79127 61.7762 6.49923 63.7647 7.02533 65.5202C7.31845 66.5734 8.02064 67.5677 9.01594 68.3278C10.1294 69.1471 11.5928 69.5561 13.1732 69.4391C18.5009 68.971 24.0046 67.0995 29.2151 64.0578C29.6833 67.2166 29.6253 71.3116 27.9278 72.949C27.4586 73.4171 27.4586 74.1193 27.8687 74.5874C28.1028 74.8215 28.3959 74.9385 28.688 74.9385C28.9811 74.9385 29.2742 74.8215 29.5083 74.5874C32.6112 71.6627 31.7329 65.052 31.3228 62.6534C31.967 62.2443 32.4942 61.7762 32.9623 61.3671C33.4304 60.899 33.4895 60.1968 33.0214 59.7287C32.5522 59.2606 31.85 59.2026 31.3818 59.6707C30.7376 60.3139 29.8594 60.957 28.747 61.6012L28.513 61.7172C23.4774 64.76 18.0918 66.6314 12.9392 67.0995C12.0029 67.1575 11.0656 66.9825 10.4214 66.4564C9.83624 66.0463 9.42609 65.4611 9.30906 64.877C8.95796 63.5306 9.13405 61.8933 9.30906 60.4309C9.48514 59.0265 9.60217 57.9153 9.25108 57.0381C8.89891 56.2188 8.07969 56.0438 7.49453 55.9268C7.55251 55.8677 7.61157 55.8098 7.61157 55.8098C8.19672 55.2246 8.84093 54.5815 8.66485 53.7032C8.43079 52.5919 7.26047 52.5919 6.44018 52.5919C6.20611 52.5919 5.73799 52.5919 5.50393 52.534C5.44487 52.2408 5.913 51.1296 6.14814 50.6035C6.79127 49.1411 7.66954 47.2106 6.20611 45.8653C5.5619 45.2211 4.74268 44.9291 4.03942 44.695L3.80536 44.578C3.68833 44.5189 3.5713 44.5189 3.45426 44.4609C2.98614 44.2859 2.69302 44.2269 2.57599 43.9928C2.45896 43.9348 2.45896 43.8178 2.51801 43.6417C2.92709 42.6475 3.68833 41.7112 4.50862 40.6C5.26986 39.6637 6.08908 38.5525 6.85032 37.2662C7.02533 37.0321 7.14344 36.739 7.31845 36.447C8.54782 34.3404 9.89422 31.9429 9.42609 29.5443C8.66485 25.5072 9.075 22.1144 10.7145 18.5465C16.1012 6.61252 26.8734 3.62983 31.2648 2.86966C33.1964 2.57655 35.187 2.40154 37.1776 2.40154C37.1776 2.40154 37.1776 2.40154 37.2366 2.40154C41.1008 2.40154 44.7889 2.92764 48.1259 4.03891C48.8292 4.27297 49.5314 4.50703 50.2336 4.79907C59.2504 8.54301 66.0414 17.8443 66.7447 27.3797C67.0958 32.294 65.9244 37.1492 63.3486 41.009C62.8214 41.7703 62.4113 42.5304 61.9432 43.2326C61.358 44.1689 60.8308 45.0461 60.1866 45.9823C54.6249 53.8202 51.1118 65.6372 55.7373 74.3533C55.9713 74.7624 56.3815 74.9965 56.7916 74.9965C56.9666 74.9965 57.1427 74.9385 57.3177 74.8795C57.904 74.5874 58.079 73.8852 57.7869 73.3001C53.6296 65.4611 56.9666 54.6395 62.1193 47.3856C62.8214 46.3914 63.4066 45.4552 63.9338 44.5189C64.3439 43.8178 64.812 43.1156 65.2802 42.3554C68.1491 38.0843 69.4375 32.703 69.0273 27.2627C68.3251 16.7921 60.9479 6.72956 51.1709 2.6356Z" fill="#1E417C"/>
</g>
<path d="M54.859 43.35C59.4845 39.7231 62.1773 34.2828 62.1773 28.3743C62.1773 23.11 59.9526 18.0208 56.1474 14.4518C52.3412 10.884 47.3647 9.12851 42.0962 9.47961C32.7862 10.1227 25.351 17.7276 24.7068 27.088C24.3557 33.4056 27.0496 39.4891 32.0261 43.35C33.9576 44.8704 35.07 46.9769 35.07 49.0824V52.6513C35.07 53.7035 35.5971 54.7568 36.3584 55.459V65.6375C36.3584 66.6908 37.0606 67.626 38.0559 67.9771L38.407 68.0941C39.5784 68.5043 41.2179 69.0304 43.3255 69.0304C45.4911 69.0304 47.2477 68.4452 48.4191 68.0941L48.6531 68.0361C48.9463 67.9191 49.1803 67.8021 49.4144 67.626C49.9995 67.451 50.4097 66.8658 50.2927 66.2807C50.3506 66.1057 50.3506 65.9296 50.3506 65.6955V55.634C51.1709 54.9909 51.6391 53.8206 51.6391 52.7684V49.3755C51.7561 47.1519 52.9275 44.8704 54.859 43.35ZM41.5099 37.2665C42.0371 37.3245 42.5052 37.3245 42.9744 37.3245C43.4426 37.3245 43.9697 37.3245 44.4958 37.2665C43.8527 44.2272 44.4958 52.2412 44.6129 53.8796H41.7451C41.803 52.3002 42.2712 44.2863 41.5099 37.2665ZM37.9979 33.9907C35.3631 32.7034 34.4258 31.182 34.0747 30.0707C33.8997 29.5446 34.0747 29.0174 34.4848 28.6674C34.7779 28.4333 35.07 28.3163 35.4211 28.3163C35.5381 28.3163 35.7142 28.3163 35.8312 28.3743C36.1243 28.4913 36.3584 28.6083 36.5925 28.8424C37.5878 29.7787 38.2899 31.8262 38.7001 34.3407C38.466 34.2237 38.232 34.1067 37.9979 33.9907ZM47.2477 34.2237C47.6578 31.6501 48.302 29.6616 49.2383 28.7844C49.4724 28.5504 49.7075 28.4333 49.9995 28.3163C50.1166 28.2573 50.2927 28.2573 50.4097 28.2573C50.7608 28.2573 51.0539 28.3743 51.3459 28.6083C51.7561 28.9594 51.9322 29.5446 51.7561 30.0127C51.463 31.124 50.5267 32.7034 47.8339 33.9317C47.6578 34.0487 47.4238 34.1657 47.2477 34.2237ZM48.126 56.2192V58.9098C47.7749 58.7348 47.3647 58.5587 46.9556 58.4417C45.7263 58.1497 44.3208 57.9156 42.9154 57.7406C41.803 57.5645 40.6907 57.4475 39.7545 57.2134C39.4023 57.1554 39.0512 57.0384 38.8762 56.9214C38.8171 56.8623 38.7591 56.8043 38.7591 56.8043C38.7591 56.6873 38.7591 56.5703 38.7591 56.4532V56.2192H48.126ZM48.126 63.298C47.7749 63.1219 47.4238 63.0049 47.0136 62.8878C45.7843 62.5958 44.3208 62.3617 42.9154 62.1856C41.7451 62.0106 40.6907 61.8936 39.7545 61.6595C39.4023 61.6016 39.0512 61.4845 38.8762 61.3675C38.8171 61.3084 38.7591 61.2505 38.7591 61.2505C38.7591 61.1334 38.7591 61.0164 38.7591 60.8994V59.437C38.9342 59.495 39.1102 59.554 39.2853 59.554C40.2806 59.7881 41.4519 59.9631 42.6223 60.0802C43.9697 60.2552 45.3161 60.4892 46.4285 60.7233C47.5408 61.0164 48.126 61.8936 48.126 63.298ZM39.2273 65.9296L38.8171 65.8125C38.7591 65.8125 38.7591 65.7546 38.7591 65.6955V63.8241C38.9342 63.8821 39.1102 63.9411 39.2853 63.9411C40.3396 64.1752 41.5099 64.3502 42.6223 64.4672C43.9697 64.6433 45.3161 64.8774 46.4864 65.1114C47.0136 65.2274 47.4238 65.5205 47.7169 65.8716C46.6035 66.2227 45.1991 66.6908 43.4426 66.6908C41.686 66.7488 40.3396 66.2807 39.2273 65.9296ZM49.4144 49.3165V52.7093C49.4144 53.2945 49.0042 53.8206 48.7702 53.8206H46.9556C46.9556 53.7626 46.9556 53.7626 46.9556 53.7035C46.5455 48.9074 46.3694 42.1217 46.8966 36.7393C47.5408 36.5643 48.185 36.3303 48.8292 36.0372C52.2833 34.3998 53.5126 32.1773 53.9808 30.6559C54.3909 29.3105 53.9808 27.8482 52.9275 26.9119C51.9322 25.9757 50.4677 25.6246 49.1803 26.0927C48.7702 26.2097 48.185 26.5029 47.5988 27.088C46.1354 28.4913 45.2571 31.416 44.731 34.8089C44.1447 34.8679 43.5005 34.9259 42.8574 34.9259C42.2712 34.9259 41.686 34.8679 41.1009 34.8089C40.5737 31.416 39.6363 28.4913 38.1729 27.088C37.5878 26.5029 37.0026 26.2688 36.5925 26.0927C35.304 25.6246 33.8997 25.9177 32.8453 26.9119C31.792 27.9062 31.3819 29.3105 31.792 30.6559C32.2601 32.2352 33.4895 34.3998 36.9435 36.0372C37.6457 36.3883 38.349 36.6223 39.0512 36.7984C39.7545 42.7069 39.5784 50.1357 39.3443 53.7626V53.8206H38.1729C37.9389 53.8206 37.4707 53.1774 37.4707 52.6513V49.0824C37.4707 46.2747 36.0073 43.408 33.4895 41.4775C29.0981 38.1437 26.6974 32.8204 27.1075 27.263C27.6347 19.015 34.1337 12.3463 42.2712 11.8192C46.8386 11.5271 51.1709 13.0485 54.5079 16.1483C57.8449 19.307 59.7776 23.7532 59.7776 28.3743C59.7776 33.5806 57.4348 38.3778 53.3956 41.5366C50.9369 43.467 49.4144 46.3918 49.4144 49.3165Z" fill="#1E417C"/>
</svg>
