<svg width="71" height="69" viewBox="0 0 71 69" fill="none" xmlns="http://www.w3.org/2000/svg">
<path d="M49.0313 39.4921C48.8088 39.4921 48.5974 39.3579 48.5097 39.1388C48.395 38.8509 48.5355 38.524 48.8234 38.4093C48.8999 38.3787 48.9764 38.3502 49.055 38.321C49.345 38.2139 49.6684 38.362 49.7762 38.6527C49.8833 38.9434 49.7344 39.2661 49.4437 39.3739C49.3742 39.3996 49.3067 39.4247 49.2393 39.4518C49.1711 39.4789 49.1009 39.4921 49.0313 39.4921Z" fill="#1E417C"/>
<path d="M48.5717 39.6771C48.3554 39.6771 48.1503 39.5519 48.0578 39.3426C47.9326 39.0588 48.0606 38.7278 48.3443 38.6026C48.4347 38.5623 48.5251 38.5247 48.6176 38.4906C48.9083 38.3821 49.231 38.5303 49.3395 38.821C49.4473 39.111 49.2992 39.4344 49.0085 39.5422C48.9375 39.5686 48.8673 39.5985 48.7978 39.6291C48.724 39.6618 48.6468 39.6771 48.5717 39.6771Z" fill="#1E417C"/>
<path d="M47.9956 39.9331C47.7876 39.9331 47.588 39.8169 47.4913 39.618C47.355 39.3398 47.4705 39.0032 47.7487 38.8676C47.8245 38.8308 47.9003 38.7953 47.9761 38.7619C48.0811 38.7132 48.1972 38.6618 48.3141 38.6138C48.6006 38.4956 48.9282 38.6326 49.0464 38.9191C49.1646 39.2049 49.0283 39.5332 48.7418 39.6514C48.6402 39.6931 48.5387 39.7383 48.4386 39.7842C48.3662 39.8162 48.3043 39.8454 48.2417 39.8753C48.1625 39.9143 48.0783 39.9331 47.9956 39.9331Z" fill="#1E417C"/>
<path d="M47.7183 40.0658C47.5124 40.0658 47.3142 39.9524 47.2154 39.7556C47.077 39.4781 47.1897 39.1415 47.4665 39.0024C47.5346 38.9691 47.6042 38.935 47.6717 38.903C47.9512 38.7702 48.2864 38.8891 48.4193 39.1693C48.5521 39.4489 48.4325 39.7841 48.1529 39.917C48.0924 39.9455 48.0298 39.9761 47.9693 40.006C47.8886 40.0463 47.8024 40.0658 47.7183 40.0658Z" fill="#1E417C"/>
<path d="M46.2749 40.8801C46.0899 40.8801 45.9083 40.7883 45.8012 40.6206C45.6343 40.3592 45.7108 40.0128 45.9723 39.8459C46.0746 39.7805 46.1775 39.7165 46.2811 39.6547C46.3667 39.6011 46.4654 39.5427 46.5621 39.487C46.8305 39.3313 47.1734 39.4231 47.3292 39.6908C47.4843 39.9593 47.3932 40.3028 47.1247 40.4579C47.0392 40.508 46.9515 40.5588 46.8667 40.6116C46.7624 40.6742 46.6692 40.7319 46.576 40.7917C46.4828 40.8515 46.3785 40.8801 46.2749 40.8801Z" fill="#1E417C"/>
<path d="M45.3805 41.4989C45.2101 41.4989 45.0418 41.421 44.9312 41.2743C44.7449 41.0267 44.7956 40.6748 45.0439 40.4891C45.2247 40.3528 45.4195 40.2151 45.6364 40.0676C45.7317 40.0016 45.8326 39.9355 45.9348 39.8701C46.1963 39.7046 46.5433 39.7825 46.7095 40.044C46.8751 40.3062 46.7972 40.6525 46.5357 40.8187C46.4453 40.8751 46.3569 40.9335 46.27 40.994C46.0635 41.1338 45.884 41.2611 45.7171 41.3862C45.6163 41.462 45.498 41.4989 45.3805 41.4989Z" fill="#1E417C"/>
<path d="M45.1266 41.6911C44.9604 41.6911 44.7962 41.6181 44.6849 41.4776C44.4937 41.2342 44.5354 40.8809 44.7788 40.6896C44.8442 40.6382 44.9089 40.5888 44.9757 40.5387C45.2239 40.3537 45.5758 40.4052 45.7608 40.6542C45.9458 40.9025 45.8944 41.2544 45.6461 41.4394C45.5877 41.4825 45.5306 41.5263 45.4736 41.5708C45.3707 41.6522 45.2483 41.6911 45.1266 41.6911Z" fill="#1E417C"/>
<path d="M43.9897 42.6667C43.8395 42.6667 43.6899 42.6068 43.5794 42.4886C43.3679 42.2626 43.3798 41.9072 43.6058 41.6958L43.626 41.677C43.699 41.6082 43.772 41.54 43.8471 41.4732L43.8673 41.4552C43.9389 41.3905 44.0112 41.3265 44.0829 41.2632C44.3166 41.0587 44.6712 41.0824 44.875 41.3154C45.0795 41.5484 45.0558 41.903 44.8229 42.1075C44.754 42.168 44.6845 42.2299 44.6156 42.2918L44.5961 42.3085C44.528 42.3697 44.4605 42.433 44.3931 42.4963L44.3729 42.515C44.2644 42.6166 44.1267 42.6667 43.9897 42.6667Z" fill="#1E417C"/>
<path d="M42.9979 43.6993C42.8678 43.6993 42.7371 43.6541 42.6314 43.5623C42.3963 43.3592 42.3713 43.0052 42.5737 42.7709C42.639 42.6951 42.7044 42.6213 42.7719 42.5476C42.8331 42.4795 42.8977 42.4099 42.9617 42.3425C42.9986 42.3035 43.0396 42.2604 43.08 42.2187L43.096 42.2027C43.3108 41.9787 43.6662 41.9725 43.8895 42.1867C44.1127 42.4016 44.1197 42.757 43.9048 42.9802L43.8888 42.9969C43.8526 43.0345 43.8151 43.0734 43.7789 43.1116C43.7177 43.1763 43.66 43.2382 43.6043 43.3008C43.5424 43.369 43.4826 43.4364 43.4228 43.5053C43.3115 43.6332 43.1551 43.6993 42.9979 43.6993Z" fill="#1E417C"/>
<path d="M42.3855 44.4452C42.2693 44.4452 42.1518 44.409 42.0509 44.3339C41.8027 44.1489 41.7505 43.7977 41.9355 43.5487C41.9918 43.4736 42.0489 43.4006 42.1087 43.3269C42.3034 43.0862 42.6567 43.0494 42.898 43.2441C43.1387 43.4388 43.1762 43.7921 42.9815 44.0334C42.9314 44.0946 42.8834 44.1558 42.8361 44.2191C42.7262 44.3666 42.5572 44.4452 42.3855 44.4452Z" fill="#1E417C"/>
<path d="M42.3105 44.9438L41.3813 44.3144C41.4488 44.2143 41.517 44.1148 41.5879 44.0182C41.7715 43.7685 42.1234 43.7157 42.3724 43.8999C42.6221 44.0835 42.6749 44.4348 42.4913 44.6844C42.4287 44.7686 42.3696 44.8562 42.3105 44.9438Z" fill="#1E417C"/>
<path d="M41.5632 45.6215C41.4623 45.6215 41.3601 45.5937 41.2676 45.5367C41.0047 45.3732 40.9234 45.0276 41.0868 44.764C41.1403 44.6785 41.1939 44.5936 41.2509 44.5095C41.4241 44.2522 41.7725 44.1847 42.0298 44.3572C42.2872 44.531 42.3546 44.8795 42.1821 45.1361C42.1328 45.2091 42.0869 45.2821 42.0403 45.3566C41.9346 45.5276 41.751 45.6215 41.5632 45.6215Z" fill="#1E417C"/>
<path d="M41.2666 46.1127C41.1713 46.1127 41.0746 46.0884 40.987 46.0376C40.7179 45.8832 40.6261 45.5404 40.7805 45.2719C40.8382 45.1718 40.8959 45.073 40.9571 44.9749C41.1205 44.7121 41.4662 44.6307 41.7298 44.7948C41.9933 44.9583 42.074 45.3039 41.9099 45.5675C41.8556 45.6551 41.8042 45.7427 41.7527 45.8318C41.6491 46.0119 41.4606 46.1127 41.2666 46.1127Z" fill="#1E417C"/>
<path d="M40.4488 47.7472C40.3786 47.7472 40.3069 47.7333 40.2374 47.7054C39.9502 47.5886 39.8124 47.261 39.9293 46.9738C39.9703 46.8737 40.0141 46.7735 40.06 46.6741C40.0913 46.601 40.1261 46.528 40.1609 46.4571C40.22 46.3291 40.2861 46.1928 40.3549 46.0579C40.3994 45.9696 40.4453 45.8785 40.4954 45.7874C40.5357 45.7088 40.583 45.6211 40.6331 45.5328C40.7861 45.263 41.1297 45.1698 41.3981 45.3221C41.6679 45.4758 41.7618 45.818 41.6088 46.0878C41.5657 46.1629 41.5261 46.238 41.4864 46.3152C41.437 46.4056 41.3967 46.4842 41.3564 46.5649C41.2917 46.6908 41.2326 46.8146 41.1749 46.939C41.1422 47.0065 41.1137 47.0656 41.0886 47.1247C41.0858 47.1296 41.0838 47.1352 41.081 47.1407C41.0413 47.2256 41.0038 47.3111 40.9683 47.3973C40.88 47.615 40.6706 47.7472 40.4488 47.7472Z" fill="#1E417C"/>
<path d="M39.8319 49.4709C39.7819 49.4709 39.7311 49.464 39.681 49.4501C39.382 49.3666 39.2074 49.0571 39.2909 48.7581C39.3145 48.6746 39.3396 48.5905 39.3646 48.507C39.4543 48.2108 39.7673 48.0418 40.0635 48.1315C40.3605 48.2205 40.5288 48.5342 40.4398 48.8304C40.4168 48.9069 40.3939 48.9841 40.3723 49.0599C40.3028 49.3082 40.0774 49.4709 39.8319 49.4709Z" fill="#1E417C"/>
<path d="M39.5201 50.7368C39.4853 50.7368 39.4499 50.7334 39.4144 50.7271C39.1105 50.6687 38.9102 50.3752 38.9679 50.0706C38.9818 49.9976 38.9978 49.9245 39.0131 49.8536C39.0284 49.7778 39.0479 49.6895 39.0695 49.6032C39.0952 49.4843 39.1272 49.3556 39.1613 49.2263C39.1856 49.1282 39.2134 49.0225 39.2454 48.9175C39.3344 48.6205 39.6474 48.4515 39.9443 48.542C40.2413 48.631 40.4096 48.9439 40.3199 49.2409C40.2935 49.3278 40.2705 49.4148 40.249 49.5038C40.2163 49.6269 40.1878 49.7409 40.162 49.8578C40.1419 49.9405 40.1259 50.0129 40.112 50.0852C40.096 50.1575 40.0827 50.2187 40.0709 50.2806C40.0195 50.5498 39.7844 50.7368 39.5201 50.7368Z" fill="#1E417C"/>
<path d="M39.3541 51.7392C39.329 51.7392 39.304 51.7371 39.2783 51.7336C38.9709 51.6919 38.756 51.4095 38.797 51.1021C38.8123 50.9937 38.8283 50.8866 38.8443 50.7795C38.8652 50.6424 38.8867 50.5131 38.9097 50.3816C38.9646 50.077 39.2553 49.874 39.5613 49.9275C39.8659 49.9818 40.0697 50.2732 40.0155 50.5785C39.9939 50.7002 39.9737 50.8212 39.955 50.9429C39.939 51.0479 39.9237 51.1494 39.9097 51.2531C39.8715 51.5347 39.6309 51.7392 39.3541 51.7392Z" fill="#1E417C"/>
<path d="M39.3136 52.0886C39.2942 52.0886 39.2747 52.0879 39.2552 52.0858C38.9471 52.0538 38.7225 51.7777 38.7545 51.4697L38.7566 51.4502C38.7642 51.3744 38.7726 51.2986 38.7816 51.2242C38.8199 50.9168 39.1008 50.6991 39.4075 50.7366C39.7156 50.7749 39.934 51.0552 39.8957 51.3625C39.8874 51.4293 39.8804 51.4975 39.8735 51.5656L39.8714 51.5851C39.8408 51.8737 39.5974 52.0886 39.3136 52.0886Z" fill="#1E417C"/>
<path d="M39.2369 53.1215C39.23 53.1215 39.2223 53.1208 39.2154 53.1208C38.9059 53.109 38.6639 52.8489 38.6757 52.5387C38.6792 52.4511 38.6827 52.3614 38.6889 52.2737C38.6945 52.1694 38.7007 52.0665 38.7091 51.9636C38.7167 51.8544 38.7279 51.7382 38.739 51.6214L38.7404 51.604C38.7696 51.2959 39.0401 51.0706 39.3524 51.0991C39.6605 51.1283 39.8872 51.4016 39.858 51.7104L39.8559 51.7278C39.8462 51.8342 39.8357 51.9406 39.8288 52.047C39.8204 52.1472 39.8142 52.2404 39.81 52.3356C39.8093 52.3412 39.8093 52.3461 39.8086 52.3516C39.8031 52.4274 39.8003 52.5053 39.7975 52.5811C39.7857 52.8837 39.5367 53.1215 39.2369 53.1215Z" fill="#1E417C"/>
<path d="M39.2282 53.4062C38.9181 53.4062 38.667 53.1545 38.667 52.845C38.667 52.7483 38.6705 52.6496 38.676 52.5522C38.6927 52.2427 38.95 52.0035 39.2679 52.0236C39.5774 52.041 39.8138 52.306 39.7964 52.6155C39.7923 52.6913 39.7895 52.7692 39.7895 52.845C39.7895 53.1545 39.5377 53.4062 39.2282 53.4062Z" fill="#1E417C"/>
<mask id="mask0_58624_13730" style="mask-type:luminance" maskUnits="userSpaceOnUse" x="38" y="37" width="33" height="32">
<path d="M38.5522 37.3242H70.3348V69.0004H38.5522V37.3242Z" fill="white"/>
</mask>
<g mask="url(#mask0_58624_13730)">
<path d="M54.4816 68.9958C49.4395 68.9958 44.8153 66.6764 41.795 62.6323C40.1801 60.4666 39.1432 57.9108 38.7954 55.2389C38.7203 54.6609 38.6765 54.0809 38.6654 53.5155C38.664 53.4022 38.6626 53.2923 38.6626 53.1817C38.6626 52.8722 38.9137 52.6205 39.2238 52.6205C39.5333 52.6205 39.7851 52.8722 39.7851 53.1817C39.7851 53.2867 39.7865 53.391 39.7879 53.496C39.7983 54.0183 39.8393 54.5573 39.9082 55.0949C40.2309 57.5756 41.1948 59.9499 42.6949 61.9612C45.5004 65.7188 49.7969 67.874 54.4816 67.874C59.1697 67.874 63.469 65.7174 66.2773 61.957C68.1828 59.4075 69.1899 56.3732 69.1899 53.1817C69.1899 49.9721 68.1724 46.9246 66.2481 44.3681C63.4398 40.6307 59.1516 38.488 54.4816 38.488C54.1721 38.488 53.9203 38.2369 53.9203 37.9268C53.9203 37.6173 54.1721 37.3662 54.4816 37.3662C59.5077 37.3662 64.1234 39.6724 67.1452 43.6935C69.217 46.4455 70.3123 49.7266 70.3123 53.1817C70.3123 56.6173 69.2281 59.8838 67.1765 62.6288C64.1985 66.6159 59.4534 68.9958 54.4816 68.9958Z" fill="#1E417C"/>
</g>
<mask id="mask1_58624_13730" style="mask-type:luminance" maskUnits="userSpaceOnUse" x="38" y="52" width="33" height="2">
<path d="M38.5522 52.457H70.3348V53.8813H38.5522V52.457Z" fill="white"/>
</mask>
<g mask="url(#mask1_58624_13730)">
<path d="M69.7511 53.7426H39.2238C38.9137 53.7426 38.6626 53.4915 38.6626 53.1814C38.6626 52.8719 38.9137 52.6201 39.2238 52.6201H69.7511C70.0613 52.6201 70.3123 52.8719 70.3123 53.1814C70.3123 53.4915 70.0613 53.7426 69.7511 53.7426Z" fill="#1E417C"/>
</g>
<mask id="mask2_58624_13730" style="mask-type:luminance" maskUnits="userSpaceOnUse" x="53" y="37" width="3" height="32">
<path d="M53.8633 37.3242H55.1095V69.0004H53.8633V37.3242Z" fill="white"/>
</mask>
<g mask="url(#mask2_58624_13730)">
<path d="M54.4816 68.9958C54.1722 68.9958 53.9204 68.7447 53.9204 68.4352V37.9274C53.9204 37.6173 54.1722 37.3662 54.4816 37.3662C54.7918 37.3662 55.0429 37.6173 55.0429 37.9274V68.4352C55.0429 68.7447 54.7918 68.9958 54.4816 68.9958Z" fill="#1E417C"/>
</g>
<path d="M54.5302 46.678C54.5135 46.678 54.4975 46.678 54.4808 46.678C52.2046 46.6759 49.8915 46.4555 47.6055 46.0222C45.7674 45.6724 43.9133 45.1807 42.094 44.5603C41.8005 44.4602 41.644 44.1417 41.7441 43.8482C41.8436 43.5547 42.1628 43.3975 42.4563 43.4984C44.2255 44.1013 46.0289 44.5798 47.8148 44.9192C50.0319 45.34 52.2748 45.5542 54.4822 45.5555C54.4975 45.5555 54.5135 45.5555 54.5295 45.5555C56.7251 45.5555 58.9526 45.3441 61.1503 44.9269C62.9237 44.5916 64.7229 44.1139 66.497 43.506C66.561 43.481 66.6298 43.4678 66.6994 43.4678C67.0088 43.4678 67.2606 43.7195 67.2606 44.029C67.2606 44.2481 67.1347 44.4379 66.9511 44.5304C66.9282 44.543 66.9038 44.5527 66.8781 44.5617C65.0476 45.1897 63.1908 45.6835 61.3596 46.0299C59.0938 46.4596 56.7953 46.678 54.5302 46.678Z" fill="#1E417C"/>
<path d="M66.6994 62.8357C66.6389 62.8357 66.577 62.8259 66.5172 62.8044C64.7416 62.1944 62.9425 61.7139 61.1684 61.378C58.9617 60.9586 56.7202 60.7458 54.5058 60.7458C54.4982 60.7458 54.4898 60.7458 54.4822 60.7458C52.2699 60.7479 50.0208 60.9635 47.7967 61.387C46.024 61.7243 44.2276 62.2014 42.4563 62.8051C42.1628 62.9059 41.8436 62.7487 41.7441 62.4552C41.644 62.1618 41.8005 61.8432 42.094 61.7431C43.9147 61.122 45.7632 60.6311 47.5874 60.2847C49.8796 59.848 52.199 59.6254 54.4815 59.624C54.4898 59.624 54.4982 59.624 54.5058 59.624C56.7904 59.624 59.1021 59.8431 61.3777 60.275C63.2047 60.6213 65.056 61.1151 66.8823 61.7431C67.1751 61.8439 67.3308 62.1632 67.23 62.4566C67.15 62.6889 66.9323 62.8357 66.6994 62.8357Z" fill="#1E417C"/>
<mask id="mask3_58624_13730" style="mask-type:luminance" maskUnits="userSpaceOnUse" x="46" y="37" width="17" height="32">
<path d="M46.0298 37.3242H62.9434V69.0004H46.0298V37.3242Z" fill="white"/>
</mask>
<g mask="url(#mask3_58624_13730)">
<path d="M54.4816 68.9958C51.3924 68.9958 48.6537 66.0053 47.1543 60.9966C46.4477 58.6306 46.0742 55.9281 46.0742 53.1817C46.0742 50.4103 46.4539 47.6882 47.1724 45.3084C48.6745 40.3351 51.407 37.3662 54.4816 37.3662C57.5598 37.3662 60.2929 40.3379 61.793 45.316C62.5101 47.6903 62.8891 50.4103 62.8891 53.1817C62.8891 55.9274 62.5163 58.6258 61.8111 60.9868C60.3152 66.0018 57.5758 68.9958 54.4816 68.9958ZM54.4816 38.4887C51.9669 38.4887 49.578 41.226 48.2468 45.6325C47.5597 47.908 47.1967 50.5188 47.1967 53.1817C47.1967 55.821 47.5542 58.4123 48.2301 60.6746C49.5585 65.1151 51.9543 67.874 54.4816 67.874C57.0131 67.874 59.4097 65.1116 60.7352 60.6655C61.4105 58.4074 61.7673 55.8196 61.7673 53.1817C61.7673 50.5188 61.4043 47.9108 60.7179 45.6408C59.3888 41.2288 56.9992 38.4887 54.4816 38.4887Z" fill="#1E417C"/>
</g>
<path d="M26.9353 16.2614C26.8163 16.2614 26.6981 16.2231 26.6 16.1501C26.4582 16.0444 26.374 15.8775 26.374 15.7001V12.8933C26.374 12.5831 26.6251 12.332 26.9353 12.332C27.2454 12.332 27.4965 12.5831 27.4965 12.8933V14.9574C28.0689 14.8016 28.6398 14.6625 29.2011 14.5422C29.5384 14.4671 29.8931 14.3969 30.2811 14.3287C30.6212 14.2654 30.9766 14.2077 31.3619 14.1541C35.5374 13.554 39.8076 13.8259 44.0652 14.9616V12.8933C44.0652 12.5831 44.3162 12.332 44.6264 12.332C44.9359 12.332 45.1876 12.5831 45.1876 12.8933V15.7001C45.1876 15.8768 45.1049 16.043 44.9637 16.1487C44.8225 16.2551 44.6389 16.2885 44.4706 16.2391C40.1295 14.9817 35.7725 14.6542 31.5197 15.2648C31.1491 15.3169 30.8097 15.3719 30.4807 15.4331C30.1052 15.4992 29.7665 15.5666 29.4403 15.6389C28.667 15.8045 27.879 16.0055 27.0952 16.2384C27.0431 16.2537 26.9888 16.2614 26.9353 16.2614Z" fill="#1E417C"/>
<path d="M44.6264 10.7779C44.5569 10.7779 44.4859 10.7654 44.4171 10.7375C41.2041 9.44537 38.039 8.83267 35.0138 8.91473C34.7036 8.92377 34.4456 8.67897 34.4372 8.36949C34.4289 8.05931 34.673 7.8013 34.9832 7.79295C38.1663 7.70602 41.4795 8.34654 44.8358 9.69643C45.1237 9.81188 45.2628 10.1387 45.1473 10.4267C45.059 10.645 44.849 10.7779 44.6264 10.7779Z" fill="#1E417C"/>
<path d="M26.9357 10.7778C26.7201 10.7778 26.515 10.6533 26.4225 10.444C26.2966 10.1609 26.4246 9.82919 26.7076 9.70401C29.3615 8.52729 32.1079 7.88538 34.8709 7.79636C35.1818 7.78384 35.4405 8.02934 35.4502 8.33882C35.46 8.6483 35.2173 8.9077 34.9071 8.91814C32.2894 9.00229 29.6835 9.61221 27.1631 10.7298C27.0887 10.7625 27.0115 10.7778 26.9357 10.7778Z" fill="#1E417C"/>
<mask id="mask4_58624_13730" style="mask-type:luminance" maskUnits="userSpaceOnUse" x="19" y="0" width="34" height="14">
<path d="M19.5015 0H52.0824V13.4669H19.5015V0Z" fill="white"/>
</mask>
<g mask="url(#mask4_58624_13730)">
<path d="M44.6259 13.4533C44.5299 13.4533 44.4332 13.429 44.3463 13.3789C44.1724 13.2787 44.0646 13.0937 44.0646 12.8928V10.5929C41.0345 9.37511 37.9912 8.81179 35.0174 8.91472C34.9757 8.91611 34.9388 8.9182 34.9012 8.9182C32.4358 9.01834 29.9468 9.58028 27.496 10.5894V12.8928C27.496 13.0937 27.3889 13.2794 27.2143 13.3796C27.0398 13.479 26.8249 13.4783 26.6517 13.3768L19.9182 9.44118C19.743 9.33825 19.6366 9.14979 19.6407 8.94671C19.6442 8.74364 19.7569 8.55864 19.9356 8.46267L35.5195 0.0858405C35.6857 -0.00387392 35.8853 -0.00387392 36.0508 0.0858405L51.6347 8.46267C51.8142 8.55864 51.9268 8.74364 51.9303 8.94671C51.9338 9.14979 51.8274 9.33895 51.6521 9.44118L44.9089 13.3768C44.8213 13.4283 44.7239 13.4533 44.6259 13.4533ZM35.7226 7.78042C38.7305 7.78042 41.7988 8.42581 44.8429 9.6992C45.0515 9.78683 45.1871 9.9906 45.1871 10.2166V11.9156L50.2209 8.97662L35.7852 1.21666L21.3488 8.97731L26.3735 11.9142V10.2166C26.3735 9.99268 26.5077 9.78961 26.7136 9.70129C29.4029 8.54613 32.1458 7.90491 34.8665 7.79642C34.8999 7.79503 34.9318 7.79503 34.9652 7.79364C35.2253 7.7846 35.4757 7.78042 35.7226 7.78042Z" fill="#1E417C"/>
</g>
<path d="M50.9455 14.3134C50.6353 14.3134 50.3843 14.0623 50.3843 13.7521V9.20382C50.3843 8.89433 50.6353 8.64258 50.9455 8.64258C51.2557 8.64258 51.5068 8.89433 51.5068 9.20382V13.7521C51.5068 14.0623 51.2557 14.3134 50.9455 14.3134Z" fill="#1E417C"/>
<path d="M50.9455 9.76487C50.6353 9.76487 50.3843 9.51381 50.3843 9.20363V8.95674C50.3843 8.64726 50.6353 8.39551 50.9455 8.39551C51.2557 8.39551 51.5068 8.64726 51.5068 8.95674V9.20363C51.5068 9.51381 51.2557 9.76487 50.9455 9.76487Z" fill="#1E417C"/>
<path d="M49.5542 15.6328C49.4054 15.6328 49.2572 15.5744 49.1467 15.4583C48.9332 15.233 48.9429 14.8783 49.1682 14.6648L50.5598 13.3455C50.7845 13.132 51.1399 13.1417 51.3534 13.3663C51.5669 13.5917 51.5571 13.9464 51.3318 14.1599L49.9402 15.4792C49.8317 15.5821 49.6926 15.6328 49.5542 15.6328Z" fill="#1E417C"/>
<path d="M52.3374 15.6328C52.199 15.6328 52.0599 15.5821 51.9514 15.4792L50.5598 14.1599C50.3345 13.9464 50.3248 13.5917 50.5383 13.3663C50.7518 13.1417 51.1072 13.132 51.3318 13.3455L52.7241 14.6648C52.9487 14.8783 52.9585 15.233 52.745 15.4583C52.6351 15.5744 52.4863 15.6328 52.3374 15.6328Z" fill="#1E417C"/>
<path d="M39.3583 55.7273H16.424C16.1139 55.7273 15.8628 55.4762 15.8628 55.1661V41.0385C15.8628 40.8076 16.004 40.6003 16.2196 40.5162L27.6516 36.0367C27.9402 35.924 28.2656 36.0659 28.379 36.3545C28.4917 36.6431 28.3498 36.9686 28.0612 37.082L16.9853 41.4217V54.6055H38.7309C38.6976 54.2397 38.6753 53.876 38.6663 53.5185C38.6642 53.4017 38.6628 53.2918 38.6628 53.1812C38.6628 53.0665 38.6642 52.9517 38.6677 52.8363C38.6677 52.7479 38.6704 52.661 38.6753 52.5734C38.6753 52.5623 38.6753 52.5511 38.676 52.54C38.676 52.54 38.676 52.5393 38.676 52.5386C38.6795 52.4461 38.683 52.355 38.6906 52.2646C38.6941 52.1749 38.701 52.0685 38.7094 51.9628C38.717 51.8536 38.7282 51.7374 38.7393 51.6213L38.7456 51.5566C38.7483 51.5239 38.7525 51.4912 38.7567 51.4586L38.7574 51.4495C38.7657 51.3737 38.7734 51.2979 38.7824 51.2235L38.797 51.1087C38.8123 50.9933 38.829 50.8862 38.845 50.7791C38.8659 50.6421 38.8874 50.5099 38.9111 50.3799C38.9285 50.2763 38.9493 50.1692 38.9709 50.0621C38.9834 49.9974 38.9987 49.9244 39.0147 49.8534C39.0293 49.7776 39.0488 49.6921 39.0696 49.6052C39.0968 49.4841 39.1281 49.3548 39.1628 49.2261C39.1858 49.1308 39.2129 49.0293 39.2435 48.9278C39.2588 48.8687 39.2755 48.8082 39.2936 48.749C39.3165 48.6684 39.3409 48.587 39.3652 48.5063C39.5266 47.9854 39.7171 47.468 39.9334 46.9645C39.9716 46.8706 40.0169 46.7677 40.0641 46.6661C40.0941 46.6001 40.1267 46.5277 40.1615 46.4568C40.2206 46.3288 40.2867 46.1918 40.3555 46.0569C40.3994 45.9686 40.446 45.8782 40.496 45.7871C40.535 45.7106 40.5823 45.625 40.6296 45.5395C40.681 45.447 40.7311 45.3566 40.7833 45.2676C40.8382 45.1709 40.8959 45.0728 40.9571 44.9748C41.0002 44.9045 41.0454 44.8315 41.0913 44.7585C41.1379 44.6841 41.188 44.6069 41.2388 44.529C41.2916 44.4476 41.3368 44.3788 41.3827 44.312C41.4474 44.2174 41.5149 44.1194 41.5851 44.022C41.6623 43.9149 41.7423 43.8036 41.8237 43.6958C41.8522 43.6562 41.8821 43.6172 41.912 43.579L41.9405 43.5414C41.9947 43.4705 42.0497 43.4009 42.1039 43.3321C42.2542 43.1436 42.4079 42.96 42.5762 42.7674C42.6401 42.6944 42.7055 42.6206 42.7723 42.5462C42.8342 42.4781 42.8982 42.4092 42.9628 42.3411C43.0108 42.2896 43.0567 42.2409 43.104 42.1936C43.2779 42.0142 43.4434 41.8501 43.6027 41.6978L43.6263 41.6755C43.7 41.6074 43.773 41.5392 43.8475 41.4717L43.8676 41.4543C43.9393 41.3897 44.0116 41.325 44.0839 41.2617C44.3065 41.067 44.5415 40.8736 44.7829 40.6859C44.8447 40.6372 44.9094 40.5878 44.9762 40.5384C44.9943 40.5238 45.0256 40.5009 45.0541 40.48C45.2697 40.3201 45.4581 40.1858 45.639 40.0648C45.7342 40.0001 45.8323 39.9355 45.9311 39.8722C45.9422 39.8645 45.9603 39.8534 45.9783 39.8416C46.0757 39.7797 46.1779 39.7157 46.2823 39.6538C46.3713 39.5989 46.4673 39.5418 46.5625 39.4862C46.8665 39.3109 47.1711 39.1475 47.4701 39.0001C47.5404 38.9653 47.6078 38.9319 47.6767 38.8999L47.6892 38.8937C47.7135 38.8818 47.7379 38.87 47.7636 38.8596C47.8338 38.8241 47.9069 38.7907 47.9806 38.7587C48.0793 38.7135 48.1934 38.6642 48.3074 38.6155C48.3241 38.6085 48.3429 38.6002 48.3624 38.5932C48.4438 38.5578 48.5251 38.5251 48.6079 38.4924C48.6747 38.4639 48.7553 38.4333 48.8367 38.4034C48.9 38.3783 48.9765 38.3491 49.0551 38.3199C49.3451 38.2128 49.6685 38.3609 49.7763 38.6523C49.8834 38.943 49.7345 39.2657 49.4438 39.3728C49.3743 39.3986 49.3068 39.4243 49.2394 39.4514C49.1601 39.4806 49.0961 39.5043 49.0314 39.5321C48.9438 39.5662 48.8708 39.5954 48.7977 39.6281C48.7852 39.6329 48.7727 39.6378 48.7602 39.6427C48.756 39.6448 48.7498 39.6475 48.7477 39.6482C48.6441 39.6921 48.5404 39.7366 48.4382 39.7839C48.3631 39.8165 48.304 39.8437 48.2462 39.8729C48.2309 39.8805 48.215 39.8875 48.199 39.8937L48.151 39.9167C48.0884 39.9459 48.032 39.9744 47.9743 40.0029C47.6892 40.1434 47.4061 40.295 47.1252 40.4578C47.0382 40.5078 46.9506 40.56 46.8637 40.6135C46.7628 40.6733 46.6696 40.7318 46.5764 40.7916L46.5479 40.809C46.4478 40.8743 46.3567 40.9341 46.2663 40.9953C46.098 41.108 45.9241 41.2318 45.7148 41.3876C45.6897 41.405 45.673 41.4175 45.657 41.43C45.5875 41.4822 45.5305 41.5253 45.4734 41.5705C45.2467 41.7464 45.029 41.9259 44.8225 42.106C44.7536 42.1665 44.6848 42.2284 44.6152 42.2903L44.5965 42.3077C44.5283 42.3689 44.4609 42.4322 44.3927 42.4948L44.3725 42.5142C44.2272 42.6519 44.0721 42.8063 43.9031 42.9809C43.8586 43.0247 43.8224 43.0643 43.7856 43.104C43.7181 43.1749 43.6604 43.2375 43.604 43.2994C43.5421 43.3676 43.4823 43.435 43.4225 43.5039C43.264 43.6861 43.1207 43.8572 42.983 44.0289C42.9343 44.0908 42.8829 44.1562 42.8314 44.2237L42.7987 44.2661C42.7764 44.2946 42.7535 44.3231 42.7333 44.353C42.7298 44.3572 42.7264 44.3621 42.7229 44.3669C42.6457 44.4685 42.5699 44.5742 42.4955 44.6771C42.4301 44.7675 42.3696 44.8559 42.3084 44.9456C42.2653 45.0082 42.2263 45.068 42.1874 45.1278L42.1783 45.141C42.1324 45.2119 42.0865 45.2829 42.0413 45.3552C41.9954 45.4282 41.953 45.4964 41.912 45.5638C41.8557 45.6542 41.8042 45.7419 41.7527 45.8309C41.7033 45.9157 41.6574 45.9992 41.6115 46.0819C41.5698 46.1571 41.5267 46.2349 41.4857 46.3142C41.4363 46.4046 41.3967 46.4832 41.3563 46.5639C41.2916 46.6905 41.2325 46.8136 41.1748 46.9381C41.14 47.009 41.1115 47.0716 41.0837 47.1335C41.0413 47.2246 41.0037 47.3101 40.9682 47.3964C40.7638 47.8742 40.5864 48.3547 40.4383 48.8339C40.4167 48.9062 40.3931 48.9827 40.3722 49.0592C40.3701 49.0655 40.3688 49.071 40.3667 49.0773C40.3521 49.1239 40.3389 49.1719 40.327 49.2178C40.3249 49.2254 40.3229 49.2324 40.3208 49.24C40.2943 49.327 40.2714 49.4139 40.2498 49.5029C40.2171 49.626 40.1886 49.7401 40.1636 49.8562C40.1434 49.9397 40.1274 50.0113 40.1128 50.0843C40.0968 50.156 40.0836 50.2179 40.0718 50.2798C40.0502 50.3827 40.0322 50.478 40.0162 50.5739C39.9932 50.6991 39.9737 50.8208 39.955 50.9425C39.939 51.0475 39.9237 51.1491 39.9098 51.252L39.8958 51.3626C39.8875 51.428 39.8805 51.4968 39.8736 51.565L39.8715 51.5844C39.8708 51.5928 39.8694 51.6004 39.8687 51.6088C39.8652 51.6283 39.8639 51.6477 39.8618 51.6665L39.8562 51.727C39.8458 51.8334 39.836 51.9391 39.8284 52.0455C39.82 52.1464 39.8145 52.241 39.8096 52.3348C39.8033 52.4232 39.8006 52.4976 39.7978 52.572C39.7978 52.5866 39.7978 52.6005 39.7964 52.6144C39.7922 52.6909 39.7894 52.7667 39.7894 52.8446C39.7894 52.8495 39.7894 52.855 39.7894 52.8606C39.786 52.9677 39.7846 53.0741 39.7846 53.1812C39.7846 53.2862 39.7867 53.3905 39.788 53.4956C39.8013 54.013 39.8437 54.5534 39.9146 55.093C39.9355 55.2537 39.8868 55.415 39.7797 55.536C39.674 55.6578 39.5203 55.7273 39.3583 55.7273Z" fill="#1E417C"/>
<path d="M49.2506 39.4087C49.1803 39.4087 49.1087 39.3955 49.0433 39.3697L43.2209 37.0817C42.9323 36.9683 42.7904 36.6428 42.9038 36.3542C43.0171 36.0656 43.3426 35.9237 43.6312 36.0371L49.2589 38.2487C50.935 37.6631 52.691 37.3661 54.4811 37.3661C54.7913 37.3661 55.0424 37.6172 55.0424 37.9274C55.0424 38.2368 54.7913 38.4886 54.4811 38.4886C52.7508 38.4886 51.0553 38.7862 49.4425 39.3746C49.3813 39.3969 49.3159 39.4087 49.2506 39.4087Z" fill="#1E417C"/>
<path d="M35.8101 34.0691C29.1928 34.0691 25.7314 24.711 25.7314 19.6947C25.7314 18.1674 26.0548 16.7174 26.694 15.3849C26.7628 15.2409 26.8901 15.1331 27.0431 15.0886C27.7448 14.8842 28.4702 14.7006 29.199 14.542C29.5822 14.4599 29.9348 14.3904 30.2784 14.3278C30.6504 14.2624 31.0135 14.2033 31.3598 14.1532C32.7918 13.9481 34.2495 13.8438 35.6946 13.8438C38.6197 13.8438 41.6109 14.2701 44.5854 15.1116C44.7412 15.1554 44.8698 15.2646 44.9394 15.4106C45.5778 16.7556 45.9012 18.1973 45.9012 19.6947C45.9012 24.711 42.435 34.0691 35.8101 34.0691ZM27.6015 16.0957C27.1057 17.214 26.8539 18.4227 26.8539 19.6947C26.8539 24.1922 30.0148 32.9467 35.8101 32.9467C41.613 32.9467 44.7787 24.1922 44.7787 19.6947C44.7787 18.4498 44.527 17.2487 44.0304 16.1214C41.2381 15.3543 38.4347 14.9655 35.6946 14.9655C34.303 14.9655 32.8989 15.0657 31.5198 15.2639C31.1859 15.3126 30.8347 15.3689 30.4766 15.4329C30.1462 15.4927 29.8055 15.5601 29.4355 15.6387C28.8179 15.7737 28.2017 15.9274 27.6015 16.0957Z" fill="#1E417C"/>
<path d="M22.9021 55.7035C22.5926 55.7035 22.3408 55.4524 22.3408 55.1429V46.28C22.3408 45.9705 22.5919 45.7188 22.9021 45.7188C23.2122 45.7188 23.4633 45.9705 23.4633 46.28V55.1429C23.4633 55.4524 23.2122 55.7035 22.9021 55.7035Z" fill="#1E417C"/>
<path d="M38.4135 45.365C38.273 45.365 38.136 45.3122 38.0317 45.2148L35.2575 42.6367C35.0489 42.4427 35.0183 42.1242 35.1866 41.8947L40.7941 34.2314C40.8887 34.102 41.0333 34.0193 41.1919 34.004C41.3511 33.9873 41.509 34.0408 41.6265 34.1486L43.8061 36.146C44.0036 36.3275 44.0454 36.6224 43.9063 36.8512L38.8934 45.0952C38.8057 45.2392 38.6576 45.3365 38.4907 45.3595C38.465 45.3629 38.4392 45.365 38.4135 45.365ZM36.3869 42.1541L38.2918 43.924L42.7073 36.662L41.3303 35.3998L36.3869 42.1541Z" fill="#1E417C"/>
<path d="M32.6128 45.8007C32.5863 45.8007 32.5599 45.7986 32.5328 45.7944C32.3582 45.7694 32.2059 45.6637 32.1211 45.5093L27.3627 36.8293C27.2389 36.6025 27.2855 36.3202 27.4761 36.1456L29.655 34.1483C29.7732 34.0405 29.9318 33.9883 30.0896 34.0036C30.2489 34.0189 30.3935 34.1017 30.4874 34.2303L36.0921 41.8943C36.2556 42.1175 36.2312 42.427 36.0351 42.6224L33.0092 45.6366C32.9035 45.7423 32.7602 45.8007 32.6128 45.8007ZM28.5589 36.6756L32.7463 44.3145L34.9015 42.1676L29.9512 35.3994L28.5589 36.6756Z" fill="#1E417C"/>
<path d="M16.7177 32.0259C16.5139 32.0259 16.3178 31.9153 16.2184 31.7219C16.0758 31.4465 16.1843 31.1085 16.4597 30.966C16.4945 30.9479 16.5292 30.9284 16.5633 30.9069C16.5744 30.8999 16.5869 30.8929 16.5988 30.886C16.6287 30.8707 16.6586 30.8526 16.6871 30.8331C16.6934 30.8283 16.7003 30.8241 16.7073 30.8192C17.9674 30.0278 18.7199 28.6661 18.7199 27.1778C18.7199 24.8028 16.7886 22.8715 14.4143 22.8715C12.0393 22.8715 10.1073 24.8028 10.1073 27.1778C10.1073 28.6668 10.8605 30.0285 12.1214 30.8213C12.1631 30.8477 12.1965 30.8686 12.2299 30.886C12.5032 31.032 12.6068 31.3721 12.4608 31.6454C12.3147 31.9188 11.9747 32.0217 11.7013 31.8763C11.6387 31.8429 11.5762 31.8054 11.5156 31.7658C9.93417 30.7726 8.98486 29.0548 8.98486 27.1778C8.98486 24.1845 11.4204 21.749 14.4143 21.749C17.4076 21.749 19.8424 24.1845 19.8424 27.1778C19.8424 29.0507 18.8973 30.7643 17.3144 31.7637C17.2608 31.7998 17.2045 31.8339 17.1461 31.8666C17.0891 31.9014 17.0327 31.9334 16.975 31.9633C16.8923 32.0057 16.8039 32.0259 16.7177 32.0259Z" fill="#1E417C"/>
<path d="M14.1351 32.5961C14.1254 32.5961 14.1156 32.5954 14.1059 32.5954C13.9452 32.5871 13.7762 32.5697 13.5906 32.5418C13.0592 32.4598 12.5495 32.3026 12.0724 32.0738C11.7928 31.9403 11.6746 31.6051 11.8088 31.3255C11.943 31.0459 12.2782 30.9284 12.5571 31.0619C12.9347 31.2434 13.3388 31.3672 13.7582 31.4319C13.9063 31.4541 14.0391 31.4681 14.1636 31.4743C14.4731 31.4903 14.7109 31.7539 14.6956 32.0634C14.6797 32.3631 14.4321 32.5961 14.1351 32.5961Z" fill="#1E417C"/>
<path d="M14.4151 32.6042C14.3275 32.6042 14.2399 32.6021 14.1529 32.5966C13.8435 32.5764 13.6091 32.31 13.6286 32.0006C13.6487 31.6918 13.9144 31.456 14.2253 31.4769C14.3512 31.4852 14.4791 31.4852 14.6029 31.4769C14.9117 31.4581 15.1795 31.6904 15.1996 31.9999C15.2198 32.3086 14.9854 32.5764 14.6766 32.5966C14.5904 32.6021 14.5028 32.6042 14.4151 32.6042Z" fill="#1E417C"/>
<path d="M14.6945 32.5949C14.3976 32.5949 14.15 32.3619 14.134 32.0628C14.1187 31.7533 14.3565 31.4891 14.666 31.4731C14.7982 31.4668 14.9345 31.4529 15.0722 31.432C15.4867 31.3688 15.8914 31.2443 16.2712 31.0627C16.5507 30.9292 16.8859 31.0474 17.0195 31.327C17.1537 31.6066 17.0348 31.9418 16.7552 32.0753C16.276 32.3041 15.7662 32.4613 15.2405 32.542C15.0645 32.5677 14.8921 32.5851 14.7238 32.5942C14.714 32.5949 14.7043 32.5949 14.6945 32.5949Z" fill="#1E417C"/>
<path d="M17.006 37.8941C16.8628 37.8941 16.7223 37.8399 16.6152 37.7363L14.4871 35.6708L12.2004 37.7488C12.0363 37.8983 11.7991 37.9359 11.596 37.8469C11.393 37.7564 11.2622 37.5555 11.2622 37.3336V31.2956C11.2622 31.0898 11.3749 30.8985 11.5564 30.8004C11.7379 30.7024 11.9584 30.71 12.1308 30.8227C12.1691 30.8477 12.2087 30.8714 12.2484 30.8957C12.3576 30.9597 12.4577 31.0139 12.5585 31.0619C12.9376 31.2469 13.3389 31.3707 13.7554 31.4312C13.8931 31.4535 14.0288 31.4674 14.1644 31.4743C14.1713 31.4743 14.1783 31.475 14.1852 31.4757C14.1971 31.4757 14.213 31.4757 14.2249 31.4764C14.3507 31.4848 14.4787 31.4848 14.6025 31.4764C14.6136 31.4757 14.6241 31.475 14.6352 31.475C14.6477 31.4736 14.6595 31.473 14.6721 31.4723C14.8021 31.4674 14.9349 31.4535 15.0671 31.4326C15.4892 31.3707 15.8912 31.2469 16.2688 31.0633C16.3349 31.0327 16.3912 31.0028 16.4476 30.9715C16.4907 30.9479 16.5324 30.9242 16.5748 30.8992C16.6207 30.8721 16.6604 30.8484 16.6986 30.8234C16.8711 30.71 17.0916 30.701 17.2731 30.7991C17.4546 30.8971 17.5673 31.0863 17.5673 31.2921V37.3336C17.5673 37.5589 17.4323 37.7627 17.2244 37.8503C17.1542 37.8795 17.0797 37.8941 17.006 37.8941ZM12.3847 32.2129V36.0651L14.1219 34.4857C14.3417 34.2868 14.6776 34.2924 14.8904 34.4982L16.4448 36.0067V32.2129C16.0602 32.3694 15.654 32.4807 15.2375 32.5419C15.0775 32.5676 14.9092 32.5843 14.7444 32.5926C14.7103 32.5961 14.6804 32.5968 14.6574 32.5975C14.4975 32.6066 14.3327 32.6066 14.1699 32.5975C14.1463 32.5968 14.1226 32.5961 14.099 32.5947C13.9265 32.585 13.754 32.5669 13.5857 32.5405C13.1747 32.4807 12.7707 32.3708 12.3847 32.2129Z" fill="#1E417C"/>
<path d="M14.4148 30.0391C12.8361 30.0391 11.5522 28.7553 11.5522 27.1773C11.5522 25.5993 12.8361 24.3154 14.4148 24.3154C15.9928 24.3154 17.2773 25.5993 17.2773 27.1773C17.2773 28.7553 15.9928 30.0391 14.4148 30.0391ZM14.4148 25.4372C13.455 25.4372 12.6747 26.2182 12.6747 27.1773C12.6747 28.1363 13.455 28.9166 14.4148 28.9166C15.3738 28.9166 16.1541 28.1363 16.1541 27.1773C16.1541 26.2182 15.3738 25.4372 14.4148 25.4372Z" fill="#1E417C"/>
<path d="M34.2119 59.0824H11.7492C11.439 59.0824 11.188 58.8307 11.188 58.5212C11.188 58.211 11.439 57.96 11.7492 57.96H34.2119C34.5221 57.96 34.7732 58.211 34.7732 58.5212C34.7732 58.8307 34.5221 59.0824 34.2119 59.0824Z" fill="#1E417C"/>
<path d="M22.3569 61.7321H4.6296C4.31942 61.7321 4.06836 61.4811 4.06836 61.1709C4.06836 60.8614 4.31942 60.6104 4.6296 60.6104H22.3569C22.6671 60.6104 22.9181 60.8614 22.9181 61.1709C22.9181 61.4811 22.6671 61.7321 22.3569 61.7321Z" fill="#1E417C"/>
<mask id="mask5_58624_13730" style="mask-type:luminance" maskUnits="userSpaceOnUse" x="0" y="60" width="4" height="2">
<path d="M0 60.4688H3.4787V61.8931H0V60.4688Z" fill="white"/>
</mask>
<g mask="url(#mask5_58624_13730)">
<path d="M2.81429 61.7321H0.597858C0.287683 61.7321 0.0366211 61.4811 0.0366211 61.1709C0.0366211 60.8614 0.287683 60.6104 0.597858 60.6104H2.81429C3.12377 60.6104 3.37553 60.8614 3.37553 61.1709C3.37553 61.4811 3.12377 61.7321 2.81429 61.7321Z" fill="#1E417C"/>
</g>
<path d="M38.3765 61.6596H29.9719C29.6624 61.6596 29.4106 61.4078 29.4106 61.0983C29.4106 60.7882 29.6624 60.5371 29.9719 60.5371H38.3765C38.6867 60.5371 38.9378 60.7882 38.9378 61.0983C38.9378 61.4078 38.6867 61.6596 38.3765 61.6596Z" fill="#1E417C"/>
</svg>
