<svg width="70" height="70" viewBox="0 0 70 70" fill="none" xmlns="http://www.w3.org/2000/svg">
<path d="M55.7105 54.0388H14.1765C13.8994 54.0388 13.6655 53.8202 13.6655 53.5292V49.5041C13.6655 49.227 13.8841 48.9932 14.1765 48.9932H55.7105C55.9876 48.9932 56.2202 49.2118 56.2202 49.5041V53.5292C56.2062 53.8062 55.9876 54.0388 55.7105 54.0388ZM14.6861 53.0183H55.2136V49.9998H14.6861V53.0183Z" fill="#1E417C"/>
<path d="M55.7105 35.9998H14.1765C13.8994 35.9998 13.6655 35.7812 13.6655 35.4888V31.4638C13.6655 31.1867 13.8841 30.9541 14.1765 30.9541H55.7105C55.9876 30.9541 56.2202 31.1727 56.2202 31.4638V35.4888C56.2062 35.7659 55.9876 35.9998 55.7105 35.9998ZM14.6861 34.9779H55.2136V31.9594H14.6861V34.9779Z" fill="#1E417C"/>
<path d="M52.5456 50.0151H17.341C17.0639 50.0151 16.8301 49.7952 16.8301 49.5042V35.4894C16.8301 35.2124 17.0487 34.9785 17.341 34.9785H52.5596C52.8367 34.9785 53.0705 35.1984 53.0705 35.4894V49.5042C53.0553 49.7812 52.8367 50.0151 52.5456 50.0151ZM17.8367 48.9933H52.0487V35.9851H17.8367V48.9933Z" fill="#1E417C"/>
<path d="M52.5445 31.9748H33.0453C32.7682 31.9748 32.5356 31.7562 32.5356 31.4638V26.1703C32.5356 24.5079 33.5855 23.0057 35.131 22.4223L40.075 20.5413C40.3381 20.4396 40.6292 20.5706 40.7309 20.8324C40.8338 21.0955 40.7016 21.3865 40.4398 21.4894L35.4818 23.3704C34.315 23.8077 33.527 24.9312 33.527 26.1703V30.9682H52.0196V26.1703C52.0196 24.9312 51.2316 23.8077 50.0789 23.3704L45.1208 21.4894C44.859 21.3865 44.7268 21.0955 44.8297 20.8324C44.9314 20.5706 45.2225 20.4396 45.4856 20.5413L50.4436 22.4223C51.9904 23.0057 53.0402 24.5079 53.0402 26.1703V31.4638C53.0542 31.7409 52.8356 31.9748 52.5445 31.9748Z" fill="#1E417C"/>
<path d="M44.4201 25.1938C44.3044 25.1938 44.1723 25.1506 44.0846 25.0629L39.9437 21.3873C39.7391 21.198 39.7099 20.8777 39.8993 20.6731C40.0899 20.4697 40.4102 20.4405 40.6148 20.6298L44.3769 23.9686L46.5935 21.3149C46.7689 21.0963 47.0891 21.067 47.3077 21.2564C47.5264 21.4318 47.5556 21.7521 47.3662 21.9707L44.8141 25.0337C44.7264 25.1354 44.5955 25.2091 44.4646 25.2091C44.4354 25.1938 44.4201 25.1938 44.4201 25.1938Z" fill="#1E417C"/>
<path d="M41.1839 25.1933C41.1699 25.1933 41.1546 25.1933 41.1407 25.1933C41.0085 25.1793 40.8776 25.1209 40.7899 25.0192L38.2378 21.9562C38.0636 21.7376 38.0929 21.4313 38.2962 21.2419C38.5148 21.0666 38.8211 21.0958 39.0105 21.3004L41.2284 23.9542L44.9752 20.6141C45.1798 20.4247 45.5014 20.454 45.6907 20.6586C45.8801 20.8619 45.8509 21.1835 45.6463 21.3729L41.5054 25.0624C41.4177 25.1501 41.3008 25.1933 41.1839 25.1933Z" fill="#1E417C"/>
<path d="M41.6946 31.975C41.6794 31.975 41.6502 31.975 41.6362 31.975C41.3591 31.9458 41.1545 31.698 41.199 31.4209L41.884 25.5873L41.3146 24.4358C41.1837 24.1867 41.2854 23.8816 41.5485 23.7647C41.7963 23.6478 42.1026 23.7355 42.2196 23.9973L42.8614 25.281C42.9046 25.3687 42.9199 25.4703 42.9046 25.558L42.2043 31.5378C42.1611 31.7857 41.9425 31.975 41.6946 31.975Z" fill="#1E417C"/>
<path d="M43.9122 31.9749C43.6644 31.9749 43.4457 31.7855 43.4165 31.5224L42.7162 25.5439C42.701 25.441 42.7162 25.3533 42.7594 25.2668L43.4013 23.9832C43.5182 23.7353 43.8245 23.6324 44.0723 23.7493C44.3202 23.8815 44.4219 24.1725 44.3062 24.4204L43.7368 25.5731L44.4219 31.4055C44.4511 31.6826 44.2617 31.9304 43.9846 31.9596C43.9414 31.9596 43.9262 31.9749 43.9122 31.9749Z" fill="#1E417C"/>
<path d="M36.1815 31.9595C35.9045 31.9595 35.6719 31.7409 35.6719 31.4499V27.1769C35.6719 26.8999 35.8905 26.666 36.1815 26.666C36.4739 26.666 36.6925 26.8846 36.6925 27.1769V31.4499C36.6925 31.7409 36.4739 31.9595 36.1815 31.9595Z" fill="#1E417C"/>
<path d="M43.2117 25.9815H42.3944C42.1174 25.9815 41.8848 25.7629 41.8848 25.4706C41.8848 25.1795 42.1034 24.9609 42.3944 24.9609H43.2117C43.4887 24.9609 43.7226 25.1795 43.7226 25.4706C43.7226 25.7629 43.4887 25.9815 43.2117 25.9815Z" fill="#1E417C"/>
<path d="M49.4099 31.9595C49.1328 31.9595 48.8989 31.7409 48.8989 31.4499V27.1769C48.8989 26.8999 49.1175 26.666 49.4099 26.666C49.7009 26.666 49.9195 26.8846 49.9195 27.1769V31.4499C49.9055 31.7409 49.6869 31.9595 49.4099 31.9595Z" fill="#1E417C"/>
<path d="M46.1998 16.5299C46.0688 16.5299 45.9519 16.4867 45.8502 16.385C45.6456 16.1956 45.6456 15.8741 45.835 15.6695C46.1858 15.306 46.6954 13.9931 46.4768 12.7387C46.3167 11.835 45.8058 11.1779 44.9606 10.77C44.0416 10.3328 43.035 10.1866 42.0437 10.3467H42.0297C40.6876 10.5806 39.5208 10.77 39.2298 13.031C39.2145 13.1034 39.2005 13.1619 39.156 13.2204C39.1128 13.322 38.6896 14.4595 39.9148 15.6555C40.1182 15.8449 40.1182 16.1664 39.9288 16.3698C39.7394 16.5744 39.4191 16.5744 39.2145 16.385C37.683 14.926 37.9893 13.3665 38.2231 12.8264C38.6311 9.89555 40.4982 9.574 41.8543 9.3554H41.8683C43.0795 9.15077 44.3047 9.32617 45.3978 9.86632C46.5353 10.4205 47.2496 11.3533 47.4695 12.5633C47.7465 14.1392 47.1187 15.7864 46.5645 16.3698C46.4628 16.4727 46.3319 16.5299 46.1998 16.5299ZM39.156 13.2343C39.156 13.2496 39.1421 13.2636 39.1268 13.2636C39.1421 13.2636 39.1421 13.2496 39.156 13.2343Z" fill="#1E417C"/>
<path d="M42.8907 20.8764C40.7897 20.8764 39.0688 19.1695 39.0688 17.0559V16.0341C39.0688 15.9324 39.0981 15.8155 39.1718 15.7278C39.3319 15.5092 39.6522 14.8381 39.7399 14.5903C39.7844 14.4594 39.8136 14.3132 39.8416 14.1531V14.1391C39.9153 13.7743 40.1187 13.4528 40.425 13.2494C40.7313 13.0448 41.1113 12.9724 41.4761 13.0601C41.6654 13.1033 41.8103 13.1325 41.9273 13.1757C42.2196 13.2494 42.3505 13.2926 42.8754 13.2926C43.4003 13.2926 43.5312 13.2634 43.8236 13.1757C43.9405 13.1465 44.0854 13.1033 44.276 13.074C44.6408 12.9863 45.0195 13.0601 45.3258 13.2634C45.6321 13.468 45.8507 13.7883 45.9092 14.1531V14.1683C45.9384 14.3285 45.9677 14.4746 46.0109 14.5903C46.0986 14.8381 46.4189 15.5092 46.5803 15.7278C46.6388 15.8155 46.682 15.9184 46.682 16.0341V17.0559C46.7112 19.1555 44.9903 20.8764 42.8907 20.8764ZM40.0755 16.1802V17.0559C40.0755 18.6014 41.3299 19.8698 42.8907 19.8698C44.4362 19.8698 45.7046 18.6154 45.7046 17.0559V16.1802C45.472 15.8015 45.1797 15.1736 45.092 14.9258C45.0195 14.7225 44.9903 14.5318 44.9458 14.3577V14.3424C44.9318 14.2408 44.8734 14.1683 44.7857 14.1099C44.698 14.0514 44.6116 14.0361 44.5086 14.0514C44.3345 14.0946 44.2176 14.1238 44.1006 14.1531C43.7359 14.2408 43.5172 14.2992 42.8907 14.2992C42.278 14.2992 42.0594 14.2547 41.6947 14.1531C41.5777 14.1238 41.4468 14.0946 41.2854 14.0514C41.1837 14.0361 41.0821 14.0514 41.0083 14.1099C40.9219 14.1683 40.8774 14.2408 40.8482 14.3424V14.3577C40.819 14.5471 40.7758 14.7364 40.702 14.9411C40.6156 15.1736 40.3233 15.8015 40.0755 16.1802Z" fill="#1E417C"/>
<path d="M40.265 21.5179C39.988 21.5179 39.7554 21.2993 39.7554 21.007V19.0676C39.7554 18.7905 39.974 18.5566 40.265 18.5566C40.5574 18.5566 40.776 18.7752 40.776 19.0676V21.007C40.776 21.2993 40.5574 21.5179 40.265 21.5179Z" fill="#1E417C"/>
<path d="M45.3259 21.5191C45.0488 21.5191 44.8149 21.3005 44.8149 21.0082V19.2873C44.8149 19.0102 45.0335 18.7764 45.3259 18.7764C45.6029 18.7764 45.8355 18.9962 45.8355 19.2873V21.0082C45.8216 21.3005 45.6029 21.5191 45.3259 21.5191Z" fill="#1E417C"/>
<path d="M26.775 27.2203C26.761 27.2203 26.761 27.2203 26.775 27.2203L17.1651 27.1911C15.7506 27.1911 14.5838 26.0244 14.5978 24.6098L14.613 18.8346C14.613 18.1496 14.8901 17.4937 15.3718 17.0121C15.8522 16.5304 16.5093 16.2686 17.1944 16.2686C17.1944 16.2686 17.1944 16.2686 17.2084 16.2686L26.8194 16.2978C27.5045 16.2978 28.1616 16.5749 28.642 17.0565C29.1237 17.537 29.4008 18.194 29.3855 18.8791L29.3715 24.6543C29.3715 25.3393 29.0945 25.9951 28.6128 26.4768C28.1031 26.9585 27.4613 27.2203 26.775 27.2203ZM26.761 26.1705C27.169 26.1705 27.549 26.0104 27.84 25.7333C28.1323 25.441 28.2925 25.0622 28.2925 24.6543L28.3065 18.8791C28.3065 18.4711 28.1463 18.0911 27.8693 17.8C27.5782 17.5077 27.1982 17.3476 26.7902 17.3476L17.1791 17.3184C16.7711 17.3184 16.3924 17.4785 16.1001 17.7556C15.809 18.0479 15.6489 18.4266 15.6489 18.8346L15.6336 24.6098C15.6336 25.4562 16.3187 26.1413 17.1499 26.1413L26.761 26.1705Z" fill="#1E417C"/>
<path d="M20.2717 30.4003C20.2132 30.4003 20.1408 30.3851 20.0823 30.3711C19.8053 30.2681 19.6731 29.9619 19.776 29.6848C20.1408 28.7227 20.2272 27.7453 20.0239 26.7832C19.9654 26.5061 20.1408 26.2138 20.4319 26.1554C20.7089 26.0982 21.0012 26.2723 21.0597 26.5646C21.3075 27.7313 21.2046 28.8981 20.7534 30.0648C20.6797 30.2681 20.4903 30.4003 20.2717 30.4003Z" fill="#1E417C"/>
<path d="M23.6247 30.4145C23.4061 30.4145 23.2167 30.2836 23.129 30.0789C22.6918 28.9122 22.6041 27.7455 22.8519 26.5788C22.9104 26.3017 23.1875 26.1123 23.4785 26.1708C23.7556 26.2292 23.945 26.5063 23.8878 26.7974C23.6831 27.7607 23.7556 28.7368 24.1204 29.7002C24.222 29.9773 24.0911 30.2683 23.8141 30.3713C23.7416 30.4005 23.6831 30.4145 23.6247 30.4145Z" fill="#1E417C"/>
<path d="M25.8711 31.9887C25.6092 31.9887 25.3754 31.7853 25.3462 31.5223C25.2737 30.8957 24.7488 30.414 24.1209 30.414L19.7602 30.4C19.1184 30.4 18.5935 30.8804 18.521 31.5083C18.4918 31.7993 18.2287 32.004 17.9516 31.9747C17.6606 31.9455 17.456 31.6824 17.4852 31.4053C17.6021 30.2246 18.5795 29.335 19.7602 29.335L24.1209 29.3489C25.2877 29.3489 26.2651 30.2386 26.396 31.3914C26.4252 31.6824 26.2206 31.9302 25.9295 31.9747C25.9143 31.9887 25.8863 31.9887 25.8711 31.9887Z" fill="#1E417C"/>
<path d="M41.9714 46.6162H27.9119C25.6368 46.6162 23.8003 44.7644 23.8003 42.5034C23.8003 40.2284 25.6521 38.3906 27.9119 38.3906H41.9714C44.2464 38.3906 46.083 40.2437 46.083 42.5034C46.083 44.7644 44.2464 46.6162 41.9714 46.6162ZM27.9119 39.4264C26.2202 39.4264 24.8501 40.7978 24.8501 42.4894C24.8501 44.1811 26.2202 45.5511 27.9119 45.5511H41.9714C43.663 45.5511 45.0331 44.1811 45.0331 42.4894C45.0331 40.7978 43.663 39.4264 41.9714 39.4264H27.9119Z" fill="#1E417C"/>
<mask id="mask0_58624_19387" style="mask-type:luminance" maskUnits="userSpaceOnUse" x="0" y="0" width="70" height="70">
<path d="M0 0H70V70H0V0Z" fill="white"/>
</mask>
<g mask="url(#mask0_58624_19387)">
<path d="M67.2445 21.3786C65.4792 17.2086 62.9563 13.4746 59.7483 10.2515C56.5404 7.04359 52.7923 4.52076 48.621 2.75669C44.3048 0.918896 39.7255 0 35 0C30.2745 0 25.6952 0.918896 21.379 2.75669C17.2077 4.52076 13.4748 7.04359 10.2517 10.2515C7.04372 13.4606 4.52084 17.2086 2.75547 21.3786C0.918912 25.696 0 30.2753 0 34.9994C0 39.7248 0.918912 44.304 2.75547 48.6201C4.52084 52.7914 7.04372 56.5241 10.2517 59.7473C13.4596 62.9564 17.2077 65.4792 21.379 67.2433C25.6952 69.0659 30.2745 70 35 70C39.7255 70 44.3048 69.0811 48.621 67.2433C52.7923 65.4792 56.5252 62.9564 59.7483 59.7473C62.9563 56.5394 65.4792 52.7914 67.2445 48.6201C69.0671 44.304 70 39.7248 70 34.9994C70 30.2753 69.0824 25.696 67.2445 21.3786ZM68.8917 34.9994C68.8917 53.695 53.682 68.8917 35 68.8917C16.304 68.8917 1.10829 53.695 1.10829 34.9994C1.10829 16.3037 16.304 1.10827 35 1.10827C53.696 1.10827 68.8917 16.3037 68.8917 34.9994Z" fill="#1E417C"/>
</g>
</svg>
