<svg width="70" height="70" viewBox="0 0 70 70" fill="none" xmlns="http://www.w3.org/2000/svg">
<mask id="mask0_58624_22363" style="mask-type:luminance" maskUnits="userSpaceOnUse" x="0" y="0" width="70" height="70">
<path d="M0.43335 35.9573C0.427273 35.958 0.421196 35.958 0.415118 35.958C0.228747 35.958 0.0734375 35.8121 0.063984 35.6244C0.0335974 35.0376 0.0180664 34.4407 0.0180664 33.8505C0.0180664 33.1455 0.0403499 32.4331 0.0835665 31.7322C0.0957212 31.5384 0.261835 31.3905 0.456309 31.4027C0.650108 31.4148 0.797315 31.5816 0.78516 31.7754C0.742619 32.4615 0.721686 33.1604 0.721686 33.8505C0.721686 34.4285 0.736541 35.0133 0.766253 35.5879C0.776382 35.7817 0.62715 35.9472 0.43335 35.9573ZM1.88718 23.8445C1.70081 23.7885 1.50499 23.8938 1.44894 24.0795C1.07687 25.3179 0.77233 26.5921 0.545443 27.8663C0.51168 28.0574 0.638629 28.2404 0.829727 28.2742C0.85066 28.2782 0.871593 28.2796 0.891851 28.2796C1.05932 28.2796 1.2072 28.1601 1.23758 27.9899C1.45974 26.742 1.75753 25.4948 2.12217 24.2821C2.17822 24.0964 2.07288 23.9005 1.88718 23.8445ZM1.18019 39.3775C1.14777 39.1857 0.966129 39.0567 0.775031 39.0891C0.583258 39.1209 0.454283 39.3025 0.486696 39.4936C0.700753 40.7705 0.991789 42.0474 1.35103 43.2892C1.39559 43.4432 1.53605 43.5431 1.68866 43.5431C1.72107 43.5431 1.75416 43.5384 1.78657 43.529C1.97294 43.4749 2.08031 43.2805 2.02629 43.0941C1.67448 41.8779 1.38952 40.6274 1.18019 39.3775ZM32.7695 66.9915C31.5 66.9503 30.2224 66.8348 28.9732 66.6498C28.7814 66.6215 28.6024 66.7538 28.5741 66.9463C28.5457 67.138 28.6781 67.317 28.8698 67.3453C30.1461 67.5344 31.45 67.6519 32.7465 67.6944C32.7505 67.6944 32.7546 67.6951 32.758 67.6951C32.947 67.6951 33.103 67.5445 33.1091 67.3548C33.1159 67.161 32.9639 66.9982 32.7695 66.9915ZM40.3546 66.377C39.1149 66.6228 37.8454 66.799 36.5806 66.901C36.3868 66.9165 36.243 67.086 36.2585 67.2798C36.2734 67.4635 36.4273 67.6033 36.6083 67.6033C36.6178 67.6033 36.6272 67.6026 36.6373 67.6019C37.9284 67.4979 39.2249 67.3176 40.491 67.0671C40.6815 67.0293 40.805 66.8443 40.7672 66.6539C40.7301 66.4634 40.5451 66.3392 40.3546 66.377ZM47.5968 64.046C46.4434 64.5707 45.2482 65.0339 44.0429 65.4215C43.8579 65.4809 43.7566 65.6795 43.816 65.8638C43.864 66.013 44.0024 66.1083 44.1503 66.1083C44.1861 66.1083 44.2225 66.1022 44.2583 66.0907C45.4893 65.695 46.7102 65.2223 47.8878 64.6862C48.0647 64.6051 48.1424 64.3971 48.062 64.2202C47.9817 64.0433 47.773 63.9657 47.5968 64.046ZM54.1137 60.1174C53.1103 60.8919 52.0521 61.6158 50.9683 62.2694C50.8022 62.3693 50.7482 62.5854 50.8488 62.7522C50.915 62.8616 51.0311 62.9217 51.15 62.9217C51.2121 62.9217 51.2742 62.9055 51.331 62.8717C52.4377 62.2046 53.5188 61.4652 54.5432 60.6738C54.6971 60.5549 54.7255 60.3341 54.6073 60.1808C54.4885 60.0269 54.2677 59.9985 54.1137 60.1174ZM51.0575 5.48557C52.1392 6.14259 53.1954 6.86985 54.1961 7.64775C54.2609 7.69771 54.3365 7.72135 54.4115 7.72135C54.5168 7.72135 54.6201 7.67476 54.6897 7.58562C54.8085 7.43234 54.7809 7.21153 54.6276 7.09201C53.6052 6.2979 52.5268 5.55512 51.4221 4.88459C51.256 4.78397 51.0399 4.83664 50.9393 5.00276C50.8387 5.1682 50.8914 5.38495 51.0575 5.48557ZM36.6792 0.808052C37.944 0.914067 39.2141 1.09436 40.4532 1.34353C40.4769 1.34826 40.5005 1.35096 40.5234 1.35096C40.6875 1.35096 40.8341 1.23549 40.8672 1.06803C40.9056 0.878279 40.7827 0.692583 40.5923 0.654093C39.3262 0.39952 38.029 0.215175 36.7379 0.107133C36.5442 0.0922778 36.374 0.234757 36.3578 0.428557C36.3416 0.62168 36.4854 0.791846 36.6792 0.808052ZM29.0191 1.04034C29.0359 1.04034 29.0535 1.03967 29.0704 1.03696C30.3203 0.85532 31.5979 0.743902 32.8674 0.706088C33.0618 0.700686 33.2145 0.538624 33.2084 0.344149C33.2023 0.15035 33.0409 -0.00360905 32.8464 0.00314362C31.5506 0.0423085 30.246 0.155752 28.9691 0.340773C28.7773 0.369134 28.6443 0.547402 28.672 0.739175C28.6976 0.914743 28.8476 1.04034 29.0191 1.04034ZM44.1408 2.31118C45.3441 2.70283 46.5387 3.16943 47.6906 3.69816C47.7379 3.71977 47.7879 3.7299 47.8372 3.7299C47.9702 3.7299 48.0978 3.65427 48.1566 3.52529C48.2376 3.34905 48.1606 3.14039 47.9837 3.05936C46.8074 2.51916 45.5872 2.04242 44.3582 1.642C44.1732 1.58257 43.9754 1.68319 43.9153 1.86821C43.8552 2.05255 43.9558 2.25108 44.1408 2.31118ZM49.4895 44.1941C49.6833 44.1941 49.8407 44.0368 49.8407 43.843V42.2973C49.8407 42.1035 49.6833 41.9462 49.4895 41.9462C49.2951 41.9462 49.1377 42.1035 49.1377 42.2973V43.843C49.1377 44.0368 49.2951 44.1941 49.4895 44.1941ZM69.2915 38.7967C69.6723 39.7725 69.883 40.8333 69.883 41.9428C69.883 46.2023 66.8005 49.7535 62.7496 50.4868V54.951C62.7496 55.1076 62.6463 55.2454 62.4957 55.2886L48.1849 59.4198C48.0884 59.4482 47.9905 59.4617 47.8939 59.4617C47.6711 59.4617 47.4543 59.3901 47.27 59.2517C47.0066 59.0532 46.8547 58.7493 46.8547 58.4191V55.3028H43.3447C43.1502 55.3028 42.9935 55.1448 42.9935 54.951V23.1672C42.9935 22.9734 43.1509 22.8154 43.3447 22.8154H62.3978C62.4261 22.8154 62.4545 22.8195 62.4822 22.8262C62.4903 22.8282 62.4977 22.8323 62.5058 22.8343C62.524 22.8404 62.5423 22.8471 62.5598 22.8559C62.5693 22.8613 62.5774 22.8674 62.5868 22.8728C62.597 22.8796 62.6078 22.885 62.6172 22.8924C62.6213 22.8958 62.6247 22.8998 62.6287 22.9039C62.6368 22.9106 62.6442 22.9187 62.6523 22.9268C62.6638 22.9396 62.6753 22.9532 62.6854 22.9673C62.6881 22.9714 62.6929 22.9748 62.6956 22.9795C62.6989 22.9849 62.6996 22.9903 62.7023 22.995C62.7111 23.0106 62.7185 23.0261 62.7246 23.0423C62.7286 23.0524 62.7327 23.0625 62.7354 23.0734C62.7401 23.0896 62.7428 23.1064 62.7449 23.1233C62.7462 23.1341 62.7482 23.1449 62.7482 23.1564C62.7482 23.1598 62.7496 23.1632 62.7496 23.1672V33.3981C64.3 33.679 65.7079 34.3718 66.8558 35.3604C67.6459 35.0065 68.6068 35.151 69.2543 35.7986C69.2543 35.7986 69.2543 35.7986 69.2543 35.7993C70.0782 36.6238 70.0896 37.956 69.2915 38.7967ZM62.0466 50.5868C61.7678 50.6138 61.4848 50.6286 61.1985 50.6286C56.4103 50.6286 52.514 46.7317 52.514 41.9428C52.514 37.1532 56.4103 33.2562 61.1985 33.2562C61.4848 33.2562 61.7678 33.2711 62.0466 33.2988V23.6082L47.821 26.8534C47.6663 26.8886 47.5576 27.0243 47.5576 27.1836V58.4191C47.5576 58.5265 47.6069 58.625 47.6927 58.6899C47.7784 58.754 47.8871 58.7743 47.9905 58.7446L62.0466 54.6863V50.5868ZM43.6965 54.5991H46.8547V27.1836C46.8547 26.6941 47.1876 26.2768 47.6643 26.1674L59.2761 23.519H43.6965V54.5991ZM69.1801 41.9428C69.1801 41.0339 69.0254 40.1614 68.7445 39.3471L62.5328 45.5595C62.1324 45.9599 61.5895 46.1807 61.0202 46.1807C60.9676 46.1807 60.9149 46.1793 60.8616 46.1753C60.2349 46.2199 59.6272 45.997 59.1903 45.5595L55.9909 42.3601C55.5851 41.9536 55.3616 41.414 55.3616 40.8408C55.3616 40.2668 55.5851 39.7273 55.9909 39.3214C56.8282 38.4841 58.1916 38.4841 59.0289 39.3214L60.8616 41.1541L66.2164 35.7986C66.2272 35.7878 66.2393 35.7783 66.2508 35.7675C64.8739 34.6385 63.1142 33.9599 61.1985 33.9599C56.7979 33.9599 53.217 37.5408 53.217 41.9428C53.217 46.3441 56.7979 49.9257 61.1985 49.9257C65.5998 49.9257 69.1801 46.3441 69.1801 41.9428ZM66.7133 36.2963L61.1101 41.9002C60.973 42.0373 60.7501 42.0373 60.6131 41.9002L58.5319 39.8191C57.9681 39.2552 57.0518 39.2552 56.4879 39.8191C56.2151 40.0919 56.0645 40.4545 56.0645 40.8408C56.0645 41.2263 56.2151 41.5896 56.4879 41.8624L59.6873 45.0625C59.9844 45.3596 60.4017 45.5095 60.8318 45.4724C60.8413 45.4717 60.8514 45.471 60.8616 45.471C60.8717 45.471 60.8818 45.4717 60.8913 45.4724C61.3214 45.5095 61.7387 45.3596 62.0358 45.0625L68.7574 38.3403C69.3205 37.7771 69.3205 36.8594 68.7574 36.2963C68.1935 35.7324 67.2765 35.7324 66.7133 36.2963ZM42.5904 12.1254L44.2212 11.5231L52.6565 8.40876C52.7355 8.37973 52.8219 8.37973 52.9003 8.40876L62.9636 12.1247C62.9866 12.1342 63.0082 12.1463 63.0285 12.1598C63.1304 12.2233 63.1966 12.332 63.1966 12.4556C63.1966 12.4907 63.1905 12.5245 63.1811 12.5569V18.3317C63.1811 18.5262 63.0231 18.6835 62.8293 18.6835C62.6348 18.6835 62.4775 18.5262 62.4775 18.3317V12.9654L59.6637 14.0046V19.4891C59.6637 20.4527 56.8654 20.7775 54.7856 20.8855C53.8875 20.9321 53.1231 20.9389 52.776 20.9389C51.626 20.9389 45.8884 20.8686 45.8884 19.4891V14.0033L42.5904 12.7851C42.4527 12.7345 42.3608 12.6028 42.3608 12.4556C42.3608 12.3084 42.4527 12.1767 42.5904 12.1254ZM46.5913 19.4378C46.8837 19.72 48.9696 20.2359 52.776 20.2359C56.5824 20.2359 58.6683 19.72 58.9607 19.4378V14.2646L52.9003 16.5024C52.8611 16.5173 52.8199 16.5247 52.778 16.5247C52.7369 16.5247 52.6957 16.5173 52.6565 16.5024L46.5913 14.2626V19.4378ZM61.8299 12.4556L52.7787 9.11306L43.7276 12.4556L52.7787 15.7981L61.8299 12.4556ZM10.9269 42.4148L10.9282 42.7322L10.9336 44.1651C10.9343 44.3588 10.7776 44.5169 10.5838 44.5175C10.5832 44.5175 10.5825 44.5175 10.5825 44.5175C10.3887 44.5175 10.2314 44.3609 10.2307 44.1678L10.2239 42.3648C9.27248 42.1386 8.56144 41.2837 8.56144 40.2634C8.56144 39.4457 9.01791 38.7326 9.68979 38.3653C9.99704 38.1978 10.3488 38.1019 10.7223 38.1019C11.9141 38.1019 12.8838 39.0716 12.8838 40.2634C12.8838 41.3864 12.0235 42.3115 10.9269 42.4148ZM10.7223 41.722C11.5265 41.722 12.1808 41.0676 12.1808 40.2634C12.1808 39.4599 11.5265 38.8055 10.7223 38.8055C9.91871 38.8055 9.26438 39.4599 9.26438 40.2634C9.26438 41.0676 9.91871 41.722 10.7223 41.722ZM20.9524 35.6987C20.9524 36.8149 20.1016 37.7359 19.0151 37.8487V43.843C19.0151 44.0368 18.8578 44.1941 18.6633 44.1941C18.4688 44.1941 18.3115 44.0368 18.3115 43.843V37.8048C17.3499 37.586 16.6294 36.7257 16.6294 35.6987C16.6294 34.5068 17.5991 33.5372 18.7909 33.5372C19.9828 33.5372 20.9524 34.5068 20.9524 35.6987ZM20.2495 35.6987C20.2495 34.8944 19.5952 34.2401 18.7909 34.2401C17.9867 34.2401 17.3324 34.8944 17.3324 35.6987C17.3324 36.5029 17.9867 37.1572 18.7909 37.1572C19.5952 37.1572 20.2495 36.5029 20.2495 35.6987ZM28.4951 38.0992C28.4951 39.1411 27.755 40.0129 26.7725 40.2161V44.1664C26.7725 44.3602 26.6151 44.5175 26.4214 44.5175C26.2269 44.5175 26.0695 44.3602 26.0695 44.1664V40.2431C25.0026 40.1115 24.1727 39.2012 24.1727 38.0992C24.1727 36.9074 25.1424 35.9377 26.3342 35.9377C27.5261 35.9377 28.4951 36.9074 28.4951 38.0992ZM27.7921 38.0992C27.7921 37.295 27.1385 36.6406 26.3342 36.6406C25.53 36.6406 24.8757 37.295 24.8757 38.0992C24.8757 38.9034 25.53 39.5578 26.3342 39.5578C27.1385 39.5578 27.7921 38.9034 27.7921 38.0992ZM36.4017 40.9333C36.4017 42.0272 35.5839 42.932 34.5285 43.0732L34.5245 44.0719C34.5238 44.2657 34.3671 44.4223 34.1733 44.4223C34.1726 44.4223 34.1726 44.4223 34.172 44.4223C33.9782 44.4216 33.8208 44.2636 33.8215 44.0692L33.8249 43.0536C32.8316 42.8598 32.0787 41.9833 32.0787 40.9333C32.0787 39.7414 33.0483 38.7718 34.2402 38.7718C35.432 38.7718 36.4017 39.7414 36.4017 40.9333ZM35.6987 40.9333C35.6987 40.129 35.0444 39.4747 34.2402 39.4747C33.4359 39.4747 32.7823 40.129 32.7823 40.9333C32.7823 41.7375 33.4359 42.3918 34.2402 42.3918C35.0444 42.3918 35.6987 41.7375 35.6987 40.9333ZM38.154 51.3532L30.6012 58.2374L27.3802 61.1728L23.8621 68.9869C23.7696 69.1922 23.5637 69.3245 23.3381 69.3245H20.3089C20.0726 69.3245 19.8632 69.1834 19.7761 68.9646L16.6551 61.1687L5.74899 51.3545C5.67538 51.2877 5.63284 51.1925 5.63284 51.0932V46.0774C5.63284 45.8829 5.79018 45.7256 5.98398 45.7256H37.917C38.1114 45.7256 38.2688 45.8829 38.2688 46.0774V51.0932C38.2688 51.1918 38.2269 51.2863 38.154 51.3532ZM37.5658 46.4285H6.33578V50.9365L17.1858 60.7008C17.2068 60.719 17.2183 60.7433 17.2338 60.7649H26.8069C26.8218 60.7433 26.8333 60.7204 26.8528 60.7021L37.5658 50.9379V46.4285ZM23.2557 68.6216L26.476 61.4679H17.5322L20.3953 68.6216H23.2557ZM17.3074 51.9022H19.2035V50.8332C19.2035 50.6394 19.3608 50.4814 19.5553 50.4814H20.6243V48.6967C20.6243 48.5029 20.7816 48.3456 20.9754 48.3456C21.1699 48.3456 21.3272 48.5029 21.3272 48.6967V50.4814H23.0781V48.6967C23.0781 48.5029 23.2355 48.3456 23.4293 48.3456C23.6238 48.3456 23.7811 48.5029 23.7811 48.6967V50.4814H24.85C25.0445 50.4814 25.2018 50.6394 25.2018 50.8332V51.9022H26.9859C27.1803 51.9022 27.3377 52.0602 27.3377 52.254C27.3377 52.4484 27.1803 52.6058 26.9859 52.6058H25.2018V54.3567H26.9859C27.1803 54.3567 27.3377 54.5141 27.3377 54.7085C27.3377 54.9023 27.1803 55.0597 26.9859 55.0597H25.2018V56.1293C25.2018 56.3231 25.0445 56.4804 24.85 56.4804H23.6697V58.2651C23.6697 58.4596 23.5117 58.6169 23.3179 58.6169C23.1234 58.6169 22.9661 58.4596 22.9661 58.2651V56.4804H21.2158V58.2651C21.2158 58.4596 21.0584 58.6169 20.864 58.6169C20.6702 58.6169 20.5128 58.4596 20.5128 58.2651V56.4804H19.5553C19.3608 56.4804 19.2035 56.3231 19.2035 56.1293V55.0597H17.3074C17.1136 55.0597 16.9556 54.9023 16.9556 54.7085C16.9556 54.5141 17.1136 54.3567 17.3074 54.3567H19.2035V52.6058H17.3074C17.1136 52.6058 16.9556 52.4484 16.9556 52.254C16.9556 52.0602 17.1136 51.9022 17.3074 51.9022ZM19.9065 51.185V55.7775H24.4989V51.185H19.9065ZM17.6605 28.0027H7.29938C5.76789 28.0027 4.52204 26.7569 4.52204 25.2261V6.24186C4.52204 6.14327 4.52744 6.04671 4.53757 5.95082V5.29852C4.53757 4.28766 5.36476 3.46452 6.38103 3.46452H35.5157C36.532 3.46452 37.3585 4.28766 37.3585 5.29852V5.70975C37.3923 5.88194 37.4105 6.05954 37.4105 6.24186V25.2261C37.4105 26.7569 36.1647 28.0027 34.6338 28.0027H23.775L24.0674 31.1933H26.3869C26.5814 31.1933 26.7387 31.3507 26.7387 31.5451C26.7387 31.7389 26.5814 31.897 26.3869 31.897H15.048C14.8542 31.897 14.6968 31.7389 14.6968 31.5451C14.6968 31.3507 14.8542 31.1933 15.048 31.1933H17.3675L17.6605 28.0027ZM5.24052 5.29852V24.0896H36.6556V5.29852C36.6556 4.67526 36.1437 4.16814 35.5157 4.16814H6.38103C5.75236 4.16814 5.24052 4.67526 5.24052 5.29852ZM5.22498 25.2261C5.22498 26.3693 6.15549 27.2998 7.29938 27.2998H34.6338C35.7771 27.2998 36.7076 26.3693 36.7076 25.2261V24.7926H5.22498V25.2261ZM23.0687 28.0027H18.3662L18.0731 31.1933H23.3618L23.0687 28.0027ZM9.75597 19.8233H12.9553C13.1498 19.8233 13.3072 19.6653 13.3072 19.4715C13.3072 19.277 13.1498 19.1197 12.9553 19.1197H9.75597C9.56149 19.1197 9.40416 19.277 9.40416 19.4715C9.40416 19.6653 9.56149 19.8233 9.75597 19.8233ZM9.75597 18.2817H12.9553C13.1498 18.2817 13.3072 18.1244 13.3072 17.9306C13.3072 17.7361 13.1498 17.5788 12.9553 17.5788H9.75597C9.56149 17.5788 9.40416 17.7361 9.40416 17.9306C9.40416 18.1244 9.56149 18.2817 9.75597 18.2817ZM14.2309 15.7752H9.79919C9.60471 15.7752 9.44738 15.9325 9.44738 16.127C9.44738 16.3208 9.60471 16.4781 9.79919 16.4781H14.2309C14.4247 16.4781 14.582 16.3208 14.582 16.127C14.582 15.9325 14.4247 15.7752 14.2309 15.7752ZM14.5273 20.7903H9.75597C9.56149 20.7903 9.40416 20.9476 9.40416 21.1414C9.40416 21.3359 9.56149 21.4932 9.75597 21.4932H14.5273C14.7211 21.4932 14.8785 21.3359 14.8785 21.1414C14.8785 20.9476 14.7211 20.7903 14.5273 20.7903ZM9.60201 13.8108C9.3812 13.5731 9.27248 13.2672 9.29477 12.9492C9.36162 12.0248 9.49802 10.9923 10.0078 10.342C10.1564 10.153 10.3948 9.8923 10.6919 9.70323C10.5021 9.43786 10.39 9.11643 10.39 8.76867C10.39 7.86855 11.1375 7.1359 12.0566 7.1359C12.9749 7.1359 13.7224 7.86855 13.7224 8.76867C13.7224 9.10225 13.6191 9.41287 13.4436 9.67149C13.7859 9.87475 14.056 10.184 14.2188 10.4021C14.6975 11.0429 14.8258 12.0518 14.8879 12.9533C14.9095 13.2706 14.8002 13.5752 14.5793 13.8122C14.3484 14.0593 14.0169 14.2018 13.6704 14.2018H10.5123C10.1652 14.2011 9.83362 14.0593 9.60201 13.8108ZM12.0559 9.69851C12.5873 9.69851 13.0195 9.2812 13.0195 8.76867C13.0195 8.25615 12.5873 7.83952 12.0559 7.83952C11.5251 7.83952 11.093 8.25615 11.093 8.76867C11.093 9.2812 11.5251 9.69851 12.0559 9.69851ZM10.5609 10.7762C10.1659 11.28 10.0517 12.2294 9.99636 12.9998C9.98758 13.1207 10.0301 13.2389 10.1172 13.3314C10.2158 13.4374 10.3597 13.4982 10.5123 13.4982H13.6704C13.8231 13.4982 13.9669 13.4381 14.0655 13.3321C14.1519 13.2396 14.1944 13.1221 14.1863 13.0019C14.1343 12.249 14.027 11.3205 13.6556 10.8228C13.401 10.4825 13.1147 10.2529 12.8763 10.1881C12.6339 10.3231 12.3544 10.4014 12.0559 10.4014C11.7669 10.4014 11.4954 10.3285 11.2577 10.2016C11.0423 10.2792 10.7898 10.4838 10.5609 10.7762ZM17.41 14.8811C17.41 13.5022 17.7679 12.1801 18.4364 11.0159C18.4364 11.0153 18.4364 11.0153 18.4371 11.0146C18.4371 11.0146 18.4371 11.0139 18.4378 11.0139C18.7767 10.4237 19.1941 9.87407 19.6883 9.37978C21.157 7.91042 23.1099 7.10146 25.187 7.10079H25.1877C25.1883 7.10079 25.1883 7.10079 25.1883 7.10079C26.5571 7.10079 27.8705 7.45395 29.0285 8.11367L29.2973 7.68556C29.3871 7.54308 29.5654 7.48433 29.7227 7.54511C30.406 7.81116 30.9598 8.22442 31.3676 8.77273C31.4716 8.91318 31.4574 9.10833 31.3345 9.23123L30.9314 9.63436C32.2468 11.0713 32.9673 12.9202 32.9673 14.8811C32.9673 16.9589 32.1583 18.9124 30.689 20.3818C30.1812 20.8896 29.62 21.3103 29.0238 21.6479C29.0157 21.6533 29.0083 21.66 28.9995 21.6648C28.9921 21.6688 28.984 21.6708 28.9765 21.6742C27.8029 22.3279 26.4963 22.6574 25.1883 22.6574C23.197 22.6574 21.205 21.8991 19.6883 20.3818C18.219 18.9124 17.41 16.9589 17.41 14.8811ZM29.7315 8.31625L27.15 12.4225L30.6107 8.96045C30.3676 8.69845 30.0731 8.48304 29.7315 8.31625ZM28.3431 21.2137L24.9297 15.1377L18.8801 11.6736C18.3797 12.6555 18.113 13.7474 18.113 14.8811C18.113 16.7712 18.849 18.5484 20.1853 19.8848C22.3887 22.0888 25.6954 22.5304 28.3431 21.2137ZM30.192 19.8848C31.5283 18.5484 32.2644 16.7712 32.2644 14.8811C32.2644 13.1086 31.6168 11.4353 30.4344 10.1313L25.6259 14.9412L28.9556 20.87C29.3945 20.5938 29.8105 20.2663 30.192 19.8848ZM28.6538 8.70925C27.707 8.1758 26.6469 7.86653 25.5395 7.81251L25.5401 13.6616L28.6538 8.70925ZM20.1853 9.87677C19.8207 10.2414 19.5027 10.6398 19.2298 11.0639L24.8372 14.2747L24.8365 7.81251C23.0788 7.89827 21.4386 8.62349 20.1853 9.87677Z" fill="white"/>
</mask>
<g mask="url(#mask0_58624_22363)">
<path d="M0.0180664 -0.00195312V69.3262H70.0896V-0.00195312H0.0180664Z" fill="#1E417C"/>
</g>
</svg>
