<svg width="74" height="74" viewBox="0 0 74 74" fill="none" xmlns="http://www.w3.org/2000/svg">
<path d="M35.626 18.3848C36.3636 17.6471 37.61 17.6471 38.3477 18.3848V18.3838L54.7705 34.8125V34.8135C55.9615 36.0625 55.0717 38.0938 53.4238 38.0938H50.9004V54.873C50.9003 55.6087 50.2635 56.2451 49.5283 56.2451H42.0527C41.7883 56.2451 41.6191 56.0797 41.6191 55.8057V47.0811C41.619 46.264 40.9987 45.6484 40.1797 45.6484H33.7939C32.9707 45.6484 32.3615 46.2687 32.3613 47.0811V55.8057C32.3613 56.0752 32.1908 56.2451 31.9219 56.2451H24.4453C23.7098 56.2449 23.0733 55.6085 23.0732 54.873V38.0938H20.5498C18.8854 38.0936 18.0654 36.1259 19.084 34.9346L19.1885 34.8213L35.625 18.3838L35.626 18.3848Z" fill="#1E417C" stroke="#1E417C"/>
<mask id="mask0_58624_1027" style="mask-type:luminance" maskUnits="userSpaceOnUse" x="0" y="0" width="74" height="74">
<path d="M0 0H74V74H0V0Z" fill="white"/>
</mask>
<g mask="url(#mask0_58624_1027)">
<path d="M37 68.3896C19.7087 68.3896 5.61037 54.2913 5.61037 37C5.61037 19.7087 19.7087 5.61037 37 5.61037C54.2913 5.61037 68.3896 19.7087 68.3896 37C68.3896 54.2913 54.2913 68.3896 37 68.3896ZM37 0C16.5885 0 0 16.5885 0 37C0 57.412 16.5885 74 37 74C57.412 74 74 57.412 74 37C74 16.5885 57.412 0 37 0Z" fill="#1E417C"/>
</g>
</svg>
