<svg width="70" height="87" viewBox="0 0 70 87" fill="none" xmlns="http://www.w3.org/2000/svg">
<path fill-rule="evenodd" clip-rule="evenodd" d="M62.7204 13.6358C62.2772 13.0577 61.4446 12.9576 60.8781 13.402C60.3012 13.8464 60.1907 14.6801 60.6339 15.2465C69.8638 27.1179 69.5465 43.9358 59.9903 55.6055C59.2862 56.4713 59.9325 57.7609 61.0117 57.7609C61.3894 57.7609 61.7658 57.5939 62.0331 57.2831C67.1709 51.0404 70 43.1305 70 35.0201C70 27.2104 67.4818 19.8116 62.7204 13.6358ZM35 11.3802C21.9826 11.3802 11.3857 21.9902 11.3857 35.0201C11.3857 40.7529 13.4606 46.2736 17.2225 50.5844C17.7107 51.1291 17.6439 51.9614 17.1004 52.4508C16.557 52.9286 15.7244 52.8734 15.2465 52.3172C11.053 47.5402 8.75578 41.3977 8.75578 35.0201C8.75578 20.5348 20.5295 8.74696 35 8.74696C49.4705 8.74696 61.2442 20.5348 61.2442 35.0201C61.2442 41.3977 58.947 47.5299 54.7638 52.3172C54.4978 52.6178 54.1317 52.7732 53.7655 52.7732C52.6362 52.7732 52.0375 51.4296 52.7775 50.5844C56.5393 46.2736 58.6143 40.7529 58.6143 35.0201C58.6143 21.9902 48.0174 11.3802 35 11.3802ZM53.5432 62.4596C53.5432 61.6273 52.8662 60.9388 52.0233 60.9388C51.1908 60.9388 50.5022 61.6273 50.5022 62.4596C50.5022 63.1931 49.9137 63.7827 49.193 63.7827C48.4606 63.7827 47.8722 63.1931 47.8722 62.4596V59.9613C47.8722 59.1276 47.1951 58.4494 46.3523 58.4494C45.5198 58.4494 44.8427 59.1276 44.8427 59.9613C44.8427 60.6934 44.244 61.283 43.5219 61.283C42.7896 61.283 42.2025 60.6934 42.2025 59.9613V57.4719C42.2025 56.628 41.5254 55.9498 40.6813 55.9498C39.8488 55.9498 39.1614 56.628 39.1614 57.4719C39.1614 58.1938 38.573 58.7834 37.8522 58.7834C37.1199 58.7834 36.5315 58.1938 36.5315 57.4719V43.1086C36.5315 42.2634 35.8544 41.5865 35.0103 41.5865C34.179 41.5865 33.5019 42.2634 33.5019 43.1086L33.4685 59.838C33.4685 60.818 32.4369 61.4693 31.5491 61.0159L25.2781 57.8393C23.1261 56.8721 21.5162 57.3499 21.1732 58.0833C20.8404 58.7937 21.6948 60.0833 23.947 61.1494C27.0434 62.6266 28.9294 65.1044 29.5615 68.5032L30.0279 71.7915C30.1281 72.4479 30.3054 72.981 30.6382 73.5577C31.9037 75.7645 34.6942 79.3945 35.2325 81.212C35.5101 82.1459 35.654 83.1902 35.6655 84.3668H48.7266C48.8152 83.2454 49.1377 82.2229 49.6696 81.3238C53.2542 75.2353 53.5432 69.4255 53.5432 62.4596ZM30.8604 46.4072V43.0971C30.8604 40.8081 32.7247 38.9417 35.0116 38.9417C37.3088 38.9417 39.1614 40.8081 39.1614 43.1086V46.4072H43.9665C44.5652 46.4072 45.0534 45.9191 45.0534 45.3193V31.7434C45.0534 31.1435 44.5652 30.6554 43.9665 30.6554H26.0335C25.4348 30.6554 24.9466 31.1435 24.9466 31.7434V45.3193C24.9466 45.9191 25.4348 46.4072 26.0335 46.4072H30.8604ZM56.1847 62.4596C56.1847 59.3948 52.9702 57.4321 50.303 58.6832C49.5296 56.3133 46.8495 55.1457 44.632 56.1836C43.9035 53.9498 41.4997 52.7244 39.1614 53.5953V49.0405H43.9665C46.0196 49.0405 47.6949 47.3732 47.6949 45.318V31.7434C47.6949 29.6882 46.0196 28.0106 43.9665 28.0106H42.5352L45.2654 23.2785C46.265 21.5393 45.6521 19.3017 43.9331 18.3126L38.8518 15.3788C37.125 14.3744 34.8921 14.9627 33.8912 16.7122L30.8617 21.9452C30.5058 22.5785 30.7165 23.389 31.3499 23.7551C31.982 24.1109 32.7812 23.9002 33.1473 23.267L36.1653 18.0236C36.4415 17.5548 37.0582 17.3788 37.5426 17.6563L42.6136 20.5888C43.0993 20.8688 43.2509 21.4943 42.9798 21.967L39.4954 28.0106H26.0348C23.9817 28.0106 22.3166 29.6882 22.3166 31.7434V45.318C22.3166 47.3732 23.9817 49.0405 26.0348 49.0405H30.8502L30.8283 57.6941L26.401 55.4385C22.6944 53.761 19.7098 54.9838 18.7886 56.9722C17.9779 58.7269 18.5445 61.504 22.8164 63.5373C25.1689 64.6484 26.4896 66.3696 26.9778 68.9592L27.4224 72.1576C27.5663 73.1582 27.854 73.9906 28.3538 74.8576C29.2609 76.4504 32.3778 80.8113 32.7041 81.9455C32.9919 82.9333 33.0921 84.1343 33.0034 85.5999C32.9572 86.3577 33.5495 87 34.3126 87H50.0268C50.8028 87 51.3951 86.3513 51.3475 85.5999C51.2692 84.4336 51.458 83.4779 51.9347 82.6674C55.8623 75.9906 56.1847 69.8262 56.1847 62.4596ZM14.2045 10.2036C26.216 0.104847 43.7018 0.102278 55.7955 10.2036C56.3595 10.6711 57.1676 10.6044 57.6494 10.0366C58.1158 9.48041 58.0374 8.64806 57.4824 8.1805C44.5048 -2.72619 25.4939 -2.72748 12.5176 8.1805C11.9626 8.64806 11.8842 9.48041 12.3506 10.0366C12.817 10.5915 13.6495 10.6699 14.2045 10.2036ZM10.0097 55.6055C0.468945 44.0026 0.142611 27.1243 9.36605 15.2465C9.8093 14.6801 9.70909 13.8464 9.13222 13.402C8.55536 12.9576 7.72282 13.0577 7.27957 13.6358C2.51946 19.8116 0 27.2104 0 35.0201C0 43.1305 2.84065 51.0404 7.97849 57.2831C8.23416 57.5939 8.6106 57.7609 8.98833 57.7609C10.0753 57.7609 10.7151 56.4841 10.0097 55.6055Z" fill="#1E417C"/>
</svg>
