<svg width="24" height="22" viewBox="0 0 24 22" fill="none" xmlns="http://www.w3.org/2000/svg">
<path d="M0.75 13.85C1.16421 13.85 1.5 14.1858 1.5 14.6V18.35C1.5 19.1785 2.17157 19.85 3 19.85H21C21.8284 19.85 22.5 19.1785 22.5 18.35V14.6C22.5 14.1858 22.8358 13.85 23.25 13.85C23.6642 13.85 24 14.1858 24 14.6V18.35C24 20.0069 22.6569 21.35 21 21.35H3C1.34315 21.35 0 20.0069 0 18.35V14.6C0 14.1858 0.335786 13.85 0.75 13.85Z" fill="#C22032"/>
<path d="M11.4697 16.7803C11.7626 17.0732 12.2374 17.0732 12.5303 16.7803L17.0303 12.2803C17.3232 11.9874 17.3232 11.5126 17.0303 11.2197C16.7374 10.9268 16.2626 10.9268 15.9697 11.2197L12.75 14.4393V1.25C12.75 0.835787 12.4142 0.5 12 0.5C11.5858 0.5 11.25 0.835787 11.25 1.25V14.4393L8.03033 11.2197C7.73744 10.9268 7.26256 10.9268 6.96967 11.2197C6.67678 11.5126 6.67678 11.9874 6.96967 12.2803L11.4697 16.7803Z" fill="#C22032"/>
</svg>
