<svg width="104" height="100" viewBox="0 0 104 100" fill="none" xmlns="http://www.w3.org/2000/svg">
<path d="M103.496 56.0593V57.6661C102.491 59.5411 99.528 59.2702 99.4581 56.966C99.3829 54.4955 102.335 54.1307 103.496 56.062V56.0593Z" fill="url(#paint0_linear_57411_35335)"/>
<path d="M62.2737 13.8919C78.7518 14.2997 94.1956 25.4799 100.377 40.6006C101.062 42.2771 102.392 45.8259 102.494 47.532C102.633 49.8764 99.9874 50.9467 98.7812 49.0234C98.158 48.0309 97.5374 44.7798 97.0136 43.3608C95.1492 38.3099 92.0653 33.4037 88.2131 29.6591C85.1265 29.6913 81.4999 29.2541 78.467 29.5572C75.4341 29.8603 75.2246 32.1511 75.5658 34.6564C75.9257 37.2879 77.9002 36.856 79.7806 37.2744C82.1393 37.8002 84.2427 39.4552 85.2393 41.6629C86.3864 44.2058 86.2789 52.4247 85.6718 55.2224C84.1379 62.2771 74.553 67.9665 70.279 73.5835C69.7498 74.6672 69.7847 79.8496 69.911 81.2632C69.9808 82.0357 70.2092 82.701 70.6363 83.3501L78.4643 91.2122L78.7786 91.3168C88.3152 86.0888 94.5878 77.929 97.9242 67.6553C98.483 65.9386 98.5797 62.4729 101.441 63.6398C103.563 64.5062 102.214 67.6741 101.747 69.2621C98.1418 81.5314 88.5166 91.8345 76.7531 96.7111C49.8305 107.867 20.3237 89.2943 17.3042 60.9118L13.1726 50.0802L1.74488 45.7267C0.369471 45.0346 0.138445 43.6183 1.04643 42.3978C1.57564 41.687 6.23108 37.0599 6.84089 36.7407C7.1928 36.5556 7.66022 36.3973 8.06317 36.3973C10.626 36.4053 13.8952 38.5164 16.2162 36.4617L27.464 23.9912L27.4694 23.5486L8.92281 10.8447C7.36741 9.86833 6.50778 8.8517 7.69246 7.08132C8.27808 6.20417 11.3862 3.19451 12.2995 2.44612C13.3687 1.56629 13.7609 1.44559 15.182 1.78357L39.4451 10.4853L39.8642 10.2948L46.0777 3.24548C49.0488 0.541616 52.4041 -0.169221 56.3503 0.0319591C61.081 0.273375 62.9936 1.71114 63.2865 6.55825C63.4369 9.03947 63.3026 11.6146 62.2737 13.8946V13.8919ZM20.047 56.864C20.2646 57.0572 22.3304 55.0078 22.419 54.7128C22.6742 53.8678 21.9382 51.7782 21.8603 50.7347C21.6507 48.0014 22.1316 46.0566 23.9905 44.0314L56.6485 14.7986C59.171 12.6768 59.5283 8.43056 59.0474 5.37262C58.9238 4.584 58.4967 4.33722 57.7579 4.25138C54.8674 3.9134 51.2301 4.11189 49.0005 6.15589L18.8274 39.6779C17.4224 40.7696 15.6924 41.4939 13.8845 41.5261C12.595 41.5475 9.38486 40.5845 8.53329 40.8367C8.37211 40.885 6.44062 42.7653 6.37883 42.9102C6.2284 43.2696 6.52927 43.1704 6.65553 43.2267C9.29621 44.4016 12.2002 45.1178 14.8193 46.3249C16.2995 47.0089 16.3237 47.1162 16.9872 48.5781C18.1719 51.1827 19.0342 54.1736 20.0524 56.864H20.047ZM36.5331 13.8973L14.865 6.09419C14.1531 6.0164 13.0222 7.73314 12.407 8.17037L30.4029 20.6704L36.5331 13.8946V13.8973ZM83.3857 25.5416C76.7101 20.319 67.6115 17.4569 59.1065 18.0631L52.8634 23.5727L52.8016 23.8329L61.0541 48.5164C61.0138 48.8919 60.8741 49.2246 60.6673 49.5384C59.5202 51.2766 56.4954 53.2991 55.1119 55.032C54.1636 55.5202 52.936 55.3458 52.3369 54.4391L39.9286 36.1076C39.6197 35.5255 39.2383 35.9064 38.8514 36.1854C34.8326 39.0797 31.0503 43.908 26.9563 46.8962C26.3894 47.5293 25.8629 48.6559 25.8737 49.525C25.8925 51.1103 27.096 54.3533 26.8488 55.7079C26.5506 57.3388 22.051 60.26 21.6991 61.4241C21.4707 62.1779 21.9758 64.2245 22.1584 65.099C22.5856 67.1537 23.3781 69.0878 23.8697 71.121C24.1759 71.2042 24.2028 71.0405 24.3747 70.9225C25.7017 70.0051 27.0449 67.8994 28.3935 66.9043C31.2329 64.8093 38.7977 66.467 42.4565 65.8876C43.5579 65.7133 44.8232 63.6666 45.7983 63.0014C47.4961 61.8426 50.0562 61.8774 51.7163 63.0899C52.5518 63.6988 56.9037 68.0443 57.4168 68.8437C58.3973 70.378 58.3489 73.1382 57.2475 74.6323L49.6962 82.3522L49.6264 94.3909C57.7338 96.6441 66.7518 96.4053 74.5369 93.106C72.146 90.1151 66.3274 86.4456 65.8922 82.4649C65.6827 80.5389 65.688 74.2594 66.2602 72.591C66.4698 71.9794 66.9103 71.1317 67.2999 70.6167C70.5584 66.3302 78.6174 60.9225 80.882 56.4697C82.0855 54.1012 82.0345 47.4783 81.7873 44.7074C81.6638 43.3206 80.882 42.0277 79.5657 41.5046C78.416 41.0486 77.2501 41.2632 75.9929 40.8555C71.6679 39.4606 71.0742 35.0427 71.547 31.0835C71.8049 28.9214 74.5852 25.5389 76.8525 25.5389H83.3884L83.3857 25.5416ZM54.2335 50.0373C54.8755 49.3962 56.5303 48.3233 56.4067 47.3817C54.0266 40.5819 51.8292 33.6693 49.304 26.9526L42.7601 32.8646L54.2335 50.0373ZM45.3819 92.8056V82.0625C45.3819 81.4831 46.3893 79.7744 46.795 79.2567C47.7808 77.996 53.9272 72.54 54.0374 71.8104C54.0803 71.518 54.0374 71.2364 53.8386 71.0084C52.8016 70.3646 49.8869 66.5824 49.0595 66.3356C48.7479 66.2417 48.4954 66.2659 48.2026 66.4027C47.5686 66.6977 46.1825 68.5861 45.1643 69.1924C41.836 71.1827 34.9374 69.5625 31.0476 70.1553L25.9355 75.2305C30.0214 83.0953 37.116 89.5786 45.3846 92.8029L45.3819 92.8056Z" fill="url(#paint1_linear_57411_35335)"/>
<defs>
<linearGradient id="paint0_linear_57411_35335" x1="50.233" y1="53.9414" x2="50.233" y2="77.728" gradientUnits="userSpaceOnUse">
<stop stop-color="#F4303B"/>
<stop offset="1" stop-color="#2E23F3"/>
</linearGradient>
<linearGradient id="paint1_linear_57411_35335" x1="50.233" y1="53.9414" x2="50.233" y2="77.728" gradientUnits="userSpaceOnUse">
<stop stop-color="#F4303B"/>
<stop offset="1" stop-color="#2E23F3"/>
</linearGradient>
</defs>
</svg>
