<svg width="78" height="100" viewBox="0 0 78 100" fill="none" xmlns="http://www.w3.org/2000/svg">
<path d="M31.9824 80.1414H35.1211V83.436H31.9824V80.1414Z" fill="url(#paint0_linear_6260_23677)"/>
<path d="M31.9824 86.3125H35.1211V89.6071H31.9824V86.3125Z" fill="url(#paint1_linear_6260_23677)"/>
<path d="M31.9824 92.4836H35.1211V95.7781H31.9824V92.4836Z" fill="url(#paint2_linear_6260_23677)"/>
<path d="M53.3132 79.2071H62.9184V82.3319H53.3132V79.2071Z" fill="url(#paint3_linear_6260_23677)"/>
<path d="M27.6882 60.9217L11.9363 66.359C4.98925 69.0917 0.5 75.6595 0.5 83.088V100H77.5V83.0888C77.5 75.6578 73.004 69.09 66.0048 66.3434L50.1643 60.6334L47.1942 55.1589C51.4229 52.4254 54.0064 47.7855 54.0064 42.6685V40.1953C56.46 39.8171 58.3484 37.7188 58.3484 35.1723L58.3467 34.9614C58.2599 33.0172 57.055 31.3077 55.337 30.5282L56.5113 30.6576V21.9348L70.2474 16.7973C70.8474 16.5732 71.2504 16.0073 71.2645 15.3688C71.2794 14.7311 70.902 14.1478 70.3128 13.8966L37.9596 0.125131C37.5499 -0.0487009 37.0841 -0.041285 36.6794 0.146551L7.1225 13.8809C6.64171 14.0728 6.20228 14.5894 6.15513 15.2205C6.15264 15.2575 6.13361 15.2897 6.13361 15.3276V25.3538C4.16907 26.012 2.74151 27.8409 2.74151 30.0143C2.74151 31.3127 3.24878 32.5205 4.121 33.4177L2.5396 39.5215C1.97522 42.7222 4.45036 45.6542 7.71164 45.6542C10.8554 45.6542 13.4811 42.877 12.858 39.4013L11.2981 33.3987C12.1646 32.4884 12.6644 31.2897 12.6644 30.0152C12.6644 27.8418 11.2369 26.0128 9.27314 25.3546V17.6631L20.8743 22.3994V30.6494C21.8955 30.5423 21.7548 30.5554 22.9009 30.436C21.0026 31.1824 19.6512 33.0179 19.6512 35.1706C19.6512 37.7417 21.5793 39.8525 23.9775 40.1926V42.6674C23.9775 47.8972 26.6968 52.5008 30.7979 55.1734L27.6997 60.8843C27.693 60.8958 27.6939 60.9098 27.6881 60.9214L27.6882 60.9217ZM39.3614 78.4342L33.6879 72.1532C39.7033 68.7895 38.836 69.2748 39.3614 68.9806C39.9539 69.3118 37.5921 67.9911 45.0349 72.1532L39.3614 78.4342ZM31.3642 69.8645V64.5071L36.1555 67.1879C35.4215 67.5982 36.4187 67.0412 31.3642 69.8645ZM42.5664 67.1879L47.3586 64.5071V69.8645C46.9457 69.6338 48.5337 70.5203 42.5664 67.1879ZM3.63957 83.089C3.63957 76.9513 7.34944 71.5256 13.0286 69.2895L28.2261 64.0433V72.2833C28.0134 73.4169 29.1173 74.5835 30.5498 73.87L30.5647 73.8956C30.7534 73.7901 30.6806 73.8033 30.8693 73.7045L37.7933 81.3696V96.8745L16.6425 96.8761V84.6147H13.5038V96.8761H3.63974L3.63957 83.089ZM74.3604 83.089V96.8761H64.4888V84.6147H61.3501V96.8761H40.9316V81.3712L47.8431 73.7194C49.4121 74.5951 50.4978 73.6148 50.4978 72.5339L50.4986 64.0779L64.8951 69.2665C70.6457 71.5238 74.3604 76.9498 74.3604 83.089ZM24.0129 27.1803V18.2631C34.6838 17.0084 42.7126 17.0084 53.3728 18.2631V27.1704C33.9788 25.718 31.4127 26.4438 24.0129 27.1803ZM54.0062 36.9692V33.3567C54.6955 33.6549 55.1763 34.3395 55.2094 35.1716C55.2094 35.9683 54.7327 36.6545 54.0062 36.9692ZM6.09488 41.7781C5.69188 41.3003 5.52306 40.675 5.60498 40.1823L6.98116 34.8859C7.17811 34.8867 6.61456 34.9378 8.44256 34.8842L9.79226 40.0621C10.1754 42.2346 7.39816 43.3253 6.09488 41.7781ZM7.20542 31.7411C6.44576 31.5319 5.88138 30.8497 5.88138 30.0135C5.88138 29.0142 6.69898 28.2011 7.7036 28.2011C8.70822 28.2011 9.525 29.0142 9.525 30.0135C9.525 31.1529 8.44833 32.0764 7.20542 31.7411ZM11.6161 15.2412L37.3703 3.27491L65.4824 15.2412L56.5111 18.595V15.5006C49.646 15.3828 53.7084 13.001 20.8742 15.5006V19.0208L11.6161 15.2412ZM22.7901 35.1709C22.7901 34.3437 23.3057 33.6385 23.9777 33.3436V36.9718C23.28 36.6661 22.7901 35.9758 22.7901 35.1709ZM27.1165 42.6679C27.1173 42.2436 27.1446 29.5522 27.143 30.2526L27.1165 30.2509V30.0236C35.2353 29.2928 41.7166 29.2178 50.8666 30.0689V30.1908H50.8584C50.8584 30.3539 50.8666 42.8252 50.8666 42.6671C50.8666 49.6723 45.0574 54.4902 39.0075 54.4902C32.6338 54.491 27.1167 49.3272 27.1167 42.6679L27.1165 42.6679ZM39.0072 57.6158C40.8833 57.6158 42.6915 57.2656 44.4068 56.5983L46.8926 61.1813L39.3655 65.3937C39.2082 65.3055 30.7344 60.5692 31.2748 60.8708L33.5935 56.5966C35.2759 57.2458 37.0972 57.6158 39.0072 57.6158Z" fill="url(#paint4_linear_6260_23677)"/>
<path d="M43.0725 33.6074H45.9424V36.7322H43.0725V33.6074Z" fill="url(#paint5_linear_6260_23677)"/>
<path d="M32.0544 33.6074H34.9243V36.7322H32.0544V33.6074Z" fill="url(#paint6_linear_6260_23677)"/>
<path d="M38.9987 50.3301C41.4028 50.3301 43.5933 48.9139 44.5788 46.724L41.714 45.4454C41.2332 46.5148 40.1673 47.2052 38.9989 47.2052C37.8205 47.2052 36.7555 46.5197 36.2888 45.4578L33.4132 46.7125C34.3814 48.9088 36.5735 50.3299 38.9989 50.3299L38.9987 50.3301Z" fill="url(#paint7_linear_6260_23677)"/>
<defs>
<linearGradient id="paint0_linear_6260_23677" x1="37.679" y1="53.9431" x2="37.679" y2="77.7305" gradientUnits="userSpaceOnUse">
<stop stop-color="#F4303B"/>
<stop offset="1" stop-color="#2E23F3"/>
</linearGradient>
<linearGradient id="paint1_linear_6260_23677" x1="37.679" y1="53.9431" x2="37.679" y2="77.7305" gradientUnits="userSpaceOnUse">
<stop stop-color="#F4303B"/>
<stop offset="1" stop-color="#2E23F3"/>
</linearGradient>
<linearGradient id="paint2_linear_6260_23677" x1="37.679" y1="53.9431" x2="37.679" y2="77.7305" gradientUnits="userSpaceOnUse">
<stop stop-color="#F4303B"/>
<stop offset="1" stop-color="#2E23F3"/>
</linearGradient>
<linearGradient id="paint3_linear_6260_23677" x1="37.679" y1="53.9431" x2="37.679" y2="77.7305" gradientUnits="userSpaceOnUse">
<stop stop-color="#F4303B"/>
<stop offset="1" stop-color="#2E23F3"/>
</linearGradient>
<linearGradient id="paint4_linear_6260_23677" x1="37.679" y1="53.9431" x2="37.679" y2="77.7305" gradientUnits="userSpaceOnUse">
<stop stop-color="#F4303B"/>
<stop offset="1" stop-color="#2E23F3"/>
</linearGradient>
<linearGradient id="paint5_linear_6260_23677" x1="37.679" y1="53.9431" x2="37.679" y2="77.7305" gradientUnits="userSpaceOnUse">
<stop stop-color="#F4303B"/>
<stop offset="1" stop-color="#2E23F3"/>
</linearGradient>
<linearGradient id="paint6_linear_6260_23677" x1="37.679" y1="53.9431" x2="37.679" y2="77.7305" gradientUnits="userSpaceOnUse">
<stop stop-color="#F4303B"/>
<stop offset="1" stop-color="#2E23F3"/>
</linearGradient>
<linearGradient id="paint7_linear_6260_23677" x1="37.679" y1="53.9431" x2="37.679" y2="77.7305" gradientUnits="userSpaceOnUse">
<stop stop-color="#F4303B"/>
<stop offset="1" stop-color="#2E23F3"/>
</linearGradient>
</defs>
</svg>
