<svg width="24" height="18" viewBox="0 0 24 18" fill="none" xmlns="http://www.w3.org/2000/svg">
<path d="M24 9C24 9 19.5 0.75 12 0.75C4.5 0.75 0 9 0 9C0 9 4.5 17.25 12 17.25C19.5 17.25 24 9 24 9ZM1.75905 9C1.84444 8.86982 1.94181 8.72516 2.05091 8.56863C2.55324 7.8479 3.29446 6.88936 4.24816 5.93566C6.18155 4.00227 8.82093 2.25 12 2.25C15.1791 2.25 17.8185 4.00227 19.7518 5.93566C20.7055 6.88936 21.4468 7.8479 21.9491 8.56863C22.0582 8.72516 22.1556 8.86982 22.2409 9C22.1556 9.13018 22.0582 9.27484 21.9491 9.43137C21.4468 10.1521 20.7055 11.1106 19.7518 12.0643C17.8185 13.9977 15.1791 15.75 12 15.75C8.82093 15.75 6.18155 13.9977 4.24816 12.0643C3.29446 11.1106 2.55324 10.1521 2.05091 9.43137C1.94181 9.27484 1.84444 9.13018 1.75905 9Z" fill="#C22032"/>
<path d="M12 5.25C9.92893 5.25 8.25 6.92893 8.25 9C8.25 11.0711 9.92893 12.75 12 12.75C14.0711 12.75 15.75 11.0711 15.75 9C15.75 6.92893 14.0711 5.25 12 5.25ZM6.75 9C6.75 6.1005 9.1005 3.75 12 3.75C14.8995 3.75 17.25 6.1005 17.25 9C17.25 11.8995 14.8995 14.25 12 14.25C9.1005 14.25 6.75 11.8995 6.75 9Z" fill="#C22032"/>
</svg>
