<svg width="96" height="100" viewBox="0 0 96 100" fill="none" xmlns="http://www.w3.org/2000/svg">
<path d="M65.4336 77.5621C65.673 76.2508 67.6602 74.7727 69.0249 74.9872C68.6897 70.9819 69.4798 66.2851 69.0249 62.3751C68.8094 60.5393 67.4447 60.2294 66.3434 59.0135C61.148 53.2438 63.6619 43.6834 71.1558 41.5139C81.1635 38.6052 89.1123 49.5246 83.2465 58.0121C82.217 59.5141 79.9664 60.5393 79.7749 62.1605V74.9872C80.9002 74.5104 83.3662 76.7038 83.3662 77.5621V82.1397C86.359 82.4496 90.2136 81.7105 93.0867 82.1397C94.3556 82.3304 95.7443 83.8563 95.9118 85.1199C96.0316 86.0974 96.0555 90.9372 95.8161 91.7239C95.3612 93.1544 93.5176 92.8206 92.3205 92.8206V97.3982C92.3205 97.9704 90.5728 99.7347 89.8545 99.8539L59.496 99.9731C58.4665 100.021 56.4793 98.328 56.4793 97.3982V92.8206C55.378 92.8206 53.3429 93.1544 52.9359 91.7716C52.7443 91.0802 52.7922 85.8113 52.9119 84.9291C53.1274 83.5225 54.516 82.2827 55.9047 82.1158C58.8256 81.7582 62.4409 82.4019 65.4336 82.1158C65.6012 80.733 65.1942 78.8496 65.4336 77.5383V77.5621ZM76.1836 74.9872V60.587C76.1836 60.4201 77.0934 58.8704 77.3089 58.5843C79.1764 56.2479 81.6184 55.6995 81.5466 51.6942C81.3072 41.3708 64.9787 43.2543 67.5645 53.5538C68.3306 56.6055 72.6162 58.8466 72.6162 60.8016V74.9634H76.2075L76.1836 74.9872ZM79.751 78.5635H69.001V82.1397H79.751V78.5635ZM92.2966 85.692H56.4553V89.2683H92.2966V85.692ZM88.7292 92.8206H60.0467V96.3969H88.7292V92.8206Z" fill="url(#paint0_linear_6260_23838)"/>
<path d="M22.6252 10.52C23.0083 10.52 23.3674 10.52 23.7505 10.52C23.5111 10.8776 22.8886 10.7346 22.5295 10.7584C22.2661 10.7584 21.476 10.9253 21.5239 10.5438C21.9309 10.3531 22.3619 10.5438 22.6492 10.5438L22.6252 10.52Z" fill="url(#paint1_linear_6260_23838)"/>
<path d="M58.4665 10.52H61.7226C63.5901 10.52 66.1279 13.2379 66.2955 15.1214V39.2012C66.0322 41.7284 62.6085 41.3708 62.5366 38.9628C61.8663 31.6435 63.3746 22.9175 62.5366 15.7889C62.4648 15.1452 62.2972 14.6684 61.6508 14.43L5.50667 14.3108C4.38139 14.2393 3.85467 15.026 3.61525 16.0035V93.8458C3.54342 94.8233 3.85467 95.7531 4.78841 96.23C19.1058 96.6353 33.4949 96.2776 47.8362 96.4207C50.0389 96.7545 49.7037 100.116 47.4053 99.9969H4.59687C2.15478 99.6154 0.215478 97.6843 0 95.2048V15.0975C0.407015 13.0949 1.8196 11.426 3.7589 10.7822L51.8824 0.0297603C58.4904 -0.47091 58.8974 5.44177 58.4904 10.52H58.4665ZM22.6252 10.52C22.3379 10.52 21.907 10.3293 21.5 10.52C21.4521 10.9015 22.2422 10.7346 22.5055 10.7346C22.8886 10.7346 23.5111 10.8776 23.7266 10.4962C34.0217 10.4962 44.3407 10.4962 54.6358 10.4962V5.03646C54.6358 4.44043 53.0556 3.34372 52.3373 3.62982L22.6013 10.4962L22.6252 10.52Z" fill="url(#paint2_linear_6260_23838)"/>
<path d="M18.2438 61.5168C8.85856 52.5048 9.52894 36.8171 19.9677 28.9256C36.5356 16.4088 59.5439 31.9296 53.8457 51.9326C49.4643 67.2388 29.8318 72.6031 18.2438 61.493V61.5168ZM31.3641 44.208V28.5918C25.9771 31.4766 24.78 38.6529 24.2054 44.208H31.3641ZM41.8986 44.208C41.7549 38.7006 40.1508 31.4766 34.9554 28.5918V44.208H41.8986ZM50.8529 44.208C50.398 38.5575 46.9743 33.3363 42.0183 30.5945L43.5745 33.7177C44.8195 37.0794 45.7293 40.584 45.7054 44.208H50.8529ZM15.2511 44.208H20.638C20.638 39.6542 21.8591 34.8144 24.2294 30.9283C23.4632 30.7137 22.29 31.8342 21.6436 32.3826C18.0284 35.4581 16.0412 39.5589 15.275 44.208H15.2511ZM20.6141 47.7603H15.4666C15.8496 53.1723 19.2494 58.6082 24.0857 61.1354C23.7984 60.0387 23.1041 59.1088 22.6731 58.0598C21.4042 54.8174 20.5662 51.2412 20.6141 47.7365V47.7603ZM31.3641 47.7603H24.2054C24.78 53.3631 26.049 60.3724 31.3641 63.3765V47.7603ZM42.1141 47.7603H34.9554V63.3765C40.3184 60.3486 41.4197 53.3631 42.1141 47.7603ZM50.8529 47.7603H45.7054C45.7772 50.1922 45.2026 52.5525 44.6998 54.9128L42.2338 61.1592C47.118 58.5128 50.3741 53.2677 50.8529 47.7842V47.7603Z" fill="url(#paint3_linear_6260_23838)"/>
<path d="M10.9176 83.9516L47.6207 83.9039C49.8952 84.1185 49.8952 87.2656 47.6207 87.4802H11.3006C9.48105 87.2417 9.28951 84.6907 10.9176 83.9516Z" fill="url(#paint4_linear_6260_23838)"/>
<path d="M18.1002 76.823L47.6207 76.7754C49.8952 76.9899 49.8952 80.137 47.6207 80.3516H18.4833C16.6637 80.1132 16.4721 77.5621 18.1002 76.823Z" fill="url(#paint5_linear_6260_23838)"/>
<defs>
<linearGradient id="paint0_linear_6260_23838" x1="46.3531" y1="53.9431" x2="46.3531" y2="77.7305" gradientUnits="userSpaceOnUse">
<stop stop-color="#F4303B"/>
<stop offset="1" stop-color="#2E23F3"/>
</linearGradient>
<linearGradient id="paint1_linear_6260_23838" x1="46.3531" y1="53.9431" x2="46.3531" y2="77.7305" gradientUnits="userSpaceOnUse">
<stop stop-color="#F4303B"/>
<stop offset="1" stop-color="#2E23F3"/>
</linearGradient>
<linearGradient id="paint2_linear_6260_23838" x1="46.3531" y1="53.9431" x2="46.3531" y2="77.7305" gradientUnits="userSpaceOnUse">
<stop stop-color="#F4303B"/>
<stop offset="1" stop-color="#2E23F3"/>
</linearGradient>
<linearGradient id="paint3_linear_6260_23838" x1="46.3531" y1="53.9431" x2="46.3531" y2="77.7305" gradientUnits="userSpaceOnUse">
<stop stop-color="#F4303B"/>
<stop offset="1" stop-color="#2E23F3"/>
</linearGradient>
<linearGradient id="paint4_linear_6260_23838" x1="46.3531" y1="53.9431" x2="46.3531" y2="77.7305" gradientUnits="userSpaceOnUse">
<stop stop-color="#F4303B"/>
<stop offset="1" stop-color="#2E23F3"/>
</linearGradient>
<linearGradient id="paint5_linear_6260_23838" x1="46.3531" y1="53.9431" x2="46.3531" y2="77.7305" gradientUnits="userSpaceOnUse">
<stop stop-color="#F4303B"/>
<stop offset="1" stop-color="#2E23F3"/>
</linearGradient>
</defs>
</svg>
