<svg width="100" height="100" viewBox="0 0 100 100" fill="none" xmlns="http://www.w3.org/2000/svg">
<path d="M88.0948 19.0478H71.4279V11.9049C71.4279 8.74763 70.1741 5.71878 67.9411 3.48685C65.709 1.25382 62.6811 0 59.5241 0H40.4763C37.3191 0 34.2903 1.25385 32.0584 3.48685C29.8254 5.71897 28.5716 8.74763 28.5716 11.9049V19.0478H11.9047C8.74753 19.0478 5.71872 20.3016 3.48681 22.5346C1.25381 24.7668 0 27.7954 0 30.9527V88.0951C0 91.2533 1.25383 94.2812 3.48681 96.5132C5.7189 98.7462 8.74753 100 11.9047 100H59.5237C60.8387 100 61.9046 98.934 61.9046 97.619C61.9046 96.3041 60.8386 95.2381 59.5237 95.2381H11.9047C10.0102 95.2381 8.1938 94.4858 6.85384 93.1459C5.51406 91.807 4.76173 89.9896 4.76173 88.095V59.5237C6.82726 61.0594 9.33058 61.8941 11.9046 61.9047H19.0474V69.0467C19.0474 69.6785 19.2982 70.2846 19.7448 70.7304C20.1914 71.177 20.7966 71.4277 21.4284 71.4277H30.9522C31.5831 71.4277 32.1892 71.177 32.6358 70.7304C33.0824 70.2847 33.3331 69.6785 33.3331 69.0467V61.9047H66.6677V69.0467C66.6677 69.6785 66.9185 70.2846 67.3651 70.7304C67.8108 71.177 68.4169 71.4277 69.0478 71.4277H78.5716C79.2034 71.4277 79.8095 71.177 80.2552 70.7304C80.7018 70.2847 80.9526 69.6785 80.9526 69.0467V61.9047H88.0954C90.6696 61.8941 93.1729 61.0594 95.2383 59.5237V88.095V88.0941C95.2383 89.9886 94.486 91.806 93.1462 93.1451C91.8073 94.4848 89.9899 95.2372 88.0953 95.2372H69.0475C67.7334 95.2372 66.6674 96.3032 66.6674 97.6181C66.6674 98.9331 67.7334 99.9991 69.0475 99.9991H88.0953C91.2534 99.9991 94.2813 98.7453 96.5132 96.5123C98.7462 94.2802 100 91.2522 100 88.0943V30.9518C100 27.7945 98.7462 24.7657 96.5132 22.5338C94.2811 20.3007 91.2532 19.0469 88.0953 19.0469L88.0948 19.0478ZM33.3326 11.9049C33.3326 10.0103 34.0849 8.1939 35.4247 6.85392C36.7636 5.51412 38.581 4.76179 40.4756 4.76179H59.5234C61.417 4.76179 63.2343 5.5141 64.5743 6.85392C65.9132 8.19372 66.6664 10.0103 66.6664 11.9049V19.0478H33.3318L33.3326 11.9049ZM28.5707 66.6677H23.8088V52.3817H28.5707V66.6677ZM76.1896 66.6677H71.4277V52.3817H76.1896V66.6677ZM88.0943 57.1438H80.9506V50.0009C80.9506 49.3691 80.6998 48.7639 80.2532 48.3173C79.8075 47.8707 79.2014 47.6199 78.5696 47.6199H69.0458C67.7317 47.6199 66.6658 48.6859 66.6658 50.0009V57.1438H33.3312V50.0009C33.3312 49.3691 33.0804 48.7639 32.6338 48.3173C32.1872 47.8706 31.5811 47.6199 30.9502 47.6199H21.4264C20.1114 47.6199 19.0455 48.6859 19.0455 50.0009V57.1438H11.9026C10.0081 57.1438 8.19172 56.3906 6.85176 55.0517C5.51197 53.7119 4.75965 51.8953 4.75965 50.0007V30.9527C4.75965 29.0582 5.51195 27.2417 6.85176 25.9017C8.19156 24.5618 10.0081 23.8096 11.9026 23.8096H88.0925C89.987 23.8096 91.8043 24.5619 93.1434 25.9017C94.4831 27.2415 95.2355 29.0581 95.2355 30.9527V50.0007C95.2355 51.8952 94.4832 53.7117 93.1434 55.0517C91.8045 56.3906 89.9871 57.1438 88.0925 57.1438L88.0943 57.1438Z" fill="url(#paint0_linear_6260_24120)"/>
<defs>
<linearGradient id="paint0_linear_6260_24120" x1="48.2845" y1="53.9431" x2="48.2845" y2="77.7305" gradientUnits="userSpaceOnUse">
<stop stop-color="#F4303B"/>
<stop offset="1" stop-color="#2E23F3"/>
</linearGradient>
</defs>
</svg>
