<svg width="24" height="24" viewBox="0 0 24 24" fill="none" xmlns="http://www.w3.org/2000/svg">
<path fill-rule="evenodd" clip-rule="evenodd" d="M12.5174 13.6242H14.1295C14.5116 13.6242 14.8284 13.3136 14.8284 12.9277C14.8284 12.5324 14.5116 12.2218 14.1295 12.2218H12.5174V10.5935C12.5174 10.2076 12.2099 9.89704 11.8278 9.89704C11.4457 9.89704 11.1289 10.2076 11.1289 10.5935V12.2218H9.52605C9.14397 12.2218 8.82714 12.5324 8.82714 12.9277C8.82714 13.3136 9.14397 13.6242 9.52605 13.6242H11.1289V15.2525C11.1289 15.6384 11.4457 15.949 11.8278 15.949C12.2099 15.949 12.5174 15.6384 12.5174 15.2525V13.6242ZM18.9058 9.19844C19.1248 9.19591 19.3634 9.19316 19.5801 9.19316C19.813 9.19316 19.9994 9.3814 19.9994 9.6167V17.1839C19.9994 19.5181 18.1263 21.4099 15.806 21.4099H8.3975C5.97461 21.4099 3.99902 19.424 3.99902 16.9769V6.83075C3.99902 4.49657 5.88142 2.58594 8.20181 2.58594H13.178C13.4203 2.58594 13.6067 2.78359 13.6067 3.01889V6.04955C13.6067 7.77195 15.0139 9.18375 16.7192 9.19316C17.1175 9.19316 17.4687 9.19614 17.776 9.19874C18.0151 9.20077 18.2276 9.20257 18.4152 9.20257C18.5479 9.20257 18.7198 9.20059 18.9058 9.19844ZM19.1629 7.82607C18.3969 7.8289 17.4939 7.82607 16.8444 7.81949C15.8137 7.81949 14.9648 6.96205 14.9648 5.92109V3.44008C14.9648 3.03443 15.4521 2.83301 15.7308 3.12572C16.2353 3.65562 16.9288 4.38411 17.6191 5.10917C18.3068 5.83165 18.9914 6.55073 19.4825 7.06653C19.7546 7.35171 19.5552 7.82513 19.1629 7.82607Z" fill="#68CFAA"/>
</svg>
