<svg width="16" height="20" viewBox="0 0 16 20" fill="none" xmlns="http://www.w3.org/2000/svg">
<path d="M15.74 5.33018L11.3 0.33018C11.2065 0.226587 11.0924 0.143709 10.9649 0.0868754C10.8375 0.0300414 10.6995 0.000509805 10.56 0.000179976H2.56C2.22775 -0.00378312 1.89797 0.05774 1.5895 0.181236C1.28103 0.304732 0.999904 0.487783 0.762182 0.719934C0.524459 0.952085 0.334794 1.22879 0.204018 1.53425C0.0732421 1.8397 0.00391638 2.16793 0 2.50018V17.5002C0.00391638 17.8324 0.0732421 18.1607 0.204018 18.4661C0.334794 18.7716 0.524459 19.0483 0.762182 19.2804C0.999904 19.5126 1.28103 19.6956 1.5895 19.8191C1.89797 19.9426 2.22775 20.0041 2.56 20.0002H13.44C13.7723 20.0041 14.102 19.9426 14.4105 19.8191C14.719 19.6956 15.0001 19.5126 15.2378 19.2804C15.4755 19.0483 15.6652 18.7716 15.796 18.4661C15.9268 18.1607 15.9961 17.8324 16 17.5002V6.00018C15.9994 5.75234 15.9067 5.51358 15.74 5.33018ZM10 13.0002H9V14.0002C9 14.2654 8.89464 14.5198 8.70711 14.7073C8.51957 14.8948 8.26522 15.0002 8 15.0002C7.73478 15.0002 7.48043 14.8948 7.29289 14.7073C7.10536 14.5198 7 14.2654 7 14.0002V13.0002H6C5.73478 13.0002 5.48043 12.8948 5.29289 12.7073C5.10536 12.5198 5 12.2654 5 12.0002C5 11.735 5.10536 11.4806 5.29289 11.2931C5.48043 11.1055 5.73478 11.0002 6 11.0002H7V10.0002C7 9.73496 7.10536 9.48061 7.29289 9.29307C7.48043 9.10554 7.73478 9.00018 8 9.00018C8.26522 9.00018 8.51957 9.10554 8.70711 9.29307C8.89464 9.48061 9 9.73496 9 10.0002V11.0002H10C10.2652 11.0002 10.5196 11.1055 10.7071 11.2931C10.8946 11.4806 11 11.735 11 12.0002C11 12.2654 10.8946 12.5198 10.7071 12.7073C10.5196 12.8948 10.2652 13.0002 10 13.0002ZM10.71 6.00018C10.5038 5.97988 10.3139 5.87942 10.1811 5.72043C10.0483 5.56144 9.98327 5.35666 10 5.15018V2.00018L13.74 6.00018H10.71Z" fill="#5FCCA2"/>
</svg>
