<svg width="24" height="24" viewBox="0 0 24 24" fill="none" xmlns="http://www.w3.org/2000/svg">
<path fill-rule="evenodd" clip-rule="evenodd" d="M11.3338 1.04919C9.15584 1.48205 7.84894 3.67395 8.52486 5.76017C8.90134 6.92221 9.79512 7.78706 10.9981 8.15326C11.3342 8.2556 11.4468 8.26854 12.0002 8.26854C12.5536 8.26854 12.6662 8.2556 13.0024 8.15326C14.2533 7.77244 15.1304 6.89534 15.5112 5.64438C15.6136 5.30823 15.6265 5.19566 15.6265 4.64225C15.6265 4.08883 15.6136 3.97627 15.5112 3.64012C15.1298 2.38727 14.2399 1.49873 13.0024 1.13532C12.5304 0.996695 11.7901 0.958471 11.3338 1.04919ZM8.73245 9.05255C8.19773 9.31075 7.54921 9.72717 7.20605 10.0326L6.99106 10.224L7.09856 10.2649C8.74612 10.8922 11.9592 12.0808 12.0073 12.0808C12.0558 12.0808 15.9342 10.6434 16.8804 10.2747L17.0094 10.2244L16.7991 10.033C16.4792 9.74166 15.8184 9.31853 15.268 9.05264C14.9961 8.92128 14.7492 8.81357 14.7194 8.81336C14.6896 8.81314 14.5058 8.89896 14.3109 9.00409C12.9019 9.76407 11.2067 9.77322 9.74447 9.02877C9.51134 8.91006 9.29953 8.81314 9.27378 8.81336C9.24798 8.81357 9.0044 8.92119 8.73245 9.05255ZM4.77232 11.0604C4.50634 11.2381 4.47586 11.3595 4.47582 12.242L4.47573 13.0267H4.66711C5.57775 13.0267 6.387 13.679 6.57683 14.5659C6.64051 14.8635 6.64132 16.7741 6.57786 17.0771C6.50894 17.4063 6.2614 17.8523 6.02466 18.0737C5.66989 18.4056 5.14262 18.6163 4.66711 18.6163H4.47573V19.3486C4.47573 20.1326 4.50441 20.2763 4.69592 20.451C4.75581 20.5057 6.15232 21.0518 8.06599 21.769L11.3338 22.9937L11.3447 18.1308C11.3507 15.4562 11.341 13.2545 11.3232 13.2381C11.3054 13.2218 9.94002 12.7032 8.2891 12.0856C6.07656 11.258 5.23893 10.9628 5.10293 10.9628C4.98267 10.9628 4.86752 10.9968 4.77232 11.0604ZM15.6765 12.1013L12.6667 13.2335L12.6558 18.1167L12.6448 23L12.9782 22.8765C16.3205 21.6384 19.2228 20.5256 19.3045 20.451C19.496 20.2763 19.5247 20.1326 19.5247 19.3486V18.6163H19.3333C18.4248 18.6163 17.613 17.962 17.4236 17.0771C17.3598 16.7787 17.3591 14.8686 17.4228 14.5659C17.502 14.1894 17.6701 13.8852 17.9534 13.6058C18.333 13.2314 18.8209 13.0267 19.3333 13.0267H19.5247L19.5246 12.242C19.5246 11.3595 19.4941 11.2381 19.2281 11.0604C18.9473 10.8728 18.9245 10.8795 15.6765 12.1013ZM3.84307 14.379C3.40523 14.5158 3.08722 14.7954 2.88918 15.2176C2.79613 15.416 2.77734 15.5176 2.77734 15.8224C2.77734 16.1491 2.79252 16.2196 2.91751 16.4735C3.08103 16.8057 3.31481 17.0333 3.65363 17.1902C3.85395 17.283 3.97305 17.305 4.35035 17.3188C4.90273 17.339 5.10658 17.2629 5.24912 16.9835C5.32845 16.828 5.33567 16.7312 5.33567 15.8215C5.33567 14.9118 5.32845 14.815 5.24912 14.6595C5.11639 14.3993 4.91409 14.316 4.4237 14.3195C4.20399 14.3211 3.94274 14.3478 3.84307 14.379ZM18.9985 14.4029C18.902 14.4553 18.8031 14.5579 18.7512 14.6596C18.672 14.8149 18.6648 14.9122 18.6648 15.8215C18.6648 16.7312 18.672 16.828 18.7513 16.9835C18.8937 17.2627 19.0975 17.3388 19.6517 17.3198C20.0633 17.3057 20.1366 17.2903 20.3924 17.1644C20.723 17.0016 20.9506 16.7683 21.1098 16.4286C21.2044 16.2269 21.2231 16.1265 21.2231 15.8215C21.2231 15.5165 21.2044 15.4161 21.1098 15.2144C20.9504 14.8745 20.7231 14.6414 20.3917 14.4783C20.1296 14.3492 20.0694 14.3372 19.6331 14.3268C19.2249 14.3172 19.137 14.3277 18.9985 14.4029Z" fill="#EA5C6F"/>
</svg>
