<svg width="16" height="16" viewBox="0 0 16 16" fill="none" xmlns="http://www.w3.org/2000/svg">
<path d="M8.47363 10.3592L12.2403 6.58584C12.3028 6.52387 12.3524 6.45013 12.3862 6.36889C12.4201 6.28765 12.4375 6.20052 12.4375 6.11251C12.4375 6.0245 12.4201 5.93736 12.3862 5.85612C12.3524 5.77488 12.3028 5.70115 12.2403 5.63917C12.1154 5.51501 11.9464 5.44531 11.7703 5.44531C11.5942 5.44531 11.4252 5.51501 11.3003 5.63917L7.96697 8.93917L4.66697 5.63917C4.54206 5.51501 4.37309 5.44531 4.19697 5.44531C4.02084 5.44531 3.85188 5.51501 3.72697 5.63917C3.66398 5.70092 3.61386 5.77455 3.57953 5.8558C3.5452 5.93705 3.52734 6.0243 3.52697 6.11251C3.52734 6.20071 3.5452 6.28797 3.57953 6.36922C3.61386 6.45047 3.66398 6.5241 3.72697 6.58584L7.49363 10.3592C7.55606 10.4268 7.63183 10.4808 7.71616 10.5178C7.8005 10.5547 7.89157 10.5738 7.98363 10.5738C8.0757 10.5738 8.16677 10.5547 8.25111 10.5178C8.33544 10.4808 8.41121 10.4268 8.47363 10.3592V10.3592Z" fill="white"/>
</svg>
