<svg width="22" height="22" viewBox="0 0 22 22" fill="none" xmlns="http://www.w3.org/2000/svg">
<path d="M15.583 2.22656H6.41634C3.66634 2.22656 1.83301 4.0599 1.83301 6.8099V12.3099C1.83301 15.0599 3.66634 16.8932 6.41634 16.8932V18.8457C6.41634 19.5791 7.23217 20.0191 7.83717 19.6066L11.9163 16.8932H15.583C18.333 16.8932 20.1663 15.0599 20.1663 12.3099V6.8099C20.1663 4.0599 18.333 2.22656 15.583 2.22656ZM10.9997 13.3824C10.6147 13.3824 10.3122 13.0707 10.3122 12.6949C10.3122 12.3191 10.6147 12.0074 10.9997 12.0074C11.3847 12.0074 11.6872 12.3191 11.6872 12.6949C11.6872 13.0707 11.3847 13.3824 10.9997 13.3824ZM12.1547 9.57823C11.7972 9.81656 11.6872 9.9724 11.6872 10.2291V10.4216C11.6872 10.7974 11.3755 11.1091 10.9997 11.1091C10.6238 11.1091 10.3122 10.7974 10.3122 10.4216V10.2291C10.3122 9.16573 11.0913 8.64323 11.3847 8.44156C11.7238 8.2124 11.8338 8.05656 11.8338 7.81823C11.8338 7.3599 11.458 6.98406 10.9997 6.98406C10.5413 6.98406 10.1655 7.3599 10.1655 7.81823C10.1655 8.19406 9.85384 8.50573 9.47801 8.50573C9.10217 8.50573 8.79051 8.19406 8.79051 7.81823C8.79051 6.59906 9.78051 5.60906 10.9997 5.60906C12.2188 5.60906 13.2088 6.59906 13.2088 7.81823C13.2088 8.86323 12.4388 9.38573 12.1547 9.57823Z" fill="#EA5C6F"/>
</svg>
