<svg width="24" height="24" viewBox="0 0 24 24" fill="none" xmlns="http://www.w3.org/2000/svg">
<path d="M12 2.16216C15.2041 2.16216 15.5837 2.17439 16.8491 2.23209C18.1566 2.29177 19.5042 2.59017 20.457 3.54286C21.4188 4.50464 21.708 5.83908 21.7679 7.15092C21.8256 8.41631 21.8378 8.79581 21.8378 12C21.8378 15.2041 21.8256 15.5836 21.7679 16.849C21.7085 18.1499 21.4042 19.5098 20.4571 20.4569C19.4948 21.4192 18.162 21.7079 16.849 21.7679C15.5838 21.8256 15.2043 21.8378 12 21.8378C8.79558 21.8378 8.41613 21.8256 7.15088 21.7679C5.86008 21.7089 4.48233 21.3964 3.543 20.4571C2.58628 19.5004 2.29158 18.1535 2.23205 16.849C2.1743 15.5836 2.16211 15.2041 2.16211 12C2.16211 8.79581 2.17434 8.41627 2.23205 7.15088C2.2912 5.85469 2.59941 4.48645 3.54281 3.543C4.50277 2.583 5.84156 2.29181 7.15088 2.23205C8.41631 2.17439 8.79586 2.16216 12 2.16216ZM12 0C8.74102 0 8.33236 0.0137812 7.05239 0.0721875C5.1967 0.156891 3.35541 0.672797 2.01408 2.01403C0.667734 3.36037 0.156797 5.19811 0.0721875 7.05244C0.0137812 8.33236 0 8.74097 0 12C0 15.259 0.0137812 15.6676 0.0721875 16.9476C0.15675 18.8003 0.675469 20.6473 2.01403 21.9859C3.35873 23.3306 5.20022 23.8433 7.05239 23.9278C8.33236 23.9862 8.74102 24 12 24C15.259 24 15.6676 23.9862 16.9476 23.9278C18.8013 23.8433 20.6461 23.3258 21.9859 21.986C23.3328 20.6392 23.8432 18.8023 23.9278 16.9476C23.9862 15.6676 24 15.259 24 12C24 8.74102 23.9862 8.33236 23.9278 7.05239C23.8432 5.19773 23.3263 3.35447 21.986 2.01412C20.6432 0.671297 18.7965 0.156562 16.9476 0.0721875C15.6676 0.0137812 15.259 0 12 0Z" fill="white"/>
<path d="M12.002 5.83594C8.59877 5.83594 5.83984 8.59481 5.83984 11.9981C5.83984 15.4014 8.59877 18.1603 12.002 18.1603C15.4053 18.1603 18.1642 15.4014 18.1642 11.9981C18.1642 8.59486 15.4053 5.83594 12.002 5.83594ZM12.002 15.9981C9.79291 15.9981 8.00205 14.2072 8.00205 11.9981C8.00205 9.789 9.79291 7.99814 12.002 7.99814C14.2112 7.99814 16.002 9.789 16.002 11.9981C16.002 14.2072 14.2112 15.9981 12.002 15.9981Z" fill="white"/>
<path d="M18.4048 7.03625C19.2001 7.03625 19.8448 6.39154 19.8448 5.59625C19.8448 4.80096 19.2001 4.15625 18.4048 4.15625C17.6096 4.15625 16.9648 4.80096 16.9648 5.59625C16.9648 6.39154 17.6096 7.03625 18.4048 7.03625Z" fill="white"/>
</svg>
