<svg width="24" height="24" viewBox="0 0 24 24" fill="none" xmlns="http://www.w3.org/2000/svg">
<path d="M13.0668 12.5333C13.6326 12.5333 14.1752 12.7581 14.5753 13.1582C14.9754 13.5583 15.2001 14.1009 15.2001 14.6667V16.2667C15.2001 18.4576 12.9729 20 9.33346 20C5.694 20 3.4668 18.4576 3.4668 16.2667V14.6667C3.4668 14.1009 3.69156 13.5583 4.09164 13.1582C4.49171 12.7581 5.03434 12.5333 5.60013 12.5333H13.0668ZM18.4001 12.5333C18.9659 12.5333 19.5085 12.7581 19.9086 13.1582C20.3087 13.5583 20.5335 14.1009 20.5335 14.6667V15.2C20.5335 17.4283 18.8609 18.9333 15.7335 18.9333C15.5831 18.9333 15.4348 18.9301 15.2919 18.9227C15.8668 18.2539 16.2071 17.4443 16.2593 16.5216L16.2668 16.2667V14.6667C16.2668 13.9285 16.0172 13.248 15.5969 12.7072L15.4508 12.5333H18.4001ZM9.33346 4C9.82373 4 10.3092 4.09657 10.7621 4.28418C11.2151 4.4718 11.6267 4.7468 11.9733 5.09347C12.32 5.44014 12.595 5.8517 12.7826 6.30465C12.9702 6.7576 13.0668 7.24307 13.0668 7.73333C13.0668 8.2236 12.9702 8.70907 12.7826 9.16202C12.595 9.61497 12.32 10.0265 11.9733 10.3732C11.6267 10.7199 11.2151 10.9949 10.7621 11.1825C10.3092 11.3701 9.82373 11.4667 9.33346 11.4667C8.34332 11.4667 7.39373 11.0733 6.6936 10.3732C5.99346 9.67306 5.60013 8.72347 5.60013 7.73333C5.60013 6.74319 5.99346 5.7936 6.6936 5.09347C7.39373 4.39333 8.34332 4 9.33346 4ZM16.8001 6.13333C17.5074 6.13333 18.1857 6.41428 18.6857 6.91438C19.1858 7.41448 19.4668 8.09276 19.4668 8.8C19.4668 9.50724 19.1858 10.1855 18.6857 10.6856C18.1857 11.1857 17.5074 11.4667 16.8001 11.4667C16.0929 11.4667 15.4146 11.1857 14.9145 10.6856C14.4144 10.1855 14.1335 9.50724 14.1335 8.8C14.1335 8.09276 14.4144 7.41448 14.9145 6.91438C15.4146 6.41428 16.0929 6.13333 16.8001 6.13333Z" fill="#FFB830"/>
</svg>
