<svg width="24" height="24" viewBox="0 0 24 24" fill="none" xmlns="http://www.w3.org/2000/svg">
<path d="M20.4491 20.4496H16.8931V14.8805C16.8931 13.5525 16.8694 11.8429 15.0436 11.8429C13.1915 11.8429 12.9081 13.2899 12.9081 14.7838V20.4492H9.35211V8.99689H12.7659V10.562H12.8137C13.5098 9.37177 14.8041 8.66088 16.182 8.71199C19.7862 8.71199 20.4507 11.0828 20.4507 14.167L20.4491 20.4496ZM5.33963 7.43143C4.19991 7.43165 3.27584 6.50783 3.27562 5.36813C3.2754 4.22837 4.19919 3.30427 5.33885 3.30405C6.47857 3.30383 7.40264 4.22765 7.40286 5.36735C7.40308 6.50711 6.47934 7.43126 5.33963 7.43143ZM7.11764 20.4497H3.5579V8.99689H7.11764V20.4497ZM22.222 0.00165212H1.77097C0.804437 -0.00926921 0.0118079 0.764981 0 1.73155V22.2681C0.0113644 23.2351 0.803938 24.0102 1.77097 23.9999H22.222C23.191 24.012 23.9866 23.237 24 22.2681V1.73011C23.9862 0.761599 23.1905 -0.0125955 22.222 0.000155266" fill="white"/>
</svg>
