<svg width="24" height="24" viewBox="0 0 24 24" fill="none" xmlns="http://www.w3.org/2000/svg">
<path fill-rule="evenodd" clip-rule="evenodd" d="M17.4958 4.07655C16.1945 4.30872 15.3347 4.75171 13.1622 6.3093C11.454 7.53394 10.6532 7.95598 9.65365 8.15838L9.34359 8.22115V10.931V13.6408L9.65365 13.7036C10.6532 13.906 11.454 14.328 13.1622 15.5527C15.587 17.2911 16.6502 17.7828 18.1174 17.8439C18.6375 17.8656 18.7395 17.8331 18.8813 17.6005C18.9925 17.4181 18.9925 4.44385 18.8813 4.26148C18.7151 3.98892 18.2986 3.93333 17.4958 4.07655ZM4.92114 8.33957C2.23205 9.03392 2.24278 12.8454 4.93571 13.5243C5.1947 13.5896 5.33579 13.5951 6.73843 13.5951H8.26018V10.931V8.26686L6.72387 8.26882C5.3236 8.27059 5.16397 8.27688 4.92114 8.33957ZM20.0178 10.931C20.0178 12.6177 19.9918 12.5019 20.3231 12.2866C21.3453 11.6225 21.3453 10.2394 20.3231 9.57534C19.9918 9.36004 20.0178 9.24424 20.0178 10.931ZM6.12902 17.1384C6.1292 20.3385 5.93305 19.9887 7.72735 19.9887C9.52102 19.9887 9.32551 20.3346 9.32568 17.1606L9.32583 14.7052L9.21482 14.683C9.15376 14.6707 8.43445 14.6608 7.61635 14.6608H6.12888L6.12902 17.1384Z" fill="#3DB2FF"/>
</svg>
