<svg width="19" height="22" viewBox="0 0 19 22" fill="none" xmlns="http://www.w3.org/2000/svg">
<path d="M2.99949 8.08547C2.99949 6.60211 3.43936 5.15207 4.26347 3.9187C5.08758 2.68533 6.25892 1.72403 7.62936 1.15638C8.99981 0.58872 10.5078 0.440195 11.9627 0.729584C13.4175 1.01897 14.7539 1.73328 15.8028 2.78217C16.8517 3.83107 17.566 5.16744 17.8554 6.6223C18.1448 8.07715 17.9962 9.58515 17.4286 10.9556C16.8609 12.326 15.8996 13.4974 14.6663 14.3215C13.4329 15.1456 11.9829 15.5855 10.4995 15.5855C8.51113 15.583 6.60492 14.792 5.19893 13.386C3.79295 11.98 3.00197 10.0738 2.99949 8.08547ZM17.9245 15.5105C18.0538 15.3678 18.1232 15.1809 18.1185 14.9884C18.1137 14.796 18.0352 14.6127 17.899 14.4766C17.7629 14.3404 17.5796 14.2619 17.3872 14.2571C17.1947 14.2524 17.0078 14.3218 16.8651 14.4511C15.1768 16.1394 12.8871 17.0878 10.4995 17.0878C8.11192 17.0878 5.82213 16.1394 4.13387 14.4511C2.4456 12.7628 1.49714 10.473 1.49714 8.08547C1.49714 5.6979 2.4456 3.40812 4.13387 1.71985C4.20916 1.65163 4.2698 1.56883 4.31212 1.47646C4.35444 1.38409 4.37755 1.28409 4.38005 1.18252C4.38255 1.08095 4.36439 0.979937 4.32667 0.8856C4.28895 0.791263 4.23245 0.705574 4.16061 0.633732C4.08877 0.561891 4.00308 0.505395 3.90874 0.467673C3.8144 0.429951 3.71339 0.411789 3.61182 0.41429C3.51025 0.41679 3.41025 0.439902 3.31788 0.482221C3.22552 0.52454 3.14271 0.585184 3.07449 0.660474C1.65149 2.08381 0.667551 3.88614 0.239837 5.85284C-0.187877 7.81953 -0.0413407 9.86772 0.661996 11.7535C1.36533 13.6393 2.59583 15.2832 4.20697 16.4894C5.8181 17.6957 7.74197 18.4135 9.74949 18.5573V20.0855H7.49949C7.30058 20.0855 7.10981 20.1645 6.96916 20.3051C6.82851 20.4458 6.74949 20.6366 6.74949 20.8355C6.74949 21.0344 6.82851 21.2252 6.96916 21.3658C7.10981 21.5065 7.30058 21.5855 7.49949 21.5855H13.4995C13.6984 21.5855 13.8892 21.5065 14.0298 21.3658C14.1705 21.2252 14.2495 21.0344 14.2495 20.8355C14.2495 20.6366 14.1705 20.4458 14.0298 20.3051C13.8892 20.1645 13.6984 20.0855 13.4995 20.0855H11.2495V18.5573C13.7693 18.3808 16.1403 17.2986 17.9245 15.5105Z" fill="#8953C4"/>
</svg>
