<svg width="23" height="22" viewBox="0 0 23 22" fill="none" xmlns="http://www.w3.org/2000/svg">
<path d="M12.5425 11.6958C13.2817 11.6958 13.9907 11.9894 14.5134 12.5121C15.0361 13.0349 15.3298 13.7438 15.3298 14.483V16.5734C15.3298 19.4359 12.4199 21.4511 7.66488 21.4511C2.90987 21.4511 0 19.4359 0 16.5734V14.483C0 13.7438 0.293653 13.0349 0.81636 12.5121C1.33907 11.9894 2.04801 11.6958 2.78723 11.6958H12.5425ZM19.5106 11.6958C20.2498 11.6958 20.9588 11.9894 21.4815 12.5121C22.0042 13.0349 22.2978 13.7438 22.2978 14.483V15.1798C22.2978 18.0911 20.1126 20.0575 16.0266 20.0575C15.8301 20.0575 15.6364 20.0533 15.4496 20.0435C16.2008 19.1697 16.6453 18.112 16.7136 16.9065L16.7234 16.5734V14.483C16.7234 13.5186 16.3973 12.6295 15.8482 11.9229L15.6573 11.6958H19.5106ZM7.66488 0.546875C8.30542 0.546875 8.93969 0.673039 9.53148 0.918164C10.1233 1.16329 10.661 1.52257 11.1139 1.97551C11.5668 2.42844 11.9261 2.96615 12.1712 3.55793C12.4164 4.14971 12.5425 4.78398 12.5425 5.42453C12.5425 6.06507 12.4164 6.69934 12.1712 7.29112C11.9261 7.88291 11.5668 8.42061 11.1139 8.87354C10.661 9.32648 10.1233 9.68576 9.53148 9.93089C8.93969 10.176 8.30542 10.3022 7.66488 10.3022C6.37125 10.3022 5.1306 9.78828 4.21586 8.87354C3.30112 7.95881 2.78723 6.71816 2.78723 5.42453C2.78723 4.13089 3.30112 2.89024 4.21586 1.97551C5.1306 1.06077 6.37125 0.546875 7.66488 0.546875ZM17.4202 3.3341C18.3442 3.3341 19.2304 3.70117 19.8838 4.35455C20.5371 5.00794 20.9042 5.89412 20.9042 6.81814C20.9042 7.74216 20.5371 8.62834 19.8838 9.28172C19.2304 9.93511 18.3442 10.3022 17.4202 10.3022C16.4962 10.3022 15.61 9.93511 14.9566 9.28172C14.3032 8.62834 13.9361 7.74216 13.9361 6.81814C13.9361 5.89412 14.3032 5.00794 14.9566 4.35455C15.61 3.70117 16.4962 3.3341 17.4202 3.3341Z" fill="#FEAE43"/>
</svg>
