<svg width="22" height="22" viewBox="0 0 22 22" fill="none" xmlns="http://www.w3.org/2000/svg">
<path d="M19.1959 7.22831C19.6073 7.78511 19.1344 8.47786 18.4421 8.47786H2.83301C2.28072 8.47786 1.83301 8.03015 1.83301 7.47786V5.8837C1.83301 3.64703 3.64801 1.83203 5.88467 1.83203H8.01134C9.50551 1.83203 9.97301 2.31786 10.5688 3.11536L11.8522 4.82036C12.1363 5.1962 12.173 5.24203 12.7047 5.24203H15.2622C16.8739 5.24203 18.3051 6.02269 19.1959 7.22831Z" fill="#FFB830"/>
<path d="M19.1514 9.85548C19.7023 9.85547 20.1495 10.3011 20.1514 10.8521L20.1663 15.264C20.1663 17.9682 17.9663 20.1682 15.2622 20.1682H6.73717C4.03301 20.1682 1.83301 17.9682 1.83301 15.264V10.8557C1.83301 10.3034 2.28071 9.85571 2.83299 9.8557L19.1514 9.85548Z" fill="#FFB830"/>
</svg>
