<svg width="22" height="22" viewBox="0 0 22 22" fill="none" xmlns="http://www.w3.org/2000/svg">
<path fill-rule="evenodd" clip-rule="evenodd" d="M1.83301 7.33203C1.83301 6.60269 2.12274 5.90321 2.63846 5.38749C3.15419 4.87176 3.85366 4.58203 4.58301 4.58203H17.4163C18.1457 4.58203 18.8452 4.87176 19.3609 5.38749C19.8766 5.90321 20.1663 6.60269 20.1663 7.33203V14.6654C20.1663 15.3947 19.8766 16.0942 19.3609 16.6099C18.8452 17.1256 18.1457 17.4154 17.4163 17.4154H4.58301C3.85366 17.4154 3.15419 17.1256 2.63846 16.6099C2.12274 16.0942 1.83301 15.3947 1.83301 14.6654V7.33203ZM10.083 10.9987C10.083 10.7556 10.1796 10.5224 10.3515 10.3505C10.5234 10.1786 10.7566 10.082 10.9997 10.082C11.2428 10.082 11.4759 10.1786 11.6479 10.3505C11.8198 10.5224 11.9163 10.7556 11.9163 10.9987C11.9163 11.2418 11.8198 11.475 11.6479 11.6469C11.4759 11.8188 11.2428 11.9154 10.9997 11.9154C10.7566 11.9154 10.5234 11.8188 10.3515 11.6469C10.1796 11.475 10.083 11.2418 10.083 10.9987ZM10.9997 8.2487C10.2703 8.2487 9.57086 8.53843 9.05513 9.05415C8.53941 9.56988 8.24967 10.2694 8.24967 10.9987C8.24967 11.728 8.53941 12.4275 9.05513 12.9432C9.57086 13.459 10.2703 13.7487 10.9997 13.7487C11.729 13.7487 12.4285 13.459 12.9442 12.9432C13.4599 12.4275 13.7497 11.728 13.7497 10.9987C13.7497 10.2694 13.4599 9.56988 12.9442 9.05415C12.4285 8.53843 11.729 8.2487 10.9997 8.2487Z" fill="#68CFAA"/>
</svg>
