<svg width="16" height="16" viewBox="0 0 16 16" fill="none" xmlns="http://www.w3.org/2000/svg">
<path d="M10.3602 7.52637L6.58682 3.7597C6.52484 3.69721 6.45111 3.64762 6.36987 3.61377C6.28863 3.57993 6.20149 3.5625 6.11348 3.5625C6.02548 3.5625 5.93834 3.57993 5.8571 3.61377C5.77586 3.64762 5.70213 3.69721 5.64015 3.7597C5.51598 3.88461 5.44629 4.05357 5.44629 4.2297C5.44629 4.40582 5.51598 4.57479 5.64015 4.6997L8.94015 8.03303L5.64015 11.333C5.51598 11.4579 5.44629 11.6269 5.44629 11.803C5.44629 11.9792 5.51598 12.1481 5.64015 12.273C5.70189 12.336 5.77552 12.3861 5.85677 12.4205C5.93802 12.4548 6.02528 12.4727 6.11348 12.473C6.20169 12.4727 6.28894 12.4548 6.37019 12.4205C6.45144 12.3861 6.52507 12.336 6.58682 12.273L10.3602 8.50637C10.4278 8.44394 10.4818 8.36817 10.5188 8.28384C10.5557 8.1995 10.5748 8.10843 10.5748 8.01637C10.5748 7.9243 10.5557 7.83323 10.5188 7.74889C10.4818 7.66456 10.4278 7.58879 10.3602 7.52637V7.52637Z" fill="white"/>
</svg>
