<svg width="22" height="22" viewBox="0 0 22 22" fill="none" xmlns="http://www.w3.org/2000/svg">
<path d="M18.4247 8.45165C16.7655 8.45165 16.0872 7.27832 16.9122 5.83915C17.3888 5.00498 17.1047 3.94165 16.2705 3.46498L14.6847 2.55748C13.9605 2.12665 13.0255 2.38332 12.5947 3.10748L12.4938 3.28165C11.6688 4.72082 10.3122 4.72082 9.47801 3.28165L9.37717 3.10748C8.96467 2.38332 8.02967 2.12665 7.30551 2.55748L5.71967 3.46498C4.88551 3.94165 4.60134 5.01415 5.07801 5.84832C5.91217 7.27832 5.23384 8.45165 3.57467 8.45165C2.62134 8.45165 1.83301 9.23082 1.83301 10.1933V11.8066C1.83301 12.76 2.61217 13.5483 3.57467 13.5483C5.23384 13.5483 5.91217 14.7216 5.07801 16.1608C4.60134 16.995 4.88551 18.0583 5.71967 18.535L7.30551 19.4425C8.02967 19.8733 8.96467 19.6166 9.39551 18.8925L9.49634 18.7183C10.3213 17.2791 11.678 17.2791 12.5122 18.7183L12.613 18.8925C13.0438 19.6166 13.9788 19.8733 14.703 19.4425L16.2888 18.535C17.123 18.0583 17.4072 16.9858 16.9305 16.1608C16.0963 14.7216 16.7747 13.5483 18.4338 13.5483C19.3872 13.5483 20.1755 12.7691 20.1755 11.8066V10.1933C20.1663 9.23998 19.3872 8.45165 18.4247 8.45165ZM10.9997 13.9791C9.35884 13.9791 8.02051 12.6408 8.02051 11C8.02051 9.35915 9.35884 8.02082 10.9997 8.02082C12.6405 8.02082 13.9788 9.35915 13.9788 11C13.9788 12.6408 12.6405 13.9791 10.9997 13.9791Z" fill="#9465D0"/>
</svg>
