<svg width="24" height="24" viewBox="0 0 24 24" fill="none" xmlns="http://www.w3.org/2000/svg">
<path fill-rule="evenodd" clip-rule="evenodd" d="M10.9529 2.06037C9.50969 2.28705 8.24418 2.91006 7.17092 3.92223C5.96966 5.05519 5.23391 6.52868 5.02384 8.22206C4.98522 8.53352 4.96396 8.58349 4.79613 8.75714C4.23621 9.33636 3.98696 9.94965 3.99027 10.74C3.9972 12.3918 4.95661 13.4617 6.35905 13.3817C6.879 13.3521 7.1497 13.2402 7.30468 12.9909L7.41682 12.8105V10.6934C7.41682 8.77426 7.40928 8.5627 7.33632 8.4293C7.23317 8.24077 7.05534 8.10179 6.8314 8.0347C6.66544 7.98496 6.65585 7.97235 6.68182 7.837C6.79869 7.22818 7.21396 6.33424 7.6495 5.7539C9.37946 3.44885 12.6085 2.88875 14.9985 4.47908C16.0297 5.16522 16.8247 6.2188 17.1772 7.36669C17.375 8.01059 17.3791 7.96281 17.1174 8.05577C16.9644 8.11012 16.8446 8.19387 16.7586 8.3067L16.6293 8.47601L16.6164 10.6369L16.6034 12.7977L16.7165 12.9907C16.9566 13.4004 17.4337 13.4971 18.1275 13.2768C19.2566 12.9182 20.0092 11.8873 20.0099 10.698C20.0103 9.95272 19.7557 9.33003 19.2255 8.78059C19.0331 8.58121 19.0154 8.54171 18.9758 8.22225C18.5797 5.0289 16.1771 2.533 13.0467 2.06311C12.4936 1.98011 11.4727 1.97876 10.9529 2.06037ZM11.1636 5.78484C9.72646 6.10974 8.69815 7.19901 8.44206 8.66766C8.05583 10.8825 9.28798 13.4067 11.1066 14.1263C11.3852 14.2365 11.4799 14.2495 11.9998 14.2494C12.6448 14.2492 12.8547 14.1925 13.4162 13.8664C13.7547 13.6698 14.4231 13.0111 14.6766 12.6244C15.3397 11.6126 15.6631 10.4647 15.6138 9.2976C15.567 8.18773 15.2187 7.34855 14.5295 6.68497C14.0989 6.27031 13.6944 6.03758 13.07 5.84514C12.6643 5.72012 11.5989 5.68638 11.1636 5.78484ZM9.56199 15.1182C8.33463 15.2476 7.26923 15.7585 6.36999 16.649C5.41035 17.5993 4.92106 18.6238 4.78129 19.9758C4.741 20.3653 4.74151 20.55 4.78343 20.7489C4.89733 21.2893 5.33325 21.7806 5.8317 21.9307C6.0294 21.9902 6.88296 21.9997 11.9998 21.9997C18.6538 21.9997 18.2181 22.0221 18.6657 21.658C18.8368 21.5188 18.9577 21.3651 19.0721 21.141C19.2312 20.8292 19.2348 20.8103 19.2277 20.3058C19.2085 18.9262 18.6734 17.6865 17.6571 16.6667C16.7554 15.762 15.6726 15.2503 14.3727 15.1148C13.8474 15.06 10.0886 15.0626 9.56199 15.1182Z" fill="#F29F53"/>
</svg>
