<svg width="24" height="24" viewBox="0 0 24 24" fill="none" xmlns="http://www.w3.org/2000/svg">
<path d="M21.5434 5.9744C21.5578 6.23435 21.5578 6.49545 21.5578 6.7577C21.5578 14.7656 16.6042 24 7.54755 24V23.9953C4.87192 23.9997 2.25183 23.0563 0 21.278C0.389016 21.3352 0.780377 21.3644 1.17216 21.3654C3.38982 21.3682 5.54373 20.4527 7.28739 18.7662C5.18073 18.7175 3.33212 17.0264 2.68707 14.5578C3.42493 14.7327 4.18552 14.6971 4.91045 14.4538C2.61291 13.8827 0.960658 11.3981 0.960049 8.51346C0.960049 8.48744 0.960049 8.46148 0.960049 8.43667C1.6448 8.90643 2.4113 9.16661 3.19496 9.19516C1.03102 7.41679 0.363469 3.87453 1.67039 1.10559C4.17071 4.89141 7.85945 7.19279 11.8186 7.4371C11.4217 5.33261 11.9643 3.12712 13.2431 1.64705C15.226 -0.647978 18.3451 -0.53012 20.2099 1.91023C21.3126 1.64261 22.3701 1.14516 23.3366 0.439282C22.9691 1.84256 22.1997 3.03378 21.1718 3.79111C22.148 3.64914 23.1013 3.32776 24 2.83769C23.339 4.0544 22.5071 5.11657 21.5434 5.9744Z" fill="white"/>
</svg>
