<svg width="18" height="17" viewBox="0 0 18 17" fill="none" xmlns="http://www.w3.org/2000/svg">
<path fill-rule="evenodd" clip-rule="evenodd" d="M8.56097 0.0632803C8.34669 0.140321 0.833067 4.33377 0.609443 4.50113C0.40482 4.65426 0.203885 4.92236 0.108669 5.16932C0.0527187 5.31444 0.0292569 5.47033 0.0167885 5.78033L0 6.19653H9H18L17.9832 5.78033C17.9707 5.47033 17.9473 5.31444 17.8913 5.16932C17.7958 4.92155 17.5967 4.65684 17.3857 4.49716C17.1491 4.31804 9.53713 0.0829745 9.36878 0.0367853C9.15584 -0.0216597 8.76124 -0.00873101 8.56097 0.0632803ZM9.4058 2.43526C9.50344 2.4693 10.1244 2.79928 10.7858 3.16859C12.0265 3.86139 12.0993 3.91516 11.985 4.05401C11.9205 4.1324 6.08066 4.13385 6.01621 4.0555C5.90533 3.92079 5.97519 3.85972 6.71705 3.44299C8.06915 2.68342 8.41514 2.49767 8.59339 2.43551C8.82154 2.35599 9.17814 2.35588 9.4058 2.43526ZM2.48779 6.94817C2.30968 6.99666 2.06298 7.24404 2.01349 7.42384C1.99281 7.49886 1.97584 7.72365 1.97574 7.92332L1.97553 8.28638H2.27382H2.57212L2.58114 10.7747L2.59017 13.2631L3.96872 13.2723L5.34727 13.2816V10.784V8.28638H5.6507H5.95415L5.93631 7.87879C5.91408 7.37057 5.83881 7.1929 5.57648 7.02925L5.40561 6.92267L4.01543 6.91672C3.13021 6.91289 2.57535 6.92433 2.48779 6.94817ZM7.58236 6.95607C7.40878 7.01947 7.25256 7.16785 7.16998 7.34772C7.11906 7.45866 7.10476 7.57583 7.10416 7.88789L7.10339 8.28638H7.38412H7.66486L7.67388 10.7747L7.68291 13.2631L9.06146 13.2723L10.44 13.2816V10.784V8.28638H10.7413H11.0427L11.0311 7.83158C11.0202 7.40188 11.0142 7.36897 10.9225 7.23565C10.8691 7.15804 10.7584 7.05589 10.6766 7.0086L10.5278 6.92267L9.12293 6.91459C7.99171 6.90807 7.69159 6.91615 7.58236 6.95607ZM12.8459 6.92139C12.8266 6.92844 12.7676 6.94378 12.7148 6.9555C12.5795 6.98558 12.3722 7.17986 12.2968 7.3474C12.2472 7.45739 12.2326 7.57931 12.232 7.88789L12.2313 8.28638H12.5296H12.8278L12.8369 10.7747L12.8459 13.2631H14.1981H15.5503L15.5593 10.7747L15.5684 8.28638H15.8667H16.165V7.89562C16.165 7.46642 16.1237 7.31343 15.9611 7.1409C15.7518 6.91859 15.7873 6.92334 14.2684 6.91565C13.5053 6.91179 12.8652 6.91438 12.8459 6.92139ZM2.56091 14.0837C2.54802 14.0966 2.53749 14.3198 2.53749 14.5796V15.0518H1.97553H1.41357V15.53V16.0082H0.97454H0.535511V16.5041V17H9.05268H17.5699V16.5041V16.0082H17.1484H16.7269V15.53V15.0518H16.1474H15.5679V14.5559V14.06H9.07611C5.50561 14.06 2.57377 14.0707 2.56091 14.0837Z" fill="white"/>
</svg>
