<svg width="77" height="77" viewBox="0 0 77 77" fill="none" xmlns="http://www.w3.org/2000/svg">
<path d="M23.6036 61.9603C23.4231 61.9588 23.2446 61.9153 23.0787 61.8324C22.9332 61.7518 22.8028 61.6385 22.6951 61.499C22.5874 61.3594 22.5045 61.1965 22.4512 61.0194C22.3978 60.8424 22.3751 60.6548 22.3844 60.4676C22.3936 60.2803 22.4346 60.097 22.505 59.9282C23.5602 57.3403 25.1338 55.0852 27.0934 53.3526C29.053 51.6199 31.3413 50.4605 33.7659 49.9717C36.1905 49.4829 38.6805 49.6791 41.0264 50.5438C43.3723 51.4084 45.5056 52.9163 47.2468 54.9405C48.4801 56.3992 49.4987 58.0843 50.2617 59.9282C50.392 60.2657 50.404 60.6491 50.2953 60.9968C50.1866 61.3445 49.9657 61.6291 49.6795 61.7902C49.3933 61.9512 49.0645 61.9759 48.7629 61.8591C48.4614 61.7422 48.2108 61.493 48.0646 61.1645C47.4243 59.5914 46.5666 58.1513 45.5257 56.9015C44.0547 55.2043 42.2554 53.9425 40.2789 53.2222C38.3024 52.5018 36.2064 52.3437 34.1666 52.7613C32.1268 53.1789 30.2028 54.1599 28.556 55.6221C26.9092 57.0842 25.5876 58.9849 24.7021 61.1645C24.6015 61.4037 24.4451 61.6051 24.2509 61.7458C24.0566 61.8865 23.8324 61.9608 23.6036 61.9603Z" fill="#E3BD00"/>
<path d="M67.5645 65.7283H5.21584C4.89211 65.7283 4.58164 65.5786 4.35273 65.3121C4.12383 65.0456 3.99523 64.6842 3.99523 64.3073V26.5796C3.99845 24.7417 4.62705 22.98 5.74343 21.6804C6.8598 20.3807 8.37301 19.6489 9.9518 19.6451H62.8286C64.4074 19.6489 65.9206 20.3807 67.0369 21.6804C68.1533 22.98 68.7819 24.7417 68.7851 26.5796V64.3073C68.7851 64.6842 68.6565 65.0456 68.4276 65.3121C68.1987 65.5786 67.8883 65.7283 67.5645 65.7283ZM6.43644 62.8863H66.3439V26.5796C66.3407 25.4954 65.9693 24.4566 65.3107 23.69C64.6522 22.9233 63.7599 22.4909 62.8286 22.4872H9.9518C9.02046 22.4909 8.12818 22.9233 7.46962 23.69C6.81106 24.4566 6.43966 25.4954 6.43644 26.5796V62.8863Z" fill="#E3BD00"/>
<path d="M65.6648 76.08H7.31878C5.58134 76.077 3.91566 75.4904 2.68458 74.4477C1.4535 73.4051 0.756749 71.9911 0.746094 70.5136V64.5807C0.746094 64.2769 0.887995 63.9856 1.14058 63.7708C1.39317 63.556 1.73575 63.4353 2.09296 63.4353H70.8907C71.2479 63.4353 71.5905 63.556 71.843 63.7708C72.0956 63.9856 72.2375 64.2769 72.2375 64.5807V70.5136C72.2269 71.9911 71.5301 73.4051 70.299 74.4477C69.068 75.4904 67.4023 76.077 65.6648 76.08ZM3.43982 65.726V70.5136C3.43982 71.3885 3.84849 72.2275 4.57594 72.8461C5.30339 73.4647 6.29002 73.8122 7.31878 73.8122H65.6648C66.6936 73.8122 67.6802 73.4647 68.4077 72.8461C69.1351 72.2275 69.5438 71.3885 69.5438 70.5136V65.726H3.43982Z" fill="#E3BD00"/>
<path d="M36.3859 48.3199C34.3882 48.2275 32.4988 47.2386 31.1135 45.5605C29.7282 43.8824 28.9545 41.6453 28.9545 39.3178C28.9545 36.9904 29.7282 34.7533 31.1135 33.0752C32.4988 31.397 34.3882 30.4082 36.3859 30.3158C38.4514 30.3495 40.422 31.3313 41.869 33.0478C43.3159 34.7642 44.1222 37.0763 44.1123 39.4813C44.0678 41.8362 43.2353 44.0778 41.7921 45.7287C40.3489 47.3796 38.4091 48.3094 36.3859 48.3199ZM36.3859 33.1578C35.0265 33.2338 33.7444 33.916 32.8054 35.0629C31.8664 36.2098 31.3426 37.7334 31.3426 39.3178C31.3426 40.9022 31.8664 42.4259 32.8054 43.5728C33.7444 44.7197 35.0265 45.4019 36.3859 45.4779C37.7618 45.4677 39.0809 44.8374 40.0664 43.7194C41.0518 42.6013 41.6269 41.0823 41.6711 39.4813C41.6651 37.8447 41.1106 36.2756 40.1258 35.1078C39.1409 33.94 37.8034 33.2658 36.3981 33.2288L36.3859 33.1578Z" fill="#E3BD00"/>
<path fill-rule="evenodd" clip-rule="evenodd" d="M70.7359 0.463867H52.9057C52.1774 0.463867 51.5897 0.463867 51.111 0.501957C50.6197 0.540752 50.1846 0.62328 49.7726 0.821488C49.2825 1.05779 48.8372 1.40416 48.4621 1.84083C48.087 2.2775 47.7895 2.79591 47.5865 3.36645C47.4163 3.8461 47.3454 4.35256 47.3121 4.92532C47.2794 5.48185 47.2794 6.16606 47.2794 7.01391V19.8241C47.2794 21.0557 47.2788 21.8965 47.4769 22.6082C47.6739 23.3139 48.0115 23.9553 48.4622 24.48C48.913 25.0047 49.4639 25.3978 50.0701 25.6271C50.6808 25.8578 51.4037 25.8578 52.4616 25.8571H52.6112C52.7175 25.8557 52.8237 25.8574 52.9299 25.862L52.9305 25.8733C52.9342 25.9467 52.9342 26.0482 52.9342 26.2331V30.3362C52.9342 30.8518 52.9342 31.2898 52.9548 31.627C52.9735 31.9303 53.0148 32.3712 53.2323 32.7281C53.4259 33.0459 53.6995 33.2859 54.0154 33.4149C54.3312 33.5439 54.6737 33.5556 54.9954 33.4483C55.3565 33.3283 55.6255 33.013 55.8025 32.7901C56 32.5419 56.2351 32.1998 56.5114 31.797L60.4721 26.0341C60.5111 25.9759 60.5511 25.9185 60.5921 25.862L60.5945 25.8592H60.5975C60.6609 25.8571 60.7243 25.8564 60.7878 25.8571H70.7359C71.4642 25.8571 72.0519 25.8571 72.5306 25.819C73.022 25.7802 73.457 25.6977 73.869 25.4988C74.8586 25.0216 75.645 24.1065 76.0551 22.9545C76.2253 22.4749 76.2962 21.9684 76.3295 21.3956C76.3623 20.8398 76.3623 20.1556 76.3623 19.3078V7.01391C76.3623 6.16606 76.3623 5.48185 76.3295 4.92461C76.2962 4.35256 76.2253 3.8461 76.0551 3.36645C75.6451 2.21423 74.8587 1.29878 73.869 0.821488C73.457 0.62328 73.022 0.540752 72.53 0.501957C72.0519 0.463867 71.4642 0.463867 70.7359 0.463867ZM72.4203 2.37823C72.8299 2.41068 73.0686 2.47205 73.2504 2.55951C73.5445 2.70131 73.8117 2.90915 74.0368 3.17118C74.2618 3.4332 74.4404 3.74428 74.5622 4.08663C74.6373 4.29824 74.6894 4.57616 74.7179 5.05299C74.7463 5.53828 74.7463 6.1583 74.7463 7.04706V19.2739C74.7463 20.1627 74.7463 20.7834 74.7179 21.268C74.69 21.7448 74.6373 22.0227 74.5622 22.2343C74.4404 22.5767 74.2618 22.8878 74.0368 23.1498C73.8117 23.4118 73.5445 23.6197 73.2504 23.7614C73.0686 23.8489 72.8299 23.9096 72.4203 23.9427C72.0035 23.9759 71.4709 23.9759 70.7075 23.9759H60.7478C60.6005 23.9759 60.4157 23.9752 60.2346 24.0231C59.9983 24.0859 59.7771 24.2094 59.5875 24.385C59.4421 24.5197 59.327 24.6883 59.2355 24.8223L59.2106 24.8583L55.2693 30.5929C54.9682 31.0324 54.7694 31.3209 54.6161 31.5134L54.5719 31.5677C54.5698 31.5431 54.568 31.5184 54.5664 31.4937C54.5507 31.2313 54.5501 30.8617 54.5501 30.2995V26.1569C54.5513 25.8924 54.5519 25.5665 54.4713 25.2759C54.3114 24.7031 53.926 24.2545 53.4334 24.0683C53.1844 23.9738 52.9045 23.9752 52.6767 23.9766H52.6112C51.3449 23.9766 50.9044 23.9646 50.5694 23.8383C50.2056 23.7007 49.8749 23.4647 49.6045 23.1498C49.3341 22.8348 49.1315 22.4498 49.0134 22.0262C48.905 21.6369 48.8953 21.1234 48.8953 19.6499V7.04706C48.8953 6.1583 48.8953 5.53757 48.9238 5.05299C48.9516 4.57616 49.0043 4.29824 49.0795 4.08663C49.2013 3.74428 49.3798 3.4332 49.6049 3.17118C49.8299 2.90915 50.0972 2.70131 50.3912 2.55951C50.573 2.47205 50.8117 2.41139 51.2213 2.37823C51.6382 2.34508 52.1707 2.34508 52.9342 2.34508H70.7075C71.4709 2.34508 72.0041 2.34508 72.4203 2.37823Z" fill="#E3BD00"/>
<path d="M69.6012 9.99559L62.3169 6.17951C62.1261 6.07855 61.918 6.07855 61.7446 6.17951L54.4603 9.99559C54.2348 10.1369 54.0614 10.3994 54.0614 10.7225C54.0614 11.0253 54.2348 11.308 54.4776 11.4493L55.102 11.7926V14.6193C55.102 14.902 55.2928 15.1241 55.5356 15.1241C55.7784 15.1241 55.9692 14.902 55.9692 14.6193V12.3175L57.0098 12.9637V16.3961C57.0098 16.5374 57.0445 16.6586 57.1139 16.7797C57.1832 16.9009 58.7615 19.6468 61.9527 19.6468C65.2306 19.6468 66.7395 16.8807 66.8089 16.7797C66.8609 16.6788 66.913 16.5374 66.913 16.4163V13.0646L69.6706 11.4291C69.9134 11.2878 70.0521 11.0051 70.0521 10.7023C70.0174 10.3994 69.844 10.1369 69.6012 9.99559ZM65.6816 16.174C65.3347 16.6586 64.1553 18.2335 61.9527 18.2335C59.8021 18.2335 58.5707 16.6788 58.2238 16.174V13.6703L61.7272 15.75C61.8313 15.8106 61.9354 15.8308 62.0394 15.8308C62.1435 15.8308 62.2649 15.8106 62.3689 15.75L65.6816 13.7915V16.174ZM62.0394 14.1347L56.3507 10.783L62.0394 7.79478L67.7281 10.783L62.0394 14.1347ZM55.9692 15.8106C56.0906 15.9519 56.1773 16.174 56.1773 16.3759C56.1773 16.5778 56.1079 16.7999 55.9692 16.9413C55.8478 17.0826 55.657 17.1836 55.4836 17.1836C55.3101 17.1836 55.1194 17.1028 54.998 16.9413C54.8765 16.7999 54.7898 16.5778 54.7898 16.3759C54.7898 16.174 54.8592 15.9519 54.998 15.8106C55.1194 15.6692 55.3101 15.5683 55.4836 15.5683C55.657 15.5683 55.8304 15.649 55.9692 15.8106Z" fill="#E3BD00"/>
</svg>
