<svg width="77" height="76" viewBox="0 0 77 76" fill="none" xmlns="http://www.w3.org/2000/svg">
<path d="M74.2299 21.6216L39.7844 8.00874C38.8822 7.64862 37.8981 7.64862 37.0779 8.00874L2.6324 21.6216C1.56623 22.1258 0.746094 23.0622 0.746094 24.2146C0.746094 25.295 1.56623 26.3033 2.71441 26.8075L6.4995 28.6716V38.0553C6.4995 39.0637 6.4995 39.499 7.32141 39.499C8.3928 39.499 8.96524 39.0637 8.96524 38.0553V29.3934L16.3625 33.0025V44.3818C16.3625 44.886 18.0063 47.439 18.0063 47.439C18.0063 47.439 20.2544 50.1649 25.4035 52.4918C28.4857 53.8846 32.4116 55.3791 38.0621 55.3791C53.5626 55.3791 58.774 46.3555 59.1021 45.9954C59.3481 45.6353 59.924 44.814 59.924 44.3818V33.0025L74.558 26.7355C75.7062 26.2313 76.3623 25.2229 76.3623 24.1426C76.1982 23.0622 75.3781 22.1258 74.2299 21.6216ZM56.6363 43.8299C54.996 45.5585 48.4778 53.2136 38.0621 53.2136C27.8759 53.2256 20.4667 46.1967 18.8282 44.3818V34.4462L36.9959 42.149C37.488 42.3651 37.9801 42.4371 38.4722 42.4371C38.9642 42.4371 39.5383 42.3651 40.0304 42.149L56.6363 34.7304V43.8299ZM38.0621 39.499L5.17481 24.2146L22.9378 17.1224L38.0621 10.6259L72.2527 24.1426L38.0621 39.499ZM9.76755 42.3651C10.3416 42.8693 10.7517 43.6616 10.7517 44.3818C10.7517 45.1021 10.4237 45.8944 9.76755 46.3986C9.19345 46.9028 8.29131 47.2629 7.47118 47.2629C6.65104 47.2629 5.7489 46.9748 5.17481 46.3986C4.60071 45.8944 4.19065 45.1021 4.19065 44.3818C4.19065 43.6616 4.5187 42.8693 5.17481 42.3651C5.7489 41.8609 6.65104 41.5008 7.47118 41.5008C8.29131 41.5008 9.11144 41.7889 9.76755 42.3651Z" fill="#FF00CE"/>
<path d="M63.8582 68.2316C62.7834 68.2316 61.7728 67.8644 61.0133 67.1969L57.3193 63.9538L56.1194 65.0066C54.1355 66.8624 50.2874 66.0683 49.4579 63.6269C49.4579 63.627 43.7158 48.5018 43.7158 48.5018C42.5966 45.856 45.789 43.0481 48.8054 44.0336C48.8053 44.0335 66.0322 49.0762 66.0322 49.0762C68.8106 49.8037 69.721 53.1816 67.6043 54.9241C67.6044 54.9241 66.4053 55.9768 66.4053 55.9768L70.0992 59.2199C71.6602 60.5358 71.6603 62.8994 70.0991 64.2153C70.0992 64.2153 66.7031 67.1969 66.7031 67.1969C65.9435 67.8644 64.9329 68.2316 63.8582 68.2316ZM57.3193 60.516C57.7344 60.516 58.1494 60.6551 58.4662 60.9332L63.3069 65.1832C63.6111 65.4502 64.1053 65.4502 64.4094 65.1832L67.8055 62.2016C68.1097 61.9345 68.1097 61.5006 67.8055 61.2336L62.9648 56.9837C62.3312 56.4274 62.3312 55.5262 62.9648 54.9699L65.3107 52.9103C65.7234 52.4922 65.5822 51.9864 65.0066 51.7783L47.7788 46.7342C47.3701 46.6147 47.0834 46.8093 46.9821 46.8997C46.8799 46.9901 46.6557 47.2391 46.7936 47.6007L52.5356 62.7258C52.7848 63.2425 53.3496 63.3524 53.825 62.9929C54.946 62.1271 56.324 60.4045 57.3193 60.516Z" fill="#FF00CE"/>
</svg>
