<svg width="77" height="77" viewBox="0 0 77 77" fill="none" xmlns="http://www.w3.org/2000/svg">
<path d="M47.5752 21.8472C47.5752 21.9274 47.5654 22.0067 47.5469 22.0851C47.5284 22.1635 47.5001 22.2392 47.4642 22.3139C47.4272 22.3878 47.3826 22.458 47.3293 22.5245C47.2771 22.5911 47.2161 22.6522 47.1487 22.7087C47.0812 22.7652 47.0084 22.8163 46.9289 22.8609C46.8495 22.9047 46.7657 22.943 46.6765 22.9731C46.5884 23.0041 46.4981 23.0269 46.4045 23.0424C46.311 23.0579 46.2163 23.0661 46.1206 23.0661C46.0249 23.0661 45.9302 23.0579 45.8366 23.0424C45.7431 23.0269 45.6528 23.0041 45.5636 22.9731C45.4754 22.943 45.3917 22.9047 45.3123 22.8609C45.2328 22.8163 45.1599 22.7652 45.0925 22.7087C45.025 22.6522 44.9641 22.5911 44.9119 22.5245C44.8586 22.458 44.814 22.3878 44.777 22.3139C44.7411 22.2392 44.7128 22.1635 44.6943 22.0851C44.6758 22.0067 44.666 21.9274 44.666 21.8472C44.666 21.767 44.6758 21.6876 44.6943 21.6092C44.7128 21.5308 44.7411 21.4543 44.777 21.3804C44.814 21.3066 44.8586 21.2364 44.9119 21.1698C44.9641 21.1033 45.025 21.0422 45.0925 20.9857C45.1599 20.9282 45.2328 20.8781 45.3123 20.8334C45.3917 20.7897 45.4754 20.7514 45.5636 20.7213C45.6528 20.6903 45.7431 20.6675 45.8366 20.652C45.9302 20.6365 46.0249 20.6283 46.1206 20.6283C46.2163 20.6283 46.311 20.6365 46.4045 20.652C46.4981 20.6675 46.5884 20.6903 46.6765 20.7213C46.7657 20.7514 46.8495 20.7897 46.9289 20.8334C47.0084 20.8781 47.0812 20.9282 47.1487 20.9857C47.2161 21.0422 47.2771 21.1033 47.3293 21.1698C47.3826 21.2364 47.4272 21.3066 47.4642 21.3804C47.5001 21.4543 47.5284 21.5308 47.5469 21.6092C47.5654 21.6876 47.5752 21.767 47.5752 21.8472Z" fill="#1AFF00" fill-opacity="0.941176"/>
<path d="M33.0292 21.8472C33.0292 21.9274 33.0205 22.0067 33.002 22.0851C32.9835 22.1635 32.9552 22.2392 32.9193 22.3139C32.8823 22.3878 32.8377 22.458 32.7844 22.5245C32.7311 22.5911 32.6712 22.6522 32.6038 22.7087C32.5363 22.7652 32.4623 22.8163 32.3829 22.8609C32.3035 22.9047 32.2197 22.943 32.1316 22.9731C32.0435 23.0041 31.9532 23.0269 31.8596 23.0424C31.7661 23.0579 31.6714 23.0661 31.5757 23.0661C31.4799 23.0661 31.3853 23.0579 31.2917 23.0424C31.1982 23.0269 31.1068 23.0041 31.0186 22.9731C30.9305 22.943 30.8467 22.9047 30.7673 22.8609C30.6879 22.8163 30.615 22.7652 30.5476 22.7087C30.4801 22.6522 30.4192 22.5911 30.3659 22.5245C30.3137 22.458 30.2691 22.3878 30.2321 22.3139C30.1951 22.2392 30.1679 22.1635 30.1494 22.0851C30.1309 22.0067 30.1211 21.9274 30.1211 21.8472C30.1211 21.767 30.1309 21.6876 30.1494 21.6092C30.1679 21.5308 30.1951 21.4543 30.2321 21.3804C30.2691 21.3066 30.3137 21.2364 30.3659 21.1698C30.4192 21.1033 30.4801 21.0422 30.5476 20.9857C30.615 20.9282 30.6879 20.8781 30.7673 20.8334C30.8467 20.7897 30.9305 20.7514 31.0186 20.7213C31.1068 20.6903 31.1982 20.6675 31.2917 20.652C31.3853 20.6365 31.4799 20.6283 31.5757 20.6283C31.6714 20.6283 31.7661 20.6365 31.8596 20.652C31.9532 20.6675 32.0435 20.6903 32.1316 20.7213C32.2197 20.7514 32.3035 20.7897 32.3829 20.8334C32.4623 20.8781 32.5363 20.9282 32.6038 20.9857C32.6712 21.0422 32.7311 21.1033 32.7844 21.1698C32.8377 21.2364 32.8823 21.3066 32.9193 21.3804C32.9552 21.4543 32.9835 21.5308 33.002 21.6092C33.0205 21.6876 33.0292 21.767 33.0292 21.8472Z" fill="#1AFF00" fill-opacity="0.941176"/>
<path d="M38.0462 27.813L39.6542 27.1393C41.087 26.5376 41.6712 25.0708 40.9542 23.8692L40.3047 22.778V20.6283H37.3956V23.0661C37.3956 23.2548 37.4478 23.4426 37.549 23.6112L38.353 24.9577L36.7461 25.6315L38.0462 27.813Z" fill="#1AFF00" fill-opacity="0.941176"/>
<path d="M38.8615 34.0414C41.4486 34.0414 43.8627 32.8736 45.1574 30.9938L42.642 29.7749C41.8631 30.9026 40.4139 31.6037 38.8615 31.6037C37.3079 31.6037 35.8598 30.9026 35.0809 29.7749L32.5645 30.9938C33.8602 32.8736 36.2743 34.0414 38.8615 34.0414Z" fill="#1AFF00" fill-opacity="0.941176"/>
<path d="M52.375 69.7447L69.8256 55.1182L71.8818 56.8412L54.4323 71.4687L52.375 69.7447Z" fill="#1AFF00" fill-opacity="0.941176"/>
<path d="M66.4915 64.5111C64.0861 64.5111 62.1289 66.1512 62.1289 68.1668C62.1289 70.1834 64.0861 71.8235 66.4915 71.8235C68.8959 71.8235 70.8531 70.1834 70.8531 68.1668C70.8531 66.1512 68.8959 64.5111 66.4915 64.5111ZM66.4915 69.3857C65.6886 69.3857 65.037 68.8387 65.037 68.1668C65.037 67.4959 65.6886 66.9489 66.4915 66.9489C67.2934 66.9489 67.945 67.4959 67.945 68.1668C67.945 68.8387 67.2934 69.3857 66.4915 69.3857Z" fill="#1AFF00" fill-opacity="0.941176"/>
<path d="M57.7474 62.0672C60.1528 62.0672 62.11 60.4262 62.11 58.4105C62.11 56.394 60.1528 54.7539 57.7474 54.7539C55.342 54.7539 53.3848 56.394 53.3848 58.4105C53.3848 60.4262 55.342 62.0672 57.7474 62.0672ZM57.7474 57.1917C58.5503 57.1917 59.202 57.7387 59.202 58.4105C59.202 59.0815 58.5503 59.6294 57.7474 59.6294C56.9445 59.6294 56.2928 59.0815 56.2928 58.4105C56.2928 57.7387 56.9445 57.1917 57.7474 57.1917Z" fill="#1AFF00" fill-opacity="0.941176"/>
<path d="M14.1311 59.6294H17.0402C17.842 59.6294 18.4937 60.1764 18.4937 60.8483H21.4029C21.4029 58.8317 19.4446 57.1917 17.0402 57.1917V54.7539H14.1311V57.1917C11.7267 57.1917 9.76953 58.8317 9.76953 60.8483C9.76953 62.864 11.7267 64.505 14.1311 64.505H17.0402C17.842 64.505 18.4937 65.0519 18.4937 65.7238C18.4937 66.3948 17.842 66.9427 17.0402 66.9427H14.1311C13.3293 66.9427 12.6776 66.3948 12.6776 65.7238H9.76953C9.76953 67.7395 11.7267 69.3796 14.1311 69.3796V71.8173H17.0402V69.3796C19.4446 69.3796 21.4029 67.7395 21.4029 65.7238C21.4029 63.7073 19.4446 62.0672 17.0402 62.0672H14.1311C13.3293 62.0672 12.6776 61.5193 12.6776 60.8483C12.6776 60.1764 13.3293 59.6294 14.1311 59.6294Z" fill="#1AFF00" fill-opacity="0.941176"/>
<path d="M40.1225 51.1011C39.1227 51.1011 38.174 51.37 37.3918 51.865C36.6096 51.3691 35.6598 51.1011 34.6611 51.1011C32.1566 51.1011 30.1211 52.8077 30.1211 54.9063V55.1133C30.1211 55.9337 30.4453 56.7442 31.0306 57.3979L33.9017 60.6078C34.7209 61.5231 36.0253 62.071 37.3918 62.071C38.7593 62.071 40.0638 61.5231 40.8808 60.6078L43.753 57.3988C44.3383 56.7451 44.6625 55.9337 44.6625 55.1133V54.9063C44.6625 52.8077 42.627 51.1011 40.1225 51.1011ZM41.7544 55.1133C41.7544 55.4123 41.6424 55.6958 41.427 55.9337L38.5526 59.1455C38.0097 59.7545 36.7728 59.7545 36.2277 59.1455L33.3523 55.9328C33.1412 55.6958 33.0292 55.4132 33.0292 55.1133V54.9063C33.0292 54.1515 33.7613 53.5388 34.6611 53.5388C35.0973 53.5388 35.5064 53.6801 35.8143 53.94L37.3918 55.2582L38.9715 53.9381C39.2783 53.6801 39.6863 53.5388 40.1225 53.5388C41.0233 53.5388 41.7544 54.1515 41.7544 54.9063V55.1133Z" fill="#1AFF00" fill-opacity="0.941176"/>
<mask id="mask0_57131_4879" style="mask-type:luminance" maskUnits="userSpaceOnUse" x="0" y="0" width="77" height="77">
<path d="M0.748047 0.463867H76.3642V76.08H0.748047V0.463867Z" fill="white"/>
</mask>
<g mask="url(#mask0_57131_4879)">
<path d="M72.0016 46.8044C72.0016 44.1159 69.3927 41.9289 66.1855 41.9289H57.4602C56.7051 41.9289 55.9882 42.0592 55.3267 42.279C51.5418 40.5632 47.7753 39.8804 45.8268 39.6315L45.8279 37.8055C50.7291 35.7524 53.9091 31.8004 54.4411 27.3032H54.5521C57.7594 27.3032 60.3682 25.1162 60.3682 22.4277C60.3682 21.2334 59.833 20.1504 58.9779 19.3026C59.8721 17.5996 60.3682 15.7553 60.3682 13.8955C60.3682 6.50386 53.1922 0.48877 44.3723 0.48877H32.7389C30.3226 0.48877 28.1924 1.4925 26.8695 3.01861C21.1371 3.644 16.744 7.76741 16.744 12.6767V13.0951C16.744 15.2393 17.2205 17.3279 18.1105 19.3254C17.2706 20.1714 16.744 21.2444 16.744 22.4277C16.744 25.1162 19.3529 27.3032 22.5602 27.3032H22.6711C23.2031 31.8013 26.3832 35.7533 31.2854 37.8073V39.6315C30.229 39.7674 28.6298 40.0317 26.7901 40.514C26.8706 40.2287 26.9228 39.9387 26.9228 39.6388C26.9228 37.5411 24.8873 35.8345 22.3839 35.8345C21.3928 35.8345 20.4202 36.1144 19.6347 36.6121C17.9593 35.602 15.5299 35.6011 13.8512 36.6121C13.0679 36.1144 12.0953 35.8345 11.1031 35.8345C8.6008 35.8345 6.56417 37.5411 6.56417 39.6388C6.56417 40.6553 7.03525 41.6107 7.89364 42.3291L8.59862 42.9199C8.2396 43.3255 8.01875 43.8233 8.01875 44.3666V49.2422C8.01875 49.8612 8.30379 50.4209 8.76072 50.8521L3.65611 56.5554C1.7805 58.6513 0.748047 61.2486 0.748047 63.8687C0.748047 70.5894 7.27133 76.0566 15.2895 76.0566C21.2383 76.0566 26.3603 73.0427 28.608 68.7433H47.2814V72.4C47.2814 74.4166 49.2386 76.0566 51.643 76.0566H72.0016C74.407 76.0566 76.3642 74.4166 76.3642 72.4V50.461C76.3642 48.4454 74.407 46.8044 72.0016 46.8044ZM66.1855 44.3666C67.7891 44.3666 69.0935 45.4597 69.0935 46.8044V48.0233C69.0935 48.6952 68.4418 49.2422 67.6389 49.2422H66.1855V46.8044H63.2763V49.2422H60.3682V46.8044H57.4602V49.2422H56.0056C55.2027 49.2422 54.5521 48.6952 54.5521 48.0233V46.8044C54.5521 45.4597 55.8566 44.3666 57.4602 44.3666H66.1855ZM54.5521 24.8655V19.9899C56.1557 19.9899 57.4602 21.083 57.4602 22.4277C57.4602 23.7724 56.1557 24.8655 54.5521 24.8655ZM19.6521 22.4277C19.6521 21.083 20.9565 19.9899 22.5602 19.9899V24.8655C20.9565 24.8655 19.6521 23.7724 19.6521 22.4277ZM22.9126 17.5522H22.5602C21.8563 17.5522 21.1893 17.6743 20.5638 17.8667C19.9665 16.3269 19.6521 14.7297 19.6521 13.0951V12.6767C19.6521 9.49043 22.1195 6.74636 25.5672 5.75904C25.5237 6.03071 25.4682 6.30147 25.4682 6.58226V10.2389H28.3774V6.58226C28.3774 4.56659 30.3346 2.92653 32.7389 2.92653H44.3723C51.5897 2.92653 57.4602 7.84764 57.4602 13.8955C57.4602 15.2521 57.149 16.605 56.5626 17.8704C55.9327 17.6743 55.2614 17.5522 54.5521 17.5522V13.8955C54.5521 10.5352 51.2905 7.80114 47.2814 7.80114V10.2389C49.6858 10.2389 51.643 11.8799 51.643 13.8955V15.8292L50.6856 15.026C48.8796 13.5108 46.4752 12.6767 43.9208 12.6767C42.0245 12.6767 40.1902 13.1425 38.6138 14.0241L37.1385 14.8473C36.8274 15.0223 36.464 15.1144 36.0887 15.1144C35.0432 15.1144 34.1935 14.4024 34.1935 13.5263V10.2389H31.2854V13.0131L28.8017 13.3103C25.9774 13.6485 23.7308 15.3587 22.9126 17.5522ZM25.4682 25.9768V19.3436C25.4682 17.5367 27.0784 15.9796 29.2129 15.7243L31.8653 15.4071C32.6736 16.6761 34.2533 17.5522 36.0887 17.5522C37.0395 17.5522 37.961 17.3179 38.752 16.8757L40.2283 16.0516C42.8056 14.6139 46.4393 14.912 48.6294 16.749L51.643 19.2761V25.974C51.643 30.0883 48.9166 33.786 44.5235 35.6266C43.5324 36.0423 42.9166 36.8774 42.9166 37.8082L42.9188 40.7136C42.9155 42.0556 41.6122 43.1478 40.0107 43.1478H37.1016C35.4979 43.1478 34.1935 42.0547 34.1935 40.71L34.1924 37.8073C34.1924 36.8783 33.5755 36.0423 32.5855 35.6266C28.1957 33.7869 25.4682 30.0892 25.4682 25.9768ZM10.9268 49.2422V44.3666H12.3814C13.1843 44.3666 13.8349 44.9145 13.8349 45.5855V48.0233C13.8349 48.6952 13.1843 49.2422 12.3814 49.2422H10.9268ZM18.1975 46.8044H19.6521V49.2422H18.1975C17.3946 49.2422 16.744 48.6952 16.744 48.0233C16.744 47.3514 17.3946 46.8044 18.1975 46.8044ZM11.1031 38.2722C11.5317 38.2722 11.9527 38.419 12.2563 38.6725L13.8349 39.9962L15.2895 38.7773C16.0673 38.1255 17.4196 38.1255 18.1975 38.7773L19.6521 39.9962L21.2307 38.6725C21.5353 38.419 21.9553 38.2722 22.3839 38.2722C23.2825 38.2722 24.0147 38.8858 24.0147 39.6388C24.0147 40.0044 23.8461 40.3472 23.5371 40.6052L19.0505 44.3666H18.1975C17.6231 44.3666 17.078 44.466 16.5754 44.6347C16.0739 43.0812 14.3919 41.9289 12.3814 41.9289H11.5295L9.94984 40.6052C9.64196 40.3472 9.47332 40.0044 9.47332 39.6388C9.47332 38.8858 10.2044 38.2722 11.1031 38.2722ZM15.2895 73.6189C8.87496 73.6189 3.65611 69.2448 3.65611 63.8687C3.65611 61.7728 4.48186 59.6952 5.98321 58.0177L11.6546 51.6799H12.3814C13.502 51.6799 14.5159 51.3134 15.2895 50.7291C16.063 51.3144 17.0769 51.6799 18.1975 51.6799H18.9253L24.5957 58.0177C26.0949 59.6943 26.9228 61.7728 26.9228 63.8687C26.9228 69.2448 21.7039 73.6189 15.2895 73.6189ZM29.5371 66.3065C29.7297 65.5188 29.8309 64.7029 29.8309 63.8687C29.8309 61.2486 28.7984 58.6513 26.9228 56.5554L21.8182 50.8521C22.2751 50.4209 22.5602 49.8612 22.5602 49.2422V46.8044C22.5602 46.2611 22.3393 45.7633 21.9803 45.3576L23.0334 44.4751C26.356 42.9445 29.7482 42.3127 31.5422 42.0693C32.2504 44.0941 34.46 45.5855 37.1016 45.5855H40.0107C42.6522 45.5855 44.8629 44.0922 45.569 42.0665C47.128 42.2762 49.8957 42.7813 52.7918 43.9245C52.0781 44.734 51.643 45.7232 51.643 46.8044C49.2386 46.8044 47.2814 48.4454 47.2814 50.461V66.3065H29.5371ZM73.4562 72.4C73.4562 73.0719 72.8045 73.6189 72.0016 73.6189H51.643C50.8411 73.6189 50.1895 73.0719 50.1895 72.4V50.461C50.1895 49.7892 50.8411 49.2422 51.643 49.2422H51.9106C52.5133 50.6571 54.1126 51.6799 56.0056 51.6799H67.6389C69.532 51.6799 71.1323 50.6571 71.7339 49.2422H72.0016C72.8045 49.2422 73.4562 49.7892 73.4562 50.461V72.4Z" fill="#1AFF00" fill-opacity="0.941176"/>
</g>
</svg>
