<svg width="77" height="62" viewBox="0 0 77 62" fill="none" xmlns="http://www.w3.org/2000/svg">
<path d="M21.117 50.1533C21.117 50.4866 20.9925 50.8064 20.7709 51.0421C20.5493 51.2778 20.2488 51.4103 19.9355 51.4103H17.186C12.7995 51.4103 8.67235 49.5897 5.56485 46.2838C2.45735 42.9779 0.746094 38.5871 0.746094 33.9202C0.746094 33.5868 0.870573 33.2671 1.09215 33.0314C1.31372 32.7956 1.61424 32.6632 1.9276 32.6632C2.24095 32.6632 2.54147 32.7956 2.76304 33.0314C2.98462 33.2671 3.1091 33.5868 3.1091 33.9202C3.1091 37.9157 4.57461 41.675 7.23564 44.5061C9.89683 47.3373 13.4304 48.8963 17.1858 48.8963H19.9353C20.0905 48.8963 20.2441 48.9288 20.3875 48.9919C20.5309 49.0551 20.6611 49.1477 20.7709 49.2644C20.8806 49.3811 20.9676 49.5197 21.027 49.6722C21.0864 49.8247 21.117 49.9882 21.117 50.1533ZM75.1808 32.6632C74.8674 32.6632 74.5669 32.7956 74.3453 33.0314C74.1237 33.2671 73.9993 33.5868 73.9993 33.9202C73.9993 37.9157 72.5338 41.675 69.8726 44.5061C67.2115 47.3373 63.6779 48.8963 59.9225 48.8963H57.173C56.8597 48.8963 56.5592 49.0287 56.3376 49.2644C56.116 49.5002 55.9915 49.8199 55.9915 50.1533C55.9915 50.4866 56.116 50.8064 56.3376 51.0421C56.5592 51.2778 56.8597 51.4103 57.173 51.4103H59.9225C64.309 51.4103 68.4362 49.5897 71.5435 46.2838C74.6509 42.9779 76.3623 38.5871 76.3623 33.9202C76.3623 33.5868 76.2378 33.2671 76.0162 33.0314C75.7946 32.7956 75.4941 32.6632 75.1808 32.6632ZM30.8958 38.4926C32.9716 40.7012 34.1147 43.6325 34.1147 46.7468V59.9746C34.1147 60.308 33.9902 60.6277 33.7686 60.8634C33.5471 61.0992 33.2465 61.2316 32.9332 61.2316H25.398C25.0846 61.2316 24.7841 61.0992 24.5626 60.8634C24.341 60.6277 24.2165 60.308 24.2165 59.9746V46.7468C24.2165 46.4445 24.1031 46.1575 23.8972 45.9384C23.6913 45.7192 23.4215 45.5987 23.1373 45.5987H17.186C14.2586 45.5987 11.5031 44.3826 9.42748 42.1744C7.35158 39.9658 6.20833 37.0345 6.20833 33.9202V16.4058C6.20833 14.8116 6.88016 13.3822 7.93731 12.418C6.28911 11.2879 5.19445 9.31949 5.19445 7.08267C5.19445 3.58447 7.86952 0.738647 11.1576 0.738647C14.4458 0.738647 17.1207 3.58447 17.1207 7.08267C17.1207 9.32137 16.0241 11.2915 14.3734 12.4211C15.4334 13.3854 16.1068 14.8135 16.1068 16.4058V16.9796L19.1145 19.0443H30.1312C32.1154 19.0443 33.7297 20.7619 33.7297 22.8728C33.7297 24.9838 32.1153 26.7011 30.1312 26.7011L18.0584 26.6986C17.3717 26.696 16.7 26.4849 16.1222 26.0901L16.1068 26.0796V33.92C16.1068 34.2225 16.2202 34.5096 16.4261 34.7286C16.6318 34.9475 16.9017 35.068 17.186 35.068H23.1373C26.0647 35.0681 28.8199 36.2844 30.8958 38.4926ZM18.4181 21.5583L13.8639 18.4319C13.7283 18.3391 13.5768 18.2758 13.4181 18.2457C13.2594 18.2155 13.0967 18.2191 12.9393 18.2562C12.6181 18.3308 12.3436 18.534 12.1661 18.8283C11.9885 19.1226 11.9292 19.473 11.9993 19.8144C12.0333 19.9826 12.0983 20.1418 12.1906 20.2831C12.2829 20.4243 12.4006 20.5446 12.5369 20.6371L17.401 23.9763C17.5997 24.1114 17.8305 24.1837 18.0663 24.1848L30.1315 24.1873C30.8124 24.1873 31.3667 23.5976 31.3667 22.873C31.3667 22.1482 30.8124 21.5585 30.1312 21.5585L18.4181 21.5583ZM7.55746 7.08267C7.55746 9.19457 9.17257 10.9129 11.1576 10.9129C13.1427 10.9129 14.7577 9.19457 14.7577 7.08267C14.7577 4.97077 13.1427 3.25263 11.1576 3.25263C9.17257 3.25263 7.55746 4.97077 7.55746 7.08267ZM31.7515 46.7468C31.7515 44.3039 30.8542 42.0037 29.2247 40.2703C27.5954 38.5368 25.4334 37.5821 23.1372 37.5821H17.1858C16.2706 37.5821 15.4074 37.2 14.755 36.5064C14.1028 35.8121 13.7437 34.8937 13.7437 33.92V24.4574L11.2579 22.7509C10.4526 22.201 9.89491 21.3476 9.69051 20.35C9.58865 19.8596 9.57924 19.3525 9.66282 18.8581C9.7464 18.3637 9.92132 17.8919 10.1774 17.47C10.696 16.6107 11.4979 16.0177 12.4357 15.7999C12.8387 15.7056 13.254 15.6859 13.6633 15.7416C13.3808 14.5515 12.361 13.6663 11.1463 13.6663C9.72655 13.6663 8.57133 14.8952 8.57133 16.4058V33.9202C8.57133 36.3631 9.46869 38.6633 11.0981 40.397C12.7274 42.1302 14.8896 43.0849 17.1858 43.0849H23.1372C24.0524 43.0849 24.9158 43.467 25.568 44.1609C26.2202 44.8547 26.5794 45.7733 26.5794 46.747V58.7176H31.7515V46.7468ZM59.9225 45.5989H53.9712C53.6869 45.5989 53.417 45.7195 53.2112 45.9386C53.0053 46.1576 52.892 46.4447 52.892 46.747V59.9746C52.892 60.308 52.7675 60.6277 52.546 60.8634C52.3244 61.0992 52.0239 61.2316 51.7105 61.2316H44.1753C43.862 61.2316 43.5614 61.0992 43.3399 60.8634C43.1183 60.6277 42.9938 60.308 42.9938 59.9746V46.7468C42.9938 43.6325 44.1369 40.701 46.2127 38.4926C48.2886 36.2843 51.0438 35.0681 53.9712 35.0681H59.9225C60.2068 35.0681 60.4767 34.9475 60.6825 34.7284C60.8883 34.5096 61.0015 34.2223 61.0015 33.92V26.0796L60.9886 26.0885C60.4102 26.4843 59.7375 26.696 59.0499 26.6988L46.9774 26.7013C44.9929 26.7013 43.3787 24.9838 43.3787 22.873C43.3787 20.7619 44.9931 19.0445 46.9771 19.0445H57.9939L61.0015 16.9797V16.4059C61.0015 14.8135 61.675 13.3854 62.735 12.4213C61.0843 11.2919 59.9875 9.32169 59.9875 7.08283C59.9875 3.58463 62.6626 0.738805 65.9507 0.738805C69.2388 0.738805 71.9138 3.58463 71.9138 7.08283C71.9138 9.31949 70.8192 11.2881 69.1711 12.4181C70.2281 13.3824 70.8999 14.8119 70.8999 16.4059V33.9203C70.8999 37.0348 69.7568 39.9663 67.681 42.1747C65.6053 44.3827 62.85 45.5989 59.9225 45.5989ZM62.3505 7.08267C62.3505 9.19457 63.9656 10.9129 65.9507 10.9129C67.9358 10.9129 69.5508 9.19457 69.5508 7.08267C69.5508 4.97077 67.9358 3.25263 65.9507 3.25263C63.9656 3.25263 62.3505 4.97077 62.3505 7.08267ZM64.5689 20.6387C64.7058 20.5462 64.824 20.4257 64.9167 20.2842C65.0094 20.1426 65.0748 19.9829 65.1089 19.8143C65.1438 19.6463 65.147 19.4727 65.1184 19.3035C65.0898 19.1343 65.0299 18.9727 64.9422 18.8283C64.8552 18.6833 64.7421 18.558 64.6094 18.4598C64.4766 18.3616 64.3269 18.2923 64.1689 18.2561C64.011 18.219 63.8478 18.2156 63.6887 18.2461C63.5296 18.2765 63.3778 18.3402 63.242 18.4334L58.6902 21.5583H46.9771C46.296 21.5583 45.7417 22.148 45.7417 22.8728C45.7417 23.5975 46.296 24.1872 46.9771 24.1872L59.0419 24.1846C59.2787 24.1834 59.5102 24.1106 59.7096 23.9746L64.5689 20.6387ZM53.9712 43.0849H59.9225C62.2188 43.0849 64.3808 42.1304 66.0101 40.3968C67.6395 38.6634 68.5369 36.3631 68.5369 33.9202V16.4058C68.5369 14.8953 67.382 13.6663 65.9621 13.6663C64.7472 13.6663 63.7274 14.5517 63.4449 15.7418C63.8542 15.686 64.2694 15.7057 64.6725 15.7999C65.6103 16.0177 66.4122 16.6107 66.9308 17.4701C67.1869 17.8921 67.3618 18.3638 67.4454 18.8582C67.529 19.3525 67.5196 19.8596 67.4177 20.35C67.3183 20.8411 67.1284 21.3062 66.859 21.7186C66.5895 22.131 66.2458 22.4825 65.8478 22.7526L63.3646 24.4574V33.9202C63.3646 34.8936 63.0055 35.812 62.3536 36.5061C61.7008 37.2001 60.8376 37.5823 59.9224 37.5823H53.971C51.6748 37.5823 49.5128 38.537 47.8835 40.2705C46.254 42.0039 45.3567 44.304 45.3567 46.747V58.7176H50.5289V46.7468C50.5289 45.7733 50.888 44.8549 51.5399 44.1609C52.1924 43.4669 53.0557 43.0849 53.9712 43.0849ZM54.9772 32.1335C55.2906 32.1335 55.5911 32.0011 55.8127 31.7654C56.0342 31.5296 56.1587 31.2099 56.1587 30.8765C56.1587 30.5432 56.0342 30.2235 55.8127 29.9877C55.5911 29.752 55.2906 29.6196 54.9772 29.6196H22.131C21.8176 29.6196 21.5171 29.752 21.2955 29.9877C21.074 30.2235 20.9495 30.5432 20.9495 30.8765C20.9495 31.2099 21.074 31.5296 21.2955 31.7654C21.5171 32.0011 21.8176 32.1335 22.131 32.1335H37.3727V59.9746C37.3727 60.308 37.4972 60.6277 37.7187 60.8634C37.9403 61.0992 38.2408 61.2316 38.5542 61.2316C38.8675 61.2316 39.1681 61.0992 39.3896 60.8634C39.6112 60.6277 39.7357 60.308 39.7357 59.9746V32.1335H54.9772Z" fill="#A704F7"/>
</svg>
