<svg width="77" height="61" viewBox="0 0 77 61" fill="none" xmlns="http://www.w3.org/2000/svg">
<path d="M15.8544 49.6009C14.6267 49.6009 11.655 48.5189 11.655 48.5189C11.655 48.5189 9.566 47.7151 8.3615 45.1396L5.08881 38.1198L1.81613 31.0999C0.235944 27.7111 0.106728 25.9448 3.4956 24.3685L8.3446 22.1066C10.6878 21.0145 13.3989 21.3359 15.4206 22.9393L17.1324 24.5945C17.4229 24.8231 17.8102 24.8695 18.1471 24.7146L23.3835 20.9951L19.096 12.9354C17.9651 11.2855 17.6204 9.23666 18.1471 7.30791C18.6738 5.38303 19.2291 4.8377 20.8737 3.18817L25.2696 1.13936C27.4191 0.140125 29.043 1.56419 31.0066 2.88489L38.102 7.25113L45.1974 11.6174L53.8535 8.37768C57.7575 6.55737 62.1417 6.36759 66.1852 7.83546C70.2324 9.31107 71.939 11.1424 73.7593 15.0464L74.7198 17.0953C76.3 20.4841 74.4118 22.4438 72.4058 23.6326L45.3555 36.6168L20.351 48.5939C18.918 49.2601 17.392 49.5971 15.8583 49.5971L15.8544 49.6009ZM10.4593 24.9882C10.3199 24.9882 10.1805 25.0191 10.0488 25.0772L5.19979 27.3391C4.71567 27.5676 4.50652 28.1446 4.73116 28.6288L11.2765 42.6646C11.8226 43.8381 12.7947 44.725 14.0109 45.1665C15.227 45.6197 16.5438 45.5538 17.7135 45.0077L70.3669 20.4529C70.851 20.2244 71.0601 19.6512 70.8355 19.1632L69.875 17.1144C68.7092 14.6124 66.6449 12.7185 64.0539 11.7774C61.4667 10.8362 58.6665 10.9602 56.1646 12.1221L47.0863 16.3553C46.1568 16.7813 45.0762 16.7038 44.2319 16.1268L27.334 4.71301C27.0551 4.53097 26.6949 4.49999 26.3812 4.63942L21.9815 6.68823C21.6291 6.85477 21.5012 7.14912 21.4586 7.30791C21.4122 7.47058 21.3734 7.79204 21.5942 8.11737L27.4786 19.6976C27.9627 20.4064 28.1137 21.2856 27.8852 22.1066C27.6606 22.9316 27.0835 23.6171 26.3089 23.9734L21.3932 27.9606C19.0577 29.0567 16.3389 28.7314 14.3172 27.1279L11.0635 25.1934C10.8854 25.054 10.6723 24.9804 10.4593 24.9804V24.9882ZM76.3623 58.3473C76.3623 56.7439 75.0571 55.9862 73.4537 55.9862H38.5947H3.7358C2.13238 55.9862 0.834921 56.7439 0.834921 58.3473C0.834921 59.9507 2.13625 60.3143 3.73967 60.3143H38.5967H73.4537C75.0571 60.3143 76.3623 59.9507 76.3623 58.3473Z" fill="#6d4b43"/>
</svg>
