<svg width="77" height="69" viewBox="0 0 77 69" fill="none" xmlns="http://www.w3.org/2000/svg">
<path d="M24.2073 22.6327C24.2073 22.9771 24.3441 23.3074 24.5876 23.5509C24.8311 23.7944 25.1614 23.9312 25.5058 23.9312H27.947C29.5495 23.9422 31.0924 24.5403 32.2836 25.6123C33.4749 26.6843 34.2317 28.1559 34.4109 29.7484C34.5901 31.3409 34.1792 32.9439 33.256 34.2538C32.3328 35.5638 30.9613 36.4898 29.4013 36.8566C29.4025 36.8765 29.4025 36.8964 29.4013 36.9163V39.5133C29.4013 40.2021 29.1277 40.8626 28.6406 41.3497C28.1536 41.8367 27.4931 42.1103 26.8043 42.1103C26.1155 42.1103 25.455 41.8367 24.9679 41.3497C24.4809 40.8626 24.2073 40.2021 24.2073 39.5133V37.0306H21.6103C20.9215 37.0306 20.2609 36.757 19.7739 36.2699C19.2869 35.7829 19.0132 35.1223 19.0132 34.4336C19.0132 33.7448 19.2869 33.0842 19.7739 32.5972C20.2609 32.1102 20.9215 31.8365 21.6103 31.8365H27.947C28.2914 31.8365 28.6216 31.6997 28.8652 31.4562C29.1087 31.2127 29.2455 30.8824 29.2455 30.538C29.2567 30.3592 29.2317 30.1798 29.1719 30.0109C29.112 29.8419 29.0187 29.6868 28.8974 29.5548C28.7761 29.4229 28.6294 29.3168 28.4661 29.243C28.3027 29.1692 28.1262 29.1291 27.947 29.1253H25.5058C23.8979 29.1205 22.349 28.5193 21.159 27.438C19.969 26.3567 19.2225 24.8724 19.0641 23.2723C18.9058 21.6723 19.3467 20.0704 20.3016 18.7768C21.2566 17.4832 22.6575 16.59 24.2332 16.2701C24.2332 16.2233 24.2073 16.1869 24.2073 16.1402V13.5432C24.2073 12.8544 24.4809 12.1939 24.9679 11.7068C25.455 11.2198 26.1155 10.9462 26.8043 10.9462C27.4931 10.9462 28.1536 11.2198 28.6406 11.7068C29.1277 12.1939 29.4013 12.8544 29.4013 13.5432V16.1402H31.8425C32.5313 16.1402 33.1918 16.4138 33.6789 16.9009C34.1659 17.3879 34.4395 18.0484 34.4395 18.7372C34.4395 19.426 34.1659 20.0865 33.6789 20.5736C33.1918 21.0606 32.5313 21.3342 31.8425 21.3342H25.5058C25.1614 21.3342 24.8311 21.471 24.5876 21.7145C24.3441 21.9581 24.2073 22.2883 24.2073 22.6327ZM76.2488 45.7981C76.2488 45.837 76.2722 45.8682 76.2722 45.9072V59.8895C76.2722 60.5783 76.298 61.2388 75.8109 61.7258C75.3239 62.2129 75.0364 62.5054 74.3476 62.5054C73.6588 62.5054 73.9444 62.2129 73.4574 61.7258C72.9704 61.2388 72.9584 60.5783 72.9584 59.8895V48.8366L66.5126 52.2231V62.6787C66.5123 63.1438 66.387 63.6004 66.1499 64.0006C65.9128 64.4007 65.5726 64.7299 65.1648 64.9537C61.3598 67.0019 57.1061 68.0741 52.7848 68.0741C48.4635 68.0741 44.2098 67.0019 40.4048 64.9537C39.9912 64.7316 39.6455 64.4016 39.4045 63.9987C39.1635 63.5958 39.0362 63.1351 39.0362 62.6657V52.2231L35.6887 50.8882C32.8473 51.952 29.8382 52.4974 26.8043 52.4984C21.4303 52.5075 16.1854 50.852 11.7904 47.7595C7.39538 44.6671 4.06594 40.2894 2.25964 35.2281C0.453334 30.1668 0.258825 24.6703 1.70284 19.4939C3.14686 14.3176 6.15853 9.71554 10.324 6.32014C14.4894 2.92474 19.6041 0.902692 24.9653 0.531871C30.3265 0.161051 35.6709 1.45966 40.2641 4.24924C44.8574 7.03881 48.474 11.1824 50.6169 16.1107C52.7598 21.0389 53.3239 26.5098 52.2316 31.7716C53.1125 31.6761 54.0034 31.7946 54.8286 32.117L72.2447 40.425C73.5035 40.8911 74.7886 41.3324 75.3991 42.5279C76.0095 43.7233 76.6145 44.5051 76.254 45.7981H76.2488ZM32.5956 39.3445L47.0099 33.0648C48.5839 28.9263 48.1959 24.7133 47.0099 20.4474C45.8239 16.1815 43.7483 12.4155 40.2641 9.68331C36.78 6.95111 31.458 4.81031 27.0324 4.67565C22.6067 4.54099 18.0588 6.36613 14.4149 8.88145C10.7711 11.3968 7.44652 15.3081 6.00335 19.4939C4.56017 23.6798 4.68392 28.3707 6.00335 32.5972C7.32277 36.8237 9.79524 40.9579 13.3635 43.5793C16.9318 46.2007 22.3766 47.764 26.8043 47.7595C27.8042 47.7518 29.675 47.9091 30.6636 47.7595C30.285 47.0787 29.1842 45.6329 29.1223 44.8563C29.0603 44.0797 29.1659 43.2989 29.4318 42.5666C29.6977 41.8343 30.1178 41.1677 30.6636 40.6118C31.2095 40.0559 31.8683 39.6238 32.5956 39.3445ZM61.3186 61.0685L61.2952 54.3163L54.8209 56.8951C53.507 57.4197 52.0418 57.4197 50.728 56.8951L44.2354 54.2981V61.0685C46.924 62.2687 49.8353 62.889 52.7796 62.889C55.7239 62.889 58.6352 62.2687 61.3238 61.0685H61.3186ZM73.8985 44.4314C73.9059 44.359 73.8879 44.2863 73.8477 44.2256C73.8074 44.165 73.7474 44.1202 73.6778 44.099L52.5113 34.1163C52.4329 34.085 52.3455 34.085 52.2672 34.1163L31.3983 44.099C31.333 44.1266 31.2773 44.1729 31.2382 44.232C31.199 44.2911 31.1781 44.3605 31.1781 44.4314C31.1781 44.5023 31.199 44.5716 31.2382 44.6308C31.2773 44.6899 31.333 44.7362 31.3983 44.7638L36.4954 47.7851L52.5113 55.1453L73.6752 44.7638C73.7448 44.7431 73.8051 44.6989 73.8458 44.6388C73.8865 44.5787 73.9051 44.5037 73.8985 44.4314Z" fill="#C850C0"/>
</svg>
