<svg width="77" height="77" viewBox="0 0 77 77" fill="none" xmlns="http://www.w3.org/2000/svg">
<path d="M16.0798 47.8534C15.7399 47.7109 15.3612 47.8997 15.232 48.279L13.8792 52.2537L12.5273 48.279C12.398 47.9031 12.0193 47.7109 11.6794 47.8534C11.3403 47.9958 11.1692 48.4155 11.2954 48.7914L13.2641 54.5732C13.3614 54.8555 13.6063 55.0452 13.8792 55.0452C14.153 55.0452 14.3978 54.8589 14.4951 54.5732L16.4638 48.7914C16.5931 48.4155 16.4189 47.9958 16.0798 47.8534Z" fill="#2C9FF6"/>
<path d="M29.5831 48.2779C29.4533 47.9947 29.1268 47.8059 28.7618 47.8059C28.3979 47.8059 28.0714 47.9922 27.9416 48.2779L25.3168 54.0589C25.1444 54.4348 25.3766 54.8545 25.8288 54.9978C26.282 55.1402 26.7869 54.9506 26.9592 54.5722L27.7095 52.9169H29.8152L30.5655 54.5722C30.6993 54.8638 31.0329 55.0442 31.3867 55.0442C31.4891 55.0442 31.5935 55.0298 31.6959 54.9978C32.1481 54.8545 32.3762 54.4348 32.2079 54.0589L29.5831 48.2779ZM28.3725 51.463L28.7618 50.5999L29.1522 51.463H28.3695H28.3725Z" fill="#2C9FF6"/>
<path d="M19.1318 47.8059C18.6483 47.8059 18.2559 48.1321 18.2559 48.5342V54.3168C18.2559 54.7189 18.6483 55.0452 19.1318 55.0452C19.6143 55.0452 20.0067 54.7189 20.0067 54.3168V48.5342C20.0067 48.1321 19.6143 47.8059 19.1318 47.8059Z" fill="#2C9FF6"/>
<path d="M22.9968 50.6964H22.2667C21.8511 50.6964 21.5131 50.3761 21.5131 49.9799C21.5131 49.5837 21.8511 49.2625 22.2667 49.2625H23.6598C24.0762 49.2625 24.4143 48.9363 24.4143 48.5342C24.4143 48.1321 24.0762 47.8059 23.6598 47.8059H22.2667C21.0191 47.8059 20.0059 48.782 20.0059 49.9799C20.0059 51.1777 21.0191 52.1538 22.2667 52.1538H22.9968C23.4132 52.1538 23.7504 52.475 23.7504 52.8712C23.7504 53.2674 23.4132 53.5877 22.9968 53.5877H20.7595C20.343 53.5877 20.0059 53.9148 20.0059 54.3168C20.0059 54.7189 20.343 55.0452 20.7595 55.0452H22.9968C24.2453 55.0452 25.2585 54.069 25.2585 52.8712C25.2585 51.6734 24.2453 50.6964 22.9968 50.6964Z" fill="#2C9FF6"/>
<path d="M30.3698 23.7217C28.3308 20.7884 24.8381 18.8489 20.8827 18.8489C16.9263 18.8489 13.4346 20.7884 11.3956 23.719C11.3633 23.7562 11.3367 23.7971 11.3139 23.8415C10.1689 25.536 9.50195 27.5472 9.50195 29.7064C9.50195 35.6938 14.6051 40.5666 20.8827 40.5666C24.8419 40.5666 28.3374 38.6244 30.3764 35.6874C30.3992 35.6593 30.4192 35.6275 30.4382 35.5957C31.5926 33.8985 32.2634 31.8773 32.2634 29.7064C32.2634 27.5345 31.5993 25.5387 30.4581 23.8479C30.4353 23.8034 30.4059 23.7598 30.3726 23.7217H30.3698ZM29.3864 34.2189C28.3764 33.8105 27.3607 33.4656 26.3545 33.1988C26.6472 32.3447 26.8514 31.4381 26.9265 30.4942H30.5798C30.4619 31.8365 30.0439 33.098 29.3892 34.2189H29.3864ZM11.1818 30.4942H14.8322C14.9073 31.4381 15.1144 32.3484 15.4042 33.2015C14.398 33.4683 13.3852 33.8105 12.3723 34.2189C11.7177 33.098 11.2968 31.8338 11.1789 30.4905L11.1818 30.4942ZM12.3723 25.1966C13.3823 25.605 14.3942 25.9471 15.4042 26.2167C15.1116 27.0735 14.9073 27.9801 14.8322 28.9249H11.1818C11.3006 27.5817 11.7177 26.3174 12.3752 25.1966H12.3723ZM20.057 28.9249H16.4798C16.5586 28.1117 16.7524 27.3276 17.0185 26.5843C18.038 26.7785 19.0546 26.901 20.057 26.9446V28.9249ZM20.057 30.4942V32.4736C19.0575 32.5181 18.0418 32.637 17.0185 32.8348C16.7524 32.0879 16.5586 31.3037 16.4798 30.4942H20.057ZM21.7017 30.4942H25.279C25.2001 31.3037 25.0063 32.0879 24.7402 32.8312C23.7169 32.637 22.6974 32.5145 21.7017 32.4736V30.4942ZM21.7017 28.9249V26.9446C22.7041 26.9037 23.7236 26.7812 24.7431 26.587C25.0091 27.3303 25.2039 28.1154 25.279 28.9249H21.7017ZM21.7017 25.3726V21.6161C22.4542 22.4729 23.3787 23.6809 24.1055 25.1094C23.296 25.2501 22.4941 25.3381 21.7017 25.3726ZM20.057 25.3726C19.2646 25.3345 18.4655 25.2501 17.6598 25.1058C18.3867 23.6809 19.3074 22.4765 20.057 21.6198V25.3726ZM20.057 34.0428V37.7957C19.3045 36.939 18.3867 35.7346 17.6598 34.3097C18.4655 34.1681 19.2684 34.0801 20.057 34.0428ZM21.7017 34.0428C22.4903 34.0801 23.2932 34.1654 24.1017 34.3061C23.3749 35.731 22.4542 36.939 21.7017 37.7957V34.0428ZM26.9265 28.9249C26.8514 27.9801 26.6472 27.0735 26.3545 26.2194C27.3636 25.9535 28.3764 25.6113 29.3892 25.2002C30.0439 26.3202 30.4619 27.5817 30.5798 28.9249H26.9265ZM28.4524 23.876C27.5517 24.2273 26.65 24.5159 25.7559 24.7482C24.9474 23.0565 23.8785 21.6415 23.0034 20.6441C25.1868 21.1079 27.0947 22.2723 28.4524 23.8787V23.876ZM18.7582 20.6441C17.8841 21.6415 16.8151 23.0537 16.0094 24.7446C15.1116 24.5131 14.2108 24.2245 13.3129 23.876C14.6745 22.2723 16.5786 21.1079 18.762 20.6441H18.7582ZM13.3091 35.5431C14.2108 35.191 15.1144 34.9023 16.0056 34.6736C16.8151 36.3645 17.8841 37.7767 18.7553 38.775C16.5748 38.3103 14.6678 37.1459 13.3063 35.5431H13.3091ZM23.0005 38.775C23.8747 37.7767 24.9436 36.3617 25.7531 34.67C26.6472 34.9023 27.5479 35.191 28.4496 35.5431C27.088 37.1459 25.1801 38.3103 23.0005 38.775Z" fill="#2C9FF6"/>
<path d="M50.4374 11.8499L49.5255 12.7418C49.235 13.0252 49.1983 13.4731 49.4386 13.8L53.9077 19.8229L48.6434 20.0818L45.2436 16.7562C44.9164 16.4359 44.3886 16.4359 44.0614 16.7562L43.0124 17.7822C42.7354 18.0533 42.6891 18.4709 42.8956 18.794L45.2667 22.4692L42.8956 26.1444C42.6891 26.4675 42.7354 26.8888 43.0124 27.1562L44.0614 28.1822C44.3886 28.5025 44.9164 28.5025 45.2436 28.1822L48.6434 24.8566L53.9077 25.1155L49.4386 31.1384C49.1983 31.4653 49.235 31.9132 49.5255 32.1966L50.4374 33.0885C50.5947 33.2424 50.8051 33.3275 51.028 33.3275C51.2519 33.3275 51.4623 33.2424 51.6196 33.0885L59.4924 25.3895L64.5791 25.638C65.6541 25.6899 67.2638 25.0465 68.169 24.2038C68.7336 23.6776 69.0308 23.0767 69.0308 22.4692C69.0308 21.8617 68.7336 21.2571 68.169 20.7346C67.2638 19.8919 65.6445 19.2513 64.5791 19.3004L59.4924 19.5489L51.6196 11.8499C51.2924 11.5297 50.7646 11.5297 50.4374 11.8499ZM58.5698 20.9604C58.7367 21.1238 58.9712 21.2117 59.2009 21.1985L64.6592 20.9311C65.16 20.9075 66.3383 21.2863 67.0139 21.9137C67.231 22.1168 67.3574 22.319 67.3574 22.4664C67.3574 22.6128 67.231 22.815 67.0139 23.0181C66.3383 23.6454 65.1427 24.0243 64.6592 24.0016L59.2009 23.7333C58.9674 23.7239 58.7367 23.8089 58.5698 23.9714L52.1774 30.2239L56.1649 24.85C56.3454 24.6091 56.3753 24.2888 56.2421 24.0177C56.1089 23.7465 55.8378 23.5699 55.5309 23.5538L48.3568 23.2005C48.3568 23.2005 48.3298 23.2005 48.3163 23.2005C48.0962 23.2005 47.882 23.2855 47.7257 23.4395L44.7157 26.3825L46.887 23.0181C46.97 22.8877 47.0173 22.7375 47.0173 22.5835V22.3483C47.0173 22.1952 46.9739 22.045 46.887 21.9137L44.7157 18.5493L47.7257 21.4923C47.8926 21.6558 48.1165 21.7408 48.3568 21.7313L55.5309 21.378C55.8378 21.3619 56.1089 21.1853 56.2421 20.9141C56.3753 20.643 56.3454 20.3265 56.1649 20.0818L52.1774 14.7079L58.5698 20.9604Z" fill="#2C9FF6"/>
<mask id="mask0_57131_4902" style="mask-type:luminance" maskUnits="userSpaceOnUse" x="0" y="0" width="77" height="77">
<path d="M0.748047 0.750854H76.3642V76.367H0.748047V0.750854Z" fill="white"/>
</mask>
<g mask="url(#mask0_57131_4902)">
<path d="M53.4984 1.06785C53.1796 0.758797 52.6676 0.758797 52.3488 1.06785L39.7536 13.3004C39.5435 13.263 39.3288 13.2439 39.1112 13.2439H4.331C2.35527 13.2439 0.748047 14.8037 0.748047 16.7237V61.536C0.748047 63.455 2.35527 65.0158 4.331 65.0158H10.0979L21.5087 76.1015C21.6616 76.2492 21.866 76.3312 22.0835 76.3312C22.3011 76.3312 22.5055 76.2492 22.6574 76.1015L34.0711 65.0158H39.115C41.0907 65.0158 42.698 63.455 42.698 61.536V56.6377L56.1333 43.5883L76.1345 24.1628C76.2864 24.0142 76.3708 23.8154 76.3708 23.6048C76.3708 23.3933 76.2864 23.1946 76.1345 23.0469L53.4984 1.06785ZM22.0835 74.4277L12.3924 65.0158H31.7737L22.0835 74.4277ZM41.0748 61.536C41.0748 62.5853 40.1952 63.4395 39.115 63.4395H4.331C3.25077 63.4395 2.37121 62.5853 2.37121 61.536V16.7237C2.37121 15.6744 3.25077 14.8201 4.331 14.8201H39.1112C39.3288 14.8201 39.5398 14.8548 39.7442 14.9204C40.5394 15.1821 41.0748 15.9068 41.0748 16.7237V61.536ZM42.698 31.6511L54.4136 43.0267L42.698 54.406V31.6511ZM55.5585 41.9145L42.6942 29.423V16.7237C42.6942 16.6042 42.6848 16.4839 42.6717 16.3645C42.6679 16.3326 42.6651 16.3016 42.6586 16.2697C42.6454 16.1657 42.6258 16.0645 42.6032 15.9643C42.6004 15.9479 42.5967 15.936 42.5939 15.9196C42.5676 15.8065 42.532 15.6962 42.4935 15.5859C42.4832 15.5577 42.4738 15.5321 42.4607 15.5039C42.4251 15.4127 42.3857 15.3243 42.3435 15.2359C42.3341 15.2167 42.3247 15.1948 42.3144 15.1757C42.2629 15.0718 42.2038 14.9742 42.1428 14.8767C42.1297 14.8548 42.1138 14.832 42.1006 14.8138C42.0453 14.7344 41.99 14.656 41.9281 14.5804C41.9122 14.5612 41.8962 14.5393 41.8793 14.5202C41.8053 14.4318 41.7274 14.347 41.643 14.2649C41.6299 14.2522 41.614 14.2367 41.5971 14.2239C41.523 14.1546 41.448 14.0881 41.3674 14.0252C41.3542 14.0161 41.3439 14.0033 41.3308 13.9942L52.9208 2.738L74.4072 23.6048L55.5557 41.9145H55.5585Z" fill="#2C9FF6"/>
</g>
</svg>
