<svg width="203" height="56" viewBox="0 0 203 56" fill="none" xmlns="http://www.w3.org/2000/svg">
<path d="M15.4676 1.82461C19.4684 0.31196 23.897 -0.172291 28.1652 0.401386C34.1061 1.17754 39.6776 4.10076 43.5225 8.40925C45.5589 10.6719 47.1261 13.3049 48.0997 16.121C49.3066 19.5884 49.5939 23.3257 48.9743 26.9247C48.424 30.1457 47.1243 33.2537 45.1834 35.9626C43.6991 38.0414 41.8455 39.8864 39.7325 41.4143C39.5506 41.5467 39.3903 41.7019 39.23 41.8563C36.6883 44.275 33.3441 45.9168 29.7928 46.5647C29.3379 46.6516 28.8795 46.7199 28.421 46.7824C28.5714 47.383 28.7894 47.9668 29.0389 48.538C28.8732 48.6915 28.7074 48.8467 28.5417 49.002C28.0941 48.7674 27.4663 48.8991 27.2331 49.3428C26.9313 49.8321 27.2988 50.5172 27.8941 50.5897C28.376 50.6749 28.7957 50.3754 29.0974 50.0591C29.2902 50.7989 29.228 51.6038 28.8317 52.277C28.0527 53.6429 26.617 54.5801 25.1048 55.1327C24.8877 55.1985 24.658 55.3386 24.4284 55.2365C22.8369 54.7177 21.3157 53.788 20.451 52.401C20.0007 51.7033 19.9025 50.8496 20.1142 50.065C20.4159 50.4168 20.9014 50.7002 21.3976 50.572C21.9218 50.4539 22.2325 49.8574 22.0002 49.3993C21.8038 48.9463 21.1797 48.7523 20.7248 48.9826C20.5456 48.8307 20.3754 48.6696 20.2051 48.5084C20.5924 47.885 20.9545 47.2447 21.2139 46.5639C20.2745 46.3917 19.3576 46.1302 18.4389 45.8889C17.232 46.2989 15.8882 46.3698 14.6579 46.007C12.7737 45.4831 11.2561 43.9983 10.7481 42.2233C6.95811 39.8113 3.91386 36.3861 2.07559 32.4548C0.452589 29.0119 -0.236422 25.1918 0.0716066 21.4402C0.390443 17.4202 1.88015 13.4905 4.32906 10.1767C7.06349 6.45199 10.9868 3.50515 15.4676 1.82461ZM21.6615 0.988562C17.2798 1.49306 13.0664 3.18119 9.6385 5.78383C5.77464 8.69355 2.90961 12.7506 1.59284 17.2295C0.423768 21.1685 0.442682 25.4078 1.64507 29.3375C3.08524 34.1083 6.28982 38.3847 10.5743 41.2936C10.4671 40.18 10.7553 39.0487 11.3561 38.0861C11.0652 37.8279 10.786 37.5588 10.5212 37.277C10.5851 37.2332 10.6491 37.1893 10.7139 37.1463C10.9877 37.3698 11.2849 37.5672 11.5848 37.7613C12.1982 36.9446 13.0448 36.2883 14.0185 35.8825C12.0883 34.466 10.4833 32.6606 9.35749 30.619C7.86689 27.9742 7.20039 24.9278 7.45799 21.9463C7.71017 18.7886 9.00533 15.7152 11.1093 13.2374C13.3294 10.601 16.444 8.6345 19.8935 7.71662C22.7432 6.95312 25.8028 6.88985 28.684 7.53945C31.6058 8.19412 34.3321 9.58444 36.509 11.524C38.3572 13.1623 39.8154 15.1871 40.7332 17.4118C41.7086 19.7613 42.0707 22.3285 41.7978 24.835C41.4816 27.8282 40.2297 30.7228 38.2491 33.0892C36.1344 35.6302 33.1955 37.5647 29.9152 38.5416C29.5559 38.6328 29.2388 38.8386 29.0227 39.1221C28.4661 39.8434 28.249 40.7436 28.1589 41.6159C31.7607 42.3768 35.6066 42.2326 39.0813 41.0363C42.8389 38.4134 45.7265 34.7098 47.2531 30.5599C48.5284 27.1069 48.8761 23.3594 48.2781 19.7503C47.753 16.5656 46.4704 13.4947 44.5601 10.8162C41.8806 7.04339 37.9582 4.0552 33.4576 2.38817C29.736 0.996998 25.6353 0.522027 21.6615 0.988562ZM21.8408 7.96718C18.6263 8.47505 15.5937 9.91937 13.243 12.0318C10.758 14.2456 9.03506 17.2009 8.41539 20.362C7.8822 23.0144 8.10917 25.7976 9.07829 28.3403C10.1348 31.1556 12.0847 33.6654 14.6111 35.4834C14.7039 35.5416 14.8011 35.6479 14.9263 35.5948C15.8945 35.3653 16.924 35.3662 17.8868 35.6201C19.4387 36.0141 20.7969 37.0383 21.5237 38.3839C24.8571 38.993 28.3904 38.6032 31.4779 37.277C34.4033 36.0326 36.9188 33.9666 38.6274 31.4188C40.6476 28.4382 41.5068 24.7936 41.0313 21.2925C40.7016 18.7624 39.6794 16.3167 38.0969 14.2447C36.3559 11.9551 33.943 10.1176 31.1861 9.00655C28.2679 7.81701 24.9751 7.45677 21.8408 7.96718ZM12.1847 38.1283C12.4909 38.3004 12.7989 38.4699 13.1106 38.6344C13.877 37.6533 15.1533 37.0332 16.4575 37.067C17.087 37.0653 17.6995 37.2323 18.2705 37.4719C19.0199 37.763 19.7899 38.0059 20.5762 38.1915C19.6548 36.8923 18.0246 36.0605 16.3557 36.0715C14.7138 36.0563 13.1088 36.862 12.1847 38.1283ZM13.7519 38.9601C14.6705 39.3904 15.6009 39.7995 16.5484 40.1724C16.8222 40.2863 17.1501 40.385 17.2852 40.6617C17.5175 41.0675 17.2546 41.6294 16.7709 41.7315C16.4142 41.8344 16.0936 41.6117 15.8054 41.4497C14.9353 40.9199 14.1112 40.3268 13.3177 39.7008C12.9458 40.5065 12.9971 41.4682 13.4141 42.2503C13.805 42.9851 14.5201 43.5141 15.2812 43.8912C17.4734 45.0132 19.8917 45.7244 22.3514 46.1032C24.2942 46.4086 26.2801 46.3816 28.2301 46.1547C30.2791 45.9109 32.2966 45.3777 34.1439 44.5045C35.53 43.8574 36.8072 43.0172 37.9618 42.0529C34.8401 42.8594 31.5175 42.9353 28.3508 42.3127C25.0327 41.68 21.9164 40.3344 19.0469 38.6775C18.3858 38.335 17.7652 37.871 16.9979 37.763C15.7865 37.5461 14.4832 38.0321 13.7519 38.9601ZM11.8893 38.5627C11.3795 39.4688 11.1687 40.5242 11.3408 41.5391C11.5722 43.0897 12.6882 44.4868 14.2022 45.1448C15.1749 45.5844 16.289 45.6865 17.3473 45.5186C16.2359 45.0714 15.1092 44.6294 14.1085 43.9831C13.4393 43.5326 12.8818 42.9168 12.5936 42.1879C12.209 41.243 12.2748 40.1606 12.7251 39.2461C12.4477 39.0166 12.173 38.7846 11.8893 38.5627ZM20.6825 38.847C21.3049 39.1685 21.9407 39.4646 22.5784 39.7573C22.7225 39.5709 22.8855 39.3988 23.0675 39.2452C22.2632 39.1676 21.4733 39.0006 20.6825 38.847ZM24.7355 39.3119C24.1429 39.3077 23.5511 39.5709 23.2125 40.0324C24.5743 40.6187 25.9901 41.0962 27.4402 41.4539C27.5348 40.5723 27.787 39.6873 28.3157 38.9424C27.1394 39.1778 25.9379 39.3035 24.7355 39.3119ZM21.1986 48.2056C21.6156 48.2503 22.0398 48.3777 22.3379 48.6671C22.9846 49.2458 22.9657 50.3316 22.2947 50.8858C21.884 51.2368 21.2913 51.3203 20.7591 51.2317C20.9302 51.991 21.4355 52.6415 22.0353 53.1595C22.7594 53.7829 23.6295 54.2596 24.5626 54.5515C25.1462 54.4452 25.6848 54.1457 26.1982 53.8656C27.2204 53.2556 28.1941 52.3841 28.4463 51.23C27.8716 51.338 27.2304 51.2014 26.8251 50.7897C26.2072 50.1932 26.254 49.1108 26.943 48.5793C27.27 48.311 27.7122 48.2115 28.1382 48.2106C27.9707 47.7677 27.8041 47.3231 27.6942 46.8642C25.7776 47.0456 23.8357 47.0152 21.9362 46.6963C21.7372 47.2177 21.4886 47.7222 21.1986 48.2056Z" fill="#002147"/>
<path d="M19.9364 2.34947C20.1787 2.27607 20.4246 2.2128 20.6714 2.14868C20.4849 3.04379 20.2706 3.93467 20.0994 4.83147C20.2228 5.35199 20.412 5.85649 20.5597 6.37196C20.3453 6.43101 20.1301 6.49091 19.9175 6.55503C19.7518 6.10031 19.6338 5.63124 19.4852 5.17061C19.4464 5.00948 19.3068 4.8998 19.1934 4.78422C18.6719 4.28732 18.1675 3.77523 17.6442 3.28001C17.5695 3.20239 17.4785 3.12984 17.4434 3.02691C17.6604 2.96027 17.8811 2.90627 18.099 2.84216C18.5989 3.31291 19.0817 3.79969 19.5761 4.27551C19.6932 3.63349 19.8292 2.99401 19.9364 2.34947Z" fill="#002147"/>
<path d="M30.1872 2.69367C31.0131 2.53338 31.9336 2.93749 32.2795 3.66724C32.7163 4.59524 32.3848 5.76622 31.5706 6.41836C31.041 6.84946 30.2475 6.93298 29.6099 6.67482C28.929 6.41751 28.4804 5.75863 28.4597 5.07865C28.3931 4.05953 29.0479 2.89868 30.1872 2.69367ZM30.2692 3.26988C29.6405 3.45548 29.2892 4.06628 29.1812 4.6408C29.0767 5.15627 29.2127 5.77466 29.7116 6.07331C30.1863 6.38208 30.8789 6.26819 31.2383 5.85143C31.6886 5.34018 31.921 4.60706 31.6922 3.96336C31.5085 3.42849 30.8429 3.09862 30.2692 3.26988Z" fill="#002147"/>
<path d="M24.4163 3.44309C24.8252 3.28533 25.3062 3.67172 25.1945 4.07498C25.1269 4.47571 24.5424 4.663 24.229 4.38038C23.8903 4.12813 24.002 3.56373 24.4163 3.44309Z" fill="#002147"/>
<path d="M13.0039 4.92005C13.9334 4.46871 14.862 4.01651 15.7906 3.56348C15.8797 3.72799 15.9689 3.8925 16.0572 4.05701C15.6951 4.22995 15.3366 4.40712 14.9773 4.58428C15.551 5.60678 16.1103 6.63687 16.6921 7.65515C16.4913 7.76229 16.2877 7.86437 16.0833 7.96392C15.5087 6.93636 14.9367 5.90712 14.3648 4.87787C14.0027 5.05673 13.6407 5.23558 13.2759 5.40937C13.1849 5.24654 13.094 5.08288 13.0039 4.92005Z" fill="#002147"/>
<path d="M33.0752 7.84681C33.7984 6.68596 34.5307 5.53101 35.2593 4.37354C35.9447 4.7498 36.6292 5.12944 37.3146 5.50655C37.2147 5.66515 37.1138 5.82376 37.0138 5.98236C36.5266 5.70902 36.0357 5.44243 35.5457 5.17247C35.3449 5.48967 35.1494 5.8111 34.9405 6.12494C35.3971 6.39153 35.8709 6.63197 36.3257 6.90278C36.2257 7.05295 36.1294 7.2048 36.0339 7.35666C35.5718 7.10525 35.1116 6.85131 34.6523 6.59569C34.3217 7.11959 33.9921 7.64434 33.6624 8.16824C33.4679 8.05857 33.2724 7.95058 33.0752 7.84681Z" fill="#002147"/>
<path d="M10.6436 6.47986C10.83 6.355 11.0128 6.22592 11.1984 6.10022C12.0531 7.17586 12.9349 8.23126 13.7986 9.301C13.6167 9.43092 13.4356 9.56084 13.2555 9.69245C12.3827 8.62271 11.501 7.55972 10.6436 6.47986Z" fill="#002147"/>
<path d="M121.337 7.08069C122.65 6.82844 124.113 7.11275 125.113 7.97748C124.923 8.21876 124.711 8.44317 124.515 8.68108C123.941 8.29047 123.268 8.00617 122.554 7.96145C121.936 7.91758 121.261 8.00954 120.775 8.39509C120.305 8.75954 120.143 9.41083 120.356 9.94064C120.484 10.2384 120.744 10.4671 121.025 10.6409C121.966 11.2078 123.08 11.471 123.991 12.0843C124.591 12.4842 125.07 13.0832 125.18 13.7775C125.306 14.5731 125.091 15.4353 124.516 16.0461C124.1 16.4983 123.511 16.786 122.895 16.9159C121.474 17.2171 119.923 16.8543 118.8 15.9896C118.988 15.7314 119.178 15.4733 119.358 15.2092C120.079 15.6259 120.874 15.9837 121.732 16.036C122.298 16.0545 122.907 15.971 123.366 15.6361C123.88 15.2623 124.063 14.5975 123.96 14.0146C123.863 13.5287 123.468 13.1541 123.044 12.89C122.027 12.2623 120.781 11.9974 119.859 11.2306C118.923 10.4679 118.855 9.03119 119.563 8.11246C119.98 7.56578 120.643 7.21989 121.337 7.08069Z" fill="#002147"/>
<path d="M160.291 7.03057C161.374 6.90571 162.519 7.11831 163.415 7.71561C164.665 8.52551 165.34 9.93102 165.467 11.3205C165.62 12.8905 165.234 14.5997 164.038 15.764C162.705 17.091 160.403 17.3863 158.706 16.5249C157.372 15.866 156.532 14.5424 156.286 13.1748C156.012 11.6352 156.262 9.94451 157.269 8.66639C157.977 7.75695 159.1 7.15712 160.291 7.03057ZM159.962 8.08091C159.348 8.23108 158.795 8.57866 158.405 9.04519C157.853 9.68973 157.589 10.5089 157.5 11.3205C157.406 12.2215 157.491 13.1563 157.87 13.9965C158.138 14.6014 158.571 15.1523 159.153 15.5227C160.281 16.2626 161.962 16.1672 162.961 15.2687C163.606 14.6993 163.952 13.8936 164.109 13.0896C164.279 12.1439 164.266 11.1509 163.939 10.2356C163.699 9.56319 163.265 8.9372 162.643 8.52213C161.881 8.00329 160.865 7.86156 159.962 8.08091Z" fill="#002147"/>
<path d="M62.199 7.17229C62.607 7.17144 63.0159 7.17651 63.4248 7.16638C63.4492 9.3666 63.4203 11.5668 63.4392 13.767C63.4419 14.3348 63.578 14.9431 64.022 15.3582C64.6407 15.9411 65.5909 16.0938 66.4322 15.9799C67.1257 15.8897 67.7922 15.5033 68.0984 14.9001C68.3263 14.4428 68.3425 13.9257 68.3596 13.4296C68.3776 11.3424 68.3533 9.25524 68.3731 7.16807C68.7766 7.17482 69.1792 7.17229 69.5836 7.17229C69.5836 8.61239 69.5827 10.0516 69.5836 11.4917C69.5674 12.4484 69.6277 13.411 69.4944 14.3627C69.4053 15.0199 69.127 15.6754 68.5965 16.1292C67.8354 16.8075 66.742 17.0429 65.717 17.0066C64.6164 16.9788 63.4645 16.5722 62.7989 15.7167C62.3035 15.0873 62.2125 14.2774 62.2044 13.519C62.1927 11.4032 62.2017 9.28814 62.199 7.17229Z" fill="#002147"/>
<path d="M73.5505 7.17342C73.972 7.17342 74.3944 7.17258 74.8168 7.17511C76.4777 9.81571 78.1169 12.4698 79.7957 15.1003C79.8029 12.458 79.7768 9.81571 79.7723 7.17342C80.1515 7.17427 80.5325 7.16921 80.9134 7.18017C80.8981 10.3978 80.9198 13.6163 80.9017 16.834C80.4712 16.8255 80.0407 16.8357 79.6111 16.8247C77.9683 14.1875 76.3164 11.5553 74.6547 8.92905C74.6592 11.5637 74.6835 14.1993 74.679 16.834C74.3025 16.8281 73.9261 16.8298 73.5505 16.8306C73.5496 13.6113 73.5496 10.3928 73.5505 7.17342Z" fill="#002147"/>
<path d="M85.2151 16.835C85.2016 13.6132 85.2016 10.3905 85.216 7.16858C85.6258 7.17702 86.0374 7.1728 86.4481 7.17364C86.449 10.3921 86.449 13.6115 86.4481 16.83C86.0374 16.83 85.6258 16.8258 85.2151 16.835Z" fill="#002147"/>
<path d="M89.1885 7.17246C89.619 7.17246 90.0504 7.17246 90.4809 7.17246C91.4861 10.0147 92.4849 12.8586 93.4928 15.7C94.5204 12.8552 95.5544 10.0122 96.592 7.17078C96.9901 7.17331 97.39 7.17162 97.789 7.17246C96.5821 10.391 95.3716 13.6086 94.1674 16.828C93.6927 16.8305 93.2172 16.8296 92.7425 16.8288C91.5599 13.6095 90.372 10.3918 89.1885 7.17246Z" fill="#002147"/>
<path d="M100.594 7.17533C102.461 7.16773 104.328 7.18208 106.196 7.16858C106.208 7.49169 106.206 7.81565 106.199 8.13877C104.738 8.13286 103.275 8.13877 101.813 8.13539C101.81 9.19838 101.812 10.2605 101.812 11.3227C103.189 11.3269 104.565 11.3134 105.942 11.3294C105.932 11.6357 105.932 11.9419 105.943 12.2482C104.567 12.2802 103.189 12.2541 101.812 12.2617C101.809 13.452 101.818 14.6424 101.809 15.832C103.315 15.8463 104.821 15.8328 106.327 15.8387C106.326 16.1694 106.326 16.4993 106.326 16.8291C104.415 16.8283 102.504 16.8334 100.593 16.8266C100.598 13.6098 100.596 10.393 100.594 7.17533Z" fill="#002147"/>
<path d="M109.604 16.8236C109.625 13.6051 109.594 10.3857 109.621 7.16638C110.747 7.18663 111.875 7.15373 113.002 7.19591C113.709 7.2305 114.458 7.38404 114.986 7.85901C115.839 8.58201 116.066 9.80445 115.697 10.8008C115.386 11.62 114.514 12.1515 113.621 12.2755C114.238 12.3556 114.663 12.8365 114.908 13.3376C115.491 14.4917 116.027 15.6652 116.586 16.8303C116.159 16.8312 115.733 16.8253 115.307 16.8354C114.813 15.8525 114.379 14.8435 113.875 13.8641C113.63 13.4026 113.318 12.8913 112.751 12.7403C112.125 12.5851 111.468 12.6425 110.828 12.629C110.828 14.0294 110.828 15.4299 110.828 16.8295C110.42 16.8286 110.012 16.8345 109.604 16.8236ZM110.828 8.10114C110.828 9.30249 110.828 10.5047 110.828 11.706C111.611 11.6951 112.409 11.7558 113.177 11.5727C113.665 11.458 114.124 11.1804 114.377 10.7637C114.746 10.174 114.723 9.38854 114.328 8.81486C113.995 8.35423 113.391 8.14501 112.817 8.11717C112.155 8.08258 111.49 8.10957 110.828 8.10114Z" fill="#002147"/>
<path d="M128.636 7.17456C129.049 7.17456 129.463 7.17456 129.877 7.17456C129.878 10.3931 129.878 13.6116 129.877 16.8309C129.463 16.8309 129.049 16.8309 128.636 16.8301C128.636 13.6116 128.636 10.3931 128.636 7.17456Z" fill="#002147"/>
<path d="M132.652 7.17562C135.108 7.17393 137.562 7.17477 140.017 7.17477C140.016 7.49536 140.016 7.81678 140.017 8.13737C138.998 8.13652 137.98 8.13906 136.962 8.13652C136.958 11.0344 136.961 13.9332 136.96 16.8311C136.55 16.832 136.141 16.8252 135.733 16.8387C135.701 13.9374 135.737 11.0344 135.715 8.13315C134.694 8.14327 133.673 8.13484 132.652 8.13737C132.652 7.81678 132.652 7.4962 132.652 7.17562Z" fill="#002147"/>
<path d="M141.458 7.17447C141.933 7.17532 142.407 7.16772 142.883 7.18038C143.71 8.68797 144.567 10.1804 145.4 11.6854C146.263 10.2006 147.051 8.677 147.882 7.17447C148.329 7.17278 148.778 7.17363 149.227 7.17447C148.158 9.08279 147.088 10.9903 146.019 12.8977C145.945 13.0108 145.95 13.1441 145.951 13.2715C145.955 14.4576 145.951 15.6438 145.953 16.83C145.543 16.83 145.132 16.835 144.723 16.8249C144.725 15.5552 144.745 14.283 144.713 13.0142C143.653 11.0569 142.532 9.12666 141.458 7.17447Z" fill="#002147"/>
<path d="M168.897 7.17456C170.724 7.17456 172.55 7.17456 174.376 7.17456C174.375 7.49514 174.375 7.81657 174.376 8.13716C172.96 8.138 171.545 8.13716 170.129 8.13716C170.129 9.1993 170.13 10.2606 170.128 11.3228C171.459 11.3295 172.791 11.3143 174.123 11.3295C174.114 11.6383 174.114 11.947 174.122 12.255C172.791 12.2735 171.459 12.2575 170.129 12.2634C170.13 13.7862 170.129 15.3081 170.129 16.8309C169.718 16.8309 169.307 16.8309 168.897 16.8309C168.897 13.6116 168.897 10.3931 168.897 7.17456Z" fill="#002147"/>
<path d="M7.42367 9.64244C7.53805 8.91269 8.24868 8.34155 9.01425 8.24622C9.05928 8.42591 9.09621 8.6073 9.13133 8.78868C8.65218 8.86545 8.15591 9.16326 8.05864 9.63654C7.99289 9.9335 8.31803 10.2085 8.62786 10.1318C9.20519 10.0179 9.71406 9.65004 10.3238 9.66944C11.0543 9.6745 11.646 10.4034 11.456 11.0648C11.2551 11.7769 10.5274 12.2738 9.77081 12.3851C9.72487 12.2054 9.67714 12.0257 9.6276 11.8469C10.0878 11.7271 10.6165 11.5314 10.7859 11.0707C10.939 10.7358 10.6345 10.3072 10.2374 10.3477C9.63661 10.395 9.13223 10.7932 8.52248 10.8075C7.88391 10.8328 7.31919 10.2338 7.42367 9.64244Z" fill="#002147"/>
<path d="M38.4414 8.62965C38.8107 8.44068 39.3132 8.73342 39.2934 9.12909C39.3123 9.54754 38.7467 9.83522 38.3829 9.59141C38.001 9.38303 38.037 8.79585 38.4414 8.62965Z" fill="#002147"/>
<path d="M41.7097 11.0356C42.1339 10.9284 42.5995 10.9259 43.0103 11.0854C43.8983 11.4144 44.4459 12.4293 44.1217 13.2864C43.8118 14.1124 42.9463 14.6869 42.0447 14.8311C41.353 14.9476 40.6091 14.6649 40.2074 14.1233C39.8516 13.6787 39.7246 13.0721 39.9192 12.5423C40.1858 11.7923 40.9153 11.249 41.7097 11.0356ZM41.9817 11.6287C41.3179 11.8168 40.6559 12.2673 40.4947 12.9313C40.3299 13.5809 40.9387 14.2921 41.662 14.2355C42.3672 14.1807 43.0661 13.8053 43.4255 13.2265C43.7371 12.7313 43.5434 12.0446 43.0337 11.735C42.7256 11.5435 42.3275 11.5384 41.9817 11.6287Z" fill="#002147"/>
<path d="M19.1951 11.2799C19.2447 11.2748 19.3447 11.2647 19.3951 11.2596C19.877 11.8704 20.3543 12.4871 20.7965 13.1241C20.5714 13.1747 20.3435 13.2152 20.1174 13.2625C20.3696 13.6843 20.6858 14.069 20.9704 14.4722C21.3982 14.1812 21.8017 13.8572 22.1845 13.5164C22.0106 13.4312 21.8305 13.3578 21.6621 13.2641C21.681 13.1486 21.8035 13.0979 21.8908 13.033C22.3142 12.7596 22.7357 12.4829 23.1545 12.2028C23.2707 12.1235 23.3977 12.0493 23.5481 12.0484C23.2229 13.0693 22.8456 14.074 22.4997 15.0889C21.4261 14.7464 20.275 14.7194 19.1519 14.7101C18.1369 14.7397 17.0921 14.7658 16.1266 15.0923C15.7636 14.0842 15.4096 13.0735 15.0674 12.0586C15.3475 12.0425 15.5393 12.2644 15.7636 12.3842C16.1896 12.682 16.6859 12.9014 17.0597 13.2608C16.8786 13.3401 16.6913 13.4101 16.5274 13.5189C16.8588 13.8716 17.2605 14.1601 17.6307 14.4765C17.9324 14.0791 18.2594 13.691 18.4917 13.2523C18.2684 13.2135 18.045 13.1789 17.8252 13.1249C18.2503 12.4905 18.7439 11.8983 19.1951 11.2799Z" fill="#002147"/>
<path d="M28.9003 12.5255C29.22 12.1011 29.5434 11.6793 29.8604 11.2533C30.1621 11.2465 30.2522 11.5612 30.4197 11.7392C30.7439 12.2133 31.1628 12.6335 31.4249 13.1422C31.206 13.1785 30.988 13.2122 30.771 13.2536C31.0033 13.6855 31.3366 14.0592 31.6113 14.4676C32.049 14.1892 32.4417 13.8509 32.8317 13.5176C32.6534 13.4265 32.4696 13.3447 32.2859 13.2645C32.4678 13.0308 32.756 12.906 32.9965 12.7347C33.3433 12.5171 33.6675 12.2673 34.0278 12.0691C34.0719 12.0682 34.1584 12.0649 34.2016 12.0632C33.8558 13.073 33.4955 14.0786 33.1469 15.0868C32.095 14.751 30.9673 14.7215 29.8667 14.708C28.8255 14.7308 27.76 14.7654 26.7666 15.0876C26.4153 14.0786 26.0578 13.0722 25.7119 12.0623C26.0289 12.0455 26.2478 12.3112 26.5063 12.4445C26.8981 12.7238 27.3736 12.9127 27.697 13.2662C27.5124 13.3405 27.3295 13.4198 27.1521 13.5092C27.5106 13.8239 27.8618 14.1495 28.2428 14.4397L28.3094 14.4347C28.613 14.0719 28.8634 13.6745 29.1489 13.3C28.9507 13.1886 28.7147 13.1827 28.4932 13.1456C28.576 12.911 28.7526 12.7246 28.9003 12.5255Z" fill="#002147"/>
<path d="M4.91588 12.7551C5.11493 12.4623 5.42566 12.2016 5.81295 12.1873C6.52177 12.1105 7.29725 12.7247 7.1 13.4249C7.43595 13.2688 7.81513 13.3406 8.1727 13.3633C8.5834 13.3988 8.99501 13.4258 9.40571 13.4654C9.27512 13.6561 9.15713 13.8535 9.04635 14.0551C8.47893 14.0281 7.91331 13.9269 7.34408 13.948C6.98202 13.9691 6.84421 14.3268 6.6902 14.5782C7.21799 14.8405 7.73948 15.113 8.26457 15.3813C8.15649 15.5678 8.04661 15.7534 7.93222 15.9364C6.67579 15.2894 5.41485 14.649 4.14941 14.0163C4.3989 13.5928 4.63758 13.1625 4.91588 12.7551ZM5.54635 12.9145C5.28786 13.1305 5.15456 13.4409 4.97262 13.7101C5.37612 13.9176 5.78142 14.1218 6.18763 14.3251C6.34614 14.0416 6.5524 13.7598 6.56681 13.4291C6.57671 12.9795 5.93904 12.6294 5.54635 12.9145Z" fill="#002147"/>
<path d="M45.6835 15.0624C45.7736 15.2885 45.8547 15.5171 45.9375 15.7449C45.5718 16.1785 45.1386 16.5607 44.7973 17.012C45.371 17.1251 45.9438 17.244 46.5139 17.3773C46.5806 17.5933 46.6562 17.8076 46.731 18.0219C45.9429 17.8388 45.153 17.6616 44.3631 17.487C43.8074 18.1155 43.2382 18.7339 42.6924 19.3709C42.5933 19.1448 42.5114 18.9128 42.4438 18.6782C42.8743 18.2286 43.2895 17.7671 43.7039 17.3048C43.0851 17.1571 42.4537 17.0542 41.8386 16.8956C41.7008 16.705 41.6701 16.4544 41.5801 16.2401C42.4384 16.4198 43.2877 16.6408 44.1497 16.8045C44.6433 16.2106 45.1846 15.6521 45.6835 15.0624Z" fill="#002147"/>
<path d="M17.5153 15.4845C18.5763 15.3496 19.6535 15.3462 20.7181 15.4398C21.1883 15.4947 21.6728 15.5411 22.1069 15.73C22.242 15.768 22.3636 15.9477 22.1979 16.0312C21.9133 16.2084 21.562 16.2531 21.2324 16.313C20.1543 16.4648 19.0546 16.4724 17.9693 16.3822C17.4937 16.3341 17.0083 16.2835 16.5642 16.1097C16.4435 16.0717 16.3742 15.9679 16.2949 15.8836C16.6246 15.5976 17.0929 15.5554 17.5153 15.4845Z" fill="#002147"/>
<path d="M27.1256 15.748C27.5877 15.5321 28.1155 15.4907 28.6207 15.4325C29.7862 15.3423 30.9715 15.3448 32.1252 15.5456C32.427 15.619 32.8089 15.6544 32.9692 15.9446C32.6053 16.2239 32.1225 16.2753 31.6749 16.342C30.477 16.4795 29.2575 16.4786 28.0623 16.3175C27.7138 16.2509 27.3274 16.2163 27.0374 16.0045C26.9158 15.9261 27.0284 15.7869 27.1256 15.748Z" fill="#002147"/>
<path d="M2.49121 18.5633C2.72719 17.8192 2.96766 17.076 3.19733 16.3311C3.38828 16.3758 3.57922 16.423 3.76926 16.4719C3.59543 17.0119 3.4198 17.551 3.24507 18.0901C3.63056 18.182 4.01244 18.2841 4.39612 18.3836C4.55104 17.8935 4.66993 17.3932 4.85727 16.914C5.0347 16.9663 5.21213 17.0169 5.39046 17.0676C5.24365 17.5543 5.09594 18.0403 4.95003 18.5271C5.38416 18.6325 5.81648 18.7489 6.2497 18.8595C6.40551 18.3296 6.57214 17.8032 6.72525 17.2726C6.91889 17.3181 7.11164 17.367 7.30528 17.4151C7.09452 18.1567 6.87116 18.894 6.655 19.6339C5.26887 19.2703 3.87824 18.9236 2.49121 18.5633Z" fill="#002147"/>
<path d="M16.543 18.0496C18.1651 18.0496 19.7872 18.0504 21.4093 18.0496C22.0605 18.0605 22.7603 18.0487 23.3376 18.3735C23.9996 18.7405 24.2815 19.4897 24.2851 20.1789C24.295 22.9646 24.2842 25.7503 24.2905 28.5352C24.2923 28.7107 24.2833 28.8862 24.2572 29.0599C24.0735 28.8035 24.1338 28.4534 23.9077 28.2129C23.5213 27.7261 22.8107 27.6814 22.2172 27.6646C20.3267 27.6595 18.4362 27.6603 16.5466 27.6637C16.5394 24.4596 16.5457 21.2546 16.543 18.0496ZM17.168 19.5757C17.2131 19.6221 17.3022 19.7158 17.3464 19.7622C17.3752 20.0718 17.3671 20.3848 17.3545 20.6961C17.3743 20.826 17.2131 20.869 17.141 20.95C17.5544 20.9374 18.0138 21.0192 18.3839 20.8015C18.8127 20.5636 18.8325 19.8617 18.3542 19.6626C17.9795 19.52 17.5616 19.5892 17.168 19.5757ZM19.354 19.6086C18.8054 19.8195 18.7514 20.6522 19.2918 20.9019C19.7782 21.1626 20.4636 20.8032 20.4266 20.2658C20.4816 19.7453 19.8376 19.3783 19.354 19.6086ZM20.5627 19.5774C20.6356 19.6584 20.8076 19.6997 20.7815 19.8339C20.7833 20.1165 20.7635 20.3991 20.7293 20.68C20.7347 20.8083 20.6023 20.8699 20.523 20.9534C20.732 20.9551 20.9436 20.961 21.1499 20.9196C21.0931 20.8893 20.9788 20.8285 20.9211 20.7981C20.8878 20.5307 20.9103 20.2607 20.9202 19.9925C21.1003 20.2903 21.1904 20.626 21.3498 20.9331C21.3769 20.9298 21.4309 20.9239 21.4579 20.9213C21.6254 20.5872 21.7227 20.2262 21.9073 19.8997C21.9155 20.2 21.9137 20.5012 21.9091 20.8024C21.8551 20.8386 21.7479 20.9095 21.6939 20.9449C21.956 20.9534 22.2172 20.9525 22.4793 20.9517C22.4324 20.9044 22.3379 20.81 22.2901 20.7627C22.2577 20.4295 22.2478 20.0929 22.2586 19.7579C22.3081 19.7115 22.4072 19.6196 22.4577 19.5732C22.2631 19.574 22.0695 19.5749 21.8758 19.574C21.7614 19.8524 21.6462 20.1308 21.5345 20.4101C21.3949 20.1334 21.2634 19.8533 21.1337 19.5732C20.9427 19.574 20.7527 19.5749 20.5627 19.5774ZM22.5702 19.5774C22.8558 19.7107 22.7639 20.0195 22.7801 20.2599C22.7639 20.5029 22.8558 20.8083 22.5747 20.9508C22.8377 20.9517 23.1007 20.9517 23.3637 20.9534C23.3169 20.9061 23.2232 20.8125 23.1755 20.7661C23.1485 20.4312 23.1521 20.0929 23.1737 19.7579C23.2214 19.7174 23.3178 19.6356 23.3664 19.5943C23.1016 19.5673 22.835 19.569 22.5702 19.5774ZM18.0804 22.1168C18.1606 22.2011 18.3245 22.2433 18.3317 22.3724C18.3632 22.693 18.3416 23.0152 18.3236 23.3358C18.2732 23.3738 18.1705 23.4489 18.12 23.4868C18.3326 23.4995 18.5461 23.4987 18.7577 23.4708C18.3038 23.3561 18.5361 22.8398 18.4803 22.5251C18.7784 22.833 19.0342 23.1747 19.3125 23.4987C19.3594 23.5071 19.4521 23.524 19.4981 23.5316C19.553 23.103 19.4629 22.6634 19.5638 22.2416L19.7647 22.1834C19.5638 22.0746 19.3269 22.1218 19.1072 22.1201C19.5107 22.2517 19.3495 22.6837 19.3828 22.9866C19.1153 22.7065 18.8739 22.4061 18.6208 22.1159C18.4407 22.1168 18.2605 22.1159 18.0804 22.1168ZM19.8115 22.2113C20.1916 22.5563 20.1601 23.1654 20.5005 23.5223L20.6005 23.5003C20.868 23.0498 20.8977 22.4534 21.3489 22.1168C21.1445 22.1168 20.9391 22.1168 20.7347 22.1159C20.7833 22.1564 20.8797 22.2374 20.9283 22.2779C20.8563 22.5285 20.7581 22.7714 20.6626 23.0152C20.5221 22.7714 20.4285 22.5074 20.3285 22.2484C20.3816 22.2172 20.4897 22.1547 20.5428 22.1227C20.2798 22.1168 20.0168 22.1168 19.7548 22.1075C19.7683 22.1328 19.7971 22.1851 19.8115 22.2113ZM21.6137 22.1649C21.3967 22.2813 21.3318 22.6019 21.5219 22.7664C21.6741 22.887 21.8668 22.9511 22.019 23.0718C22.1235 23.2008 22.0433 23.4177 21.8578 23.4202C21.6182 23.4008 21.539 23.1511 21.3597 23.0372C21.376 23.1772 21.403 23.3156 21.4309 23.4539C21.6534 23.5113 21.9019 23.5687 22.1208 23.4657C22.3631 23.3721 22.4667 23.0684 22.3307 22.8609C22.1866 22.6634 21.8938 22.6348 21.738 22.4525C21.6471 22.2965 21.8659 22.1277 22.019 22.2163C22.1334 22.3041 22.2181 22.4205 22.3172 22.5226C22.3054 22.3918 22.2928 22.261 22.2793 22.1303C22.0596 22.0974 21.8146 22.0434 21.6137 22.1649ZM17.8967 24.6738C17.9516 24.7067 18.0615 24.7726 18.1164 24.8055C18.1308 25.164 18.129 25.5234 18.1191 25.8819C18.0444 25.9275 17.9705 25.9731 17.8967 26.0186C18.1678 26.0405 18.4389 26.038 18.7109 26.0372C18.6487 25.9688 18.5632 25.9165 18.5217 25.8347C18.4938 25.4947 18.5136 25.1539 18.5172 24.8139C18.5884 24.7624 18.6595 24.711 18.7307 24.6578C18.4524 24.6553 18.1741 24.6544 17.8967 24.6738ZM18.7955 24.6671C18.8658 24.7101 18.9351 24.7531 19.0063 24.7962C19.0216 25.1556 19.0441 25.5183 19.0027 25.876C18.9496 25.9115 18.8433 25.9815 18.7901 26.0161C19.1747 26.054 19.5611 26.0279 19.9466 26.0422C19.9817 25.903 20.0114 25.7638 20.0367 25.6229C19.8799 25.817 19.7016 25.9899 19.4161 25.9165C19.408 25.5774 19.3909 25.2366 19.4152 24.8974C19.4116 24.7759 19.5539 24.7278 19.6269 24.6511C19.3495 24.6587 19.072 24.6561 18.7955 24.6671ZM20.0628 24.6646C20.1339 24.7135 20.2051 24.7633 20.2762 24.813C20.2807 25.1556 20.2997 25.4989 20.2735 25.8414C20.2213 25.8887 20.1159 25.9849 20.0637 26.033C20.4492 26.0372 20.8347 26.0372 21.221 26.0355C21.2481 25.8988 21.2733 25.7613 21.2949 25.6246C21.14 25.8161 20.9643 25.9857 20.6824 25.925C20.6707 25.5841 20.6545 25.2425 20.6779 24.9025C20.6716 24.7793 20.8139 24.7287 20.8878 24.6511C20.6122 24.6587 20.3375 24.6578 20.0628 24.6646ZM21.0292 24.6536C21.1202 24.7363 21.2382 24.8046 21.285 24.9227C21.4507 25.2897 21.5903 25.6677 21.7434 26.0405C21.7858 26.0465 21.8722 26.06 21.9146 26.0659C22.0857 25.6837 22.2244 25.288 22.4117 24.9126C22.4649 24.7995 22.5838 24.7346 22.6765 24.6536C22.4631 24.6587 22.2496 24.6578 22.0361 24.657C22.092 24.6949 22.2019 24.7692 22.2577 24.8071C22.1631 25.0661 22.0704 25.326 21.9767 25.585C21.8578 25.3285 21.7542 25.0661 21.6462 24.8055C21.6966 24.7683 21.7975 24.6933 21.8479 24.6561C21.5741 24.6578 21.3012 24.6603 21.0292 24.6536Z" fill="#002147"/>
<path d="M25.7446 18.511C26.2625 18.1019 26.9749 18.0656 27.6216 18.0521C29.341 18.047 31.0603 18.0513 32.7797 18.0504C32.7833 21.252 32.7734 24.4537 32.7842 27.6544C31.1225 27.6713 29.4608 27.657 27.7981 27.662C27.1596 27.6705 26.4904 27.6182 25.8842 27.8468C25.5032 27.9877 25.2213 28.326 25.1673 28.7065C25.1195 28.8094 25.1664 28.9798 25.0286 29.0279C25.0061 28.9199 24.9952 28.8119 24.9961 28.7023C25.0015 25.8904 24.9952 23.0785 24.9988 20.2667C24.9952 19.6255 25.1916 18.9286 25.7446 18.511ZM25.9662 19.5757C26.0427 19.6314 26.1139 19.6921 26.1796 19.7588C26.1922 20.065 26.1652 20.3713 26.131 20.6758C26.1373 20.8032 26.0076 20.8673 25.9292 20.9525C26.122 20.9517 26.3138 20.9517 26.5066 20.9534L26.5111 20.8926C26.4633 20.8682 26.3679 20.8176 26.3201 20.7931C26.2904 20.5257 26.3111 20.2565 26.3246 19.9899C26.4994 20.2886 26.5912 20.6201 26.7479 20.9264C26.775 20.9264 26.8299 20.9247 26.8569 20.9239C27.0236 20.5889 27.1253 20.2279 27.3082 19.8997C27.3154 20.2009 27.3154 20.502 27.3091 20.8032C27.2559 20.8387 27.1505 20.9104 27.0974 20.9458C27.3595 20.9525 27.6216 20.9525 27.8837 20.9517C27.836 20.9045 27.7396 20.81 27.6918 20.7627C27.6585 20.427 27.6513 20.0887 27.6576 19.752C27.7108 19.7082 27.817 19.6196 27.8702 19.5757C27.672 19.5749 27.4748 19.5749 27.2766 19.574C27.165 19.8448 27.0551 20.1165 26.9452 20.3881C26.7813 20.1317 26.6642 19.8533 26.5426 19.5783C26.3499 19.574 26.158 19.5749 25.9662 19.5757ZM27.9846 19.5749C28.0296 19.6238 28.1206 19.7217 28.1656 19.7714C28.1881 20.1005 28.189 20.4337 28.1647 20.7636C28.1161 20.81 28.0179 20.9036 27.9693 20.9509C28.2377 20.9517 28.506 20.9509 28.7753 20.9525C28.7258 20.9061 28.6267 20.8142 28.5772 20.7678C28.5502 20.4345 28.552 20.0979 28.5754 19.7647C28.6249 19.7166 28.7231 19.6221 28.7717 19.574C28.5097 19.574 28.2467 19.574 27.9846 19.5749ZM28.8105 19.5799C28.8978 19.6365 28.9789 19.7006 29.0528 19.7723C29.0924 20.0473 29.0771 20.3266 29.0681 20.6033C29.0915 20.7585 28.996 20.8682 28.8492 20.9298C29.069 20.9652 29.2941 20.9635 29.5112 20.9146C29.4436 20.8918 29.3085 20.8462 29.2401 20.8226C29.2068 20.5468 29.2032 20.2684 29.2167 19.9908C29.4247 20.2034 29.6085 20.4362 29.7967 20.6657C29.9174 20.8049 30.0228 20.9947 30.2443 20.9897C30.2542 20.6033 30.229 20.216 30.2615 19.8305C30.2497 19.6989 30.4065 19.6559 30.4839 19.5749C30.266 19.574 30.0489 19.5749 29.8327 19.5791C29.9165 19.6331 29.9985 19.6896 30.0795 19.7487C30.1209 19.9798 30.1056 20.2169 30.1128 20.4506C29.848 20.1629 29.6031 19.8592 29.341 19.569C29.1635 19.5732 28.987 19.5757 28.8105 19.5799ZM30.3767 20.9517C30.5812 20.9525 30.7856 20.95 30.9901 20.9441C30.9361 20.912 30.828 20.8462 30.773 20.8133C30.8046 20.7214 30.8361 20.6294 30.8667 20.5375C30.9892 20.5349 31.1117 20.5333 31.2342 20.5307C31.2693 20.6277 31.3026 20.7248 31.3378 20.8226C31.2909 20.853 31.1963 20.9137 31.1486 20.9441C31.4125 20.9542 31.6773 20.9525 31.9421 20.95C31.852 20.8656 31.7322 20.8007 31.6899 20.6826C31.5224 20.3105 31.4107 19.9191 31.2369 19.5496L31.1297 19.558C30.8127 19.9874 30.8253 20.605 30.3767 20.9517ZM26.9785 22.0704C26.974 22.2273 26.9704 22.3842 26.9695 22.5411C27.0704 22.3716 27.1911 22.2121 27.418 22.2045C27.4289 22.5833 27.4289 22.9629 27.4153 23.3417C27.3559 23.3763 27.237 23.4464 27.1776 23.4818C27.4757 23.5003 27.7747 23.5003 28.0728 23.4801C28.0098 23.4455 27.8828 23.378 27.8188 23.3443C27.8053 22.9638 27.8044 22.5833 27.8179 22.2037C28.0404 22.2079 28.1575 22.3775 28.2701 22.5318C28.271 22.3834 28.2647 22.2349 28.2521 22.0864C27.8296 22.1193 27.3973 22.153 26.9785 22.0704ZM28.3899 22.1218C28.4619 22.175 28.5349 22.2281 28.6087 22.2804C28.6015 22.6246 28.6312 22.9697 28.5943 23.3131C28.5475 23.3578 28.4538 23.4464 28.407 23.4911C28.6745 23.4953 28.942 23.497 29.2104 23.4843C29.1581 23.448 29.0537 23.3738 29.0014 23.3367C28.996 23.0127 28.9816 22.6879 29.0014 22.3648C28.9861 22.2399 29.1356 22.1952 29.205 22.1151C28.933 22.1159 28.661 22.1142 28.3899 22.1218ZM29.7328 22.1826C29.3365 22.3943 29.2356 22.952 29.5256 23.2793C29.7886 23.5839 30.3263 23.605 30.6325 23.346C30.9532 23.0684 30.9613 22.5259 30.6307 22.2526C30.3893 22.051 30.0093 22.04 29.7328 22.1826ZM26.611 24.6553C26.7272 24.743 26.883 24.8266 26.8335 24.9928C26.7921 25.3437 26.8884 25.7571 26.6146 26.0414C26.8101 26.0372 27.0109 26.0541 27.201 25.9992C26.7777 25.9106 27.0082 25.4095 26.983 25.1277C27.1866 25.4188 27.2541 25.7706 27.4379 26.0718C27.6837 25.7326 27.772 25.3218 27.9539 24.9531C27.9035 25.3091 28.1305 25.7799 27.7747 26.0372C28.0314 26.0372 28.2872 26.0355 28.543 26.0321C28.4961 25.9942 28.4016 25.9199 28.3547 25.8828C28.2917 25.5302 28.3178 25.1682 28.3025 24.8114C28.38 24.7599 28.4574 24.7084 28.5358 24.6578C28.3304 24.6578 28.126 24.6587 27.9215 24.6629C27.8125 24.9396 27.6982 25.2146 27.5892 25.4905C27.4397 25.2172 27.3181 24.932 27.1785 24.6544C26.9893 24.6578 26.8002 24.6578 26.611 24.6553ZM28.6141 24.657C28.6655 24.6975 28.7681 24.7768 28.8204 24.8173C28.8249 25.1589 28.8447 25.5015 28.8159 25.8431C28.7582 25.8895 28.6439 25.9823 28.5862 26.0287C28.9897 26.0397 29.3941 26.0389 29.7985 26.033C29.8228 25.8929 29.8453 25.7529 29.8643 25.6137C29.7688 25.7065 29.6859 25.8094 29.5905 25.9014C29.4689 25.9165 29.3464 25.9241 29.2248 25.9233C29.2149 25.7352 29.2113 25.5462 29.2113 25.3572C29.4076 25.353 29.5418 25.4677 29.6427 25.6103C29.6481 25.4247 29.6508 25.2391 29.6472 25.0543C29.5355 25.1809 29.3977 25.2703 29.2158 25.2762C29.2113 25.1075 29.2104 24.9396 29.2086 24.7726C29.459 24.7177 29.6211 24.8662 29.7463 25.0476C29.7445 24.9194 29.7427 24.792 29.7418 24.6654C29.3653 24.6544 28.9897 24.6587 28.6141 24.657ZM29.8562 26.0347C30.048 26.0363 30.2398 26.0363 30.4317 26.0338C30.3704 25.9823 30.3092 25.9326 30.247 25.8836C30.2777 25.7942 30.3074 25.7065 30.3389 25.6179C30.4632 25.6187 30.5893 25.6196 30.7145 25.6204C30.7883 25.7672 30.7983 25.9165 30.6767 26.0439C30.9225 26.0372 31.1693 26.0346 31.4161 26.0254C31.3125 25.9427 31.1855 25.871 31.1468 25.7402C30.9829 25.3597 30.8577 24.9649 30.6848 24.5878C30.247 24.9725 30.3299 25.666 29.8562 26.0347Z" fill="#002147"/>
<path d="M12.9507 18.683C13.1849 18.3649 13.7604 18.3548 13.9774 18.6939C14.1224 18.9774 14.4926 18.9707 14.7673 19.0677C14.7664 18.9918 14.7655 18.8407 14.7646 18.7648C15.0006 18.764 15.2375 18.764 15.4744 18.764C15.4771 22.1495 15.4735 25.5359 15.4762 28.9223C18.0899 28.9197 20.7036 28.9223 23.3174 28.9214C23.4372 29.2074 23.5921 29.5238 23.9289 29.6301C24.3874 29.776 24.9061 29.776 25.3655 29.6335C25.7077 29.5314 25.8699 29.2116 25.9897 28.9214C28.6115 28.9172 31.2342 28.929 33.8561 28.9155C33.8471 25.5317 33.8543 22.1478 33.8525 18.764C34.0885 18.764 34.3244 18.764 34.5604 18.7631C34.5631 22.3705 34.5613 25.978 34.5613 29.5854C31.8494 29.5871 29.1375 29.582 26.4256 29.5871C25.987 30.3134 25.0043 30.494 24.1874 30.3691C23.6497 30.3126 23.1589 30.0199 22.8787 29.5862C20.1758 29.5854 17.4738 29.5812 14.7709 29.5888C14.7646 29.3475 14.7655 29.107 14.7655 28.8658C14.5485 28.9484 14.3323 29.0345 14.1215 29.1298C14.0207 29.4251 13.728 29.6832 13.3758 29.6217C12.93 29.5778 12.6652 29.0488 12.9219 28.7021C13.1092 28.4034 13.5325 28.3596 13.8414 28.5089C14.1513 28.3883 14.4611 28.2651 14.7673 28.136C14.7655 27.8719 14.7655 27.6087 14.7655 27.3464C14.5557 27.4054 14.3467 27.4653 14.1396 27.5303C14.0108 27.7985 13.7199 28.0263 13.3875 27.9546C12.9228 27.8964 12.6886 27.3143 12.9984 26.9836C13.2155 26.7086 13.6424 26.7043 13.9279 26.8874C14.208 26.8123 14.4854 26.7322 14.7646 26.6537C14.7664 26.3812 14.7655 26.1087 14.7664 25.8362C14.553 25.8691 14.3395 25.902 14.127 25.9375C13.9684 26.1636 13.6991 26.361 13.392 26.2901C12.9264 26.2268 12.7021 25.6414 13.0155 25.314C13.2569 25.0187 13.7271 25.0474 14.0054 25.2786C14.2594 25.2415 14.5124 25.2001 14.7655 25.1588C14.7655 24.8812 14.7655 24.6028 14.7664 24.3253C14.5431 24.332 14.3206 24.3396 14.0981 24.3497C13.8613 24.656 13.3452 24.7513 13.0597 24.451C12.7075 24.1363 12.9147 23.5154 13.3947 23.4437C13.664 23.372 13.8865 23.5474 14.0954 23.6757C14.3188 23.6849 14.5422 23.6664 14.7655 23.6596C14.7655 23.3585 14.7655 23.0581 14.7673 22.7578C14.5296 22.7451 14.2918 22.735 14.054 22.7291C13.8757 22.8869 13.6415 23.0269 13.3839 22.9628C12.966 22.897 12.7273 22.4018 12.9579 22.0668C13.1434 21.7412 13.6658 21.6627 13.9414 21.9335C14.1504 22.1512 14.4899 22.0533 14.7655 22.0896C14.7655 21.8121 14.7655 21.5353 14.7664 21.2595C14.5052 21.2139 14.2458 21.1675 13.9837 21.1304C13.7892 21.2612 13.5442 21.3691 13.3037 21.2822C12.912 21.1776 12.7264 20.6934 12.9606 20.3812C13.1659 20.0573 13.7171 20.0016 13.9693 20.3053C14.1414 20.5618 14.4908 20.5187 14.7664 20.5803C14.7655 20.3078 14.7655 20.0353 14.7646 19.762C14.4836 19.6886 14.2098 19.5916 13.9252 19.5325C13.7063 19.5772 13.4857 19.7114 13.2569 19.6161C12.8552 19.5005 12.6859 18.9901 12.9507 18.683Z" fill="#002147"/>
<path d="M17.7499 19.6775C18.3417 19.6252 18.4371 20.4073 18.1309 20.7389C18.0498 20.8367 17.7923 20.9118 17.7625 20.7397C17.7229 20.3871 17.7508 20.031 17.7499 19.6775Z" fill="#002147"/>
<path d="M19.5333 19.6861C19.7611 19.5646 19.9431 19.8304 19.971 20.0135C20.0124 20.2809 20.0602 20.6234 19.8431 20.836C19.6062 20.9786 19.3973 20.7103 19.3648 20.5129C19.3135 20.2412 19.2775 19.8793 19.5333 19.6861Z" fill="#002147"/>
<path d="M30.8984 20.4018C30.9507 20.2708 31.0047 20.1415 31.0606 20.0122C31.1056 20.1466 31.1515 20.2818 31.1975 20.417C31.0975 20.412 30.9975 20.4069 30.8984 20.4018Z" fill="#002147"/>
<path d="M42.8975 20.7762C44.3295 20.6716 45.7598 20.5476 47.1936 20.4523C47.2405 21.193 47.3197 21.932 47.3792 22.6719C47.1828 22.6871 46.9874 22.7014 46.792 22.7166C46.746 22.1876 46.6983 21.6587 46.6559 21.1289C46.2633 21.155 45.8715 21.193 45.4779 21.2073C45.4977 21.711 45.5598 22.2121 45.5977 22.7141C45.4049 22.7276 45.2131 22.7428 45.0221 22.7554C44.9825 22.2568 44.9366 21.7591 44.8933 21.2613C44.2458 21.3162 43.5982 21.3626 42.9497 21.4073C42.9326 21.1964 42.9155 20.9863 42.8975 20.7762Z" fill="#002147"/>
<path d="M2.06305 20.5245C3.4807 21.0552 4.89295 21.5993 6.3088 22.1351C6.3007 22.3569 6.29079 22.5788 6.27998 22.8015C4.8281 23.2115 3.37442 23.6165 1.91985 24.0189C1.92075 23.7979 1.92165 23.5768 1.91895 23.3566C3.08441 23.042 4.25528 22.7458 5.42074 22.432C4.31742 21.9722 3.16817 21.6111 2.04684 21.1885C2.05224 20.9674 2.05765 20.7456 2.06305 20.5245Z" fill="#002147"/>
<path d="M29.9888 22.222C30.1248 22.1495 30.2815 22.2389 30.3445 22.357C30.4751 22.5941 30.4724 22.8767 30.4283 23.1349C30.4103 23.2766 30.3076 23.4268 30.1365 23.4217C29.8843 23.366 29.8095 23.0969 29.787 22.8877C29.7717 22.6591 29.7717 22.3722 29.9888 22.222Z" fill="#002147"/>
<path d="M44.1389 24.4453C45.1882 24.1897 46.4987 24.5533 46.994 25.5117C47.3687 26.2592 47.1237 27.2488 46.3915 27.7254C45.4206 28.3345 43.9903 28.1413 43.186 27.3652C42.6834 26.8632 42.5871 26.0795 42.8654 25.456C43.0878 24.9549 43.5805 24.5769 44.1389 24.4453ZM44.4217 25.0494C43.8336 25.1211 43.3121 25.5918 43.3211 26.1647C43.2752 26.7012 43.7624 27.1188 44.265 27.28C44.827 27.4732 45.5034 27.5145 46.0285 27.2083C46.5905 26.8894 46.7518 26.0887 46.3239 25.6129C45.8718 25.1059 45.0927 24.9591 44.4217 25.0494Z" fill="#002147"/>
<path d="M30.3721 25.5015C30.4216 25.3621 30.4738 25.2243 30.5261 25.0857C30.5729 25.2209 30.6207 25.3561 30.6702 25.4914C30.5954 25.4939 30.4468 25.499 30.3721 25.5015Z" fill="#002147"/>
<path d="M70.3639 25.3894C73.5279 25.0806 76.8487 25.942 79.2643 27.9119C80.6504 29.0263 81.7249 30.4782 82.3545 32.0854C83.5398 35.1233 83.1858 38.6675 81.3736 41.427C80.1028 43.3809 78.1033 44.8944 75.8156 45.6891C72.1958 46.9512 67.9033 46.5041 64.7473 44.3865C62.5929 42.9608 61.0366 40.7715 60.4646 38.3595C59.7126 35.2288 60.461 31.7656 62.6298 29.2549C64.5014 27.0454 67.3764 25.656 70.3639 25.3894ZM70.6296 26.406C69.4335 26.5409 68.2752 26.9746 67.3259 27.6714C66.1343 28.537 65.2832 29.7569 64.7311 31.0587C63.9745 32.8506 63.726 34.8044 63.8331 36.7212C63.9232 38.3325 64.2682 39.9523 65.0274 41.4102C65.6669 42.6444 66.6405 43.7513 67.9096 44.4557C69.2948 45.2395 70.9727 45.4942 72.5678 45.3162C73.8107 45.1804 75.0176 44.724 75.9895 43.9816C77.1639 43.0966 77.9961 41.8674 78.5329 40.5598C79.294 38.6987 79.5165 36.6723 79.367 34.6939C79.2418 33.0724 78.8491 31.4459 78.0268 30.0049C77.3378 28.7977 76.3074 27.7355 75.0014 27.0994C73.6711 26.4372 72.1157 26.2389 70.6296 26.406Z" fill="#002147"/>
<path d="M140.081 25.3976C143.313 25.061 146.718 25.951 149.161 27.9926C150.471 29.0717 151.491 30.4527 152.111 31.9797C153.401 35.1729 152.971 38.9482 150.927 41.7845C149.455 43.8464 147.152 45.3557 144.599 45.9943C141.066 46.8936 137.067 46.255 134.168 44.1231C131.904 42.4881 130.402 39.9791 130.069 37.3217C129.658 34.2702 130.634 31.034 132.88 28.7612C134.724 26.8512 137.354 25.6608 140.081 25.3976ZM140.434 26.4049C139.427 26.5196 138.445 26.8385 137.595 27.3591C136.353 28.1057 135.423 29.2396 134.8 30.4797C133.995 32.0826 133.646 33.861 133.613 35.6242C133.587 37.4558 133.855 39.3177 134.631 41.0101C135.227 42.311 136.162 43.5039 137.432 44.2918C138.638 45.0528 140.108 45.3987 141.556 45.3683C142.947 45.3531 144.347 44.9676 145.481 44.1999C146.763 43.3436 147.679 42.0781 148.265 40.7224C149.072 38.8444 149.315 36.7843 149.174 34.773C149.056 33.1228 148.662 31.4651 147.823 29.9997C147.143 28.8093 146.132 27.7623 144.851 27.1237C143.511 26.4446 141.937 26.2362 140.434 26.4049Z" fill="#002147"/>
<path d="M2.1748 25.9932C3.59516 25.8051 5.01281 25.5984 6.43226 25.4086C6.46469 25.6195 6.49711 25.8304 6.52953 26.0413C5.11188 26.2412 3.69423 26.4412 2.27478 26.631C2.24145 26.4184 2.20813 26.205 2.1748 25.9932Z" fill="#002147"/>
<path d="M84.0721 25.6663C87.2578 25.6671 90.4434 25.6654 93.63 25.6671C93.6282 25.9143 93.6282 26.1615 93.6273 26.4087C92.9419 26.5411 92.2565 26.6753 91.5702 26.8018C91.3972 26.8431 91.1919 26.8685 91.0838 27.0169C91.0415 27.2093 91.1892 27.3704 91.2909 27.5214C92.941 29.7259 94.5811 31.9362 96.2329 34.1398C96.2951 34.295 96.4455 34.2107 96.5013 34.1027C98.1955 31.8848 99.8941 29.6702 101.585 27.4506C101.728 27.3012 101.804 27.0271 101.536 26.9554C100.814 26.7208 100.055 26.5901 99.3159 26.4078C99.3141 26.1606 99.3141 25.9135 99.3141 25.6663C101.875 25.6654 104.435 25.6663 106.997 25.6663C106.996 25.9143 106.996 26.1623 106.994 26.4112C106.135 26.6339 105.247 26.7664 104.409 27.0566C103.678 27.3105 103.22 27.9247 102.763 28.4773C100.867 30.7138 98.97 32.9494 97.0768 35.1876C99.3339 37.9683 101.586 40.7523 103.841 43.5346C104.205 44.0298 104.649 44.5065 105.269 44.7174C106.009 44.9705 106.786 45.108 107.541 45.3147C107.541 45.5594 107.541 45.8049 107.545 46.0504C104.359 46.0605 101.171 46.0512 97.9856 46.0546C97.9847 45.8091 97.9847 45.5636 97.9829 45.3189C98.7854 45.1426 99.6095 45.0447 100.4 44.8262C100.682 44.7402 100.535 44.4415 100.407 44.2897C98.8412 42.2169 97.2687 40.1491 95.6997 38.0788C95.4331 37.738 95.1917 37.3794 94.8999 37.0571C93.213 39.1705 91.5909 41.3319 89.9291 43.4638C89.6824 43.8071 89.3797 44.1176 89.178 44.4863C89.0924 44.7056 89.3923 44.7874 89.5572 44.8406C90.2264 45.011 90.9046 45.1468 91.5747 45.3156C91.5756 45.5627 91.5756 45.8108 91.5647 46.058C89.0078 46.0512 86.4517 46.0537 83.8956 46.0563C83.892 45.8091 83.892 45.5619 83.8938 45.3147C84.617 45.1485 85.3411 44.9857 86.0599 44.8026C86.6345 44.6558 87.1695 44.3597 87.5487 43.9244C89.7616 41.3395 91.9556 38.7385 94.1731 36.157C92.143 33.6066 90.0868 31.0749 88.0458 28.5313C87.5928 27.9821 87.1911 27.3342 86.4733 27.0566C85.7005 26.7638 84.8737 26.6213 84.0739 26.4078C84.0712 26.1606 84.0712 25.9135 84.0721 25.6663Z" fill="#002147"/>
<path d="M110.502 25.6681C115.986 25.6638 121.47 25.6672 126.955 25.6664C126.954 27.3672 126.954 29.0671 126.955 30.767C126.651 30.7679 126.348 30.7679 126.046 30.767C125.701 29.7336 125.353 28.701 125.007 27.6683C124.899 27.3537 124.758 27.0213 124.461 26.8222C124.194 26.6442 123.853 26.6307 123.537 26.6324C121.308 26.6391 119.078 26.6256 116.849 26.6391C116.858 29.5623 116.85 32.4847 116.853 35.4071C118.422 35.4079 119.99 35.4071 121.56 35.4079C122.014 35.3995 122.515 35.4602 122.919 35.219C123.271 35.0097 123.432 34.6284 123.544 34.2699C123.713 33.7249 123.88 33.179 124.052 32.634C124.352 32.6357 124.651 32.6357 124.952 32.6298C124.97 34.8958 124.954 37.1619 124.96 39.4279C124.658 39.4287 124.356 39.4287 124.055 39.4313C123.866 38.7538 123.691 38.073 123.507 37.3947C123.427 37.0986 123.289 36.7966 123.018 36.611C122.732 36.4043 122.357 36.3714 122.01 36.3697C120.29 36.3688 118.572 36.3697 116.853 36.3697C116.854 38.8728 116.849 41.3759 116.855 43.8789C116.825 44.2653 117.08 44.6534 117.496 44.7411C118.405 44.9487 119.326 45.1166 120.238 45.3148C120.238 45.5578 120.239 45.8016 120.248 46.0463C117 46.0657 113.752 46.0488 110.504 46.0547C110.503 45.8075 110.503 45.5612 110.503 45.3157C111.187 45.1638 111.87 45.0069 112.554 44.8525C112.87 44.7715 113.22 44.7007 113.452 44.4644C113.643 44.2636 113.647 43.9768 113.651 43.722C113.647 38.4366 113.653 33.1503 113.648 27.8641C113.684 27.4768 113.424 27.1082 113.023 27.0036C112.194 26.7656 111.341 26.6079 110.503 26.4046C110.503 26.1591 110.503 25.9136 110.502 25.6681Z" fill="#002147"/>
<path d="M155.321 25.6659C158.148 25.6659 160.976 25.6659 163.804 25.6659C165.523 25.6668 167.281 25.6415 168.945 26.1063C170.592 26.5534 171.978 27.7396 172.623 29.2244C173.224 30.5565 173.181 32.1409 172.438 33.4165C171.683 34.7503 170.291 35.6766 168.799 36.1794C168.425 36.3186 168.022 36.376 167.657 36.5346C168.431 36.9218 168.957 37.595 169.498 38.2193C171.087 40.1142 172.618 42.0503 174.174 43.9696C174.53 44.4125 175.052 44.7373 175.635 44.8504C176.385 44.9997 177.133 45.16 177.882 45.3135C177.881 45.5582 177.882 45.8037 177.887 46.0492C176.102 46.0568 174.317 46.0585 172.533 46.0483C171.948 46.0467 171.543 45.5987 171.228 45.1946C169.537 42.9825 167.849 40.7697 166.161 38.556C165.653 37.9173 165.091 37.1985 164.21 37.0197C163.376 36.8644 162.519 36.9674 161.676 36.9345C161.67 39.2545 161.671 41.5745 161.675 43.8945C161.648 44.2851 161.92 44.6656 162.338 44.7466C163.242 44.9499 164.154 45.1195 165.06 45.3144C165.059 45.5616 165.059 45.8088 165.057 46.0559C161.814 46.0534 158.571 46.0517 155.327 46.0568C155.319 45.8088 155.319 45.5616 155.322 45.3144C156.162 45.1119 157.019 44.9617 157.847 44.7171C158.233 44.6142 158.49 44.2632 158.463 43.8895C158.47 38.5467 158.467 33.2022 158.465 27.8594C158.495 27.4772 158.246 27.1077 157.846 27.0039C157.016 26.7669 156.162 26.6074 155.322 26.4058C155.32 26.1586 155.32 25.9123 155.321 25.6659ZM161.673 26.6336C161.677 29.7492 161.663 32.8647 161.68 35.9803C162.626 35.966 163.573 35.9837 164.52 35.971C165.459 35.9567 166.422 35.8192 167.259 35.3999C167.909 35.0785 168.454 34.574 168.792 33.9615C169.267 33.1271 169.41 32.1654 169.415 31.2298C169.42 30.2157 169.125 29.1805 168.467 28.3647C167.71 27.4123 166.5 26.82 165.247 26.6994C164.059 26.583 162.863 26.6521 161.673 26.6336Z" fill="#002147"/>
<path d="M179.635 25.6669C182.401 25.6669 185.167 25.6669 187.934 25.6669C189.984 25.6694 192.06 25.6163 194.076 26.033C195.734 26.3519 197.317 27.0403 198.605 28.0755C200.8 29.81 202.024 32.454 202.221 35.1081C202.405 37.6812 201.836 40.4053 200.121 42.4773C199.119 43.6913 197.745 44.6168 196.23 45.1896C194.623 45.776 192.886 45.9573 191.174 46.0316C187.33 46.0856 183.484 46.0366 179.64 46.0586C179.632 45.8097 179.631 45.5625 179.636 45.3145C180.452 45.1247 181.277 44.9593 182.086 44.7433C182.5 44.6505 182.811 44.2962 182.777 43.8904C182.785 38.6016 182.777 33.3128 182.782 28.0232C182.78 27.7549 182.777 27.4487 182.567 27.242C182.347 27.0311 182.029 26.9585 181.736 26.8851C181.034 26.729 180.336 26.5628 179.635 26.4084C179.633 26.1613 179.633 25.9141 179.635 25.6669ZM185.987 26.6337C185.987 32.4709 185.988 38.308 185.987 44.1452C185.996 44.3941 185.979 44.6758 186.151 44.8851C186.346 45.0943 186.672 45.0825 186.945 45.0934C188.026 45.0892 189.107 45.101 190.189 45.085C191.568 45.0479 192.979 44.9239 194.265 44.4185C195.594 43.9031 196.643 42.8823 197.326 41.7138C198.141 40.3142 198.481 38.7172 198.59 37.1387C198.69 35.5147 198.589 33.8662 198.149 32.2886C197.767 30.9363 197.097 29.6278 196.049 28.6171C195.154 27.7422 193.978 27.1255 192.704 26.9011C190.492 26.4928 188.225 26.6784 185.987 26.6337Z" fill="#002147"/>
<path d="M2.78223 29.0221C4.13953 28.5868 5.49054 28.1346 6.84514 27.6925C6.9226 27.8832 6.99735 28.0755 7.07121 28.2687C6.28402 29.1588 5.51395 30.0623 4.71956 30.9464C5.7058 30.5702 6.69833 30.2007 7.69357 29.8421C7.76022 30.0294 7.83137 30.2142 7.90343 30.3998C6.57224 30.8916 5.22754 31.3514 3.89906 31.8508C3.80899 31.6585 3.73063 31.4619 3.66128 31.2628C4.44306 30.3837 5.21403 29.4954 5.99221 28.6129C4.99157 28.9293 3.99903 29.2684 2.99929 29.5873C2.92633 29.3992 2.85338 29.2102 2.78223 29.0221Z" fill="#002147"/>
<path d="M42.0287 28.9957C43.3347 29.5399 44.6361 30.095 45.9394 30.6459C45.6674 31.1858 45.4827 31.7755 45.0901 32.2539C44.5839 32.8377 43.4671 32.6293 43.1518 31.9654C43.0798 31.8152 43.0762 31.649 43.06 31.4887C42.3277 31.6971 41.5468 31.5663 40.793 31.6051C40.8875 31.4018 40.983 31.1993 41.0713 30.9943C41.6333 30.9538 42.1998 31.0171 42.76 30.9538C43.1347 30.9142 43.2518 30.5312 43.3797 30.257C42.8339 30.0359 42.2971 29.7989 41.754 29.5745C41.8459 29.3821 41.9368 29.1889 42.0287 28.9957ZM43.6076 31.4018C43.6364 31.8498 44.2858 32.1341 44.6595 31.8472C44.9027 31.6195 44.9991 31.298 45.1522 31.0171C44.7442 30.8222 44.32 30.6611 43.9048 30.4822C43.7778 30.7775 43.5886 31.0719 43.6076 31.4018Z" fill="#002147"/>
<path d="M23.8252 32.3295C24.072 32.0224 24.2801 31.6867 24.5494 31.3965C24.779 31.3298 24.8601 31.561 24.9754 31.6926C25.3374 32.1979 25.7436 32.6754 26.0877 33.1909C25.9841 33.3883 25.6356 33.2989 25.4401 33.4018C25.7328 33.8034 25.9949 34.2269 26.3336 34.5972C26.7263 34.2826 27.1298 33.9797 27.5117 33.6541C27.3396 33.5469 27.1505 33.4668 26.964 33.3858C27.3279 33.0205 27.8224 32.7978 28.2385 32.4898C28.4393 32.3835 28.6087 32.1625 28.8582 32.1811C28.5771 33.2027 28.1574 34.1915 27.8386 35.2047C26.8082 34.8976 25.7175 34.8436 24.6448 34.8326C23.5676 34.8436 22.4742 34.8959 21.4412 35.2047C21.1223 34.2589 20.7828 33.3183 20.4558 32.3751C20.3883 32.284 20.4414 32.0866 20.5846 32.1945C21.1962 32.5708 21.8122 32.9445 22.3986 33.3554C22.2121 33.4566 22.0221 33.5511 21.8374 33.6549C22.2049 33.9738 22.5787 34.2859 22.9507 34.5998C23.2767 34.221 23.5514 33.8068 23.8351 33.4018C23.6181 33.336 23.392 33.2997 23.1677 33.2668C23.3299 32.9218 23.6055 32.6417 23.8252 32.3295Z" fill="#002147"/>
<path d="M7.42408 32.5648C7.81137 32.3227 8.29503 32.1312 8.75977 32.294C9.49472 32.5471 9.99909 33.2963 9.94505 34.026C9.91353 34.4554 9.54245 34.7617 9.1975 35.0004C8.44544 35.5083 7.69158 36.0128 6.93232 36.5105C6.80442 36.3325 6.67473 36.1562 6.54413 35.9807C7.25115 35.5142 7.95277 35.0409 8.6589 34.5727C8.90568 34.3964 9.21731 34.2285 9.29297 33.9239C9.37403 33.4118 8.91739 32.8356 8.33916 32.8609C8.1185 32.8837 7.93206 33.0077 7.74922 33.1149C6.99446 33.5957 6.2388 34.0758 5.48314 34.5541C5.35435 34.3812 5.22555 34.2074 5.09766 34.0344C5.87403 33.5468 6.6423 33.0457 7.42408 32.5648Z" fill="#002147"/>
<path d="M39.1264 33.8432C39.4317 33.4383 39.7713 33.0578 40.1018 32.6714C41.2195 33.5108 42.3418 34.346 43.4604 35.1854C42.9956 35.7034 42.5976 36.2881 42.0202 36.7048C41.4636 37.1157 40.6584 37.1115 40.0424 36.8213C39.3795 36.5074 38.8229 35.9186 38.7229 35.2124C38.6418 34.7248 38.8319 34.238 39.1264 33.8432ZM39.4344 34.4473C39.2191 34.8665 39.3551 35.3761 39.6704 35.7178C40.064 36.1556 40.6692 36.5226 41.306 36.3893C41.8923 36.267 42.213 35.7456 42.5849 35.3542C41.7716 34.74 40.961 34.1216 40.1342 33.5252C39.8568 33.7985 39.6109 34.1073 39.4344 34.4473Z" fill="#002147"/>
<path d="M23.307 35.5545C24.4463 35.4651 25.6028 35.4693 26.7313 35.654C27.015 35.7139 27.3258 35.7553 27.5582 35.9316C27.696 36.0311 27.5401 36.1695 27.4321 36.2108C26.9565 36.4133 26.4269 36.458 25.9135 36.5103C24.7868 36.5955 23.6438 36.5879 22.5279 36.404C22.2406 36.3408 21.92 36.2986 21.6939 36.1054C21.6056 35.9662 21.7813 35.8759 21.8929 35.8287C22.3406 35.6549 22.8287 35.6043 23.307 35.5545Z" fill="#002147"/>
<path d="M21.7182 42.5983C22.0749 42.3924 22.5846 42.6539 22.5972 43.0437C22.645 43.452 22.1271 43.7777 21.7434 43.576C21.3255 43.4039 21.3102 42.7889 21.7182 42.5983Z" fill="#002147"/>
<path d="M27.7412 43.5097C28.1348 43.3005 28.6653 43.6447 28.5977 44.0623C28.5689 44.4706 28.0006 44.706 27.6601 44.4478C27.3071 44.2276 27.3566 43.6734 27.7412 43.5097Z" fill="#002147"/>
</svg>
