<svg width="500" height="90" viewBox="0 0 500 90" fill="none" xmlns="http://www.w3.org/2000/svg">
<rect x="0.5" y="0.5" width="499" height="89" rx="4.5" stroke="#9747FF" stroke-dasharray="10 5"/>
<path d="M64.9118 64.3689C65.0634 63.9885 64.9757 63.5546 64.6882 63.263C60.3285 58.8919 54.6353 56.1032 48.513 55.339C48.4902 55.2898 48.4602 55.2444 48.4249 55.2033C46.6293 53.4056 44.5979 51.8607 42.3869 50.6104C45.2566 48.0168 48.6703 46.1006 52.3778 45.0028C56.0847 43.905 59.9905 43.6539 63.808 44.2669C64.3692 44.3571 64.8971 43.9744 64.9869 43.4121C65.0767 42.8503 64.6944 42.3218 64.1331 42.2319C59.8865 41.5545 55.5406 41.87 51.4358 43.1527C47.331 44.4357 43.578 46.6512 40.4696 49.6268C40.0698 49.4436 39.6632 49.2605 39.2567 49.0976V46.8656C40.905 46.873 42.4989 46.2741 43.7357 45.1831C45.7687 43.1477 45.4096 39.7555 45.3958 39.5997C45.3444 39.1203 44.9664 38.7419 44.4879 38.6904C45.2303 37.2704 45.5501 35.667 45.4096 34.0702C45.3581 33.5912 44.9802 33.2128 44.5013 33.1613C43.098 33.0525 41.6891 33.2855 40.3948 33.8396C41.1683 32.8371 41.6111 31.6185 41.6623 30.3526C41.6623 27.5032 38.999 25.3187 38.8908 25.2237C38.5159 24.9254 37.9849 24.9254 37.61 25.2237C37.4879 25.3119 34.8314 27.4759 34.8314 30.3253C34.8358 30.5869 34.8607 30.8478 34.9061 31.1056C33.9558 30.871 32.9739 30.7932 31.9988 30.875C31.523 30.9238 31.1463 31.3006 31.0976 31.7773C30.9567 33.3754 31.2741 34.9805 32.0125 36.4042C31.5364 36.4531 31.1601 36.8298 31.111 37.3065C31.111 37.4556 30.7519 40.8817 32.7644 42.8969C34.0052 43.9856 35.6004 44.5838 37.2505 44.5792V48.3786C33.5963 47.2027 29.7393 46.794 25.9201 47.1778C25.3586 47.234 24.949 47.7353 25.0051 48.2971C25.0613 48.859 25.562 49.2693 26.1232 49.2131C29.5551 48.8593 33.0226 49.2007 36.3198 50.217C39.6169 51.2333 42.6759 52.9038 45.3147 55.1287C41.605 55.0796 37.9233 55.7747 34.4862 57.1729C31.0493 58.571 27.9267 60.6444 25.3028 63.2699C25.0237 63.5638 24.944 63.9948 25.0994 64.3691C25.2551 64.7435 25.6162 64.9909 26.0211 65H63.9694C64.3817 64.999 64.7538 64.75 64.9118 64.3689ZM42.2855 43.7446C41.4344 44.4563 40.358 44.8411 39.2493 44.83C39.2382 43.72 39.6229 42.6424 40.3338 41.7906C41.1846 41.079 42.261 40.6941 43.3697 40.7049C43.3777 41.8145 42.9937 42.8911 42.2855 43.7446ZM42.2855 38.2017C41.4344 38.9133 40.358 39.2985 39.2493 39.2874C39.2453 38.1785 39.629 37.1032 40.3338 36.2477C41.1846 35.5361 42.261 35.1512 43.3697 35.1623C43.3777 36.2719 42.9937 37.3485 42.2855 38.2017ZM38.2194 27.4082C39.0009 28.1899 39.4811 29.2233 39.5749 30.3253C39.4757 31.4261 38.9965 32.4576 38.2194 33.2427C37.4423 32.4576 36.9631 31.4262 36.8643 30.3253C36.9632 29.2247 37.4423 28.1929 38.2194 27.4082ZM36.1188 33.9685C36.825 34.8256 37.2086 35.9035 37.203 37.0148C36.0909 37.0219 35.0115 36.6378 34.1537 35.9291C33.4489 35.0737 33.0652 33.9985 33.0692 32.8898C34.1853 32.8773 35.2697 33.2594 36.1323 33.9685H36.1188ZM34.1537 41.4582C33.4489 40.6031 33.0652 39.5279 33.0692 38.4189C34.1782 38.4115 35.255 38.7929 36.1121 39.4976C36.8183 40.3547 37.2019 41.4326 37.1962 42.544C36.0865 42.5497 35.0099 42.1656 34.1537 41.4582ZM61.3347 62.9642H28.6581C33.2726 59.1988 39.0433 57.1425 44.9968 57.1425C50.9497 57.1425 56.7206 59.1988 61.3347 62.9642Z" fill="url(#paint0_linear_5436_13653)"/>
<path d="M120.681 34.3566C120.681 33.9019 120.559 33.474 120.346 33.106H120.896L123.914 36.1255C124.386 36.5984 125.014 36.8585 125.681 36.8585C126.349 36.8585 126.976 36.5984 127.449 36.1255C128.424 35.1505 128.424 33.5634 127.449 32.5884L123.699 28.8363C123.226 28.3631 122.599 28.103 121.931 28.103H113.452L111.199 25.7091C110.254 24.7636 108.609 24.7636 107.664 25.7091L105.789 27.5854C105.317 28.058 105.057 28.6858 105.057 29.3536C105.057 30.0214 105.317 30.6495 105.789 31.1222L110.789 36.1253C111.262 36.5982 111.889 36.8583 112.557 36.8583H118.182C119.561 36.8583 120.682 35.7364 120.682 34.3567L120.681 34.3566ZM111.672 35.241L106.672 30.2379C106.436 30.0015 106.306 29.6877 106.306 29.3535C106.306 29.0196 106.436 28.7055 106.672 28.469L108.547 26.5928C109.02 26.1205 109.856 26.1342 110.302 26.5801L112.726 29.1573C112.844 29.2824 113.009 29.3544 113.182 29.3544H121.932C122.265 29.3544 122.579 29.4844 122.816 29.7209L126.565 33.473C127.052 33.9602 127.052 34.7543 126.565 35.2415C126.093 35.7145 125.27 35.7145 124.798 35.2415L121.597 32.039C121.48 31.9214 121.322 31.8559 121.155 31.8559L115.681 31.8556C115.336 31.8556 115.056 32.1352 115.056 32.4809C115.056 32.8266 115.336 33.1062 115.681 33.1062H118.181C118.87 33.1062 119.431 33.6679 119.431 34.3568C119.431 35.0461 118.87 35.6074 118.181 35.6074H112.556C112.223 35.6074 111.909 35.4774 111.672 35.2409L111.672 35.241Z" fill="url(#paint1_linear_5436_13653)"/>
<path d="M136.932 45.6137H128.806C127.119 45.6137 125.522 42.7944 125.023 41.6552C124.906 41.2369 124.119 38.7347 121.932 38.7347C121.205 38.7347 120.656 38.9178 120.172 39.0798C119.72 39.23 119.33 39.36 118.807 39.36H117.557C116.523 39.36 115.682 40.2019 115.682 41.2362V42.4868C115.682 42.7481 115.845 42.9821 116.089 43.0733C116.914 43.3796 119.124 44.4605 119.451 45.7657C120.534 50.1047 122.274 51.7736 123.426 52.8793C124.123 53.5478 124.431 53.8642 124.431 54.3689V61.6146L123.364 62.6822C123.247 62.7995 123.181 62.9578 123.181 63.1241V64.3747C123.181 64.7204 123.461 65 123.806 65H128.181C128.418 65 128.634 64.8662 128.74 64.6543L129.99 62.1528C130.026 62.0814 130.047 62.0045 130.054 61.925L130.634 54.9644C132.215 54.9269 133.492 54.8537 134.502 54.7711C134.826 57.6146 136.381 59.6147 136.927 60.2362C136.853 62.3768 135.793 62.4914 135.681 62.4976C135.336 62.4976 135.056 62.7772 135.056 63.1229V64.3735C135.056 64.7192 135.336 64.9988 135.681 64.9988H140.681C140.918 64.9988 141.135 64.865 141.24 64.6531C141.294 64.547 142.556 61.9911 142.556 59.3719C142.556 58.9474 142.388 58.4491 142.211 57.9218C142.086 57.5513 141.931 57.0904 141.931 56.8704C141.931 55.2096 142.115 53.8448 142.279 52.9575L143.972 54.7937C144.152 54.9883 144.435 55.0482 144.678 54.9439C144.922 54.8387 145.073 54.5917 145.055 54.3273C145.015 53.7225 144.789 50.6602 144.377 49.7363C143.156 47.0005 140.651 45.6136 136.931 45.6136L136.932 45.6137ZM128.818 61.7017L127.794 63.7498H127.317L128.114 62.1532C128.15 62.0818 128.172 62.0049 128.178 61.9254L128.756 54.993C128.969 54.9918 129.173 54.9893 129.377 54.9875L128.818 61.7017ZM136.306 63.6139C137.047 63.3393 138.182 62.5082 138.182 59.9974C138.182 59.8323 138.115 59.6734 138 59.5564C137.981 59.5378 136.087 57.5834 135.743 54.6536C136.253 54.5962 136.659 54.5397 136.962 54.4916C137.208 57.4878 138.86 59.5952 139.427 60.2376C139.353 62.3776 138.293 62.4921 138.182 62.4983C137.836 62.4983 137.557 62.7779 137.557 63.1236V63.7489H136.307L136.306 63.6139ZM142.556 51.4146V50.6168C142.556 50.2711 142.277 49.9915 141.931 49.9915C141.586 49.9915 141.306 50.2711 141.306 50.6168V51.5722C141.186 52.0113 140.682 54.0086 140.682 56.8704C140.682 57.2949 140.85 57.7933 141.027 58.3205C141.151 58.6908 141.306 59.1516 141.306 59.3719C141.306 61.1687 140.602 63.0043 140.28 63.7496L138.806 63.7493V63.6137C139.547 63.3391 140.681 62.508 140.681 59.9972C140.681 59.8309 140.615 59.672 140.499 59.555C140.475 59.532 138.181 57.1968 138.181 53.7436C138.181 53.5508 138.092 53.3702 137.941 53.2514C137.791 53.1338 137.594 53.0894 137.406 53.1362C137.381 53.1425 134.859 53.7436 128.182 53.7436C127.856 53.7436 127.586 53.9924 127.559 54.317L126.944 61.7015L125.92 63.7496L124.431 63.7493V63.3828L125.498 62.3153C125.615 62.1986 125.682 62.0397 125.682 61.8734V54.3688C125.682 53.3093 125.037 52.6909 124.291 51.9755C123.18 50.9099 121.659 49.4501 120.662 45.4622C120.212 43.6561 117.911 42.488 116.931 42.065V41.2358C116.931 40.8907 117.211 40.6105 117.556 40.6105H118.806C119.532 40.6105 120.081 40.4274 120.566 40.2654C121.017 40.1152 121.407 39.9852 121.931 39.9852C122.214 39.9852 122.461 40.0758 122.674 40.2142C121.894 40.8407 120.405 42.205 120.703 43.2793C120.973 44.2525 122.524 44.3604 123.179 44.3623H123.181C123.525 44.3623 123.805 44.0833 123.806 43.7389C123.806 43.3932 123.527 43.1123 123.182 43.1117C122.707 43.1105 122.134 43.0118 121.924 42.9016C122.02 42.5634 122.726 41.7785 123.485 41.1688C123.717 41.6085 123.822 42.0042 123.824 42.0126C123.832 42.0452 123.842 42.0771 123.856 42.1069C124.064 42.5941 125.976 46.8636 128.806 46.8636H136.931C140.113 46.8636 142.233 48.0012 143.235 50.2455C143.388 50.5862 143.535 51.5761 143.645 52.5949L142.556 51.4146Z" fill="url(#paint2_linear_5436_13653)"/>
<path d="M200.667 48.9995H202V50.3326H200.667V48.9995Z" fill="url(#paint3_linear_5436_13653)"/>
<path d="M196.667 48.9995H198.001V50.3326H196.667V48.9995Z" fill="url(#paint4_linear_5436_13653)"/>
<path d="M192.668 48.9995H194.001V50.3326H192.668V48.9995Z" fill="url(#paint5_linear_5436_13653)"/>
<path d="M204.667 48.9995H206V50.3326H204.667V48.9995Z" fill="url(#paint6_linear_5436_13653)"/>
<path d="M204.001 38.333H205.382L205.736 43.0497L207.065 42.9498L206.719 38.333H221.282L219.382 63.6665H214.667V64.9997H220.001V65C220.35 65.001 220.641 64.7317 220.667 64.3834L222.62 38.3334H224.001C224.178 38.3334 224.347 38.2632 224.472 38.1382C224.597 38.0131 224.668 37.8434 224.668 37.6668V34.3335C224.668 34.1566 224.597 33.9872 224.472 33.8621C224.347 33.7371 224.178 33.667 224.001 33.667H216.001V25.6669C216.001 25.4899 215.931 25.3206 215.805 25.1955C215.68 25.0705 215.511 25 215.334 25H212.667C212.299 25 212.001 25.2987 212.001 25.6669V33.667H204.001C203.633 33.667 203.334 33.9653 203.334 34.3335V37.6668C203.334 37.8434 203.404 38.0131 203.529 38.1382C203.654 38.2632 203.824 38.3334 204.001 38.3334L204.001 38.333ZM213.334 26.3328H214.667L214.668 33.6662H213.334L213.334 26.3328ZM204.667 34.9997H223.334V36.9998H204.667V34.9997Z" fill="url(#paint7_linear_5436_13653)"/>
<path d="M188.668 64.9996H210.001C210.885 64.9986 211.732 64.6469 212.357 64.022C212.982 63.3971 213.333 62.5499 213.334 61.6663V58.9997C213.334 58.8227 213.264 58.6533 213.139 58.5283C213.014 58.4032 212.844 58.3328 212.667 58.3328H212.65C213.093 57.7604 213.334 57.0568 213.334 56.333C213.334 55.6089 213.093 54.9053 212.65 54.3329H212.667C212.844 54.3329 213.014 54.2628 213.139 54.1378C213.264 54.0127 213.334 53.843 213.334 53.6664C213.335 51.0308 212.292 48.5021 210.433 46.6336L210.19 42.9556L208.857 43.0436L209.016 45.4489C207.349 44.2881 205.366 43.6658 203.334 43.6662H195.334C192.683 43.6691 190.141 44.7237 188.266 46.5985C186.392 48.4732 185.337 51.0148 185.334 53.6663C185.334 53.8429 185.404 54.0126 185.529 54.1377C185.655 54.2627 185.824 54.3329 186.001 54.3329H186.018C185.575 54.9052 185.334 55.6088 185.334 56.3329C185.334 57.0568 185.575 57.7604 186.018 58.3327H186.001C185.633 58.3327 185.334 58.6314 185.334 58.9996V61.6662C185.335 62.5499 185.687 63.3971 186.312 64.0219C186.936 64.6468 187.784 64.9985 188.668 64.9995L188.668 64.9996ZM212.001 61.6663C212.001 62.1966 211.79 62.7054 211.415 63.0805C211.04 63.4553 210.532 63.6661 210.001 63.6661H188.668C188.137 63.6661 187.629 63.4553 187.254 63.0805C186.879 62.7054 186.668 62.1966 186.668 61.6663V59.6662H212.002L212.001 61.6663ZM205.384 58.3331L210.701 54.4666L210.701 54.4662C211.291 54.6859 211.743 55.1709 211.92 55.7749C212.097 56.379 211.979 57.031 211.601 57.5348C211.224 58.0383 210.63 58.3341 210.001 58.3328L205.384 58.3331ZM203.318 58.1879L197.534 54.3329H208.618L203.318 58.1879ZM203.334 44.9994C205.517 45.0017 207.618 45.8268 209.22 47.3091C210.821 48.7918 211.805 50.8233 211.976 52.9991H186.693C186.863 50.8234 187.847 48.7918 189.449 47.3091C191.05 45.8267 193.152 45.0017 195.334 44.9994H203.334ZM186.667 56.3324C186.667 55.8017 186.878 55.293 187.253 54.9182C187.628 54.543 188.137 54.3323 188.667 54.3323H195.134L201.134 58.3321H188.667C188.137 58.3321 187.628 58.1214 187.253 57.7466C186.878 57.3714 186.667 56.8626 186.667 56.3323L186.667 56.3324Z" fill="url(#paint8_linear_5436_13653)"/>
<path d="M202.668 46.3326H204.001V47.6658H202.668V46.3326Z" fill="url(#paint9_linear_5436_13653)"/>
<path d="M198.668 46.3326H200.001V47.6658H198.668V46.3326Z" fill="url(#paint10_linear_5436_13653)"/>
<path d="M194.668 46.3326H196.001V47.6658H194.668V46.3326Z" fill="url(#paint11_linear_5436_13653)"/>
<path d="M208.669 40.3799L209.999 40.285L210.095 41.6181L208.765 41.7131L208.669 40.3799Z" fill="url(#paint12_linear_5436_13653)"/>
<path d="M297.667 29.0006C296.188 29 294.743 29.4472 293.523 30.2832C293.219 30.4913 293.141 30.9061 293.349 31.2101C293.557 31.5145 293.972 31.5925 294.276 31.3844C295.483 30.5574 296.951 30.2005 298.404 30.3802C299.856 30.5601 301.193 31.2644 302.162 32.361C303.131 33.4573 303.667 34.8706 303.667 36.334V40.3337C303.667 40.7019 303.965 41.0003 304.333 41.0003C304.702 41.0003 305 40.7019 305 40.3337V36.334C304.998 34.3895 304.224 32.5258 302.849 31.151C301.475 29.7765 299.611 29.003 297.667 29.0006Z" fill="url(#paint13_linear_5436_13653)"/>
<path d="M304.333 45.0004C303.965 45.0004 303.666 45.2988 303.666 45.667V47.0001C303.664 48.4752 303.12 49.898 302.136 50.9972C301.153 52.0964 299.799 52.7954 298.333 52.9609V47.2221L300.2 44.7337C300.421 44.439 300.361 44.0212 300.066 43.8002C299.772 43.5793 299.354 43.6391 299.133 43.9336L298.333 45.0004V40.3338C298.333 39.9656 298.035 39.6672 297.666 39.6672C297.298 39.6672 297 39.9656 297 40.3338V42.3338L296.2 41.2673V41.267C295.979 40.9725 295.561 40.9127 295.266 41.1336C294.972 41.3546 294.912 41.7724 295.133 42.0671L297 44.5555V52.9553C296.189 52.8663 295.406 52.6136 294.696 52.2127C294.542 52.1194 294.357 52.0923 294.182 52.1376C294.008 52.1829 293.859 52.2967 293.77 52.4535C293.682 52.61 293.66 52.7959 293.71 52.9689C293.76 53.1416 293.878 53.2868 294.037 53.3715C294.948 53.8852 295.958 54.1985 297 54.2902V64.3331C297 64.7013 297.298 64.9997 297.666 64.9997C298.035 64.9997 298.333 64.7013 298.333 64.3331V54.2995C300.154 54.1318 301.847 53.2905 303.079 51.9405C304.312 50.5906 304.997 48.8287 305 47.0003V45.6672C305 45.4902 304.929 45.3208 304.805 45.1958C304.68 45.0707 304.51 45.0006 304.333 45.0006L304.333 45.0004Z" fill="url(#paint14_linear_5436_13653)"/>
<path d="M305 43.0001C305 43.3683 304.701 43.6667 304.333 43.6667C303.965 43.6667 303.666 43.3683 303.666 43.0001C303.666 42.6319 303.965 42.3335 304.333 42.3335C304.701 42.3335 305 42.6319 305 43.0001Z" fill="url(#paint15_linear_5436_13653)"/>
<path d="M275.304 52.214C274.594 52.6146 273.81 52.8673 273 52.9563V44.5564L274.867 42.0668C275.088 41.7721 275.028 41.3543 274.733 41.1333C274.439 40.9124 274.021 40.9722 273.8 41.2667L273 42.3335V40.3335C273 39.9653 272.702 39.6669 272.333 39.6669C271.965 39.6669 271.667 39.9653 271.667 40.3335V45.0001L270.867 43.9336V43.9333C270.646 43.6388 270.228 43.579 269.933 43.8C269.639 44.0209 269.579 44.4387 269.8 44.7334L271.667 47.2218V52.9606C270.201 52.7952 268.847 52.0962 267.864 50.9969C266.88 49.8977 266.335 48.4749 266.334 46.9998V36.3336C266.335 34.7428 266.968 33.2177 268.093 32.093C269.217 30.968 270.743 30.3354 272.333 30.3335C273.541 30.3309 274.721 30.6967 275.715 31.3822C275.86 31.488 276.042 31.5304 276.219 31.5003C276.396 31.4698 276.554 31.3693 276.655 31.2214C276.758 31.0735 276.795 30.8906 276.761 30.7143C276.726 30.5379 276.622 30.3831 276.472 30.2849C275.255 29.4453 273.811 28.9971 272.333 29.0004C270.389 29.0027 268.525 29.7761 267.151 31.1506C265.776 32.5254 265.002 34.3892 265 36.3337V46.9999C265.003 48.8283 265.687 50.5902 266.92 51.9401C268.154 53.2901 269.846 54.1314 271.667 54.2991V64.3327C271.667 64.7009 271.965 64.9993 272.333 64.9993C272.702 64.9993 273 64.7009 273 64.3327V54.2898C274.042 54.1985 275.052 53.8859 275.963 53.3724C276.122 53.2878 276.24 53.1425 276.29 52.9699C276.34 52.7968 276.318 52.6109 276.229 52.4545C276.14 52.2977 275.992 52.1839 275.817 52.1385C275.643 52.0932 275.458 52.1204 275.304 52.214Z" fill="url(#paint16_linear_5436_13653)"/>
<path d="M288.758 26.582C287.762 25.5635 286.395 24.9925 284.971 25.0001C283.546 25.0074 282.185 25.5925 281.2 26.6214C280.978 26.844 280.764 27.0792 280.564 27.3214C280.33 27.6052 280.37 28.0257 280.654 28.2599C280.938 28.4941 281.358 28.4541 281.593 28.1699C281.766 27.9592 281.952 27.7554 282.184 27.5225H282.183C282.929 26.756 283.955 26.3266 285.025 26.3336C286.094 26.3409 287.115 26.7835 287.85 27.5598C291.232 30.9929 293.288 37.6748 292.966 44.1871C292.738 48.7869 291.375 52.4536 289.226 54.2411H289.226C288.213 55.0641 286.969 55.5511 285.666 55.6344V52.5751L288.846 48.7606C289.081 48.4774 289.043 48.0567 288.76 47.8211C288.477 47.5856 288.056 47.6239 287.82 47.9071L285.666 50.4923V47.2418L288.846 43.4273C289.081 43.1441 289.042 42.7233 288.76 42.4878C288.476 42.2523 288.056 42.2906 287.82 42.5738L285.666 45.159V37.6672C285.666 37.2991 285.368 37.0007 285 37.0007C284.631 37.0007 284.333 37.2991 284.333 37.6672V42.4924L282.179 39.9072C281.943 39.624 281.523 39.5856 281.24 39.8212C280.956 40.0571 280.918 40.4775 281.154 40.7607L284.333 44.5752V47.8257L282.179 45.2405C281.943 44.9573 281.523 44.919 281.24 45.1545C280.956 45.39 280.918 45.8108 281.153 46.094L284.333 49.9085V55.6337C283.03 55.5507 281.785 55.0641 280.772 54.2411C276.474 50.6644 275.685 39.9257 279.149 32.1439C279.278 31.8124 279.125 31.4373 278.8 31.2921C278.475 31.1468 278.093 31.2825 277.933 31.6004C274.556 39.1824 274.689 50.913 279.92 55.2668C281.172 56.2889 282.718 56.8854 284.333 56.97V64.3334C284.333 64.7016 284.631 65 284.999 65C285.368 65 285.666 64.7016 285.666 64.3334V56.9707C287.281 56.886 288.827 56.2893 290.079 55.2668C292.515 53.2395 294.053 49.2256 294.298 44.2542C294.643 37.2837 292.485 30.3648 288.758 26.5819L288.758 26.582Z" fill="url(#paint17_linear_5436_13653)"/>
<path d="M280.333 29.6671C280.333 30.0353 280.034 30.3337 279.666 30.3337C279.298 30.3337 278.999 30.0353 278.999 29.6671C278.999 29.2989 279.298 29.0006 279.666 29.0006C280.034 29.0006 280.333 29.2989 280.333 29.6671Z" fill="url(#paint18_linear_5436_13653)"/>
<path d="M365.019 65C364.219 65 363.419 64.8 362.699 64.3999L348.699 56.7199C347.179 55.88 346.219 54.2801 346.219 52.52V37.48C346.219 35.7199 347.179 34.12 348.699 33.2801L362.699 25.6001C364.139 24.8 365.859 24.8 367.299 25.6001L381.298 33.2801C382.819 34.12 383.778 35.7199 383.778 37.48V52.52C383.778 54.2801 382.818 55.88 381.298 56.7199L367.299 64.3999C366.619 64.8 365.819 65 365.019 65ZM365.019 26.5993C364.499 26.5993 363.979 26.7193 363.459 26.9994L349.459 34.6794C348.419 35.2395 347.819 36.3194 347.819 37.4793V52.5193C347.819 53.6792 348.459 54.7595 349.459 55.3193L363.459 62.9993C364.419 63.5194 365.579 63.5194 366.539 62.9993L380.539 55.3193C381.579 54.7592 382.219 53.6793 382.219 52.5193V37.4793C382.219 36.3194 381.579 35.2392 380.539 34.6794L366.539 26.9994C366.059 26.7193 365.539 26.5993 365.019 26.5993Z" fill="url(#paint19_linear_5436_13653)"/>
<path d="M371.819 50.8C371.378 50.8 371.018 50.4399 371.018 49.9999L371.019 38.9995C371.019 38.5594 371.379 38.1994 371.819 38.1994C372.259 38.1994 372.619 38.5594 372.619 38.9995V49.9999C372.619 50.4399 372.259 50.8 371.819 50.8Z" fill="url(#paint20_linear_5436_13653)"/>
<path d="M359.019 50.7198C358.579 50.7198 358.219 50.3597 358.219 49.9197L358.219 43.4399C358.219 42.9998 358.579 42.6398 359.019 42.6398C359.459 42.6398 359.82 42.9998 359.82 43.4399V49.92C359.819 50.3598 359.459 50.7198 359.019 50.7198Z" fill="url(#paint21_linear_5436_13653)"/>
<path d="M357.738 46.8C357.538 46.8 357.338 46.76 357.138 46.72C355.778 46.3599 354.658 45.7201 353.818 44.8799C351.658 42.7198 351.658 39.3197 351.658 39.16C351.658 38.7199 352.018 38.3598 352.458 38.3598C352.618 38.3598 356.018 38.3598 358.178 40.52C359.018 41.3598 359.618 42.4801 360.018 43.84C360.138 44.2401 360.138 44.6402 360.018 45.0399C359.819 45.6797 359.418 46.1998 358.898 46.5199C358.539 46.72 358.139 46.8 357.739 46.8L357.738 46.8ZM353.298 40.0799C353.418 41.0798 353.819 42.6798 354.938 43.8C355.579 44.4401 356.458 44.9199 357.538 45.2C357.938 45.32 358.298 45.0799 358.418 44.6799C358.458 44.5598 358.458 44.4398 358.418 44.3198C358.138 43.2398 357.658 42.3596 357.018 41.7199C355.898 40.5597 354.298 40.1998 353.298 40.0799H353.298Z" fill="url(#paint22_linear_5436_13653)"/>
<path d="M360.299 46.4404C359.859 46.4404 359.419 46.2803 359.099 45.9603C358.579 45.4402 358.339 44.6803 358.499 43.9202C358.779 42.8003 359.219 41.8801 359.819 41.2002C361.419 39.4002 363.939 39.4002 364.019 39.4002C364.459 39.4002 364.819 39.7602 364.819 40.2003C364.819 40.3203 364.819 43.0803 363.259 44.8403C362.659 45.5605 361.819 46.0802 360.819 46.3603C360.659 46.4004 360.459 46.4404 360.299 46.4404ZM360.059 44.2802C360.019 44.5203 360.099 44.6803 360.179 44.7603C360.259 44.8404 360.299 44.8003 360.339 44.8003C361.059 44.5603 361.619 44.2402 362.059 43.7604C362.739 42.9603 363.019 41.8403 363.139 41.0805C362.499 41.2005 361.619 41.5206 361.019 42.2404C360.579 42.7602 360.259 43.4403 360.059 44.2801L360.059 44.2802Z" fill="url(#paint23_linear_5436_13653)"/>
<path d="M361.299 41.5599C360.858 41.5599 360.498 41.1998 360.498 40.7597C360.498 39.5598 359.778 38.1998 359.258 37.2796C358.698 38.1595 358.019 39.5598 358.019 40.7597C358.019 41.1998 357.658 41.5599 357.218 41.5599C356.778 41.5599 356.418 41.1998 356.418 40.7597C356.418 38.2399 358.538 35.4796 358.618 35.3995C358.778 35.1995 359.018 35.0795 359.258 35.0795C359.499 35.0795 359.739 35.1995 359.899 35.3995C359.979 35.5196 362.099 38.2795 362.099 40.7597C362.098 41.2398 361.739 41.5599 361.299 41.5599Z" fill="url(#paint24_linear_5436_13653)"/>
<path d="M365.819 55.0001H362.618C362.178 55.0001 361.818 54.64 361.818 54.1999C361.818 53.7598 362.178 53.3998 362.618 53.3998H365.819C366.259 53.3998 366.619 53.7598 366.619 54.1999C366.619 54.6403 366.259 55.0001 365.819 55.0001Z" fill="url(#paint25_linear_5436_13653)"/>
<path d="M356.619 55.0001H353.419C352.979 55.0001 352.619 54.64 352.619 54.1999C352.619 53.7598 352.979 53.3998 353.419 53.3998H356.619C357.059 53.3998 357.419 53.7598 357.419 54.1999C357.419 54.6403 357.059 55.0001 356.619 55.0001Z" fill="url(#paint26_linear_5436_13653)"/>
<path d="M374.619 55.0001H371.419C370.979 55.0001 370.619 54.64 370.619 54.1999C370.619 53.7598 370.979 53.3998 371.419 53.3998H374.619C375.059 53.3998 375.419 53.7598 375.419 54.1999C375.419 54.6403 375.059 55.0001 374.619 55.0001Z" fill="url(#paint27_linear_5436_13653)"/>
<path d="M370.619 59H367.019C366.579 59 366.219 58.64 366.219 58.1999C366.219 57.7598 366.579 57.3997 367.019 57.3997H370.619C371.059 57.3997 371.419 57.7598 371.419 58.1999C371.419 58.64 371.059 59 370.619 59Z" fill="url(#paint28_linear_5436_13653)"/>
<path d="M362.619 59H359.019C358.579 59 358.219 58.64 358.219 58.1999C358.219 57.7598 358.579 57.3997 359.019 57.3997H362.619C363.059 57.3997 363.419 57.7598 363.419 58.1999C363.419 58.64 363.059 59 362.619 59Z" fill="url(#paint29_linear_5436_13653)"/>
<path d="M379.819 51.4002H350.219C349.779 51.4002 349.419 51.0402 349.419 50.6001C349.419 50.16 349.779 49.7999 350.219 49.7999H379.819C380.259 49.7999 380.619 50.16 380.619 50.6001C380.619 51.0402 380.259 51.4002 379.819 51.4002H379.819Z" fill="url(#paint30_linear_5436_13653)"/>
<path d="M371.419 43.0001C371.259 43.0001 371.099 42.9601 370.939 42.8401L367.019 40.0401C366.499 39.7601 366.219 39.24 366.219 38.6401L366.219 35.7999C366.219 35.5198 366.379 35.2398 366.619 35.0797C366.859 34.9197 367.179 34.9597 367.419 35.1198L371.819 37.9197C372.179 38.1598 372.299 38.6399 372.059 39.0396C371.819 39.3997 371.339 39.5197 370.939 39.2797L367.779 37.2796V38.6796C367.819 38.6796 367.859 38.7196 367.899 38.7196L371.86 41.5596C372.22 41.7996 372.3 42.3198 372.06 42.6795C371.899 42.8801 371.659 43.0001 371.419 43.0001Z" fill="url(#paint31_linear_5436_13653)"/>
<path d="M371.419 47.0001C371.259 47.0001 371.099 46.9601 370.939 46.8401L367.019 44.0401C366.499 43.76 366.219 43.2399 366.219 42.6401L366.219 38.6002C366.219 38.1601 366.579 37.8 367.019 37.8C367.459 37.8 367.819 38.1601 367.819 38.6002V42.6401C367.859 42.6401 367.899 42.6801 367.939 42.6801L371.9 45.5201C372.26 45.7602 372.34 46.2803 372.1 46.64C371.899 46.88 371.659 47.0001 371.419 47.0001Z" fill="url(#paint32_linear_5436_13653)"/>
<path d="M371.819 43.0001C371.578 43.0001 371.338 42.8801 371.178 42.6801C370.938 42.32 371.018 41.8402 371.378 41.5602L375.339 38.7202C375.379 38.6802 375.419 38.6802 375.459 38.6402V37.2802L372.299 39.2803C371.939 39.5203 371.419 39.4003 371.179 39.0402C370.939 38.6801 371.059 38.1604 371.419 37.9203L375.819 35.1204C376.059 34.9603 376.379 34.9603 376.619 35.0804C376.859 35.2404 377.019 35.4804 377.019 35.8005V38.6405C377.019 39.2006 376.699 39.7204 376.219 40.0405L372.299 42.8805C372.139 42.9602 371.979 43.0001 371.819 43.0001Z" fill="url(#paint33_linear_5436_13653)"/>
<path d="M371.819 47.0001C371.578 47.0001 371.338 46.8801 371.178 46.68C370.938 46.32 371.018 45.8402 371.378 45.5602L375.339 42.7202C375.379 42.6802 375.419 42.6802 375.459 42.6402L375.419 38.6002C375.419 38.1601 375.779 37.8001 376.219 37.8001C376.659 37.8001 377.019 38.1602 377.019 38.6002V42.6402C377.019 43.2003 376.699 43.7201 376.219 44.0401L372.299 46.8801C372.139 46.9602 371.979 47.0001 371.819 47.0001Z" fill="url(#paint34_linear_5436_13653)"/>
<path d="M438.312 59.9033C438.133 59.803 437.921 59.7782 437.723 59.8336C437.532 59.8936 437.37 60.0215 437.268 60.1931C437.167 60.3764 437.144 60.5922 437.203 60.7929C437.264 60.9804 437.392 61.1393 437.563 61.2377C437.679 61.3016 437.81 61.3345 437.942 61.3326C438.012 61.3423 438.083 61.3423 438.152 61.3326C438.342 61.2733 438.503 61.1451 438.602 60.9727C438.708 60.7929 438.737 60.5783 438.682 60.3772C438.628 60.1757 438.494 60.0048 438.312 59.9033Z" fill="url(#paint35_linear_5436_13653)"/>
<path d="M459.389 37.5509C454.087 36.9365 451.049 38.1557 449.59 38.7454L449.09 38.9504C448.406 38.3006 447.736 36.7915 447.736 34.3031C447.771 33.3081 447.857 32.3155 447.996 31.3298C448.266 29.1062 448.386 27.9168 447.996 27.3024C447.766 26.8893 447.425 26.5492 447.012 26.3194C446.599 26.09 446.13 25.9804 445.658 26.0029C444.109 26.073 442.539 27.4771 441.36 29.8607C439.576 33.4686 439.416 36.6165 439.296 38.9203H439.296C439.281 39.7227 439.207 40.5223 439.076 41.3139C438.971 41.701 438.69 42.0156 438.317 42.1636C436.738 42.9632 433.39 42.6634 430.856 41.5138C428.218 40.3096 426.809 40.7591 426.094 41.3488C425.38 41.9385 425.035 43.0825 425.335 44.3471C425.949 46.8705 429.203 50.9631 435.329 51.1932C437.448 51.273 438.167 51.6178 438.397 51.8879C438.627 52.1576 438.557 52.5675 438.462 53.2672L438.427 53.5322C438.093 56.2307 434.79 59.4085 433.375 60.768C432.336 61.7676 432.451 62.8168 432.901 63.4716C433.79 64.756 436.424 65.2306 439.742 63.6514C444.029 61.6177 445.623 58.8491 446.887 56.1908C447.587 54.7166 448.022 54.4368 448.222 54.3969C448.422 54.357 448.756 54.5469 449.161 54.8967C450.78 56.3957 451.86 57.8048 452.359 59.0191L452.359 59.0183C452.769 60.0772 453 61.1969 453.043 62.3313C453.133 63.4855 453.223 64.68 454.487 64.9399C454.676 64.9799 454.869 65 455.062 65C455.854 64.9841 456.615 64.6924 457.216 64.1751C457.965 63.5556 459.214 62.0365 459.164 58.8482C459.059 52.2322 456.491 49.4892 454.942 48.4C454.627 48.185 454.307 47.8402 454.337 47.5155C454.337 47.3504 454.532 46.7607 456.136 46.0714C457.804 45.393 459.561 44.9587 461.353 44.782C462.927 44.5771 464.171 44.4124 464.606 43.328H464.606C464.917 42.4496 464.787 41.4752 464.257 40.7097C463.152 39.0181 461.384 37.8717 459.389 37.5512L459.389 37.5509ZM463.212 42.7728C463.107 43.0379 462.068 43.1777 461.153 43.2726C459.226 43.4749 457.338 43.953 455.547 44.6919C453.863 45.4164 452.953 46.316 452.848 47.3652H452.848C452.828 47.8205 452.933 48.2726 453.152 48.6725C453.37 49.0724 453.694 49.4048 454.087 49.6341C455.382 50.5338 457.585 52.927 457.671 58.8688C457.71 61.4321 456.806 62.5665 456.266 63.0163V63.0159C455.868 63.3778 455.33 63.5444 454.797 63.4708H454.747C454.608 63.0709 454.539 62.6498 454.542 62.2263C454.488 60.9334 454.219 59.6587 453.748 58.4538C453.158 57.0094 451.994 55.4856 450.19 53.8014C449.395 53.0567 448.661 52.7569 447.946 52.8921C447.052 53.0621 446.327 53.8463 445.538 55.5154C444.343 58.014 442.949 60.4425 439.106 62.2666C436.343 63.5808 434.509 63.1259 434.139 62.5912C433.965 62.3413 434.194 62.0314 434.419 61.8167C436.942 59.3932 439.566 56.5297 439.916 53.6917L439.951 53.4317C440.061 52.5971 440.185 51.6525 439.541 50.8932C438.896 50.1338 437.647 49.7487 435.383 49.6688C429.442 49.4441 427.128 45.3713 426.788 43.9622C426.713 43.6472 426.583 42.8777 427.043 42.498C427.503 42.1183 428.762 42.1981 430.226 42.8676C433.23 44.2369 437.003 44.4918 439.002 43.4926C439.786 43.1439 440.36 42.4457 440.551 41.6085C440.697 40.7429 440.781 39.8677 440.801 38.9902C440.916 36.6965 441.061 33.848 442.71 30.5202C443.784 28.3362 444.998 27.502 445.728 27.502C446.128 27.4889 446.501 27.7062 446.687 28.0615C446.817 28.4265 446.617 30.0603 446.482 31.1645C446.335 32.2102 446.245 33.2625 446.213 34.3179C446.213 38.3156 447.712 39.8146 448.346 40.3143C448.846 40.6793 449.391 40.4592 450.15 40.1493C451.494 39.5949 454.293 38.4654 459.215 39.04C460.76 39.2938 462.129 40.1837 462.988 41.4936C463.247 41.8664 463.329 42.334 463.212 42.7726L463.212 42.7728Z" fill="url(#paint36_linear_5436_13653)"/>
<path d="M444.829 31.7149C445.141 31.7168 445.423 31.5308 445.543 31.2434C445.664 30.9559 445.599 30.6242 445.38 30.403C445.16 30.1818 444.829 30.1151 444.541 30.2341C444.252 30.3526 444.064 30.6335 444.064 30.9454C444.07 31.3662 444.408 31.7067 444.829 31.7149Z" fill="url(#paint37_linear_5436_13653)"/>
<path d="M443.964 34.4187C444.322 34.4206 444.646 34.2063 444.785 33.8759C444.923 33.5458 444.848 33.1645 444.596 32.9103C444.344 32.6566 443.963 32.5799 443.632 32.7166C443.3 32.853 443.084 33.1757 443.084 33.5341C443.084 34.0208 443.477 34.4159 443.964 34.4187Z" fill="url(#paint38_linear_5436_13653)"/>
<path d="M443.604 37.666C444.008 37.666 444.373 37.4227 444.527 37.0492C444.682 36.6757 444.597 36.2456 444.311 35.9601C444.025 35.6742 443.595 35.5886 443.222 35.7432C442.848 35.8981 442.605 36.2623 442.605 36.6668C442.605 36.9318 442.71 37.186 442.897 37.3735C443.085 37.5606 443.339 37.666 443.604 37.666Z" fill="url(#paint39_linear_5436_13653)"/>
<path d="M444.854 39.7003C444.856 39.2493 444.585 38.8413 444.169 38.6674C443.753 38.4934 443.273 38.5876 442.953 38.9056C442.633 39.2241 442.537 39.7038 442.709 40.1207C442.881 40.5375 443.288 40.8099 443.739 40.8099C444.353 40.8099 444.851 40.314 444.854 39.7003Z" fill="url(#paint40_linear_5436_13653)"/>
<path d="M444.379 44.0476C444.876 44.0476 445.324 43.7481 445.515 43.289C445.705 42.8295 445.599 42.3006 445.248 41.9492C444.896 41.5978 444.368 41.4924 443.908 41.6826C443.449 41.8728 443.15 42.3211 443.15 42.8182C443.15 43.1444 443.279 43.4571 443.509 43.6876C443.74 43.9181 444.053 44.0476 444.379 44.0476Z" fill="url(#paint41_linear_5436_13653)"/>
<path d="M429.792 43.7421C429.592 43.7111 429.388 43.7595 429.223 43.8773C429.058 43.9974 428.945 44.1764 428.908 44.3767C428.847 44.7917 429.126 45.1803 429.538 45.2562C429.579 45.2616 429.621 45.2616 429.663 45.2562C430.037 45.2593 430.358 44.9908 430.422 44.6216V44.5968C430.468 44.1911 430.194 43.818 429.792 43.7421Z" fill="url(#paint42_linear_5436_13653)"/>
<path d="M432.221 44.9016C431.741 44.8229 431.288 45.1484 431.209 45.6284C431.131 46.1088 431.456 46.5617 431.936 46.6404H432.082C432.512 46.6369 432.878 46.3254 432.951 45.9008C432.986 45.6706 432.931 45.4358 432.796 45.2464C432.657 45.0604 432.451 44.9364 432.221 44.9016Z" fill="url(#paint43_linear_5436_13653)"/>
<path d="M435.274 45.6514C435.014 45.6103 434.749 45.6731 434.535 45.8265C434.316 45.978 434.17 46.2128 434.13 46.4759C434.087 46.7378 434.15 47.0055 434.305 47.2205C434.459 47.4332 434.69 47.577 434.95 47.6204C435.004 47.6254 435.06 47.6254 435.114 47.6204C435.322 47.6204 435.525 47.5557 435.694 47.4356C435.907 47.279 436.052 47.0462 436.099 46.7858C436.141 46.5243 436.079 46.2566 435.924 46.0412C435.767 45.8312 435.534 45.6913 435.274 45.6514Z" fill="url(#paint44_linear_5436_13653)"/>
<path d="M438.302 45.8964C438.012 45.848 437.714 45.9165 437.473 46.0862C437.234 46.2602 437.073 46.5202 437.023 46.8111C436.975 47.1025 437.045 47.4008 437.218 47.6407C437.389 47.882 437.65 48.0444 437.942 48.0901C438.004 48.0955 438.066 48.0955 438.128 48.0901C438.359 48.0912 438.585 48.0176 438.772 47.8805C439.011 47.7096 439.173 47.4508 439.222 47.1606C439.312 46.5589 438.903 45.9964 438.302 45.8964Z" fill="url(#paint45_linear_5436_13653)"/>
<path d="M441.105 48.0804C441.174 48.0878 441.242 48.0878 441.31 48.0804C441.556 48.0816 441.797 48.0084 442 47.8704C442.266 47.681 442.446 47.3931 442.5 47.0708C442.551 46.748 442.473 46.4183 442.285 46.1514C441.888 45.6016 441.122 45.4764 440.571 45.8716C440.303 46.0599 440.123 46.3482 440.071 46.6709C440.019 46.9925 440.097 47.3211 440.286 47.5857C440.479 47.8565 440.776 48.0355 441.105 48.0804Z" fill="url(#paint46_linear_5436_13653)"/>
<path d="M440.371 57.9543C440.166 57.8431 439.926 57.816 439.702 57.8796C439.476 57.9404 439.285 58.0899 439.172 58.2941C439.02 58.5677 439.024 58.9009 439.182 59.1709C439.34 59.441 439.629 59.6072 439.941 59.6083C440.023 59.6091 440.104 59.5971 440.181 59.5735C440.527 59.4785 440.78 59.1837 440.822 58.828C440.864 58.472 440.685 58.1268 440.371 57.9543Z" fill="url(#paint47_linear_5436_13653)"/>
<path d="M442.27 55.2912C442.035 55.1606 441.758 55.13 441.5 55.206C441.033 55.3509 440.739 55.8127 440.805 56.2978C440.872 56.7825 441.281 57.1475 441.77 57.1599C441.861 57.1606 441.952 57.149 442.04 57.125C442.295 57.0529 442.511 56.8821 442.64 56.6508C442.77 56.4195 442.802 56.1459 442.729 55.8906C442.66 55.6384 442.495 55.4229 442.27 55.2912Z" fill="url(#paint48_linear_5436_13653)"/>
<path d="M443.684 52.4872C443.15 52.1998 442.483 52.3931 442.185 52.922C442.04 53.1788 442.005 53.4838 442.09 53.7666C442.164 54.0459 442.343 54.2858 442.59 54.4361C442.757 54.5267 442.944 54.5748 443.134 54.576C443.238 54.576 443.34 54.5608 443.439 54.531C443.72 54.4593 443.96 54.2796 444.109 54.0312C444.261 53.7712 444.301 53.4605 444.222 53.1699C444.141 52.8793 443.948 52.6333 443.684 52.4872Z" fill="url(#paint49_linear_5436_13653)"/>
<path d="M444.704 49.3441C444.371 49.1593 443.972 49.1387 443.623 49.2883C443.273 49.4378 443.013 49.7408 442.917 50.1085C442.821 50.4766 442.901 50.8683 443.133 51.1693C443.365 51.4703 443.724 51.647 444.104 51.6474C444.219 51.6458 444.334 51.6292 444.444 51.5974C444.921 51.4614 445.27 51.0519 445.327 50.559C445.385 50.0662 445.141 49.5869 444.709 49.344L444.704 49.3441Z" fill="url(#paint50_linear_5436_13653)"/>
<path d="M454.992 57.9841C454.682 58.2569 454.64 58.7253 454.897 59.0487C455.024 59.1998 455.202 59.2994 455.397 59.3285H455.492C455.788 59.3296 456.058 59.1599 456.186 58.8926C456.313 58.6249 456.274 58.3083 456.086 58.079C455.82 57.7411 455.33 57.683 454.992 57.9492L454.992 57.9841Z" fill="url(#paint51_linear_5436_13653)"/>
<path d="M453.828 56.5598C453.976 56.7438 454.192 56.8593 454.427 56.8794H454.517C454.856 56.8759 455.163 56.6791 455.308 56.3727C455.452 56.0662 455.409 55.7043 455.197 55.4405C455.048 55.2584 454.833 55.1433 454.6 55.1208C454.366 55.0984 454.133 55.17 453.953 55.3204C453.771 55.4653 453.657 55.6784 453.638 55.9101C453.611 56.1433 453.68 56.3773 453.828 56.5598Z" fill="url(#paint52_linear_5436_13653)"/>
<path d="M452.178 52.5775C451.973 52.7457 451.842 52.9886 451.816 53.2532C451.79 53.5174 451.87 53.7817 452.039 53.9866C452.206 54.1904 452.447 54.3194 452.708 54.3466H452.808C453.039 54.3473 453.264 54.2679 453.443 54.1219C453.753 53.865 453.879 53.4473 453.762 53.0618C453.645 52.6766 453.309 52.3992 452.908 52.3578C452.645 52.3276 452.381 52.4074 452.178 52.5775Z" fill="url(#paint53_linear_5436_13653)"/>
<path d="M451.644 50.3885C451.458 50.1591 451.188 50.0134 450.894 49.9844C450.6 49.9553 450.307 50.0448 450.08 50.2335C449.733 50.5194 449.592 50.9859 449.721 51.416C449.852 51.8464 450.227 52.1568 450.674 52.2025H450.785C451.043 52.2052 451.294 52.1169 451.494 51.9526C451.722 51.7655 451.865 51.495 451.894 51.2017C451.922 50.9085 451.832 50.6155 451.644 50.3885Z" fill="url(#paint54_linear_5436_13653)"/>
<path d="M448.436 47.8603C448.113 47.8281 447.789 47.9253 447.537 48.1303C447.153 48.4449 446.996 48.9598 447.139 49.4352C447.282 49.911 447.697 50.2535 448.191 50.3038H448.316C448.975 50.3089 449.521 49.7932 449.554 49.1345C449.586 48.4759 449.093 47.9094 448.436 47.8502L448.436 47.8603Z" fill="url(#paint55_linear_5436_13653)"/>
<path d="M460.344 40.6396C460.068 40.5036 459.737 40.5462 459.505 40.7481C459.273 40.9499 459.184 41.2715 459.28 41.564C459.398 41.8666 459.69 42.0654 460.015 42.0638C460.094 42.065 460.174 42.0514 460.249 42.0239C460.651 41.8926 460.874 41.4633 460.749 41.0596C460.672 40.8732 460.528 40.7233 460.344 40.6396Z" fill="url(#paint56_linear_5436_13653)"/>
<path d="M456.991 40.4948C456.531 40.6513 456.283 41.1472 456.431 41.609C456.555 41.9674 456.892 42.208 457.271 42.2088C457.606 42.2041 457.91 42.0108 458.055 41.709C458.163 41.5005 458.182 41.2568 458.105 41.0344C457.942 40.5811 457.447 40.3413 456.991 40.4948Z" fill="url(#paint57_linear_5436_13653)"/>
<path d="M454.637 41.074C454.277 40.8954 453.845 40.9504 453.54 41.2135C453.236 41.4762 453.119 41.8958 453.243 42.2785C453.379 42.6873 453.762 42.9631 454.192 42.9627C454.299 42.9631 454.406 42.9465 454.507 42.9128C454.889 42.7837 455.156 42.4385 455.184 42.0368C455.212 41.635 454.997 41.2557 454.637 41.074Z" fill="url(#paint58_linear_5436_13653)"/>
<path d="M451.359 44.1626C451.478 44.1642 451.596 44.1456 451.709 44.1076C452.293 43.9104 452.606 43.2773 452.409 42.6934C452.211 42.1096 451.578 41.7965 450.995 41.9937C450.481 42.1696 450.168 42.6895 450.255 43.2258C450.341 43.7616 450.801 44.1572 451.344 44.1626L451.359 44.1626Z" fill="url(#paint59_linear_5436_13653)"/>
<path d="M448.046 45.7367C448.216 45.825 448.405 45.8715 448.596 45.8715C448.729 45.87 448.86 45.8479 448.986 45.8064C449.545 45.5387 449.818 44.896 449.621 44.3075C449.424 43.7193 448.819 43.3698 448.211 43.4931C447.569 43.7089 447.221 44.4028 447.432 45.0471C447.54 45.3477 447.76 45.5949 448.046 45.7367Z" fill="url(#paint60_linear_5436_13653)"/>
<path d="M445.229 44.6318C444.699 44.6318 444.19 44.8425 443.815 45.2172C443.44 45.5922 443.23 46.1006 443.23 46.6306C443.23 47.161 443.44 47.6694 443.815 48.044C444.19 48.419 444.699 48.6294 445.229 48.6294C445.759 48.6294 446.267 48.419 446.642 48.044C447.017 47.6693 447.227 47.161 447.227 46.6306C447.227 46.1006 447.017 45.5922 446.642 45.2172C446.267 44.8425 445.759 44.6318 445.229 44.6318ZM445.229 47.1754C445.026 47.1754 444.844 47.0537 444.767 46.867C444.69 46.6802 444.732 46.4652 444.875 46.3222C445.018 46.1793 445.233 46.1366 445.42 46.2141C445.606 46.2912 445.728 46.4737 445.728 46.6756C445.728 46.9518 445.504 47.1754 445.229 47.1754Z" fill="url(#paint61_linear_5436_13653)"/>
<defs>
<linearGradient id="paint0_linear_5436_13653" x1="57.6624" y1="53.6397" x2="57.6624" y2="61.6506" gradientUnits="userSpaceOnUse">
<stop stop-color="#ED3040"/>
<stop offset="1" stop-color="#2D23F4"/>
</linearGradient>
<linearGradient id="paint1_linear_5436_13653" x1="137.719" y1="53.6397" x2="137.719" y2="61.6506" gradientUnits="userSpaceOnUse">
<stop stop-color="#ED3040"/>
<stop offset="1" stop-color="#2D23F4"/>
</linearGradient>
<linearGradient id="paint2_linear_5436_13653" x1="137.719" y1="53.6397" x2="137.719" y2="61.6506" gradientUnits="userSpaceOnUse">
<stop stop-color="#ED3040"/>
<stop offset="1" stop-color="#2D23F4"/>
</linearGradient>
<linearGradient id="paint3_linear_5436_13653" x1="217.452" y1="53.6397" x2="217.452" y2="61.6506" gradientUnits="userSpaceOnUse">
<stop stop-color="#ED3040"/>
<stop offset="1" stop-color="#2D23F4"/>
</linearGradient>
<linearGradient id="paint4_linear_5436_13653" x1="217.452" y1="53.6397" x2="217.452" y2="61.6506" gradientUnits="userSpaceOnUse">
<stop stop-color="#ED3040"/>
<stop offset="1" stop-color="#2D23F4"/>
</linearGradient>
<linearGradient id="paint5_linear_5436_13653" x1="217.452" y1="53.6397" x2="217.452" y2="61.6506" gradientUnits="userSpaceOnUse">
<stop stop-color="#ED3040"/>
<stop offset="1" stop-color="#2D23F4"/>
</linearGradient>
<linearGradient id="paint6_linear_5436_13653" x1="217.452" y1="53.6397" x2="217.452" y2="61.6506" gradientUnits="userSpaceOnUse">
<stop stop-color="#ED3040"/>
<stop offset="1" stop-color="#2D23F4"/>
</linearGradient>
<linearGradient id="paint7_linear_5436_13653" x1="217.452" y1="53.6397" x2="217.452" y2="61.6506" gradientUnits="userSpaceOnUse">
<stop stop-color="#ED3040"/>
<stop offset="1" stop-color="#2D23F4"/>
</linearGradient>
<linearGradient id="paint8_linear_5436_13653" x1="217.452" y1="53.6397" x2="217.452" y2="61.6506" gradientUnits="userSpaceOnUse">
<stop stop-color="#ED3040"/>
<stop offset="1" stop-color="#2D23F4"/>
</linearGradient>
<linearGradient id="paint9_linear_5436_13653" x1="217.452" y1="53.6397" x2="217.452" y2="61.6506" gradientUnits="userSpaceOnUse">
<stop stop-color="#ED3040"/>
<stop offset="1" stop-color="#2D23F4"/>
</linearGradient>
<linearGradient id="paint10_linear_5436_13653" x1="217.452" y1="53.6397" x2="217.452" y2="61.6506" gradientUnits="userSpaceOnUse">
<stop stop-color="#ED3040"/>
<stop offset="1" stop-color="#2D23F4"/>
</linearGradient>
<linearGradient id="paint11_linear_5436_13653" x1="217.452" y1="53.6397" x2="217.452" y2="61.6506" gradientUnits="userSpaceOnUse">
<stop stop-color="#ED3040"/>
<stop offset="1" stop-color="#2D23F4"/>
</linearGradient>
<linearGradient id="paint12_linear_5436_13653" x1="217.452" y1="53.6397" x2="217.452" y2="61.6506" gradientUnits="userSpaceOnUse">
<stop stop-color="#ED3040"/>
<stop offset="1" stop-color="#2D23F4"/>
</linearGradient>
<linearGradient id="paint13_linear_5436_13653" x1="297.662" y1="53.6397" x2="297.662" y2="61.6506" gradientUnits="userSpaceOnUse">
<stop stop-color="#ED3040"/>
<stop offset="1" stop-color="#2D23F4"/>
</linearGradient>
<linearGradient id="paint14_linear_5436_13653" x1="297.662" y1="53.6397" x2="297.662" y2="61.6506" gradientUnits="userSpaceOnUse">
<stop stop-color="#ED3040"/>
<stop offset="1" stop-color="#2D23F4"/>
</linearGradient>
<linearGradient id="paint15_linear_5436_13653" x1="297.662" y1="53.6397" x2="297.662" y2="61.6506" gradientUnits="userSpaceOnUse">
<stop stop-color="#ED3040"/>
<stop offset="1" stop-color="#2D23F4"/>
</linearGradient>
<linearGradient id="paint16_linear_5436_13653" x1="297.662" y1="53.6397" x2="297.662" y2="61.6506" gradientUnits="userSpaceOnUse">
<stop stop-color="#ED3040"/>
<stop offset="1" stop-color="#2D23F4"/>
</linearGradient>
<linearGradient id="paint17_linear_5436_13653" x1="297.662" y1="53.6397" x2="297.662" y2="61.6506" gradientUnits="userSpaceOnUse">
<stop stop-color="#ED3040"/>
<stop offset="1" stop-color="#2D23F4"/>
</linearGradient>
<linearGradient id="paint18_linear_5436_13653" x1="297.662" y1="53.6397" x2="297.662" y2="61.6506" gradientUnits="userSpaceOnUse">
<stop stop-color="#ED3040"/>
<stop offset="1" stop-color="#2D23F4"/>
</linearGradient>
<linearGradient id="paint19_linear_5436_13653" x1="376.888" y1="53.6397" x2="376.888" y2="61.6506" gradientUnits="userSpaceOnUse">
<stop stop-color="#ED3040"/>
<stop offset="1" stop-color="#2D23F4"/>
</linearGradient>
<linearGradient id="paint20_linear_5436_13653" x1="376.888" y1="53.6397" x2="376.888" y2="61.6506" gradientUnits="userSpaceOnUse">
<stop stop-color="#ED3040"/>
<stop offset="1" stop-color="#2D23F4"/>
</linearGradient>
<linearGradient id="paint21_linear_5436_13653" x1="376.888" y1="53.6397" x2="376.888" y2="61.6506" gradientUnits="userSpaceOnUse">
<stop stop-color="#ED3040"/>
<stop offset="1" stop-color="#2D23F4"/>
</linearGradient>
<linearGradient id="paint22_linear_5436_13653" x1="376.888" y1="53.6397" x2="376.888" y2="61.6506" gradientUnits="userSpaceOnUse">
<stop stop-color="#ED3040"/>
<stop offset="1" stop-color="#2D23F4"/>
</linearGradient>
<linearGradient id="paint23_linear_5436_13653" x1="376.888" y1="53.6397" x2="376.888" y2="61.6506" gradientUnits="userSpaceOnUse">
<stop stop-color="#ED3040"/>
<stop offset="1" stop-color="#2D23F4"/>
</linearGradient>
<linearGradient id="paint24_linear_5436_13653" x1="376.888" y1="53.6397" x2="376.888" y2="61.6506" gradientUnits="userSpaceOnUse">
<stop stop-color="#ED3040"/>
<stop offset="1" stop-color="#2D23F4"/>
</linearGradient>
<linearGradient id="paint25_linear_5436_13653" x1="376.888" y1="53.6397" x2="376.888" y2="61.6506" gradientUnits="userSpaceOnUse">
<stop stop-color="#ED3040"/>
<stop offset="1" stop-color="#2D23F4"/>
</linearGradient>
<linearGradient id="paint26_linear_5436_13653" x1="376.888" y1="53.6397" x2="376.888" y2="61.6506" gradientUnits="userSpaceOnUse">
<stop stop-color="#ED3040"/>
<stop offset="1" stop-color="#2D23F4"/>
</linearGradient>
<linearGradient id="paint27_linear_5436_13653" x1="376.888" y1="53.6397" x2="376.888" y2="61.6506" gradientUnits="userSpaceOnUse">
<stop stop-color="#ED3040"/>
<stop offset="1" stop-color="#2D23F4"/>
</linearGradient>
<linearGradient id="paint28_linear_5436_13653" x1="376.888" y1="53.6397" x2="376.888" y2="61.6506" gradientUnits="userSpaceOnUse">
<stop stop-color="#ED3040"/>
<stop offset="1" stop-color="#2D23F4"/>
</linearGradient>
<linearGradient id="paint29_linear_5436_13653" x1="376.888" y1="53.6397" x2="376.888" y2="61.6506" gradientUnits="userSpaceOnUse">
<stop stop-color="#ED3040"/>
<stop offset="1" stop-color="#2D23F4"/>
</linearGradient>
<linearGradient id="paint30_linear_5436_13653" x1="376.888" y1="53.6397" x2="376.888" y2="61.6506" gradientUnits="userSpaceOnUse">
<stop stop-color="#ED3040"/>
<stop offset="1" stop-color="#2D23F4"/>
</linearGradient>
<linearGradient id="paint31_linear_5436_13653" x1="376.888" y1="53.6397" x2="376.888" y2="61.6506" gradientUnits="userSpaceOnUse">
<stop stop-color="#ED3040"/>
<stop offset="1" stop-color="#2D23F4"/>
</linearGradient>
<linearGradient id="paint32_linear_5436_13653" x1="376.888" y1="53.6397" x2="376.888" y2="61.6506" gradientUnits="userSpaceOnUse">
<stop stop-color="#ED3040"/>
<stop offset="1" stop-color="#2D23F4"/>
</linearGradient>
<linearGradient id="paint33_linear_5436_13653" x1="376.888" y1="53.6397" x2="376.888" y2="61.6506" gradientUnits="userSpaceOnUse">
<stop stop-color="#ED3040"/>
<stop offset="1" stop-color="#2D23F4"/>
</linearGradient>
<linearGradient id="paint34_linear_5436_13653" x1="376.888" y1="53.6397" x2="376.888" y2="61.6506" gradientUnits="userSpaceOnUse">
<stop stop-color="#ED3040"/>
<stop offset="1" stop-color="#2D23F4"/>
</linearGradient>
<linearGradient id="paint35_linear_5436_13653" x1="457.518" y1="53.9237" x2="457.518" y2="61.7343" gradientUnits="userSpaceOnUse">
<stop stop-color="#ED3040"/>
<stop offset="1" stop-color="#2D23F4"/>
</linearGradient>
<linearGradient id="paint36_linear_5436_13653" x1="457.518" y1="53.9237" x2="457.518" y2="61.7343" gradientUnits="userSpaceOnUse">
<stop stop-color="#ED3040"/>
<stop offset="1" stop-color="#2D23F4"/>
</linearGradient>
<linearGradient id="paint37_linear_5436_13653" x1="457.518" y1="53.9237" x2="457.518" y2="61.7343" gradientUnits="userSpaceOnUse">
<stop stop-color="#ED3040"/>
<stop offset="1" stop-color="#2D23F4"/>
</linearGradient>
<linearGradient id="paint38_linear_5436_13653" x1="457.518" y1="53.9237" x2="457.518" y2="61.7343" gradientUnits="userSpaceOnUse">
<stop stop-color="#ED3040"/>
<stop offset="1" stop-color="#2D23F4"/>
</linearGradient>
<linearGradient id="paint39_linear_5436_13653" x1="457.518" y1="53.9237" x2="457.518" y2="61.7343" gradientUnits="userSpaceOnUse">
<stop stop-color="#ED3040"/>
<stop offset="1" stop-color="#2D23F4"/>
</linearGradient>
<linearGradient id="paint40_linear_5436_13653" x1="457.518" y1="53.9237" x2="457.518" y2="61.7343" gradientUnits="userSpaceOnUse">
<stop stop-color="#ED3040"/>
<stop offset="1" stop-color="#2D23F4"/>
</linearGradient>
<linearGradient id="paint41_linear_5436_13653" x1="457.518" y1="53.9237" x2="457.518" y2="61.7343" gradientUnits="userSpaceOnUse">
<stop stop-color="#ED3040"/>
<stop offset="1" stop-color="#2D23F4"/>
</linearGradient>
<linearGradient id="paint42_linear_5436_13653" x1="457.518" y1="53.9237" x2="457.518" y2="61.7343" gradientUnits="userSpaceOnUse">
<stop stop-color="#ED3040"/>
<stop offset="1" stop-color="#2D23F4"/>
</linearGradient>
<linearGradient id="paint43_linear_5436_13653" x1="457.518" y1="53.9237" x2="457.518" y2="61.7343" gradientUnits="userSpaceOnUse">
<stop stop-color="#ED3040"/>
<stop offset="1" stop-color="#2D23F4"/>
</linearGradient>
<linearGradient id="paint44_linear_5436_13653" x1="457.518" y1="53.9237" x2="457.518" y2="61.7343" gradientUnits="userSpaceOnUse">
<stop stop-color="#ED3040"/>
<stop offset="1" stop-color="#2D23F4"/>
</linearGradient>
<linearGradient id="paint45_linear_5436_13653" x1="457.518" y1="53.9237" x2="457.518" y2="61.7343" gradientUnits="userSpaceOnUse">
<stop stop-color="#ED3040"/>
<stop offset="1" stop-color="#2D23F4"/>
</linearGradient>
<linearGradient id="paint46_linear_5436_13653" x1="457.518" y1="53.9237" x2="457.518" y2="61.7343" gradientUnits="userSpaceOnUse">
<stop stop-color="#ED3040"/>
<stop offset="1" stop-color="#2D23F4"/>
</linearGradient>
<linearGradient id="paint47_linear_5436_13653" x1="457.518" y1="53.9237" x2="457.518" y2="61.7343" gradientUnits="userSpaceOnUse">
<stop stop-color="#ED3040"/>
<stop offset="1" stop-color="#2D23F4"/>
</linearGradient>
<linearGradient id="paint48_linear_5436_13653" x1="457.518" y1="53.9237" x2="457.518" y2="61.7343" gradientUnits="userSpaceOnUse">
<stop stop-color="#ED3040"/>
<stop offset="1" stop-color="#2D23F4"/>
</linearGradient>
<linearGradient id="paint49_linear_5436_13653" x1="457.518" y1="53.9237" x2="457.518" y2="61.7343" gradientUnits="userSpaceOnUse">
<stop stop-color="#ED3040"/>
<stop offset="1" stop-color="#2D23F4"/>
</linearGradient>
<linearGradient id="paint50_linear_5436_13653" x1="457.518" y1="53.9237" x2="457.518" y2="61.7343" gradientUnits="userSpaceOnUse">
<stop stop-color="#ED3040"/>
<stop offset="1" stop-color="#2D23F4"/>
</linearGradient>
<linearGradient id="paint51_linear_5436_13653" x1="457.518" y1="53.9237" x2="457.518" y2="61.7343" gradientUnits="userSpaceOnUse">
<stop stop-color="#ED3040"/>
<stop offset="1" stop-color="#2D23F4"/>
</linearGradient>
<linearGradient id="paint52_linear_5436_13653" x1="457.518" y1="53.9237" x2="457.518" y2="61.7343" gradientUnits="userSpaceOnUse">
<stop stop-color="#ED3040"/>
<stop offset="1" stop-color="#2D23F4"/>
</linearGradient>
<linearGradient id="paint53_linear_5436_13653" x1="457.518" y1="53.9237" x2="457.518" y2="61.7343" gradientUnits="userSpaceOnUse">
<stop stop-color="#ED3040"/>
<stop offset="1" stop-color="#2D23F4"/>
</linearGradient>
<linearGradient id="paint54_linear_5436_13653" x1="457.518" y1="53.9237" x2="457.518" y2="61.7343" gradientUnits="userSpaceOnUse">
<stop stop-color="#ED3040"/>
<stop offset="1" stop-color="#2D23F4"/>
</linearGradient>
<linearGradient id="paint55_linear_5436_13653" x1="457.518" y1="53.9237" x2="457.518" y2="61.7343" gradientUnits="userSpaceOnUse">
<stop stop-color="#ED3040"/>
<stop offset="1" stop-color="#2D23F4"/>
</linearGradient>
<linearGradient id="paint56_linear_5436_13653" x1="457.518" y1="53.9237" x2="457.518" y2="61.7343" gradientUnits="userSpaceOnUse">
<stop stop-color="#ED3040"/>
<stop offset="1" stop-color="#2D23F4"/>
</linearGradient>
<linearGradient id="paint57_linear_5436_13653" x1="457.518" y1="53.9237" x2="457.518" y2="61.7343" gradientUnits="userSpaceOnUse">
<stop stop-color="#ED3040"/>
<stop offset="1" stop-color="#2D23F4"/>
</linearGradient>
<linearGradient id="paint58_linear_5436_13653" x1="457.518" y1="53.9237" x2="457.518" y2="61.7343" gradientUnits="userSpaceOnUse">
<stop stop-color="#ED3040"/>
<stop offset="1" stop-color="#2D23F4"/>
</linearGradient>
<linearGradient id="paint59_linear_5436_13653" x1="457.518" y1="53.9237" x2="457.518" y2="61.7343" gradientUnits="userSpaceOnUse">
<stop stop-color="#ED3040"/>
<stop offset="1" stop-color="#2D23F4"/>
</linearGradient>
<linearGradient id="paint60_linear_5436_13653" x1="457.518" y1="53.9237" x2="457.518" y2="61.7343" gradientUnits="userSpaceOnUse">
<stop stop-color="#ED3040"/>
<stop offset="1" stop-color="#2D23F4"/>
</linearGradient>
<linearGradient id="paint61_linear_5436_13653" x1="457.518" y1="53.9237" x2="457.518" y2="61.7343" gradientUnits="userSpaceOnUse">
<stop stop-color="#ED3040"/>
<stop offset="1" stop-color="#2D23F4"/>
</linearGradient>
</defs>
</svg>
