<svg width="500" height="170" viewBox="0 0 500 170" fill="none" xmlns="http://www.w3.org/2000/svg">
<rect x="0.5" y="0.5" width="499" height="169" rx="4.5" stroke="#9747FF" stroke-dasharray="10 5"/>
<path d="M57.2645 49.0775L51.5272 47.0147C50.6248 46.8213 49.3353 45.7898 49.3353 45.0807V43.9203C52.1073 41.3417 53.8479 36.5069 53.8479 33.4771L53.2676 31.1564L56.1041 29.029L53.5256 26.4504L49.5933 25.4834C46.8859 24.8389 44.0494 24.8389 41.4064 25.4834L37.4742 26.4504L34.8956 29.029L37.7321 31.1564L37.1518 33.4771C37.1518 36.507 38.8925 41.3417 41.6644 43.9203V45.0807C41.6644 45.7898 40.3753 46.8214 39.4725 47.0147L33.7353 49.0775C30.3833 50.3024 28.1914 53.461 28.1914 56.9421V65H62.8089V56.9421C62.7444 53.461 60.5528 50.3024 57.2651 49.0775H57.2645ZM36.8296 28.9651L38.1187 27.676L41.6643 26.7735C44.1139 26.129 46.757 26.129 49.271 26.7735L52.8166 27.676L54.1057 28.9651L51.785 30.7058L52.4296 33.349C47.7882 32.7686 43.082 32.7686 38.4404 33.349L39.085 30.7058L36.8296 28.9651ZM51.8498 34.5089C47.6597 35.7338 43.2761 35.7338 39.0859 34.5089C43.3406 34.0577 47.5952 34.0577 51.8498 34.5089ZM38.699 35.7338C40.9551 36.3784 43.2116 36.7008 45.4678 36.7008C47.724 36.7008 50.0446 36.3784 52.2366 35.7338C51.3987 39.6661 48.5622 44.3721 45.4678 44.3721C42.3734 44.3718 39.5369 39.6661 38.699 35.7338ZM44.3074 48.9492H46.6281L45.7899 50.8186L47.0148 63.7115H43.985L45.2098 50.8186L44.3074 48.9492ZM61.5194 63.7114H55.7822V59.7792H54.4931V63.7114H48.3046L47.0794 51.012L48.6264 47.6597H42.3088L43.8558 51.0762L42.6309 63.7112H36.4424V59.7789H35.1533V63.7112H29.4161V56.9424C29.4161 53.9771 31.2855 51.334 34.1221 50.3027L39.7305 48.3044C43.147 47.1441 42.8891 44.9522 42.8891 44.9522C43.6628 45.4034 44.5653 45.7258 45.4677 45.7258C46.3702 45.7258 47.2084 45.4679 48.0463 44.9522C48.0463 44.9522 47.7239 47.1441 51.205 48.3044L56.8134 50.3027C59.5853 51.3343 61.5194 53.9771 61.5194 56.9424L61.5194 63.7114Z" fill="url(#paint0_linear_5436_13668)"/>
<path d="M34.1525 53.104L33.7183 51.8901L39.3627 49.8704L39.7969 51.0843L34.1525 53.104Z" fill="url(#paint1_linear_5436_13668)"/>
<path d="M56.8179 53.0976L51.1735 51.0773L51.6081 49.8634L57.2524 51.8836L56.8179 53.0976Z" fill="url(#paint2_linear_5436_13668)"/>
<path d="M48.0466 29.9961V27.74H42.8894V29.9961L45.468 31.7368L48.0466 29.9961ZM44.1786 29.0291H46.7572V29.3515L45.468 30.1895L44.1789 29.3515L44.1786 29.0291Z" fill="url(#paint3_linear_5436_13668)"/>
<path d="M144.656 57.5169H141.916C141.532 57.5169 141.22 57.2047 141.22 56.82C141.22 56.4353 141.532 56.1231 141.916 56.1231H143.96L143.959 42.214C143.959 40.4216 142.511 38.9632 140.732 38.9632H106.736C106.352 38.9632 106.04 39.2757 106.04 39.6601V56.1232H108.083C108.468 56.1232 108.78 56.4353 108.78 56.8201C108.78 57.2048 108.468 57.5169 108.083 57.5169H105.343C104.959 57.5169 104.646 57.2048 104.646 56.8201V39.6597C104.646 38.5074 105.584 37.5694 106.736 37.5694H140.732C143.279 37.5694 145.353 39.6528 145.353 42.2136V56.82C145.353 57.2047 145.041 57.5169 144.656 57.5169ZM134.949 57.5169H115.05C114.665 57.5169 114.353 57.2047 114.353 56.82C114.353 56.4353 114.665 56.1231 115.05 56.1231H134.949C135.334 56.1231 135.646 56.4353 135.646 56.82C135.646 57.2047 135.334 57.5169 134.949 57.5169Z" fill="url(#paint4_linear_5436_13668)"/>
<path d="M111.567 61C109.262 61 107.387 59.125 107.387 56.8201C107.387 54.5155 109.262 52.6401 111.567 52.6401C113.871 52.6401 115.747 54.5152 115.747 56.8201C115.746 59.1246 113.871 61 111.567 61ZM111.567 54.0338C110.03 54.0338 108.781 55.2833 108.781 56.82C108.781 58.3567 110.03 59.6062 111.567 59.6062C113.103 59.6062 114.353 58.3567 114.353 56.82C114.353 55.2833 113.103 54.0338 111.567 54.0338Z" fill="url(#paint5_linear_5436_13668)"/>
<path d="M138.433 61C136.128 61 134.253 59.125 134.253 56.8201C134.253 54.5155 136.128 52.6401 138.433 52.6401C140.738 52.6401 142.613 54.5152 142.613 56.8201C142.613 59.1246 140.738 61 138.433 61ZM138.433 54.0338C136.896 54.0338 135.646 55.2833 135.646 56.82C135.646 58.3567 136.897 59.6062 138.433 59.6062C139.97 59.6062 141.219 58.3567 141.219 56.82C141.22 55.2832 139.97 54.0338 138.433 54.0338Z" fill="url(#paint6_linear_5436_13668)"/>
<path d="M144.656 52.8953H142.775C142.391 52.8953 142.079 52.5832 142.079 52.1984C142.079 51.8137 142.391 51.5016 142.775 51.5016H144.656C145.041 51.5016 145.353 51.8137 145.353 52.1984C145.353 52.5832 145.041 52.8953 144.656 52.8953Z" fill="url(#paint7_linear_5436_13668)"/>
<path d="M118.324 38.9628C117.939 38.9628 117.627 38.6506 117.627 38.2659V33.4361C117.627 33.0514 117.939 32.7392 118.324 32.7392C118.709 32.7392 119.021 33.0514 119.021 33.4361V38.2659C119.021 38.6509 118.709 38.9628 118.324 38.9628Z" fill="url(#paint8_linear_5436_13668)"/>
<path d="M110.568 38.9628C110.183 38.9628 109.871 38.6506 109.871 38.2659V34.8759C109.871 34.4912 110.183 34.179 110.568 34.179C110.953 34.179 111.265 34.4912 111.265 34.8759V38.2659C111.265 38.6509 110.953 38.9628 110.568 38.9628Z" fill="url(#paint9_linear_5436_13668)"/>
<path d="M126.102 38.9628C125.717 38.9628 125.405 38.6506 125.405 38.2659V32.0429C125.405 31.6582 125.717 31.3461 126.102 31.3461C126.487 31.3461 126.799 31.6582 126.799 32.0429V38.2659C126.799 38.6509 126.487 38.9628 126.102 38.9628Z" fill="url(#paint10_linear_5436_13668)"/>
<path d="M106.225 36.3862C105.896 36.3862 105.603 36.1517 105.541 35.8162C105.471 35.4377 105.721 35.0745 106.099 35.0041L132.686 30.0815C133.065 30.0158 133.429 30.2611 133.498 30.6398C133.569 31.0182 133.318 31.3815 132.941 31.4519L106.353 36.3745C106.31 36.3821 106.267 36.3862 106.225 36.3862L106.225 36.3862Z" fill="url(#paint11_linear_5436_13668)"/>
<path d="M140.731 38.9628C140.346 38.9628 140.034 38.6506 140.034 38.2659V36.3154C140.034 35.6883 139.524 35.1779 138.897 35.1779C138.282 35.1779 137.782 35.6883 137.782 36.3154V38.2659C137.782 38.6506 137.47 38.9628 137.085 38.9628C136.701 38.9628 136.389 38.6506 136.389 38.2659V36.3154C136.389 34.9198 137.513 33.7842 138.896 33.7842C140.292 33.7842 141.428 34.9198 141.428 36.3154V38.2659C141.428 38.6509 141.116 38.9628 140.731 38.9628Z" fill="url(#paint12_linear_5436_13668)"/>
<path d="M138.897 32.5782C138.512 32.5782 138.2 32.2661 138.2 31.8813V30.6969C138.2 30.3121 138.512 30 138.897 30C139.282 30 139.594 30.3121 139.594 30.6969V31.8813C139.594 32.2661 139.282 32.5782 138.897 32.5782Z" fill="url(#paint13_linear_5436_13668)"/>
<path d="M142.519 34.5747C142.341 34.5747 142.162 34.5068 142.026 34.3702C141.754 34.0981 141.754 33.6575 142.026 33.3852L142.863 32.5498C143.135 32.2771 143.576 32.2771 143.848 32.5498C144.12 32.8218 144.12 33.2624 143.848 33.5347L143.012 34.3702C142.876 34.5068 142.698 34.5747 142.519 34.5747Z" fill="url(#paint14_linear_5436_13668)"/>
<path d="M135.298 34.5747C135.12 34.5747 134.942 34.5068 134.806 34.3702L133.97 33.5347C133.698 33.2624 133.698 32.8215 133.97 32.5498C134.242 32.2771 134.683 32.2771 134.955 32.5498L135.791 33.3852C136.063 33.6576 136.063 34.0985 135.791 34.3702C135.655 34.5068 135.477 34.5747 135.298 34.5747Z" fill="url(#paint15_linear_5436_13668)"/>
<path d="M118.742 57.5169C118.358 57.5169 118.045 57.2047 118.045 56.82V48.4608C118.045 48.0761 118.358 47.7639 118.742 47.7639H130.655C131.04 47.7639 131.352 48.0761 131.352 48.4608V56.82C131.352 57.2047 131.039 57.5169 130.655 57.5169H118.742ZM119.439 56.1231H129.958L129.958 49.1569H119.439L119.439 56.1231Z" fill="url(#paint16_linear_5436_13668)"/>
<path d="M122.341 53.2209C121.403 53.2209 120.669 52.4858 120.669 51.5482C120.669 50.6266 121.419 49.8764 122.341 49.8764C123.263 49.8764 124.013 50.6269 124.013 51.5482C124.013 52.4856 123.279 53.2209 122.341 53.2209ZM122.341 51.2698C122.193 51.2698 122.063 51.4002 122.063 51.5482C122.063 51.9146 122.619 51.9146 122.619 51.5482C122.619 51.4002 122.489 51.2698 122.341 51.2698Z" fill="url(#paint17_linear_5436_13668)"/>
<path d="M127.055 53.2209C126.104 53.2209 125.36 52.4858 125.36 51.5482C125.36 50.6266 126.12 49.8764 127.055 49.8764C127.977 49.8764 128.727 50.6269 128.727 51.5482C128.727 52.4856 127.992 53.2209 127.055 53.2209ZM127.055 51.2698C126.888 51.2698 126.753 51.3945 126.753 51.5482C126.752 51.9241 127.334 51.9225 127.334 51.5482C127.334 51.4002 127.204 51.2698 127.055 51.2698Z" fill="url(#paint18_linear_5436_13668)"/>
<path d="M127.983 55.4032H121.389C121.004 55.4032 120.692 55.0911 120.692 54.7064C120.692 54.3216 121.004 54.0095 121.389 54.0095H127.983C128.368 54.0095 128.68 54.3216 128.68 54.7064C128.68 55.0914 128.368 55.4032 127.983 55.4032Z" fill="url(#paint19_linear_5436_13668)"/>
<path d="M144.656 47.1369H137.086C136.701 47.1369 136.389 46.8248 136.389 46.4401V38.2667C136.389 37.882 136.701 37.5698 137.086 37.5698C137.471 37.5698 137.783 37.882 137.783 38.2667V45.7438H144.656C145.041 45.7438 145.353 46.056 145.353 46.4407C145.353 46.8254 145.041 47.1373 144.656 47.1373V47.1369Z" fill="url(#paint20_linear_5436_13668)"/>
<path d="M134.323 45.2794H127.473C127.088 45.2794 126.776 44.9673 126.776 44.5826V40.6118C126.776 40.2271 127.088 39.9149 127.473 39.9149H134.323C134.708 39.9149 135.02 40.2271 135.02 40.6118V44.5826C135.02 44.9673 134.708 45.2794 134.323 45.2794ZM128.17 43.8857H133.627V41.3087H128.17V43.8857Z" fill="url(#paint21_linear_5436_13668)"/>
<path d="M120.855 43.2821H110.499C110.114 43.2821 109.802 42.97 109.802 42.5853C109.802 42.2005 110.114 41.8884 110.499 41.8884H120.855C121.24 41.8884 121.552 42.2005 121.552 42.5853C121.552 42.97 121.24 43.2821 120.855 43.2821Z" fill="url(#paint22_linear_5436_13668)"/>
<path d="M122.759 44.5127H120.854C120.47 44.5127 120.157 44.2005 120.157 43.8158V41.3774C120.157 40.9926 120.47 40.6805 120.854 40.6805H122.759C123.143 40.6805 123.456 40.9926 123.456 41.3774V43.8158C123.456 44.2008 123.144 44.5127 122.759 44.5127ZM121.551 43.1192H122.062V42.0746H121.551V43.1192Z" fill="url(#paint23_linear_5436_13668)"/>
<path d="M110.499 44.5127H108.571C108.187 44.5127 107.874 44.2005 107.874 43.8158V41.3774C107.874 40.9926 108.187 40.6805 108.571 40.6805H110.499C110.883 40.6805 111.196 40.9926 111.196 41.3774V43.8158C111.196 44.2008 110.883 44.5127 110.499 44.5127ZM109.268 43.1192H109.802V42.0746H109.268V43.1192Z" fill="url(#paint24_linear_5436_13668)"/>
<path d="M118.742 50.1321H105.344C104.959 50.1321 104.647 49.8202 104.647 49.4355C104.647 49.0508 104.959 48.7386 105.344 48.7386H118.742C119.127 48.7386 119.439 49.0508 119.439 49.4355C119.439 49.8202 119.127 50.1321 118.742 50.1321Z" fill="url(#paint25_linear_5436_13668)"/>
<path d="M137.086 50.1321H130.655C130.27 50.1321 129.958 49.8199 129.958 49.4352C129.958 49.0505 130.27 48.7383 130.655 48.7383H137.086C137.471 48.7383 137.783 49.0505 137.783 49.4352C137.783 49.8202 137.471 50.1321 137.086 50.1321Z" fill="url(#paint26_linear_5436_13668)"/>
<path d="M192.131 37.5294C189.228 37.5294 186.866 35.1681 186.866 32.2647C186.866 29.3617 189.228 27 192.131 27C195.033 27 197.395 29.3613 197.395 32.2647C197.395 35.1681 195.034 37.5294 192.131 37.5294ZM192.131 28.7749C190.206 28.7749 188.64 30.3405 188.64 32.2651C188.64 34.1896 190.206 35.7552 192.131 35.7552C194.055 35.7552 195.621 34.1896 195.621 32.2651C195.621 30.3401 194.055 28.7749 192.131 28.7749Z" fill="url(#paint27_linear_5436_13668)"/>
<path d="M194.652 63.9995C194.642 63.9995 194.631 63.9995 194.621 63.9991H189.569C188.549 63.9773 187.686 63.047 187.686 61.9671L187.686 43.1885H189.461V61.9662C189.461 62.0828 189.558 62.2061 189.61 62.2241H194.647C194.699 62.223 194.734 62.2015 194.755 62.1814C194.776 62.1614 194.8 62.1265 194.8 62.0744V43.3408H196.575V62.0744C196.575 62.596 196.37 63.0845 195.997 63.4498C195.634 63.8045 195.158 63.9989 194.652 63.9989L194.652 63.9995Z" fill="url(#paint28_linear_5436_13668)"/>
<path d="M199.627 51.4759H197.853V42.5918C197.853 41.0533 196.601 39.8015 195.062 39.8015L189.198 39.8011C187.66 39.8011 186.408 41.053 186.408 42.5914V51.323H184.633L184.633 42.5918C184.633 40.0744 186.681 38.027 189.198 38.027H195.062C197.579 38.027 199.627 40.0748 199.627 42.5918L199.627 51.4759Z" fill="url(#paint29_linear_5436_13668)"/>
<path d="M216.135 37.5294C213.232 37.5294 210.87 35.1681 210.87 32.2647C210.87 29.3617 213.232 27 216.135 27C219.037 27 221.399 29.3613 221.399 32.2647C221.399 35.1681 219.037 37.5294 216.135 37.5294ZM216.135 28.7749C214.21 28.7749 212.644 30.3405 212.644 32.2651C212.644 34.1896 214.21 35.7552 216.135 35.7552C218.059 35.7552 219.625 34.1896 219.625 32.2651C219.624 30.3401 218.059 28.7749 216.135 28.7749Z" fill="url(#paint30_linear_5436_13668)"/>
<path d="M218.659 63.9995C218.647 63.9995 218.636 63.9995 218.624 63.9991H213.573C212.534 63.9769 211.689 63.0943 211.689 62.0305V58.2515H210.15C209.726 58.2515 209.331 58.0624 209.066 57.7331C208.8 57.4034 208.699 56.9776 208.789 56.564L211.71 43.0648L213.445 43.4403L210.624 56.4778H213.464V62.0314C213.464 62.1258 213.545 62.2205 213.607 62.2251H218.651C218.721 62.2265 218.769 62.2057 218.789 62.1856C218.795 62.18 218.803 62.1719 218.803 62.1395L218.804 56.4779H221.642L218.824 43.5954L220.558 43.2164L223.477 56.5632C223.567 56.9775 223.466 57.404 223.201 57.734C222.936 58.0637 222.54 58.2532 222.117 58.2532H220.579V62.1403C220.579 62.6425 220.384 63.1092 220.031 63.4548C219.67 63.807 219.185 64 218.659 64L218.659 63.9995Z" fill="url(#paint31_linear_5436_13668)"/>
<path d="M208.592 51.4317L206.858 51.0559L208.918 41.5529C209.133 40.5576 209.689 39.6573 210.482 39.018C211.275 38.3787 212.272 38.0265 213.29 38.0265H218.936C219.954 38.0265 220.951 38.3787 221.744 39.018C222.537 39.6573 223.093 40.5579 223.308 41.5529L225.368 51.0559L223.634 51.4317L221.574 41.9288C221.307 40.696 220.197 39.8006 218.936 39.8006H213.29C212.028 39.8006 210.919 40.6952 210.652 41.9288L208.592 51.4317Z" fill="url(#paint32_linear_5436_13668)"/>
<path d="M203.239 54.1909C201.511 54.1909 200.104 52.784 200.104 51.0554C200.104 49.3268 201.511 47.92 203.239 47.92C204.968 47.92 206.375 49.3268 206.375 51.0554C206.375 52.784 204.968 54.1909 203.239 54.1909ZM203.239 49.694C202.489 49.694 201.878 50.3044 201.878 51.055C201.878 51.8057 202.489 52.4161 203.239 52.4161C203.99 52.4161 204.6 51.8057 204.6 51.055C204.6 50.3048 203.99 49.694 203.239 49.694Z" fill="url(#paint33_linear_5436_13668)"/>
<path d="M204.848 63.9986H201.631C200.792 63.9986 200.11 63.3163 200.11 62.4773V57.9175C200.11 57.647 200.024 57.3881 199.864 57.17L197.151 53.4897L198.58 52.4369L201.292 56.1172C201.68 56.6431 201.884 57.2654 201.884 57.9174V62.2241H204.595V57.9167C204.595 57.2641 204.799 56.6416 205.187 56.1165L207.899 52.4375L209.328 53.4907L206.615 57.1697C206.455 57.3881 206.369 57.6462 206.369 57.9171V62.4777C206.369 63.3163 205.687 63.9986 204.848 63.9986Z" fill="url(#paint34_linear_5436_13668)"/>
<path d="M302.659 34.2408C302.083 35.7297 301.511 37.2142 300.935 38.7031C300.018 41.0752 299.101 43.4429 298.188 45.8149C297.978 46.3575 297.768 46.9041 297.557 47.4468C297.961 47.1399 298.369 46.8287 298.773 46.5215H281.568C280.773 46.5215 279.978 46.5005 279.183 46.5215H279.149C279.553 46.8284 279.961 47.1396 280.365 47.4468C280.163 46.8327 279.961 46.2187 279.759 45.6006C279.271 44.1243 278.787 42.6482 278.299 41.1719C277.715 39.3929 277.13 37.6138 276.542 35.8351C276.033 34.2917 275.524 32.7481 275.019 31.2048C274.771 30.4562 274.54 29.7036 274.279 28.959C274.275 28.9463 274.271 28.9379 274.266 28.9252C274.09 28.3953 273.623 28 273.051 28H266.124C265.464 28 264.833 28.5803 264.862 29.2619C264.892 29.9474 265.418 30.5237 266.124 30.5237H273.051C272.647 30.2169 272.239 29.9057 271.835 29.5985C272.037 30.2125 272.239 30.8266 272.441 31.4447C272.929 32.9209 273.413 34.3971 273.901 35.8733C274.486 37.6517 275.074 39.4307 275.659 41.2095C276.168 42.7528 276.677 44.2964 277.181 45.8398C277.429 46.5884 277.661 47.341 277.921 48.0856C277.926 48.0983 277.93 48.1066 277.934 48.1193C278.111 48.6492 278.578 49.0446 279.15 49.0446H296.355C297.15 49.0446 297.945 49.0699 298.74 49.0446H298.773C299.375 49.0446 299.787 48.6449 299.989 48.1193C300.565 46.6304 301.137 45.1459 301.713 43.657C302.63 41.2849 303.547 38.9172 304.459 36.5451C304.67 36.0025 304.88 35.456 305.09 34.9133C305.199 34.6275 305.111 34.1984 304.964 33.9417C304.813 33.6809 304.51 33.4285 304.211 33.3613C303.887 33.2899 303.525 33.3026 303.239 33.4876C302.945 33.6772 302.781 33.9213 302.659 34.2409L302.659 34.2408Z" fill="url(#paint35_linear_5436_13668)"/>
<path d="M278.06 47.1431C277.379 48.3586 276.694 49.5697 276.012 50.785C275.915 50.9616 275.814 51.1339 275.718 51.3106C275.251 52.139 275.84 53.2072 276.807 53.2072H296.069C296.956 53.2072 297.848 53.2239 298.739 53.2072H298.777C299.437 53.2072 300.068 52.6269 300.039 51.9454C300.009 51.2598 299.483 50.6835 298.777 50.6835H279.515C278.628 50.6835 277.732 50.6581 276.845 50.6835H276.807C277.168 51.3142 277.534 51.9494 277.896 52.5801C278.577 51.3647 279.263 50.1536 279.944 48.9382C280.041 48.7616 280.142 48.5893 280.239 48.4127C280.563 47.8364 280.394 47.0079 279.785 46.6884C279.188 46.3778 278.405 46.5291 278.06 47.1431Z" fill="url(#paint36_linear_5436_13668)"/>
<path d="M290.736 58.8693C290.745 59.685 290.98 60.5305 291.459 61.1993C291.989 61.9352 292.666 62.4484 293.516 62.768C295.03 63.3357 296.935 62.8311 297.966 61.5864C298.567 60.8588 298.904 60.047 298.979 59.1051C299.046 58.3018 298.819 57.4356 298.403 56.7457C297.995 56.0769 297.385 55.4882 296.666 55.1603C295.804 54.765 294.908 54.6558 293.978 54.8364C292.095 55.2061 290.757 56.9894 290.736 58.8693C290.728 59.5294 291.321 60.1605 291.998 60.1312C292.688 60.1018 293.251 59.5759 293.26 58.8694C293.26 58.7305 293.273 58.5959 293.289 58.4613C293.273 58.5749 293.26 58.6844 293.243 58.7979C293.281 58.5538 293.344 58.3184 293.441 58.0914C293.398 58.1922 293.356 58.2934 293.314 58.3942C293.386 58.2343 293.466 58.0787 293.562 57.9318C293.571 57.9191 293.634 57.8182 293.642 57.8182C293.647 57.8182 293.432 58.0747 293.545 57.9445C293.604 57.877 293.663 57.8056 293.73 57.7424C293.789 57.6837 293.852 57.6289 293.911 57.5741C293.991 57.5027 294.113 57.469 293.806 57.6539C293.836 57.6373 293.865 57.6119 293.894 57.5908C294.05 57.4857 294.21 57.4015 294.382 57.3257C294.281 57.3678 294.18 57.4099 294.079 57.4519C294.306 57.3594 294.542 57.292 294.786 57.2543C294.672 57.271 294.563 57.2836 294.449 57.3007C294.723 57.2629 294.992 57.2629 295.265 57.3007C295.151 57.284 295.042 57.2713 294.928 57.2543C295.172 57.292 295.408 57.3551 295.635 57.4519C295.534 57.4099 295.433 57.3678 295.332 57.3257C295.492 57.3972 295.648 57.477 295.795 57.5738C295.807 57.5822 295.908 57.6453 295.908 57.6536C295.908 57.6579 295.652 57.4433 295.782 57.5568C295.849 57.6155 295.921 57.6746 295.984 57.7418C296.043 57.8005 296.097 57.8636 296.152 57.9227C296.224 58.0025 296.257 58.1248 296.072 57.8176C296.089 57.8469 296.114 57.8763 296.135 57.9057C296.241 58.0613 296.325 58.2212 296.401 58.3935C296.359 58.2927 296.316 58.1915 296.274 58.0907C296.367 58.3177 296.434 58.5532 296.472 58.7972C296.455 58.6837 296.443 58.5742 296.426 58.4607C296.463 58.7341 296.463 59.0033 296.426 59.2764C296.442 59.1629 296.455 59.0533 296.472 58.9398C296.434 59.1839 296.371 59.4193 296.274 59.6464C296.316 59.5455 296.359 59.4443 296.401 59.3435C296.329 59.5034 296.249 59.659 296.152 59.806C296.144 59.8187 296.081 59.9195 296.073 59.9195C296.068 59.9195 296.283 59.663 296.17 59.7933C296.111 59.8607 296.052 59.9322 295.985 59.9953C295.926 60.0541 295.863 60.1088 295.804 60.1636C295.724 60.235 295.602 60.2688 295.909 60.0838C295.879 60.1005 295.85 60.1258 295.821 60.1469C295.665 60.2521 295.505 60.3362 295.333 60.412C295.434 60.3699 295.535 60.3279 295.636 60.2858C295.409 60.3783 295.173 60.4457 294.929 60.4835C295.043 60.4668 295.152 60.4541 295.266 60.437C294.992 60.4748 294.723 60.4748 294.45 60.437C294.563 60.4537 294.673 60.4664 294.786 60.4835C294.542 60.4457 294.307 60.3826 294.08 60.2858C294.181 60.3279 294.282 60.3699 294.383 60.412C294.223 60.3405 294.067 60.2608 293.92 60.1639C293.908 60.1556 293.807 60.0925 293.807 60.0841C293.807 60.0798 294.063 60.2945 293.933 60.1809C293.866 60.1222 293.794 60.0631 293.731 59.996C293.672 59.9372 293.617 59.8741 293.563 59.815C293.491 59.7352 293.458 59.613 293.643 59.9202C293.626 59.8908 293.6 59.8614 293.579 59.832C293.474 59.6764 293.39 59.5165 293.314 59.3442C293.356 59.445 293.398 59.5462 293.441 59.647C293.348 59.42 293.281 59.1846 293.243 58.9405C293.26 59.054 293.272 59.1635 293.289 59.2771C293.273 59.1425 293.26 59.0079 293.26 58.869C293.252 58.2089 292.684 57.5779 291.998 57.6072C291.321 57.6369 290.728 58.1585 290.736 58.8694L290.736 58.8693Z" fill="url(#paint37_linear_5436_13668)"/>
<path d="M276.24 58.8693C276.248 59.685 276.484 60.5305 276.963 61.1993C277.493 61.9352 278.17 62.4484 279.019 62.768C280.533 63.3357 282.439 62.8311 283.469 61.5864C284.07 60.8588 284.407 60.047 284.482 59.1051C284.55 58.3018 284.323 57.4356 283.906 56.7457C283.498 56.0769 282.888 55.4882 282.169 55.1603C281.307 54.765 280.411 54.6558 279.482 54.8364C277.594 55.2061 276.256 56.9894 276.24 58.8693C276.231 59.5294 276.824 60.1605 277.501 60.1312C278.191 60.1018 278.755 59.5759 278.763 58.8694C278.763 58.7305 278.776 58.5959 278.793 58.4613C278.776 58.5749 278.763 58.6844 278.746 58.7979C278.784 58.5538 278.847 58.3184 278.944 58.0914C278.902 58.1922 278.86 58.2934 278.818 58.3942C278.889 58.2343 278.969 58.0787 279.066 57.9318C279.074 57.9191 279.137 57.8182 279.146 57.8182C279.15 57.8182 278.935 58.0747 279.049 57.9445C279.108 57.877 279.167 57.8056 279.234 57.7424C279.293 57.6837 279.356 57.6289 279.415 57.5741C279.495 57.5027 279.617 57.469 279.31 57.6539C279.339 57.6373 279.368 57.6119 279.398 57.5908C279.553 57.4857 279.713 57.4015 279.886 57.3257C279.785 57.3678 279.684 57.4099 279.583 57.4519C279.81 57.3594 280.045 57.292 280.289 57.2543C280.176 57.271 280.066 57.2836 279.953 57.3007C280.226 57.2629 280.495 57.2629 280.768 57.3007C280.655 57.284 280.545 57.2713 280.432 57.2543C280.676 57.292 280.911 57.3551 281.138 57.4519C281.038 57.4099 280.936 57.3678 280.836 57.3257C280.995 57.3972 281.151 57.477 281.298 57.5738C281.311 57.5822 281.412 57.6453 281.412 57.6536C281.412 57.6579 281.155 57.4433 281.285 57.5568C281.353 57.6155 281.424 57.6746 281.487 57.7418C281.546 57.8005 281.601 57.8636 281.656 57.9227C281.727 58.0025 281.761 58.1248 281.576 57.8176C281.592 57.8469 281.618 57.8763 281.639 57.9057C281.744 58.0613 281.828 58.2212 281.904 58.3935C281.862 58.2927 281.82 58.1915 281.778 58.0907C281.87 58.3177 281.938 58.5532 281.975 58.7972C281.959 58.6837 281.946 58.5742 281.929 58.4607C281.967 58.7341 281.967 59.0033 281.929 59.2764C281.946 59.1629 281.958 59.0533 281.975 58.9398C281.938 59.1839 281.875 59.4193 281.778 59.6464C281.82 59.5455 281.862 59.4443 281.904 59.3435C281.833 59.5034 281.753 59.659 281.656 59.806C281.648 59.8187 281.584 59.9195 281.576 59.9195C281.572 59.9195 281.786 59.663 281.673 59.7933C281.614 59.8607 281.555 59.9322 281.488 59.9953C281.429 60.0541 281.366 60.1088 281.307 60.1636C281.227 60.235 281.105 60.2688 281.412 60.0838C281.383 60.1005 281.353 60.1258 281.324 60.1469C281.168 60.2521 281.008 60.3362 280.836 60.412C280.937 60.3699 281.038 60.3279 281.139 60.2858C280.912 60.3783 280.677 60.4457 280.433 60.4835C280.546 60.4668 280.656 60.4541 280.769 60.437C280.496 60.4748 280.226 60.4748 279.953 60.437C280.067 60.4537 280.176 60.4664 280.29 60.4835C280.046 60.4457 279.81 60.3826 279.583 60.2858C279.684 60.3279 279.785 60.3699 279.886 60.412C279.726 60.3405 279.571 60.2608 279.424 60.1639C279.411 60.1556 279.31 60.0925 279.31 60.0841C279.31 60.0798 279.567 60.2945 279.436 60.1809C279.369 60.1222 279.298 60.0631 279.234 59.996C279.176 59.9372 279.121 59.8741 279.066 59.815C278.995 59.7352 278.961 59.613 279.146 59.9202C279.129 59.8908 279.104 59.8614 279.083 59.832C278.978 59.6764 278.894 59.5165 278.818 59.3442C278.86 59.445 278.902 59.5462 278.944 59.647C278.851 59.42 278.784 59.1846 278.746 58.9405C278.763 59.054 278.776 59.1635 278.793 59.2771C278.776 59.1425 278.763 59.0079 278.763 58.869C278.755 58.2089 278.187 57.5779 277.501 57.6072C276.82 57.6369 276.231 58.1585 276.24 58.8694L276.24 58.8693Z" fill="url(#paint38_linear_5436_13668)"/>
<path d="M282.779 36.0239C284.028 37.273 285.281 38.5261 286.53 39.7754C286.711 39.9563 286.888 40.133 287.069 40.3136C287.552 40.7971 288.368 40.7971 288.852 40.3136C289.874 39.2915 290.895 38.2698 291.918 37.2477C293.549 35.6159 295.177 33.9884 296.809 32.3566L297.936 31.2293C298.403 30.7625 298.436 29.9044 297.936 29.4463C297.431 28.9838 296.649 28.9457 296.153 29.4463L293.087 32.5122C291.455 34.1437 289.828 35.7715 288.196 37.4033C287.822 37.7776 287.447 38.1519 287.069 38.5306H288.852C287.602 37.2815 286.349 36.0283 285.1 34.7791C284.919 34.5981 284.743 34.4215 284.562 34.2409C284.095 33.7741 283.237 33.7403 282.779 34.2409C282.316 34.7411 282.283 35.5234 282.779 36.0239Z" fill="url(#paint39_linear_5436_13668)"/>
<path d="M384.893 37.789L384.227 34.2941C384.144 33.8781 383.811 33.6282 383.395 33.6282H372.577L373.492 30.6325L380.233 26.555C380.649 26.3054 380.732 25.8062 380.483 25.39C380.233 24.9741 379.734 24.8908 379.318 25.1404L372.327 29.3844C372.161 29.4677 371.995 29.634 371.995 29.8837L370.83 33.6282H359.596C359.18 33.6282 358.847 33.8778 358.763 34.294L358.015 37.9556C357.931 38.2052 358.015 38.4548 358.181 38.6214C358.347 38.7877 358.597 38.9543 358.847 38.9543H360.178L360.594 41.2845L352.855 41.2839C348.528 41.2839 345.033 44.7788 345.033 49.1062C345.033 49.6054 345.366 49.9383 345.865 49.9383H372.66C373.159 49.9383 373.492 49.6054 373.492 49.1062V48.9399C373.409 44.6958 369.914 41.2842 365.67 41.2842H362.175L361.759 38.9541H381.065L377.154 63.3357H371.662C372.41 62.6699 373.076 61.8377 373.409 60.8393C373.493 60.5897 373.493 60.2567 373.326 60.0904C373.16 59.8408 372.91 59.7575 372.66 59.7575H345.865C345.615 59.7575 345.366 59.9238 345.199 60.0904C345.033 60.34 344.95 60.5897 345.116 60.8393C346.032 63.3357 348.611 65 351.441 65H377.903C378.318 65 378.651 64.6671 378.735 64.3342L382.895 38.9536L384.144 38.9539C384.643 38.9539 384.976 38.6209 384.976 38.1217C384.976 37.9551 384.976 37.8721 384.893 37.7888L384.893 37.789ZM371.745 48.1908H346.781C347.196 45.1951 349.776 42.8649 352.855 42.8649H365.67C368.749 42.8649 371.329 45.1951 371.745 48.1908H371.745ZM347.28 61.4222H371.246C370.331 62.5872 368.75 63.3361 367.085 63.3361H351.442C349.694 63.3361 348.196 62.5873 347.281 61.4222H347.28ZM359.845 37.2903L360.261 35.2931H382.729L383.145 37.2903H359.845Z" fill="url(#paint40_linear_5436_13668)"/>
<path d="M345.865 58.1772H372.66C373.159 58.1772 373.492 57.8442 373.492 57.345C373.492 56.8458 373.159 56.5129 372.66 56.5129H345.865C345.366 56.5129 345.033 56.8458 345.033 57.345C345.033 57.7609 345.366 58.1772 345.865 58.1772Z" fill="url(#paint41_linear_5436_13668)"/>
<path d="M350.275 53.4337C351.024 52.7679 352.272 52.7679 353.021 53.4337C354.436 54.6818 356.6 54.6818 357.931 53.4337C358.68 52.7679 359.928 52.7679 360.677 53.4337C362.008 54.6818 364.255 54.6818 365.587 53.4337C366.336 52.7679 367.584 52.7679 368.333 53.4337C368.999 54.0163 369.914 54.3492 370.829 54.3492C371.745 54.3492 372.577 54.0163 373.326 53.4337C373.659 53.1008 373.659 52.6016 373.409 52.2687C373.076 51.9357 372.577 51.9357 372.244 52.1854C371.495 52.8512 370.247 52.8512 369.498 52.1854C368.083 50.9373 365.92 50.9373 364.588 52.1854C363.839 52.8512 362.591 52.8512 361.842 52.1854C360.427 50.9373 358.264 50.9373 356.932 52.1854C356.184 52.8512 354.935 52.8512 354.186 52.1854C352.772 50.9373 350.608 50.9373 349.277 52.1854C348.528 52.8512 347.28 52.8512 346.531 52.1854C346.198 51.8524 345.699 51.9357 345.366 52.2687C345.033 52.6016 345.116 53.1008 345.449 53.4337C346.697 54.6821 348.861 54.6821 350.275 53.4337Z" fill="url(#paint42_linear_5436_13668)"/>
<path d="M441.666 58.3308C432.476 58.3308 425 50.8549 425 41.6654C425 32.4759 432.477 25 441.666 25C450.856 25 458.333 32.4763 458.333 41.6654C458.333 45.4652 457.014 49.1848 454.622 52.1392C453.886 53.0501 453.051 53.8849 452.139 54.6218C449.186 57.013 445.466 58.3311 441.666 58.3311L441.666 58.3308ZM441.666 26.6664C433.395 26.6664 426.666 33.3949 426.666 41.6654C426.666 49.9354 433.395 56.6644 441.666 56.6644C445.085 56.6644 448.433 55.4785 451.092 53.3254C451.913 52.6621 452.664 51.9113 453.327 51.0907C455.48 48.4315 456.666 45.0842 456.666 41.6656C456.666 33.3949 449.937 26.6666 441.666 26.6666L441.666 26.6664Z" fill="url(#paint43_linear_5436_13668)"/>
<path d="M441.666 54.9981C434.315 54.9981 428.333 49.0169 428.333 41.6654C428.333 34.3144 434.314 28.3336 441.666 28.3336C449.018 28.3336 455 34.3147 455 41.6662C454.999 49.0172 449.018 54.9981 441.666 54.9981ZM441.666 29.9999C435.233 29.9999 429.999 35.2328 429.999 41.6662C429.999 48.0996 435.233 53.3325 441.666 53.3325C448.1 53.3325 453.333 48.0996 453.333 41.6662C453.333 35.2332 448.1 29.9999 441.666 29.9999Z" fill="url(#paint44_linear_5436_13668)"/>
<path d="M462.498 64.9995C461.831 64.9995 461.203 64.7362 460.73 64.258L451.027 54.5638C450.859 54.3964 450.771 54.1662 450.783 53.9306C450.795 53.6949 450.907 53.4747 451.091 53.3264C451.911 52.664 452.663 51.9124 453.326 51.0924C453.474 50.9081 453.694 50.7965 453.93 50.7841C454.169 50.7717 454.396 50.8601 454.563 51.0275L464.263 60.7353C464.737 61.2045 465 61.8318 465 62.4992C465 63.165 464.738 63.7918 464.263 64.2632C463.791 64.7383 463.164 65 462.498 65L462.498 64.9995ZM452.843 54.0208L461.913 63.0823C462.234 63.4082 462.768 63.4039 463.081 63.0863L463.089 63.0789C463.247 62.9222 463.335 62.7154 463.335 62.4965C463.335 62.2772 463.248 62.0707 463.089 61.9141L454.022 52.8399C453.648 53.2539 453.255 53.6471 452.842 54.0205L452.843 54.0208Z" fill="url(#paint45_linear_5436_13668)"/>
<path d="M441.666 47.4989C436.527 47.4989 432.5 44.9368 432.5 41.666C432.5 38.3955 436.526 35.833 441.666 35.833C446.806 35.833 450.833 38.3951 450.833 41.666C450.833 44.9364 446.806 47.4989 441.666 47.4989ZM441.666 37.4999C437.601 37.4999 434.166 39.408 434.166 41.6662C434.166 43.9244 437.601 45.8326 441.666 45.8326C445.731 45.8326 449.166 43.9244 449.166 41.6662C449.166 39.408 445.731 37.4999 441.666 37.4999Z" fill="url(#paint46_linear_5436_13668)"/>
<path d="M441.666 47.4989C439.33 47.4989 437.5 44.9368 437.5 41.666C437.5 38.3955 439.33 35.833 441.666 35.833C444.003 35.833 445.833 38.3951 445.833 41.666C445.833 44.9364 444.003 47.4989 441.666 47.4989ZM441.666 37.4999C440.311 37.4999 439.166 39.408 439.166 41.6662C439.166 43.9244 440.311 45.8326 441.666 45.8326C443.021 45.8326 444.166 43.9244 444.166 41.6662C444.166 39.408 443.021 37.4999 441.666 37.4999Z" fill="url(#paint47_linear_5436_13668)"/>
<path d="M30.83 111.681C33.2248 110.415 36.3569 111.497 38.4404 113.489C38.6957 113.733 39.0943 113.718 39.3317 113.47C39.5725 113.218 39.5631 112.819 39.3121 112.578C36.8314 110.207 33.1347 109.039 30.2417 110.565C29.9338 110.728 29.8157 111.11 29.9783 111.417C30.1412 111.725 30.5226 111.843 30.8298 111.681L30.83 111.681Z" fill="url(#paint48_linear_5436_13668)"/>
<path d="M30.83 115.743C33.2248 114.477 36.3569 115.559 38.4404 117.551C38.6957 117.795 39.0943 117.78 39.3317 117.532C39.5725 117.28 39.5631 116.881 39.3121 116.641C36.8314 114.269 33.1347 113.101 30.2417 114.628C29.9338 114.79 29.8157 115.172 29.9783 115.479C30.1412 115.787 30.5226 115.905 30.8298 115.743L30.83 115.743Z" fill="url(#paint49_linear_5436_13668)"/>
<path d="M30.83 119.805C33.2248 118.54 36.3575 119.622 38.4404 121.614C38.6957 121.858 39.0943 121.843 39.3317 121.595C39.5725 121.343 39.5631 120.944 39.3121 120.703C36.833 118.332 33.1374 117.163 30.2417 118.69C29.9338 118.852 29.8157 119.234 29.9783 119.542C30.1412 119.849 30.5226 119.967 30.8298 119.805L30.83 119.805Z" fill="url(#paint50_linear_5436_13668)"/>
<path d="M30.83 123.867C33.2434 122.591 36.3794 123.704 38.4404 125.676C39.0343 126.243 39.9226 125.35 39.3122 124.764C36.8368 122.397 33.1406 121.222 30.2417 122.751C29.9338 122.914 29.8158 123.296 29.9783 123.603C30.1412 123.912 30.5227 124.029 30.8299 123.867L30.83 123.867Z" fill="url(#paint51_linear_5436_13668)"/>
<path d="M44.358 113.489C46.4345 111.504 49.5736 110.415 51.9684 111.681C52.2756 111.843 52.6574 111.725 52.8203 111.417C52.9828 111.109 52.8644 110.728 52.5569 110.566C49.6643 109.039 45.9734 110.202 43.4864 112.579C43.2351 112.819 43.226 113.218 43.4668 113.47C43.7063 113.72 44.1049 113.731 44.3578 113.489L44.358 113.489Z" fill="url(#paint52_linear_5436_13668)"/>
<path d="M51.9685 115.743C52.2758 115.905 52.6575 115.787 52.8204 115.479C52.983 115.172 52.8646 114.79 52.557 114.628C49.6644 113.101 45.9736 114.264 43.4866 116.641C43.2353 116.881 43.2262 117.28 43.467 117.532C43.7065 117.782 44.1051 117.793 44.3583 117.551C46.4345 115.566 49.5736 114.477 51.9684 115.743L51.9685 115.743Z" fill="url(#paint53_linear_5436_13668)"/>
<path d="M64.5434 117.659H57.9879V109.125C57.9879 108.777 57.7059 108.495 57.3576 108.495H55.4177V108.346C55.4177 108.155 55.331 107.974 55.1819 107.855C51.3686 104.797 45.3707 105.608 41.3095 109.641C37.251 105.762 31.3713 105.024 27.6183 108.041C27.4804 108.152 27.4031 108.318 27.392 108.494H25.4545C25.1062 108.494 24.8242 108.776 24.8242 109.124V128.919C24.8242 129.267 25.1062 129.549 25.4545 129.549H41.3973C41.5231 129.533 41.599 129.522 41.6813 129.481C42.8074 128.929 43.921 128.47 45.0039 128.104C45.0039 143.49 44.9806 142.477 45.046 142.662C45.2524 143.992 46.3853 145 47.7582 145H64.5393C64.8877 145 65.1696 144.718 65.1696 144.37C65.1696 144.021 64.8877 143.739 64.5393 143.739C63.7188 143.739 63.0514 143.064 63.0514 142.233C63.0514 141.412 63.7188 140.745 64.5393 140.745C64.7137 140.745 64.8715 140.674 64.9855 140.56C65.1015 140.446 65.174 140.288 65.174 140.112V118.29C65.174 117.942 64.8921 117.66 64.5434 117.66L64.5434 117.659ZM46.2652 139.919V121.481C46.2652 120.069 47.4139 118.92 48.8263 118.92H48.8964V139.481H47.7606C47.2253 139.482 46.6969 139.64 46.2652 139.92L46.2652 139.919ZM63.9131 139.481H50.1563V118.92H63.9131V139.481ZM56.727 109.756V117.66H55.4175L55.4178 109.756H56.727ZM28.6445 108.843C32.015 106.362 37.238 107.227 40.767 110.865V127.927C40.7518 127.92 40.7369 127.914 40.7218 127.907C36.8407 126.162 32.7744 125.28 28.6442 126.055C28.6439 117.309 28.6439 114.432 28.6439 108.843L28.6445 108.843ZM26.0854 109.755H27.3838V126.832C27.3838 127.025 27.4719 127.208 27.6233 127.327C27.7754 127.447 27.973 127.492 28.1595 127.446C31.5995 126.629 34.9928 127.081 38.3143 128.288H26.0857L26.0854 109.755ZM42.0282 127.929V110.691C45.5576 107.048 50.7818 106.178 54.1567 108.657V117.659H48.8255C46.7184 117.659 45.0037 119.373 45.0037 121.48V126.78C44.0314 127.09 43.0362 127.473 42.0278 127.929L42.0282 127.929ZM47.7584 143.74C45.7214 143.74 45.8169 140.745 47.7584 140.745H62.2292C61.9523 141.174 61.7908 141.685 61.7908 142.233C61.7908 142.789 61.954 143.306 62.2346 143.74L47.7584 143.74Z" fill="url(#paint54_linear_5436_13668)"/>
<path d="M123.498 121.666C123.498 122.403 122.901 123 122.165 123C121.428 123 120.831 122.403 120.831 121.666C120.831 120.93 121.428 120.333 122.165 120.333C122.901 120.333 123.498 120.93 123.498 121.666Z" fill="url(#paint55_linear_5436_13668)"/>
<path d="M130.165 121.666C130.165 122.403 129.568 123 128.832 123C128.095 123 127.498 122.403 127.498 121.666C127.498 120.93 128.095 120.333 128.832 120.333C129.568 120.333 130.165 120.93 130.165 121.666Z" fill="url(#paint56_linear_5436_13668)"/>
<path d="M122.361 125.423C122.1 125.684 122.1 126.106 122.361 126.366C123.193 127.198 124.322 127.666 125.499 127.666C126.676 127.666 127.805 127.198 128.637 126.366C128.889 126.104 128.886 125.689 128.629 125.432C128.371 125.174 127.956 125.171 127.694 125.423C127.112 126.005 126.322 126.333 125.499 126.333C124.675 126.333 123.885 126.005 123.303 125.423C123.043 125.163 122.621 125.163 122.361 125.423Z" fill="url(#paint57_linear_5436_13668)"/>
<path d="M123.756 112.126C123.667 112.401 123.764 112.702 123.998 112.872C124.232 113.042 124.549 113.042 124.782 112.872C124.99 112.721 125.241 112.639 125.499 112.639C125.756 112.639 126.007 112.721 126.215 112.872C126.449 113.042 126.765 113.042 126.999 112.872C127.233 112.702 127.331 112.401 127.241 112.126C127.161 111.882 127.161 111.618 127.24 111.373C127.32 111.128 127.475 110.915 127.684 110.764C127.917 110.594 128.015 110.293 127.926 110.019C127.837 109.744 127.581 109.558 127.292 109.558C127.034 109.559 126.783 109.477 126.575 109.326C126.367 109.175 126.212 108.961 126.133 108.716C126.043 108.442 125.788 108.258 125.5 108.258C125.212 108.258 124.956 108.442 124.866 108.716C124.787 108.961 124.632 109.175 124.424 109.326C124.216 109.477 123.965 109.559 123.708 109.558C123.419 109.558 123.163 109.744 123.074 110.019C122.984 110.293 123.082 110.594 123.316 110.764C123.524 110.915 123.679 111.129 123.758 111.374C123.837 111.618 123.836 111.882 123.756 112.126ZM125.498 110.157C125.68 110.337 125.888 110.489 126.116 110.606C126.002 110.835 125.922 111.08 125.88 111.333C125.627 111.295 125.369 111.295 125.116 111.333C125.074 111.08 124.994 110.835 124.879 110.606C125.107 110.489 125.316 110.337 125.498 110.157Z" fill="url(#paint58_linear_5436_13668)"/>
<path d="M141.499 145C141.676 145 141.845 144.93 141.97 144.805C142.095 144.68 142.166 144.51 142.166 144.333V141C142.164 139.817 141.813 138.661 141.157 137.677C140.502 136.692 139.57 135.923 138.479 135.467C138.755 135.064 138.875 134.575 138.816 134.09C138.757 133.606 138.522 133.159 138.157 132.836C137.792 132.512 137.32 132.333 136.832 132.333H132.165V131C132.164 130.921 132.149 130.844 132.12 130.771C132.114 130.756 132.109 130.741 132.102 130.726V130.726C132.071 130.656 132.028 130.592 131.976 130.536L131.97 130.528L130.814 129.372H130.813C132.047 128.075 132.761 126.37 132.82 124.582L133.992 123.996C134.643 123.675 135.138 123.105 135.364 122.415C135.59 121.725 135.528 120.973 135.191 120.329C135.392 119.807 135.496 119.252 135.499 118.693V117.5C135.524 114.066 133.754 110.869 130.832 109.066V107.666C130.832 107.399 130.673 107.159 130.428 107.053L125.761 105.053L125.762 105.054C125.593 104.982 125.404 104.982 125.236 105.054L120.569 107.054V107.053C120.324 107.159 120.165 107.399 120.165 107.666V109.049C117.264 110.88 115.503 114.069 115.499 117.5V118.693C115.5 119.254 115.604 119.809 115.803 120.333C115.467 120.977 115.405 121.729 115.631 122.419C115.857 123.109 116.352 123.679 117.003 124L118.175 124.586C118.234 126.374 118.948 128.079 120.181 129.376L119.025 130.532L119.02 130.54C118.966 130.596 118.923 130.66 118.893 130.73C118.886 130.745 118.881 130.76 118.875 130.775H118.875C118.848 130.847 118.833 130.923 118.832 131V132.333H114.165C113.677 132.333 113.206 132.512 112.84 132.836C112.475 133.159 112.241 133.606 112.181 134.09C112.122 134.575 112.242 135.064 112.519 135.467C111.526 135.883 110.664 136.558 110.021 137.421C109.379 138.284 108.98 139.304 108.865 140.375V140.385C108.844 140.59 108.833 140.795 108.832 141V144.333C108.832 144.51 108.902 144.68 109.027 144.805C109.152 144.93 109.322 145 109.499 145L141.499 145ZM140.832 143.667L139.499 143.666V142.333H140.832V143.667ZM135.499 143.667L126.165 143.666V140.772L130.428 138.946C130.673 138.841 130.832 138.6 130.832 138.333V136.591L131.606 136.333H135.498L135.499 143.667ZM129.499 130.472C129.604 130.405 129.707 130.328 129.809 130.254L130.343 130.787L129.499 131.159L129.499 130.472ZM128.165 131.817V131.817C127.008 132.506 126.08 133.522 125.499 134.738C124.917 133.522 123.99 132.506 122.832 131.817V131.157C124.545 131.837 126.452 131.837 128.166 131.157L128.165 131.817ZM121.498 130.472V131.16L120.656 130.785L121.19 130.252C121.29 130.328 121.393 130.4 121.498 130.472ZM120.165 132.026L121.573 132.652V132.652C123.24 133.394 124.43 134.916 124.748 136.714L120.165 135.186V132.026ZM129.425 132.652L130.832 132.026V135.186L126.249 136.714C126.567 134.916 127.757 133.394 129.425 132.652L129.425 132.652ZM136.833 133.667C137.201 133.667 137.499 133.965 137.499 134.334C137.499 134.702 137.201 135 136.833 135H132.166V133.667L136.833 133.667ZM133.396 122.8L132.832 123.085V120.165C133.247 120.182 133.632 120.384 133.883 120.714C134.134 121.044 134.224 121.469 134.13 121.873C134.036 122.277 133.767 122.618 133.396 122.803L133.396 122.8ZM134.166 117.5V118.693C134.164 118.864 134.149 119.034 134.122 119.202C133.73 118.974 133.286 118.847 132.832 118.836V117C132.832 116.823 132.762 116.654 132.637 116.529C132.512 116.404 132.342 116.334 132.166 116.334H126.646L127.598 115.653C129.273 114.45 130.398 112.627 130.722 110.59C131.042 110.829 131.345 111.09 131.628 111.371C133.258 112.993 134.172 115.2 134.166 117.5ZM121.499 108.105L125.499 106.392L129.499 108.105L129.499 109.368C129.497 111.431 128.501 113.367 126.823 114.568L125.499 115.514L124.175 114.568H124.175C122.497 113.367 121.501 111.431 121.499 109.368L121.499 108.105ZM116.832 117.5C116.835 114.784 118.11 112.227 120.275 110.589C120.599 112.627 121.724 114.452 123.4 115.655L124.352 116.334H118.832C118.464 116.334 118.165 116.632 118.165 117V118.836C117.711 118.848 117.268 118.974 116.876 119.202C116.848 119.034 116.833 118.864 116.832 118.693L116.832 117.5ZM116.832 121.558C116.833 121.198 116.971 120.853 117.22 120.594C117.468 120.334 117.807 120.181 118.165 120.165V123.085L117.602 122.804V122.803C117.37 122.689 117.175 122.511 117.039 122.291C116.903 122.071 116.831 121.817 116.832 121.558ZM119.499 124.164L119.499 117.667H131.499V124.333C131.499 126.477 130.355 128.458 128.499 129.53C126.643 130.601 124.355 130.601 122.499 129.53C120.642 128.458 119.499 126.477 119.499 124.333L119.499 124.164ZM114.165 135.001C113.797 135.001 113.499 134.702 113.499 134.334C113.499 133.966 113.797 133.667 114.165 133.667H118.832V135.001L114.165 135.001ZM114.165 136.381V143.667H112.461C112.932 142.877 112.956 141.899 112.526 141.086C112.096 140.273 111.273 139.743 110.355 139.687C110.608 138.83 111.102 138.063 111.777 137.477C112.452 136.891 113.281 136.511 114.165 136.381ZM110.165 141.001C110.642 141.001 111.082 141.255 111.32 141.668C111.558 142.08 111.558 142.588 111.32 143.001C111.082 143.413 110.642 143.667 110.165 143.667V141.001ZM115.499 136.334H119.392L125.288 138.299V138.3C125.423 138.345 125.569 138.345 125.704 138.3L129.499 137.037V137.895L125.236 139.722V139.721C124.991 139.827 124.832 140.067 124.832 140.334V143.667H115.499L115.499 136.334ZM136.833 136.381V136.381C137.943 136.543 138.958 137.099 139.692 137.947C140.427 138.795 140.831 139.879 140.833 141.001H138.833C138.465 141.001 138.166 141.299 138.166 141.668V143.668L136.833 143.667L136.833 136.381Z" fill="url(#paint59_linear_5436_13668)"/>
<path d="M224.333 145H185.667C185.298 145 185 144.702 185 144.333V141C185 140.632 185.298 140.333 185.667 140.333H224.333C224.702 140.333 225 140.632 225 141L225 144.334C225 144.702 224.702 145 224.333 145ZM186.334 143.667H223.666V141.667H186.334V143.667Z" fill="url(#paint60_linear_5436_13668)"/>
<path d="M222.333 141.667H187.667C187.298 141.667 187 141.369 187 141V137.667C187 137.299 187.298 137 187.667 137H222.333C222.702 137 223 137.299 223 137.667V141C223 141.369 222.702 141.667 222.333 141.667ZM188.334 140.334H221.666V138.334H188.334V140.334Z" fill="url(#paint61_linear_5436_13668)"/>
<path d="M193 138.334H189.001C188.632 138.334 188.334 138.036 188.334 137.667V121.667C188.334 121.299 188.632 121 189.001 121H193.001C193.369 121 193.667 121.298 193.667 121.667V137.667C193.667 138.035 193.369 138.334 193 138.334L193 138.334ZM189.667 137.001H192.334V122.333H189.667V137.001Z" fill="url(#paint62_linear_5436_13668)"/>
<path d="M202.333 138.334H198.333C197.965 138.334 197.666 138.036 197.666 137.667L197.667 121.667C197.667 121.299 197.965 121 198.333 121H202.333C202.702 121 203 121.298 203 121.667V137.667C203 138.035 202.702 138.334 202.333 138.334V138.334ZM199 137.001H201.666L201.667 122.333H199L199 137.001Z" fill="url(#paint63_linear_5436_13668)"/>
<path d="M211.666 138.334H207.666C207.297 138.334 206.999 138.036 206.999 137.667L206.999 121.667C206.999 121.299 207.297 121 207.666 121H211.666C212.035 121 212.333 121.298 212.333 121.667V137.667C212.333 138.035 212.035 138.334 211.666 138.334V138.334ZM208.333 137.001H210.999V122.333H208.333V137.001Z" fill="url(#paint64_linear_5436_13668)"/>
<path d="M220.999 138.334H216.999C216.631 138.334 216.333 138.036 216.333 137.667L216.333 121.667C216.333 121.299 216.631 121 217 121H221C221.368 121 221.667 121.298 221.667 121.667V137.667C221.666 138.035 221.368 138.334 220.999 138.334V138.334ZM217.666 137.001H220.333V122.333H217.666V137.001Z" fill="url(#paint65_linear_5436_13668)"/>
<path d="M224.333 119.667H185.667C185.375 119.667 185.117 119.477 185.03 119.198C184.944 118.92 185.048 118.617 185.288 118.451L204.622 105.118C204.85 104.961 205.15 104.961 205.378 105.118L224.711 118.451C224.952 118.617 225.056 118.92 224.97 119.198C224.882 119.477 224.625 119.667 224.333 119.667ZM187.808 118.333H222.193L205 106.477L187.808 118.333Z" fill="url(#paint66_linear_5436_13668)"/>
<path d="M194.333 122.334H187.667C187.298 122.334 187 122.035 187 121.667V119C187 118.632 187.298 118.333 187.667 118.333H194.333C194.702 118.333 195 118.632 195 119V121.667C195 122.035 194.702 122.334 194.333 122.334ZM188.334 121H193.667V119.667H188.334V121Z" fill="url(#paint67_linear_5436_13668)"/>
<path d="M203.666 122.334H197C196.631 122.334 196.333 122.035 196.333 121.667V119C196.333 118.632 196.631 118.333 197 118.333H203.667C204.035 118.333 204.333 118.632 204.333 119V121.667C204.333 122.035 204.035 122.334 203.666 122.334ZM197.666 121H203V119.667H197.666V121Z" fill="url(#paint68_linear_5436_13668)"/>
<path d="M213 122.334H206.333C205.965 122.334 205.666 122.035 205.666 121.667V119C205.666 118.632 205.964 118.333 206.333 118.333H213C213.368 118.333 213.667 118.632 213.667 119V121.667C213.666 122.035 213.368 122.334 213 122.334ZM207 121H212.333V119.667H207V121Z" fill="url(#paint69_linear_5436_13668)"/>
<path d="M222.333 122.334H215.667C215.298 122.334 215 122.035 215 121.667V119C215 118.632 215.298 118.333 215.667 118.333H222.333C222.702 118.333 223 118.632 223 119V121.667C223 122.035 222.702 122.334 222.333 122.334ZM216.333 121H221.667V119.667H216.333V121Z" fill="url(#paint70_linear_5436_13668)"/>
<path d="M205 117.667C202.794 117.667 201 115.872 201 113.666C201 111.461 202.794 109.666 205 109.666C207.206 109.666 209 111.46 209 113.666C209 115.872 207.206 117.667 205 117.667ZM205 111C203.529 111 202.333 112.196 202.333 113.666C202.333 115.137 203.529 116.333 205 116.333C206.471 116.333 207.667 115.137 207.667 113.667C207.667 112.196 206.471 111 205 111Z" fill="url(#paint71_linear_5436_13668)"/>
<path d="M277.666 120.333H279V121.666H277.666V120.333Z" fill="url(#paint72_linear_5436_13668)"/>
<path d="M282.333 134.334H283.666V135.667H282.333V134.334Z" fill="url(#paint73_linear_5436_13668)"/>
<path d="M286.333 134.334H287.666V135.667H286.333V134.334Z" fill="url(#paint74_linear_5436_13668)"/>
<path d="M284.332 131.667H285.665V133H284.332V131.667Z" fill="url(#paint75_linear_5436_13668)"/>
<path d="M268.999 129.666H270.333V131H268.999V129.666Z" fill="url(#paint76_linear_5436_13668)"/>
<path d="M268.999 133.667H270.333V135H268.999V133.667Z" fill="url(#paint77_linear_5436_13668)"/>
<path d="M271 131.667H272.333V133H271V131.667Z" fill="url(#paint78_linear_5436_13668)"/>
<path d="M268.999 137.667H270.333V139H268.999V137.667Z" fill="url(#paint79_linear_5436_13668)"/>
<path d="M268.999 141H270.333V142.333H268.999V141Z" fill="url(#paint80_linear_5436_13668)"/>
<path d="M271 135.667H272.333V137H271V135.667Z" fill="url(#paint81_linear_5436_13668)"/>
<path d="M302.187 143.666L301.646 141.505C301.572 141.208 301.306 141 301 141H299.667V129.667H298.333V130.432L295.666 133.303V130.285L298.333 127.415V128.333H299.666L299.667 115H303C303.252 115 303.483 114.858 303.596 114.632L304.929 111.965H304.929C305.058 111.708 305.007 111.398 304.804 111.195L300.333 106.724V105.667C300.333 105.49 300.263 105.321 300.138 105.196C300.013 105.07 299.843 105 299.667 105H297.666C297.403 105 297.164 105.155 297.057 105.396L296.624 106.372L267.592 109.671C267.255 109.709 267 109.994 267 110.333V111L265.667 111C265.436 111 265.221 111.12 265.099 111.316C264.978 111.513 264.967 111.758 265.07 111.965L266.404 114.632H266.404C266.517 114.858 266.748 115 267 115H270.333V113.667H267.412L266.746 112.334L275 112.333V113.667L271.667 113.667V115H277.667V117.667H277C276.737 117.667 276.498 117.822 276.391 118.063L275.058 121.063V121.063C274.971 121.257 274.983 121.48 275.088 121.664L276.421 123.998C276.54 124.205 276.761 124.333 277 124.333H277.667V125.391L275.862 127.195V127.196C275.684 127.374 275.621 127.638 275.701 127.878L276.368 129.878C276.458 130.15 276.713 130.333 277 130.334H279.667C279.844 130.334 280.013 130.263 280.138 130.138C280.263 130.013 280.333 129.844 280.333 129.667V127.667H279V129H277.481L277.096 127.847L278.804 126.139C278.93 126.014 279 125.844 279 125.667V124.333H279.667C279.906 124.333 280.127 124.205 280.246 123.998L281.579 121.664H281.579C281.684 121.48 281.695 121.257 281.609 121.063L280.276 118.062L280.276 118.063C280.169 117.822 279.93 117.667 279.667 117.667H279L279 115H287.255L289.737 119.965C289.85 120.191 290.081 120.333 290.334 120.333H294.333V141H293C292.694 141 292.428 141.208 292.353 141.505L291.813 143.667H290.334V133.667C290.334 133.518 290.284 133.374 290.193 133.257L288.956 131.667H289V129.666H287.667V130.009L285.527 127.257H285.526C285.404 127.1 285.218 127.006 285.019 127C284.821 126.994 284.629 127.078 284.498 127.228L279.832 132.561V132.561C279.726 132.682 279.667 132.838 279.667 133V137.39L277.472 135.195C277.347 135.07 277.177 135 277 135C276.823 135 276.654 135.07 276.529 135.195L275 136.724V130.333C275 130.128 274.905 129.933 274.743 129.807L268.743 125.14C268.626 125.049 268.482 125 268.334 125V122.333H267V125C266.632 125 266.334 125.298 266.334 125.667V133.667H267.667V126.333H268.105L273.667 130.659V138.057L272.529 139.195C272.404 139.32 272.334 139.49 272.334 139.667V143.667H267.667V135H266.334V143.667H265V145L305 145V143.667L302.187 143.666ZM280.254 121.295L279.279 122.999H277.386L276.413 121.295L277.433 118.999H279.233L280.254 121.295ZM298.333 132.391V135.765L295.666 138.636V135.262L298.333 132.391ZM298.333 114.999V115.098L295.666 117.969V114.999H298.333ZM295.666 119.928L298.333 117.057V120.122L295.666 122.993V119.928ZM295.666 128.326V124.951L298.333 122.081V125.455L295.666 128.326ZM302.588 113.666H281.666V112.333H303.254L302.588 113.666ZM302.724 110.999H300.333V108.609L302.724 110.999ZM298.1 106.333H299V110.999H296.025L298.1 106.333ZM268.333 110.928L295.996 107.784L294.567 111H268.334L268.333 110.928ZM276.333 113.666V112.333H280.333V113.666L276.333 113.666ZM290.746 119L290.079 117.666L291.667 117.666V116.333H289.412L288.746 115L294.334 114.999V118.999L290.746 119ZM295.667 140.595L298.333 137.724V141H295.667V140.595ZM283 141V143.666H281.667V139.667C281.667 139.49 281.596 139.32 281.471 139.195L281 138.724V138.333H289V140.333H283.667C283.298 140.333 283 140.631 283 141ZM284.97 128.713L289 133.895V137H281V133.25L284.97 128.713ZM277.667 143.667V141H276.334V143.667H273.667V139.943L277 136.609L280.333 139.943V143.667H277.667ZM284.333 143.667V141.667H289V143.667L284.333 143.667ZM293.187 143.667L293.521 142.333H300.48L300.813 143.667H293.187Z" fill="url(#paint82_linear_5436_13668)"/>
<path d="M361.667 136.667V133.675C361.667 133.141 361.876 132.633 362.259 132.25C362.95 131.558 363.334 130.633 363.334 129.65V124.508C363.334 123.525 362.95 122.6 362.259 121.908L360.834 120.492V114.583C360.834 113.808 360.526 113.058 359.984 112.516C359.434 111.967 358.701 111.667 357.918 111.667C357.468 111.667 357.051 111.775 356.668 111.958V110.417C356.668 108.808 355.36 107.5 353.752 107.5C353.293 107.5 352.868 107.617 352.477 107.8C352.369 106.242 351.077 105 349.494 105C347.928 105 346.636 106.175 346.495 107.742L345.003 124.091C344.986 124.291 345.036 124.483 345.153 124.641L350.794 132.7L350.127 136.667H348.336C347.878 136.667 347.503 137.041 347.503 137.5V144.167C347.503 144.625 347.878 145 348.336 145C348.794 145 349.169 144.625 349.169 144.167V138.333H362.501V144.167C362.501 144.625 362.876 145 363.334 145C363.792 145 364.167 144.625 364.167 144.167V137.5C364.167 137.042 363.792 136.667 363.334 136.667H361.667ZM357.918 113.333C358.251 113.333 358.567 113.466 358.801 113.7C359.034 113.925 359.167 114.25 359.167 114.583V118.825L358.926 118.583C358.301 117.958 357.485 117.65 356.668 117.65V114.583C356.668 113.891 357.226 113.333 357.918 113.333ZM353.752 109.166C354.443 109.166 355.001 109.725 355.001 110.416V118.125C354.793 118.25 354.593 118.4 354.41 118.583C354.018 118.975 353.752 119.442 353.61 119.933L352.743 119.067C352.593 118.908 352.502 118.691 352.502 118.475V110.416C352.502 109.725 353.06 109.166 353.752 109.166ZM352.352 132.025L346.694 123.942L348.153 107.892C348.219 107.192 348.794 106.667 349.494 106.667C350.235 106.667 350.835 107.267 350.835 108.009V118.475C350.835 119.142 351.094 119.767 351.569 120.242L356.91 125.584C357.235 125.909 357.76 125.909 358.085 125.584C358.251 125.425 358.334 125.217 358.334 125C358.334 124.784 358.251 124.575 358.093 124.409L355.593 121.909C355.001 121.317 355.001 120.35 355.593 119.75C356.185 119.15 357.151 119.159 357.751 119.75L361.084 123.084C361.467 123.467 361.675 123.967 361.675 124.509V129.65C361.675 130.184 361.467 130.692 361.084 131.076C360.384 131.775 360.001 132.7 360.001 133.675V136.667H351.819L352.493 132.633C352.527 132.425 352.477 132.2 352.352 132.025L352.352 132.025Z" fill="url(#paint83_linear_5436_13668)"/>
<path d="M384.847 124.641C384.963 124.483 385.013 124.283 384.997 124.091L383.505 107.742C383.364 106.175 382.081 105 380.506 105C378.914 105 377.623 106.242 377.515 107.8C377.131 107.617 376.706 107.5 376.248 107.5C374.64 107.5 373.332 108.809 373.332 110.417V111.958C372.949 111.775 372.532 111.667 372.082 111.667C371.316 111.667 370.557 111.975 370.016 112.517C369.474 113.058 369.166 113.817 369.166 114.583V120.492L367.741 121.917C367.05 122.608 366.667 123.533 366.667 124.508V129.65C366.667 130.634 367.05 131.558 367.741 132.25C368.125 132.633 368.333 133.133 368.333 133.675V136.667H366.667C366.208 136.667 365.833 137.042 365.833 137.5V144.167C365.833 144.625 366.208 145 366.667 145C367.125 145 367.5 144.625 367.5 144.167V138.333H380.831V144.167C380.831 144.625 381.206 145 381.664 145C382.123 145 382.498 144.625 382.498 144.167V137.5C382.498 137.042 382.123 136.667 381.664 136.667H379.873L379.215 132.7L384.847 124.641ZM374.998 110.416C374.998 109.725 375.556 109.166 376.248 109.166C376.939 109.166 377.498 109.725 377.498 110.416V118.475C377.498 118.692 377.406 118.908 377.256 119.066L376.39 119.933C376.248 119.441 375.973 118.975 375.59 118.583C375.406 118.4 375.206 118.258 374.998 118.125L374.998 110.416ZM370.832 114.583C370.832 114.249 370.966 113.933 371.199 113.7C371.432 113.466 371.748 113.333 372.082 113.333C372.773 113.333 373.331 113.891 373.331 114.583V117.641C372.515 117.641 371.699 117.949 371.073 118.574L370.832 118.825L370.832 114.583ZM369.999 136.666V133.674C369.999 132.691 369.616 131.766 368.924 131.074C368.541 130.699 368.333 130.191 368.333 129.658V124.516C368.333 123.982 368.541 123.474 368.924 123.091L372.257 119.757C372.849 119.166 373.815 119.166 374.415 119.757C375.015 120.349 375.007 121.316 374.415 121.916L371.915 124.416C371.749 124.574 371.665 124.783 371.665 124.999C371.665 125.216 371.749 125.424 371.907 125.591C372.232 125.916 372.757 125.916 373.082 125.591L378.423 120.249C378.898 119.774 379.156 119.149 379.156 118.483L379.156 108.008C379.164 107.266 379.764 106.666 380.505 106.666C381.205 106.666 381.78 107.191 381.847 107.891L383.305 123.941L377.647 132.024C377.522 132.199 377.472 132.424 377.506 132.641L378.181 136.665L369.999 136.666Z" fill="url(#paint84_linear_5436_13668)"/>
<defs>
<linearGradient id="paint0_linear_5436_13668" x1="56.4587" y1="53.6397" x2="56.4587" y2="61.6506" gradientUnits="userSpaceOnUse">
<stop stop-color="#ED3040"/>
<stop offset="1" stop-color="#2D23F4"/>
</linearGradient>
<linearGradient id="paint1_linear_5436_13668" x1="56.4587" y1="53.6397" x2="56.4587" y2="61.6506" gradientUnits="userSpaceOnUse">
<stop stop-color="#ED3040"/>
<stop offset="1" stop-color="#2D23F4"/>
</linearGradient>
<linearGradient id="paint2_linear_5436_13668" x1="56.4587" y1="53.6397" x2="56.4587" y2="61.6506" gradientUnits="userSpaceOnUse">
<stop stop-color="#ED3040"/>
<stop offset="1" stop-color="#2D23F4"/>
</linearGradient>
<linearGradient id="paint3_linear_5436_13668" x1="56.4587" y1="53.6397" x2="56.4587" y2="61.6506" gradientUnits="userSpaceOnUse">
<stop stop-color="#ED3040"/>
<stop offset="1" stop-color="#2D23F4"/>
</linearGradient>
<linearGradient id="paint4_linear_5436_13668" x1="137.886" y1="52.1957" x2="137.886" y2="58.4042" gradientUnits="userSpaceOnUse">
<stop stop-color="#ED3040"/>
<stop offset="1" stop-color="#2D23F4"/>
</linearGradient>
<linearGradient id="paint5_linear_5436_13668" x1="137.886" y1="52.1957" x2="137.886" y2="58.4042" gradientUnits="userSpaceOnUse">
<stop stop-color="#ED3040"/>
<stop offset="1" stop-color="#2D23F4"/>
</linearGradient>
<linearGradient id="paint6_linear_5436_13668" x1="137.886" y1="52.1957" x2="137.886" y2="58.4042" gradientUnits="userSpaceOnUse">
<stop stop-color="#ED3040"/>
<stop offset="1" stop-color="#2D23F4"/>
</linearGradient>
<linearGradient id="paint7_linear_5436_13668" x1="137.886" y1="52.1957" x2="137.886" y2="58.4042" gradientUnits="userSpaceOnUse">
<stop stop-color="#ED3040"/>
<stop offset="1" stop-color="#2D23F4"/>
</linearGradient>
<linearGradient id="paint8_linear_5436_13668" x1="137.886" y1="52.1957" x2="137.886" y2="58.4042" gradientUnits="userSpaceOnUse">
<stop stop-color="#ED3040"/>
<stop offset="1" stop-color="#2D23F4"/>
</linearGradient>
<linearGradient id="paint9_linear_5436_13668" x1="137.886" y1="52.1957" x2="137.886" y2="58.4042" gradientUnits="userSpaceOnUse">
<stop stop-color="#ED3040"/>
<stop offset="1" stop-color="#2D23F4"/>
</linearGradient>
<linearGradient id="paint10_linear_5436_13668" x1="137.886" y1="52.1957" x2="137.886" y2="58.4042" gradientUnits="userSpaceOnUse">
<stop stop-color="#ED3040"/>
<stop offset="1" stop-color="#2D23F4"/>
</linearGradient>
<linearGradient id="paint11_linear_5436_13668" x1="137.886" y1="52.1957" x2="137.886" y2="58.4042" gradientUnits="userSpaceOnUse">
<stop stop-color="#ED3040"/>
<stop offset="1" stop-color="#2D23F4"/>
</linearGradient>
<linearGradient id="paint12_linear_5436_13668" x1="137.886" y1="52.1957" x2="137.886" y2="58.4042" gradientUnits="userSpaceOnUse">
<stop stop-color="#ED3040"/>
<stop offset="1" stop-color="#2D23F4"/>
</linearGradient>
<linearGradient id="paint13_linear_5436_13668" x1="137.886" y1="52.1957" x2="137.886" y2="58.4042" gradientUnits="userSpaceOnUse">
<stop stop-color="#ED3040"/>
<stop offset="1" stop-color="#2D23F4"/>
</linearGradient>
<linearGradient id="paint14_linear_5436_13668" x1="137.886" y1="52.1957" x2="137.886" y2="58.4042" gradientUnits="userSpaceOnUse">
<stop stop-color="#ED3040"/>
<stop offset="1" stop-color="#2D23F4"/>
</linearGradient>
<linearGradient id="paint15_linear_5436_13668" x1="137.886" y1="52.1957" x2="137.886" y2="58.4042" gradientUnits="userSpaceOnUse">
<stop stop-color="#ED3040"/>
<stop offset="1" stop-color="#2D23F4"/>
</linearGradient>
<linearGradient id="paint16_linear_5436_13668" x1="137.886" y1="52.1957" x2="137.886" y2="58.4042" gradientUnits="userSpaceOnUse">
<stop stop-color="#ED3040"/>
<stop offset="1" stop-color="#2D23F4"/>
</linearGradient>
<linearGradient id="paint17_linear_5436_13668" x1="137.886" y1="52.1957" x2="137.886" y2="58.4042" gradientUnits="userSpaceOnUse">
<stop stop-color="#ED3040"/>
<stop offset="1" stop-color="#2D23F4"/>
</linearGradient>
<linearGradient id="paint18_linear_5436_13668" x1="137.886" y1="52.1957" x2="137.886" y2="58.4042" gradientUnits="userSpaceOnUse">
<stop stop-color="#ED3040"/>
<stop offset="1" stop-color="#2D23F4"/>
</linearGradient>
<linearGradient id="paint19_linear_5436_13668" x1="137.886" y1="52.1957" x2="137.886" y2="58.4042" gradientUnits="userSpaceOnUse">
<stop stop-color="#ED3040"/>
<stop offset="1" stop-color="#2D23F4"/>
</linearGradient>
<linearGradient id="paint20_linear_5436_13668" x1="137.886" y1="52.1957" x2="137.886" y2="58.4042" gradientUnits="userSpaceOnUse">
<stop stop-color="#ED3040"/>
<stop offset="1" stop-color="#2D23F4"/>
</linearGradient>
<linearGradient id="paint21_linear_5436_13668" x1="137.886" y1="52.1957" x2="137.886" y2="58.4042" gradientUnits="userSpaceOnUse">
<stop stop-color="#ED3040"/>
<stop offset="1" stop-color="#2D23F4"/>
</linearGradient>
<linearGradient id="paint22_linear_5436_13668" x1="137.886" y1="52.1957" x2="137.886" y2="58.4042" gradientUnits="userSpaceOnUse">
<stop stop-color="#ED3040"/>
<stop offset="1" stop-color="#2D23F4"/>
</linearGradient>
<linearGradient id="paint23_linear_5436_13668" x1="137.886" y1="52.1957" x2="137.886" y2="58.4042" gradientUnits="userSpaceOnUse">
<stop stop-color="#ED3040"/>
<stop offset="1" stop-color="#2D23F4"/>
</linearGradient>
<linearGradient id="paint24_linear_5436_13668" x1="137.886" y1="52.1957" x2="137.886" y2="58.4042" gradientUnits="userSpaceOnUse">
<stop stop-color="#ED3040"/>
<stop offset="1" stop-color="#2D23F4"/>
</linearGradient>
<linearGradient id="paint25_linear_5436_13668" x1="137.886" y1="52.1957" x2="137.886" y2="58.4042" gradientUnits="userSpaceOnUse">
<stop stop-color="#ED3040"/>
<stop offset="1" stop-color="#2D23F4"/>
</linearGradient>
<linearGradient id="paint26_linear_5436_13668" x1="137.886" y1="52.1957" x2="137.886" y2="58.4042" gradientUnits="userSpaceOnUse">
<stop stop-color="#ED3040"/>
<stop offset="1" stop-color="#2D23F4"/>
</linearGradient>
<linearGradient id="paint27_linear_5436_13668" x1="217.896" y1="53.4917" x2="217.896" y2="60.9018" gradientUnits="userSpaceOnUse">
<stop stop-color="#ED3040"/>
<stop offset="1" stop-color="#2D23F4"/>
</linearGradient>
<linearGradient id="paint28_linear_5436_13668" x1="217.896" y1="53.4917" x2="217.896" y2="60.9018" gradientUnits="userSpaceOnUse">
<stop stop-color="#ED3040"/>
<stop offset="1" stop-color="#2D23F4"/>
</linearGradient>
<linearGradient id="paint29_linear_5436_13668" x1="217.896" y1="53.4917" x2="217.896" y2="60.9018" gradientUnits="userSpaceOnUse">
<stop stop-color="#ED3040"/>
<stop offset="1" stop-color="#2D23F4"/>
</linearGradient>
<linearGradient id="paint30_linear_5436_13668" x1="217.896" y1="53.4917" x2="217.896" y2="60.9018" gradientUnits="userSpaceOnUse">
<stop stop-color="#ED3040"/>
<stop offset="1" stop-color="#2D23F4"/>
</linearGradient>
<linearGradient id="paint31_linear_5436_13668" x1="217.896" y1="53.4917" x2="217.896" y2="60.9018" gradientUnits="userSpaceOnUse">
<stop stop-color="#ED3040"/>
<stop offset="1" stop-color="#2D23F4"/>
</linearGradient>
<linearGradient id="paint32_linear_5436_13668" x1="217.896" y1="53.4917" x2="217.896" y2="60.9018" gradientUnits="userSpaceOnUse">
<stop stop-color="#ED3040"/>
<stop offset="1" stop-color="#2D23F4"/>
</linearGradient>
<linearGradient id="paint33_linear_5436_13668" x1="217.896" y1="53.4917" x2="217.896" y2="60.9018" gradientUnits="userSpaceOnUse">
<stop stop-color="#ED3040"/>
<stop offset="1" stop-color="#2D23F4"/>
</linearGradient>
<linearGradient id="paint34_linear_5436_13668" x1="217.896" y1="53.4917" x2="217.896" y2="60.9018" gradientUnits="userSpaceOnUse">
<stop stop-color="#ED3040"/>
<stop offset="1" stop-color="#2D23F4"/>
</linearGradient>
<linearGradient id="paint35_linear_5436_13668" x1="297.75" y1="53.0597" x2="297.75" y2="60.0692" gradientUnits="userSpaceOnUse">
<stop stop-color="#ED3040"/>
<stop offset="1" stop-color="#2D23F4"/>
</linearGradient>
<linearGradient id="paint36_linear_5436_13668" x1="297.75" y1="53.0597" x2="297.75" y2="60.0692" gradientUnits="userSpaceOnUse">
<stop stop-color="#ED3040"/>
<stop offset="1" stop-color="#2D23F4"/>
</linearGradient>
<linearGradient id="paint37_linear_5436_13668" x1="297.75" y1="53.0597" x2="297.75" y2="60.0692" gradientUnits="userSpaceOnUse">
<stop stop-color="#ED3040"/>
<stop offset="1" stop-color="#2D23F4"/>
</linearGradient>
<linearGradient id="paint38_linear_5436_13668" x1="297.75" y1="53.0597" x2="297.75" y2="60.0692" gradientUnits="userSpaceOnUse">
<stop stop-color="#ED3040"/>
<stop offset="1" stop-color="#2D23F4"/>
</linearGradient>
<linearGradient id="paint39_linear_5436_13668" x1="297.75" y1="53.0597" x2="297.75" y2="60.0692" gradientUnits="userSpaceOnUse">
<stop stop-color="#ED3040"/>
<stop offset="1" stop-color="#2D23F4"/>
</linearGradient>
<linearGradient id="paint40_linear_5436_13668" x1="377.647" y1="53.6397" x2="377.647" y2="61.6506" gradientUnits="userSpaceOnUse">
<stop stop-color="#ED3040"/>
<stop offset="1" stop-color="#2D23F4"/>
</linearGradient>
<linearGradient id="paint41_linear_5436_13668" x1="377.647" y1="53.6397" x2="377.647" y2="61.6506" gradientUnits="userSpaceOnUse">
<stop stop-color="#ED3040"/>
<stop offset="1" stop-color="#2D23F4"/>
</linearGradient>
<linearGradient id="paint42_linear_5436_13668" x1="377.647" y1="53.6397" x2="377.647" y2="61.6506" gradientUnits="userSpaceOnUse">
<stop stop-color="#ED3040"/>
<stop offset="1" stop-color="#2D23F4"/>
</linearGradient>
<linearGradient id="paint43_linear_5436_13668" x1="457.662" y1="53.6397" x2="457.662" y2="61.6506" gradientUnits="userSpaceOnUse">
<stop stop-color="#ED3040"/>
<stop offset="1" stop-color="#2D23F4"/>
</linearGradient>
<linearGradient id="paint44_linear_5436_13668" x1="457.662" y1="53.6397" x2="457.662" y2="61.6506" gradientUnits="userSpaceOnUse">
<stop stop-color="#ED3040"/>
<stop offset="1" stop-color="#2D23F4"/>
</linearGradient>
<linearGradient id="paint45_linear_5436_13668" x1="457.662" y1="53.6397" x2="457.662" y2="61.6506" gradientUnits="userSpaceOnUse">
<stop stop-color="#ED3040"/>
<stop offset="1" stop-color="#2D23F4"/>
</linearGradient>
<linearGradient id="paint46_linear_5436_13668" x1="457.662" y1="53.6397" x2="457.662" y2="61.6506" gradientUnits="userSpaceOnUse">
<stop stop-color="#ED3040"/>
<stop offset="1" stop-color="#2D23F4"/>
</linearGradient>
<linearGradient id="paint47_linear_5436_13668" x1="457.662" y1="53.6397" x2="457.662" y2="61.6506" gradientUnits="userSpaceOnUse">
<stop stop-color="#ED3040"/>
<stop offset="1" stop-color="#2D23F4"/>
</linearGradient>
<linearGradient id="paint48_linear_5436_13668" x1="57.7723" y1="133.924" x2="57.7723" y2="141.734" gradientUnits="userSpaceOnUse">
<stop stop-color="#ED3040"/>
<stop offset="1" stop-color="#2D23F4"/>
</linearGradient>
<linearGradient id="paint49_linear_5436_13668" x1="57.7723" y1="133.924" x2="57.7723" y2="141.734" gradientUnits="userSpaceOnUse">
<stop stop-color="#ED3040"/>
<stop offset="1" stop-color="#2D23F4"/>
</linearGradient>
<linearGradient id="paint50_linear_5436_13668" x1="57.7723" y1="133.924" x2="57.7723" y2="141.734" gradientUnits="userSpaceOnUse">
<stop stop-color="#ED3040"/>
<stop offset="1" stop-color="#2D23F4"/>
</linearGradient>
<linearGradient id="paint51_linear_5436_13668" x1="57.7723" y1="133.924" x2="57.7723" y2="141.734" gradientUnits="userSpaceOnUse">
<stop stop-color="#ED3040"/>
<stop offset="1" stop-color="#2D23F4"/>
</linearGradient>
<linearGradient id="paint52_linear_5436_13668" x1="57.7723" y1="133.924" x2="57.7723" y2="141.734" gradientUnits="userSpaceOnUse">
<stop stop-color="#ED3040"/>
<stop offset="1" stop-color="#2D23F4"/>
</linearGradient>
<linearGradient id="paint53_linear_5436_13668" x1="57.7723" y1="133.924" x2="57.7723" y2="141.734" gradientUnits="userSpaceOnUse">
<stop stop-color="#ED3040"/>
<stop offset="1" stop-color="#2D23F4"/>
</linearGradient>
<linearGradient id="paint54_linear_5436_13668" x1="57.7723" y1="133.924" x2="57.7723" y2="141.734" gradientUnits="userSpaceOnUse">
<stop stop-color="#ED3040"/>
<stop offset="1" stop-color="#2D23F4"/>
</linearGradient>
<linearGradient id="paint55_linear_5436_13668" x1="136.051" y1="133.64" x2="136.051" y2="141.651" gradientUnits="userSpaceOnUse">
<stop stop-color="#ED3040"/>
<stop offset="1" stop-color="#2D23F4"/>
</linearGradient>
<linearGradient id="paint56_linear_5436_13668" x1="136.051" y1="133.64" x2="136.051" y2="141.651" gradientUnits="userSpaceOnUse">
<stop stop-color="#ED3040"/>
<stop offset="1" stop-color="#2D23F4"/>
</linearGradient>
<linearGradient id="paint57_linear_5436_13668" x1="136.051" y1="133.64" x2="136.051" y2="141.651" gradientUnits="userSpaceOnUse">
<stop stop-color="#ED3040"/>
<stop offset="1" stop-color="#2D23F4"/>
</linearGradient>
<linearGradient id="paint58_linear_5436_13668" x1="136.051" y1="133.64" x2="136.051" y2="141.651" gradientUnits="userSpaceOnUse">
<stop stop-color="#ED3040"/>
<stop offset="1" stop-color="#2D23F4"/>
</linearGradient>
<linearGradient id="paint59_linear_5436_13668" x1="136.051" y1="133.64" x2="136.051" y2="141.651" gradientUnits="userSpaceOnUse">
<stop stop-color="#ED3040"/>
<stop offset="1" stop-color="#2D23F4"/>
</linearGradient>
<linearGradient id="paint60_linear_5436_13668" x1="217.662" y1="133.64" x2="217.662" y2="141.651" gradientUnits="userSpaceOnUse">
<stop stop-color="#ED3040"/>
<stop offset="1" stop-color="#2D23F4"/>
</linearGradient>
<linearGradient id="paint61_linear_5436_13668" x1="217.662" y1="133.64" x2="217.662" y2="141.651" gradientUnits="userSpaceOnUse">
<stop stop-color="#ED3040"/>
<stop offset="1" stop-color="#2D23F4"/>
</linearGradient>
<linearGradient id="paint62_linear_5436_13668" x1="217.662" y1="133.64" x2="217.662" y2="141.651" gradientUnits="userSpaceOnUse">
<stop stop-color="#ED3040"/>
<stop offset="1" stop-color="#2D23F4"/>
</linearGradient>
<linearGradient id="paint63_linear_5436_13668" x1="217.662" y1="133.64" x2="217.662" y2="141.651" gradientUnits="userSpaceOnUse">
<stop stop-color="#ED3040"/>
<stop offset="1" stop-color="#2D23F4"/>
</linearGradient>
<linearGradient id="paint64_linear_5436_13668" x1="217.662" y1="133.64" x2="217.662" y2="141.651" gradientUnits="userSpaceOnUse">
<stop stop-color="#ED3040"/>
<stop offset="1" stop-color="#2D23F4"/>
</linearGradient>
<linearGradient id="paint65_linear_5436_13668" x1="217.662" y1="133.64" x2="217.662" y2="141.651" gradientUnits="userSpaceOnUse">
<stop stop-color="#ED3040"/>
<stop offset="1" stop-color="#2D23F4"/>
</linearGradient>
<linearGradient id="paint66_linear_5436_13668" x1="217.662" y1="133.64" x2="217.662" y2="141.651" gradientUnits="userSpaceOnUse">
<stop stop-color="#ED3040"/>
<stop offset="1" stop-color="#2D23F4"/>
</linearGradient>
<linearGradient id="paint67_linear_5436_13668" x1="217.662" y1="133.64" x2="217.662" y2="141.651" gradientUnits="userSpaceOnUse">
<stop stop-color="#ED3040"/>
<stop offset="1" stop-color="#2D23F4"/>
</linearGradient>
<linearGradient id="paint68_linear_5436_13668" x1="217.662" y1="133.64" x2="217.662" y2="141.651" gradientUnits="userSpaceOnUse">
<stop stop-color="#ED3040"/>
<stop offset="1" stop-color="#2D23F4"/>
</linearGradient>
<linearGradient id="paint69_linear_5436_13668" x1="217.662" y1="133.64" x2="217.662" y2="141.651" gradientUnits="userSpaceOnUse">
<stop stop-color="#ED3040"/>
<stop offset="1" stop-color="#2D23F4"/>
</linearGradient>
<linearGradient id="paint70_linear_5436_13668" x1="217.662" y1="133.64" x2="217.662" y2="141.651" gradientUnits="userSpaceOnUse">
<stop stop-color="#ED3040"/>
<stop offset="1" stop-color="#2D23F4"/>
</linearGradient>
<linearGradient id="paint71_linear_5436_13668" x1="217.662" y1="133.64" x2="217.662" y2="141.651" gradientUnits="userSpaceOnUse">
<stop stop-color="#ED3040"/>
<stop offset="1" stop-color="#2D23F4"/>
</linearGradient>
<linearGradient id="paint72_linear_5436_13668" x1="297.662" y1="133.64" x2="297.662" y2="141.651" gradientUnits="userSpaceOnUse">
<stop stop-color="#ED3040"/>
<stop offset="1" stop-color="#2D23F4"/>
</linearGradient>
<linearGradient id="paint73_linear_5436_13668" x1="297.662" y1="133.64" x2="297.662" y2="141.651" gradientUnits="userSpaceOnUse">
<stop stop-color="#ED3040"/>
<stop offset="1" stop-color="#2D23F4"/>
</linearGradient>
<linearGradient id="paint74_linear_5436_13668" x1="297.662" y1="133.64" x2="297.662" y2="141.651" gradientUnits="userSpaceOnUse">
<stop stop-color="#ED3040"/>
<stop offset="1" stop-color="#2D23F4"/>
</linearGradient>
<linearGradient id="paint75_linear_5436_13668" x1="297.662" y1="133.64" x2="297.662" y2="141.651" gradientUnits="userSpaceOnUse">
<stop stop-color="#ED3040"/>
<stop offset="1" stop-color="#2D23F4"/>
</linearGradient>
<linearGradient id="paint76_linear_5436_13668" x1="297.662" y1="133.64" x2="297.662" y2="141.651" gradientUnits="userSpaceOnUse">
<stop stop-color="#ED3040"/>
<stop offset="1" stop-color="#2D23F4"/>
</linearGradient>
<linearGradient id="paint77_linear_5436_13668" x1="297.662" y1="133.64" x2="297.662" y2="141.651" gradientUnits="userSpaceOnUse">
<stop stop-color="#ED3040"/>
<stop offset="1" stop-color="#2D23F4"/>
</linearGradient>
<linearGradient id="paint78_linear_5436_13668" x1="297.662" y1="133.64" x2="297.662" y2="141.651" gradientUnits="userSpaceOnUse">
<stop stop-color="#ED3040"/>
<stop offset="1" stop-color="#2D23F4"/>
</linearGradient>
<linearGradient id="paint79_linear_5436_13668" x1="297.662" y1="133.64" x2="297.662" y2="141.651" gradientUnits="userSpaceOnUse">
<stop stop-color="#ED3040"/>
<stop offset="1" stop-color="#2D23F4"/>
</linearGradient>
<linearGradient id="paint80_linear_5436_13668" x1="297.662" y1="133.64" x2="297.662" y2="141.651" gradientUnits="userSpaceOnUse">
<stop stop-color="#ED3040"/>
<stop offset="1" stop-color="#2D23F4"/>
</linearGradient>
<linearGradient id="paint81_linear_5436_13668" x1="297.662" y1="133.64" x2="297.662" y2="141.651" gradientUnits="userSpaceOnUse">
<stop stop-color="#ED3040"/>
<stop offset="1" stop-color="#2D23F4"/>
</linearGradient>
<linearGradient id="paint82_linear_5436_13668" x1="297.662" y1="133.64" x2="297.662" y2="141.651" gradientUnits="userSpaceOnUse">
<stop stop-color="#ED3040"/>
<stop offset="1" stop-color="#2D23F4"/>
</linearGradient>
<linearGradient id="paint83_linear_5436_13668" x1="377.662" y1="133.64" x2="377.662" y2="141.651" gradientUnits="userSpaceOnUse">
<stop stop-color="#ED3040"/>
<stop offset="1" stop-color="#2D23F4"/>
</linearGradient>
<linearGradient id="paint84_linear_5436_13668" x1="377.662" y1="133.64" x2="377.662" y2="141.651" gradientUnits="userSpaceOnUse">
<stop stop-color="#ED3040"/>
<stop offset="1" stop-color="#2D23F4"/>
</linearGradient>
</defs>
</svg>
