<svg width="500" height="370" viewBox="0 0 500 370" fill="none" xmlns="http://www.w3.org/2000/svg">
<g clip-path="url(#clip0_58155_36208)">
<path d="M106.719 108V143H147.283L147.283 138.24V108L106.719 108ZM137.268 109.757H139.098C139.806 109.757 140.38 110.331 140.38 111.038C140.38 111.746 139.806 112.32 139.098 112.32H137.268C136.56 112.32 135.987 111.747 135.987 111.039C135.987 110.331 136.561 109.757 137.268 109.757ZM131.683 109.757H133.513C134.221 109.757 134.795 110.331 134.795 111.038C134.795 111.746 134.222 112.32 133.513 112.32H131.683C130.976 112.32 130.402 111.747 130.402 111.039C130.402 110.331 130.976 109.757 131.683 109.757ZM126.099 109.757H127.929C128.637 109.757 129.211 110.331 129.211 111.038C129.211 111.746 128.637 112.32 127.929 112.32H126.099C125.391 112.32 124.817 111.747 124.817 111.039C124.817 110.331 125.392 109.757 126.099 109.757ZM120.514 109.757H122.345C123.053 109.757 123.626 110.331 123.626 111.038C123.626 111.746 123.052 112.32 122.344 112.32H120.514C119.806 112.32 119.233 111.747 119.233 111.039C119.233 110.331 119.807 109.757 120.514 109.757ZM114.93 109.757H116.76C117.467 109.757 118.041 110.331 118.041 111.038C118.041 111.746 117.467 112.32 116.76 112.32H114.93C114.222 112.32 113.648 111.747 113.648 111.039C113.648 110.331 114.222 109.757 114.93 109.757ZM109.345 109.757H111.176C111.883 109.757 112.457 110.331 112.457 111.038C112.457 111.746 111.883 112.32 111.176 112.32H109.345C108.637 112.32 108.064 111.747 108.064 111.039C108.064 110.331 108.637 109.757 109.345 109.757ZM111.176 141.243H109.345C108.637 141.243 108.064 140.669 108.064 139.962C108.064 139.254 108.637 138.68 109.345 138.68H111.176C111.883 138.68 112.457 139.254 112.457 139.962C112.457 140.669 111.883 141.243 111.176 141.243ZM116.76 141.243H114.93C114.222 141.243 113.648 140.669 113.648 139.962C113.648 139.254 114.222 138.68 114.93 138.68H116.76C117.467 138.68 118.041 139.254 118.041 139.962C118.041 140.669 117.467 141.243 116.76 141.243ZM122.344 141.243H120.514C119.806 141.243 119.233 140.669 119.233 139.962C119.233 139.254 119.807 138.68 120.514 138.68H122.345C123.053 138.68 123.626 139.254 123.626 139.962C123.626 140.669 123.052 141.243 122.344 141.243ZM127.929 141.243H126.099C125.391 141.243 124.817 140.669 124.817 139.962C124.817 139.254 125.392 138.68 126.099 138.68H127.929C128.637 138.68 129.211 139.254 129.211 139.962C129.211 140.669 128.637 141.243 127.929 141.243ZM133.513 141.243H131.683C130.976 141.243 130.402 140.669 130.402 139.962C130.402 139.254 130.976 138.68 131.683 138.68H133.513C134.221 138.68 134.795 139.254 134.795 139.962C134.795 140.669 134.222 141.243 133.513 141.243ZM139.098 141.243H137.268C136.56 141.243 135.987 140.669 135.987 139.962C135.987 139.254 136.561 138.68 137.268 138.68H139.098C139.806 138.68 140.38 139.254 140.38 139.962C140.38 140.669 139.806 141.243 139.098 141.243ZM144.683 141.243H142.852C142.145 141.243 141.571 140.669 141.571 139.962C141.572 139.254 142.145 138.68 142.853 138.68H144.683C145.391 138.68 145.965 139.254 145.965 139.962C145.965 140.669 145.391 141.243 144.683 141.243ZM145.965 136.923H108.037V114.078H145.965V136.923ZM144.683 112.321H142.852C142.145 112.321 141.571 111.747 141.571 111.04C141.571 110.332 142.145 109.758 142.852 109.758H144.683C145.391 109.758 145.965 110.332 145.965 111.04C145.965 111.747 145.391 112.321 144.683 112.321Z" fill="url(#paint0_linear_58155_36208)"/>
<path d="M207.5 140.543H207.663C208.762 140.543 209.81 140.078 210.547 139.263C211.253 138.483 211.549 137.414 211.346 136.382L211.21 135.691C211.15 135.388 211.243 135.075 211.458 134.854C212.386 133.899 212.817 133.159 212.817 132.714C212.817 132.042 212.686 131.39 212.419 130.75C211.962 131.11 211.419 131.442 210.792 131.75C210.327 131.978 209.764 131.786 209.535 131.32C209.306 130.854 209.498 130.291 209.964 130.063C210.845 129.63 211.473 129.169 211.856 128.694C211.919 128.616 211.992 128.551 212.071 128.499C212.581 127.771 212.89 126.919 212.962 126.031L213.003 125.533C213.099 124.368 212.71 123.215 211.928 122.346L211.433 121.795C211.105 121.43 211.113 120.876 211.449 120.521C212.11 119.822 212.405 118.853 212.247 117.905L212.165 117.416C211.978 116.294 211.142 115.391 210.039 115.117L209.58 115.004C209.567 115 209.554 114.997 209.542 114.993C209.521 114.989 209.5 114.985 209.479 114.979C208.921 114.837 208.32 114.837 207.664 114.986C207.158 115.1 206.655 114.782 206.541 114.276C206.427 113.77 206.744 113.267 207.251 113.152C207.767 113.035 208.272 112.983 208.765 112.996C208.642 112.34 208.41 111.795 208.074 111.353C207.355 110.408 206.667 109.807 206.028 109.525C206.016 109.526 206.005 109.527 205.994 109.528C205.419 109.566 204.847 109.752 204.269 110.095C203.823 110.361 203.247 110.214 202.982 109.768C202.716 109.322 202.863 108.745 203.309 108.48C203.639 108.283 203.975 108.121 204.314 107.993C203.647 107.291 202.713 106.88 201.719 106.88C200.361 106.88 199.086 107.529 198.288 108.628L197.388 109.867V111.828C197.388 112.347 196.968 112.768 196.448 112.768C195.93 112.768 195.509 112.347 195.509 111.828V109.62C195.509 109.389 195.592 109.178 195.73 109.014C195.76 108.932 195.801 108.854 195.855 108.78L196.767 107.523C197.919 105.938 199.76 105 201.719 105C203.643 105 205.421 106.012 206.405 107.658C207.513 108.027 208.562 108.891 209.569 110.215C210.218 111.068 210.595 112.119 210.709 113.353C212.431 113.868 213.72 115.32 214.019 117.106L214.1 117.596C214.307 118.834 214.035 120.093 213.357 121.125C214.463 122.375 215.012 124.022 214.876 125.686L214.836 126.184C214.745 127.291 214.388 128.358 213.8 129.293C214.395 130.381 214.697 131.525 214.697 132.714C214.697 133.667 214.164 134.676 213.147 135.801L213.189 136.019C213.508 137.634 213.045 139.303 211.941 140.524C210.847 141.733 209.294 142.423 207.663 142.423H207.417L206.873 142.967C204.166 145.676 199.777 145.678 197.068 142.972C196.45 142.355 195.955 141.627 195.608 140.826C195.539 140.668 195.517 140.501 195.537 140.341C195.518 140.268 195.509 140.192 195.509 140.113V137.906C195.509 137.387 195.93 136.966 196.448 136.966C196.968 136.966 197.388 137.387 197.388 137.906V140.113C197.388 140.142 197.387 140.169 197.384 140.197C197.634 140.734 197.976 141.223 198.396 141.642C200.371 143.615 203.57 143.613 205.543 141.639L205.669 141.513C205.662 141.463 205.66 141.411 205.662 141.358C205.685 140.782 205.56 140.193 205.279 139.581C205.062 139.109 205.268 138.551 205.74 138.334C206.212 138.118 206.769 138.324 206.986 138.796C207.253 139.375 207.424 139.959 207.5 140.543L207.5 140.543Z" fill="url(#paint1_linear_58155_36208)"/>
<path d="M198.408 133.817C198.927 133.817 199.348 134.238 199.348 134.757C199.348 135.276 198.927 135.696 198.408 135.696H192.599C191.388 135.696 190.407 136.678 190.407 137.889V138.623C191.455 139.034 192.197 140.055 192.197 141.249C192.197 142.806 190.935 144.068 189.378 144.068C187.821 144.068 186.559 142.806 186.559 141.249C186.559 139.988 187.386 138.921 188.527 138.56L188.527 137.889C188.527 135.64 190.35 133.817 192.599 133.817L198.408 133.817ZM189.378 140.309C188.859 140.309 188.438 140.73 188.438 141.249C188.438 141.768 188.859 142.189 189.378 142.189C189.897 142.189 190.317 141.768 190.317 141.249C190.317 140.73 189.897 140.309 189.378 140.309ZM195.822 128.806C196.342 128.806 196.762 129.226 196.762 129.745C196.762 130.264 196.342 130.685 195.822 130.685H188.654C188.038 130.685 187.452 130.943 187.036 131.397L185.245 133.353C185.483 133.767 185.619 134.246 185.619 134.757C185.619 136.314 184.357 137.576 182.8 137.576C181.243 137.576 179.981 136.314 179.981 134.757C179.981 133.2 181.243 131.938 182.8 131.938C183.16 131.938 183.503 132.005 183.819 132.128L185.65 130.128C186.421 129.285 187.511 128.805 188.654 128.805L195.822 128.806ZM182.8 133.817C182.281 133.817 181.86 134.238 181.86 134.757C181.86 135.276 182.281 135.696 182.8 135.696C183.319 135.696 183.74 135.276 183.74 134.757C183.74 134.238 183.319 133.817 182.8 133.817ZM180.921 122.228C182.148 122.228 183.192 123.013 183.579 124.107H199.192C199.711 124.107 200.132 124.528 200.132 125.047C200.132 125.547 199.74 125.956 199.247 125.985L199.192 125.987H183.579C183.192 127.082 182.148 127.866 180.921 127.866C179.364 127.866 178.102 126.604 178.102 125.047C178.102 123.49 179.364 122.228 180.921 122.228ZM180.921 124.107C180.402 124.107 179.981 124.528 179.981 125.047C179.981 125.566 180.402 125.987 180.921 125.987C181.44 125.987 181.861 125.566 181.861 125.047C181.861 124.528 181.44 124.107 180.921 124.107ZM183.426 112.518C184.983 112.518 186.246 113.78 186.246 115.337C186.246 115.888 186.088 116.401 185.815 116.835L187.663 118.853C188.057 119.284 188.607 119.539 189.188 119.563L189.28 119.565H196.449C196.968 119.565 197.389 119.986 197.389 120.505C197.389 121.005 196.997 121.414 196.504 121.443L196.449 121.445H189.28C188.176 121.445 187.12 120.996 186.355 120.206L186.277 120.122L184.338 118.005C184.052 118.103 183.746 118.156 183.426 118.156C181.87 118.156 180.607 116.894 180.607 115.337C180.607 113.78 181.87 112.518 183.426 112.518ZM183.426 114.397C182.908 114.397 182.487 114.818 182.487 115.337C182.487 115.856 182.908 116.277 183.426 116.277C183.946 116.277 184.366 115.856 184.366 115.337C184.366 114.818 183.946 114.397 183.426 114.397ZM189.378 105.94C190.935 105.94 192.197 107.202 192.197 108.759C192.197 109.953 191.455 110.974 190.407 111.384V112.048C190.407 113.259 191.388 114.24 192.599 114.24H198.408C198.927 114.24 199.348 114.661 199.348 115.18C199.348 115.699 198.927 116.12 198.408 116.12H192.599C190.35 116.12 188.527 114.297 188.527 112.048L188.527 111.448C187.386 111.087 186.559 110.02 186.559 108.759C186.559 107.202 187.821 105.94 189.378 105.94H189.378ZM189.378 107.819C188.859 107.819 188.438 108.24 188.438 108.759C188.438 109.278 188.859 109.699 189.378 109.699C189.897 109.699 190.317 109.278 190.317 108.759C190.317 108.24 189.897 107.819 189.378 107.819Z" fill="url(#paint2_linear_58155_36208)"/>
<path d="M201.571 133.661C202.09 133.661 202.511 134.081 202.511 134.6C202.511 135.119 202.09 135.54 201.571 135.54H201.28C200.761 135.54 200.34 135.119 200.34 134.6C200.34 134.081 200.761 133.661 201.28 133.661H201.571ZM205.024 128.649C205.543 128.649 205.963 129.07 205.963 129.588C205.963 130.108 205.543 130.528 205.024 130.528H204.733C204.214 130.528 203.793 130.108 203.793 129.588C203.793 129.07 204.214 128.649 204.733 128.649H205.024ZM201.787 128.649C202.306 128.649 202.727 129.07 202.727 129.588C202.727 130.108 202.306 130.528 201.787 130.528H199.46C198.94 130.528 198.52 130.108 198.52 129.588C198.52 129.07 198.94 128.649 199.46 128.649H201.787ZM204.92 123.95C205.438 123.95 205.859 124.371 205.859 124.89C205.859 125.409 205.438 125.83 204.92 125.83H202.592C202.073 125.83 201.652 125.409 201.652 124.89C201.652 124.371 202.073 123.95 202.592 123.95H204.92ZM208.469 123.95C208.988 123.95 209.409 124.371 209.409 124.89C209.409 125.409 208.988 125.83 208.469 125.83H208.178C207.66 125.83 207.239 125.409 207.239 124.89C207.239 124.371 207.66 123.95 208.178 123.95H208.469ZM205.337 119.565C205.856 119.565 206.277 119.986 206.277 120.505C206.277 121.024 205.856 121.444 205.337 121.444H205.046C204.527 121.444 204.106 121.024 204.106 120.505C204.106 119.986 204.527 119.565 205.046 119.565H205.337ZM202.1 119.565C202.619 119.565 203.04 119.986 203.04 120.505C203.04 121.024 202.619 121.444 202.1 121.444H199.773C199.254 121.444 198.833 121.024 198.833 120.505C198.833 119.986 199.254 119.565 199.773 119.565H202.1ZM201.578 114.24C202.098 114.24 202.518 114.661 202.518 115.18C202.518 115.699 202.098 116.12 201.578 116.12H201.287C200.769 116.12 200.348 115.699 200.348 115.18C200.348 114.661 200.769 114.24 201.287 114.24H201.578Z" fill="url(#paint3_linear_58155_36208)"/>
<path d="M262.157 105C261.88 105.001 261.655 105.225 261.654 105.503V120.025C261.653 120.159 261.706 120.287 261.8 120.382C261.895 120.477 262.023 120.531 262.157 120.531H271.839H271.838C271.973 120.532 272.102 120.479 272.197 120.384C272.293 120.288 272.346 120.159 272.345 120.025V105.503C272.345 105.369 272.291 105.241 272.196 105.146C272.101 105.052 271.972 104.999 271.838 105L262.157 105ZM262.665 106.01H271.335V119.522H262.665V106.01ZM265.325 106.814C265.045 106.828 264.83 107.065 264.844 107.344C264.858 107.623 265.095 107.838 265.374 107.824H268.614H268.614C268.748 107.829 268.879 107.781 268.977 107.69C269.076 107.599 269.134 107.472 269.139 107.338C269.144 107.204 269.096 107.073 269.004 106.975C268.913 106.877 268.786 106.819 268.652 106.814C268.639 106.813 268.627 106.813 268.614 106.814H265.374H265.374C265.358 106.813 265.341 106.813 265.325 106.814ZM263.72 108.628C263.584 108.633 263.456 108.692 263.364 108.792C263.272 108.892 263.225 109.025 263.232 109.16C263.239 109.296 263.3 109.423 263.402 109.513C263.504 109.603 263.638 109.648 263.773 109.638H270.215C270.49 109.633 270.71 109.409 270.71 109.133C270.71 108.858 270.49 108.633 270.215 108.628H263.773C263.755 108.627 263.738 108.627 263.72 108.628ZM263.773 110.446H263.773C263.512 110.469 263.312 110.687 263.312 110.949C263.312 111.211 263.512 111.43 263.773 111.453H270.215C270.476 111.43 270.676 111.211 270.676 110.949C270.676 110.687 270.476 110.469 270.215 110.446H263.773ZM263.773 112.26H263.773C263.494 112.26 263.268 112.486 263.268 112.766C263.268 113.044 263.494 113.271 263.773 113.271H270.215C270.494 113.271 270.72 113.044 270.72 112.766C270.72 112.486 270.494 112.26 270.215 112.26H263.773ZM263.72 114.075C263.584 114.08 263.456 114.139 263.365 114.239C263.273 114.339 263.225 114.471 263.233 114.607C263.24 114.742 263.301 114.869 263.403 114.959C263.504 115.049 263.638 115.094 263.773 115.085H266.998C267.133 115.092 267.266 115.046 267.366 114.955C267.467 114.864 267.527 114.736 267.532 114.601C267.538 114.466 267.489 114.334 267.396 114.235C267.304 114.136 267.175 114.078 267.04 114.075C267.026 114.074 267.012 114.074 266.998 114.075H263.773C263.755 114.074 263.738 114.074 263.72 114.075ZM268.503 115.889C268.369 115.895 268.243 115.954 268.153 116.054C268.062 116.153 268.015 116.285 268.022 116.419C268.028 116.553 268.088 116.679 268.188 116.769C268.288 116.859 268.419 116.906 268.553 116.899H270.215H270.215C270.494 116.91 270.729 116.694 270.741 116.415C270.752 116.136 270.535 115.9 270.257 115.889C270.243 115.888 270.229 115.888 270.215 115.889H268.553H268.553C268.536 115.888 268.52 115.888 268.503 115.889ZM270.527 117.707C270.474 117.708 270.423 117.73 270.386 117.768L269.925 118.229V117.909C269.924 117.828 269.875 117.756 269.8 117.725C269.725 117.695 269.64 117.712 269.582 117.768L269.117 118.229V117.909H269.117C269.116 117.828 269.067 117.756 268.992 117.725C268.917 117.695 268.832 117.712 268.774 117.768L267.966 118.572C267.919 118.607 267.889 118.661 267.885 118.719C267.88 118.778 267.902 118.835 267.943 118.877C267.985 118.918 268.042 118.94 268.101 118.935C268.159 118.931 268.213 118.901 268.248 118.854L268.713 118.393V118.713L268.713 118.713C268.714 118.794 268.763 118.866 268.838 118.897C268.912 118.928 268.998 118.911 269.056 118.854L269.521 118.393V118.713C269.522 118.794 269.571 118.866 269.646 118.897C269.721 118.928 269.807 118.911 269.864 118.854L270.668 118.05V118.05C270.725 117.992 270.742 117.906 270.711 117.832C270.68 117.757 270.608 117.708 270.527 117.707ZM257.298 120.531C257.092 120.53 256.907 120.654 256.829 120.844C256.751 121.034 256.796 121.253 256.943 121.396L258.297 122.75L252.74 128.314L251.379 126.965C251.286 126.863 251.155 126.803 251.017 126.801C250.812 126.803 250.628 126.929 250.553 127.12C250.477 127.311 250.525 127.528 250.674 127.67L252.023 129.019L251.813 129.244C251.617 129.441 251.617 129.76 251.813 129.957L254.664 132.804C254.861 132.998 255.177 132.998 255.373 132.804L256.158 132.015L258.136 134L258.529 135.434H258.529C258.553 135.517 258.597 135.593 258.659 135.655L260 137.008C259.417 137.682 259.436 138.712 260.073 139.356C260.416 139.691 260.846 139.863 261.292 139.863C261.292 140.294 261.453 140.739 261.784 141.071C262.12 141.403 262.562 141.567 262.996 141.567C262.996 142.009 263.168 142.443 263.499 142.775C263.835 143.11 264.265 143.282 264.711 143.282C264.711 143.713 264.871 144.159 265.203 144.49C265.851 145.134 266.888 145.157 267.566 144.563C268.229 145.165 269.277 145.146 269.925 144.502C270.097 144.319 270.226 144.109 270.306 143.884L270.348 143.926C271.011 144.593 272.101 144.593 272.768 143.926C273.05 143.652 273.18 143.301 273.229 142.939C273.767 143.038 274.35 142.897 274.766 142.504C275.429 141.837 275.429 140.747 274.766 140.072L274.724 140.035C274.945 139.95 275.158 139.832 275.338 139.649C275.924 139.066 275.993 138.129 275.532 137.462L276.58 133.277L277.842 132.015L278.615 132.804V132.804C278.71 132.899 278.839 132.953 278.974 132.953C279.108 132.953 279.237 132.899 279.332 132.804L282.187 129.957H282.187C282.383 129.76 282.383 129.441 282.187 129.244L281.973 129.019L283.326 127.67C283.477 127.526 283.524 127.304 283.444 127.111C283.364 126.918 283.173 126.795 282.964 126.801C282.829 126.806 282.701 126.865 282.61 126.965L281.26 128.314L275.692 122.749L277.052 121.396H277.053C277.201 121.252 277.246 121.031 277.166 120.84C277.086 120.649 276.897 120.527 276.69 120.531C276.557 120.532 276.43 120.585 276.336 120.68L274.987 122.04L274.766 121.819C274.569 121.625 274.253 121.625 274.057 121.819L271.206 124.674H271.206C271.11 124.769 271.056 124.898 271.056 125.032C271.056 125.167 271.11 125.296 271.206 125.391L271.488 125.672H264.719H264.719C264.706 125.672 264.694 125.672 264.681 125.672H262.512L262.794 125.391C262.89 125.296 262.943 125.167 262.943 125.032C262.943 124.898 262.89 124.769 262.794 124.674L259.939 121.819C259.845 121.724 259.716 121.67 259.581 121.67C259.446 121.67 259.317 121.724 259.223 121.819L259.013 122.04L257.653 120.68C257.559 120.585 257.431 120.532 257.298 120.531L257.298 120.531ZM259.577 122.89L261.727 125.036L255.019 131.733L252.881 129.595L253.102 129.374L259.577 122.89ZM274.411 122.89L274.583 123.062H274.583C274.609 123.095 274.64 123.124 274.674 123.15L280.856 129.332V129.332C280.884 129.371 280.918 129.405 280.955 129.435L281.119 129.595L278.981 131.733L272.273 125.036L274.411 122.89ZM252.156 124.522C251.951 124.524 251.767 124.65 251.692 124.841C251.616 125.032 251.664 125.249 251.813 125.391L252.953 126.53H252.953C253.048 126.626 253.177 126.679 253.311 126.68C253.446 126.68 253.575 126.626 253.67 126.531C253.765 126.436 253.818 126.307 253.818 126.172C253.818 126.038 253.765 125.909 253.669 125.814L252.518 124.674C252.423 124.577 252.293 124.521 252.156 124.522ZM281.824 124.522C281.69 124.524 281.563 124.578 281.47 124.674L280.33 125.814H280.33C280.232 125.908 280.176 126.038 280.175 126.174C280.173 126.31 280.227 126.441 280.323 126.537C280.419 126.634 280.55 126.687 280.686 126.686C280.822 126.684 280.952 126.628 281.046 126.53L282.186 125.391C282.337 125.247 282.384 125.024 282.304 124.832C282.224 124.639 282.033 124.516 281.824 124.522ZM249.522 125.299C249.316 125.298 249.13 125.423 249.052 125.615C248.975 125.806 249.022 126.026 249.172 126.168L249.503 126.5C249.596 126.606 249.728 126.668 249.868 126.673C250.009 126.677 250.145 126.622 250.243 126.522C250.342 126.422 250.394 126.285 250.387 126.145C250.381 126.005 250.316 125.874 250.209 125.783L249.877 125.459H249.877C249.785 125.361 249.657 125.303 249.522 125.299ZM284.466 125.299C284.332 125.301 284.204 125.356 284.111 125.451L283.78 125.783V125.783C283.582 125.981 283.582 126.302 283.779 126.499C283.977 126.698 284.298 126.698 284.496 126.5L284.827 126.168H284.828C284.979 126.024 285.025 125.802 284.945 125.609C284.865 125.417 284.674 125.294 284.466 125.299ZM261.513 126.672H263.499L262.077 128.093C261.273 128.902 261.22 130.213 262.009 131.009C262.805 131.806 264.124 131.752 264.932 130.937L266.342 129.645L268.351 131.665L274.613 137.915L274.613 137.915C274.626 137.915 274.638 137.915 274.651 137.915C274.933 138.197 274.933 138.632 274.651 138.914C274.377 139.184 273.935 139.184 273.664 138.914L273.088 138.338L269.094 134.344H269.094C269.082 134.33 269.069 134.318 269.056 134.305C269.04 134.292 269.023 134.279 269.006 134.267C268.977 134.248 268.947 134.231 268.915 134.218C268.87 134.197 268.823 134.183 268.774 134.176C268.687 134.17 268.6 134.187 268.522 134.225C268.507 134.238 268.493 134.25 268.48 134.264C268.392 134.315 268.322 134.392 268.278 134.485C268.258 134.533 268.245 134.585 268.24 134.637C268.234 134.684 268.234 134.731 268.24 134.778C268.239 134.795 268.239 134.811 268.24 134.828C268.239 134.846 268.239 134.863 268.24 134.881C268.252 134.898 268.264 134.915 268.278 134.93C268.296 134.959 268.317 134.986 268.34 135.011C268.351 135.025 268.364 135.039 268.378 135.052L272.372 139.043L272.936 139.619L274.076 140.758C274.358 141.032 274.358 141.475 274.076 141.757C273.794 142.027 273.359 142.027 273.077 141.757L272.795 141.463L271.08 139.759L267.52 136.192V136.192C267.32 136.015 267.016 136.023 266.827 136.212C266.637 136.4 266.627 136.704 266.803 136.905L270.375 140.465L272.079 142.18C272.36 142.462 272.36 142.896 272.079 143.179C271.808 143.46 271.362 143.46 271.08 143.179L269.94 142.039L268.237 140.324L265.95 138.045C265.752 137.847 265.431 137.847 265.234 138.045C265.036 138.243 265.036 138.563 265.233 138.761L267.52 141.04L269.235 142.756C269.51 143.026 269.51 143.472 269.235 143.743C268.953 144.025 268.511 144.025 268.237 143.743L267.955 143.461L263.095 138.613L261.136 136.654V136.653C261.111 136.619 261.081 136.589 261.048 136.562L259.486 134.999L259.101 133.578C259.079 133.49 259.034 133.409 258.971 133.345L256.902 131.268L261.513 126.672ZM264.921 126.672H272.494L277.125 131.299L275.772 132.652V132.651C275.703 132.717 275.654 132.8 275.631 132.891L274.704 136.592L269.067 130.948L266.708 128.589C266.513 128.402 266.206 128.402 266.011 128.589L264.227 130.231C263.781 130.673 263.126 130.685 262.744 130.292C262.352 129.907 262.359 129.252 262.805 128.798L264.921 126.672ZM255.293 128.497C255.085 128.5 254.885 128.583 254.736 128.73C254.422 129.045 254.422 129.554 254.736 129.869C255.052 130.183 255.561 130.183 255.876 129.869C256.19 129.554 256.19 129.045 255.876 128.73C255.721 128.576 255.511 128.493 255.293 128.497ZM278.707 128.497C278.489 128.493 278.278 128.576 278.123 128.73C277.97 128.881 277.884 129.087 277.884 129.303C277.884 129.519 277.97 129.725 278.123 129.877C278.438 130.191 278.948 130.191 279.263 129.877C279.416 129.725 279.502 129.519 279.502 129.303C279.502 129.087 279.416 128.881 279.263 128.73C279.115 128.583 278.915 128.5 278.707 128.497ZM255.16 129.061C255.189 129.064 255.215 129.079 255.232 129.103C255.27 129.142 255.27 129.205 255.232 129.244C255.193 129.282 255.13 129.282 255.091 129.244C255.053 129.205 255.053 129.142 255.091 129.103C255.107 129.08 255.132 129.065 255.16 129.061ZM278.828 129.061C278.86 129.061 278.89 129.077 278.909 129.103C278.947 129.142 278.947 129.205 278.909 129.244C278.87 129.282 278.807 129.282 278.768 129.244C278.73 129.205 278.73 129.142 278.768 129.103C278.782 129.082 278.804 129.067 278.828 129.061ZM255.442 129.343C255.471 129.346 255.497 129.361 255.514 129.385C255.553 129.424 255.553 129.487 255.514 129.526C255.475 129.564 255.412 129.564 255.373 129.526C255.335 129.487 255.335 129.424 255.373 129.385C255.389 129.362 255.414 129.347 255.442 129.343ZM278.547 129.343C278.574 129.347 278.599 129.362 278.615 129.385C278.654 129.424 278.654 129.487 278.615 129.526C278.576 129.564 278.514 129.564 278.474 129.526C278.436 129.487 278.436 129.424 278.474 129.385C278.491 129.361 278.518 129.346 278.547 129.343ZM260.717 137.714L261.715 138.701C261.433 138.926 261.049 138.895 260.797 138.64C260.534 138.381 260.515 137.996 260.717 137.714L260.717 137.714ZM262.432 139.429L263.43 140.416C263.148 140.629 262.764 140.607 262.5 140.348C262.249 140.092 262.23 139.7 262.432 139.429L262.432 139.429ZM264.147 141.133L265.134 142.12C264.852 142.344 264.467 142.322 264.216 142.059C263.953 141.8 263.934 141.415 264.147 141.133L264.147 141.133ZM265.85 142.848L266.849 143.835C266.567 144.048 266.171 144.025 265.919 143.766C265.668 143.511 265.637 143.119 265.85 142.848L265.85 142.848Z" fill="url(#paint4_linear_58155_36208)"/>
<path d="M353.078 114.061C352.735 113.725 352.546 113.26 352.557 112.78V112.764C352.546 112.283 352.735 111.819 353.078 111.482L354.044 110.567H354.044C354.239 110.383 354.282 110.088 354.147 109.856L353.028 107.916C352.893 107.684 352.617 107.573 352.359 107.65L351.078 108.031C350.616 108.161 350.12 108.093 349.71 107.843L349.683 107.827V107.827C349.269 107.596 348.969 107.205 348.852 106.745L348.541 105.445C348.479 105.184 348.245 105 347.977 105H345.737C345.468 105 345.235 105.184 345.172 105.445L344.862 106.745C344.745 107.205 344.445 107.596 344.03 107.827L344.003 107.843C343.593 108.093 343.098 108.161 342.636 108.031L341.354 107.65C341.097 107.573 340.821 107.684 340.686 107.916L339.566 109.856C339.432 110.088 339.475 110.383 339.67 110.567L340.636 111.482C340.979 111.819 341.168 112.283 341.156 112.764V112.78C341.168 113.26 340.979 113.725 340.636 114.061L339.67 114.976H339.67C339.475 115.161 339.432 115.455 339.566 115.688L340.686 117.628C340.821 117.86 341.097 117.97 341.354 117.894L342.636 117.513L342.636 117.513C343.098 117.383 343.594 117.451 344.004 117.7L344.031 117.716L344.03 117.716C344.445 117.947 344.745 118.338 344.862 118.798L345.172 120.098C345.235 120.359 345.468 120.544 345.737 120.544H347.977C348.245 120.544 348.479 120.359 348.541 120.098L348.852 118.798V118.798C348.969 118.338 349.269 117.947 349.683 117.716L349.71 117.7C350.12 117.451 350.616 117.383 351.078 117.513L352.359 117.894V117.894C352.617 117.97 352.893 117.86 353.028 117.628L354.147 115.688C354.282 115.455 354.239 115.161 354.044 114.976L353.078 114.061ZM346.857 115.885C346.031 115.885 345.239 115.557 344.656 114.973C344.072 114.389 343.744 113.597 343.744 112.772C343.744 111.946 344.072 111.154 344.656 110.57C345.239 109.987 346.031 109.659 346.857 109.659C347.683 109.659 348.474 109.987 349.058 110.57C349.642 111.154 349.97 111.946 349.97 112.772C349.969 113.597 349.641 114.388 349.057 114.972C348.473 115.556 347.682 115.884 346.857 115.885Z" fill="url(#paint5_linear_58155_36208)"/>
<path d="M328.488 113.871L329.336 114.073C329.635 114.149 329.891 114.345 330.041 114.616L330.052 114.633C330.215 114.901 330.259 115.224 330.174 115.525L329.926 116.361L329.925 116.361C329.876 116.529 329.947 116.71 330.099 116.797L331.365 117.528C331.516 117.615 331.708 117.587 331.829 117.46L332.425 116.83C332.645 116.606 332.948 116.483 333.262 116.49H333.272C333.585 116.483 333.888 116.606 334.108 116.83L334.705 117.46C334.825 117.587 335.017 117.615 335.169 117.528L336.434 116.797C336.586 116.71 336.658 116.529 336.608 116.361L336.36 115.526C336.275 115.224 336.319 114.901 336.482 114.633L336.493 114.616C336.643 114.345 336.899 114.149 337.198 114.073L338.046 113.871C338.216 113.83 338.337 113.678 338.337 113.502V112.041C338.337 111.866 338.216 111.714 338.046 111.673L337.198 111.47H337.198C336.899 111.394 336.643 111.198 336.493 110.928L336.482 110.91C336.319 110.643 336.275 110.32 336.36 110.018L336.608 109.182C336.658 109.014 336.586 108.834 336.435 108.746L335.169 108.016H335.169C335.017 107.928 334.825 107.956 334.705 108.083L334.108 108.713C333.889 108.937 333.586 109.06 333.272 109.053H333.262C332.948 109.06 332.645 108.937 332.425 108.713L331.829 108.083C331.708 107.956 331.516 107.928 331.365 108.016L330.099 108.746C329.947 108.834 329.876 109.014 329.926 109.182L330.174 110.018C330.259 110.32 330.215 110.643 330.052 110.911L330.041 110.928C329.891 111.198 329.635 111.394 329.336 111.47L328.487 111.673H328.488C328.317 111.713 328.197 111.866 328.197 112.041V113.502C328.197 113.677 328.317 113.83 328.488 113.871L328.488 113.871ZM333.267 110.741C333.806 110.741 334.322 110.955 334.703 111.336C335.084 111.717 335.298 112.233 335.298 112.772C335.298 113.31 335.084 113.827 334.703 114.208C334.322 114.589 333.806 114.803 333.267 114.803C332.728 114.803 332.212 114.589 331.831 114.208C331.45 113.827 331.236 113.31 331.236 112.772C331.237 112.233 331.451 111.717 331.832 111.337C332.212 110.956 332.728 110.742 333.267 110.741Z" fill="url(#paint6_linear_58155_36208)"/>
<path d="M351.843 119.633L350.622 119.271L350.602 119.283L350.59 119.335V134.18L322.083 134.181V113.886H326.416C326.395 113.759 326.385 113.631 326.384 113.503V112.039C326.383 111.883 326.401 111.728 326.437 111.576H320.93C320.624 111.575 320.329 111.697 320.112 111.914C319.895 112.131 319.773 112.426 319.773 112.733V137.426C319.773 137.733 319.895 138.028 320.112 138.245C320.329 138.462 320.624 138.584 320.93 138.583H331.564V140.328L331.564 140.328C331.565 141.109 331.237 141.853 330.661 142.38L329.129 143.791V143.79C328.918 143.985 328.848 144.29 328.953 144.558C329.059 144.826 329.317 145.001 329.605 145H343.068C343.355 145.001 343.613 144.824 343.718 144.557C343.822 144.289 343.751 143.985 343.54 143.79L342.008 142.38L342.008 142.38C341.434 141.852 341.108 141.108 341.109 140.328V138.583H351.742V138.583C352.381 138.583 352.899 138.065 352.899 137.426V119.702C352.546 119.759 352.185 119.736 351.843 119.633L351.843 119.633ZM338.465 142.077H334.208V138.582H338.465L338.465 142.077Z" fill="url(#paint7_linear_58155_36208)"/>
<path d="M338.875 119.974C338.791 119.927 338.689 119.927 338.605 119.975C338.522 120.024 338.47 120.112 338.468 120.208V123.223H341.306L341.306 123.223C340.979 121.851 340.1 120.675 338.875 119.974Z" fill="url(#paint8_linear_58155_36208)"/>
<path d="M338.468 132.528V131.598C338.461 130.25 338.991 128.955 339.942 127.999C340.77 127.178 341.291 126.096 341.416 124.936H335.311C335.024 124.936 334.75 124.822 334.547 124.62C334.344 124.417 334.23 124.142 334.231 123.856V120.208C334.23 120.112 334.179 120.024 334.096 119.976C334.013 119.928 333.912 119.927 333.828 119.973C332.446 120.759 331.511 122.145 331.301 123.72C331.09 125.296 331.629 126.879 332.757 127.999C333.707 128.955 334.238 130.25 334.231 131.598V132.528L338.468 132.528Z" fill="url(#paint9_linear_58155_36208)"/>
<path d="M410.055 143.136V139.856L403.122 139.863V143.143L397.747 143.15V145L403.122 144.993H410.055L415.321 144.987V143.136L410.055 143.136Z" fill="url(#paint10_linear_58155_36208)"/>
<path d="M423.108 117.64C423.108 116.742 422.751 115.88 422.115 115.244C421.48 114.608 420.618 114.252 419.719 114.252H415.714V116.366H419.74V116.366C420.069 116.366 420.385 116.496 420.619 116.729C420.853 116.961 420.985 117.277 420.987 117.606V134.786H392.041V117.606C392.041 117.277 392.171 116.96 392.404 116.727C392.636 116.493 392.952 116.361 393.281 116.359H397.347V114.245H393.281V114.245C392.382 114.245 391.521 114.602 390.885 115.237C390.249 115.873 389.893 116.735 389.893 117.633V135.471C389.893 136.37 390.249 137.232 390.885 137.868C391.521 138.503 392.382 138.86 393.281 138.86H419.713C420.612 138.86 421.474 138.503 422.109 137.868C422.745 137.232 423.102 136.37 423.102 135.471L423.108 117.64ZM406.524 138.243C406.145 138.243 405.781 138.093 405.513 137.825C405.245 137.556 405.094 137.193 405.094 136.814C405.094 136.434 405.245 136.071 405.513 135.802C405.781 135.534 406.145 135.384 406.524 135.384C406.903 135.384 407.267 135.534 407.535 135.802C407.803 136.071 407.954 136.434 407.954 136.814C407.954 137.193 407.803 137.556 407.535 137.825C407.267 138.093 406.903 138.243 406.524 138.243Z" fill="url(#paint11_linear_58155_36208)"/>
<path d="M414.602 114.285C414.565 113.811 414.363 113.365 414.032 113.024C413.7 112.684 413.259 112.47 412.786 112.421V107.033C412.786 106.494 412.572 105.977 412.191 105.596C411.809 105.214 411.292 105 410.753 105H402.281C401.742 105 401.225 105.214 400.844 105.596C400.462 105.977 400.248 106.494 400.248 107.033V112.421C399.773 112.471 399.331 112.686 398.998 113.03C398.667 113.373 398.466 113.822 398.432 114.298V124.465V124.464C398.432 125.004 398.646 125.521 399.027 125.902C399.408 126.283 399.926 126.497 400.465 126.497H412.589C413.129 126.497 413.646 126.283 414.027 125.902C414.409 125.521 414.623 125.004 414.623 124.464C414.623 124.464 414.602 114.333 414.602 114.285L414.602 114.285ZM402.681 107.44H410.367V112.401H402.681V107.44ZM407.933 122.127H405.114L405.527 119.3C405.229 119.031 405.054 118.651 405.04 118.249C405.027 117.847 405.177 117.457 405.457 117.168C405.737 116.879 406.122 116.716 406.524 116.716C406.926 116.716 407.311 116.879 407.59 117.168C407.87 117.457 408.021 117.847 408.007 118.249C407.994 118.651 407.818 119.031 407.52 119.3L407.933 122.127Z" fill="url(#paint12_linear_58155_36208)"/>
<g opacity="0.7">
<path d="M144.339 201.51V184.291C144.339 182.975 143.262 181.904 141.946 181.904H140.287V183.194H141.946C142.552 183.194 143.049 183.684 143.049 184.29V200.889L110.947 200.89V184.291C110.947 183.684 111.443 183.194 112.05 183.194H113.708V181.904H112.05C110.727 181.904 109.656 182.975 109.656 184.291V204.981C109.656 206.303 110.727 207.374 112.05 207.374H141.945C143.261 207.374 144.339 206.303 144.339 204.981V201.568C144.339 201.555 144.345 201.549 144.345 201.536C144.345 201.529 144.339 201.523 144.339 201.51L144.339 201.51ZM127.572 204.768H126.43C126.075 204.768 125.785 204.477 125.785 204.122C125.785 203.768 126.075 203.477 126.43 203.477H127.572C127.933 203.477 128.217 203.768 128.217 204.122C128.217 204.477 127.933 204.768 127.572 204.768Z" fill="url(#paint13_linear_58155_36208)"/>
<path d="M135.657 213.708H134.091C132.325 212.346 131.117 210.332 130.546 208.665H123.45C122.879 210.332 121.671 212.346 119.905 213.708H118.343C117.987 213.708 117.698 213.997 117.698 214.353C117.698 214.71 117.986 214.999 118.343 214.999H120.126C120.129 214.999 120.131 215 120.133 215H133.862C133.864 215 133.867 214.999 133.869 214.999H135.656C136.013 214.999 136.301 214.71 136.301 214.353C136.302 213.997 136.013 213.708 135.656 213.708H135.657Z" fill="url(#paint14_linear_58155_36208)"/>
<path d="M134.221 191.67H127.943L130.649 197.275C132.623 196.12 134.009 194.064 134.221 191.67H134.221Z" fill="url(#paint15_linear_58155_36208)"/>
<path d="M119.753 191.025C119.753 192.529 120.215 193.927 121.004 195.086L126.356 190.647V183.8C122.66 184.13 119.753 187.245 119.753 191.025V191.025Z" fill="url(#paint16_linear_58155_36208)"/>
<path d="M129.481 197.825L126.691 192.044L121.823 196.083C123.141 197.429 124.976 198.268 127.006 198.268C127.876 198.267 128.708 198.107 129.481 197.825Z" fill="url(#paint17_linear_58155_36208)"/>
<path d="M127.651 183.725V190.304H134.214C133.906 186.82 131.128 184.036 127.651 183.725Z" fill="url(#paint18_linear_58155_36208)"/>
<path d="M139 176.554C139 175.697 138.302 175 137.446 175H116.555C115.698 175 115.001 175.697 115.001 176.554V179.528H138.999L139 176.554ZM118.715 177.909H118.497C118.141 177.909 117.852 177.62 117.852 177.264C117.852 176.908 118.141 176.619 118.497 176.619H118.715C119.071 176.619 119.36 176.907 119.36 177.264C119.36 177.62 119.071 177.909 118.715 177.909ZM121.572 177.909H121.355C120.999 177.909 120.71 177.62 120.71 177.264C120.71 176.908 120.998 176.619 121.355 176.619H121.572C121.929 176.619 122.218 176.907 122.218 177.264C122.218 177.62 121.929 177.909 121.572 177.909ZM135.503 177.909H128.999C128.643 177.909 128.354 177.62 128.354 177.264C128.354 176.908 128.642 176.619 128.999 176.619H135.503C135.859 176.619 136.148 176.907 136.148 177.264C136.148 177.62 135.859 177.909 135.503 177.909Z" fill="url(#paint19_linear_58155_36208)"/>
<path d="M116.555 196.065H120.128C119.086 194.651 118.462 192.912 118.462 191.025C118.462 186.421 122.126 182.666 126.689 182.497C126.783 182.444 126.886 182.405 127.001 182.405C131.706 182.405 135.533 186.238 135.533 190.949C135.533 190.957 135.529 190.964 135.529 190.971C135.53 190.99 135.54 191.006 135.54 191.025C135.54 192.911 134.917 194.65 133.876 196.065H137.446C138.303 196.065 139 195.367 139 194.511V180.819H115.001V194.511C115.001 195.368 115.698 196.065 116.555 196.065L116.555 196.065Z" fill="url(#paint20_linear_58155_36208)"/>
</g>
<path d="M211.832 188.352V187.904C211.832 182.437 207.395 178 201.928 178C198.388 178 195.116 179.927 193.369 182.974C192.875 182.885 192.383 182.84 191.89 182.84C188.439 182.84 185.392 184.946 184.137 188.083H184.002C180.059 188.084 176.832 191.31 176.832 195.299C176.832 199.287 180.059 202.514 184.047 202.514H185.302C185.929 202.514 186.422 202.021 186.422 201.394C186.422 200.766 185.929 200.274 185.302 200.274H184.047C181.314 200.274 179.073 198.033 179.073 195.299C179.073 192.566 181.314 190.325 184.047 190.325C184.316 190.325 184.54 190.325 184.764 190.37C185.347 190.459 185.885 190.101 186.019 189.563C186.736 186.918 189.156 185.081 191.89 185.081C192.518 185.081 193.1 185.171 193.638 185.35C194.176 185.529 194.758 185.26 194.982 184.722C196.237 181.989 198.971 180.241 201.928 180.241C206.141 180.241 209.592 183.691 209.592 187.904C209.592 188.308 209.547 188.711 209.502 189.069C209.457 189.383 209.547 189.697 209.726 189.921C209.906 190.145 210.175 190.324 210.488 190.369C212.998 190.638 214.925 192.744 214.925 195.299C214.925 198.032 212.684 200.273 209.951 200.273H208.696C208.069 200.273 207.576 200.766 207.576 201.393C207.576 202.021 208.069 202.514 208.696 202.514H209.951C213.939 202.514 217.166 199.287 217.166 195.298C217.165 191.983 214.925 189.159 211.832 188.352L211.832 188.352Z" fill="url(#paint21_linear_58155_36208)"/>
<path d="M204.93 194.357H189.066C188.438 194.357 187.945 194.851 187.945 195.478V211.88C187.945 212.507 188.438 213 189.066 213H204.885C205.512 213 206.005 212.507 206.005 211.88L206.006 195.478C206.05 194.85 205.513 194.357 204.93 194.357L204.93 194.357ZM190.186 202.066H203.765V205.292H190.186V202.066ZM190.186 196.598H203.765V199.825H190.186V196.598ZM203.81 210.805H190.186V207.578H203.765L203.765 210.805H203.81Z" fill="url(#paint22_linear_58155_36208)"/>
<path d="M195.475 197.405C195.251 197.629 195.161 197.898 195.161 198.212C195.161 198.526 195.295 198.795 195.475 199.019C195.699 199.243 195.968 199.332 196.281 199.332C196.595 199.332 196.864 199.198 197.088 199.019C197.312 198.795 197.402 198.526 197.402 198.212C197.402 197.898 197.268 197.629 197.088 197.405C196.64 197.002 195.878 197.002 195.475 197.405Z" fill="url(#paint23_linear_58155_36208)"/>
<path d="M195.475 202.917C195.251 203.141 195.161 203.41 195.161 203.724C195.161 204.038 195.295 204.307 195.475 204.531C195.699 204.755 195.968 204.845 196.281 204.845C196.595 204.845 196.864 204.71 197.088 204.531C197.312 204.307 197.402 204.038 197.402 203.724C197.402 203.41 197.268 203.141 197.088 202.917C196.64 202.469 195.878 202.469 195.475 202.917Z" fill="url(#paint24_linear_58155_36208)"/>
<path d="M200.001 197.405C199.776 197.629 199.687 197.898 199.687 198.212C199.687 198.526 199.821 198.795 200.001 199.019C200.225 199.243 200.494 199.332 200.807 199.332C201.121 199.332 201.39 199.198 201.614 199.019C201.838 198.795 201.928 198.526 201.928 198.212C201.928 197.898 201.794 197.629 201.614 197.405C201.166 197.002 200.449 197.002 200.001 197.405Z" fill="url(#paint25_linear_58155_36208)"/>
<path d="M200.001 202.917C199.821 203.096 199.687 203.41 199.687 203.679C199.687 203.993 199.821 204.262 200.001 204.486C200.225 204.71 200.494 204.8 200.807 204.8C201.121 204.8 201.39 204.665 201.614 204.486C201.838 204.262 201.928 203.993 201.928 203.679C201.928 203.365 201.794 203.096 201.614 202.872C201.166 202.469 200.449 202.469 200.001 202.917Z" fill="url(#paint26_linear_58155_36208)"/>
<path d="M269.43 194.064C269.43 194.43 269.285 194.782 269.025 195.042C268.766 195.301 268.414 195.447 268.047 195.447H265.973H265.973C265.479 195.447 265.022 195.183 264.775 194.755C264.528 194.327 264.528 193.8 264.775 193.372C265.022 192.944 265.479 192.681 265.973 192.681H268.048H268.047C268.414 192.681 268.766 192.826 269.025 193.086C269.285 193.345 269.43 193.697 269.43 194.064ZM284.808 205.818C283.458 207.335 281.449 208.092 279.434 207.843C277.419 207.595 275.654 206.373 274.713 204.573L272.542 200.342C272.426 200.118 272.251 199.931 272.037 199.799C271.823 199.668 271.576 199.597 271.325 199.595H262.751C262.497 199.595 262.247 199.664 262.03 199.796C261.813 199.927 261.637 200.116 261.52 200.342L259.307 204.573C258.429 206.337 256.762 207.577 254.82 207.911C252.878 208.244 250.893 207.632 249.477 206.263C248.06 204.893 247.381 202.93 247.649 200.978L249.253 189.085C249.457 187.399 250.275 185.846 251.55 184.724C252.825 183.602 254.469 182.988 256.168 183H277.894C279.597 182.989 281.244 183.606 282.52 184.734C283.796 185.862 284.611 187.421 284.808 189.113L286.371 200.979C286.571 202.741 286.001 204.505 284.808 205.819L284.808 205.818ZM283.605 201.31L282.056 189.445V189.444C281.94 188.428 281.452 187.489 280.687 186.81C279.921 186.131 278.931 185.759 277.907 185.766H256.126C255.105 185.759 254.117 186.129 253.351 186.805C252.586 187.482 252.097 188.417 251.977 189.431L250.415 201.337C250.293 202.296 250.596 203.261 251.245 203.979C251.896 204.723 252.842 205.143 253.831 205.126C254.454 205.126 255.065 204.955 255.598 204.634C256.132 204.312 256.568 203.852 256.859 203.301L259.072 199.055C259.423 198.383 259.952 197.821 260.6 197.428C261.249 197.036 261.992 196.829 262.75 196.829H271.283C272.041 196.829 272.785 197.036 273.433 197.428C274.082 197.821 274.61 198.383 274.961 199.055L277.174 203.287C277.648 204.274 278.568 204.972 279.646 205.163C280.724 205.354 281.829 205.014 282.613 204.251C283.397 203.487 283.766 202.392 283.604 201.31L283.605 201.31ZM276.026 189.915C276.521 189.915 276.977 189.651 277.224 189.223C277.471 188.795 277.471 188.268 277.224 187.84C276.977 187.412 276.521 187.149 276.026 187.149C275.532 187.149 275.076 187.412 274.829 187.84C274.582 188.268 274.582 188.795 274.829 189.223C275.076 189.651 275.532 189.915 276.026 189.915ZM273.261 189.915C272.894 189.915 272.542 190.06 272.283 190.32C272.024 190.579 271.878 190.931 271.878 191.298C271.878 191.664 272.024 192.016 272.283 192.275C272.542 192.535 272.894 192.681 273.261 192.681C273.627 192.681 273.979 192.535 274.239 192.275C274.498 192.016 274.644 191.664 274.644 191.298C274.644 190.928 274.496 190.575 274.234 190.315C273.972 190.055 273.616 189.911 273.247 189.915L273.261 189.915ZM276.026 192.681C275.66 192.681 275.308 192.826 275.049 193.085C274.789 193.345 274.644 193.697 274.644 194.063C274.644 194.43 274.789 194.782 275.049 195.041C275.308 195.301 275.66 195.446 276.026 195.446C276.393 195.446 276.745 195.301 277.004 195.041C277.264 194.782 277.41 194.43 277.41 194.063C277.41 193.694 277.262 193.34 277 193.081C276.737 192.821 276.382 192.677 276.013 192.681L276.026 192.681ZM278.792 189.915C278.425 189.915 278.074 190.06 277.814 190.32C277.555 190.579 277.409 190.931 277.409 191.298C277.409 191.664 277.555 192.016 277.814 192.275C278.074 192.535 278.425 192.681 278.792 192.681C279.159 192.681 279.511 192.535 279.77 192.275C280.03 192.016 280.175 191.664 280.175 191.298C280.175 190.928 280.028 190.575 279.765 190.315C279.503 190.055 279.148 189.911 278.779 189.915L278.792 189.915ZM260.815 189.915H259.432V188.532C259.432 188.038 259.168 187.581 258.74 187.334C258.312 187.087 257.785 187.087 257.358 187.334C256.93 187.581 256.666 188.038 256.666 188.532V189.914H255.283L255.283 189.915C254.789 189.915 254.333 190.178 254.086 190.606C253.839 191.034 253.839 191.561 254.086 191.989C254.333 192.417 254.789 192.681 255.283 192.681H256.666V194.063H256.666C256.666 194.557 256.93 195.014 257.358 195.261C257.785 195.508 258.312 195.508 258.74 195.261C259.168 195.014 259.432 194.557 259.432 194.063V192.681H260.815C261.309 192.681 261.765 192.417 262.013 191.989C262.26 191.561 262.26 191.034 262.013 190.606C261.765 190.178 261.309 189.915 260.815 189.915Z" fill="url(#paint27_linear_58155_36208)"/>
<path fill-rule="evenodd" clip-rule="evenodd" d="M330.615 187.974C330.235 186.841 330.008 185.805 330.008 184.991C330.008 181.133 333.141 178 336.999 178C340.858 178 343.991 181.133 343.991 184.992C343.991 185.805 343.764 186.841 343.383 187.974L353.684 187.973C354.516 187.973 355.314 188.304 355.902 188.892C356.49 189.48 356.821 190.278 356.821 191.11V208.863C356.821 209.695 356.49 210.493 355.902 211.081C355.314 211.67 354.516 212 353.684 212H320.314C319.482 212 318.685 211.67 318.096 211.081C317.508 210.493 317.178 209.695 317.178 208.863V191.111C317.178 190.278 317.508 189.481 318.096 188.892C318.685 188.304 319.482 187.974 320.314 187.974H330.615L330.615 187.974ZM355.219 201.416H337.8V210.397H353.684C354.091 210.397 354.482 210.236 354.77 209.948C355.058 209.66 355.219 209.269 355.219 208.862L355.219 201.416ZM318.78 201.416V208.863C318.78 209.27 318.941 209.66 319.229 209.948C319.517 210.236 319.907 210.397 320.315 210.397H336.198V201.416H318.78ZM348.79 189.575V199.815H355.218V191.11C355.218 190.703 355.057 190.312 354.769 190.025C354.481 189.737 354.09 189.575 353.683 189.575L348.79 189.575ZM325.207 189.575H320.314C319.907 189.575 319.517 189.736 319.229 190.024C318.941 190.312 318.78 190.702 318.78 191.11V199.814H325.207V189.575ZM331.228 189.575H326.809V199.815H347.189V189.575H342.77C342.745 189.634 342.72 189.693 342.694 189.753C341.061 193.52 338.342 197.707 338.342 197.707C338.046 198.162 337.541 198.436 336.999 198.436C336.457 198.436 335.952 198.162 335.656 197.707C335.656 197.707 332.937 193.52 331.304 189.753C331.278 189.693 331.253 189.634 331.228 189.575H331.228ZM336.999 196.834C336.999 196.834 331.61 188.544 331.61 184.991C331.61 182.017 334.025 179.602 336.999 179.602C339.973 179.602 342.388 182.017 342.388 184.991C342.388 188.545 336.999 196.834 336.999 196.834ZM336.999 182.359C335.573 182.359 334.416 183.517 334.416 184.943C334.416 186.368 335.573 187.526 336.999 187.526C338.424 187.526 339.582 186.368 339.582 184.942C339.582 183.517 338.424 182.359 336.999 182.359ZM336.999 183.961C337.541 183.961 337.98 184.401 337.98 184.943C337.98 185.484 337.541 185.924 336.999 185.924C336.457 185.924 336.017 185.484 336.017 184.943C336.017 184.401 336.457 183.961 336.999 183.961V183.961Z" fill="url(#paint28_linear_58155_36208)"/>
<path d="M419.276 191.33H416.168V188.221C416.167 187.623 415.929 187.05 415.505 186.627C415.082 186.205 414.508 185.969 413.91 185.97H411.078C410.481 185.97 409.909 186.208 409.488 186.63C409.066 187.052 408.829 187.624 408.828 188.221V191.33H405.719C405.123 191.331 404.552 191.57 404.13 191.992C403.709 192.414 403.472 192.986 403.472 193.582V196.419C403.472 197.016 403.71 197.588 404.132 198.01C404.554 198.433 405.126 198.67 405.723 198.671H408.832V201.78C408.833 202.377 409.07 202.949 409.492 203.371C409.914 203.793 410.486 204.031 411.082 204.032H413.91C414.508 204.033 415.082 203.796 415.505 203.374C415.929 202.951 416.167 202.378 416.168 201.78V198.671H419.276C419.873 198.67 420.445 198.432 420.867 198.01C421.288 197.588 421.526 197.016 421.526 196.419V193.582C421.526 192.985 421.288 192.413 420.867 191.991C420.445 191.569 419.873 191.331 419.276 191.33ZM419.493 196.419H419.493C419.493 196.539 419.396 196.636 419.276 196.637H415.151C414.589 196.637 414.134 197.092 414.134 197.654V201.78C414.133 201.9 414.036 201.997 413.916 201.998H411.078C410.958 201.997 410.862 201.9 410.862 201.78V197.654C410.862 197.092 410.406 196.637 409.845 196.637H405.719C405.599 196.637 405.501 196.539 405.501 196.419V193.582C405.501 193.461 405.599 193.364 405.719 193.364H409.843C410.405 193.364 410.86 192.908 410.86 192.347V188.221C410.86 188.163 410.883 188.108 410.924 188.067C410.964 188.026 411.019 188.004 411.077 188.004H413.91C414.03 188.004 414.128 188.1 414.129 188.221V192.347C414.129 192.908 414.584 193.364 415.145 193.364H419.271C419.391 193.364 419.488 193.462 419.488 193.582L419.493 196.419Z" fill="url(#paint29_linear_58155_36208)"/>
<path d="M412.498 180.502C410.111 180.503 407.763 181.094 405.66 182.221C403.556 183.348 401.764 184.977 400.441 186.963H393.982V179.235C393.981 178.111 393.535 177.033 392.74 176.239C391.945 175.445 390.867 174.999 389.744 175H388.017C387.455 175 387 175.455 387 176.017C387 176.579 387.455 177.034 388.017 177.034H389.744C390.328 177.033 390.888 177.264 391.302 177.676C391.715 178.088 391.948 178.648 391.948 179.232V187.949C391.948 187.958 391.948 187.967 391.948 187.976V202.021C391.948 202.029 391.948 202.038 391.948 202.046V213.983C391.948 214.545 392.403 215 392.965 215C393.527 215 393.982 214.545 393.982 213.983V203.038H400.45C402.31 205.829 405.081 207.888 408.29 208.864C411.498 209.841 414.946 209.674 418.046 208.392C421.145 207.11 423.704 204.793 425.286 201.835C426.868 198.877 427.376 195.462 426.722 192.172C426.068 188.882 424.294 185.92 421.701 183.792C419.109 181.664 415.858 180.501 412.504 180.502L412.498 180.502ZM393.982 201.004V188.997H399.319C398.451 190.879 398.001 192.928 398.001 195.001C398.001 197.074 398.451 199.122 399.319 201.004L393.982 201.004ZM412.504 207.464L412.504 207.464C409.199 207.466 406.028 206.154 403.689 203.818C401.351 201.481 400.037 198.311 400.036 195.005C400.034 191.699 401.346 188.528 403.683 186.189C406.02 183.851 409.189 182.537 412.495 182.537C415.8 182.536 418.97 183.849 421.308 186.186C423.645 188.524 424.959 191.694 424.959 195C424.956 198.305 423.642 201.473 421.305 203.81C418.969 206.146 415.801 207.461 412.497 207.463L412.504 207.464Z" fill="url(#paint30_linear_58155_36208)"/>
<path d="M143.774 255.323H136.032V251.596L134.165 251.12C134.153 251.088 134.139 251.056 134.126 251.025L135.108 249.369L131.663 245.924L130.007 246.906C129.975 246.893 129.944 246.88 129.913 246.867L129.436 245H124.563L124.086 246.866C124.055 246.879 124.023 246.892 123.992 246.906L122.336 245.923L118.891 249.368L119.873 251.024C119.859 251.056 119.846 251.088 119.833 251.119L117.967 251.596V255.323H110.226C108.447 255.323 107 256.77 107 258.548V277.903C107 279.682 108.447 281.129 110.226 281.129H118.613V283.71H116.032V285H137.967V283.71H135.387V281.129H143.774C145.553 281.129 147 279.682 147 277.903L147 258.548C147 256.77 145.553 255.323 143.774 255.323L143.774 255.323ZM119.258 252.598L120.811 252.202L120.926 251.877C121 251.667 121.086 251.462 121.181 251.263L121.33 250.952L120.511 249.572L122.54 247.544L123.919 248.362L124.229 248.213C124.43 248.118 124.634 248.033 124.845 247.958L125.169 247.843L125.565 246.291H128.434L128.83 247.843L129.154 247.958C129.365 248.033 129.57 248.118 129.77 248.213L130.08 248.362L131.459 247.544L133.488 249.572L132.669 250.952L132.818 251.263C132.913 251.462 132.999 251.667 133.073 251.877L133.188 252.202L134.741 252.598V255.467L133.187 255.863L133.072 256.188C132.999 256.398 132.913 256.603 132.818 256.802L132.669 257.113L133.488 258.493L131.459 260.521L130.08 259.703L129.77 259.852C129.569 259.947 129.364 260.032 129.154 260.107L128.829 260.222L128.434 261.774H125.565L125.169 260.222L124.845 260.107C124.634 260.032 124.429 259.947 124.229 259.852L123.919 259.703L122.54 260.521L120.511 258.493L121.33 257.113L121.181 256.802C121.086 256.603 121.001 256.398 120.926 256.188L120.811 255.863L119.258 255.467L119.258 252.598ZM131.516 270.807V273.387H129.372L128.351 270.836L129.063 269.412L130.484 270.549L132.318 266.271L134.112 266.924C134.875 267.202 135.387 267.932 135.387 268.743V273.387H132.806V270.807L131.516 270.807ZM121.193 270.807V273.387H118.613V268.743C118.613 267.932 119.125 267.202 119.887 266.925L121.682 266.272L123.515 270.55L124.937 269.413L125.648 270.836L124.628 273.387H122.484V270.807L121.193 270.807ZM128.29 264.14L127 265.86L125.71 264.14L125.71 263.065H128.29L128.29 264.14ZM127.246 270.162H126.754L125.967 268.589L127 267.762L128.033 268.589L127.246 270.162ZM124.835 265.125L126.108 266.823L124.033 268.483L122.896 265.83L124.835 265.125ZM126.792 271.452H127.208L127.982 273.387H126.018L126.792 271.452ZM129.967 268.483L127.892 266.823L129.165 265.125L131.104 265.83L129.967 268.483ZM110.226 256.613H118.531L119.833 256.945C119.846 256.977 119.859 257.008 119.873 257.039L118.891 258.695L122.336 262.141L123.992 261.159C124.023 261.172 124.055 261.185 124.086 261.198L124.43 262.546H124.419V263.903L119.446 265.712C118.175 266.173 117.322 267.391 117.322 268.743V274.677H136.677V268.743C136.677 267.391 135.824 266.173 134.554 265.711L129.58 263.903V262.546H129.569L129.913 261.198C129.945 261.185 129.976 261.172 130.007 261.159L131.663 262.141L135.108 258.695L134.127 257.039C134.14 257.008 134.153 256.976 134.166 256.945L135.468 256.613H143.773C144.84 256.613 145.709 257.482 145.709 258.549V275.968H108.29V258.548C108.29 257.481 109.158 256.612 110.225 256.612L110.226 256.613ZM134.097 283.71H119.904V281.129H134.097V283.71ZM143.774 279.838H110.226C109.159 279.838 108.29 278.97 108.29 277.903V277.258H145.709V277.903C145.71 278.97 144.841 279.838 143.774 279.838Z" fill="url(#paint31_linear_58155_36208)"/>
<path d="M127 259.194C129.846 259.194 132.161 256.878 132.161 254.032C132.161 251.186 129.846 248.871 127 248.871C124.154 248.871 121.839 251.186 121.839 254.032C121.839 256.878 124.154 259.194 127 259.194ZM127 250.161C129.135 250.161 130.871 251.897 130.871 254.032C130.871 256.167 129.135 257.903 127 257.903C124.865 257.903 123.129 256.167 123.129 254.032C123.129 251.897 124.865 250.161 127 250.161Z" fill="url(#paint32_linear_58155_36208)"/>
<path d="M127 256.613C128.423 256.613 129.581 255.455 129.581 254.032C129.581 252.609 128.423 251.451 127 251.451C125.577 251.451 124.419 252.609 124.419 254.032C124.419 255.455 125.577 256.613 127 256.613ZM127 252.742C127.712 252.742 128.29 253.32 128.29 254.032C128.29 254.743 127.711 255.322 127 255.322C126.288 255.322 125.71 254.743 125.71 254.032C125.71 253.32 126.288 252.742 127 252.742Z" fill="url(#paint33_linear_58155_36208)"/>
<path d="M109.581 273.388H116.032V274.678H109.581V273.388Z" fill="url(#paint34_linear_58155_36208)"/>
<path d="M109.581 270.807H116.032V272.097H109.581V270.807Z" fill="url(#paint35_linear_58155_36208)"/>
<path d="M109.581 268.226H116.032V269.516H109.581V268.226Z" fill="url(#paint36_linear_58155_36208)"/>
<path d="M137.967 257.904H144.418V259.194H137.967V257.904Z" fill="url(#paint37_linear_58155_36208)"/>
<path d="M137.967 260.484H144.418V261.774H137.967V260.484Z" fill="url(#paint38_linear_58155_36208)"/>
<path d="M137.967 263.064H144.418V264.355H137.967V263.064Z" fill="url(#paint39_linear_58155_36208)"/>
<path d="M137.967 265.645H144.418V266.935H137.967V265.645Z" fill="url(#paint40_linear_58155_36208)"/>
<path d="M109.581 265.645H116.032V266.935H109.581V265.645Z" fill="url(#paint41_linear_58155_36208)"/>
<path d="M195.264 274.803H198.738C199.26 274.803 199.684 274.379 199.684 273.857C199.684 273.335 199.26 272.911 198.738 272.911H195.264C194.741 272.911 194.317 273.335 194.317 273.857C194.317 274.38 194.741 274.803 195.264 274.803Z" fill="url(#paint42_linear_58155_36208)"/>
<path d="M179.14 246C177.778 246 176.67 247.108 176.67 248.47V275.418C176.67 276.78 177.778 277.888 179.14 277.888H192.963L191.145 283.107H188.366C187.844 283.107 187.42 283.531 187.42 284.054C187.42 284.576 187.844 285 188.366 285H205.635C206.157 285 206.581 284.576 206.581 284.054C206.581 283.531 206.157 283.107 205.635 283.107H202.856L201.038 277.888H214.861C216.223 277.888 217.331 276.78 217.331 275.418L217.331 248.47C217.331 247.108 216.224 246 214.862 246H179.14ZM193.148 283.107L194.967 277.888H199.034L200.853 283.107H193.148ZM215.439 275.418C215.439 275.737 215.18 275.996 214.861 275.996L179.141 275.996C178.827 275.996 178.563 275.731 178.563 275.418V271.932H215.439L215.439 275.418ZM215.439 270.041H178.562V248.47C178.562 248.157 178.827 247.892 179.14 247.892H214.862C215.175 247.892 215.439 248.157 215.439 248.47L215.439 270.041Z" fill="url(#paint43_linear_58155_36208)"/>
<path d="M205.524 260.618L203.872 259.664C203.896 259.427 203.908 259.19 203.908 258.953C203.908 258.713 203.896 258.474 203.872 258.239L205.524 257.285C205.977 257.024 206.131 256.446 205.87 255.993L203.998 252.75C203.872 252.533 203.666 252.374 203.423 252.309C203.182 252.244 202.922 252.278 202.705 252.404L201.055 253.356C200.668 253.074 200.255 252.835 199.818 252.641V250.737C199.818 250.214 199.394 249.79 198.872 249.79H195.128C194.606 249.79 194.182 250.214 194.182 250.737V252.641C193.745 252.835 193.332 253.074 192.945 253.357L191.295 252.404C191.077 252.278 190.818 252.243 190.576 252.309C190.334 252.374 190.127 252.532 190.002 252.75L188.13 255.993C188.004 256.21 187.97 256.468 188.035 256.711C188.1 256.953 188.259 257.16 188.476 257.285L190.129 258.239C190.104 258.475 190.092 258.713 190.092 258.954C190.092 259.19 190.104 259.429 190.128 259.665L188.476 260.619C188.259 260.744 188.101 260.951 188.035 261.193C187.97 261.435 188.004 261.694 188.13 261.911L190.002 265.154C190.263 265.606 190.842 265.762 191.295 265.5L192.945 264.547C193.332 264.829 193.745 265.068 194.182 265.263V267.168C194.182 267.69 194.606 268.114 195.128 268.114H198.873C199.395 268.114 199.819 267.69 199.819 267.168V265.264C200.256 265.069 200.669 264.83 201.056 264.547L202.706 265.5C202.924 265.626 203.183 265.659 203.424 265.595C203.667 265.53 203.873 265.371 203.999 265.154L205.871 261.911C206.132 261.458 205.977 260.879 205.524 260.618ZM201.912 257.939C201.981 258.264 202.016 258.605 202.016 258.953C202.016 259.295 201.982 259.638 201.914 259.972C201.913 259.978 201.911 259.985 201.91 259.992C201.867 260.228 201.913 260.478 202.054 260.688C202.144 260.824 202.266 260.93 202.404 261.002L203.758 261.784L202.833 263.388L201.44 262.584C201.112 262.395 200.701 262.421 200.398 262.648C200.376 262.665 200.355 262.682 200.334 262.7C199.838 263.144 199.268 263.479 198.641 263.695C198.23 263.798 197.926 264.17 197.926 264.613V266.221H196.074V264.613C196.074 264.17 195.77 263.798 195.36 263.695C194.732 263.479 194.163 263.144 193.667 262.7C193.646 262.681 193.623 262.662 193.601 262.646C193.298 262.419 192.888 262.394 192.561 262.584L191.168 263.387L190.242 261.783L191.635 260.979C192.016 260.758 192.187 260.311 192.073 259.906C192.014 259.592 191.984 259.271 191.984 258.952C191.984 258.604 192.019 258.263 192.089 257.938C192.148 257.659 192.078 257.368 191.898 257.146C191.819 257.049 191.723 256.969 191.615 256.911L190.242 256.118L191.168 254.513L192.532 255.301C192.885 255.523 193.351 255.489 193.67 255.202C194.181 254.74 194.77 254.4 195.42 254.188C195.811 254.062 196.075 253.699 196.075 253.289V251.68H197.927V253.289C197.927 253.699 198.191 254.062 198.581 254.188C199.231 254.399 199.82 254.74 200.332 255.202C200.648 255.488 201.109 255.519 201.458 255.307L202.833 254.513L203.759 256.117L202.406 256.899C202.29 256.958 202.186 257.042 202.102 257.145C201.922 257.369 201.852 257.66 201.912 257.939L201.912 257.939Z" fill="url(#paint44_linear_58155_36208)"/>
<path d="M197 255.579C195.14 255.579 193.627 257.093 193.627 258.952C193.627 260.812 195.14 262.325 197 262.325C198.86 262.325 200.373 260.812 200.373 258.952C200.373 257.092 198.86 255.579 197 255.579ZM197 260.433C196.183 260.433 195.519 259.769 195.519 258.952C195.519 258.136 196.183 257.471 197 257.471C197.816 257.471 198.48 258.136 198.48 258.952C198.48 259.768 197.816 260.433 197 260.433Z" fill="url(#paint45_linear_58155_36208)"/>
<path d="M265.048 279.82C265.039 281.137 264.367 282.36 263.26 283.074C262.153 283.788 260.762 283.896 259.558 283.362C258.355 282.828 257.501 281.723 257.288 280.423C258.418 280.289 259.484 279.828 260.356 279.097L259.515 278.101C258.301 279.125 256.64 279.442 255.134 278.937C253.628 278.432 252.494 277.179 252.142 275.63C251.789 274.082 252.269 272.461 253.408 271.354C254.802 271.334 256.144 270.819 257.194 269.902L256.338 268.921C255.506 269.65 254.438 270.053 253.332 270.056C253.278 270.057 253.224 270.055 253.171 270.05C251.61 269.996 250.186 269.146 249.399 267.798C248.611 266.449 248.57 264.791 249.289 263.406C250.009 262.019 251.389 261.1 252.945 260.968C253.978 261.795 255.263 262.245 256.586 262.245V260.943C255.51 260.943 254.469 260.562 253.647 259.868C252.825 259.173 252.275 258.211 252.096 257.15C251.915 256.089 252.116 254.999 252.663 254.072C253.209 253.145 254.066 252.442 255.082 252.086C256.097 251.731 257.206 251.746 258.211 252.129C259.216 252.513 260.053 253.239 260.574 254.181L261.713 253.55C260.8 251.906 259.154 250.8 257.287 250.576C257.496 249.273 258.349 248.164 259.555 247.627C260.76 247.091 262.155 247.199 263.263 247.916C264.371 248.632 265.043 249.86 265.048 251.179V256.387H266.35V251.179C266.341 249.399 265.422 247.747 263.916 246.8C262.409 245.852 260.522 245.739 258.913 246.502C257.305 247.263 256.197 248.794 255.976 250.561C254.604 250.702 253.327 251.323 252.369 252.315C251.411 253.306 250.835 254.605 250.741 255.98C250.648 257.356 251.044 258.72 251.859 259.832C250.173 260.269 248.769 261.433 248.028 263.01C247.287 264.586 247.285 266.41 248.023 267.987C248.762 269.564 250.164 270.731 251.849 271.171C251.038 272.285 250.646 273.649 250.742 275.023C250.838 276.397 251.415 277.694 252.373 278.684C253.33 279.675 254.606 280.296 255.976 280.439C256.197 282.205 257.305 283.736 258.914 284.499C260.522 285.26 262.409 285.148 263.916 284.2C265.423 283.252 266.341 281.6 266.35 279.82V277.216H265.048L265.048 279.82Z" fill="url(#paint46_linear_58155_36208)"/>
<path d="M286.529 265.5C286.535 264.202 286.106 262.938 285.311 261.911C284.517 260.884 283.402 260.153 282.143 259.832C282.958 258.72 283.354 257.356 283.261 255.981C283.167 254.605 282.591 253.307 281.633 252.315C280.675 251.324 279.398 250.702 278.027 250.561C277.806 248.795 276.697 247.264 275.089 246.502C273.48 245.74 271.593 245.852 270.087 246.8C268.58 247.748 267.662 249.399 267.652 251.179V256.387H268.954V251.179C268.962 249.862 269.634 248.637 270.741 247.922C271.848 247.208 273.241 247.099 274.445 247.634C275.649 248.169 276.503 249.276 276.714 250.576C274.847 250.801 273.201 251.907 272.288 253.55L273.426 254.182C273.947 253.24 274.784 252.513 275.789 252.13C276.795 251.746 277.903 251.731 278.919 252.086C279.934 252.442 280.791 253.145 281.338 254.072C281.885 254.998 282.086 256.088 281.906 257.149C281.726 258.21 281.177 259.173 280.354 259.867C279.533 260.562 278.492 260.943 277.416 260.943V262.245C278.739 262.245 280.024 261.795 281.057 260.968C282.627 261.09 284.023 262.015 284.747 263.414C285.471 264.812 285.42 266.486 284.613 267.838C283.806 269.191 282.357 270.029 280.782 270.056C280.745 270.058 280.708 270.058 280.671 270.056C279.563 270.054 278.495 269.651 277.662 268.921L276.805 269.902C277.855 270.819 279.197 271.334 280.591 271.354C281.694 272.469 282.146 274.072 281.788 275.599C281.431 277.125 280.313 278.361 278.83 278.869C277.346 279.378 275.706 279.088 274.487 278.102L273.648 279.098C274.52 279.828 275.586 280.289 276.716 280.423C276.508 281.727 275.655 282.838 274.449 283.375C273.243 283.913 271.847 283.804 270.738 283.087C269.629 282.37 268.958 281.141 268.954 279.82V277.216H267.652V279.82C267.662 281.6 268.58 283.252 270.086 284.2C271.593 285.148 273.48 285.261 275.089 284.499C276.698 283.736 277.805 282.205 278.027 280.439C279.397 280.296 280.674 279.674 281.631 278.683C282.589 277.691 283.166 276.394 283.26 275.019C283.355 273.644 282.962 272.28 282.149 271.166C283.406 270.845 284.52 270.112 285.313 269.086C286.107 268.059 286.534 266.797 286.529 265.5L286.529 265.5Z" fill="url(#paint47_linear_58155_36208)"/>
<path d="M274.365 261.279L272.524 259.438C272.295 259.209 271.932 259.183 271.673 259.377L270.263 260.434C269.92 260.259 269.563 260.111 269.196 259.993L268.947 258.247C268.901 257.927 268.627 257.689 268.303 257.689H265.699C265.375 257.689 265.1 257.927 265.055 258.247L264.805 259.993C264.438 260.111 264.082 260.259 263.738 260.434L262.328 259.377C262.069 259.183 261.707 259.209 261.478 259.438L259.637 261.279C259.408 261.508 259.382 261.87 259.576 262.13L260.634 263.539C260.458 263.882 260.31 264.239 260.192 264.606L258.446 264.856C258.126 264.901 257.888 265.176 257.888 265.5V268.104C257.888 268.427 258.126 268.702 258.446 268.748L260.192 268.997V268.997C260.31 269.364 260.458 269.721 260.634 270.064L259.576 271.474C259.382 271.733 259.408 272.096 259.637 272.325L261.478 274.165C261.707 274.395 262.069 274.42 262.328 274.226L263.738 273.169C264.082 273.345 264.438 273.492 264.805 273.61L265.055 275.356C265.1 275.677 265.375 275.915 265.699 275.914H268.303C268.627 275.915 268.901 275.677 268.947 275.356L269.196 273.61C269.563 273.492 269.92 273.345 270.263 273.169L271.673 274.226C271.932 274.42 272.295 274.395 272.524 274.165L274.365 272.325C274.594 272.096 274.619 271.733 274.425 271.474L273.368 270.064H273.368C273.544 269.721 273.691 269.364 273.809 268.997L275.555 268.748V268.748C275.876 268.702 276.114 268.427 276.114 268.104V265.5C276.114 265.176 275.876 264.901 275.555 264.856L273.809 264.606C273.691 264.239 273.544 263.882 273.368 263.539L274.425 262.13H274.425C274.619 261.87 274.594 261.508 274.365 261.279ZM274.812 266.064V267.539L273.208 267.768H273.209C272.948 267.806 272.735 267.997 272.669 268.252C272.533 268.791 272.319 269.308 272.035 269.786C271.9 270.012 271.916 270.298 272.074 270.509L273.045 271.804L272.004 272.845L270.711 271.875C270.5 271.717 270.214 271.701 269.988 271.836C269.51 272.12 268.993 272.334 268.454 272.471C268.199 272.536 268.008 272.749 267.97 273.01L267.738 274.613H266.263L266.034 273.01C265.997 272.749 265.806 272.536 265.551 272.471C265.011 272.334 264.495 272.12 264.017 271.836C263.79 271.701 263.505 271.717 263.294 271.875L261.998 272.846L260.957 271.805L261.928 270.51L261.928 270.509C262.086 270.299 262.102 270.013 261.967 269.786C261.683 269.308 261.469 268.792 261.332 268.253C261.267 267.997 261.054 267.806 260.793 267.769L259.19 267.539V266.064L260.793 265.835L260.793 265.835C261.054 265.798 261.267 265.607 261.332 265.351C261.468 264.812 261.682 264.296 261.966 263.818C262.101 263.591 262.086 263.306 261.927 263.095L260.956 261.799L261.997 260.758L263.293 261.729L263.293 261.729C263.504 261.887 263.789 261.903 264.016 261.768C264.494 261.484 265.011 261.27 265.55 261.133C265.805 261.068 265.996 260.856 266.033 260.595L266.263 258.991H267.738L267.967 260.594C268.004 260.855 268.196 261.068 268.451 261.133C268.99 261.27 269.506 261.484 269.984 261.768C270.211 261.902 270.497 261.887 270.708 261.728L272.003 260.757L273.044 261.799L272.073 263.094L272.073 263.094C271.915 263.305 271.9 263.591 272.034 263.817C272.318 264.295 272.532 264.812 272.669 265.351C272.734 265.606 272.947 265.797 273.208 265.834L274.812 266.064Z" fill="url(#paint48_linear_58155_36208)"/>
<path d="M267.001 262.896C265.965 262.896 264.972 263.308 264.24 264.04C263.507 264.772 263.096 265.766 263.096 266.801C263.096 267.837 263.507 268.831 264.24 269.563C264.972 270.296 265.965 270.707 267.001 270.707C268.037 270.707 269.03 270.296 269.763 269.563C270.495 268.831 270.907 267.837 270.907 266.801C270.906 265.766 270.494 264.773 269.762 264.041C269.029 263.309 268.036 262.897 267.001 262.896L267.001 262.896ZM267.001 269.405C266.311 269.405 265.648 269.131 265.16 268.643C264.672 268.154 264.398 267.492 264.398 266.801C264.398 266.111 264.672 265.449 265.16 264.96C265.648 264.472 266.311 264.198 267.001 264.198C267.692 264.198 268.354 264.472 268.842 264.96C269.33 265.449 269.605 266.111 269.605 266.801C269.605 267.492 269.33 268.154 268.842 268.643C268.354 269.131 267.692 269.405 267.001 269.405Z" fill="url(#paint49_linear_58155_36208)"/>
<path d="M266.35 260.292H267.651V261.594H266.35V260.292Z" fill="url(#paint50_linear_58155_36208)"/>
<path d="M261.938 262.66L262.859 261.739L263.779 262.66L262.859 263.58L261.938 262.66Z" fill="url(#paint51_linear_58155_36208)"/>
<path d="M260.492 266.151H261.794V267.452H260.492V266.151Z" fill="url(#paint52_linear_58155_36208)"/>
<path d="M261.938 270.944L262.859 270.024L263.779 270.944L262.859 271.865L261.938 270.944Z" fill="url(#paint53_linear_58155_36208)"/>
<path d="M266.35 272.009H267.651V273.311H266.35V272.009Z" fill="url(#paint54_linear_58155_36208)"/>
<path d="M270.223 270.944L271.143 270.024L272.064 270.944L271.143 271.865L270.223 270.944Z" fill="url(#paint55_linear_58155_36208)"/>
<path d="M272.209 266.151H273.511V267.452H272.209V266.151Z" fill="url(#paint56_linear_58155_36208)"/>
<path d="M270.223 262.659L271.143 261.738L272.064 262.659L271.143 263.579L270.223 262.659Z" fill="url(#paint57_linear_58155_36208)"/>
<path d="M335.166 250.333C335.166 250.822 334.766 251.222 334.277 251.222C333.788 251.222 333.388 250.822 333.388 250.333C333.388 249.844 333.788 249.444 334.277 249.444C334.766 249.444 335.166 249.844 335.166 250.333ZM338.722 249.444C338.233 249.444 337.833 249.844 337.833 250.333C337.833 250.822 338.233 251.222 338.722 251.222C339.211 251.222 339.611 250.822 339.611 250.333C339.611 249.844 339.211 249.444 338.722 249.444ZM355.61 266.778V268.111C355.61 268.6 355.21 269 354.721 269C354.232 269 353.832 268.6 353.832 268.111V266.778C353.832 266.022 353.254 265.445 352.499 265.445C351.743 265.445 351.166 266.022 351.166 266.778V268.111C351.166 268.6 350.766 269 350.277 269C349.788 269 349.388 268.6 349.388 268.111V266.778C349.388 265.356 350.321 264.2 351.61 263.8V259.978C350.633 259.667 349.832 258.867 349.521 257.889H346.722V266.333C346.722 267.8 345.522 269 344.055 269V276.556C344.055 278.022 342.855 279.222 341.388 279.222H339.611V281.889C339.611 283.622 338.233 285 336.5 285C334.766 285 333.389 283.622 333.389 281.889V279.222H331.611C330.144 279.222 328.944 278.022 328.944 276.556L328.944 269C327.478 269 326.278 267.8 326.278 266.333V257.889H323.478C323.167 258.867 322.367 259.667 321.389 259.978V263.8C322.678 264.2 323.611 265.356 323.611 266.778V268.111C323.611 268.6 323.211 269 322.722 269C322.233 269 321.833 268.6 321.833 268.111V266.778C321.833 266.022 321.255 265.445 320.5 265.445C319.744 265.445 319.167 266.022 319.167 266.778V268.111C319.167 268.6 318.767 269 318.278 269C317.789 269 317.389 268.6 317.389 268.111V266.778C317.389 265.356 318.322 264.2 319.611 263.8V259.978C318.322 259.578 317.389 258.422 317.389 257C317.389 255.267 318.766 253.889 320.5 253.889C321.922 253.889 323.078 254.823 323.477 256.112H326.322C326.544 254.867 327.61 253.889 328.944 253.889L328.945 247.667C328.945 246.2 330.145 245 331.611 245H341.389C342.856 245 344.056 246.2 344.056 247.667V253.889C345.389 253.889 346.456 254.867 346.678 256.111H349.522C349.923 254.823 351.122 253.889 352.5 253.889C354.233 253.889 355.611 255.267 355.611 257C355.611 258.422 354.678 259.578 353.389 259.978V263.8C354.677 264.2 355.611 265.355 355.611 266.778H355.61ZM321.834 257C321.834 256.244 321.256 255.667 320.5 255.667C319.745 255.667 319.167 256.245 319.167 257C319.167 257.711 319.745 258.333 320.5 258.333C321.256 258.333 321.834 257.711 321.834 257ZM330.722 253.889H342.278L342.277 247.667C342.277 247.178 341.877 246.778 341.388 246.778L331.61 246.778C331.121 246.778 330.721 247.178 330.721 247.667L330.722 253.889ZM337.833 274.778C337.833 274.022 337.255 273.444 336.5 273.444C335.744 273.444 335.167 274.022 335.167 274.778V281.888C335.167 282.6 335.745 283.222 336.5 283.222C337.256 283.222 337.833 282.599 337.833 281.888V274.778ZM342.277 269H330.722V276.555C330.722 277.044 331.122 277.444 331.611 277.444H333.389V274.778C333.389 273.044 334.766 271.667 336.5 271.667C338.233 271.667 339.611 273.044 339.611 274.778V277.444H341.389C341.878 277.444 342.278 277.044 342.278 276.555L342.277 269ZM344.944 256.555C344.944 256.066 344.544 255.666 344.055 255.666L328.945 255.667C328.456 255.667 328.056 256.067 328.056 256.556V266.333C328.056 266.822 328.456 267.222 328.945 267.222H344.056C344.545 267.222 344.945 266.822 344.945 266.333L344.944 256.555ZM352.5 258.333C353.255 258.333 353.833 257.711 353.833 257C353.833 256.244 353.255 255.667 352.5 255.667C351.744 255.667 351.166 256.244 351.166 257C351.166 257.711 351.744 258.333 352.5 258.333ZM342.277 261.444C342.277 261.933 341.877 262.333 341.388 262.333H339.477C339.077 263.622 337.877 264.556 336.499 264.556C335.122 264.556 333.922 263.622 333.522 262.333L331.611 262.333C331.122 262.333 330.722 261.933 330.722 261.444C330.722 260.955 331.122 260.555 331.611 260.555H333.522C333.922 259.266 335.122 258.333 336.499 258.333C337.877 258.333 339.077 259.266 339.477 260.555L341.389 260.555C341.878 260.555 342.277 260.955 342.277 261.444ZM337.833 261.444C337.833 260.689 337.255 260.111 336.5 260.111C335.744 260.111 335.167 260.689 335.167 261.444C335.167 262.156 335.745 262.778 336.5 262.778C337.255 262.778 337.833 262.155 337.833 261.444Z" fill="url(#paint58_linear_58155_36208)"/>
<path fill-rule="evenodd" clip-rule="evenodd" d="M391.008 245C388.815 245 387 246.802 387 248.995V280.994C387 283.187 388.815 284.999 391.008 284.999H393.674C395.493 285.04 395.493 282.292 393.674 282.333H391.008C390.246 282.333 389.667 281.756 389.667 280.994V258.328H424.344V280.994C424.344 281.756 423.767 282.333 423.005 282.333L404.343 282.333C402.525 282.292 402.525 285.04 404.343 285L423.005 284.999C425.198 284.999 427 283.187 427 280.994V248.995C427 246.802 425.198 245 423.005 245H391.008ZM391.008 247.656L423.004 247.656C423.766 247.656 424.343 248.233 424.343 248.995L424.343 255.661H389.666V248.995C389.666 248.233 390.246 247.656 391.007 247.656L391.008 247.656ZM409.666 250.323C407.887 250.323 407.887 252.992 409.666 252.992H420.335C422.114 252.992 422.114 250.323 420.335 250.323H409.666ZM393.671 250.328C392.935 250.328 392.338 250.925 392.338 251.661C392.338 252.398 392.935 252.994 393.671 252.994C394.408 252.994 395.004 252.398 395.004 251.661C395.004 250.925 394.408 250.328 393.671 250.328ZM399.005 250.328C398.268 250.328 397.671 250.925 397.671 251.661C397.671 252.398 398.268 252.994 399.005 252.994C399.741 252.994 400.338 252.398 400.338 251.661C400.338 250.925 399.741 250.328 399.005 250.328ZM404.338 250.328C403.602 250.328 403.005 250.925 403.005 251.661C403.005 252.397 403.602 252.994 404.338 252.994C405.074 252.994 405.671 252.397 405.671 251.661C405.671 250.925 405.074 250.328 404.338 250.328ZM409.614 263.64C409.124 263.665 408.687 263.956 408.476 264.398L403.143 275.067C402.377 276.651 404.728 277.824 405.533 276.26L410.869 265.591C411.322 264.726 410.722 263.684 409.747 263.641C409.703 263.638 409.658 263.638 409.614 263.641L409.614 263.64ZM415.002 263.646C414.959 263.645 414.917 263.647 414.874 263.651C413.745 263.763 413.263 265.145 414.077 265.935L418.465 270.323L414.077 274.713C412.765 275.966 414.697 277.909 415.958 276.604L421.291 271.268C421.808 270.748 421.808 269.908 421.291 269.388L415.958 264.054C415.708 263.794 415.363 263.647 415.002 263.645V263.646ZM398.978 263.651C398.632 263.661 398.303 263.806 398.062 264.055L392.728 269.388C392.211 269.908 392.211 270.748 392.728 271.268L398.062 276.604C399.322 277.909 401.253 275.966 399.942 274.713L395.554 270.325L399.942 265.935C400.803 265.088 400.185 263.625 398.978 263.651V263.651ZM399.004 282.328C398.268 282.328 397.671 282.925 397.671 283.661C397.671 284.397 398.268 284.994 399.004 284.994C399.741 284.994 400.337 284.397 400.337 283.661C400.337 282.924 399.74 282.328 399.004 282.328Z" fill="url(#paint59_linear_58155_36208)"/>
<path d="M116.064 321.066C116.064 321.476 115.817 321.846 115.438 322.002C115.059 322.16 114.623 322.073 114.334 321.783C114.044 321.493 113.957 321.057 114.114 320.679C114.271 320.3 114.64 320.053 115.05 320.053C115.319 320.053 115.577 320.16 115.767 320.35C115.957 320.54 116.064 320.798 116.064 321.066ZM131.263 322.08H140.383C140.943 322.08 141.397 321.626 141.397 321.066C141.397 320.507 140.943 320.053 140.383 320.053H131.263C130.703 320.053 130.25 320.507 130.25 321.066C130.25 321.626 130.703 322.08 131.263 322.08ZM112.01 320.053C111.6 320.053 111.23 320.3 111.074 320.679C110.917 321.057 111.003 321.493 111.293 321.783C111.583 322.073 112.019 322.16 112.397 322.002C112.776 321.846 113.023 321.476 113.023 321.066C113.023 320.798 112.916 320.54 112.726 320.35C112.536 320.16 112.278 320.053 112.01 320.053ZM118.09 320.053C117.68 320.053 117.31 320.3 117.154 320.679C116.997 321.057 117.083 321.493 117.373 321.783C117.663 322.073 118.099 322.16 118.477 322.002C118.856 321.846 119.103 321.476 119.103 321.066C119.103 320.798 118.996 320.54 118.806 320.35C118.616 320.16 118.358 320.053 118.09 320.053ZM146.463 337.701L145.449 338.714L145.45 338.714C145.452 338.743 145.452 338.772 145.45 338.8V346.4C145.45 347.206 145.129 347.98 144.559 348.55C143.989 349.12 143.216 349.44 142.409 349.44H134.723L130.457 353.701C130.268 353.892 130.011 353.999 129.743 354H126.196C125.636 354 125.183 353.546 125.183 352.987V349.44H109.983C109.177 349.44 108.404 349.12 107.834 348.55C107.264 347.98 106.943 347.206 106.943 346.4V319.04C106.943 318.234 107.264 317.461 107.834 316.89C108.404 316.32 109.177 316 109.983 316H142.41C143.217 316 143.99 316.32 144.56 316.89C145.13 317.461 145.45 318.234 145.45 319.04V333.734C145.452 333.761 145.452 333.788 145.45 333.815L146.464 334.828H146.463C146.844 335.208 147.058 335.724 147.058 336.262C147.058 336.8 146.844 337.316 146.463 337.696L146.463 337.701ZM142.237 339.059L140.099 336.966L136.045 341.019H136.046C135.643 341.364 135.044 341.34 134.67 340.966C134.295 340.592 134.272 339.993 134.617 339.591L141.482 332.72C141.994 332.221 142.732 332.028 143.423 332.214V326.134H131.263C130.703 326.134 130.25 325.68 130.25 325.12C130.25 324.561 130.703 324.107 131.263 324.107H143.423V319.04C143.423 318.771 143.316 318.514 143.126 318.324C142.936 318.134 142.678 318.027 142.409 318.027H109.982C109.423 318.027 108.969 318.481 108.969 319.04V324.107H125.183C125.742 324.107 126.196 324.561 126.196 325.12C126.196 325.68 125.742 326.134 125.183 326.134H108.969V346.4C108.969 346.669 109.076 346.926 109.266 347.116C109.456 347.306 109.714 347.413 109.982 347.413H126.783L130.548 343.648V343.649C130.95 343.304 131.549 343.327 131.924 343.702C132.298 344.076 132.321 344.675 131.977 345.077L127.209 349.86V351.973H129.322L142.237 339.059ZM143.423 340.741L136.75 347.413H142.409C142.678 347.413 142.936 347.307 143.126 347.117C143.316 346.927 143.423 346.669 143.423 346.4L143.423 340.741ZM145.029 336.267L142.916 334.154L141.533 335.537L143.671 337.625L145.029 336.267ZM133.29 341.333C132.879 341.333 132.51 341.58 132.353 341.959C132.196 342.338 132.283 342.774 132.573 343.063C132.863 343.353 133.299 343.44 133.677 343.283C134.056 343.126 134.303 342.757 134.303 342.347C134.303 342.078 134.196 341.82 134.006 341.63C133.816 341.44 133.558 341.333 133.29 341.333ZM128.223 324.107C127.813 324.107 127.443 324.354 127.287 324.733C127.13 325.111 127.216 325.547 127.506 325.837C127.796 326.127 128.232 326.214 128.61 326.056C128.989 325.9 129.236 325.53 129.236 325.12C129.236 324.852 129.129 324.594 128.939 324.404C128.749 324.214 128.491 324.107 128.223 324.107Z" fill="url(#paint60_linear_58155_36208)"/>
<path d="M214.333 315H179.667C178.959 315 178.281 315.281 177.781 315.781C177.281 316.281 177 316.959 177 317.667V345.667C177 346.374 177.281 347.052 177.781 347.552C178.281 348.052 178.959 348.333 179.667 348.333H195V349.667L191.667 349.667C191.192 349.668 190.755 349.922 190.519 350.333H181C180.285 350.333 179.625 350.714 179.268 351.334C178.911 351.952 178.911 352.715 179.268 353.333C179.625 353.952 180.285 354.334 181 354.334H190.519C190.755 354.744 191.192 354.999 191.667 355H202.333C202.808 354.999 203.245 354.744 203.481 354.334H213C213.715 354.334 214.375 353.952 214.732 353.333C215.089 352.715 215.089 351.952 214.732 351.334C214.375 350.714 213.715 350.333 213 350.333H203.481C203.245 349.922 202.808 349.668 202.333 349.667H199V348.333H214.333C215.041 348.333 215.719 348.052 216.219 347.552C216.719 347.052 217 346.374 217 345.667V317.667C217 316.959 216.719 316.281 216.219 315.781C215.719 315.281 215.041 315 214.333 315L214.333 315ZM179.667 316.333H214.333C214.687 316.333 215.026 316.474 215.276 316.724C215.526 316.974 215.667 317.313 215.667 317.667V320.333H178.334V317.667C178.334 317.313 178.474 316.974 178.724 316.724C178.974 316.474 179.313 316.333 179.667 316.333H179.667ZM180.333 352.333C180.333 351.965 180.632 351.666 181 351.666H190.333V353H181C180.632 353 180.333 352.701 180.333 352.333ZM213.666 352.333C213.666 352.51 213.596 352.68 213.471 352.805C213.346 352.93 213.177 353 213 353H203.666V351.666H213C213.177 351.666 213.346 351.737 213.471 351.862C213.596 351.987 213.666 352.156 213.666 352.333ZM202.333 353.667H191.666V351H202.333V353.667ZM196.333 349.666V344.966C196.554 344.98 196.774 345 197 345C197.225 345 197.445 344.98 197.666 344.966L197.666 349.667L196.333 349.666ZM196.333 325.111V329H193.2C193.933 326.953 195.057 325.496 196.333 325.111V325.111ZM197.666 339.666H200.799C200.066 341.714 198.942 343.17 197.666 343.555V339.666ZM197.666 338.333V335H201.649C201.61 336.123 201.457 337.24 201.193 338.333H197.666ZM197.666 333.667V330.333H201.193C201.457 331.426 201.61 332.543 201.649 333.666L197.666 333.667ZM197.666 329V325.111C198.942 325.496 200.066 326.952 200.799 329H197.666ZM196.333 330.333V333.667L192.35 333.666C192.39 332.543 192.542 331.426 192.806 330.333L196.333 330.333ZM196.333 335V338.333H192.806C192.542 337.24 192.39 336.123 192.35 335H196.333ZM196.333 339.666V343.555C195.057 343.171 193.933 341.714 193.2 339.666H196.333ZM202.215 339.666H204.648C203.627 341.129 202.209 342.27 200.562 342.956C201.299 341.963 201.858 340.85 202.215 339.666ZM205.419 338.333H202.573C202.812 337.237 202.948 336.121 202.981 335H206.299C206.217 336.156 205.919 337.287 205.419 338.333ZM202.981 333.667V333.666C202.948 332.545 202.812 331.429 202.573 330.333H205.42C205.919 331.379 206.217 332.51 206.299 333.666L202.981 333.667ZM202.215 329V329C201.858 327.816 201.299 326.703 200.562 325.71C202.209 326.396 203.627 327.537 204.648 329L202.215 329ZM189.351 329C190.372 327.537 191.79 326.396 193.437 325.71C192.701 326.703 192.141 327.816 191.784 329H189.351ZM188.579 330.333H191.426C191.188 331.429 191.051 332.545 191.018 333.666H187.7C187.782 332.51 188.08 331.379 188.579 330.333ZM191.018 335C191.051 336.121 191.188 337.237 191.426 338.333H188.579C188.08 337.287 187.782 336.156 187.7 335H191.018ZM191.784 339.666C192.141 340.85 192.701 341.963 193.437 342.956C191.79 342.27 190.372 341.129 189.351 339.666H191.784ZM214.333 347H198.999V344.805C202.181 344.192 204.913 342.17 206.428 339.307C206.443 339.281 206.456 339.254 206.467 339.227C208.066 336.16 208.066 332.506 206.467 329.439C206.456 329.411 206.443 329.385 206.428 329.359C205.217 327.058 203.206 325.279 200.774 324.358C198.342 323.436 195.657 323.436 193.225 324.358C190.793 325.279 188.782 327.058 187.571 329.359C187.556 329.385 187.543 329.411 187.532 329.439C185.933 332.506 185.933 336.16 187.532 339.227C187.543 339.254 187.556 339.281 187.571 339.307C189.087 342.17 191.818 344.192 195 344.805V347H179.666C179.313 347 178.974 346.859 178.723 346.609C178.473 346.359 178.333 346.02 178.333 345.666V321.666H215.666V345.666C215.666 346.02 215.525 346.359 215.275 346.609C215.025 346.859 214.686 347 214.332 347H214.333Z" fill="url(#paint61_linear_58155_36208)"/>
<path d="M180.333 319.001H181C181.368 319.001 181.667 318.702 181.667 318.334C181.667 317.966 181.368 317.667 181 317.667H180.333C179.965 317.667 179.667 317.966 179.667 318.334C179.667 318.702 179.965 319.001 180.333 319.001Z" fill="url(#paint62_linear_58155_36208)"/>
<path d="M183.666 319.001H184.333H184.333C184.701 319.001 185 318.702 185 318.334C185 317.966 184.701 317.667 184.333 317.667H183.666C183.298 317.667 183 317.966 183 318.334C183 318.702 183.298 319.001 183.666 319.001Z" fill="url(#paint63_linear_58155_36208)"/>
<path d="M187 319.001H187.667H187.667C188.035 319.001 188.333 318.702 188.333 318.334C188.333 317.966 188.035 317.667 187.667 317.667H187C186.632 317.667 186.333 317.966 186.333 318.334C186.333 318.702 186.632 319.001 187 319.001Z" fill="url(#paint64_linear_58155_36208)"/>
<path d="M209.667 319.001H213.667H213.666C214.034 319.001 214.333 318.702 214.333 318.334C214.333 317.966 214.034 317.667 213.666 317.667H209.667C209.298 317.667 209 317.966 209 318.334C209 318.702 209.298 319.001 209.667 319.001Z" fill="url(#paint65_linear_58155_36208)"/>
</g>
<defs>
<linearGradient id="paint0_linear_58155_36208" x1="139.842" y1="133.06" x2="139.842" y2="140.069" gradientUnits="userSpaceOnUse">
<stop stop-color="#ED3040"/>
<stop offset="1" stop-color="#2D23F4"/>
</linearGradient>
<linearGradient id="paint1_linear_58155_36208" x1="208.147" y1="133.64" x2="208.147" y2="141.651" gradientUnits="userSpaceOnUse">
<stop stop-color="#ED3040"/>
<stop offset="1" stop-color="#2D23F4"/>
</linearGradient>
<linearGradient id="paint2_linear_58155_36208" x1="208.147" y1="133.64" x2="208.147" y2="141.651" gradientUnits="userSpaceOnUse">
<stop stop-color="#ED3040"/>
<stop offset="1" stop-color="#2D23F4"/>
</linearGradient>
<linearGradient id="paint3_linear_58155_36208" x1="208.147" y1="133.64" x2="208.147" y2="141.651" gradientUnits="userSpaceOnUse">
<stop stop-color="#ED3040"/>
<stop offset="1" stop-color="#2D23F4"/>
</linearGradient>
<linearGradient id="paint4_linear_58155_36208" x1="278.386" y1="133.64" x2="278.386" y2="141.651" gradientUnits="userSpaceOnUse">
<stop stop-color="#ED3040"/>
<stop offset="1" stop-color="#2D23F4"/>
</linearGradient>
<linearGradient id="paint5_linear_58155_36208" x1="347.905" y1="133.64" x2="347.905" y2="141.651" gradientUnits="userSpaceOnUse">
<stop stop-color="#ED3040"/>
<stop offset="1" stop-color="#2D23F4"/>
</linearGradient>
<linearGradient id="paint6_linear_58155_36208" x1="347.905" y1="133.64" x2="347.905" y2="141.651" gradientUnits="userSpaceOnUse">
<stop stop-color="#ED3040"/>
<stop offset="1" stop-color="#2D23F4"/>
</linearGradient>
<linearGradient id="paint7_linear_58155_36208" x1="347.905" y1="133.64" x2="347.905" y2="141.651" gradientUnits="userSpaceOnUse">
<stop stop-color="#ED3040"/>
<stop offset="1" stop-color="#2D23F4"/>
</linearGradient>
<linearGradient id="paint8_linear_58155_36208" x1="347.905" y1="133.64" x2="347.905" y2="141.651" gradientUnits="userSpaceOnUse">
<stop stop-color="#ED3040"/>
<stop offset="1" stop-color="#2D23F4"/>
</linearGradient>
<linearGradient id="paint9_linear_58155_36208" x1="347.905" y1="133.64" x2="347.905" y2="141.651" gradientUnits="userSpaceOnUse">
<stop stop-color="#ED3040"/>
<stop offset="1" stop-color="#2D23F4"/>
</linearGradient>
<linearGradient id="paint10_linear_58155_36208" x1="417.015" y1="133.64" x2="417.015" y2="141.651" gradientUnits="userSpaceOnUse">
<stop stop-color="#ED3040"/>
<stop offset="1" stop-color="#2D23F4"/>
</linearGradient>
<linearGradient id="paint11_linear_58155_36208" x1="417.015" y1="133.64" x2="417.015" y2="141.651" gradientUnits="userSpaceOnUse">
<stop stop-color="#ED3040"/>
<stop offset="1" stop-color="#2D23F4"/>
</linearGradient>
<linearGradient id="paint12_linear_58155_36208" x1="417.015" y1="133.64" x2="417.015" y2="141.651" gradientUnits="userSpaceOnUse">
<stop stop-color="#ED3040"/>
<stop offset="1" stop-color="#2D23F4"/>
</linearGradient>
<linearGradient id="paint13_linear_58155_36208" x1="137.982" y1="203.64" x2="137.982" y2="211.651" gradientUnits="userSpaceOnUse">
<stop stop-color="#ED3040"/>
<stop offset="1" stop-color="#2D23F4"/>
</linearGradient>
<linearGradient id="paint14_linear_58155_36208" x1="137.982" y1="203.64" x2="137.982" y2="211.651" gradientUnits="userSpaceOnUse">
<stop stop-color="#ED3040"/>
<stop offset="1" stop-color="#2D23F4"/>
</linearGradient>
<linearGradient id="paint15_linear_58155_36208" x1="137.982" y1="203.64" x2="137.982" y2="211.651" gradientUnits="userSpaceOnUse">
<stop stop-color="#ED3040"/>
<stop offset="1" stop-color="#2D23F4"/>
</linearGradient>
<linearGradient id="paint16_linear_58155_36208" x1="137.982" y1="203.64" x2="137.982" y2="211.651" gradientUnits="userSpaceOnUse">
<stop stop-color="#ED3040"/>
<stop offset="1" stop-color="#2D23F4"/>
</linearGradient>
<linearGradient id="paint17_linear_58155_36208" x1="137.982" y1="203.64" x2="137.982" y2="211.651" gradientUnits="userSpaceOnUse">
<stop stop-color="#ED3040"/>
<stop offset="1" stop-color="#2D23F4"/>
</linearGradient>
<linearGradient id="paint18_linear_58155_36208" x1="137.982" y1="203.64" x2="137.982" y2="211.651" gradientUnits="userSpaceOnUse">
<stop stop-color="#ED3040"/>
<stop offset="1" stop-color="#2D23F4"/>
</linearGradient>
<linearGradient id="paint19_linear_58155_36208" x1="137.982" y1="203.64" x2="137.982" y2="211.651" gradientUnits="userSpaceOnUse">
<stop stop-color="#ED3040"/>
<stop offset="1" stop-color="#2D23F4"/>
</linearGradient>
<linearGradient id="paint20_linear_58155_36208" x1="137.982" y1="203.64" x2="137.982" y2="211.651" gradientUnits="userSpaceOnUse">
<stop stop-color="#ED3040"/>
<stop offset="1" stop-color="#2D23F4"/>
</linearGradient>
<linearGradient id="paint21_linear_58155_36208" x1="209.767" y1="203.06" x2="209.767" y2="210.069" gradientUnits="userSpaceOnUse">
<stop stop-color="#ED3040"/>
<stop offset="1" stop-color="#2D23F4"/>
</linearGradient>
<linearGradient id="paint22_linear_58155_36208" x1="209.767" y1="203.06" x2="209.767" y2="210.069" gradientUnits="userSpaceOnUse">
<stop stop-color="#ED3040"/>
<stop offset="1" stop-color="#2D23F4"/>
</linearGradient>
<linearGradient id="paint23_linear_58155_36208" x1="209.767" y1="203.06" x2="209.767" y2="210.069" gradientUnits="userSpaceOnUse">
<stop stop-color="#ED3040"/>
<stop offset="1" stop-color="#2D23F4"/>
</linearGradient>
<linearGradient id="paint24_linear_58155_36208" x1="209.767" y1="203.06" x2="209.767" y2="210.069" gradientUnits="userSpaceOnUse">
<stop stop-color="#ED3040"/>
<stop offset="1" stop-color="#2D23F4"/>
</linearGradient>
<linearGradient id="paint25_linear_58155_36208" x1="209.767" y1="203.06" x2="209.767" y2="210.069" gradientUnits="userSpaceOnUse">
<stop stop-color="#ED3040"/>
<stop offset="1" stop-color="#2D23F4"/>
</linearGradient>
<linearGradient id="paint26_linear_58155_36208" x1="209.767" y1="203.06" x2="209.767" y2="210.069" gradientUnits="userSpaceOnUse">
<stop stop-color="#ED3040"/>
<stop offset="1" stop-color="#2D23F4"/>
</linearGradient>
<linearGradient id="paint27_linear_58155_36208" x1="279.289" y1="200.9" x2="279.289" y2="205.907" gradientUnits="userSpaceOnUse">
<stop stop-color="#ED3040"/>
<stop offset="1" stop-color="#2D23F4"/>
</linearGradient>
<linearGradient id="paint28_linear_58155_36208" x1="349.549" y1="202.344" x2="349.549" y2="209.153" gradientUnits="userSpaceOnUse">
<stop stop-color="#ED3040"/>
<stop offset="1" stop-color="#2D23F4"/>
</linearGradient>
<linearGradient id="paint29_linear_58155_36208" x1="419.662" y1="203.64" x2="419.662" y2="211.651" gradientUnits="userSpaceOnUse">
<stop stop-color="#ED3040"/>
<stop offset="1" stop-color="#2D23F4"/>
</linearGradient>
<linearGradient id="paint30_linear_58155_36208" x1="419.662" y1="203.64" x2="419.662" y2="211.651" gradientUnits="userSpaceOnUse">
<stop stop-color="#ED3040"/>
<stop offset="1" stop-color="#2D23F4"/>
</linearGradient>
<linearGradient id="paint31_linear_58155_36208" x1="139.662" y1="273.64" x2="139.662" y2="281.651" gradientUnits="userSpaceOnUse">
<stop stop-color="#ED3040"/>
<stop offset="1" stop-color="#2D23F4"/>
</linearGradient>
<linearGradient id="paint32_linear_58155_36208" x1="139.662" y1="273.64" x2="139.662" y2="281.651" gradientUnits="userSpaceOnUse">
<stop stop-color="#ED3040"/>
<stop offset="1" stop-color="#2D23F4"/>
</linearGradient>
<linearGradient id="paint33_linear_58155_36208" x1="139.662" y1="273.64" x2="139.662" y2="281.651" gradientUnits="userSpaceOnUse">
<stop stop-color="#ED3040"/>
<stop offset="1" stop-color="#2D23F4"/>
</linearGradient>
<linearGradient id="paint34_linear_58155_36208" x1="139.662" y1="273.64" x2="139.662" y2="281.651" gradientUnits="userSpaceOnUse">
<stop stop-color="#ED3040"/>
<stop offset="1" stop-color="#2D23F4"/>
</linearGradient>
<linearGradient id="paint35_linear_58155_36208" x1="139.662" y1="273.64" x2="139.662" y2="281.651" gradientUnits="userSpaceOnUse">
<stop stop-color="#ED3040"/>
<stop offset="1" stop-color="#2D23F4"/>
</linearGradient>
<linearGradient id="paint36_linear_58155_36208" x1="139.662" y1="273.64" x2="139.662" y2="281.651" gradientUnits="userSpaceOnUse">
<stop stop-color="#ED3040"/>
<stop offset="1" stop-color="#2D23F4"/>
</linearGradient>
<linearGradient id="paint37_linear_58155_36208" x1="139.662" y1="273.64" x2="139.662" y2="281.651" gradientUnits="userSpaceOnUse">
<stop stop-color="#ED3040"/>
<stop offset="1" stop-color="#2D23F4"/>
</linearGradient>
<linearGradient id="paint38_linear_58155_36208" x1="139.662" y1="273.64" x2="139.662" y2="281.651" gradientUnits="userSpaceOnUse">
<stop stop-color="#ED3040"/>
<stop offset="1" stop-color="#2D23F4"/>
</linearGradient>
<linearGradient id="paint39_linear_58155_36208" x1="139.662" y1="273.64" x2="139.662" y2="281.651" gradientUnits="userSpaceOnUse">
<stop stop-color="#ED3040"/>
<stop offset="1" stop-color="#2D23F4"/>
</linearGradient>
<linearGradient id="paint40_linear_58155_36208" x1="139.662" y1="273.64" x2="139.662" y2="281.651" gradientUnits="userSpaceOnUse">
<stop stop-color="#ED3040"/>
<stop offset="1" stop-color="#2D23F4"/>
</linearGradient>
<linearGradient id="paint41_linear_58155_36208" x1="139.662" y1="273.64" x2="139.662" y2="281.651" gradientUnits="userSpaceOnUse">
<stop stop-color="#ED3040"/>
<stop offset="1" stop-color="#2D23F4"/>
</linearGradient>
<linearGradient id="paint42_linear_58155_36208" x1="209.872" y1="273.924" x2="209.872" y2="281.734" gradientUnits="userSpaceOnUse">
<stop stop-color="#ED3040"/>
<stop offset="1" stop-color="#2D23F4"/>
</linearGradient>
<linearGradient id="paint43_linear_58155_36208" x1="209.872" y1="273.924" x2="209.872" y2="281.734" gradientUnits="userSpaceOnUse">
<stop stop-color="#ED3040"/>
<stop offset="1" stop-color="#2D23F4"/>
</linearGradient>
<linearGradient id="paint44_linear_58155_36208" x1="209.872" y1="273.924" x2="209.872" y2="281.734" gradientUnits="userSpaceOnUse">
<stop stop-color="#ED3040"/>
<stop offset="1" stop-color="#2D23F4"/>
</linearGradient>
<linearGradient id="paint45_linear_58155_36208" x1="209.872" y1="273.924" x2="209.872" y2="281.734" gradientUnits="userSpaceOnUse">
<stop stop-color="#ED3040"/>
<stop offset="1" stop-color="#2D23F4"/>
</linearGradient>
<linearGradient id="paint46_linear_58155_36208" x1="279.364" y1="273.924" x2="279.364" y2="281.734" gradientUnits="userSpaceOnUse">
<stop stop-color="#ED3040"/>
<stop offset="1" stop-color="#2D23F4"/>
</linearGradient>
<linearGradient id="paint47_linear_58155_36208" x1="279.364" y1="273.924" x2="279.364" y2="281.734" gradientUnits="userSpaceOnUse">
<stop stop-color="#ED3040"/>
<stop offset="1" stop-color="#2D23F4"/>
</linearGradient>
<linearGradient id="paint48_linear_58155_36208" x1="279.364" y1="273.924" x2="279.364" y2="281.734" gradientUnits="userSpaceOnUse">
<stop stop-color="#ED3040"/>
<stop offset="1" stop-color="#2D23F4"/>
</linearGradient>
<linearGradient id="paint49_linear_58155_36208" x1="279.364" y1="273.924" x2="279.364" y2="281.734" gradientUnits="userSpaceOnUse">
<stop stop-color="#ED3040"/>
<stop offset="1" stop-color="#2D23F4"/>
</linearGradient>
<linearGradient id="paint50_linear_58155_36208" x1="279.364" y1="273.924" x2="279.364" y2="281.734" gradientUnits="userSpaceOnUse">
<stop stop-color="#ED3040"/>
<stop offset="1" stop-color="#2D23F4"/>
</linearGradient>
<linearGradient id="paint51_linear_58155_36208" x1="279.364" y1="273.924" x2="279.364" y2="281.734" gradientUnits="userSpaceOnUse">
<stop stop-color="#ED3040"/>
<stop offset="1" stop-color="#2D23F4"/>
</linearGradient>
<linearGradient id="paint52_linear_58155_36208" x1="279.364" y1="273.924" x2="279.364" y2="281.734" gradientUnits="userSpaceOnUse">
<stop stop-color="#ED3040"/>
<stop offset="1" stop-color="#2D23F4"/>
</linearGradient>
<linearGradient id="paint53_linear_58155_36208" x1="279.364" y1="273.924" x2="279.364" y2="281.734" gradientUnits="userSpaceOnUse">
<stop stop-color="#ED3040"/>
<stop offset="1" stop-color="#2D23F4"/>
</linearGradient>
<linearGradient id="paint54_linear_58155_36208" x1="279.364" y1="273.924" x2="279.364" y2="281.734" gradientUnits="userSpaceOnUse">
<stop stop-color="#ED3040"/>
<stop offset="1" stop-color="#2D23F4"/>
</linearGradient>
<linearGradient id="paint55_linear_58155_36208" x1="279.364" y1="273.924" x2="279.364" y2="281.734" gradientUnits="userSpaceOnUse">
<stop stop-color="#ED3040"/>
<stop offset="1" stop-color="#2D23F4"/>
</linearGradient>
<linearGradient id="paint56_linear_58155_36208" x1="279.364" y1="273.924" x2="279.364" y2="281.734" gradientUnits="userSpaceOnUse">
<stop stop-color="#ED3040"/>
<stop offset="1" stop-color="#2D23F4"/>
</linearGradient>
<linearGradient id="paint57_linear_58155_36208" x1="279.364" y1="273.924" x2="279.364" y2="281.734" gradientUnits="userSpaceOnUse">
<stop stop-color="#ED3040"/>
<stop offset="1" stop-color="#2D23F4"/>
</linearGradient>
<linearGradient id="paint58_linear_58155_36208" x1="348.6" y1="273.64" x2="348.6" y2="281.651" gradientUnits="userSpaceOnUse">
<stop stop-color="#ED3040"/>
<stop offset="1" stop-color="#2D23F4"/>
</linearGradient>
<linearGradient id="paint59_linear_58155_36208" x1="419.662" y1="273.64" x2="419.662" y2="281.651" gradientUnits="userSpaceOnUse">
<stop stop-color="#ED3040"/>
<stop offset="1" stop-color="#2D23F4"/>
</linearGradient>
<linearGradient id="paint60_linear_58155_36208" x1="139.699" y1="343.208" x2="139.699" y2="350.818" gradientUnits="userSpaceOnUse">
<stop stop-color="#ED3040"/>
<stop offset="1" stop-color="#2D23F4"/>
</linearGradient>
<linearGradient id="paint61_linear_58155_36208" x1="209.662" y1="343.64" x2="209.662" y2="351.651" gradientUnits="userSpaceOnUse">
<stop stop-color="#ED3040"/>
<stop offset="1" stop-color="#2D23F4"/>
</linearGradient>
<linearGradient id="paint62_linear_58155_36208" x1="209.662" y1="343.64" x2="209.662" y2="351.651" gradientUnits="userSpaceOnUse">
<stop stop-color="#ED3040"/>
<stop offset="1" stop-color="#2D23F4"/>
</linearGradient>
<linearGradient id="paint63_linear_58155_36208" x1="209.662" y1="343.64" x2="209.662" y2="351.651" gradientUnits="userSpaceOnUse">
<stop stop-color="#ED3040"/>
<stop offset="1" stop-color="#2D23F4"/>
</linearGradient>
<linearGradient id="paint64_linear_58155_36208" x1="209.662" y1="343.64" x2="209.662" y2="351.651" gradientUnits="userSpaceOnUse">
<stop stop-color="#ED3040"/>
<stop offset="1" stop-color="#2D23F4"/>
</linearGradient>
<linearGradient id="paint65_linear_58155_36208" x1="209.662" y1="343.64" x2="209.662" y2="351.651" gradientUnits="userSpaceOnUse">
<stop stop-color="#ED3040"/>
<stop offset="1" stop-color="#2D23F4"/>
</linearGradient>
<clipPath id="clip0_58155_36208">
<rect width="475" height="307" fill="white" transform="translate(0 103)"/>
</clipPath>
</defs>
</svg>
