<svg width="31" height="40" viewBox="0 0 31 40" fill="none" xmlns="http://www.w3.org/2000/svg">
<path d="M7.99937 8.74891C7.99937 8.41743 8.13106 8.09952 8.36546 7.86513C8.59986 7.63074 8.91778 7.49906 9.24927 7.49906H21.7482C22.0797 7.49906 22.3976 7.63074 22.632 7.86513C22.8664 8.09952 22.9981 8.41743 22.9981 8.74891C22.9981 9.08039 22.8664 9.39829 22.632 9.63268C22.3976 9.86707 22.0797 9.99875 21.7482 9.99875H9.24927C8.91778 9.99875 8.59986 9.86707 8.36546 9.63268C8.13106 9.39829 7.99937 9.08039 7.99937 8.74891ZM11.7491 12.4984C11.4176 12.4984 11.0997 12.6301 10.8653 12.8645C10.6309 13.0989 10.4992 13.4168 10.4992 13.7483C10.4992 14.0798 10.6309 14.3977 10.8653 14.6321C11.0997 14.8664 11.4176 14.9981 11.7491 14.9981H19.2484C19.5799 14.9981 19.8978 14.8664 20.1322 14.6321C20.3666 14.3977 20.4983 14.0798 20.4983 13.7483C20.4983 13.4168 20.3666 13.0989 20.1322 12.8645C19.8978 12.6301 19.5799 12.4984 19.2484 12.4984H11.7491Z" fill="url(#paint0_linear_5335_5095)"/>
<path fill-rule="evenodd" clip-rule="evenodd" d="M0.5 3.74953C0.5 2.75509 0.895055 1.80139 1.59826 1.09821C2.30146 0.395039 3.25521 0 4.24969 0H26.7478C27.7423 0 28.696 0.395039 29.3992 1.09821C30.1024 1.80139 30.4975 2.75509 30.4975 3.74953V28.7464C30.4975 30.1112 29.7676 31.2961 28.6777 31.971L28.3252 33.0284C27.8982 34.3103 27.8982 35.696 28.3252 36.9779L28.5002 37.5003H29.2501C29.5816 37.5003 29.8995 37.632 30.1339 37.8664C30.3683 38.1008 30.5 38.4187 30.5 38.7502C30.5 39.0816 30.3683 39.3995 30.1339 39.6339C29.8995 39.8683 29.5816 40 29.2501 40H5.49958C2.74981 40 0.5 37.7628 0.5 35.0006V3.74953ZM26.7478 2.49969H4.24969C3.91819 2.49969 3.60028 2.63137 3.36588 2.86576C3.13148 3.10015 2.99979 3.41805 2.99979 3.74953V30.7462C3.73473 30.3212 4.58966 30.0762 5.49958 30.0762H26.7478C27.0793 30.0762 27.3972 29.9446 27.6316 29.7102C27.866 29.4758 27.9977 29.1579 27.9977 28.8264V3.82952C27.9977 3.49804 27.866 3.18014 27.6316 2.94575C27.3972 2.71136 27.0793 2.57968 26.7478 2.57968V2.49969ZM25.8679 32.4959H5.49458C4.8316 32.4959 4.19577 32.7593 3.72696 33.2281C3.25816 33.6969 2.99479 34.3327 2.99479 34.9956C2.99479 35.6586 3.25816 36.2944 3.72696 36.7632C4.19577 37.2319 4.8316 37.4953 5.49458 37.4953H25.8679C25.3816 35.8643 25.3816 34.1269 25.8679 32.4959Z" fill="url(#paint1_linear_5335_5095)"/>
<defs>
<linearGradient id="paint0_linear_5335_5095" x1="24.9968" y1="28.6397" x2="24.9968" y2="36.6506" gradientUnits="userSpaceOnUse">
<stop stop-color="#ED3040"/>
<stop offset="1" stop-color="#2D23F4"/>
</linearGradient>
<linearGradient id="paint1_linear_5335_5095" x1="24.9968" y1="28.6397" x2="24.9968" y2="36.6506" gradientUnits="userSpaceOnUse">
<stop stop-color="#ED3040"/>
<stop offset="1" stop-color="#2D23F4"/>
</linearGradient>
</defs>
</svg>
