<svg width="35" height="40" viewBox="0 0 35 40" fill="none" xmlns="http://www.w3.org/2000/svg">
<path fill-rule="evenodd" clip-rule="evenodd" d="M18.6688 38.9468L18.6479 38.9506L18.5134 39.0169L18.4756 39.0245L18.449 39.0169L18.3146 38.9506C18.2944 38.9443 18.2792 38.9475 18.2691 38.9601L18.2615 38.979L18.2293 39.7897L18.2388 39.8276L18.2577 39.8523L18.4547 39.9924L18.4831 40L18.5059 39.9924L18.7029 39.8523L18.7256 39.8219L18.7332 39.7897L18.701 38.9809C18.6959 38.9607 18.6852 38.9494 18.6688 38.9468ZM19.1707 38.7328L19.1461 38.7366L18.7957 38.9127L18.7767 38.9317L18.7711 38.9525L18.8051 39.767L18.8146 39.7897L18.8298 39.803L19.2105 39.9792C19.2345 39.9855 19.2528 39.9804 19.2654 39.964L19.273 39.9375L19.2086 38.7745C19.2023 38.7517 19.1897 38.7378 19.1707 38.7328ZM17.8164 38.7366C17.808 38.7315 17.7981 38.7299 17.7885 38.732C17.779 38.7341 17.7707 38.7398 17.7652 38.7479L17.7539 38.7745L17.6895 39.9375C17.6907 39.9602 17.7015 39.9754 17.7217 39.983L17.7501 39.9792L18.1308 39.803L18.1498 39.7879L18.1573 39.767L18.1895 38.9525L18.1839 38.9298L18.1649 38.9109L17.8164 38.7366Z" fill="url(#paint0_linear_5255_5959)"/>
<path fill-rule="evenodd" clip-rule="evenodd" d="M24.5199 1.1087C25.1905 0.438533 26.088 0.0441714 27.0352 0.00349172C27.9824 -0.0371879 28.9105 0.278771 29.6361 0.88898L29.8785 1.1087L31.2177 2.44978C31.8874 3.1203 32.2814 4.01744 32.3221 4.9642C32.3627 5.91096 32.0471 6.83859 31.4374 7.56407L31.2177 7.80652L29.8785 9.14571C29.7625 9.2609 29.6391 9.36847 29.5092 9.46772C29.6749 10.0619 29.693 10.6876 29.562 11.2903C29.4309 11.8931 29.1546 12.4548 28.7572 12.9265L28.5374 13.1633L26.6622 15.0385C27.965 16.1939 29.0078 17.6126 29.7219 19.2007C30.436 20.7889 30.8051 22.5105 30.8048 24.2518C30.8048 27.3658 29.6493 30.209 27.7438 32.3778L27.3763 32.7756H32.699C33.1817 32.7761 33.6461 32.961 33.9972 33.2924C34.3482 33.6238 34.5595 34.0768 34.5878 34.5588C34.6161 35.0407 34.4593 35.5153 34.1494 35.8855C33.8395 36.2558 33.4 36.4937 32.9206 36.5507L32.699 36.564H2.39208C1.90929 36.5634 1.44493 36.3786 1.09387 36.0471C0.742811 35.7157 0.531552 35.2627 0.503258 34.7808C0.474964 34.2988 0.631772 33.8243 0.941641 33.454C1.25151 33.0838 1.69105 32.8459 2.17046 32.7889L2.39208 32.7756H18.4926C20.2027 32.7758 21.8733 32.2616 23.2873 31.2999C24.7014 30.3382 25.7934 28.9734 26.4216 27.3828C27.0497 25.7923 27.185 24.0496 26.8097 22.3812C26.4344 20.7128 25.566 19.1959 24.3172 18.0275L23.9763 17.7244L17.824 23.8805C17.1533 24.5512 16.2553 24.9459 15.3077 24.9866C14.36 25.0273 13.4316 24.711 12.7059 24.1003L12.4653 23.8786L8.44777 19.8611C7.77733 19.1907 7.38262 18.2933 7.34159 17.3461C7.30056 16.3989 7.61619 15.4707 8.22616 14.7449L8.44777 14.5043L19.1631 3.78897C19.6376 3.31437 20.2296 2.97431 20.8786 2.80358C21.5275 2.63284 22.2102 2.63756 22.8568 2.81725L23.0121 2.62784L23.1807 2.44978L24.5199 1.1087ZM7.10859 21.2022L11.1243 25.2178C11.3002 25.3937 11.4399 25.6025 11.5352 25.8323C11.6304 26.0621 11.6795 26.3085 11.6796 26.5573C11.6797 26.8061 11.6308 27.0525 11.5357 27.2824C11.4405 27.5122 11.3011 27.7212 11.1252 27.8971C10.9493 28.0731 10.7405 28.2128 10.5107 28.308C10.2809 28.4033 10.0345 28.4524 9.78574 28.4525C9.53694 28.4526 9.29056 28.4037 9.06067 28.3086C8.83077 28.2134 8.62187 28.074 8.44588 27.8981L4.42643 23.8786C4.07151 23.523 3.87241 23.0409 3.87295 22.5384C3.87348 22.0359 4.0736 21.5542 4.42927 21.1993C4.78495 20.8444 5.26705 20.6453 5.76952 20.6458C6.27199 20.6464 6.75367 20.8465 7.10859 21.2022ZM21.8415 6.46923L11.1243 17.1827L15.1418 21.2003L25.8572 10.4849L21.8396 6.46734L21.8415 6.46923ZM27.1983 3.79086L25.8591 5.13005L27.1983 6.46923L28.5374 5.13005L27.1983 3.79086Z" fill="url(#paint1_linear_5255_5959)"/>
<defs>
<linearGradient id="paint0_linear_5255_5959" x1="28.3374" y1="28.6397" x2="28.3374" y2="36.6506" gradientUnits="userSpaceOnUse">
<stop stop-color="#ED3040"/>
<stop offset="1" stop-color="#2D23F4"/>
</linearGradient>
<linearGradient id="paint1_linear_5255_5959" x1="28.3374" y1="28.6397" x2="28.3374" y2="36.6506" gradientUnits="userSpaceOnUse">
<stop stop-color="#ED3040"/>
<stop offset="1" stop-color="#2D23F4"/>
</linearGradient>
</defs>
</svg>
