<svg width="41" height="40" viewBox="0 0 41 40" fill="none" xmlns="http://www.w3.org/2000/svg">
<path d="M20.5 2.66667H21.8333C21.8333 2.41926 21.7645 2.17673 21.6345 1.96622C21.5045 1.7557 21.3185 1.58551 21.0973 1.47467L20.5 2.66667ZM20.5 5.33333L21.0973 6.52533C21.3185 6.41449 21.5045 6.2443 21.6345 6.03378C21.7645 5.82327 21.8333 5.58074 21.8333 5.33333H20.5ZM17.8333 6.66667L17.236 5.47467C17.0274 5.57935 16.8499 5.73696 16.7213 5.93176C16.5927 6.12655 16.5174 6.35169 16.5031 6.58467C16.4888 6.81764 16.5359 7.0503 16.6397 7.25936C16.7435 7.46843 16.9004 7.64658 17.0947 7.776L17.8333 6.66667ZM21.8333 9.33333L21.0947 10.4427C21.3134 10.5885 21.5704 10.6665 21.8333 10.6667V9.33333ZM23.1667 9.33333V10.6667C23.5203 10.6667 23.8594 10.5262 24.1095 10.2761C24.3595 10.0261 24.5 9.68696 24.5 9.33333H23.1667ZM23.1667 6.66667V5.33333C22.813 5.33333 22.4739 5.47381 22.2239 5.72386C21.9738 5.97391 21.8333 6.31305 21.8333 6.66667H23.1667ZM27.1667 6.66667H28.5C28.5 6.31305 28.3595 5.97391 28.1095 5.72386C27.8594 5.47381 27.5203 5.33333 27.1667 5.33333V6.66667ZM27.1667 9.33333H25.8333C25.833 9.50855 25.8672 9.6821 25.934 9.84408C26.0009 10.0061 26.0989 10.1533 26.2227 10.2773L27.1667 9.33333ZM28.5 10.6667H29.8333C29.8336 10.4915 29.7994 10.3179 29.7326 10.1559C29.6658 9.99394 29.5677 9.84672 29.444 9.72267L28.5 10.6667ZM28.5 13.3333L29.444 14.2773C29.5677 14.1533 29.6658 14.0061 29.7326 13.8441C29.7994 13.6821 29.8336 13.5085 29.8333 13.3333H28.5ZM27.1667 14.6667V16C27.3419 16.0003 27.5154 15.9661 27.6774 15.8993C27.8394 15.8325 27.9866 15.7344 28.1107 15.6107L27.1667 14.6667ZM24.5 14.6667L23.9027 15.8587C24.0881 15.9516 24.2926 16 24.5 16V14.6667ZM19.1667 12L19.764 10.808C19.5786 10.7151 19.3741 10.6667 19.1667 10.6667C18.9593 10.6667 18.7547 10.7151 18.5693 10.808L19.1667 12ZM16.5 13.3333V14.6667C16.7074 14.6667 16.9119 14.6183 17.0973 14.5253L16.5 13.3333ZM12.5 13.3333V12C12.2026 12.0001 11.9137 12.0996 11.6794 12.2827C11.445 12.4659 11.2786 12.7221 11.2067 13.0107L12.5 13.3333ZM11.1667 18.6667L9.87333 18.344C9.81723 18.5673 9.81992 18.8014 9.88114 19.0234C9.94236 19.2453 10.06 19.4477 10.2227 19.6107L11.1667 18.6667ZM15.1667 22.6667L14.2227 23.6107C14.3242 23.7114 14.4412 23.7951 14.5693 23.8587L15.1667 22.6667ZM17.8333 24H19.1667C19.1667 23.7526 19.0978 23.5101 18.9678 23.2996C18.8378 23.089 18.6519 22.9188 18.4307 22.808L17.8333 24ZM17.8333 28H16.5C16.4997 28.1752 16.5339 28.3488 16.6007 28.5107C16.6675 28.6727 16.7656 28.82 16.8893 28.944L17.8333 28ZM19.1667 29.3333H20.5C20.5003 29.1581 20.4661 28.9846 20.3993 28.8226C20.3325 28.6606 20.2344 28.5134 20.1107 28.3893L19.1667 29.3333ZM19.1667 32H17.8333C17.8333 32.2074 17.8817 32.4119 17.9747 32.5973L19.1667 32ZM20.5 34.6667L19.308 35.264C19.4188 35.4852 19.589 35.6712 19.7995 35.8012C20.0101 35.9311 20.2526 36 20.5 36V34.6667ZM23.1667 34.6667V36C23.3862 35.9999 23.6024 35.9455 23.7959 35.8418C23.9894 35.7381 24.1544 35.5881 24.276 35.4053L23.1667 34.6667ZM25.8333 30.6667L26.9427 31.4053L27.0253 31.264L25.8333 30.6667ZM27.1667 28L28.3587 28.5973C28.4516 28.4119 28.5 28.2074 28.5 28H27.1667ZM27.1667 25.3333L26.1 24.5333C25.9269 24.7641 25.8333 25.0448 25.8333 25.3333H27.1667ZM31.1667 20L32.2333 20.8C32.382 20.6017 32.4725 20.366 32.4946 20.1192C32.5168 19.8723 32.4697 19.6242 32.3587 19.4027L31.1667 20ZM29.8333 17.3333V16C29.606 16 29.3824 16.0582 29.1838 16.1689C28.9852 16.2797 28.8183 16.4394 28.6989 16.6329C28.5794 16.8263 28.5114 17.0471 28.5014 17.2743C28.4913 17.5014 28.5395 17.7274 28.6413 17.9307L29.8333 17.3333ZM33.8333 17.3333V18.6667C34.187 18.6667 34.5261 18.5262 34.7761 18.2761C35.0262 18.0261 35.1667 17.687 35.1667 17.3333H33.8333ZM33.8333 14.6667V13.3333C33.4797 13.3333 33.1406 13.4738 32.8905 13.7239C32.6405 13.9739 32.5 14.313 32.5 14.6667H33.8333ZM20.5 37.3333C15.9029 37.3333 11.4941 35.5071 8.24348 32.2565C4.99285 29.0059 3.16667 24.5971 3.16667 20H0.5C0.5 25.3043 2.60714 30.3914 6.35786 34.1421C10.1086 37.8929 15.1957 40 20.5 40V37.3333ZM37.8333 20C37.8333 22.2762 37.385 24.5302 36.5139 26.6332C35.6428 28.7362 34.3661 30.647 32.7565 32.2565C31.147 33.8661 29.2362 35.1428 27.1332 36.0139C25.0302 36.885 22.7762 37.3333 20.5 37.3333V40C25.8043 40 30.8914 37.8929 34.6421 34.1421C38.3929 30.3914 40.5 25.3043 40.5 20H37.8333ZM20.5 2.66667C22.7762 2.66667 25.0302 3.11501 27.1332 3.98609C29.2362 4.85717 31.147 6.13393 32.7565 7.74348C34.3661 9.35303 35.6428 11.2638 36.5139 13.3668C37.385 15.4698 37.8333 17.7238 37.8333 20H40.5C40.5 14.6957 38.3929 9.60859 34.6421 5.85786C30.8914 2.10714 25.8043 0 20.5 0V2.66667ZM20.5 0C15.1957 0 10.1086 2.10714 6.35786 5.85786C2.60714 9.60859 0.5 14.6957 0.5 20H3.16667C3.16667 15.4029 4.99285 10.9941 8.24348 7.74348C11.4941 4.49285 15.9029 2.66667 20.5 2.66667V0ZM17.236 2.52533L19.9027 3.85867L21.0973 1.47467L18.4307 0.141333L17.236 2.52533ZM19.1667 2.66667V5.33333H21.8333V2.66667H19.1667ZM19.9027 4.14133L17.236 5.47467L18.4307 7.85867L21.0973 6.52533L19.9027 4.14133ZM17.0947 7.776L21.0947 10.4427L22.572 8.224L18.572 5.55733L17.0947 7.776ZM21.8333 10.6667H23.1667V8H21.8333V10.6667ZM24.5 9.33333V6.66667H21.8333V9.33333H24.5ZM23.1667 8H27.1667V5.33333H23.1667V8ZM25.8333 6.66667V9.33333H28.5V6.66667H25.8333ZM26.2227 10.2773L27.556 11.6107L29.444 9.72267L28.1107 8.38933L26.2227 10.2773ZM27.1667 10.6667V13.3333H29.8333V10.6667H27.1667ZM27.556 12.3893L26.2227 13.7227L28.1107 15.6107L29.444 14.2773L27.556 12.3893ZM27.1667 13.3333H24.5V16H27.1667V13.3333ZM25.0973 13.4747L19.764 10.808L18.5693 13.192L23.9027 15.8587L25.0973 13.4747ZM18.5693 10.808L15.9027 12.1413L17.0973 14.5253L19.764 13.192L18.5693 10.808ZM16.5 12H12.5V14.6667H16.5V12ZM11.2067 13.0107L9.87333 18.344L12.46 18.9893L13.7933 13.656L11.2067 13.0107ZM10.2227 19.6107L14.2227 23.6107L16.1107 21.7227L12.1107 17.7227L10.2227 19.6107ZM14.5693 23.8587L17.236 25.192L18.4307 22.808L15.764 21.4747L14.5693 23.8587ZM16.5 24V28H19.1667V24H16.5ZM16.8893 28.944L18.2227 30.2773L20.1107 28.3893L18.7773 27.056L16.8893 28.944ZM17.8333 29.3333V32H20.5V29.3333H17.8333ZM17.9747 32.5973L19.308 35.264L21.692 34.0693L20.3587 31.4027L17.9747 32.5973ZM20.5 36H23.1667V33.3333H20.5V36ZM24.276 35.4053L26.9427 31.4053L24.724 29.928L22.0573 33.928L24.276 35.4053ZM27.0253 31.264L28.3587 28.5973L25.9747 27.4027L24.6413 30.0693L27.0253 31.264ZM28.5 28V25.3333H25.8333V28H28.5ZM28.2333 26.1333L32.2333 20.8L30.1 19.2L26.1 24.5333L28.2333 26.1333ZM32.3587 19.4027L31.0253 16.736L28.6413 17.9307L29.9747 20.5973L32.3587 19.4027ZM29.8333 18.6667H33.8333V16H29.8333V18.6667ZM35.1667 17.3333V14.6667H32.5V17.3333H35.1667ZM33.8333 16H39.1667V13.3333H33.8333V16Z" fill="url(#paint0_linear_5335_5937)"/>
<defs>
<linearGradient id="paint0_linear_5335_5937" x1="33.1624" y1="28.6397" x2="33.1624" y2="36.6506" gradientUnits="userSpaceOnUse">
<stop stop-color="#ED3040"/>
<stop offset="1" stop-color="#2D23F4"/>
</linearGradient>
</defs>
</svg>
