<svg width="40" height="44" viewBox="0 0 40 44" fill="none" xmlns="http://www.w3.org/2000/svg">
<path d="M22.8463 2H4.34617C3.59132 2 2.86739 2.32417 2.33362 2.90121C1.79986 3.47824 1.5 4.26087 1.5 5.07692V38.9231C1.5 39.7391 1.79986 40.5218 2.33362 41.0988C2.86739 41.6758 3.59132 42 4.34617 42H29.9617C30.7166 42 31.4405 41.6758 31.9743 41.0988C32.508 40.5218 32.8079 39.7391 32.8079 38.9231V25.0769M1.5 32.7692H32.8079M10.0385 9.69231H15.7309M10.0385 17.3846H12.8847M25.6757 23.5563L17.1372 25.2178L18.5603 15.864L30.5996 2.91015C30.8642 2.62175 31.179 2.39285 31.5258 2.23664C31.8726 2.08043 32.2447 2 32.6204 2C32.9961 2 33.3681 2.08043 33.715 2.23664C34.0618 2.39285 34.3766 2.62175 34.6412 2.91015L37.6581 6.17169C37.9249 6.45773 38.1366 6.79804 38.2811 7.17299C38.4256 7.54794 38.5 7.95011 38.5 8.3563C38.5 8.76249 38.4256 9.16466 38.2811 9.53962C38.1366 9.91457 37.9249 10.2549 37.6581 10.5409L25.6757 23.5563Z" stroke="url(#paint0_linear_5335_9324)" stroke-width="2.5" stroke-linecap="round" stroke-linejoin="round"/>
<defs>
<linearGradient id="paint0_linear_5335_9324" x1="14.7969" y1="42" x2="26.8104" y2="2.48871" gradientUnits="userSpaceOnUse">
<stop stop-color="#2C22F3"/>
<stop offset="1" stop-color="#E7101F"/>
</linearGradient>
</defs>
</svg>
