<svg width="40" height="44" viewBox="0 0 40 44" fill="none" xmlns="http://www.w3.org/2000/svg">
<path d="M31.1005 12.2569V13.5069V12.2569ZM8.4489 12.9055C7.80444 13.153 7.48263 13.8761 7.73013 14.5206C7.97763 15.165 8.70071 15.4869 9.34518 15.2394L8.4489 12.9055ZM16.3006 11.2292L16.8852 10.1244C16.5661 9.95551 16.1895 9.93287 15.8524 10.0623L16.3006 11.2292ZM26.4738 16.6131L27.2701 17.5766C27.592 17.3106 27.7598 16.9013 27.7173 16.4859C27.6748 16.0704 27.4276 15.7036 27.0585 15.5083L26.4738 16.6131ZM16.3006 25.0207L15.5043 24.0572C15.2068 24.303 15.0395 24.6725 15.0511 25.0583C15.0627 25.444 15.2519 25.8028 15.5636 26.0303L16.3006 25.0207ZM26.4738 32.4467L27.5089 33.1475C27.8863 32.5901 27.7545 31.834 27.2108 31.4371L26.4738 32.4467ZM18.9705 41.2992C18.5834 41.8708 18.7331 42.648 19.3047 43.0351C19.8764 43.4221 20.6536 43.2725 21.0406 42.7008L18.9705 41.2992ZM31.1158 18.0003C30.5246 17.6437 29.7564 17.8339 29.3998 18.425C29.0433 19.0162 29.2334 19.7845 29.8246 20.141L31.1158 18.0003ZM32.9513 20.5671L32.3057 21.6375C32.806 21.9392 33.4485 21.8542 33.8531 21.4327L32.9513 20.5671ZM39.4018 15.6519C39.8799 15.1539 39.8636 14.3626 39.3656 13.8845C38.8675 13.4065 38.0763 13.4227 37.5982 13.9207L39.4018 15.6519ZM14.4142 29.9333C14.8042 29.3637 14.6587 28.5857 14.089 28.1957C13.5194 27.8056 12.7415 27.9512 12.3514 28.5208L14.4142 29.9333ZM10.6353 33.2396L11.2955 34.301C11.4425 34.2096 11.5689 34.0886 11.6667 33.9458L10.6353 33.2396ZM0.839777 37.8605C0.253573 38.2251 0.0739521 38.9959 0.438583 39.5821C0.803214 40.1683 1.57402 40.3479 2.16022 39.9833L0.839777 37.8605ZM31.1005 13.5069C32.7028 13.5069 34.2099 12.8 35.2994 11.592L33.4429 9.91764C32.7976 10.6332 31.9516 11.0069 31.1005 11.0069V13.5069ZM35.2994 11.592C36.3851 10.3883 36.9759 8.78087 36.9759 7.12846H34.4759C34.4759 8.19635 34.0921 9.19784 33.4429 9.91764L35.2994 11.592ZM36.9759 7.12846C36.9759 5.47605 36.3851 3.86864 35.2994 2.6649L33.4429 4.33928C34.0921 5.05909 34.4759 6.06057 34.4759 7.12846H36.9759ZM35.2994 2.6649C34.2099 1.45689 32.7028 0.75 31.1005 0.75V3.25C31.9516 3.25 32.7976 3.62374 33.4429 4.33928L35.2994 2.6649ZM31.1005 0.75C29.4981 0.75 27.9911 1.45689 26.9015 2.6649L28.758 4.33928C29.4034 3.62374 30.2493 3.25 31.1005 3.25V0.75ZM26.9015 2.6649C25.8159 3.86864 25.225 5.47605 25.225 7.12846H27.725C27.725 6.06057 28.1088 5.05909 28.758 4.33928L26.9015 2.6649ZM25.225 7.12846C25.225 8.78087 25.8159 10.3883 26.9015 11.592L28.758 9.91764C28.1088 9.19784 27.725 8.19635 27.725 7.12846H25.225ZM26.9015 11.592C27.9911 12.8 29.4981 13.5069 31.1005 13.5069V11.0069C30.2493 11.0069 29.4034 10.6332 28.758 9.91764L26.9015 11.592ZM9.34518 15.2394L16.7487 12.3961L15.8524 10.0623L8.4489 12.9055L9.34518 15.2394ZM15.7159 12.3341L25.8891 17.7179L27.0585 15.5083L16.8852 10.1244L15.7159 12.3341ZM25.6775 15.6496L15.5043 24.0572L17.0969 25.9842L27.2701 17.5766L25.6775 15.6496ZM15.5636 26.0303L25.7368 33.4563L27.2108 31.4371L17.0375 24.0111L15.5636 26.0303ZM25.4387 31.7459L18.9705 41.2992L21.0406 42.7008L27.5089 33.1475L25.4387 31.7459ZM29.8246 20.141L32.3057 21.6375L33.5969 19.4968L31.1158 18.0003L29.8246 20.141ZM33.8531 21.4327L39.4018 15.6519L37.5982 13.9207L32.0495 19.7015L33.8531 21.4327ZM12.3514 28.5208L9.60391 32.5333L11.6667 33.9458L14.4142 29.9333L12.3514 28.5208ZM9.97507 32.1781L0.839777 37.8605L2.16022 39.9833L11.2955 34.301L9.97507 32.1781Z" fill="url(#paint0_linear_5335_5942)"/>
<defs>
<linearGradient id="paint0_linear_5335_5942" x1="14.7969" y1="42" x2="26.8104" y2="2.48871" gradientUnits="userSpaceOnUse">
<stop stop-color="#2C22F3"/>
<stop offset="1" stop-color="#E7101F"/>
</linearGradient>
</defs>
</svg>
