<svg width="41" height="40" viewBox="0 0 41 40" fill="none" xmlns="http://www.w3.org/2000/svg">
<path fill-rule="evenodd" clip-rule="evenodd" d="M40.3603 1.68913L39.2656 1.515L38.9783 0.443631L40.6298 0L40.3603 1.68913ZM25.6982 17.0277L24.7544 17.6088L24.7522 17.6066L24.7489 17.6011L24.7378 17.5833L24.7001 17.5201L24.567 17.2905C24.4117 17.0189 24.262 16.7441 24.1178 16.4665C23.6612 15.5937 23.2633 14.6915 22.9267 13.7659C22.5518 12.7189 22.2302 11.52 22.1803 10.3599C22.1315 9.20424 22.3466 7.94987 23.2073 6.96612C23.9803 6.08329 25.4376 5.27034 26.9692 4.56718C28.5563 3.8363 30.424 3.13536 32.193 2.5287C34.3842 1.78053 36.5975 1.0985 38.8297 0.483558L38.9406 0.452504L38.9795 0.441413L39.2678 1.51389L40.3625 1.68802L40.3558 1.72905L40.337 1.84661C40.2263 2.52702 40.1102 3.20653 39.9887 3.8851C39.6932 5.55381 39.3708 7.21764 39.0216 8.87595C38.6268 10.7403 38.1676 12.6945 37.6807 14.3304C37.4638 15.0784 37.2095 15.815 36.9188 16.5375C36.6659 17.1474 36.3665 17.7397 36.0027 18.1567C35.2241 19.0462 34.0119 19.3246 32.9527 19.3956C31.8481 19.4699 30.6237 19.3357 29.5223 19.1405C28.5401 18.9637 27.5674 18.7379 26.6077 18.4639C26.215 18.3533 25.8245 18.235 25.4365 18.109L25.3666 18.0846L25.3478 18.078L25.3422 18.0769H25.34L25.6982 17.0277ZM25.6982 17.0277L24.7544 17.6088L24.9629 17.9471L25.34 18.0769L25.6982 17.0277ZM26.4435 16.1038C27.5794 16.457 28.7352 16.7421 29.905 16.9578C30.9298 17.1386 31.9546 17.2406 32.8041 17.1829C33.7014 17.1231 34.1516 16.9035 34.3324 16.6972C34.4478 16.5641 34.6363 16.2491 34.8692 15.6879C35.1303 15.0368 35.3587 14.3732 35.5535 13.6993C36.016 12.1466 36.4607 10.2579 36.8511 8.4179C37.2258 6.63776 37.5689 4.85112 37.8804 3.05884L37.5377 3.15865C36.3077 3.52132 34.6463 4.03261 32.9128 4.62707C31.176 5.22265 29.387 5.89586 27.8953 6.58238C26.3471 7.2944 25.3023 7.941 24.8764 8.42788C24.5359 8.81606 24.3607 9.41385 24.3973 10.2645C24.4328 11.1107 24.6757 12.0723 25.0151 13.0161C25.4025 14.0841 25.8804 15.1171 26.4435 16.1038ZM5.228 4.48067L4.94075 5.55204L3.84498 5.72617L3.57658 4.03815L5.228 4.48067ZM15.9661 18.1589L16.9099 18.739L16.9121 18.7368L16.9144 18.7323L16.9232 18.7179L16.9554 18.6647L17.0663 18.4761C17.5967 17.55 18.0475 16.5805 18.4138 15.5781C18.7221 14.7175 18.9905 13.7204 19.0316 12.7488C19.0737 11.7806 18.8941 10.7004 18.1465 9.84639C17.4855 9.09 16.2622 8.41568 15.02 7.8434C13.7213 7.2456 12.1963 6.67332 10.7556 6.17978C8.97118 5.57095 7.16886 5.01579 5.35111 4.51506L5.26016 4.48955L5.228 4.48067L4.94075 5.55204L3.84498 5.72617L3.85052 5.75944L3.86605 5.85593L3.92594 6.21749C4.22512 8.01147 4.56199 9.79896 4.93631 11.5788C5.25794 13.096 5.63281 14.6897 6.02986 16.0262C6.2295 16.6938 6.438 17.316 6.65649 17.8406C6.86389 18.3397 7.11787 18.8488 7.43728 19.2126C8.12491 20 9.18186 20.2329 10.0569 20.2906C10.9797 20.3527 11.9923 20.2407 12.8962 20.0821C14.0313 19.8791 15.1505 19.596 16.2456 19.2347L16.3188 19.2103L16.3243 19.2081L15.9661 18.1589ZM15.9661 18.1589L16.9099 18.739L16.7014 19.0784L16.3243 19.2081L15.9661 18.1589ZM15.2197 17.234C15.2899 17.1083 15.372 16.9556 15.4659 16.7759C15.7299 16.268 16.0581 15.5759 16.3254 14.8284C16.5972 14.072 16.7879 13.3123 16.8156 12.6546C16.8445 11.9902 16.7047 11.5677 16.4774 11.3059C16.1635 10.9488 15.3539 10.4386 14.0929 9.85859C12.8906 9.30516 11.4444 8.7606 10.0359 8.27816C8.80888 7.85917 7.57308 7.46646 6.32931 7.10032L6.33375 7.12804C6.52229 8.19276 6.79069 9.63012 7.10678 11.1196C7.42286 12.6124 7.78331 14.1396 8.15596 15.394C8.3434 16.0217 8.5275 16.5641 8.70496 16.99C8.8935 17.4414 9.03546 17.6709 9.10644 17.753C9.19739 17.8562 9.49129 18.0303 10.2055 18.078C10.8721 18.1223 11.6862 18.0425 12.5113 17.8972C13.4271 17.7328 14.3317 17.512 15.2197 17.234ZM12.7908 27.8068C12.5091 27.8223 12.3716 27.8622 12.3361 27.8778C11.8337 28.1051 10.3076 28.6375 8.98999 29.0867C8.31345 29.3185 7.66464 29.5358 7.18552 29.6967L7.15447 29.7078V35.7001C7.34966 35.6912 7.55928 35.6835 7.77333 35.6757C8.69165 35.6424 9.78409 35.6092 10.2577 35.6291C12.2451 35.7079 13.738 36.1781 15.1199 36.614L15.1498 36.624C16.4452 37.0321 17.6452 37.407 19.2168 37.5256C19.6604 37.5589 20.0919 37.6022 20.4945 37.6421H20.5C22.0461 37.7974 23.0642 37.875 23.8527 37.5889C24.4661 37.3659 26.7119 36.3245 28.9767 35.1855C30.0969 34.6221 31.1948 34.0487 32.0677 33.5574C32.5058 33.3111 32.8773 33.0916 33.1623 32.9074C33.3036 32.8158 33.4174 32.7381 33.5039 32.6745L33.6038 32.5969L33.6348 32.5703C33.7457 32.4583 33.8633 32.0679 33.6725 31.7008C33.5827 31.5291 33.4344 31.3953 33.2544 31.3237C33.0326 31.2272 32.6555 31.1529 32.0566 31.2516C30.7057 31.4734 29.092 32.1233 27.4805 32.7788L27.4584 32.7888C26.6665 33.1104 25.8724 33.4331 25.1681 33.6683C24.4916 33.8934 23.7407 34.0953 23.0864 34.0564C22.188 34.001 20.612 33.7681 19.3122 33.5574C18.5652 33.4366 17.8191 33.3101 17.0741 33.1781L16.9299 33.1525L16.8789 33.1426L17.0896 30.9422L22.1581 31.0032H22.1692C22.2284 30.9968 22.287 30.9857 22.3444 30.9699C22.5196 30.9255 22.8202 30.8157 23.1984 30.5484C23.3148 30.4653 23.4679 30.3122 23.611 30.107C23.6701 30.0213 23.7204 29.9377 23.7618 29.8564C23.1439 29.8166 22.5299 29.7298 21.9252 29.5968C21.5959 29.5251 21.2693 29.4419 20.9458 29.3473L20.9081 29.3362L14.7006 27.9543L14.6419 27.9443L14.4089 27.9088C14.1553 27.8715 13.9004 27.8431 13.6448 27.8234C13.3608 27.7996 13.0755 27.794 12.7908 27.8068ZM15.1188 25.7783L15.1387 25.7816L21.4804 27.1924L21.527 27.2068L21.5359 27.2101L21.578 27.2223L21.7533 27.2722C21.9074 27.3144 22.1292 27.372 22.3932 27.4297C22.9322 27.5462 23.6065 27.6537 24.2298 27.6537C24.8542 27.6537 25.533 27.8867 25.899 28.5499C26.2118 29.1177 26.1341 29.7322 26.0243 30.1381C25.9222 30.4969 25.7702 30.8396 25.5729 31.1562C25.9108 31.0231 26.2679 30.8797 26.6443 30.7259L26.7131 30.6971C28.2414 30.076 30.0736 29.3307 31.6961 29.0634C33.5816 28.7551 34.9956 29.4316 35.6422 30.6826C36.2123 31.7862 36.0859 33.2413 35.2152 34.1263C34.9968 34.3481 34.6718 34.5733 34.3613 34.774C33.9657 35.0242 33.5633 35.2635 33.1546 35.4916C32.2396 36.0062 31.1072 36.5973 29.9715 37.1685C27.729 38.2965 25.3666 39.4 24.608 39.675C23.2927 40.1519 21.771 40 20.419 39.8647L20.2782 39.8503C19.869 39.8083 19.4594 39.7714 19.0493 39.7394C17.2083 39.5996 15.7975 39.1549 14.5088 38.749L14.481 38.7401C13.0947 38.3031 11.8459 37.9138 10.1689 37.8462C9.80073 37.8317 8.80921 37.8584 7.85319 37.8939C7.31482 37.9134 6.77655 37.9352 6.23837 37.9593L4.9352 38.0192V28.1085L5.90786 27.7857C6.69711 27.5234 7.4853 27.258 8.27242 26.9894C9.65211 26.518 11.0429 26.0289 11.4222 25.8581C11.8292 25.674 12.2917 25.6142 12.6621 25.592C13.0559 25.5698 13.4607 25.5864 13.8145 25.613C14.2403 25.6471 14.6644 25.7 15.0855 25.7716L15.1088 25.7761H15.1154L15.1188 25.7783Z" fill="url(#paint0_linear_5255_12824)"/>
<path fill-rule="evenodd" clip-rule="evenodd" d="M32.8296 8.10292C32.9403 8.19759 33.0313 8.31313 33.0973 8.44296C33.1634 8.57278 33.2032 8.71434 33.2145 8.85955C33.2258 9.00477 33.2085 9.15079 33.1633 9.28928C33.1182 9.42778 33.0463 9.55603 32.9516 9.66672C29.6455 13.5241 25.5297 19.1771 23.713 23.772C23.6594 23.9074 23.5796 24.031 23.4783 24.1356C23.3769 24.2402 23.256 24.3239 23.1223 24.3818C22.9886 24.4396 22.8449 24.4706 22.6992 24.4729C22.5535 24.4753 22.4089 24.4489 22.2734 24.3953C22.138 24.3417 22.0144 24.2619 21.9098 24.1606C21.8051 24.0592 21.7215 23.9382 21.6636 23.8046C21.6057 23.6709 21.5748 23.5271 21.5724 23.3815C21.5701 23.2358 21.5965 23.0911 21.6501 22.9557C23.6054 18.0103 27.9175 12.1311 31.2658 8.22381C31.4573 8.00057 31.7296 7.86254 32.0229 7.84007C32.3162 7.81761 32.6064 7.91145 32.8296 8.10292ZM10.9031 11.6608C10.7888 11.7511 10.6933 11.863 10.6222 11.9902C10.5511 12.1174 10.5058 12.2573 10.4888 12.4021C10.4718 12.5468 10.4835 12.6934 10.5232 12.8336C10.5629 12.9738 10.6298 13.1048 10.7202 13.2191C13.2067 16.3744 15.9217 20.4126 17.2105 23.762C17.3211 24.0293 17.5319 24.2428 17.7977 24.357C18.0636 24.4711 18.3635 24.4768 18.6335 24.3729C18.9036 24.269 19.1223 24.0637 19.2431 23.8008C19.3638 23.5379 19.3771 23.2382 19.28 22.9657C17.8704 19.3013 14.9901 15.0524 12.4614 11.8461C12.2794 11.6151 12.0132 11.4658 11.7212 11.4311C11.4292 11.3963 11.1342 11.479 10.9031 11.6608Z" fill="url(#paint1_linear_5255_12824)"/>
<path d="M0.5 25.582H7.15447V40H0.5V25.582Z" fill="url(#paint2_linear_5255_12824)"/>
<defs>
<linearGradient id="paint0_linear_5255_12824" x1="33.2684" y1="28.6397" x2="33.2684" y2="36.6506" gradientUnits="userSpaceOnUse">
<stop stop-color="#ED3040"/>
<stop offset="1" stop-color="#2D23F4"/>
</linearGradient>
<linearGradient id="paint1_linear_5255_12824" x1="33.2684" y1="28.6397" x2="33.2684" y2="36.6506" gradientUnits="userSpaceOnUse">
<stop stop-color="#ED3040"/>
<stop offset="1" stop-color="#2D23F4"/>
</linearGradient>
<linearGradient id="paint2_linear_5255_12824" x1="33.2684" y1="28.6397" x2="33.2684" y2="36.6506" gradientUnits="userSpaceOnUse">
<stop stop-color="#ED3040"/>
<stop offset="1" stop-color="#2D23F4"/>
</linearGradient>
</defs>
</svg>
