<svg width="43" height="40" viewBox="0 0 43 40" fill="none" xmlns="http://www.w3.org/2000/svg">
<path d="M16.5 3.2H26.1C26.5243 3.2 26.9313 3.36857 27.2314 3.66863C27.5314 3.96869 27.7 4.37565 27.7 4.8V8H14.9V4.8C14.9 4.37565 15.0686 3.96869 15.3686 3.66863C15.6687 3.36857 16.0757 3.2 16.5 3.2ZM11.7 4.8V8H7.7C5.79044 8 3.95909 8.75857 2.60883 10.1088C1.25857 11.4591 0.5 13.2904 0.5 15.2V32.8C0.5 34.7096 1.25857 36.5409 2.60883 37.8912C3.95909 39.2414 5.79044 40 7.7 40H34.9C36.8096 40 38.6409 39.2414 39.9912 37.8912C41.3414 36.5409 42.1 34.7096 42.1 32.8V15.2C42.1 13.2904 41.3414 11.4591 39.9912 10.1088C38.6409 8.75857 36.8096 8 34.9 8H30.9V4.8C30.9 3.52696 30.3943 2.30606 29.4941 1.40589C28.5939 0.505713 27.373 0 26.1 0H16.5C15.227 0 14.0061 0.505713 13.1059 1.40589C12.2057 2.30606 11.7 3.52696 11.7 4.8ZM38.9 17.6C38.9 18.873 38.3943 20.0939 37.4941 20.9941C36.5939 21.8943 35.373 22.4 34.1 22.4H26.1V21.6C26.1 20.9635 25.8471 20.353 25.3971 19.9029C24.947 19.4529 24.3365 19.2 23.7 19.2H18.9C18.2635 19.2 17.653 19.4529 17.2029 19.9029C16.7529 20.353 16.5 20.9635 16.5 21.6V22.4H8.5C7.22696 22.4 6.00606 21.8943 5.10589 20.9941C4.20571 20.0939 3.7 18.873 3.7 17.6V15.2C3.7 14.1391 4.12143 13.1217 4.87157 12.3716C5.62172 11.6214 6.63913 11.2 7.7 11.2H34.9C35.9609 11.2 36.9783 11.6214 37.7284 12.3716C38.4786 13.1217 38.9 14.1391 38.9 15.2V17.6ZM16.5 25.6V26.4C16.5 27.0365 16.7529 27.647 17.2029 28.0971C17.653 28.5471 18.2635 28.8 18.9 28.8H23.7C24.3365 28.8 24.947 28.5471 25.3971 28.0971C25.8471 27.647 26.1 27.0365 26.1 26.4V25.6H34.1C35.8313 25.6023 37.5163 25.0407 38.9 24V32.8C38.9 33.8609 38.4786 34.8783 37.7284 35.6284C36.9783 36.3786 35.9609 36.8 34.9 36.8H7.7C6.63913 36.8 5.62172 36.3786 4.87157 35.6284C4.12143 34.8783 3.7 33.8609 3.7 32.8V24C5.0376 25.0048 6.6984 25.6 8.5 25.6H16.5Z" fill="url(#paint0_linear_5335_4091)"/>
<defs>
<linearGradient id="paint0_linear_5335_4091" x1="34.4689" y1="28.6397" x2="34.4689" y2="36.6506" gradientUnits="userSpaceOnUse">
<stop stop-color="#ED3040"/>
<stop offset="1" stop-color="#2D23F4"/>
</linearGradient>
</defs>
</svg>
