<svg width="47" height="40" viewBox="0 0 47 40" fill="none" xmlns="http://www.w3.org/2000/svg">
<path d="M24.9959 1.5V5H28.9459C29.6479 5 30.3339 5.212 30.9139 5.606L34.3079 7.914C34.3919 7.97 34.4853 7.99867 34.5879 8H42.7919C43.1898 8 43.5713 8.15804 43.8526 8.43934C44.1339 8.72064 44.2919 9.10218 44.2919 9.5C44.2919 9.89782 44.1339 10.2794 43.8526 10.5607C43.5713 10.842 43.1898 11 42.7919 11H39.6359L46.3679 26.36C46.5026 26.6671 46.5305 27.0105 46.4471 27.3354C46.3637 27.6602 46.1739 27.9477 45.9079 28.152C45.7079 28.3 45.5013 28.4373 45.2879 28.564C44.7816 28.8685 44.2535 29.1353 43.7079 29.362C41.8989 30.1185 39.9568 30.5054 37.9959 30.5C36.0356 30.5085 34.0937 30.1222 32.2859 29.364C31.7403 29.1366 31.2122 28.8692 30.7059 28.564C30.4932 28.442 30.2881 28.3071 30.0919 28.16L30.0819 28.152C29.816 27.9477 29.6261 27.6602 29.5427 27.3354C29.4594 27.0105 29.4872 26.6671 29.6219 26.36L36.3579 11H34.5859C33.8839 11 33.1979 10.788 32.6179 10.394L29.2239 8.086C29.1413 8.03003 29.0438 8.00007 28.9439 8H24.9959V37H33.9699C34.3677 37 34.7493 37.158 35.0306 37.4393C35.3119 37.7206 35.4699 38.1022 35.4699 38.5C35.4699 38.8978 35.3119 39.2794 35.0306 39.5607C34.7493 39.842 34.3677 40 33.9699 40H13.0219C12.6241 40 12.2426 39.842 11.9613 39.5607C11.68 39.2794 11.5219 38.8978 11.5219 38.5C11.5219 38.1022 11.68 37.7206 11.9613 37.4393C12.2426 37.158 12.6241 37 13.0219 37H21.9959V8H18.0459C17.9461 8.00007 17.8486 8.03003 17.7659 8.086L14.3739 10.394C13.7939 10.788 13.1079 11 12.4059 11H10.6339L17.3699 26.36C17.5003 26.6584 17.53 26.9911 17.4546 27.3079C17.3792 27.6247 17.2028 27.9083 16.9519 28.116C16.7919 28.246 16.6319 28.368 16.3319 28.562C15.8264 28.89 15.2969 29.1795 14.7479 29.428C12.942 30.25 10.9801 30.673 8.99593 30.668C7.01175 30.673 5.04982 30.25 3.24393 29.428C2.69493 29.1795 2.16543 28.89 1.65993 28.562C1.44704 28.4245 1.24081 28.277 1.04193 28.12C0.792558 27.9104 0.617134 27.6262 0.541516 27.3093C0.465898 26.9924 0.494087 26.6596 0.621928 26.36L7.35593 11H4.20193C3.8041 11 3.42257 10.842 3.14127 10.5607C2.85996 10.2794 2.70193 9.89782 2.70193 9.5C2.70193 9.10218 2.85996 8.72064 3.14127 8.43934C3.42257 8.15804 3.8041 8 4.20193 8H12.4059C12.5073 8 12.6013 7.97133 12.6879 7.914L16.0779 5.606C16.6579 5.21 17.3459 5 18.0479 5H21.9959V1.5C21.9959 1.10218 22.154 0.720644 22.4353 0.43934C22.7166 0.158035 23.0981 0 23.4959 0C23.8938 0 24.2753 0.158035 24.5566 0.43934C24.8379 0.720644 24.9959 1.10218 24.9959 1.5ZM3.88193 26.396C5.45559 27.2351 7.21255 27.6714 8.99593 27.666C10.7793 27.6714 12.5363 27.2351 14.1099 26.396L8.99593 14.736L3.88193 26.396ZM32.9019 26.348C33.0659 26.428 33.2493 26.512 33.4519 26.6C34.5119 27.046 36.0619 27.5 37.9959 27.5C39.759 27.5047 41.5004 27.1109 43.0899 26.348L37.9959 14.734L32.9019 26.348Z" fill="url(#paint0_linear_5335_1691)"/>
<defs>
<linearGradient id="paint0_linear_5335_1691" x1="38.0571" y1="28.6397" x2="38.0571" y2="36.6506" gradientUnits="userSpaceOnUse">
<stop stop-color="#ED3040"/>
<stop offset="1" stop-color="#2D23F4"/>
</linearGradient>
</defs>
</svg>
