<svg width="40" height="44" viewBox="0 0 40 44" fill="none" xmlns="http://www.w3.org/2000/svg">
<path d="M0.25 26C0.25 26.6904 0.809644 27.25 1.5 27.25C2.19036 27.25 2.75 26.6904 2.75 26H0.25ZM36.3318 12.344L35.4138 13.1924L35.4148 13.1935L36.3318 12.344ZM37.0664 18.1125C37.1285 18.8001 37.7362 19.3071 38.4238 19.2449C39.1114 19.1828 39.6184 18.5751 39.5562 17.8875L37.0664 18.1125ZM39.75 26C39.75 25.3096 39.1904 24.75 38.5 24.75C37.8096 24.75 37.25 25.3096 37.25 26H39.75ZM3.6682 39.656L4.58619 38.8076L4.58518 38.8065L3.6682 39.656ZM2.93363 33.8875C2.8715 33.1999 2.26376 32.6929 1.5762 32.7551C0.888647 32.8172 0.381642 33.4249 0.443773 34.1125L2.93363 33.8875ZM22.775 27.25C23.4654 27.25 24.025 26.6904 24.025 26C24.025 25.3096 23.4654 24.75 22.775 24.75V27.25ZM17.225 24.75C16.5346 24.75 15.975 25.3096 15.975 26C15.975 26.6904 16.5346 27.25 17.225 27.25V24.75ZM21.25 23C21.25 22.3096 20.6904 21.75 20 21.75C19.3096 21.75 18.75 22.3096 18.75 23H21.25ZM18.75 29C18.75 29.6904 19.3096 30.25 20 30.25C20.6904 30.25 21.25 29.6904 21.25 29H18.75ZM2.75 26C2.75 22.1962 2.75228 19.4596 3.01146 17.3763C3.26734 15.3196 3.75475 14.0905 4.58546 13.1932L2.75094 11.4948C1.41345 12.9395 0.816761 14.7674 0.530587 17.0677C0.247721 19.3414 0.25 22.2618 0.25 26H2.75ZM4.58546 13.1932C5.40388 12.3092 6.50354 11.8011 8.36107 11.5307C10.2652 11.2536 12.7739 11.25 16.3 11.25V8.75C12.8497 8.75 10.1267 8.74741 8.00101 9.05678C5.82879 9.37293 4.10072 10.0368 2.75094 11.4948L4.58546 13.1932ZM16.3 11.25H23.7V8.75H16.3V11.25ZM23.7 11.25C27.2263 11.25 29.7354 11.2531 31.6398 11.53C33.4976 11.8001 34.5966 12.3082 35.4138 13.1924L37.2498 11.4956C35.9007 10.0358 34.172 9.37188 31.9995 9.05601C29.8737 8.7469 27.15 8.75 23.7 8.75V11.25ZM35.4148 13.1935C36.3424 14.1947 36.8399 15.6061 37.0664 18.1125L39.5562 17.8875C39.3128 15.1939 38.741 13.1053 37.2488 11.4945L35.4148 13.1935ZM37.25 26C37.25 29.8038 37.2477 32.5404 36.9885 34.6237C36.7327 36.6804 36.2452 37.9095 35.4145 38.8068L37.2491 40.5052C38.5866 39.0605 39.1832 37.2326 39.4694 34.9323C39.7523 32.6586 39.75 29.7382 39.75 26H37.25ZM35.4145 38.8068C34.5961 39.6908 33.4965 40.1989 31.6389 40.4693C29.7348 40.7464 27.2261 40.75 23.7 40.75V43.25C27.1503 43.25 29.8733 43.2526 31.999 42.9432C34.1712 42.6271 35.8993 41.9632 37.2491 40.5052L35.4145 38.8068ZM23.7 40.75H16.3V43.25H23.7V40.75ZM16.3 40.75C12.7737 40.75 10.2646 40.7469 8.36021 40.47C6.50243 40.1999 5.40341 39.6918 4.58619 38.8076L2.75021 40.5044C4.09934 41.9642 5.82804 42.6281 8.00049 42.944C10.1263 43.2531 12.85 43.25 16.3 43.25V40.75ZM4.58518 38.8065C3.65761 37.8053 3.16012 36.3939 2.93363 33.8875L0.443773 34.1125C0.687182 36.8061 1.25899 38.8947 2.75122 40.5055L4.58518 38.8065ZM28.65 10C28.65 8.14678 28.6523 6.64085 28.5049 5.45664C28.3542 4.2456 28.0285 3.18263 27.2335 2.3232L25.3983 4.0208C25.6874 4.33337 25.9037 4.7984 26.0241 5.76536C26.1477 6.75915 26.15 8.08122 26.15 10H28.65ZM27.2335 2.3232C26.4258 1.44994 25.4047 1.07894 24.2397 0.909513C23.1216 0.746903 21.7064 0.75 20 0.75V3.25C21.7827 3.25 22.9834 3.2531 23.8799 3.38349C24.7296 3.50706 25.1219 3.72206 25.3983 4.0208L27.2335 2.3232ZM20 0.75C18.2936 0.75 16.8784 0.746903 15.7603 0.909513C14.5953 1.07893 13.5742 1.44994 12.7665 2.3232L14.6017 4.0208C14.8781 3.72206 15.2704 3.50706 16.1201 3.38349C17.0166 3.2531 18.2173 3.25 20 3.25V0.75ZM12.7665 2.3232C11.9715 3.18263 11.6458 4.2456 11.4951 5.45664C11.3477 6.64085 11.35 8.14678 11.35 10H13.85C13.85 8.08122 13.8523 6.75915 13.9759 5.76536C14.0963 4.7984 14.3126 4.33337 14.6017 4.0208L12.7665 2.3232ZM22.775 24.75H17.225V27.25H22.775V24.75ZM18.75 23V29H21.25V23H18.75ZM26.15 26C26.15 29.8215 23.3066 32.75 20 32.75V35.25C24.8672 35.25 28.65 31.0151 28.65 26H26.15ZM20 32.75C16.6934 32.75 13.85 29.8215 13.85 26H11.35C11.35 31.0151 15.1328 35.25 20 35.25V32.75ZM13.85 26C13.85 22.1785 16.6934 19.25 20 19.25V16.75C15.1328 16.75 11.35 20.9849 11.35 26H13.85ZM20 19.25C23.3066 19.25 26.15 22.1785 26.15 26H28.65C28.65 20.9849 24.8672 16.75 20 16.75V19.25Z" fill="url(#paint0_linear_5335_6452)"/>
<defs>
<linearGradient id="paint0_linear_5335_6452" x1="14.7969" y1="42" x2="26.8104" y2="2.48871" gradientUnits="userSpaceOnUse">
<stop stop-color="#2C22F3"/>
<stop offset="1" stop-color="#E7101F"/>
</linearGradient>
</defs>
</svg>
