<svg width="32" height="44" viewBox="0 0 32 44" fill="none" xmlns="http://www.w3.org/2000/svg">
<path d="M1.5 19.7776C1.5 21.8204 1.87505 23.8432 2.60375 25.7305C3.33244 27.6178 4.4005 29.3327 5.74695 30.7771C7.0934 32.2216 8.69187 33.3674 10.4511 34.1492C12.2103 34.9309 14.0958 35.3333 16 35.3333C17.9042 35.3333 19.7897 34.9309 21.5489 34.1492C23.3081 33.3674 24.9066 32.2216 26.253 30.7771C27.5995 29.3327 28.6676 27.6178 29.3963 25.7305C30.1249 23.8432 30.5 21.8204 30.5 19.7776M16 42V37.5555M16.0008 2C19.4329 2 22.2151 4.98479 22.2151 8.66671V19.7779C22.2151 23.4598 19.4329 26.4446 16.0008 26.4446C12.5688 26.4446 9.78652 23.4598 9.78652 19.7779V8.66671C9.78652 4.98479 12.5688 2 16.0008 2Z" stroke="url(#paint0_linear_5335_5667)" stroke-width="2.5" stroke-linecap="round" stroke-linejoin="round"/>
<defs>
<linearGradient id="paint0_linear_5335_5667" x1="11.9219" y1="42" x2="26.4762" y2="4.48202" gradientUnits="userSpaceOnUse">
<stop stop-color="#2C22F3"/>
<stop offset="1" stop-color="#E7101F"/>
</linearGradient>
</defs>
</svg>
