<svg width="41" height="40" viewBox="0 0 41 40" fill="none" xmlns="http://www.w3.org/2000/svg">
<path d="M36.2146 0C36.5934 0 36.9568 0.150494 37.2247 0.418374C37.4926 0.686255 37.6431 1.04958 37.6431 1.42842V2.85684H39.0715C39.4504 2.85684 39.8137 3.00733 40.0816 3.27521C40.3495 3.54309 40.5 3.90642 40.5 4.28526C40.5 4.6641 40.3495 5.02742 40.0816 5.2953C39.8137 5.56318 39.4504 5.71368 39.0715 5.71368H37.6431V7.1421C37.6431 7.52094 37.4926 7.88426 37.2247 8.15214C36.9568 8.42002 36.5934 8.57052 36.2146 8.57052C35.8357 8.57052 35.4724 8.42002 35.2045 8.15214C34.9366 7.88426 34.7861 7.52094 34.7861 7.1421V5.71368H33.3577C32.9788 5.71368 32.6155 5.56318 32.3476 5.2953C32.0797 5.02742 31.9292 4.6641 31.9292 4.28526C31.9292 3.90642 32.0797 3.54309 32.3476 3.27521C32.6155 3.00733 32.9788 2.85684 33.3577 2.85684H34.7861V1.42842C34.7861 1.04958 34.9366 0.686255 35.2045 0.418374C35.4724 0.150494 35.8357 0 36.2146 0ZM7.64518 5.71368C8.02404 5.71368 8.38737 5.86417 8.65526 6.13205C8.92315 6.39993 9.07365 6.76326 9.07365 7.1421V8.57052H10.5021C10.881 8.57052 11.2443 8.72101 11.5122 8.98889C11.7801 9.25677 11.9306 9.62009 11.9306 9.99893C11.9306 10.3778 11.7801 10.7411 11.5122 11.009C11.2443 11.2769 10.881 11.4274 10.5021 11.4274H9.07365V12.8558C9.07365 13.2346 8.92315 13.5979 8.65526 13.8658C8.38737 14.1337 8.02404 14.2842 7.64518 14.2842C7.26633 14.2842 6.90299 14.1337 6.6351 13.8658C6.36721 13.5979 6.21671 13.2346 6.21671 12.8558V11.4274H4.78824C4.40939 11.4274 4.04605 11.2769 3.77816 11.009C3.51027 10.7411 3.35977 10.3778 3.35977 9.99893C3.35977 9.62009 3.51027 9.25677 3.77816 8.98889C4.04605 8.72101 4.40939 8.57052 4.78824 8.57052H6.21671V7.1421C6.21671 6.76326 6.36721 6.39993 6.6351 6.13205C6.90299 5.86417 7.26633 5.71368 7.64518 5.71368ZM33.3577 31.4252C33.7365 31.4252 34.0998 31.2747 34.3677 31.0068C34.6356 30.739 34.7861 30.3756 34.7861 29.9968C34.7861 29.618 34.6356 29.2546 34.3677 28.9868C34.0998 28.7189 33.7365 28.5684 33.3577 28.5684H31.9292V27.14C31.9292 26.7611 31.7787 26.3978 31.5108 26.1299C31.2429 25.862 30.8796 25.7115 30.5007 25.7115C30.1219 25.7115 29.7585 25.862 29.4906 26.1299C29.2227 26.3978 29.0722 26.7611 29.0722 27.14V28.5684H27.6438C27.2649 28.5684 26.9016 28.7189 26.6337 28.9868C26.3658 29.2546 26.2153 29.618 26.2153 29.9968C26.2153 30.3756 26.3658 30.739 26.6337 31.0068C26.9016 31.2747 27.2649 31.4252 27.6438 31.4252H29.0722V32.8536C29.0722 33.2325 29.2227 33.5958 29.4906 33.8637C29.7585 34.1316 30.1219 34.2821 30.5007 34.2821C30.8796 34.2821 31.2429 34.1316 31.5108 33.8637C31.7787 33.5958 31.9292 33.2325 31.9292 32.8536V31.4252H33.3577ZM22.587 10.1789C23.6129 9.1534 25.0042 8.57741 26.4549 8.57768C27.9055 8.57795 29.2966 9.15444 30.3221 10.1803C31.3477 11.2062 31.9237 12.5975 31.9234 14.0481C31.9232 15.4987 31.3467 16.8897 30.3207 17.9152L9.83646 38.3988C8.81052 39.4243 7.4192 40.0003 5.96858 40C4.51795 39.9997 3.12685 39.4232 2.10129 38.3973C1.07573 37.3714 0.499732 35.9802 0.5 34.5296C0.500268 33.079 1.07678 31.688 2.10272 30.6624L22.587 10.1789ZM21.2157 15.5898L4.12258 32.6822C3.63272 33.1721 3.35752 33.8364 3.35752 34.5292C3.35752 35.2219 3.63272 35.8863 4.12258 36.3761C4.61243 36.866 5.27682 37.1412 5.96959 37.1412C6.66235 37.1412 7.32674 36.866 7.8166 36.3761L24.9097 19.2837L21.2157 15.5898ZM26.9295 17.2639L28.3009 15.8926C28.548 15.6511 28.7447 15.363 28.8796 15.0449C29.0146 14.7268 29.0851 14.3851 29.087 14.0396C29.0889 13.6941 29.0222 13.3517 28.8908 13.0321C28.7594 12.7126 28.5659 12.4223 28.3215 12.1781C28.0771 11.9339 27.7866 11.7406 27.4669 11.6094C27.1473 11.4783 26.8048 11.4119 26.4593 11.414C26.1137 11.4162 25.7721 11.487 25.4541 11.6221C25.1361 11.7573 24.8481 11.9543 24.6068 12.2016L23.2355 13.5728L26.9295 17.2639Z" fill="url(#paint0_linear_5255_5963)"/>
<defs>
<linearGradient id="paint0_linear_5255_5963" x1="33.1624" y1="28.6397" x2="33.1624" y2="36.6506" gradientUnits="userSpaceOnUse">
<stop stop-color="#ED3040"/>
<stop offset="1" stop-color="#2D23F4"/>
</linearGradient>
</defs>
</svg>
