<svg width="41" height="40" viewBox="0 0 41 40" fill="none" xmlns="http://www.w3.org/2000/svg">
<path d="M20.7 28.05C20.7 28.27 20.87 28.45 21.075 28.45H30.325C30.53 28.45 30.7 28.27 30.7 28.05V25.65C30.7 25.43 30.53 25.25 30.325 25.25H21.075C20.87 25.25 20.7 25.43 20.7 25.65V28.05ZM10.955 28.355L20.555 20.305C20.745 20.145 20.745 19.85 20.555 19.69L10.955 11.645C10.897 11.5957 10.8262 11.5641 10.7508 11.5539C10.6754 11.5437 10.5987 11.5554 10.5297 11.5875C10.4607 11.6196 10.4024 11.6708 10.3617 11.7351C10.321 11.7993 10.2996 11.8739 10.3 11.95V15.085C10.3 15.205 10.35 15.315 10.445 15.39L15.935 20L10.445 24.61C10.4003 24.6474 10.3642 24.694 10.3392 24.7467C10.3142 24.7993 10.3008 24.8567 10.3 24.915V28.05C10.3 28.39 10.695 28.575 10.955 28.355ZM38.9 0H2.1C1.215 0 0.5 0.715 0.5 1.6V38.4C0.5 39.285 1.215 40 2.1 40H38.9C39.785 40 40.5 39.285 40.5 38.4V1.6C40.5 0.715 39.785 0 38.9 0ZM36.9 36.4H4.1V3.6H36.9V36.4Z" fill="url(#paint0_linear_5335_5934)"/>
<defs>
<linearGradient id="paint0_linear_5335_5934" x1="33.1624" y1="28.6397" x2="33.1624" y2="36.6506" gradientUnits="userSpaceOnUse">
<stop stop-color="#ED3040"/>
<stop offset="1" stop-color="#2D23F4"/>
</linearGradient>
</defs>
</svg>
