<svg width="43" height="40" viewBox="0 0 43 40" fill="none" xmlns="http://www.w3.org/2000/svg">
<path d="M22.0976 35.4212C23.5978 35.3186 25.0854 35.079 26.5419 34.7054C28.3408 35.2462 30.2396 35.3686 32.093 35.0633C32.167 35.0543 32.2414 35.0487 32.3158 35.0467C32.9771 35.0467 33.8447 35.4259 35.1104 36.2247V34.9116C35.1109 34.6828 35.1728 34.4584 35.2895 34.2616C35.4062 34.0649 35.5735 33.903 35.7741 33.7928C36.3255 33.4815 36.8351 33.1315 37.3029 32.7428C39.1469 31.2021 40.1875 29.1448 40.1875 26.9689C40.1875 26.2507 40.0737 25.5348 39.8485 24.8522C40.4079 23.8235 40.8535 22.7498 41.1854 21.631C42.252 23.2072 42.8256 25.0679 42.8327 26.9689C42.8327 29.9269 41.439 32.6859 39.0237 34.703C38.6192 35.0396 38.1965 35.3493 37.7556 35.6322V38.7088C37.7556 39.7659 36.5183 40.3751 35.6461 39.7446C34.8196 39.1364 33.9654 38.567 33.0862 38.038C32.8322 37.8915 32.5694 37.7609 32.2993 37.6469C31.5655 37.7555 30.8248 37.8102 30.0831 37.8104C27.0728 37.8104 24.2901 36.9168 22.0976 35.4212ZM6.1671 29.2704C2.3652 26.0871 0.167969 21.7472 0.167969 17.0967C0.167969 7.59669 9.25082 0 20.3413 0C31.4341 0 40.5193 7.59432 40.5193 17.0967C40.5193 26.5967 31.4341 34.191 20.3413 34.191C19.0945 34.191 17.8659 34.0962 16.6555 33.9066C16.1341 34.0275 14.0435 35.2529 11.0333 37.4217C9.94293 38.2086 8.39752 37.4502 8.39752 36.1252V30.8798C7.61681 30.3972 6.87217 29.8585 6.16947 29.268M16.729 30.6712C16.8206 30.6712 16.9131 30.6783 17.0063 30.6925C18.0966 30.8727 19.2083 30.9635 20.3413 30.9651C29.7109 30.9651 37.2081 24.6958 37.2081 17.0943C37.2081 9.49527 29.7109 3.22593 20.3436 3.22593C10.9764 3.22593 3.47449 9.50001 3.47449 17.0967C3.47449 20.7706 5.22848 24.2312 8.32404 26.8219C9.10465 27.4729 9.95478 28.0576 10.8744 28.5759C11.1239 28.7143 11.3322 28.9165 11.4779 29.1618C11.6237 29.4071 11.7017 29.6867 11.704 29.972V32.9964C14.0862 31.4202 15.6529 30.6712 16.729 30.6712Z" fill="url(#paint0_linear_5335_6197)"/>
<path d="M12.1674 20.0014C12.8746 20.0014 13.5529 19.7205 14.053 19.2204C14.553 18.7203 14.834 18.0421 14.834 17.3349C14.834 16.6277 14.553 15.9494 14.053 15.4493C13.5529 14.9493 12.8746 14.6683 12.1674 14.6683C11.4602 14.6683 10.782 14.9493 10.2819 15.4493C9.78182 15.9494 9.50088 16.6277 9.50088 17.3349C9.50088 18.0421 9.78182 18.7203 10.2819 19.2204C10.782 19.7205 11.4602 20.0014 12.1674 20.0014ZM20.8355 20.0014C21.5427 20.0014 22.2209 19.7205 22.721 19.2204C23.2211 18.7203 23.502 18.0421 23.502 17.3349C23.502 16.6277 23.2211 15.9494 22.721 15.4493C22.2209 14.9493 21.5427 14.6683 20.8355 14.6683C20.1283 14.6683 19.45 14.9493 18.9499 15.4493C18.4499 15.9494 18.1689 16.6277 18.1689 17.3349C18.1689 18.0421 18.4499 18.7203 18.9499 19.2204C19.45 19.7205 20.1283 20.0014 20.8355 20.0014ZM29.5012 20.0014C30.2084 20.0014 30.8866 19.7205 31.3867 19.2204C31.8868 18.7203 32.1677 18.0421 32.1677 17.3349C32.1677 16.6277 31.8868 15.9494 31.3867 15.4493C30.8866 14.9493 30.2084 14.6683 29.5012 14.6683C28.7939 14.6683 28.1157 14.9493 27.6156 15.4493C27.1156 15.9494 26.8346 16.6277 26.8346 17.3349C26.8346 18.0421 27.1156 18.7203 27.6156 19.2204C28.1157 19.7205 28.7939 20.0014 29.5012 20.0014Z" fill="url(#paint1_linear_5335_6197)"/>
<defs>
<linearGradient id="paint0_linear_5335_6197" x1="35.0063" y1="28.6397" x2="35.0063" y2="36.6506" gradientUnits="userSpaceOnUse">
<stop stop-color="#ED3040"/>
<stop offset="1" stop-color="#2D23F4"/>
</linearGradient>
<linearGradient id="paint1_linear_5335_6197" x1="35.0063" y1="28.6397" x2="35.0063" y2="36.6506" gradientUnits="userSpaceOnUse">
<stop stop-color="#ED3040"/>
<stop offset="1" stop-color="#2D23F4"/>
</linearGradient>
</defs>
</svg>
