<svg width="43" height="44" viewBox="0 0 43 44" fill="none" xmlns="http://www.w3.org/2000/svg">
<path d="M8.11869 25.1343L13.6239 30.6395M13.6239 19.6291L19.1291 25.1343M24.6343 8.61869L30.1395 14.1239M19.1291 14.1239L24.6343 19.6291M33.1784 2.53728L40.9627 10.3216C41.3067 10.6658 41.5 11.1324 41.5 11.619C41.5 12.1056 41.3067 12.5723 40.9627 12.9164L12.4164 41.4627C12.0723 41.8067 11.6056 42 11.119 42C10.6324 42 10.1658 41.8067 9.82164 41.4627L2.03728 33.6784C1.69326 33.3342 1.5 32.8676 1.5 32.381C1.5 31.8944 1.69326 31.4277 2.03728 31.0836L30.5836 2.53728C30.9277 2.19326 31.3944 2 31.881 2C32.3676 2 32.8342 2.19326 33.1784 2.53728Z" stroke="url(#paint0_linear_5335_8804)" stroke-width="2.5"/>
<defs>
<linearGradient id="paint0_linear_5335_8804" x1="15.875" y1="42" x2="27.125" y2="2" gradientUnits="userSpaceOnUse">
<stop stop-color="#2C22F3"/>
<stop offset="1" stop-color="#E7101F"/>
</linearGradient>
</defs>
</svg>
