<svg width="500" height="90" viewBox="0 0 500 90" fill="none" xmlns="http://www.w3.org/2000/svg">
<rect x="0.5" y="0.5" width="499" height="89" rx="4.5" stroke="#9747FF" stroke-dasharray="10 5"/>
<path d="M45.0001 32.0003C41.6407 32.0003 38.4189 33.3348 36.0435 35.7103C33.6681 38.0859 32.3335 41.3076 32.3335 44.6668C32.3335 48.0259 33.668 51.2478 36.0435 53.6232C38.4191 55.9988 41.6409 57.3332 45.0001 57.3332C48.3593 57.3332 51.5812 55.9988 53.9566 53.6232C56.3322 51.248 57.6667 48.0263 57.6667 44.6668C57.6631 41.3084 56.3273 38.0887 53.9527 35.7146C51.5782 33.34 48.3584 32.0043 45.0004 32.0006L45.0001 32.0003ZM45.0001 55.9996C41.9944 55.9996 39.1117 54.8054 36.9862 52.68C34.8607 50.5549 33.6669 47.6722 33.6669 44.6665C33.6669 41.6608 34.8608 38.7782 36.9862 36.6527C39.1116 34.5273 41.9944 33.3334 45.0001 33.3334C48.0058 33.3334 50.8885 34.5273 53.0136 36.6527C55.1391 38.7782 56.3333 41.6608 56.3333 44.6665C56.33 47.6712 55.1348 50.5519 53.01 52.6763C50.8855 54.8011 48.0048 55.9963 45.0001 55.9996Z" fill="url(#paint0_linear_6180_40096)"/>
<path d="M32.3334 30.6674H31.0002V36.6673H30.3333V30.6674H29.0001V36.6673H28.3336V30.6674H27.0001V36.6673H26.3335V30.6674H25V40.6672C25.0007 41.0807 25.129 41.484 25.3679 41.8217C25.6064 42.1592 25.9438 42.4149 26.3335 42.5531V58C26.3335 58.5306 26.5442 59.0393 26.9193 59.4141C27.2942 59.7893 27.803 60 28.3335 60H29.0001C29.5304 60 30.0392 59.7893 30.4143 59.4141C30.7895 59.0393 31.0002 58.5305 31.0002 58V42.5531C31.3899 42.4149 31.727 42.1592 31.9658 41.8217C32.2043 41.484 32.333 41.0807 32.3333 40.6672L32.3334 30.6674ZM31.0002 40.667C31.0002 40.844 30.9298 41.0134 30.8047 41.1384C30.6797 41.2635 30.5103 41.3336 30.3333 41.3336C29.9651 41.3336 29.6667 41.6323 29.6667 42.0005V58.0003C29.6667 58.1773 29.5966 58.3467 29.4715 58.4717C29.3465 58.5968 29.1768 58.6672 29.0001 58.6672H28.3335C27.9654 58.6672 27.6666 58.3685 27.6666 58.0003V42.0005C27.6666 41.8235 27.5965 41.6542 27.4715 41.5291C27.3464 41.4041 27.177 41.3336 27 41.3336C26.6319 41.3336 26.3335 41.0352 26.3335 40.667V38.0004H31.0002L31.0002 40.667Z" fill="url(#paint1_linear_6180_40096)"/>
<path d="M64.3334 30C62.7425 30.002 61.2175 30.6345 60.0928 31.7595C58.9677 32.8843 58.3352 34.4093 58.3332 36.0001V44.6669C58.3332 45.1972 58.5439 45.706 58.9191 46.0811C59.2942 46.4559 59.803 46.6667 60.3333 46.6667V59.3332C60.3333 59.5099 60.4034 59.6796 60.5285 59.8046C60.6535 59.9297 60.8232 59.9998 60.9999 59.9998H64.3334C64.5101 59.9998 64.6798 59.9297 64.8048 59.8046C64.9295 59.6796 65 59.5099 65 59.3332V30.6668C65 30.4899 64.9295 30.3205 64.8048 30.1954C64.6798 30.0704 64.5101 30 64.3334 30ZM63.6665 58.6664H61.6668V45.9998C61.6668 45.8232 61.5963 45.6535 61.4713 45.5284C61.3462 45.4034 61.1768 45.3332 60.9999 45.3332H60.3333C59.9651 45.3332 59.6667 45.0349 59.6667 44.6667V35.9999C59.668 34.8778 60.0729 33.794 60.8073 32.9459C61.5417 32.098 62.5566 31.5423 63.6666 31.3805L63.6665 58.6664Z" fill="url(#paint2_linear_6180_40096)"/>
<path d="M60.3328 34.0006H61.6659V44.0004H60.3328V34.0006Z" fill="url(#paint3_linear_6180_40096)"/>
<path d="M45.0001 38.0003C43.2319 38.0003 41.5362 38.7026 40.286 39.9531C39.0355 41.2033 38.3332 42.8989 38.3332 44.6671C38.3332 46.4349 39.0355 48.1306 40.286 49.3811C41.5362 50.6312 43.2319 51.3335 45.0001 51.3335C46.7679 51.3335 48.4636 50.6312 49.7141 49.3811C50.9643 48.1306 51.6666 46.4349 51.6666 44.6671C51.6646 42.8996 50.9616 41.2049 49.7118 39.9551C48.462 38.7053 46.7676 38.0023 45.0001 38.0003ZM45.0001 50.0004V50.0007C43.5855 50.0007 42.2289 49.4387 41.2289 48.4387C40.2285 47.4384 39.6668 46.0817 39.6668 44.6675C39.6668 43.253 40.2285 41.8963 41.2289 40.8963C42.2289 39.896 43.5855 39.3343 45.0001 39.3343C46.4143 39.3343 47.771 39.896 48.7713 40.8963C49.7714 41.8964 50.3334 43.253 50.3334 44.6675C50.3317 46.0814 49.7693 47.437 48.7693 48.4368C47.7695 49.4368 46.4139 49.9991 45 50.0008L45.0001 50.0004Z" fill="url(#paint4_linear_6180_40096)"/>
<path d="M116 51.9943H118.384C118.412 52.0609 118.44 52.1318 118.47 52.2004L116.784 53.8813L116.784 53.8809C116.534 54.1302 116.394 54.4682 116.394 54.8205C116.394 55.173 116.534 55.511 116.784 55.7603L118.6 57.5731C118.85 57.8224 119.189 57.9626 119.543 57.9626C119.897 57.9626 120.236 57.8224 120.486 57.5731L122.174 55.8959C122.241 55.9259 122.312 55.9543 122.381 55.9816V58.3547C122.381 58.7072 122.521 59.0452 122.771 59.2945C123.022 59.5438 123.361 59.684 123.714 59.684H126.286C126.64 59.684 126.979 59.5438 127.229 59.2945C127.479 59.0452 127.619 58.7072 127.619 58.3547V55.9784C127.686 55.951 127.757 55.9226 127.826 55.8926L129.512 57.5735V57.5731C129.762 57.8224 130.102 57.9626 130.455 57.9626C130.808 57.9626 131.148 57.8224 131.398 57.5731L133.216 55.763C133.466 55.5137 133.607 55.1757 133.607 54.8232C133.607 54.471 133.466 54.1329 133.216 53.8836L131.534 52.2002C131.564 52.1336 131.592 52.0633 131.62 51.9941L134 51.9944C134.354 51.9944 134.693 51.8542 134.943 51.6049C135.193 51.3556 135.334 51.0176 135.334 50.6651V48.1011C135.334 47.7486 135.193 47.4105 134.943 47.1612C134.693 46.9119 134.354 46.7721 134 46.7721H131.616C131.589 46.7055 131.56 46.6346 131.53 46.566L133.217 44.8851L133.216 44.8855C133.466 44.6362 133.607 44.2981 133.607 43.9456C133.607 43.5931 133.466 43.2551 133.216 43.0057L131.4 41.1929C131.15 40.9436 130.811 40.8038 130.458 40.8038C130.104 40.8038 129.765 40.9436 129.515 41.1929L127.829 42.8738C127.762 42.8438 127.692 42.8154 127.622 42.788L127.623 40.4114C127.623 40.0589 127.482 39.7209 127.232 39.4715C126.982 39.2222 126.643 39.0821 126.289 39.0821H123.714C123.361 39.0821 123.022 39.2222 122.772 39.4715C122.521 39.7208 122.381 40.0589 122.381 40.4114V42.7877C122.314 42.8151 122.243 42.8434 122.174 42.8734L120.488 41.1926V41.1929C120.239 40.9436 119.899 40.8038 119.546 40.8038C119.192 40.8038 118.853 40.9436 118.603 41.1929L116.784 43.003C116.534 43.2523 116.394 43.5903 116.394 43.9429C116.394 44.2954 116.534 44.6334 116.784 44.8824L118.471 46.5633C118.44 46.6299 118.412 46.7001 118.385 46.7694H116C115.647 46.7694 115.308 46.9092 115.058 47.1585C114.808 47.4078 114.667 47.7458 114.667 48.0984V50.6623C114.666 51.0152 114.807 51.3542 115.057 51.6038C115.307 51.8538 115.646 51.9943 116 51.9943ZM116 48.1014H119.363V48.101C119.508 47.4689 119.759 46.8653 120.106 46.3166L117.727 43.9455L119.546 42.1324L121.924 44.5042V44.5045C122.475 44.1582 123.08 43.9076 123.714 43.7635V40.4113H126.286V43.7635C126.921 43.9076 127.526 44.1582 128.076 44.5045L130.455 42.1327L132.274 43.9459L129.895 46.3169L129.894 46.3166C130.242 46.8653 130.493 47.4688 130.638 48.101H134V50.665H130.638C130.493 51.2975 130.242 51.9007 129.894 52.4494L132.273 54.8205L130.455 56.6336L128.076 54.2619C127.526 54.6078 126.921 54.8584 126.286 55.0029V58.3547H123.714V55.0029C123.08 54.8584 122.475 54.6078 121.924 54.2619L119.546 56.6336L117.727 54.8205L120.106 52.4494H120.106C119.759 51.9007 119.508 51.2975 119.363 50.665H116V48.1014Z" fill="url(#paint5_linear_6180_40096)"/>
<path d="M125 53.703C126.149 53.703 127.251 53.2479 128.064 52.4377C128.877 51.6278 129.333 50.529 129.333 49.3833C129.333 48.2377 128.877 47.1389 128.064 46.3286C127.251 45.5187 126.149 45.0636 125 45.0636C123.851 45.0636 122.749 45.5187 121.936 46.3286C121.123 47.1388 120.667 48.2376 120.667 49.3833C120.668 50.5282 121.125 51.6264 121.938 52.436C122.75 53.2459 123.851 53.7013 125 53.703ZM125 46.3926C125.796 46.3926 126.559 46.7078 127.121 47.2685C127.684 47.8294 128 48.5902 128 49.3833C128 50.1764 127.684 50.9368 127.121 51.4978C126.559 52.0588 125.796 52.3737 125 52.3737C124.204 52.3737 123.441 52.0588 122.879 51.4978C122.316 50.9369 122 50.1764 122 49.3833C122.001 48.5902 122.317 47.8301 122.88 47.2695C123.442 46.7089 124.205 46.3936 125 46.3926Z" fill="url(#paint6_linear_6180_40096)"/>
<path d="M134.334 61.6775C134.334 62.0445 134.035 62.342 133.667 62.342C133.299 62.342 133 62.0445 133 61.6775C133 61.3105 133.299 61.0127 133.667 61.0127C134.035 61.0127 134.334 61.3105 134.334 61.6775Z" fill="url(#paint7_linear_6180_40096)"/>
<path d="M136 28.449V27.5185C136.034 26.8632 135.797 26.2222 135.344 25.7459C134.891 25.2698 134.262 25 133.603 25C132.945 25 132.315 25.2698 131.862 25.7459C131.409 26.2221 131.172 26.8632 131.206 27.5185V28.449H118.794V27.5185C118.828 26.8632 118.591 26.2222 118.138 25.7459C117.685 25.2698 117.055 25 116.397 25C115.738 25 115.109 25.2698 114.656 25.7459C114.202 26.2221 113.965 26.8632 114 27.5185V28.449H109.667C108.43 28.4504 107.244 28.9411 106.369 29.813C105.494 30.6852 105.002 31.8675 105 33.1008V61.6278C105.001 62.5218 105.358 63.3788 105.992 64.011C106.626 64.6432 107.485 64.999 108.382 65H141.618C142.515 64.999 143.374 64.6432 144.009 64.011C144.642 63.3788 144.999 62.5217 145 61.6278V33.1008C144.998 31.8675 144.506 30.6852 143.631 29.813C142.757 28.9411 141.57 28.4503 140.333 28.449H136ZM132.54 27.5185C132.516 27.223 132.618 26.9308 132.82 26.7132C133.021 26.4952 133.305 26.3712 133.603 26.3712C133.901 26.3712 134.184 26.4952 134.387 26.7132C134.588 26.9308 134.69 27.223 134.666 27.5185V31.1822C134.623 31.7352 134.162 32.1626 133.605 32.1639C133.049 32.1653 132.585 31.7399 132.54 31.1868L132.54 27.5185ZM131.22 31.8513H131.316V31.8517C131.508 32.5152 131.981 33.0626 132.61 33.3508C133.24 33.6387 133.965 33.6387 134.595 33.3508C135.225 33.0626 135.697 32.5152 135.889 31.8517H135.986C136.499 31.8553 136.913 32.2708 136.913 32.782V33.3202C136.913 33.8317 136.499 34.2471 135.986 34.2508H131.22C130.707 34.2471 130.293 33.8316 130.293 33.3202V32.782C130.293 32.2708 130.707 31.8553 131.22 31.8517V31.8513ZM115.333 27.5185C115.333 27.2365 115.445 26.9661 115.646 26.7666C115.846 26.5674 116.117 26.4553 116.4 26.4553C116.683 26.4517 116.956 26.5628 117.156 26.7633C117.355 26.9638 117.465 27.2362 117.46 27.5185V31.1822C117.417 31.7352 116.955 32.1626 116.398 32.1639C115.842 32.1653 115.378 31.7399 115.333 31.1868L115.333 27.5185ZM114.013 31.8513H114.11V31.8517C114.302 32.5152 114.774 33.0626 115.404 33.3508C116.034 33.6387 116.758 33.6387 117.388 33.3508C118.018 33.0626 118.491 32.5152 118.682 31.8517H118.78C119.293 31.8553 119.706 32.2708 119.706 32.782V33.3202C119.706 33.8317 119.293 34.2471 118.78 34.2508H114.013C113.5 34.2471 113.086 33.8316 113.086 33.3202V32.782C113.086 32.2708 113.5 31.8553 114.013 31.8517L114.013 31.8513ZM143.666 55.0319H138.332C137.964 55.0319 137.666 55.3293 137.666 55.6964V61.013L136.336 61.0071H136.333C135.964 61.0061 135.665 61.3029 135.664 61.6699C135.663 62.037 135.961 62.3354 136.329 62.3364L138.332 62.3423C138.51 62.3427 138.681 62.2727 138.807 62.1474L143.666 57.3008V61.6284C143.665 62.1702 143.449 62.6893 143.065 63.0722C142.681 63.4554 142.16 63.6707 141.617 63.6714H108.381C107.956 63.6704 107.541 63.5372 107.194 63.2905C106.848 63.0438 106.587 62.6956 106.448 62.2946L130.999 62.3332C131.367 62.3332 131.666 62.0354 131.666 61.6683C131.666 61.3013 131.367 61.0039 130.999 61.0039L106.332 60.9653V37.9907H143.665L143.666 55.0319ZM142.722 56.3609L138.999 60.0715V56.3612L142.722 56.3609ZM143.666 36.6619H106.333V33.1009C106.334 32.2201 106.686 31.3755 107.311 30.7527C107.935 30.1298 108.783 29.7792 109.666 29.7782H113.999V30.5238C113.402 30.5291 112.83 30.7695 112.41 31.1926C111.989 31.616 111.753 32.1875 111.753 32.7834V33.3216C111.753 33.9198 111.991 34.4936 112.415 34.917C112.838 35.3408 113.413 35.5795 114.013 35.5812H118.779C119.379 35.5795 119.954 35.3408 120.378 34.917C120.802 34.4936 121.039 33.9198 121.039 33.3216V32.7834C121.039 32.1875 120.804 31.616 120.383 31.1926C119.962 30.7695 119.39 30.5291 118.793 30.5238V29.7782H131.206V30.5238C130.608 30.5291 130.036 30.7695 129.616 31.1926C129.195 31.616 128.959 32.1875 128.959 32.7834V33.3216C128.959 33.9198 129.197 34.4936 129.621 34.917C130.044 35.3408 130.619 35.5795 131.219 35.5812H135.986C136.586 35.5795 137.16 35.3408 137.584 34.917C138.008 34.4936 138.246 33.9198 138.246 33.3216V32.7834C138.246 32.1875 138.01 31.616 137.589 31.1926C137.168 30.7695 136.597 30.5291 135.999 30.5238V29.7782H140.332C141.216 29.7792 142.063 30.1297 142.688 30.7527C143.313 31.3756 143.665 32.2202 143.666 33.1009L143.666 36.6619Z" fill="url(#paint8_linear_6180_40096)"/>
<path d="M214.722 27.7743V25.6451C214.722 25.4741 214.654 25.3099 214.532 25.1889C214.411 25.0682 214.246 25 214.074 25H211.481C211.123 25 210.833 25.2888 210.833 25.6451V27.7743C208.639 28.2231 206.667 29.4117 205.25 31.1393C203.833 32.8667 203.058 35.028 203.056 37.2581V58.5484H201.759V50.1611C201.759 49.9898 201.691 49.8256 201.57 49.7049C201.448 49.5839 201.283 49.5157 201.111 49.5157H199.048C198.842 48.9372 198.373 48.4899 197.784 48.3104C197.194 48.1305 196.554 48.24 196.058 48.6049C195.563 48.9699 195.27 49.5471 195.27 50.1611C195.27 50.7748 195.563 51.352 196.058 51.7169C196.554 52.0819 197.194 52.1914 197.784 52.0114C198.373 51.8319 198.842 51.3846 199.048 50.8061H200.463V59.1934C200.463 59.3644 200.531 59.5286 200.653 59.6496C200.775 59.7706 200.94 59.8385 201.111 59.8385H203.056V61.774C203.056 61.945 203.124 62.1092 203.246 62.2302C203.367 62.3513 203.532 62.4191 203.704 62.4191H204.471C204.395 62.6256 204.354 62.844 204.352 63.0642C204.352 63.7557 204.723 64.3947 205.324 64.7404C205.926 65.0862 206.667 65.0862 207.269 64.7404C207.87 64.3947 208.241 63.7557 208.241 63.0642C208.239 62.844 208.198 62.6256 208.122 62.4191H217.434C217.357 62.6256 217.317 62.844 217.315 63.0642C217.315 63.7557 217.685 64.3947 218.287 64.7404C218.889 65.0862 219.63 65.0862 220.232 64.7404C220.833 64.3947 221.204 63.7557 221.204 63.0642C221.202 62.844 221.161 62.6256 221.085 62.4191H221.852C222.024 62.4191 222.189 62.3513 222.31 62.2302C222.432 62.1092 222.5 61.945 222.5 61.774V37.2579C222.497 35.0279 221.722 32.8666 220.306 31.1392C218.889 29.4117 216.917 28.223 214.723 27.7742L214.722 27.7743ZM197.223 50.8062C196.961 50.8062 196.724 50.649 196.624 50.4079C196.524 50.1668 196.579 49.8893 196.765 49.7049C196.95 49.5202 197.229 49.4651 197.471 49.565C197.713 49.6649 197.871 49.8999 197.871 50.1611C197.871 50.332 197.803 50.4963 197.681 50.6173C197.56 50.738 197.395 50.8062 197.223 50.8062ZM218.611 45.6449H216.019V44.3544H218.611V45.6449ZM221.204 46.935V52.0963H213.426V46.935H221.204ZM213.426 53.3868H221.204V54.6769H213.426V53.3868ZM221.204 55.9674V58.548H206.945V55.9674H221.204ZM212.13 26.2906H213.426L213.426 27.6137C213.211 27.5996 212.997 27.5808 212.778 27.5808C212.559 27.5808 212.345 27.5993 212.13 27.6137L212.13 26.2906ZM212.778 28.8712C215.012 28.8737 217.154 29.7579 218.733 31.3305C220.313 32.9027 221.201 35.0344 221.204 37.2581V45.6454H219.907V43.7099C219.907 43.539 219.839 43.3747 219.718 43.2537C219.596 43.1327 219.431 43.0648 219.259 43.0648H215.37C215.013 43.0648 214.722 43.3536 214.722 43.7099V45.6454H212.778C212.42 45.6454 212.13 45.9342 212.13 46.2905V54.6778H206.297C205.939 54.6778 205.649 54.9666 205.649 55.3229V58.5486L204.352 58.5489V37.2586C204.355 35.0349 205.244 32.903 206.823 31.3309C208.403 29.7583 210.544 28.8741 212.778 28.8716L212.778 28.8712ZM206.945 63.0637C206.945 63.3246 206.787 63.5599 206.545 63.6598C206.303 63.7597 206.024 63.7046 205.838 63.5199C205.653 63.3355 205.598 63.058 205.698 62.8169C205.798 62.5758 206.035 62.4186 206.297 62.4186C206.469 62.4186 206.633 62.4865 206.755 62.6075C206.877 62.7285 206.945 62.8928 206.945 63.0637ZM219.907 63.0637C219.907 63.3246 219.749 63.5599 219.507 63.6598C219.265 63.7597 218.986 63.7046 218.801 63.5199C218.616 63.3355 218.56 63.058 218.66 62.8169C218.761 62.5758 218.997 62.4186 219.259 62.4186C219.431 62.4186 219.596 62.4865 219.718 62.6075C219.839 62.7285 219.907 62.8928 219.907 63.0637ZM221.203 61.1282L204.352 61.1285V59.838H221.204L221.203 61.1282Z" fill="url(#paint9_linear_6180_40096)"/>
<path d="M190.741 34.0324C191.6 34.0311 192.424 33.6911 193.031 33.0864C193.639 32.4816 193.98 31.6617 193.982 30.8064V29.5162C193.982 28.3638 193.364 27.2989 192.361 26.7227C191.359 26.1465 190.123 26.1465 189.121 26.7227C188.118 27.299 187.5 28.3637 187.5 29.5162V30.8064C187.501 31.6618 187.843 32.4816 188.451 33.0864C189.058 33.6911 189.882 34.0311 190.741 34.0324ZM188.797 29.5162C188.797 28.8247 189.167 28.1858 189.769 27.84C190.37 27.4942 191.112 27.4942 191.713 27.84C192.315 28.1858 192.685 28.8248 192.685 29.5162V30.8064C192.685 31.4979 192.315 32.1368 191.713 32.4826C191.112 32.8284 190.37 32.8284 189.769 32.4826C189.167 32.1369 188.797 31.4978 188.797 30.8064V29.5162Z" fill="url(#paint10_linear_6180_40096)"/>
<path d="M195.736 46.3683C196.1 46.7326 196.595 46.9369 197.11 46.9353H197.222C197.738 46.9353 198.232 46.7313 198.597 46.3686C198.962 46.0056 199.166 45.5132 199.166 45V44.8896C199.168 44.3758 198.963 43.8828 198.597 43.5207L193.981 38.9264V38.5483C193.981 37.3958 193.364 36.331 192.361 35.7547C191.358 35.1785 190.123 35.1785 189.12 35.7547C188.118 36.331 187.5 37.3957 187.5 38.5483V50.1613C187.5 50.3323 187.569 50.4965 187.69 50.6175C187.811 50.7382 187.976 50.8064 188.148 50.8064H188.796V63.0645C188.796 63.756 189.167 64.3949 189.769 64.7407C190.37 65.0864 191.111 65.0864 191.713 64.7407C192.315 64.3949 192.685 63.7559 192.685 63.0645V50.8064H193.333C193.505 50.8064 193.67 50.7382 193.791 50.6175C193.913 50.4965 193.981 50.3323 193.981 50.1613V44.622L195.736 46.3683ZM197.87 44.8896V45C197.87 45.171 197.802 45.3352 197.68 45.4562C197.559 45.5772 197.394 45.6451 197.222 45.6451H197.111C196.939 45.6445 196.774 45.5766 196.652 45.4559L191.579 40.4057C191.457 40.2847 191.389 40.1202 191.389 39.9489V39.8388C191.389 39.4824 191.679 39.1934 192.037 39.1934H192.149H192.148C192.32 39.1943 192.485 39.2622 192.607 39.3826L197.68 44.4327H197.68C197.802 44.5541 197.87 44.7183 197.87 44.8896ZM190.741 63.7098C190.383 63.7098 190.093 63.4207 190.093 63.0644V62.4193H191.389V63.0644H191.389C191.389 63.2356 191.321 63.3996 191.199 63.5206C191.077 63.6416 190.913 63.7098 190.741 63.7098ZM191.389 61.1292H190.093V50.8069H191.389V61.1292ZM188.797 49.5161V48.226H192.685V49.5161H188.797ZM192.685 46.9355H188.797V38.5482C188.794 37.9284 189.091 37.3454 189.595 36.9808C190.098 36.6162 190.747 36.5147 191.339 36.708C191.931 36.9011 192.393 37.3653 192.582 37.956C192.44 37.922 192.295 37.9044 192.148 37.9032H192.037C191.521 37.9032 191.027 38.1071 190.662 38.4701C190.298 38.8332 190.093 39.3252 190.093 39.8387V39.9491V39.9488C190.091 40.4626 190.297 40.9556 190.663 41.3181L192.685 43.3314L192.685 46.9355Z" fill="url(#paint11_linear_6180_40096)"/>
<path d="M284.995 42.4998C287.256 42.4998 289.096 40.6308 289.096 38.3333C289.096 36.0358 287.256 34.1667 284.995 34.1667C282.734 34.1667 280.895 36.0358 280.895 38.3333C280.895 40.6308 282.734 42.4998 284.995 42.4998ZM284.995 35.8333C286.337 35.8333 287.429 36.9547 287.429 38.3333C287.429 39.7118 286.337 40.8333 284.995 40.8333C283.653 40.8333 282.561 39.7118 282.561 38.3333C282.561 36.9547 283.653 35.8333 284.995 35.8333Z" fill="url(#paint12_linear_6180_40096)"/>
<path d="M293.863 38.2383L288.869 43.3335H281.121L275.632 37.7329C274.666 36.748 273.097 36.7477 272.131 37.7329C271.179 38.7041 271.179 40.2851 272.131 41.2566L278.444 47.6975V64.1667C278.444 64.6269 278.817 65 279.278 65H283.362C283.822 65 284.195 64.6269 284.195 64.1667V54.1668H285.796V64.1667C285.796 64.6269 286.169 65 286.629 65H290.713C291.173 65 291.546 64.6269 291.546 64.1667V47.6975L297.364 41.7621C298.316 40.7908 298.316 39.2099 297.364 38.2383C296.399 37.2539 294.829 37.2535 293.863 38.2387L293.863 38.2383ZM296.174 40.595L290.118 46.7736C289.965 46.9294 289.88 47.1388 289.88 47.3568L289.879 63.3331H287.462V53.3332C287.462 52.873 287.089 52.4999 286.629 52.4999H283.361C282.901 52.4999 282.528 52.873 282.528 53.3332V63.3331H280.111L280.111 47.3568C280.111 47.1388 280.026 46.9291 279.873 46.7736L273.321 40.0895C273 39.7614 273 39.2274 273.321 38.8992C273.633 38.5817 274.13 38.5813 274.442 38.8992L280.176 44.75C280.333 44.9097 280.547 45.0001 280.771 45.0001H289.22C289.443 45.0001 289.658 44.9101 289.815 44.75L295.054 39.4048C295.365 39.0872 295.863 39.0868 296.174 39.4048C296.495 39.7329 296.495 40.2669 296.174 40.595H296.174Z" fill="url(#paint13_linear_6180_40096)"/>
<path d="M301.578 26.8436C301.289 25.7828 300.318 25 299.167 25C297.788 25 296.667 26.1214 296.667 27.5V28.3333L273.333 28.3336V27.5003C273.333 26.1218 272.212 25.0003 270.833 25.0003C269.682 25.0003 268.711 25.7827 268.422 26.8436C266.784 26.1919 265 27.406 265 29.167V32.5002C265 34.2627 266.785 35.4745 268.422 34.8235C268.711 35.8844 269.682 36.6668 270.833 36.6668C272.212 36.6668 273.333 35.5454 273.333 34.1668V33.3335H296.667V34.1668C296.667 35.5453 297.788 36.6668 299.167 36.6668C300.318 36.6668 301.289 35.8844 301.578 34.8235C303.216 35.4752 305 34.2611 305 32.5002V29.167C305 27.4044 303.214 26.1923 301.578 26.8436ZM267.5 33.3335C267.041 33.3335 266.667 32.9597 266.667 32.5002V29.167C266.667 28.7075 267.041 28.3337 267.5 28.3337C267.96 28.3337 268.333 28.7075 268.333 29.167V32.5002C268.333 32.9597 267.96 33.3335 267.5 33.3335ZM271.667 34.1668C271.667 34.6263 271.293 35.0001 270.833 35.0001C270.374 35.0001 270 34.6263 270 34.1668V27.5003C270 27.0408 270.374 26.667 270.833 26.667C271.293 26.667 271.667 27.0408 271.667 27.5003V34.1668ZM273.333 31.6668V30.0002H296.666V31.6668H273.333ZM300 34.1668C300 34.6263 299.626 35.0001 299.166 35.0001C298.707 35.0001 298.333 34.6263 298.333 34.1668V27.5003C298.333 27.0408 298.707 26.667 299.166 26.667C299.626 26.667 300 27.0408 300 27.5003V34.1668ZM303.333 32.5002C303.333 32.9597 302.96 33.3335 302.5 33.3335C302.041 33.3335 301.667 32.9597 301.667 32.5002V29.1669C301.667 28.7074 302.041 28.3336 302.5 28.3336C302.96 28.3336 303.333 28.7075 303.333 29.1669V32.5002Z" fill="url(#paint14_linear_6180_40096)"/>
<path d="M373.826 60.4899C373.602 60.6083 373.318 60.6604 373.084 60.6671L372.215 60.6665L373.566 53.7254C373.592 53.5889 374.18 50.3796 371.817 49.2508L370.074 48.418C370.096 48.2225 370.006 48.0293 369.822 47.9445L366.704 46.5038L368.957 41.344L368.983 41.3607C369.062 41.4106 369.151 41.4368 369.241 41.4368C369.296 41.4368 369.344 41.4035 369.396 41.3844L370.919 42.1414C371.123 42.1904 371.309 42.2142 371.486 42.2142C371.671 42.2142 371.846 42.188 372.017 42.1346C374.074 41.614 376.058 40.5772 377.896 39.5334L378.524 39.1765C378.574 39.1494 378.634 39.1401 378.689 39.1516C378.95 39.2117 379.219 39.1516 379.377 39.0005L379.491 39.0276C379.621 39.0572 379.759 39.0594 379.893 39.031L380.196 38.9629C380.578 38.8766 380.878 38.5912 380.979 38.2182C381.103 37.7565 380.894 37.2689 380.47 37.0325L379.179 36.314C378.866 36.1389 378.495 36.1173 378.165 36.2493L376.844 36.7837L371.93 38.1095C371.851 38.1316 371.766 38.1128 371.679 38.0722C371.714 37.8885 371.634 37.7014 371.475 37.5981L370.168 36.7511C370.085 36.4025 369.955 36.0693 369.776 35.7546L370.445 34.1484C370.53 34.1648 370.615 34.1786 370.699 34.1786C371.02 34.1786 371.33 34.0615 371.566 33.8433C371.931 33.5067 372.056 33.0083 371.918 32.4414C371.881 32.2907 371.87 32.143 371.884 32.0019L371.909 31.7574C372.139 31.7312 372.35 31.6237 372.48 31.4298C372.649 31.178 372.657 30.8472 372.534 30.6527L372.224 29.8825C372.23 29.7761 372.231 29.671 372.229 29.5671C372.223 29.2602 372.166 28.9621 372.085 28.6702C372.124 28.6369 372.172 28.6141 372.207 28.5768C372.577 28.1869 372.71 27.6081 372.57 26.9885C372.521 26.7675 372.379 26.5764 372.183 26.4645C371.989 26.3554 371.767 26.331 371.556 26.3958C371.298 26.4747 370.725 26.556 369.795 26.2139C368.451 25.7189 365.96 26.0126 364.981 27.8429C364.69 28.3882 364.593 29.0442 364.701 29.7411C364.832 30.5751 365.219 32.0436 366.302 32.8532L365.944 33.7835L365.54 33.7372C364.07 33.5702 362.609 33.6873 361.191 34.0852C361.066 34.1204 360.961 34.2045 360.901 34.3195C360.89 34.3414 360.884 34.3657 360.873 34.3876L359.051 34.5821C358.607 34.6684 358.278 34.8244 358.003 35.0722C356.262 36.482 354.722 38.1203 353.425 39.9401L352.979 40.5664C352.938 40.6231 352.877 40.6632 352.807 40.6777C352.54 40.7369 352.317 40.9073 352.214 41.1314L352.087 41.1564C351.95 41.1847 351.821 41.2427 351.711 41.3268L351.449 41.5281C351.129 41.7747 350.972 42.1726 351.042 42.5696C351.13 43.0584 351.543 43.4256 352.046 43.4631L353.627 43.5837C353.659 43.5858 353.69 43.5883 353.721 43.5883C354.06 43.5883 354.38 43.4508 354.614 43.203L355.652 42.0934L359.811 38.6147C359.908 38.5327 360.042 38.5009 360.203 38.5318L360.331 38.5493L360.342 38.6057C360.385 38.824 360.578 38.9833 360.804 38.9833H361.64L359.107 44.5642C359.018 44.7609 359.075 44.9917 359.247 45.1236C359.309 45.1705 359.362 45.2035 359.423 45.2491L357.372 49.9191C357.3 50.0816 357.329 50.2715 357.445 50.4068C357.451 50.4135 357.486 50.4515 357.514 50.4814L356.718 53.2385C355.629 52.823 352.816 51.9781 348.335 52.0468L346.135 51.5302C345.896 51.4769 345.659 51.6076 345.58 51.8338L345.025 53.4514C344.984 53.5732 344.994 53.706 345.055 53.8185C345.102 53.9073 345.176 53.9776 345.266 54.0207C344.508 56.1672 346.007 57.7814 346.702 58.5296C346.905 58.749 347.189 58.8637 347.477 58.8637C347.645 58.8637 347.814 58.8252 347.97 58.7453C348.468 58.4895 348.679 57.8949 348.452 57.3913C348.339 57.1422 348.291 56.8661 348.314 56.5874L348.385 55.6423L355.749 57.5833C355.809 57.5993 356.451 57.7617 357.275 57.7617C358.394 57.7617 359.847 57.4627 360.638 56.0964L362.388 53.0766C362.414 53.0806 362.439 53.0837 362.464 53.0837C362.643 53.0837 362.811 52.9814 362.89 52.8165L363.579 51.3754L367.107 52.9357C367.168 52.9628 367.234 52.9767 367.299 52.9767C367.387 52.9767 367.476 52.9517 367.553 52.9027C367.602 52.8716 367.647 52.8235 367.695 52.7887L369.29 53.1222C368.932 54.1671 368.309 56.7211 368.74 61.0071L368.402 63.0494C368.362 63.2858 368.511 63.5133 368.746 63.5746L370.319 63.984C370.357 63.9941 370.398 64 370.438 64C370.525 64 370.612 63.9763 370.687 63.9294C370.766 63.8804 370.827 63.8111 370.866 63.7294C372.958 64.274 374.39 62.7778 375.056 62.0822C375.371 61.7524 375.423 61.249 375.18 60.8567C374.896 60.3986 374.301 60.2362 373.826 60.4899L373.826 60.4899ZM360.218 37.6013C359.854 37.5667 359.483 37.6694 359.203 37.903L355.003 41.4205L353.925 42.5687C353.867 42.6301 353.779 42.6516 353.7 42.6563L352.119 42.5357C352.043 42.5302 351.983 42.4766 351.97 42.4084C351.96 42.3527 351.982 42.2981 352.027 42.2642L352.277 42.0688L352.4 42.045C352.677 41.9905 352.908 41.8166 353.01 41.5879C353.306 41.5232 353.566 41.3549 353.746 41.108L354.195 40.4771C355.443 38.7263 356.924 37.1494 358.617 35.7772C358.755 35.6533 358.913 35.5577 359.192 35.5022L360.477 35.366C360.253 36.0882 360.171 36.8461 360.218 37.6013ZM372.18 39.008L377.147 37.6653L378.521 37.1127C378.583 37.0889 378.657 37.0932 378.718 37.1262L380.009 37.8447C380.058 37.8718 380.084 37.9276 379.988 38.0549L379.712 38.1231L379.598 38.0959C379.335 38.0321 379.059 38.0892 378.895 38.2436C378.607 38.1798 378.314 38.2266 378.06 38.3675L377.428 38.7269C375.648 39.7376 373.732 40.7403 371.761 41.2393C371.601 41.2905 371.435 41.3086 371.246 41.2744L370.192 40.7415C370.688 40.2274 371.09 39.6269 371.375 38.9621C371.631 39.0595 371.913 39.0814 372.18 39.008ZM370.671 38.1906C370.395 39.0389 369.887 39.8048 369.21 40.3939L366.764 38.808C366.262 38.4816 366.131 37.7631 366.511 37.0914C366.7 36.7743 367.009 36.5459 367.36 36.4651C367.453 36.4435 367.546 36.4334 367.638 36.4334C367.849 36.4334 368.051 36.4901 368.223 36.6029L369.481 37.4188C369.497 37.4311 369.513 37.4407 369.53 37.4508L370.671 38.1906ZM371.496 30.839C371.466 30.8384 371.444 30.8479 371.417 30.851C371.389 30.855 371.361 30.8547 371.335 30.8636C371.154 30.9129 371.05 31.0504 371.025 31.2255C371.023 31.2372 371.016 31.2465 371.014 31.2585L370.949 31.9092C370.924 32.1542 370.943 32.406 371.004 32.6588C371.043 32.819 371.061 33.0373 370.926 33.1618C370.848 33.2352 370.726 33.2629 370.608 33.2358C370.213 33.1408 369.857 33.0324 369.55 32.9131C369.414 32.8597 369.292 32.7762 369.191 32.6646C369.016 32.472 368.718 32.4584 368.526 32.6298C368.333 32.8021 368.317 33.0965 368.491 33.2876C368.691 33.5076 368.931 33.6722 369.205 33.7792C369.308 33.8193 369.424 33.8556 369.535 33.8932L369.117 34.8969C368.819 34.6007 368.489 34.3359 368.1 34.1457C367.73 33.9694 367.337 33.8628 366.939 33.8128L367.235 33.0354C367.274 32.8576 367.246 32.6776 367.184 32.5081C367.179 32.4834 367.169 32.4615 367.16 32.4381C367.15 32.4147 367.148 32.3888 367.136 32.366C367.132 32.3592 367.125 32.3552 367.121 32.3487C367.108 32.3277 367.091 32.3105 367.074 32.2914C367.045 32.2572 367.016 32.226 366.98 32.2011C366.979 32.2008 366.979 32.1998 366.978 32.1992C366.897 32.1474 366.82 32.0901 366.748 32.0275C366.612 30.9974 366.802 30.8708 367.062 30.8156C367.177 30.794 367.388 30.8822 367.484 31.0122L368.192 31.8451C368.346 32.0248 368.61 32.0633 368.809 31.9354L369.728 31.3461C369.945 31.2068 370.008 30.9204 369.868 30.7043L369.478 30.0962C369.326 29.8564 369.32 29.4289 369.466 29.2492C369.607 29.0769 369.81 29.0122 370.069 29.0513C370.51 29.1204 370.889 29.1167 371.223 29.059C371.261 29.231 371.286 29.4064 371.289 29.5852C371.291 29.6961 371.288 29.8099 371.28 29.9239C371.275 29.9945 371.286 30.0648 371.312 30.1308L371.603 30.8419L371.496 30.839ZM365.896 30.6676C365.757 30.2749 365.678 29.8905 365.632 29.6002C365.578 29.2528 365.566 28.7424 365.813 28.2791C366.506 26.9849 368.438 26.7075 369.467 27.0878C370.476 27.4589 371.207 27.4364 371.675 27.3295C371.694 27.5005 371.688 27.7644 371.522 27.9401C371.311 28.1617 370.848 28.2329 370.216 28.1321C369.628 28.0405 369.088 28.2332 368.735 28.6632C368.289 29.2072 368.361 30.0887 368.681 30.593L368.824 30.8165L368.644 30.9318L368.226 30.4411C367.977 30.0989 367.523 29.8816 367.1 29.8816C367.02 29.8816 366.941 29.8896 366.865 29.9053C366.331 30.0182 366.042 30.3122 365.896 30.6676ZM361.197 38.0506C361.028 36.9934 361.187 35.8973 361.648 34.9276C362.458 34.7171 363.283 34.6166 364.115 34.6062C363.598 35.0136 363.178 35.5509 362.913 36.1806L362.064 38.0506L361.197 38.0506ZM363.776 36.5511C364.197 35.5505 365.103 34.8528 366.141 34.7276C366.665 34.6617 367.203 34.7526 367.686 34.9822C368.074 35.173 368.394 35.4557 368.657 35.7815C368.209 35.5182 367.679 35.4372 367.146 35.5574C366.546 35.6961 366.019 36.0826 365.644 36.7157C365.07 37.7333 365.336 38.9929 366.248 39.5863L368.159 40.826L365.668 46.5311C365.667 46.5333 365.665 46.5345 365.664 46.537C365.662 46.54 365.663 46.5431 365.661 46.5462L365.33 47.3054C364.6 47.1325 362.714 46.537 360.119 44.6077L363.776 36.5511ZM347.536 57.9192C347.489 57.942 347.429 57.9361 347.365 57.8668C346.68 57.1289 345.404 55.7544 346.326 53.9288C346.389 53.8049 346.392 53.6594 346.335 53.5321C346.285 53.4196 346.191 53.3321 346.076 53.2865L346.335 52.5338L347.161 52.728C346.971 53.2193 346.792 54.0561 347.139 55.0952C347.188 55.2438 347.309 55.3556 347.46 55.3976L347.377 56.5161C347.341 56.9458 347.416 57.3814 347.593 57.7725C347.617 57.8261 347.593 57.8896 347.536 57.9192ZM359.822 55.633C358.807 57.3862 356.017 56.6915 355.991 56.6834L347.964 54.5678C347.779 53.8184 347.95 53.2522 348.074 52.9726C353.807 52.8453 356.784 54.273 356.814 54.2891C356.939 54.3492 357.085 54.3563 357.214 54.2971C357.341 54.2414 357.438 54.1323 357.477 53.9994L358.288 51.1883C358.963 51.7324 360.031 52.4231 361.438 52.8429L359.822 55.633ZM362.198 52.0883C360.199 51.6291 358.846 50.4751 358.36 50.0044L360.204 45.8063C361.896 46.9785 363.256 47.6061 364.185 47.9309L362.198 52.0883ZM367.243 51.9758L363.982 50.5342L365.094 48.2077C365.372 48.2727 365.539 48.2934 365.563 48.2958C365.58 48.298 365.596 48.2992 365.612 48.2992C365.799 48.2992 365.969 48.1901 366.044 48.0172L366.332 47.3591L369.066 48.622C368.976 48.9265 368.825 49.3882 368.616 49.8872C368.207 50.8603 367.735 51.5766 367.243 51.9758L367.243 51.9758ZM368.491 52.0033C368.851 51.5375 369.185 50.9584 369.485 50.2445C369.624 49.9141 369.737 49.6028 369.827 49.334L371.408 50.0901C373.119 50.9075 372.647 53.5256 372.642 53.5506L371.235 60.7832C370.536 60.9913 369.949 60.8356 369.656 60.7206C369.162 55.4671 370.342 53.0115 370.354 52.9877C370.418 52.8583 370.418 52.7069 370.355 52.5771C370.291 52.4486 370.172 52.3543 370.029 52.3247L368.491 52.0033ZM374.343 61.4729C373.692 62.1538 372.483 63.4204 370.703 62.6929C370.573 62.6405 370.427 62.6451 370.301 62.7111C370.199 62.7657 370.122 62.8544 370.081 62.9601L369.4 62.7829L369.584 61.6702C369.844 61.7475 370.161 61.8166 370.544 61.8166C370.895 61.8166 371.29 61.7491 371.705 61.5983L373.08 61.5996C373.469 61.5962 373.908 61.504 374.377 61.3437L374.778 61.1006L374.343 61.4729Z" fill="url(#paint15_linear_6180_40096)"/>
<path d="M384.651 52.8501C384.157 51.5962 383.2 50.6071 381.956 50.0658C381.84 50.0156 381.718 49.9922 381.6 49.9509C381.588 49.9469 381.577 49.9419 381.564 49.9392C380.423 49.5474 379.197 49.5452 378.06 49.9832C376.921 50.4216 376.018 51.2448 375.445 52.2984C375.441 52.3049 375.438 52.3119 375.434 52.3187C375.374 52.4306 375.298 52.532 375.246 52.6495C374.698 53.8806 374.669 55.2494 375.162 56.5036C375.655 57.7575 376.612 58.7466 377.857 59.2879C377.943 59.3255 378.035 59.34 378.123 59.3729C378.182 59.4093 378.248 59.429 378.318 59.4349C378.836 59.6047 379.367 59.7166 379.904 59.7166C379.955 59.7166 380.006 59.704 380.057 59.7024C380.066 59.703 380.075 59.7086 380.084 59.7086C380.101 59.7086 380.114 59.6972 380.131 59.6956C380.679 59.671 381.226 59.5739 381.751 59.3711C382.257 59.1763 382.706 58.8905 383.115 58.5601C383.148 58.5429 383.172 58.5191 383.2 58.4942C383.658 58.1083 384.037 57.6432 384.334 57.1143C384.377 57.0662 384.408 57.0125 384.425 56.9527C384.469 56.8677 384.527 56.7931 384.566 56.7052C385.114 55.4729 385.144 54.104 384.651 52.8502L384.651 52.8501ZM382.971 51.8243L382.14 51.8483L382.025 51.1012C382.374 51.3028 382.698 51.5373 382.971 51.8243ZM381.997 52.7259L383.58 52.6803C383.668 52.839 383.761 52.9947 383.828 53.166C383.893 53.3306 383.928 53.5005 383.971 53.6691L382.619 54.6474L381.957 54.5463L381.504 53.3953L381.997 52.7259ZM380.014 50.5214C380.371 50.5303 380.723 50.596 381.071 50.6961L381.299 52.1828L380.801 52.8581L379.591 52.6738L379.294 51.9353L380.014 50.5214ZM381.139 54.8755L380.362 55.8335L379.133 55.6464L378.681 54.4955L379.458 53.5374L380.687 53.7245L381.139 54.8755ZM378.38 50.7969C378.573 50.7223 378.772 50.6746 378.971 50.6292L378.596 51.3653L377.828 51.0728C378.007 50.9726 378.186 50.8718 378.38 50.7969ZM375.904 53.4533L376.328 54.0706L375.699 54.6162C375.704 54.2229 375.784 53.8348 375.904 53.4533ZM376.835 57.5197L377.724 57.4843L377.819 58.2694C377.454 58.0625 377.118 57.8187 376.835 57.5197ZM377.872 56.604L376.232 56.6697C376.144 56.5119 376.052 56.3575 375.985 56.187C375.917 56.0147 375.879 55.8368 375.835 55.6599L377.033 54.6209L377.852 54.7956L378.315 55.971L377.872 56.604ZM378.007 53.9314L377.177 53.7541L376.328 52.5178C376.514 52.2142 376.724 51.9288 376.98 51.6846L378.471 52.2533L378.768 52.9928L378.007 53.9314ZM379.805 58.8399C379.45 58.8316 379.101 58.7623 378.756 58.6646L378.573 57.1555L379.021 56.5131L380.234 56.6984L380.519 57.3737L379.805 58.8399ZM381.432 58.5561H381.432C381.239 58.6303 381.041 58.6744 380.843 58.7197L381.218 57.9498L381.996 58.2737C381.814 58.377 381.632 58.4793 381.432 58.5561ZM382.829 57.673L381.34 57.0532L381.055 56.375L381.828 55.4217L382.49 55.5215L383.476 56.8497C383.29 57.1496 383.082 57.4319 382.829 57.673ZM383.896 55.9395L383.347 55.2022L384.107 54.6523C384.11 55.0875 384.032 55.5182 383.896 55.9395Z" fill="url(#paint16_linear_6180_40096)"/>
<path d="M437.832 45.8312H439.164V55.6158H437.832V45.8312Z" fill="url(#paint17_linear_6180_40096)"/>
<path d="M430.365 45.8312H431.698V55.6158H430.365V45.8312Z" fill="url(#paint18_linear_6180_40096)"/>
<path d="M457.858 45.4138L459.008 43.6145L460.682 44.6225C460.999 44.8139 461.407 44.7058 461.599 44.3976C461.724 44.1893 461.724 43.9227 461.599 43.7144L460.591 42.0401L464.682 39.4412C464.99 39.2411 465.081 38.833 464.89 38.5249C464.865 38.4832 464.832 38.4498 464.798 38.4081L463.382 36.9921C463.215 36.8254 462.965 36.7589 462.732 36.8171L458 38.1085C457.867 37.9501 457.742 37.792 457.609 37.6336L454.401 33.8931L461.857 29.0699C462.157 28.8784 462.249 28.4783 462.066 28.1701L460.65 25.8125C460.491 25.5542 460.175 25.4292 459.883 25.5208L449.835 28.5616L449.268 27.9035C447.952 26.3625 446.094 25.3793 444.078 25.1627L442.72 25.0043C442.354 24.9626 442.029 25.2292 441.987 25.5959C441.979 25.6458 441.979 25.6958 441.987 25.7457L442.137 27.1118C442.362 29.1277 443.336 30.9856 444.878 32.3018L445.536 32.8683L443.312 40.1823C442.745 39.0496 441.595 38.333 440.329 38.333H437.663V28.3366C437.663 26.4956 436.172 25.0046 434.331 25.0046C432.49 25.0042 430.998 26.4956 430.998 28.3366V38.333L428.332 38.3327C426.491 38.3327 425 39.8237 425 41.6647V58.9916C425 60.6243 426.183 62.0155 427.799 62.282C427.408 63.3151 427.924 64.4729 428.957 64.8644C429.99 65.256 431.148 64.7394 431.54 63.7066C431.706 63.2652 431.715 62.7737 431.556 62.3323H438.455C438.088 63.3737 438.63 64.5149 439.671 64.8813C440.712 65.2477 441.854 64.7063 442.22 63.665C442.429 63.0651 442.345 62.4071 441.995 61.8822C443.029 61.2906 443.67 60.191 443.67 58.9915V44.2137L445.136 45.0967C445.144 45.1049 445.153 45.1049 445.161 45.1132L446.294 50.0865C443.578 54.8931 445.278 60.9904 450.085 63.7062C454.892 66.4221 460.99 64.7225 463.706 59.9159C466.422 55.1092 464.723 49.0119 459.915 46.2961C459.257 45.9214 458.574 45.6298 457.858 45.4131L457.858 45.4138ZM456.475 45.1056C456.109 45.0474 455.742 45.014 455.367 45.0058L456.217 41.8903C456.609 42.1651 457 42.4234 457.408 42.6651L457.858 42.9316L456.475 45.1056ZM454.601 40.6323C454.759 40.7656 454.917 40.8989 455.076 41.0239L453.976 45.0474C453.185 45.1225 452.401 45.2974 451.643 45.5722L446.637 43.9478L450.861 37.4252L454.601 40.6323ZM462.715 38.1998L463.265 38.7497L459.908 40.8906L459.641 40.4409C459.4 40.0328 459.142 39.6413 458.867 39.2497L462.715 38.1998ZM459.775 26.9284L460.591 28.2863L453.526 32.8597L450.785 29.6691L459.775 26.9284ZM443.462 26.9618L443.404 26.4205L443.945 26.4787C445.628 26.6619 447.17 27.4784 448.269 28.7611L456.6 38.4824C457.308 39.3071 457.942 40.1901 458.5 41.1147L459.091 42.0975L458.108 41.5059C457.175 40.9477 456.301 40.3148 455.476 39.6067L445.745 31.2851C444.462 30.1856 443.646 28.6445 443.462 26.9616L443.462 26.9618ZM432.332 28.3365C432.332 27.2287 433.223 26.3371 434.331 26.3371C435.439 26.3371 436.331 27.2283 436.331 28.3365V38.3329H432.332L432.332 28.3365ZM430.332 62.9903C430.332 63.3567 430.032 63.6567 429.666 63.6567C429.3 63.6567 429 63.3567 429 62.9903C429 62.6239 429.3 62.324 429.666 62.324C430.033 62.324 430.332 62.6239 430.332 62.9903ZM440.996 62.9903C440.996 63.3567 440.696 63.6567 440.33 63.6567C439.963 63.6567 439.663 63.3567 439.663 62.9903C439.663 62.6239 439.963 62.324 440.33 62.324C440.696 62.324 440.996 62.6239 440.996 62.9903ZM442.329 58.9919C442.329 60.0915 441.429 60.9913 440.33 60.9913L428.332 60.991C427.233 60.991 426.333 60.0911 426.333 58.9916V41.6647C426.333 40.5652 427.233 39.6653 428.332 39.6653H430.998V41.6647H432.331V39.6653H436.33V41.6647H437.663V39.6653H440.329C441.428 39.6653 442.328 40.5652 442.328 41.6647L442.329 58.9919ZM446.645 33.8096L449.835 36.5504L445.262 43.6147L443.904 42.7982L446.645 33.8096ZM454.992 63.6574C450.202 63.6574 446.328 59.7754 446.328 54.9935C446.328 53.4191 446.753 51.8781 447.569 50.5367C447.661 50.3869 447.686 50.212 447.644 50.0453L446.569 45.3303L451.452 46.913C451.593 46.9629 451.752 46.9547 451.893 46.9047C456.367 45.197 461.374 47.4378 463.082 51.9028C464.79 56.3761 462.549 61.3828 458.083 63.0904C457.1 63.4654 456.05 63.6568 454.992 63.6568L454.992 63.6574Z" fill="url(#paint19_linear_6180_40096)"/>
<path d="M458.991 54.3275C458.708 54.3275 458.45 54.5107 458.358 54.7855L457.684 56.8096L455.626 50.1369C455.542 49.8538 455.284 49.6703 454.993 49.6703H454.984C454.693 49.6703 454.434 49.8704 454.351 50.1535L453.159 54.3275H447.661V55.6602H453.659C453.959 55.6602 454.217 55.4601 454.301 55.177L455.017 52.6697L457.025 59.1841C457.108 59.4589 457.366 59.6507 457.658 59.6507H457.666C457.949 59.6507 458.207 59.4675 458.299 59.1927L459.482 55.6523L462.324 55.6519V54.3193H458.991L458.991 54.3275Z" fill="url(#paint20_linear_6180_40096)"/>
<defs>
<linearGradient id="paint0_linear_6180_40096" x1="57.6624" y1="51.4797" x2="57.6624" y2="57.4879" gradientUnits="userSpaceOnUse">
<stop stop-color="#ED3040"/>
<stop offset="1" stop-color="#2D23F4"/>
</linearGradient>
<linearGradient id="paint1_linear_6180_40096" x1="57.6624" y1="51.4797" x2="57.6624" y2="57.4879" gradientUnits="userSpaceOnUse">
<stop stop-color="#ED3040"/>
<stop offset="1" stop-color="#2D23F4"/>
</linearGradient>
<linearGradient id="paint2_linear_6180_40096" x1="57.6624" y1="51.4797" x2="57.6624" y2="57.4879" gradientUnits="userSpaceOnUse">
<stop stop-color="#ED3040"/>
<stop offset="1" stop-color="#2D23F4"/>
</linearGradient>
<linearGradient id="paint3_linear_6180_40096" x1="57.6624" y1="51.4797" x2="57.6624" y2="57.4879" gradientUnits="userSpaceOnUse">
<stop stop-color="#ED3040"/>
<stop offset="1" stop-color="#2D23F4"/>
</linearGradient>
<linearGradient id="paint4_linear_6180_40096" x1="57.6624" y1="51.4797" x2="57.6624" y2="57.4879" gradientUnits="userSpaceOnUse">
<stop stop-color="#ED3040"/>
<stop offset="1" stop-color="#2D23F4"/>
</linearGradient>
<linearGradient id="paint5_linear_6180_40096" x1="137.662" y1="53.6397" x2="137.662" y2="61.6506" gradientUnits="userSpaceOnUse">
<stop stop-color="#ED3040"/>
<stop offset="1" stop-color="#2D23F4"/>
</linearGradient>
<linearGradient id="paint6_linear_6180_40096" x1="137.662" y1="53.6397" x2="137.662" y2="61.6506" gradientUnits="userSpaceOnUse">
<stop stop-color="#ED3040"/>
<stop offset="1" stop-color="#2D23F4"/>
</linearGradient>
<linearGradient id="paint7_linear_6180_40096" x1="137.662" y1="53.6397" x2="137.662" y2="61.6506" gradientUnits="userSpaceOnUse">
<stop stop-color="#ED3040"/>
<stop offset="1" stop-color="#2D23F4"/>
</linearGradient>
<linearGradient id="paint8_linear_6180_40096" x1="137.662" y1="53.6397" x2="137.662" y2="61.6506" gradientUnits="userSpaceOnUse">
<stop stop-color="#ED3040"/>
<stop offset="1" stop-color="#2D23F4"/>
</linearGradient>
<linearGradient id="paint9_linear_6180_40096" x1="216.08" y1="53.6397" x2="216.08" y2="61.6506" gradientUnits="userSpaceOnUse">
<stop stop-color="#ED3040"/>
<stop offset="1" stop-color="#2D23F4"/>
</linearGradient>
<linearGradient id="paint10_linear_6180_40096" x1="216.08" y1="53.6397" x2="216.08" y2="61.6506" gradientUnits="userSpaceOnUse">
<stop stop-color="#ED3040"/>
<stop offset="1" stop-color="#2D23F4"/>
</linearGradient>
<linearGradient id="paint11_linear_6180_40096" x1="216.08" y1="53.6397" x2="216.08" y2="61.6506" gradientUnits="userSpaceOnUse">
<stop stop-color="#ED3040"/>
<stop offset="1" stop-color="#2D23F4"/>
</linearGradient>
<linearGradient id="paint12_linear_6180_40096" x1="297.662" y1="53.6397" x2="297.662" y2="61.6506" gradientUnits="userSpaceOnUse">
<stop stop-color="#ED3040"/>
<stop offset="1" stop-color="#2D23F4"/>
</linearGradient>
<linearGradient id="paint13_linear_6180_40096" x1="297.662" y1="53.6397" x2="297.662" y2="61.6506" gradientUnits="userSpaceOnUse">
<stop stop-color="#ED3040"/>
<stop offset="1" stop-color="#2D23F4"/>
</linearGradient>
<linearGradient id="paint14_linear_6180_40096" x1="297.662" y1="53.6397" x2="297.662" y2="61.6506" gradientUnits="userSpaceOnUse">
<stop stop-color="#ED3040"/>
<stop offset="1" stop-color="#2D23F4"/>
</linearGradient>
<linearGradient id="paint15_linear_6180_40096" x1="377.662" y1="53.2077" x2="377.662" y2="60.818" gradientUnits="userSpaceOnUse">
<stop stop-color="#ED3040"/>
<stop offset="1" stop-color="#2D23F4"/>
</linearGradient>
<linearGradient id="paint16_linear_6180_40096" x1="377.662" y1="53.2077" x2="377.662" y2="60.818" gradientUnits="userSpaceOnUse">
<stop stop-color="#ED3040"/>
<stop offset="1" stop-color="#2D23F4"/>
</linearGradient>
<linearGradient id="paint17_linear_6180_40096" x1="457.662" y1="53.6397" x2="457.662" y2="61.6506" gradientUnits="userSpaceOnUse">
<stop stop-color="#ED3040"/>
<stop offset="1" stop-color="#2D23F4"/>
</linearGradient>
<linearGradient id="paint18_linear_6180_40096" x1="457.662" y1="53.6397" x2="457.662" y2="61.6506" gradientUnits="userSpaceOnUse">
<stop stop-color="#ED3040"/>
<stop offset="1" stop-color="#2D23F4"/>
</linearGradient>
<linearGradient id="paint19_linear_6180_40096" x1="457.662" y1="53.6397" x2="457.662" y2="61.6506" gradientUnits="userSpaceOnUse">
<stop stop-color="#ED3040"/>
<stop offset="1" stop-color="#2D23F4"/>
</linearGradient>
<linearGradient id="paint20_linear_6180_40096" x1="457.662" y1="53.6397" x2="457.662" y2="61.6506" gradientUnits="userSpaceOnUse">
<stop stop-color="#ED3040"/>
<stop offset="1" stop-color="#2D23F4"/>
</linearGradient>
</defs>
</svg>
