<svg width="500" height="90" viewBox="0 0 500 90" fill="none" xmlns="http://www.w3.org/2000/svg">
<rect x="0.5" y="0.5" width="499" height="89" rx="4.5" stroke="#9747FF" stroke-dasharray="10 5"/>
<path d="M64.4526 27.0521C63.615 26.8986 62.6785 26.8805 61.6663 26.9856V25.9148C61.6663 25.5744 61.4099 25.2892 61.0718 25.2522C51.4753 24.2092 46.3772 26.6971 45.0002 27.5136C43.6237 26.6971 38.5277 24.2068 28.9278 25.2522C28.59 25.2892 28.3337 25.5744 28.3337 25.9148V26.9856C27.3214 26.8804 26.3845 26.8986 25.5473 27.0521C25.2301 27.11 25.0002 27.3862 25.0002 27.7078V51.0209C24.9903 51.4132 25.375 51.7464 25.76 51.6812C25.8851 51.663 38.2207 49.9931 44.5814 55.1266C44.8262 55.3237 45.1748 55.3237 45.4193 55.1259C46.5669 54.197 48.0029 53.4431 49.6664 52.8553V53.6674C49.6664 54.0359 49.9645 54.334 50.333 54.334H52.511L53.0003 64.3658C53.0182 64.7208 53.3109 65 53.6665 65H57.6662C58.0218 65 58.3146 64.7208 58.3321 64.3658L58.8214 54.334C62.1793 54.3128 61.6226 54.7696 61.6663 51.4576C63.226 51.5403 64.2284 51.6796 64.24 51.6813C64.6267 51.7451 65.0091 51.4146 64.9998 51.021C64.9995 51.021 64.9995 27.7078 64.9995 27.7078C64.9995 27.3863 64.7696 27.1101 64.4527 27.0522L64.4526 27.0521ZM29.6672 26.5169C38.4711 25.6829 43.1898 28.0058 44.333 28.6705V50.1374C40.0977 47.2518 34.6188 47.0924 29.6672 47.3107V26.5169ZM45.0003 53.7645C39.551 49.8733 31.9342 49.7793 26.334 50.2699V28.2863C26.9446 28.2264 27.6138 28.2367 28.334 28.3207V48.033C28.3271 48.4184 28.6866 48.7409 29.069 48.6963C29.1809 48.6847 40.3762 47.5881 44.5097 52.0712C44.6444 52.1906 44.8124 52.2941 45 52.2859C45.1879 52.2918 45.3559 52.1919 45.4909 52.0705C46.61 50.8766 48.1241 50.1458 49.6663 49.6437V51.4304C47.8612 52.0209 46.2954 52.8033 45 53.7643L45.0003 53.7645ZM57.0316 63.6668H54.3012L53.846 54.3336H57.4865L57.0316 63.6668ZM60.333 53.0006H50.9998V44.3339H60.333V53.0006ZM58.333 43.001H52.9997V41.6678C52.9997 40.1971 54.1956 39.0013 55.6663 39.0013C57.1037 38.9698 58.3637 40.2355 58.3329 41.6678V43.001H58.333ZM63.6662 50.2723C63.0165 50.2065 62.3298 50.1582 61.6662 50.1225V43.6675C61.6662 43.299 61.3681 43.0009 60.9996 43.0009H59.6665V41.6678C59.7155 39.5245 57.815 37.6181 55.6665 37.6681C53.461 37.6678 51.6668 39.4621 51.6668 41.6678V43.0009H50.3337C49.9651 43.0009 49.6671 43.299 49.6671 43.6675V48.2488C48.2397 48.6759 46.8678 49.2677 45.6674 50.1374L45.6671 28.6704C46.8143 28.0038 51.5276 25.683 60.3329 26.5169V37.0009C60.3329 37.3695 60.6309 37.6675 60.9995 37.6675C61.368 37.6675 61.666 37.3695 61.666 37.0009L61.6664 28.324C62.3376 28.245 63.0114 28.2298 63.6664 28.2867L63.6662 50.2723Z" fill="url(#paint0_linear_6180_40146)"/>
<path d="M32.3339 41.668H41.6671C42.0356 41.668 42.3337 41.37 42.3337 41.0015V31.6683C42.3337 31.2997 42.0356 31.0017 41.6671 31.0017L32.3339 31.0014C31.9654 31.0014 31.6674 31.2994 31.6674 31.6679V41.0011C31.6674 41.3697 31.9654 41.668 32.3339 41.668ZM33.0005 32.3348H41.0003V40.3347H33.0005V32.3348Z" fill="url(#paint1_linear_6180_40146)"/>
<path d="M39.2985 35.7384L35.2988 33.7383C34.8754 33.5121 34.3197 33.8541 34.3338 34.3348V38.3348C34.3196 38.8145 34.8756 39.1588 35.2988 38.9313L39.2985 36.9312C39.7818 36.7079 39.7828 35.9613 39.2985 35.7384ZM35.6669 37.2561V35.4138L37.5092 36.3351L35.6669 37.2561Z" fill="url(#paint2_linear_6180_40146)"/>
<path d="M48.3336 31.0019H53.0002C53.8751 30.988 53.8774 29.683 53.0002 29.6688C52.9998 29.6684 48.3336 29.6684 48.3336 29.6684C47.4586 29.6827 47.4563 30.9873 48.3336 31.0019Z" fill="url(#paint3_linear_6180_40146)"/>
<path d="M57.6667 33.0013H48.3336C47.4603 33.0149 47.455 34.3199 48.3336 34.3344H57.6667C58.5404 34.3209 58.5454 33.0159 57.6667 33.0013Z" fill="url(#paint4_linear_6180_40146)"/>
<path d="M50.3338 36.3345H48.3338C47.4582 36.3488 47.4572 37.6534 48.3338 37.6677H50.3338C51.2095 37.6534 51.2105 36.3488 50.3338 36.3345Z" fill="url(#paint5_linear_6180_40146)"/>
<path d="M113.261 38.3335H125C125.173 38.3335 125.339 38.2634 125.462 38.1384C125.584 38.0133 125.653 37.8436 125.653 37.667V30.3335C125.653 30.1568 125.584 29.9871 125.462 29.8621C125.339 29.737 125.173 29.6669 125 29.6669H122.392V28.3338C122.392 28.1568 122.323 27.9874 122.2 27.8623C122.078 27.7373 121.912 27.6668 121.739 27.6668H116.522C116.162 27.6668 115.87 27.9656 115.87 28.3338V29.6669H113.261C112.901 29.6669 112.609 29.9653 112.609 30.3335V37.667C112.609 37.8436 112.677 38.0133 112.8 38.1384C112.922 38.2634 113.088 38.3335 113.261 38.3335H113.261ZM113.913 31.0001H116.522L116.522 31.0004C116.695 31.0004 116.861 30.93 116.983 30.8049C117.105 30.6799 117.174 30.5105 117.174 30.3335V29.0003H121.087V30.3335C121.087 30.5105 121.156 30.6799 121.278 30.8049C121.4 30.93 121.566 31.0004 121.739 31.0004H124.348V37.0004H113.913L113.913 31.0001Z" fill="url(#paint6_linear_6180_40146)"/>
<path d="M113.261 52.9998H122.392C122.564 52.9998 122.73 52.9296 122.853 52.8046C122.975 52.6796 123.044 52.5102 123.044 52.3332V51.6666L124.609 52.8665H124.609C124.807 53.018 125.073 53.0411 125.294 52.9267C125.513 52.8135 125.652 52.5843 125.652 52.3332V45.6667C125.652 45.4142 125.513 45.1833 125.292 45.0702C125.071 44.9574 124.806 44.9819 124.609 45.1334L123.044 46.3332V45.6667C123.044 45.4897 122.975 45.3203 122.853 45.1952C122.73 45.0702 122.564 45.0001 122.392 45.0001H120.97C121.181 44.3887 121.09 43.7105 120.724 43.181C120.359 42.651 119.765 42.3351 119.13 42.3334C118.648 42.3364 118.183 42.5213 117.826 42.8535C117.469 42.5213 117.005 42.3364 116.522 42.3334C115.888 42.3351 115.294 42.651 114.928 43.181C114.563 43.7106 114.471 44.3888 114.683 45.0001H113.261C112.901 45.0001 112.609 45.2985 112.609 45.6667V52.3332C112.609 52.5102 112.677 52.6796 112.8 52.8046C112.922 52.9297 113.088 52.9998 113.261 52.9998ZM123.044 47.9999L124.348 46.9998V50.9996L123.044 49.9995V47.9999ZM119.13 43.6666C119.394 43.6666 119.632 43.829 119.733 44.0781C119.834 44.3272 119.778 44.614 119.592 44.8046C119.405 44.9955 119.125 45.0524 118.881 44.9491C118.637 44.8459 118.478 44.6028 118.478 44.3332C118.478 43.965 118.77 43.6666 119.13 43.6666ZM116.522 43.6666C116.786 43.6666 117.023 43.829 117.124 44.0781C117.225 44.3272 117.17 44.614 116.983 44.8046C116.796 44.9955 116.516 45.0524 116.272 44.9491C116.028 44.8459 115.87 44.6028 115.87 44.3332C115.87 43.965 116.162 43.6666 116.522 43.6666ZM113.913 46.3332H121.739V51.6666H113.913L113.913 46.3332Z" fill="url(#paint7_linear_6180_40146)"/>
<path d="M131.522 45.0002V46.3333H130.218V47.6665H134.131V46.3333H132.826V45.0002H136.74C136.913 45.0002 137.079 44.9297 137.201 44.8047C137.323 44.6796 137.392 44.5102 137.392 44.3333V37.6667C137.392 37.4901 137.323 37.3204 137.201 37.1953C137.079 37.0703 136.913 37.0001 136.74 37.0001H127.609C127.249 37.0001 126.957 37.2985 126.957 37.6667V44.3333C126.957 44.5102 127.026 44.6796 127.148 44.8047C127.27 44.9297 127.436 45.0002 127.609 45.0002H131.522ZM128.261 38.3336L136.088 38.3333V43.6667H128.261V38.3336Z" fill="url(#paint8_linear_6180_40146)"/>
<path d="M119.131 31.6669C118.612 31.6669 118.114 31.8776 117.748 32.2528C117.381 32.6276 117.174 33.1364 117.174 33.667C117.174 34.1973 117.381 34.7061 117.748 35.0812C118.114 35.456 118.612 35.6667 119.131 35.6667C119.65 35.6667 120.147 35.456 120.514 35.0812C120.881 34.706 121.087 34.1972 121.087 33.667C121.087 33.1364 120.881 32.6276 120.514 32.2528C120.147 31.8776 119.65 31.6669 119.131 31.6669ZM119.131 34.3336C118.867 34.3336 118.629 34.1711 118.528 33.922C118.427 33.6729 118.483 33.3861 118.67 33.1956C118.856 33.0047 119.137 32.9478 119.381 33.051C119.624 33.1542 119.783 33.397 119.783 33.667C119.783 33.8436 119.714 34.0133 119.592 34.1384C119.47 34.2631 119.304 34.3336 119.131 34.3336Z" fill="url(#paint9_linear_6180_40146)"/>
<path d="M110 27.5003V62.5001C110 63.163 110.258 63.7988 110.717 64.2676C111.175 64.7367 111.797 65 112.446 65H137.554C138.203 65 138.825 64.7367 139.284 64.2676C139.742 63.7988 140 63.163 140 62.5001V27.5003C140 26.837 139.742 26.2012 139.284 25.7324C138.825 25.2637 138.203 25 137.554 25H112.446C111.797 25 111.175 25.2637 110.717 25.7324C110.258 26.2012 110 26.837 110 27.5003ZM138.696 62.5001H138.696C138.693 63.1428 138.184 63.6628 137.555 63.6665H112.446C111.817 63.6628 111.309 63.1428 111.305 62.5001V55.6665H138.696L138.696 62.5001ZM138.696 27.5003L138.696 54.3336H111.305V27.5003C111.309 26.8572 111.817 26.3372 112.446 26.3335H137.555C138.184 26.3372 138.693 26.8572 138.696 27.5003H138.696Z" fill="url(#paint10_linear_6180_40146)"/>
<path d="M125 62.3332C125.692 62.3332 126.356 62.0524 126.845 61.5522C127.334 61.052 127.609 60.3738 127.609 59.6665C127.609 58.9592 127.334 58.2811 126.845 57.7809C126.356 57.2807 125.692 56.9998 125 56.9998C124.309 56.9998 123.645 57.2807 123.156 57.7809C122.666 58.281 122.392 58.9592 122.392 59.6665C122.392 60.3738 122.666 61.0519 123.156 61.5522C123.645 62.0524 124.309 62.3332 125 62.3332ZM125 58.3331C125.346 58.3331 125.678 58.4737 125.923 58.7238C126.167 58.9739 126.305 59.313 126.305 59.6666C126.305 60.0202 126.167 60.3593 125.923 60.6094C125.678 60.8595 125.346 60.9998 125 60.9998C124.654 60.9998 124.323 60.8595 124.078 60.6094C123.833 60.3593 123.696 60.0203 123.696 59.6666C123.696 59.313 123.833 58.9739 124.078 58.7238C124.323 58.4737 124.654 58.3331 125 58.3331Z" fill="url(#paint11_linear_6180_40146)"/>
<path d="M133.479 27.6663H134.783V28.9994H133.479V27.6663Z" fill="url(#paint12_linear_6180_40146)"/>
<path d="M136.087 27.6663H137.391V28.9994H136.087V27.6663Z" fill="url(#paint13_linear_6180_40146)"/>
<path d="M196.676 54.3982H219.063V56.5566H196.676V54.3982Z" fill="url(#paint14_linear_6180_40146)"/>
<path d="M209.658 31.2104H219.062V33.3678H209.658V31.2104Z" fill="url(#paint15_linear_6180_40146)"/>
<path d="M209.658 37.0076H219.062V39.1659H209.658V37.0076Z" fill="url(#paint16_linear_6180_40146)"/>
<path d="M198.167 39.9593H204.251C205.291 39.9593 206.138 39.1027 206.138 38.0491V31.8857C206.138 30.8318 205.291 29.9747 204.251 29.9747H198.167C197.127 29.9747 196.281 30.8314 196.281 31.8857V38.0484C196.281 39.102 197.126 39.9593 198.167 39.9593ZM198.324 32.0445H204.094V37.8896H198.324V32.0445Z" fill="url(#paint17_linear_6180_40146)"/>
<path d="M220.569 25.0003H195.168C192.725 25.0003 190.737 27.0139 190.737 29.4892V35.0034L188.933 35.003C186.764 35.003 185 37.0169 185 39.4922V60.5111C185 62.9865 186.988 65 189.431 65H220.568C223.012 65 225 62.9865 225 60.5111L225 29.4886C225 27.0132 223.012 25 220.568 25L220.569 25.0003ZM222.871 60.5109C222.871 61.7962 221.838 62.8421 220.569 62.8421H189.432C188.163 62.8421 187.13 61.7966 187.13 60.5109L187.13 39.492C187.13 38.207 187.939 37.1608 188.934 37.1608H190.738V55.4692C190.738 56.0644 191.215 56.5478 191.802 56.5478C192.39 56.5478 192.867 56.0647 192.867 55.4692L192.868 29.4887C192.868 28.2037 193.9 27.1575 195.169 27.1575H220.569C221.838 27.1575 222.871 28.2033 222.871 29.4887L222.871 60.5109Z" fill="url(#paint18_linear_6180_40146)"/>
<path d="M196.676 42.8048H219.063V44.9631H196.676V42.8048Z" fill="url(#paint19_linear_6180_40146)"/>
<path d="M196.676 48.601H219.063V50.7591H196.676V48.601Z" fill="url(#paint20_linear_6180_40146)"/>
<path d="M302.239 29.8852L301.268 28.9546L299.367 30.8733L300.337 31.8039L302.239 29.8852Z" fill="url(#paint21_linear_6180_40146)"/>
<path d="M302.31 34.9046H305V36.2378H302.31V34.9046Z" fill="url(#paint22_linear_6180_40146)"/>
<path d="M294.501 25.666H295.857V28.3787H294.501V25.666Z" fill="url(#paint23_linear_6180_40146)"/>
<path d="M270.424 42.7527V53.2286L269.431 54.2051L267.993 52.7913C267.804 52.6054 267.524 52.5455 267.275 52.6378C267.027 52.7278 266.855 52.955 266.837 53.2177L266.358 60.2892C266.346 60.482 266.419 60.6702 266.558 60.8046C266.685 60.9296 266.856 60.9997 267.034 60.9997H267.079L274.27 60.5283V60.5287C274.534 60.5121 274.764 60.3441 274.86 60.0979C274.953 59.8525 274.892 59.5753 274.704 59.392L273.267 57.9764L274.26 56.9999H279.238V60.0573L275.371 63.862H275.371C275.177 64.0509 275.119 64.3394 275.224 64.5885C275.331 64.8392 275.578 65.0013 275.85 65H294.831C295.103 65.0013 295.35 64.8392 295.456 64.5885C295.562 64.3394 295.503 64.0509 295.31 63.862L291.443 60.0573V56.9999H299.577C299.755 57.0015 299.927 56.9321 300.054 56.807C300.181 56.682 300.253 56.5116 300.255 56.3333V41.0369L301.921 40.6168C302.154 40.5589 302.339 40.3809 302.405 40.1504C302.47 39.9205 302.406 39.6737 302.238 39.5043L299.79 37.0378C300.615 35.685 300.285 33.7005 298.909 32.3131C298.109 31.4758 297.01 30.9892 295.852 30.9598C295.274 30.9565 294.707 31.1126 294.211 31.4103L291.778 28.9557C291.604 28.7814 291.349 28.7133 291.111 28.7778C290.875 28.8406 290.691 29.0265 290.631 29.2637L288.777 36.759L288.537 37.0005H283.583C283.847 36.136 283.982 35.2376 283.983 34.3338C283.96 31.8381 282.947 29.4543 281.167 27.7043C279.388 25.9547 276.987 24.9824 274.491 25.0002C271.996 24.9824 269.595 25.9549 267.816 27.7047C266.037 29.4543 265.024 31.8385 265 34.3338C265.01 36.1076 265.525 37.8424 266.486 39.3337C267.447 40.825 268.813 42.0116 270.424 42.7537L270.424 42.7527ZM295.854 32.2912C296.647 32.3209 297.397 32.6623 297.94 33.242C298.321 33.585 298.601 34.025 298.75 34.5153C298.9 35.0055 298.914 35.5272 298.789 36.0244L295.196 32.3993C295.408 32.3255 295.63 32.2889 295.854 32.2912ZM272.617 31.4774C273.234 31.6021 273.862 31.6653 274.492 31.6659C275.121 31.6649 275.75 31.6021 276.367 31.478C276.444 32.1512 276.496 32.8813 276.515 33.666H272.467C272.488 32.8813 272.54 32.1512 272.617 31.4774ZM276.515 34.9992C276.496 35.7846 276.443 36.5147 276.367 37.1886C275.129 36.9441 273.855 36.9441 272.617 37.1886C272.54 36.5154 272.488 35.7846 272.469 34.9999L276.515 34.9992ZM272.525 42.0866C271.272 41.7796 270.11 41.1802 269.134 40.3373C269.835 39.7253 270.639 39.2406 271.508 38.9059C271.691 40.0098 272.034 41.0813 272.525 42.0866ZM272.808 38.5078C273.919 38.2766 275.065 38.2766 276.175 38.5078C275.734 40.9407 274.976 42.3327 274.492 42.3327C274.007 42.3327 273.25 40.9406 272.808 38.5078ZM277.475 38.9078C278.344 39.2432 279.147 39.7279 279.849 40.3399C278.872 41.1828 277.71 41.7822 276.457 42.0892C276.949 41.0828 277.293 40.0103 277.476 38.9051L277.475 38.9078ZM280.803 39.3746C279.892 38.5704 278.834 37.951 277.686 37.5511C277.787 36.7278 277.849 35.8699 277.869 35.0039H282.591C282.456 36.6077 281.832 38.1311 280.804 39.37L280.803 39.3746ZM277.871 33.6661C277.85 32.7994 277.789 31.9423 277.688 31.1188V31.1185C278.835 30.7189 279.893 30.0996 280.804 29.2954C281.833 30.5353 282.457 32.0607 282.593 33.6661L277.871 33.6661ZM277.476 29.7595V29.7592C277.293 28.6553 276.95 27.5837 276.458 26.5787C277.711 26.8857 278.873 27.4851 279.85 28.328C279.148 28.94 278.345 29.4243 277.476 29.7591V29.7595ZM276.175 30.1595L276.175 30.1591C275.065 30.3907 273.919 30.3907 272.809 30.1591C273.25 27.7247 274.007 26.3326 274.492 26.3326C274.976 26.3326 275.734 27.7247 276.175 30.1571L276.175 30.1595ZM271.508 29.7592C270.639 29.4244 269.836 28.9401 269.134 28.3281C270.11 27.4849 271.272 26.8855 272.525 26.5788C272.034 27.5841 271.691 28.6559 271.508 29.7599L271.508 29.7592ZM271.296 31.1182C271.195 31.9419 271.134 32.7994 271.112 33.6661H266.39C266.526 32.0607 267.151 30.5353 268.179 29.2954C269.09 30.0996 270.148 30.7189 271.296 31.1185L271.296 31.1182ZM271.112 34.9992C271.133 35.8659 271.194 36.7231 271.296 37.5465C270.148 37.9464 269.09 38.5657 268.179 39.3699C267.15 38.1297 266.526 36.6047 266.39 34.9992H271.112ZM271.828 58.4477L272.689 59.2936L267.762 59.6168L268.09 54.772L268.951 55.6186L268.952 55.6189C269.218 55.8789 269.644 55.8789 269.91 55.6189L275.184 50.4328L277.102 52.3188L271.828 57.5049C271.701 57.629 271.63 57.799 271.63 57.9763C271.63 58.154 271.701 58.3237 271.828 58.4477L271.828 58.4477ZM290.283 60.8044L293.194 63.6662H277.485L280.395 60.8044H280.395C280.523 60.6807 280.595 60.5106 280.595 60.333V56.9997H290.085V60.333C290.085 60.5106 290.157 60.6803 290.284 60.8044H290.283ZM298.898 48.6093C298.826 48.5382 298.74 48.4839 298.644 48.4508L295.944 47.5427L292.715 44.2859L294.499 42.4859L298.899 41.3767L298.898 48.6093ZM289.381 45.7382L288.44 46.6873L284.632 42.8469L289.391 38.0467L293.2 41.8881L290.333 44.7821L289.381 45.7382ZM282.888 45.5662L284.161 44.2823L287.018 47.1631L285.721 48.4717V48.4714C285.382 48.8009 284.842 48.8009 284.503 48.4714L282.887 46.8422C282.539 46.4879 282.539 45.9202 282.887 45.5663L282.888 45.5662ZM291.769 45.241L295.088 48.5885L295.087 48.5881C295.162 48.6632 295.253 48.7198 295.354 48.7532L297.192 49.3712L296.337 50.2326L294.043 49.4605L290.813 46.204L291.769 45.241ZM291.662 30.7475L300.452 39.6099L294.359 41.1432L290.141 36.888L291.662 30.7475ZM287.215 38.333L283.2 42.3818C283.076 42.5056 283.006 42.6733 283.006 42.8483C283.006 43.0236 283.076 43.1913 283.2 43.3151L283.214 43.329L281.917 44.637H281.917C281.505 45.0554 281.274 45.6188 281.274 46.206C281.274 46.7932 281.505 47.3569 281.917 47.775L283.533 49.3996C283.951 49.8211 284.52 50.0583 285.113 50.0583C285.707 50.0583 286.275 49.8211 286.693 49.3996L287.968 48.1137C288.235 48.3748 288.664 48.3711 288.926 48.1058L289.867 47.159L293.185 50.5065L293.184 50.5061C293.26 50.5812 293.351 50.6378 293.451 50.6715L296.304 51.6302C296.551 51.7136 296.824 51.6494 297.009 51.4648L298.898 49.5586V55.6661H275.616L278.54 52.7907V52.791C278.667 52.667 278.738 52.4969 278.738 52.3193C278.738 52.1416 278.667 51.9716 278.54 51.8475L275.667 49.0188C275.396 48.769 274.979 48.769 274.708 49.0188L271.783 51.8949V43.2728C273.942 43.9122 276.259 43.767 278.321 42.8629C280.384 41.9588 282.061 40.354 283.054 38.3328L287.215 38.333Z" fill="url(#paint24_linear_6180_40146)"/>
<path d="M384.936 36.191C384.935 35.9141 384.706 35.6906 384.422 35.6906H379.625L378.314 31.3595C378.276 31.2308 378.185 31.1224 378.065 31.0593C377.942 30.9969 377.802 30.9826 377.67 31.0218L362.178 35.6902H350.618C350.48 35.6902 350.347 35.7449 350.25 35.8423C350.153 35.9396 350.101 36.0713 350.105 36.2068L350.197 39.3004L345.362 40.7575C345.23 40.7973 345.121 40.8869 345.058 41.0063C344.994 41.1256 344.983 41.2654 345.025 41.3935L350.798 58.6532C350.8 58.6597 350.807 58.6623 350.809 58.6684C350.842 58.7567 350.899 58.8298 350.973 58.8868C350.988 58.8981 351.002 58.9059 351.018 58.9156C351.097 58.9644 351.185 59 351.286 59H351.292C354.735 58.9644 384.189 58.9987 384.485 59H384.486C384.623 59 384.753 58.946 384.85 58.8518C384.946 58.7574 385 58.6299 385 58.4963L384.936 36.191ZM346.163 41.5663L350.229 40.3415L350.669 55.0381L346.163 41.5663ZM377.477 32.131L378.554 35.6905H365.664L377.477 32.131ZM361.44 57.9796C357.076 57.9796 353.373 57.9832 351.784 57.9919L351.147 36.6941H383.911L383.971 57.9952C381.439 57.9916 370.125 57.9794 361.439 57.9794L361.44 57.9796Z" fill="url(#paint25_linear_6180_40146)"/>
<path d="M353.889 42.9256H353.891L381.217 42.8399C381.502 42.8392 381.73 42.6138 381.73 42.3362C381.728 42.0599 381.499 41.8364 381.216 41.8364H381.215L353.887 41.9221C353.604 41.9228 353.375 42.1483 353.376 42.4258C353.376 42.7018 353.606 42.9256 353.889 42.9256H353.889Z" fill="url(#paint26_linear_6180_40146)"/>
<path d="M371.822 44.6565L364.966 44.6448H364.966C364.683 44.6448 364.453 44.869 364.453 45.1459C364.452 45.4229 364.681 45.6477 364.965 45.6483L371.819 45.66H371.821C372.104 45.66 372.333 45.4358 372.334 45.1589C372.334 44.882 372.105 44.6571 371.822 44.6565Z" fill="url(#paint27_linear_6180_40146)"/>
<path d="M371.817 46.9844L364.962 46.9734H364.961C364.678 46.9734 364.449 47.1976 364.448 47.4745C364.448 47.7528 364.677 47.9769 364.961 47.9782L371.815 47.9892H371.816C372.099 47.9892 372.329 47.765 372.33 47.4881C372.33 47.2099 372.101 46.9854 371.817 46.9844Z" fill="url(#paint28_linear_6180_40146)"/>
<path d="M371.812 50.3186C372.095 50.3186 372.325 50.0944 372.326 49.8175C372.326 49.5406 372.097 49.3151 371.814 49.3138L364.958 49.3015H364.957C364.674 49.3015 364.445 49.5257 364.444 49.8026C364.443 50.0796 364.673 50.305 364.956 50.3063L371.811 50.3186H371.812Z" fill="url(#paint29_linear_6180_40146)"/>
<path d="M364.955 51.6313H364.953C364.67 51.6313 364.441 51.8554 364.44 52.1324C364.44 52.4093 364.669 52.6348 364.952 52.636L369.02 52.6435H369.021C369.304 52.6435 369.534 52.4193 369.535 52.1424C369.535 51.8655 369.306 51.64 369.022 51.6387L364.955 51.6313Z" fill="url(#paint30_linear_6180_40146)"/>
<path d="M374.516 44.6606H374.515C374.232 44.6606 374.002 44.8848 374.001 45.1617C374.001 45.4386 374.23 45.6635 374.513 45.6641L381.368 45.6758H381.369C381.652 45.6758 381.882 45.4516 381.883 45.1747C381.883 44.8977 381.654 44.6729 381.371 44.6723L374.516 44.6606Z" fill="url(#paint31_linear_6180_40146)"/>
<path d="M381.368 47.001L374.513 46.99H374.512C374.229 46.99 373.999 47.2142 373.998 47.4911C373.998 47.7693 374.227 47.9935 374.511 47.9948L381.365 48.0058H381.366C381.65 48.0058 381.879 47.7816 381.88 47.5047C381.88 47.2265 381.651 47.002 381.368 47.001Z" fill="url(#paint32_linear_6180_40146)"/>
<path d="M381.363 50.3344C381.646 50.3344 381.875 50.1102 381.876 49.8332C381.876 49.5563 381.647 49.3309 381.364 49.3296L374.509 49.3173H374.508C374.225 49.3173 373.996 49.5415 373.994 49.8184C373.994 50.0953 374.224 50.3208 374.507 50.3221L381.361 50.3344H381.363Z" fill="url(#paint33_linear_6180_40146)"/>
<path d="M374.503 51.647H374.502C374.219 51.647 373.99 51.8712 373.988 52.1481C373.988 52.425 374.218 52.6505 374.501 52.6518L378.569 52.6592H378.57C378.854 52.6592 379.083 52.435 379.084 52.1581C379.084 51.8812 378.855 51.6557 378.572 51.6544L374.503 51.647Z" fill="url(#paint34_linear_6180_40146)"/>
<path d="M382.795 53.9012H364.235C363.952 53.9012 363.722 54.1267 363.722 54.4036C363.722 54.6805 363.952 54.906 364.235 54.906H382.795C383.079 54.906 383.309 54.6805 383.309 54.4036C383.309 54.1267 383.079 53.9012 382.795 53.9012Z" fill="url(#paint35_linear_6180_40146)"/>
<path d="M364.235 55.9145C363.952 55.9145 363.722 56.14 363.722 56.4169C363.722 56.6938 363.952 56.9193 364.235 56.9193H373.671C373.954 56.9193 374.185 56.6938 374.185 56.4169C374.185 56.14 373.954 55.9145 373.671 55.9145H364.235Z" fill="url(#paint36_linear_6180_40146)"/>
<path d="M356.369 40.5223H380.079C380.362 40.5223 380.593 40.2975 380.593 40.0205V38.2517C380.593 37.9748 380.362 37.7499 380.079 37.7499L356.369 37.7503C356.086 37.7503 355.856 37.9751 355.856 38.252V40.0209C355.856 40.2975 356.086 40.5223 356.369 40.5223ZM356.882 38.7538H379.566V39.5188H356.882V38.7538Z" fill="url(#paint37_linear_6180_40146)"/>
<path d="M361.623 44.0966H353.425C353.142 44.0966 352.912 44.3215 352.912 44.5984V55.1384C352.912 55.4153 353.142 55.6408 353.425 55.6408H361.623C361.907 55.6408 362.136 55.4153 362.136 55.1384V44.5984C362.136 44.3215 361.907 44.0966 361.623 44.0966ZM354.308 54.6358L355.535 51.7476L357.143 53.1752C357.26 53.2794 357.42 53.3259 357.575 53.2991C357.731 53.2722 357.865 53.1778 357.94 53.0416L358.976 51.1582L360.677 54.6358L354.308 54.6358ZM361.11 53.1947L359.465 49.8325C359.382 49.6623 359.208 49.552 359.014 49.5481C358.824 49.4928 358.642 49.6462 358.55 49.8115L357.347 52.0012L355.686 50.5261C355.561 50.4158 355.392 50.374 355.229 50.407C355.066 50.4426 354.931 50.5539 354.867 50.7047L353.938 52.8906V45.1004H361.111L361.11 53.1947Z" fill="url(#paint38_linear_6180_40146)"/>
<path d="M356.851 49.6544C357.835 49.6544 358.635 48.8716 358.635 47.9095C358.635 46.9478 357.835 46.1652 356.851 46.1652C355.867 46.1652 355.067 46.9478 355.067 47.9095C355.067 48.8712 355.867 49.6544 356.851 49.6544ZM356.851 47.1693C357.269 47.1693 357.609 47.5015 357.609 47.9095C357.609 48.3174 357.269 48.6496 356.851 48.6496C356.433 48.6496 356.093 48.3174 356.093 47.9095C356.093 47.5015 356.433 47.1693 356.851 47.1693Z" fill="url(#paint39_linear_6180_40146)"/>
<path d="M453.965 25H429.138C428.772 25 428.421 25.1451 428.162 25.4038C427.904 25.6625 427.759 26.0133 427.759 26.3792V27.7586H426.379C426.013 27.7586 425.663 27.9037 425.404 28.1625C425.145 28.4212 425 28.772 425 29.1378V63.6205C425 63.9863 425.145 64.3371 425.404 64.5958C425.663 64.8546 426.013 65 426.379 65H451.207C451.573 65 451.923 64.8546 452.182 64.5958C452.441 64.3371 452.586 63.9863 452.586 63.6205V62.2414H453.965C454.331 62.2414 454.682 62.0959 454.941 61.8372C455.2 61.5785 455.345 61.2277 455.345 60.8619V26.3792C455.345 26.0133 455.2 25.6626 454.941 25.4038C454.682 25.1451 454.331 25 453.965 25ZM451.207 63.6204H426.379V29.1377H451.207V63.6204ZM453.965 60.8618H452.586V29.1379C452.586 28.7721 452.441 28.4213 452.182 28.1626C451.923 27.9038 451.573 27.7588 451.207 27.7588H429.137V26.3793H453.965L453.965 60.8618Z" fill="url(#paint40_linear_6180_40146)"/>
<path d="M464.724 34.4477L462.241 32.5857V30.8615C462.241 29.8759 461.715 28.9652 460.862 28.4724C460.008 27.9797 458.957 27.9797 458.103 28.4724C457.25 28.9652 456.724 29.8759 456.724 30.8615V57.7582C456.724 57.8831 456.758 58.006 456.823 58.1131L458.892 61.5613V61.5616C459.016 61.769 459.24 61.8956 459.483 61.8956C459.725 61.8956 459.949 61.769 460.074 61.5616L462.143 58.1134L462.142 58.1131C462.207 58.006 462.241 57.8831 462.241 57.7582V34.3098L463.62 35.344V42.5854C463.62 42.9663 463.929 43.2753 464.31 43.2753C464.691 43.2753 465 42.9663 465 42.5854V34.999V34.9994C465 34.782 464.898 34.5777 464.724 34.4474V34.4477ZM460.862 54.3094H458.103V33.6198H460.862V54.3094ZM458.103 30.861C458.103 30.3682 458.366 29.9131 458.793 29.6666C459.22 29.4202 459.746 29.4202 460.172 29.6666C460.599 29.913 460.862 30.3682 460.862 30.861V32.2401L458.103 32.2405L458.103 30.861ZM460.862 57.5667L459.483 59.8661L458.104 57.5667L458.103 55.6889H460.862L460.862 57.5667Z" fill="url(#paint41_linear_6180_40146)"/>
<path d="M447.758 35.3448H440.172C439.791 35.3448 439.482 35.6538 439.482 36.0347C439.482 36.4156 439.791 36.7243 440.172 36.7243H447.758C448.139 36.7243 448.448 36.4156 448.448 36.0347C448.448 35.6538 448.139 35.3448 447.758 35.3448Z" fill="url(#paint42_linear_6180_40146)"/>
<path d="M447.758 45.6896H440.172C439.791 45.6896 439.482 45.9983 439.482 46.3792C439.482 46.7601 439.791 47.0688 440.172 47.0688H447.758C448.139 47.0688 448.448 46.7601 448.448 46.3792C448.448 45.9983 448.139 45.6896 447.758 45.6896Z" fill="url(#paint43_linear_6180_40146)"/>
<path d="M447.758 56.0344H440.172C439.791 56.0344 439.482 56.3434 439.482 56.7243C439.482 57.1052 439.791 57.4139 440.172 57.4139H447.758C448.139 57.4139 448.448 57.1052 448.448 56.7243C448.448 56.3434 448.139 56.0344 447.758 56.0344Z" fill="url(#paint44_linear_6180_40146)"/>
<path d="M436.724 33.2764H433.965V32.5865C433.965 32.2056 433.657 31.8969 433.276 31.8969C432.895 31.8969 432.586 32.2056 432.586 32.5865V33.276L429.827 33.2764C429.446 33.2764 429.138 33.5851 429.138 33.9659C429.138 34.3468 429.446 34.6555 429.827 34.6555H434.44C434.187 35.3844 433.816 36.0672 433.344 36.6777C433.026 36.3591 432.732 36.0162 432.467 35.6514C432.255 35.3369 431.828 35.2534 431.513 35.4642C431.197 35.675 431.111 36.101 431.32 36.4176C431.638 36.8652 431.993 37.2845 432.383 37.6709C431.767 38.1849 431.059 38.578 430.297 38.8293C429.935 38.9498 429.739 39.3406 429.86 39.7027C429.98 40.0644 430.371 40.2601 430.733 40.1397C431.721 39.8163 432.634 39.2968 433.417 38.612C434.13 39.192 434.904 39.692 435.726 40.1037C436.067 40.2741 436.481 40.1358 436.651 39.795C436.822 39.4538 436.683 39.0397 436.342 38.8693C435.646 38.5179 434.988 38.0938 434.379 37.6044C435.067 36.728 435.579 35.7263 435.887 34.6555H436.724C437.105 34.6555 437.414 34.3468 437.414 33.9659C437.414 33.5851 437.105 33.2764 436.724 33.2764Z" fill="url(#paint45_linear_6180_40146)"/>
<path d="M433.896 42.6224C433.766 42.4051 433.532 42.272 433.279 42.272C433.026 42.272 432.791 42.4051 432.662 42.6224L429.213 49.5189C429.131 49.6828 429.118 49.8721 429.176 50.0459C429.234 50.2194 429.358 50.3628 429.522 50.4446C429.863 50.6147 430.278 50.4764 430.448 50.1356L433.275 44.4728L434.573 47.0686H433.275C432.895 47.0686 432.585 47.3776 432.585 47.7585C432.585 48.1394 432.895 48.4481 433.275 48.4481H435.263L436.107 50.1356H436.106C436.277 50.4764 436.691 50.6147 437.032 50.4446C437.373 50.2742 437.511 49.8601 437.341 49.5189L433.896 42.6224Z" fill="url(#paint46_linear_6180_40146)"/>
<path d="M436.034 59.4827H432.585C432.092 59.4827 431.637 59.2195 431.391 58.7928C431.144 58.366 431.144 57.8404 431.391 57.4136C431.637 56.9869 432.092 56.7241 432.585 56.7241H435.344C435.725 56.7241 436.034 56.415 436.034 56.0341C436.034 55.6532 435.725 55.3446 435.344 55.3446H433.965C433.714 55.3446 433.484 55.209 433.362 54.9907C433.241 54.772 433.247 54.5048 433.378 54.2922C433.51 54.0794 433.746 53.9548 433.996 53.9661C434.246 53.9774 434.47 54.1228 434.582 54.3466C434.752 54.6875 435.166 54.8254 435.507 54.655C435.848 54.4846 435.986 54.0701 435.816 53.7297C435.487 53.1037 434.863 52.6886 434.159 52.6288C433.455 52.5685 432.769 52.8721 432.34 53.4333C431.91 53.9946 431.797 54.7362 432.039 55.3997C431.138 55.5828 430.388 56.2029 430.037 57.0533C429.687 57.9037 429.784 58.8726 430.295 59.6371C430.807 60.4016 431.665 60.8609 432.585 60.8618H436.033C436.414 60.8618 436.723 60.5532 436.723 60.1723C436.723 59.7914 436.414 59.4827 436.033 59.4827H436.034Z" fill="url(#paint47_linear_6180_40146)"/>
<defs>
<linearGradient id="paint0_linear_6180_40146" x1="57.6624" y1="53.6397" x2="57.6624" y2="61.6506" gradientUnits="userSpaceOnUse">
<stop stop-color="#ED3040"/>
<stop offset="1" stop-color="#2D23F4"/>
</linearGradient>
<linearGradient id="paint1_linear_6180_40146" x1="57.6624" y1="53.6397" x2="57.6624" y2="61.6506" gradientUnits="userSpaceOnUse">
<stop stop-color="#ED3040"/>
<stop offset="1" stop-color="#2D23F4"/>
</linearGradient>
<linearGradient id="paint2_linear_6180_40146" x1="57.6624" y1="53.6397" x2="57.6624" y2="61.6506" gradientUnits="userSpaceOnUse">
<stop stop-color="#ED3040"/>
<stop offset="1" stop-color="#2D23F4"/>
</linearGradient>
<linearGradient id="paint3_linear_6180_40146" x1="57.6624" y1="53.6397" x2="57.6624" y2="61.6506" gradientUnits="userSpaceOnUse">
<stop stop-color="#ED3040"/>
<stop offset="1" stop-color="#2D23F4"/>
</linearGradient>
<linearGradient id="paint4_linear_6180_40146" x1="57.6624" y1="53.6397" x2="57.6624" y2="61.6506" gradientUnits="userSpaceOnUse">
<stop stop-color="#ED3040"/>
<stop offset="1" stop-color="#2D23F4"/>
</linearGradient>
<linearGradient id="paint5_linear_6180_40146" x1="57.6624" y1="53.6397" x2="57.6624" y2="61.6506" gradientUnits="userSpaceOnUse">
<stop stop-color="#ED3040"/>
<stop offset="1" stop-color="#2D23F4"/>
</linearGradient>
<linearGradient id="paint6_linear_6180_40146" x1="134.497" y1="53.6397" x2="134.497" y2="61.6506" gradientUnits="userSpaceOnUse">
<stop stop-color="#ED3040"/>
<stop offset="1" stop-color="#2D23F4"/>
</linearGradient>
<linearGradient id="paint7_linear_6180_40146" x1="134.497" y1="53.6397" x2="134.497" y2="61.6506" gradientUnits="userSpaceOnUse">
<stop stop-color="#ED3040"/>
<stop offset="1" stop-color="#2D23F4"/>
</linearGradient>
<linearGradient id="paint8_linear_6180_40146" x1="134.497" y1="53.6397" x2="134.497" y2="61.6506" gradientUnits="userSpaceOnUse">
<stop stop-color="#ED3040"/>
<stop offset="1" stop-color="#2D23F4"/>
</linearGradient>
<linearGradient id="paint9_linear_6180_40146" x1="134.497" y1="53.6397" x2="134.497" y2="61.6506" gradientUnits="userSpaceOnUse">
<stop stop-color="#ED3040"/>
<stop offset="1" stop-color="#2D23F4"/>
</linearGradient>
<linearGradient id="paint10_linear_6180_40146" x1="134.497" y1="53.6397" x2="134.497" y2="61.6506" gradientUnits="userSpaceOnUse">
<stop stop-color="#ED3040"/>
<stop offset="1" stop-color="#2D23F4"/>
</linearGradient>
<linearGradient id="paint11_linear_6180_40146" x1="134.497" y1="53.6397" x2="134.497" y2="61.6506" gradientUnits="userSpaceOnUse">
<stop stop-color="#ED3040"/>
<stop offset="1" stop-color="#2D23F4"/>
</linearGradient>
<linearGradient id="paint12_linear_6180_40146" x1="134.497" y1="53.6397" x2="134.497" y2="61.6506" gradientUnits="userSpaceOnUse">
<stop stop-color="#ED3040"/>
<stop offset="1" stop-color="#2D23F4"/>
</linearGradient>
<linearGradient id="paint13_linear_6180_40146" x1="134.497" y1="53.6397" x2="134.497" y2="61.6506" gradientUnits="userSpaceOnUse">
<stop stop-color="#ED3040"/>
<stop offset="1" stop-color="#2D23F4"/>
</linearGradient>
<linearGradient id="paint14_linear_6180_40146" x1="217.662" y1="53.6397" x2="217.662" y2="61.6506" gradientUnits="userSpaceOnUse">
<stop stop-color="#ED3040"/>
<stop offset="1" stop-color="#2D23F4"/>
</linearGradient>
<linearGradient id="paint15_linear_6180_40146" x1="217.662" y1="53.6397" x2="217.662" y2="61.6506" gradientUnits="userSpaceOnUse">
<stop stop-color="#ED3040"/>
<stop offset="1" stop-color="#2D23F4"/>
</linearGradient>
<linearGradient id="paint16_linear_6180_40146" x1="217.662" y1="53.6397" x2="217.662" y2="61.6506" gradientUnits="userSpaceOnUse">
<stop stop-color="#ED3040"/>
<stop offset="1" stop-color="#2D23F4"/>
</linearGradient>
<linearGradient id="paint17_linear_6180_40146" x1="217.662" y1="53.6397" x2="217.662" y2="61.6506" gradientUnits="userSpaceOnUse">
<stop stop-color="#ED3040"/>
<stop offset="1" stop-color="#2D23F4"/>
</linearGradient>
<linearGradient id="paint18_linear_6180_40146" x1="217.662" y1="53.6397" x2="217.662" y2="61.6506" gradientUnits="userSpaceOnUse">
<stop stop-color="#ED3040"/>
<stop offset="1" stop-color="#2D23F4"/>
</linearGradient>
<linearGradient id="paint19_linear_6180_40146" x1="217.662" y1="53.6397" x2="217.662" y2="61.6506" gradientUnits="userSpaceOnUse">
<stop stop-color="#ED3040"/>
<stop offset="1" stop-color="#2D23F4"/>
</linearGradient>
<linearGradient id="paint20_linear_6180_40146" x1="217.662" y1="53.6397" x2="217.662" y2="61.6506" gradientUnits="userSpaceOnUse">
<stop stop-color="#ED3040"/>
<stop offset="1" stop-color="#2D23F4"/>
</linearGradient>
<linearGradient id="paint21_linear_6180_40146" x1="297.662" y1="53.6397" x2="297.662" y2="61.6506" gradientUnits="userSpaceOnUse">
<stop stop-color="#ED3040"/>
<stop offset="1" stop-color="#2D23F4"/>
</linearGradient>
<linearGradient id="paint22_linear_6180_40146" x1="297.662" y1="53.6397" x2="297.662" y2="61.6506" gradientUnits="userSpaceOnUse">
<stop stop-color="#ED3040"/>
<stop offset="1" stop-color="#2D23F4"/>
</linearGradient>
<linearGradient id="paint23_linear_6180_40146" x1="297.662" y1="53.6397" x2="297.662" y2="61.6506" gradientUnits="userSpaceOnUse">
<stop stop-color="#ED3040"/>
<stop offset="1" stop-color="#2D23F4"/>
</linearGradient>
<linearGradient id="paint24_linear_6180_40146" x1="297.662" y1="53.6397" x2="297.662" y2="61.6506" gradientUnits="userSpaceOnUse">
<stop stop-color="#ED3040"/>
<stop offset="1" stop-color="#2D23F4"/>
</linearGradient>
<linearGradient id="paint25_linear_6180_40146" x1="377.662" y1="51.0478" x2="377.662" y2="56.6554" gradientUnits="userSpaceOnUse">
<stop stop-color="#ED3040"/>
<stop offset="1" stop-color="#2D23F4"/>
</linearGradient>
<linearGradient id="paint26_linear_6180_40146" x1="377.662" y1="51.0478" x2="377.662" y2="56.6554" gradientUnits="userSpaceOnUse">
<stop stop-color="#ED3040"/>
<stop offset="1" stop-color="#2D23F4"/>
</linearGradient>
<linearGradient id="paint27_linear_6180_40146" x1="377.662" y1="51.0478" x2="377.662" y2="56.6554" gradientUnits="userSpaceOnUse">
<stop stop-color="#ED3040"/>
<stop offset="1" stop-color="#2D23F4"/>
</linearGradient>
<linearGradient id="paint28_linear_6180_40146" x1="377.662" y1="51.0478" x2="377.662" y2="56.6554" gradientUnits="userSpaceOnUse">
<stop stop-color="#ED3040"/>
<stop offset="1" stop-color="#2D23F4"/>
</linearGradient>
<linearGradient id="paint29_linear_6180_40146" x1="377.662" y1="51.0478" x2="377.662" y2="56.6554" gradientUnits="userSpaceOnUse">
<stop stop-color="#ED3040"/>
<stop offset="1" stop-color="#2D23F4"/>
</linearGradient>
<linearGradient id="paint30_linear_6180_40146" x1="377.662" y1="51.0478" x2="377.662" y2="56.6554" gradientUnits="userSpaceOnUse">
<stop stop-color="#ED3040"/>
<stop offset="1" stop-color="#2D23F4"/>
</linearGradient>
<linearGradient id="paint31_linear_6180_40146" x1="377.662" y1="51.0478" x2="377.662" y2="56.6554" gradientUnits="userSpaceOnUse">
<stop stop-color="#ED3040"/>
<stop offset="1" stop-color="#2D23F4"/>
</linearGradient>
<linearGradient id="paint32_linear_6180_40146" x1="377.662" y1="51.0478" x2="377.662" y2="56.6554" gradientUnits="userSpaceOnUse">
<stop stop-color="#ED3040"/>
<stop offset="1" stop-color="#2D23F4"/>
</linearGradient>
<linearGradient id="paint33_linear_6180_40146" x1="377.662" y1="51.0478" x2="377.662" y2="56.6554" gradientUnits="userSpaceOnUse">
<stop stop-color="#ED3040"/>
<stop offset="1" stop-color="#2D23F4"/>
</linearGradient>
<linearGradient id="paint34_linear_6180_40146" x1="377.662" y1="51.0478" x2="377.662" y2="56.6554" gradientUnits="userSpaceOnUse">
<stop stop-color="#ED3040"/>
<stop offset="1" stop-color="#2D23F4"/>
</linearGradient>
<linearGradient id="paint35_linear_6180_40146" x1="377.662" y1="51.0478" x2="377.662" y2="56.6554" gradientUnits="userSpaceOnUse">
<stop stop-color="#ED3040"/>
<stop offset="1" stop-color="#2D23F4"/>
</linearGradient>
<linearGradient id="paint36_linear_6180_40146" x1="377.662" y1="51.0478" x2="377.662" y2="56.6554" gradientUnits="userSpaceOnUse">
<stop stop-color="#ED3040"/>
<stop offset="1" stop-color="#2D23F4"/>
</linearGradient>
<linearGradient id="paint37_linear_6180_40146" x1="377.662" y1="51.0478" x2="377.662" y2="56.6554" gradientUnits="userSpaceOnUse">
<stop stop-color="#ED3040"/>
<stop offset="1" stop-color="#2D23F4"/>
</linearGradient>
<linearGradient id="paint38_linear_6180_40146" x1="377.662" y1="51.0478" x2="377.662" y2="56.6554" gradientUnits="userSpaceOnUse">
<stop stop-color="#ED3040"/>
<stop offset="1" stop-color="#2D23F4"/>
</linearGradient>
<linearGradient id="paint39_linear_6180_40146" x1="377.662" y1="51.0478" x2="377.662" y2="56.6554" gradientUnits="userSpaceOnUse">
<stop stop-color="#ED3040"/>
<stop offset="1" stop-color="#2D23F4"/>
</linearGradient>
<linearGradient id="paint40_linear_6180_40146" x1="457.662" y1="53.6397" x2="457.662" y2="61.6506" gradientUnits="userSpaceOnUse">
<stop stop-color="#ED3040"/>
<stop offset="1" stop-color="#2D23F4"/>
</linearGradient>
<linearGradient id="paint41_linear_6180_40146" x1="457.662" y1="53.6397" x2="457.662" y2="61.6506" gradientUnits="userSpaceOnUse">
<stop stop-color="#ED3040"/>
<stop offset="1" stop-color="#2D23F4"/>
</linearGradient>
<linearGradient id="paint42_linear_6180_40146" x1="457.662" y1="53.6397" x2="457.662" y2="61.6506" gradientUnits="userSpaceOnUse">
<stop stop-color="#ED3040"/>
<stop offset="1" stop-color="#2D23F4"/>
</linearGradient>
<linearGradient id="paint43_linear_6180_40146" x1="457.662" y1="53.6397" x2="457.662" y2="61.6506" gradientUnits="userSpaceOnUse">
<stop stop-color="#ED3040"/>
<stop offset="1" stop-color="#2D23F4"/>
</linearGradient>
<linearGradient id="paint44_linear_6180_40146" x1="457.662" y1="53.6397" x2="457.662" y2="61.6506" gradientUnits="userSpaceOnUse">
<stop stop-color="#ED3040"/>
<stop offset="1" stop-color="#2D23F4"/>
</linearGradient>
<linearGradient id="paint45_linear_6180_40146" x1="457.662" y1="53.6397" x2="457.662" y2="61.6506" gradientUnits="userSpaceOnUse">
<stop stop-color="#ED3040"/>
<stop offset="1" stop-color="#2D23F4"/>
</linearGradient>
<linearGradient id="paint46_linear_6180_40146" x1="457.662" y1="53.6397" x2="457.662" y2="61.6506" gradientUnits="userSpaceOnUse">
<stop stop-color="#ED3040"/>
<stop offset="1" stop-color="#2D23F4"/>
</linearGradient>
<linearGradient id="paint47_linear_6180_40146" x1="457.662" y1="53.6397" x2="457.662" y2="61.6506" gradientUnits="userSpaceOnUse">
<stop stop-color="#ED3040"/>
<stop offset="1" stop-color="#2D23F4"/>
</linearGradient>
</defs>
</svg>
