<svg width="500" height="170" viewBox="0 0 500 170" fill="none" xmlns="http://www.w3.org/2000/svg">
<rect x="0.5" y="0.5" width="499" height="169" rx="4.5" stroke="#9747FF" stroke-dasharray="10 5"/>
<path d="M51.2503 62.4999H38.7504C38.5582 62.4999 38.3764 62.4112 38.2583 62.2595C38.1398 62.1082 38.0976 61.9103 38.1441 61.7236L39.394 56.7235H39.3943C39.4637 56.4453 39.7137 56.25 40.0006 56.25H50.0003C50.2869 56.25 50.5369 56.4453 50.6063 56.7235L51.8562 61.7236H51.8565C51.903 61.9103 51.8608 62.1082 51.7427 62.2595C51.6242 62.4112 51.4425 62.4999 51.2502 62.4999H51.2503ZM39.5507 61.25H50.4493L49.5117 57.5002L40.4885 57.4999L39.5507 61.25Z" fill="url(#paint0_linear_6236_23307)"/>
<path d="M53.1256 65H36.8759C36.5444 65 36.2262 64.8685 35.992 64.634C35.7576 64.3996 35.6258 64.0817 35.6258 63.7501V62.5C35.6258 62.1684 35.7576 61.8506 35.992 61.6161C36.2262 61.3816 36.5444 61.2501 36.8759 61.2501H53.1256C53.4572 61.2501 53.7751 61.3816 54.0096 61.6161C54.244 61.8505 54.3755 62.1684 54.3755 62.5V63.7501C54.3755 64.0817 54.244 64.3996 54.0096 64.634C53.7751 64.8685 53.4572 65 53.1256 65ZM36.8752 63.7502H53.1249L53.1253 62.5H36.8755L36.8752 63.7502Z" fill="url(#paint1_linear_6236_23307)"/>
<path d="M64.3751 57.5003H25.6249C25.2797 57.5003 25 57.2206 25 56.8754V29.3754C25 29.0302 25.2797 28.7502 25.6249 28.7502H30V30.0003H26.2498V56.2499H63.7495V30.0003H59.9994V28.7502H64.3744C64.5401 28.7502 64.6992 28.8162 64.8164 28.9334C64.9336 29.0507 64.9994 29.2095 64.9994 29.3754V56.8754C64.9994 57.0413 64.9336 57.2001 64.8164 57.3174C64.6992 57.4346 64.5401 57.5003 64.3744 57.5003H64.3751Z" fill="url(#paint2_linear_6236_23307)"/>
<path d="M64.3751 57.5003H25.6249C25.2797 57.5003 25 57.2206 25 56.8754V53.1256C25 52.7804 25.2797 52.5004 25.6249 52.5004H64.3751C64.5407 52.5004 64.6998 52.5664 64.817 52.6837C64.9342 52.8009 65 52.9597 65 53.1256V56.8754C65 57.0413 64.9342 57.2001 64.817 57.3174C64.6998 57.4346 64.5407 57.5003 64.3751 57.5003ZM26.2498 56.2505H63.7494V53.7505H26.2498V56.2505Z" fill="url(#paint3_linear_6236_23307)"/>
<path d="M60.0004 53.7505H30.0004C29.6552 53.7505 29.3754 53.4708 29.3754 53.1256V28.1257C29.3754 27.7805 29.6552 27.5008 30.0004 27.5008H60.0004C60.1663 27.5008 60.3251 27.5665 60.4424 27.6838C60.5596 27.801 60.6257 27.9601 60.6257 28.1257V53.1256C60.6257 53.2912 60.5596 53.4503 60.4424 53.5675C60.3251 53.6848 60.1663 53.7505 60.0004 53.7505ZM30.626 52.5004H59.3756V28.7502H30.626V52.5004Z" fill="url(#paint4_linear_6236_23307)"/>
<path d="M56.2506 28.7498H33.751C33.4058 28.7498 33.126 28.4701 33.126 28.1249V25.6249C33.126 25.2797 33.4058 25 33.751 25H56.2506C56.4162 25 56.5753 25.0657 56.6926 25.183C56.8098 25.3002 56.8755 25.4593 56.8755 25.6249V28.1249C56.8755 28.2908 56.8098 28.4496 56.6926 28.5669C56.5753 28.6841 56.4162 28.7498 56.2506 28.7498ZM34.3758 27.5H55.6258V26.2499H34.3758V27.5Z" fill="url(#paint5_linear_6236_23307)"/>
<path d="M33.7502 28.7498H30.0004C29.6552 28.7498 29.3754 28.4701 29.3754 28.1249V25.6249C29.3754 25.2797 29.6552 25 30.0004 25H33.7502C33.9161 25 34.0749 25.0657 34.1921 25.183C34.3094 25.3002 34.3754 25.4593 34.3754 25.6249V28.1249C34.3754 28.2908 34.3093 28.4496 34.1921 28.5669C34.0749 28.6841 33.9161 28.7498 33.7502 28.7498ZM30.6253 27.5H33.1253V26.2499H30.6253V27.5Z" fill="url(#paint6_linear_6236_23307)"/>
<path d="M60.0004 28.7498H56.2506C55.9054 28.7498 55.6257 28.4701 55.6257 28.1249V25.6249C55.6257 25.2797 55.9054 25 56.2506 25H60.0004C60.1663 25 60.3251 25.0657 60.4424 25.183C60.5596 25.3002 60.6257 25.4593 60.6257 25.6249V28.1249C60.6257 28.2908 60.5596 28.4496 60.4424 28.5669C60.3251 28.6841 60.1663 28.7498 60.0004 28.7498ZM56.8755 27.5H59.3755V26.2499H56.8755V27.5Z" fill="url(#paint7_linear_6236_23307)"/>
<path d="M48.7502 49.3751H41.2502C40.905 49.3751 40.6253 49.0953 40.6253 48.7501V46.2502C40.6253 46.0845 40.691 45.9254 40.8082 45.8082L42.0581 44.5584H42.0584C42.1756 44.4411 42.3344 44.3751 42.5003 44.3751H47.5004C47.666 44.3751 47.8251 44.4411 47.942 44.5584L49.1918 45.8082H49.1921C49.3094 45.9254 49.3751 46.0845 49.3751 46.2502V48.7501C49.3751 48.9161 49.3094 49.0749 49.1921 49.1921C49.0749 49.3093 48.9161 49.3751 48.7502 49.3751ZM41.8751 48.1252H48.1253V46.5088L47.2414 45.6252H42.759L41.8751 46.5088V48.1252Z" fill="url(#paint8_linear_6236_23307)"/>
<path d="M44.3748 31.25H45.6246V44.9996H44.3748V31.25Z" fill="url(#paint9_linear_6236_23307)"/>
<path d="M38.1256 43.7499C37.1314 43.749 36.178 43.3536 35.4752 42.6505C34.7721 41.9474 34.3767 40.9944 34.3757 40C34.3757 39.6548 34.6555 39.3748 35.0006 39.3748H41.2505C41.4164 39.3748 41.5752 39.4409 41.6925 39.5581C41.8097 39.6753 41.8754 39.8341 41.8754 40C41.8745 40.9943 41.4791 41.9473 40.776 42.6505C40.0732 43.3536 39.12 43.749 38.1256 43.7499ZM35.7044 40.625C35.8899 41.3464 36.3873 41.9474 37.0616 42.2647C37.7355 42.5817 38.5158 42.5817 39.1897 42.2647C39.864 41.9474 40.3614 41.3464 40.5469 40.625H35.7044Z" fill="url(#paint10_linear_6236_23307)"/>
<path d="M51.8752 43.7499C50.8809 43.749 49.9279 43.3536 49.2247 42.6505C48.5216 41.9474 48.1262 40.9944 48.1253 40C48.1253 39.6548 48.405 39.3748 48.7502 39.3748H55.0001C55.166 39.3748 55.3248 39.4409 55.442 39.5581C55.5593 39.6753 55.6253 39.8341 55.6253 40C55.6241 40.9943 55.229 41.9473 54.5259 42.6505C53.8228 43.3536 52.8695 43.749 51.8752 43.7499ZM49.454 40.625C49.6394 41.3464 50.1372 41.9474 50.8111 42.2647C51.4851 42.5817 52.2653 42.5817 52.9396 42.2647C53.6136 41.9474 54.111 41.3464 54.2965 40.625H49.454Z" fill="url(#paint11_linear_6236_23307)"/>
<path d="M40.7044 40.3034L38.1256 35.6628L35.5469 40.3034L34.4542 39.6971L37.5791 34.0721H37.5794C37.6992 33.8866 37.9048 33.7744 38.1256 33.7744C38.3464 33.7744 38.552 33.8866 38.6717 34.0721L41.7966 39.6971L40.7044 40.3034Z" fill="url(#paint12_linear_6236_23307)"/>
<path d="M54.4539 40.3034L51.8752 35.6628L49.2964 40.3034L48.2038 39.6971L51.3287 34.0721H51.329C51.4487 33.8866 51.6544 33.7744 51.8752 33.7744C52.096 33.7744 52.3019 33.8866 52.4216 34.0721L55.5465 39.6971L54.4539 40.3034Z" fill="url(#paint13_linear_6236_23307)"/>
<path d="M36.2503 33.7501H53.7505V35H36.2503V33.7501Z" fill="url(#paint14_linear_6236_23307)"/>
<path d="M39.3753 48.1254H50.6255V49.3752H39.3753V48.1254Z" fill="url(#paint15_linear_6236_23307)"/>
<path d="M51.8752 48.1254H53.125V49.3752H51.8752V48.1254Z" fill="url(#paint16_linear_6236_23307)"/>
<path d="M141.573 35.6371H142.333C143.286 35.6371 144.166 35.1284 144.642 34.3026C145.119 33.4767 145.119 32.4591 144.642 31.6333C144.166 30.8074 143.286 30.2984 142.333 30.2984H131.813C131.552 30.0014 131.208 29.7898 130.825 29.6924C130.441 29.5948 130.038 29.6153 129.666 29.7514V28.2967C129.666 27.6318 129.336 27.0109 128.785 26.639C128.235 26.2674 127.536 26.1932 126.92 26.4413C126.757 25.883 126.36 25.4233 125.832 25.1813C125.303 24.9396 124.696 24.9396 124.168 25.1813C123.64 25.4234 123.242 25.883 123.08 26.4413C122.551 26.2313 121.957 26.2572 121.448 26.5118C120.939 26.7665 120.563 27.2264 120.413 27.7761C119.797 27.5277 119.098 27.6019 118.548 27.9738C117.997 28.3457 117.667 28.9666 117.667 29.6312V30.2984H107.667C106.714 30.2984 105.834 30.8074 105.357 31.6333C104.881 32.4591 104.881 33.4767 105.357 34.3026C105.834 35.1284 106.714 35.6371 107.667 35.6371H108.427C108.564 36.154 108.852 36.6186 109.254 36.9719L105.074 45.3468C105.027 45.4402 105.002 45.5429 105 45.6472V48.3165C105 50.4622 106.144 52.4448 108 53.5177C109.857 54.5906 112.144 54.5906 114 53.5177C115.857 52.4448 117 50.4622 117 48.3165V45.6472C116.997 45.5452 116.972 45.4448 116.927 45.3534L112.747 36.9719C113.148 36.6186 113.436 36.154 113.573 35.6371H117.667V41.0224C117.672 41.685 118.004 42.302 118.553 42.6708L119.374 43.2179C119.544 43.3328 119.652 43.5199 119.667 43.7252L117.627 64.2927C117.615 64.4738 117.678 64.6523 117.8 64.7864C117.926 64.9219 118.102 64.9993 118.287 65H131C131.188 65.0007 131.367 64.9222 131.494 64.7838C131.621 64.6453 131.683 64.4596 131.667 64.2725L129.667 42.5572C129.666 42.3022 129.811 42.0691 130.04 41.9568L131.233 41.3561C131.566 41.1882 131.846 40.9306 132.04 40.612C132.234 40.2938 132.336 39.9272 132.333 39.5543V35.6369H136.427C136.564 36.1538 136.852 36.6184 137.253 36.9717L133.073 45.3467C133.027 45.4401 133.002 45.5427 133 45.647V48.3163C133 50.4621 134.143 52.4447 136 53.5175C137.856 54.5904 140.144 54.5904 142 53.5175C143.856 52.4447 145 50.4621 145 48.3163V45.647C144.997 45.545 144.972 45.4447 144.927 45.3533L140.747 36.9718C141.148 36.6184 141.436 36.1538 141.573 35.6369L141.573 35.6371ZM127.666 27.629C127.843 27.629 128.013 27.6996 128.138 27.8247C128.262 27.9499 128.333 28.1195 128.333 28.2966V30.9659C128.333 31.3345 128.034 31.6332 127.666 31.6332C127.298 31.6332 126.999 31.3345 126.999 30.9659V28.2966C126.999 27.928 127.298 27.629 127.666 27.629ZM124.333 26.9618C124.333 26.5932 124.631 26.2945 125 26.2945C125.368 26.2945 125.666 26.5932 125.666 26.9618V30.9659C125.666 31.3345 125.368 31.6332 125 31.6332C124.631 31.6332 124.333 31.3345 124.333 30.9659V26.9618ZM121.666 28.2966C121.666 27.928 121.965 27.629 122.333 27.629C122.701 27.629 123 27.928 123 28.2966V30.9659C123 31.3345 122.701 31.6332 122.333 31.6332C121.965 31.6332 121.666 31.3345 121.666 30.9659V28.2966ZM118.999 29.6311C118.999 29.2625 119.298 28.9638 119.666 28.9638C120.034 28.9638 120.333 29.2625 120.333 29.6311V30.9659C120.333 31.3345 120.034 31.6332 119.666 31.6332C119.298 31.6332 118.999 31.3345 118.999 30.9659V29.6311ZM110.333 44.98H106.746L110.333 37.7995V44.98ZM111.666 37.7995L115.253 44.98H111.666L111.666 37.7995ZM110.999 36.3047C110.646 36.3047 110.307 36.164 110.057 35.9136C109.806 35.6633 109.666 35.3239 109.666 34.9699C109.666 34.6159 109.806 34.2765 110.057 34.0261C110.307 33.7758 110.646 33.6353 110.999 33.6353C111.353 33.6353 111.692 33.7757 111.942 34.0261C112.192 34.2764 112.333 34.6159 112.333 34.9699C112.333 35.3239 112.192 35.6633 111.942 35.9136C111.692 36.164 111.353 36.3047 110.999 36.3047ZM115.666 48.317H115.666C115.666 49.986 114.777 51.5281 113.333 52.3626C111.889 53.1967 110.11 53.1967 108.666 52.3626C107.222 51.5281 106.333 49.986 106.333 48.317V46.3149H115.666L115.666 48.317ZM113.572 34.3032C113.366 33.5439 112.836 32.9144 112.123 32.5826C111.411 32.2508 110.588 32.2508 109.875 32.5826C109.162 32.9144 108.632 33.5439 108.426 34.3032H107.666C107.312 34.3032 106.973 34.1625 106.723 33.9122C106.473 33.6618 106.333 33.3224 106.333 32.9684C106.333 32.6144 106.473 32.275 106.723 32.0246C106.973 31.7743 107.312 31.6339 107.666 31.6339H117.786C117.924 32.0233 118.178 32.3604 118.514 32.5995C118.851 32.8386 119.253 32.9674 119.666 32.9684C120.159 32.9654 120.634 32.7803 120.999 32.4479C121.366 32.7763 121.841 32.9578 122.333 32.9578C122.824 32.9578 123.299 32.7763 123.666 32.4479C124.033 32.7763 124.507 32.9578 124.999 32.9578C125.491 32.9578 125.966 32.7763 126.332 32.4479C126.698 32.7803 127.172 32.9654 127.666 32.9684C127.893 32.9668 128.119 32.926 128.332 32.8485V34.3032L113.572 34.3032ZM130.999 39.5552C130.997 39.8128 130.854 40.0486 130.626 40.1691L129.439 40.7698V40.7695C129.098 40.94 128.812 41.2046 128.616 41.5321C128.42 41.8596 128.322 42.2364 128.333 42.6182L130.266 63.6655H118.999L120.999 43.7728C120.997 43.1042 120.662 42.481 120.106 42.1111L119.286 41.564C119.109 41.4408 119.002 41.2395 118.999 41.0233V35.6379H126.226C125.018 36.3578 124.041 37.4062 123.406 38.6609L123.072 39.3282L124.259 39.9289L124.599 39.2616C125.183 38.1116 126.117 37.177 127.266 36.5923L129.266 35.5846C129.509 35.4783 129.667 35.2369 129.666 34.9707V31.6341C129.666 31.2655 129.964 30.9668 130.333 30.9668C130.701 30.9668 130.999 31.2655 130.999 31.6341L130.999 39.5552ZM136.426 34.3032H132.332V31.6339H142.332C142.686 31.6339 143.025 31.7743 143.275 32.0247C143.525 32.275 143.665 32.6144 143.665 32.9685C143.665 33.3225 143.525 33.6619 143.275 33.9122C143.025 34.1626 142.686 34.3033 142.332 34.3033H141.572C141.366 33.544 140.836 32.9145 140.123 32.5827C139.41 32.2509 138.588 32.2509 137.875 32.5827C137.162 32.9145 136.632 33.544 136.426 34.3033L136.426 34.3032ZM138.332 44.9803H134.746L138.332 37.7999V44.9803ZM139.665 37.7999L143.252 44.9803H139.666L139.665 37.7999ZM138.999 36.3051C138.646 36.3051 138.307 36.1643 138.056 35.914C137.806 35.6636 137.666 35.3242 137.666 34.9702C137.666 34.6162 137.806 34.2768 138.056 34.0264C138.306 33.7761 138.646 33.6357 138.999 33.6357C139.353 33.6357 139.692 33.7761 139.942 34.0264C140.192 34.2768 140.332 34.6162 140.332 34.9702C140.332 35.3242 140.192 35.6636 139.942 35.914C139.692 36.1643 139.353 36.3051 138.999 36.3051ZM143.666 48.3173H143.666C143.666 49.9863 142.776 51.5284 141.332 52.3629C139.888 53.1971 138.11 53.1971 136.666 52.3629C135.222 51.5284 134.332 49.9863 134.332 48.3173V46.3153H143.666L143.666 48.3173Z" fill="url(#paint17_linear_6236_23307)"/>
<path d="M186.894 50.5155V64.317C186.894 64.6942 187.196 65 187.569 65H197.995C198.368 65 198.67 64.6942 198.67 64.317V50.5318C199.444 50.2771 200.069 49.6916 200.381 48.9295H201.001C201.497 48.9284 201.978 48.7557 202.363 48.44C202.749 48.1246 203.017 47.685 203.122 47.1941H206.875C206.981 47.685 207.249 48.1247 207.634 48.4404C208.02 48.7561 208.501 48.9284 208.997 48.9295H209.615H209.615C209.928 49.6909 210.553 50.2764 211.327 50.5328V64.3162C211.327 64.6934 211.628 64.9992 212.001 64.9992H222.434C222.806 64.9992 223.108 64.6934 223.108 64.3162V54.8506C223.108 54.4734 222.806 54.1676 222.434 54.1676C222.061 54.1676 221.759 54.4734 221.759 54.8506V63.6328H212.676V50.6784H221.759V52.5734C221.759 52.9506 222.061 53.2564 222.434 53.2564C222.806 53.2564 223.108 52.9506 223.108 52.5734V50.5237C223.659 50.3323 224.138 49.9714 224.477 49.4911C224.816 49.0112 224.999 48.4355 225 47.8451V45.3896C225 44.7992 224.817 44.2235 224.477 43.7436C224.138 43.264 223.658 42.9041 223.106 42.7148V34.9226V34.9116V29.2475C223.105 28.716 222.897 28.2067 222.526 27.831C222.155 27.4552 221.653 27.244 221.129 27.2433C220.899 27.2454 220.672 27.2882 220.457 27.3697C220.363 26.9195 220.12 26.5155 219.768 26.2252C219.415 25.9353 218.975 25.7763 218.521 25.7756C218.207 25.7777 217.897 25.8572 217.619 26.0073C217.349 25.5267 216.894 25.1816 216.363 25.0545C215.831 24.927 215.272 25.0294 214.819 25.3367C214.364 25.6436 214.057 26.1281 213.969 26.6741C213.757 26.5942 213.533 26.5522 213.307 26.5501C212.783 26.5508 212.28 26.762 211.909 27.1377C211.538 27.5135 211.33 28.0227 211.329 28.5542V32.0755H210.765C210.282 32.0759 209.819 32.2708 209.477 32.6169C209.135 32.963 208.943 33.4323 208.943 33.9222V39.2512C208.944 39.7993 209.159 40.3248 209.541 40.7125C209.924 41.1003 210.442 41.3182 210.983 41.3189H211.329V42.7071C210.556 42.9628 209.93 43.5476 209.618 44.309H209C208.543 44.3108 208.099 44.4584 207.73 44.731C207.361 45.0037 207.086 45.3872 206.945 45.8272H203.057C202.916 45.3872 202.641 45.0037 202.273 44.731C201.904 44.4584 201.459 44.3108 201.003 44.309H200.383C200.07 43.5476 199.445 42.9628 198.671 42.7071V41.3192H199.017C199.558 41.3185 200.077 41.1006 200.459 40.7128C200.841 40.3251 201.057 39.7995 201.058 39.2515V33.9224C201.057 33.433 200.865 32.9633 200.523 32.6172C200.182 32.271 199.719 32.0765 199.235 32.0758H198.672V28.5538C198.671 28.0223 198.463 27.513 198.092 27.1373C197.722 26.7616 197.219 26.55 196.695 26.5496C196.468 26.5518 196.244 26.5934 196.032 26.6733C195.945 26.1276 195.637 25.6431 195.183 25.3359C194.73 25.0286 194.17 24.9262 193.639 25.0533C193.108 25.1805 192.653 25.5255 192.382 26.0061C192.105 25.8564 191.795 25.7769 191.481 25.7748C191.027 25.7755 190.586 25.9341 190.234 26.2244C189.881 26.5147 189.638 26.9187 189.545 27.3689C189.33 27.287 189.103 27.2443 188.873 27.2422C188.349 27.2429 187.846 27.4541 187.476 27.8298C187.105 28.2056 186.896 28.7152 186.896 29.2463V38.3557C186.896 38.7332 187.198 39.0391 187.57 39.0391C187.942 39.0391 188.244 38.7332 188.244 38.3557V29.2463C188.244 28.8942 188.526 28.6089 188.873 28.6089C189.221 28.6089 189.502 28.8942 189.502 29.2463V31.8498C189.502 32.2273 189.804 32.5331 190.177 32.5331C190.549 32.5331 190.851 32.2273 190.851 31.8498V27.7796C190.851 27.4275 191.132 27.1422 191.48 27.1422C191.828 27.1422 192.109 27.4275 192.109 27.7796V31.8507C192.109 32.2283 192.411 32.5341 192.783 32.5341C193.156 32.5341 193.457 32.2283 193.457 31.8507V27.0045C193.457 26.6524 193.739 26.3667 194.087 26.3667C194.434 26.3667 194.716 26.6524 194.716 27.0045V31.8507C194.716 32.2283 195.018 32.5341 195.39 32.5341C195.763 32.5341 196.064 32.2283 196.064 31.8507V28.5537C196.064 28.2013 196.346 27.9159 196.693 27.9159C197.041 27.9159 197.323 28.2012 197.323 28.5537V32.747V32.758V32.7689V34.9242C197.323 35.3018 197.624 35.6076 197.997 35.6076C198.369 35.6076 198.671 35.3018 198.671 34.9242V33.4414H199.234C199.496 33.4417 199.708 33.6565 199.708 33.9213V39.2503C199.707 39.6378 199.398 39.9514 199.016 39.9521H197.995C197.623 39.9521 197.321 40.2579 197.321 40.6351V46.4324H188.243V40.6351C188.243 40.2579 187.941 39.9521 187.569 39.9521C187.196 39.9521 186.894 40.2579 186.894 40.6351V42.7159C186.342 42.9044 185.862 43.2639 185.522 43.7439C185.182 44.2238 185 44.7998 185 45.3903V47.8457C185.001 48.4358 185.184 49.0104 185.524 49.4897C185.864 49.9686 186.343 50.3277 186.895 50.5163L186.894 50.5155ZM210.291 39.2508V33.9218C210.291 33.6566 210.503 33.4418 210.765 33.4415H211.328V34.9237C211.328 35.3012 211.629 35.607 212.002 35.607C212.374 35.607 212.676 35.3012 212.676 34.9237V32.7684V32.7575V32.7465V28.5532C212.676 28.2007 212.958 27.9154 213.305 27.9154C213.653 27.9154 213.935 28.2007 213.935 28.5532V31.8506V31.8502C213.935 32.2277 214.236 32.5336 214.609 32.5336C214.981 32.5336 215.283 32.2277 215.283 31.8502V27.004C215.283 26.6519 215.565 26.3662 215.912 26.3662C216.26 26.3662 216.541 26.6519 216.541 27.004V31.8502C216.541 32.2277 216.843 32.5336 217.215 32.5336C217.588 32.5336 217.89 32.2277 217.89 31.8502V27.7791C217.89 27.427 218.171 27.1417 218.519 27.1417C218.866 27.1417 219.148 27.427 219.148 27.7791V31.8502C219.148 32.2277 219.45 32.5336 219.822 32.5336C220.194 32.5336 220.496 32.2277 220.496 31.8502V29.2468C220.496 28.8947 220.778 28.609 221.126 28.609C221.473 28.609 221.755 28.8947 221.755 29.2468V34.9237V34.935V46.432H212.676V40.6358C212.676 40.2583 212.374 39.9524 212.002 39.9524H210.982C210.6 39.9514 210.291 39.6378 210.291 39.2511L210.291 39.2508ZM208.999 45.6753H210.115C210.185 45.6739 210.254 45.6615 210.321 45.6382C210.33 45.635 210.341 45.6329 210.351 45.629V45.6294C210.413 45.6047 210.471 45.5708 210.523 45.5291C210.533 45.5217 210.542 45.5139 210.551 45.5065L210.551 45.5061C210.601 45.462 210.645 45.4104 210.681 45.3532C210.686 45.344 210.69 45.3349 210.696 45.3253C210.732 45.2621 210.758 45.1932 210.772 45.1219V45.1184C210.84 44.7589 211.039 44.4386 211.329 44.221V47.1042V47.1155C211.329 47.493 211.631 47.7988 212.004 47.7988H222.431C222.803 47.7988 223.105 47.493 223.105 47.1155V44.243C223.45 44.5202 223.651 44.9426 223.651 45.389V47.8444C223.65 48.2332 223.498 48.6062 223.226 48.8813C222.955 49.1564 222.587 49.3111 222.203 49.3114H212.191C211.854 49.3107 211.528 49.1914 211.269 48.9735C211.01 48.7556 210.834 48.4533 210.772 48.1181V48.1139C210.765 48.0832 210.756 48.0528 210.745 48.0228C210.741 48.009 210.738 47.9942 210.733 47.9804C210.722 47.9578 210.711 47.9359 210.698 47.9151C210.688 47.8978 210.681 47.8791 210.67 47.8628C210.659 47.8466 210.652 47.8409 210.643 47.8296V47.8293C210.626 47.8052 210.607 47.7823 210.587 47.7604C210.584 47.7569 210.58 47.754 210.576 47.7509C210.548 47.7237 210.518 47.6989 210.486 47.6771L210.474 47.6696V47.67C210.441 47.6484 210.407 47.6297 210.372 47.6138L210.361 47.6107C210.324 47.5948 210.285 47.5828 210.246 47.5743H210.23C210.191 47.5665 210.152 47.5626 210.112 47.5623H208.999C208.544 47.5623 208.175 47.1883 208.175 46.7271V46.5102C208.175 46.049 208.544 45.6757 208.999 45.6754L208.999 45.6753ZM186.348 45.3896C186.352 44.9457 186.553 44.5275 186.896 44.251V47.1164C186.896 47.4936 187.197 47.7994 187.57 47.7994H197.997C198.37 47.7994 198.671 47.4936 198.671 47.1164C198.672 47.1126 198.672 47.1087 198.671 47.1048V44.2216C198.962 44.4392 199.161 44.7595 199.229 45.119V45.1225C199.244 45.1942 199.269 45.2631 199.305 45.3263C199.31 45.3358 199.315 45.345 199.32 45.3542H199.32C199.356 45.4114 199.4 45.463 199.45 45.5071C199.459 45.5149 199.468 45.5226 199.478 45.5297C199.53 45.5717 199.588 45.6056 199.65 45.63C199.66 45.6335 199.67 45.636 199.68 45.6392H199.681C199.746 45.6625 199.816 45.6749 199.886 45.6759H201.002C201.457 45.6766 201.825 46.0502 201.826 46.5111V46.7279C201.825 47.1888 201.457 47.5628 201.002 47.5632H199.881C199.858 47.5642 199.835 47.5667 199.812 47.5706C199.79 47.5727 199.769 47.5737 199.749 47.578L199.749 47.5776C199.724 47.584 199.701 47.5914 199.677 47.6006C199.66 47.6066 199.642 47.6105 199.624 47.6179H199.624C199.596 47.631 199.568 47.6461 199.541 47.6635C199.531 47.6695 199.521 47.6733 199.513 47.6797H199.512C199.362 47.7814 199.258 47.9407 199.225 48.1211C199.169 48.4337 199.012 48.719 198.78 48.9327C198.548 49.1467 198.253 49.2777 197.94 49.3053C197.895 49.3081 197.85 49.312 197.808 49.312L196.334 49.3123C195.961 49.3123 195.659 49.6181 195.659 49.9953C195.659 50.3728 195.961 50.6787 196.334 50.6787H197.322V63.6331H188.243V50.6787H194.086C194.459 50.6787 194.761 50.3725 194.761 49.9953C194.761 49.6178 194.459 49.312 194.086 49.312H187.794C187.732 49.312 187.669 49.3074 187.643 49.307C187.287 49.2682 186.958 49.0976 186.719 48.8278C186.48 48.558 186.348 48.208 186.348 47.8453L186.348 45.3896Z" fill="url(#paint18_linear_6236_23307)"/>
<path d="M304.502 60.9963H299.61V55.2169C299.61 50.1729 295.252 45.9609 289.428 45.417L288.726 45.4166C288.511 45.4166 288.333 45.5835 288.264 45.7889C288.254 45.8177 288.252 45.848 288.247 45.8784C288.242 45.9072 288.23 45.9344 288.23 45.9636C288.23 47.7578 286.781 49.2174 285 49.2174C283.218 49.2174 281.769 47.7578 281.769 45.9823C281.77 45.9687 281.772 45.9321 281.772 45.9185C281.772 45.6415 281.549 45.4166 281.273 45.4166L280.526 45.4186C278.844 45.5761 277.26 46.0453 275.819 46.8113C272.42 48.6194 270.391 51.7616 270.391 55.2163V61.0384C270.214 61.1159 270.091 61.2917 270.091 61.4975C270.091 61.7745 270.314 61.9993 270.589 61.9993H304.502C304.777 61.9993 305 61.7745 305 61.4975C305 61.2209 304.776 60.9964 304.501 60.9964L304.502 60.9963ZM271.525 55.9241H273.962V60.9959H271.387L271.387 55.8961C271.432 55.9098 271.476 55.9241 271.525 55.9241ZM296.038 55.9241H298.613V60.9959H296.038V55.9241ZM298.597 54.9209H296.039V53.7082C296.039 53.4313 295.816 53.2064 295.54 53.2064H292.772L289.51 46.4354C294.593 46.966 298.429 50.568 298.597 54.9209ZM285 50.2207C286.778 50.2207 288.302 49.1076 288.924 47.5177L291.665 53.206H282.734C282.459 53.206 282.236 53.4309 282.236 53.7078C282.236 53.9848 282.459 54.2097 282.734 54.2097H292.148L292.572 55.0893C292.658 55.2678 292.836 55.3717 293.021 55.3717C293.093 55.3717 293.168 55.3558 293.238 55.3215C293.485 55.2005 293.589 54.9006 293.468 54.6512L293.256 54.2097H295.042V60.9959H274.958V54.2097H276.772L276.56 54.6524C276.441 54.9021 276.545 55.2017 276.792 55.3223C276.863 55.3558 276.936 55.3721 277.009 55.3721C277.194 55.3721 277.372 55.2678 277.458 55.0881L277.878 54.2101H279.621C279.897 54.2101 280.12 53.9852 280.12 53.7082C280.12 53.4312 279.897 53.2064 279.621 53.2064H278.358L281.073 47.534C281.694 49.106 283.22 50.2207 285 50.2207ZM276.284 47.699C277.586 47.0065 279.017 46.5817 280.494 46.4312L277.252 53.2065H274.46C274.184 53.2065 273.961 53.4314 273.961 53.7083V54.921H271.525C271.479 54.921 271.438 54.9354 271.396 54.947C271.501 51.9776 273.307 49.2827 276.284 47.699Z" fill="url(#paint19_linear_6236_23307)"/>
<path d="M267.462 60.9963H265.498C265.223 60.9963 265 61.2212 265 61.4981C265 61.7751 265.223 62 265.498 62H267.462C267.738 62 267.961 61.7751 267.961 61.4981C267.961 61.2212 267.738 60.9963 267.462 60.9963Z" fill="url(#paint20_linear_6236_23307)"/>
<path d="M285 30.7794C281.379 30.7794 278.434 34.1651 278.434 38.3265C278.433 42.4883 281.379 45.874 285 45.874C288.607 45.874 291.543 42.5128 291.565 38.3724C291.566 38.3604 291.572 38.3499 291.573 38.3374C291.573 38.323 291.566 38.311 291.566 38.2962C291.551 34.1487 288.612 30.7794 285 30.7794ZM285 31.7831C287.788 31.7831 290.097 34.204 290.501 37.3489C290.099 36.9163 289.591 36.2426 289.152 35.5326C289.081 35.4182 288.968 35.3373 288.837 35.3081C288.707 35.2785 288.57 35.3034 288.457 35.377C285.746 37.1506 281.509 35.3556 281.468 35.3369C281.335 35.2797 281.184 35.2832 281.053 35.347C280.923 35.4108 280.827 35.5287 280.789 35.6695C280.525 36.6736 279.942 37.2319 279.476 37.5299C279.812 34.2975 282.159 31.7832 285 31.7832L285 31.7831ZM285 44.8703C282.029 44.8703 279.6 42.1203 279.445 38.6743C280.011 38.4323 281.038 37.8247 281.58 36.4541C282.814 36.8918 286.034 37.8025 288.567 36.4732C289.1 37.287 289.86 38.2946 290.555 38.6739C290.4 42.1196 287.972 44.8703 285 44.8703Z" fill="url(#paint21_linear_6236_23307)"/>
<path d="M302.149 29.0037H303.665C303.941 29.0037 304.164 28.7788 304.164 28.5018C304.164 28.2249 303.941 28 303.665 28H302.149C301.874 28 301.651 28.2249 301.651 28.5018C301.651 28.7788 301.874 29.0037 302.149 29.0037Z" fill="url(#paint22_linear_6236_23307)"/>
<path d="M268.979 29.0037H299.346C299.621 29.0037 299.844 28.7788 299.844 28.5018C299.844 28.2249 299.621 28 299.346 28H268.979C268.704 28 268.481 28.2249 268.481 28.5018C268.481 28.7788 268.704 29.0037 268.979 29.0037Z" fill="url(#paint23_linear_6236_23307)"/>
<path d="M302.149 34.277H303.665C303.941 34.277 304.164 34.0522 304.164 33.7752C304.164 33.4982 303.941 33.2733 303.665 33.2733H302.149C301.874 33.2733 301.651 33.4982 301.651 33.7752C301.651 34.0522 301.874 34.277 302.149 34.277Z" fill="url(#paint24_linear_6236_23307)"/>
<path d="M299.346 33.2742H293.497C293.221 33.2742 292.999 33.499 292.999 33.776C292.999 34.053 293.221 34.2779 293.497 34.2779H299.346C299.621 34.2779 299.844 34.053 299.844 33.776C299.844 33.499 299.621 33.2742 299.346 33.2742Z" fill="url(#paint25_linear_6236_23307)"/>
<path d="M271.525 33.2742C271.25 33.2742 271.027 33.499 271.027 33.776C271.027 34.053 271.25 34.2779 271.525 34.2779H276.084C276.36 34.2779 276.583 34.053 276.583 33.776C276.583 33.499 276.36 33.2742 276.084 33.2742H271.525Z" fill="url(#paint26_linear_6236_23307)"/>
<path d="M302.054 39.5504H303.664C303.94 39.5504 304.162 39.3255 304.162 39.0485C304.162 38.7715 303.94 38.5467 303.664 38.5467H302.054C301.779 38.5467 301.556 38.7715 301.556 39.0485C301.556 39.3255 301.779 39.5504 302.054 39.5504Z" fill="url(#paint27_linear_6236_23307)"/>
<path d="M299.346 38.5475H295.032C294.756 38.5475 294.534 38.7724 294.534 39.0493C294.534 39.3263 294.756 39.5512 295.032 39.5512H299.346C299.621 39.5512 299.844 39.3263 299.844 39.0493C299.844 38.7724 299.621 38.5475 299.346 38.5475Z" fill="url(#paint28_linear_6236_23307)"/>
<path d="M268.979 39.5504H275.125C275.401 39.5504 275.624 39.3255 275.624 39.0485C275.624 38.7715 275.401 38.5467 275.125 38.5467H268.979C268.704 38.5467 268.481 38.7715 268.481 39.0485C268.481 39.3255 268.704 39.5504 268.979 39.5504Z" fill="url(#paint29_linear_6236_23307)"/>
<path d="M303.664 43.8208H302.148C301.873 43.8208 301.65 44.0457 301.65 44.3227C301.65 44.5997 301.873 44.8245 302.148 44.8245H303.664C303.939 44.8245 304.162 44.5997 304.162 44.3227C304.162 44.0453 303.94 43.8208 303.664 43.8208Z" fill="url(#paint30_linear_6236_23307)"/>
<path d="M299.346 43.8208H295.756C295.481 43.8208 295.258 44.0457 295.258 44.3227C295.258 44.5997 295.481 44.8245 295.756 44.8245H299.346C299.621 44.8245 299.844 44.5997 299.844 44.3227C299.844 44.0453 299.621 43.8208 299.346 43.8208Z" fill="url(#paint31_linear_6236_23307)"/>
<path d="M265.499 44.8247H276.46C276.735 44.8247 276.958 44.5999 276.958 44.3229C276.958 44.0459 276.735 43.821 276.46 43.821L265.499 43.8214C265.223 43.8214 265 44.0463 265 44.3233C265 44.5999 265.223 44.8247 265.499 44.8247Z" fill="url(#paint32_linear_6236_23307)"/>
<path d="M304.162 49.5971C304.162 49.3201 303.94 49.0953 303.664 49.0953H302.148C301.873 49.0953 301.65 49.3201 301.65 49.5971C301.65 49.8741 301.873 50.099 302.148 50.099H303.664C303.94 50.099 304.162 49.8741 304.162 49.5971Z" fill="url(#paint33_linear_6236_23307)"/>
<path d="M268.247 49.0952H266.792C266.517 49.0952 266.294 49.32 266.294 49.597C266.294 49.874 266.517 50.0989 266.792 50.0989H268.247C268.523 50.0989 268.746 49.874 268.746 49.597C268.746 49.32 268.523 49.0952 268.247 49.0952Z" fill="url(#paint34_linear_6236_23307)"/>
<path d="M302.253 54.3685C301.978 54.3685 301.755 54.5934 301.755 54.8704C301.755 55.1474 301.978 55.3722 302.253 55.3722H302.815C303.09 55.3722 303.313 55.1474 303.313 54.8704C303.313 54.5934 303.09 54.3685 302.815 54.3685H302.253Z" fill="url(#paint35_linear_6236_23307)"/>
<path d="M268.087 54.3685H266.48C266.204 54.3685 265.981 54.5934 265.981 54.8704C265.981 55.1474 266.204 55.3722 266.48 55.3722H268.087C268.363 55.3722 268.586 55.1474 268.586 54.8704C268.586 54.5934 268.362 54.3685 268.087 54.3685Z" fill="url(#paint36_linear_6236_23307)"/>
<path d="M278.904 56.3195C278.904 56.5965 279.127 56.8214 279.402 56.8214H290.599C290.874 56.8214 291.097 56.5965 291.097 56.3195C291.097 56.0425 290.874 55.8177 290.599 55.8177H279.402C279.127 55.8177 278.904 56.0425 278.904 56.3195Z" fill="url(#paint37_linear_6236_23307)"/>
<path d="M287.678 59.3003C287.678 59.5772 287.901 59.8021 288.176 59.8021H291.809C292.084 59.8021 292.307 59.5773 292.307 59.3003C292.307 59.0233 292.084 58.7984 291.809 58.7984H288.176C287.901 58.7984 287.678 59.0233 287.678 59.3003Z" fill="url(#paint38_linear_6236_23307)"/>
<path d="M285.436 58.7983H278.192C277.916 58.7983 277.694 59.0232 277.694 59.3002C277.694 59.5772 277.916 59.802 278.192 59.802H285.437C285.712 59.802 285.935 59.5772 285.935 59.3002C285.934 59.0232 285.712 58.7983 285.436 58.7983Z" fill="url(#paint39_linear_6236_23307)"/>
<path d="M359.313 48.0071C359.119 48.0071 358.934 47.9316 358.797 47.7955L351.038 40.1311C350.753 39.8498 350.753 39.3921 351.038 39.1077L359.636 30.6147C359.912 30.3421 360.395 30.3421 360.671 30.6147L368.43 38.2788C368.714 38.56 368.714 39.0181 368.43 39.3021L359.833 47.7955C359.694 47.9316 359.509 48.0071 359.313 48.0071ZM352.59 39.6209L359.313 46.2621L366.874 38.7921L360.152 32.1509L352.59 39.6209Z" fill="url(#paint40_linear_6236_23307)"/>
<path d="M369.448 41.033C369.254 41.033 369.067 40.9575 368.932 40.8213L358.098 30.1193C357.811 29.838 357.811 29.38 358.098 29.0959L361.522 25.713C361.807 25.429 362.271 25.429 362.558 25.713L373.393 36.4151C373.53 36.5512 373.606 36.7339 373.606 36.9252C373.606 37.1164 373.53 37.3019 373.393 37.4353L369.968 40.8182C369.83 40.9571 369.645 41.0326 369.449 41.0326L369.448 41.033ZM359.65 29.6092L369.448 39.2877L371.837 36.9281L362.038 27.2496L359.65 29.6092Z" fill="url(#paint41_linear_6236_23307)"/>
<path d="M357.427 52.9085C357.239 52.9085 357.054 52.8389 356.91 52.6969L346.077 41.9949C345.789 41.7136 345.789 41.2559 346.077 40.9715L349.501 37.5889C349.777 37.3163 350.261 37.3163 350.537 37.5889L361.371 48.291C361.655 48.5722 361.655 49.0303 361.371 49.3143L357.946 52.6969C357.803 52.8389 357.615 52.9085 357.427 52.9085H357.427ZM347.629 41.4847L357.427 51.1632L359.815 48.8037L350.018 39.1251L347.629 41.4847Z" fill="url(#paint42_linear_6236_23307)"/>
<path d="M380.701 64.1647H380.696C380.499 64.1616 380.311 64.0834 380.176 63.9445L361.623 44.9898C361.347 44.7058 361.35 44.2536 361.632 43.9751L364.563 41.0795C364.845 40.8011 365.302 40.7955 365.589 41.0706L384.777 59.3997C384.918 59.5327 384.997 59.7185 385 59.9125C385 60.1069 384.924 60.2924 384.786 60.4285L381.221 63.9503C381.083 64.0868 380.895 64.1651 380.702 64.1651L380.701 64.1647ZM363.174 44.4944L380.713 62.4115L383.225 59.9302L365.088 42.6043L363.174 44.4944Z" fill="url(#paint43_linear_6236_23307)"/>
<path d="M366.5 64.5H345.734C345.329 64.5 345 64.1753 345 63.7783V61.1695C345 60.7693 345.329 60.4474 345.734 60.4474H366.5C366.905 60.4474 367.233 60.7721 367.233 61.1695V63.7783C367.233 64.1753 366.905 64.5 366.5 64.5ZM346.467 63.0534H365.769V61.8881H346.467V63.0534Z" fill="url(#paint44_linear_6236_23307)"/>
<path d="M347.634 61.8909C347.229 61.8909 346.904 61.5662 346.904 61.1692C346.904 59.595 348.201 58.3139 349.794 58.3139H362.444C364.037 58.3139 365.335 59.5951 365.335 61.1692C365.335 61.5662 365.006 61.8909 364.601 61.8909H347.634ZM348.571 60.4443H363.668C363.419 60.0327 362.964 59.7573 362.445 59.7573H349.795C349.276 59.7573 348.821 60.0327 348.572 60.4443H348.571Z" fill="url(#paint45_linear_6236_23307)"/>
<path d="M429.667 48.3336C430.904 48.3318 432.09 47.8396 432.965 46.965C433.84 46.0901 434.332 44.9042 434.333 43.6667V43.0003C434.333 42.6467 434.193 42.3074 433.943 42.0575C433.693 41.8075 433.353 41.667 433 41.667H432.836L430.467 33.3639C430.579 33.301 430.686 33.2287 430.786 33.1484C432.083 32.9362 433.331 32.4881 434.466 31.8257C434.688 31.709 434.909 31.5915 435.136 31.4789V31.4792C435.819 31.1077 436.541 30.8131 437.288 30.6007C438.57 30.3792 439.887 30.5194 441.094 31.0051C441.198 31.4033 441.394 31.7711 441.667 32.079V53.0003H437.667C436.783 53.0012 435.936 53.3529 435.311 53.9776C434.686 54.6025 434.334 55.4498 434.333 56.3337V58.3337L433.667 58.3334C432.783 58.3346 431.936 58.686 431.311 59.3109C430.686 59.9358 430.334 60.7831 430.333 61.6667V63.6667C430.333 64.0203 430.474 64.3596 430.724 64.6095C430.974 64.8595 431.313 65 431.667 65H458.333C458.687 65 459.026 64.8595 459.276 64.6095C459.526 64.3596 459.667 64.0203 459.667 63.6667V61.6667C459.666 60.7831 459.314 59.9358 458.689 59.3109C458.064 58.686 457.217 58.3346 456.333 58.3334H455.667V56.3336C455.666 55.4497 455.314 54.6024 454.689 53.9775C454.064 53.3529 453.217 53.0012 452.333 53.0002H448.333V32.0782C448.605 31.7721 448.801 31.4067 448.905 31.0116C450.11 30.52 451.428 30.3777 452.709 30.6004C453.459 30.8122 454.182 31.1065 454.867 31.4784C455.095 31.5916 455.317 31.7091 455.539 31.8257L455.539 31.8254C456.674 32.4872 457.921 32.9357 459.217 33.1481C459.318 33.2291 459.425 33.3013 459.538 33.3643L457.163 41.6666H457C456.646 41.6666 456.307 41.8071 456.057 42.0571C455.807 42.307 455.667 42.6463 455.667 42.9999V43.6666V43.6663C455.667 45.3336 456.556 46.8744 458 47.708C459.444 48.5416 461.223 48.5416 462.667 47.708C464.111 46.8744 465 45.3336 465 43.6663V42.9999C465 42.6463 464.86 42.307 464.61 42.057C464.36 41.8071 464.02 41.6666 463.667 41.6666H463.503L461.2 33.6001C461.871 33.4522 462.442 33.0164 462.762 32.4089C463.082 31.8016 463.118 31.0839 462.861 30.4473C462.604 29.8106 462.079 29.3196 461.427 29.105C460.775 28.8904 460.061 28.9738 459.476 29.3333C458.955 29.2027 458.448 29.021 457.963 28.7909C457.317 28.4494 456.707 28.0431 456.143 27.5788C455.127 26.6407 453.847 26.0375 452.476 25.8507C451.163 25.7521 449.843 25.882 448.575 26.2347C448.089 25.4661 447.243 25.0003 446.333 25H443.667C442.758 25.0006 441.913 25.4655 441.427 26.2328C440.159 25.8804 438.84 25.7505 437.527 25.8485C436.157 26.0355 434.877 26.6387 433.861 27.5766C433.296 28.0415 432.686 28.4478 432.039 28.7892C431.554 29.0199 431.047 29.202 430.526 29.3332C429.942 28.9818 429.233 28.904 428.587 29.1198C427.94 29.336 427.421 29.8241 427.165 30.4562C426.909 31.0879 426.943 31.8 427.258 32.4048C427.572 33.0095 428.136 33.4465 428.8 33.6L426.497 41.6665H426.333C425.98 41.6665 425.64 41.807 425.39 42.057C425.14 42.307 425 42.6462 425 42.9998V43.6666V43.6663C425.002 44.9037 425.494 46.0896 426.369 46.9646C427.244 47.8392 428.429 48.3313 429.667 48.3332L429.667 48.3336ZM458.333 61.6664V63.6664H431.667V61.6664C431.667 61.136 431.877 60.6274 432.252 60.2522C432.627 59.8772 433.136 59.6666 433.667 59.6666H456.333C456.864 59.6666 457.372 59.8772 457.747 60.2522C458.122 60.6274 458.333 61.1361 458.333 61.6664H458.333ZM454.333 56.333V58.333H435.666V56.3332C435.666 55.8025 435.877 55.2939 436.252 54.919C436.627 54.5437 437.136 54.3332 437.666 54.3332H452.333C452.863 54.3332 453.372 54.5437 453.747 54.919C454.122 55.294 454.333 55.8026 454.333 56.3332L454.333 56.333ZM443 53V32.9044C443.217 32.9643 443.441 32.9962 443.666 32.9996H446.333C446.559 32.9962 446.783 32.9643 447 32.9044V53H443ZM463.667 43.6663C463.667 44.8573 463.031 45.9576 462 46.5531C460.969 47.1485 459.698 47.1485 458.667 46.5531C457.635 45.9576 457 44.8573 457 43.6663V42.9999H463.667L463.667 43.6663ZM458.551 41.6663L460.333 35.4267L462.116 41.6666L458.551 41.6663ZM460.667 30.3335C461.152 30.3326 461.568 30.6812 461.653 31.1594C461.737 31.6379 461.466 32.1078 461.009 32.2734C460.552 32.439 460.043 32.2526 459.801 31.8311C459.559 31.4097 459.655 30.8756 460.029 30.5649C460.208 30.4157 460.433 30.3339 460.667 30.3335ZM452.354 27.1776C453.575 27.2855 454.387 27.9111 455.327 28.6343V28.634C455.96 29.1532 456.645 29.606 457.371 29.9847C457.743 30.1639 458.126 30.3162 458.52 30.4409C458.399 30.7231 458.336 31.0264 458.333 31.3335C458.337 31.4215 458.345 31.5096 458.359 31.5968C457.593 31.362 456.855 31.0438 456.159 30.6474C455.927 30.524 455.693 30.4021 455.454 30.2821H455.454C454.682 29.8662 453.865 29.5384 453.02 29.3048C451.679 29.0403 450.293 29.1321 448.999 29.5715V27.6667C448.999 27.6106 448.989 27.5566 448.985 27.5008C450.081 27.2015 451.221 27.092 452.354 27.1776ZM442.333 27.6667C442.334 27.5169 442.36 27.3683 442.412 27.2275C442.501 26.9658 442.67 26.7391 442.895 26.5787C443.121 26.4184 443.39 26.3325 443.667 26.3334H446.334C446.613 26.3334 446.885 26.4212 447.111 26.5846C447.337 26.7478 447.507 26.9779 447.595 27.2428C447.643 27.3792 447.667 27.5225 447.667 27.6667V30.4002C447.662 30.4223 447.659 30.4443 447.657 30.4669C447.627 30.7969 447.472 31.1033 447.224 31.3235C447.208 31.3378 447.193 31.353 447.178 31.3688C446.939 31.562 446.641 31.6671 446.334 31.6668H443.667C443.36 31.6668 443.062 31.5617 442.823 31.3688C442.809 31.3527 442.793 31.3372 442.777 31.3229C442.515 31.0841 442.356 30.7535 442.333 30.4002C442.332 30.3779 442.332 30.3556 442.333 30.3336L442.333 27.6667ZM432.627 29.9856C433.354 29.6063 434.039 29.1535 434.673 28.634C435.613 27.9102 436.425 27.2853 437.646 27.1773L437.646 27.1776C438.779 27.093 439.919 27.2024 441.015 27.5014C441.011 27.5569 441 27.6115 441 27.6667V29.5694C439.706 29.129 438.318 29.0372 436.977 29.3027C436.132 29.5362 435.316 29.8643 434.544 30.2802C434.304 30.3996 434.072 30.5215 433.84 30.6449H433.84C433.144 31.0428 432.407 31.3632 431.641 31.6001C431.655 31.5117 431.663 31.4227 431.667 31.3334C431.664 31.0263 431.601 30.723 431.48 30.4408C431.873 30.3165 432.256 30.1642 432.627 29.9856ZM428.333 31.3335C428.333 30.929 428.577 30.5643 428.951 30.4095C429.324 30.2548 429.755 30.3404 430.04 30.6263C430.326 30.9123 430.412 31.3424 430.257 31.7162C430.103 32.0899 429.738 32.3333 429.333 32.3333C428.781 32.3333 428.333 31.8858 428.333 31.3335ZM429.667 35.4266L431.449 41.6669H427.884L429.667 35.4266ZM426.333 43.0002H433V43.6669V43.6666C433 44.8576 432.365 45.9579 431.333 46.5533C430.302 47.1488 429.032 47.1488 428 46.5533C426.969 45.9579 426.333 44.8576 426.333 43.6666L426.333 43.0002Z" fill="url(#paint46_linear_6236_23307)"/>
<path d="M437.666 61.0002H437C436.632 61.0002 436.333 61.2986 436.333 61.6667C436.333 62.0348 436.632 62.3335 437 62.3335H437.667H437.666C438.035 62.3335 438.333 62.0348 438.333 61.6667C438.333 61.2986 438.035 61.0002 437.666 61.0002Z" fill="url(#paint47_linear_6236_23307)"/>
<path d="M453 61.0002H452.333C451.965 61.0002 451.666 61.2986 451.666 61.6667C451.666 62.0348 451.965 62.3335 452.333 62.3335H453C453.368 62.3335 453.667 62.0348 453.667 61.6667C453.667 61.2986 453.368 61.0002 453 61.0002Z" fill="url(#paint48_linear_6236_23307)"/>
<path d="M449.667 61.0002H440.334C439.966 61.0002 439.667 61.2986 439.667 61.6667C439.667 62.0348 439.966 62.3335 440.334 62.3335H449.667C450.035 62.3335 450.334 62.0348 450.334 61.6667C450.334 61.2986 450.035 61.0002 449.667 61.0002Z" fill="url(#paint49_linear_6236_23307)"/>
<path d="M439 55.6673H438.334C437.966 55.6673 437.667 55.9657 437.667 56.3341C437.667 56.7022 437.966 57.0006 438.334 57.0006H439.001H439C439.369 57.0006 439.667 56.7022 439.667 56.3341C439.667 55.9657 439.369 55.6673 439 55.6673Z" fill="url(#paint50_linear_6236_23307)"/>
<path d="M451 57.0003H451.667H451.667C452.035 57.0003 452.333 56.702 452.333 56.3339C452.333 55.9654 452.035 55.6671 451.667 55.6671H451C450.632 55.6671 450.333 55.9654 450.333 56.3339C450.333 56.702 450.632 57.0003 451 57.0003Z" fill="url(#paint51_linear_6236_23307)"/>
<path d="M441 56.3342C441 56.511 441.071 56.6803 441.196 56.8056C441.321 56.9306 441.49 57.0007 441.667 57.0007H448.334C448.702 57.0007 449 56.7023 449 56.3342C449 55.9658 448.702 55.6674 448.334 55.6674H441.667C441.299 55.6674 441 55.9658 441 56.3342Z" fill="url(#paint52_linear_6236_23307)"/>
<path d="M50.0003 133.026L50.3121 132.846L51.2968 134.551C51.0749 135.027 51.0799 135.6 51.3617 136.089L52.1949 137.531C52.5032 138.066 53.0653 138.365 53.6416 138.365C53.9238 138.365 54.2099 138.293 54.4717 138.142L61.6664 133.988C62.4611 133.529 62.7345 132.508 62.2762 131.711L61.4438 130.266C61.1612 129.779 60.6679 129.489 60.1451 129.442L54.0092 118.814C54.2303 118.338 54.2253 117.766 53.9447 117.277L53.1111 115.832C52.6513 115.038 51.6309 114.765 50.8339 115.222L50.0007 115.703V105.834C50.0007 105.373 49.6278 105 49.1672 105H25.8335C25.3729 105 25 105.373 25 105.834V137.5C25 137.96 25.3729 138.333 25.8335 138.333H32.1412C32.1996 138.478 32.265 138.621 32.3446 138.759C32.7898 139.53 33.5084 140.082 34.3688 140.312C34.6514 140.388 34.9374 140.426 35.2246 140.426C35.8106 140.426 36.3985 140.267 36.9521 139.944L39.302 138.333H49.1662C49.6268 138.333 49.9997 137.96 49.9997 137.5V133.025L50.0003 133.026ZM48.3336 136.667H41.7326L46.8023 133.191L47.1137 133.73C47.2244 133.921 47.4067 134.061 47.6201 134.118C47.6904 134.137 47.7635 134.147 47.8354 134.147C47.9807 134.147 48.1245 134.109 48.2518 134.036L48.3336 133.988L48.3336 136.667ZM36.3602 138.333L36.0645 138.536C35.6789 138.759 35.2294 138.817 34.8 138.704C34.5451 138.635 34.3205 138.505 34.1287 138.334C33.9968 138.217 33.8788 138.084 33.7884 137.927C33.71 137.792 33.6535 137.648 33.6158 137.501C33.547 137.23 33.547 136.945 33.6196 136.668C33.62 136.666 33.6208 136.664 33.6212 136.662C33.7361 136.233 34.011 135.874 34.3951 135.652L44.8154 129.751L45.5832 131.08L45.9669 131.745L38.7895 136.668L37.5746 137.502L36.3602 138.333ZM26.6669 136.667V106.668H48.3342V116.667L43.6398 119.377C43.2542 119.6 42.9773 119.959 42.8628 120.39C42.747 120.82 42.8066 121.269 43.0285 121.654L43.862 123.098C44.1438 123.587 44.6371 123.875 45.1603 123.922L46.1458 125.629L44.0857 126.818C43.687 127.049 43.5502 127.558 43.7809 127.957L43.9827 128.306L33.5703 134.203C33.5688 134.204 33.5665 134.205 33.5646 134.207C32.7941 134.652 32.2419 135.37 32.0121 136.23C31.9733 136.375 31.9483 136.521 31.9287 136.667L26.6668 136.667L26.6669 136.667ZM45.6413 127.845L46.9793 127.072L48.3342 129.419L49.1673 130.862L49.4791 131.402L49.1673 131.582L48.3342 132.063L48.1412 132.175L45.6413 127.845ZM50.0004 128.971L49.1669 127.528L48.3337 126.084L47.7924 125.147L46.7559 123.352L48.3337 122.441L49.1669 121.96L50.0004 121.479L52.7164 119.911L58.5492 130.013L52.5887 133.455L51.5522 131.66L50.0004 128.971ZM60.0014 131.1L60.8349 132.544L53.6396 136.698L52.806 135.255L60.0014 131.1ZM52.5011 118.11L50.0013 119.554L49.1678 120.035L48.3346 120.516L45.3061 122.264L44.4729 120.822L48.3349 118.592L49.1681 118.111L50.0016 117.63L51.6683 116.668L52.5015 118.11L52.5011 118.11ZM28.3338 116.666C28.3338 116.208 28.7091 115.833 29.1674 115.833H30.0005C30.4588 115.833 30.834 116.208 30.834 116.666C30.834 117.125 30.4588 117.499 30.0005 117.499H29.1674C28.7091 117.5 28.3338 117.125 28.3338 116.666ZM44.1674 116.666C44.1674 117.125 43.7922 117.499 43.3339 117.499H36.6672C36.2089 117.499 35.8336 117.125 35.8336 116.666C35.8336 116.208 36.2089 115.833 36.6672 115.833H43.3335C43.7922 115.833 44.1674 116.209 44.1674 116.666ZM33.3338 115.833C33.7921 115.833 34.167 116.208 34.167 116.667C34.167 117.125 33.7921 117.5 33.3338 117.5C32.8755 117.5 32.5003 117.125 32.5003 116.667C32.5003 116.209 32.8759 115.833 33.3338 115.833ZM28.3341 120C28.3341 119.539 28.707 119.167 29.1676 119.167H40.0013C40.4619 119.167 40.8348 119.539 40.8348 120C40.8348 120.461 40.4619 120.834 40.0013 120.834H29.1676C28.7067 120.833 28.3345 120.461 28.3345 120H28.3341ZM42.5004 123.333C42.5004 123.794 42.1275 124.167 41.6669 124.167H32.5007C32.0401 124.167 31.6675 123.794 31.6675 123.333C31.6675 122.873 32.0401 122.5 32.5007 122.5H41.6673C42.1279 122.5 42.5004 122.873 42.5004 123.333ZM42.5004 126.666C42.5004 127.127 42.1275 127.5 41.6669 127.5L32.5007 127.5C32.0401 127.5 31.6675 127.127 31.6675 126.667C31.6675 126.206 32.0401 125.833 32.5007 125.833H41.6673C42.1279 125.833 42.5004 126.206 42.5004 126.666ZM32.5004 130.833C32.0398 130.833 31.6673 130.46 31.6673 130C31.6673 129.539 32.0398 129.166 32.5004 129.166H35.8338C36.2944 129.166 36.6673 129.539 36.6673 130C36.6673 130.46 36.2944 130.833 35.8338 130.833H32.5004ZM32.9168 114.166H42.9168C44.5251 114.166 45.8334 112.857 45.8334 111.25C45.8334 109.641 44.5247 108.333 42.9168 108.333H32.9168C31.3086 108.333 30.0002 109.642 30.0002 111.25C30.0002 112.858 31.3086 114.166 32.9168 114.166ZM44.1668 111.25C44.1668 111.939 43.6059 112.499 42.9169 112.499L32.9169 112.5C32.2276 112.5 31.667 111.939 31.667 111.25C31.667 110.561 32.228 110 32.9169 110H42.9169C43.6063 110 44.1668 110.56 44.1668 111.25ZM62.5004 140H52.4995C51.1207 140 49.9997 141.121 49.9997 142.5V144.166C49.9997 144.627 50.3722 145 50.8328 145H64.1665C64.6271 145 65 144.627 65 144.166V142.5C64.9996 141.121 63.8784 140 62.5002 140H62.5004ZM51.6668 142.5C51.6668 142.04 52.0401 141.666 52.4999 141.666H62.4999C62.9598 141.666 63.3335 142.04 63.3335 142.5V143.333H51.6662L51.6668 142.5ZM30.0005 129.999C30.0005 130.458 29.6256 130.832 29.1673 130.832C28.7091 130.832 28.3338 130.458 28.3338 129.999C28.3338 129.541 28.709 129.166 29.1673 129.166C29.6256 129.166 30.0005 129.541 30.0005 129.999ZM30.0005 123.333C30.0005 123.791 29.6256 124.167 29.1673 124.167C28.7091 124.167 28.3338 123.791 28.3338 123.333C28.3338 122.875 28.709 122.5 29.1673 122.5C29.6256 122.5 30.0005 122.875 30.0005 123.333ZM30.0005 126.666C30.0005 127.124 29.6256 127.499 29.1673 127.499C28.7091 127.499 28.3338 127.124 28.3338 126.666C28.3338 126.208 28.709 125.833 29.1673 125.833C29.6256 125.833 30.0005 126.208 30.0005 126.666Z" fill="url(#paint53_linear_6236_23307)"/>
<path d="M145 123.667C145 123.49 144.93 123.32 144.805 123.195C144.68 123.07 144.51 123 144.334 123H136.905C136.71 122.232 136.182 121.592 135.465 121.254C134.748 120.916 133.918 120.916 133.202 121.254C132.485 121.592 131.957 122.232 131.761 123H124.333C123.965 123 123.666 123.298 123.666 123.667C123.666 124.035 123.965 124.333 124.333 124.333H125.851L123.755 128L123.764 128.005H123.763C123.702 128.104 123.669 128.217 123.666 128.334V128.69C123.102 128.489 122.51 128.375 121.911 128.351L119.667 126.667V124.756C121.549 123.669 122.794 121.743 123.009 119.581C123.559 119.436 124.048 119.119 124.404 118.676C124.761 118.234 124.966 117.689 124.99 117.121C125.41 115.332 125.637 113.504 125.667 111.667C125.667 111.144 125.618 110.623 125.52 110.111C125.35 109.294 124.924 108.554 124.303 107.998C123.682 107.442 122.9 107.099 122.07 107.02C121.814 106.659 121.491 106.351 121.118 106.113C120.015 105.375 118.405 105 116.333 105C112.485 105 111.076 106.305 110.593 107.021C109.835 107.101 109.115 107.394 108.517 107.867C107.807 108.43 107.321 109.227 107.145 110.115C107.048 110.627 106.999 111.146 107 111.667C107.03 113.504 107.256 115.332 107.677 117.121C107.7 117.691 107.909 118.239 108.273 118.68C108.636 119.121 109.134 119.431 109.69 119.562C109.883 121.728 111.117 123.665 113 124.754V126.667L110.762 128.345C109.214 128.407 107.751 129.064 106.677 130.18C105.603 131.297 105.002 132.785 105 134.334V142.333C105 143.041 105.281 143.719 105.781 144.219C106.281 144.719 106.959 145 107.667 145H125C125.707 145 126.385 144.719 126.886 144.219C127.386 143.719 127.667 143.041 127.667 142.333V134.334C127.665 133.407 127.448 132.495 127.033 131.667H127.667C128.374 131.667 129.052 131.386 129.552 130.886C130.052 130.386 130.333 129.708 130.333 129V128.334C130.331 128.218 130.297 128.106 130.237 128.008L130.245 128.003L128.149 124.333H131.761C131.866 124.733 132.061 125.102 132.333 125.412V138.428C131.763 138.575 131.257 138.908 130.895 139.373C130.533 139.838 130.335 140.411 130.333 141V141.123V141.123C129.945 141.26 129.608 141.514 129.369 141.85C129.131 142.186 129.002 142.588 129 143V143.667C129 144.02 129.14 144.359 129.39 144.609C129.641 144.859 129.98 145 130.333 145H138.333C138.687 145 139.026 144.859 139.276 144.609C139.526 144.359 139.667 144.02 139.667 143.667V143C139.665 142.588 139.536 142.186 139.297 141.85C139.059 141.514 138.722 141.26 138.333 141.123V141C138.331 140.411 138.134 139.838 137.772 139.373C137.41 138.908 136.904 138.575 136.333 138.428V125.412C136.605 125.102 136.801 124.733 136.905 124.333H140.518L138.422 128L138.43 128.006H138.43C138.369 128.104 138.336 128.217 138.333 128.334V129V129C138.333 129.708 138.614 130.386 139.114 130.886C139.614 131.386 140.293 131.667 141 131.667H142.333C143.04 131.667 143.719 131.386 144.219 130.886C144.719 130.386 145 129.708 145 129V128.334C144.997 128.218 144.964 128.106 144.903 128.008L144.912 128.003L142.815 124.333H144.333C144.51 124.333 144.68 124.263 144.805 124.138C144.93 124.013 145 123.844 145 123.667L145 123.667ZM127 125.011L128.518 127.667H125.483L127 125.011ZM115.34 143.667L109 134.944L110.588 131.496C111.042 134.147 112.316 138.368 115.897 141.503C116.149 141.722 116.524 141.722 116.775 141.503C120.363 138.363 121.636 134.131 122.088 131.482L123.682 134.915L117.327 143.667L115.34 143.667ZM115.615 133H117.052L117.528 138.782H117.528C117.16 139.246 116.761 139.685 116.334 140.096C115.906 139.685 115.507 139.246 115.139 138.781L115.615 133ZM118.722 137.022L118.357 132.586L118.668 132.275C119.055 132.412 119.486 132.305 119.764 132.004L120.822 130.876C120.503 133.035 119.791 135.119 118.722 137.022ZM117.389 131.667H115.276L115 131.393L116.334 129.975L117.667 131.393L117.389 131.667ZM113.667 132.334C113.781 132.332 113.893 132.312 114 132.274L114.312 132.586L113.947 137.018H113.948C112.882 135.116 112.172 133.036 111.85 130.88L112.911 132.013C113.109 132.218 113.382 132.334 113.667 132.334ZM119 130.867L117.329 129.087L119 127.833L120.671 129.087L119 130.867ZM108.455 110.366C108.57 109.79 108.886 109.273 109.347 108.909C109.817 108.535 110.4 108.332 111 108.333C111.276 108.325 111.521 108.154 111.624 107.898C111.631 107.882 112.314 106.333 116.333 106.333C118.579 106.333 119.771 106.816 120.378 107.222V107.222C120.65 107.38 120.876 107.606 121.035 107.878C121.125 108.15 121.38 108.333 121.667 108.333C122.26 108.327 122.837 108.525 123.301 108.896C123.765 109.266 124.086 109.785 124.211 110.365C124.293 110.794 124.334 111.23 124.333 111.667C124.322 112.775 124.227 113.881 124.048 114.974C123.736 114.71 123.367 114.522 122.97 114.424C122.849 113.469 122.444 112.572 121.807 111.85C121.171 111.128 120.332 110.614 119.4 110.374C119.008 110.259 118.585 110.405 118.347 110.737C117.876 111.368 117.118 111.718 116.333 111.667C115.539 111.718 114.774 111.36 114.304 110.718C114.065 110.397 113.651 110.259 113.267 110.374C112.333 110.614 111.493 111.128 110.852 111.848C110.211 112.567 109.798 113.462 109.667 114.417C109.279 114.518 108.919 114.706 108.615 114.967C108.437 113.876 108.343 112.772 108.333 111.667C108.333 111.23 108.374 110.795 108.455 110.366L108.455 110.366ZM111.018 119.452C110.991 119.175 110.878 118.914 110.693 118.705C110.51 118.497 110.265 118.351 109.993 118.29C109.61 118.19 109.291 117.923 109.123 117.564C108.955 117.205 108.956 116.789 109.126 116.431C109.295 116.072 109.616 115.807 110 115.709C110.267 115.647 110.509 115.504 110.692 115.299C110.875 115.095 110.991 114.839 111.023 114.566C111.106 113.916 111.375 113.303 111.796 112.801C112.217 112.299 112.774 111.929 113.4 111.733C114.135 112.579 115.214 113.045 116.333 113C117.453 113.045 118.532 112.579 119.267 111.733C119.892 111.929 120.449 112.299 120.871 112.801C121.292 113.303 121.561 113.916 121.645 114.566C121.677 114.839 121.792 115.094 121.975 115.299C122.158 115.504 122.399 115.646 122.667 115.709C123.051 115.807 123.371 116.072 123.541 116.431C123.71 116.789 123.711 117.205 123.543 117.564C123.376 117.923 123.056 118.19 122.672 118.29C122.401 118.351 122.157 118.497 121.973 118.705C121.789 118.913 121.675 119.174 121.648 119.451C121.499 121.245 120.454 122.843 118.871 123.7C117.287 124.556 115.378 124.556 113.795 123.7C112.211 122.843 111.167 121.245 111.018 119.451L111.018 119.452ZM116.333 125.667C117.012 125.665 117.687 125.558 118.333 125.35V126.667L116.333 128.167L114.333 126.667V125.35C114.98 125.558 115.654 125.665 116.333 125.667ZM113.667 127.833L115.338 129.087L113.667 130.867L111.995 129.087L113.667 127.833ZM106.333 142.333V134.333C106.335 133.289 106.687 132.275 107.333 131.454C107.979 130.633 108.881 130.052 109.896 129.804L107.785 134.389C107.591 134.816 107.638 135.313 107.908 135.697L113.692 143.666H107.666C107.313 143.666 106.974 143.526 106.724 143.276C106.474 143.026 106.333 142.687 106.333 142.333V142.333ZM126.334 142.333C126.334 142.687 126.193 143.026 125.943 143.276C125.693 143.526 125.354 143.667 125 143.667H118.974L124.769 135.68H124.77C125.033 135.298 125.075 134.806 124.88 134.386L122.773 129.808V129.807C123.216 129.914 123.64 130.087 124.031 130.321C124.326 130.837 124.784 131.24 125.333 131.466C125.979 132.283 126.331 133.292 126.334 134.333L126.334 142.333ZM127.667 130.333H126.334C125.98 130.333 125.641 130.193 125.391 129.943C125.141 129.693 125 129.354 125 129H129.001H129C129 129.354 128.86 129.693 128.61 129.943C128.36 130.193 128.02 130.333 127.667 130.333ZM141.667 125.011L143.185 127.667H140.149L141.667 125.011ZM142.333 130.333H141C140.647 130.333 140.307 130.193 140.057 129.943C139.807 129.693 139.667 129.354 139.667 129H143.667H143.667C143.667 129.354 143.526 129.693 143.276 129.943C143.026 130.193 142.687 130.333 142.333 130.333ZM133.667 126.239C134.102 126.365 134.565 126.365 135 126.239V138.333H133.667V126.239ZM134.333 122.334C134.687 122.334 135.026 122.474 135.276 122.724C135.526 122.974 135.667 123.313 135.667 123.667C135.667 124.021 135.526 124.36 135.276 124.61C135.026 124.86 134.687 125 134.333 125C133.98 125 133.641 124.86 133.391 124.61C133.141 124.36 133 124.021 133 123.667C133 123.313 133.141 122.974 133.391 122.724C133.641 122.474 133.98 122.334 134.333 122.334ZM130.333 143.667V143C130.333 142.632 130.632 142.334 131 142.334H137.667C137.844 142.334 138.013 142.404 138.138 142.529C138.263 142.654 138.333 142.823 138.333 143V143.667H130.333ZM137 141H131.667C131.667 140.647 131.807 140.308 132.057 140.058C132.307 139.807 132.646 139.667 133 139.667H135.667C136.02 139.667 136.36 139.807 136.61 140.058C136.86 140.308 137 140.647 137 141Z" fill="url(#paint54_linear_6236_23307)"/>
<path d="M221.774 119.839C221.087 119.839 220.415 120.067 219.856 120.484H217.258V105H190.161C187.316 105 185 107.316 185 110.161V140.484C185 142.974 187.026 145 189.516 145H217.258V143.71C215.48 143.71 214.033 142.263 214.033 140.484C214.033 138.705 215.48 137.258 217.258 137.258V125.645H219.856C220.415 126.063 221.087 126.29 221.774 126.29C223.553 126.29 225 124.843 225 123.064C225 121.286 223.553 119.839 221.775 119.839L221.774 119.839ZM213.183 138.549H191.451V139.839H212.793C212.763 140.051 212.741 140.265 212.741 140.484C212.741 140.703 212.763 140.918 212.793 141.129L209.516 141.13V142.42H213.183C213.414 142.902 213.722 143.34 214.1 143.71L189.516 143.71C188.466 143.71 187.541 143.199 186.952 142.42L208.225 142.42V141.13H186.354C186.312 140.921 186.29 140.705 186.29 140.484C186.29 140.264 186.312 140.048 186.355 139.839H190.16V138.549H186.951C187.54 137.77 188.466 137.258 189.515 137.258H214.099C213.721 137.628 213.413 138.066 213.183 138.549H213.183ZM215.967 135.968H190.161V116.613H188.871V136.02C187.866 136.164 186.968 136.637 186.29 137.33V110.162C186.29 108.48 187.369 107.049 188.871 106.516V115.323H190.161V106.29H215.967V120.483H213.387V108.87H192.741V123.063H197.257V126.934C196.546 126.934 195.967 127.513 195.967 128.224V129.515C195.967 130.226 196.546 130.805 197.257 130.805H207.58C208.291 130.805 208.87 130.226 208.87 129.515V128.224C208.87 127.513 208.291 126.934 207.58 126.934V125.644H215.967L215.967 135.968ZM197.257 117.903V116.613H207.58L207.58 117.903H197.257ZM207.58 128.226L207.58 129.516H197.257V128.226H207.58ZM198.547 126.935V119.193H206.289V126.935H198.547ZM207.58 119.193C208.292 119.193 208.87 118.614 208.87 117.903V116.613C208.87 115.901 208.291 115.323 207.58 115.323L197.257 115.322C196.546 115.322 195.967 115.901 195.967 116.613V117.903C195.967 118.614 196.546 119.193 197.257 119.193V121.774H194.032V110.161H212.097V120.484H207.58L207.58 119.193ZM221.773 125C221.186 125 220.761 124.736 220.507 124.514L220.325 124.355H207.58V121.774H220.325L220.507 121.615C220.761 121.393 221.186 121.129 221.773 121.129C222.84 121.129 223.709 121.997 223.709 123.064C223.709 124.132 222.84 125 221.773 125Z" fill="url(#paint55_linear_6236_23307)"/>
<path d="M213.387 132.097H214.678V133.387H213.387V132.097Z" fill="url(#paint56_linear_6236_23307)"/>
<path d="M210.807 132.097H212.097V133.387H210.807V132.097Z" fill="url(#paint57_linear_6236_23307)"/>
<path d="M196.613 132.097H209.516V133.387H196.613V132.097Z" fill="url(#paint58_linear_6236_23307)"/>
<path d="M194.033 132.097H195.323V133.387H194.033V132.097Z" fill="url(#paint59_linear_6236_23307)"/>
<path d="M191.452 132.097H192.742V133.387H191.452V132.097Z" fill="url(#paint60_linear_6236_23307)"/>
<path d="M304.915 135.155C304.834 135.033 303.049 132.363 298.425 133.415C295.626 134.062 293.436 134.75 292.259 135.195C292.138 134.103 291.205 133.253 290.109 133.172L273.194 129.895V128.924C273.194 128.56 272.91 128.277 272.545 128.277H265.649C265.284 128.277 265 128.56 265 128.924V142.113C265 142.477 265.284 142.76 265.649 142.76H272.545C272.91 142.76 273.194 142.477 273.194 142.113L273.194 140.697C275.79 141.708 283.132 144.5 286.987 144.5C291.651 144.5 304.186 136.368 304.754 136.044C304.997 135.842 305.078 135.437 304.916 135.154L304.915 135.155ZM266.299 141.426V129.572H271.856V141.425L266.299 141.426ZM286.946 143.205C283.133 143.205 275.06 140.05 273.154 139.281L273.154 131.231L289.907 134.467C290.475 134.467 290.921 134.912 290.921 135.479C290.921 136.045 290.474 136.49 289.907 136.49L280.537 136.49C280.171 136.49 279.887 136.774 279.887 137.138C279.887 137.502 280.171 137.785 280.537 137.785H289.947C290.758 137.785 291.488 137.34 291.894 136.693C292.624 136.41 295.18 135.439 298.709 134.67C301.224 134.103 302.644 134.832 303.333 135.358C300.656 137.056 290.677 143.206 286.945 143.206L286.946 143.205Z" fill="url(#paint61_linear_6236_23307)"/>
<path d="M288.284 118.285L285.445 111.407C285.364 111.205 285.161 111.083 284.958 111.043C284.755 111.043 284.552 111.164 284.43 111.367L281.145 118.285C280.982 118.366 280.861 118.568 280.861 118.77C280.861 120.874 282.564 122.573 284.674 122.614H284.795C286.905 122.573 288.609 120.874 288.609 118.77C288.568 118.568 288.446 118.366 288.284 118.285H288.284ZM284.917 112.985L287.067 118.204H282.443L284.917 112.985ZM284.714 121.481C283.417 121.481 282.362 120.55 282.078 119.337H287.351C287.108 120.55 286.012 121.44 284.714 121.481Z" fill="url(#paint62_linear_6236_23307)"/>
<path d="M284.958 129.855C284.634 129.855 284.39 129.612 284.39 129.288C284.39 128.964 284.633 128.722 284.958 128.722H298.872C299.196 128.722 299.44 128.964 299.44 129.288C299.439 129.612 299.196 129.855 298.871 129.855H284.958Z" fill="url(#paint63_linear_6236_23307)"/>
<path d="M302.319 118.244L299.479 111.366C299.398 111.164 299.195 111.043 298.992 111.002C298.789 111.002 298.587 111.123 298.465 111.326L295.179 118.244C295.017 118.325 294.895 118.527 294.895 118.729C294.895 120.833 296.599 122.532 298.708 122.573H298.83C300.939 122.532 302.643 120.833 302.643 118.729C302.602 118.527 302.481 118.325 302.318 118.244H302.319ZM298.952 112.944L301.102 118.163H296.477L298.952 112.944ZM298.749 121.44C297.451 121.44 296.396 120.51 296.112 119.296H301.386C301.142 120.509 300.047 121.399 298.749 121.44Z" fill="url(#paint64_linear_6236_23307)"/>
<path d="M298.871 108.696H293.679C293.516 108.13 293.03 107.644 292.462 107.482V106.066C292.462 105.742 292.218 105.5 291.934 105.5C291.61 105.5 291.366 105.743 291.366 106.067V107.482C290.798 107.685 290.352 108.13 290.19 108.696H284.958C284.633 108.696 284.39 108.939 284.39 109.263C284.39 109.586 284.633 109.829 284.958 109.829L290.19 109.829C290.393 110.355 290.799 110.8 291.366 110.961V126.699H287.797C287.472 126.699 287.229 126.942 287.229 127.265C287.229 127.589 287.472 127.832 287.797 127.832H296.031C296.356 127.832 296.599 127.589 296.599 127.265C296.599 126.942 296.356 126.699 296.031 126.699H292.461L292.462 110.961C293.03 110.8 293.476 110.354 293.638 109.788H298.871C299.195 109.788 299.439 109.545 299.439 109.222C299.439 108.898 299.195 108.696 298.871 108.696L298.871 108.696ZM291.934 109.95C291.529 109.95 291.204 109.626 291.204 109.222C291.204 108.817 291.529 108.493 291.934 108.493C292.34 108.493 292.665 108.817 292.665 109.222C292.665 109.626 292.34 109.95 291.934 109.95Z" fill="url(#paint65_linear_6236_23307)"/>
<defs>
<linearGradient id="paint0_linear_6236_23307" x1="57.6624" y1="53.6397" x2="57.6624" y2="61.6506" gradientUnits="userSpaceOnUse">
<stop stop-color="#ED3040"/>
<stop offset="1" stop-color="#2D23F4"/>
</linearGradient>
<linearGradient id="paint1_linear_6236_23307" x1="57.6624" y1="53.6397" x2="57.6624" y2="61.6506" gradientUnits="userSpaceOnUse">
<stop stop-color="#ED3040"/>
<stop offset="1" stop-color="#2D23F4"/>
</linearGradient>
<linearGradient id="paint2_linear_6236_23307" x1="57.6624" y1="53.6397" x2="57.6624" y2="61.6506" gradientUnits="userSpaceOnUse">
<stop stop-color="#ED3040"/>
<stop offset="1" stop-color="#2D23F4"/>
</linearGradient>
<linearGradient id="paint3_linear_6236_23307" x1="57.6624" y1="53.6397" x2="57.6624" y2="61.6506" gradientUnits="userSpaceOnUse">
<stop stop-color="#ED3040"/>
<stop offset="1" stop-color="#2D23F4"/>
</linearGradient>
<linearGradient id="paint4_linear_6236_23307" x1="57.6624" y1="53.6397" x2="57.6624" y2="61.6506" gradientUnits="userSpaceOnUse">
<stop stop-color="#ED3040"/>
<stop offset="1" stop-color="#2D23F4"/>
</linearGradient>
<linearGradient id="paint5_linear_6236_23307" x1="57.6624" y1="53.6397" x2="57.6624" y2="61.6506" gradientUnits="userSpaceOnUse">
<stop stop-color="#ED3040"/>
<stop offset="1" stop-color="#2D23F4"/>
</linearGradient>
<linearGradient id="paint6_linear_6236_23307" x1="57.6624" y1="53.6397" x2="57.6624" y2="61.6506" gradientUnits="userSpaceOnUse">
<stop stop-color="#ED3040"/>
<stop offset="1" stop-color="#2D23F4"/>
</linearGradient>
<linearGradient id="paint7_linear_6236_23307" x1="57.6624" y1="53.6397" x2="57.6624" y2="61.6506" gradientUnits="userSpaceOnUse">
<stop stop-color="#ED3040"/>
<stop offset="1" stop-color="#2D23F4"/>
</linearGradient>
<linearGradient id="paint8_linear_6236_23307" x1="57.6624" y1="53.6397" x2="57.6624" y2="61.6506" gradientUnits="userSpaceOnUse">
<stop stop-color="#ED3040"/>
<stop offset="1" stop-color="#2D23F4"/>
</linearGradient>
<linearGradient id="paint9_linear_6236_23307" x1="57.6624" y1="53.6397" x2="57.6624" y2="61.6506" gradientUnits="userSpaceOnUse">
<stop stop-color="#ED3040"/>
<stop offset="1" stop-color="#2D23F4"/>
</linearGradient>
<linearGradient id="paint10_linear_6236_23307" x1="57.6624" y1="53.6397" x2="57.6624" y2="61.6506" gradientUnits="userSpaceOnUse">
<stop stop-color="#ED3040"/>
<stop offset="1" stop-color="#2D23F4"/>
</linearGradient>
<linearGradient id="paint11_linear_6236_23307" x1="57.6624" y1="53.6397" x2="57.6624" y2="61.6506" gradientUnits="userSpaceOnUse">
<stop stop-color="#ED3040"/>
<stop offset="1" stop-color="#2D23F4"/>
</linearGradient>
<linearGradient id="paint12_linear_6236_23307" x1="57.6624" y1="53.6397" x2="57.6624" y2="61.6506" gradientUnits="userSpaceOnUse">
<stop stop-color="#ED3040"/>
<stop offset="1" stop-color="#2D23F4"/>
</linearGradient>
<linearGradient id="paint13_linear_6236_23307" x1="57.6624" y1="53.6397" x2="57.6624" y2="61.6506" gradientUnits="userSpaceOnUse">
<stop stop-color="#ED3040"/>
<stop offset="1" stop-color="#2D23F4"/>
</linearGradient>
<linearGradient id="paint14_linear_6236_23307" x1="57.6624" y1="53.6397" x2="57.6624" y2="61.6506" gradientUnits="userSpaceOnUse">
<stop stop-color="#ED3040"/>
<stop offset="1" stop-color="#2D23F4"/>
</linearGradient>
<linearGradient id="paint15_linear_6236_23307" x1="57.6624" y1="53.6397" x2="57.6624" y2="61.6506" gradientUnits="userSpaceOnUse">
<stop stop-color="#ED3040"/>
<stop offset="1" stop-color="#2D23F4"/>
</linearGradient>
<linearGradient id="paint16_linear_6236_23307" x1="57.6624" y1="53.6397" x2="57.6624" y2="61.6506" gradientUnits="userSpaceOnUse">
<stop stop-color="#ED3040"/>
<stop offset="1" stop-color="#2D23F4"/>
</linearGradient>
<linearGradient id="paint17_linear_6236_23307" x1="137.662" y1="53.6397" x2="137.662" y2="61.6506" gradientUnits="userSpaceOnUse">
<stop stop-color="#ED3040"/>
<stop offset="1" stop-color="#2D23F4"/>
</linearGradient>
<linearGradient id="paint18_linear_6236_23307" x1="217.662" y1="53.6397" x2="217.662" y2="61.6506" gradientUnits="userSpaceOnUse">
<stop stop-color="#ED3040"/>
<stop offset="1" stop-color="#2D23F4"/>
</linearGradient>
<linearGradient id="paint19_linear_6236_23307" x1="297.662" y1="52.3437" x2="297.662" y2="59.153" gradientUnits="userSpaceOnUse">
<stop stop-color="#ED3040"/>
<stop offset="1" stop-color="#2D23F4"/>
</linearGradient>
<linearGradient id="paint20_linear_6236_23307" x1="297.662" y1="52.3437" x2="297.662" y2="59.153" gradientUnits="userSpaceOnUse">
<stop stop-color="#ED3040"/>
<stop offset="1" stop-color="#2D23F4"/>
</linearGradient>
<linearGradient id="paint21_linear_6236_23307" x1="297.662" y1="52.3437" x2="297.662" y2="59.153" gradientUnits="userSpaceOnUse">
<stop stop-color="#ED3040"/>
<stop offset="1" stop-color="#2D23F4"/>
</linearGradient>
<linearGradient id="paint22_linear_6236_23307" x1="297.662" y1="52.3437" x2="297.662" y2="59.153" gradientUnits="userSpaceOnUse">
<stop stop-color="#ED3040"/>
<stop offset="1" stop-color="#2D23F4"/>
</linearGradient>
<linearGradient id="paint23_linear_6236_23307" x1="297.662" y1="52.3437" x2="297.662" y2="59.153" gradientUnits="userSpaceOnUse">
<stop stop-color="#ED3040"/>
<stop offset="1" stop-color="#2D23F4"/>
</linearGradient>
<linearGradient id="paint24_linear_6236_23307" x1="297.662" y1="52.3437" x2="297.662" y2="59.153" gradientUnits="userSpaceOnUse">
<stop stop-color="#ED3040"/>
<stop offset="1" stop-color="#2D23F4"/>
</linearGradient>
<linearGradient id="paint25_linear_6236_23307" x1="297.662" y1="52.3437" x2="297.662" y2="59.153" gradientUnits="userSpaceOnUse">
<stop stop-color="#ED3040"/>
<stop offset="1" stop-color="#2D23F4"/>
</linearGradient>
<linearGradient id="paint26_linear_6236_23307" x1="297.662" y1="52.3437" x2="297.662" y2="59.153" gradientUnits="userSpaceOnUse">
<stop stop-color="#ED3040"/>
<stop offset="1" stop-color="#2D23F4"/>
</linearGradient>
<linearGradient id="paint27_linear_6236_23307" x1="297.662" y1="52.3437" x2="297.662" y2="59.153" gradientUnits="userSpaceOnUse">
<stop stop-color="#ED3040"/>
<stop offset="1" stop-color="#2D23F4"/>
</linearGradient>
<linearGradient id="paint28_linear_6236_23307" x1="297.662" y1="52.3437" x2="297.662" y2="59.153" gradientUnits="userSpaceOnUse">
<stop stop-color="#ED3040"/>
<stop offset="1" stop-color="#2D23F4"/>
</linearGradient>
<linearGradient id="paint29_linear_6236_23307" x1="297.662" y1="52.3437" x2="297.662" y2="59.153" gradientUnits="userSpaceOnUse">
<stop stop-color="#ED3040"/>
<stop offset="1" stop-color="#2D23F4"/>
</linearGradient>
<linearGradient id="paint30_linear_6236_23307" x1="297.662" y1="52.3437" x2="297.662" y2="59.153" gradientUnits="userSpaceOnUse">
<stop stop-color="#ED3040"/>
<stop offset="1" stop-color="#2D23F4"/>
</linearGradient>
<linearGradient id="paint31_linear_6236_23307" x1="297.662" y1="52.3437" x2="297.662" y2="59.153" gradientUnits="userSpaceOnUse">
<stop stop-color="#ED3040"/>
<stop offset="1" stop-color="#2D23F4"/>
</linearGradient>
<linearGradient id="paint32_linear_6236_23307" x1="297.662" y1="52.3437" x2="297.662" y2="59.153" gradientUnits="userSpaceOnUse">
<stop stop-color="#ED3040"/>
<stop offset="1" stop-color="#2D23F4"/>
</linearGradient>
<linearGradient id="paint33_linear_6236_23307" x1="297.662" y1="52.3437" x2="297.662" y2="59.153" gradientUnits="userSpaceOnUse">
<stop stop-color="#ED3040"/>
<stop offset="1" stop-color="#2D23F4"/>
</linearGradient>
<linearGradient id="paint34_linear_6236_23307" x1="297.662" y1="52.3437" x2="297.662" y2="59.153" gradientUnits="userSpaceOnUse">
<stop stop-color="#ED3040"/>
<stop offset="1" stop-color="#2D23F4"/>
</linearGradient>
<linearGradient id="paint35_linear_6236_23307" x1="297.662" y1="52.3437" x2="297.662" y2="59.153" gradientUnits="userSpaceOnUse">
<stop stop-color="#ED3040"/>
<stop offset="1" stop-color="#2D23F4"/>
</linearGradient>
<linearGradient id="paint36_linear_6236_23307" x1="297.662" y1="52.3437" x2="297.662" y2="59.153" gradientUnits="userSpaceOnUse">
<stop stop-color="#ED3040"/>
<stop offset="1" stop-color="#2D23F4"/>
</linearGradient>
<linearGradient id="paint37_linear_6236_23307" x1="297.662" y1="52.3437" x2="297.662" y2="59.153" gradientUnits="userSpaceOnUse">
<stop stop-color="#ED3040"/>
<stop offset="1" stop-color="#2D23F4"/>
</linearGradient>
<linearGradient id="paint38_linear_6236_23307" x1="297.662" y1="52.3437" x2="297.662" y2="59.153" gradientUnits="userSpaceOnUse">
<stop stop-color="#ED3040"/>
<stop offset="1" stop-color="#2D23F4"/>
</linearGradient>
<linearGradient id="paint39_linear_6236_23307" x1="297.662" y1="52.3437" x2="297.662" y2="59.153" gradientUnits="userSpaceOnUse">
<stop stop-color="#ED3040"/>
<stop offset="1" stop-color="#2D23F4"/>
</linearGradient>
<linearGradient id="paint40_linear_6236_23307" x1="377.662" y1="53.4237" x2="377.662" y2="61.2343" gradientUnits="userSpaceOnUse">
<stop stop-color="#ED3040"/>
<stop offset="1" stop-color="#2D23F4"/>
</linearGradient>
<linearGradient id="paint41_linear_6236_23307" x1="377.662" y1="53.4237" x2="377.662" y2="61.2343" gradientUnits="userSpaceOnUse">
<stop stop-color="#ED3040"/>
<stop offset="1" stop-color="#2D23F4"/>
</linearGradient>
<linearGradient id="paint42_linear_6236_23307" x1="377.662" y1="53.4237" x2="377.662" y2="61.2343" gradientUnits="userSpaceOnUse">
<stop stop-color="#ED3040"/>
<stop offset="1" stop-color="#2D23F4"/>
</linearGradient>
<linearGradient id="paint43_linear_6236_23307" x1="377.662" y1="53.4237" x2="377.662" y2="61.2343" gradientUnits="userSpaceOnUse">
<stop stop-color="#ED3040"/>
<stop offset="1" stop-color="#2D23F4"/>
</linearGradient>
<linearGradient id="paint44_linear_6236_23307" x1="377.662" y1="53.4237" x2="377.662" y2="61.2343" gradientUnits="userSpaceOnUse">
<stop stop-color="#ED3040"/>
<stop offset="1" stop-color="#2D23F4"/>
</linearGradient>
<linearGradient id="paint45_linear_6236_23307" x1="377.662" y1="53.4237" x2="377.662" y2="61.2343" gradientUnits="userSpaceOnUse">
<stop stop-color="#ED3040"/>
<stop offset="1" stop-color="#2D23F4"/>
</linearGradient>
<linearGradient id="paint46_linear_6236_23307" x1="457.662" y1="53.6397" x2="457.662" y2="61.6506" gradientUnits="userSpaceOnUse">
<stop stop-color="#ED3040"/>
<stop offset="1" stop-color="#2D23F4"/>
</linearGradient>
<linearGradient id="paint47_linear_6236_23307" x1="457.662" y1="53.6397" x2="457.662" y2="61.6506" gradientUnits="userSpaceOnUse">
<stop stop-color="#ED3040"/>
<stop offset="1" stop-color="#2D23F4"/>
</linearGradient>
<linearGradient id="paint48_linear_6236_23307" x1="457.662" y1="53.6397" x2="457.662" y2="61.6506" gradientUnits="userSpaceOnUse">
<stop stop-color="#ED3040"/>
<stop offset="1" stop-color="#2D23F4"/>
</linearGradient>
<linearGradient id="paint49_linear_6236_23307" x1="457.662" y1="53.6397" x2="457.662" y2="61.6506" gradientUnits="userSpaceOnUse">
<stop stop-color="#ED3040"/>
<stop offset="1" stop-color="#2D23F4"/>
</linearGradient>
<linearGradient id="paint50_linear_6236_23307" x1="457.662" y1="53.6397" x2="457.662" y2="61.6506" gradientUnits="userSpaceOnUse">
<stop stop-color="#ED3040"/>
<stop offset="1" stop-color="#2D23F4"/>
</linearGradient>
<linearGradient id="paint51_linear_6236_23307" x1="457.662" y1="53.6397" x2="457.662" y2="61.6506" gradientUnits="userSpaceOnUse">
<stop stop-color="#ED3040"/>
<stop offset="1" stop-color="#2D23F4"/>
</linearGradient>
<linearGradient id="paint52_linear_6236_23307" x1="457.662" y1="53.6397" x2="457.662" y2="61.6506" gradientUnits="userSpaceOnUse">
<stop stop-color="#ED3040"/>
<stop offset="1" stop-color="#2D23F4"/>
</linearGradient>
<linearGradient id="paint53_linear_6236_23307" x1="57.6624" y1="133.64" x2="57.6624" y2="141.651" gradientUnits="userSpaceOnUse">
<stop stop-color="#ED3040"/>
<stop offset="1" stop-color="#2D23F4"/>
</linearGradient>
<linearGradient id="paint54_linear_6236_23307" x1="137.662" y1="133.64" x2="137.662" y2="141.651" gradientUnits="userSpaceOnUse">
<stop stop-color="#ED3040"/>
<stop offset="1" stop-color="#2D23F4"/>
</linearGradient>
<linearGradient id="paint55_linear_6236_23307" x1="217.662" y1="133.64" x2="217.662" y2="141.651" gradientUnits="userSpaceOnUse">
<stop stop-color="#ED3040"/>
<stop offset="1" stop-color="#2D23F4"/>
</linearGradient>
<linearGradient id="paint56_linear_6236_23307" x1="217.662" y1="133.64" x2="217.662" y2="141.651" gradientUnits="userSpaceOnUse">
<stop stop-color="#ED3040"/>
<stop offset="1" stop-color="#2D23F4"/>
</linearGradient>
<linearGradient id="paint57_linear_6236_23307" x1="217.662" y1="133.64" x2="217.662" y2="141.651" gradientUnits="userSpaceOnUse">
<stop stop-color="#ED3040"/>
<stop offset="1" stop-color="#2D23F4"/>
</linearGradient>
<linearGradient id="paint58_linear_6236_23307" x1="217.662" y1="133.64" x2="217.662" y2="141.651" gradientUnits="userSpaceOnUse">
<stop stop-color="#ED3040"/>
<stop offset="1" stop-color="#2D23F4"/>
</linearGradient>
<linearGradient id="paint59_linear_6236_23307" x1="217.662" y1="133.64" x2="217.662" y2="141.651" gradientUnits="userSpaceOnUse">
<stop stop-color="#ED3040"/>
<stop offset="1" stop-color="#2D23F4"/>
</linearGradient>
<linearGradient id="paint60_linear_6236_23307" x1="217.662" y1="133.64" x2="217.662" y2="141.651" gradientUnits="userSpaceOnUse">
<stop stop-color="#ED3040"/>
<stop offset="1" stop-color="#2D23F4"/>
</linearGradient>
<linearGradient id="paint61_linear_6236_23307" x1="297.662" y1="133.424" x2="297.662" y2="141.234" gradientUnits="userSpaceOnUse">
<stop stop-color="#ED3040"/>
<stop offset="1" stop-color="#2D23F4"/>
</linearGradient>
<linearGradient id="paint62_linear_6236_23307" x1="297.662" y1="133.424" x2="297.662" y2="141.234" gradientUnits="userSpaceOnUse">
<stop stop-color="#ED3040"/>
<stop offset="1" stop-color="#2D23F4"/>
</linearGradient>
<linearGradient id="paint63_linear_6236_23307" x1="297.662" y1="133.424" x2="297.662" y2="141.234" gradientUnits="userSpaceOnUse">
<stop stop-color="#ED3040"/>
<stop offset="1" stop-color="#2D23F4"/>
</linearGradient>
<linearGradient id="paint64_linear_6236_23307" x1="297.662" y1="133.424" x2="297.662" y2="141.234" gradientUnits="userSpaceOnUse">
<stop stop-color="#ED3040"/>
<stop offset="1" stop-color="#2D23F4"/>
</linearGradient>
<linearGradient id="paint65_linear_6236_23307" x1="297.662" y1="133.424" x2="297.662" y2="141.234" gradientUnits="userSpaceOnUse">
<stop stop-color="#ED3040"/>
<stop offset="1" stop-color="#2D23F4"/>
</linearGradient>
</defs>
</svg>
