<svg width="132" height="124" viewBox="0 0 132 124" fill="none" xmlns="http://www.w3.org/2000/svg">
<mask id="mask0_344_489" style="mask-type:alpha" maskUnits="userSpaceOnUse" x="0" y="0" width="132" height="124">
<rect x="0.96875" width="130.658" height="124" rx="33" fill="white"/>
<rect x="1.46875" y="0.5" width="129.658" height="123" rx="32.5" stroke="#1E417C" stroke-opacity="0.2"/>
</mask>
<g mask="url(#mask0_344_489)">
<path fill-rule="evenodd" clip-rule="evenodd" d="M-27.3281 0H208.667V9.54219H-27.3281V0ZM-27.3281 19.0844H208.667V28.6266H-27.3281V19.0844ZM-27.3281 38.1445H208.667V47.7109H-27.3281V38.1445ZM-27.3281 57.2289H208.667V66.7711H-27.3281V57.2289ZM-27.3281 76.3133H208.667V85.8555H-27.3281V76.3133ZM-27.3281 95.3734H208.667V104.916H-27.3281V95.3734ZM-27.3281 114.458H208.667V124H-27.3281V114.458Z" fill="#BD3D44"/>
<path fill-rule="evenodd" clip-rule="evenodd" d="M-27.3281 9.54219H208.667V19.0844H-27.3281V9.54219ZM-27.3281 28.6266H208.667V38.1445H-27.3281V28.6266ZM-27.3281 47.6867H208.667V57.2289H-27.3281V47.6867ZM-27.3281 66.7711H208.667V76.3133H-27.3281V66.7711ZM-27.3281 85.8555H208.667V95.3977H-27.3281V85.8555ZM-27.3281 104.916H208.667V114.458H-27.3281V104.916Z" fill="white"/>
<path fill-rule="evenodd" clip-rule="evenodd" d="M-27.3281 0H67.0651V66.7711H-27.3281V0Z" fill="#192F5D"/>
<path fill-rule="evenodd" clip-rule="evenodd" d="M-19.4681 2.85781L-18.5947 5.49766H-15.8292L-18.061 7.12031L-17.212 9.78438L-19.4681 8.1375L-21.6999 9.76016L-20.8509 7.12031L-23.107 5.49766H-20.2929L-19.4681 2.85781ZM-3.72374 2.85781L-2.87466 5.49766H-0.084831L-2.34096 7.12031L-1.49188 9.78438L-3.72374 8.1375L-5.97986 9.76016L-5.13079 7.12031L-7.36265 5.49766H-4.59708L-3.72374 2.85781ZM11.9963 2.85781L12.8697 5.49766H15.611L13.3791 7.12031L14.2282 9.78438L11.9721 8.1375L9.74022 9.76016L10.5893 7.12031L8.33318 5.49766H11.123L11.9963 2.85781ZM27.7407 2.85781L28.5898 5.49766H31.3796L29.1235 7.12031L29.9968 9.78438L27.7407 8.1375L25.4846 9.76016L26.3579 7.12031L24.1018 5.49766H26.8673L27.7407 2.85781ZM43.4608 2.85781L44.3341 5.49766H47.0997L44.8678 7.12031L45.7169 9.78438L43.4608 8.1375L41.2289 9.76016L42.078 7.12031L39.8461 5.49766H42.6117L43.4608 2.85781ZM59.2051 2.85781L60.0542 5.49766H62.844L60.5879 7.12031L61.4612 9.78438L59.2051 8.1375L56.949 9.76016L57.8223 7.12031L55.5662 5.49766H58.356L59.2051 2.85781ZM-11.5838 9.54219L-10.7347 12.182H-7.94487L-10.201 13.8047L-9.37618 16.4445L-11.5595 14.8219L-13.8156 16.4445L-13.0151 13.8047L-15.1984 12.182H-12.4329L-11.5838 9.54219ZM4.1363 9.54219L5.00964 12.182H7.77521L5.51909 13.8047L6.39242 16.4445L4.1363 14.8219L1.88018 16.4445L2.75352 13.8047L0.497393 12.182H3.28722L4.1363 9.54219ZM19.8806 9.54219L20.7297 12.182H23.5196L21.2634 13.8047L22.1125 16.4445L19.8806 14.8219L17.6245 16.4445L18.4736 13.8047L16.2417 12.182H19.0073L19.8806 9.54219ZM35.6007 9.54219L36.4741 12.182H39.2396L36.9835 13.8047L37.8569 16.4445L35.6007 14.8219L33.3689 16.4445L34.2179 13.8047L31.9618 12.182H34.7759L35.6007 9.54219ZM51.3451 9.54219L52.1941 12.182H54.984L52.7279 13.8047L53.5769 16.4445L51.3451 14.8219L49.0889 16.4445L49.938 13.8047L47.7062 12.182H50.4717L51.3451 9.54219ZM-19.4681 16.2023L-18.5947 18.8906H-15.8292L-18.061 20.5133L-17.212 23.1531L-19.4681 21.5062L-21.6999 23.1531L-20.8509 20.4891L-23.107 18.8664H-20.2929L-19.4681 16.2023ZM-3.72374 16.2023L-2.87466 18.8664H-0.084831L-2.34096 20.4891L-1.49188 23.1289L-3.72374 21.482L-5.97986 23.1289L-5.13079 20.4648L-7.36265 18.8422H-4.59708L-3.72374 16.2023ZM11.9963 16.2023L12.8697 18.8664H15.611L13.3791 20.4891L14.2282 23.1289L11.9721 21.482L9.74022 23.1289L10.5893 20.4648L8.33318 18.8422H11.123L11.9963 16.2023ZM27.7407 16.2023L28.5898 18.8664H31.3796L29.1235 20.4891L29.9968 23.1289L27.7407 21.482L25.4846 23.1289L26.3579 20.4648L24.1018 18.8422H26.8673L27.7407 16.2023ZM43.4608 16.2023L44.3341 18.8664H47.0997L44.8678 20.4891L45.7169 23.1289L43.4608 21.482L41.2289 23.1289L42.078 20.4648L39.8461 18.8422H42.6117L43.4608 16.2023ZM59.2051 16.2023L60.0542 18.8664H62.844L60.5879 20.4891L61.4612 23.1289L59.2051 21.482L56.949 23.1289L57.8223 20.4648L55.5662 18.8422H58.356L59.2051 16.2023ZM-11.5838 22.8867L-10.7347 25.5266H-7.94487L-10.201 27.1492L-9.35192 29.8133L-11.5838 28.1664L-13.8399 29.7891L-12.9908 27.1492L-15.2227 25.5266H-12.4571L-11.5838 22.8867ZM4.1363 22.8867L5.00964 25.5266H7.77521L5.51909 27.1492L6.39242 29.8133L4.1363 28.1664L1.88018 29.7891L2.75352 27.1492L0.497393 25.5266H3.28722L4.1363 22.8867ZM19.8806 22.8867L20.7297 25.5266H23.5196L21.2634 27.1492L22.1125 29.8133L19.8806 28.1664L17.6245 29.7891L18.4736 27.1492L16.2417 25.5266H19.0073L19.8806 22.8867ZM35.6007 22.8867L36.4741 25.5266H39.2396L37.0078 27.1492L37.8569 29.8133L35.6007 28.1664L33.3689 29.7891L34.2179 27.1492L31.9618 25.5266H34.7759L35.6007 22.8867ZM51.3451 22.8867L52.1941 25.5266H54.984L52.7279 27.1492L53.5769 29.8133L51.3451 28.1664L49.0889 29.7891L49.938 27.1492L47.7062 25.5266H50.4717L51.3451 22.8867ZM-19.4681 29.5711L-18.5947 32.2109H-15.8292L-18.061 33.8336L-17.212 36.4977L-19.4681 34.8508L-21.6999 36.4734L-20.8509 33.8336L-23.107 32.2109H-20.2929L-19.4681 29.5711ZM-3.72374 29.5711L-2.87466 32.2109H-0.084831L-2.34096 33.8336L-1.49188 36.4734L-3.72374 34.8508L-5.97986 36.4734L-5.13079 33.8336L-7.36265 32.2109H-4.59708L-3.72374 29.5711ZM11.9963 29.5711L12.8697 32.2109H15.611L13.3791 33.8336L14.2282 36.4977L11.9721 34.8508L9.74022 36.4734L10.5893 33.8336L8.33318 32.2109H11.123L11.9963 29.5711ZM27.7407 29.5711L28.5898 32.2109H31.3796L29.1235 33.8336L29.9968 36.4977L27.7407 34.8508L25.4846 36.4734L26.3579 33.8336L24.1018 32.2109H26.8673L27.7407 29.5711ZM43.4608 29.5711L44.3341 32.2109H47.0997L44.8678 33.8336L45.7169 36.4977L43.4608 34.8508L41.2289 36.4734L42.078 33.8336L39.8461 32.2109H42.6117L43.4608 29.5711ZM59.2051 29.5711L60.0542 32.2109H62.844L60.5879 33.8336L61.4612 36.4977L59.2051 34.8508L56.949 36.4734L57.8223 33.8336L55.5662 32.2109H58.356L59.2051 29.5711ZM-11.5838 36.2555L-10.7347 38.8953H-7.94487L-10.201 40.518L-9.35192 43.1578L-11.5838 41.5109L-13.8399 43.1578L-12.9908 40.4937L-15.2227 38.8711H-12.4571L-11.5838 36.2555ZM4.1363 36.2555L5.00964 38.8953H7.77521L5.51909 40.518L6.39242 43.1578L4.1363 41.5109L1.88018 43.1578L2.75352 40.4937L0.497393 38.8711H3.28722L4.1363 36.2555ZM19.8806 36.2555L20.7297 38.8953H23.5196L21.2634 40.518L22.1125 43.1578L19.8806 41.5109L17.6245 43.1578L18.4736 40.4937L16.2417 38.8711H19.0073L19.8806 36.2555ZM35.6007 36.2555L36.4741 38.8953H39.2396L37.0078 40.518L37.8569 43.1578L35.6007 41.5109L33.3689 43.1578L34.2179 40.4937L31.9618 38.8711H34.7759L35.6007 36.2555ZM51.3451 36.2555L52.1941 38.8953H54.984L52.7279 40.518L53.5769 43.1578L51.3451 41.5109L49.0889 43.1578L49.938 40.4937L47.7062 38.8711H50.4717L51.3451 36.2555ZM-19.4681 42.9156L-18.5947 45.5797H-15.8292L-18.061 47.2023L-17.212 49.818L-19.4681 48.1953L-21.6999 49.818L-20.8509 47.1781L-23.107 45.5555H-20.2929L-19.4681 42.9156ZM-3.72374 42.9156L-2.87466 45.5797H-0.084831L-2.34096 47.2023L-1.46762 49.818L-3.72374 48.1953L-5.97986 49.818L-5.10653 47.1781L-7.36265 45.5555H-4.59708L-3.72374 42.9156ZM11.9963 42.9156L12.8697 45.5797H15.611L13.3791 47.2023L14.2282 49.818L11.9721 48.1953L9.74022 49.818L10.5893 47.1781L8.33318 45.5555H11.123L11.9963 42.9156ZM27.7407 42.9156L28.5898 45.5797H31.3796L29.1235 47.2023L29.9968 49.818L27.7407 48.1953L25.4846 49.818L26.3579 47.1781L24.1018 45.5555H26.8673L27.7407 42.9156ZM43.4608 42.9156L44.3341 45.5797H47.0997L44.8678 47.2023L45.7169 49.818L43.4608 48.1953L41.2289 49.818L42.078 47.1781L39.8461 45.5555H42.6117L43.4608 42.9156ZM59.2051 42.9156L60.0542 45.5797H62.844L60.5879 47.2023L61.4612 49.818L59.2051 48.1953L56.949 49.818L57.8223 47.1781L55.5662 45.5555H58.356L59.2051 42.9156ZM-11.5838 49.6L-10.7347 52.2398H-7.94487L-10.201 53.8625L-9.35192 56.5266L-11.5838 54.8797L-13.8399 56.5023L-12.9908 53.8625L-15.2227 52.2398H-12.4571L-11.5838 49.6ZM4.1363 49.6L5.00964 52.2398H7.77521L5.51909 53.8625L6.39242 56.5266L4.1363 54.8797L1.88018 56.5023L2.75352 53.8625L0.497393 52.2398H3.28722L4.1363 49.6ZM19.8806 49.6L20.7297 52.2398H23.5196L21.2634 53.8625L22.1125 56.5266L19.8806 54.8797L17.6245 56.5023L18.4736 53.8625L16.2417 52.2398H19.0073L19.8806 49.6ZM35.6007 49.6L36.4741 52.2398H39.2396L37.0078 53.8625L37.8569 56.5266L35.6007 54.8797L33.3689 56.5023L34.2179 53.8625L31.9618 52.2398H34.7759L35.6007 49.6ZM51.3451 49.6L52.1941 52.2398H54.984L52.7279 53.8625L53.5769 56.5266L51.3451 54.8797L49.0889 56.5023L49.938 53.8625L47.7062 52.2398H50.4717L51.3451 49.6ZM-19.4681 56.2844L-18.5947 58.9242H-15.8292L-18.061 60.5469L-17.212 63.1867L-19.4681 61.5641L-21.6999 63.1867L-20.8509 60.5226L-23.107 58.9H-20.2929L-19.4681 56.2844ZM-3.72374 56.2844L-2.87466 58.9242H-0.084831L-2.34096 60.5469L-1.46762 63.1867L-3.72374 61.5641L-5.97986 63.1867L-5.10653 60.5226L-7.36265 58.9H-4.59708L-3.72374 56.2844ZM11.9963 56.2844L12.8697 58.9242H15.611L13.4276 60.5469L14.2767 63.1867L12.0206 61.5641L9.78874 63.1867L10.6378 60.5226L8.38169 58.9H11.1715L11.9963 56.2844ZM27.7407 56.2844L28.5898 58.9242H31.3796L29.1235 60.5469L29.9968 63.1867L27.7407 61.5641L25.4846 63.1867L26.3579 60.5226L24.1018 58.9H26.8673L27.7407 56.2844ZM43.4608 56.2844L44.3341 58.9242H47.0997L44.8678 60.5469L45.7169 63.1867L43.4608 61.5641L41.2289 63.1867L42.078 60.5226L39.8461 58.9H42.6117L43.4608 56.2844ZM59.2051 56.2844L60.0542 58.9242H62.844L60.5879 60.5469L61.4612 63.1867L59.2051 61.5641L56.949 63.1867L57.8223 60.5226L55.5662 58.9H58.356L59.2051 56.2844Z" fill="white"/>
</g>
</svg>
