<svg width="131" height="124" viewBox="0 0 131 124" fill="none" xmlns="http://www.w3.org/2000/svg">
<mask id="mask0_344_498" style="mask-type:alpha" maskUnits="userSpaceOnUse" x="0" y="0" width="131" height="124">
<rect x="0.3125" width="130.658" height="124" rx="33" fill="white"/>
<rect x="0.8125" y="0.5" width="129.658" height="123" rx="32.5" stroke="#1E417C" stroke-opacity="0.2"/>
</mask>
<g mask="url(#mask0_344_498)">
<path d="M-6.34375 -9.98633H137.629V133.987H-6.34375V-9.98633Z" fill="#012169"/>
<path d="M137.629 -9.98633V8.01032L84.2019 62.0003L137.629 114.584V133.987H118.789L65.0804 81.1217L12.7777 133.987H-6.34375V114.865L45.959 62.2814L-6.34375 10.8223V-9.98633H11.0905L65.0804 42.8788L117.383 -9.98633H137.629Z" fill="white"/>
<path d="M45.3966 81.1217L48.4898 90.6824L5.46655 133.987H-6.34375V133.143L45.3966 81.1217ZM80.2651 77.7473L95.4498 79.9969L137.629 121.333V133.987L80.2651 77.7473ZM137.629 -9.98633L83.6395 45.1284L82.5147 32.7557L124.694 -9.98633H137.629ZM-6.34375 -9.70513L47.9274 43.4412L31.3367 41.1916L-6.34375 3.79235V-9.70513Z" fill="#C8102E"/>
<path d="M43.147 -9.98633V133.987H88.1386V-9.98633H43.147ZM-6.34375 39.5044V84.4961H137.629V39.5044H-6.34375Z" fill="white"/>
<path d="M-6.34375 48.5028V75.4977H137.629V48.5028H-6.34375ZM52.1453 -9.98633V133.987H79.1403V-9.98633H52.1453Z" fill="#C8102E"/>
</g>
</svg>
