<svg width="437" height="437" viewBox="0 0 437 437" fill="none" xmlns="http://www.w3.org/2000/svg">
<mask id="mask0_58711_36591" style="mask-type:luminance" maskUnits="userSpaceOnUse" x="0" y="0" width="437" height="437">
<path d="M0 0H436.786V436.786H0V0Z" fill="white"/>
</mask>
<g mask="url(#mask0_58711_36591)">
<mask id="mask1_58711_36591" style="mask-type:luminance" maskUnits="userSpaceOnUse" x="0" y="0" width="437" height="437">
<path d="M0 99.9531V336.432C0 391.635 44.75 436.385 99.9531 436.385H336.432C391.635 436.385 436.385 391.635 436.385 336.432V99.9531C436.385 44.75 391.635 0 336.432 0H99.9531C44.75 0 0 44.75 0 99.9531Z" fill="white"/>
</mask>
<g mask="url(#mask1_58711_36591)">
<mask id="mask2_58711_36591" style="mask-type:luminance" maskUnits="userSpaceOnUse" x="0" y="0" width="437" height="437">
<path d="M0 327.589V109.198C0 105.62 0.177083 102.052 0.526042 98.4948C0.874999 94.9375 1.40104 91.401 2.09896 87.8958C2.79687 84.3854 3.66667 80.9219 4.70313 77.5C5.73958 74.0781 6.94271 70.7135 8.3125 67.4115C9.68229 64.1042 11.2083 60.875 12.8958 57.724C14.5781 54.5677 16.4167 51.5052 18.401 48.5313C20.3906 45.5573 22.5208 42.6875 24.7865 39.9219C27.0573 37.1615 29.4531 34.5156 31.9844 31.9844C34.5104 29.4531 37.1615 27.0573 39.9219 24.7865C42.6875 22.5208 45.5573 20.3906 48.5313 18.4063C51.5052 16.4167 54.5677 14.5833 57.724 12.8958C60.875 11.2083 64.1042 9.68229 67.4115 8.3125C70.7135 6.94271 74.0781 5.73958 77.5 4.70313C80.9219 3.66667 84.3854 2.79687 87.8958 2.09896C91.401 1.40104 94.9323 0.880208 98.4948 0.526042C102.052 0.177083 105.62 0 109.198 0H327.589C331.167 0 334.734 0.177083 338.292 0.526042C341.849 0.880208 345.385 1.40104 348.891 2.09896C352.401 2.79687 355.865 3.66667 359.286 4.70313C362.708 5.73958 366.073 6.94271 369.375 8.3125C372.682 9.68229 375.911 11.2083 379.063 12.8958C382.219 14.5833 385.281 16.4167 388.255 18.4063C391.229 20.3906 394.099 22.5208 396.865 24.7865C399.625 27.0573 402.271 29.4531 404.802 31.9844C407.333 34.5156 409.729 37.1615 412 39.9219C414.266 42.6875 416.396 45.5573 418.38 48.5313C420.37 51.5052 422.203 54.5677 423.891 57.724C425.578 60.875 427.104 64.1042 428.474 67.4115C429.844 70.7135 431.047 74.0781 432.083 77.5C433.12 80.9219 433.99 84.3854 434.688 87.8958C435.385 91.401 435.906 94.9375 436.26 98.4948C436.609 102.052 436.786 105.62 436.786 109.198V327.589C436.786 331.167 436.609 334.734 436.26 338.292C435.906 341.854 435.385 345.385 434.688 348.891C433.99 352.401 433.12 355.865 432.083 359.286C431.047 362.708 429.844 366.073 428.474 369.375C427.104 372.682 425.578 375.911 423.891 379.063C422.203 382.219 420.37 385.281 418.38 388.255C416.396 391.229 414.266 394.099 412 396.865C409.729 399.625 407.333 402.276 404.802 404.802C402.271 407.333 399.625 409.729 396.865 412C394.099 414.266 391.229 416.396 388.255 418.38C385.281 420.37 382.219 422.208 379.063 423.891C375.911 425.578 372.682 427.104 369.375 428.474C366.073 429.844 362.708 431.047 359.286 432.083C355.865 433.12 352.401 433.99 348.891 434.688C345.385 435.385 341.849 435.911 338.292 436.26C334.734 436.609 331.167 436.786 327.589 436.786H109.198C105.62 436.786 102.052 436.609 98.4948 436.26C94.9323 435.911 91.401 435.385 87.8958 434.688C84.3854 433.99 80.9219 433.12 77.5 432.083C74.0781 431.047 70.7135 429.844 67.4115 428.474C64.1042 427.104 60.875 425.578 57.724 423.891C54.5677 422.208 51.5052 420.37 48.5313 418.38C45.5573 416.396 42.6875 414.266 39.9219 412C37.1615 409.729 34.5104 407.333 31.9844 404.802C29.4531 402.276 27.0573 399.625 24.7865 396.865C22.5208 394.099 20.3906 391.229 18.401 388.255C16.4167 385.281 14.5781 382.219 12.8958 379.063C11.2083 375.911 9.68229 372.682 8.3125 369.375C6.94271 366.073 5.73958 362.708 4.70313 359.286C3.66667 355.865 2.79687 352.401 2.09896 348.891C1.40104 345.385 0.874999 341.854 0.526042 338.292C0.177083 334.734 0 331.167 0 327.589Z" fill="white"/>
</mask>
<g mask="url(#mask2_58711_36591)">
<path d="M0 0H436.786V436.786H0V0Z" fill="#FF0000"/>
</g>
</g>
</g>
<mask id="mask3_58711_36591" style="mask-type:luminance" maskUnits="userSpaceOnUse" x="107" y="0" width="221" height="437">
<path d="M107.871 0H327.871V436.786H107.871V0Z" fill="white"/>
</mask>
<g mask="url(#mask3_58711_36591)">
<mask id="mask4_58711_36591" style="mask-type:luminance" maskUnits="userSpaceOnUse" x="0" y="0" width="437" height="437">
<path d="M0.00195312 99.9531V336.432C0.00195312 391.635 44.752 436.385 99.9551 436.385H336.434C391.637 436.385 436.387 391.635 436.387 336.432V99.9531C436.387 44.75 391.637 0 336.434 0H99.9551C44.752 0 0.00195312 44.75 0.00195312 99.9531Z" fill="white"/>
</mask>
<g mask="url(#mask4_58711_36591)">
<mask id="mask5_58711_36591" style="mask-type:luminance" maskUnits="userSpaceOnUse" x="0" y="0" width="437" height="437">
<path d="M0.00195312 327.589V109.198C0.00195312 105.62 0.179036 102.052 0.527995 98.4948C0.876952 94.9375 1.403 91.401 2.10091 87.8958C2.79883 84.3854 3.66862 80.9219 4.70508 77.5C5.74154 74.0781 6.94466 70.7135 8.31445 67.4115C9.68425 64.1042 11.2103 60.875 12.8978 57.724C14.5801 54.5677 16.4186 51.5052 18.403 48.5313C20.3926 45.5573 22.5228 42.6875 24.7884 39.9219C27.0592 37.1615 29.4551 34.5156 31.9863 31.9844C34.5124 29.4531 37.1634 27.0573 39.9238 24.7865C42.6895 22.5208 45.5592 20.3906 48.5332 18.4063C51.5072 16.4167 54.5697 14.5833 57.7259 12.8958C60.877 11.2083 64.1061 9.68229 67.4134 8.3125C70.7155 6.94271 74.0801 5.73958 77.502 4.70313C80.9238 3.66667 84.3874 2.79687 87.8978 2.09896C91.403 1.40104 94.9342 0.880208 98.4967 0.526042C102.054 0.177083 105.622 0 109.2 0H327.591C331.169 0 334.736 0.177083 338.294 0.526042C341.851 0.880208 345.387 1.40104 348.893 2.09896C352.403 2.79687 355.867 3.66667 359.288 4.70313C362.71 5.73958 366.075 6.94271 369.377 8.3125C372.684 9.68229 375.913 11.2083 379.064 12.8958C382.221 14.5833 385.283 16.4167 388.257 18.4063C391.231 20.3906 394.101 22.5208 396.867 24.7865C399.627 27.0573 402.273 29.4531 404.804 31.9844C407.335 34.5156 409.731 37.1615 412.002 39.9219C414.268 42.6875 416.398 45.5573 418.382 48.5313C420.372 51.5052 422.205 54.5677 423.893 57.724C425.58 60.875 427.106 64.1042 428.476 67.4115C429.846 70.7135 431.049 74.0781 432.085 77.5C433.122 80.9219 433.992 84.3854 434.689 87.8958C435.387 91.401 435.908 94.9375 436.262 98.4948C436.611 102.052 436.788 105.62 436.788 109.198V327.589C436.788 331.167 436.611 334.734 436.262 338.292C435.908 341.854 435.387 345.385 434.689 348.891C433.992 352.401 433.122 355.865 432.085 359.286C431.049 362.708 429.846 366.073 428.476 369.375C427.106 372.682 425.58 375.911 423.893 379.063C422.205 382.219 420.372 385.281 418.382 388.255C416.398 391.229 414.268 394.099 412.002 396.865C409.731 399.625 407.335 402.276 404.804 404.802C402.273 407.333 399.627 409.729 396.867 412C394.101 414.266 391.231 416.396 388.257 418.38C385.283 420.37 382.221 422.208 379.064 423.891C375.913 425.578 372.684 427.104 369.377 428.474C366.075 429.844 362.71 431.047 359.288 432.083C355.867 433.12 352.403 433.99 348.893 434.688C345.387 435.385 341.851 435.911 338.294 436.26C334.736 436.609 331.169 436.786 327.591 436.786H109.2C105.622 436.786 102.054 436.609 98.4967 436.26C94.9342 435.911 91.403 435.385 87.8978 434.688C84.3874 433.99 80.9238 433.12 77.502 432.083C74.0801 431.047 70.7155 429.844 67.4134 428.474C64.1061 427.104 60.877 425.578 57.7259 423.891C54.5697 422.208 51.5072 420.37 48.5332 418.38C45.5592 416.396 42.6895 414.266 39.9238 412C37.1634 409.729 34.5124 407.333 31.9863 404.802C29.4551 402.276 27.0592 399.625 24.7884 396.865C22.5228 394.099 20.3926 391.229 18.403 388.255C16.4186 385.281 14.5801 382.219 12.8978 379.063C11.2103 375.911 9.68425 372.682 8.31445 369.375C6.94466 366.073 5.74154 362.708 4.70508 359.286C3.66862 355.865 2.79883 352.401 2.10091 348.891C1.403 345.385 0.876952 341.854 0.527995 338.292C0.179036 334.734 0.00195312 331.167 0.00195312 327.589Z" fill="white"/>
</mask>
<g mask="url(#mask5_58711_36591)">
<path d="M109.199 0H327.59V436.786H109.199V0Z" fill="white"/>
</g>
</g>
</g>
<mask id="mask6_58711_36591" style="mask-type:luminance" maskUnits="userSpaceOnUse" x="135" y="129" width="167" height="180">
<path d="M135.871 129.543H301.204V308.21H135.871V129.543Z" fill="white"/>
</mask>
<g mask="url(#mask6_58711_36591)">
<mask id="mask7_58711_36591" style="mask-type:luminance" maskUnits="userSpaceOnUse" x="0" y="0" width="437" height="437">
<path d="M0.00195312 99.9551V336.434C0.00195312 391.637 44.752 436.387 99.9551 436.387H336.434C391.637 436.387 436.387 391.637 436.387 336.434V99.9551C436.387 44.752 391.637 0.00195312 336.434 0.00195312H99.9551C44.752 0.00195312 0.00195312 44.752 0.00195312 99.9551Z" fill="white"/>
</mask>
<g mask="url(#mask7_58711_36591)">
<mask id="mask8_58711_36591" style="mask-type:luminance" maskUnits="userSpaceOnUse" x="0" y="0" width="437" height="437">
<path d="M0.00195312 327.591V109.2C0.00195312 105.622 0.179036 102.054 0.527995 98.4967C0.876952 94.9395 1.403 91.403 2.10091 87.8978C2.79883 84.3874 3.66862 80.9238 4.70508 77.502C5.74154 74.0801 6.94466 70.7155 8.31445 67.4134C9.68425 64.1061 11.2103 60.877 12.8978 57.7259C14.5801 54.5697 16.4186 51.5072 18.403 48.5332C20.3926 45.5592 22.5228 42.6895 24.7884 39.9238C27.0592 37.1634 29.4551 34.5176 31.9863 31.9863C34.5124 29.4551 37.1634 27.0592 39.9238 24.7884C42.6895 22.5228 45.5592 20.3926 48.5332 18.4082C51.5072 16.4186 54.5697 14.5853 57.7259 12.8978C60.877 11.2103 64.1061 9.68425 67.4134 8.31445C70.7155 6.94466 74.0801 5.74154 77.502 4.70508C80.9238 3.66862 84.3874 2.79883 87.8978 2.10091C91.403 1.40299 94.9342 0.882161 98.4967 0.527995C102.054 0.179036 105.622 0.00195312 109.2 0.00195312H327.591C331.169 0.00195312 334.736 0.179036 338.294 0.527995C341.851 0.882161 345.387 1.40299 348.893 2.10091C352.403 2.79883 355.867 3.66862 359.288 4.70508C362.71 5.74154 366.075 6.94466 369.377 8.31445C372.684 9.68425 375.913 11.2103 379.064 12.8978C382.221 14.5853 385.283 16.4186 388.257 18.4082C391.231 20.3926 394.101 22.5228 396.867 24.7884C399.627 27.0592 402.273 29.4551 404.804 31.9863C407.335 34.5176 409.731 37.1634 412.002 39.9238C414.268 42.6895 416.398 45.5592 418.382 48.5332C420.372 51.5072 422.205 54.5697 423.893 57.7259C425.58 60.877 427.106 64.1061 428.476 67.4134C429.846 70.7155 431.049 74.0801 432.085 77.502C433.122 80.9238 433.992 84.3874 434.689 87.8978C435.387 91.403 435.908 94.9395 436.262 98.4967C436.611 102.054 436.788 105.622 436.788 109.2V327.591C436.788 331.169 436.611 334.736 436.262 338.294C435.908 341.856 435.387 345.387 434.689 348.893C433.992 352.403 433.122 355.867 432.085 359.288C431.049 362.71 429.846 366.075 428.476 369.377C427.106 372.684 425.58 375.913 423.893 379.064C422.205 382.221 420.372 385.283 418.382 388.257C416.398 391.231 414.268 394.101 412.002 396.867C409.731 399.627 407.335 402.278 404.804 404.804C402.273 407.335 399.627 409.731 396.867 412.002C394.101 414.268 391.231 416.398 388.257 418.382C385.283 420.372 382.221 422.21 379.064 423.893C375.913 425.58 372.684 427.106 369.377 428.476C366.075 429.846 362.71 431.049 359.288 432.085C355.867 433.122 352.403 433.992 348.893 434.689C345.387 435.387 341.851 435.913 338.294 436.262C334.736 436.611 331.169 436.788 327.591 436.788H109.2C105.622 436.788 102.054 436.611 98.4967 436.262C94.9342 435.913 91.403 435.387 87.8978 434.689C84.3874 433.992 80.9238 433.122 77.502 432.085C74.0801 431.049 70.7155 429.846 67.4134 428.476C64.1061 427.106 60.877 425.58 57.7259 423.893C54.5697 422.21 51.5072 420.372 48.5332 418.382C45.5592 416.398 42.6895 414.268 39.9238 412.002C37.1634 409.731 34.5124 407.335 31.9863 404.804C29.4551 402.278 27.0592 399.627 24.7884 396.867C22.5228 394.101 20.3926 391.231 18.403 388.257C16.4186 385.283 14.5801 382.221 12.8978 379.064C11.2103 375.913 9.68425 372.684 8.31445 369.377C6.94466 366.075 5.74154 362.71 4.70508 359.288C3.66862 355.867 2.79883 352.403 2.10091 348.893C1.403 345.387 0.876952 341.856 0.527995 338.294C0.179036 334.736 0.00195312 331.169 0.00195312 327.591Z" fill="white"/>
</mask>
<g mask="url(#mask8_58711_36591)">
<path d="M258.908 254.102L300.293 220.581L291.012 216.211C290.689 216.07 290.402 215.872 290.158 215.622C289.908 215.367 289.715 215.081 289.569 214.758C289.428 214.435 289.35 214.102 289.335 213.747C289.319 213.393 289.366 213.055 289.48 212.716L297.668 187.602L273.757 192.628C273.439 192.69 273.121 192.701 272.798 192.659C272.475 192.612 272.173 192.513 271.882 192.367C271.595 192.216 271.34 192.023 271.121 191.789C270.897 191.549 270.72 191.284 270.59 190.987L265.892 180.07L247.329 200.049C247.121 200.294 246.882 200.492 246.605 200.654C246.329 200.815 246.038 200.924 245.725 200.987C245.413 201.049 245.1 201.055 244.783 201.013C244.47 200.966 244.168 200.872 243.887 200.727C243.605 200.586 243.35 200.398 243.132 200.164C242.908 199.935 242.736 199.68 242.6 199.388C242.465 199.102 242.387 198.794 242.355 198.482C242.324 198.164 242.345 197.852 242.418 197.539L251.371 151.242L237.069 159.539C236.725 159.747 236.355 159.878 235.954 159.93C235.559 159.982 235.163 159.951 234.777 159.836C234.392 159.721 234.048 159.534 233.746 159.273C233.439 159.013 233.199 158.701 233.027 158.336L218.392 129.727L203.762 158.336C203.59 158.701 203.35 159.013 203.043 159.273C202.741 159.534 202.392 159.721 202.007 159.836C201.621 159.951 201.23 159.982 200.835 159.93C200.434 159.878 200.064 159.747 199.72 159.539L185.418 151.242L194.371 197.539C194.444 197.852 194.465 198.164 194.434 198.482C194.402 198.794 194.319 199.102 194.189 199.388C194.053 199.68 193.876 199.935 193.658 200.164C193.439 200.398 193.184 200.581 192.902 200.727C192.616 200.872 192.319 200.966 192.001 201.013C191.689 201.055 191.376 201.049 191.064 200.987C190.751 200.924 190.454 200.815 190.184 200.654C189.908 200.492 189.663 200.294 189.46 200.049L170.892 180.07L166.199 190.987C166.069 191.284 165.892 191.549 165.668 191.789C165.449 192.023 165.194 192.216 164.902 192.367C164.616 192.513 164.314 192.612 163.991 192.659C163.668 192.701 163.35 192.69 163.033 192.628L139.116 187.602L147.309 212.716C147.418 213.055 147.47 213.393 147.454 213.747C147.439 214.102 147.361 214.435 147.215 214.758C147.074 215.081 146.882 215.367 146.632 215.622C146.387 215.872 146.1 216.07 145.777 216.211L136.496 220.581L177.882 254.102C178.35 254.508 178.678 255.003 178.855 255.596C179.033 256.19 179.038 256.784 178.866 257.378L173.73 271.466L211.517 264.805C211.824 264.758 212.137 264.742 212.449 264.763C212.762 264.784 213.074 264.836 213.371 264.924C213.673 265.013 213.965 265.133 214.236 265.289C214.512 265.44 214.767 265.622 215.001 265.831C215.236 266.039 215.444 266.268 215.632 266.523C215.814 266.779 215.965 267.049 216.09 267.341C216.215 267.628 216.303 267.93 216.361 268.237C216.418 268.544 216.439 268.857 216.428 269.174L214.465 307.065H222.324L220.361 269.174C220.35 268.857 220.371 268.549 220.428 268.237C220.486 267.93 220.574 267.628 220.699 267.341C220.819 267.049 220.975 266.779 221.158 266.523C221.34 266.268 221.553 266.039 221.788 265.831C222.022 265.622 222.277 265.44 222.548 265.289C222.824 265.133 223.116 265.013 223.413 264.924C223.715 264.836 224.022 264.784 224.34 264.763C224.652 264.742 224.965 264.758 225.272 264.805L263.053 271.466L257.923 257.378C257.751 256.784 257.757 256.19 257.934 255.596C258.111 255.003 258.434 254.508 258.908 254.102Z" fill="#FF0000"/>
</g>
</g>
</g>
</svg>
