<svg width="437" height="437" viewBox="0 0 437 437" fill="none" xmlns="http://www.w3.org/2000/svg">
<defs><clipPath id="new-zealand"><path d="M0 99.9479V336.901C0 392.104 44.75 436.854 99.9531 436.854H336.901C392.104 436.854 436.854 392.104 436.854 336.901V99.9479C436.854 44.75 392.104 0 336.901 0H99.9531C44.75 0 0 44.75 0 99.9479Z"/></clipPath></defs>
<g clip-path="url(#new-zealand)"><rect width="437" height="437" fill="#00247D"/><rect width="218" height="218" fill="#012169"/><path d="M0 0 L218 0 L0 218 Z" fill="#012169"/><rect x="85" width="12" height="218" fill="#fff"/><rect y="103" width="218" height="12" fill="#fff"/><rect x="91" width="4" height="218" fill="#C8102E"/><rect y="109" width="218" height="4" fill="#C8102E"/><polygon points="300,80 308,105 335,105 313,120 321,145 300,130 279,145 287,120 265,105 292,105" fill="#C8102E"/><polygon points="360,200 366,218 385,218 370,228 376,246 360,236 344,246 350,228 335,218 354,218" fill="#C8102E"/><polygon points="250,280 256,298 275,298 260,308 266,326 250,316 234,326 240,308 225,298 244,298" fill="#C8102E"/><polygon points="340,320 345,335 360,335 348,343 353,358 340,350 327,358 332,343 320,335 335,335" fill="#C8102E"/></g>
</svg>