<svg width="437" height="437" viewBox="0 0 437 437" fill="none" xmlns="http://www.w3.org/2000/svg">
<mask id="mask0_58711_36587" style="mask-type:luminance" maskUnits="userSpaceOnUse" x="0" y="0" width="218" height="237">
<path d="M0 0H217.984V236.052H0V0Z" fill="white"/>
</mask>
<g mask="url(#mask0_58711_36587)">
<mask id="mask1_58711_36587" style="mask-type:luminance" maskUnits="userSpaceOnUse" x="0" y="0" width="437" height="437">
<path d="M0 99.9479V336.901C0 392.104 44.75 436.854 99.9531 436.854H336.901C392.104 436.854 436.854 392.104 436.854 336.901V99.9479C436.854 44.75 392.104 0 336.901 0H99.9531C44.75 0 0 44.75 0 99.9479Z" fill="white"/>
</mask>
<g mask="url(#mask1_58711_36587)">
<path d="M217.87 235.161V0H0V235.161H217.87ZM188.865 20.6146L191.922 11.3542L194.979 20.6146H204.766L196.901 26.3802L199.958 35.6406L192.099 29.875L184.234 35.6406L187.292 26.3802L179.432 20.6146H188.865ZM188.865 67.6979L191.922 58.4427L194.979 67.6979H204.766L196.901 73.4635L199.958 82.724L192.099 76.9583L184.234 82.724L187.292 73.4635L179.432 67.6979H188.865ZM188.865 114.698L191.922 105.438L194.979 114.698H204.766L196.901 120.464L199.958 129.724L192.099 123.958L184.234 129.724L187.292 120.464L179.432 114.698H188.865ZM188.865 161.781L191.922 152.526L194.979 161.781H204.766L196.901 167.547L199.958 176.807L192.099 171.042L184.234 176.807L187.292 167.547L179.432 161.781H188.865ZM188.865 208.781L191.922 199.521L194.979 208.781H204.766L196.901 214.547L199.958 223.807L192.099 218.042L184.234 223.807L187.292 214.547L179.432 208.781H188.865ZM161.26 44.2031L164.318 34.9427L167.375 44.2031H177.161L169.297 49.9688L172.354 59.2292L164.495 53.4635L156.63 59.2292L159.688 49.9688L151.828 44.2031H161.26ZM161.26 91.1979L164.318 81.9375L167.375 91.1979H177.161L169.297 96.9635L172.354 106.224L164.495 100.458L156.63 106.224L159.688 96.9635L151.828 91.1979H161.26ZM161.26 138.286L164.318 129.026L167.375 138.286H177.161L169.297 144.052L172.354 153.313L164.495 147.547L156.63 153.313L159.688 144.052L151.828 138.286H161.26ZM161.26 185.281L164.318 176.021L167.375 185.281H177.161L169.297 191.047L172.354 200.307L164.495 194.542L156.63 200.307L159.688 191.047L151.828 185.281H161.26ZM133.568 20.6146L136.625 11.3542L139.682 20.6146H149.38L141.521 26.3802L144.578 35.6406L136.714 29.875L128.854 35.6406L131.911 26.3802L124.047 20.6146H133.568ZM133.568 67.6979L136.625 58.4427L139.682 67.6979H149.38L141.521 73.4635L144.578 82.724L136.714 76.9583L128.854 82.724L131.911 73.4635L124.047 67.6979H133.568ZM133.568 114.698L136.625 105.438L139.682 114.698H149.38L141.521 120.464L144.578 129.724L136.714 123.958L128.854 129.724L131.911 120.464L124.047 114.698H133.568ZM133.568 161.781L136.625 152.526L139.682 161.781H149.38L141.521 167.547L144.578 176.807L136.714 171.042L128.854 176.807L131.911 167.547L124.047 161.781H133.568ZM133.568 208.781L136.625 199.521L139.682 208.781H149.38L141.521 214.547L144.578 223.807L136.714 218.042L128.854 223.807L131.911 214.547L124.047 208.781H133.568ZM105.964 44.2031L109.021 34.9427L112.078 44.2031H121.865L114 49.9688L117.057 59.2292L109.198 53.4635L101.333 59.2292L104.391 49.9688L96.5313 44.2031H105.964ZM105.964 91.1979L109.021 81.9375L112.078 91.1979H121.865L114 96.9635L117.057 106.224L109.198 100.458L101.333 106.224L104.391 96.9635L96.5313 91.1979H105.964ZM105.964 138.286L109.021 129.026L112.078 138.286H121.865L114 144.052L117.057 153.313L109.198 147.547L101.333 153.313L104.391 144.052L96.5313 138.286H105.964ZM105.964 185.281L109.021 176.021L112.078 185.281H121.865L114 191.047L117.057 200.307L109.198 194.542L101.333 200.307L104.391 191.047L96.5313 185.281H105.964ZM78.2708 20.6146L81.3281 11.3542L84.3854 20.6146H94.1719L86.3073 26.3802L89.3646 35.6406L81.5052 29.875L73.6406 35.6406L76.6979 26.3802L68.8385 20.6146H78.2708ZM78.2708 67.6979L81.3281 58.4427L84.3854 67.6979H94.1719L86.3073 73.4635L89.3646 82.724L81.5052 76.9583L73.6406 82.724L76.6979 73.4635L68.8385 67.6979H78.2708ZM78.2708 114.698L81.3281 105.438L84.3854 114.698H94.1719L86.3073 120.464L89.3646 129.724L81.5052 123.958L73.6406 129.724L76.6979 120.464L68.8385 114.698H78.2708ZM78.2708 161.781L81.3281 152.526L84.3854 161.781H94.1719L86.3073 167.547L89.3646 176.807L81.5052 171.042L73.6406 176.807L76.6979 167.547L68.8385 161.781H78.2708ZM78.2708 208.781L81.3281 199.521L84.3854 208.781H94.1719L86.3073 214.547L89.3646 223.807L81.5052 218.042L73.6406 223.807L76.6979 214.547L68.8385 208.781H78.2708ZM50.6667 44.2031L53.724 34.9427L56.7813 44.2031H66.3906L58.5313 49.9688L61.5885 59.2292L53.724 53.4635L45.8646 59.2292L48.9219 49.9688L41.0573 44.2031H50.6667ZM50.6667 91.1979L53.724 81.9375L56.7813 91.1979H66.3906L58.5313 96.9635L61.5885 106.224L53.724 100.458L45.8646 106.224L48.9219 96.9635L41.0573 91.1979H50.6667ZM50.6667 138.286L53.724 129.026L56.7813 138.286H66.3906L58.5313 144.052L61.5885 153.313L53.724 147.547L45.8646 153.313L48.9219 144.052L41.0573 138.286H50.6667ZM50.6667 185.281L53.724 176.021L56.7813 185.281H66.3906L58.5313 191.047L61.5885 200.307L53.724 194.542L45.8646 200.307L48.9219 191.047L41.0573 185.281H50.6667ZM22.974 20.6146L26.0313 11.3542L29.0885 20.6146H38.875L31.0104 26.3802L34.0677 35.6406L26.2083 29.875L18.3438 35.6406L21.401 26.3802L13.5417 20.6146H22.974ZM22.974 67.6979L26.0313 58.4427L29.0885 67.6979H38.875L31.0104 73.4635L34.0677 82.724L26.2083 76.9583L18.3438 82.724L21.401 73.4635L13.5417 67.6979H22.974ZM22.974 114.698L26.0313 105.438L29.0885 114.698H38.875L31.0104 120.464L34.0677 129.724L26.2083 123.958L18.3438 129.724L21.401 120.464L13.5417 114.698H22.974ZM22.974 161.781L26.0313 152.526L29.0885 161.781H38.875L31.0104 167.547L34.0677 176.807L26.2083 171.042L18.3438 176.807L21.401 167.547L13.5417 161.781H22.974ZM22.974 208.781L26.0313 199.521L29.0885 208.781H38.875L31.0104 214.547L34.0677 223.807L26.2083 218.042L18.3438 223.807L21.401 214.547L13.5417 208.781H22.974Z" fill="#3C3B6E"/>
</g>
</g>
<mask id="mask2_58711_36587" style="mask-type:luminance" maskUnits="userSpaceOnUse" x="216" y="100" width="221" height="35">
<path d="M216.648 100.053H436.784V134.719H216.648V100.053Z" fill="white"/>
</mask>
<g mask="url(#mask2_58711_36587)">
<mask id="mask3_58711_36587" style="mask-type:luminance" maskUnits="userSpaceOnUse" x="-1" y="0" width="438" height="437">
<path d="M-0.00195312 99.9479V336.901C-0.00195312 392.104 44.748 436.854 99.9512 436.854H336.899C392.102 436.854 436.852 392.104 436.852 336.901V99.9479C436.852 44.75 392.102 0 336.899 0H99.9512C44.748 0 -0.00195312 44.75 -0.00195312 99.9479Z" fill="white"/>
</mask>
<g mask="url(#mask3_58711_36587)">
<path d="M217.867 100.197H436.784V134.093H217.867V100.197Z" fill="white"/>
</g>
</g>
<mask id="mask4_58711_36587" style="mask-type:luminance" maskUnits="userSpaceOnUse" x="216" y="33" width="221" height="34">
<path d="M216.648 33.3867H436.784V66.7201H216.648V33.3867Z" fill="white"/>
</mask>
<g mask="url(#mask4_58711_36587)">
<mask id="mask5_58711_36587" style="mask-type:luminance" maskUnits="userSpaceOnUse" x="-1" y="0" width="438" height="437">
<path d="M-0.00195312 99.9499V336.903C-0.00195312 392.106 44.748 436.856 99.9512 436.856H336.899C392.102 436.856 436.852 392.106 436.852 336.903V99.9499C436.852 44.752 392.102 0.00195312 336.899 0.00195312H99.9512C44.748 0.00195312 -0.00195312 44.752 -0.00195312 99.9499Z" fill="white"/>
</mask>
<g mask="url(#mask5_58711_36587)">
<path d="M217.867 33.6328H436.784V66.6536H217.867V33.6328Z" fill="white"/>
</g>
</g>
<mask id="mask6_58711_36587" style="mask-type:luminance" maskUnits="userSpaceOnUse" x="0" y="369" width="437" height="36">
<path d="M0 369.387H436.786V404.053H0V369.387Z" fill="white"/>
</mask>
<g mask="url(#mask6_58711_36587)">
<mask id="mask7_58711_36587" style="mask-type:luminance" maskUnits="userSpaceOnUse" x="0" y="0" width="437" height="437">
<path d="M0 99.9499V336.903C0 392.106 44.75 436.856 99.9531 436.856H336.901C392.104 436.856 436.854 392.106 436.854 336.903V99.9499C436.854 44.752 392.104 0.00195312 336.901 0.00195312H99.9531C44.75 0.00195312 0 44.752 0 99.9499Z" fill="white"/>
</mask>
<g mask="url(#mask7_58711_36587)">
<path d="M0 369.605H436.786V402.892H0V369.605Z" fill="white"/>
</g>
</g>
<mask id="mask8_58711_36587" style="mask-type:luminance" maskUnits="userSpaceOnUse" x="0" y="301" width="437" height="36">
<path d="M0 301.387H436.786V336.053H0V301.387Z" fill="white"/>
</mask>
<g mask="url(#mask8_58711_36587)">
<mask id="mask9_58711_36587" style="mask-type:luminance" maskUnits="userSpaceOnUse" x="0" y="0" width="437" height="437">
<path d="M0 99.9499V336.903C0 392.106 44.75 436.856 99.9531 436.856H336.901C392.104 436.856 436.854 392.106 436.854 336.903V99.9499C436.854 44.752 392.104 0.00195312 336.901 0.00195312H99.9531C44.75 0.00195312 0 44.752 0 99.9499Z" fill="white"/>
</mask>
<g mask="url(#mask9_58711_36587)">
<path d="M0 302.695H436.786V335.977H0V302.695Z" fill="white"/>
</g>
</g>
<mask id="mask10_58711_36587" style="mask-type:luminance" maskUnits="userSpaceOnUse" x="216" y="166" width="221" height="37">
<path d="M216.648 166.719H436.784V202.719H216.648V166.719Z" fill="white"/>
</mask>
<g mask="url(#mask10_58711_36587)">
<mask id="mask11_58711_36587" style="mask-type:luminance" maskUnits="userSpaceOnUse" x="-1" y="0" width="438" height="437">
<path d="M-0.00195312 99.9479V336.901C-0.00195312 392.104 44.748 436.854 99.9512 436.854H336.899C392.102 436.854 436.852 392.104 436.852 336.901V99.9479C436.852 44.75 392.102 0 336.899 0H99.9512C44.748 0 -0.00195312 44.75 -0.00195312 99.9479Z" fill="white"/>
</mask>
<g mask="url(#mask11_58711_36587)">
<path d="M217.867 167.725H436.784V201.62H217.867V167.725Z" fill="white"/>
</g>
</g>
<mask id="mask12_58711_36587" style="mask-type:luminance" maskUnits="userSpaceOnUse" x="0" y="234" width="437" height="36">
<path d="M0 234.719H436.786V269.385H0V234.719Z" fill="white"/>
</mask>
<g mask="url(#mask12_58711_36587)">
<mask id="mask13_58711_36587" style="mask-type:luminance" maskUnits="userSpaceOnUse" x="0" y="0" width="437" height="437">
<path d="M0 99.9479V336.901C0 392.104 44.75 436.854 99.9531 436.854H336.901C392.104 436.854 436.854 392.104 436.854 336.901V99.9479C436.854 44.75 392.104 0 336.901 0H99.9531C44.75 0 0 44.75 0 99.9479Z" fill="white"/>
</mask>
<g mask="url(#mask13_58711_36587)">
<path d="M217.87 235.162H0V269.058H436.786V235.162H217.87Z" fill="white"/>
</g>
</g>
<mask id="mask14_58711_36587" style="mask-type:luminance" maskUnits="userSpaceOnUse" x="0" y="402" width="437" height="35">
<path d="M0 402.719H436.786V436.781H0V402.719Z" fill="white"/>
</mask>
<g mask="url(#mask14_58711_36587)">
<mask id="mask15_58711_36587" style="mask-type:luminance" maskUnits="userSpaceOnUse" x="0" y="0" width="437" height="437">
<path d="M0 99.9479V336.901C0 392.104 44.75 436.854 99.9531 436.854H336.901C392.104 436.854 436.854 392.104 436.854 336.901V99.9479C436.854 44.75 392.104 0 336.901 0H99.9531C44.75 0 0 44.75 0 99.9479Z" fill="white"/>
</mask>
<g mask="url(#mask15_58711_36587)">
<path d="M0 402.891H436.786V436.781H0V402.891Z" fill="#B22234"/>
</g>
</g>
<mask id="mask16_58711_36587" style="mask-type:luminance" maskUnits="userSpaceOnUse" x="0" y="334" width="437" height="37">
<path d="M0 334.719H436.786V370.719H0V334.719Z" fill="white"/>
</mask>
<g mask="url(#mask16_58711_36587)">
<mask id="mask17_58711_36587" style="mask-type:luminance" maskUnits="userSpaceOnUse" x="0" y="0" width="437" height="437">
<path d="M0 99.9479V336.901C0 392.104 44.75 436.854 99.9531 436.854H336.901C392.104 436.854 436.854 392.104 436.854 336.901V99.9479C436.854 44.75 392.104 0 336.901 0H99.9531C44.75 0 0 44.75 0 99.9479Z" fill="white"/>
</mask>
<g mask="url(#mask17_58711_36587)">
<path d="M0 335.975H436.786V369.605H0V335.975Z" fill="#B22234"/>
</g>
</g>
<mask id="mask18_58711_36587" style="mask-type:luminance" maskUnits="userSpaceOnUse" x="0" y="268" width="437" height="35">
<path d="M0 268.053H436.786V302.719H0V268.053Z" fill="white"/>
</mask>
<g mask="url(#mask18_58711_36587)">
<mask id="mask19_58711_36587" style="mask-type:luminance" maskUnits="userSpaceOnUse" x="0" y="0" width="437" height="437">
<path d="M0 99.9479V336.901C0 392.104 44.75 436.854 99.9531 436.854H336.901C392.104 436.854 436.854 392.104 436.854 336.901V99.9479C436.854 44.75 392.104 0 336.901 0H99.9531C44.75 0 0 44.75 0 99.9479Z" fill="white"/>
</mask>
<g mask="url(#mask19_58711_36587)">
<path d="M0 269.057H436.786V302.692H0V269.057Z" fill="#B22234"/>
</g>
</g>
<mask id="mask20_58711_36587" style="mask-type:luminance" maskUnits="userSpaceOnUse" x="216" y="201" width="221" height="36">
<path d="M216.648 201.387H436.784V236.053H216.648V201.387Z" fill="white"/>
</mask>
<g mask="url(#mask20_58711_36587)">
<mask id="mask21_58711_36587" style="mask-type:luminance" maskUnits="userSpaceOnUse" x="-1" y="0" width="438" height="437">
<path d="M-0.00195312 99.9499V336.903C-0.00195312 392.106 44.748 436.856 99.9512 436.856H336.899C392.102 436.856 436.852 392.106 436.852 336.903V99.9499C436.852 44.752 392.102 0.00195312 336.899 0.00195312H99.9512C44.748 0.00195312 -0.00195312 44.752 -0.00195312 99.9499Z" fill="white"/>
</mask>
<g mask="url(#mask21_58711_36587)">
<path d="M217.867 201.621H436.784V235.251H217.867V201.621Z" fill="#B22234"/>
</g>
</g>
<mask id="mask22_58711_36587" style="mask-type:luminance" maskUnits="userSpaceOnUse" x="216" y="133" width="221" height="36">
<path d="M216.648 133.387H436.784V168.053H216.648V133.387Z" fill="white"/>
</mask>
<g mask="url(#mask22_58711_36587)">
<mask id="mask23_58711_36587" style="mask-type:luminance" maskUnits="userSpaceOnUse" x="-1" y="0" width="438" height="437">
<path d="M-0.00195312 99.9499V336.903C-0.00195312 392.106 44.748 436.856 99.9512 436.856H336.899C392.102 436.856 436.852 392.106 436.852 336.903V99.9499C436.852 44.752 392.102 0.00195312 336.899 0.00195312H99.9512C44.748 0.00195312 -0.00195312 44.752 -0.00195312 99.9499Z" fill="white"/>
</mask>
<g mask="url(#mask23_58711_36587)">
<path d="M217.867 134.096H436.784V167.726H217.867V134.096Z" fill="#B22234"/>
</g>
</g>
<mask id="mask24_58711_36587" style="mask-type:luminance" maskUnits="userSpaceOnUse" x="216" y="65" width="221" height="37">
<path d="M216.648 65.3867H436.784V101.387H216.648V65.3867Z" fill="white"/>
</mask>
<g mask="url(#mask24_58711_36587)">
<mask id="mask25_58711_36587" style="mask-type:luminance" maskUnits="userSpaceOnUse" x="-1" y="0" width="438" height="437">
<path d="M-0.00195312 99.9499V336.903C-0.00195312 392.106 44.748 436.856 99.9512 436.856H336.899C392.102 436.856 436.852 392.106 436.852 336.903V99.9499C436.852 44.752 392.102 0.00195312 336.899 0.00195312H99.9512C44.748 0.00195312 -0.00195312 44.752 -0.00195312 99.9499Z" fill="white"/>
</mask>
<g mask="url(#mask25_58711_36587)">
<path d="M217.867 66.5645H436.784V100.2H217.867V66.5645Z" fill="#B22234"/>
</g>
</g>
<mask id="mask26_58711_36587" style="mask-type:luminance" maskUnits="userSpaceOnUse" x="216" y="0" width="221" height="35">
<path d="M216.648 0H436.784V34.7188H216.648V0Z" fill="white"/>
</mask>
<g mask="url(#mask26_58711_36587)">
<mask id="mask27_58711_36587" style="mask-type:luminance" maskUnits="userSpaceOnUse" x="-1" y="0" width="438" height="437">
<path d="M-0.00195312 99.9479V336.901C-0.00195312 392.104 44.748 436.854 99.9512 436.854H336.899C392.102 436.854 436.852 392.104 436.852 336.901V99.9479C436.852 44.75 392.102 0 336.899 0H99.9512C44.748 0 -0.00195312 44.75 -0.00195312 99.9479Z" fill="white"/>
</mask>
<g mask="url(#mask27_58711_36587)">
<path d="M217.867 0H436.784V33.6302H217.867V0Z" fill="#B22234"/>
</g>
</g>
<mask id="mask28_58711_36587" style="mask-type:luminance" maskUnits="userSpaceOnUse" x="12" y="10" width="28" height="27">
<path d="M12.6484 10.7188H39.3151V36.0521H12.6484V10.7188Z" fill="white"/>
</mask>
<g mask="url(#mask28_58711_36587)">
<mask id="mask29_58711_36587" style="mask-type:luminance" maskUnits="userSpaceOnUse" x="-1" y="0" width="438" height="437">
<path d="M-0.00195312 99.9479V336.901C-0.00195312 392.104 44.748 436.854 99.9512 436.854H336.899C392.102 436.854 436.852 392.104 436.852 336.901V99.9479C436.852 44.75 392.102 0 336.899 0H99.9512C44.748 0 -0.00195312 44.75 -0.00195312 99.9479Z" fill="white"/>
</mask>
<g mask="url(#mask29_58711_36587)">
<path d="M18.082 35.64L26.0299 29.9629L33.8945 35.64L30.8372 26.3796L38.7852 20.6139H29.0039L26.0299 11.3535L22.9727 20.6139H13.1914L21.1393 26.3796L18.082 35.64Z" fill="white"/>
</g>
</g>
<mask id="mask30_58711_36587" style="mask-type:luminance" maskUnits="userSpaceOnUse" x="12" y="57" width="28" height="28">
<path d="M12.6484 57.3867H39.3151V84.0534H12.6484V57.3867Z" fill="white"/>
</mask>
<g mask="url(#mask30_58711_36587)">
<mask id="mask31_58711_36587" style="mask-type:luminance" maskUnits="userSpaceOnUse" x="-1" y="0" width="438" height="437">
<path d="M-0.00195312 99.9499V336.903C-0.00195312 392.106 44.748 436.856 99.9512 436.856H336.899C392.102 436.856 436.852 392.106 436.852 336.903V99.9499C436.852 44.752 392.102 0.00195312 336.899 0.00195312H99.9512C44.748 0.00195312 -0.00195312 44.752 -0.00195312 99.9499Z" fill="white"/>
</mask>
<g mask="url(#mask31_58711_36587)">
<path d="M18.082 82.7266L26.0299 76.9609L33.8945 82.7266L30.8372 73.4661L38.7852 67.7005H29.0039L26.0299 58.4453L22.9727 67.7005H13.1914L21.1393 73.4661L18.082 82.7266Z" fill="white"/>
</g>
</g>
<mask id="mask32_58711_36587" style="mask-type:luminance" maskUnits="userSpaceOnUse" x="12" y="105" width="28" height="26">
<path d="M12.6484 105.387H39.3151V130.72H12.6484V105.387Z" fill="white"/>
</mask>
<g mask="url(#mask32_58711_36587)">
<mask id="mask33_58711_36587" style="mask-type:luminance" maskUnits="userSpaceOnUse" x="-1" y="0" width="438" height="437">
<path d="M-0.00195312 99.9499V336.903C-0.00195312 392.106 44.748 436.856 99.9512 436.856H336.899C392.102 436.856 436.852 392.106 436.852 336.903V99.9499C436.852 44.752 392.102 0.00195312 336.899 0.00195312H99.9512C44.748 0.00195312 -0.00195312 44.752 -0.00195312 99.9499Z" fill="white"/>
</mask>
<g mask="url(#mask33_58711_36587)">
<path d="M18.082 129.726L26.0299 124.049L33.8945 129.726L30.8372 120.465L38.7852 114.7H29.0039L26.0299 105.439L22.9727 114.7H13.1914L21.1393 120.465L18.082 129.726Z" fill="white"/>
</g>
</g>
<mask id="mask34_58711_36587" style="mask-type:luminance" maskUnits="userSpaceOnUse" x="12" y="152" width="28" height="26">
<path d="M12.6484 152.053H39.3151V177.386H12.6484V152.053Z" fill="white"/>
</mask>
<g mask="url(#mask34_58711_36587)">
<mask id="mask35_58711_36587" style="mask-type:luminance" maskUnits="userSpaceOnUse" x="-1" y="0" width="438" height="437">
<path d="M-0.00195312 99.9479V336.901C-0.00195312 392.104 44.748 436.854 99.9512 436.854H336.899C392.102 436.854 436.852 392.104 436.852 336.901V99.9479C436.852 44.75 392.102 0 336.899 0H99.9512C44.748 0 -0.00195312 44.75 -0.00195312 99.9479Z" fill="white"/>
</mask>
<g mask="url(#mask35_58711_36587)">
<path d="M18.082 176.807L26.0299 171.042L33.8945 176.807L30.8372 167.464L38.7852 161.781H29.0039L26.0299 152.438L22.9727 161.781H13.1914L21.1393 167.464L18.082 176.807Z" fill="white"/>
</g>
</g>
<mask id="mask36_58711_36587" style="mask-type:luminance" maskUnits="userSpaceOnUse" x="12" y="198" width="28" height="27">
<path d="M12.6484 198.719H39.3151V224.052H12.6484V198.719Z" fill="white"/>
</mask>
<g mask="url(#mask36_58711_36587)">
<mask id="mask37_58711_36587" style="mask-type:luminance" maskUnits="userSpaceOnUse" x="-1" y="0" width="438" height="437">
<path d="M-0.00195312 99.9479V336.901C-0.00195312 392.104 44.748 436.854 99.9512 436.854H336.899C392.102 436.854 436.852 392.104 436.852 336.901V99.9479C436.852 44.75 392.102 0 336.899 0H99.9512C44.748 0 -0.00195312 44.75 -0.00195312 99.9479Z" fill="white"/>
</mask>
<g mask="url(#mask37_58711_36587)">
<path d="M18.082 223.808L26.0299 218.131L33.8945 223.808L30.8372 214.548L38.7852 208.782H29.0039L26.0299 199.521L22.9727 208.782H13.1914L21.1393 214.548L18.082 223.808Z" fill="white"/>
</g>
</g>
<mask id="mask38_58711_36587" style="mask-type:luminance" maskUnits="userSpaceOnUse" x="40" y="34" width="28" height="27">
<path d="M40.6484 34.7188H67.3151V60.0521H40.6484V34.7188Z" fill="white"/>
</mask>
<g mask="url(#mask38_58711_36587)">
<mask id="mask39_58711_36587" style="mask-type:luminance" maskUnits="userSpaceOnUse" x="-1" y="0" width="438" height="437">
<path d="M-0.00195312 99.9479V336.901C-0.00195312 392.104 44.748 436.854 99.9512 436.854H336.899C392.102 436.854 436.852 392.104 436.852 336.901V99.9479C436.852 44.75 392.102 0 336.899 0H99.9512C44.748 0 -0.00195312 44.75 -0.00195312 99.9479Z" fill="white"/>
</mask>
<g mask="url(#mask39_58711_36587)">
<path d="M45.7734 59.2285L53.6328 53.4629L61.4974 59.2285L58.5286 49.8796L66.388 44.2025H56.6901L53.6328 34.8535L50.6641 44.2025H40.8828L48.7422 49.8796L45.7734 59.2285Z" fill="white"/>
</g>
</g>
<mask id="mask40_58711_36587" style="mask-type:luminance" maskUnits="userSpaceOnUse" x="40" y="81" width="28" height="26">
<path d="M40.6484 81.3867H67.3151V106.72H40.6484V81.3867Z" fill="white"/>
</mask>
<g mask="url(#mask40_58711_36587)">
<mask id="mask41_58711_36587" style="mask-type:luminance" maskUnits="userSpaceOnUse" x="-1" y="0" width="438" height="437">
<path d="M-0.00195312 99.9499V336.903C-0.00195312 392.106 44.748 436.856 99.9512 436.856H336.899C392.102 436.856 436.852 392.106 436.852 336.903V99.9499C436.852 44.752 392.102 0.00195312 336.899 0.00195312H99.9512C44.748 0.00195312 -0.00195312 44.752 -0.00195312 99.9499Z" fill="white"/>
</mask>
<g mask="url(#mask41_58711_36587)">
<path d="M45.7734 106.226L53.6328 100.46L61.4974 106.226L58.5286 96.9655L66.388 91.1999H56.6901L53.6328 81.9395L50.6641 91.1999H40.8828L48.7422 96.9655L45.7734 106.226Z" fill="white"/>
</g>
</g>
<mask id="mask42_58711_36587" style="mask-type:luminance" maskUnits="userSpaceOnUse" x="40" y="128" width="28" height="26">
<path d="M40.6484 128.053H67.3151V153.386H40.6484V128.053Z" fill="white"/>
</mask>
<g mask="url(#mask42_58711_36587)">
<mask id="mask43_58711_36587" style="mask-type:luminance" maskUnits="userSpaceOnUse" x="-1" y="0" width="438" height="437">
<path d="M-0.00195312 99.9479V336.901C-0.00195312 392.104 44.748 436.854 99.9512 436.854H336.899C392.102 436.854 436.852 392.104 436.852 336.901V99.9479C436.852 44.75 392.102 0 336.899 0H99.9512C44.748 0 -0.00195312 44.75 -0.00195312 99.9479Z" fill="white"/>
</mask>
<g mask="url(#mask43_58711_36587)">
<path d="M45.7734 153.313L53.6328 147.547L61.4974 153.313L58.5286 143.964L66.388 138.286H56.6901L53.6328 128.938L50.6641 138.286H40.8828L48.7422 143.964L45.7734 153.313Z" fill="white"/>
</g>
</g>
<mask id="mask44_58711_36587" style="mask-type:luminance" maskUnits="userSpaceOnUse" x="40" y="174" width="28" height="28">
<path d="M40.6484 174.719H67.3151V201.385H40.6484V174.719Z" fill="white"/>
</mask>
<g mask="url(#mask44_58711_36587)">
<mask id="mask45_58711_36587" style="mask-type:luminance" maskUnits="userSpaceOnUse" x="-1" y="0" width="438" height="437">
<path d="M-0.00195312 99.9479V336.901C-0.00195312 392.104 44.748 436.854 99.9512 436.854H336.899C392.102 436.854 436.852 392.104 436.852 336.901V99.9479C436.852 44.75 392.102 0 336.899 0H99.9512C44.748 0 -0.00195312 44.75 -0.00195312 99.9479Z" fill="white"/>
</mask>
<g mask="url(#mask45_58711_36587)">
<path d="M45.7734 200.308L53.6328 194.542L61.4974 200.308L58.5286 191.048L66.388 185.282H56.6901L53.6328 176.021L50.6641 185.282H40.8828L48.7422 191.048L45.7734 200.308Z" fill="white"/>
</g>
</g>
<mask id="mask46_58711_36587" style="mask-type:luminance" maskUnits="userSpaceOnUse" x="67" y="10" width="29" height="27">
<path d="M67.3164 10.7188H95.3164V36.0521H67.3164V10.7188Z" fill="white"/>
</mask>
<g mask="url(#mask46_58711_36587)">
<mask id="mask47_58711_36587" style="mask-type:luminance" maskUnits="userSpaceOnUse" x="-1" y="0" width="438" height="437">
<path d="M-0.00195312 99.9479V336.901C-0.00195312 392.104 44.748 436.854 99.9512 436.854H336.899C392.102 436.854 436.852 392.104 436.852 336.901V99.9479C436.852 44.75 392.102 0 336.899 0H99.9512C44.748 0 -0.00195312 44.75 -0.00195312 99.9479Z" fill="white"/>
</mask>
<g mask="url(#mask47_58711_36587)">
<path d="M73.3789 35.64L81.3268 29.9629L89.1914 35.64L86.1341 26.3796L94.082 20.6139H84.3008L81.3268 11.3535L78.2695 20.6139H68.4883L76.4362 26.3796L73.3789 35.64Z" fill="white"/>
</g>
</g>
<mask id="mask48_58711_36587" style="mask-type:luminance" maskUnits="userSpaceOnUse" x="67" y="57" width="29" height="28">
<path d="M67.3164 57.3867H95.3164V84.0534H67.3164V57.3867Z" fill="white"/>
</mask>
<g mask="url(#mask48_58711_36587)">
<mask id="mask49_58711_36587" style="mask-type:luminance" maskUnits="userSpaceOnUse" x="-1" y="0" width="438" height="437">
<path d="M-0.00195312 99.9499V336.903C-0.00195312 392.106 44.748 436.856 99.9512 436.856H336.899C392.102 436.856 436.852 392.106 436.852 336.903V99.9499C436.852 44.752 392.102 0.00195312 336.899 0.00195312H99.9512C44.748 0.00195312 -0.00195312 44.752 -0.00195312 99.9499Z" fill="white"/>
</mask>
<g mask="url(#mask49_58711_36587)">
<path d="M73.3789 82.7266L81.3268 76.9609L89.1914 82.7266L86.1341 73.4661L94.082 67.7005H84.3008L81.3268 58.4453L78.2695 67.7005H68.4883L76.4362 73.4661L73.3789 82.7266Z" fill="white"/>
</g>
</g>
<mask id="mask50_58711_36587" style="mask-type:luminance" maskUnits="userSpaceOnUse" x="67" y="105" width="29" height="26">
<path d="M67.3164 105.387H95.3164V130.72H67.3164V105.387Z" fill="white"/>
</mask>
<g mask="url(#mask50_58711_36587)">
<mask id="mask51_58711_36587" style="mask-type:luminance" maskUnits="userSpaceOnUse" x="-1" y="0" width="438" height="437">
<path d="M-0.00195312 99.9499V336.903C-0.00195312 392.106 44.748 436.856 99.9512 436.856H336.899C392.102 436.856 436.852 392.106 436.852 336.903V99.9499C436.852 44.752 392.102 0.00195312 336.899 0.00195312H99.9512C44.748 0.00195312 -0.00195312 44.752 -0.00195312 99.9499Z" fill="white"/>
</mask>
<g mask="url(#mask51_58711_36587)">
<path d="M73.3789 129.726L81.3268 124.049L89.1914 129.726L86.1341 120.465L94.082 114.7H84.3008L81.3268 105.439L78.2695 114.7H68.4883L76.4362 120.465L73.3789 129.726Z" fill="white"/>
</g>
</g>
<mask id="mask52_58711_36587" style="mask-type:luminance" maskUnits="userSpaceOnUse" x="67" y="152" width="29" height="26">
<path d="M67.3164 152.053H95.3164V177.386H67.3164V152.053Z" fill="white"/>
</mask>
<g mask="url(#mask52_58711_36587)">
<mask id="mask53_58711_36587" style="mask-type:luminance" maskUnits="userSpaceOnUse" x="-1" y="0" width="438" height="437">
<path d="M-0.00195312 99.9479V336.901C-0.00195312 392.104 44.748 436.854 99.9512 436.854H336.899C392.102 436.854 436.852 392.104 436.852 336.901V99.9479C436.852 44.75 392.102 0 336.899 0H99.9512C44.748 0 -0.00195312 44.75 -0.00195312 99.9479Z" fill="white"/>
</mask>
<g mask="url(#mask53_58711_36587)">
<path d="M73.3789 176.807L81.3268 171.042L89.1914 176.807L86.1341 167.464L94.082 161.781H84.3008L81.3268 152.438L78.2695 161.781H68.4883L76.4362 167.464L73.3789 176.807Z" fill="white"/>
</g>
</g>
<mask id="mask54_58711_36587" style="mask-type:luminance" maskUnits="userSpaceOnUse" x="67" y="198" width="29" height="27">
<path d="M67.3164 198.719H95.3164V224.052H67.3164V198.719Z" fill="white"/>
</mask>
<g mask="url(#mask54_58711_36587)">
<mask id="mask55_58711_36587" style="mask-type:luminance" maskUnits="userSpaceOnUse" x="-1" y="0" width="438" height="437">
<path d="M-0.00195312 99.9479V336.901C-0.00195312 392.104 44.748 436.854 99.9512 436.854H336.899C392.102 436.854 436.852 392.104 436.852 336.901V99.9479C436.852 44.75 392.102 0 336.899 0H99.9512C44.748 0 -0.00195312 44.75 -0.00195312 99.9479Z" fill="white"/>
</mask>
<g mask="url(#mask55_58711_36587)">
<path d="M73.3789 223.808L81.3268 218.131L89.1914 223.808L86.1341 214.548L94.082 208.782H84.3008L81.3268 199.521L78.2695 208.782H68.4883L76.4362 214.548L73.3789 223.808Z" fill="white"/>
</g>
</g>
<mask id="mask56_58711_36587" style="mask-type:luminance" maskUnits="userSpaceOnUse" x="95" y="34" width="27" height="27">
<path d="M95.3164 34.7188H121.983V60.0521H95.3164V34.7188Z" fill="white"/>
</mask>
<g mask="url(#mask56_58711_36587)">
<mask id="mask57_58711_36587" style="mask-type:luminance" maskUnits="userSpaceOnUse" x="-1" y="0" width="438" height="437">
<path d="M-0.00195312 99.9479V336.901C-0.00195312 392.104 44.748 436.854 99.9512 436.854H336.899C392.102 436.854 436.852 392.104 436.852 336.901V99.9479C436.852 44.75 392.102 0 336.899 0H99.9512C44.748 0 -0.00195312 44.75 -0.00195312 99.9479Z" fill="white"/>
</mask>
<g mask="url(#mask57_58711_36587)">
<path d="M101.07 59.2285L108.93 53.4629L116.883 59.2285L113.826 49.8796L121.685 44.2025H111.987L108.93 34.8535L105.961 44.2025H96.1797L104.039 49.8796L101.07 59.2285Z" fill="white"/>
</g>
</g>
<mask id="mask58_58711_36587" style="mask-type:luminance" maskUnits="userSpaceOnUse" x="95" y="81" width="27" height="26">
<path d="M95.3164 81.3867H121.983V106.72H95.3164V81.3867Z" fill="white"/>
</mask>
<g mask="url(#mask58_58711_36587)">
<mask id="mask59_58711_36587" style="mask-type:luminance" maskUnits="userSpaceOnUse" x="-1" y="0" width="438" height="437">
<path d="M-0.00195312 99.9499V336.903C-0.00195312 392.106 44.748 436.856 99.9512 436.856H336.899C392.102 436.856 436.852 392.106 436.852 336.903V99.9499C436.852 44.752 392.102 0.00195312 336.899 0.00195312H99.9512C44.748 0.00195312 -0.00195312 44.752 -0.00195312 99.9499Z" fill="white"/>
</mask>
<g mask="url(#mask59_58711_36587)">
<path d="M101.07 106.226L108.93 100.46L116.883 106.226L113.826 96.9655L121.685 91.1999H111.987L108.93 81.9395L105.961 91.1999H96.1797L104.039 96.9655L101.07 106.226Z" fill="white"/>
</g>
</g>
<mask id="mask60_58711_36587" style="mask-type:luminance" maskUnits="userSpaceOnUse" x="95" y="128" width="27" height="26">
<path d="M95.3164 128.053H121.983V153.386H95.3164V128.053Z" fill="white"/>
</mask>
<g mask="url(#mask60_58711_36587)">
<mask id="mask61_58711_36587" style="mask-type:luminance" maskUnits="userSpaceOnUse" x="-1" y="0" width="438" height="437">
<path d="M-0.00195312 99.9479V336.901C-0.00195312 392.104 44.748 436.854 99.9512 436.854H336.899C392.102 436.854 436.852 392.104 436.852 336.901V99.9479C436.852 44.75 392.102 0 336.899 0H99.9512C44.748 0 -0.00195312 44.75 -0.00195312 99.9479Z" fill="white"/>
</mask>
<g mask="url(#mask61_58711_36587)">
<path d="M101.07 153.313L108.93 147.547L116.883 153.313L113.826 143.964L121.685 138.286H111.987L108.93 128.938L105.961 138.286H96.1797L104.039 143.964L101.07 153.313Z" fill="white"/>
</g>
</g>
<mask id="mask62_58711_36587" style="mask-type:luminance" maskUnits="userSpaceOnUse" x="95" y="174" width="27" height="28">
<path d="M95.3164 174.719H121.983V201.385H95.3164V174.719Z" fill="white"/>
</mask>
<g mask="url(#mask62_58711_36587)">
<mask id="mask63_58711_36587" style="mask-type:luminance" maskUnits="userSpaceOnUse" x="-1" y="0" width="438" height="437">
<path d="M-0.00195312 99.9479V336.901C-0.00195312 392.104 44.748 436.854 99.9512 436.854H336.899C392.102 436.854 436.852 392.104 436.852 336.901V99.9479C436.852 44.75 392.102 0 336.899 0H99.9512C44.748 0 -0.00195312 44.75 -0.00195312 99.9479Z" fill="white"/>
</mask>
<g mask="url(#mask63_58711_36587)">
<path d="M101.07 200.308L108.93 194.542L116.883 200.308L113.826 191.048L121.685 185.282H111.987L108.93 176.021L105.961 185.282H96.1797L104.039 191.048L101.07 200.308Z" fill="white"/>
</g>
</g>
<mask id="mask64_58711_36587" style="mask-type:luminance" maskUnits="userSpaceOnUse" x="123" y="10" width="27" height="27">
<path d="M123.316 10.7188H149.983V36.0521H123.316V10.7188Z" fill="white"/>
</mask>
<g mask="url(#mask64_58711_36587)">
<mask id="mask65_58711_36587" style="mask-type:luminance" maskUnits="userSpaceOnUse" x="-1" y="0" width="438" height="437">
<path d="M-0.00195312 99.9479V336.901C-0.00195312 392.104 44.748 436.854 99.9512 436.854H336.899C392.102 436.854 436.852 392.104 436.852 336.901V99.9479C436.852 44.75 392.102 0 336.899 0H99.9512C44.748 0 -0.00195312 44.75 -0.00195312 99.9479Z" fill="white"/>
</mask>
<g mask="url(#mask65_58711_36587)">
<path d="M128.676 35.64L136.624 29.9629L144.488 35.64L141.52 26.3796L149.379 20.6139H139.598L136.624 11.3535L133.566 20.6139H123.785L131.733 26.3796L128.676 35.64Z" fill="white"/>
</g>
</g>
<mask id="mask66_58711_36587" style="mask-type:luminance" maskUnits="userSpaceOnUse" x="123" y="57" width="27" height="28">
<path d="M123.316 57.3867H149.983V84.0534H123.316V57.3867Z" fill="white"/>
</mask>
<g mask="url(#mask66_58711_36587)">
<mask id="mask67_58711_36587" style="mask-type:luminance" maskUnits="userSpaceOnUse" x="-1" y="0" width="438" height="437">
<path d="M-0.00195312 99.9499V336.903C-0.00195312 392.106 44.748 436.856 99.9512 436.856H336.899C392.102 436.856 436.852 392.106 436.852 336.903V99.9499C436.852 44.752 392.102 0.00195312 336.899 0.00195312H99.9512C44.748 0.00195312 -0.00195312 44.752 -0.00195312 99.9499Z" fill="white"/>
</mask>
<g mask="url(#mask67_58711_36587)">
<path d="M128.676 82.7266L136.624 76.9609L144.488 82.7266L141.52 73.4661L149.379 67.7005H139.598L136.624 58.4453L133.566 67.7005H123.785L131.733 73.4661L128.676 82.7266Z" fill="white"/>
</g>
</g>
<mask id="mask68_58711_36587" style="mask-type:luminance" maskUnits="userSpaceOnUse" x="123" y="105" width="27" height="26">
<path d="M123.316 105.387H149.983V130.72H123.316V105.387Z" fill="white"/>
</mask>
<g mask="url(#mask68_58711_36587)">
<mask id="mask69_58711_36587" style="mask-type:luminance" maskUnits="userSpaceOnUse" x="-1" y="0" width="438" height="437">
<path d="M-0.00195312 99.9499V336.903C-0.00195312 392.106 44.748 436.856 99.9512 436.856H336.899C392.102 436.856 436.852 392.106 436.852 336.903V99.9499C436.852 44.752 392.102 0.00195312 336.899 0.00195312H99.9512C44.748 0.00195312 -0.00195312 44.752 -0.00195312 99.9499Z" fill="white"/>
</mask>
<g mask="url(#mask69_58711_36587)">
<path d="M128.676 129.726L136.624 124.049L144.488 129.726L141.52 120.465L149.379 114.7H139.598L136.624 105.439L133.566 114.7H123.785L131.733 120.465L128.676 129.726Z" fill="white"/>
</g>
</g>
<mask id="mask70_58711_36587" style="mask-type:luminance" maskUnits="userSpaceOnUse" x="123" y="152" width="27" height="26">
<path d="M123.316 152.053H149.983V177.386H123.316V152.053Z" fill="white"/>
</mask>
<g mask="url(#mask70_58711_36587)">
<mask id="mask71_58711_36587" style="mask-type:luminance" maskUnits="userSpaceOnUse" x="-1" y="0" width="438" height="437">
<path d="M-0.00195312 99.9479V336.901C-0.00195312 392.104 44.748 436.854 99.9512 436.854H336.899C392.102 436.854 436.852 392.104 436.852 336.901V99.9479C436.852 44.75 392.102 0 336.899 0H99.9512C44.748 0 -0.00195312 44.75 -0.00195312 99.9479Z" fill="white"/>
</mask>
<g mask="url(#mask71_58711_36587)">
<path d="M128.676 176.807L136.624 171.042L144.488 176.807L141.52 167.464L149.379 161.781H139.598L136.624 152.438L133.566 161.781H123.785L131.733 167.464L128.676 176.807Z" fill="white"/>
</g>
</g>
<mask id="mask72_58711_36587" style="mask-type:luminance" maskUnits="userSpaceOnUse" x="123" y="198" width="27" height="27">
<path d="M123.316 198.719H149.983V224.052H123.316V198.719Z" fill="white"/>
</mask>
<g mask="url(#mask72_58711_36587)">
<mask id="mask73_58711_36587" style="mask-type:luminance" maskUnits="userSpaceOnUse" x="-1" y="0" width="438" height="437">
<path d="M-0.00195312 99.9479V336.901C-0.00195312 392.104 44.748 436.854 99.9512 436.854H336.899C392.102 436.854 436.852 392.104 436.852 336.901V99.9479C436.852 44.75 392.102 0 336.899 0H99.9512C44.748 0 -0.00195312 44.75 -0.00195312 99.9479Z" fill="white"/>
</mask>
<g mask="url(#mask73_58711_36587)">
<path d="M128.676 223.808L136.624 218.131L144.488 223.808L141.52 214.548L149.379 208.782H139.598L136.624 199.521L133.566 208.782H123.785L131.733 214.548L128.676 223.808Z" fill="white"/>
</g>
</g>
<mask id="mask74_58711_36587" style="mask-type:luminance" maskUnits="userSpaceOnUse" x="151" y="34" width="27" height="27">
<path d="M151.316 34.7188H177.983V60.0521H151.316V34.7188Z" fill="white"/>
</mask>
<g mask="url(#mask74_58711_36587)">
<mask id="mask75_58711_36587" style="mask-type:luminance" maskUnits="userSpaceOnUse" x="-1" y="0" width="438" height="437">
<path d="M-0.00195312 99.9479V336.901C-0.00195312 392.104 44.748 436.854 99.9512 436.854H336.899C392.102 436.854 436.852 392.104 436.852 336.901V99.9479C436.852 44.75 392.102 0 336.899 0H99.9512C44.748 0 -0.00195312 44.75 -0.00195312 99.9479Z" fill="white"/>
</mask>
<g mask="url(#mask75_58711_36587)">
<path d="M156.367 59.2285L164.227 53.4629L172.18 59.2285L169.122 49.8796L176.982 44.2025H167.284L164.227 34.8535L161.258 44.2025H151.477L159.336 49.8796L156.367 59.2285Z" fill="white"/>
</g>
</g>
<mask id="mask76_58711_36587" style="mask-type:luminance" maskUnits="userSpaceOnUse" x="151" y="81" width="27" height="26">
<path d="M151.316 81.3867H177.983V106.72H151.316V81.3867Z" fill="white"/>
</mask>
<g mask="url(#mask76_58711_36587)">
<mask id="mask77_58711_36587" style="mask-type:luminance" maskUnits="userSpaceOnUse" x="-1" y="0" width="438" height="437">
<path d="M-0.00195312 99.9499V336.903C-0.00195312 392.106 44.748 436.856 99.9512 436.856H336.899C392.102 436.856 436.852 392.106 436.852 336.903V99.9499C436.852 44.752 392.102 0.00195312 336.899 0.00195312H99.9512C44.748 0.00195312 -0.00195312 44.752 -0.00195312 99.9499Z" fill="white"/>
</mask>
<g mask="url(#mask77_58711_36587)">
<path d="M156.367 106.226L164.227 100.46L172.18 106.226L169.122 96.9655L176.982 91.1999H167.284L164.227 81.9395L161.258 91.1999H151.477L159.336 96.9655L156.367 106.226Z" fill="white"/>
</g>
</g>
<mask id="mask78_58711_36587" style="mask-type:luminance" maskUnits="userSpaceOnUse" x="151" y="128" width="27" height="26">
<path d="M151.316 128.053H177.983V153.386H151.316V128.053Z" fill="white"/>
</mask>
<g mask="url(#mask78_58711_36587)">
<mask id="mask79_58711_36587" style="mask-type:luminance" maskUnits="userSpaceOnUse" x="-1" y="0" width="438" height="437">
<path d="M-0.00195312 99.9479V336.901C-0.00195312 392.104 44.748 436.854 99.9512 436.854H336.899C392.102 436.854 436.852 392.104 436.852 336.901V99.9479C436.852 44.75 392.102 0 336.899 0H99.9512C44.748 0 -0.00195312 44.75 -0.00195312 99.9479Z" fill="white"/>
</mask>
<g mask="url(#mask79_58711_36587)">
<path d="M156.367 153.313L164.227 147.547L172.18 153.313L169.122 143.964L176.982 138.286H167.284L164.227 128.938L161.258 138.286H151.477L159.336 143.964L156.367 153.313Z" fill="white"/>
</g>
</g>
<mask id="mask80_58711_36587" style="mask-type:luminance" maskUnits="userSpaceOnUse" x="151" y="174" width="27" height="28">
<path d="M151.316 174.719H177.983V201.385H151.316V174.719Z" fill="white"/>
</mask>
<g mask="url(#mask80_58711_36587)">
<mask id="mask81_58711_36587" style="mask-type:luminance" maskUnits="userSpaceOnUse" x="-1" y="0" width="438" height="437">
<path d="M-0.00195312 99.9479V336.901C-0.00195312 392.104 44.748 436.854 99.9512 436.854H336.899C392.102 436.854 436.852 392.104 436.852 336.901V99.9479C436.852 44.75 392.102 0 336.899 0H99.9512C44.748 0 -0.00195312 44.75 -0.00195312 99.9479Z" fill="white"/>
</mask>
<g mask="url(#mask81_58711_36587)">
<path d="M156.367 200.308L164.227 194.542L172.18 200.308L169.122 191.048L176.982 185.282H167.284L164.227 176.021L161.258 185.282H151.477L159.336 191.048L156.367 200.308Z" fill="white"/>
</g>
</g>
<mask id="mask82_58711_36587" style="mask-type:luminance" maskUnits="userSpaceOnUse" x="177" y="10" width="29" height="27">
<path d="M177.984 10.7188H205.984V36.0521H177.984V10.7188Z" fill="white"/>
</mask>
<g mask="url(#mask82_58711_36587)">
<mask id="mask83_58711_36587" style="mask-type:luminance" maskUnits="userSpaceOnUse" x="0" y="0" width="437" height="437">
<path d="M0 99.9479V336.901C0 392.104 44.75 436.854 99.9531 436.854H336.901C392.104 436.854 436.854 392.104 436.854 336.901V99.9479C436.854 44.75 392.104 0 336.901 0H99.9531C44.75 0 0 44.75 0 99.9479Z" fill="white"/>
</mask>
<g mask="url(#mask83_58711_36587)">
<path d="M183.975 35.64L191.923 29.9629L199.787 35.64L196.818 26.3796L204.678 20.6139H194.896L191.923 11.3535L188.865 20.6139H179.084L187.032 26.3796L183.975 35.64Z" fill="white"/>
</g>
</g>
<mask id="mask84_58711_36587" style="mask-type:luminance" maskUnits="userSpaceOnUse" x="177" y="57" width="29" height="28">
<path d="M177.984 57.3867H205.984V84.0534H177.984V57.3867Z" fill="white"/>
</mask>
<g mask="url(#mask84_58711_36587)">
<mask id="mask85_58711_36587" style="mask-type:luminance" maskUnits="userSpaceOnUse" x="0" y="0" width="437" height="437">
<path d="M0 99.9499V336.903C0 392.106 44.75 436.856 99.9531 436.856H336.901C392.104 436.856 436.854 392.106 436.854 336.903V99.9499C436.854 44.752 392.104 0.00195312 336.901 0.00195312H99.9531C44.75 0.00195312 0 44.752 0 99.9499Z" fill="white"/>
</mask>
<g mask="url(#mask85_58711_36587)">
<path d="M183.975 82.7266L191.923 76.9609L199.787 82.7266L196.818 73.4661L204.678 67.7005H194.896L191.923 58.4453L188.865 67.7005H179.084L187.032 73.4661L183.975 82.7266Z" fill="white"/>
</g>
</g>
<mask id="mask86_58711_36587" style="mask-type:luminance" maskUnits="userSpaceOnUse" x="177" y="105" width="29" height="26">
<path d="M177.984 105.387H205.984V130.72H177.984V105.387Z" fill="white"/>
</mask>
<g mask="url(#mask86_58711_36587)">
<mask id="mask87_58711_36587" style="mask-type:luminance" maskUnits="userSpaceOnUse" x="0" y="0" width="437" height="437">
<path d="M0 99.9499V336.903C0 392.106 44.75 436.856 99.9531 436.856H336.901C392.104 436.856 436.854 392.106 436.854 336.903V99.9499C436.854 44.752 392.104 0.00195312 336.901 0.00195312H99.9531C44.75 0.00195312 0 44.752 0 99.9499Z" fill="white"/>
</mask>
<g mask="url(#mask87_58711_36587)">
<path d="M183.975 129.726L191.923 124.049L199.787 129.726L196.818 120.465L204.678 114.7H194.896L191.923 105.439L188.865 114.7H179.084L187.032 120.465L183.975 129.726Z" fill="white"/>
</g>
</g>
<mask id="mask88_58711_36587" style="mask-type:luminance" maskUnits="userSpaceOnUse" x="177" y="152" width="29" height="26">
<path d="M177.984 152.053H205.984V177.386H177.984V152.053Z" fill="white"/>
</mask>
<g mask="url(#mask88_58711_36587)">
<mask id="mask89_58711_36587" style="mask-type:luminance" maskUnits="userSpaceOnUse" x="0" y="0" width="437" height="437">
<path d="M0 99.9479V336.901C0 392.104 44.75 436.854 99.9531 436.854H336.901C392.104 436.854 436.854 392.104 436.854 336.901V99.9479C436.854 44.75 392.104 0 336.901 0H99.9531C44.75 0 0 44.75 0 99.9479Z" fill="white"/>
</mask>
<g mask="url(#mask89_58711_36587)">
<path d="M183.975 176.807L191.923 171.042L199.787 176.807L196.818 167.464L204.678 161.781H194.896L191.923 152.438L188.865 161.781H179.084L187.032 167.464L183.975 176.807Z" fill="white"/>
</g>
</g>
<mask id="mask90_58711_36587" style="mask-type:luminance" maskUnits="userSpaceOnUse" x="177" y="198" width="29" height="27">
<path d="M177.984 198.719H205.984V224.052H177.984V198.719Z" fill="white"/>
</mask>
<g mask="url(#mask90_58711_36587)">
<mask id="mask91_58711_36587" style="mask-type:luminance" maskUnits="userSpaceOnUse" x="0" y="0" width="437" height="437">
<path d="M0 99.9479V336.901C0 392.104 44.75 436.854 99.9531 436.854H336.901C392.104 436.854 436.854 392.104 436.854 336.901V99.9479C436.854 44.75 392.104 0 336.901 0H99.9531C44.75 0 0 44.75 0 99.9479Z" fill="white"/>
</mask>
<g mask="url(#mask91_58711_36587)">
<path d="M183.975 223.808L191.923 218.131L199.787 223.808L196.818 214.548L204.678 208.782H194.896L191.923 199.521L188.865 208.782H179.084L187.032 214.548L183.975 223.808Z" fill="white"/>
</g>
</g>
</svg>
