<svg width="40" height="49" viewBox="0 0 40 49" fill="none" xmlns="http://www.w3.org/2000/svg">
<path d="M27.9454 3.17188L36.3323 12.0531V45.8264H5.00195V45.9366H36.4393V12.1649L27.9454 3.17188Z" fill="#909090"/>
<path d="M27.841 3.0625H4.89453V45.8273H36.3319V12.0555L27.8395 3.0625" fill="#F4F4F4"/>
<path d="M8.04126 5.375H0V15.8323H25.2941V5.375H8.04126Z" fill="#7A7B7C"/>
<path d="M25.4906 15.6334H0V5.17188H25.4906V15.6334Z" fill="#DD2025"/>
<path d="M5.2621 6.9375H5.21688H4.90486H3.29199V14.2875H4.84155V11.8084L5.18372 11.8283C5.5162 11.8225 5.84555 11.762 6.15898 11.6492C6.43377 11.5531 6.68657 11.4016 6.9021 11.2036C7.12142 11.0149 7.29433 10.7769 7.40707 10.5084C7.55825 10.062 7.61225 9.58763 7.56534 9.118C7.55592 8.78252 7.49802 8.45026 7.3935 8.13188C7.29835 7.90205 7.15713 7.69486 6.97885 7.5235C6.80056 7.35214 6.58911 7.22037 6.35795 7.13656C6.15809 7.06306 5.95159 7.00972 5.74144 6.97731C5.5823 6.95237 5.42161 6.93906 5.26059 6.9375M4.97571 10.4502H4.84155V8.18394H5.13247C5.26087 8.17453 5.3897 8.19456 5.50946 8.24253C5.62921 8.2905 5.73683 8.3652 5.82435 8.46109C6.00571 8.70765 6.10259 9.00776 6.10019 9.31553C6.10019 9.69222 6.10019 10.0337 5.76556 10.2741C5.52448 10.4088 5.25008 10.4694 4.97571 10.4487" fill="#464648"/>
<path d="M10.5094 6.92515C10.3421 6.92515 10.1793 6.9374 10.0648 6.942L9.70601 6.95119H8.53027V14.3012H9.91402C10.4428 14.3159 10.9693 14.2249 11.4636 14.0332C11.8614 13.8729 12.2137 13.6145 12.4886 13.2814C12.7559 12.9452 12.9478 12.5538 13.0508 12.1345C13.1692 11.6596 13.227 11.1712 13.2227 10.6813C13.2519 10.1027 13.2078 9.52275 13.0915 8.95559C12.9812 8.53812 12.7745 8.15336 12.4886 7.83318C12.2643 7.57465 11.9897 7.36611 11.6821 7.22069C11.418 7.09653 11.1402 7.00502 10.8546 6.94812C10.741 6.92907 10.626 6.92035 10.5109 6.92209M10.2366 12.9506H10.0859V8.25887H10.1055C10.4162 8.22255 10.7306 8.27951 11.0099 8.42272C11.2144 8.58859 11.381 8.79757 11.4983 9.03522C11.6248 9.28532 11.6978 9.55983 11.7123 9.84065C11.7259 10.1775 11.7123 10.4532 11.7123 10.6813C11.7184 10.9441 11.7018 11.207 11.6626 11.4668C11.6161 11.7336 11.5302 11.9918 11.4078 12.2325C11.2693 12.4563 11.0821 12.6448 10.8606 12.7837C10.6747 12.9059 10.4544 12.9629 10.2336 12.946" fill="#464648"/>
<path d="M17.8914 6.94531H14.2285V14.2953H15.7781V11.3798H17.7376V10.0139H15.7781V8.31119H17.8884V6.94531" fill="#464648"/>
<path d="M24.4491 31.0164C24.4491 31.0164 29.2546 30.1314 29.2546 31.7989C29.2546 33.4664 26.2776 32.7881 24.4491 31.0164ZM20.8963 31.1435C20.1328 31.3149 19.3888 31.5658 18.676 31.8923L19.2789 30.5142C19.8819 29.136 20.5074 27.2572 20.5074 27.2572C21.2269 28.4873 22.064 29.6424 23.0066 30.7056C22.2958 30.8133 21.5913 30.9605 20.8963 31.1466V31.1435ZM18.994 21.1904C18.994 19.7372 19.4568 19.3406 19.8171 19.3406C20.1773 19.3406 20.5828 19.5167 20.5964 20.7785C20.479 22.0472 20.2175 23.2979 19.8171 24.5055C19.2686 23.4916 18.9847 22.3519 18.9925 21.195L18.994 21.1904ZM11.9864 37.293C10.5122 36.3972 15.0779 33.6395 15.9055 33.5506C15.901 33.5522 13.5299 38.2301 11.9864 37.293ZM30.6579 31.9964C30.6429 31.8433 30.5072 30.1482 27.5377 30.2202C26.3 30.1999 25.0629 30.2885 23.8402 30.4851C22.6558 29.2729 21.6359 27.9057 20.8074 26.4196C21.3293 24.8875 21.6452 23.2908 21.7465 21.6727C21.7028 19.8352 21.2701 18.7817 19.8834 18.797C18.4966 18.8124 18.2946 20.045 18.477 21.8794C18.6557 23.1122 18.9927 24.3158 19.4794 25.4595C19.4794 25.4595 18.8388 27.4854 17.9916 29.5005C17.1445 31.5156 16.5657 32.5722 16.5657 32.5722C15.0926 33.0593 13.7058 33.7831 12.4582 34.7159C11.2161 35.8904 10.7111 36.7923 11.3653 37.6942C11.9291 38.4721 13.9022 38.6482 15.6658 36.3008C16.6029 35.0883 17.4589 33.8135 18.2283 32.4849C18.2283 32.4849 20.9174 31.7361 21.754 31.5309C22.5906 31.3257 23.602 31.1634 23.602 31.1634C23.602 31.1634 26.0575 33.6731 28.4255 33.5843C30.7936 33.4955 30.679 32.1465 30.664 31.9995" fill="#DD2025"/>
<path d="M27.7246 3.17969V12.1727H36.2155L27.7246 3.17969Z" fill="#909090"/>
<path d="M27.8408 3.0625V12.0555H36.3317L27.8408 3.0625Z" fill="#F4F4F4"/>
<path d="M5.14589 6.82812H5.10067H4.78865H3.17578V14.1781H4.73137V11.7006L5.07505 11.7205C5.40752 11.7147 5.73688 11.6542 6.0503 11.5413C6.32508 11.4453 6.57787 11.2937 6.79343 11.0957C7.0111 10.9066 7.18244 10.6686 7.29387 10.4005C7.44505 9.95417 7.49905 9.47979 7.45214 9.01016C7.44273 8.67467 7.38483 8.34241 7.2803 8.02403C7.18515 7.7942 7.04394 7.58701 6.86565 7.41566C6.68736 7.2443 6.47591 7.11252 6.24475 7.02872C6.04397 6.9545 5.83645 6.90064 5.62523 6.86794C5.46609 6.84299 5.3054 6.82969 5.14438 6.82812M4.85949 10.3408H4.72534V8.07456H5.01777C5.14616 8.06516 5.275 8.08518 5.39475 8.13315C5.51451 8.18113 5.62212 8.25582 5.70964 8.35172C5.891 8.59827 5.98789 8.89838 5.98549 9.20616C5.98549 9.58285 5.98549 9.92431 5.65086 10.1647C5.40978 10.2994 5.13537 10.3601 4.861 10.3393" fill="white"/>
<path d="M10.3926 6.80015C10.2253 6.80015 10.0625 6.8124 9.94793 6.817L9.5937 6.82619H8.41797V14.1762H9.80172C10.3305 14.1909 10.857 14.0999 11.3513 13.9082C11.7491 13.7479 12.1014 13.4895 12.3763 13.1564C12.6436 12.8202 12.8355 12.4288 12.9385 12.0095C13.0569 11.5346 13.1147 11.0462 13.1104 10.5563C13.1396 9.97774 13.0955 9.39775 12.9792 8.83059C12.8689 8.41312 12.6622 8.02836 12.3763 7.70819C12.152 7.44965 11.8774 7.24111 11.5698 7.09569C11.3057 6.97153 11.0279 6.88002 10.7423 6.82312C10.6287 6.80407 10.5137 6.79535 10.3986 6.79709M10.1243 12.8256H9.97356V8.13387H9.99315C10.3039 8.09755 10.6183 8.15451 10.8976 8.29772C11.1021 8.46359 11.2687 8.67257 11.3859 8.91022C11.5125 9.16032 11.5854 9.43483 11.6 9.71565C11.6136 10.0525 11.6 10.3282 11.6 10.5563C11.6061 10.8191 11.5895 11.082 11.5502 11.3418C11.5038 11.6086 11.4179 11.8668 11.2955 12.1075C11.157 12.3313 10.9698 12.5198 10.7483 12.6587C10.5624 12.7809 10.3421 12.8379 10.1213 12.821" fill="white"/>
<path d="M17.7752 6.82812H14.1123V14.1781H15.6619V11.2626H17.6214V9.89675H15.6619V8.194H17.7722V6.82812" fill="white"/>
</svg>
