<svg width="712" height="600" viewBox="0 0 712 600" fill="none" xmlns="http://www.w3.org/2000/svg">
<path d="M314.84 41.2156V40.6963L315.833 39.5568L313.43 38.0999L313.975 36.9603L314.648 36.6574L317.098 36.7295L317.258 36.2247L317.082 34.8543L316.602 34.0033L317.05 33.4119L318.604 33.484L320.333 34.4937L322.608 34.5947L324.209 35.6333L325.186 35.7631L332.81 35.3015L335.084 35.9506L337.887 34.2196L340.273 34.2629L341.25 35.9362L340.657 37.0902L341.602 36.2247L341.73 35.8496L341.378 33.9888L341.714 33.4263L344.037 32.6762L345.863 33.282L347.016 33.1955L346.343 33.1234L345.11 32.3012L344.918 31.5655L345.046 26.9929L346.023 25.6081L343.396 23.8483L342.515 22.7231L341.795 22.3192L340.481 22.1029L337.999 22.4779L335.853 23.5165L335.516 23.4877L333.835 21.9731L333.498 20.9345L331.673 20.0546L330.039 20.1844L329.927 20.0113L331.833 17.963L333.755 17.1696L335.596 18.7996L336.91 21.598L337.582 21.6557L338.111 20.7902L337.358 18.6842L336.557 17.386L337.166 17.2562L338.816 17.761L339.937 17.2273L342.771 19.3622L342.948 20.0546L345.702 23.228L346.647 23.4155L347.448 22.853L349.226 20.4585L349.979 20.5162L351.34 21.8288L353.951 26.0841L354.591 26.5457L355.776 26.863L356.753 26.2716H357.618L358.499 27.4256L360.965 28.3632L362.151 28.3921L362.999 28.1468L364.681 27.3246L365.322 26.5457L367.212 26.8342L367.404 27.3246L366.203 27.9449L365.93 28.3199L366.01 28.7094L366.555 29.171L367.804 29.647L368.765 29.2431L369.278 28.6373L369.678 28.5796L372.032 30.1951L371.824 30.4981L372.064 31.7819L372.401 32.0271L375.236 31.652L376.132 31.9838L377.782 32.1136L379.224 31.955L380.505 31.0751L382.218 30.9885L383.948 33.1522L386.142 34.1764L387.648 35.3015L389.538 35.4602L390.21 35.7342L390.114 35.4313L390.819 33.7869L391.892 32.8204L392.789 32.4743L393.798 32.8781L396.377 32.6041L397.706 31.6376L397.305 31.4357L396.312 31.9694L396.136 31.5799L396.505 30.3827L398.106 29.9932L399.291 30.022L401.502 28.4353L401.437 27.3246L402.078 27.3391L402.671 27.9593L402.142 28.7238L399.179 30.9885L399.916 31.7674L397.914 33.6138L397.834 34.1187L398.17 34.8688L398.987 35.5611L399.868 35.2149L400.124 34.5658L401.55 33.5128L403.968 32.8781L402.495 34.5514L403.087 35.3592L404.368 34.8255L404.673 35.3015L403.279 37.119L403.76 38.1864L404.272 38.6192L404.993 38.2009L406.306 38.071L406.547 38.4461L407.748 38.3451L408.677 37.696L409.894 34.912L409.429 34.3639L407.78 34.5514L406.723 34.1475L406.643 33.758L408.452 32.1425L411.399 30.3682L413.337 30.0509L412.937 31.2481L414.026 34.0033L415.259 35.6188L416.044 35.6044L416.717 35.1717L416.669 34.8255L415.531 34.4504L415.628 34.1475L417.037 33.8302L418.799 34.638L420.576 36.8017L417.549 38.7057L416.524 39.7732L414.763 42.3263L414.362 44.2592L412.168 43.5236L411.992 44.591L413.065 46.3797L413.049 47.9231L412.761 49.4377L411.544 51.0821L411.383 50.5773L409.974 51.01L410.038 48.1683L409.766 47.9231L409.221 48.0385L408.533 49.7118L407.043 50.8802L406.338 50.9235L406.098 50.3032L405.249 50.0003L403.439 50.635L402.286 51.486L401.662 52.4525L401.71 52.8996L402.414 53.3901L401.95 54.3277L401.181 54.9047L400.861 56.7078L401.614 58.7128L402.286 59.0446L403.247 58.8282L404 58.0637L403.904 59.2609L403.359 60.9342L402.254 62.4632L401.774 65.3626L401.293 66.1992L399.275 67.4253L396.985 70.0939L395.576 72.2865L395.544 73.4549L393.366 74.7819L392.661 74.7675L393.734 77.5659L394.471 78.5612L395.624 79.4411L397.85 80.1624L401.005 81.9799L402.623 83.307L407.283 85.4851L407.78 85.8745L408.196 87.8507L409.157 88.8605L413.481 90.7213L415.259 92.0483L416.877 93.635L421.473 93.8082L423.315 94.6736L427.351 97.2557L429.417 98.049L430.378 98.0202L432.172 98.5539L433.757 99.2607L435.872 102.29L438.338 104.18V262.202L320.686 262.217L297.511 262.202L281.959 262.303L281.863 115.748V85.4707V76.9601L283.417 77.4217L285.082 78.7199L284.89 81.6625L285.179 81.9799L286.316 80.7105L285.659 76.8014L285.851 76.4408L287.645 76.888L289.887 77.9121L293.475 81.5183L293.619 82.2972L294.58 81.9655L293.395 80.5663L292.754 79.369L292.53 78.1718L292.914 77.4938L293.106 76.4119L295.781 76.8303L296.886 76.4985L298.28 75.2868L295.172 76.1667L293.603 75.258L292.354 73.7866L292.065 73.0366L292.706 72.7481L294.083 72.6182L295.22 71.897L295.285 71.5508L293.331 72.1422L291.249 71.796L289.775 71.0315L288.093 69.589L288.302 68.3052L289.343 66.5166L290.416 65.2328L294.596 62.8671L295.541 58.8571L295.445 58.1214L296.262 55.222L297.495 54.0681L297.655 55.0778L298.263 55.3951L299.945 55.1211L302.075 53.8228L303.821 52.164L303.645 51.5726L302.556 50.2311L301.963 49.7839L301.371 49.6685L301.226 49.3223L301.387 46.4951L301.675 45.7883L302.396 45.4998L302.636 45.9037L303.148 46.12L303.805 45.9902L304.926 45.269L305.375 44.3891L305.214 42.2686L305.391 41.7349L308.081 40.6531L309.683 42.2975L311.22 42.1965L309.747 41.807L309.25 40.1193L309.715 39.0952L309.843 37.8258L309.314 37.4652L310.163 37.1479L312.63 37.8547L314.84 41.2156ZM315.929 30.0509L314.231 28.7815L311.044 27.5987L307.841 25.334L306.544 22.2616L305.615 19.1602L305.743 17.9918L306.111 17.7322L308.53 19.6363L309.25 20.6893L311.541 21.3384L313.975 20.8191L314.92 20.0257L316.746 20.7325L318.78 19.3189L319.308 19.2756L319.661 20.3575L320.558 21.5115L320.638 21.1076L320.045 19.7661L320.253 18.9727L321.406 18.1505L323.953 19.0737L325.875 21.3528L326.019 22.55L321.583 26.7476L321.022 26.8198L318.876 28.0603L315.929 30.0509ZM419.375 65.8386L419.647 65.4347L420.4 65.3915L419.952 67.4109L419.039 67.7283L416.637 67.1513L414.57 67.4253L410.15 66.43L410.759 63.6749L410.631 62.4921L411.031 61.1506L411.527 60.3861L413.882 59.9822L414.442 59.5927L413.946 58.583L415.403 57.4867L416.156 57.53L416.028 58.2656L415.355 58.684L415.996 60.3572L417.646 60.6169L418.222 60.0687L418.046 59.5206L418.366 59.1311L418.943 58.9869L419.455 59.3186L419.583 59.9101L417.87 61.4968L416.957 62.0305L415.884 64.1798L415.916 65.6655L416.412 66.055L418.735 66.3723L419.375 65.8386ZM307.825 28.4498L304.942 27.4544L300.922 28.3776L299.961 28.2045L299.689 27.8151L299.561 27.3967L300.522 25.8245L301.323 26.2572L301.979 26.286L302.62 25.7235L302.572 23.5165L302.283 22.8385L303.709 20.6027L305.246 20.3142L307.809 26.0841L309.042 26.3726L310.339 27.4256L309.939 28.219L307.825 28.4498ZM412.328 22.3769L412.392 21.6413L414.747 18.5688L416.236 15.857L417.021 15.4819L416.172 18.4246L413.337 22.0019L412.953 22.3192L412.328 22.3769ZM344.389 20.6027L343.877 20.1123L343.268 18.5977L342.755 15.9579L344.085 15.4964L344.918 17.963L344.886 19.5209L344.389 20.6027ZM421.906 92.4234L420.913 91.7598L419.824 90.3029L420.144 89.4663L421.137 88.5864L421.922 89.4663L422.578 91.3848L422.13 92.409L421.906 92.4234ZM407.075 60.7178L407.123 60.1409L406.563 59.2609L406.114 59.535L406.386 60.2995H405.65L405.377 59.9966L405.538 58.6551L407.059 57.5733L407.796 57.6887L408.565 58.6263L408.324 59.6504L407.748 60.4871L407.075 60.7178ZM406.755 26.0985V25.3629L408.34 24.2233L409.654 24.1656L411.96 22.55L411.8 23.3434L410.054 24.5407L406.755 26.0985ZM412.697 89.4519L412.248 89.2499L412.601 87.894L413.593 87.2882L414.09 87.4901L413.786 89.2644L412.697 89.4519Z" fill="#1E417C"/>
<path d="M23.6398 262.23L23.9441 261.696L23.9601 259.576L20.0682 255.869L18.0022 252.378L16.1123 248.065L14.2705 247.055L12.7009 243.045L12.5568 242.28L12.749 240.723L11.6759 239.121L9.48176 236.813L8.85714 235.169L8.76105 231.779L9.46574 230.135L9.85012 228.029L11.3396 223.701L12.5408 221.538L15.0072 219.792L15.4396 218.335L15.6799 216.388L15.2955 214.138L16.3045 211.368L16.1123 209.724L15.1674 207.373L13.742 205.555L13.4857 204.185L15.9842 199.627L18.3065 193.611L19.9881 191.361L21.0132 190.842L22.2944 190.64L22.5186 191.044L21.6538 192.515L20.805 196.944L21.9261 199.078L21.3815 202.194L22.1343 202.887L25.93 201.444L26.4105 199.641L27.4675 197.203L30.3344 192.717L30.7828 191.332L35.8598 188.794L37.7657 188.664L41.113 187.164L44.7006 185.923L47.6155 182.822L48.6725 182.086L50.8667 181.235L52.9327 178.437L57.0168 176.72L57.4652 175.653L58.5703 175.105L59.6273 174.989L62.5102 174.066L64.7844 172.797L66.5462 171.455L67.9556 171.729L68.7083 172.407L69.4771 172.595L72.7924 170.993L74.506 171.527L75.0666 172.104L76.2838 172.595L77.5811 172.811L78.6862 172.797L83.539 171.902L86.4058 170.777L90.2176 167.474L92.1235 166.45L92.3637 166.868L93.1004 166.882L98.4978 166.075L100.452 166.176L102.95 165.426L105.545 162.627L106.057 161.372L107.803 160.175L109.693 160.016L113.953 160.968L116.516 161.863L120.055 160.218L127.951 159.18L129.649 158.675L139.066 155.141L141.66 153.929L146.001 150.669L149.684 146.183L152.311 141.091L154.713 138.177L154.505 136.85L155.13 135.61L155.546 135.249L156.683 135.494L157.548 135.076L158.829 134.153L159.758 132.927L160.831 132.451L164.467 129.869L164.996 128.715L164.899 127.82L164.387 127.388L163.01 127.041L162.225 125.988L162.033 122.901L161.008 120.507L161.056 117.319L161.6 115.372L163.026 113.165L165.156 111.347L166.341 110.669L168.551 110.655L167.67 108.881L168.407 107.986L168.887 107.813L169.272 108.145H169.688L171.642 107.539L171.818 107.078L171.37 106.486L171.786 104.914L172.283 104.409L173.196 104.236L174.109 103.327L174.205 102.433L174.573 101.899L175.806 101.495L176.991 102.563L176.623 102.981L175.758 102.894L175.182 104.697L176.287 106.053L177.616 106.803L177.968 108.044L181.3 113.655L185.576 119.815L185.96 121.156L186.281 119.728L185.688 118.689L185.752 117.406L186.713 114.78L185.928 112.617L186.249 111.376L187.354 111.347L189.564 113.756L190.845 114.795L191.47 115.04L191.902 114.824L191.229 114.535L190.429 113.641L189.804 111.391L191.454 109.688L190.877 109.414L189.548 109.775L189.276 109.602L188.427 107.972L186.521 106.111L186.617 104.337L184.663 104.366L183.334 103.284L184.519 103.241L187.081 103.76L188.267 102.144L188.411 101.308L188.234 100.673L186.297 100.327L185.672 99.8219L185.624 98.3939L185.864 97.9323L188.571 97.3986L189.964 98.3794L189.58 99.144L188.683 99.3603L190.541 101.12L191.454 101.293L191.486 100.659L192.735 99.1295L194.849 99.4036L195.778 99.7786L196.242 100.053L196.867 101.394L197.348 101.697L199.141 101.784L200.038 100.86L201.624 101.553L203.417 101.712L206.028 101.38L207.886 102.115L208.879 101.74L207.534 101.625L205.484 100.76L204.058 100.457L203.145 100.399L201.72 100.774H200.647L200.342 100.485L199.91 98.7401L200.855 96.8072L201.56 96.6629L202.392 97.8025L203.69 96.9947L203.562 95.5089L204.074 93.8212L206.028 92.047L205.051 91.6864L204.106 91.9316L202.697 94.0953L201.88 94.1097L200.358 92.9269L199.862 89.7535L201.351 86.681L201.896 86.4646L203.514 87.3013L204.811 86.6954L205.115 86.2915L204.923 83.1902L205.66 83.0315L209.263 84.6904L210.673 85.9165L213.94 87.3445L212.114 85.8876L212.018 85.527L212.851 84.1567L212.482 83.8105L210.993 83.7961L209.263 84.373L209.071 83.4499L209.712 82.6421L210.384 82.3536L210.881 82.6421L211.57 81.5746L211.025 81.4448L208.751 82.8007L208.27 82.7863L207.758 81.5602L208.318 80.9111L209.071 80.5938L210.096 80.8678L210.464 80.7669L211.377 80.1899L211.121 79.6417L212.162 78.9782L213.363 81.416L213.668 81.5891L213.844 80.8967L213.62 79.5119L215.67 80.5938L215.718 81.1708L216.406 81.4737L218.024 81.4016L218.376 81.0986L218.072 80.8678L217.543 80.9111L217.079 80.5361L217.592 80.0889L215.702 78.8772L213.988 78.1127L214.565 77.5069L215.029 77.3626L213.171 74.8816L215.045 72.4726L216.663 71.261L217.576 71.6072L221.067 71.6793L221.243 69.7175L220.907 67.8279L221.131 66.746L221.579 66.4431L223.501 67.2653L221.996 73.0064L222.316 72.7034L223.389 69.3713L225.487 70.3378L225.167 72.0688L225.503 72.6313L226.528 73.2083L228.066 71.6649L228.883 71.1456L229.379 68.3905L230.708 65.9527L230.773 64.9429L229.635 62.3176L228.53 61.683L229.395 61.5099L230.789 61.6974L231.99 62.2455L231.846 63.4572L230.949 63.8034L231.541 65.5632L232.278 65.7507L233.207 66.6018L233.655 65.9671L233.335 65.116L234.024 63.6736L235.721 62.4619L236.955 62.3032L236.138 64.1063L238.108 66.3998L238.668 66.5441L240.462 64.842L241.952 62.4042L241.199 59.577L243.153 58.8701L244.85 58.5095L245.924 59.2885L246.917 60.4424L246.612 61.0483L247.845 62.4186L248.278 61.7984L248.294 61.2791L249.815 61.2214L253.003 62.1446L254.668 64.265L257.055 65.7075L262.26 72.2274L263.012 71.8957L265.959 74.1748L266.28 75.7471L265.447 76.8289L264.214 80.5793L264.39 82.2815L264.278 85.3539L263.365 86.9983L264.198 86.5656L264.678 85.9598L265.287 82.4113L266.152 82.7286L267.465 83.897L267.977 85.426L268.057 83.8682L266.888 82.0362L266.328 80.0168L268.314 77.5646L268.666 77.6223L269.13 79.685L270.78 79.7283L270.956 78.9926L270.268 77.8675L269.723 75.7471L272.302 75.0835L280.374 76.901V85.4116V115.689L280.47 262.23L280.261 363.52L276.658 364.934L272.51 367.112L266.055 369.752L263.092 370.819L258.32 371.656L251.321 374.094L247.669 374.671L240.062 374.988L235.065 374.555L231.237 373.56L229.315 374.411L227.633 374.079L224.751 375.493L219.69 379.243L218.456 379.734L215.99 380.21L210.657 382.864L208.639 384.494L206.332 385.749L200.358 386.629L198.26 387.379L196.659 388.561L195.201 390.235L193.392 394.966L192.575 398.067L190.909 399.12L189.34 400.606L188.747 401.674L188.731 402.178L187.962 402.943L185.352 404.544L182.357 404.342L181.908 404.501L180.867 405.77L180.066 406.318L178.881 406.665L177.712 404.183L176.271 403.635L173.26 404.559L171.258 404.299L168.887 404.385L168.567 404.674L166.085 404.905L164.707 404.659L163.73 405.006L163.106 405.655L162.913 406.607L160.607 406.823L159.935 406.621L160.303 405.914L159.79 404.284L158.781 403.116L158.429 403.001L157.084 403.217L156.123 404.039L154.713 404.4L150.229 402.943L149.156 402.871L146.978 402.828L142.029 403.606H138.746L137.512 404.198L133.14 404.746L130.994 405.813L128.143 405.164L123.835 404.962L120.504 405.886L119.222 407.155L117.092 408.179L116.179 409.117L114.738 411.396L114.498 412.55L112.031 414.728L109.997 415.81L107.739 415.089L104.824 414.843L101.829 416.675L101.477 417.151L102.085 417.757L101.477 418.377L100.067 419.156L97.2645 419.979L96.2395 420.931L95.711 422.186L93.8692 423.426L90.3938 425.099L86.1496 425.792L86.0855 426.181L86.5019 426.585L88.9043 427.061L87.8312 427.609L86.5179 427.393L85.2206 426.47L84.2277 426.138L83.1386 426.196L82.594 426.542L82.1936 427.854L80.8643 426.902L77.3729 425.575L70.7263 425.546L69.8134 426.311L69.413 426.325L66.8345 425.575L64.7044 425.878L62.2379 425.244L58.0097 422.705L53.7816 421.825L52.7405 419.618L51.0108 417.815L48.128 415.161L45.4854 413.574L42.3302 412.088L41.065 411.958L39.7997 412.232L38.9989 413.17L37.029 411.28L37.045 409.65L36.1321 403.823L36.068 400.563L36.8208 397.418L37.5575 397.606L38.6306 399.048L40.6966 399.842L42.3462 399.712L43.7556 399.25L44.3322 398.947L49.2491 392.572L48.4963 387.321L47.199 381.551L47.5994 380.296L48.9288 378.81L48.8647 379.402L47.8717 380.397L47.8397 381.147L48.5444 382.95L49.0248 383.599L49.3452 383.397L49.3131 382.388L50.1139 379.734L49.6014 375.089L50.0018 372.709L49.6975 370.935L49.7936 367.227L49.137 363.982L48.7206 362.958L44.4764 355.99L43.2752 352.759L42.2662 350.653L39.7837 346.759L37.6856 341.926L37.8138 341.436L37.2692 337.772L36.1161 334.195L35.7637 333.921L35.8438 326.925L36.4684 323.65L35.6036 320.924L35.1551 320.275L34.8829 318.602L33.97 316.654L30.2223 312.644L29.7418 311.332L29.6137 308.418L28.2043 305.85L24.8089 301.278L23.4956 300.556L22.1503 298.825L21.1093 294.599L21.3335 293.286L21.91 292.06L21.5737 290.228L20.7249 287.56L18.3545 283.131L15.9522 279.078L12.2365 274.246L6.93524 269.168L5.95827 266.384L6.75907 264.942L6.64696 263.341L6.71102 262.922L7.04735 262.706L7.33564 266.081L7.86416 267.062L8.4087 264.293L10.9872 267.163L11.3396 268.101L11.5478 271.058L11.9482 272.125L13.2295 273.596L13.774 273.697L13.822 273.25L14.9432 272.558L15.6799 272.717L16.9291 271.043L17.0252 268.072L15.776 266.572L13.3896 265.158L11.6279 263.514L10.6189 259.763L8.85714 257.196L9.16144 255.768L10.2185 254.253L10.715 254.585L12.3326 257.21L14.1744 258.638L14.815 260.268L14.3986 262.316L13.9181 262.792L13.9662 264.264L14.4787 265.605L15.3596 265.677L15.9522 265.1L17.3455 262.677L18.2584 266.745L18.7389 267.855L20.6608 270.178L22.839 268.634L23.3034 267.235L22.7749 266.557L22.4386 265.331L23.0312 261.97L23.6398 262.23ZM5.65397 264.725L5.14147 264.35L2.56292 260.831L1.26564 258.479L0.464844 255.768L0.576955 254.253L1.26564 253.359L2.13049 253.546L1.77814 254.311L1.84221 254.787L3.89223 260.066L5.65397 262.951L6.00632 264.091L5.65397 264.725ZM202.409 86.205L202.264 85.7578L201.335 84.9789L201.48 84.2576L201.912 83.6374L203.049 83.2191L204.555 85.4837L202.409 86.205ZM43.2592 175.292L42.6666 174.845L42.2341 175.22L42.106 175.09L42.122 174.21L43.8998 172.046L44.4764 171.729L44.6846 171.83L44.9248 172.97L44.8447 173.475L43.8357 174.888L43.2592 175.292ZM213.123 73.367L212.21 72.9198L212.322 71.6937L212.723 70.7705L213.54 70.006L214.34 70.8138L213.94 72.5736L213.315 72.8477L213.123 73.367Z" fill="#1E417C"/>
<path d="M630.338 442.873L628.32 441.95L626.013 438.848L625.549 437.709L625.581 435.055L626.414 431.362L630.978 428.333L633.012 429.371L633.925 430.338L635.527 430.871L636.6 431.492L635.815 432.126L634.197 431.925L632.9 432.487L632.067 433.526L631.074 437.117L631.459 441.084L631.331 441.647L630.338 442.873Z" fill="#1E417C"/>
<path d="M648.193 473.841L617.362 459.849L615.793 459.733L617.202 457.541L617.378 456.142L615.777 453.199L614.672 451.929L613.775 445.554L611.885 444.472L608.97 443.347L607.48 443.866L605.03 443.448L603.412 443.693L601.795 445.51L600.225 445.64L597.31 446.563L594.972 446.419L591.096 445.323L589.543 444.227L587.749 443.981L586.66 444.111L586.051 444.688L584.225 445.395L580.622 445.107L575.657 444.256L574.44 443.794L572.39 442.02L571.124 441.125L570.692 441.082L569.379 441.342L567.857 442.092L566.336 441.962L565.743 441.529H563.613L561.435 442.034L561.115 442.38L560.506 444.371L560.778 446.333L557.703 447.112L557.031 446.953L554.884 445.828L551.233 441.976L550.336 440.13L549.936 439.755L548.943 439.467L547.181 438.053L545.835 436.38L542.857 434.952L540.182 433.12L538.949 432.716L538.228 432.86L537.155 432.139L536.867 431.735L537.267 430.639L536.594 429.701L535.185 429.384L533.888 428.662L533.087 427.076L532.622 424.696L533.039 422.806L533.055 421.609L532.831 421.306L529.131 419.488L526.536 419.33L524.486 418.58L524.246 418.06L523.157 417.411L522.164 417.714L521.86 418.104L521.299 420.339L520.514 421.234L519.041 420.974L518.448 420.354L518.496 419.979L517.568 417.743L516.062 416.488L515.982 413.776L513.564 410.112L512.17 409.247L510.168 408.425L507.446 408.929L504.867 408.324L503.329 408.857L502.352 410.069L501.504 410.473L501.199 410.098L499.261 409.03L496.411 407.833L493.416 407.631L492.887 407.501L492.07 406.78L492.15 314.895L494.216 314.88L529.131 314.895H556.214H578.284H630.383L631.712 314.303L633.746 312.01L639.304 307.754L641.226 307.278L641.674 307.351L641.947 307.87L643.468 308.274L648.817 307.855L651.316 306.99L653.67 306.73L654.151 306.831L655.48 308.072L656.681 308.807L659.58 308.88L662.207 308.389L666.595 310.192L671.031 313.64L671.239 316.352L671.944 317.765L672.329 317.924L673.177 317.736L674.01 316.943L675.58 314.058L678.575 312.861L679.215 313.971L680.288 314.433L683.62 312.991L684.18 310.091L682.611 306.889L684.292 305.692L686.246 304.826L689.706 303.802L690.41 303.369L690.763 302.562L691.756 301.811L692.524 301.912L693.662 302.965L696.512 303.528L699.764 303.225L702.63 303.398L703.96 301.811L706.282 301.422L708.188 300.758L709.485 299.806L710.734 300.831L710.975 301.999L710.414 305.85L710.734 307.87L711.535 308.851L711.215 312.428L708.476 315.659L706.554 320.737L707.035 321.992L705.097 331.93L704.248 334.844L701.013 343.037L700.789 347.87L701.061 348.749L701.67 348.822L701.974 349.932L700.196 355.298L699.86 357.419L698.034 362.857L696.496 365.684L692.973 369.694L692.172 371.569L692.685 374.007L692.476 376.589L689.449 378.897L688.152 380.253L685.478 381.753L685.333 382.547L685.766 383.383L682.435 384.436L679.984 385.576L677.502 388.937L675.852 392.615L675.468 392.904L674.587 392.961L673.77 393.553L673.594 394.404L674.331 394.995L673.77 397L671.784 399.395L671.031 404.443L670.615 405.799L669.99 406.232L668.981 406.131L667.62 406.621L668.581 406.852L669.286 407.444L667.876 409.506L666.307 410.559L664.753 412.622L663.119 416.906L663.824 417.685L662.959 421.234L661.838 421.868L661.486 422.965L662.094 424.566L663.312 425.705L663.039 426.975L662.575 427.335L661.998 426.773L662.207 426.383L661.966 425.503L661.502 425.46L660.397 426.08L660.269 426.715L660.717 427.696L659.74 428.677L657.882 429.6L656.937 431.201L656.841 432.009L655.56 435.355L654.679 436.639L651.316 443.275L650.883 446.578L650.851 450.761L649.842 451.944L648.913 456.589L647.92 459.834L646.815 462.344L646.895 465.186L648.625 466.989L648.849 468.345L648.833 468.994L648.321 468.85L647.584 469.34L647.616 471.619L648.193 473.841ZM632.93 441.645L633.058 441.068L632.673 437.101L633.666 433.524L634.499 432.471L635.812 431.908L637.43 432.11L638.199 431.49L637.126 430.869L635.524 430.35L634.611 429.369L632.577 428.331L628.013 431.36L627.18 435.053L627.148 437.721L627.612 438.861L629.935 441.962L630.351 442.279L632.097 442.813L632.93 441.645Z" fill="#1E417C"/>
<path d="M408.885 410.078L407.155 412.588L405.746 413.151L404.256 415.444L402.463 416.454L401.389 418.373L400.156 421.733L400.589 421.921L401.357 421.834L403.68 420.363L403.92 421.358L403.648 425.094L402.815 425.412L402.35 424.618L400.893 423.161L399.852 422.585L398.763 422.729L397.994 424.359L397.369 424.344L396.713 423.205L394.423 420.507L391.844 418.113L390.483 417.132L389.922 416.973L388.128 417.536L388.817 415.819L389.81 414.536L389.89 415.718L392.164 417.911L393.077 418.473L394.807 417.969L393.045 417.334L392.821 416.743L392.725 416.252L393.013 415.675L392.244 411.78L390.915 408.593L390.707 406.458L389.538 404.828L386.751 402L383.404 399.548L383.884 397.745L383.708 396.447L382.843 394.226L381.081 390.951L379.095 390.259L375.876 390.72L374.499 391.427L373.442 390.36L373.458 389.884L372.177 386.811L370.062 382.484L371.456 382.57L372.145 383.147L372.385 384.085L373.57 382.628L373.922 381.676L373.57 380.032L372.337 378.459L371.248 377.608L370.751 377.536L367.996 378.315L366.875 379.282L366.219 379.166L366.251 377.666L366.747 376.642L367.628 376.959L367.916 376.526L365.754 373.815L364.008 372.891L362.919 372.011L363.112 371.333L361.926 371.002L361.494 371.319L361.238 372.257L359.812 373.064L354.271 372.718L353.742 372.603L352.525 371.42L350.924 370.901L348.473 368.809L347.64 368.405L344.149 368.03L342.483 368.333L341.186 369.415L339.68 369.891L338.591 369.963L337.39 369.689L334.459 367.02L329.975 364.092L322.944 360.818L319.18 359.548L318.604 359.606L316.826 360.904L313.895 361.929L313.014 362.03L303.789 361.409L301.803 361.467L298.103 361.727L296.406 362.116L285.867 362.924L281.863 363.515L281.959 262.283L297.511 262.182L320.686 262.196L438.338 262.182H490.502L490.55 314.904L490.469 406.789L490.021 406.256L489.957 484.726L487.923 484.539L486.546 484.914L485.28 484.87L482.35 483.457L479.322 480.716L477.272 476.98L475.238 474.196L473.989 473.403L473.012 473.446L469.889 469.667L468.8 467.705L469.345 466.695L469.297 465.902L468.48 464.07L468.8 462.267L470.033 461.344L470.706 459.786L470.69 457.175L470.049 455.112L467.006 448.434L462.202 442.664L459.03 439.591L457.173 438.235L458.021 438.481L462.762 442.217L465.901 446.097L467.231 448.563L467.038 447.222L466.238 445.188L465.581 444.308L463.515 442.159L457.461 436.937L457.429 435.235L458.502 434.846L459.815 435.87L459.655 438.279L459.927 438.61L461.561 438.452L462.009 436.778L462.218 434.225L461.929 432.393L459.431 431.283L458.085 432.48L457.125 432.74L456.1 432.696L455.219 433.042L454.866 433.821L455.042 434.326L456.035 434.615L456.372 434.99L455.587 435.899L450.894 435.538L449.661 435.999L448.62 437.139L447.675 437.73L441.397 438.033L439.972 437.067L441.013 435.408L443.319 434.37L445.978 431.787L446.474 429.263L446.266 428.6L446.442 427.388L447.291 425.715L446.714 422.628L447.115 420.926L446.97 420.089L445.913 418.445L443.127 415.372L442.166 412.256L439.956 408.867L439.539 408.953L438.482 411.175L438.947 412.011L438.69 412.805L437.041 414.334L436.432 416.223L436.192 419.743L433.998 426.176L433.982 427.763L432.7 428.701L430.234 427.691L428.969 427.402L428.296 427.518L425.029 428.628L424.292 429.71L423.876 429.956L421.457 429.624L420.112 430.691L419.119 431.023L418.558 430.778L418.062 430.028L418.703 429.09L419.888 428.037L420.304 427.128L420.592 424.445L421.409 423.363L422.867 423.883L424.356 423.522L425.894 423.436L426.198 423.868L427.687 424.474L428.552 424.056L428.905 423.262L429.673 418.733L429.369 415.199L429.577 411.694L428.857 409.314L429.113 408.996H429.962L430.474 408.102L431.355 405.477L431.499 404.121L434.542 400.616L436.496 398.885L437.233 398.697L437.521 398.019L436.961 395.812L435.199 392.769L435.727 391.355L436.72 390.72L437.649 390.389L438.77 390.36L439.251 390.014L439.123 389.061L438.594 388.153L437.649 387.792L436.64 383.667L435.727 381.835L435.247 379.599L434.318 378.964L434.174 381.979L434.574 382.181L434.975 382.816L435.087 384.792L434.51 387.475L433.597 387.518L431.387 388.153L429.529 389.97L427.736 393.187L427.639 394.73L427.319 395.596L424.693 400.024L423.507 400.919L421.393 400.991L420.16 400.313L419.023 401.842L419.343 402.044L418.671 402.678L413.738 405.03L410.839 407.078L409.846 408.001L409.75 408.607L408.885 410.078ZM436.8 439.187L439.443 439.836L440.292 440.875L440.308 441.885L439.043 442.909L436.977 442L434.19 441.813L431.739 442.851L431.419 443.255L431.643 444.582L431.147 445.029L428.873 446.039L427.175 444.481L424.885 444.092L424.244 444.279L424.052 444.986L423.555 445.246L421.489 445.073L419.199 445.39L415.932 445.477L415.371 444.64L412.905 442.794L412.825 442.116L413.642 439.952L420.016 438.25L421.377 438.235L423.011 437.889L426.438 436.519L430.074 436.793L431.099 437.673L431.083 439.231L431.323 439.519L432.989 439.721L434.702 440.601L435.727 440.673L436.8 439.187Z" fill="#1E417C"/>
<path d="M641.258 479.667L639.144 480.605L636.582 480.836L628.173 480.879L625.258 481.254L622.392 481.153L619.172 481.355L613.166 482.956L609.611 484.543L605.815 487.139L602.884 489.606L600.114 492.087L595.885 496.515L594.22 497.842L590.328 498.29L586.516 499.155L585.155 498.766L583.569 498.852L582.848 499.126L582.24 499.948L584.178 503.136L586.18 501.867L586.548 500.655L587.173 500.915L587.429 506.339L586.404 507.507L585.859 507.752L585.043 507.406L584.562 506.757L583.297 503.771L581.471 501.708L580.126 501.189L579.277 501.434L579.037 502.054L577.323 501.925L575.914 499.357L576.33 498.751L575.785 497.828L574.248 497.612L573.047 498.333L572.166 498.463L571.445 498.088L568.835 495.708L569.123 493.847L570.66 493.27L571.269 492.303L570.052 489.793L569.331 489.375L566.048 489.591L565.311 491.813L562.14 494.756L560.602 495.03L559.898 494.929L557.463 492.375H559.529L561.355 491.64L563.902 487.601L563.341 485.74L561.195 482.754L560.186 482.293L558.568 482.956L556.246 484.961L553.395 486.88L550.945 487.11L550.641 487.384L550.737 488.106L553.139 488.481L554.484 488.062L555.285 487.529L556.486 487.832L556.743 488.409L556.55 489.289L555.654 490.529L555.221 490.818L553.732 490.5L551.057 491.02L550.496 491.322L545.259 494.51L541.448 498.737L539.526 499.213L538.885 499.617L538.501 500.497L536.242 501.997L535.586 501.838L534.513 500.698L533.536 500.179L529.932 499.141L529.115 498.391L527.642 497.568L526.313 497.41L523.382 496.342L518.721 493.097L516.014 492.13L514.092 492.549L513.772 492.88L512.203 492.851L510.505 491.972L508.807 490.702L506.309 490.212L505.092 490.197L503.842 490.515L502.817 491.294V491.914L503.346 492.851L501.969 493.198L499.934 492.303L498.429 490.659L495.402 488.106L493.848 487.183L491.494 486.202L491.558 407.731L492.007 408.265L492.823 408.986L493.352 409.116L496.347 409.318L499.198 410.515L501.136 411.583L501.44 411.958L502.289 411.554L503.266 410.342L504.803 409.808L507.382 410.414L510.105 409.909L512.107 410.732L513.5 411.597L515.918 415.261L515.998 417.973L517.504 419.228L518.433 421.464L518.385 421.839L518.977 422.459L520.451 422.718L521.236 421.824L521.796 419.588L522.1 419.199L523.093 418.896L524.182 419.545L524.423 420.064L526.473 420.814L529.067 420.973L532.767 422.791L532.991 423.094L532.975 424.291L532.559 426.18L533.023 428.56L533.824 430.147L535.121 430.868L536.531 431.186L537.203 432.123L536.803 433.22L537.091 433.624L538.164 434.345L538.885 434.201L540.118 434.604L542.793 436.436L545.772 437.864L547.117 439.538L548.879 440.951L549.872 441.24L550.272 441.615L551.169 443.461L554.821 447.313L556.967 448.438L557.64 448.596L560.715 447.817L560.442 445.856L561.051 443.865L561.371 443.519L563.549 443.014H565.679L566.272 443.447L567.794 443.577L569.315 442.827L570.628 442.567L571.061 442.61L572.326 443.504L574.376 445.279L575.593 445.74L580.558 446.591L584.162 446.88L585.988 446.173L586.596 445.596L587.685 445.466L589.479 445.711L591.033 446.808L594.908 447.904L597.247 448.048L600.162 447.125L601.731 446.995L603.349 445.178L604.966 444.933L607.417 445.351L608.906 444.832L611.821 445.957L613.711 447.039L614.608 453.414L615.713 454.684L617.315 457.626L617.138 459.025L615.729 461.218L617.298 461.333L648.129 475.325L646.768 476.104L644.782 476.263L642.828 478.946L641.258 479.667ZM567.842 493.443L566.592 493.01L566.368 492.101L566.801 490.818L569.587 491.337L570.292 492.087L570.1 492.375L568.979 492.39L567.842 493.443ZM567.81 496.212L567.217 495.563L566.368 495.232L563.678 495.433L563.726 495.217L564.943 494.15L566.56 493.861L567.025 494.135L567.954 496.14L567.81 496.212Z" fill="#1E417C"/>
<path d="M648.193 202.162V202.422L649.266 203.345L648.369 200.561L647.232 198.455L647.248 197.662L647.921 196.061L648.609 195.253L649.378 195.065L649.987 195.296L651.316 197.143L652.101 199.148L654.215 199.927L656.97 201.629L658.94 202.436L657.931 200.287L657.915 199.018L658.395 198.138L659.66 198.34L660.894 199.999L660.381 201.066L660.509 201.888L662.863 204.903L661.758 211.639L662.735 213.457L662.527 215.88L663.68 217.986L665.09 218.679L666.387 218.852L666.883 219.876L668.069 220.684L668.901 222.847L670.135 223.453H670.711L671.528 223.973L673.37 226.021L674.555 226.338L675.484 227.002L675.212 227.391L675.324 227.867L675.804 228.04L676.653 227.29L676.685 226.367L677.102 226.006L677.87 226.208L679.68 228.084L682.211 230.118L683.54 233.68L685.654 236.796L688.185 238.542L690.635 239.407L691.5 240.301L692.012 241.412L692.188 243.475L695.039 247.73L697.426 248.379L699.139 248.48L699.812 251.019L699.604 252.548L698.899 253.197L698.995 255.217L699.38 256.183L699.956 256.673L700.485 256.803L701.414 258.852L703.912 259.876L703.976 260.294L703.143 261.924L702.006 266.107L702.326 267.232L702.759 272.382L703.239 273.435L703.48 279.594L702.407 279.897L701.35 281.239L701.878 283.633L703.784 284.96L705.193 286.547L706.282 289.908L707.756 291.769L708.268 293.024L707.884 295.375L708.749 297.337L709.55 298.346L708.252 299.298L706.346 299.962L704.024 300.351L702.695 301.938L699.828 301.765L696.577 302.068L693.726 301.505L692.589 300.452L691.82 300.351L690.827 301.102L690.475 301.909L689.77 302.342L686.311 303.366L684.357 304.232L682.675 305.429L684.245 308.631L683.684 311.531L680.353 312.973L679.28 312.512L678.639 311.401L675.644 312.598L674.075 315.483L673.242 316.276L672.393 316.464L672.008 316.305L671.304 314.892L671.096 312.18L666.659 308.732L662.271 306.929L659.644 307.42L656.745 307.347L655.544 306.612L654.215 305.371L653.734 305.27L651.38 305.53L648.882 306.395L643.532 306.814L642.011 306.41L641.739 305.891L641.29 305.818L639.368 306.294L633.811 310.55L631.777 312.843L630.447 313.435H578.348H556.214H529.147L494.233 313.42L492.151 313.464L492.119 260.756H439.955V102.733L443.334 105.214L445 105.791L448.411 106.527L451.07 106.382L451.903 106.93L454.61 107.955L457.524 108.33L459.799 111.171L460.167 113.277L461.048 114.806L461.881 115.542L463.21 115.96L464.956 116.148L466.669 117.172L468.079 118.456L471.522 119.35L472.707 119.985L474.389 121.341L475.078 121.6L477.048 121.701L481.644 120.951L484.031 120.158L485.52 119.437L487.922 117.763L489.236 117.345L490.149 115.845L491.126 112.441L491.382 110.003L495.514 105.171L497.116 101.911L497.628 99.545L499.566 94.9579L499.118 92.2316L500.159 86.2598L503.186 80.0139L503.73 78.0377L502.016 73.7969L501.232 69.2531L501.488 67.926L502.481 65.6325L502.609 63.8438L502.225 62.5888L500.479 60.7136L500.335 58.7807L501.6 54.0494L504.147 49.5922L503.954 48.8854L503.154 48.0776L502.369 45.308L502.513 44.8464L502.737 44.4858L504.515 43.4761L505.188 42.7404L506.036 40.62L507.077 40.9085L507.638 41.774L507.654 43.0578L508.391 44.0675L508.535 43.3895L507.558 40.822L506.789 40.3171L504.675 37.461L505.188 37.0859L504.851 36.8552L503.714 36.783L503.57 37.7206L504.115 38.3842L503.106 38.6727L502.497 38.4274L502.529 38.0668L504.163 34.879L505.684 32.9893L505.412 32.4412L506.197 30.4217L506.949 29.412L507.702 29.1091L508.134 31.0131L509.992 30.6814L510.136 30.2919L508.727 29.0514L508.663 28.4023L509.047 26.5559L511.722 19.632L512.347 16.098L511.994 13.314L512.154 12.9245L512.795 12.5062L515.55 12.0735L516.527 10.9051L517.312 9.13085L518.609 9.08757L520.242 9.77996L519.698 10.53L518.545 11.4821L518.417 12.939L519.522 11.6696L520.146 11.7129L522.501 13.516L523.253 15.0017L524.599 19.935L524.15 21.839L524.631 25.0846L524.503 26.9454L526.393 28.4455L527.594 28.5321L528.731 28.0705L529.227 28.2436L530.397 29.3976L528.715 31.8354L528.362 33.1768L528.282 34.9222L529.179 35.153L529.724 35.0232L531.261 35.7012L531.742 36.1772L531.806 37.8505L532.575 38.5717L533.231 38.6294L534.416 39.4372L533.455 41.4422L533.231 43.1299L533.984 43.4761L535.698 43.303L535.874 43.6203L535.602 47.1255L536.002 50.4144L536.13 50.9914L536.819 51.5828L537.267 52.4483L537.123 53.9484L536.146 57.6412L537.379 60.5261L538.853 61.9253L539.077 64.5218L539.75 66.671L540.535 68.1856L541.127 68.7626L542.376 69.3685L544.538 69.3829L547.005 67.6519L551.906 65.6325L552.626 64.1756L553.315 64.3198L554.404 65.7911L554.196 67.3202L555.029 69.354L556.118 70.5224L558.745 71.4312L559.93 71.5033L561.019 73.6815L565.311 75.4268L567.217 76.7683L567.105 77.7204L565.791 79.812L565.856 80.764L566.544 81.7881L566.768 82.9854L566.064 84.8462L567.041 86.5916L567.986 89.4909V92.4192L568.867 93.2125L569.779 95.131L569.491 98.4487L568.835 99.2709L568.722 100.944L568.883 101.42L569.795 101.939L575.737 108.618L576.314 108.185L577.931 107.94L578.348 108.402L577.003 110.695L577.083 111.2L578.316 113.104L579.677 115.975L580.606 119.047L580.926 121.312L580.606 122.87L580.862 124.543L580.75 125.625L579.149 128.683L579.277 130.255L582.8 134.41L584.914 135.131L584.786 136.963L584.002 138.607L583.777 140.352L583.937 140.901L584.946 142.112L586.468 143.18L586.9 143.93L588.934 145.127L590.488 145.791L592.394 145.834L594.524 147.752L595.709 147.796L597.775 148.401L598.944 149.397L600.93 149.772L604.037 149.555L604.294 149.065L603.509 147.839L604.502 148.863L606.183 151.589L606.872 154.763L607.288 155.527L608.169 156.378L609.114 156.58L609.915 156.407L609.643 155.066L609.771 154.489L610.828 154.503L611.34 154.994L611.549 156.826L612.382 157.532L613.423 157.936L615.601 157.85L617.747 158.412L619.124 159.912L618.564 160.114L618.708 160.562L619.733 161.701L621.11 162.711L622.023 162.35L622.087 161.369L621.543 160.922L621.783 160.345L622.984 160.749L625.611 162.869L627.276 163.144L627.869 163.879L628.974 166.678L629.631 166.836L630.159 168.163L629.182 167.947L628.349 167.182L627.645 166.88L626.796 167.197L625.515 168.625L626.588 171.221L628.686 173.198L629.935 173.977L631.793 174.568L634.099 176.183L635.044 177.265L634.868 178.506L635.476 180.583L636.341 181.247L637.014 183.237L638.007 184.809L639 185.661L638.776 188.848L640.361 193.955L641.562 196.58L642.667 198.008L643.42 198.556L643.468 200.273L642.94 200.994L644.109 200.46L645.038 199.768L645.47 199.119L648.193 202.162ZM702.166 257.236L701.414 257.092L700.709 256.241L699.764 253.139L700.693 251.091L701.862 249.346L701.846 247.86L701.606 247.485L702.326 246.129L704.136 244.816L704.937 243.403L705.081 242.638L704.905 242.047L703.864 240.518L703.528 240.345L704.184 239.248L705.674 238.368L705.818 241.888L706.218 242.681L707.051 243.172L707.227 243.778L702.983 252.779L702.214 255.043L702.471 256.443L702.166 257.236ZM459.911 106.079L459.735 105.127L460.199 103.468L461.192 102.228L462.649 101.233L465.66 100.901L466.605 100.439L469.953 100.93L470.049 101.882L469.296 102.199L468.159 102.415L467.406 101.867L465.805 102.444L466.061 102.949L464.988 104.55L463.05 105.214L460.535 105.632L459.911 106.079ZM669.926 222.761L668.982 221.968L668.309 220.626L667.14 219.674L666.467 218.318L666.307 217.135L667.076 216.977L669.51 218.361L669.846 218.866L670.967 220.799L671.176 222.126L670.711 222.631L669.926 222.761ZM584.082 134.381L582.88 133.962L582.544 132.462L581.775 131.525L580.974 131.178L580.542 130.457L581.263 130.298L583.729 131.337L585.171 133.212L584.658 134.107L584.082 134.381ZM707.82 290.99L707.516 290.384L707.612 288.884L708.284 285.451L708.957 285.306L710.158 285.494L709.005 288.927L708.637 290.903L707.82 290.99ZM708.14 284.528L706.987 281.614V279.248L708.477 278.512L708.861 278.772L707.964 281.83L708.14 284.528ZM512.683 10.054L511.594 9.26067L511.514 8.26536L512.555 7.6451L513.276 7.51528L514.124 8.66926L514.012 9.26067L513.179 9.44819L512.683 10.054ZM514.365 2.06273L513.163 1.60114L512.795 1.08185L513.468 0.158672L514.429 0L515.005 0.24522L515.406 0.879908L514.365 2.06273ZM464.78 112.34L464.283 111.402L466.061 109.902L466.958 110.479L467.246 111.676L465.196 111.633L464.78 112.34Z" fill="#1E417C"/>
<path d="M593.37 599.351L591.928 600L591.608 599.351L589.366 599.034L587.86 598.009L586.387 597.721L582.591 597.548L582.223 597.317L581.967 596.697L581.47 596.567L579.372 597.144L578.123 596.769L576.281 594.158L577.306 593.509L579.228 593.769L580.173 594.23L581.486 594.475L581.518 593.062L580.285 592.139L579.612 593.235L574.984 592.701L574.599 592.456L572.693 588.951L570.403 585.662L570.035 585.33L568.946 585.373L568.049 584.075L567.408 582.849L566.207 578.853L565.454 578.118L564.573 577.887L563.484 571.569L563.612 570.372L563.933 569.997L564.397 570.747L567.456 572.853L568.209 575.997L569.65 572.362L568.737 571.785L568.017 571.843L564.926 568.785L564.589 567.92L564.621 566.65L564.365 565.698L563.26 563.664L561.002 561.746L559.256 558.962L554.579 548.619L554.74 547.884L554.259 545.691L553.731 544.797L553.41 542.72L554.82 541.566L554.852 539.171L555.909 538.536L559.801 538.955L562.075 540.469L564.83 540.065L565.887 540.873L569.426 541.912L575.224 545.013L580.797 547.379L584.481 547.682L586.115 547.234L587.62 547.999L587.54 547.278L588.901 545.98L590.135 545.59L591.048 545.85L591.432 547.22L592.345 547.638L593.802 547.61L593.29 546.946L592.073 546.701L591.72 546.398L591.64 545.403L592.425 544.753L595.084 543.672L597.342 544.35L600.977 543.686L602.034 544.537L603.284 543.859L605.029 541.133L605.414 540.916L606.519 540.671L606.935 541.219L608.745 541.955L609.354 541.926L610.459 541.349L611.019 540.498L611.324 539.243L611.676 538.897L612.413 538.926L613.55 539.402L616.016 541.046L616.929 542.128L617.89 544.075L616.785 547.624L616.913 548.691L617.634 549.542L617.698 551.115L616.945 553.596L617.057 555.37L617.65 556.913L616.785 561.125L617.362 565.741L618.419 567.285L618.515 569.679L617.602 570.848L616.977 570.372L616.897 569.867L617.362 569.333L617.57 567.948L616.337 564.962L615.584 563.852L613.566 567.458L612.252 576.012L611.468 576.733L611.211 577.945L611.404 580.137L610.154 581.306L609.45 583.441L609.69 583.787L610.443 583.743L610.122 583.123L610.635 582.777L611.74 583.383L612.188 584.176L612.285 585.662L611.628 586.051L611.356 587.912L612.285 589.802L612.124 591.013L611.692 591.042L610.459 590.061L609.209 590.552L608.553 591.432L606.951 589.643L605.814 587.552L605.59 586.527L606.551 584.984L607.111 584.84L607.528 585.186L607.608 585.705L607.336 586.21L608.409 587.249L609.898 587.148L610.443 586.729L609.161 584.71L605.093 582.474L604.501 582.561L603.54 583.21L603.876 584.667L604.421 585.734L603.956 586.571L602.243 587.076L601.842 586.181L602.179 585.994L601.922 583.83L600.353 582.921L600.897 584.162L600.513 586.383L599.504 587.494L599.039 589.052L599.392 590.552L599.136 591.951L598.543 592.297L597.934 592.225L596.541 591.417L595.276 590.076L595.035 588.72L594.667 588.59L594.299 589.124L594.283 590.566L596.477 592.369L595.772 593.956L594.859 595.24L593.994 597.505L593.738 599.062L593.37 599.351ZM614.447 529.189L612.877 528.41L612.429 526.881L612.525 526.448L610.539 523.088L608.056 521.097L610.17 518.587L611.66 518.01L615.103 522.15L615.744 522.568L617.073 522.886L617.217 523.477L618.034 527.501L617.97 528.05L617.49 528.453L615.295 528.814L614.447 529.189ZM541.302 526.376L540.694 525.972L540.47 524.919L540.79 524.703V523.289L539.797 522.121L539.845 521.01L540.149 517.736L541.511 516.827L541.719 516.293L541.543 515.125L542.279 514.938L543.833 515.789L544.554 516.726L544.794 520.029L545.21 522.15L545.05 523.261L544.522 524.328L541.302 526.376ZM618.098 533.877L618.05 532.882L617.746 532.478L613.71 532.94L612.156 532.334L612.188 531.54L613.342 530.689L614.527 530.632L615.744 530.963L618.178 529.853L620.549 532.391L620.517 532.608L619.315 533.026L618.098 533.877ZM600.08 597.101L598.975 596.639L597.87 596.855L596.957 595.139L600.032 591.72L601.154 594.36L600.385 596.87L600.08 597.101ZM601.105 591.72L599.904 589.456L601.025 587.696L601.714 588.648L602.339 591.259L602.291 591.504L601.105 591.72ZM612.461 580.844L612.541 578.017L613.55 577.324L614.447 577.397L615.231 578.781L615.151 578.998L613.934 579.012L612.461 580.844ZM558.119 538.522L557.815 538.32L557.735 537.325L558.776 536.214L560.345 537.83L558.119 538.522Z" fill="#1E417C"/>
<path d="M517.391 450.399L519.525 456.955H519.58L521.736 450.399H522.671L520.185 458H518.865L516.346 450.399H517.391ZM524.497 451.807C524.379 451.924 524.236 451.983 524.068 451.983C523.899 451.983 523.756 451.924 523.639 451.807C523.521 451.682 523.463 451.536 523.463 451.367C523.463 451.198 523.521 451.055 523.639 450.938C523.763 450.813 523.906 450.751 524.068 450.751C524.229 450.751 524.368 450.813 524.486 450.938C524.61 451.055 524.673 451.198 524.673 451.367C524.673 451.536 524.614 451.682 524.497 451.807ZM523.606 452.984H524.541V458H523.606V452.984ZM528.183 452.852C528.674 452.852 529.173 452.962 529.679 453.182L529.404 453.864C529.03 453.703 528.63 453.622 528.205 453.622C527.787 453.622 527.453 453.78 527.204 454.095C526.962 454.41 526.841 454.872 526.841 455.481C526.841 456.09 526.969 456.555 527.226 456.878C527.483 457.201 527.82 457.362 528.238 457.362C528.656 457.362 529.089 457.259 529.536 457.054L529.745 457.78C529.232 458.015 528.711 458.132 528.183 458.132C527.501 458.132 526.944 457.886 526.511 457.395C526.086 456.896 525.873 456.258 525.873 455.481C525.873 454.696 526.086 454.062 526.511 453.578C526.944 453.094 527.501 452.852 528.183 452.852ZM531.869 453.677V456.691C531.869 457.131 532.078 457.351 532.496 457.351C532.738 457.351 533.028 457.281 533.365 457.142L533.486 457.879C533.127 458.048 532.749 458.132 532.353 458.132C531.957 458.132 531.627 458.015 531.363 457.78C531.099 457.538 530.967 457.171 530.967 456.68V453.677H530.274V452.984H530.967V451.994L531.649 451.367H531.869V452.984H533.288V453.677H531.869ZM536.532 453.567C536.253 453.567 536.011 453.629 535.806 453.754C535.608 453.879 535.461 454.04 535.366 454.238C535.19 454.612 535.102 455.012 535.102 455.437C535.102 456.757 535.56 457.417 536.477 457.417C536.755 457.417 536.994 457.355 537.192 457.23C537.39 457.105 537.54 456.944 537.643 456.746C537.819 456.379 537.907 455.98 537.907 455.547C537.907 454.227 537.448 453.567 536.532 453.567ZM536.532 452.852C537.346 452.852 537.94 453.105 538.314 453.611C538.688 454.117 538.875 454.777 538.875 455.591C538.875 456.178 538.721 456.72 538.413 457.219C538.244 457.49 537.991 457.71 537.654 457.879C537.316 458.048 536.913 458.132 536.444 458.132C535.637 458.132 535.05 457.89 534.684 457.406C534.317 456.922 534.134 456.273 534.134 455.459C534.134 454.982 534.207 454.579 534.354 454.249C534.508 453.919 534.669 453.666 534.838 453.49C535.006 453.307 535.237 453.156 535.531 453.039C535.824 452.914 536.158 452.852 536.532 452.852ZM540.114 452.984H540.708L540.983 453.864H541.027C541.431 453.343 541.984 453.028 542.688 452.918L542.787 453.787C542.443 453.809 542.109 453.897 541.786 454.051C541.464 454.205 541.218 454.41 541.049 454.667V458H540.114V452.984ZM544.563 451.807C544.446 451.924 544.303 451.983 544.134 451.983C543.965 451.983 543.822 451.924 543.705 451.807C543.588 451.682 543.529 451.536 543.529 451.367C543.529 451.198 543.588 451.055 543.705 450.938C543.83 450.813 543.973 450.751 544.134 450.751C544.295 450.751 544.435 450.813 544.552 450.938C544.677 451.055 544.739 451.198 544.739 451.367C544.739 451.536 544.68 451.682 544.563 451.807ZM543.672 452.984H544.607V458H543.672V452.984ZM549.03 454.997V454.513C549.03 453.919 548.722 453.622 548.106 453.622C547.622 453.622 547.116 453.78 546.588 454.095L546.269 453.435C546.885 453.046 547.549 452.852 548.26 452.852C548.759 452.852 549.166 452.98 549.481 453.237C549.804 453.486 549.965 453.875 549.965 454.403V458H549.371L549.096 457.34C548.862 457.582 548.583 457.776 548.26 457.923C547.938 458.062 547.644 458.132 547.38 458.132C546.926 458.132 546.563 458.007 546.291 457.758C546.02 457.509 545.884 457.182 545.884 456.779C545.884 455.591 546.933 454.997 549.03 454.997ZM547.204 456.064C547.065 456.189 546.97 456.302 546.918 456.405C546.874 456.5 546.852 456.629 546.852 456.79C546.852 456.944 546.918 457.08 547.05 457.197C547.19 457.307 547.369 457.362 547.589 457.362C548.051 457.362 548.532 457.157 549.03 456.746V455.646C548.106 455.661 547.498 455.8 547.204 456.064Z" fill="white"/>
<path d="M570.173 569.235V568.399H575.475V569.235H573.297V576H572.351V569.235H570.173ZM579.074 572.997V572.513C579.074 571.919 578.766 571.622 578.15 571.622C577.666 571.622 577.16 571.78 576.632 572.095L576.313 571.435C576.929 571.046 577.592 570.852 578.304 570.852C578.802 570.852 579.209 570.98 579.525 571.237C579.847 571.486 580.009 571.875 580.009 572.403V576H579.415L579.14 575.34C578.905 575.582 578.626 575.776 578.304 575.923C577.981 576.062 577.688 576.132 577.424 576.132C576.969 576.132 576.606 576.007 576.335 575.758C576.063 575.509 575.928 575.182 575.928 574.779C575.928 573.591 576.976 572.997 579.074 572.997ZM577.248 574.064C577.108 574.189 577.013 574.302 576.962 574.405C576.918 574.5 576.896 574.629 576.896 574.79C576.896 574.944 576.962 575.08 577.094 575.197C577.233 575.307 577.413 575.362 577.633 575.362C578.095 575.362 578.575 575.157 579.074 574.746V573.646C578.15 573.661 577.541 573.8 577.248 574.064ZM584.118 571.864C583.744 571.703 583.392 571.622 583.062 571.622C582.424 571.622 582.105 571.816 582.105 572.205C582.105 572.542 582.531 572.869 583.381 573.184C583.697 573.301 583.986 573.485 584.25 573.734C584.522 573.983 584.657 574.284 584.657 574.636C584.657 575.142 584.492 575.52 584.162 575.769C583.832 576.011 583.374 576.132 582.787 576.132C582.201 576.132 581.629 575.971 581.071 575.648L581.346 574.966C581.808 575.23 582.333 575.362 582.919 575.362C583.169 575.362 583.37 575.311 583.524 575.208C583.678 575.098 583.755 574.951 583.755 574.768C583.755 574.585 583.667 574.427 583.491 574.295C583.315 574.163 583.103 574.046 582.853 573.943C582.604 573.84 582.355 573.73 582.105 573.613C581.856 573.488 581.643 573.316 581.467 573.096C581.291 572.876 581.203 572.616 581.203 572.315C581.203 571.846 581.361 571.486 581.676 571.237C581.999 570.98 582.406 570.852 582.897 570.852C583.389 570.852 583.887 570.962 584.393 571.182L584.118 571.864ZM586.635 571.556C587.178 571.087 587.779 570.852 588.439 570.852C589.099 570.852 589.55 571.109 589.792 571.622C590.371 571.109 590.98 570.852 591.618 570.852C592.087 570.852 592.458 570.977 592.729 571.226C593.008 571.475 593.147 571.802 593.147 572.205V576H592.212V572.249C592.212 572.058 592.142 571.912 592.003 571.809C591.864 571.706 591.677 571.655 591.442 571.655C590.965 571.655 590.456 571.849 589.913 572.238V576H588.978V572.249C588.978 572.058 588.908 571.912 588.769 571.809C588.63 571.706 588.443 571.655 588.208 571.655C587.717 571.655 587.214 571.842 586.701 572.216V576H585.766V570.984H586.36L586.635 571.556ZM597.432 572.997V572.513C597.432 571.919 597.124 571.622 596.508 571.622C596.024 571.622 595.518 571.78 594.99 572.095L594.671 571.435C595.287 571.046 595.951 570.852 596.662 570.852C597.161 570.852 597.568 570.98 597.883 571.237C598.206 571.486 598.367 571.875 598.367 572.403V576H597.773L597.498 575.34C597.263 575.582 596.985 575.776 596.662 575.923C596.339 576.062 596.046 576.132 595.782 576.132C595.327 576.132 594.964 576.007 594.693 575.758C594.422 575.509 594.286 575.182 594.286 574.779C594.286 573.591 595.335 572.997 597.432 572.997ZM595.606 574.064C595.467 574.189 595.371 574.302 595.32 574.405C595.276 574.5 595.254 574.629 595.254 574.79C595.254 574.944 595.32 575.08 595.452 575.197C595.591 575.307 595.771 575.362 595.991 575.362C596.453 575.362 596.933 575.157 597.432 574.746V573.646C596.508 573.661 595.899 573.8 595.606 574.064ZM604.215 572.205V576H603.28V572.249C603.28 572.058 603.203 571.912 603.049 571.809C602.902 571.706 602.704 571.655 602.455 571.655C601.934 571.655 601.395 571.842 600.838 572.216V576H599.903V570.984H600.497L600.772 571.556C601.337 571.087 601.949 570.852 602.609 570.852C603.1 570.852 603.489 570.977 603.775 571.226C604.068 571.475 604.215 571.802 604.215 572.205ZM606.736 569.807C606.619 569.924 606.476 569.983 606.307 569.983C606.139 569.983 605.996 569.924 605.878 569.807C605.761 569.682 605.702 569.536 605.702 569.367C605.702 569.198 605.761 569.055 605.878 568.938C606.003 568.813 606.146 568.751 606.307 568.751C606.469 568.751 606.608 568.813 606.725 568.938C606.85 569.055 606.912 569.198 606.912 569.367C606.912 569.536 606.854 569.682 606.736 569.807ZM605.845 570.984H606.78V576H605.845V570.984ZM611.204 572.997V572.513C611.204 571.919 610.896 571.622 610.28 571.622C609.796 571.622 609.29 571.78 608.762 572.095L608.443 571.435C609.059 571.046 609.722 570.852 610.434 570.852C610.932 570.852 611.339 570.98 611.655 571.237C611.977 571.486 612.139 571.875 612.139 572.403V576H611.545L611.27 575.34C611.035 575.582 610.756 575.776 610.434 575.923C610.111 576.062 609.818 576.132 609.554 576.132C609.099 576.132 608.736 576.007 608.465 575.758C608.193 575.509 608.058 575.182 608.058 574.779C608.058 573.591 609.106 572.997 611.204 572.997ZM609.378 574.064C609.238 574.189 609.143 574.302 609.092 574.405C609.048 574.5 609.026 574.629 609.026 574.79C609.026 574.944 609.092 575.08 609.224 575.197C609.363 575.307 609.543 575.362 609.763 575.362C610.225 575.362 610.705 575.157 611.204 574.746V573.646C610.28 573.661 609.671 573.8 609.378 574.064Z" fill="white"/>
<path d="M116.669 246.399L118.264 252.955H118.308L119.914 246.399H120.882L118.946 254H117.593L116.152 248.346H116.108L114.678 254H113.358L111.389 246.399H112.467L114.062 252.955H114.106L115.712 246.399H116.669ZM123.195 253.362C123.723 253.362 124.251 253.204 124.779 252.889L125.098 253.549C124.482 253.938 123.822 254.132 123.118 254.132C122.421 254.132 121.868 253.912 121.457 253.472C121.046 253.025 120.841 252.383 120.841 251.547C120.841 250.711 121.054 250.055 121.479 249.578C121.904 249.094 122.469 248.852 123.173 248.852C123.811 248.852 124.313 249.05 124.68 249.446C124.834 249.607 124.962 249.842 125.065 250.15C125.175 250.458 125.23 250.821 125.23 251.239L124.889 251.624H121.776C121.798 252.783 122.271 253.362 123.195 253.362ZM124.306 250.931C124.306 250.52 124.2 250.19 123.987 249.941C123.774 249.692 123.492 249.567 123.14 249.567C122.795 249.567 122.502 249.692 122.26 249.941C122.018 250.183 121.871 250.513 121.82 250.931H124.306ZM128.955 249.864C128.581 249.703 128.229 249.622 127.899 249.622C127.261 249.622 126.942 249.816 126.942 250.205C126.942 250.542 127.368 250.869 128.218 251.184C128.534 251.301 128.823 251.485 129.087 251.734C129.359 251.983 129.494 252.284 129.494 252.636C129.494 253.142 129.329 253.52 128.999 253.769C128.669 254.011 128.211 254.132 127.624 254.132C127.038 254.132 126.466 253.971 125.908 253.648L126.183 252.966C126.645 253.23 127.17 253.362 127.756 253.362C128.006 253.362 128.207 253.311 128.361 253.208C128.515 253.098 128.592 252.951 128.592 252.768C128.592 252.585 128.504 252.427 128.328 252.295C128.152 252.163 127.94 252.046 127.69 251.943C127.441 251.84 127.192 251.73 126.942 251.613C126.693 251.488 126.48 251.316 126.304 251.096C126.128 250.876 126.04 250.616 126.04 250.315C126.04 249.846 126.198 249.486 126.513 249.237C126.836 248.98 127.243 248.852 127.734 248.852C128.226 248.852 128.724 248.962 129.23 249.182L128.955 249.864ZM131.725 249.677V252.691C131.725 253.131 131.934 253.351 132.352 253.351C132.594 253.351 132.884 253.281 133.221 253.142L133.342 253.879C132.983 254.048 132.605 254.132 132.209 254.132C131.813 254.132 131.483 254.015 131.219 253.78C130.955 253.538 130.823 253.171 130.823 252.68V249.677H130.13V248.984H130.823V247.994L131.505 247.367H131.725V248.984H133.144V249.677H131.725ZM136.344 253.362C136.872 253.362 137.4 253.204 137.928 252.889L138.247 253.549C137.631 253.938 136.971 254.132 136.267 254.132C135.57 254.132 135.016 253.912 134.606 253.472C134.195 253.025 133.99 252.383 133.99 251.547C133.99 250.711 134.202 250.055 134.628 249.578C135.053 249.094 135.618 248.852 136.322 248.852C136.96 248.852 137.462 249.05 137.829 249.446C137.983 249.607 138.111 249.842 138.214 250.15C138.324 250.458 138.379 250.821 138.379 251.239L138.038 251.624H134.925C134.947 252.783 135.42 253.362 136.344 253.362ZM137.455 250.931C137.455 250.52 137.348 250.19 137.136 249.941C136.923 249.692 136.641 249.567 136.289 249.567C135.944 249.567 135.651 249.692 135.409 249.941C135.167 250.183 135.02 250.513 134.969 250.931H137.455ZM139.53 248.984H140.124L140.399 249.864H140.443C140.846 249.343 141.4 249.028 142.104 248.918L142.203 249.787C141.858 249.809 141.524 249.897 141.202 250.051C140.879 250.205 140.633 250.41 140.465 250.667V254H139.53V248.984ZM147.312 250.205V254H146.377V250.249C146.377 250.058 146.3 249.912 146.146 249.809C145.999 249.706 145.801 249.655 145.552 249.655C145.031 249.655 144.492 249.842 143.935 250.216V254H143V248.984H143.594L143.869 249.556C144.433 249.087 145.046 248.852 145.706 248.852C146.197 248.852 146.586 248.977 146.872 249.226C147.165 249.475 147.312 249.802 147.312 250.205ZM156.725 254L155.856 251.525H152.985L152.116 254H151.137L153.887 246.399H155.02L157.77 254H156.725ZM155.581 250.722L154.624 247.983L154.448 247.367H154.404L154.228 247.983L153.271 250.722H155.581ZM159.563 248.984V252.713C159.563 252.918 159.637 253.08 159.783 253.197C159.937 253.307 160.135 253.362 160.377 253.362C160.898 253.362 161.433 253.157 161.983 252.746V248.984H162.918V254H162.324L162.049 253.34C161.485 253.868 160.858 254.132 160.168 254.132C159.728 254.132 159.362 254.015 159.068 253.78C158.775 253.545 158.628 253.204 158.628 252.757V248.984H159.563ZM167.079 249.864C166.705 249.703 166.353 249.622 166.023 249.622C165.385 249.622 165.066 249.816 165.066 250.205C165.066 250.542 165.492 250.869 166.342 251.184C166.658 251.301 166.947 251.485 167.211 251.734C167.483 251.983 167.618 252.284 167.618 252.636C167.618 253.142 167.453 253.52 167.123 253.769C166.793 254.011 166.335 254.132 165.748 254.132C165.162 254.132 164.59 253.971 164.032 253.648L164.307 252.966C164.769 253.23 165.294 253.362 165.88 253.362C166.13 253.362 166.331 253.311 166.485 253.208C166.639 253.098 166.716 252.951 166.716 252.768C166.716 252.585 166.628 252.427 166.452 252.295C166.276 252.163 166.064 252.046 165.814 251.943C165.565 251.84 165.316 251.73 165.066 251.613C164.817 251.488 164.604 251.316 164.428 251.096C164.252 250.876 164.164 250.616 164.164 250.315C164.164 249.846 164.322 249.486 164.637 249.237C164.96 248.98 165.367 248.852 165.858 248.852C166.35 248.852 166.848 248.962 167.354 249.182L167.079 249.864ZM169.849 249.677V252.691C169.849 253.131 170.058 253.351 170.476 253.351C170.718 253.351 171.008 253.281 171.345 253.142L171.466 253.879C171.107 254.048 170.729 254.132 170.333 254.132C169.937 254.132 169.607 254.015 169.343 253.78C169.079 253.538 168.947 253.171 168.947 252.68V249.677H168.254V248.984H168.947V247.994L169.629 247.367H169.849V248.984H171.268V249.677H169.849ZM172.455 248.984H173.049L173.324 249.864H173.368C173.771 249.343 174.325 249.028 175.029 248.918L175.128 249.787C174.783 249.809 174.449 249.897 174.127 250.051C173.804 250.205 173.558 250.41 173.39 250.667V254H172.455V248.984ZM178.674 250.997V250.513C178.674 249.919 178.366 249.622 177.75 249.622C177.266 249.622 176.76 249.78 176.232 250.095L175.913 249.435C176.529 249.046 177.193 248.852 177.904 248.852C178.403 248.852 178.81 248.98 179.125 249.237C179.448 249.486 179.609 249.875 179.609 250.403V254H179.015L178.74 253.34C178.506 253.582 178.227 253.776 177.904 253.923C177.582 254.062 177.288 254.132 177.024 254.132C176.57 254.132 176.207 254.007 175.935 253.758C175.664 253.509 175.528 253.182 175.528 252.779C175.528 251.591 176.577 250.997 178.674 250.997ZM176.848 252.064C176.709 252.189 176.614 252.302 176.562 252.405C176.518 252.5 176.496 252.629 176.496 252.79C176.496 252.944 176.562 253.08 176.694 253.197C176.834 253.307 177.013 253.362 177.233 253.362C177.695 253.362 178.176 253.157 178.674 252.746V251.646C177.75 251.661 177.142 251.8 176.848 252.064ZM181.101 246.102H182.003V254H181.101V246.102ZM184.52 247.807C184.402 247.924 184.259 247.983 184.091 247.983C183.922 247.983 183.779 247.924 183.662 247.807C183.544 247.682 183.486 247.536 183.486 247.367C183.486 247.198 183.544 247.055 183.662 246.938C183.786 246.813 183.929 246.751 184.091 246.751C184.252 246.751 184.391 246.813 184.509 246.938C184.633 247.055 184.696 247.198 184.696 247.367C184.696 247.536 184.637 247.682 184.52 247.807ZM183.629 248.984H184.564V254H183.629V248.984ZM188.987 250.997V250.513C188.987 249.919 188.679 249.622 188.063 249.622C187.579 249.622 187.073 249.78 186.545 250.095L186.226 249.435C186.842 249.046 187.505 248.852 188.217 248.852C188.715 248.852 189.122 248.98 189.438 249.237C189.76 249.486 189.922 249.875 189.922 250.403V254H189.328L189.053 253.34C188.818 253.582 188.539 253.776 188.217 253.923C187.894 254.062 187.601 254.132 187.337 254.132C186.882 254.132 186.519 254.007 186.248 253.758C185.976 253.509 185.841 253.182 185.841 252.779C185.841 251.591 186.889 250.997 188.987 250.997ZM187.161 252.064C187.021 252.189 186.926 252.302 186.875 252.405C186.831 252.5 186.809 252.629 186.809 252.79C186.809 252.944 186.875 253.08 187.007 253.197C187.146 253.307 187.326 253.362 187.546 253.362C188.008 253.362 188.488 253.157 188.987 252.746V251.646C188.063 251.661 187.454 251.8 187.161 252.064Z" fill="white"/>
<path d="M330.272 179.295V173.399H331.218V181H330.305L325.828 175.093H325.773V181H324.827V173.399H325.74L330.217 179.295H330.272ZM334.897 176.567C334.618 176.567 334.376 176.629 334.171 176.754C333.973 176.879 333.826 177.04 333.731 177.238C333.555 177.612 333.467 178.012 333.467 178.437C333.467 179.757 333.925 180.417 334.842 180.417C335.121 180.417 335.359 180.355 335.557 180.23C335.755 180.105 335.905 179.944 336.008 179.746C336.184 179.379 336.272 178.98 336.272 178.547C336.272 177.227 335.814 176.567 334.897 176.567ZM334.897 175.852C335.711 175.852 336.305 176.105 336.679 176.611C337.053 177.117 337.24 177.777 337.24 178.591C337.24 179.178 337.086 179.72 336.778 180.219C336.609 180.49 336.356 180.71 336.019 180.879C335.682 181.048 335.278 181.132 334.809 181.132C334.002 181.132 333.416 180.89 333.049 180.406C332.682 179.922 332.499 179.273 332.499 178.459C332.499 177.982 332.572 177.579 332.719 177.249C332.873 176.919 333.034 176.666 333.203 176.49C333.372 176.307 333.603 176.156 333.896 176.039C334.189 175.914 334.523 175.852 334.897 175.852ZM338.48 175.984H339.074L339.349 176.864H339.393C339.796 176.343 340.35 176.028 341.054 175.918L341.153 176.787C340.808 176.809 340.474 176.897 340.152 177.051C339.829 177.205 339.583 177.41 339.415 177.667V181H338.48V175.984ZM343.071 176.677V179.691C343.071 180.131 343.28 180.351 343.698 180.351C343.94 180.351 344.23 180.281 344.567 180.142L344.688 180.879C344.329 181.048 343.951 181.132 343.555 181.132C343.159 181.132 342.829 181.015 342.565 180.78C342.301 180.538 342.169 180.171 342.169 179.68V176.677H341.476V175.984H342.169V174.994L342.851 174.367H343.071V175.984H344.49V176.677H343.071ZM346.568 173.102V176.501C347.118 176.068 347.708 175.852 348.339 175.852C348.83 175.852 349.219 175.977 349.505 176.226C349.798 176.468 349.945 176.787 349.945 177.183V181H349.01V177.249C349.01 177.058 348.933 176.912 348.779 176.809C348.632 176.706 348.434 176.655 348.185 176.655C347.664 176.655 347.125 176.842 346.568 177.216V181H345.633V173.102H346.568ZM353.501 180.362C354.029 180.362 354.557 180.204 355.085 179.889L355.404 180.549C354.788 180.938 354.128 181.132 353.424 181.132C352.728 181.132 352.174 180.912 351.763 180.472C351.353 180.025 351.147 179.383 351.147 178.547C351.147 177.711 351.36 177.055 351.785 176.578C352.211 176.094 352.775 175.852 353.479 175.852C354.117 175.852 354.62 176.05 354.986 176.446C355.14 176.607 355.269 176.842 355.371 177.15C355.481 177.458 355.536 177.821 355.536 178.239L355.195 178.624H352.082C352.104 179.783 352.577 180.362 353.501 180.362ZM354.612 177.931C354.612 177.52 354.506 177.19 354.293 176.941C354.081 176.692 353.798 176.567 353.446 176.567C353.102 176.567 352.808 176.692 352.566 176.941C352.324 177.183 352.178 177.513 352.126 177.931H354.612ZM356.688 175.984H357.282L357.557 176.864H357.601C358.004 176.343 358.558 176.028 359.262 175.918L359.361 176.787C359.016 176.809 358.682 176.897 358.36 177.051C358.037 177.205 357.791 177.41 357.623 177.667V181H356.688V175.984ZM364.469 177.205V181H363.534V177.249C363.534 177.058 363.457 176.912 363.303 176.809C363.157 176.706 362.959 176.655 362.709 176.655C362.189 176.655 361.65 176.842 361.092 177.216V181H360.157V175.984H360.751L361.026 176.556C361.591 176.087 362.203 175.852 362.863 175.852C363.355 175.852 363.743 175.977 364.029 176.226C364.323 176.475 364.469 176.802 364.469 177.205ZM368.24 174.235V173.399H373.542V174.235H371.364V181H370.418V174.235H368.24ZM375.469 180.362C375.997 180.362 376.525 180.204 377.053 179.889L377.372 180.549C376.756 180.938 376.096 181.132 375.392 181.132C374.695 181.132 374.142 180.912 373.731 180.472C373.32 180.025 373.115 179.383 373.115 178.547C373.115 177.711 373.328 177.055 373.753 176.578C374.178 176.094 374.743 175.852 375.447 175.852C376.085 175.852 376.587 176.05 376.954 176.446C377.108 176.607 377.236 176.842 377.339 177.15C377.449 177.458 377.504 177.821 377.504 178.239L377.163 178.624H374.05C374.072 179.783 374.545 180.362 375.469 180.362ZM376.58 177.931C376.58 177.52 376.474 177.19 376.261 176.941C376.048 176.692 375.766 176.567 375.414 176.567C375.069 176.567 374.776 176.692 374.534 176.941C374.292 177.183 374.145 177.513 374.094 177.931H376.58ZM378.655 175.984H379.249L379.524 176.864H379.568C379.972 176.343 380.525 176.028 381.229 175.918L381.328 176.787C380.984 176.809 380.65 176.897 380.327 177.051C380.005 177.205 379.759 177.41 379.59 177.667V181H378.655V175.984ZM382.125 175.984H382.719L382.994 176.864H383.038C383.441 176.343 383.995 176.028 384.699 175.918L384.798 176.787C384.453 176.809 384.12 176.897 383.797 177.051C383.474 177.205 383.229 177.41 383.06 177.667V181H382.125V175.984ZM386.574 174.807C386.456 174.924 386.313 174.983 386.145 174.983C385.976 174.983 385.833 174.924 385.716 174.807C385.598 174.682 385.54 174.536 385.54 174.367C385.54 174.198 385.598 174.055 385.716 173.938C385.84 173.813 385.983 173.751 386.145 173.751C386.306 173.751 386.445 173.813 386.563 173.938C386.687 174.055 386.75 174.198 386.75 174.367C386.75 174.536 386.691 174.682 386.574 174.807ZM385.683 175.984H386.618V181H385.683V175.984ZM389.413 176.677V179.691C389.413 180.131 389.622 180.351 390.04 180.351C390.282 180.351 390.572 180.281 390.909 180.142L391.03 180.879C390.671 181.048 390.293 181.132 389.897 181.132C389.501 181.132 389.171 181.015 388.907 180.78C388.643 180.538 388.511 180.171 388.511 179.68V176.677H387.818V175.984H388.511V174.994L389.193 174.367H389.413V175.984H390.832V176.677H389.413ZM394.076 176.567C393.797 176.567 393.555 176.629 393.35 176.754C393.152 176.879 393.005 177.04 392.91 177.238C392.734 177.612 392.646 178.012 392.646 178.437C392.646 179.757 393.104 180.417 394.021 180.417C394.299 180.417 394.538 180.355 394.736 180.23C394.934 180.105 395.084 179.944 395.187 179.746C395.363 179.379 395.451 178.98 395.451 178.547C395.451 177.227 394.992 176.567 394.076 176.567ZM394.076 175.852C394.89 175.852 395.484 176.105 395.858 176.611C396.232 177.117 396.419 177.777 396.419 178.591C396.419 179.178 396.265 179.72 395.957 180.219C395.788 180.49 395.535 180.71 395.198 180.879C394.86 181.048 394.457 181.132 393.988 181.132C393.181 181.132 392.594 180.89 392.228 180.406C391.861 179.922 391.678 179.273 391.678 178.459C391.678 177.982 391.751 177.579 391.898 177.249C392.052 176.919 392.213 176.666 392.382 176.49C392.55 176.307 392.781 176.156 393.075 176.039C393.368 175.914 393.702 175.852 394.076 175.852ZM397.658 175.984H398.252L398.527 176.864H398.571C398.975 176.343 399.528 176.028 400.232 175.918L400.331 176.787C399.987 176.809 399.653 176.897 399.33 177.051C399.008 177.205 398.762 177.41 398.593 177.667V181H397.658V175.984ZM402.888 181.891C402.646 182.595 402.422 183.064 402.217 183.299C402.019 183.541 401.722 183.662 401.326 183.662C400.93 183.662 400.494 183.552 400.017 183.332L400.358 182.617C400.673 182.786 400.945 182.87 401.172 182.87C401.37 182.87 401.502 182.837 401.568 182.771L401.711 182.628C401.806 182.533 401.891 182.368 401.964 182.133C402.037 181.898 402.096 181.715 402.14 181.583C402.184 181.458 402.217 181.359 402.239 181.286L400.402 175.984H401.348L402.646 179.999H402.69L403.988 175.984H404.934L402.888 181.891Z" fill="white"/>
<path d="M320.91 290.345C320.397 290.169 319.92 290.081 319.48 290.081C319.04 290.081 318.681 290.195 318.402 290.422C318.123 290.649 317.984 290.924 317.984 291.247C317.984 291.709 318.23 292.072 318.721 292.336L320.272 293.194C321.137 293.678 321.57 294.301 321.57 295.064C321.57 295.695 321.346 296.197 320.899 296.571C320.452 296.945 319.821 297.132 319.007 297.132C318.193 297.132 317.463 296.985 316.818 296.692L317.093 295.922C317.694 296.186 318.285 296.318 318.864 296.318C319.451 296.318 319.883 296.204 320.162 295.977C320.441 295.75 320.58 295.475 320.58 295.152C320.58 294.69 320.334 294.327 319.843 294.063L318.292 293.205C317.427 292.721 316.994 292.098 316.994 291.335C316.994 290.704 317.218 290.202 317.665 289.828C318.112 289.454 318.714 289.267 319.469 289.267C319.982 289.267 320.558 289.373 321.196 289.586L320.91 290.345ZM324.856 292.567C324.577 292.567 324.335 292.629 324.13 292.754C323.932 292.879 323.785 293.04 323.69 293.238C323.514 293.612 323.426 294.012 323.426 294.437C323.426 295.757 323.884 296.417 324.801 296.417C325.08 296.417 325.318 296.355 325.516 296.23C325.714 296.105 325.864 295.944 325.967 295.746C326.143 295.379 326.231 294.98 326.231 294.547C326.231 293.227 325.773 292.567 324.856 292.567ZM324.856 291.852C325.67 291.852 326.264 292.105 326.638 292.611C327.012 293.117 327.199 293.777 327.199 294.591C327.199 295.178 327.045 295.72 326.737 296.219C326.568 296.49 326.315 296.71 325.978 296.879C325.641 297.048 325.237 297.132 324.768 297.132C323.961 297.132 323.375 296.89 323.008 296.406C322.641 295.922 322.458 295.273 322.458 294.459C322.458 293.982 322.531 293.579 322.678 293.249C322.832 292.919 322.993 292.666 323.162 292.49C323.331 292.307 323.562 292.156 323.855 292.039C324.148 291.914 324.482 291.852 324.856 291.852ZM329.329 291.984V295.713C329.329 295.918 329.403 296.08 329.549 296.197C329.703 296.307 329.901 296.362 330.143 296.362C330.664 296.362 331.199 296.157 331.749 295.746V291.984H332.684V297H332.09L331.815 296.34C331.251 296.868 330.624 297.132 329.934 297.132C329.494 297.132 329.128 297.015 328.834 296.78C328.541 296.545 328.394 296.204 328.394 295.757V291.984H329.329ZM335.393 292.677V295.691C335.393 296.131 335.602 296.351 336.02 296.351C336.262 296.351 336.552 296.281 336.889 296.142L337.01 296.879C336.651 297.048 336.273 297.132 335.877 297.132C335.481 297.132 335.151 297.015 334.887 296.78C334.623 296.538 334.491 296.171 334.491 295.68V292.677H333.798V291.984H334.491V290.994L335.173 290.367H335.393V291.984H336.812V292.677H335.393ZM338.89 289.102V292.501C339.44 292.068 340.03 291.852 340.661 291.852C341.152 291.852 341.541 291.977 341.827 292.226C342.12 292.468 342.267 292.787 342.267 293.183V297H341.332V293.249C341.332 293.058 341.255 292.912 341.101 292.809C340.954 292.706 340.756 292.655 340.507 292.655C339.986 292.655 339.447 292.842 338.89 293.216V297H337.955V289.102H338.89ZM351.681 297L350.812 294.525H347.941L347.072 297H346.093L348.843 289.399H349.976L352.726 297H351.681ZM350.537 293.722L349.58 290.983L349.404 290.367H349.36L349.184 290.983L348.227 293.722H350.537ZM354.52 291.984V295.713C354.52 295.918 354.593 296.08 354.74 296.197C354.894 296.307 355.092 296.362 355.334 296.362C355.855 296.362 356.39 296.157 356.94 295.746V291.984H357.875V297H357.281L357.006 296.34C356.441 296.868 355.814 297.132 355.125 297.132C354.685 297.132 354.318 297.015 354.025 296.78C353.732 296.545 353.585 296.204 353.585 295.757V291.984H354.52ZM362.036 292.864C361.662 292.703 361.31 292.622 360.98 292.622C360.342 292.622 360.023 292.816 360.023 293.205C360.023 293.542 360.448 293.869 361.299 294.184C361.614 294.301 361.904 294.485 362.168 294.734C362.439 294.983 362.575 295.284 362.575 295.636C362.575 296.142 362.41 296.52 362.08 296.769C361.75 297.011 361.292 297.132 360.705 297.132C360.118 297.132 359.546 296.971 358.989 296.648L359.264 295.966C359.726 296.23 360.25 296.362 360.837 296.362C361.086 296.362 361.288 296.311 361.442 296.208C361.596 296.098 361.673 295.951 361.673 295.768C361.673 295.585 361.585 295.427 361.409 295.295C361.233 295.163 361.02 295.046 360.771 294.943C360.522 294.84 360.272 294.73 360.023 294.613C359.774 294.488 359.561 294.316 359.385 294.096C359.209 293.876 359.121 293.616 359.121 293.315C359.121 292.846 359.279 292.486 359.594 292.237C359.917 291.98 360.324 291.852 360.815 291.852C361.306 291.852 361.805 291.962 362.311 292.182L362.036 292.864ZM364.806 292.677V295.691C364.806 296.131 365.015 296.351 365.433 296.351C365.675 296.351 365.964 296.281 366.302 296.142L366.423 296.879C366.063 297.048 365.686 297.132 365.29 297.132C364.894 297.132 364.564 297.015 364.3 296.78C364.036 296.538 363.904 296.171 363.904 295.68V292.677H363.211V291.984H363.904V290.994L364.586 290.367H364.806V291.984H366.225V292.677H364.806ZM367.411 291.984H368.005L368.28 292.864H368.324C368.727 292.343 369.281 292.028 369.985 291.918L370.084 292.787C369.739 292.809 369.406 292.897 369.083 293.051C368.76 293.205 368.515 293.41 368.346 293.667V297H367.411V291.984ZM373.631 293.997V293.513C373.631 292.919 373.323 292.622 372.707 292.622C372.223 292.622 371.717 292.78 371.189 293.095L370.87 292.435C371.486 292.046 372.15 291.852 372.861 291.852C373.36 291.852 373.767 291.98 374.082 292.237C374.405 292.486 374.566 292.875 374.566 293.403V297H373.972L373.697 296.34C373.462 296.582 373.184 296.776 372.861 296.923C372.538 297.062 372.245 297.132 371.981 297.132C371.526 297.132 371.163 297.007 370.892 296.758C370.621 296.509 370.485 296.182 370.485 295.779C370.485 294.591 371.534 293.997 373.631 293.997ZM371.805 295.064C371.666 295.189 371.57 295.302 371.519 295.405C371.475 295.5 371.453 295.629 371.453 295.79C371.453 295.944 371.519 296.08 371.651 296.197C371.79 296.307 371.97 296.362 372.19 296.362C372.652 296.362 373.132 296.157 373.631 295.746V294.646C372.707 294.661 372.098 294.8 371.805 295.064ZM376.058 289.102H376.96V297H376.058V289.102ZM379.476 290.807C379.359 290.924 379.216 290.983 379.047 290.983C378.878 290.983 378.735 290.924 378.618 290.807C378.501 290.682 378.442 290.536 378.442 290.367C378.442 290.198 378.501 290.055 378.618 289.938C378.743 289.813 378.886 289.751 379.047 289.751C379.208 289.751 379.348 289.813 379.465 289.938C379.59 290.055 379.652 290.198 379.652 290.367C379.652 290.536 379.593 290.682 379.476 290.807ZM378.585 291.984H379.52V297H378.585V291.984ZM383.943 293.997V293.513C383.943 292.919 383.635 292.622 383.019 292.622C382.535 292.622 382.029 292.78 381.501 293.095L381.182 292.435C381.798 292.046 382.462 291.852 383.173 291.852C383.672 291.852 384.079 291.98 384.394 292.237C384.717 292.486 384.878 292.875 384.878 293.403V297H384.284L384.009 296.34C383.775 296.582 383.496 296.776 383.173 296.923C382.851 297.062 382.557 297.132 382.293 297.132C381.839 297.132 381.476 297.007 381.204 296.758C380.933 296.509 380.797 296.182 380.797 295.779C380.797 294.591 381.846 293.997 383.943 293.997ZM382.117 295.064C381.978 295.189 381.883 295.302 381.831 295.405C381.787 295.5 381.765 295.629 381.765 295.79C381.765 295.944 381.831 296.08 381.963 296.197C382.103 296.307 382.282 296.362 382.502 296.362C382.964 296.362 383.445 296.157 383.943 295.746V294.646C383.019 294.661 382.411 294.8 382.117 295.064Z" fill="white"/>
<path d="M516.576 177.469C516.576 176.237 516.932 175.229 517.643 174.444C518.355 173.659 519.297 173.267 520.47 173.267C521.02 173.267 521.512 173.37 521.944 173.575C522.384 173.78 522.736 174.055 523 174.4C523.55 175.104 523.825 175.958 523.825 176.963C523.825 177.968 523.572 178.837 523.066 179.57C522.56 180.303 521.867 180.78 520.987 181L523.825 182.716V182.958L522.912 183.387L519.854 181.132C519.15 181.117 518.542 180.93 518.028 180.571C517.06 179.889 516.576 178.855 516.576 177.469ZM520.426 174.059C519.517 174.059 518.817 174.363 518.325 174.972C517.834 175.573 517.588 176.413 517.588 177.491C517.588 178.298 517.797 178.987 518.215 179.559C518.641 180.124 519.231 180.406 519.986 180.406C520.896 180.406 521.592 180.105 522.076 179.504C522.568 178.895 522.813 178.052 522.813 176.974C522.813 176.167 522.604 175.482 522.186 174.917C521.768 174.345 521.182 174.059 520.426 174.059ZM526.056 175.984V179.713C526.056 179.918 526.129 180.08 526.276 180.197C526.43 180.307 526.628 180.362 526.87 180.362C527.391 180.362 527.926 180.157 528.476 179.746V175.984H529.411V181H528.817L528.542 180.34C527.977 180.868 527.35 181.132 526.661 181.132C526.221 181.132 525.854 181.015 525.561 180.78C525.268 180.545 525.121 180.204 525.121 179.757V175.984H526.056ZM533.011 180.362C533.539 180.362 534.067 180.204 534.595 179.889L534.914 180.549C534.298 180.938 533.638 181.132 532.934 181.132C532.237 181.132 531.684 180.912 531.273 180.472C530.862 180.025 530.657 179.383 530.657 178.547C530.657 177.711 530.87 177.055 531.295 176.578C531.72 176.094 532.285 175.852 532.989 175.852C533.627 175.852 534.129 176.05 534.496 176.446C534.65 176.607 534.778 176.842 534.881 177.15C534.991 177.458 535.046 177.821 535.046 178.239L534.705 178.624H531.592C531.614 179.783 532.087 180.362 533.011 180.362ZM534.122 177.931C534.122 177.52 534.016 177.19 533.803 176.941C533.59 176.692 533.308 176.567 532.956 176.567C532.611 176.567 532.318 176.692 532.076 176.941C531.834 177.183 531.687 177.513 531.636 177.931H534.122ZM538.21 180.362C538.738 180.362 539.266 180.204 539.794 179.889L540.113 180.549C539.497 180.938 538.837 181.132 538.133 181.132C537.437 181.132 536.883 180.912 536.472 180.472C536.062 180.025 535.856 179.383 535.856 178.547C535.856 177.711 536.069 177.055 536.494 176.578C536.92 176.094 537.484 175.852 538.188 175.852C538.826 175.852 539.329 176.05 539.695 176.446C539.849 176.607 539.978 176.842 540.08 177.15C540.19 177.458 540.245 177.821 540.245 178.239L539.904 178.624H536.791C536.813 179.783 537.286 180.362 538.21 180.362ZM539.321 177.931C539.321 177.52 539.215 177.19 539.002 176.941C538.79 176.692 538.507 176.567 538.155 176.567C537.811 176.567 537.517 176.692 537.275 176.941C537.033 177.183 536.887 177.513 536.835 177.931H539.321ZM545.708 177.205V181H544.773V177.249C544.773 177.058 544.696 176.912 544.542 176.809C544.396 176.706 544.198 176.655 543.948 176.655C543.428 176.655 542.889 176.842 542.331 177.216V181H541.396V175.984H541.99L542.265 176.556C542.83 176.087 543.442 175.852 544.102 175.852C544.594 175.852 544.982 175.977 545.268 176.226C545.562 176.475 545.708 176.802 545.708 177.205ZM549.825 176.864C549.451 176.703 549.099 176.622 548.769 176.622C548.131 176.622 547.812 176.816 547.812 177.205C547.812 177.542 548.237 177.869 549.088 178.184C549.403 178.301 549.693 178.485 549.957 178.734C550.228 178.983 550.364 179.284 550.364 179.636C550.364 180.142 550.199 180.52 549.869 180.769C549.539 181.011 549.081 181.132 548.494 181.132C547.907 181.132 547.335 180.971 546.778 180.648L547.053 179.966C547.515 180.23 548.039 180.362 548.626 180.362C548.875 180.362 549.077 180.311 549.231 180.208C549.385 180.098 549.462 179.951 549.462 179.768C549.462 179.585 549.374 179.427 549.198 179.295C549.022 179.163 548.809 179.046 548.56 178.943C548.311 178.84 548.061 178.73 547.812 178.613C547.563 178.488 547.35 178.316 547.174 178.096C546.998 177.876 546.91 177.616 546.91 177.315C546.91 176.846 547.068 176.486 547.383 176.237C547.706 175.98 548.113 175.852 548.604 175.852C549.095 175.852 549.594 175.962 550.1 176.182L549.825 176.864ZM551.429 173.102H552.331V181H551.429V173.102ZM556.618 177.997V177.513C556.618 176.919 556.31 176.622 555.694 176.622C555.21 176.622 554.704 176.78 554.176 177.095L553.857 176.435C554.473 176.046 555.137 175.852 555.848 175.852C556.347 175.852 556.754 175.98 557.069 176.237C557.392 176.486 557.553 176.875 557.553 177.403V181H556.959L556.684 180.34C556.45 180.582 556.171 180.776 555.848 180.923C555.526 181.062 555.232 181.132 554.968 181.132C554.514 181.132 554.151 181.007 553.879 180.758C553.608 180.509 553.472 180.182 553.472 179.779C553.472 178.591 554.521 177.997 556.618 177.997ZM554.792 179.064C554.653 179.189 554.558 179.302 554.506 179.405C554.462 179.5 554.44 179.629 554.44 179.79C554.44 179.944 554.506 180.08 554.638 180.197C554.778 180.307 554.957 180.362 555.177 180.362C555.639 180.362 556.12 180.157 556.618 179.746V178.646C555.694 178.661 555.086 178.8 554.792 179.064ZM563.401 177.205V181H562.466V177.249C562.466 177.058 562.389 176.912 562.235 176.809C562.088 176.706 561.89 176.655 561.641 176.655C561.12 176.655 560.581 176.842 560.024 177.216V181H559.089V175.984H559.683L559.958 176.556C560.523 176.087 561.135 175.852 561.795 175.852C562.286 175.852 562.675 175.977 562.961 176.226C563.254 176.475 563.401 176.802 563.401 177.205ZM568.32 173.102H569.222V181H568.628L568.353 180.34C567.803 180.868 567.235 181.132 566.648 181.132C566.069 181.132 565.589 180.908 565.207 180.461C564.826 180.006 564.635 179.394 564.635 178.624C564.635 177.854 564.863 177.212 565.317 176.699C565.772 176.178 566.359 175.918 567.077 175.918C567.466 175.918 567.88 176.006 568.32 176.182V173.102ZM567.308 176.666C566.758 176.666 566.333 176.853 566.032 177.227C565.732 177.601 565.581 178.056 565.581 178.591C565.581 179.126 565.706 179.555 565.955 179.878C566.205 180.201 566.527 180.362 566.923 180.362C567.143 180.362 567.378 180.303 567.627 180.186C567.884 180.061 568.115 179.893 568.32 179.68V176.864C567.976 176.732 567.638 176.666 567.308 176.666Z" fill="white"/>
<path d="M557.454 369.295V363.399H558.4V371H557.487L553.01 365.093H552.955V371H552.009V363.399H552.922L557.399 369.295H557.454ZM562.035 370.362C562.563 370.362 563.091 370.204 563.619 369.889L563.938 370.549C563.322 370.938 562.662 371.132 561.958 371.132C561.261 371.132 560.708 370.912 560.297 370.472C559.886 370.025 559.681 369.383 559.681 368.547C559.681 367.711 559.894 367.055 560.319 366.578C560.744 366.094 561.309 365.852 562.013 365.852C562.651 365.852 563.153 366.05 563.52 366.446C563.674 366.607 563.802 366.842 563.905 367.15C564.015 367.458 564.07 367.821 564.07 368.239L563.729 368.624H560.616C560.638 369.783 561.111 370.362 562.035 370.362ZM563.146 367.931C563.146 367.52 563.04 367.19 562.827 366.941C562.614 366.692 562.332 366.567 561.98 366.567C561.635 366.567 561.342 366.692 561.1 366.941C560.858 367.183 560.711 367.513 560.66 367.931H563.146ZM566.882 371H565.848L564.484 365.984H565.43L566.343 369.999H566.387L567.564 365.984H568.455L569.643 369.999H569.687L570.6 365.984H571.546L570.182 371H569.148L568.026 367.425H567.971L566.882 371ZM579.102 364.345C578.588 364.169 578.112 364.081 577.672 364.081C577.232 364.081 576.872 364.195 576.594 364.422C576.315 364.649 576.176 364.924 576.176 365.247C576.176 365.709 576.421 366.072 576.913 366.336L578.464 367.194C579.329 367.678 579.762 368.301 579.762 369.064C579.762 369.695 579.538 370.197 579.091 370.571C578.643 370.945 578.013 371.132 577.199 371.132C576.385 371.132 575.655 370.985 575.01 370.692L575.285 369.922C575.886 370.186 576.476 370.318 577.056 370.318C577.642 370.318 578.075 370.204 578.354 369.977C578.632 369.75 578.772 369.475 578.772 369.152C578.772 368.69 578.526 368.327 578.035 368.063L576.484 367.205C575.618 366.721 575.186 366.098 575.186 365.335C575.186 364.704 575.409 364.202 575.857 363.828C576.304 363.454 576.905 363.267 577.661 363.267C578.174 363.267 578.75 363.373 579.388 363.586L579.102 364.345ZM583.048 366.567C582.769 366.567 582.527 366.629 582.322 366.754C582.124 366.879 581.977 367.04 581.882 367.238C581.706 367.612 581.618 368.012 581.618 368.437C581.618 369.757 582.076 370.417 582.993 370.417C583.271 370.417 583.51 370.355 583.708 370.23C583.906 370.105 584.056 369.944 584.159 369.746C584.335 369.379 584.423 368.98 584.423 368.547C584.423 367.227 583.964 366.567 583.048 366.567ZM583.048 365.852C583.862 365.852 584.456 366.105 584.83 366.611C585.204 367.117 585.391 367.777 585.391 368.591C585.391 369.178 585.237 369.72 584.929 370.219C584.76 370.49 584.507 370.71 584.17 370.879C583.832 371.048 583.429 371.132 582.96 371.132C582.153 371.132 581.566 370.89 581.2 370.406C580.833 369.922 580.65 369.273 580.65 368.459C580.65 367.982 580.723 367.579 580.87 367.249C581.024 366.919 581.185 366.666 581.354 366.49C581.522 366.307 581.753 366.156 582.047 366.039C582.34 365.914 582.674 365.852 583.048 365.852ZM587.521 365.984V369.713C587.521 369.918 587.595 370.08 587.741 370.197C587.895 370.307 588.093 370.362 588.335 370.362C588.856 370.362 589.391 370.157 589.941 369.746V365.984H590.876V371H590.282L590.007 370.34C589.443 370.868 588.816 371.132 588.126 371.132C587.686 371.132 587.32 371.015 587.026 370.78C586.733 370.545 586.586 370.204 586.586 369.757V365.984H587.521ZM593.585 366.677V369.691C593.585 370.131 593.794 370.351 594.212 370.351C594.454 370.351 594.744 370.281 595.081 370.142L595.202 370.879C594.843 371.048 594.465 371.132 594.069 371.132C593.673 371.132 593.343 371.015 593.079 370.78C592.815 370.538 592.683 370.171 592.683 369.68V366.677H591.99V365.984H592.683V364.994L593.365 364.367H593.585V365.984H595.004V366.677H593.585ZM597.082 363.102V366.501C597.632 366.068 598.222 365.852 598.853 365.852C599.344 365.852 599.733 365.977 600.019 366.226C600.312 366.468 600.459 366.787 600.459 367.183V371H599.524V367.249C599.524 367.058 599.447 366.912 599.293 366.809C599.146 366.706 598.948 366.655 598.699 366.655C598.178 366.655 597.639 366.842 597.082 367.216V371H596.147V363.102H597.082ZM609.51 363.399L611.105 369.955H611.149L612.755 363.399H613.723L611.787 371H610.434L608.993 365.346H608.949L607.519 371H606.199L604.23 363.399H605.308L606.903 369.955H606.947L608.553 363.399H609.51ZM617.321 367.997V367.513C617.321 366.919 617.013 366.622 616.397 366.622C615.913 366.622 615.407 366.78 614.879 367.095L614.56 366.435C615.176 366.046 615.839 365.852 616.551 365.852C617.049 365.852 617.456 365.98 617.772 366.237C618.094 366.486 618.256 366.875 618.256 367.403V371H617.662L617.387 370.34C617.152 370.582 616.873 370.776 616.551 370.923C616.228 371.062 615.935 371.132 615.671 371.132C615.216 371.132 614.853 371.007 614.582 370.758C614.31 370.509 614.175 370.182 614.175 369.779C614.175 368.591 615.223 367.997 617.321 367.997ZM615.495 369.064C615.355 369.189 615.26 369.302 615.209 369.405C615.165 369.5 615.143 369.629 615.143 369.79C615.143 369.944 615.209 370.08 615.341 370.197C615.48 370.307 615.66 370.362 615.88 370.362C616.342 370.362 616.822 370.157 617.321 369.746V368.646C616.397 368.661 615.788 368.8 615.495 369.064ZM619.748 363.102H620.65V371H619.748V363.102ZM624.2 370.362C624.728 370.362 625.256 370.204 625.784 369.889L626.103 370.549C625.487 370.938 624.827 371.132 624.123 371.132C623.426 371.132 622.873 370.912 622.462 370.472C622.051 370.025 621.846 369.383 621.846 368.547C621.846 367.711 622.059 367.055 622.484 366.578C622.909 366.094 623.474 365.852 624.178 365.852C624.816 365.852 625.318 366.05 625.685 366.446C625.839 366.607 625.967 366.842 626.07 367.15C626.18 367.458 626.235 367.821 626.235 368.239L625.894 368.624H622.781C622.803 369.783 623.276 370.362 624.2 370.362ZM625.311 367.931C625.311 367.52 625.205 367.19 624.992 366.941C624.779 366.692 624.497 366.567 624.145 366.567C623.8 366.567 623.507 366.692 623.265 366.941C623.023 367.183 622.876 367.513 622.825 367.931H625.311ZM629.96 366.864C629.586 366.703 629.234 366.622 628.904 366.622C628.266 366.622 627.947 366.816 627.947 367.205C627.947 367.542 628.373 367.869 629.223 368.184C629.539 368.301 629.828 368.485 630.092 368.734C630.364 368.983 630.499 369.284 630.499 369.636C630.499 370.142 630.334 370.52 630.004 370.769C629.674 371.011 629.216 371.132 628.629 371.132C628.043 371.132 627.471 370.971 626.913 370.648L627.188 369.966C627.65 370.23 628.175 370.362 628.761 370.362C629.011 370.362 629.212 370.311 629.366 370.208C629.52 370.098 629.597 369.951 629.597 369.768C629.597 369.585 629.509 369.427 629.333 369.295C629.157 369.163 628.945 369.046 628.695 368.943C628.446 368.84 628.197 368.73 627.947 368.613C627.698 368.488 627.485 368.316 627.309 368.096C627.133 367.876 627.045 367.616 627.045 367.315C627.045 366.846 627.203 366.486 627.518 366.237C627.841 365.98 628.248 365.852 628.739 365.852C629.231 365.852 629.729 365.962 630.235 366.182L629.96 366.864Z" fill="white"/>
</svg>
