<svg width="800" height="600" viewBox="0 0 800 600" fill="none" xmlns="http://www.w3.org/2000/svg">
  <path d="M648.04 433.94 L647.66 433.89 L647.35 432.65 L645.42 432.33 L643.49 432.33 L642.84 430.72 L641.21 430.05 L638.63 428.76 L639.57 428.10 L641.51 428.10 L644.78 428.76 L646.41 430.42 L648.34 430.42 L649.98 430.42 L651.91 431.36 L653.24 433.30 L652.60 433.30 L650.62 433.62 L649.33 433.94 L648.04 433.94 Z" fill="#1E417C"/>
  <path d="M631.80 423.54 L630.52 422.98 L630.12 421.86 L630.74 419.85 L631.19 418.34 L633.20 417.72 L635.66 418.06 L635.66 422.25 L633.42 422.92 L631.80 423.54 Z" fill="#1E417C"/>
  <path d="M615.22 429.06 L614.63 435.32 L605.83 438.07 L594.90 447.03 L591.82 452.35 L588.98 459.12 L586.88 466.61 L586.13 474.03 L586.98 481.96 L585.96 485.40 L582.00 486.82 L579.47 488.39 L576.59 495.81 L574.76 498.18 L568.33 499.72 L554.52 499.83 L549.21 500.98 L545.59 504.10 L541.29 508.90 L536.31 513.27 L530.63 515.20 L517.36 517.91 L505.31 522.71 L495.56 524.51 L489.30 518.30 L488.90 529.97 L477.12 535.98 L446.22 541.26 L439.99 543.68 L436.23 545.76 L431.05 548.61 L425.03 549.55 L395.08 546.68 L365.26 549.55 L358.83 550.97 L352.94 554.32 L333.65 569.06 L329.38 576.09 L319.02 576.09 L310.21 577.08 L307.29 580.00 L304.41 578.39 L303.76 572.54 L308.58 568.95 L310.51 571.23 L318.64 571.23 L317.69 559.88 L304.04 558.25 L298.86 562.48 L296.28 566.40 L293.66 564.42 L288.46 562.48 L286.97 565.34 L274.84 562.70 L266.99 557.66 L264.83 553.96 L264.52 548.58 L262.06 549.04 L258.83 549.04 L256.67 549.04 L254.52 548.88 L253.13 548.42 L251.13 550.27 L249.13 552.42 L247.74 553.96 L242.20 554.73 L239.12 560.89 L230.81 559.97 L225.88 558.74 L223.11 561.66 L223.34 568.27 L218.57 569.67 L201.17 571.52 L183.88 568.71 L167.43 562.75 L146.14 551.80 L138.49 549.08 L129.83 547.34 L112.16 545.80 L104.88 543.33 L97.88 539.72 L81.29 528.86 L78.89 526.57 L76.28 514.54 L74.59 512.61 L74.32 508.70 L64.68 486.82 L60.01 483.52 L51.17 478.70 L47.41 475.45 L44.00 471.29 L41.49 466.29 L41.22 460.91 L44.81 455.56 L36.82 444.73 L36.04 440.37 L36.04 431.30 L34.22 423.46 L25.18 410.58 L21.83 404.19 L20.00 393.76 L21.42 386.18 L26.19 383.64 L34.62 388.45 L47.01 399.62 L53.95 404.12 L61.83 406.79 L79.09 406.15 L94.12 399.58 L106.48 389.55 L115.75 378.63 L121.94 365.74 L126.41 358.73 L133.01 354.81 L133.82 352.84 L134.97 350.86 L137.38 350.00 L139.44 350.47 L142.59 352.22 L143.30 352.61 L146.01 353.10 L150.20 352.30 L153.45 357.04 L159.64 359.97 L165.76 360.91 L170.64 359.97 L175.84 357.04 L178.77 351.54 L181.40 346.24 L194.60 347.65 L197.29 358.66 L199.83 364.20 L203.40 368.41 L209.89 371.31 L220.93 374.24 L229.40 378.11 L237.87 381.37 L242.41 384.62 L243.97 390.81 L243.97 394.63 L246.29 397.94 L250.51 399.53 L254.07 399.53 L265.08 396.98 L270.26 393.99 L271.61 392.10 L274.19 387.54 L277.46 385.93 L281.37 387.54 L283.95 390.48 L290.42 393.99 L295.94 393.99 L301.42 391.13 L309.20 384.62 L316.70 378.79 L324.18 375.85 L333.85 370.97 L338.41 367.45 L342.32 366.76 L352.68 367.77 L363.73 369.70 L374.06 369.70 L379.91 367.45 L382.55 365.79 L385.13 362.22 L395.19 356.40 L401.68 356.40 L407.23 358.33 L412.77 359.97 L417.93 360.27 L422.14 361.90 L427.73 367.10 L431.90 371.61 L438.73 374.88 L448.15 376.82 L451.41 375.85 L453.33 373.59 L453.99 370.35 L459.17 367.10 L467.62 359.62 L471.19 358.66 L478.02 359.30 L488.68 358.33 L495.86 357.37 L498.14 358.66 L498.14 363.86 L499.43 370.02 L502.69 372.62 L507.21 376.82 L513.05 382.02 L513.70 384.62 L514.34 391.77 L513.70 398.57 L513.70 406.71 L511.07 416.10 L508.50 423.56 L509.79 429.06 L513.70 433.30 L518.25 433.30 L525.09 431.68 L527.97 425.17 L529.58 413.20 L531.99 411.21 L535.10 408.65 L538.97 405.70 L542.24 408.65 L542.24 418.70 L544.82 424.23 L549.97 426.14 L557.50 423.56 L560.72 418.06 L564.33 415.76 L568.89 416.40 L573.66 419.03 L577.27 418.38 L580.54 417.05 L585.03 418.38 L588.96 419.99 L598.03 423.90 L603.23 424.55 L607.77 425.17 L614.24 428.76 L615.22 429.06 Z" fill="#1E417C"/>
  <path d="M696.40 398.57 L701.56 400.18 L706.11 401.83 L709.98 402.80 L715.87 402.80 L723.01 400.18 L730.49 400.18 L734.40 402.48 L739.60 404.41 L743.72 403.74 L746.05 402.48 L747.91 400.34 L753.70 404.42 L760.00 410.31 L764.63 421.68 L769.30 429.00 L774.99 435.73 L780.00 438.54 L774.21 438.88 L763.48 437.93 L753.13 435.49 L748.52 431.30 L743.58 429.20 L721.01 431.57 L701.41 436.46 L697.15 438.54 L693.79 441.46 L682.39 439.44 L674.65 440.80 L671.43 439.14 L676.58 435.27 L680.15 434.59 L680.15 427.45 L672.37 426.81 L667.81 423.56 L668.16 414.47 L664.89 411.55 L655.18 408.02 L657.41 403.44 L661.32 400.84 L666.87 398.57 L670.09 400.50 L672.71 402.80 L678.52 401.83 L683.72 398.89 L686.64 395.96 L688.92 393.67 L696.40 398.57 Z" fill="#1E417C"/>
</svg>
