<svg width="800" height="600" viewBox="0 0 800 600" fill="none" xmlns="http://www.w3.org/2000/svg">
  <path d="M81.03 544.71 L81.90 542.85 L81.10 542.12 L82.55 539.15 L81.64 536.41 L79.92 533.76 L78.90 531.02 L79.31 527.54 L80.57 524.66 L82.13 522.01 L83.31 519.20 L71.85 518.02 L70.58 518.10 L70.17 519.00 L69.90 523.16 L69.23 523.70 L68.17 523.82 L66.80 524.71 L65.32 525.92 L63.65 526.48 L61.99 526.26 L60.51 525.08 L59.29 522.40 L59.44 519.82 L60.11 517.22 L60.51 514.42 L62.53 512.31 L67.01 511.92 L71.54 512.69 L73.82 514.05 L72.37 514.27 L71.21 514.83 L69.33 516.25 L69.66 517.46 L76.08 518.00 L81.95 518.80 L84.12 518.29 L83.88 516.25 L81.90 512.58 L80.51 507.97 L79.71 503.36 L79.92 502.13 L80.88 500.61 L81.10 499.68 L80.92 498.30 L79.71 495.61 L78.73 490.75 L77.95 488.45 L76.39 486.38 L73.69 485.16 L69.82 484.62 L62.64 484.51 L57.46 483.58 L53.07 481.24 L43.30 472.95 L43.39 472.18 L45.67 471.94 L45.67 471.27 L43.60 470.79 L41.13 470.67 L38.72 471.03 L36.85 471.94 L35.62 473.46 L35.94 474.47 L39.14 476.42 L38.14 476.55 L37.48 476.81 L36.12 477.89 L38.61 478.15 L41.53 479.23 L43.99 480.84 L45.00 482.70 L43.62 483.00 L30.73 476.90 L28.10 476.03 L21.79 475.37 L20.13 474.41 L20.00 472.82 L26.06 463.63 L28.09 459.46 L29.44 455.03 L29.62 450.66 L24.48 429.51 L23.95 428.42 L23.64 428.20 L23.53 427.69 L23.64 427.19 L23.95 426.96 L24.60 427.08 L24.89 427.36 L25.07 427.63 L25.39 427.76 L26.09 428.33 L28.77 436.59 L30.70 439.44 L30.98 440.63 L30.73 441.66 L29.68 443.14 L29.44 444.34 L29.81 445.81 L30.73 446.12 L35.56 444.58 L40.71 442.28 L43.14 441.79 L47.33 439.92 L51.63 437.39 L52.23 435.63 L51.54 433.77 L50.03 431.95 L48.32 430.30 L44.28 427.36 L44.28 424.02 L43.06 420.15 L40.29 417.68 L36.55 416.18 L28.25 414.05 L25.99 413.88 L25.02 414.79 L25.13 419.39 L24.94 421.57 L24.29 424.02 L24.68 425.81 L24.39 426.50 L22.81 426.22 L22.37 425.65 L21.90 424.53 L21.50 423.23 L21.01 415.42 L21.34 412.99 L23.94 406.26 L24.29 403.73 L23.06 366.45 L23.51 364.64 L24.29 362.79 L29.12 353.48 L31.31 350.59 L32.91 349.20 L33.57 349.48 L34.00 350.43 L34.99 350.96 L34.91 351.72 L32.49 355.21 L31.65 356.17 L31.65 356.91 L32.31 357.28 L33.04 357.48 L34.99 357.58 L35.35 358.04 L35.77 359.08 L36.34 360.12 L37.22 360.58 L41.64 361.02 L42.82 361.48 L41.27 361.99 L41.66 362.98 L41.37 364.72 L42.01 365.73 L42.98 366.16 L43.82 365.88 L44.13 365.16 L43.48 364.26 L43.48 363.52 L46.87 362.90 L52.10 362.83 L56.89 363.37 L58.97 364.63 L59.97 364.81 L65.30 367.20 L66.79 366.82 L68.17 365.89 L69.33 364.68 L70.14 363.52 L70.80 363.52 L74.06 368.58 L74.15 369.41 L73.74 369.86 L73.91 370.88 L74.61 371.89 L76.37 372.68 L78.47 374.19 L79.71 374.62 L81.55 374.60 L88.12 373.82 L88.83 373.62 L89.41 373.08 L89.79 372.25 L89.93 371.25 L89.96 369.67 L90.10 368.61 L90.73 366.40 L91.20 365.78 L91.77 365.53 L91.99 365.18 L91.46 364.26 L88.12 362.79 L87.04 362.73 L86.23 362.47 L85.74 361.92 L85.58 360.99 L85.10 360.03 L83.27 359.49 L83.31 358.38 L84.74 357.66 L89.66 357.48 L96.61 350.96 L98.23 350.43 L102.66 349.67 L108.60 349.52 L108.81 349.29 L106.24 348.75 L101.53 348.66 L100.42 348.06 L101.42 346.14 L103.00 344.46 L104.28 343.55 L107.71 342.13 L112.80 339.38 L114.80 339.12 L115.97 339.26 L117.96 339.80 L119.17 339.93 L120.43 339.74 L121.09 339.30 L121.62 338.78 L122.47 338.39 L124.37 338.35 L126.84 338.80 L128.98 339.69 L129.90 341.00 L130.54 343.51 L132.04 345.01 L133.78 346.07 L135.10 347.28 L136.52 349.55 L133.53 349.96 L130.36 352.76 L127.63 353.16 L127.63 353.97 L128.07 354.95 L126.90 355.90 L123.96 357.58 L122.95 359.11 L122.82 360.47 L123.27 363.89 L124.09 364.93 L125.86 364.75 L127.63 363.60 L129.06 360.08 L130.66 359.84 L132.61 360.05 L134.31 359.85 L133.63 358.82 L132.76 358.44 L131.73 358.57 L130.63 359.05 L131.45 357.87 L132.29 357.03 L133.04 356.10 L133.57 354.64 L134.31 354.64 L133.66 357.06 L136.47 357.42 L140.31 357.06 L142.73 357.24 L144.19 357.79 L145.83 357.61 L147.31 357.69 L148.29 359.05 L147.98 360.10 L145.51 362.11 L144.52 363.52 L145.70 363.79 L145.93 364.26 L146.00 364.91 L146.73 365.73 L147.78 366.32 L150.48 367.20 L150.92 367.65 L151.18 368.23 L151.64 368.69 L152.69 368.74 L154.24 366.94 L154.90 366.40 L156.43 367.19 L157.74 366.33 L157.70 364.97 L155.29 364.26 L151.96 365.36 L151.75 365.69 L151.25 365.79 L150.12 365.73 L149.20 365.44 L149.13 364.82 L149.46 364.30 L149.75 364.26 L149.94 360.26 L151.71 356.81 L152.67 353.76 L152.67 353.74 L150.48 350.96 L149.43 350.30 L148.87 350.06 L146.73 350.22 L142.40 351.32 L141.33 352.16 L139.00 352.99 L136.72 353.07 L135.78 351.69 L136.99 350.39 L141.95 348.72 L143.07 346.91 L143.68 345.40 L143.46 344.66 L140.77 344.13 L139.67 343.60 L138.73 342.88 L137.99 342.13 L137.43 341.42 L136.81 340.33 L136.41 339.05 L136.52 337.72 L137.07 337.36 L139.55 335.22 L139.83 334.71 L140.33 334.16 L140.25 332.91 L139.74 331.67 L139.06 331.11 L137.79 330.96 L136.84 330.59 L135.10 329.57 L137.11 326.88 L139.13 324.74 L141.31 323.00 L144.65 321.12 L145.40 320.87 L146.21 320.72 L147.14 320.68 L147.71 320.34 L148.31 318.81 L148.66 318.47 L164.63 315.54 L168.19 315.60 L180.75 318.47 L180.75 319.27 L179.38 319.78 L179.28 320.44 L180.11 321.08 L181.56 321.48 L183.03 321.41 L184.08 320.85 L188.01 317.43 L189.79 315.49 L191.76 313.95 L195.98 313.10 L199.54 311.86 L204.70 312.59 L216.18 311.86 L209.81 308.61 L206.59 307.95 L204.41 306.94 L203.25 306.71 L202.38 306.97 L198.60 309.79 L196.53 310.97 L194.23 311.57 L192.22 310.72 L190.27 309.64 L188.22 309.94 L184.45 311.86 L180.11 312.86 L170.76 312.93 L146.12 317.80 L143.99 317.91 L141.95 317.41 L129.90 311.86 L130.58 313.28 L129.71 314.00 L126.16 314.80 L123.53 315.89 L122.16 316.26 L120.34 316.27 L121.01 315.60 L119.07 314.91 L117.22 315.14 L115.38 315.96 L113.60 317.07 L111.85 316.96 L109.64 318.15 L107.77 319.44 L106.97 319.64 L106.05 318.20 L103.91 317.64 L101.46 317.79 L99.62 318.47 L101.20 319.41 L97.29 321.41 L91.94 322.96 L88.10 322.34 L85.58 322.64 L83.06 323.28 L81.90 324.06 L81.31 326.14 L79.87 327.41 L78.16 328.38 L76.76 329.57 L76.15 332.63 L76.03 332.88 L75.84 333.81 L75.34 334.35 L74.63 334.80 L71.22 337.72 L68.79 337.84 L67.63 338.14 L67.14 338.76 L66.33 339.19 L64.56 339.58 L62.79 340.32 L61.99 341.73 L62.91 345.38 L62.80 347.09 L61.18 348.09 L61.18 348.75 L65.48 348.51 L66.47 348.75 L67.28 350.06 L66.63 350.98 L65.23 351.52 L63.83 351.69 L62.57 351.47 L60.04 350.46 L58.65 350.22 L57.36 350.43 L55.20 351.40 L53.84 351.69 L53.84 352.49 L58.97 351.69 L60.51 351.97 L62.78 352.95 L63.83 353.16 L71.43 351.34 L73.01 351.69 L73.31 352.48 L73.01 354.53 L73.01 355.44 L74.63 356.87 L75.36 357.90 L73.77 359.48 L72.66 360.24 L71.22 360.58 L69.69 360.71 L68.74 361.06 L68.79 361.51 L70.14 361.99 L67.96 362.02 L64.96 360.49 L62.32 358.51 L61.18 357.24 L60.20 355.64 L57.78 354.34 L54.76 353.48 L52.00 353.16 L50.09 352.60 L47.81 351.23 L45.69 349.57 L44.28 348.09 L43.08 344.20 L42.40 343.61 L40.94 343.33 L37.90 342.21 L36.12 342.13 L37.67 346.10 L38.22 348.43 L37.96 349.89 L36.35 350.04 L35.54 347.77 L35.31 342.81 L36.57 338.36 L38.99 335.04 L58.31 317.74 L64.11 314.43 L73.01 306.71 L76.43 304.93 L80.29 304.97 L89.26 306.71 L94.30 306.88 L104.04 305.66 L108.36 304.44 L113.54 301.30 L115.46 300.82 L142.40 302.97 L152.19 302.33 L161.95 300.35 L171.17 296.95 L179.30 292.01 L202.47 268.70 L206.56 265.40 L213.99 260.92 L217.70 257.06 L219.13 256.51 L221.70 254.48 L226.91 253.91 L236.85 254.31 L246.53 253.42 L255.36 251.30 L263.01 248.28 L276.14 240.95 L283.31 238.06 L286.22 237.46 L289.44 237.27 L292.56 237.67 L295.14 238.80 L289.27 239.99 L283.67 242.90 L274.84 250.26 L271.61 256.72 L274.61 261.58 L280.06 266.04 L284.11 271.29 L280.98 276.03 L281.03 281.64 L283.31 292.67 L281.47 294.28 L275.96 296.50 L273.37 298.25 L269.56 302.61 L267.85 305.54 L266.61 310.17 L263.94 315.35 L262.64 317.07 L261.73 317.82 L260.85 318.24 L259.68 318.43 L254.60 318.39 L253.04 318.61 L251.07 318.94 L242.06 315.60 L235.38 311.65 L230.93 310.66 L227.34 308.64 L224.68 308.18 L222.50 308.85 L219.45 311.58 L217.39 311.86 L219.38 311.99 L221.65 310.39 L223.55 309.65 L225.47 309.13 L227.69 309.65 L238.31 315.78 L241.84 316.74 L245.97 318.81 L248.34 319.27 L257.03 319.39 L259.04 320.01 L256.02 322.07 L255.36 322.96 L254.84 324.38 L254.25 327.32 L253.89 328.10 L254.67 329.87 L255.84 335.36 L256.31 339.69 L257.07 341.98 L259.71 346.54 L260.63 347.26 L261.68 347.89 L261.93 348.60 L260.45 349.55 L259.57 349.58 L257.04 348.93 L255.68 348.75 L250.84 348.75 L249.15 349.17 L247.21 350.22 L245.39 349.15 L243.36 348.31 L241.03 348.06 L238.31 348.75 L235.91 349.81 L234.90 350.04 L233.17 350.22 L231.54 350.66 L228.22 352.16 L224.27 352.95 L219.39 354.98 L204.35 356.17 L204.35 356.91 L209.24 357.39 L225.41 354.64 L229.02 353.40 L230.59 353.16 L230.95 352.93 L231.01 352.43 L231.22 351.92 L232.02 351.69 L232.90 351.82 L234.33 352.37 L235.01 352.49 L236.17 352.34 L237.49 351.90 L238.59 351.30 L239.05 350.59 L239.77 349.14 L241.47 348.92 L245.00 349.55 L244.73 349.94 L244.19 350.96 L246.06 351.16 L251.31 351.72 L255.79 351.57 L258.67 350.59 L261.25 350.06 L263.25 352.43 L263.77 355.99 L261.91 359.05 L254.65 362.13 L249.30 365.48 L248.34 365.73 L247.58 369.23 L247.21 370.21 L248.02 371.44 L247.52 372.98 L246.31 374.41 L245.00 375.29 L248.31 375.19 L249.55 374.62 L249.42 370.54 L249.76 367.58 L250.85 366.15 L255.36 364.26 L258.93 361.60 L260.83 360.89 L263.04 361.68 L263.43 362.37 L264.01 364.68 L264.11 365.36 L264.59 365.72 L267.78 367.20 L275.86 369.76 L284.65 370.33 L310.23 368.09 L313.80 368.32 L317.33 369.41 L318.93 370.42 L322.40 373.82 L329.08 377.56 L329.08 378.23 L326.58 379.60 L325.24 382.08 L324.71 384.95 L324.61 387.49 L323.43 389.88 L313.52 397.75 L308.49 399.69 L306.60 401.16 L306.02 402.59 L306.30 405.93 L304.80 409.21 L301.39 409.61 L297.64 408.06 L295.14 405.57 L297.91 405.30 L299.05 404.72 L299.61 403.36 L299.31 401.92 L298.22 401.48 L296.82 401.34 L295.53 400.79 L292.95 400.27 L290.27 402.05 L287.85 404.40 L284.39 406.66 L285.15 409.17 L286.57 411.91 L287.04 413.73 L285.99 414.48 L284.27 414.95 L282.44 415.07 L281.10 414.79 L280.01 413.90 L278.94 411.83 L278.15 410.78 L279.01 410.27 L280.84 409.53 L281.83 409.31 L281.06 408.11 L280.12 407.53 L275.66 406.78 L274.68 406.89 L272.28 407.77 L269.27 408.10 L267.41 407.26 L265.77 405.75 L263.45 404.09 L265.85 403.96 L269.45 402.32 L271.48 401.89 L273.00 402.53 L274.87 403.65 L276.71 404.06 L278.15 402.56 L276.33 400.84 L276.45 399.50 L279.61 395.94 L278.15 395.95 L276.60 395.60 L275.18 394.96 L274.10 394.14 L272.92 393.69 L270.13 394.42 L268.65 393.74 L268.25 395.18 L267.66 396.08 L266.72 396.54 L265.22 396.68 L264.43 397.25 L261.54 400.79 L258.91 402.68 L253.09 405.37 L250.48 407.40 L248.97 409.93 L249.69 411.50 L251.47 412.98 L253.15 415.19 L253.86 417.91 L253.41 419.99 L252.09 421.88 L250.14 424.02 L252.73 423.31 L254.62 423.18 L255.14 423.94 L252.44 427.34 L252.18 428.71 L252.35 431.43 L252.26 433.31 L252.10 434.14 L251.68 435.05 L249.09 436.95 L248.68 437.72 L248.16 437.71 L246.99 438.14 L245.74 438.81 L245.00 439.45 L245.53 439.73 L246.31 440.79 L246.73 441.93 L245.78 442.71 L245.43 443.23 L244.87 443.76 L243.85 444.00 L242.53 443.80 L241.52 443.29 L239.85 441.79 L239.37 441.09 L239.05 440.30 L238.59 439.50 L237.59 438.79 L236.22 438.52 L225.75 438.79 L224.36 439.06 L223.49 439.70 L222.82 440.44 L222.07 440.99 L219.28 441.62 L213.60 441.43 L210.98 441.79 L213.69 443.49 L229.09 445.41 L230.18 445.89 L229.80 447.02 L228.02 449.22 L227.12 451.10 L227.39 451.93 L228.88 452.12 L231.70 452.08 L231.70 452.83 L227.28 454.25 L225.99 455.46 L227.22 457.24 L226.82 457.42 L225.82 458.04 L223.28 457.15 L211.45 459.10 L206.06 460.75 L202.88 460.91 L196.28 459.44 L192.48 457.54 L191.50 457.24 L180.35 457.20 L177.83 456.50 L177.48 456.91 L177.28 457.21 L177.17 457.54 L177.09 458.04 L179.33 458.65 L187.08 458.71 L188.48 459.20 L194.06 462.45 L195.20 463.73 L195.98 464.89 L197.07 465.73 L199.21 466.06 L209.51 466.06 L207.75 467.29 L202.15 469.80 L199.16 471.99 L197.70 472.55 L195.20 472.74 L194.28 473.21 L194.09 474.21 L194.06 475.22 L193.69 475.68 L186.91 476.65 L184.45 477.66 L182.96 477.89 L181.66 477.72 L179.25 477.12 L177.83 477.15 L178.11 477.60 L178.56 477.89 L177.00 479.15 L173.01 479.89 L171.20 480.83 L173.09 481.51 L175.12 481.44 L180.42 480.65 L181.40 480.31 L182.44 480.15 L188.66 482.07 L189.10 483.28 L188.63 484.76 L187.45 486.04 L185.98 486.62 L182.33 487.04 L180.75 487.51 L181.32 488.71 L182.65 490.34 L183.03 491.19 L182.73 492.40 L182.10 493.34 L182.27 494.14 L184.45 494.93 L185.78 495.64 L187.05 496.63 L187.38 497.69 L185.91 498.54 L185.91 499.34 L187.01 500.06 L191.00 503.97 L192.32 504.29 L193.60 505.00 L194.06 506.76 L193.65 508.02 L192.89 508.79 L192.18 509.74 L191.85 511.48 L191.27 512.27 L189.88 512.82 L188.18 513.14 L186.71 513.25 L180.39 512.58 L178.93 512.81 L178.04 513.38 L177.33 514.10 L176.35 514.79 L173.76 515.73 L172.18 516.10 L170.81 516.25 L169.94 516.72 L169.94 517.67 L170.83 518.46 L172.69 518.46 L172.69 519.20 L169.52 519.14 L168.05 519.35 L166.73 520.00 L167.82 520.47 L169.17 520.65 L172.28 520.67 L173.71 521.06 L175.27 522.03 L177.83 524.35 L175.04 526.45 L173.20 527.45 L171.20 528.08 L166.28 528.66 L164.34 529.50 L165.26 531.02 L166.59 531.05 L172.69 529.63 L175.43 529.73 L176.35 529.63 L177.14 529.28 L177.90 528.76 L178.79 528.29 L180.02 528.08 L182.35 528.65 L186.69 531.42 L188.92 532.50 L194.84 533.42 L196.28 534.03 L197.11 535.60 L199.49 543.78 L199.75 544.26 L199.58 544.59 L198.54 545.06 L196.94 545.09 L195.42 544.56 L194.18 544.46 L193.32 545.80 L194.67 546.06 L195.95 546.52 L197.02 547.16 L197.74 547.94 L198.15 548.85 L198.36 550.10 L197.90 551.20 L196.31 551.68 L195.06 551.22 L193.52 549.20 L192.58 548.74 L188.11 548.93 L186.71 548.74 L184.69 548.05 L184.84 547.62 L185.71 547.21 L185.91 546.54 L184.00 544.93 L183.29 543.96 L184.07 543.53 L186.94 542.88 L186.36 541.65 L183.79 540.79 L180.75 541.33 L180.16 541.97 L178.74 544.16 L177.53 545.35 L176.85 546.17 L176.35 546.54 L175.54 546.69 L173.79 546.54 L173.04 546.90 L171.20 548.15 L166.71 550.36 L165.26 551.68 L164.55 553.95 L164.68 553.96 L164.62 553.99 L163.03 554.30 L161.20 554.18 L159.03 552.99 L157.08 553.25 L155.90 553.86 L154.37 554.10 L153.32 554.73 L151.71 554.91 L143.85 554.89 L141.95 554.44 L141.16 553.16 L140.83 551.66 L140.34 550.58 L138.54 549.65 L115.70 546.54 L107.24 544.53 L98.64 543.68 L96.12 543.90 L88.79 545.49 L84.82 545.39 L81.03 544.71 Z" fill="#1E417C"/>
  <path d="M423.96 562.41 L422.74 563.20 L421.63 563.47 L420.68 563.84 L419.85 564.99 L424.10 566.08 L423.68 568.41 L420.25 570.68 L415.45 571.60 L398.69 569.47 L393.26 570.20 L388.10 571.60 L384.03 573.80 L381.60 573.56 L371.57 570.10 L365.00 566.76 L353.16 562.38 L347.83 561.69 L342.06 560.13 L336.23 559.32 L333.94 558.13 L332.86 556.50 L333.56 554.69 L336.26 553.77 L339.54 554.08 L342.60 553.94 L344.59 551.68 L342.85 551.31 L341.38 550.65 L335.66 546.52 L334.97 545.80 L334.97 543.95 L336.43 542.24 L340.91 539.12 L342.44 539.56 L357.89 537.72 L360.51 538.43 L365.62 540.82 L367.52 541.33 L369.44 542.25 L372.67 546.35 L375.24 547.27 L377.82 547.61 L396.99 553.88 L395.96 552.01 L394.71 550.84 L394.62 549.91 L396.99 548.74 L399.93 548.74 L402.55 548.04 L403.62 547.94 L402.64 546.77 L402.38 545.43 L402.55 544.06 L402.88 542.85 L411.10 547.18 L411.77 548.74 L414.32 550.65 L415.94 551.39 L417.72 551.68 L416.64 552.28 L416.18 552.42 L417.76 554.34 L423.16 556.93 L424.33 557.97 L424.62 559.73 L425.07 560.52 L425.07 561.15 L423.96 562.41 Z" fill="#1E417C"/>
  <path d="M273.74 544.33 L275.51 545.33 L277.56 546.07 L279.01 547.05 L278.96 548.74 L279.98 549.16 L281.10 549.48 L272.65 550.61 L270.34 552.08 L269.00 552.42 L266.55 551.77 L248.02 540.07 L246.27 537.65 L245.63 535.97 L247.21 536.98 L256.35 539.92 L259.04 541.33 L261.57 543.67 L262.90 544.66 L264.48 545.06 L266.11 545.06 L267.40 544.80 L267.88 543.94 L267.13 542.12 L268.66 543.41 L269.97 546.63 L271.13 547.27 L273.37 547.29 L274.89 547.06 L275.18 546.20 L273.74 544.33 Z" fill="#1E417C"/>
  <path d="M485.56 530.29 L494.99 531.41 L498.53 533.28 L500.26 536.98 L500.05 538.15 L499.07 538.80 L497.30 539.07 L494.78 539.12 L482.05 537.52 L478.15 537.85 L474.44 538.83 L470.79 540.59 L465.06 545.10 L463.01 545.80 L459.88 545.50 L453.02 543.53 L453.02 542.85 L454.54 542.85 L454.06 541.76 L454.51 540.90 L455.51 540.30 L456.69 539.91 L456.14 539.59 L455.12 538.75 L454.54 538.45 L456.93 536.89 L458.34 536.49 L459.69 536.98 L460.48 536.18 L459.69 534.70 L461.43 534.80 L464.03 535.84 L465.64 536.18 L466.71 536.06 L470.22 535.22 L471.53 534.70 L470.95 533.64 L470.92 532.77 L471.39 532.13 L472.31 531.76 L472.31 531.02 L468.80 529.58 L467.84 528.82 L467.29 527.74 L467.66 527.00 L468.84 526.62 L470.79 526.62 L473.13 529.01 L476.74 529.96 L485.56 530.29 Z" fill="#1E417C"/>
  <path d="M226.48 536.18 L228.04 537.87 L232.27 545.30 L232.20 546.36 L230.69 546.59 L227.62 546.54 L226.02 547.02 L223.91 547.98 L221.81 548.67 L220.26 548.34 L218.49 547.44 L213.53 546.54 L211.72 545.80 L211.72 545.06 L214.58 544.24 L217.96 545.09 L221.36 546.47 L224.34 547.27 L224.34 546.54 L219.19 543.92 L214.30 542.91 L213.19 542.85 L212.11 543.09 L210.56 543.98 L209.51 544.33 L205.30 544.20 L201.66 542.50 L199.54 539.67 L199.88 536.18 L199.21 536.18 L199.21 535.51 L201.59 536.47 L204.15 538.15 L206.67 539.42 L208.83 539.12 L208.38 538.74 L207.67 538.00 L207.25 537.29 L207.67 536.98 L208.25 536.74 L207.51 536.22 L203.04 534.38 L202.29 533.53 L203.62 532.50 L203.62 531.76 L195.16 532.22 L193.69 532.13 L192.62 531.65 L191.31 531.55 L190.17 531.27 L189.59 530.29 L189.97 529.81 L192.01 528.93 L192.58 528.08 L190.60 528.14 L188.82 528.53 L187.08 528.71 L185.24 528.08 L185.24 527.29 L194.74 524.69 L198.54 524.35 L203.01 524.85 L209.43 529.22 L212.85 530.29 L217.61 530.72 L221.05 531.92 L223.81 533.78 L226.48 536.18 Z" fill="#1E417C"/>
  <path d="M317.33 528.82 L318.08 525.78 L321.69 520.45 L325.86 516.35 L328.28 516.99 L323.14 530.29 L321.09 533.82 L315.47 540.30 L305.06 560.21 L304.01 561.53 L302.53 561.99 L299.98 562.05 L298.69 561.02 L295.94 554.69 L294.77 553.51 L293.32 552.56 L289.98 550.95 L292.60 550.85 L294.27 550.43 L295.63 549.52 L297.33 547.94 L298.33 546.14 L298.96 545.62 L299.98 546.17 L300.52 546.34 L303.27 545.80 L303.02 544.73 L302.55 543.53 L301.61 543.99 L300.68 544.14 L299.76 543.99 L298.80 543.53 L300.32 540.94 L302.60 539.02 L308.62 534.99 L311.21 533.91 L317.33 528.82 Z" fill="#1E417C"/>
  <path d="M780.00 519.20 L779.49 519.73 L779.26 520.10 L779.03 520.39 L778.53 520.67 L779.32 522.25 L779.61 523.25 L779.28 524.16 L778.16 525.48 L775.85 527.66 L775.18 528.73 L775.58 529.63 L775.58 530.29 L775.89 531.57 L774.18 532.70 L773.03 533.63 L771.52 534.44 L766.25 533.61 L761.85 533.43 L755.87 532.07 L748.47 529.43 L740.10 528.04 L731.34 523.94 L729.69 522.63 L731.07 520.33 L731.55 515.81 L732.01 509.24 L732.39 508.15 L733.28 506.97 L735.38 504.82 L736.25 503.22 L737.01 501.37 L737.95 500.24 L739.42 500.82 L743.77 504.42 L745.28 505.36 L747.70 506.81 L751.75 508.43 L755.82 510.30 L758.78 509.93 L760.83 510.27 L762.60 512.43 L763.75 513.25 L765.08 513.75 L772.80 516.90 L777.87 517.88 L780.00 519.20 Z" fill="#1E417C"/>
  <path d="M61.18 496.34 L58.52 496.95 L55.68 495.25 L53.21 492.62 L49.82 487.51 L49.10 485.19 L50.19 483.65 L53.84 483.10 L54.24 486.30 L56.03 486.85 L58.22 486.64 L59.78 487.51 L59.74 488.77 L58.36 491.18 L58.65 492.26 L59.46 493.44 L60.22 495.45 L61.18 496.34 Z" fill="#1E417C"/>
  <path d="M297.00 526.62 L292.18 526.62 L290.38 526.80 L288.37 527.35 L286.51 528.17 L285.17 529.22 L283.22 530.34 L280.91 530.17 L276.68 528.82 L269.48 528.49 L267.13 528.08 L266.09 527.67 L265.24 527.19 L264.30 526.79 L263.04 526.62 L260.35 526.77 L258.93 526.69 L250.48 523.61 L247.36 523.45 L246.53 524.27 L246.47 526.62 L244.84 525.91 L242.31 524.21 L240.52 523.61 L238.31 523.58 L234.25 524.17 L232.35 523.61 L240.61 519.99 L242.06 518.46 L240.19 516.93 L238.84 515.17 L237.42 513.75 L235.38 513.25 L233.76 513.52 L232.53 513.91 L231.27 514.18 L229.49 514.05 L227.04 512.62 L225.64 512.29 L224.34 513.25 L224.66 514.93 L228.39 518.21 L228.02 520.00 L227.48 520.14 L223.70 519.78 L223.42 519.48 L223.57 519.04 L223.55 518.46 L223.85 518.54 L224.15 518.10 L224.05 517.19 L222.49 514.80 L222.24 513.65 L222.49 512.51 L223.18 511.48 L223.05 510.62 L221.39 510.05 L217.07 509.43 L215.71 508.93 L214.50 508.33 L213.99 507.80 L213.76 507.22 L212.76 506.24 L212.51 505.60 L212.76 504.94 L213.76 503.97 L213.99 503.36 L213.76 502.18 L212.76 500.29 L212.51 499.68 L212.85 495.97 L211.74 495.49 L210.06 495.41 L206.93 495.61 L205.50 495.29 L203.98 494.52 L201.36 492.59 L203.17 492.20 L205.19 492.06 L206.96 491.66 L208.03 490.46 L202.15 488.98 L203.04 489.09 L205.83 488.98 L204.71 487.72 L202.75 487.04 L198.47 486.71 L196.97 486.36 L193.32 483.77 L193.32 483.10 L196.20 483.84 L199.24 485.35 L202.24 486.46 L205.03 486.04 L194.39 480.66 L190.39 480.16 L191.22 479.05 L192.25 478.60 L193.46 478.36 L194.86 477.89 L198.89 474.94 L204.70 474.28 L206.67 474.48 L207.04 475.05 L207.09 475.96 L208.03 477.15 L213.21 478.76 L218.82 477.63 L229.49 473.48 L243.41 470.84 L248.16 468.86 L250.81 468.33 L253.70 468.21 L254.56 468.33 L254.63 468.66 L255.31 470.19 L255.36 470.53 L256.87 470.21 L257.25 469.40 L256.89 467.19 L258.38 466.97 L261.70 467.84 L269.13 470.76 L270.81 471.94 L272.14 473.27 L273.09 473.97 L274.10 474.28 L276.08 474.42 L277.86 474.80 L281.12 476.10 L279.36 475.69 L277.68 475.69 L276.44 476.25 L275.94 477.52 L276.34 477.99 L277.93 478.72 L278.15 479.36 L277.59 480.26 L276.71 480.51 L275.63 480.54 L274.47 480.83 L270.44 484.13 L272.21 485.93 L276.03 485.83 L278.15 483.44 L279.36 483.62 L286.30 481.57 L290.38 480.83 L290.85 480.50 L290.64 479.76 L290.12 479.02 L289.62 478.69 L288.65 478.55 L287.62 478.18 L286.75 477.68 L286.30 477.15 L286.62 476.21 L287.96 476.56 L289.39 477.39 L289.98 477.89 L291.35 476.69 L291.00 475.00 L289.96 473.10 L289.25 471.27 L289.77 471.76 L291.44 472.74 L291.48 470.93 L290.77 468.25 L290.79 467.53 L292.84 467.46 L296.00 469.48 L301.08 474.28 L301.29 474.97 L301.39 475.93 L301.63 476.79 L302.18 477.15 L302.45 477.39 L304.74 478.69 L305.43 480.18 L305.20 481.04 L304.20 481.65 L301.06 482.81 L296.06 484.04 L288.62 483.64 L286.78 483.87 L285.50 484.51 L284.92 485.88 L285.92 486.57 L287.65 486.60 L289.25 486.04 L288.75 485.49 L288.63 485.15 L289.43 484.04 L291.56 484.34 L298.80 485.31 L300.41 486.13 L311.04 494.93 L311.74 495.88 L314.46 500.53 L315.10 502.28 L314.30 502.28 L313.03 501.14 L311.07 500.41 L309.28 500.71 L308.49 502.63 L309.11 503.94 L311.98 506.57 L312.84 508.17 L313.04 510.49 L312.77 512.62 L312.05 514.44 L310.41 516.64 L310.10 517.44 L309.97 519.60 L309.62 520.17 L306.97 522.20 L305.95 523.52 L305.23 524.74 L304.26 525.81 L302.55 526.62 L301.24 526.80 L297.00 526.62 Z" fill="#1E417C"/>
  <path d="M506.94 459.44 L513.20 468.33 L513.28 468.79 L509.49 471.27 L507.85 471.55 L505.86 472.24 L504.05 473.09 L502.87 473.88 L500.54 474.26 L498.23 472.23 L496.69 469.28 L496.65 466.86 L497.82 465.49 L499.21 464.58 L500.59 463.87 L501.73 463.11 L502.89 461.77 L504.71 459.09 L506.15 458.04 L506.60 458.68 L506.76 458.97 L506.94 459.44 Z" fill="#1E417C"/>
  <path d="M285.50 440.25 L286.97 438.90 L287.83 437.21 L287.74 435.38 L286.30 433.58 L284.33 432.77 L282.15 432.25 L280.76 431.10 L281.10 428.42 L282.20 427.02 L283.83 426.07 L285.22 426.31 L286.01 430.82 L287.74 432.69 L290.17 433.90 L292.91 434.38 L291.96 435.44 L291.53 436.59 L291.63 437.72 L292.18 438.79 L294.03 440.27 L295.32 439.84 L296.24 438.69 L297.00 438.05 L297.33 438.77 L295.79 440.35 L292.91 442.46 L292.38 444.41 L292.49 448.00 L291.44 449.88 L287.95 451.73 L284.17 451.14 L281.28 448.62 L280.34 444.67 L280.96 442.49 L282.08 441.59 L283.64 441.13 L285.50 440.25 Z" fill="#1E417C"/>
  <path d="M444.98 545.06 L446.98 544.92 L449.06 544.54 L451.02 544.52 L452.67 545.43 L455.70 548.09 L458.96 550.28 L458.96 550.95 L449.43 555.46 L447.86 556.50 L443.65 561.16 L443.08 562.05 L442.00 562.50 L439.11 564.52 L437.97 564.99 L436.40 566.49 L436.35 569.90 L437.56 576.01 L437.29 579.87 L435.15 580.00 L432.90 578.34 L432.41 576.82 L430.87 575.59 L427.35 571.56 L426.54 570.20 L426.70 567.96 L428.00 566.23 L430.96 563.52 L428.78 563.24 L427.26 562.65 L426.88 561.55 L428.01 559.77 L426.79 559.35 L426.12 558.80 L425.07 557.56 L420.07 554.55 L419.68 554.05 L419.20 553.16 L418.97 552.29 L419.10 551.72 L419.07 551.14 L418.39 550.28 L416.52 549.03 L414.85 548.27 L413.68 547.21 L413.24 545.06 L413.21 543.09 L412.85 541.57 L411.77 540.51 L409.56 539.91 L409.56 539.12 L413.68 537.23 L414.71 536.98 L416.25 537.31 L418.34 538.78 L419.52 539.12 L420.69 538.70 L423.14 537.19 L423.60 537.35 L424.30 537.94 L425.82 537.45 L428.01 536.18 L428.01 535.51 L426.88 534.67 L424.86 531.38 L423.60 530.29 L416.37 528.31 L414.32 528.08 L413.74 527.86 L412.31 526.84 L411.42 526.62 L404.61 526.39 L402.58 525.75 L400.83 524.81 L399.27 523.61 L405.05 524.32 L416.43 527.36 L422.05 528.08 L419.67 525.59 L413.00 522.72 L410.22 520.00 L419.52 519.02 L420.13 518.59 L419.85 517.72 L417.52 516.61 L411.40 516.87 L409.56 515.46 L411.15 514.49 L412.06 513.22 L411.89 511.99 L410.22 511.11 L407.80 511.13 L405.98 512.07 L404.43 513.26 L402.88 514.05 L401.46 513.98 L397.49 512.94 L389.39 511.78 L387.44 511.11 L385.96 511.56 L378.52 509.64 L377.13 509.84 L374.19 510.80 L372.67 511.11 L365.25 511.11 L365.25 511.84 L367.46 512.58 L363.73 512.50 L361.05 511.94 L359.37 510.41 L358.63 507.44 L360.20 508.10 L361.79 508.14 L363.10 507.45 L363.78 505.96 L362.67 506.45 L361.52 506.68 L359.00 506.76 L358.66 506.17 L358.96 503.55 L358.26 502.96 L356.33 502.29 L350.40 499.17 L349.40 498.17 L350.38 497.91 L351.94 497.80 L353.21 497.44 L353.42 496.34 L352.57 495.81 L351.03 495.55 L349.38 495.50 L348.27 495.61 L347.53 496.19 L347.04 497.10 L346.25 497.80 L344.59 497.80 L343.92 497.32 L342.39 494.93 L342.39 494.13 L345.28 494.30 L346.83 494.22 L347.90 493.76 L348.85 493.06 L350.09 492.48 L351.44 492.07 L352.68 491.93 L354.95 491.35 L356.01 490.06 L355.90 488.77 L354.58 488.18 L355.00 487.09 L354.10 484.67 L351.94 480.83 L350.59 479.49 L349.22 478.59 L347.54 478.07 L345.33 477.89 L343.41 478.67 L342.18 478.88 L341.66 478.29 L341.86 476.84 L342.48 476.05 L343.51 475.75 L344.96 475.68 L347.80 475.08 L348.93 473.53 L348.63 471.50 L347.17 469.44 L342.41 466.03 L337.17 464.25 L325.40 462.45 L325.40 461.65 L342.39 462.45 L340.60 460.64 L333.87 458.99 L331.29 458.04 L330.17 456.99 L329.53 456.18 L328.66 455.54 L326.87 455.03 L321.25 454.79 L319.54 454.23 L319.54 453.56 L336.50 455.03 L340.02 454.69 L346.75 453.17 L350.47 452.83 L350.47 453.56 L349.28 453.46 L348.14 453.50 L347.04 453.74 L346.06 454.23 L347.75 456.11 L350.54 457.58 L353.69 458.12 L356.42 457.24 L351.94 455.03 L353.42 454.23 L354.42 454.81 L356.22 455.06 L360.10 455.03 L361.85 454.63 L365.51 453.15 L369.20 452.68 L370.87 452.15 L372.14 451.15 L372.67 449.55 L372.78 448.71 L373.29 447.22 L373.40 446.54 L373.01 445.68 L371.14 444.14 L370.46 443.26 L373.20 444.29 L375.85 444.55 L378.36 443.95 L380.69 442.46 L384.37 442.92 L387.35 439.99 L387.92 435.73 L384.35 432.17 L381.23 431.43 L374.33 431.15 L365.74 429.32 L363.30 428.12 L362.30 426.22 L376.08 429.95 L378.92 429.57 L395.52 431.04 L397.49 432.09 L401.96 431.95 L409.56 430.63 L413.47 429.27 L415.68 429.03 L416.92 429.96 L416.45 431.04 L413.42 433.09 L412.50 434.38 L413.76 435.50 L413.06 436.22 L411.33 436.38 L409.56 435.85 L409.78 435.46 L410.22 434.38 L406.80 434.48 L405.40 434.91 L404.35 435.85 L409.69 441.13 L411.73 444.08 L410.22 446.21 L408.58 446.37 L405.23 445.85 L403.62 446.21 L401.64 447.81 L400.38 448.40 L398.39 448.42 L398.39 449.22 L400.17 449.54 L405.48 449.22 L406.93 448.85 L408.63 448.10 L410.52 447.54 L412.50 447.68 L413.22 448.54 L414.34 450.31 L415.18 452.04 L415.08 452.83 L406.42 453.71 L404.51 454.16 L403.72 454.84 L405.09 455.70 L406.64 455.83 L411.48 455.62 L412.50 455.36 L413.32 454.82 L415.11 455.86 L417.72 458.04 L418.50 459.46 L418.43 459.99 L417.79 460.64 L416.92 462.45 L418.84 461.43 L420.23 460.41 L424.73 454.83 L424.95 454.70 L425.07 454.63 L424.83 453.85 L423.83 452.49 L423.60 452.08 L423.94 450.85 L424.77 449.30 L426.54 446.88 L428.14 445.92 L431.96 445.30 L433.88 444.67 L435.64 441.63 L433.43 438.12 L430.89 434.96 L431.68 432.91 L433.60 433.00 L437.40 435.27 L439.41 435.85 L440.44 436.32 L440.41 437.40 L439.97 438.61 L439.77 439.45 L440.24 440.81 L440.65 441.31 L441.16 441.63 L441.97 442.46 L444.00 445.60 L445.91 450.05 L446.22 454.21 L443.45 456.50 L439.56 455.70 L437.69 455.85 L436.90 457.63 L436.13 458.87 L432.34 460.94 L430.96 462.45 L433.14 462.72 L436.23 461.92 L438.71 460.43 L439.04 458.71 L440.76 458.30 L442.53 458.62 L444.07 459.54 L444.98 460.91 L441.63 460.26 L441.19 460.51 L441.86 461.50 L443.50 462.25 L447.13 463.11 L448.07 460.86 L450.54 457.43 L450.87 455.03 L446.39 443.26 L446.39 439.45 L446.00 437.91 L443.45 432.17 L441.77 430.67 L439.82 430.10 L437.48 430.18 L429.25 432.07 L426.15 432.38 L424.33 431.43 L426.16 428.79 L431.73 426.11 L441.97 422.55 L458.44 414.69 L467.03 411.99 L476.00 412.19 L485.31 415.19 L492.98 415.19 L495.06 415.82 L498.82 417.74 L502.02 418.50 L507.61 421.14 L506.15 422.84 L501.73 426.22 L500.16 428.04 L497.23 432.33 L495.84 433.58 L495.84 434.38 L498.82 436.81 L500.34 438.47 L501.00 439.86 L501.49 441.88 L502.66 444.25 L504.14 446.37 L505.48 447.68 L505.03 448.73 L504.80 450.17 L504.68 452.45 L504.07 454.31 L503.94 455.03 L504.08 455.55 L504.47 456.10 L505.48 457.24 L503.22 458.91 L498.89 463.67 L494.83 465.27 L494.13 466.58 L493.09 467.87 L490.71 468.33 L488.94 467.97 L487.67 467.38 L486.26 466.90 L484.09 466.86 L476.31 469.42 L474.23 470.65 L467.38 474.72 L467.36 474.73 L461.96 481.04 L464.85 486.71 L470.08 489.37 L471.92 489.72 L478.54 489.99 L480.35 490.46 L485.01 492.71 L487.45 494.38 L488.51 495.97 L488.69 497.82 L489.18 499.38 L490.71 502.28 L489.11 503.42 L488.51 503.76 L482.89 506.05 L460.32 509.08 L458.62 510.14 L455.86 511.14 L453.67 512.97 L452.38 515.16 L453.02 516.99 L452.20 517.92 L451.29 518.31 L450.33 518.22 L449.33 517.72 L450.12 515.41 L448.89 513.95 L446.71 513.54 L444.59 514.42 L443.63 514.95 L442.79 515.13 L442.21 515.51 L441.97 516.62 L442.56 517.06 L445.65 518.46 L454.69 518.91 L458.79 519.71 L459.69 522.20 L459.09 523.26 L458.41 523.71 L457.62 523.94 L456.69 524.35 L454.46 525.05 L453.39 525.62 L454.17 525.88 L458.22 531.02 L458.11 533.07 L456.67 534.17 L454.46 534.62 L451.94 534.70 L450.27 535.09 L446.65 536.69 L444.18 536.98 L440.42 536.07 L434.59 532.89 L430.96 532.50 L430.89 533.01 L431.06 533.13 L431.35 533.13 L431.68 533.23 L431.09 533.44 L430.77 533.69 L430.36 533.91 L429.56 534.03 L430.03 536.08 L429.26 537.31 L428.25 538.37 L428.01 539.91 L428.80 541.12 L430.22 541.83 L431.85 541.95 L433.22 541.33 L432.94 540.93 L432.41 539.91 L433.35 539.84 L436.09 539.12 L436.97 539.72 L438.50 541.70 L438.71 542.12 L439.71 542.55 L443.21 544.52 L444.98 545.06 Z" fill="#1E417C"/>
  <path d="M388.10 350.96 L387.81 349.38 L389.03 348.81 L398.22 348.27 L402.88 347.28 L402.88 348.09 L402.42 348.10 L402.07 348.25 L401.41 348.75 L399.50 349.25 L398.02 350.35 L396.75 351.56 L395.52 352.49 L393.70 352.90 L391.49 352.77 L389.44 352.12 L388.10 350.96 Z" fill="#1E417C"/>
  <path d="M98.81 345.75 L97.39 346.75 L92.93 348.75 L92.38 350.61 L83.79 351.92 L80.78 352.83 L79.71 352.51 L76.83 348.97 L75.66 348.09 L73.01 346.54 L70.43 345.82 L69.74 345.75 L66.40 346.46 L65.30 346.35 L65.67 345.08 L66.18 344.54 L66.98 344.08 L67.95 343.74 L68.96 343.61 L69.45 343.13 L69.28 342.10 L68.89 341.07 L68.59 340.66 L71.58 339.43 L79.21 338.84 L81.90 336.92 L80.55 336.99 L79.21 336.92 L77.94 336.68 L76.76 336.25 L77.37 335.23 L79.52 333.63 L80.43 332.50 L80.08 332.59 L79.85 331.71 L79.71 329.94 L80.05 329.56 L80.88 329.53 L81.84 329.60 L82.57 329.57 L85.67 328.93 L91.99 328.35 L95.14 327.37 L97.50 327.82 L99.66 326.27 L103.29 322.15 L105.76 323.03 L107.34 321.82 L108.55 320.42 L109.91 320.68 L109.28 321.55 L108.02 322.89 L107.71 323.69 L107.92 324.15 L109.00 325.65 L109.24 326.56 L109.00 326.79 L107.71 330.30 L106.84 331.64 L106.29 332.13 L105.50 332.50 L105.47 331.22 L104.93 330.40 L104.11 329.89 L103.29 329.57 L100.74 330.72 L100.29 331.11 L99.95 332.24 L100.23 332.93 L100.72 333.43 L101.09 333.98 L101.97 337.57 L102.91 338.68 L104.76 339.12 L104.08 339.66 L103.40 339.91 L102.63 339.97 L101.77 339.93 L102.56 340.25 L103.29 340.66 L101.86 341.86 L100.24 344.30 L98.81 345.75 Z" fill="#1E417C"/>
  <path d="M348.27 282.37 L351.24 282.34 L352.49 282.59 L353.42 283.11 L354.19 284.42 L354.10 285.55 L353.31 286.47 L350.91 286.21 L348.37 285.71 L340.11 286.79 L341.85 287.59 L343.08 289.20 L342.75 290.94 L340.18 292.50 L338.71 293.80 L337.80 295.26 L336.05 296.42 L332.72 296.85 L330.57 295.90 L327.75 292.99 L323.96 292.60 L320.97 291.74 L319.06 290.74 L317.33 289.67 L317.33 288.99 L320.93 288.56 L324.46 286.69 L327.19 285.36 L331.53 285.21 L334.03 284.79 L335.93 283.63 L343.92 283.66 L348.27 282.37 Z" fill="#1E417C"/>
</svg>
