<svg width="800" height="600" viewBox="0 0 800 600" fill="none" xmlns="http://www.w3.org/2000/svg">
  <path d="M474.53 77.18 L467.95 79.52 L461.39 80.41 L447.37 84.12 L444.86 84.20 L445.01 85.21 L445.76 85.73 L446.71 85.99 L457.70 85.67 L462.21 86.03 L466.20 87.64 L463.24 91.75 L461.56 93.51 L447.57 103.63 L446.91 104.33 L446.89 105.14 L447.62 106.44 L448.71 107.99 L458.69 122.10 L460.14 123.23 L462.15 123.81 L477.74 126.29 L493.33 128.76 L495.08 129.26 L496.68 130.13 L501.18 133.71 L503.27 135.38 L512.56 142.85 L515.98 144.55 L532.11 150.37 L530.93 151.10 L530.37 151.66 L530.14 152.36 L529.66 155.88 L529.40 156.60 L527.96 159.07 L527.02 160.06 L505.39 171.52 L504.77 172.07 L504.15 173.04 L503.80 173.44 L503.27 173.78 L500.46 175.09 L482.50 188.26 L482.48 188.27 L479.85 192.82 L481.90 196.65 L494.61 205.24 L496.81 208.16 L496.89 208.27 L498.44 209.32 L498.61 209.80 L498.66 210.34 L498.93 210.91 L499.37 211.33 L505.65 215.55 L506.18 216.48 L506.83 218.78 L507.13 219.82 L508.12 221.71 L509.40 223.47 L512.54 226.64 L520.26 232.48 L524.79 235.06 L526.15 236.45 L527.26 238.60 L528.80 242.82 L529.33 243.77 L531.48 246.08 L532.12 246.95 L533.74 249.69 L535.69 252.01 L536.15 253.01 L537.69 258.06 L537.94 259.41 L537.81 260.60 L536.97 261.09 L535.12 260.80 L531.76 259.91 L518.73 261.55 L515.38 262.57 L516.99 263.69 L521.05 265.00 L522.78 266.08 L522.09 266.79 L517.70 269.00 L516.95 269.79 L516.66 270.09 L516.66 270.10 L516.22 272.13 L516.89 276.97 L516.32 278.95 L510.59 282.21 L508.68 284.06 L511.23 285.16 L518.87 285.05 L522.49 285.72 L522.82 287.80 L522.30 288.25 L521.66 288.60 L521.18 288.98 L521.13 289.52 L521.79 290.00 L522.76 290.10 L523.42 290.28 L523.17 291.01 L521.80 291.80 L513.47 292.65 L511.26 293.51 L509.68 295.03 L509.12 297.37 L511.60 301.97 L515.13 305.68 L519.60 308.06 L524.93 308.64 L535.00 308.68 L537.15 309.15 L538.08 309.57 L538.16 309.91 L537.86 310.31 L537.65 310.85 L537.54 311.55 L537.42 311.88 L537.55 312.18 L538.17 312.79 L538.76 313.21 L540.90 314.27 L541.84 315.33 L541.46 316.39 L540.34 317.31 L539.04 317.89 L529.73 319.89 L529.34 320.10 L529.13 320.42 L529.35 320.58 L529.69 320.67 L529.87 320.76 L529.96 321.71 L530.15 322.21 L530.54 322.72 L530.44 322.87 L530.40 323.03 L530.45 323.18 L530.54 323.34 L531.13 323.46 L531.23 323.60 L531.07 323.96 L533.54 324.65 L535.43 325.72 L535.02 327.00 L533.83 328.39 L533.36 329.81 L534.48 330.84 L536.67 331.75 L540.56 332.81 L549.11 334.13 L551.81 335.05 L553.38 336.02 L554.59 337.02 L555.92 337.78 L559.06 338.16 L560.85 338.66 L562.06 339.48 L561.61 340.61 L560.64 341.69 L560.66 342.60 L561.32 343.48 L562.26 344.51 L563.59 346.84 L563.26 348.68 L561.73 350.28 L559.38 351.93 L559.38 351.93 L549.52 357.14 L546.08 360.70 L542.59 362.78 L534.39 364.35 L531.51 365.26 L530.54 365.57 L531.65 366.99 L544.82 374.28 L552.35 376.97 L555.68 379.20 L556.75 380.22 L558.25 380.81 L576.38 385.53 L584.78 390.25 L595.85 393.73 L597.28 394.42 L598.46 395.33 L598.87 396.44 L598.93 397.44 L599.29 398.62 L599.84 399.72 L600.49 400.53 L601.89 401.40 L605.33 402.63 L606.90 403.41 L610.40 405.92 L611.69 406.48 L612.37 406.77 L613.73 407.76 L614.48 409.12 L615.39 410.41 L617.22 411.16 L612.37 415.51 L610.23 417.55 L608.55 419.85 L605.97 425.03 L605.08 426.25 L602.67 428.06 L601.65 429.32 L600.34 431.95 L599.45 433.12 L598.27 433.75 L598.26 433.75 L598.24 433.76 L595.35 434.61 L594.50 435.08 L593.88 435.67 L592.88 436.86 L585.09 441.01 L584.36 441.59 L582.98 443.42 L582.09 444.10 L581.11 444.60 L574.90 446.78 L569.99 449.10 L567.90 449.68 L566.93 450.06 L566.24 450.54 L564.72 452.33 L557.82 456.89 L550.14 461.03 L550.13 461.04 L550.12 461.04 L539.54 468.74 L530.37 475.41 L522.99 479.12 L521.87 479.97 L520.57 481.88 L519.54 482.78 L511.68 487.26 L510.00 487.91 L506.48 488.68 L505.24 489.22 L504.26 490.09 L503.27 491.42 L502.32 492.56 L494.40 496.68 L492.81 497.89 L492.15 498.52 L491.34 499.29 L488.12 501.73 L484.13 503.50 L475.99 505.97 L473.02 507.07 L469.15 508.99 L465.99 509.86 L465.10 510.40 L463.40 511.79 L460.06 513.65 L459.07 514.46 L458.15 515.58 L458.14 515.59 L456.00 517.22 L451.19 517.86 L448.71 518.77 L440.80 522.81 L435.78 526.51 L430.56 528.36 L422.68 533.46 L421.44 534.27 L416.63 536.73 L411.99 539.53 L411.08 539.03 L410.34 538.40 L409.49 538.05 L408.26 538.37 L408.46 538.55 L408.81 538.98 L409.01 539.15 L408.08 539.39 L407.93 540.01 L408.32 540.75 L409.01 541.39 L408.19 541.69 L407.89 541.76 L408.64 542.07 L409.01 542.10 L407.11 543.05 L406.40 543.22 L402.64 542.84 L403.15 542.23 L404.83 541.81 L405.65 541.39 L403.47 541.19 L402.41 541.24 L401.52 541.76 L401.10 542.42 L401.24 542.85 L401.70 543.29 L402.27 544.00 L400.24 543.66 L395.66 541.66 L393.70 542.10 L394.23 542.19 L394.45 542.32 L394.82 542.84 L394.49 543.00 L394.01 543.42 L393.70 543.62 L394.30 543.82 L394.81 544.05 L395.23 544.34 L395.56 544.74 L392.84 544.40 L388.06 542.54 L385.66 542.10 L381.49 541.99 L380.60 541.76 L380.51 540.99 L381.91 540.81 L384.73 541.01 L383.46 540.43 L379.48 539.15 L380.34 538.08 L379.62 537.79 L378.38 538.07 L377.61 538.75 L377.95 539.57 L378.66 540.40 L378.86 541.15 L377.61 541.76 L377.51 541.05 L377.17 540.86 L376.09 541.01 L375.43 540.84 L374.68 540.05 L374.06 539.87 L373.68 540.04 L373.14 540.83 L372.74 541.01 L372.22 540.86 L371.34 540.08 L370.88 539.87 L370.38 539.92 L369.74 540.14 L369.25 540.45 L369.22 540.81 L369.39 541.33 L369.05 541.64 L368.55 541.90 L367.82 543.07 L366.65 543.32 L364.17 543.22 L365.49 544.10 L366.02 544.69 L365.86 545.30 L365.44 545.18 L363.79 544.22 L363.26 543.81 L358.26 544.73 L356.66 544.74 L357.06 544.40 L357.36 544.03 L357.81 543.22 L356.84 543.19 L355.72 543.36 L354.65 543.70 L353.86 544.17 L353.68 544.56 L353.78 545.49 L353.68 545.86 L353.29 546.08 L352.13 546.47 L351.62 546.79 L350.86 546.89 L349.87 546.33 L348.87 545.58 L348.05 545.11 L347.02 544.99 L345.79 545.02 L344.84 545.29 L344.70 545.86 L343.55 546.08 L342.13 545.70 L340.74 544.98 L339.69 544.17 L339.26 543.12 L340.17 542.52 L341.58 542.10 L342.63 541.57 L344.11 540.06 L344.33 539.70 L344.15 538.46 L344.31 538.00 L344.99 537.44 L347.46 536.44 L349.73 536.61 L354.45 538.37 L353.28 536.26 L351.51 534.77 L349.32 534.14 L346.94 534.62 L345.64 535.41 L343.54 537.41 L338.77 541.98 L338.25 543.81 L339.85 545.49 L338.97 546.38 L338.49 546.74 L337.99 546.98 L336.45 546.99 L336.07 547.23 L336.50 548.10 L335.88 547.99 L335.32 547.73 L334.27 546.98 L334.34 547.61 L334.15 547.95 L333.76 548.07 L333.15 548.10 L332.53 548.27 L332.40 548.65 L332.36 549.04 L332.02 549.21 L331.03 548.80 L330.28 547.91 L329.68 547.01 L329.19 546.60 L328.56 546.29 L327.68 545.64 L326.76 545.10 L326.00 545.11 L325.87 545.78 L326.61 546.55 L328.27 547.76 L323.12 547.30 L322.65 547.35 L321.58 547.96 L321.13 548.10 L320.69 547.72 L318.52 546.60 L316.75 546.12 L316.04 545.83 L314.10 544.46 L312.32 543.74 L310.43 543.28 L308.84 543.22 L308.84 543.62 L311.82 544.34 L312.41 544.71 L313.56 545.67 L314.94 546.06 L315.33 546.53 L315.50 547.09 L315.54 547.55 L315.13 547.84 L314.31 547.79 L313.73 547.85 L314.02 548.50 L314.62 548.93 L316.66 549.62 L317.70 550.58 L318.19 550.94 L318.89 551.08 L319.26 551.37 L319.16 552.02 L318.80 552.67 L318.34 552.97 L315.54 553.34 L315.47 552.10 L313.20 550.34 L313.68 549.62 L313.00 549.63 L312.53 549.89 L312.12 550.18 L311.61 550.33 L310.99 550.28 L310.51 550.12 L307.26 548.47 L306.11 548.04 L304.74 547.76 L306.68 549.08 L307.85 549.66 L308.84 549.99 L308.29 551.10 L307.04 552.24 L306.98 552.97 L307.49 553.79 L309.06 555.23 L309.55 556.32 L308.41 556.27 L307.62 556.08 L306.95 555.74 L306.20 555.20 L306.60 554.83 L305.77 554.21 L304.71 554.00 L303.55 553.94 L302.47 553.72 L300.83 552.56 L299.92 552.20 L299.12 552.60 L299.46 553.56 L301.40 554.28 L305.11 555.20 L301.38 555.98 L301.38 556.32 L300.37 556.59 L298.93 556.21 L294.57 553.71 L294.24 553.34 L294.31 552.60 L294.73 552.09 L295.38 551.83 L294.24 551.48 L294.24 551.08 L297.23 551.08 L296.45 549.90 L295.28 549.81 L294.04 550.26 L293.12 550.74 L291.68 551.23 L287.50 551.85 L287.50 552.19 L288.33 552.44 L288.62 553.01 L288.54 553.75 L288.28 554.49 L288.03 554.66 L287.65 554.73 L287.29 554.89 L287.00 555.81 L286.67 556.10 L286.23 556.27 L278.53 556.32 L278.63 555.51 L277.94 555.12 L275.92 554.83 L276.05 555.08 L276.23 555.72 L276.33 555.98 L274.65 556.28 L269.57 556.32 L269.28 556.40 L269.19 556.60 L269.21 557.24 L269.18 557.27 L268.93 557.53 L268.30 557.40 L267.32 557.03 L267.26 557.49 L269.23 558.12 L269.92 558.56 L269.42 558.74 L268.69 558.76 L269.55 559.30 L268.45 559.70 L265.18 560.11 L263.97 560.08 L264.11 559.69 L264.20 559.52 L264.34 559.30 L261.99 560.03 L261.41 560.49 L262.47 560.83 L262.13 561.16 L261.27 561.15 L260.40 561.63 L259.38 561.44 L258.68 560.83 L259.38 560.43 L259.97 559.66 L260.21 558.82 L259.84 558.18 L258.73 558.09 L257.95 558.82 L256.68 561.43 L256.12 561.87 L251.47 562.06 L250.35 561.86 L249.75 561.20 L251.76 560.88 L251.64 559.89 L250.20 559.08 L248.26 559.30 L249.38 560.83 L248.57 561.07 L247.12 561.72 L246.39 561.94 L243.57 562.15 L241.76 562.47 L241.32 562.60 L240.97 562.86 L240.85 563.25 L241.05 563.94 L240.81 564.18 L240.05 564.19 L239.68 563.72 L239.49 563.10 L239.28 562.66 L238.64 562.26 L235.29 561.30 L234.47 561.19 L234.19 561.37 L234.81 561.94 L235.70 562.32 L236.47 562.49 L236.80 562.76 L236.30 563.44 L235.59 563.82 L234.82 564.00 L234.14 564.26 L233.72 564.92 L237.42 564.18 L237.12 564.69 L236.66 565.07 L235.55 565.67 L236.67 566.07 L236.67 566.41 L232.99 567.77 L230.84 569.38 L229.78 569.90 L228.55 570.12 L226.95 570.17 L227.39 569.42 L228.95 567.64 L229.56 567.16 L228.58 567.11 L227.20 567.77 L224.68 569.43 L224.30 568.50 L223.35 568.80 L222.23 569.52 L221.30 569.84 L221.65 568.93 L222.27 568.52 L223.02 568.24 L223.75 567.73 L223.90 567.35 L223.86 566.86 L223.93 566.30 L224.31 565.67 L221.68 565.56 L220.38 565.76 L219.44 566.41 L220.18 566.82 L218.48 567.43 L218.01 567.53 L217.28 567.55 L215.36 567.16 L213.87 567.08 L212.88 567.35 L212.86 567.82 L214.22 568.31 L213.20 568.64 L212.30 568.50 L211.43 568.17 L210.50 567.94 L210.02 567.96 L207.95 568.58 L207.42 568.59 L206.77 568.31 L205.77 569.19 L204.76 569.12 L204.38 568.56 L205.29 567.94 L205.29 567.53 L204.28 567.61 L203.71 567.98 L203.25 568.50 L202.64 569.06 L201.80 569.51 L201.00 569.74 L197.31 570.08 L193.30 572.07 L191.76 571.45 L182.83 572.07 L182.11 571.82 L181.53 571.16 L180.97 570.92 L180.33 570.92 L176.71 571.44 L174.39 572.03 L173.11 572.07 L173.72 571.24 L176.06 569.08 L176.87 568.65 L178.44 568.40 L179.19 568.11 L179.29 567.73 L178.93 567.25 L178.83 566.77 L179.00 566.26 L179.48 565.67 L177.48 566.02 L176.87 566.25 L176.43 566.67 L176.18 567.24 L175.80 567.73 L174.99 567.94 L174.44 568.17 L174.20 568.74 L174.01 569.42 L173.67 570.00 L173.15 570.32 L171.94 570.77 L171.43 571.10 L169.59 572.68 L167.49 573.90 L162.62 575.26 L161.81 575.91 L161.80 576.91 L162.40 577.78 L163.39 578.00 L163.39 578.37 L154.07 579.15 L153.40 579.48 L150.05 579.19 L148.80 579.32 L147.76 579.61 L144.50 580.00 L143.58 579.89 L144.55 579.54 L145.94 578.28 L146.74 578.00 L148.95 577.78 L156.63 575.90 L158.85 575.76 L158.47 574.60 L158.73 574.19 L159.34 574.21 L160.00 574.31 L161.81 574.28 L163.16 573.93 L164.35 573.18 L165.70 571.95 L166.54 570.82 L167.49 569.19 L167.84 568.07 L166.91 568.48 L163.31 572.51 L161.87 573.53 L160.79 573.53 L160.87 573.35 L160.99 572.99 L161.12 572.78 L160.57 572.53 L159.98 572.42 L159.39 572.49 L158.85 572.78 L159.02 573.17 L156.87 572.81 L156.28 573.32 L156.11 573.86 L155.72 573.89 L155.34 573.54 L155.17 572.95 L155.72 571.32 L155.75 571.10 L156.67 570.62 L160.79 569.84 L161.57 569.24 L162.85 567.89 L163.73 567.53 L160.87 566.99 L155.47 567.57 L152.92 567.53 L151.61 567.27 L150.41 566.89 L149.51 566.31 L149.17 565.48 L149.53 564.81 L150.38 564.15 L152.18 563.06 L151.06 562.32 L150.76 562.67 L150.16 563.59 L149.95 563.84 L149.50 564.04 L148.47 564.31 L148.01 564.55 L147.95 563.65 L147.42 563.07 L146.54 562.75 L144.65 562.51 L143.51 561.79 L142.84 561.54 L143.39 560.98 L143.44 560.46 L143.09 560.02 L142.43 559.68 L145.40 557.09 L146.56 556.32 L150.09 554.59 L151.06 553.72 L151.38 553.19 L151.76 552.29 L152.18 551.85 L153.63 551.22 L154.20 550.83 L154.07 550.33 L152.97 550.21 L151.54 550.94 L150.26 552.03 L149.57 552.97 L146.47 552.43 L142.97 553.27 L135.28 556.71 L128.46 557.70 L125.31 558.51 L123.77 558.56 L124.57 558.05 L127.50 557.03 L126.41 556.88 L126.33 556.46 L127.33 555.39 L127.91 555.07 L130.48 554.49 L127.77 554.65 L126.47 554.92 L123.89 555.94 L122.59 556.22 L119.64 556.32 L120.09 555.93 L120.17 555.58 L120.17 555.24 L120.38 554.83 L120.73 554.59 L121.72 554.15 L122.88 553.27 L124.60 552.30 L124.89 551.48 L127.66 549.86 L129.36 549.22 L129.57 548.45 L129.18 547.93 L126.81 549.19 L124.77 549.37 L120.38 549.21 L121.50 547.76 L112.92 548.84 L111.02 548.82 L110.40 548.62 L108.73 547.63 L105.02 546.21 L103.91 545.99 L101.49 545.86 L101.18 545.47 L101.02 544.77 L100.63 544.49 L99.63 545.30 L98.64 545.89 L97.69 545.76 L96.11 544.74 L96.07 544.61 L96.13 544.13 L96.11 544.00 L95.85 543.96 L95.21 544.05 L94.99 544.00 L94.52 543.78 L94.13 543.69 L93.98 543.47 L94.24 542.84 L91.59 542.84 L91.83 542.46 L92.15 541.76 L92.41 541.39 L91.39 541.06 L89.84 540.85 L88.25 540.81 L87.13 541.01 L86.60 541.57 L86.85 542.22 L88.25 543.62 L85.77 543.22 L84.53 543.19 L83.41 543.62 L83.64 542.69 L84.37 541.05 L84.52 539.87 L84.50 539.04 L84.64 538.30 L85.28 537.78 L86.72 537.63 L86.02 537.16 L85.76 536.62 L85.89 536.03 L86.42 535.40 L82.79 536.75 L81.71 537.46 L80.49 537.96 L77.60 538.25 L76.67 538.75 L76.58 539.20 L77.06 539.95 L76.83 540.44 L76.50 540.77 L76.33 541.01 L76.27 541.34 L76.26 541.93 L75.56 542.65 L73.95 543.03 L72.20 543.08 L71.01 542.84 L72.41 542.15 L71.64 540.98 L68.81 538.75 L69.66 538.71 L72.13 539.15 L72.13 538.75 L70.84 538.48 L67.08 538.37 L65.36 538.73 L64.71 538.75 L64.26 538.61 L63.39 538.14 L62.85 538.03 L62.85 537.63 L63.20 537.60 L63.44 537.52 L63.93 537.29 L63.19 536.51 L64.85 536.85 L65.80 536.87 L66.20 536.51 L63.56 535.40 L62.38 535.10 L61.27 534.40 L60.37 533.54 L59.83 532.79 L59.87 532.51 L59.97 532.44 L59.99 532.36 L59.83 532.05 L63.80 532.62 L64.51 532.58 L64.87 531.90 L64.62 531.34 L64.08 530.80 L63.59 530.15 L66.20 530.15 L66.20 529.81 L65.03 529.75 L63.86 529.52 L62.74 529.14 L61.69 528.65 L62.57 528.33 L63.02 528.25 L63.59 528.28 L62.40 527.44 L61.71 527.19 L60.98 527.17 L61.34 526.41 L60.98 525.64 L60.25 525.17 L59.46 525.34 L59.06 525.12 L58.74 524.86 L58.50 524.55 L58.34 524.15 L58.92 523.61 L57.94 522.52 L58.70 522.32 L61.42 522.61 L62.81 522.53 L63.93 521.92 L63.33 521.67 L62.71 521.58 L61.34 521.58 L60.95 521.44 L59.83 520.46 L60.41 520.33 L61.38 519.80 L61.88 519.68 L62.37 519.83 L62.79 520.15 L63.27 520.42 L63.93 520.46 L63.60 519.89 L63.36 519.27 L63.08 518.77 L62.63 518.57 L61.98 518.47 L61.72 518.21 L61.59 517.86 L61.32 517.45 L58.88 514.89 L57.94 514.47 L58.72 513.84 L59.06 513.69 L57.56 513.09 L57.04 512.63 L56.86 511.86 L58.04 511.86 L60.43 512.70 L61.69 512.94 L62.87 512.78 L62.83 512.51 L62.80 512.37 L61.91 511.98 L60.58 511.86 L62.13 511.35 L65.32 512.14 L66.87 511.86 L66.11 511.49 L65.38 510.88 L65.14 510.19 L65.83 509.62 L65.24 508.31 L64.90 507.77 L64.31 507.35 L64.84 507.34 L66.20 506.98 L65.80 506.99 L65.43 506.95 L65.06 506.83 L64.71 506.64 L65.46 505.87 L64.71 505.87 L65.43 505.53 L66.26 505.42 L68.03 505.46 L67.78 504.91 L67.65 504.71 L69.29 504.25 L71.01 504.00 L70.21 502.86 L69.15 502.34 L66.53 501.73 L67.05 501.16 L67.80 500.90 L68.29 500.58 L68.03 499.87 L70.26 499.87 L70.26 499.47 L70.13 499.17 L70.26 498.19 L70.26 497.64 L70.13 497.31 L69.70 497.16 L69.52 496.89 L69.47 496.56 L69.57 496.06 L69.52 495.77 L69.16 494.66 L68.84 494.32 L68.03 493.91 L67.30 493.69 L65.77 493.40 L65.05 493.17 L66.63 492.69 L70.11 492.86 L71.79 492.42 L71.00 491.61 L70.14 491.02 L68.40 490.15 L64.68 489.22 L63.59 488.66 L70.88 489.22 L72.87 488.66 L71.72 487.09 L71.42 486.80 L70.62 486.67 L69.16 486.91 L68.40 486.80 L66.20 485.31 L65.76 484.71 L65.66 484.46 L66.01 484.35 L66.87 484.16 L68.28 484.04 L74.57 485.36 L78.03 486.53 L79.64 486.80 L79.64 486.39 L75.92 484.57 L74.07 483.20 L72.85 480.87 L71.84 480.47 L70.70 480.18 L69.89 479.69 L69.81 479.24 L70.25 478.43 L70.08 478.03 L68.81 476.67 L68.81 476.34 L69.82 476.50 L71.68 477.22 L72.53 477.08 L71.08 476.22 L67.25 474.93 L66.20 473.69 L66.35 473.03 L66.85 472.28 L67.24 471.54 L67.08 470.88 L66.34 470.58 L65.42 470.40 L64.82 470.06 L65.05 469.22 L63.39 468.08 L62.56 467.33 L62.07 466.62 L62.58 466.41 L63.04 466.03 L63.15 465.66 L62.03 465.32 L61.81 464.89 L61.69 464.38 L61.32 463.98 L60.82 463.90 L58.33 463.98 L57.84 463.90 L57.61 463.86 L56.39 463.37 L55.70 463.23 L56.65 462.15 L55.87 461.70 L53.47 461.40 L55.63 457.84 L56.07 456.49 L56.33 453.95 L56.73 453.47 L57.60 454.63 L58.52 453.05 L58.70 452.26 L58.34 451.65 L59.13 450.99 L60.81 450.41 L61.51 449.97 L61.83 449.23 L61.34 448.70 L59.83 447.92 L60.98 446.03 L59.78 446.07 L59.11 446.66 L58.53 447.41 L57.60 447.92 L57.81 447.04 L58.48 445.46 L58.72 444.54 L58.76 442.00 L59.06 441.18 L56.13 441.74 L55.33 441.52 L54.88 440.98 L54.77 440.29 L55.03 439.57 L55.70 438.95 L55.33 438.17 L51.75 440.96 L51.60 441.53 L52.35 442.30 L51.16 442.19 L50.91 441.35 L51.20 440.24 L51.60 439.29 L51.28 439.22 L50.76 439.02 L50.45 438.95 L50.90 438.30 L51.18 438.04 L51.60 437.80 L50.71 437.47 L49.66 437.59 L48.62 438.01 L47.85 438.54 L47.73 437.85 L48.70 436.19 L48.99 435.22 L48.03 435.59 L47.34 435.77 L46.91 435.48 L46.73 434.48 L46.87 433.53 L47.34 432.76 L48.08 432.17 L48.99 431.80 L48.68 431.36 L47.47 430.35 L48.57 429.88 L49.69 429.17 L50.83 428.67 L51.98 428.82 L51.12 427.80 L47.19 427.33 L46.35 426.59 L45.69 426.79 L45.10 427.15 L44.12 428.08 L44.26 426.75 L45.10 424.61 L44.87 423.58 L45.96 423.43 L47.42 422.93 L48.73 422.18 L49.33 421.34 L49.30 420.74 L49.05 420.66 L48.67 420.73 L48.22 420.60 L47.26 420.01 L46.91 419.68 L46.45 418.73 L46.75 417.96 L47.60 417.43 L48.79 417.24 L49.89 417.77 L50.56 417.90 L50.86 417.44 L51.05 417.32 L52.00 416.52 L52.35 416.12 L52.67 415.24 L52.71 414.44 L52.93 413.75 L53.84 413.15 L55.15 413.17 L58.88 413.91 L60.02 413.69 L60.43 413.37 L61.45 412.87 L61.88 412.55 L62.14 412.17 L62.37 411.44 L62.88 410.73 L63.48 409.58 L63.59 409.20 L63.88 409.08 L65.83 408.67 L64.92 406.73 L64.71 405.75 L64.71 404.55 L64.66 404.15 L64.61 403.96 L64.79 403.79 L65.46 403.43 L66.04 403.41 L66.49 403.68 L66.77 403.68 L66.87 402.85 L67.57 402.11 L69.12 402.53 L71.40 403.80 L73.05 404.12 L74.70 404.72 L76.39 405.05 L78.12 404.55 L75.79 403.01 L72.16 401.46 L71.09 400.83 L70.74 400.10 L71.79 399.29 L71.12 399.49 L70.34 399.59 L69.58 399.49 L68.98 399.11 L68.75 398.52 L68.81 397.95 L68.72 397.54 L68.03 397.43 L68.41 396.84 L69.05 396.64 L70.67 396.69 L70.67 396.32 L68.54 395.93 L67.89 395.52 L67.65 394.62 L68.11 394.16 L69.14 393.72 L70.26 393.42 L71.01 393.33 L74.14 394.90 L75.87 395.24 L77.00 394.04 L78.10 394.56 L79.55 394.98 L81.06 395.13 L82.25 394.79 L81.43 394.52 L79.73 394.28 L78.90 394.04 L78.90 393.70 L81.13 392.96 L81.92 392.85 L84.12 392.96 L85.37 392.73 L88.02 391.87 L89.37 391.81 L88.81 392.63 L88.72 393.15 L89.20 395.30 L89.11 395.76 L88.62 396.32 L89.96 396.45 L94.24 398.21 L93.60 397.02 L92.71 395.94 L94.25 395.59 L94.81 395.31 L95.36 394.79 L95.67 394.25 L95.80 393.78 L95.99 393.37 L96.47 392.96 L97.47 392.62 L98.04 392.88 L98.47 393.36 L99.05 393.70 L99.90 393.70 L101.34 393.13 L102.06 392.96 L102.73 393.04 L103.80 393.38 L104.67 393.33 L104.95 393.17 L105.00 392.93 L104.99 392.69 L105.04 392.56 L105.34 392.58 L105.76 392.70 L106.11 392.85 L106.19 392.96 L108.47 391.45 L109.65 390.45 L110.29 389.58 L110.66 389.58 L111.90 390.97 L113.13 390.54 L114.34 389.35 L115.51 388.49 L114.98 388.19 L114.61 387.79 L114.05 386.97 L113.33 386.40 L111.78 385.69 L109.05 383.85 L108.79 383.58 L107.83 383.56 L107.03 383.42 L106.35 383.09 L105.79 382.50 L105.54 381.01 L106.76 380.33 L108.58 380.40 L110.10 381.16 L111.76 382.24 L113.41 382.54 L115.14 382.66 L117.03 383.21 L112.48 380.90 L110.39 379.42 L109.92 377.99 L110.47 377.31 L111.06 377.12 L112.54 377.25 L113.53 377.47 L113.51 378.00 L113.19 378.62 L113.31 379.11 L114.51 379.43 L115.86 379.54 L116.77 380.00 L116.66 381.34 L117.35 381.09 L118.23 380.49 L118.90 380.23 L118.90 379.86 L118.49 379.36 L118.66 378.89 L119.05 378.39 L119.27 377.79 L119.42 377.75 L120.38 375.76 L120.89 375.37 L121.51 375.10 L122.03 374.73 L122.25 374.06 L122.59 373.99 L124.89 374.64 L124.46 373.96 L122.25 372.03 L123.19 371.32 L123.61 371.07 L124.14 370.88 L124.01 370.51 L123.92 370.35 L123.77 370.14 L126.08 370.39 L127.07 370.17 L127.50 369.22 L127.37 368.15 L127.26 367.65 L127.53 367.60 L128.58 367.87 L129.37 368.52 L129.88 368.75 L130.10 368.46 L130.30 367.91 L130.80 367.63 L131.41 367.57 L131.96 367.70 L132.81 368.17 L133.44 368.74 L133.69 369.40 L133.45 370.14 L134.03 370.57 L135.17 371.78 L135.52 372.03 L136.32 371.97 L137.32 371.79 L138.25 371.49 L138.89 371.09 L139.32 370.90 L139.88 370.88 L140.36 370.77 L140.57 370.32 L140.57 369.92 L140.59 369.62 L140.71 369.35 L140.97 369.05 L141.79 368.53 L143.51 368.09 L144.32 367.53 L143.42 367.16 L140.57 366.41 L144.32 366.41 L143.25 365.53 L142.84 365.29 L144.24 365.65 L145.03 365.69 L145.63 365.46 L145.78 365.17 L145.85 364.73 L145.82 364.32 L145.63 364.15 L144.64 363.88 L144.16 363.29 L144.36 362.66 L145.44 362.28 L146.56 362.35 L147.21 362.74 L148.21 363.96 L149.13 364.49 L149.71 364.36 L149.78 363.81 L149.17 363.06 L149.17 363.05 L149.39 362.34 L149.38 362.04 L149.17 361.54 L152.28 360.12 L153.11 359.49 L153.77 359.25 L156.30 359.67 L156.91 359.51 L157.44 359.19 L158.05 358.91 L157.93 358.84 L157.40 358.59 L157.42 358.23 L158.14 357.81 L158.81 357.63 L160.48 357.43 L164.69 357.53 L166.40 357.23 L167.49 356.32 L168.82 356.98 L170.02 356.89 L171.19 356.32 L172.36 355.58 L170.67 354.83 L169.91 354.38 L169.91 353.86 L170.34 353.16 L170.23 352.62 L169.91 352.14 L169.73 351.61 L169.86 351.29 L170.50 348.84 L171.31 348.40 L172.33 348.40 L174.23 348.84 L174.59 348.98 L175.19 349.40 L175.72 349.55 L176.28 349.50 L176.78 349.31 L177.32 349.19 L179.05 349.72 L182.66 349.96 L183.49 349.39 L182.74 348.13 L181.42 346.84 L180.56 346.19 L180.97 345.61 L181.62 345.54 L183.20 345.82 L183.62 345.62 L184.86 344.68 L185.47 344.37 L185.71 343.65 L186.75 342.99 L188.10 342.37 L188.22 342.29 L189.16 341.72 L188.79 341.72 L188.93 340.86 L189.20 340.06 L189.82 339.67 L191.02 340.03 L191.84 340.06 L194.37 339.43 L195.15 339.09 L195.60 338.58 L196.66 336.85 L197.78 336.95 L200.12 337.57 L201.15 338.00 L200.67 337.36 L200.29 336.67 L200.15 335.89 L200.37 335.02 L201.01 334.19 L202.67 333.18 L203.38 332.38 L204.02 330.74 L204.48 330.23 L205.62 329.77 L207.98 329.34 L208.86 328.84 L208.63 327.91 L209.33 327.98 L209.96 327.94 L210.54 327.74 L211.06 327.33 L211.28 327.41 L213.47 326.79 L215.46 326.79 L215.74 326.58 L215.72 325.65 L215.82 325.22 L216.12 324.89 L216.76 324.78 L218.29 324.95 L218.91 324.73 L219.25 324.31 L219.56 323.63 L219.84 323.37 L220.95 322.98 L222.01 322.84 L223.01 322.51 L223.94 321.54 L223.89 321.16 L223.64 320.66 L223.61 320.23 L224.64 319.84 L224.67 319.39 L224.47 318.99 L224.31 318.90 L224.72 317.79 L225.11 317.17 L226.54 315.92 L226.84 315.50 L227.06 315.02 L227.31 314.60 L227.66 314.43 L228.31 314.30 L229.93 313.31 L232.15 312.73 L233.17 312.30 L234.03 311.45 L233.51 310.86 L233.28 310.67 L233.28 310.33 L233.90 309.74 L234.63 309.40 L236.30 308.84 L234.25 308.00 L233.61 307.53 L234.61 307.32 L235.79 307.38 L240.17 308.44 L240.70 308.41 L241.15 308.10 L241.16 307.84 L240.56 307.43 L240.40 307.13 L240.83 306.19 L241.86 305.92 L244.16 305.86 L244.41 304.80 L246.42 304.23 L253.18 303.83 L262.82 301.48 L263.97 301.36 L264.92 301.57 L265.44 302.08 L265.87 302.70 L266.61 303.22 L267.04 303.24 L267.44 303.09 L267.89 302.99 L268.47 303.22 L268.61 303.45 L268.83 304.23 L269.01 304.51 L269.84 305.13 L270.67 305.55 L271.65 305.79 L272.94 305.86 L272.94 306.20 L272.42 306.21 L271.98 306.28 L271.08 306.58 L272.96 306.92 L278.16 306.20 L278.56 306.01 L277.92 305.00 L277.99 304.51 L278.80 302.81 L278.90 302.44 L278.41 301.75 L277.77 301.73 L277.06 301.98 L276.33 302.10 L275.51 301.88 L274.06 301.14 L271.96 300.78 L270.99 300.24 L269.21 298.72 L269.49 298.55 L270.05 298.13 L270.33 297.97 L269.92 297.63 L270.85 297.42 L276.34 297.80 L277.35 298.15 L279.31 299.09 L280.57 299.53 L281.80 299.69 L282.70 299.47 L283.00 298.72 L282.60 297.98 L281.95 297.50 L281.53 296.98 L281.88 296.11 L281.50 295.82 L281.33 295.57 L281.34 295.31 L281.51 294.99 L280.22 294.30 L279.58 293.85 L279.31 293.32 L279.22 292.74 L278.98 292.30 L278.63 291.95 L278.19 291.64 L276.48 290.91 L270.33 290.15 L270.71 288.95 L271.12 288.36 L272.94 287.51 L273.67 287.06 L274.21 286.46 L274.38 285.73 L274.06 284.90 L274.74 284.95 L275.41 284.92 L276.05 284.79 L276.66 284.53 L276.29 284.44 L275.59 284.21 L275.17 284.16 L275.65 283.31 L275.92 283.04 L275.01 282.75 L274.57 282.66 L274.06 282.67 L274.85 282.11 L275.59 280.42 L276.33 279.65 L276.11 279.48 L275.75 279.07 L275.54 278.91 L276.05 278.83 L276.39 278.71 L277.07 278.16 L273.32 276.30 L274.08 276.11 L275.54 276.09 L276.33 275.90 L276.81 275.60 L277.71 274.77 L278.19 274.44 L277.59 273.52 L278.36 271.51 L277.99 270.49 L276.45 269.26 L274.82 268.26 L270.75 266.50 L269.55 266.21 L268.08 266.23 L266.81 266.40 L265.61 266.29 L264.34 265.43 L264.05 264.99 L263.88 264.61 L263.81 264.44 L263.46 263.89 L262.85 263.40 L262.11 263.23 L260.75 263.40 L260.02 263.02 L259.06 262.69 L256.46 262.93 L255.37 262.85 L254.65 262.51 L253.67 261.66 L253.10 261.37 L251.11 260.94 L248.95 260.78 L246.81 260.91 L244.90 261.37 L243.47 262.10 L242.80 262.35 L241.72 262.45 L241.11 262.24 L240.85 261.72 L240.80 259.62 L240.67 259.21 L240.23 258.98 L236.78 258.21 L236.10 257.79 L235.21 257.04 L234.51 256.25 L234.27 255.25 L234.81 253.85 L235.63 252.81 L238.72 249.95 L239.47 248.92 L239.90 248.59 L240.81 248.26 L242.30 248.10 L242.84 247.84 L243.01 247.14 L242.13 247.58 L239.28 248.26 L238.85 248.30 L238.36 248.28 L237.95 248.39 L237.79 248.82 L237.82 249.39 L237.76 249.65 L237.60 249.75 L236.27 250.29 L233.90 252.77 L232.54 253.47 L231.21 253.52 L230.07 253.41 L228.95 253.42 L227.73 253.85 L227.59 254.01 L227.49 254.26 L227.31 254.53 L226.92 254.80 L226.32 254.94 L223.72 254.39 L222.13 253.37 L221.51 253.14 L219.40 252.74 L217.24 252.02 L217.78 252.76 L217.94 253.58 L217.57 254.26 L216.49 254.63 L215.49 254.42 L214.51 253.79 L213.68 253.03 L213.14 252.39 L213.14 252.02 L213.15 251.03 L211.03 249.50 L209.82 247.33 L208.38 246.27 L207.23 245.19 L207.35 243.98 L207.25 243.15 L205.86 240.44 L205.31 239.68 L204.75 239.31 L203.43 238.73 L202.85 238.37 L202.36 237.89 L199.41 234.24 L198.20 233.56 L192.54 232.71 L190.60 232.00 L189.19 231.07 L187.29 228.32 L186.81 226.91 L186.01 225.68 L185.84 225.08 L185.93 224.54 L186.40 223.82 L186.58 223.25 L186.62 222.51 L186.32 221.52 L186.24 220.78 L186.01 220.22 L184.96 219.21 L184.72 218.54 L185.27 217.31 L186.61 216.48 L188.20 216.00 L189.57 215.77 L189.57 214.90 L190.87 214.42 L192.55 214.06 L193.66 213.53 L193.74 212.92 L196.67 212.09 L197.79 211.60 L198.32 210.76 L198.41 209.83 L198.19 208.84 L197.79 207.88 L198.32 207.00 L198.73 205.99 L198.95 204.90 L198.94 203.78 L198.33 201.78 L198.37 201.38 L200.13 200.17 L200.92 199.18 L202.11 199.05 L203.39 199.08 L204.19 198.90 L204.46 198.41 L204.31 198.02 L202.10 195.32 L200.60 193.86 L199.46 193.06 L197.34 191.90 L194.23 189.12 L192.89 188.39 L191.23 188.10 L190.26 187.73 L188.98 186.87 L186.99 185.08 L186.60 184.60 L186.37 184.20 L186.27 183.74 L186.24 183.04 L186.05 182.44 L185.58 182.11 L185.02 181.86 L183.53 180.73 L182.35 180.13 L181.40 179.43 L180.99 178.35 L181.68 177.92 L182.28 177.41 L182.80 176.81 L183.23 176.11 L182.24 175.89 L181.95 175.51 L182.12 174.45 L182.56 173.59 L183.63 173.11 L189.80 171.98 L191.32 171.06 L192.54 169.37 L190.68 168.90 L190.67 167.63 L191.32 166.10 L191.43 164.87 L190.74 164.47 L189.55 164.25 L185.83 163.99 L182.12 163.04 L179.90 163.13 L177.74 163.52 L175.71 163.57 L173.88 162.63 L173.21 161.30 L173.87 160.25 L175.10 159.28 L176.12 158.16 L175.51 157.51 L176.93 156.89 L178.89 156.31 L179.88 155.76 L179.70 154.46 L179.28 153.60 L177.98 152.17 L177.54 151.27 L176.93 149.10 L176.33 148.24 L176.12 147.57 L176.12 144.34 L175.85 143.21 L175.69 141.88 L175.94 140.61 L176.90 139.66 L178.73 139.06 L182.60 138.52 L184.38 137.95 L185.75 136.89 L185.80 135.93 L184.77 135.24 L180.98 134.68 L176.12 132.36 L174.63 131.90 L170.57 130.43 L170.13 129.95 L169.93 129.49 L167.73 126.26 L167.13 125.68 L166.40 125.28 L164.52 125.32 L159.89 126.56 L158.72 126.57 L158.34 126.27 L158.11 126.22 L157.95 126.12 L157.83 125.62 L157.85 125.33 L158.11 124.84 L158.39 123.48 L158.33 123.04 L157.83 122.64 L158.15 121.36 L157.32 120.45 L154.85 119.29 L154.13 118.75 L153.85 118.29 L153.69 117.85 L153.33 117.39 L152.52 116.96 L144.43 114.86 L142.86 114.07 L140.59 112.23 L139.22 111.68 L135.96 112.20 L134.35 111.47 L132.78 110.49 L131.25 109.91 L130.22 109.91 L129.26 110.04 L128.27 110.04 L125.95 109.42 L123.56 109.32 L120.04 108.58 L115.74 108.45 L115.52 108.33 L115.56 107.79 L115.36 107.67 L111.65 107.25 L99.06 107.20 L97.21 106.59 L97.12 106.33 L97.16 105.94 L97.09 105.59 L96.69 105.44 L96.44 105.38 L95.78 105.05 L95.04 104.54 L93.47 103.72 L93.15 103.39 L90.71 102.23 L80.78 101.15 L79.67 99.44 L76.65 98.66 L71.79 96.82 L67.60 96.37 L65.86 95.75 L65.20 95.23 L63.54 93.54 L63.22 92.92 L62.73 92.37 L61.61 92.10 L57.73 92.09 L57.22 91.99 L56.98 91.81 L56.58 91.31 L56.29 91.22 L55.60 90.87 L52.38 88.64 L48.90 87.30 L44.50 85.79 L35.42 84.42 L34.26 83.76 L34.43 82.65 L36.08 82.33 L36.97 81.45 L36.99 80.47 L35.72 79.72 L33.14 79.42 L29.39 78.05 L22.85 77.68 L20.00 76.68 L25.10 73.28 L26.61 72.97 L42.34 76.43 L44.46 76.67 L45.96 76.28 L49.09 73.89 L42.39 68.78 L44.00 66.94 L44.91 66.11 L45.93 65.60 L57.67 62.77 L75.41 63.86 L76.73 64.31 L92.18 75.08 L96.38 78.01 L103.89 81.06 L104.63 81.74 L105.41 83.11 L106.04 83.66 L110.24 86.45 L114.59 87.79 L115.38 88.35 L116.76 93.30 L117.44 94.33 L118.51 94.49 L124.74 93.62 L126.22 93.57 L127.66 93.69 L141.58 96.36 L150.73 95.76 L153.58 96.08 L155.02 96.67 L159.25 99.31 L160.46 99.51 L175.95 95.82 L184.68 95.31 L189.77 94.19 L191.58 91.98 L192.63 89.59 L196.20 88.67 L200.36 88.70 L211.39 90.88 L213.17 92.04 L214.43 92.61 L222.38 94.57 L230.50 95.63 L240.43 96.89 L245.38 98.43 L249.50 100.81 L251.21 102.49 L252.21 102.96 L253.62 102.84 L254.82 102.11 L255.42 101.13 L256.17 100.22 L257.77 99.67 L259.17 99.70 L262.67 98.78 L264.13 98.65 L265.21 98.44 L266.02 97.89 L266.67 96.78 L266.01 96.31 L266.04 95.98 L266.37 95.67 L266.60 95.26 L266.70 92.71 L266.96 91.51 L267.68 90.42 L269.78 88.89 L279.92 85.51 L282.47 85.00 L285.04 84.79 L291.67 85.64 L293.05 85.53 L294.35 85.02 L295.14 84.27 L295.81 83.44 L296.71 82.73 L298.43 81.81 L299.03 81.26 L299.32 80.53 L299.93 79.85 L302.22 79.03 L302.70 78.33 L302.50 77.95 L302.06 77.68 L301.01 77.28 L300.58 76.99 L300.51 76.75 L300.57 76.53 L300.54 76.30 L299.73 75.44 L299.68 75.09 L300.11 74.57 L300.21 74.19 L300.29 72.38 L300.39 72.16 L300.61 71.97 L300.81 71.72 L300.87 71.30 L300.72 70.91 L300.01 69.96 L299.71 69.66 L298.85 68.23 L299.02 66.76 L301.05 62.36 L301.71 61.60 L306.66 58.44 L306.41 57.99 L304.70 55.87 L306.03 54.61 L306.67 54.28 L307.17 53.83 L307.12 52.53 L307.47 51.88 L308.25 51.29 L307.98 50.89 L307.39 50.58 L307.17 50.25 L307.91 49.64 L311.19 48.73 L312.60 47.82 L313.57 46.63 L313.63 45.34 L312.33 44.11 L311.41 43.60 L311.27 43.07 L311.66 42.48 L312.34 41.85 L313.63 41.06 L315.10 40.66 L323.25 39.86 L324.17 39.63 L324.87 39.23 L325.52 38.74 L327.99 37.30 L330.64 35.30 L336.20 33.08 L337.79 31.96 L337.14 30.97 L337.68 30.56 L339.60 29.60 L340.67 28.57 L342.48 28.19 L351.93 27.65 L355.47 28.02 L360.53 27.49 L362.22 27.69 L365.25 28.47 L366.88 28.29 L368.33 28.34 L372.35 29.40 L373.39 29.47 L384.93 27.96 L387.14 26.91 L386.74 26.80 L385.95 26.43 L385.55 26.31 L386.17 25.82 L386.96 25.68 L387.83 25.65 L388.70 25.51 L392.21 23.93 L398.65 22.82 L399.06 21.88 L401.34 20.72 L404.20 20.38 L411.14 20.89 L415.21 20.00 L416.87 20.25 L418.50 21.20 L421.44 23.58 L431.60 29.87 L432.80 30.33 L443.27 31.95 L443.19 33.80 L444.55 34.90 L446.63 35.49 L448.71 35.80 L466.45 38.84 L484.19 41.88 L485.06 42.45 L488.12 46.70 L495.83 53.33 L489.54 58.11 L469.66 66.85 L468.97 67.56 L468.53 68.78 L467.59 72.84 L467.63 73.72 L468.28 74.29 L474.53 77.18 Z" fill="#1E417C"/>
  <path d="M117.40 566.82 L117.04 565.57 L117.59 565.05 L118.60 565.23 L119.64 566.07 L119.66 568.09 L119.56 569.03 L119.27 569.84 L118.90 569.84 L118.34 569.32 L117.46 569.19 L116.64 569.43 L116.29 570.00 L116.01 570.11 L115.38 569.45 L114.74 568.56 L114.39 567.94 L114.19 567.11 L114.15 566.25 L114.48 565.57 L115.34 565.29 L116.00 565.63 L116.04 566.33 L116.25 566.88 L117.40 566.82 Z" fill="#1E417C"/>
  <path d="M67.65 562.32 L69.47 561.00 L71.72 560.41 L74.09 560.49 L76.26 561.20 L75.89 561.78 L75.33 562.13 L74.02 562.66 L74.94 562.69 L75.31 562.95 L75.21 563.36 L74.73 563.84 L74.01 564.13 L73.25 564.10 L71.77 563.84 L71.21 563.88 L69.71 564.17 L69.16 564.36 L68.63 564.39 L68.05 564.08 L67.47 563.69 L66.87 563.44 L67.80 563.09 L68.85 563.00 L71.01 563.06 L70.51 562.42 L69.64 562.22 L67.65 562.32 Z" fill="#1E417C"/>
  <path d="M81.13 559.30 L84.18 558.97 L87.13 558.97 L88.99 559.68 L88.99 560.08 L88.38 560.05 L87.79 560.08 L87.24 560.20 L86.72 560.42 L87.06 560.58 L87.91 561.20 L83.74 561.20 L85.64 561.54 L85.14 561.76 L84.60 561.92 L84.02 561.99 L84.26 562.08 L84.52 562.32 L83.29 562.98 L81.60 563.42 L79.85 563.50 L78.52 563.06 L78.99 562.78 L79.13 562.63 L78.90 561.94 L79.69 561.60 L79.98 561.54 L79.98 561.20 L79.03 560.93 L79.20 560.33 L80.03 559.68 L81.13 559.30 Z" fill="#1E417C"/>
  <path d="M59.83 558.18 L60.69 558.97 L62.08 559.29 L65.05 559.30 L65.05 559.68 L62.89 559.63 L62.07 559.95 L61.69 560.83 L61.32 560.83 L60.87 560.41 L60.04 560.18 L58.33 560.08 L57.50 559.91 L56.97 559.57 L56.37 559.29 L55.33 559.30 L56.12 558.58 L57.28 558.26 L59.83 558.18 Z" fill="#1E417C"/>
  <path d="M98.33 558.18 L99.05 558.97 L95.73 560.42 L96.07 560.57 L96.84 561.05 L97.18 561.20 L95.63 562.21 L93.90 562.31 L92.43 561.57 L91.59 560.08 L92.40 559.80 L94.99 559.30 L96.57 558.47 L97.40 558.17 L98.33 558.18 Z" fill="#1E417C"/>
  <path d="M303.22 558.37 L303.65 557.90 L304.66 557.76 L306.60 557.85 L305.89 558.56 L305.28 558.80 L304.39 559.01 L303.57 558.94 L303.22 558.37 Z" fill="#1E417C"/>
  <path d="M106.53 558.56 L107.25 557.49 L108.53 556.44 L109.94 555.90 L111.04 556.32 L111.32 557.63 L109.81 559.01 L107.79 559.61 L106.53 558.56 Z" fill="#1E417C"/>
  <path d="M292.75 556.70 L291.10 556.47 L289.90 555.62 L289.59 554.52 L290.53 553.53 L291.44 553.84 L296.14 556.32 L295.73 556.70 L294.80 556.91 L293.92 557.26 L293.38 557.79 L293.50 558.56 L292.16 558.18 L291.72 557.95 L291.98 557.57 L292.75 556.70 Z" fill="#1E417C"/>
  <path d="M141.14 556.51 L142.35 555.22 L143.73 554.12 L145.35 553.51 L147.30 553.72 L146.92 554.94 L145.88 555.67 L144.57 556.20 L143.38 556.86 L142.99 557.39 L142.75 557.94 L142.41 558.38 L140.94 558.73 L140.59 559.17 L140.62 559.77 L140.97 560.42 L140.59 560.47 L140.34 560.58 L140.11 560.72 L139.82 560.83 L140.13 560.89 L140.97 561.20 L140.71 561.74 L140.57 561.94 L141.32 563.64 L139.48 565.22 L134.97 567.16 L134.97 567.53 L135.48 567.51 L135.81 567.60 L136.47 567.94 L135.94 568.27 L135.23 569.23 L134.94 569.43 L133.61 569.32 L133.03 569.42 L132.34 569.84 L131.63 568.81 L130.85 567.94 L130.38 568.50 L128.62 569.61 L128.31 569.69 L128.14 569.92 L128.21 570.54 L127.87 570.54 L127.96 569.78 L127.80 569.26 L127.39 569.10 L126.71 569.43 L126.48 568.77 L126.81 568.36 L127.29 567.91 L127.50 567.16 L126.85 567.59 L124.92 568.56 L124.03 569.25 L121.65 569.60 L120.76 569.84 L120.74 568.41 L120.85 567.76 L121.16 567.16 L120.84 566.48 L120.95 565.81 L121.11 565.21 L120.96 564.74 L120.31 564.38 L118.84 563.96 L118.15 563.44 L119.29 563.22 L121.33 562.48 L122.44 562.32 L127.87 562.32 L127.87 561.94 L117.77 561.54 L118.37 560.35 L118.79 558.82 L119.57 557.62 L121.16 557.44 L119.99 558.79 L119.73 559.41 L120.57 559.68 L126.03 559.15 L127.97 558.44 L128.98 558.18 L139.58 557.32 L141.14 556.51 Z" fill="#1E417C"/>
  <path d="M100.94 552.60 L102.32 552.48 L108.75 552.71 L112.65 553.49 L113.65 554.09 L113.51 554.73 L113.22 555.00 L112.19 555.20 L111.77 555.15 L111.36 554.93 L110.93 554.80 L110.48 555.02 L110.26 555.17 L109.60 555.51 L109.36 555.58 L106.88 555.89 L106.08 555.82 L106.94 555.20 L106.25 554.63 L105.00 554.35 L103.68 554.33 L102.81 554.49 L105.04 554.49 L104.03 555.56 L102.59 555.38 L101.10 554.90 L99.99 555.02 L99.49 555.00 L99.30 554.23 L99.69 553.25 L100.94 552.60 Z" fill="#1E417C"/>
  <path d="M116.29 552.19 L115.30 552.54 L114.25 552.59 L112.19 552.19 L113.09 551.30 L114.23 550.72 L115.51 550.42 L116.84 550.33 L117.04 550.44 L117.04 550.68 L116.98 550.93 L117.03 551.08 L118.52 551.48 L119.34 551.52 L120.08 551.47 L120.71 551.61 L121.16 552.19 L119.91 552.85 L118.32 553.38 L116.66 553.71 L115.17 553.72 L115.55 553.38 L115.85 553.00 L116.29 552.19 Z" fill="#1E417C"/>
  <path d="M94.99 551.48 L94.01 551.77 L92.97 551.83 L91.90 551.72 L90.85 551.48 L90.68 551.55 L90.42 551.73 L90.09 551.87 L89.74 551.85 L89.70 551.72 L89.76 551.20 L89.74 551.08 L88.53 550.56 L87.94 550.39 L86.25 550.19 L85.00 549.83 L83.89 549.30 L83.41 548.67 L83.78 548.04 L84.69 547.59 L85.78 547.35 L86.72 547.35 L86.72 546.98 L84.12 545.49 L84.31 544.78 L84.65 544.24 L85.18 543.95 L85.97 544.00 L86.85 544.40 L89.25 545.19 L89.74 545.67 L89.92 546.15 L90.36 546.43 L90.92 546.57 L91.41 546.60 L92.41 547.76 L92.41 548.10 L90.81 547.81 L90.04 547.78 L89.37 548.10 L90.10 548.40 L91.67 548.82 L92.41 549.21 L91.97 549.62 L93.75 549.54 L94.50 549.74 L94.99 550.33 L93.66 550.72 L93.12 550.74 L94.00 551.01 L94.46 551.08 L94.99 551.08 L94.99 551.48 Z" fill="#1E417C"/>
  <path d="M80.17 543.42 L79.58 544.01 L78.79 544.62 L78.10 544.86 L77.75 544.34 L78.26 543.29 L79.53 541.95 L81.04 540.98 L82.25 541.01 L82.05 541.76 L81.52 542.33 L80.17 543.42 Z" fill="#1E417C"/>
  <path d="M57.97 543.42 L56.94 543.09 L55.07 542.96 L54.21 542.51 L54.78 541.35 L54.36 540.71 L53.57 540.13 L53.06 539.15 L54.21 539.15 L55.75 540.11 L57.20 541.39 L57.34 541.90 L58.28 543.40 L57.97 543.42 Z" fill="#1E417C"/>
  <path d="M62.07 539.15 L62.98 540.08 L65.76 540.27 L66.87 541.01 L66.63 541.05 L66.46 541.11 L66.24 541.13 L65.83 541.01 L65.58 541.54 L65.46 542.05 L65.52 542.50 L65.83 542.84 L64.92 542.78 L64.22 543.02 L64.06 543.45 L64.71 544.00 L63.35 543.64 L61.96 542.97 L60.82 541.96 L60.21 540.61 L59.49 541.17 L58.90 541.36 L58.49 541.04 L58.34 540.07 L58.77 539.29 L59.79 539.05 L62.07 539.15 Z" fill="#1E417C"/>
  <path d="M56.86 538.75 L55.89 538.80 L55.47 538.45 L55.28 537.96 L54.99 537.63 L53.89 537.47 L53.28 537.30 L52.72 536.89 L52.23 536.07 L52.51 535.73 L53.84 535.40 L54.16 535.02 L54.38 534.59 L54.71 534.37 L55.33 534.62 L55.37 535.08 L55.56 535.50 L55.91 535.86 L56.45 536.14 L56.02 536.92 L55.75 537.72 L55.92 538.29 L56.86 538.37 L56.86 538.75 Z" fill="#1E417C"/>
  <path d="M54.99 521.58 L53.20 521.58 L52.38 521.46 L51.60 521.17 L52.99 520.61 L55.65 521.19 L56.86 520.83 L56.67 520.62 L56.59 520.43 L56.54 520.26 L56.45 520.05 L56.78 519.93 L57.28 519.54 L57.60 519.34 L56.01 518.26 L55.01 517.89 L53.84 517.82 L55.29 516.89 L56.11 516.67 L57.20 516.70 L58.13 517.53 L58.95 518.05 L60.98 518.94 L59.91 519.51 L59.03 519.69 L58.45 520.04 L58.34 521.17 L57.92 521.68 L56.78 521.74 L55.58 521.51 L54.99 521.58 Z" fill="#1E417C"/>
  <path d="M63.59 392.56 L63.21 393.29 L63.19 394.00 L63.45 394.64 L63.93 395.20 L62.63 395.52 L61.15 395.65 L60.42 395.46 L61.32 394.79 L60.35 394.77 L56.45 396.32 L56.45 396.69 L56.83 396.74 L57.94 397.02 L57.01 397.50 L56.03 397.73 L53.84 397.80 L53.17 397.38 L52.52 396.77 L51.87 396.02 L50.86 395.57 L50.15 395.75 L49.38 396.10 L48.59 396.08 L47.85 395.20 L48.99 395.20 L48.99 394.79 L48.29 394.53 L46.73 393.61 L46.17 393.15 L45.83 392.63 L45.02 390.89 L44.87 390.32 L47.12 391.19 L49.26 391.09 L51.44 390.71 L53.84 390.69 L53.84 391.03 L52.96 391.20 L52.30 391.63 L51.20 392.96 L51.36 393.39 L51.44 393.46 L51.41 393.47 L51.20 393.70 L51.99 393.94 L54.99 394.04 L55.41 394.18 L55.81 394.40 L56.21 394.49 L56.65 394.25 L56.81 393.85 L56.63 393.53 L56.40 393.25 L56.45 392.96 L57.79 392.28 L59.98 391.80 L62.18 391.80 L63.59 392.56 Z" fill="#1E417C"/>
  <path d="M57.94 390.32 L57.76 389.44 L57.25 389.33 L56.53 389.54 L55.70 389.58 L53.06 388.08 L53.33 387.86 L53.59 387.78 L54.21 387.74 L55.65 387.43 L57.53 386.62 L59.43 386.18 L60.98 386.97 L60.96 387.83 L60.11 388.80 L57.94 390.32 Z" fill="#1E417C"/>
  <path d="M258.44 293.90 L260.63 293.77 L262.17 294.53 L260.32 295.02 L256.74 295.01 L252.11 294.44 L248.96 294.54 L247.97 295.58 L243.65 296.72 L245.20 298.22 L248.56 298.04 L249.38 298.38 L248.76 298.65 L248.14 298.69 L247.49 298.67 L246.80 298.72 L246.32 298.88 L245.76 299.28 L245.27 299.46 L244.32 299.58 L243.15 299.54 L242.47 299.19 L243.01 298.38 L242.76 298.19 L242.29 297.63 L241.55 297.09 L240.16 298.43 L238.70 298.66 L236.83 297.31 L235.83 296.38 L235.33 295.65 L234.94 294.88 L236.20 294.21 L239.93 292.53 L244.66 292.36 L249.77 291.73 L252.42 292.16 L253.18 292.95 L251.87 293.31 L252.40 293.68 L253.70 293.60 L255.32 293.68 L258.44 293.90 Z" fill="#1E417C"/>
  <path d="M199.61 571.15 L200.06 571.38 L199.88 571.46 L199.90 571.91 L199.26 572.22 L198.56 572.19 L198.55 572.36 L198.47 572.45 L198.02 572.54 L197.19 572.61 L196.39 572.25 L196.08 572.29 L195.91 572.17 L196.27 571.73 L197.16 571.18 L198.36 570.98 L199.61 571.15 Z" fill="#1E417C"/>
  <path d="M143.53 566.00 L145.19 565.95 L145.67 566.13 L145.29 566.52 L145.14 567.02 L144.82 567.43 L144.58 567.61 L144.26 567.65 L143.86 567.89 L143.35 568.64 L143.13 569.10 L142.71 569.37 L142.02 569.08 L141.55 568.18 L141.81 567.45 L143.31 567.35 L143.34 567.08 L142.87 566.89 L142.15 566.87 L141.78 566.67 L142.22 566.29 L143.53 566.00 Z" fill="#1E417C"/>
  <path d="M147.36 563.66 L147.59 564.00 L147.67 564.42 L147.35 564.85 L146.77 565.08 L146.23 565.12 L145.97 565.01 L146.04 564.80 L145.74 564.80 L145.04 565.08 L144.16 565.28 L142.61 565.25 L142.13 565.28 L141.25 565.21 L141.22 565.02 L141.86 564.70 L142.26 564.20 L142.77 563.71 L143.12 563.50 L143.76 563.20 L145.15 562.88 L146.28 562.92 L146.95 563.23 L147.36 563.66 Z" fill="#1E417C"/>
  <path d="M94.66 562.61 L95.11 562.69 L95.79 563.00 L95.52 563.40 L94.44 563.59 L93.56 563.62 L92.06 563.51 L91.81 563.36 L91.30 562.90 L91.61 562.54 L92.42 562.30 L93.05 562.18 L93.88 562.57 L94.66 562.61 Z" fill="#1E417C"/>
  <path d="M112.20 559.23 L115.58 558.57 L116.16 559.05 L115.19 560.02 L113.90 560.49 L112.58 560.75 L112.53 560.97 L113.30 561.30 L113.50 561.60 L112.78 561.69 L111.41 561.69 L110.85 561.53 L111.06 561.41 L111.06 561.17 L110.98 560.72 L111.14 560.41 L111.39 560.29 L111.44 560.10 L111.45 559.76 L111.73 559.40 L112.20 559.23 Z" fill="#1E417C"/>
  <path d="M94.20 554.15 L93.85 554.17 L93.64 554.13 L93.97 553.92 L94.92 553.54 L95.57 553.48 L95.45 553.76 L94.89 554.03 L94.20 554.15 Z" fill="#1E417C"/>
  <path d="M92.77 554.35 L92.10 554.58 L91.08 554.57 L90.19 554.42 L89.45 553.89 L88.84 553.91 L88.32 553.07 L88.56 552.76 L89.40 552.75 L90.13 552.82 L91.05 552.64 L92.93 552.67 L93.69 552.82 L93.77 553.19 L92.77 554.35 Z" fill="#1E417C"/>
  <path d="M111.47 549.65 L110.92 550.17 L106.15 550.98 L105.54 551.06 L104.40 550.92 L103.70 550.50 L103.69 550.15 L104.08 549.97 L109.07 549.29 L110.66 549.24 L111.47 549.65 Z" fill="#1E417C"/>
  <path d="M106.37 548.83 L106.44 549.21 L101.26 550.44 L100.81 550.38 L101.78 549.42 L102.64 549.02 L103.13 548.94 L106.37 548.83 Z" fill="#1E417C"/>
  <path d="M59.00 548.78 L59.78 549.49 L60.04 550.16 L59.95 550.51 L59.81 550.52 L59.42 550.40 L59.02 550.44 L58.76 550.28 L58.78 549.90 L58.62 549.78 L58.22 549.69 L57.14 549.83 L56.62 549.49 L56.72 549.10 L57.09 548.77 L57.35 548.44 L58.01 548.34 L59.00 548.78 Z" fill="#1E417C"/>
  <path d="M346.20 545.34 L348.49 546.14 L348.96 546.41 L348.80 546.70 L348.08 547.07 L344.62 547.59 L343.85 548.02 L343.29 549.06 L342.73 549.07 L342.06 548.69 L341.03 547.69 L341.37 547.26 L343.96 546.96 L344.71 546.69 L345.04 546.38 L345.01 545.99 L345.27 545.64 L345.73 545.37 L346.20 545.34 Z" fill="#1E417C"/>
  <path d="M96.55 388.44 L96.94 388.45 L98.44 389.54 L98.29 389.94 L97.66 390.63 L96.74 390.89 L95.87 390.87 L95.51 390.69 L95.56 390.30 L95.37 390.14 L95.00 390.26 L94.88 390.49 L94.83 390.74 L94.57 390.88 L94.27 390.90 L93.93 390.75 L93.72 390.37 L93.90 389.73 L94.52 389.09 L95.24 388.92 L96.31 389.26 L96.75 389.20 L96.55 388.92 L95.77 388.55 L95.53 388.30 L95.81 388.23 L96.13 388.22 L96.33 388.38 L96.55 388.44 Z" fill="#1E417C"/>
  <path d="M102.99 392.31 L102.57 392.35 L99.78 391.74 L99.45 391.49 L99.66 391.27 L99.40 391.05 L98.78 390.80 L98.87 390.53 L99.25 390.41 L99.67 390.31 L99.97 389.95 L99.64 389.43 L99.09 388.96 L98.89 388.64 L99.41 388.48 L100.17 388.40 L101.13 388.08 L101.86 388.22 L102.33 388.24 L102.76 388.44 L103.19 388.81 L103.75 389.05 L104.04 389.02 L104.09 388.74 L104.38 388.61 L104.86 388.68 L105.28 388.85 L105.52 389.08 L105.79 389.12 L106.18 388.96 L106.47 388.68 L106.61 388.27 L106.87 387.86 L107.21 387.55 L107.47 387.44 L107.74 387.54 L107.98 387.95 L108.05 388.26 L108.16 388.90 L108.56 389.27 L108.46 389.52 L107.91 390.03 L107.27 390.75 L106.50 391.11 L105.34 391.10 L103.66 390.28 L101.36 390.52 L101.34 390.63 L102.70 390.79 L103.77 391.07 L104.02 391.66 L103.70 392.03 L103.23 392.07 L102.98 392.16 L102.99 392.31 Z" fill="#1E417C"/>
  <path d="M92.78 387.93 L92.34 387.81 L92.24 387.58 L92.34 387.47 L92.46 387.27 L92.73 386.96 L93.00 386.72 L93.27 386.39 L93.57 386.10 L93.93 385.90 L94.23 385.66 L94.39 385.41 L94.92 385.03 L95.92 385.00 L96.77 385.11 L97.62 384.88 L98.38 384.83 L98.66 384.91 L98.93 385.01 L99.45 385.10 L99.98 385.08 L100.36 385.10 L100.36 385.27 L99.97 385.42 L99.45 385.46 L99.50 385.64 L99.76 386.00 L99.28 386.38 L98.36 386.50 L96.58 386.05 L95.81 386.18 L95.23 386.70 L94.96 387.01 L94.25 387.41 L93.27 387.85 L92.78 387.93 Z" fill="#1E417C"/>
  <path d="M139.20 363.49 L140.04 363.51 L140.34 363.67 L140.16 363.86 L139.92 363.93 L139.86 364.07 L139.81 364.38 L139.60 364.75 L139.42 364.91 L139.28 365.26 L138.88 365.75 L138.40 365.64 L137.79 365.39 L137.52 365.55 L137.70 365.96 L137.46 366.29 L136.83 366.36 L136.40 366.59 L135.47 366.71 L134.36 366.38 L133.47 365.85 L132.89 365.04 L132.60 364.82 L132.39 364.63 L132.30 364.37 L133.47 364.03 L133.93 363.83 L134.38 363.53 L135.35 363.16 L136.79 362.84 L137.77 362.90 L138.21 363.26 L138.53 363.59 L138.78 363.68 L139.01 363.56 L139.20 363.49 Z" fill="#1E417C"/>
  <path d="M122.32 576.38 L122.96 576.45 L123.10 576.59 L122.67 576.86 L119.33 577.80 L118.46 577.91 L117.82 577.72 L117.70 577.27 L118.14 577.03 L118.46 577.02 L118.78 576.97 L120.05 576.63 L121.32 576.56 L121.75 576.43 L122.32 576.38 Z" fill="#1E417C"/>
  <path d="M73.32 555.80 L74.16 555.78 L74.75 555.92 L74.47 556.44 L73.85 556.89 L73.65 557.25 L73.39 557.56 L72.87 557.60 L72.61 557.56 L72.09 557.61 L71.30 557.36 L71.24 556.61 L71.72 555.74 L72.58 555.00 L73.55 555.04 L73.67 555.48 L73.15 555.68 L73.32 555.80 Z" fill="#1E417C"/>
  <path d="M54.72 523.16 L55.15 523.27 L55.16 523.99 L54.92 524.40 L54.21 524.26 L52.01 523.58 L51.76 523.69 L51.60 523.60 L51.54 523.42 L51.23 523.20 L50.72 522.97 L50.90 522.75 L51.83 522.61 L52.65 522.84 L52.81 523.31 L52.92 523.48 L53.40 523.40 L53.77 523.42 L53.97 523.54 L54.31 523.48 L54.72 523.16 Z" fill="#1E417C"/>
  <path d="M63.58 505.50 L63.99 505.70 L64.11 505.79 L63.67 505.75 L61.77 505.27 L60.71 505.53 L59.79 505.54 L59.47 505.45 L59.55 505.44 L59.64 505.43 L59.50 505.22 L59.27 504.74 L59.46 504.43 L59.85 504.37 L60.06 504.24 L60.03 504.09 L60.37 503.76 L61.30 503.46 L61.91 503.70 L61.61 504.18 L61.79 504.65 L63.58 505.50 Z" fill="#1E417C"/>
  <path d="M69.00 480.55 L69.15 480.60 L69.27 480.82 L69.04 481.02 L68.64 481.04 L68.41 481.19 L68.27 481.42 L67.89 481.44 L66.66 481.27 L65.76 480.98 L65.66 480.81 L66.25 480.75 L67.00 480.20 L69.00 480.55 Z" fill="#1E417C"/>
  <path d="M51.94 408.96 L51.00 408.54 L50.54 408.75 L49.73 408.97 L48.56 408.57 L47.98 408.04 L48.01 407.81 L48.30 407.76 L48.65 407.90 L48.77 408.01 L49.01 407.79 L49.25 407.36 L48.89 407.13 L48.22 406.87 L47.75 406.41 L47.67 405.98 L47.99 405.66 L48.48 405.47 L48.83 405.46 L49.02 405.65 L49.28 405.79 L50.64 406.05 L51.23 406.33 L51.87 406.78 L52.34 407.38 L52.63 408.13 L52.67 408.68 L52.38 408.91 L51.94 408.96 Z" fill="#1E417C"/>
</svg>
