<svg width="800" height="600" viewBox="0 0 800 600" fill="none" xmlns="http://www.w3.org/2000/svg">
  <path d="M415.95 77.12 L416.74 78.31 L417.26 80.59 L417.77 81.59 L419.62 82.89 L420.44 83.66 L420.60 84.69 L420.30 85.00 L419.10 85.76 L418.80 86.23 L419.83 88.50 L419.77 88.84 L419.37 89.41 L419.31 89.65 L419.48 89.83 L420.10 90.03 L420.34 90.20 L420.78 90.85 L421.06 91.15 L421.44 91.25 L422.19 91.35 L422.62 91.36 L423.58 91.28 L424.07 91.31 L424.75 91.54 L425.01 91.84 L425.17 92.19 L425.51 92.58 L427.44 93.75 L427.73 94.09 L428.43 95.13 L428.70 95.45 L429.66 95.96 L433.80 97.17 L434.03 97.23 L434.84 97.34 L435.52 97.01 L437.08 95.30 L438.02 94.65 L439.21 94.18 L441.92 93.64 L446.03 92.82 L447.37 93.08 L448.25 93.61 L449.11 94.59 L449.83 95.41 L450.46 96.39 L450.88 96.69 L451.60 96.76 L452.30 96.90 L452.71 97.38 L453.30 98.61 L452.58 99.48 L452.99 100.97 L454.36 103.89 L454.44 105.53 L454.71 106.12 L455.52 106.79 L456.20 107.13 L458.46 107.88 L459.37 108.04 L460.62 107.95 L462.89 107.42 L463.59 107.08 L464.10 106.75 L464.63 106.53 L465.37 106.49 L466.11 106.63 L466.45 106.90 L466.37 107.32 L465.87 107.90 L466.51 108.20 L469.85 108.21 L471.02 108.37 L472.15 108.73 L473.18 109.36 L474.02 110.34 L474.46 112.34 L474.46 114.75 L474.92 116.86 L476.74 117.95 L476.94 117.62 L477.01 117.59 L477.10 117.64 L477.33 117.53 L477.47 117.38 L477.70 116.95 L478.63 115.94 L479.05 115.63 L479.75 115.47 L482.00 115.36 L484.15 115.52 L485.22 115.87 L486.11 116.27 L487.03 116.55 L488.20 116.55 L491.49 115.66 L492.59 115.58 L493.59 115.89 L495.31 117.11 L496.41 117.52 L497.48 118.13 L498.90 120.08 L499.85 120.37 L500.23 120.12 L500.16 119.77 L500.19 119.44 L500.84 119.26 L501.30 119.37 L502.00 119.65 L502.64 120.01 L502.95 120.35 L502.83 120.89 L502.32 121.26 L501.10 121.87 L500.55 122.38 L500.32 122.80 L500.04 123.74 L499.05 125.82 L498.92 126.75 L499.66 126.99 L500.69 126.69 L501.24 126.63 L501.76 126.80 L502.63 129.03 L502.94 129.52 L503.30 129.93 L503.28 130.27 L502.04 130.67 L500.84 131.22 L499.90 131.79 L499.52 132.08 L499.26 132.47 L499.05 133.08 L499.29 133.15 L499.58 133.94 L499.64 134.70 L499.26 134.68 L499.23 134.67 L502.13 135.68 L502.82 135.81 L503.59 135.74 L506.78 135.44 L514.54 136.82 L514.92 136.88 L516.46 136.71 L523.67 134.40 L525.82 134.18 L526.39 133.94 L526.86 133.35 L527.23 132.53 L527.62 130.88 L527.57 130.53 L527.38 130.27 L527.25 129.96 L527.39 129.45 L527.69 129.04 L533.21 125.45 L534.60 125.04 L534.84 125.80 L535.42 125.96 L537.04 125.75 L537.52 126.15 L537.45 127.06 L537.17 128.13 L537.05 129.03 L536.50 128.64 L536.18 128.69 L535.21 130.07 L535.15 130.53 L535.23 130.96 L535.18 131.52 L533.19 134.71 L532.97 135.54 L533.66 136.26 L536.11 136.91 L536.91 137.86 L537.00 138.54 L536.87 138.98 L536.61 139.42 L536.33 140.05 L536.16 140.32 L535.70 140.67 L535.60 140.98 L535.71 141.24 L536.22 141.78 L536.35 142.09 L536.34 144.03 L536.80 144.42 L538.15 144.55 L539.31 144.43 L541.56 143.91 L542.51 143.88 L542.64 143.88 L543.58 144.21 L545.50 145.45 L546.54 145.83 L548.38 146.17 L549.00 146.55 L551.20 148.62 L551.97 149.11 L552.91 149.56 L554.10 149.79 L556.44 149.37 L557.55 149.35 L558.63 150.04 L559.63 150.84 L559.99 151.61 L559.76 151.80 L559.34 151.97 L559.18 152.71 L559.30 153.18 L559.55 153.39 L560.41 153.50 L560.78 153.42 L561.06 153.16 L561.28 152.88 L561.47 152.74 L561.79 152.77 L562.38 153.00 L563.98 153.38 L564.38 153.62 L564.94 153.94 L567.43 156.88 L567.65 157.35 L567.64 157.89 L567.47 158.38 L567.42 158.84 L567.74 159.30 L568.86 159.49 L570.20 158.98 L571.50 158.32 L572.47 158.03 L574.09 158.52 L574.53 158.60 L575.30 158.53 L575.47 158.33 L575.59 157.95 L576.20 157.41 L577.49 156.98 L578.66 157.15 L579.77 157.51 L580.89 157.64 L581.53 157.45 L582.19 156.88 L582.75 156.69 L583.31 156.74 L584.44 157.20 L585.04 157.29 L586.67 158.70 L587.57 159.25 L588.87 159.65 L592.15 160.16 L593.13 160.80 L593.84 162.28 L594.74 162.08 L599.15 161.91 L599.91 161.73 L600.41 161.23 L601.03 161.07 L601.15 160.80 L601.15 160.46 L601.42 160.15 L601.79 160.05 L603.25 159.96 L602.91 159.49 L605.88 159.27 L607.35 159.38 L608.77 159.75 L608.86 159.79 L611.33 160.99 L612.70 161.48 L613.73 161.55 L614.18 161.58 L614.73 161.51 L615.71 161.07 L616.13 160.97 L616.70 161.03 L621.45 162.58 L622.34 163.14 L622.66 163.57 L622.80 164.00 L622.81 164.28 L622.71 164.31 L623.07 164.65 L625.58 166.39 L625.76 166.70 L625.53 167.12 L624.61 167.15 L624.33 167.62 L624.65 168.22 L625.52 168.91 L628.96 171.08 L629.04 171.30 L628.93 171.82 L628.99 172.03 L629.27 172.18 L629.99 172.34 L630.21 172.49 L630.61 173.45 L630.78 173.67 L630.84 173.78 L630.94 174.19 L631.08 174.37 L631.31 174.36 L632.00 174.06 L632.21 174.06 L632.54 174.88 L632.28 175.53 L632.13 176.17 L632.79 176.89 L633.40 177.06 L635.71 177.07 L637.72 177.56 L638.38 177.47 L639.27 176.69 L639.08 175.83 L638.69 174.99 L638.98 174.27 L639.50 174.19 L641.66 174.51 L643.17 174.42 L643.74 174.47 L646.97 175.67 L648.09 175.71 L648.06 177.53 L648.66 178.95 L649.80 179.54 L651.39 178.88 L651.47 178.62 L651.30 178.35 L651.26 178.07 L651.73 177.76 L652.01 177.79 L653.99 178.73 L654.80 179.01 L655.62 179.19 L660.08 179.22 L661.47 179.64 L661.79 179.68 L662.10 179.47 L662.64 178.74 L662.97 178.48 L663.43 178.38 L664.49 178.29 L664.88 178.17 L665.14 177.88 L665.51 177.13 L665.75 176.87 L666.61 176.55 L666.82 176.51 L667.83 176.31 L668.83 176.37 L669.06 176.95 L671.29 177.05 L672.23 177.27 L672.57 178.02 L672.18 178.18 L672.06 178.30 L671.97 178.47 L672.69 178.97 L673.86 180.22 L674.54 180.78 L675.67 181.25 L677.93 181.51 L679.08 181.90 L679.46 182.21 L679.96 182.88 L680.44 183.15 L680.96 183.23 L681.16 183.26 L681.78 183.16 L682.39 182.98 L683.04 182.89 L683.61 182.96 L684.71 183.21 L685.20 183.26 L685.83 183.16 L687.05 182.72 L687.62 182.62 L691.92 183.44 L694.87 183.24 L695.80 183.31 L704.01 186.18 L709.09 186.88 L709.69 187.25 L709.67 187.27 L708.60 188.07 L706.99 190.09 L704.64 194.35 L704.00 195.06 L703.68 195.24 L701.79 195.92 L701.33 195.93 L701.22 196.06 L700.98 196.21 L700.74 196.49 L700.63 196.97 L700.51 197.26 L700.22 197.43 L699.82 197.52 L698.37 197.53 L697.78 197.66 L697.51 198.13 L697.45 199.11 L697.22 199.52 L696.66 200.01 L695.98 200.45 L695.36 200.72 L693.94 201.84 L693.15 202.30 L692.30 202.48 L691.69 202.76 L689.51 205.02 L689.07 206.71 L689.07 208.51 L689.68 209.61 L689.68 209.96 L688.38 210.64 L687.76 211.07 L687.50 211.53 L687.39 212.52 L687.13 213.02 L686.79 213.36 L686.43 213.85 L686.17 214.44 L685.79 215.80 L685.73 216.48 L685.90 217.10 L686.23 217.76 L686.50 218.45 L686.43 219.18 L685.72 219.94 L684.77 220.28 L683.94 220.74 L683.58 221.83 L683.47 222.88 L683.14 223.75 L682.60 224.50 L679.33 227.57 L678.98 228.20 L678.88 228.94 L678.62 229.35 L678.27 229.66 L677.89 230.12 L677.55 230.91 L677.22 231.92 L677.38 234.06 L679.62 236.70 L679.73 238.31 L679.24 238.94 L677.86 239.92 L677.58 240.61 L677.64 241.45 L677.55 241.68 L677.22 242.20 L677.01 242.45 L676.67 242.68 L676.52 242.90 L676.46 243.12 L676.48 243.25 L676.53 243.38 L676.52 243.61 L676.78 244.57 L676.67 245.15 L675.97 245.41 L675.68 245.66 L674.94 247.33 L674.80 248.05 L675.45 249.86 L675.42 250.71 L675.11 251.05 L674.26 251.66 L674.08 251.97 L674.22 253.09 L674.39 253.65 L674.59 253.88 L675.35 254.15 L676.06 254.81 L677.22 256.39 L677.53 256.65 L677.86 256.85 L678.13 257.12 L678.25 257.61 L678.12 257.79 L677.91 258.32 L677.88 258.33 L676.07 258.79 L674.83 259.26 L674.54 259.42 L672.57 260.51 L672.69 260.55 L673.55 260.99 L673.73 260.99 L673.75 261.51 L673.52 261.80 L673.10 261.90 L672.57 261.82 L672.27 261.93 L672.20 262.09 L672.31 262.30 L672.68 262.65 L672.73 262.76 L672.74 262.78 L672.73 262.92 L672.66 263.06 L672.57 263.15 L671.78 263.63 L671.11 263.57 L670.67 263.38 L670.44 263.28 L669.63 263.09 L669.03 263.21 L669.04 263.53 L669.30 263.84 L669.47 263.97 L669.72 264.21 L669.81 264.50 L669.64 264.99 L669.35 265.24 L668.62 265.89 L667.68 266.15 L667.18 266.29 L665.03 266.22 L663.59 266.18 L662.22 266.38 L660.26 266.95 L659.92 267.00 L659.51 266.89 L659.31 266.70 L659.16 266.52 L658.95 266.40 L657.43 266.08 L656.31 265.62 L656.01 264.77 L656.95 263.31 L655.55 263.40 L654.95 263.34 L654.86 263.33 L654.18 263.06 L652.97 262.89 L650.39 263.20 L649.05 263.06 L648.58 262.82 L648.11 262.74 L647.64 262.82 L647.18 263.06 L646.22 263.26 L646.35 263.84 L646.88 264.55 L647.13 265.17 L646.74 265.61 L645.97 266.05 L645.13 266.38 L643.77 266.59 L643.69 267.56 L642.36 268.09 L641.60 268.77 L640.96 269.58 L640.70 270.24 L646.85 269.83 L647.81 269.52 L648.58 269.95 L649.35 270.42 L649.89 270.95 L649.49 271.52 L649.00 271.73 L648.47 271.83 L647.93 272.04 L647.18 272.74 L646.90 272.81 L646.43 272.85 L645.46 273.53 L645.13 274.59 L645.34 275.88 L641.82 277.63 L640.32 278.69 L639.34 279.79 L639.22 279.87 L635.95 281.93 L634.40 282.30 L634.46 283.19 L633.72 283.45 L633.53 283.54 L633.33 283.87 L632.03 284.19 L631.55 284.51 L630.85 285.34 L631.47 286.29 L630.29 287.46 L626.84 289.26 L621.28 290.46 L618.77 291.45 L618.00 293.27 L618.21 293.73 L618.90 294.63 L619.07 295.21 L618.98 295.92 L618.79 296.25 L618.69 296.42 L618.34 296.86 L617.52 298.55 L617.45 298.80 L617.59 299.09 L617.86 299.34 L618.25 299.63 L618.27 300.51 L618.07 300.94 L617.49 301.44 L616.95 301.72 L615.23 302.34 L613.87 303.40 L613.35 303.70 L609.65 305.10 L602.69 309.48 L602.00 310.11 L602.16 310.79 L603.41 311.76 L601.58 313.35 L599.78 315.48 L599.19 315.92 L598.99 316.24 L598.99 316.50 L599.10 316.74 L599.22 316.96 L599.26 317.12 L599.26 317.51 L599.37 317.86 L599.27 318.20 L598.68 318.59 L598.92 318.70 L601.47 319.78 L602.23 320.35 L602.86 321.13 L602.93 321.70 L602.01 323.13 L601.25 324.30 L601.08 324.70 L600.71 326.16 L600.69 326.72 L600.74 327.20 L600.51 327.55 L599.37 327.79 L599.07 327.82 L598.76 327.79 L598.36 327.70 L598.26 327.69 L598.17 327.70 L598.09 327.72 L594.99 328.77 L593.73 329.33 L593.53 329.95 L594.07 330.66 L594.99 331.45 L594.83 331.90 L594.43 332.42 L593.74 333.54 L594.99 333.03 L597.34 332.64 L599.69 332.57 L601.45 333.12 L603.13 332.52 L605.77 330.37 L609.08 328.85 L610.42 327.87 L610.15 326.68 L609.79 326.57 L608.92 326.85 L608.38 326.65 L608.16 326.43 L607.66 325.58 L607.64 325.37 L607.16 324.49 L606.95 323.97 L607.23 323.27 L608.32 322.24 L609.79 320.89 L611.47 319.88 L613.06 319.53 L614.76 319.47 L616.44 319.18 L620.85 317.09 L624.17 316.63 L627.62 316.71 L635.32 318.09 L636.10 318.35 L636.58 318.87 L636.64 319.34 L636.70 319.85 L636.33 320.71 L634.96 321.82 L634.69 322.42 L635.68 323.60 L637.51 324.95 L638.69 326.35 L636.85 328.82 L635.95 330.68 L635.48 332.45 L635.93 333.32 L640.04 333.95 L640.83 334.48 L640.78 334.88 L640.42 335.27 L640.00 335.62 L639.77 335.89 L639.91 335.84 L640.00 336.35 L640.02 336.89 L639.94 336.94 L639.96 337.35 L639.86 337.56 L639.89 337.72 L640.34 337.96 L640.83 338.01 L641.23 337.80 L641.60 337.54 L642.03 337.41 L643.21 337.78 L646.71 340.53 L646.96 340.65 L647.15 341.20 L647.74 342.27 L648.11 343.22 L648.38 343.74 L648.74 344.16 L648.00 344.40 L647.45 344.88 L647.04 345.50 L646.71 346.20 L646.00 347.03 L644.96 347.64 L643.79 348.06 L642.69 348.29 L641.41 348.28 L641.05 348.32 L641.02 348.58 L640.96 348.94 L640.91 349.17 L640.59 349.24 L640.28 348.91 L639.94 348.76 L639.50 348.64 L638.09 348.93 L637.30 349.27 L636.64 350.03 L636.36 350.88 L636.32 351.80 L636.46 352.73 L637.04 354.87 L638.09 355.97 L639.48 356.70 L640.83 356.89 L641.52 357.08 L642.70 357.89 L643.39 358.26 L645.07 358.56 L645.70 358.87 L646.02 359.64 L645.90 359.94 L645.30 360.85 L645.16 361.28 L645.27 361.69 L645.83 362.30 L646.04 362.69 L646.32 364.83 L646.71 365.58 L649.07 366.51 L651.32 367.70 L651.50 367.90 L651.83 368.27 L652.19 368.91 L652.61 369.49 L653.30 369.86 L655.51 370.55 L655.91 370.76 L655.86 371.41 L655.40 372.19 L654.33 373.55 L652.66 374.96 L652.39 375.26 L652.65 376.76 L653.21 377.80 L653.21 378.61 L651.80 379.44 L650.82 380.71 L650.47 380.96 L650.20 380.90 L649.55 380.34 L649.14 380.21 L647.31 380.57 L645.46 381.17 L644.80 381.62 L643.90 382.73 L643.14 383.22 L642.67 383.30 L641.46 383.31 L641.05 383.43 L640.78 383.87 L641.02 384.15 L641.32 384.39 L641.22 384.71 L639.54 385.29 L637.67 384.82 L635.78 384.10 L633.96 383.88 L633.57 384.02 L632.64 384.53 L632.20 384.71 L631.79 384.76 L630.85 384.74 L630.39 384.80 L628.60 385.53 L628.43 385.63 L627.66 386.08 L627.05 386.67 L627.96 387.65 L628.80 388.17 L628.88 388.53 L628.82 388.94 L628.96 389.41 L629.58 390.17 L630.13 390.51 L631.94 390.63 L633.30 391.33 L633.63 392.81 L633.53 395.70 L634.43 396.79 L636.12 397.83 L639.69 399.31 L640.67 399.48 L643.22 399.12 L644.12 399.17 L646.71 399.93 L647.64 400.66 L647.85 400.92 L647.97 401.22 L647.95 401.38 L647.90 401.52 L647.91 401.77 L647.81 401.80 L647.55 402.62 L647.52 402.69 L648.11 403.81 L648.38 405.08 L648.58 405.53 L650.15 407.65 L650.45 408.32 L649.53 408.33 L647.66 407.94 L646.71 407.94 L645.52 408.41 L644.57 409.24 L644.20 410.29 L644.79 411.39 L644.06 411.78 L642.29 413.98 L639.65 415.43 L639.10 416.12 L639.26 417.73 L640.42 419.18 L641.99 420.37 L643.35 421.18 L641.61 421.86 L641.25 422.31 L640.81 423.92 L640.68 424.23 L640.67 424.50 L640.87 424.97 L641.08 425.21 L642.22 426.17 L642.63 426.67 L643.24 427.73 L643.52 428.12 L643.99 428.47 L645.02 429.00 L645.49 429.40 L645.82 429.91 L645.99 430.39 L646.22 430.84 L646.71 431.24 L647.40 431.44 L648.01 431.37 L648.63 431.22 L649.33 431.18 L649.98 431.32 L653.02 432.48 L655.10 433.03 L660.60 435.47 L661.57 435.76 L662.92 435.93 L663.60 436.12 L663.96 436.49 L664.23 436.92 L664.72 437.27 L665.22 437.35 L667.30 437.39 L676.30 435.52 L677.79 435.43 L679.92 434.43 L681.51 434.64 L680.80 436.32 L681.43 437.28 L682.58 438.11 L683.18 439.05 L683.39 439.37 L683.29 440.26 L682.71 440.82 L681.96 441.23 L681.40 441.69 L681.06 442.32 L680.64 443.48 L680.24 444.08 L679.08 445.01 L676.41 446.64 L675.37 447.84 L673.13 449.63 L672.32 450.70 L672.57 452.01 L673.58 454.49 L672.90 454.84 L672.68 454.85 L672.47 454.82 L672.24 454.89 L672.21 455.08 L672.29 455.74 L672.24 455.92 L671.83 456.07 L671.53 456.05 L671.10 456.31 L670.67 456.69 L670.23 457.02 L669.65 456.39 L668.65 455.98 L667.65 456.27 L666.88 456.89 L666.60 457.50 L666.52 458.09 L665.87 458.45 L665.31 458.86 L665.09 459.35 L664.70 459.97 L664.10 460.03 L663.16 459.90 L662.10 459.61 L660.91 459.70 L660.10 460.05 L659.42 460.60 L659.59 461.15 L658.66 461.92 L658.14 462.14 L657.77 461.49 L656.79 461.33 L656.11 461.54 L655.44 461.60 L655.06 462.09 L654.66 462.31 L654.48 462.68 L654.12 464.13 L654.43 465.53 L654.46 465.80 L654.65 466.38 L654.79 466.81 L654.09 467.14 L653.44 466.27 L653.00 466.08 L652.17 466.06 L651.27 466.46 L650.61 467.03 L649.93 467.43 L649.52 467.73 L649.18 467.13 L648.35 467.17 L647.28 467.08 L646.34 467.18 L645.64 467.53 L644.76 468.20 L644.54 468.96 L644.99 469.20 L644.96 469.23 L645.21 469.37 L645.24 469.60 L643.72 471.02 L643.48 472.25 L642.34 472.82 L642.12 473.35 L640.93 473.43 L640.86 473.12 L640.70 472.95 L640.51 472.75 L640.25 472.91 L640.16 473.30 L640.36 473.96 L639.67 474.13 L639.06 473.96 L638.23 473.95 L636.38 474.34 L635.86 473.83 L635.03 473.61 L634.49 473.86 L633.69 474.38 L633.78 475.71 L633.00 476.49 L633.00 477.34 L631.77 477.45 L630.77 477.56 L630.32 478.24 L630.08 478.80 L629.60 479.18 L628.18 480.17 L626.77 480.78 L626.44 481.56 L627.51 481.80 L630.65 481.19 L631.74 481.35 L631.98 481.74 L631.33 482.64 L630.44 483.08 L630.29 484.03 L630.63 484.42 L631.04 485.05 L630.03 485.62 L629.00 486.07 L628.42 486.17 L627.42 486.50 L626.88 486.42 L626.67 486.17 L626.56 485.76 L625.94 485.94 L625.03 485.93 L623.80 486.05 L623.62 486.55 L623.12 487.17 L622.03 487.66 L620.66 487.40 L619.22 487.57 L617.70 487.59 L616.65 487.87 L615.45 488.43 L614.81 489.34 L615.00 490.01 L615.29 490.77 L613.58 490.78 L612.88 490.30 L612.72 490.08 L611.71 489.81 L610.37 489.33 L608.98 489.22 L607.24 489.44 L605.87 489.85 L605.11 490.15 L604.30 490.68 L603.79 491.75 L603.77 492.98 L604.73 493.28 L605.46 493.12 L605.19 493.61 L603.86 493.73 L600.93 493.86 L600.45 493.67 L601.20 493.36 L602.04 493.14 L602.70 492.75 L602.55 491.78 L601.54 491.11 L600.63 491.18 L598.17 491.43 L597.27 491.43 L596.73 490.36 L595.44 490.18 L593.73 490.19 L592.46 489.60 L592.59 489.29 L592.68 488.79 L592.82 488.54 L591.97 488.52 L591.14 488.68 L589.63 489.24 L590.51 489.50 L591.25 490.65 L592.11 490.94 L593.36 491.34 L592.78 491.80 L591.59 491.71 L590.08 491.74 L589.42 491.91 L588.45 493.15 L586.51 492.71 L585.02 491.86 L584.59 491.38 L585.68 490.87 L586.46 490.35 L586.12 489.95 L585.56 489.69 L584.67 489.54 L584.54 489.09 L584.29 488.71 L583.49 488.65 L582.48 488.64 L580.16 487.88 L579.72 486.74 L579.00 486.17 L578.04 485.87 L576.95 485.79 L576.37 486.33 L575.82 487.17 L574.57 486.78 L573.77 486.72 L573.06 486.08 L572.45 485.44 L571.97 484.74 L571.30 484.47 L570.75 484.73 L570.22 484.83 L567.93 484.69 L566.89 484.73 L565.33 484.54 L564.59 484.49 L563.30 484.72 L562.09 484.30 L562.28 483.39 L562.44 482.86 L562.81 482.34 L563.24 481.48 L562.63 480.97 L562.56 480.37 L562.34 480.06 L561.67 478.18 L559.36 477.09 L556.47 478.50 L552.59 478.44 L550.62 478.62 L547.50 478.51 L545.90 478.12 L544.87 476.96 L544.43 475.73 L545.50 474.30 L547.10 473.64 L551.71 473.64 L553.14 473.32 L554.12 472.74 L555.19 471.79 L555.85 470.63 L555.67 469.40 L554.16 470.13 L552.71 470.51 L551.39 470.34 L550.27 469.40 L549.91 468.61 L549.88 468.17 L549.61 467.90 L548.54 467.64 L548.15 467.60 L546.92 467.64 L546.71 467.46 L545.97 466.73 L545.65 466.58 L545.30 466.91 L544.97 467.60 L544.71 468.31 L544.62 468.70 L544.90 469.67 L545.37 470.10 L546.00 470.35 L546.75 470.81 L547.37 472.11 L546.79 473.27 L545.57 473.90 L544.06 474.02 L543.27 473.90 L540.44 472.71 L539.14 473.15 L538.59 473.47 L537.33 473.67 L536.82 473.99 L536.40 474.71 L536.64 474.98 L537.16 475.92 L537.29 476.59 L539.02 476.49 L537.79 477.33 L536.68 477.79 L536.43 476.91 L535.52 475.71 L533.37 474.83 L531.62 473.63 L530.82 472.26 L530.95 469.23 L530.82 468.34 L530.50 467.57 L529.96 466.67 L529.24 465.91 L528.35 465.52 L528.35 465.84 L529.89 467.62 L530.11 468.17 L530.11 471.87 L530.83 473.62 L532.23 474.68 L533.80 475.50 L534.99 476.48 L534.85 477.56 L533.35 477.62 L526.86 477.50 L523.06 476.86 L521.71 476.28 L521.67 475.41 L522.71 474.56 L522.83 473.91 L522.40 473.23 L521.14 472.54 L518.95 471.90 L513.60 472.31 L503.07 471.68 L501.81 471.48 L500.71 471.08 L499.29 470.28 L498.48 469.07 L499.29 467.91 L499.20 467.73 L497.86 466.93 L494.87 466.71 L491.95 466.98 L489.98 467.54 L489.28 467.93 L478.96 474.12 L472.87 476.08 L471.19 477.12 L467.24 480.93 L466.16 481.28 L464.09 480.54 L462.85 480.71 L460.63 480.79 L457.12 481.86 L453.33 484.12 L452.46 484.91 L452.12 485.37 L451.41 485.82 L450.82 486.33 L449.93 486.93 L449.27 487.59 L448.68 488.47 L447.72 489.21 L446.59 489.97 L446.08 490.93 L445.66 491.72 L445.14 492.68 L444.33 494.08 L443.96 495.04 L443.59 495.85 L443.08 497.33 L442.71 498.43 L442.85 498.95 L443.52 499.24 L443.59 500.28 L443.15 503.37 L442.78 506.33 L442.71 508.39 L442.93 509.72 L442.63 511.86 L442.85 514.66 L443.08 516.80 L443.37 518.50 L444.11 519.16 L445.22 519.53 L446.62 519.75 L447.80 520.05 L448.24 520.56 L448.24 521.15 L448.09 521.74 L448.46 522.26 L448.98 522.63 L449.79 523.59 L450.08 524.69 L450.05 524.88 L447.82 525.17 L446.47 525.22 L445.15 525.10 L444.08 524.85 L443.46 524.56 L442.96 524.17 L442.55 523.68 L442.22 523.11 L441.88 523.04 L440.37 523.01 L439.82 522.92 L438.93 523.35 L437.26 522.88 L435.56 523.86 L434.69 523.96 L433.81 523.94 L432.97 524.01 L432.14 524.37 L430.58 525.50 L429.75 525.89 L428.67 526.01 L426.65 525.78 L425.59 525.84 L424.68 526.19 L422.49 527.47 L422.08 527.91 L422.55 528.90 L423.19 529.44 L423.22 529.66 L421.83 529.72 L420.69 529.56 L418.31 528.96 L417.31 528.98 L416.91 529.25 L416.48 530.09 L416.13 530.34 L415.59 530.35 L415.01 530.21 L413.97 529.77 L413.01 529.58 L412.01 528.99 L411.20 528.19 L410.82 527.35 L409.99 527.32 L408.39 527.06 L405.38 526.01 L404.76 525.63 L403.31 525.03 L401.69 525.16 L398.49 525.90 L396.05 525.67 L395.22 525.96 L394.98 526.23 L394.59 526.99 L394.34 527.29 L393.11 528.00 L392.23 528.69 L391.64 528.97 L390.79 529.13 L389.44 529.25 L388.74 529.16 L388.10 528.86 L387.09 528.20 L386.59 527.40 L385.92 525.47 L385.21 524.60 L384.41 524.34 L383.44 524.30 L382.23 524.09 L379.32 522.62 L378.24 522.28 L375.03 521.95 L374.07 521.66 L374.10 521.50 L374.06 521.37 L373.96 521.27 L373.81 521.19 L373.99 519.90 L374.57 518.83 L375.51 518.15 L376.81 518.06 L376.60 517.84 L376.17 517.37 L374.97 517.09 L374.13 516.70 L374.58 515.65 L368.70 515.23 L368.13 515.03 L365.33 513.61 L364.54 513.65 L363.02 514.08 L361.38 514.02 L360.58 516.06 L359.44 516.40 L358.69 515.68 L357.82 513.91 L356.83 512.89 L355.91 511.68 L355.48 511.51 L354.99 511.49 L354.73 511.28 L354.96 510.54 L353.74 510.30 L347.37 510.29 L345.64 510.70 L345.07 510.64 L344.18 510.16 L343.65 509.45 L343.26 508.65 L342.76 507.91 L341.84 507.30 L340.76 507.05 L336.35 506.83 L335.96 506.66 L335.10 506.14 L334.66 506.02 L334.13 506.15 L333.65 506.44 L333.15 506.63 L332.60 506.46 L331.77 505.85 L331.33 505.60 L329.79 505.16 L327.56 504.18 L326.67 504.07 L325.66 504.14 L324.76 503.99 L322.97 503.48 L322.07 503.41 L320.65 503.48 L319.46 503.83 L319.21 504.57 L319.32 505.68 L318.60 507.13 L319.17 507.71 L318.78 507.94 L318.59 508.15 L318.28 508.67 L319.01 508.87 L319.63 509.44 L319.98 510.23 L319.93 511.06 L319.82 511.19 L319.48 511.61 L318.80 511.79 L316.97 511.61 L310.52 511.75 L309.66 511.49 L307.69 511.87 L306.68 511.91 L305.64 511.76 L305.39 511.58 L305.35 511.37 L305.37 511.15 L305.26 510.99 L303.83 510.09 L302.89 510.33 L301.97 511.01 L300.52 512.53 L299.75 512.61 L298.95 511.90 L297.84 510.45 L297.01 510.15 L294.26 509.62 L293.42 509.72 L292.45 510.20 L289.27 510.55 L285.28 511.64 L283.49 511.76 L281.45 511.16 L281.15 510.93 L280.91 510.67 L280.55 510.44 L279.90 510.30 L279.35 510.12 L279.21 509.79 L279.14 509.42 L278.82 509.13 L277.97 508.62 L277.34 507.85 L277.04 506.96 L277.16 506.06 L276.23 506.35 L274.73 506.65 L273.34 506.53 L272.73 505.57 L269.72 504.22 L269.60 504.17 L268.81 503.62 L268.53 504.13 L268.17 504.53 L267.76 504.64 L267.32 504.31 L264.83 505.75 L263.58 506.30 L262.00 506.39 L259.21 505.43 L257.89 505.40 L257.80 506.63 L257.34 506.75 L256.48 507.19 L256.07 507.23 L255.57 506.99 L255.58 506.68 L255.65 506.35 L255.35 506.03 L255.13 505.98 L254.29 505.98 L253.94 505.87 L253.96 505.67 L254.05 505.45 L253.98 505.23 L251.97 503.24 L251.05 502.68 L249.28 501.86 L248.75 501.80 L248.25 501.86 L247.74 501.81 L247.21 501.43 L246.93 500.96 L246.98 500.68 L247.15 500.44 L247.18 500.08 L246.97 499.68 L246.21 498.24 L244.83 497.89 L240.84 498.42 L236.72 498.17 L234.74 497.69 L232.94 496.70 L232.31 496.16 L231.45 495.98 L229.66 495.81 L229.27 495.58 L228.41 495.18 L227.96 495.05 L226.02 495.18 L224.34 494.16 L222.56 493.44 L219.56 493.05 L218.59 492.62 L217.71 491.88 L217.48 491.19 L217.90 490.51 L218.98 489.83 L217.82 489.60 L216.66 489.92 L215.76 490.66 L215.41 491.70 L215.28 493.05 L214.84 493.75 L213.96 493.96 L212.54 493.87 L211.28 493.62 L210.13 493.14 L209.19 492.36 L208.54 491.24 L208.97 490.80 L211.10 489.12 L211.76 488.48 L212.54 486.84 L213.11 484.78 L212.91 482.89 L211.42 481.76 L210.80 481.76 L210.23 481.91 L209.65 481.98 L207.50 481.16 L205.89 480.80 L204.86 480.78 L204.09 481.12 L203.68 482.01 L203.39 482.46 L202.82 482.70 L202.17 482.76 L201.61 482.70 L200.98 482.48 L200.72 482.25 L200.35 481.36 L200.26 480.91 L200.41 480.59 L200.41 480.35 L199.90 480.08 L198.92 479.74 L198.45 479.70 L197.40 480.03 L196.29 480.13 L195.68 480.35 L195.12 480.42 L195.00 480.22 L194.86 480.00 L194.68 479.00 L194.04 478.35 L192.56 477.83 L192.54 477.20 L192.58 476.11 L192.70 475.51 L192.84 475.58 L192.88 475.60 L193.66 476.01 L194.05 475.63 L195.00 475.34 L199.59 474.80 L200.79 473.55 L201.94 473.10 L202.91 472.58 L203.36 472.14 L204.48 470.53 L204.70 469.95 L205.16 469.54 L207.19 467.61 L207.59 467.02 L209.11 465.47 L209.47 463.84 L210.71 460.90 L212.83 452.42 L214.06 449.46 L215.88 442.75 L219.21 428.11 L220.63 420.86 L220.99 417.65 L220.86 416.89 L220.42 415.42 L220.47 414.98 L221.84 413.56 L222.04 413.23 L222.18 412.61 L223.11 410.23 L224.13 409.32 L225.43 409.29 L228.60 409.85 L230.42 409.65 L231.46 409.12 L231.48 408.33 L230.20 407.37 L230.91 407.37 L230.40 406.63 L226.49 404.01 L225.93 403.84 L225.69 403.74 L225.47 403.58 L225.23 403.46 L224.87 403.49 L224.65 403.65 L224.55 403.87 L224.48 404.07 L224.36 404.16 L224.02 404.65 L221.69 407.18 L221.11 409.46 L220.65 410.71 L220.31 411.29 L223.46 385.77 L225.61 377.58 L226.54 366.67 L226.86 365.90 L228.63 363.38 L229.37 362.58 L230.20 362.36 L230.75 362.55 L230.87 362.78 L230.84 363.17 L230.81 363.76 L230.67 363.93 L230.56 364.20 L230.56 364.48 L230.72 364.76 L231.26 365.38 L231.71 365.78 L235.18 367.68 L237.36 368.54 L238.16 368.72 L244.43 373.63 L245.87 375.15 L246.48 376.71 L246.61 377.74 L247.30 379.67 L248.26 384.47 L248.47 385.06 L250.22 388.06 L251.98 389.69 L253.96 391.06 L255.62 391.76 L256.08 392.12 L256.50 392.77 L256.58 393.25 L256.43 394.08 L256.49 395.16 L256.72 396.23 L257.15 397.07 L257.85 397.45 L257.64 396.74 L257.45 395.27 L257.14 394.63 L257.63 393.23 L257.04 392.11 L255.89 391.28 L254.67 390.74 L256.27 390.80 L257.60 391.01 L258.79 391.43 L259.97 392.12 L258.66 390.49 L256.60 389.77 L254.36 389.25 L252.52 388.24 L251.57 386.89 L250.92 385.25 L248.95 375.34 L248.28 373.34 L246.55 370.08 L245.52 368.63 L244.36 367.34 L241.96 365.40 L234.63 361.65 L234.46 361.43 L234.25 360.46 L233.92 360.24 L232.21 359.80 L229.44 357.86 L227.89 357.42 L226.91 357.27 L226.06 356.90 L225.33 356.38 L224.70 355.79 L223.73 355.28 L221.92 355.56 L220.99 355.30 L221.88 351.69 L221.87 351.03 L225.31 350.29 L226.32 350.32 L229.61 353.05 L230.20 353.32 L230.82 353.73 L234.44 354.91 L233.28 353.99 L228.63 351.36 L227.30 350.24 L227.02 349.77 L226.94 349.17 L226.71 348.40 L226.37 347.65 L225.93 347.11 L226.51 346.90 L226.87 346.59 L227.13 346.28 L227.38 346.05 L227.96 345.69 L228.76 345.34 L229.24 345.30 L229.65 345.36 L229.99 345.24 L230.20 344.64 L230.14 344.10 L229.83 343.56 L229.46 343.12 L229.14 342.84 L229.42 342.67 L229.94 342.28 L230.20 342.13 L229.35 341.74 L228.78 341.04 L228.05 339.34 L229.14 339.87 L230.00 339.90 L230.69 339.47 L231.26 338.60 L231.26 338.28 L231.04 338.05 L230.75 337.81 L230.41 337.62 L229.42 337.37 L229.24 336.94 L229.19 336.42 L228.81 335.72 L228.83 335.24 L228.76 335.04 L228.57 334.96 L227.90 334.80 L227.73 334.71 L227.42 334.47 L227.11 334.30 L227.11 334.08 L227.73 333.66 L226.52 333.02 L226.12 332.95 L225.91 332.85 L225.92 332.61 L225.99 332.36 L225.93 332.21 L225.65 332.17 L224.87 332.21 L224.33 332.10 L223.87 332.12 L223.42 332.06 L222.93 331.70 L222.88 331.26 L223.21 330.76 L223.72 330.32 L224.20 330.09 L223.92 329.10 L224.49 328.42 L228.05 326.88 L228.47 326.22 L228.43 325.81 L228.19 325.37 L228.05 324.63 L226.93 323.52 L224.61 323.42 L222.69 324.22 L222.75 325.85 L221.36 325.59 L220.37 324.75 L219.43 323.76 L218.60 323.60 L218.08 323.54 L216.49 322.87 L215.32 322.17 L214.63 321.97 L211.88 322.57 L210.57 322.53 L210.01 321.42 L209.70 320.12 L208.88 319.18 L207.68 318.60 L206.27 318.41 L202.81 318.30 L201.42 317.99 L201.85 317.35 L201.01 316.79 L198.26 316.45 L196.52 315.40 L195.06 315.12 L194.41 314.84 L194.03 314.41 L193.45 313.28 L192.96 312.72 L192.97 313.37 L193.27 314.21 L193.34 314.66 L193.12 314.89 L192.64 314.71 L192.15 314.24 L191.00 310.44 L191.23 309.54 L190.40 309.30 L189.99 308.72 L189.75 308.03 L189.43 307.43 L188.65 306.80 L187.86 306.33 L187.24 305.83 L186.71 304.51 L186.03 304.12 L185.15 303.92 L184.30 303.86 L183.86 303.54 L182.33 301.39 L179.45 299.32 L177.85 298.53 L176.51 298.21 L175.91 297.88 L175.53 297.07 L175.33 296.08 L175.26 295.19 L175.39 294.07 L175.74 293.54 L177.07 292.88 L176.77 292.15 L177.53 291.60 L179.51 290.76 L180.14 289.98 L181.01 288.12 L181.62 287.20 L182.53 286.73 L182.44 285.86 L181.86 284.94 L181.30 284.34 L180.50 283.80 L177.39 282.60 L171.42 281.88 L169.58 281.19 L170.27 280.87 L170.83 280.52 L171.43 280.22 L173.11 280.06 L173.51 279.88 L173.67 279.46 L173.82 278.69 L173.84 277.98 L173.29 277.17 L173.15 276.39 L173.21 275.82 L173.41 275.15 L173.75 274.54 L174.21 274.10 L175.45 273.73 L180.21 273.39 L180.57 273.20 L180.92 273.08 L181.30 273.04 L181.71 273.39 L182.10 273.64 L184.75 274.11 L185.54 274.10 L185.19 273.75 L185.79 273.75 L186.34 273.86 L186.85 274.08 L187.31 274.42 L186.25 274.42 L186.25 274.80 L188.37 275.86 L190.52 276.15 L191.05 276.39 L192.19 277.24 L193.38 277.60 L196.17 277.66 L195.13 277.19 L193.01 276.89 L192.11 276.39 L190.54 275.13 L188.72 274.10 L186.93 273.36 L185.90 273.12 L184.68 273.04 L184.22 272.92 L183.49 272.42 L181.53 272.02 L174.39 272.36 L172.76 273.04 L172.40 273.42 L172.19 273.76 L171.92 274.08 L171.38 274.42 L169.84 274.73 L168.63 275.55 L167.65 275.82 L166.63 275.80 L165.70 275.55 L164.93 275.07 L163.67 274.07 L162.84 273.75 L161.98 273.67 L161.49 273.69 L161.11 273.75 L160.70 273.99 L160.50 274.34 L160.42 274.66 L160.37 274.80 L158.86 274.77 L154.02 273.04 L154.02 272.68 L155.20 272.80 L157.43 273.53 L158.60 273.39 L159.49 272.68 L159.01 271.99 L157.98 271.30 L157.19 270.57 L156.81 270.70 L156.64 270.77 L156.49 270.89 L156.74 271.26 L156.76 271.47 L156.49 271.98 L156.10 271.98 L156.02 270.48 L155.42 269.69 L153.27 268.74 L157.39 267.06 L157.94 267.08 L158.47 267.24 L159.34 267.36 L159.24 267.64 L159.18 267.65 L158.96 267.74 L159.34 268.06 L159.84 267.67 L161.62 266.99 L161.78 266.65 L160.99 266.54 L159.72 266.52 L158.87 266.29 L159.34 265.56 L158.50 265.17 L157.42 265.09 L156.76 264.81 L157.19 263.83 L156.46 263.15 L157.03 262.81 L160.26 262.69 L162.15 262.33 L163.23 262.38 L162.39 262.22 L161.00 262.39 L160.05 262.38 L156.10 261.32 L155.28 261.23 L154.61 261.29 L152.92 261.67 L150.98 261.67 L150.51 261.78 L150.21 261.97 L149.89 262.01 L149.36 261.67 L150.14 261.58 L151.05 261.19 L151.82 260.61 L152.21 259.91 L151.42 260.44 L150.68 260.52 L149.92 260.47 L149.04 260.62 L149.46 260.67 L149.78 260.78 L149.98 260.97 L150.10 261.32 L148.79 261.33 L148.18 261.23 L147.63 260.97 L147.54 262.20 L146.84 262.48 L145.12 262.06 L144.25 262.10 L141.56 262.73 L140.56 262.80 L139.78 262.74 L139.11 262.51 L138.41 262.06 L138.31 261.86 L137.51 260.85 L137.32 260.79 L137.10 260.52 L136.61 260.36 L136.02 260.29 L135.86 260.23 L135.94 260.16 L135.91 259.91 L135.02 259.68 L135.88 259.25 L137.29 259.25 L138.05 260.29 L138.41 260.29 L138.70 260.02 L138.99 259.90 L139.35 259.98 L139.82 260.29 L139.88 259.96 L140.18 259.20 L140.98 259.85 L142.29 260.14 L143.70 260.04 L144.80 259.56 L144.41 259.20 L146.43 257.30 L146.67 256.34 L145.50 255.32 L145.50 255.64 L146.00 255.99 L146.07 256.32 L145.76 256.58 L145.12 256.70 L145.85 257.05 L145.62 257.30 L145.40 257.41 L144.80 257.44 L144.53 257.15 L141.94 256.02 L143.03 256.13 L144.06 256.37 L143.45 255.77 L142.83 255.51 L141.23 255.32 L141.94 255.64 L140.87 255.98 L138.20 256.17 L137.67 256.54 L137.22 257.16 L136.20 257.47 L134.49 257.76 L134.49 257.44 L134.84 257.44 L134.84 257.05 L134.17 257.13 L134.01 257.21 L133.79 257.44 L133.43 257.44 L133.23 256.80 L133.18 256.28 L133.34 255.88 L133.79 255.64 L133.04 255.62 L132.50 255.35 L132.16 254.87 L132.02 254.23 L131.63 254.23 L131.71 254.63 L131.95 255.28 L132.02 255.64 L132.02 256.87 L132.21 257.39 L132.67 257.96 L133.25 258.48 L133.79 258.85 L133.65 259.20 L133.57 259.35 L133.43 259.56 L133.29 259.37 L132.76 258.85 L132.33 259.05 L131.86 258.72 L131.31 258.18 L130.61 257.76 L130.91 258.44 L130.62 258.76 L130.15 258.63 L129.90 257.95 L129.71 257.16 L129.38 257.23 L129.20 257.81 L129.51 258.50 L128.78 258.46 L128.47 258.39 L128.13 258.14 L126.50 258.74 L125.68 258.79 L124.96 258.50 L125.29 258.35 L125.63 258.14 L125.13 257.83 L124.53 257.57 L123.95 257.59 L123.51 258.14 L123.75 258.22 L123.96 258.39 L124.22 258.50 L123.66 260.24 L123.95 261.72 L124.80 262.92 L125.95 263.83 L125.25 263.80 L124.16 263.60 L123.83 263.83 L123.51 263.83 L122.89 262.34 L122.80 261.87 L122.92 261.30 L123.40 260.43 L123.51 259.73 L123.38 258.52 L123.02 257.63 L122.45 256.95 L121.71 256.37 L121.22 256.16 L120.64 256.00 L120.15 255.79 L119.95 255.48 L120.06 254.81 L120.69 253.36 L124.57 252.14 L124.37 251.87 L124.26 251.58 L124.22 251.21 L124.22 250.69 L123.97 250.81 L123.37 250.97 L123.13 251.08 L123.10 249.98 L123.13 249.63 L122.80 249.63 L122.40 250.18 L121.84 250.08 L121.15 249.84 L120.33 249.95 L121.06 250.14 L121.55 250.52 L121.88 251.07 L122.10 251.78 L121.84 251.82 L121.79 251.86 L121.79 251.94 L121.71 252.14 L121.10 251.83 L120.74 252.02 L120.33 252.36 L119.60 252.49 L119.80 252.65 L120.33 253.19 L119.61 253.43 L119.36 253.91 L119.20 254.39 L118.73 254.61 L118.34 254.40 L116.77 253.19 L115.45 252.94 L113.18 252.52 L111.79 252.49 L112.73 252.23 L113.65 252.30 L115.71 252.81 L115.71 252.49 L114.89 252.15 L113.96 251.94 L111.79 251.78 L111.79 251.40 L112.25 251.37 L112.47 251.25 L112.53 250.99 L112.53 250.52 L112.71 250.31 L113.59 250.40 L113.91 250.34 L114.58 249.19 L115.04 248.58 L115.71 248.22 L115.71 247.84 L114.58 248.73 L113.16 249.64 L111.59 250.26 L110.50 250.44 L110.90 250.59 L111.22 250.81 L111.47 251.08 L111.47 251.40 L107.23 252.12 L106.49 251.96 L106.27 251.68 L104.73 250.34 L103.99 249.28 L103.41 248.83 L103.19 248.61 L103.00 248.22 L102.43 248.54 L101.58 248.53 L99.75 248.22 L98.42 248.26 L97.99 248.22 L97.58 248.06 L96.99 247.61 L96.75 247.51 L94.79 247.58 L93.80 247.34 L93.36 246.63 L92.91 246.49 L90.22 247.51 L89.46 247.01 L88.36 247.03 L87.21 247.19 L86.27 247.13 L86.20 246.96 L85.21 245.72 L84.84 245.44 L84.47 245.24 L84.29 244.93 L84.50 244.33 L84.05 244.32 L83.73 244.23 L83.09 243.95 L82.92 243.39 L81.95 242.63 L80.57 242.01 L79.20 241.83 L79.67 242.89 L79.30 243.67 L78.14 244.53 L77.09 244.33 L77.61 244.36 L78.02 244.29 L78.32 244.05 L78.50 243.60 L77.87 243.75 L77.35 243.77 L76.96 243.89 L76.70 244.33 L75.24 243.52 L74.55 243.33 L73.71 243.28 L73.09 243.04 L72.43 242.43 L71.92 241.61 L71.76 240.77 L71.21 241.39 L71.52 242.17 L72.22 242.87 L72.85 243.28 L72.85 243.60 L72.19 243.63 L71.69 243.76 L71.22 243.99 L70.70 244.33 L69.72 243.20 L69.00 243.33 L68.85 243.97 L69.60 244.33 L69.46 244.53 L69.28 244.69 L69.28 245.01 L70.70 245.01 L70.70 245.40 L69.02 246.49 L68.22 246.81 L66.95 247.05 L59.36 246.81 L59.39 246.42 L59.28 245.70 L59.36 245.40 L59.69 245.26 L60.18 245.26 L60.61 245.20 L60.81 244.85 L60.63 243.92 L59.86 242.60 L59.36 241.19 L58.58 240.25 L56.11 238.09 L51.53 235.66 L51.01 235.47 L50.32 235.76 L49.68 236.28 L49.01 236.53 L47.46 235.51 L46.57 235.40 L44.82 235.47 L40.93 234.74 L41.28 234.55 L41.54 234.24 L41.75 233.91 L42.07 233.53 L42.10 233.35 L42.17 233.15 L42.35 232.97 L42.52 232.96 L42.93 233.27 L43.23 233.35 L59.88 230.85 L62.83 231.45 L63.60 231.24 L63.83 230.87 L64.34 229.41 L64.10 228.82 L63.37 228.19 L63.22 227.83 L62.96 226.68 L62.26 226.20 L60.07 225.88 L59.66 225.71 L59.33 225.45 L59.10 225.15 L58.98 224.82 L57.68 225.14 L54.92 223.96 L53.49 224.29 L52.73 225.20 L52.01 226.38 L51.10 227.36 L49.76 227.67 L50.21 226.57 L50.47 226.23 L49.89 225.63 L49.57 225.19 L49.44 224.82 L49.70 224.20 L50.10 223.98 L50.29 223.77 L49.94 223.24 L49.31 223.13 L46.20 223.05 L46.34 222.50 L46.20 221.99 L46.76 221.78 L47.19 221.80 L47.62 221.92 L48.19 221.99 L48.84 221.83 L48.96 221.48 L48.83 221.12 L48.74 220.93 L49.66 219.32 L50.32 218.89 L51.17 219.16 L50.50 221.08 L51.93 221.53 L56.54 221.32 L57.06 221.49 L57.41 221.72 L57.80 221.91 L58.48 221.99 L59.10 221.95 L61.54 221.47 L65.01 221.32 L64.68 221.53 L64.36 221.63 L63.60 221.64 L64.66 221.92 L68.90 221.32 L68.90 220.93 L67.28 221.00 L66.67 220.81 L66.45 220.19 L65.98 220.60 L65.27 220.73 L64.62 220.56 L64.34 220.03 L64.01 220.09 L61.80 220.19 L62.23 219.72 L62.45 219.61 L62.89 219.49 L62.92 219.27 L63.16 219.05 L63.66 218.81 L64.66 218.07 L63.79 218.08 L62.61 218.65 L61.80 218.81 L61.80 218.46 L62.18 218.46 L62.18 218.07 L61.80 218.07 L61.64 218.32 L61.32 218.59 L61.13 218.81 L60.36 218.59 L58.72 219.35 L57.56 219.49 L57.71 219.29 L57.76 219.27 L57.95 219.16 L57.56 218.81 L57.13 219.10 L56.54 219.31 L55.84 219.44 L55.13 219.49 L55.13 219.16 L58.08 216.78 L58.65 216.47 L63.60 214.51 L62.68 214.69 L61.06 215.31 L60.03 215.57 L56.54 215.95 L54.93 216.41 L51.67 217.78 L49.13 218.20 L47.59 218.72 L46.58 218.81 L45.68 218.67 L43.88 218.18 L42.88 218.07 L42.69 218.24 L42.69 218.62 L42.61 218.99 L42.16 219.16 L39.54 219.15 L38.85 218.97 L38.40 218.44 L38.08 217.36 L39.04 217.30 L38.96 216.64 L38.08 215.25 L38.00 214.27 L38.26 213.30 L38.87 212.59 L39.84 212.39 L39.84 212.07 L38.53 211.42 L39.05 209.93 L40.32 208.35 L41.25 207.44 L41.79 207.68 L42.35 207.83 L41.96 207.44 L42.79 207.07 L43.76 206.86 L45.36 206.74 L46.37 206.93 L48.09 207.57 L48.74 207.44 L47.53 206.35 L47.16 205.64 L47.84 205.33 L50.21 205.74 L51.17 205.71 L49.76 205.33 L49.92 205.11 L50.01 204.94 L49.90 204.78 L49.44 204.59 L49.44 204.27 L53.49 204.27 L54.65 204.13 L56.36 203.58 L57.56 203.56 L56.85 203.27 L56.54 203.21 L56.54 202.82 L58.01 202.65 L59.45 202.08 L60.84 201.72 L62.18 201.76 L63.12 202.51 L62.74 203.65 L63.95 203.56 L65.53 202.93 L66.08 202.82 L66.71 202.90 L67.88 203.21 L68.57 203.21 L68.57 202.82 L67.58 202.63 L67.85 202.11 L68.74 201.50 L69.60 201.09 L70.60 200.82 L71.80 200.67 L72.97 200.72 L73.91 201.09 L74.21 200.77 L74.50 200.79 L74.75 201.03 L74.96 201.41 L75.28 201.41 L75.63 201.16 L75.84 200.86 L75.87 200.47 L75.67 200.00 L76.39 199.91 L77.02 199.75 L78.11 199.29 L79.94 198.93 L80.26 199.10 L80.13 199.59 L79.95 199.96 L80.01 200.23 L80.61 200.38 L80.61 200.70 L80.26 200.70 L80.26 201.09 L80.78 201.31 L81.13 201.69 L81.21 202.21 L80.94 202.82 L82.39 201.86 L83.15 201.60 L84.18 201.76 L83.67 202.07 L83.44 202.15 L83.44 202.47 L84.07 203.03 L85.60 203.68 L86.27 204.27 L86.65 203.91 L86.27 203.56 L86.65 203.21 L86.41 202.89 L86.23 202.46 L85.95 201.41 L86.27 201.41 L86.43 201.71 L86.59 201.87 L87.00 202.15 L86.87 201.24 L87.02 200.25 L87.43 199.67 L88.06 200.00 L88.29 199.76 L88.40 199.51 L88.44 199.23 L88.42 198.91 L89.09 199.53 L90.06 199.73 L92.46 199.64 L93.04 199.80 L94.23 200.51 L94.81 200.70 L95.47 200.72 L97.31 200.38 L97.29 201.26 L98.56 201.52 L100.07 201.52 L100.81 201.25 L100.30 200.05 L100.09 199.26 L100.30 198.91 L103.00 198.58 L102.24 198.26 L100.46 196.79 L100.24 195.94 L100.77 195.50 L102.26 195.05 L103.38 193.71 L103.67 193.28 L103.99 193.28 L104.47 193.54 L106.11 193.61 L107.90 194.30 L108.61 194.34 L108.32 194.50 L108.18 194.64 L108.09 194.81 L107.91 195.05 L109.12 195.11 L109.76 195.07 L110.22 194.87 L110.74 194.45 L111.09 194.29 L115.45 193.21 L116.06 192.90 L116.41 192.90 L116.90 192.98 L118.44 191.72 L119.27 191.84 L119.61 192.59 L119.58 193.60 L119.21 194.53 L118.54 195.05 L118.59 195.28 L118.66 195.43 L118.92 195.76 L119.11 195.10 L119.53 194.61 L121.07 193.33 L122.35 192.61 L122.80 192.23 L123.34 192.39 L124.30 191.62 L124.96 191.49 L125.59 191.77 L125.96 192.24 L125.99 192.78 L125.63 193.28 L125.63 193.61 L126.34 193.99 L125.95 194.41 L125.28 195.76 L124.94 196.17 L123.83 197.14 L123.83 197.52 L124.22 197.52 L125.93 195.19 L126.94 194.21 L127.78 194.34 L128.29 194.06 L128.84 193.96 L129.38 194.06 L129.90 194.34 L129.51 194.70 L129.71 194.75 L129.84 194.74 L129.89 194.81 L129.90 195.05 L129.40 195.15 L129.01 195.30 L128.13 195.76 L128.13 196.08 L128.81 196.46 L130.14 196.80 L132.76 196.89 L133.79 197.14 L133.72 197.57 L133.72 197.88 L133.79 198.23 L133.29 198.51 L133.08 198.58 L133.08 198.91 L133.84 199.23 L134.77 199.77 L135.57 200.38 L135.91 200.90 L139.27 202.82 L139.79 204.37 L140.00 204.78 L140.08 205.05 L139.93 205.29 L139.82 205.54 L140.00 205.87 L140.26 206.03 L140.93 206.25 L142.17 206.88 L145.12 207.83 L144.97 208.30 L144.76 208.66 L144.46 208.96 L144.06 209.21 L144.67 209.23 L145.16 209.41 L145.60 209.72 L146.04 210.11 L146.76 210.51 L146.89 210.02 L146.86 209.28 L147.08 208.89 L149.14 208.96 L149.98 208.72 L150.98 207.99 L152.20 206.71 L152.60 206.38 L153.15 206.10 L154.06 205.90 L157.55 204.46 L158.28 203.91 L158.28 203.56 L157.84 203.53 L156.84 203.21 L159.14 202.74 L160.27 202.85 L160.73 203.56 L162.07 203.21 L163.63 202.53 L164.98 201.64 L165.70 200.70 L165.89 201.30 L166.26 201.68 L166.78 201.84 L167.47 201.76 L167.47 202.15 L167.08 202.36 L166.86 202.62 L166.66 202.92 L166.41 203.21 L164.97 204.27 L165.88 204.75 L166.84 204.32 L167.90 203.59 L169.07 203.21 L169.32 203.49 L169.60 204.70 L169.78 204.98 L170.36 205.16 L170.71 205.61 L170.89 206.19 L171.00 206.74 L171.56 206.53 L171.94 206.14 L172.11 205.61 L172.09 204.98 L172.31 205.73 L172.59 206.38 L173.05 206.68 L173.82 206.38 L173.82 206.03 L173.61 205.98 L173.15 205.71 L173.72 205.13 L174.33 204.82 L174.96 204.87 L175.62 205.33 L175.26 205.01 L174.98 204.65 L174.56 203.91 L176.87 203.37 L179.34 203.21 L179.48 203.44 L180.57 204.78 L180.65 205.34 L180.91 205.85 L181.37 206.23 L182.01 206.38 L181.79 206.89 L181.62 207.09 L182.96 208.44 L183.27 209.13 L183.07 210.27 L183.58 209.90 L185.19 209.21 L183.74 208.54 L184.02 208.13 L183.26 207.21 L183.07 206.38 L183.42 206.38 L183.64 206.62 L183.85 206.77 L184.49 207.09 L184.10 206.49 L183.64 206.17 L183.10 206.05 L182.51 206.03 L182.03 205.73 L181.07 204.19 L180.57 203.56 L180.73 203.14 L181.11 202.68 L181.71 202.30 L182.51 202.15 L182.69 201.98 L182.69 201.62 L182.78 201.25 L183.24 201.09 L185.19 201.09 L184.86 200.70 L190.13 200.00 L189.98 200.22 L189.97 200.45 L190.14 200.72 L190.52 201.09 L189.23 202.48 L189.24 203.69 L190.42 204.57 L192.60 204.98 L196.39 205.01 L200.47 204.59 L202.97 203.68 L203.28 203.64 L203.79 203.56 L207.89 203.91 L213.44 203.09 L215.34 203.56 L214.52 202.66 L213.37 202.27 L211.39 202.15 L211.38 202.27 L211.14 202.46 L210.85 202.55 L210.71 202.31 L210.65 201.98 L210.48 201.69 L210.20 201.48 L208.42 201.14 L207.78 200.86 L207.50 200.54 L207.06 199.32 L205.14 198.19 L204.70 196.96 L204.68 195.53 L204.46 194.31 L203.84 193.50 L202.59 193.28 L202.59 192.90 L203.31 192.68 L203.85 192.21 L204.20 191.61 L204.62 189.14 L204.97 188.61 L205.41 189.05 L205.70 188.46 L205.74 188.00 L205.48 187.71 L204.86 187.60 L204.65 187.30 L205.21 184.31 L205.55 183.54 L206.24 183.29 L207.50 183.68 L207.50 183.37 L206.51 183.05 L205.34 183.05 L204.38 183.42 L203.97 184.21 L203.81 184.43 L203.44 184.13 L203.08 183.61 L202.91 183.17 L202.95 181.94 L203.07 181.39 L203.29 180.86 L202.57 180.76 L202.29 180.37 L202.34 179.79 L202.59 179.13 L202.95 178.46 L203.31 178.15 L204.32 177.68 L203.69 177.36 L203.56 177.43 L203.29 177.68 L202.86 176.86 L202.51 175.89 L202.29 174.88 L202.20 173.94 L202.61 173.45 L203.55 173.40 L205.41 173.76 L205.41 173.44 L204.32 173.23 L202.99 172.80 L201.87 172.78 L201.47 173.76 L200.65 173.13 L199.79 171.23 L199.03 170.62 L199.36 170.39 L199.51 170.31 L199.73 170.23 L198.25 169.46 L197.62 168.89 L197.23 168.08 L198.28 168.08 L198.28 167.76 L197.62 166.70 L197.23 166.70 L196.81 167.60 L195.85 167.20 L194.69 166.36 L193.66 165.96 L193.80 165.61 L193.89 165.45 L194.05 165.26 L193.33 165.37 L192.65 165.57 L192.05 165.61 L191.55 165.26 L191.39 164.58 L191.58 162.82 L191.55 162.08 L191.39 161.72 L191.18 161.39 L190.42 160.50 L190.35 160.24 L190.32 159.98 L190.13 159.58 L189.63 159.02 L188.29 157.95 L188.02 157.65 L188.34 156.92 L189.80 156.05 L190.13 155.53 L190.37 153.91 L190.35 153.05 L189.97 152.32 L189.55 151.74 L189.26 151.24 L188.80 150.88 L187.14 150.67 L184.86 150.04 L185.28 148.82 L185.18 148.05 L185.40 147.65 L186.79 147.53 L187.28 147.64 L188.30 148.13 L188.92 148.24 L190.36 148.10 L190.87 148.24 L191.12 148.46 L191.31 149.09 L191.55 149.33 L191.79 149.38 L192.35 149.31 L192.60 149.33 L193.74 149.59 L197.17 149.92 L201.03 150.79 L201.85 150.75 L201.88 150.86 L201.90 151.12 L202.02 151.37 L202.40 151.48 L202.88 151.37 L203.58 150.86 L204.15 150.75 L204.75 150.81 L205.83 151.08 L206.44 151.10 L207.32 150.84 L208.13 150.34 L209.46 149.15 L210.21 148.78 L212.60 148.30 L213.54 148.24 L219.75 148.98 L220.17 149.13 L220.38 149.50 L220.63 150.36 L221.77 151.93 L222.00 152.83 L220.68 153.44 L220.46 153.92 L220.33 154.41 L220.12 154.63 L218.97 154.64 L218.52 154.75 L218.19 155.01 L217.94 156.24 L218.59 157.26 L219.48 158.17 L220.25 159.60 L224.19 162.85 L224.69 163.63 L224.87 164.76 L224.77 165.33 L224.54 165.73 L224.30 166.00 L224.20 166.15 L224.37 166.68 L224.79 166.64 L225.34 166.41 L225.93 166.35 L226.48 166.66 L226.88 167.03 L227.42 167.24 L228.43 167.05 L228.43 166.70 L227.89 166.19 L228.28 165.48 L229.15 164.85 L230.04 164.58 L236.86 164.82 L242.98 166.35 L251.84 166.70 L254.06 167.14 L255.33 167.22 L257.21 166.54 L258.48 166.73 L260.70 167.38 L264.24 167.38 L265.15 167.62 L266.71 168.30 L269.31 168.69 L274.15 170.62 L275.47 169.84 L283.76 168.55 L286.17 167.80 L287.59 166.98 L288.77 166.77 L289.23 166.52 L290.47 165.26 L293.91 163.63 L300.35 162.68 L306.78 161.72 L309.16 160.93 L310.16 160.35 L311.02 159.58 L307.34 161.08 L303.07 161.48 L298.79 161.10 L295.09 160.28 L294.03 160.28 L293.13 160.23 L291.94 159.98 L290.91 159.58 L290.47 159.08 L290.31 158.76 L289.57 158.44 L289.41 158.00 L289.47 157.43 L289.63 157.06 L292.28 153.89 L294.35 149.33 L295.12 148.73 L297.71 147.38 L298.27 147.38 L298.79 147.04 L305.55 145.02 L306.08 144.53 L312.55 142.02 L314.34 141.67 L316.37 140.76 L320.41 139.80 L324.87 139.84 L346.16 135.40 L347.42 134.75 L348.68 134.47 L350.74 132.99 L357.47 129.49 L360.21 127.32 L360.81 126.99 L361.26 126.54 L362.42 123.81 L364.18 122.28 L365.96 122.12 L371.08 123.73 L371.59 123.70 L372.02 123.42 L372.02 123.07 L371.48 123.09 L371.13 123.01 L370.86 122.79 L370.57 122.39 L371.64 122.39 L371.64 122.01 L370.63 122.00 L369.59 121.78 L368.79 121.37 L368.45 120.79 L367.96 120.12 L365.74 119.43 L365.25 119.01 L365.33 117.34 L365.76 115.32 L366.82 113.95 L368.01 114.10 L368.81 114.21 L368.81 113.88 L365.95 112.44 L365.95 112.09 L366.90 110.34 L366.94 107.91 L367.20 105.80 L368.81 105.03 L367.41 103.65 L367.13 102.93 L366.90 100.50 L366.37 98.29 L366.34 97.22 L366.60 96.31 L367.69 94.26 L368.28 93.50 L368.56 92.51 L368.23 91.33 L367.40 89.42 L367.28 88.70 L367.27 88.44 L368.52 87.81 L368.97 87.69 L370.04 87.62 L371.03 87.39 L371.90 86.82 L373.40 85.50 L374.99 84.55 L384.90 81.82 L385.82 81.94 L387.59 81.28 L395.90 80.62 L404.77 78.79 L405.31 78.60 L405.75 78.56 L408.85 78.79 L413.07 78.09 L415.17 77.48 L415.94 77.13 L415.95 77.12 Z" fill="#1E417C"/>
  <path d="M388.10 524.37 L388.25 524.37 L388.76 524.29 L388.94 524.24 L388.36 523.50 L387.84 522.63 L387.31 522.08 L386.72 522.28 L386.15 523.21 L386.25 523.86 L386.93 524.25 L388.10 524.37 Z" fill="#1E417C"/>
  <path d="M774.67 513.71 L775.99 515.12 L775.72 515.12 L775.72 515.18 L774.67 513.71 Z" fill="#1E417C"/>
  <path d="M728.59 536.41 L729.02 535.82 L728.59 535.52 L727.90 535.36 L727.53 535.16 L727.75 534.67 L728.29 534.56 L729.65 534.61 L730.04 534.46 L730.43 534.23 L730.92 534.03 L733.01 533.73 L733.71 533.50 L734.25 533.20 L734.54 533.09 L734.77 533.13 L734.90 533.08 L734.95 532.67 L734.19 532.23 L734.09 532.14 L732.16 531.43 L732.04 531.23 L731.90 530.89 L731.67 530.69 L730.94 531.16 L730.64 531.14 L730.44 530.92 L730.36 530.55 L730.61 530.36 L732.16 529.67 L731.03 528.97 L729.93 529.04 L727.89 529.67 L728.27 529.28 L727.96 528.84 L727.76 528.28 L727.73 527.69 L727.89 527.20 L728.34 527.46 L728.84 527.45 L729.31 527.24 L729.65 526.87 L730.29 527.15 L730.49 526.93 L730.55 526.49 L730.74 526.14 L730.99 525.90 L731.09 525.67 L731.33 525.50 L733.00 525.30 L733.44 524.96 L733.55 524.45 L733.54 523.83 L734.11 523.18 L734.33 522.76 L734.09 522.57 L733.45 522.52 L733.32 522.37 L733.43 522.15 L733.85 520.83 L734.52 520.25 L735.41 519.94 L736.39 519.75 L736.09 519.26 L736.38 518.13 L736.01 517.63 L736.01 517.24 L736.41 517.40 L736.56 517.41 L736.62 517.50 L736.75 517.95 L737.61 517.59 L738.16 517.78 L738.62 518.14 L739.22 518.33 L740.03 518.13 L740.65 517.62 L741.09 516.93 L741.37 516.18 L740.99 515.83 L742.93 515.75 L746.22 514.48 L752.00 513.57 L753.64 512.95 L753.80 511.94 L756.59 509.65 L757.15 509.34 L758.37 509.18 L759.60 509.17 L760.16 509.29 L760.63 509.26 L763.30 509.82 L764.39 510.27 L764.74 510.53 L765.06 510.88 L765.34 511.29 L765.81 512.30 L766.17 512.30 L768.02 509.95 L768.77 508.45 L768.28 507.32 L768.69 506.33 L768.41 505.42 L767.70 504.58 L766.87 503.79 L768.28 502.35 L768.27 501.90 L767.94 501.40 L767.93 500.97 L768.14 500.46 L768.48 500.11 L769.69 499.17 L769.51 498.91 L769.45 498.76 L769.52 498.54 L769.69 498.10 L769.16 497.69 L768.82 496.86 L768.74 495.96 L768.99 495.28 L769.83 494.88 L771.97 494.87 L772.90 494.57 L773.58 495.28 L774.05 495.58 L775.06 495.99 L775.06 496.37 L774.62 496.79 L774.53 497.34 L774.78 497.94 L775.37 498.46 L775.13 499.43 L776.11 504.14 L776.03 505.70 L774.35 510.53 L774.41 511.16 L774.30 511.89 L774.35 513.39 L774.28 513.52 L774.13 513.65 L773.99 513.82 L773.96 514.07 L774.09 514.20 L774.33 514.32 L774.57 514.37 L774.67 514.38 L774.81 514.85 L774.94 515.14 L774.92 515.41 L774.67 515.83 L775.09 516.08 L775.26 516.42 L775.40 516.82 L775.72 517.24 L776.14 517.49 L777.53 517.95 L777.39 517.20 L777.16 516.86 L776.38 515.51 L777.88 517.15 L778.37 518.05 L778.59 519.04 L778.47 522.04 L778.64 523.60 L779.29 524.69 L778.98 525.37 L778.75 526.09 L778.61 526.90 L778.59 527.87 L778.83 528.93 L779.79 530.94 L780.00 531.96 L779.62 538.40 L780.00 539.62 L779.86 540.05 L779.76 540.95 L779.65 541.35 L779.28 541.82 L777.88 542.80 L777.32 543.46 L776.53 544.73 L772.98 548.57 L772.20 549.15 L771.91 549.63 L771.89 551.47 L771.45 555.06 L771.90 558.59 L771.83 562.38 L771.67 562.64 L771.29 562.77 L770.77 563.10 L770.31 563.55 L770.04 564.05 L770.75 564.05 L770.60 564.97 L770.35 565.55 L769.86 565.82 L769.32 565.78 L768.91 565.81 L768.75 566.10 L768.99 566.88 L768.29 566.63 L767.51 566.49 L766.77 566.45 L766.17 566.53 L766.26 566.98 L765.77 567.50 L765.46 567.98 L766.17 568.32 L767.87 567.79 L768.90 567.66 L769.37 568.13 L769.19 568.86 L768.70 569.48 L767.95 569.90 L767.04 570.05 L766.55 570.31 L766.17 570.84 L765.64 571.34 L764.74 571.47 L764.95 571.84 L765.01 572.20 L764.95 572.55 L764.74 572.92 L765.34 573.09 L765.49 573.50 L765.27 573.95 L764.74 574.30 L765.06 574.68 L764.26 574.95 L762.85 575.65 L761.95 575.74 L761.95 576.12 L762.44 576.42 L762.61 576.82 L762.43 577.22 L761.95 577.54 L761.95 577.86 L762.54 577.67 L763.36 577.08 L764.00 576.80 L763.81 577.57 L763.41 578.45 L762.96 579.22 L762.60 579.66 L761.75 580.00 L761.08 579.83 L759.80 578.95 L758.99 578.68 L757.38 578.50 L756.04 578.06 L756.60 576.72 L756.86 576.55 L757.33 576.44 L756.49 575.88 L755.24 575.49 L754.50 575.03 L755.18 574.30 L755.18 573.98 L754.58 574.13 L753.06 575.03 L752.71 574.68 L752.82 574.57 L752.89 574.53 L752.95 574.47 L753.06 574.30 L752.51 574.42 L752.30 574.51 L752.00 574.68 L751.65 574.30 L751.11 573.94 L749.79 573.63 L748.52 573.48 L747.73 573.62 L747.17 573.33 L746.75 572.98 L746.24 572.69 L745.04 572.49 L744.90 572.30 L744.80 572.06 L744.52 571.85 L744.03 571.75 L743.62 571.75 L743.21 571.71 L742.76 571.47 L743.46 571.12 L743.46 570.80 L742.81 570.62 L742.43 570.44 L741.95 570.48 L741.22 570.34 L740.56 570.11 L740.28 569.90 L740.52 568.90 L740.36 568.55 L739.58 568.32 L739.95 567.65 L740.30 566.59 L740.80 565.87 L741.69 566.20 L744.46 565.25 L744.90 564.94 L745.14 564.22 L745.73 563.86 L746.43 563.56 L747.06 563.00 L745.84 562.95 L742.59 562.26 L741.35 562.24 L740.13 562.07 L739.47 561.56 L739.93 560.52 L738.64 560.51 L736.52 561.13 L735.31 561.20 L735.44 561.01 L735.69 560.52 L734.95 560.56 L734.40 560.44 L733.88 560.26 L733.21 560.14 L733.89 559.88 L735.34 559.71 L736.01 559.43 L736.44 558.99 L736.67 558.46 L736.58 557.98 L736.01 557.70 L736.01 557.31 L737.19 557.31 L738.24 557.04 L739.93 556.28 L739.68 555.79 L739.28 555.46 L738.76 555.26 L738.17 555.19 L739.87 554.77 L740.28 554.49 L740.16 554.37 L739.98 554.03 L739.76 553.73 L739.58 553.78 L740.19 553.05 L740.28 553.04 L740.43 552.78 L740.88 552.35 L740.99 552.01 L740.87 551.99 L740.28 551.66 L739.98 551.19 L739.75 550.88 L739.42 550.70 L738.87 550.60 L737.83 550.68 L736.07 551.40 L734.95 551.66 L732.83 551.76 L731.91 551.93 L731.10 552.33 L730.74 551.66 L731.33 550.80 L731.11 550.09 L729.65 548.80 L732.20 548.62 L733.21 548.30 L733.92 547.39 L733.27 547.05 L733.70 546.45 L734.73 545.88 L735.85 545.62 L736.12 545.48 L737.50 544.93 L737.78 544.92 L737.86 544.27 L737.56 543.92 L736.75 543.47 L735.86 542.00 L735.50 541.55 L734.96 541.45 L733.51 541.75 L733.21 541.55 L732.83 540.89 L731.89 540.47 L730.71 540.28 L729.65 540.30 L729.90 539.81 L730.04 539.62 L729.65 539.37 L729.23 539.22 L728.77 539.18 L728.27 539.23 L728.79 539.15 L729.22 538.99 L730.04 538.56 L730.04 538.17 L728.59 538.17 L728.59 537.82 L729.21 537.64 L729.42 537.14 L729.22 536.63 L728.59 536.41 Z" fill="#1E417C"/>
  <path d="M222.43 343.19 L222.17 343.65 L222.71 344.01 L224.20 344.64 L224.59 345.10 L224.67 345.53 L224.25 347.72 L223.71 349.08 L222.96 349.90 L222.04 349.61 L221.30 347.81 L220.88 347.13 L220.31 346.40 L217.28 344.01 L216.18 343.46 L215.07 342.53 L214.21 341.53 L214.44 341.07 L214.55 340.53 L213.97 339.33 L212.83 337.54 L214.44 337.69 L216.20 338.33 L217.81 339.24 L219.03 340.20 L219.61 340.41 L220.27 340.26 L220.97 340.20 L221.69 340.72 L221.90 341.36 L221.82 341.95 L221.86 342.45 L222.43 342.84 L222.43 343.19 Z" fill="#1E417C"/>
  <path d="M219.22 332.21 L218.97 332.01 L218.74 331.95 L216.39 331.64 L211.39 329.38 L208.49 329.77 L207.70 329.55 L205.60 327.88 L205.03 327.59 L205.03 327.27 L208.01 326.74 L208.95 326.88 L209.33 327.09 L209.58 327.36 L209.60 327.67 L209.27 327.97 L208.03 327.61 L207.50 327.59 L208.40 328.68 L209.77 328.66 L211.25 328.19 L212.51 327.97 L212.51 328.33 L211.78 328.33 L211.78 328.71 L212.64 329.00 L217.84 329.59 L219.05 330.13 L220.03 330.93 L220.63 331.89 L220.15 331.92 L219.77 332.00 L219.22 332.21 Z" fill="#1E417C"/>
  <path d="M164.61 302.45 L166.63 303.04 L167.58 303.55 L168.14 304.21 L166.98 303.89 L162.84 303.86 L162.24 302.91 L162.65 302.44 L163.60 302.33 L164.61 302.45 Z" fill="#1E417C"/>
  <path d="M171.70 289.32 L172.23 289.74 L174.00 290.38 L174.56 290.76 L174.81 291.49 L174.93 292.54 L174.68 293.23 L173.82 292.88 L173.07 291.71 L171.97 290.54 L170.66 289.91 L169.26 290.41 L168.44 289.61 L167.64 287.62 L166.76 286.85 L169.71 286.73 L170.65 286.85 L171.71 287.30 L171.84 287.89 L171.64 288.58 L171.70 289.32 Z" fill="#1E417C"/>
  <path d="M124.39 271.42 L125.01 271.63 L126.56 271.58 L127.08 271.98 L126.86 272.94 L125.48 273.22 L121.44 272.96 L118.77 272.42 L117.86 271.98 L118.03 271.16 L117.63 270.31 L117.07 269.49 L116.77 268.74 L117.20 268.45 L117.41 268.12 L117.76 268.11 L118.21 268.41 L118.87 268.52 L121.19 269.35 L122.48 270.04 L122.63 270.18 L124.39 271.42 Z" fill="#1E417C"/>
  <path d="M24.27 212.07 L24.38 212.19 L24.48 212.33 L24.65 212.42 L24.98 212.39 L24.98 212.77 L22.32 213.70 L21.41 213.83 L21.41 213.48 L21.58 213.46 L21.95 213.50 L22.12 213.48 L21.81 212.97 L21.31 212.87 L20.00 213.13 L20.00 212.77 L22.12 211.97 L23.30 211.74 L24.27 212.07 Z" fill="#1E417C"/>
  <path d="M608.03 494.31 L608.38 494.15 L608.86 494.58 L608.92 495.34 L607.78 495.71 L607.07 495.97 L606.35 496.14 L605.71 495.98 L604.47 495.49 L604.39 495.21 L604.93 495.01 L606.37 495.06 L606.82 494.87 L606.99 494.71 L607.16 494.67 L607.31 494.70 L607.94 494.67 L608.03 494.31 Z" fill="#1E417C"/>
</svg>
