<svg width="800" height="600" viewBox="0 0 800 600" fill="none" xmlns="http://www.w3.org/2000/svg">
  <path d="M40.25 76.02 L42.42 77.71 L43.54 78.18 L45.02 78.39 L46.60 78.37 L48.06 78.18 L51.04 77.33 L52.40 76.74 L53.03 76.59 L56.66 76.86 L58.21 76.48 L61.06 75.02 L62.50 74.59 L63.51 74.50 L64.04 74.02 L64.51 73.47 L65.32 73.17 L70.24 74.03 L71.00 74.34 L71.72 74.81 L72.63 75.73 L72.70 75.85 L73.29 75.99 L73.70 75.93 L74.06 75.81 L74.54 75.77 L76.86 76.36 L78.18 76.34 L79.05 76.53 L79.33 76.54 L79.93 76.31 L80.05 76.15 L80.01 75.90 L80.16 75.40 L80.22 75.32 L81.21 75.29 L81.34 74.37 L81.87 73.67 L82.56 73.28 L85.99 72.74 L86.45 72.64 L86.79 72.44 L87.40 71.89 L87.43 71.79 L87.90 71.07 L87.99 70.97 L88.25 69.60 L88.25 69.06 L88.36 68.50 L88.70 68.01 L89.19 67.75 L90.18 67.67 L90.71 67.55 L92.82 66.28 L93.87 64.71 L93.73 62.94 L92.30 61.03 L91.18 60.35 L91.01 60.16 L91.21 59.75 L91.70 59.28 L92.64 58.62 L93.68 58.28 L95.78 57.96 L96.78 57.48 L99.15 55.31 L100.52 54.83 L101.07 54.53 L101.55 54.14 L101.84 53.69 L101.82 53.21 L101.50 53.04 L101.32 52.83 L101.72 52.22 L102.75 51.47 L104.06 50.97 L106.11 50.67 L106.75 50.57 L108.14 50.74 L108.81 51.40 L109.01 52.49 L109.03 53.95 L108.87 55.34 L108.08 57.84 L107.92 59.09 L108.11 60.27 L108.64 61.04 L109.52 61.55 L110.79 61.90 L112.12 62.37 L113.49 63.35 L116.54 66.48 L117.01 66.64 L117.94 66.87 L120.20 67.78 L121.04 67.81 L121.39 67.68 L122.14 67.22 L122.44 67.12 L122.68 67.18 L122.84 67.22 L123.19 67.67 L123.56 67.85 L124.33 67.92 L125.82 67.90 L126.54 68.07 L127.77 69.20 L127.06 70.33 L125.68 71.51 L124.83 72.86 L124.64 73.09 L124.56 73.22 L125.39 73.26 L126.13 73.44 L128.90 74.48 L129.22 74.66 L129.54 74.96 L130.01 75.74 L130.85 76.78 L131.26 77.41 L131.53 78.04 L131.61 78.87 L131.41 79.47 L131.12 80.05 L130.94 80.79 L132.85 80.38 L134.44 80.88 L135.89 81.07 L137.43 79.74 L138.63 78.11 L138.82 77.29 L138.27 76.49 L137.81 76.28 L136.76 76.14 L136.29 75.95 L135.85 75.50 L135.45 74.62 L134.93 74.25 L134.83 74.13 L134.79 74.01 L134.83 73.88 L134.93 73.76 L136.52 72.74 L135.66 71.06 L135.87 70.51 L137.11 69.84 L138.17 69.61 L138.63 69.42 L139.01 68.97 L139.17 68.38 L139.06 67.29 L139.25 66.67 L140.15 65.74 L143.65 64.09 L143.68 64.05 L144.03 63.59 L144.26 63.03 L144.53 62.55 L145.05 62.28 L145.63 62.09 L146.19 61.73 L146.63 61.24 L147.35 59.51 L148.76 57.47 L149.06 56.40 L148.99 55.78 L148.35 54.07 L148.34 53.38 L148.47 52.77 L148.37 52.29 L147.73 51.98 L147.26 51.33 L147.64 50.14 L148.48 48.98 L149.40 48.39 L151.75 48.19 L152.71 48.36 L152.75 48.96 L153.98 49.77 L154.35 49.88 L154.87 49.74 L155.10 49.45 L155.27 49.11 L155.60 48.80 L156.38 48.40 L156.76 48.34 L156.92 48.65 L157.21 53.28 L157.14 54.01 L157.23 54.28 L157.58 54.52 L158.65 54.93 L159.08 55.18 L160.04 56.92 L160.65 57.50 L161.68 57.99 L162.80 58.27 L168.34 58.32 L169.24 58.06 L169.98 57.35 L170.00 56.97 L169.93 56.42 L170.02 55.87 L170.55 55.46 L171.07 55.47 L172.24 55.96 L172.86 56.06 L173.87 55.83 L177.08 54.69 L179.19 54.44 L180.12 54.48 L181.12 54.66 L182.33 55.21 L182.65 56.00 L182.67 56.95 L182.98 58.01 L183.69 58.68 L185.59 59.85 L186.08 60.67 L186.12 61.76 L187.72 61.78 L189.76 61.25 L191.11 60.66 L191.74 59.73 L191.12 58.87 L189.13 57.47 L188.69 56.93 L188.49 56.52 L188.52 56.08 L188.77 55.43 L189.13 54.96 L190.15 54.33 L190.50 54.00 L190.86 52.95 L190.51 52.41 L189.67 52.18 L187.51 51.89 L186.09 51.51 L185.34 50.86 L186.19 49.86 L185.77 49.66 L185.54 49.39 L185.42 49.04 L185.36 48.59 L185.57 48.08 L185.58 47.02 L185.64 46.67 L186.06 46.24 L187.10 45.52 L187.50 45.15 L188.10 43.58 L188.31 43.22 L188.77 43.04 L193.34 42.14 L194.58 42.13 L195.35 42.56 L195.45 43.11 L195.18 44.10 L195.40 44.63 L197.39 45.10 L197.77 45.33 L198.02 45.57 L198.33 45.79 L198.87 45.97 L199.49 46.04 L201.17 45.93 L204.63 46.56 L205.50 46.44 L205.88 46.01 L206.18 45.67 L206.56 44.47 L206.60 43.23 L206.23 42.29 L205.23 41.71 L203.17 41.56 L202.30 40.86 L201.89 39.94 L202.12 39.48 L202.64 39.13 L203.11 38.56 L203.21 37.88 L203.17 37.33 L203.36 36.89 L204.18 36.53 L204.77 35.92 L204.65 35.25 L204.30 34.55 L204.21 33.83 L205.27 32.96 L205.55 32.65 L205.72 32.22 L205.98 30.66 L207.55 31.53 L209.55 31.69 L214.46 30.76 L215.31 30.69 L216.06 30.83 L219.75 32.35 L220.22 32.83 L219.98 33.17 L218.91 33.77 L218.69 34.01 L218.98 34.43 L219.50 34.44 L220.51 34.22 L221.07 34.35 L222.46 34.89 L222.93 34.90 L223.85 34.72 L224.35 34.73 L224.78 34.88 L225.60 35.37 L226.10 35.51 L226.58 35.48 L228.19 35.11 L229.02 35.03 L230.70 35.14 L231.52 35.33 L232.21 35.27 L232.88 34.78 L233.96 33.50 L234.16 33.38 L234.70 33.21 L234.91 33.05 L234.99 32.81 L234.94 32.31 L234.98 32.12 L235.89 30.64 L236.40 28.94 L236.79 28.34 L239.92 26.22 L240.78 25.86 L244.13 25.12 L247.51 24.73 L249.23 24.99 L250.73 25.49 L252.21 25.54 L253.85 24.45 L253.86 24.45 L254.23 24.07 L254.66 23.85 L255.14 23.77 L255.99 23.91 L256.31 24.04 L256.58 24.22 L256.84 24.45 L257.24 24.62 L257.68 24.68 L258.14 24.62 L258.59 24.45 L258.60 24.45 L258.61 24.45 L258.61 24.45 L260.01 24.17 L261.16 24.09 L263.65 24.44 L263.67 24.44 L263.73 24.45 L264.10 24.48 L264.46 24.44 L265.38 24.51 L266.94 25.30 L267.84 25.53 L268.40 25.45 L269.35 24.92 L269.89 24.68 L272.08 24.44 L273.74 23.54 L275.80 22.78 L277.93 22.27 L281.37 22.16 L286.26 20.42 L287.08 20.31 L289.37 20.00 L290.51 20.27 L290.50 20.88 L290.48 21.54 L289.45 22.49 L286.53 23.61 L286.02 24.45 L286.34 24.93 L286.55 25.48 L286.84 26.60 L287.16 27.14 L287.49 27.59 L287.48 28.03 L286.78 28.52 L287.29 28.66 L288.42 28.80 L288.96 28.98 L289.51 29.37 L289.78 29.67 L290.07 29.91 L290.73 30.07 L292.76 30.12 L293.52 30.48 L293.97 31.54 L293.98 32.13 L293.85 32.48 L293.67 32.82 L293.54 33.38 L293.53 34.00 L293.64 34.33 L293.92 34.52 L294.38 34.74 L295.39 35.01 L296.39 35.10 L297.20 35.46 L297.62 36.51 L298.54 38.06 L300.21 39.08 L302.17 39.63 L303.33 39.77 L304.79 39.95 L306.28 40.65 L307.08 40.91 L307.79 40.96 L310.60 40.70 L312.98 40.87 L313.07 40.90 L313.45 41.02 L314.33 41.47 L314.77 41.61 L315.23 41.60 L316.00 41.39 L316.38 41.36 L316.80 41.45 L318.01 41.73 L320.75 42.97 L332.06 43.53 L336.01 44.16 L339.08 45.46 L340.10 45.74 L342.05 45.81 L346.97 45.08 L349.08 45.34 L352.03 45.19 L352.36 45.28 L353.04 45.82 L353.41 46.00 L355.46 46.05 L361.31 47.36 L362.04 47.41 L362.79 47.31 L362.80 47.69 L362.71 48.03 L362.53 48.33 L362.26 48.58 L362.19 49.82 L362.06 50.00 L361.66 50.58 L360.76 50.91 L359.56 50.88 L357.93 51.03 L356.74 51.80 L355.71 52.80 L354.54 53.65 L352.30 54.48 L351.14 55.07 L350.54 55.27 L349.90 55.32 L349.38 55.75 L348.73 56.78 L348.05 57.60 L347.84 57.84 L346.58 58.39 L346.95 58.87 L347.22 59.45 L347.52 60.66 L347.52 60.66 L347.53 60.67 L348.17 61.28 L348.34 61.94 L348.75 62.36 L350.06 62.22 L349.36 61.37 L350.11 61.55 L351.56 61.62 L352.23 61.88 L353.58 62.07 L354.49 62.52 L355.94 63.52 L357.17 63.65 L358.59 63.54 L359.24 63.63 L359.72 63.70 L359.90 64.13 L360.09 64.60 L358.71 66.37 L354.18 68.77 L353.33 69.22 L352.23 70.24 L352.62 70.53 L352.74 70.84 L352.60 71.17 L352.23 71.52 L351.98 71.63 L351.24 72.10 L351.87 72.61 L352.10 72.74 L352.14 72.78 L352.18 72.83 L352.21 72.87 L352.23 72.93 L353.54 73.98 L354.99 73.90 L356.55 73.38 L357.95 73.15 L358.20 73.11 L359.02 74.03 L358.66 75.02 L358.31 75.95 L357.88 76.64 L356.43 78.95 L356.27 80.60 L356.67 81.15 L357.01 81.62 L358.36 82.13 L360.02 82.28 L360.83 82.45 L362.74 83.49 L363.20 83.74 L366.55 84.80 L370.40 89.34 L370.92 89.74 L371.64 90.03 L372.07 90.05 L372.10 90.09 L372.15 90.19 L371.78 90.82 L370.86 91.62 L369.88 92.47 L367.60 92.63 L365.69 91.91 L363.31 92.05 L363.65 91.69 L364.20 91.09 L365.50 91.06 L366.94 91.19 L367.97 91.03 L367.36 90.90 L366.92 90.55 L366.47 90.01 L364.64 89.35 L365.53 89.07 L365.34 88.23 L364.63 87.30 L364.01 86.71 L360.20 83.90 L359.31 83.39 L356.67 82.57 L355.56 82.43 L354.75 82.93 L354.26 83.99 L354.46 84.94 L355.74 85.10 L353.98 85.70 L353.73 85.89 L353.47 86.20 L352.13 86.38 L351.60 86.56 L350.75 87.20 L349.61 87.81 L348.34 88.08 L347.13 87.71 L347.82 87.58 L348.70 87.32 L349.46 86.97 L349.77 86.56 L349.35 85.73 L347.37 85.44 L346.78 84.74 L345.93 84.95 L341.25 84.19 L340.81 84.05 L339.65 83.22 L339.35 83.09 L338.84 83.14 L337.12 83.58 L336.56 84.26 L336.17 84.41 L335.69 84.25 L335.28 83.57 L334.70 83.42 L334.29 83.63 L334.16 84.08 L334.34 84.54 L334.88 84.74 L334.88 85.10 L333.80 85.15 L332.83 85.56 L332.30 86.23 L332.57 87.05 L333.36 87.42 L334.33 87.31 L336.17 86.71 L335.61 87.41 L333.92 88.39 L333.56 89.20 L333.56 89.21 L333.04 89.70 L331.87 89.95 L328.06 90.04 L326.23 90.35 L318.35 93.97 L310.19 96.74 L305.41 97.98 L304.60 98.47 L304.21 98.64 L302.45 98.95 L301.11 99.55 L300.46 99.63 L300.85 98.91 L301.38 98.29 L301.69 97.77 L301.46 97.33 L301.93 97.38 L302.25 97.31 L302.43 97.09 L302.45 96.64 L302.78 96.64 L303.00 97.05 L303.20 97.25 L303.44 97.23 L303.77 97.00 L303.11 96.34 L303.65 96.38 L304.17 96.36 L304.67 96.23 L304.76 96.34 L304.79 96.27 L304.95 96.42 L305.09 96.60 L305.11 96.64 L304.95 96.66 L304.45 96.64 L304.45 97.00 L305.53 96.90 L305.79 96.31 L305.83 95.64 L306.27 95.32 L307.12 95.25 L307.81 95.03 L308.35 94.62 L308.74 94.00 L308.16 94.17 L306.93 94.79 L306.60 94.82 L305.68 94.14 L305.30 93.70 L305.11 93.01 L304.08 93.41 L302.79 94.22 L301.99 95.09 L302.45 95.68 L302.45 95.98 L301.65 95.96 L300.82 95.42 L300.46 95.68 L300.14 95.68 L299.81 94.66 L299.20 95.44 L299.50 95.88 L301.12 96.34 L301.12 96.64 L300.53 96.88 L299.65 96.96 L299.03 96.81 L299.15 96.34 L297.57 96.32 L295.60 97.09 L293.82 98.31 L292.85 99.63 L292.85 99.93 L293.15 99.93 L292.72 100.38 L292.53 100.84 L292.65 101.26 L293.15 101.61 L292.68 102.08 L292.60 102.43 L292.63 102.78 L292.49 103.26 L292.13 103.42 L291.67 103.44 L291.46 103.61 L291.86 104.25 L291.32 104.91 L291.10 105.43 L290.73 105.77 L289.70 105.90 L289.07 105.70 L288.52 105.43 L288.11 105.56 L287.85 106.59 L288.37 107.03 L288.80 108.04 L289.37 108.24 L289.90 108.01 L290.28 107.44 L290.40 106.78 L290.18 106.23 L291.14 106.51 L291.34 107.02 L291.30 107.72 L291.51 108.57 L290.98 108.72 L290.84 108.97 L291.04 109.26 L291.51 109.56 L291.34 110.26 L291.78 110.84 L292.59 111.19 L293.51 111.21 L293.37 111.03 L293.33 111.01 L293.15 110.91 L293.87 110.52 L294.95 109.76 L295.49 109.56 L295.04 110.30 L295.33 111.01 L295.87 111.70 L296.15 112.38 L296.20 114.00 L296.51 115.82 L296.02 115.70 L295.49 115.49 L295.54 115.17 L295.49 114.70 L295.49 114.50 L295.01 115.56 L294.98 116.42 L295.46 116.91 L296.51 116.84 L296.35 116.66 L296.27 116.51 L296.15 116.18 L297.11 116.77 L297.70 117.47 L298.19 118.18 L298.82 118.82 L298.82 119.15 L298.44 119.20 L298.23 119.28 L298.07 119.39 L297.80 119.51 L298.46 120.17 L299.17 119.42 L299.32 118.83 L299.03 118.24 L298.46 117.53 L299.16 117.98 L300.03 118.29 L300.61 118.63 L300.46 119.15 L301.23 119.73 L301.61 119.95 L302.12 120.17 L303.09 121.09 L304.13 121.84 L304.76 121.49 L304.59 121.48 L304.27 121.51 L304.12 121.49 L304.12 121.13 L304.92 121.11 L305.60 121.30 L306.13 121.66 L306.43 122.15 L306.39 122.59 L305.91 123.11 L306.10 123.44 L305.70 123.90 L305.54 124.16 L305.41 124.45 L305.11 124.45 L304.75 124.49 L304.55 125.02 L304.45 126.58 L304.18 127.35 L303.55 128.15 L302.12 129.37 L302.05 129.15 L301.84 128.67 L301.52 128.14 L301.12 127.72 L301.86 126.61 L302.04 126.01 L301.82 125.48 L301.27 125.29 L300.72 125.54 L300.30 125.95 L300.14 126.27 L299.58 127.06 L299.56 127.52 L300.76 127.89 L300.73 128.25 L300.36 128.61 L299.81 128.74 L299.81 129.07 L300.15 129.13 L300.75 129.32 L301.12 129.37 L300.75 130.20 L299.87 130.66 L298.79 130.73 L297.91 130.16 L297.40 129.62 L296.15 128.74 L295.28 128.29 L294.77 128.27 L293.51 129.07 L293.51 129.37 L294.17 129.37 L292.90 132.71 L292.56 134.63 L292.85 136.71 L293.49 138.27 L293.92 139.03 L294.34 139.35 L294.45 139.89 L294.17 143.31 L294.35 145.44 L295.82 150.29 L296.02 151.55 L296.15 151.91 L296.37 152.20 L297.03 152.85 L297.17 153.08 L297.27 154.10 L297.56 155.08 L298.46 156.89 L299.48 158.24 L300.79 159.55 L302.77 160.96 L303.77 162.26 L305.32 163.46 L307.08 164.48 L308.38 164.86 L311.14 167.54 L312.57 168.59 L314.05 169.45 L314.95 169.82 L317.05 170.33 L317.16 170.35 L319.47 170.59 L320.39 170.99 L322.28 172.11 L325.51 173.06 L325.98 173.60 L326.39 173.94 L341.17 183.33 L346.82 185.87 L347.77 186.16 L348.24 186.59 L350.51 187.16 L351.80 187.73 L352.27 187.52 L352.64 187.17 L352.91 186.98 L353.04 186.93 L353.15 186.83 L353.30 186.73 L353.58 186.68 L353.87 186.78 L354.01 187.00 L354.10 187.21 L354.26 187.31 L355.17 187.67 L355.88 188.47 L356.43 189.26 L356.90 189.62 L357.82 189.78 L358.67 190.22 L359.10 190.86 L358.74 191.63 L365.66 204.55 L366.42 205.52 L366.62 205.86 L366.93 207.60 L367.13 208.01 L367.71 208.68 L369.26 211.14 L369.92 212.86 L370.73 216.93 L372.67 222.04 L374.56 227.03 L376.29 230.31 L377.29 231.85 L380.29 235.40 L380.56 236.14 L380.87 236.66 L387.88 242.87 L390.96 244.90 L394.44 246.60 L395.94 247.57 L397.95 250.04 L404.29 254.68 L406.01 255.51 L408.79 256.35 L410.73 256.63 L411.48 257.10 L411.86 257.85 L412.14 259.84 L412.46 260.79 L413.01 261.49 L413.82 261.77 L414.10 261.81 L414.91 261.94 L415.86 262.37 L417.58 263.45 L419.30 264.04 L423.21 264.56 L425.22 265.06 L425.88 265.51 L427.19 266.81 L427.71 267.08 L428.58 267.30 L430.57 268.39 L431.48 268.75 L432.46 268.90 L433.51 269.07 L439.13 269.05 L444.87 270.03 L447.07 270.07 L455.05 269.05 L462.93 269.38 L475.13 268.28 L479.17 269.05 L479.23 269.14 L480.60 269.45 L481.59 270.76 L482.47 270.73 L482.32 271.50 L482.69 272.41 L483.10 274.21 L483.14 274.83 L483.13 275.68 L482.72 276.22 L481.87 277.00 L480.86 277.71 L479.98 278.01 L479.00 278.25 L478.15 278.81 L476.87 279.99 L475.15 281.04 L470.21 282.96 L468.99 284.19 L468.57 286.01 L468.81 287.96 L469.56 289.59 L470.61 290.72 L471.94 291.68 L474.86 293.21 L477.93 293.94 L478.67 294.38 L479.33 294.90 L488.38 298.04 L496.05 301.19 L498.96 301.79 L499.83 302.31 L500.59 302.89 L502.50 303.88 L513.93 306.81 L514.94 307.45 L515.26 307.45 L515.26 307.09 L515.56 307.09 L516.57 307.88 L524.87 309.92 L531.92 312.86 L535.46 314.83 L537.09 316.05 L538.91 318.12 L539.55 318.39 L540.35 318.59 L542.08 319.61 L545.10 322.07 L545.87 322.35 L546.85 322.55 L548.59 323.44 L552.75 324.25 L553.27 324.51 L558.25 326.06 L562.87 328.64 L566.63 329.18 L568.27 329.78 L568.23 330.92 L568.78 330.93 L570.02 330.62 L570.74 330.74 L570.94 331.05 L570.96 331.49 L571.17 331.97 L572.30 332.79 L572.49 333.09 L572.21 335.27 L576.20 337.80 L580.63 339.72 L581.58 339.88 L581.91 340.06 L582.90 341.37 L583.45 341.82 L585.05 342.85 L586.30 344.46 L587.01 345.18 L587.86 345.49 L588.29 345.81 L591.52 349.23 L594.55 354.80 L594.76 355.09 L595.01 355.31 L595.33 355.44 L595.09 356.00 L595.21 356.34 L595.39 356.65 L595.33 357.12 L594.94 357.60 L594.16 358.08 L593.76 359.50 L593.12 360.07 L591.37 361.08 L590.27 363.19 L590.10 363.69 L589.92 364.70 L589.47 365.76 L589.36 366.22 L589.71 367.46 L589.73 368.03 L589.07 370.60 L589.20 371.00 L588.95 371.15 L588.45 371.83 L588.19 371.99 L587.14 371.92 L586.75 371.82 L586.36 371.66 L584.03 370.22 L583.23 370.01 L581.24 370.01 L580.61 369.92 L579.41 369.32 L578.22 368.90 L576.71 367.79 L574.96 366.86 L574.31 366.68 L573.86 366.44 L570.76 362.84 L570.18 362.39 L570.18 362.03 L570.94 362.00 L571.38 361.67 L571.47 361.12 L571.17 360.42 L570.65 360.00 L569.36 359.67 L568.83 359.40 L570.55 358.57 L570.94 357.53 L570.27 356.35 L568.83 355.11 L567.54 354.29 L566.83 353.65 L566.52 352.95 L566.50 352.02 L566.40 351.21 L566.11 350.56 L565.56 350.13 L566.19 350.13 L566.19 349.83 L563.79 348.37 L563.05 348.16 L546.84 347.50 L545.96 347.32 L543.38 346.18 L542.90 346.15 L541.89 346.23 L541.40 346.18 L541.05 345.98 L540.21 345.33 L539.89 345.19 L539.07 345.03 L536.43 343.84 L533.70 343.07 L532.39 342.55 L531.78 341.86 L532.90 341.47 L533.85 340.85 L534.08 340.08 L533.10 339.25 L534.06 338.97 L536.39 339.31 L537.38 338.89 L537.72 338.09 L536.79 338.04 L534.75 338.56 L534.84 338.45 L535.08 338.20 L534.06 337.88 L533.17 338.17 L532.29 338.64 L531.28 338.89 L530.89 338.73 L530.63 338.35 L530.40 337.91 L530.14 337.57 L529.65 337.42 L528.56 337.41 L528.13 337.28 L524.51 337.09 L520.96 338.37 L517.87 340.66 L515.51 343.28 L511.62 347.60 L510.59 349.14 L509.44 351.97 L509.11 352.47 L508.40 352.81 L506.63 355.11 L504.73 356.43 L503.98 356.95 L503.02 358.08 L502.65 359.90 L502.76 360.52 L503.45 362.33 L504.32 363.80 L503.85 364.41 L503.06 364.92 L502.27 366.04 L500.01 367.70 L498.36 370.01 L497.57 371.56 L497.47 373.02 L498.07 374.38 L499.35 375.61 L499.35 375.94 L498.72 377.15 L500.18 378.54 L502.38 379.70 L503.99 380.26 L510.03 380.51 L511.61 380.92 L512.36 381.31 L513.23 381.91 L513.95 382.63 L514.25 383.39 L514.68 383.77 L517.57 384.87 L519.84 386.35 L520.71 386.55 L521.89 386.66 L522.67 386.98 L523.24 387.50 L523.84 388.20 L524.87 389.13 L526.39 390.05 L528.11 390.70 L529.78 390.84 L528.02 394.12 L527.66 396.80 L527.64 397.45 L527.80 398.09 L528.14 398.64 L528.97 399.72 L529.15 400.28 L528.89 401.82 L528.02 404.61 L528.13 406.07 L529.26 407.84 L529.45 408.24 L529.76 408.50 L531.41 408.96 L532.08 409.03 L531.14 409.54 L530.64 409.87 L530.44 410.21 L530.40 412.10 L530.44 412.36 L528.82 413.51 L528.63 413.71 L528.28 413.90 L527.85 414.34 L527.13 415.33 L526.70 414.36 L525.52 414.18 L524.15 414.50 L523.17 415.00 L521.94 413.86 L521.21 413.49 L520.05 413.35 L518.98 413.42 L514.31 414.41 L508.97 416.31 L507.03 417.42 L506.63 417.82 L506.21 418.15 L503.31 419.32 L502.10 420.22 L501.56 420.84 L501.04 422.20 L500.43 422.94 L499.84 423.82 L499.65 424.95 L500.23 425.27 L500.34 425.43 L500.31 426.29 L500.81 429.97 L501.68 433.22 L501.69 434.46 L501.33 438.01 L500.93 438.64 L499.03 440.05 L498.36 440.81 L497.85 440.92 L496.37 441.91 L494.83 442.33 L490.23 444.22 L488.61 445.37 L482.00 451.83 L481.15 453.40 L479.88 458.52 L479.17 460.02 L478.71 460.66 L478.17 461.20 L477.55 461.65 L476.87 462.00 L474.59 462.38 L473.87 462.66 L471.03 461.98 L462.30 462.36 L461.02 462.08 L459.73 461.60 L458.58 460.99 L457.68 460.35 L456.70 459.31 L456.20 458.31 L456.35 457.41 L457.33 456.69 L456.08 455.17 L455.66 454.30 L455.83 453.56 L456.51 452.67 L456.81 451.84 L456.75 450.92 L456.33 449.77 L456.09 448.11 L456.94 447.11 L458.57 446.53 L463.51 445.32 L463.95 444.96 L464.10 444.71 L464.78 444.23 L464.94 443.97 L465.60 441.80 L469.22 435.86 L469.85 433.79 L469.76 432.17 L468.99 430.82 L467.58 429.57 L467.23 429.38 L466.57 429.13 L466.29 428.91 L465.87 428.41 L465.79 428.14 L465.86 427.88 L465.93 427.41 L466.31 426.86 L467.21 426.48 L469.22 425.94 L472.28 424.34 L473.95 423.72 L476.18 423.61 L479.66 423.93 L480.39 423.79 L481.19 423.45 L482.47 422.61 L483.52 421.25 L484.21 419.43 L484.53 417.38 L484.45 415.33 L484.19 414.37 L483.70 413.64 L482.98 413.18 L481.98 413.02 L481.27 412.63 L480.56 411.72 L477.83 406.82 L475.85 395.46 L475.46 393.78 L473.60 389.27 L471.79 387.39 L470.59 385.65 L469.22 384.57 L467.84 383.82 L467.42 383.22 L467.04 382.02 L466.59 380.77 L465.93 378.94 L464.92 377.67 L464.47 376.87 L463.62 371.99 L463.62 372.29 L463.39 371.34 L463.14 370.85 L462.78 370.64 L462.70 370.37 L463.29 368.51 L462.93 367.42 L461.34 365.56 L460.98 364.88 L460.69 363.89 L459.97 363.08 L458.31 361.74 L456.99 360.06 L455.97 359.38 L455.69 359.03 L455.67 358.41 L454.99 358.63 L451.36 358.41 L450.31 358.90 L449.45 359.91 L447.73 360.75 L446.27 362.17 L445.33 362.45 L442.96 362.22 L442.10 361.96 L440.70 360.53 L440.15 360.42 L439.69 360.60 L439.20 360.72 L438.67 360.78 L438.14 360.75 L438.14 360.42 L439.01 359.86 L438.25 358.60 L436.82 357.33 L435.65 356.76 L434.70 356.41 L431.67 353.97 L430.97 353.72 L430.16 353.81 L428.70 354.12 L427.81 354.01 L427.21 353.70 L426.63 352.72 L425.68 352.01 L424.36 351.57 L423.90 351.32 L423.45 350.98 L422.54 351.16 L421.77 350.67 L421.24 350.49 L421.03 349.67 L422.24 348.37 L422.59 347.33 L422.26 346.50 L422.26 346.05 L422.73 345.85 L423.30 345.75 L423.81 345.50 L424.22 345.16 L425.26 344.85 L425.55 344.35 L425.44 342.96 L424.36 341.33 L420.16 334.49 L418.84 332.84 L417.58 331.61 L416.34 330.63 L415.00 329.81 L413.56 329.48 L412.00 329.96 L410.58 330.82 L409.98 330.94 L407.45 330.82 L406.85 330.97 L404.82 332.33 L403.51 332.53 L402.17 332.23 L400.73 331.61 L400.00 332.00 L397.62 332.44 L396.63 333.09 L394.42 333.98 L393.78 334.61 L393.16 333.94 L393.07 332.93 L393.54 332.01 L394.60 331.61 L395.57 331.55 L395.94 331.40 L396.46 331.07 L396.78 330.48 L398.69 329.04 L400.24 328.60 L400.40 327.80 L400.13 326.93 L399.48 326.22 L398.61 325.70 L397.58 325.90 L396.81 325.61 L396.28 325.39 L395.71 324.87 L394.94 324.49 L394.08 323.68 L392.32 322.17 L391.44 321.66 L390.55 321.60 L389.23 321.71 L388.03 322.01 L387.51 322.53 L387.06 323.47 L386.03 323.49 L385.23 322.77 L383.76 322.63 L382.62 322.10 L381.87 321.90 L381.22 322.02 L380.91 322.46 L380.97 323.03 L381.16 323.67 L381.22 324.33 L380.87 324.19 L379.54 324.03 L379.22 323.70 L379.76 321.71 L379.38 319.95 L378.26 317.65 L375.56 314.04 L373.86 313.19 L373.27 312.73 L373.11 312.27 L373.02 311.24 L372.92 310.75 L371.65 308.81 L370.07 306.76 L367.12 303.93 L363.80 301.68 L363.16 301.49 L361.72 301.77 L360.98 301.77 L360.65 301.33 L357.65 301.65 L356.16 302.38 L356.73 303.82 L355.21 303.89 L354.75 303.82 L354.31 303.47 L354.03 303.00 L353.78 302.78 L353.43 303.16 L353.07 303.16 L352.13 302.32 L344.61 299.63 L342.74 299.59 L338.83 300.17 L337.97 300.44 L336.24 301.31 L334.47 301.76 L333.31 302.93 L332.24 303.16 L331.10 302.88 L330.72 302.26 L330.56 301.46 L330.09 300.66 L329.52 300.03 L328.59 298.63 L327.95 297.89 L325.26 295.53 L323.80 294.59 L322.28 293.90 L321.29 293.67 L317.49 293.52 L316.80 293.41 L313.42 291.76 L312.23 291.38 L311.67 291.74 L311.33 292.26 L310.56 291.70 L307.00 287.59 L302.28 283.41 L297.20 279.96 L296.45 279.52 L295.17 279.22 L294.41 278.75 L294.01 278.64 L292.57 278.44 L292.19 278.31 L291.44 277.62 L291.04 276.78 L290.88 275.84 L290.85 274.85 L290.61 273.92 L290.05 272.95 L288.87 271.39 L287.77 270.24 L283.06 267.50 L282.52 267.26 L282.09 266.89 L281.91 266.26 L281.63 265.91 L280.26 265.76 L279.79 265.59 L279.15 265.03 L278.36 264.50 L277.49 264.06 L276.63 263.75 L272.91 263.82 L272.32 263.93 L272.06 263.32 L271.44 262.37 L270.68 261.50 L270.01 261.11 L269.64 260.45 L268.58 259.40 L268.36 258.98 L268.23 258.22 L267.91 257.42 L265.30 253.40 L264.14 252.09 L258.39 248.73 L255.98 248.22 L252.67 246.91 L251.49 246.60 L251.49 246.24 L251.04 246.05 L250.54 245.93 L250.02 245.88 L249.48 245.91 L249.84 246.24 L248.44 246.23 L244.87 245.25 L244.22 245.18 L243.34 245.19 L242.56 245.35 L242.22 245.73 L242.06 246.48 L241.35 247.26 L241.23 247.89 L240.79 247.74 L240.31 247.74 L239.96 247.82 L239.89 247.89 L239.49 247.64 L238.85 247.03 L237.50 246.68 L236.92 246.13 L236.55 245.37 L236.55 244.84 L237.14 244.19 L237.81 244.02 L239.20 244.39 L240.29 244.34 L241.03 243.53 L241.46 242.39 L241.48 241.20 L241.38 240.43 L240.37 239.20 L240.01 238.34 L239.53 238.38 L238.98 238.59 L238.57 238.63 L237.96 237.96 L237.54 237.05 L237.06 236.27 L236.26 235.99 L236.11 235.05 L234.94 234.33 L232.63 233.32 L232.37 232.75 L232.14 231.97 L231.87 231.28 L231.45 230.99 L231.02 230.81 L229.63 229.70 L227.09 228.69 L219.38 226.73 L220.54 226.02 L221.00 225.24 L221.07 224.33 L221.04 223.22 L221.19 222.89 L221.47 222.68 L221.62 222.37 L221.39 221.72 L220.94 221.23 L220.32 220.89 L216.97 219.75 L214.61 219.29 L212.23 219.23 L210.10 219.74 L210.31 220.24 L210.46 220.44 L209.11 220.89 L208.19 220.16 L207.13 217.77 L208.34 217.02 L209.04 216.13 L210.10 213.45 L209.93 212.87 L209.93 211.85 L210.11 210.81 L210.46 210.18 L210.06 209.35 L209.87 208.34 L209.80 206.36 L209.57 205.37 L209.03 204.40 L205.17 198.52 L202.09 195.40 L201.41 194.82 L199.82 194.26 L199.38 193.50 L198.30 189.83 L196.81 178.20 L196.22 176.40 L194.21 172.85 L192.79 171.15 L190.65 170.02 L189.17 168.18 L188.44 167.77 L187.54 167.57 L185.77 166.68 L184.78 166.48 L183.99 166.19 L183.51 166.11 L183.30 166.31 L183.13 166.58 L182.74 166.79 L182.26 166.84 L181.82 166.64 L181.06 166.08 L179.44 165.13 L178.65 164.50 L178.11 164.75 L176.57 163.75 L175.68 163.81 L176.01 164.17 L175.79 164.25 L175.56 164.40 L175.35 164.50 L175.59 164.89 L175.88 165.19 L176.25 165.38 L176.70 165.49 L176.70 165.79 L176.42 165.93 L176.28 166.08 L176.01 166.48 L176.64 166.76 L176.46 167.01 L175.96 166.95 L175.68 166.31 L175.36 165.93 L173.04 165.16 L170.58 163.51 L170.05 163.31 L168.74 162.40 L168.25 162.19 L166.83 162.12 L166.24 162.01 L165.77 161.83 L164.08 160.41 L163.78 160.35 L163.44 159.74 L162.64 159.33 L160.46 158.60 L159.87 158.28 L159.42 157.84 L159.16 157.22 L158.59 157.41 L157.69 157.51 L156.86 157.43 L156.50 157.05 L156.17 156.59 L153.86 155.87 L153.53 154.77 L148.46 152.75 L146.91 151.91 L146.45 152.38 L146.09 152.89 L145.90 153.50 L145.95 154.25 L143.74 153.62 L142.85 153.13 L142.95 152.57 L142.05 151.45 L140.70 150.93 L135.83 150.29 L133.50 149.69 L132.08 149.12 L131.64 149.25 L129.42 149.21 L128.30 149.03 L127.93 148.85 L127.42 148.30 L124.30 148.13 L123.08 148.29 L122.48 148.52 L121.08 149.35 L120.57 149.77 L120.25 149.93 L119.88 149.93 L119.48 149.89 L119.12 149.93 L116.15 151.48 L115.33 151.58 L114.75 151.74 L113.57 152.57 L109.99 154.30 L108.94 155.28 L109.20 156.23 L108.70 156.77 L108.56 157.04 L108.50 157.38 L108.36 157.50 L107.63 157.85 L107.37 158.03 L107.11 158.61 L107.21 159.14 L107.19 159.65 L106.53 160.19 L105.32 160.61 L102.62 161.24 L101.23 161.83 L100.49 162.29 L99.87 162.79 L98.74 163.99 L98.58 164.34 L98.64 165.11 L98.58 165.49 L98.29 166.23 L97.92 166.81 L95.65 168.67 L94.85 169.80 L95.59 170.80 L95.59 171.09 L94.47 171.28 L93.04 172.49 L91.79 172.86 L91.42 173.09 L91.12 173.36 L91.00 173.60 L90.75 173.98 L90.17 174.21 L89.00 174.43 L85.53 176.10 L77.13 177.59 L74.76 178.74 L72.75 179.08 L66.81 179.07 L65.46 179.40 L64.83 179.40 L64.45 179.18 L63.95 179.03 L63.44 179.03 L62.50 176.71 L62.26 175.49 L63.02 174.49 L65.11 172.82 L66.08 171.69 L68.58 170.17 L69.65 169.30 L70.03 168.75 L70.43 167.67 L70.74 167.08 L71.27 166.65 L71.97 166.26 L72.50 165.74 L72.60 164.91 L72.41 164.61 L71.84 163.73 L70.77 162.96 L70.18 162.06 L70.85 160.49 L69.36 160.30 L67.37 161.23 L65.98 161.31 L57.58 163.06 L55.63 163.02 L55.17 162.94 L54.72 162.62 L54.46 162.22 L54.12 161.87 L53.49 161.69 L52.23 161.54 L51.32 161.26 L46.19 158.99 L44.25 158.48 L41.41 157.39 L40.80 157.26 L40.15 157.30 L39.57 157.44 L39.00 157.51 L38.36 157.32 L37.90 156.95 L37.68 156.53 L37.52 156.07 L37.22 155.60 L36.77 155.22 L35.81 154.73 L35.38 154.40 L35.11 154.04 L34.54 153.06 L34.16 152.58 L33.10 151.69 L32.90 151.47 L32.72 151.02 L32.73 150.78 L32.85 150.49 L33.25 148.98 L33.59 148.56 L35.22 147.92 L33.95 147.17 L32.49 146.06 L31.40 144.71 L31.25 143.20 L31.77 142.55 L34.23 141.20 L35.88 139.15 L36.56 138.79 L36.01 137.76 L36.36 136.78 L37.25 136.00 L38.36 135.57 L39.24 135.56 L40.99 135.93 L41.85 135.92 L41.57 135.29 L40.10 133.31 L39.92 132.90 L39.66 131.71 L39.11 130.66 L39.14 130.60 L39.38 129.84 L39.47 129.80 L39.47 129.57 L39.51 129.44 L39.53 129.29 L39.42 129.01 L39.22 128.77 L38.36 128.09 L35.93 127.38 L35.10 127.33 L32.72 127.67 L31.80 127.51 L28.47 126.13 L26.89 125.15 L26.05 124.14 L26.14 121.44 L25.83 120.05 L24.56 119.40 L22.87 119.29 L22.36 118.98 L21.78 118.27 L21.65 117.83 L21.71 117.44 L21.63 117.10 L20.85 116.62 L20.00 115.70 L20.57 115.16 L21.29 114.73 L21.45 114.64 L23.12 113.96 L23.55 113.90 L24.42 113.93 L24.80 113.88 L25.22 113.71 L26.09 113.23 L26.46 113.10 L28.15 113.30 L29.92 113.98 L31.66 114.42 L33.23 113.88 L33.32 113.58 L33.04 113.36 L32.82 113.10 L33.07 112.69 L33.45 112.57 L34.58 112.56 L35.02 112.48 L35.73 112.03 L36.57 110.99 L37.19 110.57 L38.92 110.01 L40.62 109.68 L41.01 109.80 L41.61 110.32 L41.86 110.38 L42.19 110.15 L43.11 108.96 L44.42 108.18 L44.42 107.42 L43.90 106.46 L43.66 105.06 L43.91 104.77 L45.47 103.46 L46.47 102.19 L46.89 101.46 L46.94 100.86 L46.57 100.65 L44.50 100.02 L43.86 99.67 L43.47 99.13 L43.14 98.53 L42.83 98.18 L42.66 98.00 L40.56 96.89 L38.36 96.02 L37.99 95.32 L37.73 93.32 L37.54 92.96 L37.01 92.39 L36.91 92.00 L37.04 91.60 L37.60 90.75 L37.71 90.48 L37.42 89.76 L36.82 89.47 L35.26 89.19 L34.61 88.84 L33.51 88.08 L32.87 87.91 L31.61 87.73 L30.30 87.05 L29.33 86.02 L28.79 84.02 L28.66 83.15 L28.69 82.29 L28.95 81.50 L29.57 80.79 L30.31 80.48 L31.62 80.20 L32.04 80.32 L32.35 80.45 L32.64 80.77 L32.94 80.70 L32.99 80.48 L33.04 80.15 L33.07 79.90 L33.41 79.87 L34.60 79.88 L35.63 79.66 L36.72 79.27 L37.70 78.70 L38.36 77.92 L38.66 77.27 L39.05 76.69 L39.56 76.25 L40.25 76.02 Z" fill="#1E417C"/>
  <path d="M301.39 174.21 L302.89 174.05 L303.75 173.00 L303.71 172.85 L303.73 172.70 L303.81 172.58 L303.93 172.47 L303.98 172.41 L304.33 171.93 L304.43 171.10 L304.27 170.29 L303.93 169.84 L302.54 170.00 L301.00 170.58 L300.50 170.94 L299.76 171.48 L299.27 172.64 L299.95 173.67 L301.39 174.21 Z" fill="#1E417C"/>
  <path d="M302.53 270.27 L302.58 270.27 L302.57 270.22 L302.53 270.22 L302.51 270.24 L302.51 270.26 L302.53 270.27 Z" fill="#1E417C"/>
  <path d="M280.63 514.97 L282.46 516.38 L283.14 517.17 L283.23 518.26 L282.13 519.53 L280.46 519.36 L278.77 518.38 L277.62 517.24 L277.41 516.91 L277.03 516.12 L276.89 515.33 L277.48 514.97 L277.69 514.91 L278.05 514.69 L278.30 514.64 L278.61 514.74 L279.07 515.19 L279.27 515.30 L279.71 515.39 L280.04 515.53 L280.31 515.47 L280.63 514.97 Z" fill="#1E417C"/>
  <path d="M293.84 461.67 L294.51 461.72 L294.99 461.58 L295.40 461.41 L295.82 461.34 L296.16 461.62 L296.91 461.98 L297.78 462.27 L298.46 462.36 L297.92 462.90 L297.17 462.94 L296.40 462.69 L295.82 462.36 L295.12 462.65 L294.55 462.54 L294.11 462.17 L293.84 461.67 Z" fill="#1E417C"/>
  <path d="M451.06 444.13 L452.53 444.26 L455.27 445.22 L456.99 445.45 L456.83 445.87 L456.55 446.08 L456.17 446.15 L455.67 446.11 L453.72 447.14 L453.04 447.79 L452.72 448.40 L452.57 449.10 L453.34 449.08 L450.98 452.14 L449.69 454.65 L444.49 459.90 L440.15 465.30 L439.22 466.82 L438.39 467.83 L437.18 468.62 L435.82 470.27 L435.50 470.93 L435.58 471.45 L436.08 472.36 L436.16 472.91 L435.96 473.40 L435.29 473.94 L435.14 474.41 L435.03 475.41 L434.44 476.82 L434.15 477.86 L433.44 479.63 L431.12 481.82 L430.20 483.16 L429.95 483.98 L429.85 484.85 L429.97 489.63 L430.20 490.44 L430.53 491.12 L430.87 491.50 L434.22 493.00 L436.03 493.28 L436.96 493.77 L437.69 494.60 L438.14 495.75 L437.35 495.15 L436.90 495.36 L436.58 495.92 L436.16 496.41 L436.23 495.57 L435.95 495.22 L435.45 495.22 L434.84 495.45 L435.14 496.05 L434.39 497.02 L434.93 498.53 L435.98 499.55 L436.79 499.08 L437.48 499.38 L437.48 499.71 L436.59 499.81 L436.72 500.53 L437.44 501.33 L438.31 501.72 L439.47 501.81 L440.17 502.15 L440.39 502.86 L440.15 504.02 L439.43 503.71 L439.14 504.10 L439.23 504.70 L439.62 505.01 L440.61 504.92 L441.03 505.10 L441.44 505.70 L441.58 506.48 L441.21 506.63 L440.70 506.44 L440.45 506.18 L440.18 506.26 L438.47 507.02 L438.80 507.35 L438.38 507.55 L438.27 507.66 L438.47 507.98 L438.47 508.34 L437.33 508.39 L436.48 508.74 L435.75 509.14 L434.99 509.33 L433.96 509.74 L433.17 510.70 L430.73 515.73 L430.68 516.29 L430.07 516.72 L430.30 517.69 L431.19 519.25 L432.04 522.12 L432.01 522.73 L431.06 523.47 L430.06 523.71 L429.08 523.50 L428.19 522.91 L427.49 522.12 L427.12 521.82 L426.54 521.56 L425.87 521.39 L425.42 521.42 L425.22 521.72 L424.68 522.07 L423.46 521.63 L421.60 520.57 L419.84 520.05 L418.13 520.26 L414.94 521.56 L414.72 521.16 L414.59 521.05 L413.98 521.23 L413.18 520.60 L410.29 520.27 L409.67 519.42 L409.06 518.93 L406.21 518.05 L405.35 517.60 L404.56 517.75 L400.77 517.02 L400.21 516.46 L396.29 509.70 L395.10 508.34 L390.70 504.92 L387.30 503.12 L383.33 501.62 L381.51 501.36 L376.09 501.72 L375.65 501.82 L374.75 502.27 L374.26 502.41 L372.13 502.17 L369.15 500.30 L367.31 499.71 L365.24 499.36 L363.51 498.77 L361.95 497.90 L357.86 494.64 L356.43 493.83 L354.75 493.41 L352.54 493.11 L350.80 492.61 L349.30 491.86 L346.92 490.33 L344.86 489.35 L343.97 488.65 L343.53 488.41 L342.91 488.25 L342.37 488.03 L341.17 486.19 L340.89 485.99 L339.82 485.50 L339.28 484.92 L338.89 484.64 L338.34 484.51 L338.08 484.36 L337.60 483.68 L337.35 483.52 L331.43 482.86 L330.72 483.14 L330.21 483.22 L329.76 483.01 L329.44 482.56 L329.14 481.59 L328.94 481.18 L327.69 480.12 L326.17 479.59 L322.28 479.21 L318.36 479.31 L314.35 479.87 L312.49 479.75 L311.37 478.92 L309.37 476.24 L308.55 475.55 L307.86 475.28 L305.94 475.25 L305.09 474.90 L304.26 474.07 L303.56 473.09 L303.11 472.28 L302.89 471.57 L302.82 470.93 L302.68 470.35 L302.28 469.79 L301.72 469.22 L301.27 468.55 L301.29 467.96 L302.12 467.64 L302.19 467.84 L302.89 467.49 L303.11 467.31 L303.01 467.16 L303.36 465.83 L303.46 465.79 L303.72 464.90 L303.77 464.49 L303.67 464.26 L303.24 463.72 L303.11 463.29 L303.06 462.95 L303.08 462.90 L303.20 462.80 L304.34 460.97 L304.63 459.68 L304.94 458.89 L305.00 458.21 L304.45 457.71 L305.93 457.23 L307.19 456.10 L308.48 455.29 L310.03 455.74 L311.49 454.91 L312.12 454.33 L312.37 453.56 L312.64 453.13 L313.30 453.15 L314.06 453.33 L314.68 453.40 L315.68 452.67 L315.61 451.49 L315.41 450.27 L315.99 449.44 L316.28 450.01 L316.84 449.96 L317.40 450.01 L317.65 450.89 L318.84 453.09 L320.17 454.98 L320.67 455.37 L322.03 455.92 L322.61 456.27 L322.65 456.69 L324.17 457.39 L326.25 457.16 L330.26 455.74 L331.90 454.72 L332.31 454.35 L332.38 454.14 L332.30 453.85 L332.24 453.25 L332.14 452.81 L331.68 452.34 L331.58 451.90 L333.26 450.73 L332.99 450.31 L333.27 449.90 L333.81 449.57 L334.37 449.44 L334.85 449.53 L336.52 450.07 L337.60 450.24 L338.95 450.24 L340.06 449.83 L340.48 448.75 L341.23 448.97 L341.79 448.84 L342.32 448.59 L343.27 448.39 L343.92 448.15 L344.30 448.09 L344.55 448.22 L344.64 448.53 L344.69 448.86 L344.80 449.08 L346.63 450.07 L346.90 450.40 L346.97 451.95 L347.13 452.41 L347.84 453.77 L353.74 453.41 L355.08 454.21 L354.99 455.04 L355.06 455.49 L355.38 456.03 L355.86 456.38 L357.29 456.86 L359.00 458.01 L360.39 458.70 L362.64 459.06 L363.32 459.33 L363.12 459.47 L363.10 459.52 L362.99 459.69 L364.04 459.67 L367.13 460.02 L368.19 459.81 L370.34 458.91 L372.32 458.53 L373.00 458.14 L373.60 457.69 L374.26 457.35 L377.58 456.90 L378.22 456.36 L380.25 457.29 L381.25 457.60 L382.37 457.71 L383.07 457.66 L384.54 457.35 L390.43 458.02 L393.23 457.88 L395.81 457.32 L398.09 456.36 L399.65 456.95 L401.95 456.61 L407.88 454.81 L409.48 453.96 L410.84 452.90 L412.67 451.14 L413.20 450.96 L414.79 451.06 L415.78 451.01 L419.44 450.26 L420.12 449.93 L420.58 449.77 L421.04 449.68 L422.40 449.77 L422.87 449.97 L423.74 450.86 L424.06 451.06 L424.65 451.11 L425.88 451.42 L427.41 451.35 L427.89 451.42 L428.09 451.58 L428.58 452.20 L428.84 452.41 L429.77 452.56 L430.61 452.30 L431.45 451.94 L434.09 451.20 L435.34 449.90 L437.15 447.10 L437.00 446.73 L436.93 446.63 L436.97 446.51 L437.15 446.11 L436.98 445.96 L437.27 445.96 L437.42 446.47 L437.15 447.63 L437.38 448.26 L437.97 448.60 L438.77 448.73 L439.62 448.75 L441.03 448.56 L444.83 447.52 L445.90 446.94 L446.47 446.52 L448.36 445.82 L450.29 444.38 L451.06 444.13 Z" fill="#1E417C"/>
  <path d="M423.90 437.84 L423.90 438.53 L424.68 438.83 L425.22 439.29 L425.61 439.85 L425.88 440.51 L425.46 440.83 L424.89 441.17 L423.77 440.32 L423.03 439.60 L422.89 438.84 L423.54 437.84 L423.90 437.84 Z" fill="#1E417C"/>
  <path d="M421.07 435.86 L420.67 435.49 L420.73 434.67 L421.16 433.86 L421.90 433.52 L423.49 433.54 L423.89 433.82 L423.54 434.51 L423.86 434.72 L424.28 435.08 L424.53 435.20 L424.53 435.50 L423.24 435.50 L423.49 436.07 L423.65 436.29 L423.90 436.49 L423.90 436.85 L423.05 436.97 L422.37 436.60 L421.74 436.11 L421.07 435.86 Z" fill="#1E417C"/>
  <path d="M418.92 432.24 L418.85 432.71 L417.03 432.10 L415.57 431.14 L416.59 430.56 L418.35 430.50 L419.10 430.69 L419.58 431.25 L419.34 431.45 L419.20 431.68 L418.92 432.24 Z" fill="#1E417C"/>
  <path d="M109.49 406.90 L109.60 407.17 L109.84 407.31 L110.17 407.29 L110.49 407.09 L110.53 407.04 L110.62 406.97 L110.85 407.09 L109.89 407.73 L109.66 408.05 L109.86 408.41 L109.40 409.10 L109.04 410.73 L108.58 412.04 L108.36 412.25 L107.85 412.36 L107.27 412.30 L107.09 412.05 L107.04 411.71 L106.86 411.37 L105.10 409.03 L104.35 407.45 L104.55 406.43 L104.55 406.07 L104.19 406.07 L104.19 405.74 L104.88 404.75 L106.11 405.38 L107.65 405.31 L108.95 405.50 L109.49 406.90 Z" fill="#1E417C"/>
  <path d="M102.25 401.12 L102.27 402.69 L102.55 404.65 L102.25 405.41 L101.49 405.68 L100.49 405.62 L99.78 405.28 L99.91 404.75 L99.91 404.45 L98.71 403.50 L98.33 402.87 L98.58 402.11 L99.32 401.72 L101.50 401.36 L102.25 401.12 Z" fill="#1E417C"/>
  <path d="M374.56 328.28 L374.09 328.09 L373.36 328.14 L372.57 328.36 L371.93 328.64 L371.54 328.38 L370.46 327.98 L369.95 327.62 L370.29 326.68 L370.55 326.23 L370.96 326.01 L370.82 325.82 L370.61 325.35 L371.59 325.35 L374.64 326.18 L375.58 326.67 L375.43 326.96 L375.42 327.24 L375.58 327.62 L375.24 327.79 L374.56 328.28 Z" fill="#1E417C"/>
  <path d="M100.75 311.10 L99.61 311.76 L99.60 313.09 L99.38 314.18 L97.60 314.07 L97.99 313.63 L98.18 313.18 L98.25 312.71 L98.25 312.25 L98.53 311.86 L99.14 311.36 L100.07 310.75 L100.79 310.50 L100.90 309.92 L100.79 309.26 L100.90 308.77 L101.21 308.71 L102.07 308.80 L102.25 308.60 L102.35 308.37 L102.61 308.14 L103.23 307.78 L103.22 308.16 L103.32 308.44 L103.53 308.77 L103.99 309.15 L104.13 309.71 L103.96 310.29 L103.53 310.75 L100.75 311.10 Z" fill="#1E417C"/>
  <path d="M174.03 335.27 L175.40 336.26 L175.68 336.59 L175.69 337.07 L175.14 337.90 L174.99 338.39 L174.83 339.43 L174.42 340.17 L173.35 341.53 L172.56 343.30 L171.96 343.94 L170.90 344.20 L170.17 344.47 L169.62 345.12 L168.76 346.51 L168.14 347.06 L166.94 347.86 L166.42 348.52 L166.01 349.46 L165.95 350.20 L166.15 352.24 L166.25 352.69 L167.38 355.18 L167.89 355.81 L168.59 356.07 L168.99 356.34 L170.07 357.51 L171.13 358.11 L171.04 358.85 L169.26 362.51 L168.96 364.04 L169.41 365.36 L169.70 365.20 L170.05 365.05 L170.33 365.05 L170.43 365.36 L170.28 365.81 L169.97 365.92 L169.64 365.93 L169.41 366.05 L169.07 366.68 L168.82 367.27 L168.80 367.84 L169.08 368.36 L168.76 368.36 L168.76 368.66 L168.98 368.76 L169.18 368.92 L169.41 369.02 L169.41 369.32 L168.82 369.89 L168.39 370.91 L168.14 372.12 L168.07 373.31 L168.12 373.92 L168.37 375.10 L168.43 375.78 L168.32 376.27 L167.88 377.07 L167.77 377.77 L167.66 378.07 L167.44 378.44 L167.22 378.95 L167.11 379.60 L167.44 381.74 L167.31 383.08 L166.12 386.22 L166.91 387.08 L166.63 388.61 L165.43 391.17 L164.85 393.28 L164.77 393.99 L164.92 394.70 L165.31 395.17 L166.42 395.82 L166.42 396.12 L165.10 396.50 L163.87 397.60 L163.18 398.96 L163.45 400.13 L163.09 400.55 L163.24 400.83 L163.59 401.09 L163.78 401.42 L163.68 401.79 L163.23 402.76 L163.12 403.25 L162.71 403.71 L161.83 403.98 L161.01 404.42 L160.81 405.41 L160.44 405.24 L160.26 405.08 L160.28 404.84 L160.49 404.45 L159.74 404.00 L158.99 403.91 L158.24 404.09 L157.52 404.45 L157.16 404.45 L156.92 404.02 L156.49 403.76 L155.51 403.40 L154.29 402.28 L154.01 402.11 L153.54 401.90 L152.43 400.97 L152.03 400.76 L151.52 400.66 L150.85 400.42 L150.24 400.10 L149.88 399.77 L149.55 400.13 L148.87 399.81 L147.96 399.58 L146.22 399.44 L145.31 399.78 L144.51 400.45 L143.97 401.12 L143.79 401.42 L142.38 401.07 L141.25 400.24 L139.30 398.45 L138.85 398.72 L138.45 398.50 L138.07 398.09 L137.64 397.79 L136.95 397.67 L136.44 397.71 L136.38 397.87 L137.01 398.09 L137.01 398.45 L136.79 398.85 L137.07 399.07 L137.47 399.24 L137.60 399.49 L137.64 399.44 L138.19 399.56 L139.39 399.35 L139.63 399.61 L139.63 400.00 L139.58 400.20 L137.63 401.81 L137.04 402.48 L136.66 403.40 L136.54 404.48 L136.68 405.44 L136.96 406.30 L137.32 407.09 L137.59 407.38 L137.89 407.64 L137.94 407.98 L137.19 409.00 L136.66 410.68 L137.01 410.68 L136.50 410.96 L136.35 410.91 L136.00 410.68 L135.59 411.29 L130.69 415.18 L130.36 415.29 L129.85 415.33 L129.61 415.48 L129.07 416.15 L128.69 416.35 L128.12 416.22 L127.46 415.83 L126.37 415.00 L126.37 415.99 L125.68 415.07 L124.50 414.30 L123.19 413.81 L122.08 413.71 L121.02 414.07 L119.78 414.77 L118.95 415.69 L119.12 416.68 L118.43 417.01 L118.13 416.68 L118.52 415.77 L118.05 415.50 L117.21 415.48 L116.45 415.33 L116.45 415.00 L117.18 414.17 L117.20 412.99 L116.61 412.15 L115.49 412.36 L115.11 409.80 L114.50 407.72 L114.14 407.72 L113.76 407.98 L112.63 407.52 L111.84 407.42 L112.06 407.18 L112.50 406.43 L111.84 406.07 L110.79 406.57 L110.76 406.39 L110.54 406.09 L110.34 405.27 L109.94 404.69 L109.42 404.42 L108.83 404.75 L108.63 404.25 L108.66 403.06 L108.50 402.44 L108.17 402.09 L107.70 401.89 L107.40 401.97 L107.55 402.44 L107.25 402.28 L107.04 402.03 L106.91 401.70 L106.86 401.27 L106.73 400.74 L106.44 400.60 L106.10 400.58 L105.84 400.43 L105.48 399.73 L105.43 399.32 L105.67 398.97 L108.07 396.78 L108.35 395.88 L107.55 394.83 L107.63 394.08 L105.93 393.09 L105.54 392.16 L105.74 391.72 L106.59 390.93 L106.86 390.54 L107.04 389.83 L106.98 389.41 L106.29 388.13 L106.12 387.98 L106.16 387.77 L106.53 387.21 L107.85 385.89 L108.50 385.09 L109.29 383.49 L109.86 382.60 L109.49 382.24 L109.88 381.58 L109.80 380.65 L109.20 378.64 L109.05 376.45 L108.83 375.94 L108.83 375.61 L109.04 375.16 L108.92 373.90 L109.02 373.63 L109.68 373.73 L110.11 374.00 L111.61 375.87 L112.44 376.55 L113.47 376.84 L114.80 376.60 L112.32 375.99 L111.84 375.61 L111.95 374.79 L112.58 373.97 L113.34 373.23 L113.81 372.65 L113.49 372.65 L113.32 372.98 L113.10 373.25 L112.83 373.47 L112.50 373.63 L113.06 373.15 L113.59 372.34 L113.98 371.47 L114.14 370.82 L114.29 369.28 L114.21 368.73 L113.81 368.03 L112.76 367.05 L111.34 366.39 L109.84 366.31 L108.50 367.04 L108.83 367.34 L109.00 367.08 L109.21 367.04 L109.49 367.07 L109.86 367.04 L109.30 367.34 L108.95 367.78 L108.50 369.02 L108.18 368.66 L108.61 368.11 L108.29 367.71 L107.68 367.37 L106.97 366.85 L106.83 366.82 L106.71 366.74 L106.53 366.38 L106.48 366.00 L106.62 365.69 L106.79 365.39 L106.86 365.06 L106.48 363.28 L106.53 362.72 L107.11 361.69 L107.14 361.09 L106.53 360.42 L105.84 360.71 L105.69 360.53 L106.05 360.14 L106.86 359.76 L107.01 359.77 L108.48 359.70 L109.33 359.45 L109.68 359.40 L110.11 359.16 L110.61 358.58 L111.01 357.84 L111.14 357.12 L110.91 356.46 L110.04 355.17 L109.86 354.28 L109.68 351.73 L110.49 349.50 L110.47 348.06 L109.83 346.97 L108.79 346.16 L107.55 345.49 L107.19 345.85 L106.12 345.17 L106.00 344.21 L106.53 341.70 L106.33 340.80 L105.82 339.53 L105.13 338.40 L104.37 337.90 L103.50 337.50 L103.12 336.53 L102.91 335.33 L102.55 334.25 L101.56 333.41 L100.39 333.47 L97.92 334.61 L96.94 334.25 L97.39 333.29 L97.92 332.60 L96.82 332.34 L96.01 332.87 L95.50 333.84 L95.29 334.94 L94.87 334.26 L94.59 333.52 L94.27 332.27 L94.27 331.97 L95.09 331.63 L95.87 331.18 L96.43 330.46 L96.58 329.30 L96.71 329.31 L96.92 329.07 L97.01 328.78 L96.76 328.64 L96.12 328.61 L95.87 328.51 L95.59 328.28 L94.88 327.41 L94.52 327.10 L93.94 326.96 L97.60 320.37 L97.88 319.60 L97.92 318.72 L97.61 318.00 L96.76 317.70 L96.12 317.34 L96.28 316.51 L96.80 315.62 L97.24 315.06 L97.60 315.06 L97.74 315.64 L98.10 315.69 L98.54 315.68 L98.88 316.05 L98.85 316.46 L98.66 317.03 L98.55 317.66 L98.74 318.21 L100.90 320.37 L102.46 321.08 L107.85 321.66 L110.56 322.27 L111.67 322.35 L112.62 322.23 L116.38 320.97 L117.34 320.33 L118.11 319.59 L118.43 318.87 L121.73 317.70 L122.92 317.67 L123.76 317.78 L124.39 318.03 L127.20 316.41 L128.02 315.72 L129.75 313.48 L130.36 313.09 L130.26 312.90 L130.26 312.85 L130.23 312.82 L130.03 312.73 L131.57 312.29 L132.04 312.10 L132.36 311.76 L132.88 310.92 L133.18 310.75 L133.78 310.49 L134.60 309.88 L135.32 309.17 L136.04 307.98 L136.97 307.65 L140.26 307.34 L140.97 307.14 L142.32 306.13 L142.62 306.49 L143.38 305.71 L143.66 304.98 L143.64 302.99 L144.03 302.14 L144.94 301.74 L146.03 301.52 L146.91 301.19 L147.01 301.63 L147.28 301.85 L147.69 301.91 L148.22 301.81 L148.72 302.44 L148.69 304.12 L149.21 304.45 L149.04 304.24 L148.98 303.96 L149.05 303.61 L149.21 303.16 L149.55 303.16 L149.74 303.79 L149.70 303.93 L149.55 304.15 L149.55 304.45 L150.24 304.38 L150.52 304.31 L150.86 304.15 L151.06 304.38 L151.85 304.81 L151.96 303.65 L152.77 303.86 L154.52 305.14 L154.52 304.81 L154.93 304.99 L155.28 305.10 L155.68 305.14 L156.17 305.14 L156.17 305.44 L155.91 305.59 L155.78 305.75 L155.67 305.93 L155.51 306.13 L156.06 306.32 L156.37 306.66 L156.67 307.07 L157.16 307.45 L156.88 307.81 L156.86 308.30 L157.16 309.43 L157.70 308.46 L158.01 308.05 L158.47 307.78 L158.31 307.56 L158.23 307.38 L158.10 307.23 L157.82 307.09 L158.42 306.81 L159.02 306.84 L159.65 307.00 L160.31 307.09 L160.59 306.94 L160.81 306.69 L161.07 306.64 L161.47 307.09 L161.11 307.45 L161.58 307.68 L161.89 307.94 L162.15 308.03 L162.46 307.78 L162.79 307.78 L162.87 307.99 L162.90 308.02 L162.96 308.02 L163.12 308.11 L163.06 308.70 L162.92 309.18 L162.64 309.63 L162.13 310.12 L162.03 309.89 L161.89 309.65 L161.80 309.43 L160.94 312.34 L160.49 313.09 L161.47 313.09 L161.11 312.40 L162.00 312.09 L162.53 312.20 L162.70 312.66 L162.46 313.41 L162.71 313.42 L162.75 313.34 L162.73 313.21 L162.79 313.09 L163.09 313.34 L163.23 313.41 L163.45 313.41 L164.17 312.87 L165.51 312.92 L166.89 313.31 L167.77 313.74 L167.22 314.30 L166.48 314.24 L165.69 313.93 L164.95 313.74 L164.15 314.07 L163.90 314.84 L163.73 315.71 L163.12 316.35 L163.35 317.02 L162.69 317.19 L160.49 317.04 L160.46 317.28 L160.52 317.35 L160.12 317.40 L160.50 317.97 L160.88 317.97 L161.32 317.77 L161.80 317.70 L162.30 317.87 L163.16 318.30 L163.45 318.39 L164.40 318.22 L165.12 317.84 L165.84 317.55 L166.78 317.70 L166.54 318.14 L166.27 318.47 L165.90 318.67 L165.43 318.72 L165.43 319.02 L167.16 319.69 L167.44 319.86 L167.53 320.44 L167.80 320.72 L168.21 320.69 L168.76 320.37 L169.08 320.83 L169.55 321.11 L170.10 321.27 L170.73 321.36 L169.15 321.78 L168.66 322.09 L169.08 322.71 L169.08 323.01 L168.34 322.86 L167.73 323.09 L167.54 323.54 L168.07 324.00 L168.12 323.46 L168.41 324.08 L169.77 325.49 L170.07 326.16 L170.26 327.04 L171.72 329.30 L171.91 329.94 L172.14 332.93 L172.30 333.42 L172.55 333.80 L172.86 333.95 L173.53 334.06 L173.72 334.35 L173.77 334.78 L174.03 335.27 Z" fill="#1E417C"/>
  <path d="M227.33 246.90 L228.18 247.46 L228.85 248.52 L228.95 249.13 L229.45 249.61 L228.65 250.19 L227.96 249.87 L226.16 248.48 L225.68 247.89 L226.39 247.50 L226.36 246.90 L226.70 246.64 L227.33 246.90 Z" fill="#1E417C"/>
  <path d="M205.47 224.75 L205.12 225.10 L204.89 225.60 L204.86 226.16 L205.15 226.73 L204.83 227.54 L204.36 228.08 L203.71 228.44 L202.84 228.71 L203.77 229.01 L204.59 229.80 L204.86 230.71 L204.13 231.34 L203.91 230.91 L203.54 230.86 L203.05 230.89 L202.48 230.68 L202.28 230.42 L201.80 229.55 L201.65 229.37 L201.03 229.08 L200.38 228.64 L199.76 228.64 L199.21 229.70 L198.77 228.89 L196.88 229.62 L195.91 229.01 L195.65 229.75 L195.42 230.04 L195.15 230.06 L191.17 229.97 L190.09 229.69 L189.22 229.00 L188.96 227.72 L189.46 226.88 L190.49 226.37 L191.70 226.11 L192.73 226.04 L193.24 226.13 L194.31 226.57 L194.90 226.73 L195.76 226.79 L196.90 226.73 L196.86 226.49 L196.83 226.44 L196.75 226.45 L196.57 226.37 L197.21 226.04 L197.21 225.68 L197.21 225.62 L198.04 225.71 L199.85 225.68 L199.62 226.38 L200.13 226.66 L200.84 226.66 L201.19 226.55 L201.36 226.10 L201.74 225.84 L202.16 225.64 L202.48 225.38 L203.00 224.14 L203.38 223.62 L203.98 223.40 L204.45 223.52 L204.88 223.83 L205.24 224.27 L205.47 224.75 Z" fill="#1E417C"/>
  <path d="M176.34 214.14 L176.42 214.22 L176.53 214.35 L176.70 214.46 L177.05 215.15 L176.44 216.08 L175.51 216.88 L174.48 216.91 L173.66 215.91 L174.74 214.08 L175.65 213.68 L176.34 214.14 Z" fill="#1E417C"/>
  <path d="M297.65 101.12 L298.61 100.18 L299.44 99.76 L300.33 99.90 L301.46 100.63 L300.85 100.40 L300.20 100.31 L298.82 100.29 L296.17 103.89 L296.10 103.60 L296.48 102.72 L297.65 101.12 Z" fill="#1E417C"/>
  <path d="M322.17 561.51 L322.52 561.50 L322.86 561.78 L322.99 562.30 L322.79 562.47 L322.03 562.47 L321.74 562.29 L321.50 561.96 L321.55 561.69 L321.87 561.55 L322.17 561.51 Z" fill="#1E417C"/>
  <path d="M393.96 432.91 L393.79 432.32 L394.48 432.13 L394.66 432.72 L393.96 432.91 Z" fill="#1E417C"/>
  <path d="M405.05 430.90 L405.22 431.41 L405.50 431.66 L405.51 431.83 L404.93 431.87 L403.87 431.63 L403.49 431.00 L403.43 430.41 L403.61 430.35 L404.47 430.52 L405.05 430.90 Z" fill="#1E417C"/>
  <path d="M337.12 424.11 L337.91 424.10 L338.41 424.39 L338.48 424.54 L337.48 425.28 L336.92 425.38 L336.35 425.20 L336.33 424.83 L336.57 424.47 L337.12 424.11 Z" fill="#1E417C"/>
  <path d="M436.53 419.62 L436.86 419.74 L437.08 419.92 L436.99 420.31 L436.75 420.63 L436.62 420.93 L436.37 421.24 L436.03 421.42 L435.48 421.31 L434.56 420.65 L434.56 420.47 L434.90 420.21 L435.36 420.04 L435.61 419.83 L435.77 419.61 L436.08 419.54 L436.53 419.62 Z" fill="#1E417C"/>
  <path d="M349.17 323.74 L349.43 323.52 L349.80 323.46 L349.56 323.97 L348.97 324.21 L349.17 323.74 Z" fill="#1E417C"/>
  <path d="M310.67 579.01 L310.65 579.08 L310.78 579.40 L310.65 579.85 L310.16 580.00 L309.77 579.90 L309.54 579.75 L309.33 579.75 L307.48 579.09 L306.54 578.87 L306.06 578.68 L306.43 578.44 L307.48 578.46 L308.03 578.56 L310.24 578.74 L310.65 578.83 L310.77 578.91 L310.67 579.01 Z" fill="#1E417C"/>
  <path d="M284.14 460.30 L284.41 460.68 L284.48 461.15 L283.78 461.12 L282.95 460.64 L282.44 460.02 L282.12 459.50 L282.39 459.18 L283.23 459.12 L283.76 459.41 L284.14 460.30 Z" fill="#1E417C"/>
  <path d="M158.70 302.47 L158.87 302.84 L158.93 303.04 L158.92 303.39 L158.52 304.71 L158.68 304.97 L158.70 305.21 L158.49 305.56 L158.20 305.53 L157.81 305.15 L157.44 304.91 L157.10 305.03 L156.88 304.89 L157.39 303.97 L157.19 303.66 L157.33 303.23 L157.69 302.57 L157.98 302.17 L158.37 302.23 L158.70 302.47 Z" fill="#1E417C"/>
  <path d="M156.58 303.01 L156.74 303.22 L156.79 303.39 L154.86 303.70 L153.98 303.57 L153.79 303.15 L153.79 302.77 L154.01 302.58 L154.36 302.45 L154.69 302.25 L154.91 301.91 L154.99 301.51 L155.19 301.44 L155.47 301.41 L155.78 301.20 L156.14 301.27 L156.41 301.60 L156.56 301.98 L156.56 302.39 L156.49 302.79 L156.58 303.01 Z" fill="#1E417C"/>
  <path d="M198.41 248.92 L198.86 248.60 L199.32 249.12 L199.19 249.94 L198.28 249.74 L198.41 248.92 Z" fill="#1E417C"/>
  <path d="M188.49 236.81 L188.70 237.05 L188.79 237.18 L188.79 237.38 L188.67 237.71 L188.21 237.93 L187.53 237.92 L186.89 237.76 L186.49 237.48 L186.60 237.13 L187.09 236.99 L187.57 236.58 L187.90 235.93 L188.14 235.89 L188.30 236.41 L188.49 236.81 Z" fill="#1E417C"/>
  <path d="M296.58 98.54 L297.41 98.54 L298.22 98.99 L298.13 99.54 L297.66 99.74 L296.94 100.06 L296.13 99.94 L295.94 99.30 L296.58 98.54 Z" fill="#1E417C"/>
</svg>
