<svg width="800" height="600" viewBox="0 0 800 600" fill="none" xmlns="http://www.w3.org/2000/svg">
  <path d="M689.38 384.92 L707.75 384.83 L707.19 388.65 L707.48 391.13 L706.35 393.28 L705.98 395.11 L708.60 396.65 L719.56 399.45 L725.18 402.87 L726.60 403.74 L737.21 407.32 L739.16 408.27 L740.47 409.77 L741.09 412.21 L740.57 418.09 L739.81 421.31 L738.80 423.56 L735.63 425.20 L725.87 427.78 L723.90 429.37 L725.35 431.28 L728.08 432.06 L730.53 433.11 L731.09 435.80 L730.57 436.94 L728.86 439.21 L728.21 440.36 L727.94 441.43 L727.71 443.52 L727.35 444.70 L720.39 452.90 L718.26 456.58 L719.93 456.83 L721.70 457.09 L730.39 454.41 L734.82 453.74 L739.48 454.47 L741.73 455.51 L745.84 458.09 L748.15 459.10 L748.72 460.59 L746.74 462.99 L744.23 465.46 L743.11 467.22 L744.91 469.02 L755.23 473.05 L756.31 474.84 L756.40 479.56 L756.95 481.78 L758.37 483.48 L760.22 484.61 L768.61 486.88 L770.44 487.65 L771.08 488.89 L770.35 489.82 L767.63 491.26 L767.00 492.49 L767.33 493.51 L768.18 494.44 L773.63 498.30 L774.44 499.17 L774.82 500.30 L774.44 503.90 L774.74 506.31 L775.51 508.43 L779.74 515.58 L780.00 516.70 L779.79 518.24 L779.18 519.07 L778.33 519.75 L777.47 520.86 L776.55 523.33 L775.95 525.80 L774.95 528.13 L772.83 530.15 L768.85 528.64 L764.37 529.61 L762.58 530.34 L759.71 531.49 L755.23 532.71 L750.89 533.23 L749.57 533.62 L747.94 534.57 L746.90 535.72 L745.97 537.00 L744.71 538.39 L737.57 541.47 L734.28 543.37 L733.84 545.88 L730.42 549.31 L720.00 553.17 L717.08 557.82 L716.34 562.81 L715.44 565.05 L714.52 566.66 L711.57 566.87 L698.38 566.19 L694.92 565.60 L691.65 564.50 L689.03 562.78 L686.88 564.21 L681.99 566.91 L679.95 567.39 L677.07 566.49 L670.53 563.36 L668.25 562.65 L663.99 562.25 L650.39 563.24 L650.22 563.30 L647.95 564.11 L641.90 568.29 L635.89 574.51 L633.80 575.90 L625.43 578.34 L623.03 578.44 L617.45 577.17 L614.64 577.00 L612.07 577.80 L609.86 580.00 L603.88 579.73 L597.96 578.81 L583.42 574.83 L576.85 572.01 L571.32 566.38 L568.89 563.18 L566.26 560.86 L555.85 555.76 L549.37 551.65 L543.46 549.44 L534.03 545.91 L526.08 540.88 L523.02 538.94 L516.99 536.59 L515.72 535.87 L514.79 534.78 L512.84 531.24 L512.07 530.32 L510.80 530.01 L504.54 530.29 L502.74 530.09 L497.49 528.67 L490.36 529.39 L479.28 528.32 L454.13 525.89 L450.35 524.35 L447.29 521.18 L445.43 517.81 L444.41 516.79 L440.92 514.63 L439.87 513.55 L438.71 511.61 L436.00 505.25 L433.26 500.84 L431.38 499.09 L429.15 498.68 L427.70 499.44 L427.31 500.55 L427.18 501.71 L426.52 502.63 L425.66 502.73 L423.34 502.22 L422.29 502.25 L412.80 504.59 L408.98 505.53 L404.85 507.34 L396.33 513.78 L394.34 514.93 L388.30 516.90 L384.72 517.77 L381.28 517.25 L374.61 514.52 L371.23 513.78 L367.99 514.10 L355.32 517.79 L352.56 518.08 L352.40 518.09 L349.22 517.75 L345.71 516.65 L335.87 512.33 L324.32 510.27 L322.96 510.03 L319.49 509.97 L312.26 510.91 L309.00 510.61 L308.86 510.26 L308.98 509.61 L308.85 508.83 L307.96 508.10 L307.08 507.92 L304.22 508.19 L296.93 507.99 L293.56 508.54 L287.25 510.63 L283.48 510.47 L272.62 507.90 L265.56 506.23 L263.23 505.97 L251.08 507.55 L249.15 508.24 L250.06 509.33 L244.80 512.49 L239.52 513.19 L234.74 511.13 L231.03 505.96 L228.47 502.94 L225.07 501.88 L221.34 502.26 L218.27 503.45 L214.42 504.94 L199.59 508.36 L198.00 508.48 L196.19 508.06 L191.55 505.34 L188.76 504.51 L188.51 504.43 L181.79 503.57 L150.67 504.15 L148.61 503.69 L144.72 502.07 L142.73 501.50 L138.00 501.32 L126.37 504.37 L124.50 504.86 L95.06 512.57 L85.78 512.80 L81.89 513.92 L67.25 520.20 L65.62 520.50 L60.86 520.63 L57.64 521.56 L53.74 523.39 L50.01 525.67 L47.37 527.98 L45.58 531.35 L44.82 534.24 L43.25 536.23 L39.04 536.89 L32.87 536.92 L28.89 537.47 L28.89 537.44 L28.81 536.96 L27.77 533.07 L26.31 529.63 L21.62 523.02 L20.50 520.76 L20.05 518.51 L20.26 517.86 L21.22 515.80 L21.48 514.60 L21.48 513.48 L21.35 512.53 L20.25 508.41 L20.00 506.31 L20.20 504.30 L21.09 502.69 L22.51 501.27 L23.12 500.45 L23.63 499.50 L23.86 498.34 L23.87 496.28 L24.40 495.21 L23.63 493.44 L23.34 491.55 L23.96 490.57 L25.84 491.56 L26.49 492.65 L27.05 495.39 L27.98 496.64 L26.49 498.07 L27.22 498.47 L27.98 498.72 L27.98 500.21 L27.98 500.93 L26.49 502.30 L28.89 504.20 L29.77 504.51 L30.65 504.26 L31.38 503.65 L31.66 502.83 L30.49 500.62 L30.28 498.76 L30.44 496.98 L30.85 495.85 L30.38 495.14 L29.92 493.29 L29.41 492.28 L28.84 491.50 L28.34 491.02 L26.49 490.13 L25.34 489.82 L24.39 489.75 L23.62 489.51 L22.91 488.70 L22.47 487.54 L22.78 487.07 L23.33 486.61 L24.39 482.31 L28.13 476.29 L29.41 472.88 L30.13 463.90 L29.71 461.82 L28.98 459.95 L28.82 458.18 L30.13 456.35 L38.73 453.20 L39.73 452.24 L46.66 449.92 L48.56 448.81 L52.40 445.57 L53.46 444.90 L54.76 444.48 L57.70 443.00 L61.05 441.32 L63.40 439.30 L65.40 436.31 L66.66 432.56 L66.78 428.30 L66.48 427.19 L65.34 424.37 L65.56 423.25 L66.55 421.76 L66.78 420.85 L66.55 414.02 L66.78 411.84 L67.47 409.97 L68.75 408.11 L70.42 406.69 L72.21 406.11 L73.64 405.26 L77.58 399.60 L85.06 394.23 L96.60 382.01 L99.80 380.08 L104.20 378.78 L123.52 378.07 L128.06 377.30 L148.53 371.29 L178.86 362.39 L183.30 361.64 L185.71 361.54 L186.89 361.31 L188.17 360.89 L189.56 360.59 L191.08 360.76 L192.13 361.12 L192.11 361.24 L191.57 361.49 L191.08 362.25 L190.09 366.20 L189.70 370.52 L190.10 372.64 L191.13 374.17 L196.93 378.82 L220.29 389.78 L227.78 394.86 L236.28 398.88 L241.72 400.58 L245.31 401.03 L246.64 401.36 L246.95 402.18 L246.99 403.22 L247.46 404.26 L249.78 406.84 L250.24 407.35 L251.29 409.06 L252.11 411.13 L252.93 414.81 L253.82 416.73 L255.38 417.56 L256.31 418.53 L259.25 428.24 L260.34 429.86 L261.81 430.52 L263.67 430.91 L268.64 434.10 L277.32 436.02 L286.31 436.96 L287.59 437.56 L292.71 441.68 L293.65 442.12 L294.34 442.43 L299.25 443.29 L305.87 443.67 L323.79 441.27 L330.17 439.57 L332.89 438.85 L336.91 436.96 L338.81 435.46 L340.14 434.05 L341.57 433.00 L345.65 432.38 L349.69 430.94 L359.93 427.27 L360.82 425.77 L362.85 424.56 L365.22 423.73 L367.04 423.35 L367.07 422.23 L368.11 421.48 L370.62 420.50 L377.59 416.10 L379.84 413.17 L380.70 408.98 L380.35 404.12 L377.84 391.02 L377.66 387.13 L377.17 384.82 L376.05 383.79 L375.43 382.53 L375.89 379.78 L377.13 375.92 L375.90 369.75 L375.33 368.37 L370.73 364.22 L369.24 362.25 L369.24 360.35 L368.12 355.43 L367.82 352.94 L368.12 351.61 L368.88 350.35 L369.93 349.21 L374.49 350.21 L377.48 350.13 L379.93 349.39 L381.10 348.33 L382.83 345.84 L384.14 345.03 L388.30 343.85 L393.80 341.15 L395.91 340.90 L403.26 341.27 L409.63 340.89 L411.27 340.19 L413.20 337.30 L414.74 336.21 L418.01 336.66 L420.74 337.59 L423.47 337.84 L424.58 337.29 L426.78 336.22 L429.31 335.35 L437.36 334.72 L440.04 333.73 L446.33 330.30 L447.80 329.50 L450.09 328.72 L452.56 328.33 L457.47 328.26 L460.19 329.23 L461.63 331.39 L462.59 333.97 L463.87 336.23 L465.41 336.92 L467.06 336.92 L470.41 336.00 L472.50 334.54 L471.78 332.86 L468.84 330.02 L468.96 328.21 L470.31 327.51 L472.21 327.70 L474.09 328.51 L474.80 329.23 L476.05 331.13 L476.71 331.75 L477.66 332.06 L478.31 331.98 L479.00 331.78 L480.06 331.75 L484.26 332.96 L490.61 337.06 L494.75 338.47 L498.45 338.91 L499.47 339.29 L500.37 340.08 L500.54 340.65 L500.57 340.76 L500.65 341.45 L501.22 342.29 L503.43 343.84 L505.75 344.60 L508.22 344.80 L510.84 344.68 L516.47 343.64 L517.64 343.42 L519.25 343.45 L520.83 344.91 L521.81 347.04 L523.15 349.13 L525.78 350.49 L547.81 351.54 L549.05 351.87 L549.83 352.38 L550.17 353.38 L549.81 354.01 L549.21 354.63 L548.90 355.60 L549.21 357.76 L550.12 359.05 L561.70 364.25 L565.19 366.42 L575.12 375.15 L578.68 377.42 L583.03 379.10 L584.36 379.41 L592.68 381.34 L592.71 381.35 L594.45 382.27 L597.96 384.97 L599.90 386.16 L601.53 386.00 L602.96 385.31 L604.38 384.86 L605.37 385.00 L607.31 385.76 L608.32 385.95 L609.39 385.68 L609.89 385.04 L610.26 384.27 L610.93 383.59 L614.03 382.11 L617.46 381.01 L620.97 380.40 L629.11 380.64 L630.96 380.34 L633.12 379.30 L634.37 377.85 L635.44 376.30 L637.08 374.97 L639.02 374.48 L640.31 375.01 L641.48 375.76 L643.11 375.92 L644.95 375.70 L646.77 375.72 L650.39 376.39 L652.86 377.44 L656.71 380.64 L658.82 381.98 L661.32 382.63 L669.74 382.92 L685.92 386.12 L689.38 384.92 Z" fill="#1E417C"/>
</svg>
