<svg width="800" height="600" viewBox="0 0 800 600" fill="none" xmlns="http://www.w3.org/2000/svg">
  <path d="M742.11 403.99 L772.10 443.66 L780.00 492.03 L769.36 523.32 L742.11 511.06 L711.30 538.88 L701.47 555.57 L701.47 580.00 L669.70 569.60 L660.99 565.25 L592.78 559.76 L497.32 535.49 L412.18 497.28 L375.57 450.27 L369.28 444.30 L341.22 431.97 L335.09 422.53 L335.09 361.09 L326.39 291.19 L315.10 259.75 L294.30 239.35 L319.45 221.04 L344.77 208.47 L372.51 201.13 L403.79 198.71 L403.79 213.38 L385.73 216.13 L374.12 220.96 L348.48 239.35 L505.22 254.02 L538.12 264.66 L604.72 311.03 L662.44 327.72 L672.44 343.03 L674.70 362.79 L674.54 382.62 L685.18 384.32 L742.11 403.99 Z" fill="#1E417C"/>
  <path d="M164.65 36.33 L216.09 51.64 L279.94 84.86 L318.49 118.00 L294.30 132.27 L259.47 133.40 L206.25 153.07 L171.42 159.36 L134.65 157.11 L93.86 148.08 L54.83 134.45 L22.58 117.52 L28.71 96.15 L21.45 74.54 L20.00 57.77 L43.54 51.16 L164.65 36.33 Z" fill="#1E417C"/>
</svg>
