<svg width="800" height="600" viewBox="0 0 800 600" fill="none" xmlns="http://www.w3.org/2000/svg">
  <path d="M752.93 576.30 L753.08 576.33 L753.12 576.35 L753.09 576.36 L753.03 576.37 L752.98 576.39 L752.95 576.39 L752.92 576.38 L752.90 576.40 L752.61 576.39 L752.60 576.38 L752.59 576.36 L752.57 576.35 L752.52 576.32 L752.50 576.30 L752.48 576.27 L752.52 576.28 L752.55 576.29 L752.61 576.32 L752.64 576.32 L752.81 576.30 L752.83 576.28 L752.85 576.27 L752.87 576.28 L752.93 576.30 Z" fill="#1E417C"/>
  <path d="M759.57 579.83 L759.59 579.88 L759.59 579.90 L759.55 579.92 L759.54 579.94 L759.52 579.97 L759.45 580.00 L759.39 580.00 L759.31 579.99 L759.29 579.97 L759.25 579.96 L759.21 579.95 L759.19 579.92 L759.16 579.92 L759.14 579.93 L759.09 579.90 L759.06 579.88 L759.09 579.86 L759.13 579.86 L759.21 579.88 L759.27 579.89 L759.29 579.84 L759.31 579.81 L759.34 579.77 L759.37 579.75 L759.43 579.72 L759.47 579.72 L759.49 579.73 L759.48 579.75 L759.51 579.75 L759.53 579.76 L759.55 579.78 L759.62 579.80 L759.66 579.83 L759.62 579.84 L759.57 579.83 Z" fill="#1E417C"/>
  <path d="M753.16 575.74 L753.12 575.76 L753.10 575.76 L753.07 575.75 L753.04 575.76 L753.06 575.78 L753.07 575.80 L753.09 575.85 L753.08 575.85 L753.05 575.84 L753.04 575.84 L753.04 575.87 L753.05 575.88 L753.03 575.89 L752.99 575.92 L753.02 575.92 L753.06 575.92 L753.09 575.92 L753.12 575.94 L753.07 575.95 L752.96 575.95 L752.90 575.95 L752.90 575.97 L752.95 575.97 L753.02 575.99 L753.06 576.00 L753.05 576.03 L753.02 576.07 L753.05 576.07 L753.11 576.07 L753.14 576.07 L753.13 576.09 L753.13 576.11 L753.13 576.13 L753.14 576.14 L753.12 576.14 L753.08 576.14 L753.06 576.14 L753.06 576.16 L753.09 576.16 L753.13 576.17 L753.17 576.19 L753.18 576.20 L753.18 576.24 L753.15 576.27 L753.12 576.29 L753.09 576.28 L753.04 576.25 L752.97 576.24 L752.91 576.22 L752.87 576.17 L752.85 576.19 L752.83 576.21 L752.77 576.23 L752.79 576.20 L752.81 576.17 L752.82 576.14 L752.81 576.11 L752.79 576.08 L752.76 576.07 L752.73 576.06 L752.70 576.09 L752.72 576.10 L752.74 576.12 L752.75 576.14 L752.74 576.14 L752.71 576.14 L752.66 576.11 L752.63 576.11 L752.65 576.13 L752.67 576.15 L752.69 576.16 L752.70 576.19 L752.70 576.22 L752.69 576.24 L752.67 576.26 L752.63 576.26 L752.60 576.26 L752.57 576.25 L752.54 576.24 L752.52 576.21 L752.50 576.21 L752.47 576.23 L752.42 576.27 L752.40 576.15 L752.48 576.07 L752.77 575.94 L752.81 575.90 L752.84 575.85 L752.85 575.78 L752.86 575.74 L752.89 575.68 L752.89 575.64 L752.85 575.60 L752.88 575.60 L752.91 575.59 L752.94 575.58 L752.98 575.59 L753.01 575.60 L753.11 575.58 L753.14 575.57 L753.13 575.59 L753.13 575.62 L753.12 575.63 L753.16 575.63 L753.25 575.62 L753.25 575.63 L753.26 575.65 L753.27 575.68 L753.29 575.69 L753.20 575.69 L753.18 575.70 L753.17 575.71 L753.17 575.72 L753.16 575.74 Z" fill="#1E417C"/>
  <path d="M779.99 573.67 L780.00 573.71 L779.99 573.74 L779.97 573.78 L779.96 573.81 L779.96 573.85 L779.95 573.86 L779.94 573.87 L779.85 573.86 L779.78 573.85 L779.73 573.82 L779.73 573.76 L779.75 573.74 L779.84 573.67 L779.88 573.65 L779.91 573.64 L779.94 573.64 L779.97 573.65 L779.99 573.67 Z" fill="#1E417C"/>
  <path d="M23.86 562.21 L23.87 562.22 L23.93 562.25 L23.85 562.28 L23.83 562.31 L23.82 562.36 L23.75 562.39 L23.70 562.41 L23.71 562.38 L23.70 562.37 L23.69 562.35 L23.68 562.35 L23.69 562.34 L23.68 562.33 L23.69 562.32 L23.72 562.26 L23.72 562.25 L23.70 562.22 L23.68 562.21 L23.67 562.20 L23.69 562.17 L23.73 562.16 L23.77 562.15 L23.81 562.15 L23.84 562.16 L23.85 562.17 L23.85 562.18 L23.85 562.20 L23.86 562.21 Z" fill="#1E417C"/>
  <path d="M23.36 561.47 L23.35 561.48 L23.34 561.49 L23.32 561.48 L23.31 561.47 L23.32 561.41 L23.31 561.39 L23.30 561.37 L23.33 561.35 L23.37 561.31 L23.41 561.27 L23.42 561.23 L23.38 561.18 L23.31 561.17 L23.20 561.17 L23.08 561.15 L23.03 561.16 L23.04 561.21 L23.08 561.24 L23.27 561.27 L23.11 561.36 L23.10 561.39 L23.18 561.47 L23.19 561.49 L23.19 561.52 L23.19 561.55 L23.20 561.57 L23.25 561.60 L23.33 561.55 L23.34 561.60 L23.35 561.63 L23.36 561.65 L23.39 561.68 L23.42 561.70 L23.48 561.71 L23.50 561.72 L23.53 561.77 L23.47 561.79 L23.38 561.79 L23.32 561.80 L23.30 561.81 L23.24 561.83 L23.19 561.87 L23.10 561.90 L23.08 561.94 L23.06 561.94 L22.93 561.94 L22.89 561.94 L22.88 561.92 L22.87 561.87 L22.85 561.83 L22.80 561.75 L22.79 561.74 L22.77 561.73 L22.76 561.72 L22.77 561.71 L22.82 561.69 L22.95 561.62 L22.97 561.60 L22.98 561.57 L23.03 561.55 L23.07 561.52 L23.06 561.47 L22.96 561.34 L22.92 561.30 L22.87 561.27 L22.84 561.26 L22.81 561.25 L22.78 561.26 L22.76 561.27 L22.74 561.28 L22.72 561.27 L22.70 561.28 L22.71 561.31 L22.69 561.32 L22.66 561.32 L22.63 561.33 L22.56 561.31 L22.41 561.34 L22.35 561.30 L22.38 561.26 L22.42 561.24 L22.47 561.23 L22.51 561.21 L22.51 561.20 L22.50 561.18 L22.50 561.16 L22.53 561.15 L22.53 561.16 L22.58 561.19 L22.61 561.19 L22.80 561.18 L22.84 561.16 L22.86 561.12 L22.87 561.08 L22.89 561.06 L22.93 561.05 L22.95 561.05 L23.00 561.07 L23.02 561.08 L23.11 561.08 L23.14 561.08 L23.28 561.13 L23.34 561.14 L23.81 561.11 L23.81 561.12 L23.78 561.12 L23.75 561.14 L23.74 561.16 L23.74 561.19 L23.65 561.16 L23.56 561.19 L23.49 561.26 L23.38 561.39 L23.36 561.42 L23.36 561.47 Z" fill="#1E417C"/>
  <path d="M20.10 530.32 L20.07 530.34 L20.07 530.32 L20.07 530.29 L20.06 530.27 L20.03 530.24 L20.01 530.23 L20.00 530.21 L20.04 530.20 L20.08 530.21 L20.11 530.22 L20.15 530.23 L20.18 530.25 L20.20 530.27 L20.23 530.32 L20.20 530.31 L20.17 530.31 L20.15 530.33 L20.13 530.35 L20.11 530.33 L20.10 530.32 Z" fill="#1E417C"/>
  <path d="M34.41 487.89 L34.40 487.88 L34.40 487.86 L34.39 487.85 L34.38 487.83 L34.40 487.85 L34.41 487.86 L34.42 487.88 L34.43 487.90 L34.42 487.90 L34.42 487.90 L34.42 487.89 L34.41 487.89 Z" fill="#1E417C"/>
  <path d="M31.66 486.20 L31.64 486.18 L31.62 486.16 L31.64 486.18 L31.66 486.20 L31.67 486.22 L31.66 486.25 L31.66 486.24 L31.66 486.20 Z" fill="#1E417C"/>
  <path d="M754.00 570.19 L753.99 570.20 L753.97 570.25 L753.98 570.26 L753.99 570.29 L754.00 570.31 L754.00 570.33 L753.98 570.33 L753.97 570.31 L753.95 570.28 L753.93 570.28 L753.85 570.29 L753.85 570.27 L753.96 570.20 L754.00 570.19 Z" fill="#1E417C"/>
  <path d="M755.66 568.57 L755.69 568.54 L755.74 568.51 L755.79 568.51 L755.81 568.54 L755.78 568.56 L755.73 568.58 L755.68 568.59 L755.66 568.57 Z" fill="#1E417C"/>
  <path d="M756.28 567.61 L756.26 567.63 L756.23 567.63 L756.20 567.63 L756.18 567.60 L756.19 567.57 L756.22 567.56 L756.25 567.55 L756.28 567.56 L756.31 567.58 L756.28 567.61 Z" fill="#1E417C"/>
  <path d="M758.16 567.50 L758.19 567.55 L758.17 567.59 L758.12 567.63 L758.10 567.65 L758.11 567.63 L758.10 567.61 L758.07 567.59 L758.06 567.56 L758.09 567.56 L758.12 567.55 L758.15 567.53 L758.16 567.50 Z" fill="#1E417C"/>
  <path d="M757.33 568.17 L757.42 568.22 L757.45 568.24 L757.45 568.25 L757.44 568.26 L757.42 568.26 L757.40 568.26 L757.39 568.25 L757.37 568.22 L757.36 568.22 L757.31 568.21 L757.30 568.23 L757.31 568.28 L757.29 568.29 L757.21 568.27 L757.24 568.30 L757.08 568.30 L756.95 568.32 L756.89 568.34 L756.76 568.42 L756.72 568.46 L756.69 568.47 L756.66 568.47 L756.62 568.46 L756.59 568.44 L756.56 568.43 L756.48 568.44 L756.45 568.44 L756.43 568.41 L756.42 568.38 L756.40 568.36 L756.36 568.39 L756.32 568.40 L756.31 568.41 L756.30 568.41 L756.29 568.46 L756.26 568.45 L756.15 568.51 L756.09 568.52 L756.12 568.55 L756.19 568.54 L756.32 568.51 L756.29 568.55 L756.27 568.58 L756.20 568.63 L756.20 568.57 L756.18 568.57 L756.14 568.60 L756.11 568.63 L756.07 568.65 L756.00 568.66 L755.93 568.66 L755.88 568.65 L755.87 568.61 L755.88 568.56 L755.91 568.51 L755.93 568.47 L755.96 568.46 L756.00 568.45 L756.04 568.43 L756.11 568.41 L756.08 568.39 L756.08 568.37 L756.09 568.35 L756.10 568.32 L756.10 568.29 L756.09 568.26 L756.09 568.24 L756.11 568.21 L756.13 568.19 L756.15 568.17 L756.20 568.15 L756.24 568.14 L756.27 568.15 L756.29 568.16 L756.32 568.16 L756.36 568.13 L756.35 568.08 L756.33 568.02 L756.34 567.98 L756.37 567.96 L756.43 567.96 L756.46 567.95 L756.49 567.91 L756.51 567.88 L756.51 567.85 L756.50 567.80 L756.47 567.76 L756.40 567.68 L756.39 567.66 L756.40 567.64 L756.41 567.63 L756.42 567.61 L756.42 567.60 L756.42 567.59 L756.41 567.58 L756.40 567.57 L756.39 567.55 L756.39 567.54 L756.40 567.53 L756.41 567.52 L756.42 567.46 L756.45 567.43 L756.50 567.42 L756.56 567.41 L756.62 567.43 L756.65 567.43 L756.68 567.42 L756.71 567.40 L756.73 567.40 L756.83 567.43 L756.87 567.46 L756.91 567.48 L757.10 567.67 L757.13 567.69 L757.17 567.71 L757.20 567.73 L757.21 567.76 L757.24 567.76 L757.28 567.78 L757.31 567.81 L757.27 567.84 L757.31 567.85 L757.31 567.87 L757.26 567.88 L757.07 567.87 L757.08 567.84 L756.96 567.83 L756.92 567.85 L756.94 567.89 L756.93 567.91 L756.83 568.01 L756.88 568.01 L756.96 567.94 L757.01 567.93 L757.03 567.93 L757.09 567.96 L757.14 567.97 L757.22 568.00 L757.22 568.01 L757.21 568.02 L757.20 568.03 L757.18 568.04 L757.18 568.06 L757.21 568.06 L757.32 568.03 L757.35 568.03 L757.38 568.01 L757.39 568.01 L757.40 568.02 L757.41 568.04 L757.42 568.05 L757.44 568.06 L757.46 568.07 L757.45 568.09 L757.43 568.14 L757.43 568.16 L757.40 568.17 L757.38 568.17 L757.36 568.16 L757.33 568.16 L757.33 568.17 Z" fill="#1E417C"/>
  <path d="M754.16 565.12 L754.20 565.15 L754.23 565.19 L754.24 565.24 L754.25 565.28 L754.24 565.33 L754.22 565.36 L754.18 565.38 L754.13 565.39 L754.13 565.37 L754.11 565.35 L754.09 565.34 L754.08 565.38 L754.06 565.39 L754.04 565.39 L754.03 565.39 L754.01 565.36 L754.00 565.32 L754.00 565.28 L754.00 565.25 L753.97 565.21 L753.93 565.22 L753.80 565.33 L753.77 565.34 L753.72 565.36 L753.73 565.33 L753.75 565.29 L753.78 565.25 L753.80 565.24 L753.81 565.23 L753.83 565.20 L753.85 565.17 L753.87 565.16 L753.93 565.16 L754.10 565.12 L754.14 565.12 L754.16 565.12 Z" fill="#1E417C"/>
  <path d="M754.72 564.16 L754.74 564.24 L754.77 564.31 L754.85 564.45 L754.77 564.46 L754.75 564.46 L754.71 564.43 L754.67 564.41 L754.63 564.40 L754.59 564.39 L754.57 564.36 L754.54 564.33 L754.54 564.31 L754.56 564.31 L754.56 564.30 L754.57 564.28 L754.70 564.13 L754.70 564.14 L754.70 564.15 L754.71 564.15 L754.72 564.16 Z" fill="#1E417C"/>
  <path d="M770.49 555.52 L770.53 555.52 L770.53 555.54 L770.53 555.56 L770.54 555.59 L770.52 555.62 L770.51 555.68 L770.49 555.71 L770.46 555.72 L770.42 555.72 L770.38 555.72 L770.35 555.72 L770.32 555.73 L770.27 555.77 L770.24 555.78 L770.21 555.79 L770.10 555.78 L770.10 555.78 L770.11 555.77 L770.14 555.75 L770.14 555.75 L770.17 555.75 L770.22 555.75 L770.24 555.74 L770.35 555.65 L770.38 555.68 L770.43 555.66 L770.47 555.63 L770.46 555.59 L770.44 555.60 L770.41 555.60 L770.39 555.58 L770.38 555.56 L770.41 555.56 L770.44 555.54 L770.47 555.53 L770.49 555.52 Z" fill="#1E417C"/>
  <path d="M769.22 555.09 L769.25 555.08 L769.26 555.07 L769.26 555.04 L769.25 555.02 L769.23 555.04 L769.22 555.05 L769.21 555.03 L769.21 555.00 L769.21 554.97 L769.22 554.95 L769.26 554.97 L769.28 555.00 L769.31 555.02 L769.35 555.02 L769.35 555.01 L769.33 554.99 L769.30 554.97 L769.29 554.94 L769.28 554.91 L769.29 554.87 L769.31 554.79 L769.33 554.77 L769.34 554.78 L769.34 554.79 L769.35 554.81 L769.37 554.82 L769.38 554.79 L769.39 554.77 L769.41 554.76 L769.44 554.77 L769.44 554.80 L769.43 554.84 L769.44 554.88 L769.46 554.86 L769.53 554.84 L769.56 554.82 L769.49 554.82 L769.53 554.79 L769.55 554.77 L769.57 554.74 L769.60 554.68 L769.61 554.67 L769.62 554.70 L769.62 554.73 L769.61 554.76 L769.59 554.82 L769.60 554.84 L769.60 554.85 L769.60 554.86 L769.58 554.86 L769.55 554.89 L769.54 554.91 L769.54 554.93 L769.53 554.98 L769.52 555.01 L769.51 555.01 L769.46 555.01 L769.45 555.01 L769.43 555.04 L769.41 555.05 L769.36 555.06 L769.35 555.07 L769.34 555.08 L769.33 555.10 L769.33 555.11 L769.30 555.12 L769.27 555.13 L769.24 555.14 L769.21 555.12 L769.22 555.12 L769.22 555.11 L769.22 555.10 L769.22 555.09 Z" fill="#1E417C"/>
  <path d="M767.02 560.15 L767.03 560.17 L767.02 560.23 L767.01 560.28 L767.00 560.39 L766.99 560.41 L766.98 560.43 L766.98 560.48 L767.02 560.61 L767.08 560.74 L767.08 560.77 L767.05 560.75 L767.03 560.75 L767.01 560.76 L767.03 560.79 L767.06 560.81 L767.20 560.83 L767.13 560.85 L766.99 560.86 L766.93 560.87 L766.87 560.91 L766.90 560.93 L766.96 560.94 L767.00 560.95 L767.05 560.91 L767.13 560.89 L767.20 560.89 L767.24 560.90 L767.25 560.93 L767.27 560.96 L767.29 560.98 L767.30 560.97 L767.31 560.91 L767.33 560.86 L767.38 560.89 L767.39 560.90 L767.40 560.94 L767.39 561.00 L767.40 561.01 L767.43 561.01 L767.45 560.99 L767.46 560.96 L767.48 560.94 L767.51 560.93 L767.54 560.93 L767.57 560.94 L767.60 560.96 L767.60 560.99 L767.66 560.94 L767.69 560.93 L767.70 560.97 L767.72 560.99 L767.75 561.01 L767.78 561.03 L767.78 561.05 L767.77 561.07 L767.77 561.08 L767.76 561.09 L767.77 561.11 L767.79 561.13 L767.79 561.14 L767.80 561.20 L767.79 561.26 L767.78 561.32 L767.75 561.37 L767.72 561.34 L767.67 561.39 L767.63 561.39 L767.62 561.43 L767.62 561.44 L767.60 561.43 L767.58 561.42 L767.56 561.43 L767.55 561.44 L767.54 561.42 L767.51 561.37 L767.50 561.34 L767.50 561.31 L767.51 561.29 L767.50 561.27 L767.48 561.25 L767.47 561.22 L767.47 561.19 L767.47 561.16 L767.44 561.15 L767.41 561.16 L767.40 561.18 L767.40 561.21 L767.43 561.23 L767.40 561.28 L767.40 561.34 L767.42 561.40 L767.49 561.47 L767.48 561.48 L767.43 561.47 L767.29 561.47 L767.26 561.46 L767.21 561.42 L767.16 561.43 L767.14 561.41 L767.09 561.37 L767.01 561.31 L767.01 561.28 L767.05 561.24 L767.01 561.24 L766.95 561.26 L766.78 561.28 L766.72 561.30 L766.60 561.31 L766.41 561.36 L766.32 561.37 L766.30 561.36 L766.31 561.34 L766.33 561.32 L766.36 561.32 L766.42 561.31 L766.74 561.23 L766.77 561.23 L766.80 561.22 L766.79 561.20 L766.73 561.17 L766.70 561.17 L766.63 561.18 L766.60 561.17 L766.58 561.15 L766.56 561.12 L766.54 561.11 L766.48 561.09 L766.43 561.10 L766.37 561.11 L766.31 561.12 L766.28 561.14 L766.26 561.20 L766.25 561.26 L766.25 561.31 L766.25 561.34 L766.26 561.36 L766.25 561.37 L766.22 561.39 L766.20 561.40 L766.02 561.42 L766.00 561.42 L765.95 561.43 L765.92 561.46 L765.82 561.48 L765.77 561.51 L765.55 561.59 L765.14 561.81 L765.08 561.81 L765.04 561.81 L765.01 561.81 L764.98 561.82 L764.83 561.90 L764.75 561.92 L764.71 561.93 L764.69 561.94 L764.66 561.96 L764.64 561.98 L764.58 561.99 L764.52 562.02 L764.50 562.03 L764.47 562.04 L764.43 562.07 L764.41 562.09 L764.39 562.10 L764.34 562.12 L764.31 562.13 L764.18 562.24 L764.13 562.26 L764.09 562.25 L764.05 562.26 L764.03 562.27 L764.01 562.30 L764.00 562.32 L763.89 562.47 L763.88 562.50 L763.88 562.62 L763.87 562.66 L763.84 562.69 L763.78 562.74 L763.77 562.76 L763.77 562.79 L763.77 562.81 L763.74 562.82 L763.72 562.82 L763.66 562.85 L763.71 562.89 L763.72 562.96 L763.72 563.12 L763.75 563.22 L763.75 563.26 L763.74 563.30 L763.71 563.32 L763.68 563.33 L763.66 563.35 L763.72 563.36 L763.74 563.41 L763.74 563.48 L763.72 563.61 L763.70 563.65 L763.68 563.68 L763.66 563.71 L763.64 563.74 L763.63 563.78 L763.49 563.97 L763.25 564.14 L763.13 564.32 L763.08 564.47 L763.06 564.52 L763.03 564.57 L763.06 564.60 L763.10 564.62 L763.09 564.67 L763.01 564.74 L762.99 564.76 L762.99 564.79 L763.00 564.81 L763.01 564.84 L762.98 564.88 L762.92 564.91 L762.87 564.94 L762.89 564.99 L762.86 565.02 L762.84 565.03 L762.81 565.03 L762.77 565.01 L762.78 565.03 L762.78 565.05 L762.80 565.09 L762.77 565.12 L762.74 565.12 L762.66 565.12 L762.62 565.13 L762.62 565.16 L762.65 565.18 L762.70 565.18 L762.65 565.26 L762.63 565.27 L762.61 565.27 L762.58 565.29 L762.54 565.31 L762.52 565.32 L762.51 565.31 L762.50 565.32 L762.49 565.33 L762.49 565.35 L762.50 565.37 L762.50 565.37 L762.52 565.37 L762.56 565.38 L762.58 565.39 L762.61 565.40 L762.64 565.37 L762.68 565.39 L762.74 565.42 L762.78 565.44 L762.78 565.47 L762.74 565.49 L762.64 565.50 L762.60 565.52 L762.55 565.56 L762.54 565.58 L762.52 565.58 L762.50 565.58 L762.47 565.59 L762.45 565.65 L762.37 565.68 L762.35 565.72 L762.39 565.71 L762.46 565.69 L762.53 565.65 L762.63 565.63 L762.66 565.61 L762.69 565.56 L762.71 565.53 L762.74 565.52 L762.77 565.51 L762.79 565.50 L762.82 565.47 L762.84 565.50 L762.85 565.53 L762.84 565.65 L762.82 565.68 L762.79 565.69 L762.74 565.69 L762.70 565.69 L762.69 565.69 L762.67 565.70 L762.66 565.72 L762.66 565.73 L762.65 565.74 L762.21 565.78 L762.03 565.82 L761.87 565.90 L761.75 566.03 L761.72 566.08 L761.71 566.10 L761.70 566.17 L761.68 566.20 L761.68 566.22 L761.66 566.27 L761.62 566.31 L761.58 566.34 L761.53 566.36 L761.42 566.40 L761.37 566.42 L761.32 566.46 L761.28 566.50 L761.24 566.53 L760.95 566.68 L760.87 566.75 L760.85 566.86 L760.85 566.92 L760.84 566.94 L760.78 566.95 L760.73 566.98 L760.71 566.99 L760.68 566.98 L760.61 566.96 L760.57 566.96 L760.53 566.96 L760.47 566.98 L760.44 566.99 L760.47 567.00 L760.64 567.01 L760.60 567.08 L760.53 567.11 L760.46 567.13 L760.38 567.17 L760.35 567.17 L760.30 567.16 L760.24 567.14 L760.20 567.16 L760.17 567.18 L760.06 567.22 L760.07 567.23 L760.09 567.26 L760.10 567.27 L760.04 567.28 L759.97 567.27 L759.91 567.26 L759.87 567.31 L759.82 567.29 L759.81 567.28 L759.74 567.27 L759.70 567.28 L759.67 567.29 L759.63 567.32 L759.60 567.34 L759.57 567.34 L759.50 567.35 L759.47 567.35 L759.44 567.33 L759.45 567.28 L759.45 567.26 L759.44 567.26 L759.42 567.25 L759.40 567.27 L759.40 567.32 L759.37 567.33 L759.37 567.34 L759.36 567.35 L759.35 567.36 L759.28 567.36 L759.25 567.35 L759.22 567.33 L759.21 567.31 L759.20 567.30 L759.17 567.30 L759.17 567.32 L759.17 567.34 L759.17 567.37 L759.11 567.39 L759.04 567.38 L758.96 567.35 L758.90 567.34 L758.84 567.34 L758.80 567.34 L758.77 567.31 L758.72 567.18 L758.71 567.16 L758.70 567.13 L758.67 567.13 L758.61 567.15 L758.39 567.18 L758.32 567.18 L758.34 567.16 L758.36 567.15 L758.39 567.15 L758.42 567.14 L758.38 567.12 L758.32 567.11 L758.22 567.11 L758.23 567.14 L758.26 567.16 L758.27 567.17 L758.25 567.19 L758.26 567.20 L758.27 567.22 L758.28 567.22 L758.16 567.25 L757.79 567.22 L757.82 567.19 L757.83 567.18 L757.85 567.17 L757.88 567.16 L757.96 567.16 L757.98 567.17 L758.01 567.19 L758.07 567.20 L758.11 567.19 L758.06 567.15 L758.00 567.13 L757.81 567.14 L757.72 567.10 L757.68 567.09 L757.66 567.13 L757.68 567.17 L757.74 567.23 L757.77 567.27 L757.71 567.26 L757.63 567.20 L757.58 567.18 L757.57 567.17 L757.57 567.15 L757.56 567.13 L757.50 567.12 L757.49 567.11 L757.48 567.09 L757.47 567.06 L757.54 567.05 L757.56 567.05 L757.58 567.05 L757.59 567.06 L757.59 567.07 L757.60 567.08 L757.61 567.07 L757.72 567.01 L757.74 566.95 L757.73 566.88 L757.69 566.83 L757.63 566.83 L757.65 566.88 L757.63 566.93 L757.59 566.96 L757.55 566.96 L757.52 566.93 L757.48 566.84 L757.36 566.70 L757.33 566.67 L757.27 566.66 L757.06 566.68 L757.03 566.70 L757.03 566.72 L757.03 566.75 L757.03 566.76 L757.00 566.75 L756.96 566.74 L756.92 566.73 L756.90 566.74 L756.83 566.73 L756.79 566.73 L756.77 566.75 L756.76 566.77 L756.74 566.78 L756.71 566.78 L756.69 566.77 L756.66 566.76 L756.64 566.76 L756.63 566.76 L756.60 566.78 L756.58 566.79 L756.56 566.78 L756.54 566.76 L756.52 566.74 L756.49 566.74 L756.48 566.72 L756.45 566.68 L756.42 566.66 L756.37 566.64 L756.35 566.63 L756.38 566.61 L756.41 566.61 L756.43 566.59 L756.45 566.57 L756.34 566.47 L756.29 566.41 L756.29 566.36 L756.26 566.34 L756.17 566.34 L756.13 566.33 L756.03 566.28 L756.00 566.28 L755.75 566.26 L755.74 566.26 L755.72 566.28 L755.72 566.31 L755.71 566.33 L755.69 566.36 L755.68 566.39 L755.68 566.42 L755.66 566.45 L755.64 566.48 L755.60 566.48 L755.53 566.48 L755.50 566.49 L755.43 566.52 L755.40 566.52 L755.36 566.52 L755.27 566.50 L755.22 566.49 L755.19 566.50 L755.17 566.51 L755.16 566.52 L755.14 566.52 L755.13 566.51 L755.12 566.50 L755.12 566.49 L755.09 566.49 L754.95 566.45 L754.92 566.45 L754.88 566.45 L754.85 566.45 L754.70 566.42 L754.41 566.43 L754.27 566.41 L754.14 566.35 L754.08 566.29 L754.07 566.27 L754.08 566.25 L754.14 566.24 L754.17 566.22 L754.25 566.16 L754.32 566.09 L754.38 565.99 L754.41 565.94 L754.46 565.93 L754.52 565.91 L754.62 565.86 L754.67 565.84 L754.67 565.82 L754.62 565.83 L754.49 565.88 L754.40 565.91 L754.35 565.93 L754.32 565.95 L754.31 565.98 L754.32 565.99 L754.32 566.01 L754.32 566.03 L754.31 566.03 L754.25 566.08 L754.24 566.09 L754.24 566.09 L754.22 566.07 L754.22 566.06 L754.23 566.04 L754.23 566.03 L754.20 566.01 L754.18 566.08 L754.11 566.11 L753.95 566.13 L753.95 566.09 L753.96 566.06 L753.98 566.04 L754.01 566.06 L754.02 565.99 L754.04 565.94 L754.09 565.91 L754.14 565.88 L754.27 565.86 L754.33 565.84 L754.36 565.79 L754.29 565.82 L754.22 565.84 L754.19 565.83 L754.15 565.83 L754.11 565.81 L754.11 565.80 L754.22 565.70 L754.24 565.68 L754.25 565.66 L754.23 565.64 L754.20 565.65 L754.18 565.66 L754.16 565.68 L754.15 565.69 L754.14 565.70 L754.13 565.72 L754.13 565.73 L754.09 565.75 L754.08 565.76 L754.02 565.82 L754.01 565.84 L753.98 565.87 L753.78 565.91 L753.75 565.92 L753.70 565.96 L753.69 565.97 L753.67 565.96 L753.65 565.93 L753.64 565.91 L753.64 565.89 L753.65 565.86 L753.65 565.84 L753.64 565.79 L753.64 565.60 L753.65 565.55 L753.69 565.53 L753.82 565.52 L753.97 565.52 L753.95 565.53 L753.97 565.55 L754.02 565.52 L754.09 565.50 L754.22 565.50 L754.27 565.50 L754.39 565.47 L754.44 565.46 L754.51 565.47 L754.54 565.46 L754.56 565.45 L754.58 565.43 L754.60 565.42 L754.64 565.40 L754.75 565.37 L754.79 565.34 L754.82 565.30 L754.73 565.32 L754.69 565.33 L754.54 565.31 L754.34 565.35 L754.29 565.34 L754.33 565.28 L754.36 565.26 L754.39 565.24 L754.51 565.22 L754.54 565.20 L754.33 565.22 L754.30 565.21 L754.28 565.16 L754.28 565.11 L754.31 565.08 L754.36 565.06 L754.41 565.05 L754.52 565.01 L754.58 565.01 L754.70 565.03 L754.75 565.04 L754.80 565.01 L754.73 565.01 L754.70 565.00 L754.67 564.98 L754.81 564.95 L754.87 564.91 L754.89 564.86 L754.61 564.96 L754.43 564.99 L754.31 565.04 L754.29 565.04 L754.24 565.05 L754.22 565.05 L754.18 565.05 L754.16 565.04 L754.14 565.00 L754.14 564.97 L754.22 564.85 L754.26 564.72 L754.28 564.68 L754.37 564.65 L754.48 564.68 L754.58 564.73 L754.67 564.74 L754.65 564.69 L754.61 564.64 L754.58 564.62 L754.55 564.67 L754.52 564.65 L754.43 564.62 L754.39 564.60 L754.37 564.57 L754.36 564.55 L754.37 564.52 L754.40 564.49 L754.47 564.43 L754.52 564.41 L754.54 564.41 L754.56 564.45 L754.60 564.48 L754.69 564.51 L754.67 564.52 L754.65 564.53 L754.64 564.55 L754.63 564.57 L754.70 564.56 L754.76 564.54 L754.81 564.54 L754.87 564.58 L754.89 564.60 L754.90 564.62 L754.89 564.64 L754.87 564.67 L754.82 564.70 L754.80 564.72 L754.82 564.73 L754.89 564.73 L754.91 564.71 L754.94 564.69 L754.96 564.66 L754.96 564.64 L754.98 564.62 L755.04 564.66 L755.06 564.67 L755.09 564.69 L755.10 564.74 L755.14 564.81 L755.15 564.81 L755.15 564.80 L755.17 564.81 L755.20 564.82 L755.21 564.83 L755.20 564.76 L755.09 564.66 L754.87 564.51 L754.90 564.48 L754.94 564.46 L755.16 564.42 L755.20 564.42 L755.22 564.44 L755.25 564.49 L755.28 564.51 L755.32 564.52 L755.37 564.52 L755.41 564.51 L755.43 564.48 L755.40 564.47 L755.32 564.47 L755.29 564.46 L755.27 564.44 L755.26 564.43 L755.27 564.39 L755.28 564.36 L755.30 564.35 L755.30 564.35 L755.22 564.35 L755.14 564.38 L755.08 564.39 L754.91 564.40 L754.87 564.39 L754.87 564.36 L754.85 564.32 L754.84 564.27 L754.80 564.25 L754.79 564.22 L754.78 564.13 L754.80 564.09 L754.85 564.07 L754.91 564.07 L754.96 564.10 L755.04 564.18 L755.07 564.20 L755.10 564.20 L755.14 564.20 L755.15 564.19 L755.14 564.18 L755.06 564.13 L754.99 564.06 L754.94 564.03 L754.89 564.03 L754.97 563.93 L755.02 563.89 L755.07 563.90 L755.15 564.00 L755.16 564.03 L755.15 564.06 L755.16 564.08 L755.18 564.10 L755.19 564.07 L755.19 564.03 L755.20 564.01 L755.23 564.00 L755.36 564.01 L755.32 563.99 L755.20 563.95 L755.16 563.93 L755.12 563.90 L755.10 563.86 L755.09 563.83 L755.12 563.79 L755.17 563.78 L755.23 563.79 L755.29 563.81 L755.34 563.82 L755.39 563.84 L755.44 563.87 L755.49 563.89 L755.52 563.87 L755.48 563.86 L755.22 563.75 L755.20 563.73 L755.21 563.70 L755.24 563.68 L755.35 563.61 L755.38 563.60 L755.42 563.59 L755.47 563.59 L755.46 563.58 L755.44 563.56 L755.43 563.55 L755.59 563.48 L755.66 563.47 L755.69 563.54 L755.70 563.55 L755.71 563.56 L755.73 563.58 L755.74 563.60 L755.73 563.62 L755.71 563.66 L755.71 563.68 L755.72 563.71 L755.75 563.73 L755.77 563.75 L755.75 563.79 L755.83 563.80 L755.87 563.80 L755.86 563.77 L755.85 563.76 L755.84 563.75 L755.84 563.73 L755.84 563.71 L755.83 563.70 L755.79 563.67 L755.78 563.65 L755.79 563.62 L755.79 563.58 L755.77 563.55 L755.76 563.53 L755.73 563.46 L755.72 563.44 L755.75 563.36 L755.81 563.32 L755.89 563.31 L755.95 563.35 L755.97 563.38 L755.96 563.40 L755.95 563.41 L755.93 563.44 L755.92 563.48 L755.92 563.51 L755.94 563.54 L755.98 563.56 L755.99 563.51 L756.00 563.48 L756.03 563.45 L756.04 563.41 L756.04 563.37 L755.98 563.33 L755.97 563.29 L755.95 563.26 L755.94 563.25 L755.98 563.23 L756.00 563.22 L756.03 563.21 L756.05 563.22 L756.09 563.26 L756.12 563.28 L756.16 563.30 L756.22 563.31 L756.18 563.30 L756.10 563.23 L756.05 563.19 L756.04 563.17 L756.06 563.14 L756.09 563.12 L756.20 563.09 L756.22 563.08 L756.24 563.05 L756.25 563.04 L756.26 563.03 L756.30 563.02 L756.31 563.01 L756.37 562.97 L756.44 562.95 L756.50 562.96 L756.59 563.02 L756.66 563.05 L756.69 563.07 L756.76 563.17 L756.77 563.14 L756.78 563.11 L756.77 563.08 L756.76 563.05 L756.75 563.04 L756.70 563.02 L756.64 562.98 L756.63 562.97 L756.62 562.97 L756.61 562.96 L756.60 562.95 L756.59 562.93 L756.60 562.87 L756.58 562.81 L756.57 562.78 L756.55 562.76 L756.60 562.71 L756.78 562.56 L756.84 562.52 L756.92 562.48 L756.97 562.43 L756.96 562.36 L757.15 562.36 L757.17 562.36 L757.20 562.32 L757.20 562.29 L757.19 562.28 L757.17 562.26 L757.12 562.25 L757.12 562.23 L757.22 562.21 L757.26 562.19 L757.34 562.12 L757.47 562.06 L757.56 562.00 L757.63 561.93 L757.63 561.92 L757.63 561.90 L757.64 561.87 L757.65 561.85 L757.68 561.83 L757.70 561.81 L757.73 561.80 L757.75 561.79 L757.74 561.79 L757.69 561.76 L757.73 561.75 L757.78 561.74 L757.91 561.73 L757.99 561.72 L758.06 561.69 L758.10 561.67 L758.12 561.66 L758.15 561.64 L758.21 561.65 L758.23 561.64 L758.28 561.61 L758.31 561.62 L758.35 561.66 L758.39 561.69 L758.49 561.70 L758.61 561.68 L758.73 561.62 L758.86 561.53 L758.96 561.48 L759.00 561.45 L759.04 561.43 L759.17 561.38 L759.21 561.35 L759.22 561.34 L759.22 561.32 L759.23 561.30 L759.24 561.29 L759.30 561.26 L759.32 561.25 L759.36 561.24 L759.44 561.17 L759.48 561.15 L759.52 561.14 L759.68 561.06 L759.78 561.04 L759.84 561.01 L759.87 560.98 L759.88 560.97 L759.90 560.95 L759.93 560.94 L759.95 560.93 L760.00 560.93 L760.02 560.93 L760.04 560.93 L760.06 560.93 L760.09 560.92 L760.12 560.89 L760.20 560.88 L760.27 560.84 L760.36 560.85 L760.41 560.85 L760.52 560.78 L760.56 560.77 L760.59 560.76 L760.67 560.68 L760.70 560.65 L760.71 560.63 L760.71 560.60 L760.76 560.56 L760.81 560.55 L760.83 560.53 L760.84 560.51 L760.85 560.46 L760.90 560.42 L760.94 560.39 L761.23 560.29 L761.25 560.25 L761.27 560.20 L761.32 560.19 L761.35 560.16 L761.37 560.13 L761.39 560.10 L761.41 560.09 L761.46 560.07 L761.51 560.04 L761.54 560.03 L761.58 560.03 L761.60 560.03 L761.65 560.05 L761.67 560.06 L761.81 559.90 L761.74 559.89 L761.69 559.93 L761.64 559.99 L761.59 560.01 L761.63 559.92 L761.70 559.86 L761.76 559.83 L761.78 559.79 L761.78 559.78 L761.94 559.77 L761.98 559.75 L762.00 559.74 L761.98 559.72 L762.02 559.70 L762.05 559.67 L762.08 559.65 L762.13 559.66 L762.14 559.63 L762.16 559.62 L762.17 559.60 L762.26 559.57 L762.45 559.51 L762.53 559.47 L762.60 559.46 L762.63 559.46 L762.65 559.45 L762.67 559.44 L762.70 559.42 L762.72 559.40 L762.80 559.37 L762.84 559.34 L762.92 559.26 L762.95 559.24 L762.99 559.22 L763.17 558.98 L763.20 558.96 L763.22 558.96 L763.26 558.94 L763.30 558.92 L763.32 558.90 L763.35 558.86 L763.37 558.84 L763.39 558.83 L763.43 558.81 L763.46 558.77 L763.52 558.70 L763.55 558.68 L763.71 558.45 L763.75 558.41 L763.77 558.38 L763.78 558.31 L763.79 558.26 L763.90 558.14 L763.94 558.05 L764.00 557.73 L764.04 557.66 L764.05 557.61 L764.07 557.56 L764.08 557.54 L764.15 557.47 L764.18 557.43 L764.20 557.39 L764.24 557.25 L764.27 557.21 L764.29 557.14 L764.33 557.06 L764.32 557.04 L764.30 557.05 L764.29 557.04 L764.29 557.02 L764.29 556.92 L764.32 556.90 L764.45 556.92 L764.60 556.90 L764.64 556.91 L764.65 556.90 L764.76 556.87 L764.96 556.77 L765.01 556.73 L765.03 556.71 L765.06 556.71 L765.09 556.71 L765.11 556.71 L765.13 556.66 L765.15 556.65 L765.17 556.63 L765.19 556.62 L765.22 556.58 L765.30 556.45 L765.31 556.44 L765.32 556.44 L765.32 556.43 L765.33 556.39 L765.33 556.38 L765.34 556.38 L765.35 556.37 L765.37 556.35 L765.38 556.33 L765.38 556.31 L765.39 556.28 L765.41 556.25 L765.47 556.22 L765.53 556.19 L765.57 556.17 L765.57 556.15 L765.56 556.13 L765.57 556.11 L765.60 556.07 L765.60 556.05 L765.60 556.00 L765.61 555.95 L765.62 555.93 L765.64 555.93 L765.65 555.93 L765.67 555.92 L765.69 555.91 L765.72 555.91 L765.68 555.85 L765.67 555.83 L765.65 555.59 L765.65 555.56 L765.67 555.52 L765.67 555.50 L765.66 555.39 L765.66 555.15 L765.65 555.09 L765.65 555.05 L765.67 555.03 L765.70 555.03 L765.71 555.03 L765.73 555.01 L765.76 554.97 L765.81 554.92 L765.81 554.91 L765.82 554.89 L765.82 554.88 L765.84 554.87 L765.85 554.86 L765.87 554.86 L765.88 554.86 L765.89 554.85 L765.89 554.84 L765.90 554.82 L765.92 554.82 L765.92 554.82 L765.95 554.82 L765.96 554.82 L765.99 554.80 L766.05 554.76 L766.08 554.76 L766.09 554.75 L766.20 554.69 L766.41 554.49 L766.50 554.42 L766.58 554.39 L766.55 554.46 L766.54 554.49 L766.57 554.50 L766.59 554.49 L766.60 554.47 L766.61 554.45 L766.65 554.46 L766.67 554.46 L766.68 554.45 L766.70 554.44 L766.69 554.41 L766.75 554.38 L766.76 554.36 L766.73 554.34 L766.72 554.34 L766.70 554.36 L766.67 554.37 L766.64 554.37 L766.61 554.36 L766.69 554.29 L766.79 554.25 L767.21 554.23 L767.35 554.24 L767.48 554.27 L767.55 554.28 L767.50 554.29 L767.04 554.26 L767.00 554.27 L766.98 554.29 L766.96 554.34 L766.94 554.42 L766.92 554.46 L766.89 554.48 L766.91 554.53 L766.89 554.54 L766.87 554.54 L766.83 554.54 L766.86 554.60 L766.87 554.60 L766.91 554.62 L766.92 554.63 L766.92 554.66 L766.89 554.72 L766.90 554.76 L766.92 554.75 L766.96 554.73 L766.99 554.79 L767.06 554.85 L767.25 554.96 L767.27 554.97 L767.30 554.96 L767.35 554.93 L767.36 554.92 L767.39 554.92 L767.40 554.91 L767.40 554.89 L767.40 554.88 L767.43 554.85 L767.45 554.85 L767.47 554.88 L767.50 554.84 L767.53 554.82 L767.56 554.83 L767.59 554.86 L767.60 554.89 L767.60 554.91 L767.59 554.95 L767.60 554.97 L767.60 554.99 L767.57 555.01 L767.61 555.01 L767.64 555.01 L767.67 555.02 L767.69 555.05 L767.68 555.06 L767.66 555.15 L767.67 555.19 L767.68 555.21 L767.67 555.23 L767.65 555.25 L767.60 555.29 L767.55 555.33 L767.57 555.34 L767.58 555.34 L767.60 555.34 L767.62 555.33 L767.64 555.43 L767.65 555.47 L767.66 555.50 L767.68 555.53 L767.70 555.56 L767.69 555.59 L767.68 555.57 L767.67 555.55 L767.65 555.54 L767.63 555.53 L767.62 555.61 L767.63 555.63 L767.66 555.65 L767.67 555.67 L767.68 555.69 L767.69 555.69 L767.71 555.67 L767.73 555.69 L767.75 555.78 L767.78 555.84 L767.78 555.85 L767.77 555.87 L767.73 555.88 L767.72 555.90 L767.74 555.93 L767.77 555.95 L767.82 555.95 L767.92 555.96 L767.96 555.95 L768.01 555.93 L768.08 555.88 L768.16 555.85 L768.19 555.82 L768.28 555.73 L768.41 555.63 L768.46 555.61 L768.49 555.58 L768.51 555.58 L768.52 555.58 L768.52 555.60 L768.52 555.62 L768.51 555.63 L768.58 555.61 L768.62 555.59 L768.65 555.57 L768.68 555.52 L768.70 555.50 L768.72 555.50 L768.74 555.51 L768.75 555.51 L768.77 555.49 L768.75 555.47 L768.77 555.44 L768.81 555.41 L768.84 555.40 L768.87 555.41 L768.91 555.44 L768.93 555.48 L768.93 555.52 L768.95 555.52 L768.96 555.50 L768.97 555.49 L768.98 555.50 L768.99 555.52 L769.02 555.50 L768.99 555.45 L769.02 555.43 L769.08 555.41 L769.13 555.39 L769.14 555.37 L769.14 555.35 L769.13 555.33 L769.10 555.33 L769.02 555.37 L769.00 555.36 L769.00 555.34 L769.01 555.32 L769.04 555.29 L769.06 555.28 L769.11 555.26 L769.13 555.25 L769.15 555.24 L769.26 555.23 L769.27 555.22 L769.32 555.16 L769.37 555.13 L769.36 555.23 L769.41 555.24 L769.42 555.23 L769.49 555.18 L769.49 555.17 L769.50 555.14 L769.50 555.14 L769.51 555.13 L769.54 555.12 L769.65 555.08 L769.67 555.08 L769.69 555.08 L769.72 555.08 L769.73 555.09 L769.76 555.15 L769.72 555.16 L769.62 555.14 L769.63 555.16 L769.62 555.18 L769.60 555.20 L769.59 555.23 L769.56 555.22 L769.54 555.22 L769.52 555.22 L769.50 555.24 L769.51 555.25 L769.52 555.26 L769.52 555.27 L769.54 555.27 L769.51 555.29 L769.44 555.31 L769.37 555.31 L769.34 555.29 L769.31 555.29 L769.25 555.29 L769.21 555.32 L769.27 555.36 L769.24 555.37 L769.22 555.39 L769.22 555.41 L769.25 555.42 L769.24 555.44 L769.23 555.47 L769.21 555.49 L769.19 555.50 L769.21 555.52 L769.24 555.53 L769.26 555.51 L769.27 555.48 L769.32 555.43 L769.32 555.42 L769.46 555.40 L769.53 555.39 L769.59 555.42 L769.56 555.41 L769.55 555.42 L769.53 555.43 L769.53 555.45 L769.52 555.47 L769.51 555.47 L769.49 555.46 L769.47 555.46 L769.46 555.46 L769.45 555.45 L769.43 555.45 L769.43 555.47 L769.43 555.47 L769.44 555.49 L769.44 555.50 L769.44 555.52 L769.43 555.53 L769.42 555.53 L769.40 555.52 L769.38 555.57 L769.35 555.58 L769.32 555.59 L769.30 555.62 L769.33 555.62 L769.37 555.63 L769.40 555.66 L769.41 555.69 L769.41 555.71 L769.39 555.76 L769.38 555.78 L769.36 555.81 L769.30 555.83 L769.18 555.85 L769.19 555.88 L769.20 555.90 L769.22 555.91 L769.24 555.91 L769.46 555.81 L769.54 555.80 L769.54 555.78 L769.51 555.77 L769.48 555.77 L769.46 555.77 L769.44 555.75 L769.53 555.74 L769.58 555.74 L769.61 555.76 L769.64 555.77 L769.70 555.76 L769.75 555.75 L769.78 555.74 L769.77 555.73 L769.73 555.71 L769.86 555.72 L769.92 555.70 L769.97 555.66 L769.73 555.67 L769.69 555.68 L769.69 555.68 L769.69 555.69 L769.68 555.70 L769.66 555.71 L769.65 555.71 L769.64 555.70 L769.63 555.70 L769.62 555.69 L769.63 555.66 L769.52 555.70 L769.46 555.70 L769.44 555.63 L769.45 555.60 L769.48 555.58 L769.50 555.57 L769.53 555.55 L769.53 555.53 L769.53 555.52 L769.53 555.51 L769.54 555.50 L769.56 555.50 L769.57 555.49 L769.58 555.48 L769.57 555.46 L769.65 555.47 L769.63 555.51 L769.62 555.54 L769.63 555.60 L769.67 555.55 L769.69 555.51 L769.72 555.49 L769.78 555.49 L769.74 555.45 L769.73 555.43 L769.77 555.38 L769.77 555.35 L769.75 555.33 L769.72 555.33 L769.71 555.35 L769.70 555.38 L769.68 555.40 L769.65 555.39 L769.59 555.34 L769.57 555.31 L769.65 555.31 L769.63 555.29 L769.63 555.27 L769.64 555.26 L769.68 555.27 L769.68 555.22 L769.72 555.24 L769.79 555.30 L769.84 555.32 L769.88 555.33 L769.92 555.32 L769.96 555.28 L769.99 555.31 L770.03 555.30 L770.05 555.27 L770.04 555.23 L770.07 555.23 L770.11 555.26 L770.13 555.29 L770.14 555.32 L770.14 555.35 L770.14 555.36 L770.13 555.37 L770.08 555.37 L770.07 555.38 L770.08 555.40 L770.09 555.42 L770.12 555.44 L770.16 555.43 L770.20 555.40 L770.25 555.36 L770.33 555.29 L770.36 555.28 L770.38 555.31 L770.36 555.35 L770.25 555.48 L770.24 555.50 L770.24 555.54 L770.23 555.56 L770.22 555.56 L770.19 555.57 L770.17 555.59 L770.17 555.59 L770.16 555.60 L770.14 555.60 L770.12 555.60 L770.11 555.58 L770.11 555.50 L770.11 555.49 L770.09 555.50 L770.08 555.53 L770.07 555.55 L770.04 555.54 L770.04 555.56 L770.05 555.58 L770.07 555.60 L770.12 555.64 L770.13 555.66 L770.14 555.69 L770.13 555.70 L770.11 555.70 L770.10 555.71 L770.10 555.70 L770.06 555.72 L770.04 555.74 L770.03 555.75 L770.01 555.76 L769.98 555.77 L769.87 555.77 L769.81 555.78 L769.78 555.81 L769.75 555.80 L769.73 555.79 L769.71 555.80 L769.69 555.82 L769.66 555.81 L769.62 555.82 L769.58 555.84 L769.55 555.86 L769.54 555.89 L769.59 555.89 L769.65 555.87 L769.68 555.86 L769.72 555.87 L769.75 555.86 L769.78 555.84 L769.82 555.82 L769.85 555.82 L769.87 555.83 L769.89 555.83 L769.93 555.81 L769.98 555.80 L770.00 555.80 L770.02 555.82 L770.05 555.83 L770.08 555.85 L770.11 555.85 L770.13 555.85 L770.16 555.83 L770.19 555.82 L770.24 555.82 L770.29 555.80 L770.38 555.75 L770.35 555.80 L770.32 555.85 L770.30 555.87 L770.26 555.90 L770.24 555.92 L770.23 555.94 L770.22 555.96 L770.20 555.98 L770.14 555.99 L770.09 556.02 L770.06 556.03 L770.07 556.01 L770.10 555.96 L770.11 555.95 L770.09 555.94 L770.04 555.98 L770.01 555.97 L770.03 555.94 L769.97 555.97 L769.92 556.03 L769.89 556.09 L769.85 556.14 L769.80 556.20 L769.79 556.22 L769.79 556.26 L769.82 556.33 L769.82 556.36 L769.81 556.39 L769.85 556.40 L769.87 556.43 L769.88 556.45 L769.87 556.47 L769.88 556.48 L769.90 556.49 L769.93 556.48 L769.94 556.44 L769.93 556.43 L769.91 556.38 L769.90 556.35 L769.93 556.37 L770.05 556.52 L770.05 556.55 L770.06 556.58 L770.07 556.60 L770.09 556.64 L770.09 556.66 L770.13 556.78 L770.14 556.79 L770.16 556.83 L770.21 556.85 L770.26 556.86 L770.30 556.85 L770.29 556.90 L770.14 557.12 L770.10 557.16 L769.86 557.36 L769.69 557.49 L769.63 557.56 L769.60 557.61 L769.59 557.66 L769.59 557.72 L769.58 557.76 L769.56 557.78 L769.55 557.80 L769.54 557.83 L769.53 557.84 L769.49 557.88 L769.45 557.93 L769.41 557.96 L769.31 558.01 L769.27 558.04 L769.20 558.12 L769.19 558.13 L769.17 558.13 L769.14 558.13 L769.12 558.17 L769.11 558.18 L769.09 558.20 L769.07 558.21 L769.05 558.23 L769.05 558.26 L769.06 558.28 L769.09 558.31 L769.11 558.34 L769.09 558.35 L769.08 558.37 L769.03 558.32 L769.01 558.31 L768.98 558.31 L768.95 558.31 L768.90 558.34 L768.88 558.35 L768.85 558.37 L768.74 558.47 L768.70 558.55 L768.67 558.64 L768.62 558.72 L768.52 558.76 L768.52 558.77 L768.54 558.77 L768.55 558.78 L768.56 558.78 L768.57 558.79 L768.40 559.05 L768.38 559.13 L768.35 559.17 L768.31 559.21 L768.24 559.23 L768.24 559.26 L768.24 559.30 L768.24 559.32 L768.25 559.33 L768.25 559.35 L768.23 559.37 L768.21 559.39 L768.19 559.40 L768.18 559.41 L768.17 559.44 L768.16 559.45 L768.14 559.47 L768.05 559.51 L768.03 559.52 L767.97 559.52 L767.88 559.56 L767.87 559.58 L767.86 559.60 L767.85 559.62 L767.83 559.63 L767.73 559.69 L767.44 559.75 L767.37 559.77 L767.31 559.82 L767.15 559.91 L767.12 559.95 L767.07 560.04 L767.02 560.10 L767.01 560.12 L767.02 560.15 Z" fill="#1E417C"/>
  <path d="M772.17 546.22 L772.22 546.20 L772.23 546.20 L772.25 546.23 L772.27 546.26 L772.25 546.27 L772.22 546.27 L772.20 546.29 L772.20 546.31 L772.21 546.36 L772.22 546.38 L772.21 546.39 L772.20 546.40 L772.17 546.40 L772.16 546.40 L772.11 546.41 L772.07 546.41 L772.02 546.41 L771.94 546.38 L771.95 546.36 L771.91 546.33 L771.88 546.33 L771.86 546.34 L771.84 546.35 L771.83 546.33 L771.83 546.29 L771.85 546.26 L771.87 546.26 L771.98 546.26 L772.00 546.27 L772.02 546.30 L772.04 546.31 L772.08 546.29 L772.17 546.22 Z" fill="#1E417C"/>
  <path d="M773.62 545.97 L773.60 545.98 L773.59 545.98 L773.58 545.98 L773.56 545.98 L773.55 545.98 L773.54 545.98 L773.51 545.97 L773.51 545.96 L773.51 545.95 L773.51 545.94 L773.52 545.93 L773.52 545.93 L773.52 545.92 L773.51 545.91 L773.50 545.90 L773.48 545.90 L773.47 545.89 L773.46 545.87 L773.51 545.85 L773.53 545.87 L773.55 545.93 L773.58 545.93 L773.59 545.94 L773.61 545.95 L773.62 545.97 Z" fill="#1E417C"/>
  <path d="M771.50 545.48 L771.53 545.46 L771.56 545.47 L771.59 545.50 L771.60 545.53 L771.62 545.58 L771.61 545.60 L771.58 545.61 L771.50 545.60 L771.48 545.60 L771.51 545.58 L771.52 545.55 L771.49 545.50 L771.50 545.48 Z" fill="#1E417C"/>
  <path d="M772.10 545.02 L772.11 545.03 L772.13 545.05 L772.14 545.07 L772.14 545.10 L772.12 545.11 L772.09 545.12 L772.06 545.13 L772.03 545.13 L771.98 545.08 L772.02 545.04 L772.07 545.01 L772.10 545.02 Z" fill="#1E417C"/>
  <path d="M772.96 545.24 L773.00 545.29 L773.02 545.30 L772.98 545.37 L772.96 545.39 L772.93 545.39 L772.91 545.37 L772.90 545.35 L772.90 545.32 L772.89 545.30 L772.86 545.31 L772.83 545.32 L772.81 545.32 L772.80 545.30 L772.79 545.25 L772.78 545.23 L772.77 545.22 L772.75 545.22 L772.70 545.23 L772.70 545.21 L772.70 545.20 L772.70 545.18 L772.68 545.17 L772.63 545.18 L772.57 545.16 L772.52 545.12 L772.51 545.07 L772.56 545.12 L772.58 545.13 L772.60 545.11 L772.60 545.08 L772.59 545.05 L772.60 545.03 L772.62 544.99 L772.59 544.97 L772.55 544.96 L772.52 544.92 L772.59 544.92 L772.61 544.91 L772.64 544.89 L772.60 544.86 L772.59 544.81 L772.61 544.78 L772.67 544.77 L772.69 544.78 L772.71 544.79 L772.72 544.81 L772.73 544.84 L772.74 544.85 L772.80 544.89 L772.76 544.91 L772.76 544.93 L772.79 544.96 L772.85 544.99 L772.90 545.01 L772.92 545.01 L772.94 545.02 L772.93 545.04 L772.91 545.06 L772.90 545.07 L772.89 545.11 L772.88 545.13 L772.88 545.15 L772.91 545.19 L772.92 545.20 L772.93 545.21 L772.94 545.21 L772.95 545.21 L772.96 545.22 L772.96 545.22 L772.96 545.23 L772.96 545.24 Z" fill="#1E417C"/>
  <path d="M765.73 540.69 L765.74 540.69 L765.76 540.69 L765.76 540.70 L765.75 540.70 L765.73 540.71 L765.73 540.71 L765.74 540.73 L765.74 540.73 L765.75 540.74 L765.74 540.74 L765.73 540.74 L765.72 540.74 L765.70 540.73 L765.69 540.72 L765.68 540.71 L765.67 540.71 L765.67 540.69 L765.67 540.69 L765.68 540.69 L765.69 540.69 L765.72 540.70 L765.73 540.69 L765.73 540.69 Z" fill="#1E417C"/>
  <path d="M775.97 552.32 L775.99 552.36 L776.00 552.36 L776.02 552.37 L776.05 552.39 L776.11 552.42 L776.12 552.43 L776.15 552.44 L776.19 552.45 L776.26 552.44 L776.33 552.45 L776.32 552.48 L776.28 552.52 L776.26 552.58 L776.25 552.59 L776.23 552.61 L776.20 552.62 L776.15 552.64 L776.13 552.66 L776.08 552.80 L776.08 552.81 L776.09 552.82 L776.09 552.83 L776.08 552.85 L776.08 552.85 L776.04 552.86 L776.03 552.87 L776.00 552.91 L775.93 553.10 L775.89 553.18 L775.86 553.22 L775.85 553.24 L775.85 553.27 L775.85 553.32 L775.85 553.34 L775.85 553.35 L775.82 553.38 L775.81 553.39 L775.78 553.46 L775.73 553.54 L775.64 553.64 L775.55 553.70 L775.53 553.71 L775.51 553.70 L775.49 553.68 L775.47 553.67 L775.45 553.69 L775.39 553.75 L775.38 553.78 L775.37 553.82 L775.38 553.81 L775.40 553.79 L775.42 553.78 L775.44 553.78 L775.30 553.99 L775.28 554.15 L775.24 554.19 L775.19 554.20 L775.14 554.19 L775.10 554.20 L774.97 554.35 L774.85 554.45 L774.83 554.47 L774.83 554.50 L774.82 554.52 L774.81 554.54 L774.76 554.61 L774.75 554.61 L774.71 554.62 L774.70 554.63 L774.68 554.64 L774.60 554.80 L774.55 554.87 L774.48 555.01 L774.44 555.11 L774.41 555.15 L774.31 555.18 L774.26 555.22 L774.22 555.27 L774.20 555.31 L774.13 555.51 L774.09 555.59 L773.87 555.82 L773.55 556.02 L773.47 556.08 L773.36 556.14 L773.24 556.19 L772.77 556.47 L772.62 556.51 L772.59 556.53 L772.52 556.59 L772.48 556.60 L772.32 556.61 L772.28 556.60 L772.26 556.53 L772.23 556.51 L772.24 556.48 L772.23 556.46 L772.21 556.43 L772.20 556.41 L772.20 556.38 L772.23 556.22 L772.22 556.20 L772.20 556.18 L771.94 556.11 L771.89 556.10 L771.83 556.11 L771.78 556.14 L771.68 556.22 L771.66 556.24 L771.64 556.24 L771.60 556.23 L771.55 556.21 L771.53 556.18 L771.52 556.17 L771.55 556.13 L771.55 556.09 L771.53 556.05 L771.53 556.00 L771.55 555.96 L771.59 555.87 L771.60 555.82 L771.58 555.77 L771.52 555.76 L771.46 555.77 L771.41 555.78 L771.38 555.80 L771.36 555.82 L771.34 555.85 L771.33 555.88 L771.42 555.90 L771.46 555.92 L771.44 555.97 L771.43 555.99 L771.41 556.00 L771.38 556.01 L771.36 555.99 L771.34 555.99 L771.31 556.00 L771.29 556.02 L771.26 556.03 L771.16 556.01 L771.06 555.97 L770.98 555.91 L770.96 555.84 L770.98 555.80 L771.02 555.78 L771.12 555.77 L771.16 555.74 L771.24 555.67 L771.29 555.63 L771.34 555.54 L771.38 555.52 L771.42 555.50 L771.45 555.48 L771.47 555.48 L771.50 555.53 L771.53 555.51 L771.54 555.49 L771.54 555.47 L771.53 555.44 L771.52 555.44 L771.49 555.41 L771.48 555.38 L771.49 555.37 L771.52 555.36 L771.55 555.32 L771.58 555.31 L771.60 555.31 L771.63 555.29 L771.66 555.27 L771.67 555.25 L771.69 555.23 L771.70 555.21 L771.70 555.15 L771.75 555.06 L771.77 555.02 L771.89 554.92 L772.01 554.77 L772.11 554.60 L772.17 554.45 L772.19 554.42 L772.21 554.37 L772.22 554.25 L772.23 554.20 L772.23 554.19 L772.23 554.18 L772.23 554.17 L772.24 554.16 L772.25 554.16 L772.27 554.16 L772.29 554.15 L772.27 554.12 L772.27 554.09 L772.26 554.05 L772.27 554.04 L772.29 554.00 L772.31 553.88 L772.32 553.79 L772.32 553.77 L772.30 553.75 L772.27 553.70 L772.24 553.56 L772.20 553.45 L772.18 553.39 L772.14 553.34 L771.98 553.21 L771.94 553.15 L771.74 552.98 L771.59 552.91 L771.48 552.87 L771.42 552.86 L771.33 552.86 L771.25 552.86 L771.08 552.81 L770.95 552.80 L770.89 552.79 L770.84 552.77 L770.61 552.60 L770.57 552.56 L770.45 552.41 L770.36 552.34 L770.26 552.29 L770.14 552.26 L769.78 552.22 L769.65 552.19 L769.37 552.02 L769.29 551.95 L769.22 551.87 L769.18 551.77 L769.17 551.67 L769.18 551.58 L769.21 551.47 L769.27 551.38 L769.37 551.32 L769.59 551.24 L770.13 550.97 L770.18 550.96 L770.46 550.98 L770.57 550.95 L770.66 550.90 L770.92 550.69 L770.95 550.64 L770.97 550.57 L770.98 550.52 L770.99 550.49 L770.99 550.42 L771.00 550.41 L771.00 550.40 L771.03 550.39 L771.02 550.36 L771.03 550.32 L771.04 550.29 L771.05 550.25 L771.05 549.89 L771.07 549.81 L771.15 549.67 L771.17 549.60 L771.19 549.52 L771.20 549.39 L771.22 549.31 L771.22 549.27 L771.21 549.23 L771.19 549.19 L771.18 549.16 L771.19 549.12 L771.23 549.14 L771.27 549.14 L771.31 549.14 L771.34 549.12 L771.34 549.15 L771.36 549.17 L771.37 549.18 L771.38 549.20 L771.40 549.20 L771.40 549.17 L771.43 549.19 L771.46 549.21 L771.49 549.23 L771.53 549.21 L771.51 549.20 L771.47 549.17 L771.53 549.15 L771.59 549.16 L771.65 549.15 L771.69 549.11 L771.65 549.11 L771.63 549.11 L771.62 549.12 L771.60 549.11 L771.61 549.07 L771.57 549.03 L771.51 549.02 L771.46 549.03 L771.45 549.05 L771.44 549.07 L771.42 549.09 L771.39 549.09 L771.37 549.08 L771.37 549.05 L771.37 549.02 L771.38 548.99 L771.40 548.97 L771.42 548.96 L771.44 548.96 L771.47 548.95 L771.54 548.89 L771.57 548.87 L771.57 548.83 L771.55 548.79 L771.50 548.79 L771.46 548.83 L771.45 548.88 L771.42 548.90 L771.36 548.87 L771.35 548.83 L771.37 548.63 L771.43 548.53 L771.53 548.50 L771.65 548.50 L771.76 548.48 L771.75 548.46 L771.74 548.45 L771.72 548.44 L771.70 548.44 L771.73 548.42 L771.76 548.40 L771.76 548.37 L771.75 548.34 L771.66 548.38 L771.65 548.39 L771.64 548.41 L771.63 548.42 L771.62 548.42 L771.61 548.41 L771.59 548.41 L771.53 548.43 L771.49 548.40 L771.36 547.98 L771.23 547.75 L771.21 547.65 L771.21 547.63 L771.23 547.60 L771.25 547.59 L771.32 547.58 L771.34 547.56 L771.36 547.52 L771.38 547.47 L771.41 547.43 L771.46 547.42 L771.47 547.41 L771.46 547.39 L771.43 547.38 L771.41 547.40 L771.38 547.41 L771.34 547.43 L771.33 547.44 L771.26 547.53 L771.23 547.54 L771.19 547.51 L771.16 547.47 L771.07 547.31 L771.05 547.24 L771.00 547.16 L770.99 547.15 L770.98 547.10 L770.89 546.96 L770.87 546.90 L770.91 546.90 L770.97 546.91 L771.05 546.89 L771.08 546.90 L771.10 546.92 L771.10 546.94 L771.08 546.96 L771.08 546.98 L771.18 547.15 L771.19 547.21 L771.22 547.27 L771.26 547.29 L771.28 547.24 L771.26 547.19 L771.25 547.15 L771.27 547.14 L771.34 547.15 L771.37 547.15 L771.40 547.12 L771.35 547.13 L771.25 547.11 L771.21 547.10 L771.24 547.08 L771.36 547.00 L771.37 547.01 L771.37 547.05 L771.46 546.97 L771.51 546.94 L771.56 546.93 L771.64 547.01 L771.67 547.02 L771.70 547.01 L771.70 546.99 L771.69 546.96 L771.67 546.93 L771.68 546.91 L771.57 546.88 L771.53 546.85 L771.50 546.86 L771.48 546.83 L771.46 546.79 L771.44 546.76 L771.39 546.81 L771.36 546.79 L771.35 546.74 L771.38 546.72 L771.40 546.71 L771.43 546.69 L771.45 546.67 L771.46 546.65 L771.32 546.63 L771.17 546.64 L771.10 546.65 L771.05 546.69 L771.03 546.71 L771.02 546.76 L771.01 546.79 L770.98 546.81 L770.97 546.81 L770.92 546.77 L770.89 546.81 L770.84 546.84 L770.79 546.86 L770.75 546.84 L770.72 546.80 L770.64 546.56 L770.59 546.36 L770.55 546.26 L770.44 546.10 L770.15 545.80 L770.08 545.70 L770.07 545.61 L770.08 545.58 L770.09 545.56 L770.10 545.55 L770.13 545.55 L770.11 545.61 L770.10 545.63 L770.11 545.67 L770.15 545.61 L770.17 545.59 L770.20 545.58 L770.23 545.59 L770.26 545.66 L770.30 545.69 L770.35 545.77 L770.38 545.78 L770.42 545.79 L770.44 545.81 L770.44 545.83 L770.41 545.85 L770.49 545.88 L770.51 545.88 L770.52 545.89 L770.50 545.90 L770.46 545.91 L770.43 545.91 L770.45 545.93 L770.46 545.94 L770.46 545.96 L770.45 545.99 L770.47 545.99 L770.49 545.99 L770.54 546.02 L770.54 546.00 L770.54 545.97 L770.54 545.96 L770.56 545.99 L770.58 546.03 L770.60 546.06 L770.62 546.02 L770.65 546.02 L770.65 545.99 L770.66 545.96 L770.67 545.93 L770.68 545.91 L770.72 545.89 L770.73 545.87 L770.69 545.88 L770.68 545.88 L770.66 545.84 L770.68 545.75 L770.67 545.72 L770.65 545.75 L770.64 545.74 L770.64 545.63 L770.64 545.62 L770.65 545.61 L770.68 545.58 L770.67 545.55 L770.64 545.53 L770.62 545.51 L770.63 545.48 L770.68 545.45 L770.67 545.44 L770.61 545.40 L770.59 545.40 L770.56 545.44 L770.53 545.46 L770.51 545.47 L770.39 545.48 L770.32 545.46 L770.27 545.43 L770.26 545.36 L770.29 545.37 L770.30 545.32 L770.33 545.32 L770.36 545.33 L770.39 545.34 L770.48 545.34 L770.52 545.33 L770.56 545.31 L770.59 545.28 L770.62 545.27 L770.68 545.24 L770.74 545.20 L770.76 545.19 L770.78 545.19 L770.79 545.18 L770.80 545.16 L770.79 545.15 L770.78 545.14 L770.78 545.14 L770.77 545.13 L770.75 545.15 L770.72 545.16 L770.69 545.17 L770.68 545.17 L770.66 545.17 L770.64 545.18 L770.59 545.22 L770.57 545.23 L770.55 545.20 L770.51 545.22 L770.47 545.25 L770.43 545.27 L770.38 545.26 L770.35 545.25 L770.33 545.24 L770.32 545.20 L770.34 545.20 L770.41 545.21 L770.44 545.24 L770.46 545.24 L770.47 545.19 L770.50 545.12 L770.55 545.07 L770.56 545.04 L770.57 545.03 L770.57 545.01 L770.58 544.98 L770.62 544.99 L770.64 544.99 L770.65 544.97 L770.62 544.94 L770.60 544.92 L770.52 544.91 L770.53 544.97 L770.50 545.04 L770.45 545.10 L770.39 545.13 L770.42 545.09 L770.43 545.08 L770.41 545.08 L770.39 545.08 L770.37 545.08 L770.36 545.06 L770.36 545.03 L770.34 545.02 L770.32 545.02 L770.30 545.02 L770.28 545.02 L770.27 545.02 L770.26 545.01 L770.26 544.98 L770.26 544.96 L770.27 544.93 L770.29 544.89 L770.25 544.89 L770.23 544.91 L770.19 544.95 L770.20 544.89 L770.16 544.89 L770.07 544.95 L770.09 544.97 L770.09 545.01 L770.12 545.02 L770.16 545.02 L770.19 545.03 L770.21 545.04 L770.23 545.07 L770.22 545.10 L770.22 545.12 L770.24 545.13 L770.25 545.12 L770.26 545.11 L770.28 545.09 L770.30 545.09 L770.32 545.11 L770.36 545.16 L770.28 545.17 L770.27 545.18 L770.27 545.20 L770.26 545.21 L770.24 545.21 L770.22 545.21 L770.20 545.20 L770.17 545.17 L770.15 545.17 L770.13 545.17 L770.11 545.16 L770.06 545.10 L770.04 545.07 L770.02 545.04 L769.98 545.01 L769.94 545.00 L769.84 545.00 L769.82 544.99 L769.81 544.97 L769.78 544.94 L769.74 544.92 L769.71 544.91 L769.68 544.89 L769.66 544.85 L769.66 544.77 L769.65 544.73 L769.59 544.68 L769.56 544.62 L769.54 544.59 L769.47 544.55 L769.55 544.50 L769.57 544.46 L769.56 544.41 L769.55 544.40 L769.52 544.38 L769.50 544.36 L769.49 544.36 L769.48 544.39 L769.50 544.41 L769.52 544.43 L769.53 544.44 L769.52 544.48 L769.44 544.52 L769.43 544.55 L769.54 544.68 L769.55 544.70 L769.60 544.72 L769.61 544.77 L769.62 544.83 L769.64 544.87 L769.65 544.89 L769.68 544.93 L769.70 544.96 L769.72 544.97 L769.75 544.98 L769.77 544.99 L769.79 545.03 L769.81 545.05 L769.83 545.06 L769.84 545.07 L769.96 545.22 L769.99 545.23 L770.02 545.23 L770.05 545.23 L770.07 545.26 L770.03 545.27 L770.05 545.30 L770.09 545.33 L770.11 545.38 L770.10 545.43 L770.05 545.45 L769.96 545.49 L769.85 545.49 L769.80 545.42 L769.73 545.21 L769.46 544.91 L769.38 544.78 L768.90 544.25 L768.42 543.73 L768.41 543.69 L768.42 543.65 L768.49 543.58 L768.51 543.54 L768.51 543.49 L768.53 543.44 L768.55 543.42 L768.60 543.43 L768.61 543.41 L768.61 543.40 L768.63 543.42 L768.65 543.45 L768.68 543.47 L768.71 543.47 L768.71 543.46 L768.71 543.39 L768.71 543.36 L768.77 543.43 L768.78 543.40 L768.78 543.35 L768.79 543.31 L768.83 543.28 L768.85 543.28 L768.86 543.29 L768.88 543.30 L768.90 543.28 L768.91 543.27 L768.93 543.23 L768.96 543.18 L768.88 543.20 L768.86 543.19 L768.86 543.17 L768.86 543.15 L768.85 543.14 L768.82 543.14 L768.81 543.15 L768.81 543.23 L768.79 543.20 L768.76 543.10 L768.72 543.13 L768.73 543.17 L768.75 543.21 L768.77 543.24 L768.76 543.28 L768.72 543.30 L768.68 543.30 L768.63 543.27 L768.61 543.27 L768.60 543.27 L768.62 543.32 L768.60 543.33 L768.58 543.33 L768.56 543.34 L768.54 543.35 L768.53 543.34 L768.50 543.31 L768.48 543.31 L768.46 543.32 L768.42 543.34 L768.44 543.37 L768.42 543.39 L768.40 543.40 L768.38 543.42 L768.38 543.43 L768.38 543.44 L768.39 543.45 L768.39 543.45 L768.38 543.60 L768.38 543.62 L768.36 543.62 L768.34 543.61 L768.16 543.40 L768.13 543.34 L768.14 543.31 L768.22 543.24 L768.20 543.24 L768.17 543.24 L768.16 543.24 L768.20 543.20 L768.22 543.18 L768.23 543.15 L768.17 543.16 L768.13 543.20 L768.10 543.25 L768.08 543.30 L768.06 543.28 L767.99 543.22 L767.98 543.20 L768.00 543.18 L768.07 543.14 L768.10 543.11 L768.07 543.10 L768.01 543.13 L767.97 543.14 L767.93 543.13 L767.90 543.11 L767.85 543.05 L767.77 542.98 L767.75 542.95 L767.76 542.91 L767.79 542.90 L767.83 542.91 L767.87 542.92 L767.93 542.84 L767.97 542.74 L767.98 542.63 L767.95 542.53 L767.89 542.39 L767.86 542.36 L767.73 542.25 L767.69 542.21 L767.62 542.07 L767.60 542.04 L767.56 542.03 L767.12 541.55 L767.04 541.49 L766.86 541.40 L766.88 541.39 L766.89 541.37 L766.92 541.33 L766.91 541.31 L766.91 541.28 L766.92 541.26 L766.95 541.28 L767.00 541.30 L767.13 541.30 L767.18 541.33 L767.21 541.31 L767.27 541.29 L767.34 541.26 L767.58 541.28 L767.62 541.27 L767.64 541.25 L767.66 541.23 L767.69 541.23 L767.72 541.26 L767.66 541.29 L767.64 541.33 L767.65 541.45 L767.64 541.48 L767.63 541.49 L767.62 541.50 L767.58 541.50 L767.57 541.49 L767.56 541.47 L767.55 541.44 L767.52 541.43 L767.52 541.42 L767.53 541.40 L767.53 541.39 L767.49 541.37 L767.47 541.38 L767.46 541.43 L767.45 541.48 L767.43 541.49 L767.40 541.47 L767.40 541.50 L767.39 541.51 L767.37 541.53 L767.36 541.53 L767.38 541.55 L767.44 541.59 L767.45 541.57 L767.46 541.55 L767.48 541.54 L767.50 541.53 L767.49 541.57 L767.48 541.58 L767.47 541.59 L767.49 541.61 L767.52 541.61 L767.53 541.60 L767.55 541.58 L767.56 541.60 L767.56 541.63 L767.56 541.75 L767.57 541.77 L767.59 541.75 L767.61 541.70 L767.62 541.64 L767.61 541.58 L767.57 541.53 L767.63 541.56 L767.66 541.66 L767.68 541.79 L767.71 541.87 L767.77 541.93 L767.86 542.00 L767.93 542.07 L767.95 542.16 L767.85 542.06 L767.81 542.03 L767.81 542.11 L767.90 542.18 L768.19 542.32 L768.18 542.34 L768.14 542.39 L768.12 542.41 L768.12 542.43 L768.11 542.52 L768.12 542.53 L768.13 542.53 L768.16 542.53 L768.23 542.54 L768.24 542.54 L768.26 542.52 L768.27 542.50 L768.28 542.48 L768.31 542.47 L768.34 542.44 L768.33 542.38 L768.30 542.28 L768.31 542.23 L768.35 542.22 L768.41 542.21 L768.46 542.18 L768.47 542.16 L768.47 542.13 L768.46 542.11 L768.46 542.10 L768.48 542.08 L768.50 542.08 L768.51 542.09 L768.52 542.12 L768.52 542.14 L768.52 542.16 L768.51 542.19 L768.57 542.16 L768.60 542.16 L768.59 542.18 L768.59 542.20 L768.62 542.23 L768.54 542.26 L768.45 542.26 L768.43 542.27 L768.41 542.31 L768.42 542.35 L768.44 542.38 L768.46 542.41 L768.49 542.44 L768.53 542.47 L768.57 542.49 L768.62 542.50 L768.72 542.49 L768.76 542.50 L768.80 542.54 L768.83 542.51 L768.83 542.50 L768.81 542.47 L768.78 542.45 L768.76 542.43 L768.76 542.39 L768.78 542.36 L768.81 542.36 L768.83 542.38 L768.86 542.41 L768.88 542.39 L768.91 542.39 L768.94 542.40 L768.96 542.44 L768.99 542.45 L769.05 542.45 L769.06 542.45 L769.07 542.44 L769.08 542.43 L769.09 542.42 L769.11 542.43 L769.12 542.44 L769.11 542.46 L769.12 542.47 L769.13 542.48 L769.14 542.50 L769.15 542.51 L769.16 542.51 L769.18 542.51 L769.20 542.52 L769.22 542.53 L769.20 542.54 L769.18 542.56 L769.18 542.58 L769.16 542.60 L769.12 542.63 L769.10 542.65 L769.10 542.67 L769.17 542.72 L769.22 542.71 L769.23 542.71 L769.22 542.69 L769.22 542.67 L769.27 542.60 L769.27 542.59 L769.26 542.55 L769.27 542.54 L769.28 542.53 L769.32 542.53 L769.36 542.51 L769.39 542.51 L769.45 542.51 L769.44 542.52 L769.46 542.55 L769.50 542.58 L769.58 542.64 L769.62 542.67 L769.63 542.72 L769.66 542.76 L769.73 542.77 L769.85 542.76 L769.90 542.77 L769.95 542.80 L770.00 542.85 L770.01 542.90 L769.92 542.92 L769.90 542.91 L769.89 542.89 L769.89 542.87 L769.88 542.85 L769.87 542.85 L769.85 542.86 L769.83 542.86 L769.81 542.83 L769.75 542.86 L769.73 542.87 L769.75 542.88 L769.79 542.94 L769.72 542.94 L769.71 542.97 L769.75 542.99 L769.79 542.98 L769.81 542.99 L769.84 543.00 L769.86 542.99 L769.88 542.98 L769.91 543.01 L769.90 543.04 L769.89 543.07 L769.88 543.10 L769.89 543.12 L769.98 543.19 L769.99 543.21 L769.99 543.23 L770.00 543.29 L770.00 543.30 L770.02 543.28 L770.03 543.24 L770.04 543.21 L770.08 543.23 L770.10 543.24 L770.13 543.24 L770.12 543.23 L770.12 543.21 L770.11 543.20 L770.15 543.20 L770.16 543.21 L770.18 543.22 L770.19 543.23 L770.21 543.22 L770.22 543.20 L770.21 543.18 L770.19 543.17 L770.15 543.16 L770.09 543.15 L770.03 543.13 L770.01 543.10 L770.03 543.11 L770.06 543.09 L770.11 543.08 L770.22 543.10 L770.21 543.07 L770.20 543.07 L770.22 543.06 L770.25 543.07 L770.27 543.07 L770.27 543.08 L770.30 543.07 L770.30 543.06 L770.30 543.05 L770.31 543.03 L770.37 542.98 L770.43 542.94 L770.45 542.99 L770.43 543.03 L770.40 543.07 L770.39 543.12 L770.41 543.17 L770.44 543.20 L770.49 543.20 L770.54 543.20 L770.54 543.21 L770.52 543.24 L770.58 543.31 L770.55 543.33 L770.54 543.32 L770.48 543.27 L770.41 543.23 L770.39 543.21 L770.43 543.26 L770.50 543.40 L770.55 543.43 L770.60 543.44 L770.64 543.45 L770.64 543.44 L770.64 543.44 L770.65 543.43 L770.65 543.43 L770.66 543.44 L770.67 543.46 L770.68 543.46 L770.69 543.48 L770.74 543.55 L770.76 543.58 L770.67 543.59 L770.68 543.61 L770.79 543.69 L770.90 543.78 L770.91 543.83 L770.89 543.90 L770.85 543.88 L770.76 543.87 L770.72 543.87 L770.70 543.88 L770.73 543.91 L770.81 543.94 L770.80 543.94 L770.77 543.96 L770.83 543.97 L770.85 543.98 L770.86 543.99 L770.85 544.02 L770.83 544.03 L770.81 544.04 L770.78 544.05 L770.91 544.11 L770.93 544.13 L770.93 544.16 L770.92 544.21 L770.92 544.23 L770.97 544.31 L770.92 544.32 L770.87 544.30 L770.83 544.26 L770.78 544.24 L770.80 544.20 L770.74 544.18 L770.74 544.15 L770.71 544.15 L770.65 544.17 L770.62 544.18 L770.61 544.17 L770.59 544.15 L770.57 544.15 L770.56 544.15 L770.55 544.18 L770.54 544.19 L770.50 544.19 L770.50 544.19 L770.51 544.17 L770.51 544.13 L770.50 544.10 L770.49 544.08 L770.47 544.05 L770.45 544.03 L770.44 544.08 L770.45 544.19 L770.44 544.23 L770.43 544.25 L770.43 544.28 L770.43 544.30 L770.45 544.32 L770.48 544.33 L770.50 544.31 L770.51 544.28 L770.53 544.26 L770.57 544.25 L770.71 544.27 L770.76 544.28 L770.79 544.32 L770.78 544.36 L770.75 544.40 L770.70 544.44 L770.73 544.47 L770.74 544.52 L770.74 544.58 L770.74 544.61 L770.77 544.64 L770.86 544.70 L770.90 544.72 L770.93 544.72 L770.98 544.72 L771.01 544.73 L771.03 544.76 L771.02 544.78 L771.01 544.80 L771.01 544.82 L771.02 544.87 L771.04 544.90 L771.07 544.92 L771.11 544.95 L771.23 545.10 L771.29 545.16 L771.38 545.21 L771.44 545.23 L771.44 545.24 L771.43 545.27 L771.43 545.28 L771.44 545.28 L771.44 545.28 L771.43 545.29 L771.43 545.30 L771.42 545.29 L771.41 545.29 L771.41 545.29 L771.40 545.29 L771.39 545.29 L771.39 545.29 L771.38 545.32 L771.40 545.35 L771.45 545.37 L771.51 545.38 L771.56 545.39 L771.49 545.40 L771.32 545.39 L771.28 545.40 L771.29 545.43 L771.32 545.51 L771.35 545.57 L771.36 545.61 L771.35 545.64 L771.34 545.68 L771.30 545.58 L771.26 545.54 L771.21 545.52 L771.25 545.61 L771.24 545.65 L771.19 545.65 L771.19 545.67 L771.21 545.67 L771.23 545.68 L771.25 545.69 L771.27 545.71 L771.25 545.73 L771.21 545.75 L771.19 545.77 L771.19 545.80 L771.22 545.83 L771.22 545.86 L771.22 545.91 L771.23 545.91 L771.26 545.93 L771.28 545.95 L771.31 545.95 L771.37 545.96 L771.46 545.93 L771.49 545.93 L771.51 545.94 L771.50 545.95 L771.40 546.00 L771.35 546.02 L771.31 546.01 L771.22 545.99 L771.27 546.02 L771.30 546.07 L771.43 546.40 L771.38 546.38 L771.35 546.36 L771.32 546.36 L771.27 546.38 L771.25 546.37 L771.24 546.36 L771.24 546.34 L771.25 546.32 L771.21 546.31 L771.18 546.26 L771.15 546.26 L771.07 546.29 L771.04 546.31 L771.01 546.34 L771.01 546.35 L771.02 546.35 L771.10 546.34 L771.14 546.35 L771.12 546.37 L771.09 546.38 L771.07 546.40 L771.08 546.42 L771.11 546.43 L771.12 546.44 L771.12 546.45 L771.12 546.54 L771.13 546.57 L771.16 546.59 L771.17 546.57 L771.18 546.55 L771.18 546.52 L771.18 546.50 L771.19 546.51 L771.21 546.49 L771.23 546.47 L771.25 546.45 L771.28 546.44 L771.31 546.44 L771.41 546.45 L771.55 546.45 L771.59 546.48 L771.59 546.54 L771.57 546.57 L771.54 546.58 L771.53 546.60 L771.54 546.64 L771.56 546.67 L771.57 546.68 L771.58 546.68 L771.60 546.66 L771.66 546.42 L771.67 546.42 L771.72 546.52 L771.74 546.57 L771.73 546.63 L771.78 546.62 L771.84 546.62 L771.86 546.60 L771.83 546.55 L771.82 546.51 L771.87 546.50 L771.94 546.51 L771.98 546.52 L772.01 546.57 L771.98 546.67 L772.01 546.71 L772.04 546.72 L772.07 546.71 L772.09 546.69 L772.13 546.68 L772.18 546.66 L772.19 546.66 L772.20 546.67 L772.21 546.67 L772.28 546.64 L772.30 546.64 L772.33 546.65 L772.37 546.68 L772.40 546.69 L772.42 546.69 L772.49 546.77 L772.51 546.79 L772.52 546.82 L772.52 546.85 L772.52 546.90 L772.49 547.04 L772.50 547.09 L772.53 547.14 L772.56 547.18 L772.59 547.21 L772.67 547.25 L772.77 547.25 L772.86 547.23 L772.95 547.20 L772.96 547.18 L772.97 547.17 L772.98 547.16 L773.01 547.15 L773.03 547.16 L773.03 547.19 L773.03 547.23 L773.04 547.28 L773.07 547.30 L773.11 547.31 L773.15 547.29 L773.12 547.28 L773.09 547.26 L773.08 547.22 L773.07 547.16 L773.05 547.10 L773.05 547.07 L773.01 547.01 L773.00 546.98 L773.01 546.87 L773.00 546.84 L772.99 546.82 L772.94 546.69 L772.92 546.67 L772.90 546.64 L772.88 546.62 L772.82 546.59 L772.80 546.57 L772.79 546.55 L772.78 546.52 L772.77 546.50 L772.74 546.48 L772.79 546.47 L772.84 546.48 L772.88 546.48 L772.92 546.44 L772.85 546.44 L772.81 546.44 L772.78 546.42 L772.81 546.42 L772.84 546.41 L772.86 546.40 L772.87 546.38 L772.85 546.38 L772.84 546.38 L772.83 546.37 L772.81 546.36 L772.92 546.34 L772.96 546.32 L772.95 546.26 L772.91 546.28 L772.90 546.29 L772.89 546.27 L772.88 546.25 L772.87 546.23 L772.89 546.21 L772.84 546.14 L772.85 546.09 L772.88 546.03 L772.87 545.99 L772.85 545.98 L772.83 545.97 L772.81 545.97 L772.80 545.95 L772.79 545.94 L772.75 545.90 L772.72 545.88 L772.64 545.86 L772.60 545.83 L772.58 545.80 L772.57 545.77 L772.57 545.69 L772.58 545.66 L772.63 545.66 L772.68 545.66 L772.75 545.65 L772.76 545.66 L772.77 545.68 L772.79 545.70 L772.79 545.72 L772.80 545.72 L772.81 545.73 L772.82 545.74 L772.87 545.77 L772.89 545.77 L772.95 545.72 L772.98 545.76 L773.01 545.82 L773.01 545.87 L772.96 545.91 L773.00 545.94 L773.05 545.94 L773.09 545.95 L773.11 546.01 L773.11 546.06 L773.11 546.09 L773.08 546.08 L773.06 546.06 L773.04 546.07 L773.03 546.09 L773.04 546.11 L773.07 546.12 L773.13 546.11 L773.15 546.12 L773.16 546.14 L773.16 546.16 L773.14 546.18 L773.14 546.21 L773.15 546.27 L773.18 546.27 L773.27 546.22 L773.24 546.21 L773.22 546.21 L773.24 546.19 L773.26 546.18 L773.29 546.18 L773.32 546.20 L773.34 546.21 L773.38 546.20 L773.43 546.16 L773.47 546.15 L773.50 546.15 L773.52 546.16 L773.55 546.18 L773.58 546.19 L773.60 546.17 L773.63 546.17 L773.63 546.21 L773.62 546.23 L773.60 546.24 L773.54 546.24 L773.53 546.25 L773.49 546.31 L773.46 546.32 L773.40 546.34 L773.38 546.36 L773.34 546.40 L773.31 546.44 L773.34 546.46 L773.33 546.47 L773.33 546.49 L773.33 546.50 L773.36 546.52 L773.38 546.54 L773.40 546.54 L773.40 546.51 L773.43 546.49 L773.41 546.42 L773.44 546.40 L773.49 546.41 L773.58 546.40 L773.62 546.43 L773.63 546.46 L773.63 546.51 L773.64 546.53 L773.67 546.57 L773.68 546.59 L773.69 546.61 L773.70 546.72 L773.70 546.78 L773.70 546.80 L773.70 546.82 L773.69 546.84 L773.67 546.86 L773.66 546.88 L773.67 546.90 L773.69 546.89 L773.72 546.86 L773.73 546.85 L773.77 546.89 L773.76 546.94 L773.73 547.00 L773.70 547.04 L773.69 547.06 L773.72 547.07 L773.74 547.07 L773.76 547.08 L773.77 547.11 L773.77 547.17 L773.78 547.20 L773.76 547.19 L773.74 547.17 L773.73 547.15 L773.72 547.12 L773.70 547.12 L773.71 547.18 L773.73 547.22 L773.73 547.26 L773.70 547.29 L773.78 547.31 L773.80 547.33 L773.82 547.37 L773.84 547.46 L773.85 547.54 L773.86 547.57 L773.90 547.64 L773.91 547.67 L773.91 547.69 L773.94 547.71 L773.95 547.72 L773.95 547.75 L773.94 547.75 L773.92 547.74 L773.91 547.74 L773.89 547.77 L773.91 547.79 L774.00 547.80 L774.03 547.81 L774.07 547.83 L774.11 547.85 L774.13 547.88 L774.16 547.90 L774.19 547.97 L774.21 547.99 L774.27 548.04 L774.29 548.07 L774.30 548.10 L774.23 548.05 L774.20 548.04 L774.17 548.04 L774.14 548.05 L774.10 548.04 L774.07 548.01 L774.09 548.01 L774.16 547.99 L774.08 547.94 L774.05 547.92 L774.02 547.89 L773.98 547.87 L773.92 547.87 L773.82 547.88 L773.83 547.90 L773.85 547.92 L773.86 547.93 L773.86 547.94 L773.85 547.95 L773.85 547.97 L773.85 547.99 L773.86 548.00 L773.88 548.00 L773.89 548.00 L773.89 548.00 L773.91 548.01 L773.93 548.01 L773.94 548.01 L773.94 548.03 L773.94 548.04 L773.93 548.05 L773.92 548.06 L773.93 548.11 L773.94 548.12 L773.95 548.13 L773.96 548.13 L774.00 548.13 L774.01 548.13 L774.02 548.12 L774.03 548.11 L774.04 548.10 L774.08 548.12 L774.09 548.14 L774.11 548.17 L774.13 548.21 L774.16 548.19 L774.18 548.20 L774.20 548.22 L774.22 548.23 L774.25 548.22 L774.26 548.20 L774.28 548.18 L774.32 548.19 L774.35 548.20 L774.36 548.22 L774.36 548.25 L774.36 548.28 L774.37 548.30 L774.40 548.30 L774.43 548.30 L774.46 548.29 L774.43 548.19 L774.39 548.13 L774.38 548.10 L774.40 548.09 L774.45 548.12 L774.52 548.22 L774.57 548.25 L774.63 548.26 L774.76 548.31 L774.82 548.32 L774.85 548.33 L774.90 548.37 L774.92 548.38 L774.99 548.38 L775.00 548.39 L775.01 548.40 L775.02 548.41 L775.05 548.39 L775.47 548.64 L775.56 548.67 L775.69 548.69 L775.82 548.73 L775.97 548.75 L776.08 548.81 L776.28 548.83 L776.36 548.86 L776.24 548.86 L776.21 548.87 L776.23 548.88 L776.32 548.94 L776.35 548.95 L776.38 548.95 L776.41 548.94 L776.41 548.91 L776.41 548.88 L776.39 548.86 L776.43 548.85 L776.45 548.86 L776.46 548.88 L776.49 548.89 L776.63 548.89 L776.64 548.90 L776.66 548.93 L776.67 548.93 L776.68 548.93 L776.69 548.92 L776.70 548.92 L776.71 548.91 L776.71 548.90 L776.71 548.88 L776.73 548.88 L776.75 548.88 L776.81 548.86 L777.00 548.85 L777.06 548.83 L777.09 548.80 L777.26 548.72 L777.32 548.67 L777.35 548.65 L777.35 548.63 L777.35 548.58 L777.39 548.52 L777.40 548.50 L777.41 548.49 L777.50 548.45 L777.53 548.41 L777.56 548.34 L777.58 548.30 L777.61 548.27 L777.62 548.25 L777.63 548.23 L777.65 548.21 L777.86 548.16 L777.90 548.16 L777.94 548.15 L777.97 548.13 L778.02 548.07 L778.05 548.05 L778.15 548.04 L778.19 548.03 L778.21 548.01 L778.22 547.98 L778.21 547.96 L778.19 547.93 L778.27 547.94 L778.79 547.96 L778.84 547.97 L778.87 547.99 L778.84 548.01 L778.84 548.03 L778.87 548.04 L778.91 548.07 L778.93 548.09 L778.97 548.10 L779.00 548.10 L779.08 548.10 L779.10 548.11 L779.14 548.14 L779.17 548.15 L779.24 548.14 L779.26 548.15 L779.29 548.16 L779.33 548.18 L779.38 548.22 L779.41 548.26 L779.40 548.30 L779.39 548.32 L779.35 548.37 L779.27 548.44 L779.22 548.54 L779.19 548.59 L779.12 548.63 L779.09 548.68 L779.03 548.81 L779.00 548.85 L778.97 548.88 L778.95 548.90 L778.94 548.93 L778.96 548.98 L778.99 549.02 L779.01 549.07 L779.00 549.12 L778.97 549.15 L778.93 549.18 L778.90 549.21 L778.96 549.30 L778.95 549.34 L778.93 549.39 L778.89 549.42 L778.88 549.47 L778.91 549.51 L778.95 549.55 L778.97 549.58 L778.97 549.60 L778.95 549.62 L778.91 549.65 L778.90 549.68 L778.90 549.72 L778.89 549.75 L778.91 549.76 L778.93 549.77 L778.95 549.80 L778.94 549.83 L778.93 549.84 L778.85 549.88 L778.84 549.90 L778.84 550.03 L778.83 550.05 L778.59 550.26 L778.37 550.41 L778.34 550.43 L778.25 550.37 L778.20 550.36 L778.14 550.37 L778.10 550.39 L778.08 550.40 L778.07 550.40 L778.06 550.40 L778.06 550.42 L778.06 550.43 L778.06 550.46 L778.07 550.47 L778.11 550.50 L778.13 550.52 L778.12 550.55 L778.08 550.60 L778.07 550.65 L778.07 550.76 L778.05 550.88 L778.02 550.95 L778.01 551.03 L778.00 551.07 L778.01 551.11 L778.00 551.14 L777.97 551.17 L777.95 551.21 L778.10 551.23 L778.17 551.25 L778.20 551.31 L778.08 551.40 L778.03 551.51 L778.01 551.58 L777.99 551.60 L777.95 551.62 L777.92 551.65 L777.86 551.52 L777.85 551.45 L777.85 551.39 L777.86 551.35 L777.88 551.32 L777.90 551.29 L777.92 551.26 L777.92 551.24 L777.89 551.22 L777.85 551.22 L777.82 551.26 L777.80 551.25 L777.73 551.21 L777.70 551.20 L777.36 551.19 L777.02 551.18 L776.99 551.18 L776.97 551.16 L776.95 551.16 L776.90 551.20 L776.50 551.35 L776.21 551.46 L776.19 551.48 L776.18 551.53 L776.15 551.58 L776.12 551.62 L776.07 551.67 L776.00 551.74 L775.95 551.77 L775.94 551.77 L775.92 551.83 L775.89 551.86 L775.87 551.88 L775.87 551.91 L775.87 551.95 L775.87 551.98 L775.89 552.00 L775.92 552.02 L775.94 552.04 L775.95 552.09 L775.97 552.28 L775.97 552.32 Z" fill="#1E417C"/>
</svg>
