<svg width="800" height="600" viewBox="0 0 800 600" fill="none" xmlns="http://www.w3.org/2000/svg">
  <path d="M377.22 540.84 L377.54 539.57 L377.32 538.01 L376.23 534.77 L375.89 534.09 L375.00 532.76 L374.65 532.03 L374.14 529.42 L373.82 528.83 L372.69 528.28 L371.50 528.41 L370.32 528.75 L369.21 528.81 L368.26 528.43 L366.77 527.29 L365.78 526.77 L364.70 526.56 L362.36 526.42 L361.35 525.96 L360.87 525.40 L360.11 523.19 L358.32 520.81 L357.01 518.50 L356.98 516.47 L359.06 514.90 L357.05 514.20 L356.72 513.27 L356.90 512.11 L356.43 510.73 L355.31 510.29 L352.33 511.53 L350.56 511.53 L344.93 509.52 L341.99 508.85 L338.94 509.09 L339.10 509.09 L339.23 509.13 L339.34 509.22 L339.42 509.35 L337.30 510.54 L336.20 510.68 L334.69 509.89 L334.27 509.38 L333.75 508.20 L333.42 507.78 L332.52 507.35 L330.74 507.11 L329.85 506.86 L327.46 505.53 L326.31 505.11 L321.46 504.52 L320.47 503.79 L320.97 502.39 L316.54 500.52 L315.46 500.35 L314.20 500.14 L314.54 501.86 L314.94 501.97 L315.54 501.85 L316.19 501.86 L316.73 502.39 L316.86 503.14 L316.48 503.48 L314.01 503.95 L310.96 504.01 L309.58 504.24 L307.35 505.53 L304.59 506.07 L301.83 505.69 L296.92 502.54 L296.06 501.78 L295.46 500.87 L295.04 499.94 L294.52 499.10 L293.69 498.45 L292.97 497.99 L292.74 497.56 L292.98 497.14 L293.69 496.75 L293.72 496.70 L293.73 496.64 L293.72 496.57 L293.69 496.50 L292.62 496.35 L290.56 495.69 L289.56 495.52 L288.75 495.64 L288.11 495.88 L287.34 495.97 L286.16 495.62 L282.47 492.63 L282.32 492.07 L282.87 491.31 L283.71 491.04 L287.37 490.95 L289.39 490.44 L292.62 489.20 L294.16 488.34 L294.87 487.19 L293.69 485.79 L292.89 485.28 L292.71 484.52 L292.86 483.82 L293.69 482.40 L293.86 482.16 L293.91 481.94 L293.87 481.73 L293.69 481.56 L292.29 480.35 L291.87 480.10 L290.58 479.79 L290.09 480.00 L289.89 480.51 L289.47 481.13 L287.22 483.13 L285.92 483.81 L284.16 484.10 L277.38 483.34 L273.76 483.55 L271.54 485.28 L271.15 485.45 L270.75 485.50 L270.34 485.44 L269.95 485.28 L269.25 483.87 L267.59 483.01 L265.92 483.09 L265.09 484.48 L264.08 483.99 L263.56 483.21 L263.41 482.25 L263.50 481.26 L263.16 481.07 L262.84 480.85 L262.58 480.60 L262.37 480.31 L263.76 479.95 L262.19 479.52 L258.63 479.59 L256.83 479.26 L254.16 478.17 L253.41 477.66 L252.96 477.00 L252.49 476.02 L252.23 475.19 L252.39 474.98 L251.51 474.81 L249.19 475.12 L248.15 475.11 L247.18 474.78 L245.42 473.83 L244.58 473.51 L236.79 472.11 L235.04 472.24 L233.91 471.81 L231.77 470.99 L230.04 470.85 L227.98 471.65 L227.99 472.71 L230.42 475.00 L231.28 476.39 L231.85 478.00 L232.59 479.47 L234.01 480.41 L235.86 481.11 L237.24 482.08 L238.04 483.44 L238.15 485.28 L239.14 486.12 L239.29 487.12 L238.80 487.77 L237.88 487.54 L237.07 486.77 L236.72 486.31 L236.27 486.11 L235.15 486.10 L234.94 486.30 L234.96 487.22 L234.77 487.50 L234.09 487.53 L232.68 487.21 L232.02 487.22 L231.11 487.63 L229.85 488.75 L229.13 489.16 L228.28 489.30 L227.36 489.45 L225.84 489.38 L224.33 489.53 L222.63 490.46 L221.27 491.79 L220.45 492.81 L219.52 493.66 L217.84 494.44 L215.50 496.49 L212.42 496.64 L209.24 495.57 L206.63 494.03 L205.29 492.90 L204.58 491.96 L203.72 489.37 L202.89 487.93 L200.60 486.40 L199.63 485.28 L198.53 484.32 L196.61 482.07 L195.52 481.09 L193.83 480.33 L190.45 479.54 L189.10 478.39 L188.91 477.73 L188.97 477.04 L188.92 476.34 L188.38 475.63 L187.66 475.48 L184.20 475.48 L183.32 475.67 L182.78 475.97 L182.22 476.05 L181.25 475.55 L180.89 475.11 L179.91 473.15 L177.45 472.87 L176.73 471.52 L177.33 470.31 L178.84 470.53 L178.70 470.30 L178.33 469.46 L178.79 469.43 L179.49 469.15 L179.91 469.04 L181.08 468.42 L182.41 467.92 L183.54 467.29 L184.13 466.31 L185.32 466.07 L187.75 466.50 L189.06 466.31 L189.77 465.67 L191.33 464.69 L191.98 464.11 L191.77 464.15 L191.76 463.71 L191.86 463.12 L191.98 462.74 L192.31 462.30 L192.52 462.09 L192.52 461.84 L192.23 461.26 L194.61 460.64 L193.92 459.19 L187.46 454.84 L185.14 454.00 L182.66 453.60 L179.91 453.56 L178.93 453.69 L178.37 454.45 L177.82 455.42 L176.90 456.16 L175.62 456.35 L174.47 456.01 L172.07 454.84 L168.87 454.63 L164.16 457.53 L160.94 457.90 L160.79 457.68 L160.73 457.44 L160.79 457.19 L160.94 456.95 L162.03 456.38 L162.21 455.48 L161.79 454.43 L161.13 453.41 L160.14 452.22 L159.12 451.59 L157.87 451.48 L153.38 452.55 L151.28 452.59 L150.79 452.48 L146.96 448.34 L146.71 447.87 L146.55 447.36 L144.67 447.24 L138.36 448.21 L137.56 448.05 L137.01 447.70 L136.00 446.73 L135.14 446.36 L119.96 442.99 L116.81 443.16 L116.10 443.72 L115.38 444.53 L114.54 445.09 L114.41 445.06 L113.47 444.87 L112.98 444.24 L113.04 443.52 L113.25 442.76 L113.23 442.02 L112.32 440.60 L111.17 440.00 L109.80 439.61 L108.28 438.85 L107.48 438.02 L106.58 436.77 L105.88 435.43 L105.65 434.35 L106.18 432.96 L106.84 432.16 L106.92 431.43 L105.70 430.19 L103.68 429.55 L99.36 429.51 L98.65 428.40 L98.30 427.24 L97.41 426.96 L96.43 427.40 L95.75 428.39 L95.75 428.40 L95.50 429.17 L94.64 429.28 L93.58 428.94 L92.68 428.39 L92.04 427.64 L88.20 427.11 L86.76 426.27 L86.54 426.89 L86.19 427.24 L85.09 427.75 L84.66 427.81 L84.23 427.94 L83.85 428.14 L83.50 428.40 L83.49 428.40 L83.82 429.25 L85.05 429.87 L86.20 430.93 L86.28 433.13 L86.05 433.52 L85.31 434.05 L85.09 434.31 L85.02 434.73 L85.07 435.02 L85.16 435.24 L85.25 437.87 L85.09 438.53 L76.43 438.12 L73.69 438.61 L72.07 438.58 L72.08 437.16 L73.15 436.04 L75.85 434.15 L79.68 428.40 L83.06 422.98 L83.29 422.11 L83.31 420.65 L83.44 419.90 L83.85 419.38 L84.43 419.03 L84.94 418.52 L85.09 417.55 L85.18 415.63 L85.80 413.50 L86.83 411.48 L88.13 409.88 L87.81 409.67 L87.54 409.43 L87.93 407.23 L86.83 405.74 L85.11 404.47 L83.71 402.93 L83.49 402.40 L83.16 401.04 L83.16 400.97 L82.71 397.76 L82.43 395.76 L83.07 394.81 L82.29 393.77 L80.88 392.84 L79.70 392.26 L77.98 391.75 L74.42 391.09 L72.69 390.47 L72.69 390.46 L71.09 389.75 L66.14 388.71 L64.46 387.62 L64.21 386.81 L64.04 386.27 L64.66 384.80 L66.14 383.34 L67.03 381.82 L66.91 379.82 L66.16 377.90 L65.18 376.59 L61.50 374.68 L59.79 373.43 L59.00 371.51 L58.70 369.50 L57.65 368.63 L56.28 368.04 L55.04 366.86 L54.81 365.25 L55.80 363.94 L60.16 361.19 L61.55 360.03 L62.72 358.67 L63.36 357.18 L63.63 352.55 L64.04 351.81 L65.67 349.98 L66.00 349.26 L66.14 348.57 L66.38 347.88 L66.96 347.24 L68.36 346.17 L63.42 343.89 L62.66 342.80 L63.13 340.84 L63.94 339.46 L64.23 338.37 L63.13 337.31 L63.13 336.84 L64.62 335.64 L64.64 334.09 L63.46 332.76 L61.34 332.19 L59.18 331.88 L56.61 331.07 L54.91 329.89 L55.37 328.51 L53.77 326.31 L51.97 323.00 L51.55 319.98 L55.47 317.86 L57.31 316.08 L58.56 314.30 L58.21 313.49 L56.80 312.71 L57.39 310.94 L59.51 308.22 L57.15 307.04 L56.72 306.74 L52.32 303.73 L47.78 302.63 L45.60 300.82 L44.15 300.41 L43.36 299.94 L40.77 296.83 L39.59 295.99 L31.53 292.38 L29.46 291.71 L26.99 289.94 L25.46 289.53 L23.78 289.45 L22.19 289.15 L20.87 288.52 L20.00 287.46 L22.01 286.40 L22.80 285.48 L23.11 284.04 L22.94 283.10 L22.01 280.40 L21.56 279.64 L21.56 279.17 L25.23 277.52 L29.85 276.06 L34.32 273.91 L36.64 272.44 L37.66 271.07 L37.87 270.44 L40.15 266.14 L39.99 265.04 L39.54 263.97 L39.26 262.74 L39.47 261.73 L40.01 260.80 L40.77 260.12 L41.57 259.87 L42.12 259.37 L44.10 257.03 L43.11 256.48 L42.81 256.05 L41.65 255.46 L41.19 254.98 L40.96 254.24 L40.91 252.86 L40.79 252.22 L40.28 250.79 L38.69 246.37 L37.90 242.44 L36.31 240.84 L35.51 239.26 L33.67 237.56 L33.12 235.99 L33.07 234.31 L33.27 231.54 L33.13 230.79 L31.54 227.84 L30.40 226.35 L30.71 225.17 L30.62 223.04 L30.62 223.03 L31.36 222.98 L32.72 222.63 L33.72 222.08 L33.82 221.46 L32.49 220.91 L33.23 220.65 L33.48 220.39 L33.23 220.13 L32.49 219.87 L32.92 219.31 L33.66 219.70 L34.72 220.02 L35.66 220.44 L36.55 221.90 L37.62 222.39 L39.69 222.98 L41.21 223.96 L42.05 224.37 L45.39 224.71 L49.47 225.58 L50.88 226.23 L52.03 227.22 L54.53 230.07 L55.40 230.74 L55.80 230.52 L55.89 229.30 L56.23 228.60 L56.87 228.13 L57.92 227.64 L57.86 227.35 L57.84 227.05 L57.92 226.61 L57.10 226.47 L55.16 226.36 L54.29 226.09 L51.94 222.72 L52.43 221.05 L54.29 217.76 L55.16 218.22 L55.91 218.09 L56.74 217.80 L57.92 217.76 L57.38 215.84 L57.66 214.32 L58.18 212.97 L58.44 211.54 L57.92 211.54 L57.73 212.45 L57.14 213.05 L55.32 214.13 L55.80 214.65 L55.13 214.49 L54.60 214.28 L54.18 214.00 L53.77 213.61 L54.16 213.39 L54.84 212.85 L55.32 212.58 L54.28 211.29 L52.48 210.68 L44.06 210.17 L42.88 209.39 L43.84 207.91 L43.59 207.76 L43.53 207.74 L43.50 207.68 L43.36 207.39 L42.61 208.15 L42.02 208.26 L41.38 208.06 L40.47 207.91 L39.81 208.07 L39.29 208.44 L38.79 208.93 L38.14 209.42 L40.40 209.68 L41.64 210.02 L42.28 210.51 L42.13 211.42 L41.34 212.09 L40.38 212.36 L39.69 212.06 L37.62 212.83 L36.59 213.03 L35.50 213.09 L35.50 213.61 L36.55 213.85 L36.49 214.01 L35.50 214.13 L34.79 214.07 L33.59 213.70 L32.70 213.61 L31.43 213.11 L27.79 209.99 L26.01 209.51 L25.83 209.52 L25.22 208.33 L23.90 207.37 L24.62 207.24 L25.24 206.99 L26.53 204.94 L27.79 205.28 L28.61 205.69 L30.93 206.21 L38.44 206.57 L41.45 206.21 L44.40 205.28 L49.84 202.91 L69.91 197.65 L87.22 194.98 L108.33 189.74 L121.99 187.60 L136.96 185.22 L151.67 181.31 L163.89 180.42 L172.28 178.77 L171.33 179.34 L167.57 180.33 L169.22 181.01 L175.90 180.33 L175.90 179.86 L175.38 179.86 L175.38 179.29 L179.00 179.29 L178.96 178.92 L178.88 178.86 L178.74 178.88 L178.48 178.77 L178.63 177.55 L176.88 177.50 L172.75 178.26 L175.36 177.50 L178.51 176.30 L183.20 173.07 L182.25 174.20 L180.55 175.24 L179.89 175.81 L180.58 175.66 L181.96 175.49 L183.16 175.21 L184.22 174.47 L186.88 173.73 L187.85 173.07 L186.95 171.97 L185.45 171.95 L184.78 172.42 L183.67 173.07 L186.88 169.83 L195.67 163.24 L195.67 163.70 L195.26 164.45 L196.03 164.63 L197.25 164.36 L198.22 163.70 L198.70 162.69 L198.25 162.37 L197.27 162.61 L196.14 163.24 L197.70 161.43 L200.33 159.89 L205.51 158.01 L221.36 156.65 L227.51 155.22 L230.74 154.90 L233.61 154.31 L240.88 149.68 L263.76 143.46 L292.45 140.32 L305.33 137.76 L325.57 136.68 L338.05 136.68 L339.77 137.05 L342.52 138.44 L343.54 138.75 L345.13 138.96 L371.04 147.93 L375.76 151.48 L376.53 152.32 L377.30 153.50 L377.38 154.53 L376.04 154.90 L375.70 154.65 L375.33 154.09 L374.87 153.55 L373.49 152.98 L372.56 151.56 L371.32 150.63 L367.70 147.08 L367.00 146.89 L364.34 146.57 L363.67 146.41 L362.94 145.69 L360.80 145.26 L356.27 143.46 L351.81 142.22 L351.09 141.63 L348.63 140.53 L347.98 140.35 L347.06 140.59 L346.57 140.98 L345.50 143.15 L345.35 143.65 L345.35 144.76 L345.76 145.04 L347.57 145.51 L347.98 145.79 L348.89 146.72 L350.01 148.12 L349.96 148.70 L349.67 149.20 L349.70 149.70 L350.57 150.24 L350.12 151.72 L350.98 152.35 L352.43 152.18 L353.69 151.23 L353.24 152.49 L353.85 153.50 L354.80 154.35 L356.71 157.80 L357.30 158.53 L357.01 160.27 L357.07 163.27 L357.56 166.11 L358.62 167.38 L359.81 167.61 L362.13 168.65 L363.31 168.89 L364.33 168.95 L365.60 169.18 L366.69 169.59 L367.15 170.25 L368.43 171.30 L381.22 173.71 L384.04 173.84 L386.41 173.07 L387.06 173.46 L387.95 173.74 L390.03 174.11 L418.48 171.63 L424.76 169.86 L427.74 169.45 L430.15 168.80 L434.82 165.96 L436.11 165.63 L437.72 166.39 L441.47 167.15 L447.39 167.34 L463.05 167.82 L492.43 168.74 L514.33 169.42 L536.24 170.10 L563.38 170.94 L596.25 171.96 L617.35 172.61 L638.45 173.27 L656.15 173.82 L670.41 174.26 L675.63 173.25 L677.06 172.57 L678.98 170.49 L679.08 170.38 L680.97 169.86 L682.58 169.99 L687.13 171.37 L687.95 171.43 L689.68 171.22 L690.45 171.32 L691.26 171.80 L691.69 172.39 L692.03 172.98 L692.51 173.47 L693.36 173.81 L695.97 173.99 L696.44 174.41 L696.17 175.13 L695.73 175.99 L695.72 176.79 L697.09 177.91 L698.83 177.91 L700.64 177.46 L702.17 177.26 L703.55 177.65 L708.25 179.96 L711.14 181.00 L717.26 182.35 L718.77 183.11 L720.18 183.81 L720.90 184.48 L722.28 186.03 L722.98 186.61 L723.77 186.93 L725.40 187.19 L726.09 187.43 L727.35 188.52 L728.41 190.04 L729.24 191.74 L729.82 193.36 L730.92 196.90 L730.95 198.61 L729.82 199.77 L728.90 200.22 L728.49 200.52 L728.12 200.86 L728.08 201.67 L728.40 202.36 L729.01 202.91 L729.82 203.30 L730.26 203.64 L730.48 204.02 L730.44 204.44 L730.12 204.88 L730.22 207.10 L731.00 208.96 L732.01 210.71 L732.78 212.61 L733.48 216.65 L734.28 218.21 L736.12 219.81 L736.13 219.81 L736.30 224.47 L738.11 229.76 L744.55 241.56 L748.12 246.01 L749.64 248.41 L752.68 255.58 L754.02 257.74 L755.38 258.84 L756.13 259.91 L756.72 261.01 L757.62 262.19 L758.97 263.08 L760.28 263.69 L761.07 264.60 L760.90 266.44 L760.22 267.54 L759.30 268.45 L758.57 269.49 L758.47 270.97 L759.12 272.26 L761.42 274.04 L762.29 275.16 L762.42 275.75 L762.24 276.66 L762.24 277.14 L762.89 279.25 L762.92 279.86 L762.69 280.33 L761.85 281.35 L761.64 281.95 L761.71 282.76 L761.97 283.22 L762.27 283.60 L762.47 284.18 L763.11 293.38 L763.26 295.65 L762.22 298.90 L759.20 301.16 L749.13 305.34 L736.45 307.54 L729.73 309.93 L723.04 313.33 L713.81 322.01 L710.77 324.29 L709.37 325.62 L705.85 330.03 L706.09 330.07 L706.64 330.35 L707.21 330.65 L708.04 331.39 L708.28 332.39 L707.68 333.74 L709.39 334.41 L714.84 335.32 L716.01 335.04 L717.01 335.65 L721.72 336.74 L723.31 336.84 L723.31 337.31 L722.75 338.01 L722.97 338.14 L724.06 337.88 L725.01 338.14 L725.69 338.57 L726.42 338.66 L727.46 337.88 L727.76 338.22 L728.51 338.61 L729.01 338.97 L730.28 338.21 L730.57 338.78 L730.36 339.68 L730.05 339.95 L732.16 342.54 L733.64 342.83 L737.23 342.76 L738.66 343.30 L739.16 343.88 L739.55 344.50 L740.00 344.98 L740.72 345.18 L741.64 345.58 L741.95 346.45 L742.02 347.33 L742.65 348.27 L743.73 351.14 L744.60 352.43 L743.40 352.98 L742.41 353.95 L740.97 356.05 L740.48 357.45 L740.43 359.91 L739.93 360.76 L740.23 360.84 L740.36 360.84 L740.42 360.93 L740.46 361.28 L739.55 361.60 L739.23 363.24 L738.39 363.87 L739.58 365.24 L740.97 366.41 L740.13 368.18 L738.67 369.08 L737.08 369.68 L735.79 370.60 L735.49 371.15 L735.18 371.96 L734.75 373.71 L735.02 374.10 L735.53 374.63 L735.71 375.11 L735.01 375.31 L734.71 375.53 L734.95 376.01 L735.42 376.54 L735.79 376.87 L734.82 377.62 L734.36 377.79 L733.67 377.85 L733.67 378.42 L734.54 379.00 L734.64 379.74 L734.24 381.79 L734.51 382.88 L735.16 383.93 L736.83 385.72 L736.31 385.75 L735.79 385.72 L736.73 386.90 L737.94 387.19 L738.97 387.58 L739.27 388.59 L739.41 389.06 L739.92 390.12 L741.11 390.64 L742.49 390.96 L743.56 391.41 L742.38 392.93 L742.49 393.40 L745.58 396.25 L746.20 397.16 L745.32 397.42 L744.78 397.95 L744.69 398.73 L745.16 399.75 L743.77 400.09 L742.42 400.99 L741.38 402.10 L740.97 403.11 L741.47 404.72 L742.66 405.11 L744.13 405.13 L745.42 405.66 L749.62 411.43 L751.33 412.74 L755.19 414.28 L758.79 416.59 L759.64 417.51 L758.39 417.92 L758.10 418.62 L759.22 420.12 L761.22 422.06 L761.87 423.08 L762.77 426.25 L762.77 426.73 L762.45 427.32 L763.00 427.63 L763.97 427.88 L764.89 428.28 L765.73 429.08 L765.94 429.71 L766.02 430.39 L766.44 431.39 L767.57 432.58 L772.70 435.57 L779.02 437.78 L780.00 438.73 L779.07 440.04 L776.76 440.35 L774.25 440.37 L772.70 440.80 L770.69 440.08 L768.60 440.26 L766.86 441.10 L765.93 442.40 L766.07 443.85 L767.19 444.82 L768.99 445.34 L771.10 445.51 L771.10 445.98 L770.11 447.31 L771.18 448.47 L773.25 449.29 L775.29 449.61 L774.83 451.34 L775.42 452.93 L777.35 455.88 L777.37 455.91 L775.61 457.85 L776.38 461.45 L776.92 462.45 L777.31 462.67 L777.22 462.84 L776.27 463.71 L774.83 464.68 L769.95 466.31 L769.74 467.23 L769.86 468.69 L769.73 469.67 L769.39 470.49 L767.72 472.99 L763.73 474.05 L749.99 474.16 L747.37 474.68 L746.06 475.11 L745.03 475.76 L744.20 476.87 L743.25 478.89 L743.20 478.99 L742.15 479.97 L736.17 484.14 L733.97 485.27 L733.97 485.27 L733.96 485.28 L733.95 485.28 L729.82 487.31 L726.39 489.02 L709.06 501.12 L706.78 503.39 L704.00 504.79 L700.98 506.95 L692.76 514.73 L689.58 516.84 L689.18 517.47 L688.57 519.00 L688.21 519.54 L687.55 519.97 L686.21 520.29 L685.55 520.57 L684.81 521.16 L680.14 526.65 L678.86 527.49 L678.03 527.72 L676.40 527.93 L675.55 528.40 L675.00 529.06 L673.69 531.48 L667.94 536.51 L666.05 539.44 L667.51 542.15 L668.02 543.26 L668.49 546.49 L668.77 547.35 L668.98 547.77 L669.97 548.79 L671.61 549.91 L672.03 550.50 L672.37 551.70 L673.40 558.66 L673.11 559.76 L671.83 562.07 L670.75 564.75 L669.55 566.39 L669.15 567.32 L669.61 567.72 L669.96 567.57 L670.96 566.74 L672.16 567.29 L672.06 567.32 L671.77 567.37 L674.23 568.50 L676.45 570.42 L677.85 571.10 L681.25 572.35 L682.17 573.12 L682.18 573.76 L681.49 575.25 L681.39 576.28 L681.72 576.99 L682.95 578.38 L683.05 578.54 L683.19 578.79 L682.31 580.00 L680.77 579.56 L679.09 578.57 L677.74 578.10 L676.90 577.93 L675.50 576.63 L674.73 576.15 L673.90 576.09 L672.20 576.43 L669.45 576.30 L667.83 576.40 L666.20 576.27 L664.33 575.43 L661.49 573.37 L659.97 573.06 L658.37 574.07 L655.74 573.22 L649.81 573.05 L647.02 572.49 L643.18 569.95 L641.57 569.53 L637.37 569.64 L633.81 568.93 L633.25 568.61 L633.08 568.13 L633.29 567.64 L633.28 567.11 L632.45 566.50 L631.82 566.42 L630.00 566.57 L629.24 566.54 L628.36 566.28 L625.89 565.24 L620.52 564.57 L618.38 563.54 L617.87 561.12 L616.92 558.44 L614.74 556.14 L612.00 554.45 L607.92 553.12 L605.13 551.45 L603.75 550.93 L602.22 551.11 L600.91 551.90 L599.83 552.73 L599.04 553.08 L597.88 552.46 L595.33 549.90 L594.05 549.04 L593.30 548.90 L592.12 549.07 L591.55 549.02 L590.78 548.67 L589.37 547.77 L588.60 547.43 L587.18 547.19 L581.75 547.59 L580.60 547.90 L579.22 548.26 L578.10 548.05 L575.29 548.45 L574.03 548.46 L566.64 547.10 L562.39 545.62 L561.34 545.45 L559.97 546.07 L557.60 548.36 L556.30 549.16 L554.67 549.33 L553.51 548.81 L552.43 548.03 L551.06 547.41 L549.88 547.34 L546.80 547.75 L545.64 548.11 L544.10 549.23 L545.03 549.92 L546.78 550.61 L547.70 551.76 L547.08 552.45 L545.68 552.64 L544.08 552.65 L542.89 552.81 L541.33 553.80 L538.85 556.17 L537.21 557.10 L535.43 557.52 L534.04 557.35 L532.81 556.77 L531.57 555.92 L530.15 555.23 L528.96 555.12 L527.66 555.17 L525.96 555.00 L524.76 554.42 L518.03 549.17 L516.84 549.03 L513.97 549.33 L512.34 549.17 L511.64 549.20 L510.86 549.49 L509.65 550.46 L508.78 551.00 L506.99 551.42 L505.33 551.15 L498.91 549.01 L497.73 549.19 L497.75 550.50 L493.83 550.59 L490.72 549.83 L489.82 549.84 L489.04 550.22 L488.76 550.69 L488.60 551.39 L488.21 552.47 L487.67 553.52 L487.30 553.86 L481.44 554.20 L480.29 554.62 L478.63 555.91 L477.89 556.36 L476.22 556.23 L476.03 556.12 L475.60 556.49 L474.15 558.62 L473.72 559.52 L473.19 560.37 L472.25 561.11 L471.82 563.76 L471.04 565.66 L469.55 566.41 L467.04 565.60 L463.13 563.19 L461.02 562.47 L458.59 562.65 L457.21 563.31 L455.73 564.32 L454.67 565.04 L452.98 565.45 L449.48 565.27 L447.57 564.81 L446.59 563.93 L446.90 562.93 L449.77 559.86 L450.10 559.68 L450.59 559.59 L451.03 559.42 L451.21 559.00 L451.07 558.67 L451.04 558.65 L450.46 558.25 L450.44 558.22 L450.32 558.05 L450.32 558.05 L449.28 557.55 L449.01 557.29 L449.01 557.29 L449.06 556.97 L449.64 556.40 L449.76 556.09 L449.31 552.42 L448.93 551.16 L448.22 549.73 L448.21 549.72 L447.52 549.38 L444.98 550.05 L443.45 550.15 L441.79 550.03 L437.43 549.06 L437.44 549.04 L437.60 548.15 L437.55 546.96 L437.67 546.55 L438.02 546.07 L434.99 546.05 L433.41 545.77 L432.10 545.12 L431.71 544.58 L430.49 542.16 L429.11 538.34 L428.19 536.81 L426.41 536.04 L425.84 535.65 L424.56 534.18 L423.92 534.01 L423.50 533.90 L423.06 534.02 L422.77 534.40 L416.20 539.12 L415.62 539.44 L414.55 539.72 L413.77 539.80 L411.43 539.79 L409.97 539.99 L408.73 540.39 L407.63 541.07 L406.59 542.15 L405.38 544.61 L405.51 544.70 L405.75 544.92 L405.90 545.29 L405.72 545.79 L405.39 545.96 L404.45 545.97 L404.23 546.00 L403.70 547.48 L403.50 548.43 L402.96 549.03 L400.62 549.64 L398.71 549.89 L397.93 549.86 L397.20 549.61 L395.70 548.90 L395.00 548.74 L393.34 548.99 L390.41 550.11 L388.49 550.21 L387.01 550.02 L386.59 549.17 L386.90 546.68 L386.70 545.55 L386.34 544.53 L386.26 543.44 L386.92 542.17 L384.73 541.29 L377.22 540.84 Z" fill="#1E417C"/>
</svg>
