<svg width="800" height="600" viewBox="0 0 800 600" fill="none" xmlns="http://www.w3.org/2000/svg">
  <path d="M690.73 314.57 L742.86 326.41 L771.82 337.15 L780.00 350.01 L755.81 390.30 L720.20 433.14 L677.27 467.39 L630.25 481.27 L578.63 486.98 L537.74 502.65 L464.48 552.83 L452.39 564.07 L446.42 571.23 L435.52 575.91 L408.60 580.00 L357.49 578.98 L332.28 572.50 L321.55 559.98 L303.66 531.28 L260.22 511.34 L207.91 499.16 L163.11 494.31 L72.13 496.69 L35.16 487.66 L20.00 458.70 L29.03 425.65 L91.55 337.15 L100.58 297.54 L110.98 275.22 L134.49 251.28 L162.26 234.41 L182.36 231.09 L228.02 237.06 L275.04 231.09 L333.30 203.24 L364.48 194.12 L420.19 197.36 L473.85 214.91 L631.44 293.62 L690.73 314.57 Z" fill="#1E417C"/>
</svg>
