<svg width="800" height="600" viewBox="0 0 800 600" fill="none" xmlns="http://www.w3.org/2000/svg">
  <path d="M453.17 302.90 L452.42 302.35 L451.90 301.74 L451.51 301.06 L451.20 300.30 L451.67 300.24 L452.31 300.29 L453.05 300.63 L453.62 300.98 L454.23 301.10 L455.11 300.73 L454.82 301.44 L453.34 302.40 L453.17 302.90 Z" fill="#1E417C"/>
  <path d="M533.98 320.38 L534.85 321.79 L535.15 322.16 L535.16 322.17 L534.14 322.47 L533.44 321.85 L533.33 320.92 L533.98 320.38 Z" fill="#1E417C"/>
  <path d="M572.94 48.31 L572.86 48.71 L572.84 49.42 L572.85 49.83 L573.82 50.17 L574.24 50.59 L574.35 51.25 L574.44 51.39 L574.52 51.52 L574.89 51.48 L575.28 51.33 L576.01 51.26 L576.69 51.05 L577.00 51.08 L577.64 51.30 L577.98 51.47 L577.97 51.63 L577.88 51.84 L577.93 52.14 L578.18 52.71 L578.35 52.87 L578.76 53.01 L579.12 53.05 L579.55 53.01 L579.92 52.85 L580.11 52.56 L580.38 51.98 L580.88 51.75 L581.55 51.77 L582.60 52.00 L584.01 52.54 L584.38 52.49 L584.76 52.40 L585.16 52.40 L586.13 53.13 L586.26 54.37 L585.90 55.71 L585.38 56.78 L584.95 57.20 L583.56 58.30 L583.28 58.59 L583.71 59.32 L584.32 59.83 L585.07 60.14 L585.90 60.30 L586.82 60.36 L587.39 60.22 L587.68 59.77 L587.76 58.88 L588.00 58.20 L588.58 57.72 L589.34 57.51 L590.10 57.66 L589.39 58.11 L589.12 58.55 L589.27 59.00 L589.84 59.48 L590.48 59.77 L592.43 60.02 L593.60 60.49 L594.70 61.16 L595.96 61.07 L596.26 61.15 L596.82 61.42 L597.07 61.57 L598.24 61.68 L598.80 61.80 L599.21 62.15 L600.39 62.80 L601.68 63.11 L604.37 63.27 L606.97 62.93 L607.88 63.16 L608.37 64.09 L608.51 64.36 L608.49 64.59 L608.38 64.75 L608.34 64.93 L608.53 65.24 L608.87 65.48 L609.21 65.52 L609.54 65.48 L609.88 65.52 L611.04 66.05 L611.64 66.42 L612.95 67.72 L613.00 67.86 L612.93 68.01 L612.92 68.13 L613.15 68.21 L613.70 68.21 L613.84 68.24 L614.04 68.45 L613.99 68.67 L613.99 68.87 L614.31 69.03 L614.58 69.00 L615.14 68.71 L615.44 68.64 L615.50 67.83 L616.36 67.85 L618.18 68.48 L619.21 68.42 L620.03 68.06 L621.65 67.11 L621.95 67.33 L622.21 67.26 L622.45 67.00 L622.63 66.67 L623.15 67.03 L623.23 67.06 L625.19 67.94 L625.59 68.57 L626.49 68.65 L627.47 68.45 L628.08 68.26 L628.00 68.85 L628.20 69.43 L628.61 69.93 L629.17 70.27 L629.37 70.45 L629.42 70.69 L629.51 70.91 L629.87 71.03 L630.30 71.12 L630.53 71.27 L630.69 71.44 L630.88 71.59 L632.22 71.98 L633.39 71.90 L635.99 71.19 L638.06 70.97 L638.70 70.65 L639.24 70.59 L641.04 70.93 L641.58 71.13 L642.30 72.07 L642.83 72.54 L643.33 72.48 L644.28 71.50 L644.88 71.05 L645.49 70.89 L646.43 71.48 L646.50 71.59 L646.49 71.73 L646.51 71.87 L646.68 71.98 L647.35 72.08 L648.01 72.05 L649.30 71.80 L649.86 71.98 L654.07 71.89 L655.27 72.00 L655.71 71.89 L655.94 71.61 L656.00 71.52 L656.04 70.98 L655.81 70.47 L655.40 70.09 L654.92 69.97 L655.13 69.63 L655.26 69.48 L655.51 69.34 L655.13 68.96 L655.61 68.01 L655.54 67.29 L655.70 66.81 L656.47 66.58 L657.40 66.53 L657.99 66.57 L659.16 66.91 L659.75 67.01 L660.40 66.96 L660.98 67.03 L662.44 67.67 L663.44 67.96 L663.74 68.13 L664.28 68.52 L664.64 68.63 L664.96 68.51 L665.28 68.32 L665.62 68.23 L665.91 68.31 L666.47 68.65 L666.73 68.77 L669.60 68.91 L670.31 69.07 L670.91 69.47 L671.24 69.95 L671.49 70.48 L671.84 70.94 L672.42 71.25 L672.79 71.29 L673.92 71.02 L678.08 71.03 L678.87 71.19 L678.73 71.67 L678.90 71.80 L679.21 71.82 L679.50 71.93 L680.09 72.72 L680.74 73.38 L681.31 74.54 L681.80 75.01 L681.65 75.22 L681.46 75.56 L681.42 75.88 L681.70 76.02 L681.70 76.15 L681.14 76.86 L681.03 77.25 L681.79 77.17 L682.38 77.56 L682.50 78.10 L681.83 78.45 L681.64 78.49 L681.07 78.68 L682.04 79.81 L682.04 80.23 L682.43 80.44 L684.47 80.64 L684.75 80.61 L685.14 80.46 L685.35 80.26 L685.50 80.07 L685.69 79.91 L687.82 79.71 L688.90 79.37 L689.27 78.46 L689.39 78.35 L689.49 78.31 L689.58 78.34 L689.67 78.45 L690.07 78.55 L690.48 78.55 L690.86 78.42 L691.18 78.14 L691.28 78.19 L691.35 78.26 L691.37 78.34 L691.35 78.45 L691.97 78.64 L694.07 78.85 L694.78 79.07 L696.68 80.03 L697.47 80.17 L698.10 80.19 L698.62 80.37 L699.08 80.93 L699.53 82.20 L699.85 82.72 L700.51 83.15 L700.93 83.34 L701.38 83.40 L702.26 83.33 L702.82 83.22 L703.21 83.03 L703.78 82.58 L704.59 82.12 L704.75 81.93 L705.00 81.43 L705.16 81.25 L705.70 81.06 L707.29 81.21 L709.38 80.73 L710.44 80.64 L711.38 81.04 L711.79 81.29 L713.75 81.97 L714.81 82.14 L715.34 82.16 L715.59 82.71 L716.12 83.23 L716.77 83.62 L717.40 83.74 L718.08 84.03 L718.46 84.12 L718.81 84.11 L719.04 83.95 L719.32 83.40 L719.58 83.22 L720.24 83.21 L721.79 83.61 L722.53 83.71 L723.44 83.67 L723.42 83.52 L723.00 83.17 L722.70 82.53 L722.97 82.24 L724.39 81.40 L724.99 81.18 L725.68 81.14 L727.00 81.29 L727.71 81.21 L728.25 80.95 L729.27 80.22 L729.81 79.98 L730.35 79.94 L730.93 79.95 L731.50 79.88 L732.61 79.24 L733.70 79.55 L734.27 79.27 L734.63 79.33 L735.62 79.35 L735.84 79.39 L736.06 79.77 L736.33 80.08 L736.65 80.34 L737.06 80.53 L737.75 80.69 L738.62 80.77 L739.50 80.74 L740.96 80.55 L740.88 81.00 L740.59 81.73 L740.74 82.26 L740.74 82.83 L741.17 83.32 L741.74 83.65 L742.49 83.55 L743.28 83.53 L743.73 84.00 L743.96 84.00 L744.32 83.74 L744.76 83.81 L745.57 84.21 L744.77 85.39 L744.65 85.73 L744.54 86.24 L744.28 86.49 L743.98 86.67 L743.73 87.02 L743.19 86.82 L741.94 87.02 L740.88 86.69 L740.59 86.35 L739.97 86.45 L739.25 87.02 L738.86 87.75 L738.81 88.94 L738.78 89.77 L738.98 90.38 L739.53 90.81 L740.69 91.34 L741.34 91.98 L742.09 92.81 L742.04 93.23 L741.59 93.56 L741.46 94.00 L741.65 94.53 L741.83 95.23 L741.86 95.46 L742.00 95.64 L742.63 96.03 L742.80 96.28 L742.69 96.94 L741.85 98.03 L741.43 98.89 L740.87 99.33 L739.92 100.34 L738.79 100.27 L737.50 100.98 L737.18 101.91 L736.21 102.32 L733.19 104.09 L732.58 104.83 L731.50 105.02 L730.70 105.18 L729.82 105.35 L729.45 105.43 L729.29 105.50 L728.77 105.86 L728.67 106.01 L728.54 106.25 L728.22 106.31 L727.82 106.30 L727.36 107.09 L723.09 108.45 L716.25 110.82 L715.56 111.37 L713.61 112.37 L711.09 113.18 L710.10 113.74 L709.19 114.67 L707.55 116.84 L706.59 117.86 L705.48 118.64 L703.11 119.62 L701.74 119.91 L699.43 120.09 L697.16 120.53 L696.47 120.85 L696.14 120.92 L694.99 120.88 L688.39 122.40 L685.51 122.56 L677.03 124.96 L674.66 125.36 L674.40 125.52 L673.80 126.32 L673.67 126.58 L673.50 126.78 L673.14 126.91 L672.34 126.54 L672.09 126.47 L670.60 126.50 L669.18 126.70 L667.89 127.14 L666.98 127.55 L663.16 130.42 L661.32 132.28 L657.65 135.13 L657.00 136.12 L657.90 136.51 L658.87 136.81 L659.28 136.79 L659.44 136.62 L659.32 136.38 L658.87 136.12 L659.43 136.15 L659.89 136.34 L660.28 136.62 L661.09 137.39 L661.96 137.94 L662.38 137.90 L663.04 138.08 L662.99 138.78 L662.51 139.49 L662.18 139.85 L660.01 140.34 L659.07 140.97 L657.41 142.96 L656.40 143.58 L655.41 143.85 L654.33 143.97 L653.54 143.00 L655.17 142.84 L655.93 143.25 L657.04 142.73 L658.27 141.26 L657.59 141.18 L656.57 141.24 L653.79 141.94 L653.12 142.28 L652.56 142.74 L652.05 143.33 L651.01 145.29 L650.46 146.31 L649.86 146.96 L649.27 147.44 L648.82 148.00 L648.60 148.87 L647.72 149.55 L645.37 153.04 L644.98 153.40 L644.07 153.97 L643.62 154.33 L642.47 155.58 L640.46 156.87 L638.41 160.00 L637.48 160.76 L635.77 161.58 L634.90 162.57 L633.43 164.96 L632.56 165.98 L630.45 167.80 L626.96 172.27 L626.78 172.63 L626.70 173.44 L626.47 174.01 L626.11 174.44 L625.30 175.12 L624.84 175.62 L624.43 176.21 L624.25 176.78 L624.02 177.21 L622.97 178.40 L622.61 179.00 L622.37 180.21 L622.47 181.89 L622.70 183.33 L623.35 185.56 L625.47 189.16 L625.84 189.70 L626.25 190.29 L625.84 190.52 L625.35 190.82 L625.54 191.43 L625.87 192.66 L626.44 193.78 L627.32 195.01 L628.19 196.36 L629.46 198.08 L629.95 198.58 L631.21 199.36 L632.48 200.39 L633.20 200.83 L634.12 201.02 L635.66 201.14 L637.28 201.50 L638.73 202.14 L639.79 203.07 L639.64 203.12 L639.30 203.32 L639.71 203.46 L639.97 203.69 L640.89 204.26 L641.22 204.19 L641.44 204.61 L641.45 205.14 L641.22 205.40 L640.59 205.43 L640.02 205.54 L639.50 205.75 L639.02 206.11 L638.63 206.82 L638.56 206.91 L638.43 207.03 L637.78 207.05 L637.54 207.15 L637.09 207.49 L636.69 207.66 L636.33 207.88 L636.00 208.42 L636.25 208.89 L635.57 208.77 L635.11 208.85 L634.66 209.02 L634.04 209.11 L633.03 209.12 L632.56 209.24 L632.08 209.55 L631.68 210.10 L631.67 210.59 L631.72 211.06 L631.50 211.54 L630.98 211.97 L630.48 212.13 L629.08 212.13 L627.55 212.40 L626.70 212.66 L625.63 213.26 L622.41 214.33 L621.89 214.62 L621.68 215.01 L621.42 215.14 L620.19 216.23 L619.82 216.73 L619.68 217.39 L619.69 217.74 L619.56 217.88 L618.47 217.93 L617.99 218.05 L617.64 218.32 L617.51 218.83 L616.31 218.78 L616.01 220.12 L616.51 223.21 L616.12 223.60 L615.54 223.72 L614.32 223.65 L613.56 223.80 L612.95 224.19 L612.47 224.72 L612.11 225.28 L611.89 225.76 L611.75 226.29 L611.65 227.71 L611.50 229.94 L611.43 230.57 L611.13 230.87 L610.23 231.15 L609.59 231.68 L609.27 232.13 L607.91 234.82 L607.84 235.37 L607.85 235.41 L608.00 236.75 L607.84 237.09 L606.92 236.19 L606.09 237.97 L605.65 238.26 L604.90 238.44 L604.62 238.90 L604.74 239.53 L605.84 241.12 L606.18 241.45 L607.27 242.02 L608.04 242.32 L608.71 242.38 L609.00 241.97 L609.62 242.26 L609.85 242.66 L609.71 243.05 L609.23 243.36 L608.95 243.60 L608.65 243.73 L608.35 243.73 L608.05 243.57 L607.73 243.73 L606.80 244.00 L606.24 244.10 L605.28 244.51 L604.02 244.51 L603.59 244.58 L603.12 244.76 L602.29 245.20 L602.00 245.03 L600.65 244.51 L599.54 244.34 L597.40 244.30 L596.80 244.36 L596.27 244.51 L595.89 244.77 L595.71 245.10 L595.81 245.42 L596.19 246.01 L595.13 245.81 L594.12 245.61 L593.90 245.23 L593.73 244.93 L593.01 244.84 L592.03 244.52 L591.56 244.42 L591.06 244.83 L590.92 245.14 L589.97 245.12 L588.83 245.00 L587.83 245.40 L587.29 245.69 L585.79 246.87 L585.23 247.15 L584.55 247.27 L584.37 247.34 L584.11 247.50 L583.86 247.69 L583.75 247.85 L583.66 248.01 L583.30 249.12 L583.27 249.35 L582.98 249.53 L582.78 249.48 L582.60 249.36 L582.37 249.35 L582.07 249.50 L581.40 249.96 L581.09 250.06 L580.59 250.13 L578.86 250.73 L578.09 251.11 L577.95 251.51 L577.71 251.78 L577.10 251.71 L576.79 252.01 L576.60 252.60 L576.15 253.29 L575.16 254.44 L573.17 256.03 L572.31 256.98 L571.72 258.36 L571.47 259.53 L571.06 260.45 L570.88 261.39 L569.87 263.45 L569.16 264.39 L569.13 264.81 L569.22 265.11 L569.35 265.37 L569.41 265.66 L569.35 265.96 L569.19 266.14 L568.93 266.22 L568.17 266.27 L567.97 266.34 L567.55 266.68 L566.36 267.34 L565.89 267.79 L565.55 269.18 L565.15 269.59 L564.62 269.91 L564.07 270.39 L563.94 270.65 L563.76 271.29 L563.59 271.56 L563.28 271.72 L562.90 271.80 L562.58 271.91 L562.24 272.55 L561.71 272.88 L561.03 273.10 L560.38 273.18 L559.11 272.85 L558.16 272.08 L557.34 271.16 L556.44 270.39 L555.24 269.79 L554.54 269.57 L553.77 269.49 L553.15 269.59 L552.05 270.05 L551.36 270.18 L551.05 270.11 L550.14 269.79 L549.73 269.72 L547.05 270.10 L546.51 270.35 L545.84 271.64 L545.15 273.15 L544.28 273.87 L544.12 273.97 L543.74 274.28 L542.88 274.58 L541.73 274.71 L541.13 274.53 L540.43 274.77 L539.55 274.29 L538.88 273.86 L538.26 273.64 L537.96 273.71 L537.65 274.03 L537.34 274.10 L536.99 273.94 L536.06 272.95 L535.12 272.41 L534.47 272.36 L532.63 272.85 L529.64 272.43 L526.92 272.60 L524.52 272.26 L521.09 272.59 L520.59 272.86 L520.12 273.23 L519.43 273.64 L518.20 274.26 L516.09 274.24 L514.79 273.40 L514.11 273.49 L513.65 273.69 L512.41 273.21 L511.92 272.67 L510.86 272.71 L509.74 272.78 L509.26 273.13 L507.52 273.29 L505.08 272.67 L503.90 272.35 L502.18 272.64 L499.76 273.20 L496.53 272.49 L495.75 272.64 L494.73 273.24 L491.79 273.59 L490.86 273.69 L484.83 273.30 L484.25 273.44 L483.81 273.75 L482.87 275.07 L482.68 275.36 L482.22 275.76 L481.86 276.25 L481.72 276.79 L480.72 278.14 L478.59 278.37 L477.68 279.83 L476.50 280.45 L476.18 280.60 L475.47 280.83 L474.04 281.10 L472.64 281.07 L468.72 280.67 L467.96 280.64 L467.64 280.73 L467.26 280.97 L464.87 282.31 L462.56 282.48 L461.00 283.26 L460.59 283.38 L459.35 283.50 L458.81 283.65 L458.37 283.86 L457.93 284.33 L457.00 285.66 L456.98 285.98 L456.41 287.21 L456.11 287.71 L455.94 287.87 L455.69 288.05 L455.42 288.21 L454.86 288.38 L454.90 288.63 L455.04 288.94 L454.66 289.39 L453.55 291.06 L453.39 291.40 L453.23 292.98 L452.57 292.98 L452.29 292.24 L451.76 291.93 L450.96 291.69 L450.31 291.68 L450.20 292.01 L449.89 292.29 L449.74 292.72 L449.77 293.20 L449.99 293.64 L449.82 293.89 L449.91 294.41 L450.10 294.74 L450.20 295.02 L450.09 295.40 L449.86 295.63 L449.63 295.81 L448.92 296.03 L445.54 297.02 L445.05 297.28 L444.01 297.53 L443.41 296.51 L441.99 295.86 L441.39 295.48 L440.59 295.72 L439.89 295.53 L439.22 295.19 L437.79 294.86 L437.28 294.48 L436.55 293.61 L434.35 291.87 L433.70 291.53 L432.96 291.54 L431.46 291.77 L429.66 291.35 L428.79 290.41 L428.13 289.28 L427.37 288.27 L425.52 287.47 L425.30 286.98 L425.21 286.42 L424.99 285.81 L424.68 285.23 L423.53 284.16 L422.73 282.67 L422.22 281.66 L421.46 280.48 L420.72 279.98 L420.43 279.71 L420.85 279.55 L421.13 279.60 L422.21 280.40 L422.49 280.70 L422.32 280.99 L422.57 281.31 L423.09 281.78 L423.50 281.71 L423.76 281.52 L424.12 281.07 L424.85 280.40 L424.61 280.38 L423.92 280.56 L423.33 280.50 L423.05 279.98 L423.27 278.95 L422.97 278.30 L421.34 277.07 L420.98 276.92 L418.69 276.79 L418.08 276.67 L417.57 276.24 L417.16 274.89 L416.80 274.24 L416.33 273.62 L416.11 272.98 L416.27 272.38 L416.90 271.82 L417.52 271.57 L418.78 271.21 L419.23 270.90 L419.58 270.11 L419.29 268.71 L419.48 267.90 L420.62 267.11 L423.36 267.27 L424.32 266.27 L423.68 266.62 L422.81 266.90 L421.95 266.92 L421.33 266.48 L419.90 266.93 L419.26 267.31 L419.00 268.02 L419.20 270.06 L419.00 270.44 L417.80 270.45 L416.85 269.45 L415.75 267.21 L414.99 266.15 L414.03 265.34 L405.75 260.55 L404.85 260.17 L404.07 260.00 L403.49 259.80 L402.10 258.87 L401.41 258.62 L400.75 258.35 L400.14 257.60 L399.91 256.71 L400.15 256.29 L400.55 256.01 L401.72 254.60 L402.11 254.01 L400.39 255.55 L399.46 256.08 L398.40 256.08 L398.40 256.29 L399.13 257.20 L399.49 257.79 L399.55 258.16 L399.10 258.20 L396.14 257.04 L395.05 256.75 L393.72 256.40 L392.83 256.72 L393.79 256.82 L394.24 257.00 L386.06 257.17 L385.55 257.35 L384.88 257.84 L384.25 257.90 L383.67 257.71 L383.14 257.46 L382.63 255.98 L382.47 255.22 L382.69 254.71 L382.36 253.60 L382.10 250.91 L381.52 249.86 L381.60 249.48 L381.50 248.74 L381.30 247.92 L381.06 247.28 L380.87 247.08 L380.29 246.70 L380.03 246.48 L379.75 246.13 L379.73 246.10 L379.65 245.90 L379.62 245.67 L379.45 245.21 L379.31 245.22 L379.26 245.18 L379.24 244.82 L379.35 244.69 L379.71 244.36 L379.75 244.19 L379.82 244.04 L379.85 243.87 L379.76 243.67 L380.08 243.50 L380.97 242.74 L381.21 242.47 L381.38 241.96 L381.68 240.33 L382.14 239.32 L382.73 238.63 L385.84 236.56 L386.77 235.24 L387.14 234.09 L387.88 232.52 L388.06 231.92 L388.04 231.57 L387.94 231.25 L387.92 230.98 L388.15 230.78 L389.23 230.61 L389.59 230.41 L390.03 230.44 L390.46 230.54 L390.88 230.59 L391.29 230.41 L391.74 230.31 L391.99 230.18 L392.34 229.81 L392.67 229.11 L392.97 228.85 L393.55 228.90 L395.46 229.52 L396.32 229.44 L396.60 228.62 L396.92 228.20 L397.21 227.18 L397.84 226.15 L398.30 225.03 L398.56 224.53 L398.90 223.56 L398.80 223.51 L398.34 223.24 L397.40 223.31 L396.52 223.52 L396.42 223.51 L396.24 223.46 L395.82 223.92 L395.00 224.21 L394.15 224.35 L393.64 224.34 L393.18 224.00 L392.85 223.76 L391.49 221.02 L391.31 220.87 L390.73 220.53 L390.50 220.34 L390.35 220.13 L390.14 219.68 L389.99 219.48 L386.42 215.87 L385.46 215.31 L385.00 215.13 L385.49 214.73 L385.81 214.35 L385.85 213.96 L385.46 213.52 L385.79 213.12 L386.40 211.42 L387.82 209.81 L388.00 209.34 L387.89 209.08 L387.70 208.97 L387.47 208.86 L387.31 208.65 L387.25 208.38 L387.24 208.04 L387.31 207.27 L387.54 206.12 L387.65 205.88 L387.94 205.43 L388.00 205.30 L389.50 204.33 L389.99 204.02 L390.50 203.86 L391.06 203.50 L391.52 203.07 L391.71 202.75 L392.03 202.54 L393.59 202.27 L394.14 202.06 L394.55 201.73 L394.96 201.46 L395.24 201.33 L395.20 200.84 L395.37 200.32 L394.90 199.66 L395.63 199.18 L396.38 198.36 L397.52 196.64 L397.85 196.30 L398.03 195.96 L397.98 195.66 L397.59 195.42 L397.83 194.84 L397.61 194.18 L397.14 193.57 L396.60 193.16 L395.82 192.75 L394.94 192.56 L394.05 192.64 L393.24 193.02 L392.83 193.14 L392.32 193.07 L391.82 192.87 L391.48 192.60 L391.43 192.32 L391.80 191.66 L391.87 191.32 L391.46 190.67 L390.66 190.38 L389.72 190.19 L388.89 189.83 L388.42 189.30 L388.16 188.62 L388.20 187.91 L388.66 187.29 L386.99 185.70 L386.35 185.30 L386.10 184.91 L385.94 184.19 L385.92 183.44 L386.10 182.96 L386.36 182.48 L386.54 181.71 L386.54 180.99 L386.29 180.65 L384.88 180.36 L384.16 180.09 L383.64 179.76 L383.32 179.02 L383.03 178.73 L381.89 178.27 L381.32 177.85 L380.32 176.81 L379.71 176.38 L378.62 174.04 L378.36 173.56 L378.31 173.48 L385.60 173.74 L386.06 173.65 L386.62 173.46 L387.25 173.36 L388.59 173.39 L389.17 173.25 L389.90 173.60 L390.96 173.63 L395.92 173.16 L396.42 173.00 L396.81 172.27 L396.77 172.02 L396.67 171.79 L396.68 171.48 L396.84 171.16 L397.24 170.61 L397.37 170.29 L397.31 170.00 L397.17 169.69 L397.12 169.33 L397.37 168.87 L397.63 168.70 L398.40 168.45 L398.72 168.31 L399.57 167.33 L399.69 167.00 L399.72 166.43 L399.77 166.14 L399.78 165.97 L399.66 165.63 L399.66 165.43 L399.76 165.28 L400.08 165.09 L400.19 164.96 L400.38 164.13 L400.52 163.82 L400.45 163.46 L400.61 163.10 L401.19 162.35 L399.84 160.47 L399.09 159.75 L398.63 159.19 L398.27 158.94 L397.90 158.83 L397.01 158.73 L396.60 158.64 L396.20 158.18 L395.96 157.03 L395.68 156.54 L395.96 156.14 L396.30 155.36 L396.60 155.05 L397.21 154.84 L398.66 154.11 L399.09 154.05 L399.31 154.02 L399.97 154.07 L400.63 154.03 L401.25 153.70 L401.35 153.50 L401.37 153.23 L401.39 152.94 L401.52 152.68 L401.73 152.50 L403.18 151.68 L403.48 151.44 L404.07 150.63 L402.94 149.81 L402.15 148.83 L401.96 147.73 L402.58 146.55 L403.37 145.69 L403.46 145.28 L403.28 144.70 L402.92 144.24 L402.54 143.93 L402.25 143.59 L402.18 143.00 L402.38 142.47 L403.17 141.38 L403.40 140.81 L403.41 140.40 L403.34 139.79 L403.07 138.66 L402.64 137.56 L402.56 137.08 L402.56 136.43 L402.63 136.09 L402.72 135.91 L402.75 135.72 L402.64 135.36 L402.60 135.14 L402.65 134.29 L403.20 134.15 L403.34 133.73 L403.17 133.28 L402.80 133.08 L402.30 132.98 L402.02 132.70 L401.74 131.99 L401.01 130.62 L400.53 130.01 L399.48 129.16 L399.14 128.78 L399.07 128.35 L399.44 127.91 L399.57 127.27 L399.58 127.27 L400.28 127.00 L402.36 127.14 L403.28 127.06 L403.74 126.72 L405.08 125.21 L405.35 124.60 L405.27 123.77 L405.40 123.53 L405.84 123.10 L407.03 122.33 L407.22 122.05 L407.47 121.55 L408.67 120.18 L409.07 119.85 L409.66 119.77 L411.87 119.75 L412.18 119.58 L414.16 118.93 L415.26 118.28 L416.35 117.44 L417.41 116.14 L417.55 116.11 L417.96 116.17 L418.10 116.14 L418.18 115.96 L418.22 115.69 L418.20 115.49 L418.10 115.47 L418.53 115.21 L419.00 115.07 L420.06 115.01 L420.06 114.72 L421.35 113.17 L421.36 112.94 L421.27 112.72 L421.25 112.45 L421.46 112.11 L422.34 111.41 L423.95 109.63 L423.60 109.30 L423.13 108.80 L421.71 107.67 L420.19 106.93 L418.54 106.48 L415.80 106.05 L415.34 106.04 L415.11 106.19 L414.88 106.40 L414.42 106.64 L413.91 106.84 L413.56 106.91 L412.61 106.64 L412.15 106.10 L411.97 105.44 L411.89 104.81 L411.73 104.49 L411.51 104.20 L411.40 103.91 L411.60 103.59 L411.84 103.31 L411.99 102.99 L412.81 100.23 L413.20 99.60 L412.33 99.38 L411.72 99.31 L411.46 99.07 L411.73 97.62 L411.60 97.06 L411.14 96.65 L410.32 96.39 L409.87 97.11 L408.72 97.38 L406.32 97.45 L405.31 97.23 L404.08 95.80 L403.04 95.67 L402.83 96.67 L402.03 97.05 L399.93 97.18 L398.98 97.03 L398.16 96.55 L397.69 96.37 L397.39 96.26 L396.60 96.68 L395.40 97.08 L394.34 96.71 L393.31 96.05 L392.22 95.54 L391.74 95.60 L391.14 95.85 L390.63 96.15 L390.38 96.34 L390.31 96.82 L390.52 97.91 L390.45 98.45 L390.06 98.86 L389.75 99.20 L388.64 99.72 L386.24 100.34 L385.63 100.41 L384.41 100.39 L383.90 100.45 L383.44 100.69 L382.63 101.38 L382.18 101.67 L382.04 101.14 L381.71 100.55 L381.28 100.10 L380.81 99.98 L380.48 99.95 L379.97 99.68 L379.71 99.68 L379.46 99.84 L379.39 100.04 L379.36 100.27 L379.18 100.52 L378.67 100.79 L377.98 100.98 L377.26 101.06 L376.66 101.01 L376.12 100.78 L376.10 100.46 L376.62 99.40 L374.80 99.34 L374.21 99.13 L373.28 98.62 L372.75 98.52 L371.80 98.89 L369.70 99.27 L368.79 99.23 L368.44 99.32 L368.28 99.50 L368.16 99.72 L367.93 99.92 L366.85 99.92 L366.62 98.94 L366.53 98.03 L365.87 98.22 L365.71 98.61 L365.54 99.17 L365.23 99.61 L364.60 99.62 L364.06 99.56 L363.58 99.72 L363.16 100.05 L362.83 100.46 L361.72 101.32 L361.66 101.33 L360.20 101.65 L357.30 101.51 L357.31 101.45 L357.44 100.64 L357.38 100.19 L357.13 99.92 L355.92 99.57 L355.54 98.97 L355.59 98.34 L355.91 97.73 L357.21 96.29 L358.19 95.56 L359.18 95.09 L359.71 94.75 L360.07 94.33 L360.15 93.74 L359.88 93.24 L359.36 92.86 L358.71 92.66 L358.01 92.71 L357.41 92.92 L356.90 93.02 L356.47 92.77 L356.36 92.22 L356.46 90.77 L356.15 90.26 L355.85 89.93 L354.84 90.47 L354.22 90.66 L353.64 90.68 L353.39 90.73 L353.08 90.87 L352.22 91.46 L351.65 91.69 L346.43 92.31 L345.80 92.50 L344.64 93.09 L344.02 93.28 L342.78 93.31 L342.19 93.40 L341.62 93.72 L341.32 94.06 L340.96 94.79 L340.71 95.13 L340.02 95.47 L339.15 95.67 L338.38 95.96 L338.00 96.17 L337.63 96.72 L337.12 97.24 L336.50 97.63 L335.80 97.78 L335.23 98.03 L334.70 98.51 L334.16 98.87 L333.60 98.72 L333.68 98.26 L333.01 91.68 L333.12 91.10 L333.49 90.86 L334.83 90.84 L335.45 90.71 L335.70 90.40 L335.54 90.13 L334.90 89.90 L334.76 89.69 L334.92 89.57 L335.80 89.23 L335.89 89.08 L335.97 88.77 L336.15 88.45 L336.50 88.31 L336.66 88.21 L337.29 87.61 L339.06 86.60 L339.50 86.46 L339.66 86.39 L340.74 85.63 L341.34 85.45 L342.03 85.10 L342.25 84.92 L342.37 84.64 L342.37 83.61 L342.33 83.38 L342.20 83.36 L341.92 83.42 L341.41 83.79 L341.05 84.42 L340.57 85.02 L339.73 85.29 L339.05 85.41 L337.22 86.04 L336.85 86.34 L336.49 86.40 L334.71 86.31 L334.06 86.46 L334.19 86.04 L334.54 85.29 L334.54 84.82 L334.76 84.82 L335.23 85.36 L335.42 85.10 L335.45 84.01 L335.38 83.73 L335.31 83.58 L335.42 83.50 L335.91 83.42 L337.12 83.63 L337.29 83.55 L337.54 83.11 L338.81 81.99 L339.39 81.60 L340.50 81.06 L340.99 80.70 L341.23 80.21 L340.92 80.33 L340.65 80.31 L340.31 80.21 L340.02 80.24 L339.91 80.27 L339.83 80.33 L339.08 80.67 L338.25 81.16 L337.77 81.37 L337.04 81.51 L335.97 81.59 L334.87 81.49 L334.06 81.11 L333.79 80.73 L333.63 80.09 L333.37 79.73 L332.93 79.55 L331.77 79.40 L331.53 79.27 L331.78 78.94 L332.40 78.65 L333.10 78.44 L333.60 78.35 L334.01 78.46 L334.29 78.74 L334.28 79.06 L333.83 79.27 L334.13 79.41 L334.60 79.56 L335.09 79.62 L335.45 79.52 L335.58 79.17 L335.49 78.77 L335.50 78.40 L335.91 78.14 L335.49 76.97 L335.45 76.39 L335.57 75.89 L335.88 75.48 L336.29 75.22 L336.74 75.12 L337.17 74.70 L338.41 72.63 L338.68 71.87 L338.47 71.87 L338.23 72.41 L337.90 72.94 L337.45 73.33 L336.85 73.49 L336.21 73.31 L335.80 72.88 L335.46 72.35 L335.01 72.07 L334.50 72.78 L334.42 73.20 L334.76 73.49 L334.02 74.27 L333.62 74.46 L333.14 74.18 L333.32 73.82 L332.85 74.00 L331.74 74.64 L332.22 75.07 L331.82 75.30 L330.61 75.56 L330.51 75.74 L330.24 76.50 L329.96 76.58 L329.69 76.77 L329.20 77.20 L328.70 76.78 L328.62 76.16 L328.46 75.60 L327.70 75.35 L327.20 74.99 L327.37 74.17 L327.85 73.31 L328.28 72.79 L328.26 72.39 L328.36 71.89 L328.57 71.22 L328.95 70.81 L329.12 70.57 L329.38 70.34 L329.78 70.23 L329.86 70.16 L330.83 69.75 L331.70 68.85 L332.22 68.50 L333.02 68.36 L333.26 68.12 L333.48 67.60 L333.38 67.05 L332.68 66.77 L332.54 67.54 L332.02 68.02 L331.24 68.27 L330.35 68.36 L328.64 68.17 L327.94 68.28 L328.05 68.84 L327.27 69.46 L326.84 69.63 L326.20 69.54 L325.76 69.25 L325.53 68.81 L325.35 68.27 L325.03 67.67 L325.45 67.68 L325.77 67.55 L326.00 67.32 L326.20 66.98 L325.93 66.59 L325.46 66.35 L324.82 66.16 L324.78 65.90 L324.61 65.45 L324.57 65.25 L324.64 65.12 L324.94 64.86 L325.03 64.65 L325.07 64.35 L325.05 64.13 L324.81 64.00 L324.23 63.96 L323.92 63.82 L323.39 63.20 L322.97 63.06 L322.97 63.27 L323.17 63.63 L322.98 63.83 L322.66 63.89 L322.49 63.86 L322.35 63.41 L322.02 63.37 L321.63 63.55 L321.34 63.75 L321.09 64.04 L320.75 64.72 L320.52 65.02 L320.37 64.95 L320.03 64.16 L319.73 63.96 L319.73 63.75 L319.95 63.43 L320.65 62.01 L320.67 61.80 L320.75 61.53 L320.85 61.27 L320.98 61.08 L321.11 60.78 L320.90 60.56 L320.40 60.29 L320.15 59.49 L320.43 59.31 L320.88 59.29 L321.11 58.99 L321.29 58.38 L321.69 58.09 L322.08 57.88 L322.24 57.48 L322.74 57.80 L323.18 57.89 L323.62 57.78 L324.11 57.48 L324.29 57.30 L324.38 57.14 L324.51 56.97 L324.82 56.79 L325.09 56.69 L325.34 56.63 L325.95 56.58 L325.95 56.33 L325.38 56.54 L324.62 56.66 L324.07 56.63 L324.11 56.33 L323.03 56.74 L322.55 56.69 L322.24 56.10 L323.85 54.97 L324.93 54.54 L326.20 54.95 L326.78 54.94 L327.39 54.85 L327.82 54.72 L328.25 54.44 L328.68 54.25 L329.02 53.79 L329.20 53.29 L329.45 53.29 L330.07 53.69 L330.97 53.67 L331.87 53.40 L332.45 53.07 L331.74 53.11 L331.34 52.91 L330.83 52.15 L330.69 52.16 L330.27 52.00 L329.99 51.79 L330.24 51.69 L330.57 51.67 L331.94 51.23 L333.37 50.52 L334.43 50.31 L334.68 50.07 L334.95 49.90 L335.33 49.83 L335.77 50.01 L336.83 50.80 L337.41 50.98 L338.02 51.05 L339.32 51.37 L339.95 51.44 L340.89 51.18 L342.08 50.68 L343.35 50.40 L344.50 50.77 L346.27 50.15 L346.56 49.94 L346.67 49.64 L346.95 49.38 L347.29 49.20 L347.97 49.08 L348.12 48.94 L348.20 48.79 L348.40 48.67 L350.25 48.32 L350.37 48.76 L350.67 49.09 L351.42 49.58 L351.85 49.19 L351.97 48.89 L351.88 48.09 L352.19 47.65 L352.87 47.73 L353.85 48.19 L354.34 48.31 L354.55 48.62 L354.68 49.00 L354.90 49.36 L355.68 49.93 L356.02 50.26 L356.26 50.77 L356.52 50.23 L356.51 49.71 L356.26 48.67 L356.28 48.15 L356.44 47.85 L356.81 47.61 L357.44 47.29 L356.77 47.05 L356.16 47.00 L355.01 47.06 L354.42 46.92 L353.61 46.28 L353.05 46.11 L353.69 45.75 L357.09 45.43 L357.32 45.36 L357.57 45.21 L357.72 44.98 L357.67 44.73 L357.50 44.71 L356.72 44.96 L354.67 45.21 L354.79 45.10 L354.89 45.04 L355.13 44.96 L355.00 44.88 L354.67 44.73 L354.27 45.17 L353.60 45.38 L352.11 45.43 L352.37 44.91 L352.50 44.20 L352.67 43.69 L353.05 43.81 L353.50 43.35 L353.22 43.17 L352.95 42.90 L352.78 42.56 L352.80 42.20 L352.94 42.20 L353.52 42.27 L353.75 42.20 L354.55 42.28 L355.52 41.91 L360.43 39.18 L360.56 39.55 L360.84 39.75 L361.21 39.77 L361.61 39.64 L361.25 39.66 L361.15 39.64 L361.15 39.43 L361.29 39.37 L361.45 39.25 L361.61 39.18 L360.96 38.79 L360.86 38.43 L361.02 38.07 L361.15 37.68 L361.36 37.39 L361.86 37.30 L362.99 37.31 L364.00 37.11 L364.95 36.69 L365.79 36.13 L366.45 35.47 L367.38 35.57 L367.78 36.06 L368.04 36.66 L368.54 37.10 L368.54 37.31 L368.35 37.23 L368.01 37.16 L367.83 37.10 L367.59 37.39 L367.44 37.69 L367.42 37.98 L367.62 38.23 L367.27 38.43 L367.17 38.39 L366.91 38.23 L366.70 38.39 L366.61 38.44 L366.45 38.49 L366.45 38.72 L368.14 38.78 L368.45 38.53 L367.83 37.79 L368.22 37.59 L368.63 37.58 L369.47 37.79 L369.39 37.68 L369.31 37.44 L369.24 37.31 L369.71 36.93 L370.32 36.56 L371.00 36.27 L372.34 36.02 L373.06 35.66 L373.64 35.18 L373.87 34.67 L373.98 34.55 L374.22 34.65 L374.46 34.91 L374.56 35.26 L374.42 35.46 L373.64 36.16 L373.62 36.64 L373.78 36.79 L374.03 36.74 L374.33 36.64 L374.38 36.55 L374.37 36.38 L374.42 36.23 L374.69 36.16 L374.91 36.14 L375.48 35.93 L375.60 36.39 L376.43 37.56 L376.33 38.10 L376.63 38.01 L377.05 37.58 L377.33 37.10 L377.74 37.22 L378.04 37.04 L378.36 36.78 L378.85 36.64 L380.18 36.75 L380.58 36.85 L383.37 38.00 L384.74 38.38 L386.86 41.13 L388.46 41.71 L388.35 41.85 L388.27 41.95 L388.18 42.05 L387.98 42.15 L387.98 42.40 L388.43 42.55 L388.70 42.46 L388.96 42.27 L389.36 42.15 L389.86 42.14 L390.55 42.32 L391.83 42.46 L393.89 42.40 L394.45 42.15 L395.05 42.38 L395.64 42.46 L396.04 42.67 L396.09 43.34 L395.86 43.71 L395.50 44.11 L395.32 44.58 L395.63 45.17 L395.65 45.17 L395.84 45.17 L396.03 44.62 L396.13 44.05 L396.33 43.59 L396.78 43.34 L397.09 42.55 L399.02 42.23 L402.33 42.15 L402.85 42.26 L404.87 42.15 L406.26 42.44 L407.14 42.52 L409.00 41.79 L410.72 41.92 L412.44 42.37 L413.68 42.86 L414.03 42.67 L414.41 42.60 L415.27 42.61 L415.21 42.45 L415.12 42.07 L415.06 41.92 L415.53 41.99 L416.32 42.32 L416.80 42.40 L418.54 42.15 L420.28 42.15 L420.77 42.08 L421.65 41.77 L422.46 41.62 L422.67 41.45 L422.92 41.28 L423.38 41.22 L424.45 41.81 L424.89 41.92 L427.51 42.13 L428.03 41.92 L428.57 42.11 L429.07 41.94 L429.58 41.66 L430.11 41.48 L434.03 41.48 L434.21 41.17 L433.98 40.92 L433.84 40.65 L434.26 40.30 L434.19 40.19 L434.10 39.94 L434.03 39.84 L435.12 39.84 L435.51 39.69 L435.66 39.27 L435.89 38.96 L436.43 38.98 L437.53 39.38 L438.25 39.84 L440.11 41.44 L440.74 42.15 L440.97 42.15 L441.14 41.67 L441.40 41.81 L441.80 42.40 L443.55 42.61 L450.35 42.40 L451.37 42.60 L451.48 43.07 L451.05 43.60 L450.46 44.01 L450.70 44.24 L451.04 44.09 L451.75 43.91 L452.10 43.78 L452.34 43.56 L452.44 43.34 L452.62 43.16 L453.13 43.09 L454.55 43.19 L455.08 43.33 L457.52 44.52 L458.67 44.82 L461.58 44.93 L462.39 45.09 L462.75 45.52 L463.15 45.33 L465.51 45.86 L465.79 45.78 L466.28 45.47 L466.67 45.42 L467.03 45.49 L467.79 45.79 L470.19 46.16 L472.95 47.11 L473.63 47.26 L481.14 47.75 L481.28 47.76 L482.18 48.39 L482.88 47.88 L483.84 47.75 L484.77 47.94 L485.42 48.39 L485.64 48.39 L485.99 47.97 L486.31 47.85 L487.88 47.98 L492.08 47.66 L493.01 47.12 L495.15 46.64 L495.95 46.55 L497.46 46.55 L497.65 46.46 L497.68 46.29 L497.74 46.14 L498.01 46.07 L498.25 46.12 L499.07 46.55 L499.24 46.39 L499.39 46.35 L499.56 46.35 L499.76 46.32 L499.61 46.26 L499.30 46.07 L499.30 45.86 L500.47 45.24 L501.06 45.05 L501.61 45.17 L502.03 44.97 L502.13 45.01 L502.30 45.17 L503.28 44.72 L504.30 44.56 L505.30 44.71 L506.24 45.17 L504.77 45.65 L504.15 45.95 L503.70 46.32 L504.06 46.63 L504.21 46.72 L504.39 46.80 L504.28 46.83 L504.19 46.82 L504.14 46.86 L504.14 47.01 L504.52 47.02 L504.82 46.98 L505.32 46.80 L505.55 46.63 L506.00 46.16 L506.14 46.07 L506.43 46.14 L506.75 46.47 L507.06 46.55 L507.20 46.41 L507.12 46.11 L506.93 45.79 L506.70 45.63 L506.70 45.42 L507.17 45.47 L507.37 45.52 L507.60 45.63 L507.66 45.46 L507.71 45.46 L507.85 45.42 L507.60 45.17 L507.97 45.05 L508.97 44.99 L509.35 44.82 L509.69 44.58 L510.06 44.44 L512.65 43.85 L513.50 43.89 L513.43 44.47 L514.01 44.50 L514.47 44.74 L514.83 45.03 L515.15 45.17 L517.47 45.46 L517.64 45.58 L517.75 45.75 L517.79 45.96 L517.74 46.26 L517.61 46.31 L517.40 46.27 L517.12 46.32 L516.98 46.23 L516.66 46.08 L516.34 46.01 L516.20 46.19 L516.08 46.39 L515.81 46.57 L515.27 46.80 L515.95 46.89 L516.33 47.27 L516.65 47.42 L517.12 46.80 L517.49 47.20 L517.96 47.23 L518.96 47.01 L519.45 47.08 L521.06 47.49 L523.13 47.70 L524.67 48.12 L525.11 48.18 L525.46 48.33 L526.24 48.98 L527.12 49.18 L527.78 49.33 L528.42 49.39 L529.19 48.96 L530.26 49.45 L531.94 50.51 L531.94 50.26 L531.54 49.44 L531.43 49.02 L531.23 48.78 L531.23 48.64 L531.40 48.48 L531.85 48.38 L532.24 48.03 L533.71 47.37 L534.25 47.26 L534.25 47.01 L534.02 47.01 L534.02 46.80 L534.58 46.56 L535.42 46.49 L537.14 46.55 L538.73 46.43 L539.45 46.22 L540.03 46.07 L540.46 46.14 L541.17 46.53 L541.84 47.01 L542.13 47.38 L542.52 48.22 L542.65 48.94 L542.79 48.80 L543.05 48.18 L543.08 48.02 L543.06 47.82 L543.10 47.63 L543.26 47.49 L543.66 47.44 L544.06 47.52 L544.44 47.64 L545.49 47.78 L547.45 48.39 L548.90 48.61 L549.66 48.83 L550.30 49.55 L553.58 50.69 L554.94 50.99 L556.38 51.10 L557.85 50.97 L558.97 50.74 L559.36 50.72 L559.56 50.83 L559.79 51.06 L560.10 51.30 L560.51 51.41 L560.60 51.37 L560.71 51.30 L560.87 51.22 L561.10 51.18 L561.26 51.25 L561.33 51.41 L561.43 51.57 L561.67 51.64 L562.65 51.08 L563.07 50.97 L563.77 50.89 L566.17 50.26 L566.94 49.89 L567.33 49.76 L567.82 49.78 L568.23 50.01 L568.47 50.34 L568.73 50.51 L569.21 50.26 L569.02 50.16 L568.73 49.91 L568.50 49.78 L569.87 49.32 L571.14 48.48 L572.36 48.01 L572.94 48.31 Z" fill="#1E417C"/>
  <path d="M700.51 80.22 L699.74 80.13 L699.30 79.88 L699.24 79.46 L699.61 78.85 L699.99 78.72 L700.34 79.08 L700.68 79.65 L701.06 80.13 L700.94 80.16 L700.61 80.22 L700.51 80.22 Z" fill="#1E417C"/>
  <path d="M27.88 572.91 L28.55 573.00 L29.14 573.31 L29.56 573.74 L29.72 574.18 L29.53 574.74 L28.13 576.60 L28.09 576.82 L28.12 577.02 L28.12 577.23 L28.01 577.42 L27.84 577.52 L27.65 577.59 L27.50 577.69 L27.44 577.89 L27.33 578.07 L27.07 578.25 L26.82 578.49 L26.71 578.80 L26.62 579.59 L26.34 579.99 L25.85 580.00 L25.11 579.62 L24.61 579.13 L24.30 578.68 L23.85 578.35 L21.36 578.04 L20.70 577.76 L20.23 577.29 L20.00 576.11 L20.90 575.73 L22.35 575.84 L23.73 576.14 L24.23 575.85 L25.54 574.71 L25.80 574.40 L25.85 574.04 L25.99 573.87 L26.71 573.58 L27.88 572.91 Z" fill="#1E417C"/>
  <path d="M113.74 566.90 L114.01 567.10 L114.55 567.38 L114.68 567.59 L114.59 568.14 L114.33 568.75 L114.24 569.35 L114.68 569.89 L114.68 570.13 L114.31 570.29 L114.06 570.58 L113.74 571.30 L114.04 571.79 L114.26 572.39 L114.20 572.91 L113.63 573.12 L113.22 573.38 L112.13 574.58 L111.66 574.97 L109.28 575.63 L108.90 575.81 L108.74 575.83 L107.85 576.72 L107.44 576.89 L107.10 576.74 L106.78 576.49 L106.45 576.35 L104.99 576.26 L104.35 576.12 L103.80 575.91 L101.98 574.53 L101.70 574.18 L101.57 573.95 L100.86 573.59 L100.55 573.37 L100.42 573.18 L99.44 571.25 L99.23 570.56 L99.40 569.89 L99.27 569.51 L99.21 568.99 L99.25 568.46 L99.40 568.05 L99.71 567.75 L101.04 567.11 L101.64 566.70 L102.47 566.00 L103.04 565.15 L102.86 564.34 L103.25 564.03 L103.39 563.42 L103.32 562.75 L103.11 562.27 L103.49 562.24 L103.85 562.26 L104.19 562.34 L104.49 562.50 L104.98 562.38 L106.80 562.94 L109.36 562.94 L111.47 563.39 L112.27 563.16 L112.15 562.01 L113.14 561.85 L113.28 561.91 L113.46 562.34 L113.45 562.61 L113.16 562.73 L112.92 563.14 L112.95 564.05 L113.16 565.39 L113.24 565.62 L113.32 566.02 L113.46 566.48 L113.74 566.90 Z" fill="#1E417C"/>
  <path d="M48.96 560.92 L50.67 560.57 L52.23 560.98 L53.66 561.80 L55.50 562.98 L55.90 563.76 L56.09 564.52 L55.57 565.18 L54.91 565.56 L53.91 566.40 L53.17 566.85 L52.42 567.02 L51.56 567.27 L50.71 567.09 L48.95 566.11 L47.83 564.62 L47.82 563.41 L47.98 562.14 L48.96 560.92 Z" fill="#1E417C"/>
  <path d="M78.75 562.86 L78.30 563.43 L77.76 564.02 L75.58 565.97 L75.08 566.69 L74.76 567.11 L73.61 566.89 L71.76 567.52 L70.99 567.79 L70.35 568.02 L69.80 567.92 L69.43 567.46 L69.36 567.14 L69.41 566.74 L69.10 566.63 L68.84 566.42 L68.74 566.14 L68.67 565.50 L68.61 565.26 L68.15 564.75 L66.83 563.60 L66.56 563.06 L66.33 562.34 L65.82 561.78 L65.27 561.31 L64.92 560.86 L64.69 559.37 L64.58 559.05 L64.11 558.40 L63.69 557.61 L62.57 556.60 L62.25 555.93 L63.07 555.47 L64.91 554.71 L65.57 554.96 L66.37 555.45 L66.76 555.56 L67.18 555.55 L68.15 555.31 L68.89 554.97 L69.98 554.65 L70.76 554.38 L71.43 554.53 L72.78 554.42 L73.45 554.37 L74.13 553.89 L74.99 553.81 L75.35 553.66 L76.06 553.59 L76.75 553.12 L78.33 551.87 L78.99 551.35 L79.20 551.06 L79.28 550.57 L79.40 550.36 L80.04 550.06 L80.32 549.88 L80.92 549.58 L81.67 549.46 L82.29 549.23 L82.50 548.60 L83.05 548.78 L86.34 548.87 L88.42 548.21 L89.21 548.60 L88.90 549.55 L87.87 550.21 L85.38 551.42 L84.81 552.35 L84.12 552.95 L83.19 553.81 L82.25 554.49 L81.65 554.70 L81.18 555.05 L80.84 555.68 L80.83 556.39 L81.01 556.96 L81.10 557.29 L80.99 557.64 L80.66 557.88 L80.36 558.18 L80.13 558.97 L79.03 560.78 L78.74 562.25 L78.75 562.86 Z" fill="#1E417C"/>
  <path d="M161.66 543.07 L162.91 542.61 L164.15 542.46 L165.31 542.79 L166.29 543.76 L166.66 544.89 L166.77 546.42 L166.52 549.29 L166.30 549.99 L165.70 551.28 L165.58 551.74 L165.54 552.87 L165.58 553.23 L165.68 553.45 L165.99 553.93 L166.04 554.18 L165.87 554.50 L165.27 554.99 L165.14 555.19 L165.12 555.50 L165.06 555.83 L164.95 556.13 L164.38 556.83 L164.10 557.41 L163.73 558.55 L162.97 559.67 L161.85 560.22 L158.28 560.73 L156.73 561.15 L155.60 561.84 L154.26 562.15 L153.57 562.50 L152.47 563.55 L151.57 564.67 L150.56 565.63 L149.14 566.21 L148.27 566.20 L146.94 565.66 L146.26 565.51 L144.02 565.63 L143.61 565.51 L143.73 565.39 L143.87 564.99 L143.97 564.59 L143.95 564.46 L144.19 564.40 L145.35 564.57 L146.01 564.52 L147.26 564.16 L149.21 563.38 L151.61 561.98 L152.62 561.11 L153.15 560.54 L153.52 559.98 L153.73 559.33 L153.91 557.65 L154.21 557.05 L154.95 556.02 L155.79 553.62 L155.98 553.23 L156.41 552.94 L157.41 551.48 L158.18 549.81 L159.51 548.08 L159.90 546.40 L160.39 545.38 L160.55 544.16 L160.74 543.71 L161.09 543.37 L161.66 543.07 Z" fill="#1E417C"/>
  <path d="M33.90 540.28 L33.83 540.95 L34.07 541.75 L34.38 542.32 L35.04 542.62 L35.07 543.24 L34.05 544.28 L33.58 545.04 L33.84 545.71 L34.24 546.92 L33.97 547.55 L33.76 548.44 L32.96 549.39 L32.29 550.71 L31.67 551.85 L31.36 552.54 L31.15 552.54 L30.95 552.21 L30.20 551.86 L29.97 551.22 L29.71 549.56 L29.32 549.15 L29.07 548.61 L28.37 547.78 L28.19 547.04 L26.89 545.24 L26.76 544.39 L26.61 543.85 L26.45 543.33 L25.91 542.97 L25.57 542.60 L25.75 541.57 L26.64 540.45 L27.80 539.54 L28.65 539.02 L29.34 539.42 L30.18 539.53 L30.99 539.70 L32.36 539.24 L33.03 539.47 L33.58 539.91 L33.90 540.28 Z" fill="#1E417C"/>
  <path d="M178.19 526.04 L178.79 525.93 L179.42 526.28 L180.39 527.09 L180.06 527.77 L179.93 528.32 L179.69 528.78 L179.01 529.17 L178.89 529.68 L179.00 530.14 L179.17 530.63 L179.24 531.24 L179.18 531.48 L178.89 531.93 L178.78 532.19 L178.76 532.47 L178.81 533.06 L178.78 533.34 L178.22 534.16 L177.26 534.91 L176.16 535.44 L174.58 535.79 L174.25 536.10 L173.99 536.42 L173.57 536.57 L173.04 536.60 L172.27 536.76 L171.73 536.80 L170.55 537.03 L169.65 537.64 L168.93 538.53 L168.34 539.56 L168.13 539.56 L167.77 539.10 L167.08 538.91 L165.47 538.89 L165.21 538.71 L165.00 538.31 L164.91 537.90 L165.02 537.72 L165.40 537.61 L165.68 537.36 L166.04 536.80 L166.17 536.24 L166.30 534.58 L166.40 534.13 L167.54 532.52 L168.13 531.96 L168.61 531.65 L169.16 531.42 L169.80 531.29 L170.56 531.24 L171.20 531.08 L172.33 530.23 L173.00 529.86 L173.62 529.68 L174.16 529.61 L175.89 529.61 L176.36 529.48 L176.74 529.07 L177.15 528.25 L177.51 527.12 L177.77 526.55 L178.19 526.04 Z" fill="#1E417C"/>
  <path d="M178.07 524.53 L178.36 525.15 L177.89 525.95 L177.04 526.51 L176.23 526.40 L176.23 526.15 L176.75 525.66 L177.01 524.91 L177.34 524.37 L178.07 524.53 Z" fill="#1E417C"/>
  <path d="M608.79 238.72 L608.48 239.47 L608.54 240.25 L609.00 241.51 L608.31 240.88 L608.16 239.89 L608.19 238.78 L608.05 237.82 L608.22 237.81 L608.26 237.86 L608.26 237.96 L608.30 238.03 L608.42 238.18 L608.62 238.52 L608.79 238.72 Z" fill="#1E417C"/>
  <path d="M685.08 207.32 L686.41 206.85 L686.97 207.41 L686.94 208.15 L686.13 208.29 L684.98 208.27 L683.32 207.42 L682.77 207.20 L682.12 207.57 L681.79 207.75 L681.24 208.37 L680.71 208.64 L680.23 208.52 L680.39 207.84 L680.25 207.58 L680.25 207.23 L680.43 207.00 L680.59 206.69 L680.60 206.42 L680.35 206.31 L680.23 206.17 L680.43 205.92 L680.84 205.54 L681.08 205.74 L681.42 205.62 L681.75 205.24 L681.87 204.71 L682.01 204.70 L682.04 204.74 L682.04 204.82 L682.08 204.90 L683.72 206.75 L685.08 207.32 Z" fill="#1E417C"/>
  <path d="M687.77 193.35 L687.59 193.65 L687.80 194.33 L688.34 195.45 L687.78 195.47 L687.34 195.75 L687.05 196.18 L686.94 196.71 L686.76 196.91 L685.58 197.52 L684.52 198.79 L684.09 199.07 L683.16 199.46 L682.79 199.81 L682.67 199.67 L682.45 199.51 L682.33 199.37 L681.78 199.93 L681.31 200.13 L680.95 201.27 L680.92 202.10 L679.82 202.11 L679.49 201.43 L678.90 201.08 L678.41 201.23 L678.18 201.23 L678.06 201.19 L678.03 201.17 L677.70 201.23 L677.44 200.81 L676.87 200.67 L676.31 200.81 L676.08 201.23 L675.01 200.67 L674.62 200.31 L674.47 199.70 L674.88 198.89 L674.99 198.39 L674.68 197.98 L674.96 197.78 L675.30 197.61 L675.68 197.57 L676.08 197.75 L676.33 197.58 L676.65 197.51 L677.47 197.52 L677.17 196.10 L677.19 195.31 L677.58 194.97 L678.03 194.83 L678.53 194.50 L679.35 193.81 L679.56 193.81 L679.87 194.02 L680.54 193.62 L680.92 193.81 L681.59 193.38 L682.52 193.00 L683.47 192.80 L684.17 192.89 L684.48 192.57 L684.96 192.42 L685.44 192.45 L686.00 192.80 L686.23 192.86 L686.83 192.89 L687.22 192.96 L687.49 193.12 L687.77 193.35 Z" fill="#1E417C"/>
  <path d="M746.82 169.94 L747.78 170.16 L749.70 171.04 L750.87 171.12 L750.67 171.47 L750.70 171.74 L750.81 172.00 L750.87 172.27 L750.74 172.45 L750.53 172.58 L750.43 172.79 L750.63 173.21 L750.17 174.15 L749.81 174.62 L749.36 174.83 L748.80 174.99 L748.42 175.39 L748.31 175.91 L748.56 176.44 L747.19 177.42 L745.76 178.74 L744.70 180.37 L744.38 182.25 L744.05 182.09 L743.92 181.99 L743.38 183.39 L742.31 184.28 L739.22 185.77 L737.92 186.64 L737.66 186.97 L737.52 187.08 L737.21 187.26 L736.90 187.35 L736.76 187.21 L735.83 186.15 L735.62 186.03 L735.09 185.84 L734.89 185.70 L734.74 185.39 L734.66 185.02 L734.55 184.71 L734.31 184.58 L733.98 184.50 L733.45 184.17 L733.16 184.09 L732.76 184.13 L732.22 184.29 L731.89 184.32 L728.95 184.15 L727.64 183.74 L726.80 182.92 L726.44 181.08 L725.95 180.83 L726.05 180.28 L726.57 179.46 L726.18 178.76 L725.22 178.08 L724.09 177.57 L723.20 177.36 L722.47 177.55 L720.29 178.48 L719.84 178.87 L719.48 179.78 L718.64 180.46 L717.71 180.55 L717.07 179.69 L717.00 179.62 L716.91 179.35 L717.02 179.14 L717.31 179.00 L716.40 178.28 L716.13 178.57 L715.87 178.70 L715.63 178.61 L715.46 178.28 L714.52 178.70 L714.31 178.75 L713.98 178.56 L713.69 177.95 L713.08 177.57 L712.92 176.97 L712.95 176.28 L713.15 175.77 L715.57 174.59 L716.29 174.47 L716.89 174.17 L718.55 172.79 L719.05 172.58 L719.73 172.50 L720.31 172.35 L720.88 171.99 L721.93 171.12 L722.08 170.95 L722.32 170.54 L722.40 170.43 L722.55 170.40 L722.94 170.46 L723.09 170.43 L723.90 169.79 L724.01 169.62 L724.16 169.54 L724.85 168.94 L725.07 168.79 L725.32 168.74 L726.31 168.35 L726.80 168.05 L727.19 167.74 L727.58 167.50 L728.08 167.40 L728.20 167.34 L728.41 167.03 L728.54 166.97 L729.24 167.01 L729.56 166.97 L730.56 166.60 L732.59 165.55 L733.63 165.33 L735.53 165.19 L737.40 164.82 L740.91 163.72 L741.37 164.18 L741.55 164.04 L741.64 164.00 L742.08 164.18 L741.72 164.38 L740.53 164.81 L740.10 164.89 L739.60 165.09 L739.15 165.48 L738.75 165.74 L738.37 165.58 L738.12 165.58 L738.04 166.67 L739.24 166.84 L741.83 166.28 L741.83 166.48 L741.49 166.67 L741.45 166.90 L741.48 167.15 L741.37 167.40 L741.17 167.58 L740.97 167.68 L740.42 167.87 L739.36 168.08 L739.11 168.34 L739.06 169.04 L739.45 169.80 L740.34 170.46 L741.42 170.94 L742.41 171.12 L744.72 171.12 L745.31 170.93 L746.34 170.13 L746.82 169.94 Z" fill="#1E417C"/>
  <path d="M778.85 165.18 L778.99 165.68 L779.72 166.60 L780.00 167.15 L779.77 167.15 L779.63 166.94 L779.41 166.74 L779.15 166.57 L778.85 166.46 L778.75 168.68 L777.00 168.86 L774.60 167.95 L769.12 165.17 L767.99 164.82 L766.63 164.80 L764.20 165.18 L762.90 164.82 L763.04 164.42 L763.07 163.93 L763.18 163.49 L763.57 163.21 L763.29 163.02 L762.61 162.83 L762.30 162.62 L761.98 162.22 L761.97 162.05 L762.10 161.88 L762.18 161.47 L762.60 161.05 L764.95 160.65 L765.76 160.91 L769.02 160.65 L770.37 160.70 L770.76 160.65 L771.24 160.49 L771.80 160.14 L772.16 159.98 L772.26 160.38 L772.56 160.65 L773.31 161.11 L773.24 161.21 L773.17 161.46 L773.19 161.71 L773.42 161.82 L773.63 161.72 L773.88 161.49 L774.21 161.11 L774.15 160.62 L774.37 160.48 L774.58 160.66 L774.45 161.11 L774.65 161.35 L775.60 161.82 L775.79 162.08 L775.94 162.24 L776.29 162.50 L776.47 162.57 L776.97 162.65 L777.21 162.75 L777.56 163.12 L777.85 163.68 L777.82 164.17 L777.21 164.36 L777.74 164.56 L778.27 164.53 L778.68 164.62 L778.85 165.18 Z" fill="#1E417C"/>
  <path d="M734.35 190.82 L734.25 191.73 L733.57 192.51 L732.51 192.44 L731.93 191.30 L732.83 190.63 L734.19 190.17 L734.35 190.82 Z" fill="#1E417C"/>
  <path d="M488.31 325.69 L488.36 325.69 L488.42 325.70 L488.39 325.73 L488.33 325.72 L488.28 325.71 L488.25 325.69 L488.28 325.68 L488.31 325.69 Z" fill="#1E417C"/>
  <path d="M501.72 324.25 L501.74 324.23 L501.76 324.24 L501.74 324.27 L501.72 324.26 L501.72 324.25 Z" fill="#1E417C"/>
  <path d="M501.80 324.16 L501.82 324.16 L501.83 324.18 L501.81 324.18 L501.79 324.18 L501.78 324.18 L501.78 324.17 L501.80 324.16 Z" fill="#1E417C"/>
  <path d="M551.32 325.26 L551.49 325.24 L551.58 325.37 L551.42 325.48 L551.27 325.40 L551.32 325.26 Z" fill="#1E417C"/>
  <path d="M450.53 300.60 L450.63 300.67 L450.56 300.76 L450.48 300.73 L450.46 300.64 L450.53 300.60 Z" fill="#1E417C"/>
</svg>
