<svg width="510" height="625" viewBox="0 0 510 625" fill="none" xmlns="http://www.w3.org/2000/svg">
<path d="M169.766 624.82C169.248 623.564 168.664 622.308 168.275 620.992C167.563 618.36 166.007 616.505 163.285 615.429C161.471 614.711 159.786 613.754 157.906 613.335C156.999 613.155 155.768 613.694 154.925 614.232C154.342 614.591 154.277 615.668 153.889 616.326C152.398 618.479 149.158 619.377 147.278 618.12C145.723 617.104 145.464 613.454 147.278 612.019C149.741 610.045 152.528 608.37 155.249 606.814C155.897 606.455 157.453 606.575 158.101 607.054C159.656 608.25 160.823 607.771 162.119 606.934C167.498 603.584 172.423 599.935 176.052 594.671C178.191 591.56 181.237 589.287 181.885 585.219C182.079 583.963 185.06 582.587 187.004 582.108C190.828 581.091 193.55 579.356 195.688 576.126C197.503 573.374 200.678 571.46 202.882 568.888C204.113 567.452 205.021 565.478 205.409 563.683C206.252 559.257 206.641 554.77 207.289 549.745C209.751 550.463 211.955 551.001 214.029 551.839C216.038 552.676 217.463 552.616 219.019 551.061C221.481 548.668 224.074 546.634 221.805 542.746C220.963 541.31 223.62 537.661 225.564 537.482C233.406 536.764 241.117 534.969 249.089 536.345C250.385 536.584 251.746 536.285 253.042 536.525C255.699 537.123 258.356 538.08 261.013 538.618C263.605 539.157 266.262 539.875 268.855 539.815C272.224 539.755 275.53 538.917 278.899 538.558C280.908 538.319 281.945 537.422 282.14 535.567C282.205 534.85 282.334 534.192 282.334 533.474C282.593 527.192 285.899 523.005 291.666 519.595C296.073 516.963 299.767 513.194 303.072 509.366C304.303 507.93 303.526 504.879 303.526 502.606C303.526 500.452 303.137 498.299 303.267 496.205C303.331 494.949 304.044 494.231 305.988 493.753C308.969 492.915 311.886 490.881 313.96 488.668C314.802 487.77 313.247 485.019 312.728 482.985C313.7 482.805 315.256 482.566 316.941 482.327C318.755 485.318 320.246 485.437 324.069 483.643C326.208 482.626 328.8 482.566 331.198 482.087C332.17 481.908 333.272 481.848 334.114 481.429C337.355 479.635 338.456 479.695 341.178 482.207C341.502 482.506 341.891 482.745 342.669 483.403C343.187 480.532 343.641 478.02 344.159 475.148C346.039 476.763 347.4 477.84 348.696 479.037C349.084 479.395 349.473 480.233 349.344 480.652C348.696 482.387 349.149 483.762 350.316 485.258C350.769 485.796 350.186 487.112 349.927 488.01C349.409 489.625 348.242 491.18 348.112 492.795C347.853 496.145 349.02 499.854 347.853 502.786C346.492 506.315 348.501 507.511 350.51 509.246C350.834 509.545 350.769 510.323 350.64 510.802C349.992 512.776 350.186 514.271 352.001 515.946C353.491 517.322 354.204 519.416 355.306 521.21C353.426 522.766 353.75 524.082 356.537 526.774C356.213 529.466 355.954 531.799 355.695 533.952C352.973 535.328 350.445 536.584 347.983 537.841C348.89 540.652 350.057 543.583 350.705 546.575C351.353 549.625 351.418 552.796 351.806 556.146C348.307 554.591 345.326 553.274 342.085 551.839C341.049 552.078 339.558 552.437 338.003 552.676C335.41 553.155 334.568 554.591 336.188 556.505C337.484 558.12 339.169 559.436 340.984 561.29C340.789 562.188 339.817 563.982 342.409 564.999C342.733 565.119 342.604 566.196 342.798 566.854C343.187 568.469 343.576 570.144 344.094 572.058C340.4 574.391 335.41 574.75 330.226 574.272C330.096 574.511 329.967 574.69 329.837 574.93C330.615 575.588 331.328 576.485 332.235 576.904C334.049 577.801 334.503 578.998 334.114 580.792C333.725 582.527 332.365 583.006 330.744 582.886C328.995 582.766 327.245 582.527 325.495 582.168C322.19 581.51 318.885 580.852 315.645 580.074C312.404 579.356 309.682 579.656 307.997 583.005C306.701 582.228 305.6 581.57 304.563 580.852C301.711 579.057 298.925 577.083 295.943 575.468C291.666 573.135 287.13 572.357 282.205 574.032C279.288 574.989 276.113 575.229 273.197 576.126C271.188 576.724 269.179 577.622 267.623 578.878C265.549 580.493 263.54 581.63 260.819 580.852C259.717 582.706 258.68 584.381 257.643 586.176C257.254 586.834 256.671 587.672 256.801 588.33C257.449 591.141 256.217 592.936 253.56 593.893C253.625 594.312 253.625 594.551 253.69 594.611C257.319 598.738 257.189 598.619 252.653 601.969C251.098 603.105 249.931 605.02 249.089 606.754C247.857 609.566 247.08 610.104 243.839 609.446C241.118 608.848 238.784 608.071 237.553 605.319C237.035 604.182 234.961 602.986 233.6 603.046C229.323 603.225 226.277 602.029 224.722 597.721C223.425 599.217 222.389 600.294 221.222 601.61C219.083 598.798 216.102 597.901 212.668 597.961C212.084 597.961 211.371 597.901 211.047 598.14C208.002 600.413 204.308 600.054 200.808 600.294C199.836 600.354 198.734 600.234 197.892 599.875C195.753 598.858 194.716 599.636 194.198 601.49C193.615 603.404 192.967 605.319 192.383 607.173C188.236 606.216 186.097 608.908 183.505 610.762C182.468 611.54 181.366 612.318 180.2 612.796C177.996 613.574 177.024 614.83 177.543 616.984C178.45 620.633 178.126 621.231 174.691 623.026C173.654 623.564 172.747 624.342 171.775 625C170.932 624.82 170.349 624.82 169.766 624.82Z" fill="#1E417C"/>
<path d="M509.413 447.213C506.95 453.375 503.71 459.237 503.969 466.117C504.099 469.167 502.349 471.381 499.757 473.415C497.683 475.03 496.127 477.303 494.442 479.397C493.406 480.713 492.433 481.61 490.36 481.311C485.888 480.653 481.222 481.67 476.75 479.816C475.26 479.217 473.056 479.995 471.242 480.354C469.298 480.713 468.002 480.474 467.224 478.619C466.576 477.064 465.993 475.329 464.826 474.073C464.048 473.175 462.299 472.458 461.132 472.637C458.086 473.056 455.3 474.85 451.865 473.714C450.763 473.355 449.078 474.492 447.523 474.97C441.95 471.8 439.422 471.8 437.089 475.329C436.376 474.97 435.728 474.671 434.821 474.192C434.302 475.09 433.784 475.927 433.136 477.004C430.479 475.03 427.822 474.432 425.359 477.363C422.637 475.15 424.193 472.278 423.35 469.646C418.49 470.424 418.879 466.176 416.999 463.963C416.416 463.305 415.573 462.826 414.731 462.348C413.824 461.869 412.528 461.69 411.944 461.032C410.194 459.058 408.769 456.844 408.51 455.588C409.806 453.793 411.037 451.999 412.398 450.264C414.148 448.051 413.953 446.077 411.879 444.102C411.296 443.504 410.778 442.727 410.583 441.949C410.195 440.453 409.482 439.496 407.991 438.539C406.889 437.821 406.695 435.967 406.112 434.531C406.954 433.933 407.732 433.574 408.25 432.976C409.741 431.54 409.158 429.805 407.213 429.028C405.399 428.31 403.584 427.353 401.835 426.515C401.77 426.455 401.705 426.395 401.575 426.395C394.576 424.421 394.965 418.379 392.891 413.594C391.53 410.304 392.891 407.612 393.41 404.621C393.863 401.929 392.956 399.057 392.567 395.767C396.002 391.759 396.002 391.759 390.169 390.383C391.466 388.409 390.299 382.965 387.642 378.957C388.16 378.479 388.679 377.94 389.197 377.402C387.383 375.308 383.43 376.804 382.198 373.454C383.3 373.334 384.142 373.215 384.92 373.095C385.05 372.796 385.179 372.676 385.115 372.497C383.689 367.113 383.754 367.113 388.679 364.002C390.105 363.105 391.336 361.849 392.697 360.832C393.41 360.293 394.447 359.456 395.095 359.635C398.983 360.712 402.418 358.618 406.112 358.319C407.732 358.199 408.963 358.319 410.065 359.575C414.212 364.062 419.267 367.472 424.841 370.283C430.025 372.975 433.914 376.624 435.469 382.188C435.858 383.683 436.83 385.059 437.672 386.375C440.2 390.144 441.042 394.272 440.459 398.579C440.329 399.596 439.487 400.672 438.709 401.51C434.95 405.458 431.062 409.287 427.303 413.295C426.202 414.431 426.331 415.628 428.34 415.867C431.516 416.226 433.46 418.2 435.339 420.294C437.478 422.746 442.662 422.746 444.542 420.114C445.773 418.439 446.551 416.405 447.134 414.431C448.236 410.842 449.661 409.346 453.809 409.287C460.29 409.227 466.77 409.526 473.251 409.885C490.1 410.842 487.249 411.081 501.636 421.071C506.561 424.481 508.441 429.446 508.7 434.95C508.765 436.206 509.089 437.462 509.348 438.719C509.413 441.65 509.413 444.402 509.413 447.213Z" fill="#1E417C"/>
<path d="M171.383 104.499C169.763 105.875 168.272 107.011 167.041 108.267C165.226 110.122 163.736 112.275 161.792 114.01C160.884 114.848 159.394 115.087 158.163 115.625C157.839 115.326 157.515 115.087 157.126 114.788C157.968 112.754 158.616 110.66 159.783 108.806C161.208 106.592 160.949 105.157 157.968 104.14C156.996 105.396 156.024 106.772 154.922 108.267C153.626 104.319 153.626 104.319 148.96 104.917C148.247 105.037 147.47 105.037 147.016 105.097C146.173 104.319 145.655 103.542 144.877 103.183C141.767 101.567 139.628 96.9612 140.147 93.7309C140.341 92.4148 139.822 90.7996 138.98 89.7229C138.073 88.5264 136.582 88.347 135.804 90.2014C135.61 90.7398 135.351 91.338 134.897 92.5943C132.823 90.9791 130.361 89.9023 129.454 88.1675C128.222 85.7747 126.537 85.5354 124.269 85.7148C122.973 85.8345 121.677 86.1336 120.51 86.3131C120.381 86.672 120.251 86.8514 120.316 86.9711C122.454 90.9791 122.843 95.0469 120.64 99.1746C120.186 100.072 120.121 101.208 120.251 102.225C121.094 108.686 116.881 112.694 112.345 116.463C110.66 117.839 108.78 117.599 106.253 116.702C108.327 114.848 109.947 113.173 111.826 111.857C114.224 110.241 114.548 108.327 114.548 105.755C114.483 99.6531 114.743 93.4916 115.196 87.3898C115.391 84.4586 116.946 81.5872 116.881 78.656C116.816 76.8015 115.261 74.7676 113.9 73.1524C112.928 72.0158 111.243 71.4176 111.956 69.5632C112.734 67.5891 114.094 66.3927 116.557 66.3927C119.085 66.3927 121.612 66.2132 124.139 65.9739C126.278 65.7944 127.185 66.2132 126.472 68.3668C125.954 69.9221 125.889 71.3578 127.574 72.5542C128.028 72.8533 127.769 74.2292 127.574 75.0667C127.12 77.2801 126.019 79.4336 129.972 80.1515C131.268 80.3908 132.175 82.4845 133.666 84.0997C134.055 81.4077 135.416 79.3738 133.925 76.981C133.407 76.0837 133.99 74.648 134.055 73.4515C134.379 73.3917 134.638 73.3319 134.962 73.2721C135.416 73.8105 135.804 74.4087 136.323 74.9471C137.684 76.3828 138.85 78.1774 140.535 79.1345C142.609 80.3908 144.424 79.0747 144.229 76.7417C144.1 75.5453 143.776 74.289 143.905 73.0926C144.035 71.7766 144.294 69.623 145.072 69.3837C147.146 68.7257 149.479 68.1873 151.358 70.4605C153.432 73.0328 154.728 75.6051 154.209 78.8354C153.821 81.3479 153.626 83.8604 153.432 86.3729C153.173 90.9791 154.533 92.8934 159.329 94.3291C161.403 94.9871 163.088 95.5255 162.245 98.038C162.116 98.5165 162.893 99.713 163.023 99.713C165.68 99.1147 169.309 99.1148 170.67 97.4996C172.355 95.5255 173.651 93.7309 176.568 93.0728C175.919 92.1755 175.466 91.4577 174.883 90.6202C173.392 91.338 172.031 92.1157 170.605 92.6541C168.791 93.3121 167.819 92.7139 167.559 90.8594C167.235 88.7059 166.458 86.5523 166.004 84.3988C165.421 81.4676 166.782 79.0149 168.532 76.5622C169.828 77.2203 170.929 77.8185 172.161 78.4765C173.198 76.4426 172.355 75.0069 171.059 73.631C169.957 72.4944 168.272 71.3578 169.698 69.6828C170.605 68.606 172.161 68.0078 173.781 66.931C173.522 66.7516 172.744 65.9739 171.772 65.615C169.957 64.957 169.309 63.8802 169.633 62.1454C169.763 61.5472 169.763 60.9489 169.828 60.3507C170.022 55.8642 170.022 55.924 174.753 56.1034C175.531 56.1633 176.373 55.1463 177.086 54.5481C177.799 53.9499 178.317 53.1722 178.965 52.5142C179.613 53.1722 180.521 53.6508 180.974 54.4285C182.335 56.8811 184.085 57.1802 185.64 54.7276C187.131 52.3945 188.427 51.3776 191.149 53.1722C191.603 53.4713 193.158 52.9928 193.612 52.4544C194.065 51.9758 194.065 50.5999 193.612 50.1213C191.667 48.1473 189.529 46.2928 187.325 44.6178C185.576 43.2419 184.992 41.9857 186.677 40.0116C188.233 40.6098 189.853 41.208 192.38 42.225C192.121 39.5928 192.186 37.3795 191.538 35.3456C190.89 33.2518 189.594 31.3375 188.686 29.6626C192.51 29.3635 195.945 29.0643 199.314 28.7652C199.444 24.7572 195.232 20.8689 201.388 17.7582C201.194 16.3225 200.805 14.3484 200.675 12.3145C200.611 11.5368 200.675 10.5198 201.129 9.8618C202.684 7.52878 204.434 5.25558 206.249 2.7431C207.156 3.10202 208.128 3.46095 209.165 3.81988C213.377 5.37522 218.238 5.91361 220.571 10.6993C221.089 9.98144 221.349 9.74216 221.413 9.50287C222.839 6.27254 225.885 5.79397 228.088 8.7252C229.32 10.3404 230.421 10.5797 232.236 10.1011C236.124 9.08413 240.013 8.06717 243.901 7.11003C244.614 6.93057 245.586 6.87075 246.234 7.11003C250.252 8.48592 254.011 7.94753 257.51 5.79397C259.973 4.23862 262.306 3.52077 265.352 4.89666C266.907 5.61451 268.981 5.19576 270.925 5.3154C270.148 0.230616 270.666 -0.188131 278.183 0.0511532C278.896 2.44399 280.841 3.16185 283.433 3.10203C285.118 3.0422 285.701 3.93952 285.053 5.3154C284.21 7.22967 283.303 9.14395 282.201 10.9984C281.294 12.4939 281.1 13.6305 282.785 14.8269C283.498 15.3653 284.146 16.6814 283.951 17.4591C282.85 22.1251 280.257 25.834 275.397 28.1072C272.869 29.3036 270.796 31.2777 268.657 33.0125C264.25 36.4822 259.908 40.0116 255.566 43.541C254.659 44.2589 253.946 45.1562 253.039 45.8142C250.771 47.6089 248.567 49.4035 246.104 50.9588C244.679 51.8562 243.901 52.4544 244.549 54.249C245.262 56.2231 245.003 58.0775 241.957 58.3168C241.374 58.3766 240.92 58.8552 240.207 59.274C241.503 60.8293 242.735 61.3079 244.679 60.7097C247.854 59.6927 249.539 60.9489 249.41 64.1195C249.28 67.1105 247.271 68.965 244.679 70.9391C244.095 69.7426 243.577 68.7257 242.799 67.0507C240.985 68.4864 239.429 69.7426 237.809 70.9989C237.939 71.298 238.069 71.5373 238.198 71.8364C240.077 71.8962 241.957 72.0158 244.549 72.0757C241.114 76.1435 237.874 79.972 234.699 83.8006C234.893 84.0997 235.087 84.3988 235.282 84.6979C236.319 84.3988 237.55 84.2791 238.393 83.6809C239.559 82.8434 240.531 81.7068 241.503 80.6301C242.994 78.8952 244.873 78.3569 247.271 78.0578C249.993 77.6988 252.779 76.5024 255.242 75.1863C257.51 73.9899 259.519 72.8533 262.306 73.1524C263.148 73.2721 264.509 72.7935 265.028 72.1953C267.879 68.4864 271.703 69.3239 275.462 70.1016C276.369 70.281 277.211 70.6998 278.054 71.0587C281.489 72.5542 284.859 73.2721 288.617 72.0158C293.737 70.3408 298.857 72.2551 303.976 72.4944C307.411 72.614 310.846 72.4944 314.281 72.4944C317.78 72.4944 321.15 72.4346 324.714 71.4774C328.732 70.4007 334.111 74.648 335.407 78.7756C335.602 79.3738 335.537 80.0318 335.796 80.5702C338.842 86.4327 336.509 91.0987 332.361 95.705C329.38 98.9951 325.946 102.584 326.01 107.071C326.205 115.266 321.863 122.086 319.465 129.504C318.298 132.973 316.289 135.845 312.855 137.998C311.429 138.836 310.068 140.631 309.809 142.126C308.513 149.305 304.3 154.748 298.079 158.936C296.718 159.833 294.839 159.953 293.348 160.431C293.348 162.465 293.024 164.679 293.478 166.713C293.737 167.849 295.228 168.926 296.394 169.644C298.533 170.96 300.866 172.037 303.393 173.293C300.606 177.062 296.977 178.737 293.089 180.112C292.441 180.352 291.21 179.873 290.561 179.335C288.941 178.019 287.386 178.198 286.09 179.514C283.757 181.728 281.748 184.18 279.35 186.334C277.795 187.71 275.85 188.846 273.971 189.863C271.897 191 269.694 191.837 267.555 192.794C267.62 193.094 267.62 193.393 267.685 193.632C269.694 194.051 271.768 194.529 273.777 194.828C277.276 195.367 280.841 195.786 284.34 196.264C287.127 196.623 289.006 195.606 290.432 193.452C293.089 189.265 295.292 188.487 300.477 189.863C300.866 189.983 301.384 189.983 301.514 190.222C304.365 194.828 310.716 194.709 314.345 198.178C314.993 198.777 316.289 199.195 317.197 199.076C322.576 198.717 324.649 202.485 327.047 205.716C327.955 206.912 328.473 208.348 328.408 209.664C328.149 210.92 327.566 212.176 327.76 213.373C328.149 216.125 327.631 217.201 324.714 217.859C323.159 218.159 321.604 218.278 319.983 218.398C316.808 218.637 316.16 219.834 317.456 222.466C319.271 226.055 320.891 229.704 322.641 233.293C319.919 234.908 315.771 234.669 315.836 239.036C311.299 238.019 308.837 240.95 306.309 243.463C304.365 245.377 302.875 247.65 301.449 249.924C300.023 252.197 298.079 253.692 295.487 254.949C293.478 255.965 291.922 257.7 289.589 258.418C287.451 259.076 285.507 260.332 283.303 260.871C283.238 260.99 283.044 261.17 283.044 261.29C282.396 266.494 281.489 267.272 275.721 267.032C273.582 266.973 271.444 266.614 269.305 266.374C267.361 266.195 265.611 265.716 263.602 266.793C262.565 267.331 260.621 266.494 258.871 266.195C258.871 267.571 258.742 269.006 258.871 270.442C259.066 272.476 258.094 273.254 256.02 273.433C253.168 273.672 250.317 274.151 247.465 274.57C246.299 279.655 241.114 281.928 235.93 279.475C235.476 280.073 234.958 280.672 234.375 281.389C233.921 280.971 233.402 280.612 232.949 280.193C230.81 278.279 229.384 275.766 225.755 275.347C224.135 275.168 222.645 273.373 221.154 272.297C220.895 272.416 220.636 272.596 220.312 272.715C220.96 274.151 221.349 275.647 222.256 276.903C223.422 278.518 223.811 284.68 222.256 285.876C221.543 286.355 219.664 286.295 218.886 285.756C216.034 283.782 213.442 281.509 210.656 279.415C208.452 277.68 206.119 276.065 203.851 274.39C201.972 273.014 200.092 273.672 198.731 274.869C197.759 275.706 197.046 277.441 197.241 278.578C197.565 280.612 198.796 282.466 199.444 284.44C199.898 285.756 199.963 287.192 200.222 288.747C197.565 288.927 196.528 287.91 196.333 286.115C195.88 281.449 193.547 277.8 189.853 274.689C186.872 272.177 186.418 268.588 187.001 264.998C187.455 262.127 188.816 261.469 192.445 262.187C193.741 256.324 196.917 251.419 201.259 247.112C201.777 246.574 202.036 245.736 202.36 245.018C203.592 242.147 204.888 239.335 206.054 236.404C206.897 234.43 208.063 232.934 210.396 231.977C212.535 231.08 213.053 228.268 212.081 226.175C211.563 225.098 211.239 223.901 210.915 222.705C210.332 220.252 209.165 218.398 206.249 217.74C205.471 217.56 204.953 216.663 204.305 216.065C203.073 214.868 202.036 213.552 200.74 212.416C199.185 211.1 197.435 210.681 195.296 211.518C193.871 212.117 192.251 212.176 190.306 212.535C190.825 215.826 190.177 219.116 192.121 222.406C193.288 224.38 193.158 227.371 192.575 229.644C191.991 231.977 186.159 231.917 184.344 229.584C183.243 228.149 182.076 226.414 181.817 224.739C181.169 220.851 177.928 216.783 182.011 213.014C179.419 211.1 177.993 211.399 177.151 213.971C176.438 216.244 176.114 218.577 175.531 220.851C175.012 222.884 174.17 224.799 173.716 226.833C173.262 228.986 172.744 231.2 172.874 233.413C173.068 236.703 171.513 239.036 168.013 239.574C166.523 239.814 165.032 239.933 163.541 240.113C161.338 240.352 160.172 239.335 160.625 237.421C161.144 235.267 162.181 233.233 163.023 231.14C163.606 229.704 164.708 228.328 164.902 226.833C165.551 220.013 166.652 213.373 171.837 207.81C167.43 204.639 168.532 200.99 170.541 197.161C169.633 197.102 168.92 197.042 168.078 196.982C167.948 195.068 167.948 193.273 167.624 191.478C167.495 190.701 166.717 189.504 166.134 189.444C165.097 189.325 163.412 189.624 163.023 190.282C160.625 193.991 158.551 197.879 156.348 201.648C156.024 202.186 155.635 202.665 155.441 203.203C154.793 204.759 153.691 206.254 153.626 207.869C153.432 211.16 150.515 214.569 146.951 215.287C145.396 215.646 143.84 216.304 142.48 217.142C141.313 217.859 140.082 218.817 139.174 217.381C138.656 216.603 138.98 215.168 139.434 214.21C139.758 213.433 140.795 212.835 141.637 212.117C140.795 210.741 139.498 209.425 139.369 208.049C139.239 206.852 140.406 205.536 141.378 203.562C140.082 204.041 138.85 204.22 138.137 204.818C136.647 206.135 135.545 207.75 134.184 209.185C133.601 209.784 132.823 210.202 131.916 210.92C131.592 210.083 131.138 209.544 131.268 209.185C132.24 205.835 132.823 202.306 134.508 199.255C135.351 197.7 137.813 196.264 140.535 196.743C141.313 196.862 142.285 196.444 143.063 196.085C144.813 195.127 146.562 194.051 148.636 192.794C148.895 194.41 149.155 195.666 149.479 197.64C150.256 196.563 150.775 196.025 151.099 195.427C154.728 189.325 159.135 183.941 165.875 180.412C169.244 178.677 170.476 175.446 170.8 172.037C171.059 169.345 171.772 167.191 174.559 165.755C176.827 164.559 175.66 163.183 174.364 161.688C177.216 159.833 180.067 158.038 183.048 156.064C182.206 155.466 181.493 154.988 180.456 154.27C184.863 150.262 184.928 143.622 191.343 140.87C190.047 139.015 188.492 139.195 187.066 140.272C185.77 141.229 184.604 142.425 183.372 143.502C178.901 147.33 174.364 151.099 169.633 155.107C169.763 155.287 170.022 155.885 170.411 156.423C171.707 158.397 171.448 160.192 169.892 161.927C167.106 165.217 163.606 167.012 159.005 167.071C155.441 167.131 151.876 167.251 148.312 167.55C146.951 167.67 145.72 168.447 144.359 168.567C143.257 168.687 141.637 168.746 141.119 168.208C140.406 167.371 140.147 165.875 140.341 164.738C140.406 164.2 141.961 163.542 142.868 163.482C144.424 163.363 146.044 163.662 147.47 163.781C147.794 162.046 148.182 160.371 148.636 157.979C147.534 156.782 145.785 154.988 143.711 152.834C145.785 152.834 147.405 152.834 149.09 152.834C149.155 152.595 149.219 152.355 149.284 152.176C147.858 151.578 146.433 151.099 145.137 150.441C144.229 149.963 142.804 149.125 142.868 148.647C143.128 147.211 143.646 145.416 144.748 144.698C146.692 143.442 149.155 142.784 151.423 142.126C152.978 141.707 154.08 141.229 153.691 139.314C152.784 139.195 151.747 139.135 150.775 138.956C148.118 138.477 147.664 137.221 149.414 135.366C149.932 134.888 150.515 134.23 151.164 134.11C154.663 133.631 158.227 132.435 161.014 133.691C163.023 131.837 164.902 130.222 166.652 128.487C167.43 127.769 167.948 126.872 168.856 125.675C166.328 125.675 164.254 125.675 161.273 125.675C165.162 122.744 163.477 117.241 168.856 115.924C168.143 111.438 168.143 111.438 172.226 109.165C173.781 108.985 173.781 108.566 171.383 104.499Z" fill="#1E417C"/>
<path d="M349.212 388.288C352.971 386.912 356.989 390.442 360.099 387.032C363.469 387.81 366.71 388.527 369.496 389.126C369.496 390.98 369.367 392.476 369.496 393.971C369.691 395.945 368.2 396.304 366.71 396.484C364.053 396.842 363.016 397.919 364.053 400.372C364.312 400.97 364.506 401.987 364.182 402.346C362.497 404.44 363.469 406.354 364.117 408.508C365.025 411.379 365.543 414.37 366.062 416.703C363.988 418.797 362.303 420.651 360.423 422.207C358.868 423.463 357.053 424.54 355.239 425.437C353.943 426.035 352.971 426.394 353.36 428.069C353.489 428.548 352.582 429.265 352.128 429.864C351.221 429.086 350.314 428.308 349.342 427.531C349.925 427.232 350.638 426.992 351.156 426.574C352.258 425.736 353.878 424.899 354.137 423.822C354.396 422.805 353.489 420.95 352.517 420.412C349.86 419.036 346.944 418.079 344.027 417.182C342.148 416.583 341.435 415.925 342.667 414.25C343.574 412.994 344.416 411.618 345.259 410.302C346.555 408.328 345.777 406.713 344.546 405.397C343.25 405.636 342.018 405.576 341.241 406.115C340.009 406.952 338.389 408.029 338.195 409.166C337.612 412.157 335.279 413.174 332.946 414.43C330.937 410.781 330.094 410.362 325.169 411.738C324.78 408.926 324.391 406.175 324.002 403.184C321.605 401.09 319.531 403.184 317.522 404.021C315.383 404.918 313.763 406.354 314.217 409.106C314.346 409.764 312.402 411.439 311.624 411.379C309.81 411.2 307.736 412.934 306.051 410.542C305.014 409.046 300.348 409.106 298.793 410.302C298.274 410.661 298.274 411.618 298.08 412.336C297.821 413.233 297.497 414.191 297.173 415.267C295.358 414.071 294.192 412.635 292.831 412.516C290.174 412.216 287.128 409.943 284.6 413.174C284.147 413.772 282.462 413.592 281.036 413.832C280.712 414.908 280.518 416.763 277.925 416.165C277.472 416.045 276.759 416.464 276.435 416.823C275.074 418.199 273.713 418.199 272.028 417.301C268.788 415.507 266.195 418.019 263.279 418.498C261.983 418.737 260.492 419.275 259.78 420.173C258.678 421.489 257.317 423.224 257.447 424.719C257.771 429.385 257.122 430.402 252.132 431C251.679 431.06 251.225 431.24 250.771 431.18C247.337 431 246.754 433.094 245.781 435.547C244.485 438.717 241.31 440.452 237.616 440.931C235.866 441.17 233.663 442.247 232.302 440.033C230.746 437.581 230.811 435.367 232.82 433.154C234.246 431.599 234.116 429.983 233.209 428.308C232.561 427.052 231.589 425.916 231.07 424.659C230.682 423.702 230.552 422.506 230.811 421.549C231.459 419.156 230.746 417.481 228.349 416.464C223.488 414.43 215.258 418.019 213.832 422.745C213.638 423.463 213.054 424.061 212.406 425.198C210.851 421.549 208.648 421.608 205.796 423.283C204.954 423.762 203.528 423.343 202.361 423.343C202.621 422.386 202.685 421.369 203.204 420.532C205.472 417.122 208.712 414.849 212.471 412.815C215.711 411.02 218.368 408.089 220.831 405.397C222.322 403.782 221.285 401.748 219.729 400.492C216.424 397.859 214.35 394.21 210.268 392.176C208.129 391.159 205.602 389.425 205.796 385.955C207.416 386.493 208.842 386.912 210.657 387.51C210.851 385.835 211.175 384.28 211.24 382.665C211.305 380.81 212.277 379.794 214.221 379.554C215.711 379.375 217.202 379.076 218.692 379.016C221.998 378.896 224.59 379.853 225.756 383.024C225.821 383.263 226.016 383.502 226.145 383.742C228.219 387.63 228.219 387.63 233.079 387.331C233.727 387.271 234.376 387.271 235.412 387.211C234.764 388.168 234.311 388.826 233.857 389.544C233.339 390.262 232.885 390.98 231.913 392.356C233.792 392.236 235.283 392.476 236.32 391.997C238.847 390.86 241.31 389.604 243.578 388.049C245.781 386.613 247.985 385.955 250.318 387.451C252.392 388.826 254.465 389.006 256.734 388.288C259.78 387.331 262.761 386.374 265.677 385.177C267.751 384.34 269.306 384.4 270.926 386.015C272.546 387.57 274.491 388.826 276.435 390.083C277.083 390.501 278.055 390.501 278.832 390.741C278.962 389.724 279.61 388.468 279.157 387.75C278.055 385.776 276.499 384.041 274.944 381.947C277.277 380.81 279.545 379.674 281.943 378.537C282.786 379.853 283.499 380.99 284.211 382.127C284.471 382.007 284.73 381.887 284.924 381.827C283.628 378.836 282.591 375.726 281.036 372.794C279.675 370.282 279.869 368.248 281.554 366.035C283.693 363.283 285.637 360.471 287.646 357.66C287.452 357.48 287.387 357.241 287.257 357.241C281.814 355.626 281.814 355.626 281.878 350.421C281.878 349.644 281.878 348.866 281.943 348.088C282.267 343.781 283.239 342.585 287.841 341.867C290.238 341.508 290.498 340.252 289.525 338.816C287.646 335.945 288.553 334.09 291.34 332.296C292.247 331.697 292.895 329.903 292.701 328.766C292.507 327.151 291.405 325.596 290.627 323.801C289.979 324.1 289.461 324.28 289.072 324.579C285.767 327.091 285.767 327.091 282.851 323.861C280.971 326.613 279.221 329.305 277.601 331.697C276.111 331.279 274.879 330.92 272.806 330.381C271.898 329.065 272.287 327.211 273.842 325.416C275.139 323.921 275.787 322.365 274.815 320.451C274.491 320.571 274.231 320.631 274.166 320.69C271.185 325.117 270.667 325.177 267.945 320.631C266.908 318.836 266.519 316.742 265.612 314.828C264.381 312.315 263.02 309.863 261.465 307.47C260.428 305.855 258.807 304.479 257.965 302.744C257.317 301.488 257.252 299.813 257.447 298.377C257.706 296.642 258.289 294.848 259.002 293.232C260.233 290.481 261.724 287.789 263.149 285.097C264.122 283.242 265.418 281.508 265.936 279.533C267.103 274.927 267.815 274.03 272.546 273.192C272.546 272.175 272.222 270.56 272.611 270.381C273.842 269.842 275.463 269.484 276.824 269.723C281.23 270.62 281.425 270.8 283.045 266.851C284.082 264.399 285.832 263.501 288.294 262.484C292.701 260.69 296.978 258.536 300.478 255.306C300.737 255.067 301.126 255.067 300.931 255.126C303.588 257.639 306.051 259.972 308.708 262.544C308.384 262.843 307.671 263.322 307.347 263.92C306.375 266.014 303.524 267.749 305.986 270.56C306.375 270.979 305.662 272.116 305.597 272.953C305.468 274.15 305.338 275.406 305.403 276.602C305.468 278.875 306.634 280.491 309.097 281.268C310.782 280.491 312.661 279.713 314.411 278.875C315.448 280.012 316.355 280.969 317.457 282.225C315.448 286.114 316.161 290.301 318.04 294.309C318.753 295.745 320.308 296.822 321.345 298.138C322.253 299.334 323.16 300.531 323.873 301.847C324.78 303.522 324.391 304.598 321.993 304.778C321.086 304.838 319.855 305.436 319.466 306.094C317.975 308.786 315.966 311.478 316.874 314.828C317.651 317.699 316.939 319.494 314.022 320.331C311.236 321.109 310.134 323.263 308.319 324.818C306.829 326.074 306.051 327.271 306.44 329.065C306.57 329.663 306.764 330.262 307.153 330.74C308.449 332.355 309.68 334.03 311.236 335.406C312.143 336.184 313.698 336.304 315.318 336.842C315.578 339.534 318.105 340.312 321.021 341.269C323.225 341.987 324.974 344.2 326.724 345.935C327.761 347.012 328.474 348.387 328.928 348.986C327.372 352.156 325.947 354.908 324.65 357.72C323.938 359.335 325.363 361.907 327.372 362.266C329.705 362.744 330.742 364.001 331.649 365.915C332.751 368.248 334.695 370.222 336.251 372.376C336.445 372.615 336.834 372.854 337.158 372.854C341.565 372.854 342.213 376.264 343.639 379.016C343.963 379.614 344.481 380.093 344.935 380.571C346.49 382.186 348.175 383.742 349.536 385.477C349.86 385.955 349.342 387.032 349.212 388.288Z" fill="#1E417C"/>
<path d="M417.651 328.169C416.938 328.708 416.549 329.126 415.966 329.426C411.818 331.759 411.494 332.776 412.855 337.083C414.864 343.364 418.428 348.808 422.77 353.892C425.103 356.584 427.177 359.516 429.056 362.507C429.575 363.404 429.316 365.617 428.603 366.096C427.177 367.053 424.779 368.01 423.418 367.472C418.428 365.617 413.827 362.985 411.105 358.379C410.263 356.943 409.031 356.465 407.346 356.883C405.791 357.242 404.236 357.721 402.68 357.841C400.995 357.96 399.181 358.02 397.625 357.482C394.58 356.405 392.7 357.96 390.626 359.456C388.617 360.891 386.479 362.267 384.275 363.404C382.914 364.122 381.165 367.292 381.553 369.147C381.683 369.625 381.813 370.104 381.942 370.702C381.23 370.762 380.711 370.822 380.128 370.882C379.609 370.941 379.026 370.941 378.184 371.001C379.285 373.215 379.869 375.548 381.424 377.103C382.461 378.18 384.275 378.778 385.377 380.094C387.256 382.307 387.58 384.939 387.71 387.631C387.775 389.366 387.71 391.041 387.71 392.896C388.941 392.955 389.978 393.075 391.858 393.195C390.238 394.212 389.071 394.93 388.034 395.588C391.922 400.433 392.052 405.458 388.941 410.244C387.969 411.739 387.256 413.354 386.22 414.79C385.507 415.747 384.47 416.465 383.627 417.303C382.785 418.2 381.683 419.037 381.165 420.114C380.387 421.729 379.156 421.729 377.73 421.311C376.175 420.892 374.814 420.892 373.388 422.088C372.675 422.687 371.12 422.387 369.953 422.447C369.953 421.251 369.824 420.114 370.018 418.978C370.148 418.02 370.601 417.063 370.99 415.807C368.333 415.927 368.074 414.551 368.009 412.816C368.009 411.62 367.296 410.483 367.102 409.287C366.907 407.612 364.898 406.176 366.972 404.022C367.815 403.185 366.713 400.732 366.519 398.997C370.407 398.997 372.027 397.442 372.027 393.972C372.027 392.716 372.286 391.46 372.61 390.204C373.129 387.93 372.286 386.854 369.824 386.435C369.111 386.315 368.463 385.239 367.879 385.298C364.769 385.538 361.528 383.324 358.742 384.82C356.668 385.897 354.983 386.614 353.298 385.239C351.937 384.102 351.095 382.427 349.539 380.333C348.243 379.974 346.753 379.137 345.781 376.624C344.938 374.351 342.411 372.078 340.013 371.001C336.772 369.506 335.023 367.352 333.597 364.6C332.819 363.105 332.301 361.549 331.588 359.934C330.746 359.994 329.968 360.293 329.385 360.114C328.542 359.815 327.116 358.917 327.181 358.618C327.829 356.584 328.413 354.311 329.838 352.696C332.366 349.884 332.625 349.645 330.357 346.833C328.607 344.68 326.922 342.407 324.978 340.433C324.135 339.595 322.645 339.296 321.478 338.698C320.312 338.04 318.562 337.501 318.238 336.544C317.395 334.211 316.164 333.134 314.026 333.912C312.47 332.476 311.109 331.28 309.943 330.024C309.424 329.426 308.776 328.169 309.1 327.87C311.174 325.477 312.924 322.666 316.877 322.367C317.784 322.307 318.951 321.051 319.275 320.153C319.728 318.897 319.469 317.402 319.599 316.026C319.664 314.291 318.173 312.197 320.895 311.061C321.025 311.001 320.83 310.283 320.765 309.864C320.377 308.129 321.154 307.292 323.034 306.993C326.404 306.454 327.894 304.42 326.533 301.609C325.367 299.216 323.293 297.242 321.802 294.969C321.219 294.071 321.154 292.935 320.895 291.918C320.701 291.2 320.765 290.243 320.247 289.884C318.432 288.508 318.497 286.654 319.275 285.158C321.025 281.748 319.469 279.595 316.877 277.441C316.164 276.843 315.646 275.946 315.257 275.347C313.053 276.604 311.498 277.501 309.878 278.398C307.804 276.723 307.286 274.988 308.387 272.715C308.841 271.878 309.1 270.502 308.647 269.784C307.48 267.75 308.647 266.494 309.813 264.998C310.72 263.862 311.369 262.486 311.757 261.17C311.952 260.631 311.369 259.614 310.785 259.255C309.165 258.239 307.156 257.64 305.795 256.444C304.694 255.367 304.305 253.632 303.592 252.077C305.082 249.923 306.249 247.411 308.193 245.676C310.072 244.001 311.628 240.89 315.581 242.386C316.164 242.625 317.784 240.651 318.821 239.694C319.793 238.797 320.441 237.301 321.608 236.882C325.107 235.566 325.172 235.746 325.885 232.994C323.682 228.866 321.737 225.217 319.534 221.09C326.015 221.688 330.422 219.534 332.171 213.552C333.014 214.45 333.467 214.808 333.727 215.227C335.152 217.441 336.772 219.116 339.689 220.252C345.845 222.705 347.53 228.029 347.984 233.772C348.697 244.3 350.835 254.47 356.344 263.802C358.547 267.511 359.455 271.339 359.973 275.467C361.14 284.56 369.24 293.772 380.257 296.464C387.386 298.199 394.126 301.609 398.079 308.189C400.023 311.479 402.421 314.53 404.365 317.76C406.958 322.008 410.522 325.118 415.382 327.093C415.966 327.272 416.678 327.691 417.651 328.169Z" fill="#1E417C"/>
<path d="M228.415 506.975C227.443 504.762 226.342 503.685 224.203 503.745C218.824 503.805 218.694 503.685 216.88 498.899C216.815 498.66 216.621 498.481 216.815 498.78C214.093 498.959 211.76 499.258 209.427 499.199C204.955 499.079 204.178 499.557 202.039 503.207C201.391 504.343 199.771 505.121 198.475 505.719C196.531 506.497 194.392 506.856 192.383 507.573C188.689 508.89 186.097 508.112 183.699 505.121C182.727 503.924 181.236 503.087 180.005 502.13C178.774 501.173 177.478 500.275 176.117 499.318C178.061 497.703 179.876 496.507 181.172 495.011C183.375 492.439 182.273 490.106 178.644 489.687C176.441 489.448 174.173 489.448 171.71 489.328C173.136 486.277 175.793 484.961 178.579 483.825C181.107 482.808 184.088 482.389 184.736 479.158C184.801 478.8 186.615 478.261 187.328 478.5C192.253 480.056 196.077 478.201 199.123 474.971C202.039 471.92 205.409 470.484 209.751 470.604C210.594 470.604 211.566 470.305 212.343 469.886C215.065 468.391 217.593 466.536 220.379 465.22C225.564 462.768 229.323 459.358 230.813 453.974C231.591 451.102 232.757 448.351 233.665 445.539C234.053 444.223 234.701 443.565 236.322 443.445C239.756 443.266 243.061 442.369 245.654 440.155C246.626 439.318 247.857 438.241 247.922 437.224C248.052 434.592 249.477 433.814 252.07 433.575C258.68 432.977 260.624 430.644 259.911 424.781C259.846 424.243 260.17 423.286 260.624 423.046C263.346 421.671 266.197 420.414 269.049 419.218C269.438 419.038 270.215 419.158 270.604 419.397C273.326 421.012 275.853 420.893 278.64 418.799C278.446 419.816 278.381 420.893 277.992 421.85C277.214 423.704 277.992 424.781 279.806 425.559C281.427 426.217 283.047 426.875 284.861 427.653C283.047 431.481 283.371 436.207 278.899 438.899C279.094 440.873 279.288 442.967 279.418 444.881C278.057 445.778 276.631 446.556 275.335 447.513C273.391 449.009 274.039 450.624 275.659 451.94C277.668 453.495 279.807 454.931 281.88 456.367C284.602 458.221 288.102 458.102 290.759 456.247C294.064 453.974 294.777 454.093 296.851 457.443C298.211 459.717 300.998 460.375 302.1 459.537C304.433 459.537 305.923 459.597 307.414 459.537C308.192 459.537 308.969 459.358 309.682 459.178C310.395 458.999 311.432 458.879 311.691 458.46C313.376 455.529 316.098 454.572 319.727 454.632C319.014 453.435 318.496 452.538 317.653 451.162C322.319 451.402 326.532 451.581 330.809 451.82C331.651 454.811 334.049 455.649 338.715 454.034C336.836 456.427 341.502 460.435 335.41 461.093C336.317 463.605 336.966 465.699 335.086 467.912C334.049 469.109 337.095 471.98 339.623 472.219C340.595 472.339 341.632 472.219 342.604 472.219C342.733 472.518 342.863 472.758 342.992 473.057C341.696 474.014 340.335 474.971 338.715 476.108C338.715 476.227 338.78 476.885 338.845 477.005C335.734 477.902 332.883 478.74 329.578 479.697C330.55 477.065 328.8 476.706 327.18 476.407C325.495 476.167 324.458 476.825 323.875 478.441C323.356 479.876 322.19 481.133 320.894 483.047C319.792 479.398 317.783 478.381 314.543 479.278C313.959 479.458 313.052 478.56 312.08 478.022C310.136 478.8 308.386 479.996 309.034 482.508C309.488 484.303 310.201 486.038 310.849 487.892C308.71 488.79 306.312 489.388 304.368 490.584C299.832 493.396 300.285 497.823 300.804 502.07C301.257 505.48 301.646 508.59 298.082 511.043C295.684 512.718 293.61 513.376 291.018 511.881C288.62 510.505 286.741 511.103 284.926 512.658C282.658 514.573 280.325 516.487 278.122 518.521C277.344 519.239 276.307 520.076 276.177 520.973C275.789 523.665 273.974 524.084 271.576 524.144C268.077 524.204 264.642 524.264 261.142 524.503C258.68 524.682 256.736 523.905 255.245 522.11C253.754 520.315 252.329 518.521 249.542 518.222C248.894 518.162 248.246 517.264 247.857 516.606C246.626 514.752 245.524 512.838 244.358 510.983C242.413 507.813 238.784 507.394 236.451 510.325C235.285 511.761 234.118 512.06 232.304 512.06C229.517 512.06 226.73 512.718 223.944 512.838C222.907 512.898 220.898 512.06 220.963 511.701C221.027 510.265 221.481 508.71 222.259 507.454C222.518 506.975 224.073 507.095 224.981 507.095C225.953 506.915 226.925 506.975 228.415 506.975Z" fill="#1E417C"/>
<path d="M173.329 298.557C172.681 296.224 171.126 294.071 170.672 291.738C169.83 287.431 167.626 285.038 162.701 285.217C162.571 285.217 162.442 284.978 162.377 284.918C162.377 282.764 162.571 280.671 162.312 278.637C162.182 277.5 161.47 275.885 160.562 275.526C157.387 274.27 156.35 271.817 155.378 269.185C154.47 266.732 153.498 264.28 152.397 261.887C152.008 260.99 151.425 259.913 150.582 259.374C148.703 258.238 148.249 256.982 148.832 254.948C149.74 251.717 148.249 249.564 144.75 248.666C143.194 248.248 141.574 248.308 140.083 247.829C129.585 244.778 119.864 248.128 110.078 250.82C107.81 251.418 106.644 252.734 107.292 255.127C107.81 256.922 106.773 257.699 104.829 257.52C104.051 257.46 103.338 257.341 102.561 257.281C100.941 257.161 99.2557 256.563 99.3853 255.067C98.6724 254.469 97.8948 253.811 97.3763 253.093C96.9875 253.153 96.469 253.213 95.8858 253.093C92.451 252.615 92.8399 256.144 91.9326 258.178C91.7382 258.657 91.6086 259.195 91.7382 259.674C93.1639 266.015 89.5348 270.8 85.7112 275.347C84.4799 276.842 81.8228 277.5 79.6194 278.039C77.2864 278.577 74.8238 278.577 72.426 278.816C72.3611 279.056 72.2963 279.235 72.2315 279.474C75.2126 281.329 78.1289 283.243 81.6932 285.516C78.4529 287.012 75.8607 288.687 72.9444 289.405C67.6951 290.721 64.8436 293.891 63.2235 298.318C62.8994 299.155 63.1587 300.651 63.8068 301.309C65.9454 303.463 68.408 305.377 70.6114 307.471C72.1019 308.966 73.2684 310.701 74.6293 312.316C75.2126 313.034 75.7311 313.991 76.5087 314.47C80.5267 316.743 84.6095 318.896 88.6923 320.99C91.1549 322.246 93.812 322.127 96.2746 320.99C97.3115 320.512 97.9595 319.315 98.7372 318.418C98.9316 318.238 98.802 317.879 98.9965 317.7C101.913 314.948 101.394 311.897 100.357 308.607C100.098 307.829 100.811 306.573 101.459 305.855C103.014 304.24 104.894 302.864 106.449 301.249C108.005 299.574 109.301 299.694 110.856 301.13C114.096 304.18 115.522 307.59 113.513 311.837C115.976 313.273 118.373 314.709 120.771 316.025C123.558 317.52 124.919 319.674 124.724 322.665C124.66 323.263 124.66 323.981 124.984 324.4C125.632 325.237 126.474 326.314 127.382 326.494C128.289 326.673 129.779 326.075 130.427 325.357C131.788 323.981 132.89 322.725 135.158 323.682C136.973 324.52 139.306 324.819 140.408 326.613C141.056 326.912 141.574 327.152 142.157 327.511C142.157 327.391 142.222 327.331 142.222 327.211C146.11 329.066 149.351 328.408 151.813 324.938C152.85 323.443 153.498 321.648 154.017 319.913C155.378 314.888 155.767 314.529 161.405 314.41C164.321 314.35 165.617 312.436 166.978 310.581C168.145 308.966 167.108 307.65 165.876 306.454C165.488 306.035 165.099 305.437 165.034 304.838C164.58 301.189 164.191 297.48 163.803 293.772C167.043 294.011 167.885 295.147 167.367 298.318C166.978 300.711 166.265 303.044 168.08 305.317C169.311 306.872 170.413 306.813 171.774 305.616C174.172 303.582 173.977 301.01 173.329 298.557Z" fill="#1E417C"/>
<path d="M354.786 575.887C353.749 574.87 352.647 573.853 351.286 572.537C350.573 571.52 349.601 570.084 348.564 568.529C345.907 569.187 344.805 568.41 345.129 565.538C345.324 563.624 343.121 561.71 344.417 559.436C344.546 559.257 343.12 558.18 342.343 557.761C341.047 557.044 339.621 556.565 338.39 555.548C342.537 554.77 346.231 555.368 349.277 558.12C350.768 559.496 352.906 558.06 354.267 555.847C356.341 552.557 353.554 550.044 353.36 547.113C353.23 545.019 352.193 543.045 351.74 540.952C351.286 538.738 352.841 536.884 355.304 536.824C357.702 536.824 358.35 535.987 358.22 533.833C358.091 532.457 358.804 531.081 359.257 529.705C359.776 528.09 360.813 526.475 358.415 525.219C357.961 524.979 357.896 523.663 358.091 522.946C358.48 521.45 358.48 520.313 357.119 518.997C355.304 517.262 353.878 515.109 352.712 512.896C352.323 512.178 353.554 510.802 354.138 509.486C352.906 508.349 351.416 507.033 350.379 506.076C350.379 504.521 350.379 503.324 350.379 502.128C350.379 498.658 349.471 494.83 350.703 491.839C351.934 488.907 352.258 485.019 356.341 483.165C357.896 482.447 358.674 479.755 359.192 477.84C359.646 476.225 360.035 474.251 361.85 474.49C363.534 474.73 367.099 474.012 366.321 477.721C366.191 478.259 366.451 478.977 366.775 479.456C367.617 480.772 365.867 483.224 368.913 483.523C374.292 484.062 375.2 483.284 377.403 480.054C378.44 478.498 381.356 478.02 383.43 477.182C383.56 477.123 384.272 478.14 384.596 478.678C385.763 480.652 387.059 480.891 388.809 479.456C391.531 477.242 391.79 475.448 389.651 472.516C390.883 471.858 391.984 471.14 393.216 470.662C397.169 469.226 400.992 467.791 400.474 463.184C402.159 463.184 404.038 463.723 404.946 463.065C405.853 462.347 405.788 460.552 406.112 459.176C406.436 459.116 406.695 459.057 407.019 458.997C408.251 461.031 409.482 463.065 410.843 465.398C414.537 464.141 415.185 467.252 416.675 469.525C417.388 470.662 418.555 471.559 419.786 472.157C420.953 474.969 422.054 477.781 423.35 480.891C425.1 479.994 426.202 479.575 427.239 478.977C429.442 477.721 431.192 478.199 432.099 480.532C433.071 483.045 435.469 484.959 435.145 488.01C435.016 489.147 437.737 489.565 437.154 491.719C436.765 493.274 436.247 494.172 434.692 494.71C429.831 496.385 429.183 497.163 428.341 501.829C423.869 500.393 420.953 503.444 417.324 504.82C413.954 506.076 410.454 509.007 405.918 505.418C405.788 507.392 405.594 508.708 405.723 510.024C405.853 511.998 406.89 514.092 406.371 515.827C405.723 517.861 403.779 519.536 402.288 521.33C401.77 521.988 401.122 522.467 400.474 523.065C399.891 523.544 399.437 524.142 398.789 524.501C397.493 525.279 395.937 525.877 394.771 526.834C393.216 528.09 392.503 529.526 394.253 531.32C394.836 531.919 394.901 533.055 395.16 533.893C389.91 535.388 389.911 535.388 390.429 542.686C391.855 543.584 393.086 544.421 394.641 545.438C392.503 547.053 390.559 548.13 389.262 549.686C387.902 551.241 386.8 553.215 386.346 555.129C385.568 558.36 385.439 561.71 385.05 565C385.05 565.239 384.985 565.598 385.115 565.718C386.022 566.615 386.67 567.751 385.309 568.529C384.402 569.008 383.041 568.768 381.939 568.828C381.551 568.828 381.226 568.649 380.838 568.589C377.986 568.409 375.135 568.17 374.487 564.521C373.32 566.316 372.413 567.751 371.246 569.606C371.83 570.204 372.802 571.341 373.903 572.418C374.94 573.375 376.107 574.272 376.949 574.99C375.005 577.263 373.191 579.476 371.246 581.57C369.691 583.305 366.516 583.604 364.247 582.288C362.109 581.032 360.165 579.476 358.091 578.16C356.924 577.442 355.693 576.904 354.462 576.306C354.656 576.246 354.721 576.067 354.786 575.887Z" fill="#1E417C"/>
<path d="M433.979 507.035C433.267 506.077 431.906 505.061 431.646 503.804C430.739 499.437 431.322 498.899 436.053 496.925C437.673 496.207 439.034 494.891 439.942 494.233C440.136 492.618 440.006 491.541 440.33 490.584C441.043 488.49 440.136 487.054 437.803 486.636C436.961 483.884 436.053 481.192 435.211 478.44C435.535 478.5 435.859 478.56 436.183 478.62C437.414 477.782 438.581 476.825 439.877 476.047C441.562 475.03 443.376 474.971 444.932 476.227C445.839 476.945 446.617 477.842 447.718 478.979C449.533 476.227 451.866 475.688 455.106 476.586C456.597 477.004 458.671 475.748 460.42 475.15C462.105 474.552 462.494 475.09 463.077 476.646C463.725 478.5 465.022 480.175 466.318 481.73C468.003 483.764 470.336 482.628 472.539 482.448C474.354 482.329 476.168 482.628 477.983 482.747C480.381 482.927 482.778 483.286 485.241 483.286C487.315 483.286 488.093 483.884 488.222 485.978C488.481 489.926 486.602 492.438 483.038 494.113C481.029 495.07 479.085 495.489 477.14 493.635C475.779 492.319 474.03 492.438 472.539 493.575C470.465 495.19 468.456 496.865 466.318 498.66C468.262 499.976 469.558 499.019 470.919 498.181C472.993 496.865 473.706 497.164 473.835 499.497C473.965 501.95 473.965 504.343 473.835 506.795C473.835 507.513 473.446 508.351 472.863 508.829C471.437 510.026 469.882 511.222 468.197 512.179C467.225 512.777 465.864 513.316 464.827 513.196C460.42 512.538 456.662 514.871 452.579 515.41C452.06 515.469 451.607 516.008 450.764 516.606C452.449 516.606 453.681 516.486 454.782 516.606C457.374 516.905 459.967 517.204 462.494 517.802C465.086 518.46 467.549 519.657 470.141 520.375C474.289 521.571 474.743 522.169 472.863 526.058C478.242 525.041 483.491 523.964 488.676 523.007C491.333 522.528 494.055 522.05 496.712 521.751C497.425 521.691 498.591 521.99 498.85 522.468C499.11 522.947 498.786 524.143 498.267 524.443C495.416 526.237 495.74 528.51 496.841 531.023C497.295 531.98 497.425 533.057 497.619 534.074C498.462 538.261 497.295 540.235 493.083 541.91C490.296 542.987 487.509 544.064 484.723 545.021C479.603 546.756 477.205 550.225 477.205 555.19C477.205 555.729 477.14 556.207 477.076 556.746C477.076 556.925 476.881 557.045 476.557 557.583C470.725 554.951 466.188 557.224 461.587 560.873C459.448 562.548 456.143 563.147 453.227 563.745C450.051 564.343 447.718 565.599 445.839 567.992C443.441 571.043 442.599 571.223 438.646 570.146C433.331 568.71 428.017 567.095 422.638 565.958C420.111 565.42 417.26 565.24 414.667 565.599C408.9 566.377 403.197 567.514 397.494 568.65C395.938 568.949 394.124 569.607 393.087 570.624C391.207 572.419 389.717 572.479 387.902 570.385C389.069 569.009 390.3 567.514 391.661 565.898C387.514 564.403 387.708 561.591 388.226 558.122C388.874 553.815 390.624 550.584 394.772 548.491C395.679 548.012 396.392 547.115 396.975 546.277C397.688 545.2 397.947 544.303 396.198 543.346C394.901 542.628 393.994 541.013 393.281 539.637C392.892 538.919 393.152 537.902 393.087 537.065C394.124 537.244 395.161 537.364 396.586 537.603C397.558 535.809 398.012 533.715 397.17 531.442C396.068 528.451 397.04 527.075 400.41 526.476C401.123 526.357 401.9 526.476 402.613 526.476C403.521 523.366 404.752 522.588 407.863 523.126C407.668 522.349 407.539 521.691 407.409 521.033C409.483 522.289 411.492 523.605 413.63 524.682C416.806 526.237 412.982 529.228 415.834 530.963C416.806 530.006 418.037 528.75 419.269 527.553C419.269 529.527 420.241 530.604 422.574 529.647C423.74 533.057 423.935 533.057 430.61 529.707C430.998 530.664 431.452 531.621 431.841 532.578C437.868 532.997 438.451 528.032 440.784 524.921C440.979 524.622 440.59 523.964 440.525 523.485C440.46 523.007 440.136 522.349 440.33 522.05C442.21 519.477 443.895 516.785 446.163 514.512C448.107 512.598 448.431 511.88 446.357 510.085C446.228 509.966 446.033 509.846 445.969 509.727C444.997 507.752 444.219 505.479 441.238 505.659C439.034 505.838 436.766 506.496 433.979 507.035Z" fill="#1E417C"/>
<path d="M405.852 431.719C403.584 432.497 401.899 433.514 404.037 436.086C404.491 436.624 403.778 437.94 403.519 439.197C404.037 439.436 405.01 439.735 405.658 440.273C406.63 441.051 407.407 442.068 408.185 443.025C408.574 443.564 408.639 444.401 409.027 444.88C411.296 447.572 410.842 450.144 407.537 451.52C405.204 452.477 404.232 453.374 404.945 456.006C405.269 457.263 403.649 458.997 402.936 460.493C400.603 459.775 397.492 461.151 397.816 463.065C398.335 466.475 395.742 467.253 393.344 468.329C391.595 469.107 389.845 469.885 388.225 470.902C386.734 471.799 386.216 473.175 387.706 474.371C389.326 475.687 388.549 476.525 387.382 477.542C385.438 474.431 383.494 473.953 379.865 475.508C378.763 475.987 377.597 476.405 376.624 477.063C375.847 477.602 375.393 478.499 374.745 479.217C373.967 479.995 373.255 481.191 372.282 481.37C370.986 481.67 369.69 481.251 369.366 479.396C368.848 476.046 368.653 476.046 371.829 474.371C371.181 473.414 370.533 472.517 369.885 471.56C367.357 468.21 367.357 468.27 363.793 470.543C362.432 471.44 360.941 472.158 359.451 472.876C357.636 473.713 356.988 475.149 356.988 476.944C356.988 479.995 355.044 481.61 351.739 482.447C352.711 481.071 353.748 479.636 354.914 478.08C352.711 477.482 349.017 478.379 350.184 474.85C348.045 473.295 346.101 471.979 344.221 470.603C343.12 469.825 342.148 468.868 340.527 469.765C340.074 470.004 338.843 469.526 338.324 469.047C338 468.808 338.518 467.851 338.454 467.253C337.806 463.304 342.796 460.373 340.916 456.186C340.787 455.946 341.37 455.468 341.435 455.049C341.694 453.913 341.888 452.776 342.212 451.161C339.426 451.58 337.546 451.879 335.797 452.178C335.861 450.144 331.649 447.93 328.798 448.708C324.456 449.905 323.483 449.725 320.049 446.914C319.79 449.665 314.216 447.871 315.383 451.639C312.142 453.613 309.096 455.468 305.662 457.562C303.394 454.989 299.116 455.408 296.135 452.716C294.774 451.46 291.21 452.297 288.423 452.118C288.683 453.195 288.812 453.793 288.942 454.391C284.47 455.468 282.072 454.451 276.499 448.768C280.387 447.631 283.887 446.555 288.035 445.298C287.84 443.504 287.581 441.41 287.322 439.256C285.637 439.436 283.952 439.675 282.785 439.795C283.628 437.821 284.665 435.189 285.961 432.736C286.35 432.018 287.322 431.42 288.164 431.181C289.914 430.642 290.173 429.685 289.266 428.429C288.488 427.412 287.451 426.395 286.35 425.677C284.6 424.6 282.72 423.763 280.776 422.746C279.999 418.14 283.368 415.866 287.581 414.251C288.812 414.431 290.303 414.491 291.664 414.79C292.506 414.969 293.219 415.508 293.997 415.986C294.904 416.524 296.265 417.781 296.654 417.601C298.209 416.704 299.57 415.388 300.801 414.132C301.125 413.773 300.931 412.995 300.996 412.337C302.616 411.619 303.847 411.679 305.143 413.115C305.856 413.952 307.606 414.371 308.837 414.311C313.374 414.012 316.873 412.337 317.586 407.551C317.716 406.893 319.53 405.816 320.308 405.996C321.15 406.175 321.993 407.551 322.252 408.508C322.835 410.662 323.03 412.816 323.419 415.149C325.881 414.55 327.566 414.132 329.186 413.713C331.066 417.781 334.76 418.02 339.231 414.55C339.62 415.627 339.944 416.764 340.333 417.841C340.851 419.097 341.37 419.815 343.314 419.755C345.388 419.695 347.656 420.652 349.665 421.49C350.378 421.789 350.702 422.865 351.22 423.703C348.11 424.54 345.582 427.053 346.554 428.489C347.721 430.164 350.054 432.078 351.869 432.138C355.174 432.198 356.729 430.463 356.146 428.07C361.719 428.01 362.043 422.028 366.385 420.174C366.58 421.131 366.644 421.849 366.904 422.566C367.811 425.079 370.468 426.096 373.06 425.258C374.939 424.66 376.948 424.361 378.893 424.182C380.707 424.002 382.003 423.763 383.17 422.028C385.179 419.097 387.836 416.584 390.234 413.952C390.234 414.311 390.169 415.029 390.363 415.687C390.752 416.943 391.335 418.14 391.919 419.276C392.956 421.43 394.122 423.464 395.094 425.617C395.807 427.173 396.585 428.309 398.723 428.249C399.566 428.19 400.473 428.788 401.251 429.147C402.741 429.865 404.232 430.762 405.852 431.719Z" fill="#1E417C"/>
<path d="M140.473 49.7623C136.973 47.7284 133.538 45.8141 129.909 43.7204C131.14 42.8829 132.177 42.2248 133.214 41.5668C133.214 41.2079 133.279 40.9088 133.149 40.7293C129.78 36.1231 131.14 31.8758 134.51 27.9276C134.899 27.449 135.807 27.0303 136.455 27.0901C137.621 27.1499 138.852 27.5687 140.019 27.808C142.287 28.3464 143.842 27.7481 144.426 25.5348C145.333 22.1848 147.666 20.2107 151.36 19.433C152.656 19.1339 154.017 18.5955 155.119 17.8777C159.266 15.0661 163.349 12.1947 167.886 9.02417C168.728 10.1608 170.089 11.1179 170.154 12.1349C170.413 16.0232 170.931 20.0911 167.497 23.2616C166.525 24.1589 165.617 25.1758 164.775 26.1928C164.321 26.7312 163.544 27.5089 163.738 27.9276C164.775 30.4999 162.571 31.816 161.535 33.6106C160.562 35.2856 159.202 36.8409 160.886 39.0543C161.599 39.9516 161.535 41.6864 161.146 42.823C160.757 43.7802 159.331 44.3784 158.489 45.2757C157.841 45.9337 157.128 46.7114 156.804 47.6087C155.767 50.0016 153.823 50.8989 151.23 50.7792C149.74 50.7194 148.379 50.3605 147.277 51.9158C146.953 52.4542 145.268 52.1551 143.972 52.2748C143.907 52.873 143.972 53.7105 143.713 54.4881C143.518 55.206 143 56.2828 142.546 56.3426C139.954 56.7015 138.852 58.4962 137.491 60.1711C135.677 62.4443 133.02 62.8033 130.039 62.564C130.557 56.3426 134.381 52.4542 140.473 49.7623Z" fill="#1E417C"/>
<path d="M435.015 529.466C430.413 526.654 430.413 526.654 426.201 529.645C424.322 528.09 422.572 526.295 420.563 524.919C419.072 523.903 417.193 523.484 415.508 522.706C414.017 522.048 412.462 521.45 411.231 520.493C409.999 519.595 408.639 518.758 408.963 516.724C409.351 514.57 409.027 512.297 409.027 510.024C411.684 509.306 414.795 508.588 417.776 507.571C419.656 506.913 421.405 505.896 423.09 504.82C425.618 503.264 427.756 503.623 429.312 505.896C431.515 509.187 433.394 509.845 437.542 508.588C441.366 507.452 441.884 507.751 444.217 511.46C442.921 513.553 441.754 515.468 440.523 517.322C440.134 517.92 439.681 518.399 439.357 518.997C438.709 520.134 437.542 521.33 437.736 522.407C438.125 525.398 436.051 527.133 435.015 529.466Z" fill="#1E417C"/>
<path d="M202.853 133.395L201.149 132.283L201.256 134.315H200.194L200.308 132.283L198.589 133.403L198.076 132.44L199.873 131.563L198.083 130.679L198.596 129.738L200.301 130.828L200.201 128.818H201.263L201.156 130.828L202.853 129.73L203.381 130.679L201.57 131.57L203.381 132.447L202.853 133.395ZM211.723 138.201V139.584H205.192V129.295H211.723V130.672H206.789V133.681H211.459V135.007H206.789V138.201H211.723ZM215.994 139.713C214.098 139.713 212.843 138.201 212.843 135.834C212.843 133.467 214.098 131.962 215.98 131.962C217.057 131.962 217.912 132.504 218.333 133.331H218.362V129.295H219.909V139.584H218.411V138.308H218.383C217.941 139.164 217.085 139.713 215.994 139.713ZM216.401 133.26C215.181 133.26 214.418 134.258 214.418 135.834C214.418 137.417 215.181 138.408 216.401 138.408C217.584 138.408 218.376 137.403 218.376 135.834C218.376 134.28 217.584 133.26 216.401 133.26ZM221.542 139.584V132.083H223.082V139.584H221.542ZM222.312 130.985C221.82 130.985 221.42 130.593 221.42 130.108C221.42 129.616 221.82 129.224 222.312 129.224C222.811 129.224 223.21 129.616 223.21 130.108C223.21 130.593 222.811 130.985 222.312 130.985ZM224.658 139.584V132.083H226.126V133.338H226.162C226.568 132.483 227.367 131.955 228.522 131.955C230.176 131.955 231.125 133.01 231.125 134.729V139.584H229.577V135.028C229.577 133.902 229.05 133.281 227.98 133.281C226.896 133.281 226.198 134.051 226.198 135.214V139.584H224.658ZM236.608 139.713C235.51 139.713 234.661 139.178 234.198 138.308H234.169V139.584H232.672V129.295H234.212V133.36H234.248C234.697 132.49 235.553 131.962 236.615 131.962C238.505 131.962 239.738 133.46 239.738 135.834C239.738 138.215 238.512 139.713 236.608 139.713ZM236.194 133.26C235.025 133.26 234.205 134.287 234.205 135.834C234.205 137.395 235.025 138.408 236.194 138.408C237.407 138.408 238.155 137.424 238.155 135.834C238.155 134.258 237.407 133.26 236.194 133.26ZM247.375 132.083V139.584H245.899V138.315H245.863C245.45 139.214 244.687 139.72 243.539 139.72C241.906 139.72 240.908 138.658 240.908 136.939V132.083H242.448V136.64C242.448 137.781 242.99 138.394 244.052 138.394C245.164 138.394 245.835 137.624 245.835 136.454V132.083H247.375ZM248.901 139.584V132.083H250.369V133.36H250.405C250.655 132.483 251.325 131.962 252.209 131.962C252.43 131.962 252.623 131.998 252.737 132.019V133.452C252.615 133.403 252.344 133.367 252.045 133.367C251.054 133.367 250.441 134.03 250.441 135.092V139.584H248.901ZM256.559 138.337C257.764 138.337 258.555 137.36 258.555 135.813C258.555 134.272 257.764 133.26 256.559 133.26C255.375 133.26 254.605 134.251 254.605 135.813C254.605 137.381 255.375 138.337 256.559 138.337ZM256.573 142.408C254.804 142.408 253.492 141.467 253.3 140.169H254.847C255.068 140.797 255.753 141.21 256.63 141.21C257.835 141.21 258.548 140.526 258.548 139.499V138.265H258.519C258.099 139.078 257.214 139.613 256.145 139.613C254.263 139.613 253.029 138.144 253.029 135.805C253.029 133.445 254.255 131.962 256.181 131.962C257.243 131.962 258.113 132.497 258.569 133.367H258.598V132.083H260.095V139.449C260.095 141.239 258.712 142.408 256.573 142.408ZM261.678 139.584V129.295H263.204V133.338H263.24C263.653 132.461 264.473 131.955 265.614 131.955C267.261 131.955 268.245 133.053 268.245 134.75V139.584H266.698V135.05C266.698 133.944 266.142 133.281 265.058 133.281C263.917 133.281 263.218 134.066 263.218 135.249V139.584H261.678Z" fill="white"/>
<path d="M94.7926 282.344L93.0885 281.232L93.1954 283.264H92.133L92.2471 281.232L90.5287 282.351L90.0153 281.389L91.8121 280.512L90.0224 279.627L90.5358 278.686L92.24 279.777L92.1401 277.766H93.2025L93.0956 279.777L94.7926 278.679L95.3202 279.627L93.5092 280.519L95.3202 281.396L94.7926 282.344ZM101.26 288.533H97.1313V278.244H101.238C103.064 278.244 104.262 279.257 104.262 280.811C104.262 281.902 103.456 282.879 102.429 283.05V283.107C103.827 283.264 104.768 284.255 104.768 285.624C104.768 287.435 103.449 288.533 101.26 288.533ZM98.7285 279.549V282.622H100.518C101.902 282.622 102.664 282.052 102.664 281.032C102.664 280.077 102.008 279.549 100.853 279.549H98.7285ZM98.7285 287.228H100.932C102.372 287.228 103.135 286.637 103.135 285.524C103.135 284.412 102.351 283.841 100.839 283.841H98.7285V287.228ZM109.096 282.137C108.019 282.137 107.263 282.957 107.185 284.091H110.936C110.9 282.943 110.173 282.137 109.096 282.137ZM110.928 286.33H112.39C112.176 287.699 110.879 288.676 109.16 288.676C106.957 288.676 105.624 287.186 105.624 284.818C105.624 282.465 106.978 280.897 109.096 280.897C111.178 280.897 112.476 282.366 112.476 284.64V285.168H107.178V285.26C107.178 286.565 107.962 287.428 109.196 287.428C110.073 287.428 110.722 286.986 110.928 286.33ZM113.731 288.533V278.244H115.271V288.533H113.731ZM117.303 288.533V282.251H116.269V281.046H117.303V280.312C117.303 278.857 117.987 278.173 119.513 278.173C119.827 278.173 120.176 278.209 120.376 278.244V279.385C120.226 279.357 120.02 279.342 119.813 279.342C119.143 279.342 118.829 279.677 118.829 280.34V281.046H120.348V282.251H118.85V288.533H117.303ZM123.77 287.442C124.847 287.442 125.688 286.701 125.688 285.724V285.132L123.841 285.246C122.922 285.31 122.401 285.717 122.401 286.358C122.401 287.014 122.943 287.442 123.77 287.442ZM123.342 288.662C121.873 288.662 120.847 287.749 120.847 286.401C120.847 285.089 121.852 284.284 123.635 284.184L125.688 284.063V283.485C125.688 282.651 125.125 282.152 124.184 282.152C123.292 282.152 122.736 282.579 122.601 283.25H121.146C121.232 281.895 122.387 280.897 124.241 280.897C126.059 280.897 127.221 281.859 127.221 283.364V288.533H125.745V287.3H125.71C125.275 288.134 124.326 288.662 123.342 288.662ZM128.583 283.157C128.583 281.816 129.767 280.897 131.521 280.897C133.189 280.897 134.359 281.831 134.409 283.164H132.961C132.89 282.487 132.341 282.066 131.478 282.066C130.644 282.066 130.088 282.472 130.088 283.064C130.088 283.528 130.458 283.841 131.236 284.034L132.498 284.326C134.009 284.69 134.58 285.26 134.58 286.366C134.58 287.735 133.303 288.676 131.464 288.676C129.688 288.676 128.512 287.756 128.391 286.38H129.916C130.038 287.1 130.594 287.499 131.535 287.499C132.462 287.499 133.032 287.114 133.032 286.508C133.032 286.03 132.747 285.767 131.963 285.567L130.622 285.239C129.268 284.911 128.583 284.205 128.583 283.157ZM136.227 279.257H137.774V281.032H139.2V282.251H137.774V286.387C137.774 287.036 138.059 287.328 138.687 287.328C138.844 287.328 139.093 287.314 139.193 287.293V288.512C139.022 288.555 138.68 288.583 138.337 288.583C136.819 288.583 136.227 288.006 136.227 286.558V282.251H135.136V281.032H136.227V279.257Z" fill="white"/>
<path d="M226.217 489.704L224.513 488.592L224.62 490.624H223.558L223.672 488.592L221.953 489.712L221.44 488.749L223.237 487.872L221.447 486.988L221.961 486.047L223.665 487.138L223.565 485.127H224.627L224.52 487.138L226.217 486.039L226.745 486.988L224.934 487.879L226.745 488.756L226.217 489.704ZM232.713 496.065C229.825 496.065 228 494.025 228 490.745C228 487.487 229.84 485.433 232.713 485.433C235.045 485.433 236.806 486.867 237.077 489.013H235.494C235.209 487.694 234.111 486.831 232.713 486.831C230.845 486.831 229.633 488.364 229.633 490.745C229.633 493.148 230.831 494.667 232.72 494.667C234.153 494.667 235.173 493.933 235.494 492.692H237.084C236.692 494.817 235.08 496.065 232.713 496.065ZM240.963 494.803C242.04 494.803 242.881 494.061 242.881 493.084V492.492L241.034 492.606C240.114 492.671 239.594 493.077 239.594 493.719C239.594 494.375 240.136 494.803 240.963 494.803ZM240.535 496.022C239.066 496.022 238.039 495.109 238.039 493.762C238.039 492.45 239.045 491.644 240.827 491.544L242.881 491.423V490.845C242.881 490.011 242.318 489.512 241.376 489.512C240.485 489.512 239.929 489.94 239.793 490.61H238.339C238.424 489.255 239.58 488.257 241.433 488.257C243.252 488.257 244.414 489.22 244.414 490.724V495.894H242.938V494.66H242.902C242.467 495.494 241.519 496.022 240.535 496.022ZM245.911 495.894V488.392H247.38V489.669H247.416C247.665 488.792 248.336 488.271 249.22 488.271C249.441 488.271 249.633 488.307 249.747 488.328V489.762C249.626 489.712 249.355 489.676 249.056 489.676C248.065 489.676 247.451 490.339 247.451 491.401V495.894H245.911ZM253.191 496.022C251.295 496.022 250.04 494.51 250.04 492.143C250.04 489.776 251.295 488.271 253.177 488.271C254.254 488.271 255.109 488.813 255.53 489.64H255.559V485.605H257.106V495.894H255.608V494.617H255.58C255.138 495.473 254.282 496.022 253.191 496.022ZM253.598 489.569C252.378 489.569 251.616 490.567 251.616 492.143C251.616 493.726 252.378 494.717 253.598 494.717C254.781 494.717 255.573 493.712 255.573 492.143C255.573 490.589 254.781 489.569 253.598 489.569ZM258.739 495.894V488.392H260.279V495.894H258.739ZM259.509 487.294C259.017 487.294 258.617 486.902 258.617 486.417C258.617 485.925 259.017 485.533 259.509 485.533C260.008 485.533 260.407 485.925 260.407 486.417C260.407 486.902 260.008 487.294 259.509 487.294ZM262.304 495.894V489.612H261.27V488.407H262.304V487.672C262.304 486.218 262.988 485.533 264.514 485.533C264.828 485.533 265.177 485.569 265.377 485.605V486.745C265.227 486.717 265.02 486.703 264.814 486.703C264.143 486.703 263.83 487.038 263.83 487.701V488.407H265.348V489.612H263.851V495.894H262.304ZM267.01 495.894V489.612H265.976V488.407H267.01V487.672C267.01 486.218 267.694 485.533 269.22 485.533C269.534 485.533 269.883 485.569 270.083 485.605V486.745C269.933 486.717 269.726 486.703 269.52 486.703C268.849 486.703 268.536 487.038 268.536 487.701V488.407H270.054V489.612H268.557V495.894H267.01Z" fill="white"/>
<path d="M186.356 108.157L184.881 109.462C184.362 108.739 183.835 108.378 183.298 108.378C183.036 108.378 182.822 108.449 182.656 108.592C182.489 108.73 182.406 108.887 182.406 109.063C182.406 109.239 182.466 109.405 182.585 109.562C182.746 109.771 183.233 110.22 184.046 110.909C184.807 111.546 185.268 111.948 185.43 112.114C185.834 112.523 186.119 112.915 186.285 113.291C186.456 113.662 186.542 114.068 186.542 114.51C186.542 115.371 186.245 116.081 185.651 116.642C185.056 117.203 184.282 117.484 183.326 117.484C182.58 117.484 181.929 117.301 181.372 116.935C180.821 116.568 180.348 115.993 179.953 115.209L181.629 114.196C182.133 115.123 182.713 115.587 183.369 115.587C183.711 115.587 183.999 115.487 184.232 115.287C184.465 115.088 184.581 114.857 184.581 114.596C184.581 114.358 184.493 114.12 184.317 113.883C184.141 113.645 183.754 113.281 183.155 112.792C182.014 111.86 181.277 111.142 180.945 110.638C180.612 110.13 180.445 109.624 180.445 109.12C180.445 108.392 180.721 107.77 181.273 107.252C181.829 106.729 182.513 106.467 183.326 106.467C183.849 106.467 184.346 106.588 184.816 106.831C185.292 107.073 185.805 107.515 186.356 108.157ZM198.1 108.578L196.703 109.911C195.752 108.908 194.682 108.407 193.494 108.407C192.491 108.407 191.645 108.749 190.956 109.433C190.271 110.118 189.929 110.962 189.929 111.965C189.929 112.663 190.081 113.284 190.385 113.826C190.689 114.368 191.12 114.793 191.676 115.102C192.232 115.411 192.85 115.565 193.53 115.565C194.109 115.565 194.639 115.459 195.12 115.245C195.6 115.026 196.127 114.631 196.703 114.061L198.057 115.473C197.282 116.229 196.55 116.754 195.861 117.049C195.172 117.339 194.385 117.484 193.501 117.484C191.871 117.484 190.535 116.968 189.494 115.936C188.458 114.9 187.939 113.574 187.939 111.958C187.939 110.912 188.175 109.982 188.645 109.17C189.121 108.357 189.798 107.703 190.677 107.209C191.562 106.714 192.512 106.467 193.53 106.467C194.395 106.467 195.227 106.65 196.025 107.016C196.828 107.382 197.52 107.903 198.1 108.578ZM204.81 106.467C206.293 106.467 207.567 107.004 208.632 108.079C209.701 109.153 210.236 110.463 210.236 112.007C210.236 113.538 209.708 114.833 208.653 115.893C207.602 116.954 206.326 117.484 204.824 117.484C203.251 117.484 201.943 116.939 200.902 115.851C199.861 114.762 199.341 113.469 199.341 111.972C199.341 110.969 199.583 110.047 200.068 109.205C200.553 108.364 201.218 107.698 202.065 107.209C202.915 106.714 203.83 106.467 204.81 106.467ZM204.788 108.421C203.819 108.421 203.003 108.758 202.343 109.433C201.682 110.108 201.351 110.966 201.351 112.007C201.351 113.167 201.767 114.085 202.599 114.76C203.246 115.287 203.987 115.551 204.824 115.551C205.77 115.551 206.576 115.209 207.241 114.524C207.907 113.84 208.239 112.996 208.239 111.993C208.239 110.995 207.904 110.151 207.234 109.462C206.564 108.768 205.748 108.421 204.788 108.421ZM211.084 106.731H216.881V108.699H214.97V117.22H212.945V108.699H211.084V106.731ZM218.25 106.731H220.247V115.316H223.156V117.22H218.25V106.731ZM227.876 106.731H229.901L233.937 117.22H231.862L231.042 115.059H226.764L225.908 117.22H223.833L227.876 106.731ZM228.903 109.512L227.505 113.113H230.293L228.903 109.512ZM235.498 106.731H237.409L241.909 113.633V106.731H243.905V117.22H241.987L237.495 110.339V117.22H235.498V106.731ZM246.308 106.731H248.675C250.201 106.731 251.335 106.921 252.076 107.301C252.818 107.677 253.429 108.29 253.909 109.141C254.389 109.992 254.629 110.985 254.629 112.122C254.629 112.93 254.494 113.674 254.223 114.353C253.956 115.028 253.586 115.589 253.11 116.036C252.64 116.483 252.129 116.792 251.577 116.963C251.026 117.134 250.07 117.22 248.711 117.22H246.308V106.731ZM248.297 108.656V115.266H249.224C250.137 115.266 250.798 115.161 251.206 114.952C251.62 114.743 251.958 114.391 252.219 113.897C252.48 113.403 252.611 112.794 252.611 112.072C252.611 110.959 252.3 110.097 251.677 109.483C251.116 108.932 250.215 108.656 248.975 108.656H248.297Z" fill="white"/>
<path d="M328.086 311.171H329.997L334.497 318.073V311.171H336.493V321.659H334.575L330.083 314.779V321.659H328.086V311.171ZM343.844 310.907C345.327 310.907 346.601 311.444 347.666 312.518C348.736 313.593 349.271 314.902 349.271 316.447C349.271 317.978 348.743 319.273 347.688 320.333C346.637 321.393 345.361 321.923 343.859 321.923C342.285 321.923 340.978 321.379 339.937 320.29C338.896 319.202 338.375 317.909 338.375 316.412C338.375 315.409 338.618 314.486 339.103 313.645C339.588 312.804 340.253 312.138 341.099 311.648C341.95 311.154 342.865 310.907 343.844 310.907ZM343.823 312.861C342.853 312.861 342.038 313.198 341.377 313.873C340.717 314.548 340.386 315.406 340.386 316.447C340.386 317.607 340.802 318.524 341.634 319.199C342.28 319.727 343.022 319.991 343.859 319.991C344.805 319.991 345.61 319.649 346.276 318.964C346.941 318.28 347.274 317.436 347.274 316.433C347.274 315.435 346.939 314.591 346.269 313.902C345.598 313.208 344.783 312.861 343.823 312.861ZM351.288 311.171H353.406C354.566 311.171 355.391 311.275 355.88 311.484C356.375 311.689 356.772 312.031 357.071 312.511C357.371 312.991 357.52 313.559 357.52 314.215C357.52 314.905 357.354 315.482 357.021 315.948C356.693 316.409 356.196 316.759 355.531 316.996L358.012 321.659H355.83L353.47 317.217H353.285V321.659H351.288V311.171ZM353.285 315.271H353.912C354.549 315.271 354.987 315.187 355.224 315.021C355.467 314.855 355.588 314.579 355.588 314.194C355.588 313.966 355.529 313.769 355.41 313.602C355.291 313.431 355.132 313.31 354.932 313.239C354.732 313.162 354.366 313.124 353.834 313.124H353.285V315.271ZM358.59 311.171H364.387V313.139H362.476V321.659H360.451V313.139H358.59V311.171ZM365.749 311.171H367.774V315.128H371.282V311.171H373.3V321.659H371.282V317.06H367.774V321.659H365.749V311.171ZM335.823 329.171H341.548V331.124H337.805V333.021H341.548V334.939H337.805V337.699H341.548V339.659H335.823V329.171ZM346.611 329.171H348.636L352.672 339.659H350.597L349.777 337.499H345.499L344.643 339.659H342.568L346.611 329.171ZM347.638 331.952L346.24 335.552H349.028L347.638 331.952ZM359.724 330.597L358.248 331.902C357.729 331.179 357.202 330.818 356.665 330.818C356.403 330.818 356.189 330.889 356.023 331.032C355.857 331.17 355.773 331.326 355.773 331.502C355.773 331.678 355.833 331.845 355.952 332.001C356.113 332.211 356.6 332.66 357.413 333.349C358.174 333.986 358.635 334.388 358.797 334.554C359.201 334.963 359.486 335.355 359.652 335.731C359.823 336.101 359.909 336.508 359.909 336.95C359.909 337.81 359.612 338.521 359.018 339.082C358.423 339.643 357.649 339.923 356.693 339.923C355.947 339.923 355.296 339.74 354.739 339.374C354.188 339.008 353.715 338.433 353.321 337.649L354.996 336.636C355.5 337.563 356.08 338.027 356.736 338.027C357.078 338.027 357.366 337.927 357.599 337.727C357.832 337.527 357.948 337.297 357.948 337.035C357.948 336.798 357.86 336.56 357.684 336.322C357.508 336.085 357.121 335.721 356.522 335.232C355.381 334.3 354.644 333.582 354.312 333.078C353.979 332.57 353.813 332.063 353.813 331.559C353.813 330.832 354.088 330.209 354.64 329.691C355.196 329.168 355.88 328.907 356.693 328.907C357.216 328.907 357.713 329.028 358.183 329.271C358.659 329.513 359.172 329.955 359.724 330.597ZM360.793 329.171H366.59V331.139H364.679V339.659H362.654V331.139H360.793V329.171Z" fill="white"/>
<path d="M287.199 375.423H289.11L293.609 382.326V375.423H295.605V385.912H293.687L289.195 379.031V385.912H287.199V375.423ZM302.957 375.16C304.44 375.16 305.714 375.697 306.779 376.771C307.848 377.845 308.383 379.155 308.383 380.7C308.383 382.231 307.855 383.526 306.8 384.586C305.749 385.646 304.473 386.176 302.971 386.176C301.398 386.176 300.09 385.632 299.049 384.543C298.008 383.455 297.488 382.162 297.488 380.664C297.488 379.661 297.73 378.739 298.215 377.898C298.7 377.056 299.365 376.391 300.212 375.901C301.062 375.407 301.977 375.16 302.957 375.16ZM302.935 377.113C301.966 377.113 301.15 377.451 300.49 378.126C299.829 378.801 299.498 379.659 299.498 380.7C299.498 381.86 299.914 382.777 300.746 383.452C301.393 383.98 302.134 384.244 302.971 384.244C303.917 384.244 304.723 383.901 305.388 383.217C306.054 382.532 306.386 381.689 306.386 380.686C306.386 379.687 306.051 378.844 305.381 378.154C304.711 377.46 303.896 377.113 302.935 377.113ZM310.401 375.423H312.518C313.678 375.423 314.503 375.528 314.993 375.737C315.487 375.942 315.884 376.284 316.183 376.764C316.483 377.244 316.633 377.812 316.633 378.468C316.633 379.157 316.466 379.735 316.133 380.201C315.805 380.662 315.309 381.011 314.643 381.249L317.125 385.912H314.943L312.583 381.47H312.397V385.912H310.401V375.423ZM312.397 379.523H313.025C313.662 379.523 314.099 379.44 314.337 379.274C314.579 379.107 314.7 378.832 314.7 378.447C314.7 378.219 314.641 378.021 314.522 377.855C314.403 377.684 314.244 377.563 314.044 377.491C313.845 377.415 313.479 377.377 312.946 377.377H312.397V379.523ZM317.702 375.423H323.499V377.391H321.588V385.912H319.563V377.391H317.702V375.423ZM324.861 375.423H326.886V379.381H330.394V375.423H332.412V385.912H330.394V381.313H326.886V385.912H324.861V375.423ZM292.96 393.423H294.928L296.44 400.119L298.315 393.423H299.976L301.873 400.119L303.37 393.423H305.338L302.978 403.912H301.06L299.128 397.131L297.231 403.912H295.334L292.96 393.423ZM306.914 393.423H312.64V395.377H308.896V397.274H312.64V399.192H308.896V401.951H312.64V403.912H306.914V393.423ZM320.005 394.85L318.529 396.154C318.011 395.432 317.483 395.071 316.946 395.071C316.685 395.071 316.471 395.142 316.305 395.284C316.138 395.422 316.055 395.579 316.055 395.755C316.055 395.931 316.114 396.097 316.233 396.254C316.395 396.463 316.882 396.913 317.695 397.602C318.456 398.239 318.917 398.64 319.078 398.807C319.482 399.216 319.768 399.608 319.934 399.983C320.105 400.354 320.191 400.761 320.191 401.203C320.191 402.063 319.893 402.774 319.299 403.335C318.705 403.895 317.93 404.176 316.975 404.176C316.229 404.176 315.577 403.993 315.021 403.627C314.47 403.261 313.997 402.686 313.602 401.901L315.278 400.889C315.782 401.816 316.362 402.279 317.018 402.279C317.36 402.279 317.647 402.179 317.88 401.98C318.113 401.78 318.23 401.55 318.23 401.288C318.23 401.05 318.142 400.813 317.966 400.575C317.79 400.337 317.403 399.974 316.804 399.484C315.663 398.553 314.926 397.835 314.593 397.331C314.261 396.822 314.094 396.316 314.094 395.812C314.094 395.085 314.37 394.462 314.921 393.944C315.477 393.421 316.162 393.16 316.975 393.16C317.498 393.16 317.994 393.281 318.465 393.523C318.94 393.766 319.454 394.208 320.005 394.85ZM321.075 393.423H326.872V395.391H324.961V403.912H322.936V395.391H321.075V393.423Z" fill="white"/>
<path d="M2.04232 261.521H3.95324L8.45245 268.423V261.521H10.4489V272.01H8.53088L4.0388 265.129V272.01H2.04232V261.521ZM17.8003 261.257C19.2834 261.257 20.5573 261.794 21.6221 262.869C22.6916 263.943 23.2264 265.253 23.2264 266.798C23.2264 268.328 22.6988 269.623 21.6435 270.684C20.593 271.744 19.3166 272.274 17.8145 272.274C16.2411 272.274 14.9339 271.729 13.8929 270.641C12.8518 269.552 12.3313 268.259 12.3313 266.762C12.3313 265.759 12.5738 264.837 13.0586 263.995C13.5435 263.154 14.209 262.488 15.0551 261.999C15.906 261.504 16.821 261.257 17.8003 261.257ZM17.7789 263.211C16.8092 263.211 15.9939 263.548 15.3332 264.223C14.6724 264.898 14.3421 265.757 14.3421 266.798C14.3421 267.957 14.758 268.875 15.5899 269.55C16.2364 270.077 16.9779 270.341 17.8145 270.341C18.7605 270.341 19.5662 269.999 20.2317 269.315C20.8972 268.63 21.2299 267.786 21.2299 266.783C21.2299 265.785 20.8948 264.941 20.2246 264.252C19.5543 263.558 18.7391 263.211 17.7789 263.211ZM25.2443 261.521H27.362C28.5218 261.521 29.3466 261.626 29.8362 261.835C30.3306 262.039 30.7275 262.381 31.0269 262.862C31.3264 263.342 31.4762 263.91 31.4762 264.566C31.4762 265.255 31.3098 265.833 30.977 266.298C30.649 266.759 30.1523 267.109 29.4868 267.347L31.9681 272.01H29.7863L27.4262 267.568H27.2408V272.01H25.2443V261.521ZM27.2408 265.621H27.8682C28.5052 265.621 28.9425 265.538 29.1802 265.371C29.4226 265.205 29.5438 264.929 29.5438 264.544C29.5438 264.316 29.4844 264.119 29.3656 263.953C29.2468 263.781 29.0875 263.66 28.8879 263.589C28.6882 263.513 28.3222 263.475 27.7898 263.475H27.2408V265.621ZM32.5457 261.521H38.3426V263.489H36.4317V272.01H34.4067V263.489H32.5457V261.521ZM39.7045 261.521H41.7295V265.478H45.2376V261.521H47.2555V272.01H45.2376V267.411H41.7295V272.01H39.7045V261.521ZM49.6584 261.521H55.384V263.475H51.6406V265.371H55.384V267.29H51.6406V270.049H55.384V272.01H49.6584V261.521ZM57.3876 261.521H59.5053C60.6652 261.521 61.4899 261.626 61.9795 261.835C62.4739 262.039 62.8708 262.381 63.1703 262.862C63.4698 263.342 63.6195 263.91 63.6195 264.566C63.6195 265.255 63.4531 265.833 63.1204 266.298C62.7924 266.759 62.2957 267.109 61.6302 267.347L64.1115 272.01H61.9296L59.5695 267.568H59.3841V272.01H57.3876V261.521ZM59.3841 265.621H60.0116C60.6486 265.621 61.0859 265.538 61.3236 265.371C61.566 265.205 61.6872 264.929 61.6872 264.544C61.6872 264.316 61.6278 264.119 61.5089 263.953C61.3901 263.781 61.2309 263.66 61.0312 263.589C60.8316 263.513 60.4655 263.475 59.9331 263.475H59.3841V265.621ZM65.7301 261.521H67.641L72.1402 268.423V261.521H74.1367V272.01H72.2186L67.7266 265.129V272.01H65.7301V261.521ZM9.92129 279.521H11.9035V290.01H9.92129V279.521ZM14.2922 279.521H16.4099C17.5697 279.521 18.3945 279.626 18.8841 279.835C19.3784 280.039 19.7753 280.381 20.0748 280.862C20.3743 281.342 20.524 281.91 20.524 282.566C20.524 283.255 20.3577 283.833 20.0249 284.298C19.6969 284.759 19.2002 285.109 18.5347 285.347L21.016 290.01H18.8342L16.474 285.568H16.2886V290.01H14.2922V279.521ZM16.2886 283.621H16.9161C17.5531 283.621 17.9904 283.538 18.2281 283.371C18.4705 283.205 18.5917 282.929 18.5917 282.544C18.5917 282.316 18.5323 282.119 18.4135 281.953C18.2946 281.781 18.1354 281.66 17.9357 281.589C17.7361 281.513 17.3701 281.475 16.8377 281.475H16.2886V283.621ZM22.6346 279.521H28.3602V281.475H24.6168V283.371H28.3602V285.29H24.6168V288.049H28.3602V290.01H22.6346V279.521ZM30.2284 279.521H32.2248V288.106H35.134V290.01H30.2284V279.521ZM39.8542 279.521H41.8793L45.915 290.01H43.8401L43.0201 287.849H38.7419L37.8863 290.01H35.8114L39.8542 279.521ZM40.881 282.302L39.4835 285.903H42.2714L40.881 282.302ZM47.4765 279.521H49.3874L53.8867 286.423V279.521H55.8831V290.01H53.9651L49.473 283.129V290.01H47.4765V279.521ZM58.2861 279.521H60.6533C62.1792 279.521 63.3129 279.711 64.0545 280.092C64.796 280.467 65.4068 281.08 65.8869 281.931C66.367 282.782 66.6071 283.776 66.6071 284.912C66.6071 285.72 66.4716 286.464 66.2007 287.143C65.9345 287.818 65.5637 288.379 65.0883 288.826C64.6177 289.273 64.1067 289.582 63.5553 289.753C63.0039 289.924 62.0485 290.01 60.689 290.01H58.2861V279.521ZM60.2754 281.446V288.056H61.2023C62.115 288.056 62.7758 287.951 63.1846 287.742C63.5981 287.533 63.9356 287.181 64.1971 286.687C64.4585 286.193 64.5892 285.584 64.5892 284.862C64.5892 283.749 64.2779 282.887 63.6552 282.273C63.0942 281.722 62.1935 281.446 60.9528 281.446H60.2754Z" fill="#1E417C"/>
<path d="M293.851 534.56L292.375 535.865C291.857 535.142 291.33 534.781 290.792 534.781C290.531 534.781 290.317 534.852 290.151 534.995C289.984 535.133 289.901 535.29 289.901 535.466C289.901 535.641 289.961 535.808 290.079 535.965C290.241 536.174 290.728 536.623 291.541 537.312C292.302 537.949 292.763 538.351 292.924 538.517C293.328 538.926 293.614 539.318 293.78 539.694C293.951 540.065 294.037 540.471 294.037 540.913C294.037 541.773 293.74 542.484 293.145 543.045C292.551 543.606 291.776 543.886 290.821 543.886C290.075 543.886 289.423 543.703 288.867 543.337C288.316 542.971 287.843 542.396 287.448 541.612L289.124 540.599C289.628 541.526 290.208 541.99 290.864 541.99C291.206 541.99 291.494 541.89 291.726 541.69C291.959 541.491 292.076 541.26 292.076 540.999C292.076 540.761 291.988 540.523 291.812 540.286C291.636 540.048 291.249 539.684 290.65 539.195C289.509 538.263 288.772 537.545 288.439 537.041C288.107 536.533 287.94 536.026 287.94 535.523C287.94 534.795 288.216 534.173 288.767 533.654C289.324 533.132 290.008 532.87 290.821 532.87C291.344 532.87 291.841 532.991 292.311 533.234C292.787 533.476 293.3 533.918 293.851 534.56ZM300.91 532.87C302.393 532.87 303.667 533.407 304.732 534.482C305.802 535.556 306.336 536.865 306.336 538.41C306.336 539.941 305.809 541.236 304.754 542.296C303.703 543.356 302.427 543.886 300.925 543.886C299.351 543.886 298.044 543.342 297.003 542.254C295.962 541.165 295.441 539.872 295.441 538.375C295.441 537.372 295.684 536.449 296.169 535.608C296.654 534.767 297.319 534.101 298.165 533.612C299.016 533.117 299.931 532.87 300.91 532.87ZM300.889 534.824C299.919 534.824 299.104 535.161 298.443 535.836C297.782 536.511 297.452 537.369 297.452 538.41C297.452 539.57 297.868 540.488 298.7 541.163C299.346 541.69 300.088 541.954 300.925 541.954C301.87 541.954 302.676 541.612 303.342 540.927C304.007 540.243 304.34 539.399 304.34 538.396C304.34 537.398 304.005 536.554 303.335 535.865C302.664 535.171 301.849 534.824 300.889 534.824ZM308.148 533.134H310.151V539.922C310.151 540.507 310.201 540.92 310.301 541.163C310.405 541.405 310.574 541.6 310.807 541.747C311.045 541.89 311.33 541.961 311.663 541.961C312.015 541.961 312.316 541.88 312.568 541.719C312.825 541.557 313.001 541.353 313.096 541.106C313.196 540.854 313.246 540.376 313.246 539.672V533.134H315.249V539.387C315.249 540.442 315.19 541.174 315.071 541.583C314.952 541.992 314.724 542.387 314.387 542.767C314.054 543.147 313.669 543.43 313.231 543.615C312.794 543.796 312.285 543.886 311.706 543.886C310.945 543.886 310.282 543.713 309.716 543.366C309.155 543.014 308.754 542.577 308.511 542.054C308.269 541.526 308.148 540.637 308.148 539.387V533.134ZM316.54 533.134H322.337V535.102H320.426V543.623H318.401V535.102H316.54V533.134ZM323.699 533.134H325.724V537.091H329.232V533.134H331.25V543.623H329.232V539.024H325.724V543.623H323.699V533.134ZM292.96 551.134H294.928L296.44 557.829L298.315 551.134H299.976L301.873 557.829L303.37 551.134H305.338L302.978 561.623H301.06L299.128 554.842L297.231 561.623H295.334L292.96 551.134ZM306.914 551.134H312.64V553.088H308.896V554.984H312.64V556.902H308.896V559.662H312.64V561.623H306.914V551.134ZM320.005 552.56L318.529 553.865C318.011 553.142 317.483 552.781 316.946 552.781C316.685 552.781 316.471 552.852 316.305 552.995C316.138 553.133 316.055 553.29 316.055 553.466C316.055 553.641 316.114 553.808 316.233 553.965C316.395 554.174 316.882 554.623 317.695 555.312C318.456 555.949 318.917 556.351 319.078 556.517C319.482 556.926 319.768 557.318 319.934 557.694C320.105 558.065 320.191 558.471 320.191 558.913C320.191 559.773 319.893 560.484 319.299 561.045C318.705 561.606 317.93 561.886 316.975 561.886C316.229 561.886 315.577 561.703 315.021 561.337C314.47 560.971 313.997 560.396 313.602 559.612L315.278 558.599C315.782 559.526 316.362 559.99 317.018 559.99C317.36 559.99 317.647 559.89 317.88 559.69C318.113 559.491 318.23 559.26 318.23 558.999C318.23 558.761 318.142 558.523 317.966 558.286C317.79 558.048 317.403 557.684 316.804 557.195C315.663 556.263 314.926 555.545 314.593 555.041C314.261 554.533 314.094 554.026 314.094 553.523C314.094 552.795 314.37 552.173 314.921 551.654C315.477 551.132 316.162 550.87 316.975 550.87C317.498 550.87 317.994 550.991 318.465 551.234C318.94 551.476 319.454 551.918 320.005 552.56ZM321.075 551.134H326.872V553.102H324.961V561.623H322.936V553.102H321.075V551.134Z" fill="white"/>
<path d="M216.312 463.04H218.28L219.791 469.736L221.667 463.04H223.328L225.225 469.736L226.722 463.04H228.69L226.33 473.529H224.412L222.479 466.748L220.583 473.529H218.686L216.312 463.04ZM233.453 463.04H235.478L239.514 473.529H237.439L236.619 471.369H232.341L231.485 473.529H229.41L233.453 463.04ZM234.48 465.821L233.082 469.422H235.87L234.48 465.821ZM241.068 463.04H243.065V471.625H245.974V473.529H241.068V463.04ZM247.507 463.04H253.232V464.994H249.489V466.891H253.232V468.809H249.489V471.568H253.232V473.529H247.507V463.04ZM260.598 464.466L259.122 465.771C258.604 465.049 258.076 464.687 257.539 464.687C257.278 464.687 257.064 464.759 256.897 464.901C256.731 465.039 256.648 465.196 256.648 465.372C256.648 465.548 256.707 465.714 256.826 465.871C256.988 466.08 257.475 466.529 258.288 467.219C259.048 467.856 259.509 468.257 259.671 468.424C260.075 468.833 260.36 469.225 260.527 469.6C260.698 469.971 260.783 470.377 260.783 470.82C260.783 471.68 260.486 472.391 259.892 472.951C259.298 473.512 258.523 473.793 257.568 473.793C256.821 473.793 256.17 473.61 255.614 473.244C255.063 472.878 254.59 472.303 254.195 471.518L255.871 470.506C256.374 471.433 256.954 471.896 257.61 471.896C257.953 471.896 258.24 471.796 258.473 471.597C258.706 471.397 258.823 471.167 258.823 470.905C258.823 470.667 258.735 470.43 258.559 470.192C258.383 469.954 257.995 469.591 257.396 469.101C256.256 468.169 255.519 467.452 255.186 466.948C254.853 466.439 254.687 465.933 254.687 465.429C254.687 464.702 254.963 464.079 255.514 463.561C256.07 463.038 256.755 462.777 257.568 462.777C258.091 462.777 258.587 462.898 259.058 463.14C259.533 463.383 260.047 463.825 260.598 464.466Z" fill="white"/>
<path d="M333.881 425.262L335.752 425.873L335.112 432.707L338.972 426.924L340.552 427.439L340.278 434.392L343.778 428.492L345.649 429.102L340.152 438.341L338.328 437.746L338.595 430.701L334.688 436.559L332.885 435.97L333.881 425.262ZM347.147 429.591L352.59 431.367L351.984 433.225L348.425 432.063L347.837 433.866L351.396 435.028L350.801 436.851L347.242 435.69L346.386 438.313L349.945 439.474L349.336 441.339L343.893 439.562L347.147 429.591ZM359.15 435.008L357.342 435.791C357.074 434.943 356.684 434.436 356.173 434.269C355.925 434.188 355.699 434.19 355.497 434.273C355.296 434.353 355.168 434.476 355.114 434.643C355.059 434.811 355.064 434.987 355.128 435.173C355.217 435.422 355.541 436 356.1 436.908C356.625 437.749 356.939 438.274 357.041 438.483C357.298 438.996 357.448 439.458 357.49 439.866C357.537 440.272 357.493 440.685 357.355 441.105C357.089 441.923 356.586 442.507 355.847 442.855C355.108 443.204 354.284 443.231 353.376 442.934C352.666 442.703 352.104 442.327 351.689 441.806C351.278 441.287 351.007 440.594 350.875 439.726L352.782 439.283C352.974 440.32 353.381 440.941 354.005 441.144C354.33 441.251 354.635 441.245 354.918 441.127C355.201 441.01 355.384 440.827 355.465 440.578C355.539 440.352 355.529 440.099 355.435 439.819C355.342 439.538 355.086 439.072 354.669 438.421C353.873 437.181 353.395 436.27 353.235 435.688C353.077 435.101 353.076 434.568 353.232 434.089C353.458 433.398 353.913 432.892 354.598 432.57C355.289 432.245 356.021 432.209 356.793 432.461C357.29 432.624 357.725 432.893 358.097 433.269C358.474 433.647 358.825 434.227 359.15 435.008ZM360.609 433.984L366.12 435.782L365.51 437.653L363.693 437.06L361.05 445.161L359.125 444.533L361.768 436.432L359.999 435.855L360.609 433.984ZM311.548 436.909L313.405 437.515L313.44 445.222L318.048 439.03L319.879 439.627L318.306 450.147L316.476 449.55L317.46 442.903L313.283 448.508L311.609 447.962L311.569 440.981L308.423 446.922L306.572 446.318L311.548 436.909ZM322.949 440.629L324.834 441.244L321.58 451.215L319.696 450.6L322.949 440.629ZM326.983 441.945L329.233 442.68C330.684 443.153 331.702 443.685 332.289 444.277C332.878 444.864 333.268 445.637 333.461 446.594C333.653 447.552 333.573 448.571 333.221 449.651C332.97 450.419 332.611 451.085 332.142 451.647C331.68 452.206 331.153 452.624 330.563 452.901C329.977 453.18 329.395 453.315 328.818 453.307C328.24 453.299 327.306 453.084 326.013 452.662L323.729 451.916L326.983 441.945ZM328.277 444.393L326.226 450.676L327.107 450.964C327.975 451.247 328.636 451.353 329.089 451.281C329.547 451.21 329.977 450.98 330.379 450.591C330.781 450.203 331.094 449.665 331.318 448.978C331.663 447.92 331.635 447.004 331.233 446.227C330.871 445.529 330.1 444.988 328.92 444.603L328.277 444.393ZM336.696 445.115L338.594 445.734L335.931 453.896L338.697 454.798L338.106 456.608L333.442 455.086L336.696 445.115ZM345.847 448.101L347.772 448.729L348.355 459.952L346.383 459.309L346.273 457.001L342.206 455.673L340.723 457.462L338.75 456.818L345.847 448.101ZM345.961 451.063L343.515 454.053L346.165 454.918L345.961 451.063ZM353.093 450.466L354.91 451.058L357.046 459.016L359.187 452.454L361.085 453.074L357.832 463.045L356.008 462.45L353.872 454.515L351.738 461.056L349.84 460.437L353.093 450.466ZM363.37 453.819L365.62 454.553C367.071 455.027 368.09 455.559 368.677 456.151C369.265 456.738 369.655 457.51 369.848 458.468C370.04 459.426 369.96 460.445 369.608 461.525C369.357 462.293 368.998 462.958 368.529 463.52C368.067 464.08 367.54 464.498 366.95 464.775C366.364 465.054 365.782 465.189 365.205 465.181C364.628 465.172 363.693 464.957 362.4 464.536L360.116 463.79L363.37 453.819ZM364.664 456.266L362.613 462.55L363.494 462.838C364.362 463.121 365.023 463.226 365.476 463.154C365.934 463.084 366.364 462.854 366.766 462.465C367.168 462.076 367.481 461.538 367.705 460.851C368.05 459.794 368.022 458.877 367.62 458.101C367.258 457.403 366.487 456.861 365.308 456.476L364.664 456.266ZM377.867 460.05L376.059 460.832C375.791 459.985 375.401 459.478 374.891 459.311C374.642 459.23 374.417 459.231 374.214 459.315C374.013 459.395 373.885 459.518 373.831 459.685C373.776 459.852 373.781 460.029 373.846 460.215C373.934 460.464 374.258 461.042 374.817 461.95C375.343 462.791 375.656 463.316 375.758 463.524C376.016 464.038 376.165 464.5 376.207 464.908C376.254 465.314 376.21 465.727 376.073 466.147C375.806 466.965 375.303 467.548 374.564 467.897C373.825 468.246 373.001 468.272 372.093 467.976C371.384 467.744 370.821 467.368 370.406 466.848C369.995 466.329 369.724 465.635 369.592 464.767L371.499 464.325C371.691 465.362 372.098 465.983 372.722 466.186C373.047 466.292 373.352 466.287 373.635 466.169C373.919 466.052 374.101 465.869 374.182 465.62C374.256 465.394 374.246 465.141 374.152 464.86C374.059 464.58 373.803 464.114 373.386 463.463C372.59 462.223 372.113 461.312 371.952 460.73C371.794 460.143 371.793 459.61 371.949 459.131C372.175 458.44 372.63 457.933 373.315 457.612C374.006 457.287 374.738 457.251 375.51 457.503C376.008 457.665 376.442 457.935 376.814 458.311C377.191 458.689 377.542 459.269 377.867 460.05Z" fill="white"/>
<path d="M420.01 433.834H422.035L426.071 444.323H423.996L423.176 442.163H418.898L418.042 444.323H415.967L420.01 433.834ZM421.037 436.615L419.64 440.216H422.428L421.037 436.615ZM427.633 433.834H429.544L434.043 440.736V433.834H436.039V444.323H434.121L429.629 437.442V444.323H427.633V433.834ZM448.118 435.546L446.713 436.936C445.824 435.995 444.788 435.524 443.604 435.524C442.573 435.524 441.708 435.866 441.009 436.551C440.315 437.235 439.968 438.067 439.968 439.047C439.968 440.059 440.329 440.917 441.052 441.621C441.774 442.324 442.666 442.676 443.726 442.676C444.415 442.676 444.995 442.531 445.465 442.241C445.941 441.951 446.323 441.497 446.613 440.879H443.576V439.004H448.852L448.867 439.446C448.867 440.363 448.629 441.233 448.154 442.056C447.678 442.878 447.063 443.505 446.307 443.938C445.551 444.371 444.665 444.587 443.647 444.587C442.559 444.587 441.587 444.352 440.731 443.881C439.88 443.406 439.205 442.731 438.706 441.856C438.212 440.981 437.964 440.038 437.964 439.025C437.964 437.637 438.423 436.43 439.341 435.403C440.429 434.181 441.846 433.571 443.59 433.571C444.503 433.571 445.356 433.739 446.15 434.077C446.82 434.362 447.476 434.852 448.118 435.546ZM450.699 433.834H452.696V442.419H455.605V444.323H450.699V433.834ZM456.988 433.834H458.97V444.323H456.988V433.834ZM464.418 433.834H466.443L470.479 444.323H468.404L467.584 442.163H463.305L462.45 444.323H460.375L464.418 433.834ZM465.445 436.615L464.047 440.216H466.835L465.445 436.615Z" fill="white"/>
<path d="M368.748 540.401L367.272 541.706C366.754 540.983 366.226 540.622 365.689 540.622C365.428 540.622 365.214 540.693 365.047 540.836C364.881 540.974 364.798 541.131 364.798 541.307C364.798 541.482 364.857 541.649 364.976 541.806C365.138 542.015 365.625 542.464 366.438 543.153C367.198 543.79 367.659 544.192 367.821 544.358C368.225 544.767 368.51 545.159 368.677 545.535C368.848 545.906 368.933 546.312 368.933 546.754C368.933 547.615 368.636 548.325 368.042 548.886C367.448 549.447 366.673 549.727 365.718 549.727C364.971 549.727 364.32 549.544 363.764 549.178C363.212 548.812 362.739 548.237 362.345 547.453L364.02 546.44C364.524 547.367 365.104 547.831 365.76 547.831C366.103 547.831 366.39 547.731 366.623 547.531C366.856 547.332 366.972 547.101 366.972 546.84C366.972 546.602 366.884 546.364 366.709 546.127C366.533 545.889 366.145 545.525 365.546 545.036C364.406 544.104 363.669 543.386 363.336 542.882C363.003 542.374 362.837 541.867 362.837 541.364C362.837 540.636 363.113 540.014 363.664 539.495C364.22 538.973 364.905 538.711 365.718 538.711C366.24 538.711 366.737 538.832 367.208 539.075C367.683 539.317 368.196 539.759 368.748 540.401ZM375.807 538.711C377.29 538.711 378.564 539.248 379.629 540.323C380.698 541.397 381.233 542.706 381.233 544.251C381.233 545.782 380.705 547.077 379.65 548.137C378.6 549.197 377.323 549.727 375.821 549.727C374.248 549.727 372.94 549.183 371.899 548.095C370.858 547.006 370.338 545.713 370.338 544.216C370.338 543.213 370.58 542.291 371.065 541.449C371.55 540.608 372.216 539.942 373.062 539.453C373.913 538.958 374.828 538.711 375.807 538.711ZM375.785 540.665C374.816 540.665 374.001 541.002 373.34 541.677C372.679 542.352 372.349 543.21 372.349 544.251C372.349 545.411 372.765 546.329 373.596 547.004C374.243 547.531 374.985 547.795 375.821 547.795C376.767 547.795 377.573 547.453 378.238 546.768C378.904 546.084 379.237 545.24 379.237 544.237C379.237 543.239 378.901 542.395 378.231 541.706C377.561 541.012 376.746 540.665 375.785 540.665ZM383.044 538.975H385.048V545.763C385.048 546.348 385.098 546.761 385.197 547.004C385.302 547.246 385.471 547.441 385.704 547.588C385.941 547.731 386.227 547.802 386.559 547.802C386.911 547.802 387.213 547.721 387.465 547.56C387.722 547.398 387.897 547.194 387.993 546.947C388.092 546.695 388.142 546.217 388.142 545.513V538.975H390.146V545.228C390.146 546.284 390.086 547.016 389.968 547.424C389.849 547.833 389.621 548.228 389.283 548.608C388.95 548.988 388.565 549.271 388.128 549.456C387.691 549.637 387.182 549.727 386.602 549.727C385.842 549.727 385.178 549.554 384.613 549.207C384.052 548.855 383.65 548.418 383.408 547.895C383.165 547.367 383.044 546.478 383.044 545.228V538.975ZM391.436 538.975H397.233V540.943H395.322V549.464H393.297V540.943H391.436V538.975ZM398.595 538.975H400.62V542.932H404.128V538.975H406.146V549.464H404.128V544.865H400.62V549.464H398.595V538.975ZM412.642 538.975H418.368V540.929H414.624V542.825H418.368V544.743H414.624V547.503H418.368V549.464H412.642V538.975ZM423.43 538.975H425.455L429.491 549.464H427.416L426.596 547.303H422.318L421.462 549.464H419.387L423.43 538.975ZM424.457 541.756L423.059 545.357H425.847L424.457 541.756ZM436.543 540.401L435.067 541.706C434.549 540.983 434.021 540.622 433.484 540.622C433.222 540.622 433.008 540.693 432.842 540.836C432.676 540.974 432.592 541.131 432.592 541.307C432.592 541.482 432.652 541.649 432.771 541.806C432.932 542.015 433.42 542.464 434.232 543.153C434.993 543.79 435.454 544.192 435.616 544.358C436.02 544.767 436.305 545.159 436.471 545.535C436.643 545.906 436.728 546.312 436.728 546.754C436.728 547.615 436.431 548.325 435.837 548.886C435.243 549.447 434.468 549.727 433.512 549.727C432.766 549.727 432.115 549.544 431.559 549.178C431.007 548.812 430.534 548.237 430.14 547.453L431.815 546.44C432.319 547.367 432.899 547.831 433.555 547.831C433.897 547.831 434.185 547.731 434.418 547.531C434.651 547.332 434.767 547.101 434.767 546.84C434.767 546.602 434.679 546.364 434.503 546.127C434.328 545.889 433.94 545.525 433.341 545.036C432.2 544.104 431.464 543.386 431.131 542.882C430.798 542.374 430.632 541.867 430.632 541.364C430.632 540.636 430.907 540.014 431.459 539.495C432.015 538.973 432.699 538.711 433.512 538.711C434.035 538.711 434.532 538.832 435.003 539.075C435.478 539.317 435.991 539.759 436.543 540.401ZM437.612 538.975H443.409V540.943H441.498V549.464H439.473V540.943H437.612V538.975Z" fill="white"/>
<path d="M387.318 509.769H389.314V518.354H392.223V520.258H387.318V509.769ZM398.705 509.506C400.188 509.506 401.462 510.043 402.526 511.117C403.596 512.191 404.131 513.501 404.131 515.046C404.131 516.576 403.603 517.872 402.548 518.932C401.497 519.992 400.221 520.522 398.719 520.522C397.145 520.522 395.838 519.978 394.797 518.889C393.756 517.8 393.236 516.508 393.236 515.01C393.236 514.007 393.478 513.085 393.963 512.244C394.448 511.402 395.113 510.737 395.959 510.247C396.81 509.753 397.725 509.506 398.705 509.506ZM398.683 511.459C397.714 511.459 396.898 511.797 396.238 512.472C395.577 513.147 395.246 514.005 395.246 515.046C395.246 516.206 395.662 517.123 396.494 517.798C397.141 518.326 397.882 518.59 398.719 518.59C399.665 518.59 400.471 518.247 401.136 517.563C401.802 516.878 402.134 516.035 402.134 515.032C402.134 514.033 401.799 513.19 401.129 512.5C400.459 511.806 399.643 511.459 398.683 511.459ZM406.02 509.769H407.931L412.43 516.672V509.769H414.427V520.258H412.509L408.017 513.377V520.258H406.02V509.769ZM416.83 509.769H419.197C420.723 509.769 421.857 509.96 422.598 510.34C423.34 510.715 423.951 511.329 424.431 512.179C424.911 513.03 425.151 514.024 425.151 515.16C425.151 515.968 425.015 516.712 424.744 517.392C424.478 518.067 424.107 518.628 423.632 519.074C423.162 519.521 422.651 519.83 422.099 520.001C421.548 520.172 420.592 520.258 419.233 520.258H416.83V509.769ZM418.819 511.695V518.304H419.746C420.659 518.304 421.32 518.2 421.728 517.991C422.142 517.781 422.479 517.43 422.741 516.935C423.002 516.441 423.133 515.833 423.133 515.11C423.133 513.998 422.822 513.135 422.199 512.522C421.638 511.97 420.737 511.695 419.497 511.695H418.819ZM432.003 509.506C433.486 509.506 434.76 510.043 435.825 511.117C436.894 512.191 437.429 513.501 437.429 515.046C437.429 516.576 436.902 517.872 435.846 518.932C434.796 519.992 433.519 520.522 432.017 520.522C430.444 520.522 429.137 519.978 428.096 518.889C427.055 517.8 426.534 516.508 426.534 515.01C426.534 514.007 426.777 513.085 427.261 512.244C427.746 511.402 428.412 510.737 429.258 510.247C430.109 509.753 431.024 509.506 432.003 509.506ZM431.982 511.459C431.012 511.459 430.197 511.797 429.536 512.472C428.875 513.147 428.545 514.005 428.545 515.046C428.545 516.206 428.961 517.123 429.793 517.798C430.439 518.326 431.181 518.59 432.017 518.59C432.963 518.59 433.769 518.247 434.435 517.563C435.1 516.878 435.433 516.035 435.433 515.032C435.433 514.033 435.098 513.19 434.427 512.5C433.757 511.806 432.942 511.459 431.982 511.459ZM439.319 509.769H441.23L445.729 516.672V509.769H447.725V520.258H445.807L441.315 513.377V520.258H439.319V509.769Z" fill="white"/>
</svg>
