<svg width="61" height="61" viewBox="0 0 61 61" fill="none" xmlns="http://www.w3.org/2000/svg">
<path d="M60.0153 17.1984C58.4564 16.8462 56.6694 16.6811 54.7098 16.6826V12.8538C54.7098 12.3985 54.4046 11.9997 53.9654 11.8807C45.9123 9.69989 33.105 15.2102 30.5589 16.3654C30.2208 16.2123 29.691 15.9787 29.0031 15.693L32.6717 8.88942C32.6722 8.88842 32.6727 8.88792 32.6732 8.88692L34.098 6.23726C35.1782 4.35709 34.3937 1.74701 32.4662 0.767477C30.5136 -0.290657 28.0657 0.445785 27.0056 2.40699L25.5742 5.06907V5.07007L21.2998 12.9923C15.4025 11.3252 10.6339 10.9415 7.14532 11.8831C6.70508 12.0012 6.39941 12.4004 6.39941 12.8562V16.6825C4.43978 16.6805 2.65279 16.8466 1.09544 17.1988C0.636187 17.3029 0.310001 17.7111 0.310001 18.1824V57.2036C0.278983 57.792 0.764758 58.3173 1.36759 58.2668C1.63825 58.2528 1.87988 58.1337 2.05348 57.9496C4.49133 56.8109 16.7395 53.3042 26.9007 60.7768C26.9007 60.7763 34.2103 60.7763 34.2103 60.7763C42.8921 55.475 57.4054 57.11 59.087 57.979C59.6823 58.5959 60.8314 58.1346 60.8009 57.2591V18.1815C60.8009 17.7112 60.4743 17.3025 60.015 17.1984L60.0153 17.1984ZM52.6937 48.6226C45.6847 47.56 37.7874 47.3033 31.5644 51.2162V18.1262C34.2253 16.9445 45.4909 12.2286 52.6937 13.6535V48.6226ZM26.6938 15.7245L20.048 28.0519L16.9974 29.4628L16.4996 26.1354L26.8713 6.91102L30.4193 8.81911C30.4163 8.82161 26.6992 15.7243 26.6937 15.7248L26.6938 15.7245ZM28.7805 3.36456C29.7355 1.53447 32.6082 2.2639 32.572 4.32664C32.6411 5.03757 31.651 6.42339 31.3754 7.04379C30.4914 6.56851 28.7119 5.61087 27.8279 5.1357L28.7805 3.36456ZM20.3217 14.802L14.5655 25.4739C14.462 25.666 14.4239 25.8861 14.4565 26.1017L15.2029 31.0928C15.2649 31.5586 15.6821 31.9363 16.1514 31.9463C16.289 32.1509 20.9746 29.791 21.1997 29.7414C21.3979 29.6499 21.5604 29.4968 21.664 29.3047L28.0421 17.4761C28.678 17.7383 29.1908 17.9614 29.5475 18.121V51.2136C23.8672 47.3497 14.4337 47.5634 8.41817 48.619C8.41867 46.4172 8.41817 14.5594 8.41667 13.6578C11.3828 13.0779 15.4596 13.4712 20.3224 14.802H20.3217ZM58.7843 55.811C54.765 54.9049 42.3219 53.7423 33.9268 58.7607H27.2485C18.365 51.9111 6.41759 54.34 2.32569 55.6979V19.0089C3.54587 18.7938 4.9221 18.6862 6.39902 18.6882V49.8379C6.38701 50.4632 7.01287 50.974 7.62371 50.8254C7.84883 50.7049 23.4547 47.634 30.1567 54.2345C30.4153 54.342 30.6955 54.321 30.9526 54.2335C37.6189 47.634 53.314 50.7043 53.4869 50.826C54.0922 50.9736 54.7271 50.4658 54.71 49.8414V18.6892C56.2304 18.6877 57.5612 18.7948 58.7848 19.0099L58.7843 55.811Z" fill="url(#paint0_linear_5985_19609)"/>
<path d="M35.5971 25.4876C36.6002 25.449 40.2272 21.5377 46.5202 22.4502C47.8314 22.6508 48.1552 20.6992 46.8519 20.4616C40.4308 19.3914 35.1869 23.5174 34.9662 23.6935C34.2188 24.2488 34.6816 25.523 35.5971 25.4876Z" fill="url(#paint1_linear_5985_19609)"/>
<path d="M35.5971 31.5379C36.6002 31.4999 40.2272 27.5865 46.5202 28.5006C47.077 28.5946 47.5893 28.2204 47.6804 27.6721C47.7719 27.1227 47.4007 26.6034 46.8519 26.5119C40.4308 25.4452 35.1869 29.5682 34.9662 29.7438C34.2188 30.2986 34.6816 31.5729 35.5971 31.5379Z" fill="url(#paint2_linear_5985_19609)"/>
<path d="M35.5971 37.587C36.6007 37.549 40.2277 33.6397 46.5202 34.5497C47.829 34.7588 48.1557 32.7965 46.8519 32.561C40.4308 31.4889 35.1869 35.6173 34.9662 35.7924C34.2188 36.3477 34.6816 37.622 35.5971 37.587Z" fill="url(#paint3_linear_5985_19609)"/>
<defs>
<linearGradient id="paint0_linear_5985_19609" x1="49.7048" y1="43.5962" x2="49.7048" y2="55.7113" gradientUnits="userSpaceOnUse">
<stop stop-color="#ED3040"/>
<stop offset="1" stop-color="#2D23F4"/>
</linearGradient>
<linearGradient id="paint1_linear_5985_19609" x1="49.7048" y1="43.5962" x2="49.7048" y2="55.7113" gradientUnits="userSpaceOnUse">
<stop stop-color="#ED3040"/>
<stop offset="1" stop-color="#2D23F4"/>
</linearGradient>
<linearGradient id="paint2_linear_5985_19609" x1="49.7048" y1="43.5962" x2="49.7048" y2="55.7113" gradientUnits="userSpaceOnUse">
<stop stop-color="#ED3040"/>
<stop offset="1" stop-color="#2D23F4"/>
</linearGradient>
<linearGradient id="paint3_linear_5985_19609" x1="49.7048" y1="43.5962" x2="49.7048" y2="55.7113" gradientUnits="userSpaceOnUse">
<stop stop-color="#ED3040"/>
<stop offset="1" stop-color="#2D23F4"/>
</linearGradient>
</defs>
</svg>
