<svg width="66" height="63" viewBox="0 0 66 63" fill="none" xmlns="http://www.w3.org/2000/svg">
<path d="M64.3041 50.716H60.598L60.5985 6.65957C60.5985 3.51768 57.9953 0.966187 54.7897 0.966187H13.4425C10.2369 0.966187 7.63364 3.51768 7.63364 6.65957V11.973C7.63364 12.3831 7.98053 12.7236 8.39952 12.7236H17.7205V35.7677C17.7205 36.1779 18.0674 36.5184 18.4864 36.5184C18.9049 36.5184 19.2523 36.1784 19.2523 35.7677L19.2513 6.65978C19.2513 5.00894 18.5267 3.50767 17.3726 2.46728H54.7891C57.1474 2.46728 59.0667 4.34856 59.0667 6.65978V50.7071H28.5726C28.1541 50.7071 27.8067 51.0471 27.8067 51.4577V56.4009C27.8067 58.7123 25.8872 60.5934 23.5291 60.5934C21.171 60.5934 19.2516 58.7121 19.2516 56.4009V56.2309C19.2516 55.8208 18.9047 55.4803 18.4857 55.4803C18.0672 55.4803 17.7198 55.8203 17.7198 56.2309V56.4009C17.7198 59.5428 20.3231 62.0943 23.5287 62.0943H59.2601C62.4657 62.0943 65.069 59.5428 65.069 56.4009V51.4577C65.07 51.0471 64.7231 50.7168 64.3041 50.7168L64.3041 50.716ZM17.721 6.65957V11.2224H9.17568V6.65957C9.17568 4.34822 11.0951 2.46707 13.4532 2.46707C15.8115 2.46707 17.7209 4.35805 17.7209 6.65957H17.721ZM63.5391 56.4102C63.5391 58.7216 61.6197 60.6027 59.2615 60.6027H27.4501C28.6036 59.5622 29.3287 58.0713 29.3287 56.4102V52.2177H63.5288L63.5283 56.4102H63.5391Z" fill="url(#paint0_linear_5985_19646)"/>
<path d="M25.3469 51.9875V45.1232L30.9719 43.392C31.2885 43.2921 31.5131 43.0018 31.5131 42.6715C31.5131 42.3413 31.2989 42.051 30.9719 41.9511L16.108 37.3781C15.9549 37.3279 15.8018 37.3279 15.6488 37.3781L0.774165 41.9613C0.457575 42.0612 0.232932 42.3515 0.232932 42.6818C0.232932 43.012 0.44713 43.3024 0.774165 43.4022L2.08074 43.8026V47.3249C0.906862 47.6552 0.0390625 48.7059 0.0390625 49.9562C0.0390625 51.477 1.29496 52.7079 2.84654 52.7079C4.39819 52.7079 5.65401 51.477 5.65401 49.9562C5.65401 48.7053 4.78627 47.6546 3.61233 47.3249V44.2732L6.39948 45.1237V51.988C6.39948 52.3081 6.61368 52.5984 6.93027 52.6982C9.85999 53.6286 12.8619 54.0992 15.8736 54.0992C18.8853 54.0992 21.8971 53.6292 24.817 52.6982C25.133 52.6076 25.3472 52.3178 25.3472 51.9875L25.3469 51.9875ZM4.1223 49.9563C4.1223 50.6465 3.55077 51.2072 2.84602 51.2072C2.14179 51.2072 1.56973 50.647 1.56973 49.9563C1.56973 49.266 2.14126 48.7054 2.84602 48.7054C3.55077 48.7054 4.1223 49.266 4.1223 49.9563ZM15.8726 38.8993L28.1846 42.6816L15.8726 46.464L3.56059 42.6816L15.8726 38.8993ZM7.93015 51.437V45.5936L15.6484 47.9649C15.72 47.9849 15.8015 47.9951 15.8731 47.9951C15.9447 47.9951 16.0261 47.9849 16.0977 47.9649L23.816 45.5936V51.437C18.609 52.9879 13.1366 52.9879 7.93034 51.437H7.93015Z" fill="url(#paint1_linear_5985_19646)"/>
<path d="M39.1596 5.08922C33.1465 5.08922 28.2461 9.88182 28.2461 15.7857C28.2461 21.6895 33.1359 26.4822 39.1596 26.4822C45.1727 26.4822 50.0731 21.6793 50.0731 15.7857C50.0731 9.89217 45.1727 5.08922 39.1596 5.08922ZM39.1596 24.9716C33.9834 24.9716 29.7774 20.8493 29.7774 15.776C29.7774 10.7028 33.9834 6.5804 39.1596 6.5804C44.3357 6.5804 48.5417 10.7028 48.5417 15.776C48.5417 20.8493 44.3357 24.9716 39.1596 24.9716Z" fill="url(#paint2_linear_5985_19646)"/>
<path d="M42.9056 12.3026L37.4338 17.6657L35.4126 15.6847C35.1164 15.3943 34.6263 15.3943 34.3306 15.6847C34.0344 15.975 34.0344 16.4553 34.3306 16.7451L36.8931 19.2566C37.0462 19.4066 37.24 19.4768 37.4343 19.4768C37.6282 19.4768 37.8225 19.4066 37.9756 19.2566L43.9887 13.3631C44.2849 13.0727 44.2849 12.5924 43.9887 12.3026C43.6919 12.0128 43.2019 12.0128 42.9056 12.3026Z" fill="url(#paint3_linear_5985_19646)"/>
<path d="M36.791 37.6787C36.3726 37.6787 36.0252 38.0187 36.0252 38.4293C36.0252 38.8395 36.3721 39.18 36.791 39.18H55.627C56.0455 39.18 56.3929 38.84 56.3929 38.4293C56.3929 38.0192 56.046 37.6787 55.6171 37.6787H36.791Z" fill="url(#paint4_linear_5985_19646)"/>
<path d="M36.791 41.7907C36.3726 41.7907 36.0252 42.1307 36.0252 42.5413C36.0252 42.9515 36.3721 43.292 36.791 43.292H55.627C56.0455 43.292 56.3929 42.952 56.3929 42.5413C56.3929 42.1307 56.046 41.7907 55.6171 41.7907H36.791Z" fill="url(#paint5_linear_5985_19646)"/>
<path d="M55.6163 45.9132H42.9162C42.4978 45.9132 42.1503 46.2532 42.1503 46.6639C42.1503 47.074 42.4972 47.4145 42.9162 47.4145H55.6163C56.0348 47.4145 56.3822 47.0745 56.3822 46.6639C56.3822 46.2532 56.0452 45.9132 55.6163 45.9132Z" fill="url(#paint6_linear_5985_19646)"/>
<path d="M26.0611 28.7324C26.245 28.9725 26.5615 29.0826 26.8572 29.0125L31.1144 27.9618L32.2476 32.1144C32.3291 32.4047 32.5741 32.6249 32.8808 32.6648C32.9116 32.6648 32.9523 32.6751 32.9826 32.6751C33.248 32.6751 33.5035 32.5348 33.6461 32.3049L35.9129 28.5322C36.1271 28.1718 36.0048 27.712 35.637 27.5015C35.2693 27.2916 34.8001 27.4114 34.5854 27.7719L33.248 30.0033L32.3902 26.8711C32.2779 26.4707 31.8594 26.2408 31.4613 26.3406L28.2453 27.1312L29.7764 24.5797C29.9906 24.2192 29.8684 23.7594 29.5006 23.5489C29.1328 23.339 28.6637 23.4588 28.449 23.8193L25.9884 27.9217C25.8568 28.1619 25.8772 28.4922 26.0611 28.7324Z" fill="url(#paint7_linear_5985_19646)"/>
<path d="M49.8481 23.7998C49.6339 23.4393 49.1643 23.3195 48.7965 23.5294C48.4287 23.7394 48.3064 24.1997 48.5206 24.5602L50.0518 27.1117L46.8467 26.3211C46.4586 26.2212 46.0302 26.4614 45.9179 26.8516L45.06 29.9837L43.7226 27.7523C43.5084 27.3919 43.0388 27.272 42.671 27.482C42.3032 27.6919 42.181 28.1522 42.3952 28.5127L44.6515 32.2848C44.7946 32.5148 45.0396 32.655 45.315 32.655C45.3458 32.655 45.3865 32.655 45.4168 32.6448C45.723 32.6049 45.9784 32.3847 46.05 32.0944L47.1832 27.9417L51.4404 28.9924C51.7366 29.0626 52.0532 28.9525 52.2366 28.7123C52.4204 28.4722 52.4408 28.1419 52.2877 27.8818L49.8481 23.7998Z" fill="url(#paint8_linear_5985_19646)"/>
<defs>
<linearGradient id="paint0_linear_5985_19646" x1="53.1399" y1="44.7334" x2="53.1399" y2="56.9757" gradientUnits="userSpaceOnUse">
<stop stop-color="#ED3040"/>
<stop offset="1" stop-color="#2D23F4"/>
</linearGradient>
<linearGradient id="paint1_linear_5985_19646" x1="53.1399" y1="44.7334" x2="53.1399" y2="56.9757" gradientUnits="userSpaceOnUse">
<stop stop-color="#ED3040"/>
<stop offset="1" stop-color="#2D23F4"/>
</linearGradient>
<linearGradient id="paint2_linear_5985_19646" x1="53.1399" y1="44.7334" x2="53.1399" y2="56.9757" gradientUnits="userSpaceOnUse">
<stop stop-color="#ED3040"/>
<stop offset="1" stop-color="#2D23F4"/>
</linearGradient>
<linearGradient id="paint3_linear_5985_19646" x1="53.1399" y1="44.7334" x2="53.1399" y2="56.9757" gradientUnits="userSpaceOnUse">
<stop stop-color="#ED3040"/>
<stop offset="1" stop-color="#2D23F4"/>
</linearGradient>
<linearGradient id="paint4_linear_5985_19646" x1="53.1399" y1="44.7334" x2="53.1399" y2="56.9757" gradientUnits="userSpaceOnUse">
<stop stop-color="#ED3040"/>
<stop offset="1" stop-color="#2D23F4"/>
</linearGradient>
<linearGradient id="paint5_linear_5985_19646" x1="53.1399" y1="44.7334" x2="53.1399" y2="56.9757" gradientUnits="userSpaceOnUse">
<stop stop-color="#ED3040"/>
<stop offset="1" stop-color="#2D23F4"/>
</linearGradient>
<linearGradient id="paint6_linear_5985_19646" x1="53.1399" y1="44.7334" x2="53.1399" y2="56.9757" gradientUnits="userSpaceOnUse">
<stop stop-color="#ED3040"/>
<stop offset="1" stop-color="#2D23F4"/>
</linearGradient>
<linearGradient id="paint7_linear_5985_19646" x1="53.1399" y1="44.7334" x2="53.1399" y2="56.9757" gradientUnits="userSpaceOnUse">
<stop stop-color="#ED3040"/>
<stop offset="1" stop-color="#2D23F4"/>
</linearGradient>
<linearGradient id="paint8_linear_5985_19646" x1="53.1399" y1="44.7334" x2="53.1399" y2="56.9757" gradientUnits="userSpaceOnUse">
<stop stop-color="#ED3040"/>
<stop offset="1" stop-color="#2D23F4"/>
</linearGradient>
</defs>
</svg>
