<svg width="61" height="61" viewBox="0 0 61 61" fill="none" xmlns="http://www.w3.org/2000/svg">
<path d="M32.4689 55.7718V56.7146H51.7462V55.7718C51.7462 53.4058 53.6788 51.4805 56.0547 51.4805H56.9999V44.6489H56.0547C53.6788 44.6489 51.7462 42.7212 51.7462 40.3503V39.4076H32.4689V40.3503C32.4689 42.7212 30.5363 44.6489 28.1603 44.6489H27.2151V51.4805H28.1603C30.5358 51.4805 32.4689 53.4053 32.4689 55.7718ZM29.1049 46.4625C31.7677 46.0545 33.8781 43.9491 34.2871 41.2927H49.9279C50.3369 43.9487 52.4468 46.0545 55.1101 46.4625V49.6665C52.4473 50.0745 50.3379 52.1766 49.9279 54.8291H34.2871C33.8771 52.1766 31.7682 50.0745 29.1049 49.6665V46.4625Z" fill="url(#paint0_linear_5985_4373)"/>
<path d="M60.8015 35.6311H23.4135V60.4898H60.8015V35.6311ZM58.9111 58.6041H25.3042V37.5168H58.9111V58.6041Z" fill="url(#paint1_linear_5985_4373)"/>
<path d="M42.1063 52.764C44.3831 52.764 46.2873 51.1464 46.7267 49.0032H48.9417V47.1176H46.7267C46.2878 44.9744 44.3831 43.3568 42.1063 43.3568C39.8295 43.3568 37.9253 44.9744 37.4858 47.1176H35.2719V49.0032H37.4858C37.9248 51.1464 39.8295 52.764 42.1063 52.764ZM42.1063 45.2418C43.6643 45.2418 44.9316 46.5059 44.9316 48.06C44.9316 49.614 43.6643 50.8781 42.1063 50.8781C40.5482 50.8781 39.2809 49.614 39.2809 48.06C39.2804 46.5059 40.5477 45.2418 42.1063 45.2418Z" fill="url(#paint2_linear_5985_4373)"/>
<path d="M41.0328 48.861L40.6307 49.339C41.0303 49.6867 41.4826 49.8865 41.9863 49.938V50.3391H42.3389V49.9433C43.0278 49.9096 43.5841 49.5236 43.5841 48.8301C43.5841 47.8158 42.467 47.7791 42.3389 47.6954V46.662C42.6217 46.7026 42.8844 46.8084 43.1265 46.9808L43.4849 46.4754C43.125 46.23 42.743 46.0924 42.3389 46.063V45.6693H41.9863V46.0576C41.3102 46.0924 40.7853 46.4955 40.7853 47.165C40.7853 47.8653 41.266 48.1009 41.9863 48.2723V49.3385C41.6588 49.2876 41.3416 49.1284 41.0328 48.861ZM42.3389 48.3663C42.6704 48.4658 42.9119 48.5657 42.9119 48.883C42.9119 49.1784 42.6336 49.3253 42.3389 49.3556V48.3663ZM41.4571 47.0994C41.4571 46.8178 41.705 46.6709 41.9864 46.6459V47.597C41.6761 47.4971 41.4571 47.4016 41.4571 47.0994Z" fill="url(#paint3_linear_5985_4373)"/>
<path d="M19.0555 60.4672C20.0975 60.4672 20.9459 59.6209 20.9459 58.5816V54.4054C20.9459 54.0416 20.8374 53.7046 20.6577 53.4161C20.8374 53.1277 20.9459 52.7907 20.9459 52.4268V48.2506C20.9459 47.2114 20.0974 46.3651 19.0555 46.3651H16.1114C18.2306 44.7254 19.6021 42.1683 19.6021 39.2925C19.6021 34.3586 15.5738 30.3452 10.6223 30.3452C5.67583 30.3452 1.65207 34.3583 1.65207 39.2925C1.65207 42.1684 3.02194 44.7254 5.13922 46.3651H2.19899C1.15705 46.3651 0.308594 47.2114 0.308594 48.2506V52.4268C0.308594 52.7907 0.417107 53.1277 0.596822 53.4161C0.41711 53.7046 0.308594 54.0416 0.308594 54.4054V58.5816C0.308594 59.6214 1.15657 60.4672 2.19899 60.4672H19.0555ZM3.54309 39.2922C3.54309 35.3986 6.71951 32.2304 10.623 32.2304C14.532 32.2304 17.7122 35.3987 17.7122 39.2922C17.7122 43.1912 14.5324 46.3632 10.623 46.3632C6.71888 46.3627 3.54309 43.191 3.54309 39.2922ZM2.19924 58.5815V54.4053H19.0555L19.0575 58.5815H2.19924ZM2.19924 48.2507H19.0555L19.0575 52.4269H2.19869L2.19924 48.2507Z" fill="url(#paint4_linear_5985_4373)"/>
<path d="M15.1148 55.3505H17.0052V57.6358H15.1148V55.3505Z" fill="url(#paint5_linear_5985_4373)"/>
<path d="M11.4934 55.3505H13.3838V57.6358H11.4934V55.3505Z" fill="url(#paint6_linear_5985_4373)"/>
<path d="M7.87205 55.3505H9.76244V57.6358H7.87205V55.3505Z" fill="url(#paint7_linear_5985_4373)"/>
<path d="M4.25065 55.3505H6.14104V57.6358H4.25065V55.3505Z" fill="url(#paint8_linear_5985_4373)"/>
<path d="M15.1148 49.1957H17.0052V51.481H15.1148V49.1957Z" fill="url(#paint9_linear_5985_4373)"/>
<path d="M11.4934 49.1957H13.3838V51.481H11.4934V49.1957Z" fill="url(#paint10_linear_5985_4373)"/>
<path d="M7.87205 49.1957H9.76244V51.481H7.87205V49.1957Z" fill="url(#paint11_linear_5985_4373)"/>
<path d="M4.25065 49.1957H6.14104V51.481H4.25065V49.1957Z" fill="url(#paint12_linear_5985_4373)"/>
<path d="M8.45781 41.0274L7.64519 41.9932C8.4534 42.696 9.36614 43.0995 10.3835 43.2029V44.0134H11.0955V43.2141C12.4865 43.1461 13.611 42.3664 13.611 40.9656C13.611 39.5017 12.5583 39.0081 11.129 38.6731H11.0956V36.5858C11.6671 36.6676 12.1969 36.8821 12.6869 37.2298L13.4107 36.2082C12.683 35.7121 11.9116 35.4349 11.0955 35.3751V34.5793L10.3841 34.5798V35.3648C9.01758 35.4349 7.95743 36.2488 7.95743 37.6021C7.95743 39.0165 8.92817 39.4925 10.3841 39.8393V41.9933C9.72267 41.8895 9.0814 41.5676 8.45781 41.0274ZM11.096 40.0278C11.7652 40.2281 12.2538 40.4309 12.2538 41.0715C12.2538 41.668 11.6911 41.9648 11.096 42.026V40.0278ZM9.31508 37.4688C9.31508 36.8997 9.81591 36.6034 10.384 36.5525V38.4733C9.75649 38.2725 9.31508 38.0796 9.31508 37.4688Z" fill="url(#paint13_linear_5985_4373)"/>
<path d="M30.322 31.5526C39.3576 31.5526 48.5056 29.4569 48.5056 25.4532V13.723L53.6259 11.6122V20.7059C52.718 21.0767 52.0762 21.9607 52.0762 22.9921C52.0762 23.7766 52.4415 24.4858 53.0337 24.9462L52.0016 29.572C51.9869 29.6391 51.9795 29.7072 51.9795 29.7762C51.9795 31.2284 53.1206 32.366 54.576 32.366C55.9975 32.366 57.1543 31.2043 57.1543 29.7762C57.1543 29.7082 57.1469 29.6411 57.1322 29.5745L56.1148 24.9438C56.6967 24.4844 57.0561 23.7767 57.0561 22.9916C57.0561 21.9597 56.4188 21.0752 55.5163 20.705V10.833L55.5394 10.8237C55.8993 10.6753 56.132 10.3217 56.1237 9.93233C56.1153 9.54394 55.8678 9.20015 55.5025 9.06693L30.7058 0.0534028C30.4971 -0.0210402 30.2713 -0.0220195 30.066 0.0504642L4.58929 9.06399C4.21808 9.19476 3.96816 9.54102 3.95981 9.93331C3.95146 10.3246 4.18764 10.6807 4.55246 10.8271L12.1214 13.8562V25.4532C12.1219 29.4575 21.2784 31.5526 30.3227 31.5526L30.322 31.5526ZM55.1652 22.9922C55.1652 23.2601 55.0026 23.4903 54.6899 23.5907C54.6737 23.5946 54.5455 23.596 54.5004 23.5965H54.4999C54.4945 23.5965 54.4856 23.5965 54.4832 23.597C54.4792 23.597 54.4787 23.597 54.4812 23.599C54.4517 23.5863 54.4213 23.575 54.3909 23.5647C54.1861 23.501 53.9661 23.2949 53.9661 22.9922C53.9661 22.6778 54.2249 22.4241 54.5475 22.4094C54.5558 22.4094 54.5627 22.4143 54.5706 22.4143C54.5804 22.4143 54.5887 22.4089 54.5981 22.4089C54.9172 22.4211 55.1652 22.6709 55.1652 22.9922ZM54.5755 30.481C54.2018 30.481 53.9126 30.2195 53.8738 29.8605L54.5715 26.7319L55.2585 29.8586C55.2197 30.2142 54.9334 30.481 54.5755 30.481ZM46.6152 25.4531C46.6152 27.1711 40.2684 29.6669 30.322 29.6669C20.3653 29.6669 14.0113 27.1711 14.0113 25.4531V14.6211C30.8097 21.3077 30.19 21.245 30.7419 21.0197L46.6152 14.5006V25.4531ZM30.3773 1.94102L52.5696 10.0083C22.1579 22.5099 32.6462 18.198 30.3773 19.1311L7.57421 10.0083L30.3773 1.94102Z" fill="url(#paint14_linear_5985_4373)"/>
<defs>
<linearGradient id="paint0_linear_5985_4373" x1="49.7048" y1="43.3092" x2="49.7048" y2="55.4243" gradientUnits="userSpaceOnUse">
<stop stop-color="#ED3040"/>
<stop offset="1" stop-color="#2D23F4"/>
</linearGradient>
<linearGradient id="paint1_linear_5985_4373" x1="49.7048" y1="43.3092" x2="49.7048" y2="55.4243" gradientUnits="userSpaceOnUse">
<stop stop-color="#ED3040"/>
<stop offset="1" stop-color="#2D23F4"/>
</linearGradient>
<linearGradient id="paint2_linear_5985_4373" x1="49.7048" y1="43.3092" x2="49.7048" y2="55.4243" gradientUnits="userSpaceOnUse">
<stop stop-color="#ED3040"/>
<stop offset="1" stop-color="#2D23F4"/>
</linearGradient>
<linearGradient id="paint3_linear_5985_4373" x1="49.7048" y1="43.3092" x2="49.7048" y2="55.4243" gradientUnits="userSpaceOnUse">
<stop stop-color="#ED3040"/>
<stop offset="1" stop-color="#2D23F4"/>
</linearGradient>
<linearGradient id="paint4_linear_5985_4373" x1="49.7048" y1="43.3092" x2="49.7048" y2="55.4243" gradientUnits="userSpaceOnUse">
<stop stop-color="#ED3040"/>
<stop offset="1" stop-color="#2D23F4"/>
</linearGradient>
<linearGradient id="paint5_linear_5985_4373" x1="49.7048" y1="43.3092" x2="49.7048" y2="55.4243" gradientUnits="userSpaceOnUse">
<stop stop-color="#ED3040"/>
<stop offset="1" stop-color="#2D23F4"/>
</linearGradient>
<linearGradient id="paint6_linear_5985_4373" x1="49.7048" y1="43.3092" x2="49.7048" y2="55.4243" gradientUnits="userSpaceOnUse">
<stop stop-color="#ED3040"/>
<stop offset="1" stop-color="#2D23F4"/>
</linearGradient>
<linearGradient id="paint7_linear_5985_4373" x1="49.7048" y1="43.3092" x2="49.7048" y2="55.4243" gradientUnits="userSpaceOnUse">
<stop stop-color="#ED3040"/>
<stop offset="1" stop-color="#2D23F4"/>
</linearGradient>
<linearGradient id="paint8_linear_5985_4373" x1="49.7048" y1="43.3092" x2="49.7048" y2="55.4243" gradientUnits="userSpaceOnUse">
<stop stop-color="#ED3040"/>
<stop offset="1" stop-color="#2D23F4"/>
</linearGradient>
<linearGradient id="paint9_linear_5985_4373" x1="49.7048" y1="43.3092" x2="49.7048" y2="55.4243" gradientUnits="userSpaceOnUse">
<stop stop-color="#ED3040"/>
<stop offset="1" stop-color="#2D23F4"/>
</linearGradient>
<linearGradient id="paint10_linear_5985_4373" x1="49.7048" y1="43.3092" x2="49.7048" y2="55.4243" gradientUnits="userSpaceOnUse">
<stop stop-color="#ED3040"/>
<stop offset="1" stop-color="#2D23F4"/>
</linearGradient>
<linearGradient id="paint11_linear_5985_4373" x1="49.7048" y1="43.3092" x2="49.7048" y2="55.4243" gradientUnits="userSpaceOnUse">
<stop stop-color="#ED3040"/>
<stop offset="1" stop-color="#2D23F4"/>
</linearGradient>
<linearGradient id="paint12_linear_5985_4373" x1="49.7048" y1="43.3092" x2="49.7048" y2="55.4243" gradientUnits="userSpaceOnUse">
<stop stop-color="#ED3040"/>
<stop offset="1" stop-color="#2D23F4"/>
</linearGradient>
<linearGradient id="paint13_linear_5985_4373" x1="49.7048" y1="43.3092" x2="49.7048" y2="55.4243" gradientUnits="userSpaceOnUse">
<stop stop-color="#ED3040"/>
<stop offset="1" stop-color="#2D23F4"/>
</linearGradient>
<linearGradient id="paint14_linear_5985_4373" x1="49.7048" y1="43.3092" x2="49.7048" y2="55.4243" gradientUnits="userSpaceOnUse">
<stop stop-color="#ED3040"/>
<stop offset="1" stop-color="#2D23F4"/>
</linearGradient>
</defs>
</svg>
