<svg width="47" height="63" viewBox="0 0 47 63" fill="none" xmlns="http://www.w3.org/2000/svg">
<path d="M10.5238 49.4901H32.1611V51.6122H10.5238V49.4901Z" fill="url(#paint0_linear_5985_10302)"/>
<path d="M21.3437 17.3815C15.3693 17.3815 10.5257 22.2906 10.5257 28.3458C10.5257 34.4024 15.3693 39.3115 21.3437 39.3115C27.3196 39.3115 32.1627 34.4024 32.1627 28.3458C32.1618 22.2911 27.3186 17.3815 21.3437 17.3815ZM17.8841 20.0341C17.3377 20.8093 16.8733 21.7666 16.5147 22.8641H14.2746C15.2112 21.631 16.4523 20.6481 17.8839 20.0341H17.8841ZM13.3926 24.2781H16.1308C15.8981 25.3238 15.7552 26.4615 15.7152 27.659H12.4551C12.5478 26.4501 12.8751 25.307 13.3926 24.2781ZM13.3731 32.4138C12.8668 31.3943 12.5467 30.266 12.4555 29.0729H15.7171C15.7591 30.2556 15.9015 31.3794 16.1308 32.4138H13.3731ZM14.2439 33.8288H16.5157C16.881 34.9507 17.3596 35.9281 17.9221 36.7117C16.4581 36.0932 15.1923 35.0915 14.2439 33.8288ZM20.6452 37.2546C19.5837 36.8625 18.6427 35.5954 17.9963 33.8288H20.6452V37.2546ZM20.6457 32.4138H17.5699C17.3201 31.3903 17.1596 30.2605 17.1123 29.0729H20.6451L20.6457 32.4138ZM20.6457 27.658H17.1113C17.1562 26.4565 17.3172 25.313 17.5699 24.2771H20.6456L20.6457 27.658ZM20.6457 22.8636H17.9968C18.6426 21.096 19.5837 19.8293 20.6457 19.4378V22.8636ZM28.4123 22.8636H26.1718C25.8132 21.767 25.3488 20.8097 24.8024 20.0341C26.2357 20.6482 27.4767 21.631 28.4123 22.8636ZM22.0412 19.4373C23.1027 19.8294 24.0442 21.096 24.6901 22.8636H22.0412V19.4373ZM22.0407 24.2781H25.117C25.3697 25.313 25.5302 26.4566 25.5751 27.659H22.0407V24.2781ZM25.5736 29.073C25.5272 30.2601 25.3667 31.3899 25.117 32.4139H22.0412V29.073H25.5736ZM22.0412 37.2547V33.8289H24.6901C24.0447 35.5965 23.1028 36.8632 22.0412 37.2547ZM24.7648 36.7118C25.3278 35.9277 25.8063 34.9512 26.1723 33.8289H28.4431C27.4958 35.0912 26.2293 36.0934 24.7649 36.7118H24.7648ZM29.3143 32.4139H26.5572C26.7874 31.3795 26.9294 30.2562 26.9718 29.073H30.2319C30.1407 30.2665 29.8197 31.3943 29.3143 32.4139ZM30.2319 27.6591H26.9727C26.9327 26.4621 26.7888 25.325 26.5571 24.2783H29.2938C29.8114 25.3071 30.1397 26.4502 30.2319 27.6591Z" fill="url(#paint1_linear_5985_10302)"/>
<path d="M42.3991 0.875409H42.3186L4.58879 6.77628C2.52772 6.84105 0.869141 8.55612 0.869141 10.6614V58.2939C0.869141 60.4396 2.59166 62.1854 4.70781 62.1854H37.978C40.0951 62.1854 41.8177 60.4396 41.8177 58.2939V56.3924L42.486 56.2881C44.5627 56.2411 46.2384 54.5135 46.2384 52.398L46.2388 4.76554C46.2388 2.61978 44.5168 0.875 42.3997 0.875L42.3991 0.875409ZM39.7228 58.2944C39.7228 59.2694 38.9403 60.0629 37.9778 60.0629H4.70762C3.74563 60.0629 2.96313 59.2699 2.96313 58.2944V10.6606C2.96313 9.68563 3.7456 8.89204 4.70762 8.89204H37.9778C38.9398 8.89204 39.7228 9.68508 39.7228 10.6606V58.2944ZM44.1439 52.3984C44.1439 53.3734 43.3615 54.167 42.3989 54.167H42.3184L41.817 54.2456V10.6609C41.817 8.51512 40.0944 6.76933 37.9773 6.76933L18.3556 6.76982L42.4693 2.99839C43.3991 3.03596 44.1435 3.81417 44.1435 4.76595V52.3984H44.1439Z" fill="url(#paint2_linear_5985_10302)"/>
<defs>
<linearGradient id="paint0_linear_5985_10302" x1="37.9163" y1="44.7727" x2="37.9163" y2="57.0515" gradientUnits="userSpaceOnUse">
<stop stop-color="#ED3040"/>
<stop offset="1" stop-color="#2D23F4"/>
</linearGradient>
<linearGradient id="paint1_linear_5985_10302" x1="37.9163" y1="44.7727" x2="37.9163" y2="57.0515" gradientUnits="userSpaceOnUse">
<stop stop-color="#ED3040"/>
<stop offset="1" stop-color="#2D23F4"/>
</linearGradient>
<linearGradient id="paint2_linear_5985_10302" x1="37.9163" y1="44.7727" x2="37.9163" y2="57.0515" gradientUnits="userSpaceOnUse">
<stop stop-color="#ED3040"/>
<stop offset="1" stop-color="#2D23F4"/>
</linearGradient>
</defs>
</svg>
