<svg width="61" height="62" viewBox="0 0 61 62" fill="none" xmlns="http://www.w3.org/2000/svg">
<path d="M50.2161 40.0296H36.6048C36.6048 38.9597 36.1798 37.934 35.4238 37.1779C34.6672 36.4213 33.6414 35.9968 32.5721 35.9968V33.6859C37.1015 32.8252 41.0451 30.066 43.4062 26.1058C45.7673 22.1458 46.3193 17.3644 44.923 12.9711C43.5262 8.57712 40.3148 4.99187 36.1005 3.12185L36.5259 2.11344C36.7435 1.60032 36.5039 1.00792 35.9903 0.790232C35.4767 0.5726 34.8843 0.812745 34.6671 1.32633L34.2112 2.41122C32.699 1.95156 31.1273 1.71752 29.5471 1.71752C28.9904 1.71752 28.5387 2.16873 28.5387 2.72547C28.5387 3.28221 28.9904 3.73389 29.5471 3.73389C30.8585 3.7367 32.1629 3.92291 33.4227 4.28735L32.6342 6.16493C28.8397 5.15182 24.7892 6.04627 21.7743 8.56316C18.7594 11.0805 17.1567 14.9064 17.4761 18.821C17.796 22.7356 19.9986 26.2505 23.3817 28.2448L22.5905 30.119C20.4193 28.8981 18.5971 27.142 17.296 25.0178C17.0057 24.5422 16.3852 24.3926 15.91 24.6829C15.4344 24.9733 15.2848 25.5938 15.5751 26.0694C17.0986 28.5525 19.2481 30.5918 21.8081 31.9825L21.5562 32.5815C21.4525 32.8277 21.4507 33.1054 21.5515 33.3535C21.6523 33.6012 21.8479 33.7986 22.0942 33.9023C22.2194 33.9553 22.354 33.982 22.4896 33.9806C22.8953 33.9811 23.2616 33.7376 23.4192 33.3638L23.6392 32.8394C24.5725 33.21 25.5373 33.4933 26.5223 33.6856V35.9975C25.453 35.9975 24.4272 36.4219 23.6706 37.1785C22.9146 37.9346 22.4896 38.9604 22.4896 40.0302H3.33333C2.25268 40.0302 1.25416 40.6067 0.713837 41.5424C0.173513 42.4786 0.173513 43.6314 0.713837 44.5672C1.25416 45.5029 2.25268 46.0794 3.33333 46.0794V55.1538C2.25268 55.1538 1.25416 55.7302 0.713837 56.666C0.173513 57.6017 0.173513 58.755 0.713837 59.6907C1.25416 60.6264 2.25268 61.2029 3.33333 61.2029H50.2154C53.9972 61.2029 57.492 59.1851 59.3832 55.9098C61.2743 52.6346 61.2743 48.599 59.3832 45.3233C57.492 42.048 53.9981 40.0296 50.2161 40.0296ZM33.5802 17.8485H32.068C31.2326 17.8485 30.5558 17.1713 30.5558 16.3363C30.5863 15.5141 31.2457 14.8542 32.068 14.8237C32.9709 14.8626 33.8521 14.5385 34.5149 13.924C35.1777 13.3096 35.567 12.4556 35.597 11.5521V9.80171C37.7986 11.4537 39.2287 13.9344 39.5542 16.668L34.9858 21.8048C34.9225 21.8751 34.8217 21.8991 34.7335 21.8648C34.6448 21.8301 34.5871 21.7443 34.5886 21.6495V18.8569C34.5886 18.5891 34.4821 18.333 34.2931 18.1439C34.104 17.9545 33.8475 17.8485 33.5802 17.8485ZM33.5802 8.61421V11.5434C33.5028 12.3056 32.8316 12.8661 32.068 12.8074C31.136 12.8196 30.2453 13.1953 29.5863 13.8548C28.9273 14.5138 28.5517 15.4039 28.539 16.3364C28.539 17.2722 28.9109 18.1699 29.5727 18.8317C30.2345 19.4935 31.1322 19.865 32.068 19.865H32.5722V21.6496C32.5693 22.1055 32.7068 22.5511 32.9647 22.9268C33.2232 23.3025 33.5904 23.59 34.0168 23.7509C34.2743 23.8489 34.5477 23.8996 34.8235 23.9001C35.4619 23.8991 36.0693 23.6247 36.4919 23.1468L39.428 19.8429C38.898 22.4929 37.324 24.8184 35.0609 26.2953C32.7973 27.7724 30.0353 28.277 27.396 27.6949L27.7651 27.1475C28.4691 26.042 28.7027 24.7011 28.4138 23.4229C28.1244 22.1444 27.3369 21.0345 26.2252 20.3399C26.0418 20.2241 25.6586 19.9961 24.7713 19.468C23.9828 18.9999 23.0664 18.7926 22.1531 18.8765C21.2399 18.9605 20.3769 19.331 19.6869 19.9356C19.4688 18.9187 19.4116 17.8747 19.5167 16.84H22.0968C23.1061 16.8423 24.0494 16.3367 24.607 15.4953L27.0168 11.8847C27.3949 11.3247 27.5731 10.6535 27.5234 9.97951C27.4737 9.30551 27.1988 8.66808 26.7425 8.16953C29.0027 7.50539 31.425 7.66301 33.5802 8.61421ZM24.6686 9.03166L25.1352 9.40876C25.5475 9.73849 25.6357 10.3304 25.3369 10.7657L22.9284 14.3801C22.7431 14.6587 22.4308 14.8252 22.0968 14.8238H19.9299C20.7127 12.3596 22.4078 10.2873 24.6686 9.03166ZM20.3937 22.0488L20.898 21.5506C21.2666 21.1857 21.7464 20.9536 22.2618 20.8907C22.7769 20.8283 23.2984 20.9386 23.744 21.205L25.1947 22.0689H25.2027C25.8382 22.4817 26.2871 23.1257 26.4536 23.8644C26.6206 24.6031 26.4925 25.3779 26.0962 26.0233L25.4175 27.0317C23.1986 26.0289 21.4148 24.2598 20.3937 22.0488ZM25.199 29.1256C29.1459 30.6302 33.5918 29.9652 36.9257 27.3715C40.2597 24.7776 41.9973 20.6314 41.5096 16.4359C41.0218 12.24 38.3793 8.6036 34.5393 6.84369L35.3198 4.98449C39.8351 7.01588 42.9532 11.2662 43.5363 16.1827C44.1193 21.0991 42.0809 25.9612 38.1659 28.9921C34.2509 32.023 29.0329 32.7776 24.42 30.9812L25.199 29.1256ZM28.5389 33.9459C28.8738 33.968 29.2106 33.9802 29.5474 33.9802C29.8841 33.9802 30.22 33.9502 30.5558 33.9286V35.9971H28.5389L28.5389 33.9459ZM26.5226 38.0134H32.5722C33.1069 38.0134 33.62 38.2259 33.998 38.6039C34.3761 38.982 34.5885 39.4951 34.5885 40.0298H24.5062C24.5062 39.4951 24.7187 38.982 25.0967 38.6039C25.4752 38.2259 25.9879 38.0134 26.5226 38.0134ZM5.35028 46.0789H50.2164C51.8369 46.0789 53.335 46.9438 54.1455 48.3477C54.956 49.7516 54.956 51.4809 54.1455 52.8847C53.335 54.2884 51.8369 55.1534 50.2164 55.1534H5.35028V46.0789ZM50.2164 59.1861H3.33427C2.77754 59.1861 2.32586 58.7349 2.32586 58.1777C2.32586 57.6209 2.77754 57.1697 3.33427 57.1697H50.2164C52.5573 57.1697 54.721 55.9207 55.8917 53.893C57.0624 51.8654 57.0624 49.3669 55.8917 47.3392C54.721 45.3116 52.5573 44.0626 50.2164 44.0626H3.33427C2.77754 44.0626 2.32586 43.6114 2.32586 43.0546C2.32586 42.4974 2.77754 42.0462 3.33427 42.0462H50.2164C53.2778 42.0462 56.107 43.6798 57.6379 46.3313C59.1688 48.9829 59.1688 52.2496 57.6379 54.9011C56.107 57.553 53.2779 59.1861 50.2164 59.1861Z" fill="url(#paint0_linear_5985_2846)"/>
<path d="M30.5571 48.0991H8.37623C7.8195 48.0991 7.36782 48.5503 7.36782 49.107C7.36782 49.6638 7.8195 50.1155 8.37623 50.1155H30.5571C31.1139 50.1155 31.5651 49.6638 31.5651 49.107C31.5651 48.5503 31.1139 48.0991 30.5571 48.0991Z" fill="url(#paint1_linear_5985_2846)"/>
<path d="M47.6974 51.1225H35.599C35.0418 51.1225 34.5906 51.5742 34.5906 52.131C34.5906 52.6877 35.0418 53.1394 35.599 53.1394H47.6974C48.2542 53.1394 48.7054 52.6877 48.7054 52.131C48.7054 51.5742 48.2542 51.1225 47.6974 51.1225Z" fill="url(#paint2_linear_5985_2846)"/>
<defs>
<linearGradient id="paint0_linear_5985_2846" x1="49.7048" y1="44.0224" x2="49.7048" y2="56.1375" gradientUnits="userSpaceOnUse">
<stop stop-color="#ED3040"/>
<stop offset="1" stop-color="#2D23F4"/>
</linearGradient>
<linearGradient id="paint1_linear_5985_2846" x1="49.7048" y1="44.0224" x2="49.7048" y2="56.1375" gradientUnits="userSpaceOnUse">
<stop stop-color="#ED3040"/>
<stop offset="1" stop-color="#2D23F4"/>
</linearGradient>
<linearGradient id="paint2_linear_5985_2846" x1="49.7048" y1="44.0224" x2="49.7048" y2="56.1375" gradientUnits="userSpaceOnUse">
<stop stop-color="#ED3040"/>
<stop offset="1" stop-color="#2D23F4"/>
</linearGradient>
</defs>
</svg>
