<svg width="61" height="62" viewBox="0 0 61 62" fill="none" xmlns="http://www.w3.org/2000/svg">
<path d="M43.8976 36.7882C43.5015 36.7882 43.1083 36.6656 42.7724 36.4229C42.1744 35.9919 41.8779 35.2718 41.999 34.5438L42.4724 31.8229L40.4861 29.8764C39.9589 29.3567 39.7755 28.6037 40.0017 27.9055C40.228 27.2059 40.8215 26.7011 41.5496 26.5904L44.278 26.1927L45.5243 23.7126C45.8502 23.0518 46.51 22.6402 47.2455 22.6402C47.981 22.6402 48.6413 23.0518 48.9667 23.7136L50.1861 26.1798L52.9434 26.5895C53.6764 26.7011 54.2679 27.2034 54.4931 27.901C54.7193 28.5997 54.5345 29.3556 54.0092 29.8719L52.0378 31.7865C52.0284 31.7965 52.0259 31.8079 52.0284 31.8224L52.4918 34.5398C52.6129 35.2753 52.3164 35.9964 51.7194 36.4265C51.1259 36.8546 50.3525 36.9064 49.7026 36.565L47.2638 35.2804L44.7986 36.565C44.514 36.7145 44.2051 36.7882 43.8976 36.7882ZM47.2554 33.3926C47.5564 33.3926 47.8553 33.4619 48.1274 33.5984L50.5827 34.8916L50.1656 32.1438C50.0575 31.5284 50.2578 30.892 50.7028 30.4475C50.7058 30.444 50.7093 30.441 50.7128 30.4375L52.6881 28.5195L49.9403 28.062C49.3413 27.9903 48.7792 27.5906 48.4941 27.022L47.2722 24.5503L45.9995 27.0175C45.706 27.6016 45.1558 27.9913 44.5254 28.066L41.8294 28.4592L43.7778 30.4371C44.2383 30.8976 44.4426 31.5334 44.3355 32.1484L43.863 34.8603L46.3572 33.607C46.6413 33.4635 46.9499 33.3926 47.2554 33.3926Z" fill="url(#paint0_linear_5985_10780)"/>
<path d="M43.8976 54.7466C43.5015 54.7466 43.1083 54.624 42.7724 54.3813C42.1744 53.9503 41.8779 53.2302 41.999 52.5022L42.4724 49.7813L40.4861 47.8348C39.9589 47.3151 39.7755 46.5621 40.0017 45.864C40.228 45.1643 40.8215 44.6595 41.5496 44.5488L44.278 44.1511L45.5243 41.671C45.8502 41.0102 46.51 40.5986 47.2455 40.5986C47.981 40.5986 48.6413 41.0102 48.9667 41.672L50.1861 44.1382L52.9434 44.5479C53.6764 44.6595 54.2679 45.1618 54.4931 45.8594C54.7193 46.5581 54.5345 47.314 54.0092 47.8303L52.0378 49.7449C52.0284 49.7549 52.0259 49.7664 52.0284 49.7808L52.4918 52.4982C52.6129 53.2338 52.3164 53.9549 51.7194 54.3849C51.1259 54.813 50.3525 54.8638 49.7026 54.5234L47.2638 53.2388L44.7986 54.5234C44.514 54.6729 44.2051 54.7466 43.8976 54.7466ZM47.2554 51.351C47.5564 51.351 47.8553 51.4203 48.1274 51.5568L50.5827 52.85L50.1656 50.1022C50.0575 49.4868 50.2578 48.8504 50.7028 48.4059C50.7058 48.4024 50.7093 48.3994 50.7128 48.3959L52.6881 46.4779L49.9403 46.0204C49.3413 45.9487 48.7792 45.549 48.4941 44.9804L47.2722 42.5087L45.9995 44.976C45.706 45.56 45.1558 45.9497 44.5254 46.0245L41.8294 46.4176L43.7778 48.3955C44.2383 48.856 44.4426 49.4919 44.3355 50.1068L43.863 52.8187L46.3572 51.5654C46.6413 51.4224 46.9499 51.351 47.2554 51.351Z" fill="url(#paint1_linear_5985_10780)"/>
<path d="M31.3649 56.2533H24.7774C23.3716 56.2533 21.9918 55.8691 20.7874 55.144C20.7864 55.143 20.7051 55.0932 20.7031 55.0932C19.7977 54.5465 18.7547 54.2569 17.6932 54.2569C17.1709 54.2569 16.7478 53.8344 16.7478 53.3116V39.6613C16.7478 39.1391 17.1704 38.716 17.6932 38.716H19.1582C19.3356 38.716 19.4951 38.6497 19.6087 38.5296C20.5107 37.5723 22.7427 34.8849 23.9587 30.6276C24.2044 29.7685 24.8652 29.1112 25.7272 28.872C26.5699 28.6358 27.4515 28.8535 28.0853 29.4451C29.4502 30.7198 30.6014 33.1771 28.8118 37.7608H33.4508C34.431 37.7608 35.3539 38.1908 35.9842 38.9413C36.6146 39.6918 36.8787 40.6755 36.7098 41.6413L34.6228 53.517C34.3443 55.1017 32.9745 56.2533 31.3649 56.2533ZM18.638 52.4246C19.7114 52.5566 20.75 52.9139 21.6833 53.476C21.6843 53.477 21.7655 53.5269 21.7675 53.5269C22.673 54.0735 23.715 54.3631 24.7775 54.3631H31.3649C32.0546 54.3631 32.6417 53.8702 32.7607 53.191L34.8477 41.3152C34.9204 40.9016 34.8073 40.48 34.5377 40.1576C34.2671 39.8362 33.8714 39.6518 33.4513 39.6518H27.3731C27.0492 39.6518 26.7472 39.4859 26.5748 39.2113C26.4014 38.9382 26.38 38.5949 26.5195 38.3014C28.1809 34.7946 28.2771 32.2103 26.7956 30.8269C26.5898 30.634 26.3551 30.6614 26.2335 30.6938C26.0112 30.7556 25.8403 30.9255 25.7775 31.1468C24.4474 35.8037 21.9822 38.7682 20.9841 39.8267C20.5162 40.3225 19.8504 40.6066 19.1583 40.6066H18.6385L18.638 52.4246Z" fill="url(#paint2_linear_5985_10780)"/>
<path d="M16.2463 55.2684H13.2917C12.7694 55.2684 12.3464 54.8458 12.3464 54.3231C12.3464 53.8008 12.7689 53.3777 13.2917 53.3777H16.2463C16.5243 53.3777 16.7491 53.1525 16.7491 52.8749L16.7496 40.2099C16.7496 39.9318 16.5243 39.7071 16.2468 39.7071H13.2922C12.7699 39.7071 12.3468 39.2845 12.3468 38.7617C12.3468 38.2395 12.7694 37.8164 13.2922 37.8164H16.2468C17.5669 37.8164 18.6403 38.8898 18.6403 40.2099V52.8749C18.6398 54.1951 17.5664 55.2684 16.2463 55.2684Z" fill="url(#paint3_linear_5985_10780)"/>
<path d="M20.0518 24.1764H6.6375C6.11524 24.1764 5.69216 23.7538 5.69216 23.231C5.69216 22.7088 6.11474 22.2857 6.6375 22.2857H20.0518C20.574 22.2857 20.9971 22.7083 20.9971 23.231C20.9971 23.7538 20.574 24.1764 20.0518 24.1764Z" fill="url(#paint4_linear_5985_10780)"/>
<path d="M20.0518 28.8953H6.6375C6.11524 28.8953 5.69216 28.4727 5.69216 27.95C5.69216 27.4277 6.11474 27.0046 6.6375 27.0046H20.0518C20.574 27.0046 20.9971 27.4272 20.9971 27.95C20.9971 28.4722 20.574 28.8953 20.0518 28.8953Z" fill="url(#paint5_linear_5985_10780)"/>
<path d="M20.0518 33.6155H6.6375C6.11524 33.6155 5.69216 33.1929 5.69216 32.6701C5.69216 32.1479 6.11474 31.7248 6.6375 31.7248H20.0518C20.574 31.7248 20.9971 32.1474 20.9971 32.6701C20.9971 33.1929 20.574 33.6155 20.0518 33.6155Z" fill="url(#paint6_linear_5985_10780)"/>
<path d="M57.9332 61.0717H3.17007C1.59532 61.0717 0.314105 59.7905 0.314105 58.2157L0.314604 3.69752C0.314604 2.12276 1.59582 0.841553 3.17057 0.841553H57.9337C59.515 0.841553 60.8015 2.12276 60.8015 3.69752V58.2157C60.8015 59.7905 59.5143 61.0717 57.9332 61.0717ZM3.17007 2.73269C2.63736 2.73269 2.20481 3.16574 2.20481 3.69796V58.2161C2.20481 58.7489 2.63785 59.1814 3.17007 59.1814H57.9332C58.4729 59.1814 58.9109 58.7489 58.9109 58.2161V3.69796C58.9109 3.1747 58.4634 2.73269 57.9332 2.73269H3.17007Z" fill="url(#paint7_linear_5985_10780)"/>
<path d="M59.8481 20.0877H1.25393C0.731676 20.0877 0.308594 19.6651 0.308594 19.1423C0.308594 18.6201 0.731178 18.197 1.25393 18.197H59.8481C60.3703 18.197 60.7934 18.6196 60.7934 19.1423C60.7934 19.6646 60.3708 20.0877 59.8481 20.0877Z" fill="url(#paint8_linear_5985_10780)"/>
<path d="M19.4216 13.9285C17.4905 13.9285 15.9198 12.3573 15.9198 10.4257C15.9198 8.49464 17.491 6.92396 19.4216 6.92396C21.3526 6.92396 22.9233 8.49515 22.9233 10.4257C22.9233 12.3573 21.3526 13.9285 19.4216 13.9285ZM19.4216 8.81357C18.5325 8.81357 17.8099 9.53616 17.8099 10.4252C17.8099 11.3142 18.5325 12.0378 19.4216 12.0378C20.325 12.0378 21.0332 11.3297 21.0332 10.4252C21.0332 9.53668 20.3101 8.81357 19.4216 8.81357Z" fill="url(#paint9_linear_5985_10780)"/>
<path d="M29.6503 13.9285C27.7193 13.9285 26.1486 12.3573 26.1486 10.4257C26.1486 8.49464 27.7198 6.92396 29.6503 6.92396C31.5814 6.92396 33.1521 8.49515 33.1521 10.4257C33.1526 12.3573 31.5814 13.9285 29.6503 13.9285ZM29.6503 8.81357C28.7613 8.81357 28.0387 9.53616 28.0387 10.4252C28.0387 11.3142 28.7613 12.0378 29.6503 12.0378C30.5538 12.0378 31.262 11.3297 31.262 10.4252C31.262 9.53668 30.5394 8.81357 29.6503 8.81357Z" fill="url(#paint10_linear_5985_10780)"/>
<path d="M51.9092 13.9285H39.8785C37.9474 13.9285 36.3767 12.3573 36.3767 10.4257C36.3767 8.49464 37.9479 6.92396 39.8785 6.92396H51.9092C53.8403 6.92396 55.411 8.49515 55.411 10.4257C55.4114 12.3573 53.8403 13.9285 51.9092 13.9285ZM39.8785 8.81357C38.975 8.81357 38.2668 9.5217 38.2668 10.4252C38.2668 11.3142 38.9894 12.0378 39.8785 12.0378H51.9092C52.7982 12.0378 53.5208 11.3143 53.5208 10.4252C53.5208 9.52173 52.8127 8.81357 51.9092 8.81357H39.8785Z" fill="url(#paint11_linear_5985_10780)"/>
<path d="M9.19406 13.9285C7.26299 13.9285 5.69231 12.3573 5.69231 10.4257C5.69231 8.49464 7.2635 6.92396 9.19406 6.92396C11.1251 6.92396 12.6958 8.49515 12.6958 10.4257C12.6958 12.3573 11.1251 13.9285 9.19406 13.9285ZM9.19406 8.81357C8.30503 8.81357 7.58243 9.53616 7.58243 10.4252C7.58243 11.3142 8.30501 12.0378 9.19406 12.0378C10.0975 12.0378 10.8057 11.3297 10.8057 10.4252C10.8057 9.53668 10.0831 8.81357 9.19406 8.81357Z" fill="url(#paint12_linear_5985_10780)"/>
<defs>
<linearGradient id="paint0_linear_5985_10780" x1="49.7048" y1="43.9658" x2="49.7048" y2="56.0282" gradientUnits="userSpaceOnUse">
<stop stop-color="#ED3040"/>
<stop offset="1" stop-color="#2D23F4"/>
</linearGradient>
<linearGradient id="paint1_linear_5985_10780" x1="49.7048" y1="43.9658" x2="49.7048" y2="56.0282" gradientUnits="userSpaceOnUse">
<stop stop-color="#ED3040"/>
<stop offset="1" stop-color="#2D23F4"/>
</linearGradient>
<linearGradient id="paint2_linear_5985_10780" x1="49.7048" y1="43.9658" x2="49.7048" y2="56.0282" gradientUnits="userSpaceOnUse">
<stop stop-color="#ED3040"/>
<stop offset="1" stop-color="#2D23F4"/>
</linearGradient>
<linearGradient id="paint3_linear_5985_10780" x1="49.7048" y1="43.9658" x2="49.7048" y2="56.0282" gradientUnits="userSpaceOnUse">
<stop stop-color="#ED3040"/>
<stop offset="1" stop-color="#2D23F4"/>
</linearGradient>
<linearGradient id="paint4_linear_5985_10780" x1="49.7048" y1="43.9658" x2="49.7048" y2="56.0282" gradientUnits="userSpaceOnUse">
<stop stop-color="#ED3040"/>
<stop offset="1" stop-color="#2D23F4"/>
</linearGradient>
<linearGradient id="paint5_linear_5985_10780" x1="49.7048" y1="43.9658" x2="49.7048" y2="56.0282" gradientUnits="userSpaceOnUse">
<stop stop-color="#ED3040"/>
<stop offset="1" stop-color="#2D23F4"/>
</linearGradient>
<linearGradient id="paint6_linear_5985_10780" x1="49.7048" y1="43.9658" x2="49.7048" y2="56.0282" gradientUnits="userSpaceOnUse">
<stop stop-color="#ED3040"/>
<stop offset="1" stop-color="#2D23F4"/>
</linearGradient>
<linearGradient id="paint7_linear_5985_10780" x1="49.7048" y1="43.9658" x2="49.7048" y2="56.0282" gradientUnits="userSpaceOnUse">
<stop stop-color="#ED3040"/>
<stop offset="1" stop-color="#2D23F4"/>
</linearGradient>
<linearGradient id="paint8_linear_5985_10780" x1="49.7048" y1="43.9658" x2="49.7048" y2="56.0282" gradientUnits="userSpaceOnUse">
<stop stop-color="#ED3040"/>
<stop offset="1" stop-color="#2D23F4"/>
</linearGradient>
<linearGradient id="paint9_linear_5985_10780" x1="49.7048" y1="43.9658" x2="49.7048" y2="56.0282" gradientUnits="userSpaceOnUse">
<stop stop-color="#ED3040"/>
<stop offset="1" stop-color="#2D23F4"/>
</linearGradient>
<linearGradient id="paint10_linear_5985_10780" x1="49.7048" y1="43.9658" x2="49.7048" y2="56.0282" gradientUnits="userSpaceOnUse">
<stop stop-color="#ED3040"/>
<stop offset="1" stop-color="#2D23F4"/>
</linearGradient>
<linearGradient id="paint11_linear_5985_10780" x1="49.7048" y1="43.9658" x2="49.7048" y2="56.0282" gradientUnits="userSpaceOnUse">
<stop stop-color="#ED3040"/>
<stop offset="1" stop-color="#2D23F4"/>
</linearGradient>
<linearGradient id="paint12_linear_5985_10780" x1="49.7048" y1="43.9658" x2="49.7048" y2="56.0282" gradientUnits="userSpaceOnUse">
<stop stop-color="#ED3040"/>
<stop offset="1" stop-color="#2D23F4"/>
</linearGradient>
</defs>
</svg>
