<svg width="61" height="62" viewBox="0 0 61 62" fill="none" xmlns="http://www.w3.org/2000/svg">
<path d="M21.1034 8.27241C21.3454 8.27241 21.587 8.18001 21.7718 7.99568L22.7169 7.05059C23.086 6.68146 23.086 6.08345 22.7169 5.71383C22.3478 5.34471 21.7498 5.34471 21.3801 5.71383L20.435 6.65893C20.0659 7.02805 20.0659 7.62607 20.435 7.99568C20.6198 8.18002 20.8619 8.27241 21.1034 8.27241Z" fill="url(#paint0_linear_5985_4741)"/>
<path d="M59.8566 0.710302H34.3365C33.2944 0.710302 32.4464 1.55831 32.4464 2.60047V27.1755C32.4464 28.2182 33.2948 29.0657 34.3365 29.0657H45.3644L45.257 32.9521C44.5586 33.0018 43.9043 33.2841 43.4053 33.7832L42.2308 34.9576L36.6765 38.9251L33.9631 32.9563C33.4416 31.8076 32.4623 30.9015 31.2761 30.4699L22.9939 27.4588V25.3332C25.2443 24.2103 26.9281 22.1245 27.5008 19.6143H27.7198C29.2835 19.6143 30.5555 18.3422 30.5555 16.7785C30.5555 15.5586 29.7774 14.5258 28.6944 14.1262C29.254 13.6079 29.61 12.8733 29.61 12.0525V10.2453C29.61 8.14827 28.9951 6.11786 27.8323 4.37406C26.3868 2.20437 23.7728 1.11952 21.2269 1.60581L19.6355 0.810333C19.5046 0.7442 19.3597 0.709961 19.2129 0.709961H17.5174C12.1976 0.709961 7.87033 5.0377 7.87033 10.3575V12.9976C7.87033 13.5196 8.29292 13.9427 8.81542 13.9427H10.7056C9.1419 13.9427 7.86986 15.2147 7.86986 16.7784C7.86986 18.3421 9.1419 19.6142 10.7056 19.6142H10.9246C11.4973 22.1244 13.1816 24.2101 15.432 25.3331V27.4587L7.14945 30.4703C5.96328 30.9018 4.98396 31.808 4.46237 32.9566L0.563277 41.5352C0.394432 41.9071 0.308594 42.3016 0.308594 42.7082V51.751C0.308594 53.3147 1.58063 54.5868 3.14433 54.5868H4.76289L4.09593 60.1452C4.06357 60.414 4.14846 60.6828 4.32763 60.8849C4.50634 61.0871 4.7643 61.2029 5.03446 61.2029H33.3906C33.6612 61.2029 33.9187 61.0871 34.0974 60.8849C34.2766 60.6828 34.3615 60.4131 34.3291 60.1452L33.1664 50.4546C33.7222 51.0733 34.4628 51.4762 35.3004 51.5747C35.4379 51.5901 35.5739 51.5981 35.7094 51.5981C36.5077 51.5981 37.2713 51.3228 37.896 50.8026L47.2292 43.0252C47.2419 43.0149 47.248 42.9999 47.2597 42.9891C47.2696 42.9802 47.2827 42.9774 47.2921 42.9676L51.5457 38.7139C52.6939 37.5648 52.7957 35.7412 51.7812 34.4715L50.6274 33.0292C50.5533 32.9364 50.4632 32.8604 50.3788 32.7783L50.1522 29.0659H59.8564C60.3789 29.0659 60.8015 28.6429 60.8015 28.1208C60.8015 27.5988 60.3789 27.1757 59.8564 27.1757H50.0369L49.5139 18.5943C49.4529 17.5756 48.6054 16.7782 47.5843 16.7782C46.5304 16.7782 45.681 17.6037 45.6514 18.6576L45.416 27.1756H34.3361V2.59935H59.8561C60.3787 2.59935 60.8012 2.17629 60.8012 1.65426C60.8012 1.13222 60.3791 0.710302 59.8566 0.710302ZM23.9383 55.5326H17.3218C16.7993 55.5326 16.3767 55.9557 16.3767 56.4777C16.3767 56.9997 16.7993 57.4228 17.3218 57.4228H23.9383V59.313L14.4864 59.3134V54.5875C15.5286 54.5875 16.3766 53.7395 16.3766 52.6974V47.9715C16.3766 46.9288 15.5281 46.0813 14.4864 46.0813V41.4711L16.1706 34.6955C16.1758 34.6969 16.181 34.6988 16.1866 34.6997L15.4361 42.2061C15.4188 42.3839 15.4516 42.5635 15.5314 42.723L18.3671 48.394C18.5275 48.7139 18.8539 48.916 19.2123 48.916C19.5706 48.916 19.8971 48.7139 20.058 48.3935L22.8937 42.7225C22.973 42.5631 23.0063 42.3834 22.9889 42.2057L22.2385 34.6993C22.2441 34.6983 22.2492 34.696 22.2544 34.695L23.9382 41.4702L23.9383 55.5326ZM10.7052 47.9709H14.486V52.6967H10.7052V47.9709ZM17.4086 31.4238L16.4546 32.3778L14.4227 29.838L15.6648 29.3864C15.9785 30.2625 16.6024 30.9814 17.4086 31.4238ZM21.0801 42.1214L19.2119 45.8572L17.3437 42.121L18.2288 33.2765L19.2119 32.2934L20.1955 33.277L21.0801 42.1214ZM21.9689 32.3774L21.0149 31.4234C21.8212 30.9811 22.445 30.2621 22.7587 29.3859L24.0008 29.8376L21.9689 32.3774ZM27.7188 17.7239V15.8337C28.2404 15.8337 28.6639 16.2577 28.6639 16.7788C28.6639 17.2999 28.2404 17.7239 27.7188 17.7239ZM9.75969 12.0529V10.3578C9.75969 6.08075 13.2399 2.60059 17.5166 2.60059H18.9889L20.6797 3.44625C20.881 3.5471 21.1136 3.57149 21.3312 3.51802C23.2088 3.04946 25.1858 3.81538 26.2584 5.42271C27.2138 6.85517 27.7189 8.52296 27.7189 10.2457V12.0529C27.7189 12.574 27.2954 12.998 26.7738 12.998H25.5229L24.8639 11.3475C24.5243 10.5 23.7875 9.88458 22.8931 9.70124C22.3809 9.59523 21.8556 9.64214 21.3809 9.82412C20.9203 9.17639 20.2088 8.76926 19.4157 8.70172C18.5897 8.62621 17.7736 8.94093 17.1958 9.55254C16.1151 10.6928 14.1114 12.0529 10.7053 12.0529L9.75969 12.0529ZM9.75969 16.7788C9.75969 16.2577 10.1832 15.8337 10.7048 15.8337V17.7238C10.1837 17.7238 9.75969 17.2999 9.75969 16.7788ZM12.5954 17.7239V13.7981C15.5527 13.376 17.4546 12.0271 18.5685 10.8517C18.7496 10.6608 18.9902 10.5604 19.2561 10.5848C19.3992 10.597 19.6679 10.6594 19.856 10.9413L20.3157 11.6312C20.4728 11.8671 20.7275 12.02 21.0089 12.0482C21.2884 12.0777 21.5694 11.976 21.7706 11.7762C21.968 11.5782 22.2349 11.4971 22.5135 11.5529C22.7874 11.6092 23.0046 11.7907 23.1078 12.0501L24.0051 14.294C24.1495 14.6532 24.4966 14.8887 24.8831 14.8887H25.8282V17.7244C25.8282 21.373 22.8596 24.341 19.2116 24.341C15.564 24.3405 12.5954 21.3724 12.5954 17.7239ZM19.212 26.2307C19.8625 26.2307 20.4934 26.1505 21.1021 26.0117V28.1213C21.1021 29.164 20.2537 30.0115 19.212 30.0115C18.1698 30.0115 17.3218 29.1635 17.3218 28.1213V26.0117C17.9306 26.151 18.5614 26.2307 19.212 26.2307ZM2.19782 51.7519V42.7091C2.19782 42.5759 2.22737 42.4403 2.28271 42.3179L6.1818 33.7394C6.49465 33.0504 7.08281 32.5067 7.79436 32.2483L12.5466 30.5204L14.6164 33.1076L12.6226 41.127C12.6047 41.2016 12.5954 41.2776 12.5954 41.3545V46.0804H7.68695L8.80793 36.7411C8.86984 36.2228 8.50071 35.7519 7.98197 35.69C7.46135 35.6258 6.99325 35.9982 6.93041 36.5155L6.03361 43.9863L5.81974 43.6654C5.52988 43.2306 4.94359 43.112 4.5088 43.4033C4.07401 43.6927 3.95674 44.2799 4.24661 44.7142L6.13678 47.5499C6.31314 47.8131 6.60862 47.9711 6.92428 47.9711H8.81445V52.697H3.14346C2.6219 52.697 2.19782 52.273 2.19782 51.7519ZM6.66629 54.5877H12.5953V59.3135H6.09883L6.66629 54.5877ZM36.6854 49.3514C36.3576 49.6249 35.9472 49.7511 35.5194 49.6976C35.0968 49.6483 34.723 49.4331 34.4669 49.0921L32.7231 46.7676L31.4929 36.5155C31.43 35.9982 30.9647 35.6253 30.4413 35.69C29.9225 35.7519 29.5534 36.2228 29.6153 36.7411L32.3249 59.3134H25.8284V41.3543C25.8284 41.2774 25.819 41.2009 25.8007 41.1263L23.8069 33.1069L25.8767 30.5197L30.6289 32.2476C31.3404 32.5061 31.9286 33.0497 32.2415 33.7387L36.3104 42.6901C36.4689 43.0391 36.8122 43.245 37.172 43.245C37.3019 43.245 37.4351 43.2178 37.5622 43.1601C38.0378 42.9439 38.247 42.3839 38.0312 41.9087L37.4726 40.6804L42.54 37.0605L45.4091 42.0809L36.6854 49.3514ZM50.2079 37.378L46.8294 40.7565L44.0204 35.841L44.7403 35.121C44.9528 34.9081 45.2276 34.7988 45.5367 34.8237C45.8379 34.8448 46.1024 34.9892 46.2834 35.2308L47.2647 36.5398L46.8993 36.9052C46.5301 37.2743 46.5301 37.8723 46.8993 38.2419C47.0845 38.4267 47.3261 38.5191 47.5681 38.5191C47.8101 38.5191 48.0517 38.4267 48.2365 38.2424L49.1816 37.2973C49.5136 36.9652 49.5516 36.4385 49.2693 36.0619L47.796 34.0971C47.7815 34.0779 47.7622 34.0638 47.7477 34.0451C47.9353 33.9006 48.1506 33.8082 48.4071 33.8284C48.7017 33.8443 48.9658 33.9808 49.1492 34.2111L50.303 35.6534C50.7157 36.1689 50.6751 36.9109 50.2079 37.378ZM47.6264 18.7093L48.4331 31.9436C47.9983 31.9304 47.5724 32.02 47.1789 32.1945L47.6264 18.7093Z" fill="url(#paint1_linear_5985_4741)"/>
<path d="M59.8566 4.49136H37.1714C36.6489 4.49136 36.2263 4.91442 36.2263 5.43645V24.3405C36.2263 24.8626 36.6489 25.2856 37.1714 25.2856H42.66C43.1825 25.2856 43.6051 24.8626 43.6051 24.3405C43.6051 23.8185 43.1825 23.3954 42.66 23.3954H38.117V6.38129H59.856C60.3785 6.38129 60.8011 5.95822 60.8011 5.43619C60.8011 4.91415 60.3791 4.49136 59.8566 4.49136Z" fill="url(#paint2_linear_5985_4741)"/>
<path d="M52.6979 25.2866H59.8562C60.3787 25.2866 60.8013 24.8635 60.8013 24.3415C60.8013 23.8194 60.3787 23.3964 59.8562 23.3964H52.6979C52.1754 23.3964 51.7528 23.8194 51.7528 24.3415C51.7528 24.8635 52.1754 25.2866 52.6979 25.2866Z" fill="url(#paint3_linear_5985_4741)"/>
<path d="M40.9525 10.1623H56.0755C56.598 10.1623 57.0206 9.73928 57.0206 9.21724C57.0206 8.69521 56.598 8.27215 56.0755 8.27215H40.9525C40.43 8.27215 40.0074 8.69521 40.0074 9.21724C40.0074 9.73928 40.43 10.1623 40.9525 10.1623Z" fill="url(#paint4_linear_5985_4741)"/>
<path d="M40.9525 13.9434H56.0755C56.598 13.9434 57.0206 13.5203 57.0206 12.9983C57.0206 12.4763 56.598 12.0532 56.0755 12.0532H40.9525C40.43 12.0532 40.0074 12.4763 40.0074 12.9983C40.0074 13.5203 40.43 13.9434 40.9525 13.9434Z" fill="url(#paint5_linear_5985_4741)"/>
<path d="M16.3774 16.3064C16.3774 17.0897 15.9543 17.7243 15.4323 17.7243C14.9103 17.7243 14.4872 17.0897 14.4872 16.3064C14.4872 15.5236 14.9103 14.889 15.4323 14.889C15.9543 14.889 16.3774 15.5236 16.3774 16.3064Z" fill="url(#paint6_linear_5985_4741)"/>
<path d="M23.9383 16.3064C23.9383 17.0897 23.5153 17.7243 22.9932 17.7243C22.4712 17.7243 22.0477 17.0897 22.0477 16.3064C22.0477 15.5236 22.4712 14.889 22.9932 14.889C23.5153 14.889 23.9383 15.5236 23.9383 16.3064Z" fill="url(#paint7_linear_5985_4741)"/>
<defs>
<linearGradient id="paint0_linear_5985_4741" x1="49.7048" y1="44.0224" x2="49.7048" y2="56.1375" gradientUnits="userSpaceOnUse">
<stop stop-color="#ED3040"/>
<stop offset="1" stop-color="#2D23F4"/>
</linearGradient>
<linearGradient id="paint1_linear_5985_4741" x1="49.7048" y1="44.0224" x2="49.7048" y2="56.1375" gradientUnits="userSpaceOnUse">
<stop stop-color="#ED3040"/>
<stop offset="1" stop-color="#2D23F4"/>
</linearGradient>
<linearGradient id="paint2_linear_5985_4741" x1="49.7048" y1="44.0224" x2="49.7048" y2="56.1375" gradientUnits="userSpaceOnUse">
<stop stop-color="#ED3040"/>
<stop offset="1" stop-color="#2D23F4"/>
</linearGradient>
<linearGradient id="paint3_linear_5985_4741" x1="49.7048" y1="44.0224" x2="49.7048" y2="56.1375" gradientUnits="userSpaceOnUse">
<stop stop-color="#ED3040"/>
<stop offset="1" stop-color="#2D23F4"/>
</linearGradient>
<linearGradient id="paint4_linear_5985_4741" x1="49.7048" y1="44.0224" x2="49.7048" y2="56.1375" gradientUnits="userSpaceOnUse">
<stop stop-color="#ED3040"/>
<stop offset="1" stop-color="#2D23F4"/>
</linearGradient>
<linearGradient id="paint5_linear_5985_4741" x1="49.7048" y1="44.0224" x2="49.7048" y2="56.1375" gradientUnits="userSpaceOnUse">
<stop stop-color="#ED3040"/>
<stop offset="1" stop-color="#2D23F4"/>
</linearGradient>
<linearGradient id="paint6_linear_5985_4741" x1="49.7048" y1="44.0224" x2="49.7048" y2="56.1375" gradientUnits="userSpaceOnUse">
<stop stop-color="#ED3040"/>
<stop offset="1" stop-color="#2D23F4"/>
</linearGradient>
<linearGradient id="paint7_linear_5985_4741" x1="49.7048" y1="44.0224" x2="49.7048" y2="56.1375" gradientUnits="userSpaceOnUse">
<stop stop-color="#ED3040"/>
<stop offset="1" stop-color="#2D23F4"/>
</linearGradient>
</defs>
</svg>
