<svg width="61" height="61" viewBox="0 0 61 61" fill="none" xmlns="http://www.w3.org/2000/svg">
<path d="M60.539 56.4439L58.1745 51.4309L58.1741 16.5279C58.1741 14.1634 56.2824 12.2713 53.9175 12.2713H47.5806V1.01585C47.5806 0.448093 47.2021 0.0700684 46.6348 0.0700684H22.9878C22.7042 0.0700684 22.515 0.164452 22.3257 0.35371L13.8127 8.67749C13.6235 8.86674 13.5291 9.056 13.5291 9.33964L13.5295 12.2714H7.19216C4.82771 12.2714 2.93561 14.163 2.93561 16.5279V51.4309L0.571156 56.4439C-0.280243 58.2411 1.04404 60.4167 3.03052 60.4167H58.08C60.0659 60.4167 61.3904 58.3354 60.539 56.4439ZM47.5805 18.7046H51.837V46.2288H47.5805V18.7046ZM45.6884 46.2288H15.4209V10.2862H22.9876C23.2712 10.2862 23.4605 10.1918 23.6497 10.0025C23.839 9.81329 23.9334 9.62403 23.9334 9.34038V1.96241H45.6882L45.6884 46.2288ZM9.27245 46.2288V18.7046H13.529V46.2288H9.27245ZM22.0414 8.39407H16.8391L22.0414 3.28662V8.39407ZM4.82656 16.5285C4.82656 15.2042 5.86721 14.1641 7.19101 14.1641H13.5288V16.8126L8.32652 16.8122C7.75877 16.8122 7.38074 17.1907 7.38074 17.7579V47.1742C7.38074 47.7419 7.75925 48.12 8.32652 48.12H52.6876C53.2553 48.12 53.6333 47.7415 53.6333 47.1742L53.6328 17.7579C53.6328 17.1902 53.2543 16.8122 52.6871 16.8122L47.5796 16.8117V14.1636H54.0113C55.3356 14.1636 56.3758 15.2042 56.3758 16.528V50.6739H4.8267L4.82656 16.5285ZM58.0794 58.5253H3.02986C2.36771 58.5253 1.98922 57.8632 2.27333 57.2959L4.44907 52.6614H56.661L58.8368 57.2959C59.1204 57.8632 58.7415 58.5253 58.0794 58.5253Z" fill="url(#paint0_linear_5985_4336)"/>
<path d="M44.4592 54.646H16.6501C16.0823 54.646 15.7043 55.0245 15.7043 55.5918C15.7043 56.1595 16.0828 56.5375 16.6501 56.5375H44.5534C45.1211 56.5375 45.4991 56.159 45.4991 55.5918C45.4048 55.0245 45.0265 54.646 44.4592 54.646Z" fill="url(#paint1_linear_5985_4336)"/>
<path d="M32.6357 31.0002H29.2306C28.6629 31.0002 28.2849 31.3787 28.2849 31.946V41.8776C28.2849 42.4454 28.6634 42.8234 29.2306 42.8234H32.6357C33.2034 42.8234 33.5815 42.4449 33.5815 41.8776V31.946C33.5815 31.3787 33.1086 31.0002 32.6357 31.0002ZM31.6899 40.8371H30.1764V32.7974H31.6899V40.8371Z" fill="url(#paint2_linear_5985_4336)"/>
<path d="M22.9881 33.1748H19.583C19.0153 33.1748 18.6372 33.5533 18.6372 34.1206V41.7822C18.6372 42.35 19.0157 42.728 19.583 42.728H22.9881C23.5558 42.728 23.9338 42.3495 23.9338 41.7822V34.1206C23.9338 33.5529 23.4609 33.1748 22.9881 33.1748ZM22.0423 40.8359H20.5287V35.0664H22.0423V40.8359Z" fill="url(#paint3_linear_5985_4336)"/>
<path d="M42.2833 28.8244H38.8783C38.3105 28.8244 37.9325 29.2029 37.9325 29.7701V41.7826C37.9325 42.3504 38.311 42.7284 38.8783 42.7284H42.2833C42.8511 42.7284 43.2291 42.3499 43.2291 41.7826L43.2296 29.7706C43.2296 29.2973 42.7562 28.8244 42.2833 28.8244ZM41.3375 40.8368H39.824V30.7163H41.3375V40.8368Z" fill="url(#paint4_linear_5985_4336)"/>
<path d="M31.3123 19.9326H43.2305C43.5141 19.9326 43.7034 19.8382 43.8926 19.6489C44.0819 19.4597 44.1763 19.176 44.1763 18.8924L43.7978 13.5008C43.7034 12.7443 43.3249 12.0822 42.6627 11.7036C41.717 11.2307 40.8655 10.8522 39.9197 10.5686C39.5412 10.4742 39.0683 10.663 38.8791 11.0415L37.3655 13.7845H37.1768L35.6632 11.0415C35.474 10.663 35.0011 10.4737 34.6226 10.5686C33.7712 10.8522 32.8254 11.2307 31.974 11.7036C31.3118 12.0821 30.8389 12.8387 30.8389 13.5008L30.4604 18.9867C30.4604 19.2703 30.5548 19.4596 30.7441 19.7432C30.7446 19.8381 31.0287 19.9326 31.3123 19.9326ZM32.6367 13.5952C32.6367 13.5008 32.7311 13.4059 32.8259 13.3116C33.3937 13.0279 33.8666 12.7438 34.4339 12.555L35.8526 15.1087C36.0418 15.3923 36.3254 15.5816 36.704 15.5816H37.9334C38.3119 15.5816 38.5955 15.3923 38.7848 15.1087L40.2034 12.555C40.6763 12.7443 41.2441 13.0279 41.8114 13.3116C41.9058 13.4059 42.0007 13.5008 42.0007 13.5952L42.2843 18.041H32.2582L32.6367 13.5952Z" fill="url(#paint5_linear_5985_4336)"/>
<path d="M37.2712 10.6629C39.0684 10.6629 40.5819 8.39283 40.5819 6.59564C40.5819 4.79845 39.0684 3.28489 37.2712 3.28489C35.474 3.28489 33.9604 4.79845 33.9604 6.59564C33.866 8.39283 35.3796 10.6629 37.2712 10.6629ZM37.2712 5.08258C38.0277 5.08258 38.6898 5.74473 38.6898 6.50122C38.6898 7.447 37.8384 8.67696 37.2712 8.67696C36.609 8.67696 35.8525 7.44753 35.8525 6.50122C35.7581 5.74469 36.4198 5.08258 37.2712 5.08258Z" fill="url(#paint6_linear_5985_4336)"/>
<path d="M16.7455 14.4471C16.7455 15.0148 17.124 15.3929 17.6912 15.3929H25.4473C26.015 15.3929 26.3931 15.0143 26.3931 14.4471C26.3931 13.8793 26.0145 13.5013 25.4473 13.5013H17.6912C17.1235 13.5013 16.7455 13.9742 16.7455 14.4471Z" fill="url(#paint7_linear_5985_4336)"/>
<path d="M16.7455 18.9871C16.7455 19.5549 17.124 19.9329 17.6912 19.9329H27.8122C28.38 19.9329 28.758 19.5544 28.758 18.9871C28.758 18.4194 28.3795 18.0414 27.8122 18.0414H17.6912C17.1235 18.0414 16.7455 18.5142 16.7455 18.9871Z" fill="url(#paint8_linear_5985_4336)"/>
<path d="M21.4751 25.0414C21.4751 24.4736 21.0966 24.0956 20.5293 24.0956H17.6915C17.1238 24.0956 16.7458 24.4741 16.7458 25.0414C16.7458 25.6091 17.1243 25.9872 17.6915 25.9872H20.5293C21.0017 25.9872 21.4751 25.5143 21.4751 25.0414Z" fill="url(#paint9_linear_5985_4336)"/>
<path d="M38.5004 25.0414C38.5004 24.4736 38.1218 24.0956 37.5546 24.0956H34.7168C34.149 24.0956 33.771 24.4741 33.771 25.0414C33.771 25.6091 34.1495 25.9872 34.7168 25.9872H37.5546C38.0275 25.9872 38.5004 25.5143 38.5004 25.0414Z" fill="url(#paint10_linear_5985_4336)"/>
<path d="M43.23 24.0947H40.3922C39.8245 24.0947 39.4464 24.4732 39.4464 25.0405C39.4464 25.6082 39.8249 25.9863 40.3922 25.9863H43.23C43.7978 25.9863 44.1758 25.6078 44.1758 25.0405C44.1758 24.4727 43.7029 24.0947 43.23 24.0947Z" fill="url(#paint11_linear_5985_4336)"/>
<path d="M26.2035 24.0947H23.3657C22.798 24.0947 22.42 24.4732 22.42 25.0405C22.42 25.6082 22.7985 25.9863 23.3657 25.9863H26.2035C26.7713 25.9863 27.1493 25.6078 27.1493 25.0405C27.1498 24.4727 26.6769 24.0947 26.2035 24.0947Z" fill="url(#paint12_linear_5985_4336)"/>
<path d="M28.0956 25.0414C28.0956 25.6091 28.4741 25.9872 29.0414 25.9872H31.8792C32.447 25.9872 32.825 25.6087 32.825 25.0414C32.825 24.4736 32.4465 24.0956 31.8792 24.0956H29.0414C28.4737 24.0956 28.0956 24.4736 28.0956 25.0414Z" fill="url(#paint13_linear_5985_4336)"/>
<defs>
<linearGradient id="paint0_linear_5985_4336" x1="49.7048" y1="43.2777" x2="49.7048" y2="55.3635" gradientUnits="userSpaceOnUse">
<stop stop-color="#ED3040"/>
<stop offset="1" stop-color="#2D23F4"/>
</linearGradient>
<linearGradient id="paint1_linear_5985_4336" x1="49.7048" y1="43.2777" x2="49.7048" y2="55.3635" gradientUnits="userSpaceOnUse">
<stop stop-color="#ED3040"/>
<stop offset="1" stop-color="#2D23F4"/>
</linearGradient>
<linearGradient id="paint2_linear_5985_4336" x1="49.7048" y1="43.2777" x2="49.7048" y2="55.3635" gradientUnits="userSpaceOnUse">
<stop stop-color="#ED3040"/>
<stop offset="1" stop-color="#2D23F4"/>
</linearGradient>
<linearGradient id="paint3_linear_5985_4336" x1="49.7048" y1="43.2777" x2="49.7048" y2="55.3635" gradientUnits="userSpaceOnUse">
<stop stop-color="#ED3040"/>
<stop offset="1" stop-color="#2D23F4"/>
</linearGradient>
<linearGradient id="paint4_linear_5985_4336" x1="49.7048" y1="43.2777" x2="49.7048" y2="55.3635" gradientUnits="userSpaceOnUse">
<stop stop-color="#ED3040"/>
<stop offset="1" stop-color="#2D23F4"/>
</linearGradient>
<linearGradient id="paint5_linear_5985_4336" x1="49.7048" y1="43.2777" x2="49.7048" y2="55.3635" gradientUnits="userSpaceOnUse">
<stop stop-color="#ED3040"/>
<stop offset="1" stop-color="#2D23F4"/>
</linearGradient>
<linearGradient id="paint6_linear_5985_4336" x1="49.7048" y1="43.2777" x2="49.7048" y2="55.3635" gradientUnits="userSpaceOnUse">
<stop stop-color="#ED3040"/>
<stop offset="1" stop-color="#2D23F4"/>
</linearGradient>
<linearGradient id="paint7_linear_5985_4336" x1="49.7048" y1="43.2777" x2="49.7048" y2="55.3635" gradientUnits="userSpaceOnUse">
<stop stop-color="#ED3040"/>
<stop offset="1" stop-color="#2D23F4"/>
</linearGradient>
<linearGradient id="paint8_linear_5985_4336" x1="49.7048" y1="43.2777" x2="49.7048" y2="55.3635" gradientUnits="userSpaceOnUse">
<stop stop-color="#ED3040"/>
<stop offset="1" stop-color="#2D23F4"/>
</linearGradient>
<linearGradient id="paint9_linear_5985_4336" x1="49.7048" y1="43.2777" x2="49.7048" y2="55.3635" gradientUnits="userSpaceOnUse">
<stop stop-color="#ED3040"/>
<stop offset="1" stop-color="#2D23F4"/>
</linearGradient>
<linearGradient id="paint10_linear_5985_4336" x1="49.7048" y1="43.2777" x2="49.7048" y2="55.3635" gradientUnits="userSpaceOnUse">
<stop stop-color="#ED3040"/>
<stop offset="1" stop-color="#2D23F4"/>
</linearGradient>
<linearGradient id="paint11_linear_5985_4336" x1="49.7048" y1="43.2777" x2="49.7048" y2="55.3635" gradientUnits="userSpaceOnUse">
<stop stop-color="#ED3040"/>
<stop offset="1" stop-color="#2D23F4"/>
</linearGradient>
<linearGradient id="paint12_linear_5985_4336" x1="49.7048" y1="43.2777" x2="49.7048" y2="55.3635" gradientUnits="userSpaceOnUse">
<stop stop-color="#ED3040"/>
<stop offset="1" stop-color="#2D23F4"/>
</linearGradient>
<linearGradient id="paint13_linear_5985_4336" x1="49.7048" y1="43.2777" x2="49.7048" y2="55.3635" gradientUnits="userSpaceOnUse">
<stop stop-color="#ED3040"/>
<stop offset="1" stop-color="#2D23F4"/>
</linearGradient>
</defs>
</svg>
