<svg width="73" height="62" viewBox="0 0 73 62" fill="none" xmlns="http://www.w3.org/2000/svg">
<path d="M14.5962 44.517H3.02245C1.49835 44.517 0.257812 45.7574 0.257812 47.282V58.8558C0.257812 60.3805 1.49827 61.6204 3.02245 61.6204H14.5962C16.1209 61.6204 17.3609 60.38 17.3609 58.8558V47.282C17.3614 45.7574 16.121 44.517 14.5962 44.517ZM15.2345 58.8554C15.2345 59.2009 14.9424 59.4936 14.5962 59.4936H3.02245C2.67688 59.4936 2.38421 59.2015 2.38421 58.8554V47.2816C2.38421 46.936 2.67631 46.6434 3.02245 46.6434H14.5962C14.9418 46.6434 15.2345 46.9355 15.2345 47.2816V58.8554Z" fill="url(#paint0_linear_5985_2860)"/>
<path d="M68.7041 24.334H30.5586C28.278 24.334 26.423 26.1891 26.423 28.4696V37.3019C26.423 39.5825 28.278 41.4375 30.5586 41.4375H68.7041C70.9846 41.4375 72.8397 39.5825 72.8397 37.3019V28.4696C72.8397 26.1891 70.9846 24.334 68.7041 24.334ZM70.7128 37.3019C70.7128 38.4096 69.8117 39.3106 68.7041 39.3106L30.5586 39.31C29.4509 39.31 28.5499 38.409 28.5499 37.3014V28.4691C28.5499 27.3614 29.451 26.4604 30.5586 26.4604H68.7041C69.8117 26.4604 70.7128 27.3615 70.7128 28.4691V37.3019Z" fill="url(#paint1_linear_5985_2860)"/>
<path d="M32.6199 12.7024C32.6199 13.2894 33.0961 13.7655 33.6831 13.7655H65.5986C66.1856 13.7655 66.6617 13.2894 66.6617 12.7024C66.6617 12.1153 66.1856 11.6392 65.5986 11.6392L33.6831 11.6386C33.0961 11.6386 32.6199 12.1148 32.6199 12.7024Z" fill="url(#paint2_linear_5985_2860)"/>
<path d="M65.5987 31.8234H33.6833C33.0962 31.8234 32.6201 32.2995 32.6201 32.8866C32.6201 33.4741 33.0962 33.9497 33.6833 33.9497H65.5987C66.1857 33.9497 66.6619 33.4736 66.6619 32.8866C66.6625 32.299 66.1863 31.8234 65.5987 31.8234Z" fill="url(#paint3_linear_5985_2860)"/>
<path d="M66.6621 53.0696C66.6621 52.4821 66.1859 52.0065 65.5989 52.0065H33.6834C33.0964 52.0065 32.6203 52.4826 32.6203 53.0696C32.6203 53.6572 33.0964 54.1328 33.6834 54.1328H65.5989C66.1865 54.1334 66.6621 53.6572 66.6621 53.0696Z" fill="url(#paint4_linear_5985_2860)"/>
<path d="M23.3497 21.9192C21.8318 20.6197 19.5401 20.7975 18.241 22.3155L15.7641 25.2089C15.0482 24.6489 14.1618 24.3337 13.228 24.3337H4.39569C2.11517 24.3343 0.260117 26.1894 0.260117 28.4693V37.3016C0.260117 39.5822 2.11517 41.4372 4.39569 41.4372H13.228C15.5085 41.4372 17.3636 39.5822 17.3636 37.3016V34.4847L23.7465 27.0285C24.3758 26.2934 24.6814 25.3569 24.6065 24.3916C24.5311 23.427 24.0848 22.549 23.3497 21.9192ZM15.2367 37.3028C15.2367 38.4104 14.3356 39.3115 13.228 39.3115L4.39569 39.3109C3.28806 39.3109 2.38705 38.4098 2.38705 37.3022V28.4699C2.38705 27.3623 3.28812 26.4613 4.39569 26.4613C13.9928 26.4613 13.6866 26.338 14.3784 26.8282L12.0128 29.5923C11.2637 28.6186 11.2035 28.5224 10.9519 28.2821C8.81044 26.2345 5.23823 27.5025 4.85598 30.4343C4.73104 31.3939 4.98712 32.3451 5.57695 33.1122L8.99039 37.5501C9.15755 37.7673 9.34609 37.9626 9.55207 38.1337C10.2258 38.6926 11.0756 38.9633 11.7691 38.9633C13.7361 38.9633 14.501 37.8304 15.2359 36.9715L15.2367 37.3028ZM22.1301 25.6458L12.9995 36.3128C12.3838 37.0316 11.257 37.0068 10.6762 36.252L7.26276 31.8142C6.25476 30.5045 7.81545 28.7767 9.22141 29.6214C9.5484 29.8178 9.56079 29.8916 11.126 31.9267C11.5358 32.4591 12.3355 32.485 12.7768 31.9701L19.8565 23.6995C20.3934 23.0725 21.3395 22.9994 21.967 23.5357C22.2709 23.7958 22.4549 24.1588 22.4859 24.5572C22.5169 24.9557 22.3901 25.3424 22.1301 25.6458Z" fill="url(#paint5_linear_5985_2860)"/>
<path d="M4.39583 21.2536H13.2282C15.5087 21.2536 17.3637 19.3985 17.3637 17.118V14.3011L23.7467 6.84487C25.0457 5.32697 24.8684 3.03521 23.3505 1.7356C21.8326 0.436055 19.5408 0.613895 18.2412 2.13182L15.7643 5.02526C15.0484 4.46526 14.162 4.15008 13.2282 4.15008H4.39583C2.11531 4.15008 0.260262 6.00513 0.260262 8.28565V17.118C0.260262 19.3979 2.11531 21.2536 4.39583 21.2536ZM19.8558 3.51428C20.3927 2.8873 21.3388 2.81413 21.9663 3.3505C22.5933 3.88744 22.6664 4.83411 22.13 5.46101L12.9989 16.1281C12.3871 16.8429 11.2598 16.8265 10.6756 16.0673L7.26214 11.6294C6.47477 10.6062 7.27171 9.11752 8.57408 9.22789C9.41211 9.29881 9.58377 9.73781 11.1253 11.742C11.5424 12.284 12.3438 12.2902 12.7761 11.7853C13.5528 10.8775 19.1369 4.35456 19.8558 3.51428ZM2.3859 8.28525C2.3859 7.17762 3.28697 6.27661 4.39453 6.27661C13.9917 6.27661 13.6855 6.15335 14.3772 6.64357L12.0111 9.40763C11.2699 8.44408 11.1888 8.31464 10.8855 8.03829C8.72425 6.07072 5.23201 7.35503 4.85437 10.2491C4.72942 11.2087 4.98551 12.1599 5.57534 12.927L8.98877 17.3642C10.4037 19.2036 13.1323 19.2412 14.6136 17.5111L15.2349 16.7851V17.1172C15.2349 18.2248 14.3338 19.1258 13.2263 19.1258L4.39452 19.1264C3.28689 19.1264 2.38588 18.2253 2.38588 17.1177L2.3859 8.28525Z" fill="url(#paint6_linear_5985_2860)"/>
<path d="M68.7138 4.15112H52.1228C51.5358 4.15112 51.0596 4.62727 51.0596 5.21428C51.0596 5.8013 51.5358 6.27745 52.1228 6.27745H68.7138C69.8214 6.27745 70.7224 7.17852 70.7224 8.28609V17.1184C70.7224 18.226 69.8213 19.1271 68.7138 19.1271L30.5682 19.1276C29.4606 19.1276 28.5596 18.2266 28.5596 17.119V8.28665C28.5596 7.17902 29.4607 6.27801 30.5682 6.27801H47.1592C47.7462 6.27801 48.2224 5.80186 48.2224 5.21485C48.2224 4.62783 47.7462 4.15169 47.1592 4.15169L30.5682 4.15112C28.2877 4.15112 26.4326 6.00617 26.4326 8.28669V17.119C26.4326 19.3995 28.2877 21.2546 30.5682 21.2546H68.7138C70.9943 21.2546 72.8493 19.3995 72.8493 17.119V8.28669C72.8493 6.00617 70.9943 4.15112 68.7138 4.15112Z" fill="url(#paint7_linear_5985_2860)"/>
<path d="M68.7138 44.517H30.5682C28.2877 44.517 26.4326 46.372 26.4326 48.6525V57.4849C26.4326 59.7654 28.2877 61.6204 30.5682 61.6204H47.1592C47.7462 61.6204 48.2224 61.1443 48.2224 60.5573C48.2224 59.9697 47.7462 59.4941 47.1592 59.4941L30.5682 59.4936C29.4606 59.4936 28.5596 58.5925 28.5596 57.4849V48.6526C28.5596 47.545 29.4607 46.6439 30.5682 46.6439H68.7138C69.8214 46.6439 70.7224 47.545 70.7224 48.6526V57.4849C70.7224 58.5925 69.8213 59.4936 68.7138 59.4936H52.1228C51.5358 59.4936 51.0596 59.9697 51.0596 60.5567C51.0596 61.1443 51.5358 61.6199 52.1228 61.6199H68.7138C70.9943 61.6199 72.8493 59.7648 72.8493 57.4843V48.652C72.8493 46.372 70.9943 44.517 68.7138 44.517Z" fill="url(#paint8_linear_5985_2860)"/>
<defs>
<linearGradient id="paint0_linear_5985_2860" x1="59.5332" y1="44.3657" x2="59.5332" y2="56.5331" gradientUnits="userSpaceOnUse">
<stop stop-color="#ED3040"/>
<stop offset="1" stop-color="#2D23F4"/>
</linearGradient>
<linearGradient id="paint1_linear_5985_2860" x1="59.5332" y1="44.3657" x2="59.5332" y2="56.5331" gradientUnits="userSpaceOnUse">
<stop stop-color="#ED3040"/>
<stop offset="1" stop-color="#2D23F4"/>
</linearGradient>
<linearGradient id="paint2_linear_5985_2860" x1="59.5332" y1="44.3657" x2="59.5332" y2="56.5331" gradientUnits="userSpaceOnUse">
<stop stop-color="#ED3040"/>
<stop offset="1" stop-color="#2D23F4"/>
</linearGradient>
<linearGradient id="paint3_linear_5985_2860" x1="59.5332" y1="44.3657" x2="59.5332" y2="56.5331" gradientUnits="userSpaceOnUse">
<stop stop-color="#ED3040"/>
<stop offset="1" stop-color="#2D23F4"/>
</linearGradient>
<linearGradient id="paint4_linear_5985_2860" x1="59.5332" y1="44.3657" x2="59.5332" y2="56.5331" gradientUnits="userSpaceOnUse">
<stop stop-color="#ED3040"/>
<stop offset="1" stop-color="#2D23F4"/>
</linearGradient>
<linearGradient id="paint5_linear_5985_2860" x1="59.5332" y1="44.3657" x2="59.5332" y2="56.5331" gradientUnits="userSpaceOnUse">
<stop stop-color="#ED3040"/>
<stop offset="1" stop-color="#2D23F4"/>
</linearGradient>
<linearGradient id="paint6_linear_5985_2860" x1="59.5332" y1="44.3657" x2="59.5332" y2="56.5331" gradientUnits="userSpaceOnUse">
<stop stop-color="#ED3040"/>
<stop offset="1" stop-color="#2D23F4"/>
</linearGradient>
<linearGradient id="paint7_linear_5985_2860" x1="59.5332" y1="44.3657" x2="59.5332" y2="56.5331" gradientUnits="userSpaceOnUse">
<stop stop-color="#ED3040"/>
<stop offset="1" stop-color="#2D23F4"/>
</linearGradient>
<linearGradient id="paint8_linear_5985_2860" x1="59.5332" y1="44.3657" x2="59.5332" y2="56.5331" gradientUnits="userSpaceOnUse">
<stop stop-color="#ED3040"/>
<stop offset="1" stop-color="#2D23F4"/>
</linearGradient>
</defs>
</svg>
