<svg width="25" height="24" viewBox="0 0 25 24" fill="none" xmlns="http://www.w3.org/2000/svg">
<path d="M16.6176 2.21048C16.2076 1.80048 15.4976 2.08048 15.4976 2.65048V6.14048C15.4976 7.60048 16.7376 8.81048 18.2476 8.81048C19.1976 8.82048 20.5176 8.82048 21.6476 8.82048C22.2176 8.82048 22.5176 8.15048 22.1176 7.75048C20.6776 6.30048 18.0976 3.69048 16.6176 2.21048Z" fill="#FFE15A"/>
<path d="M15.5777 19.2618C13.2277 19.4318 13.2277 22.8318 15.5777 23.0018H21.1377C21.8077 23.0018 22.4677 22.7518 22.9577 22.3018C24.6077 20.8618 23.7277 17.9818 21.5577 17.7118C20.7777 13.0218 13.9977 14.8018 15.5977 19.2718" fill="#FFE15A"/>
<path d="M22.3176 11.19V14.44C22.3176 14.74 21.8776 14.88 21.6576 14.67C21.1776 14.2 20.5876 13.84 19.9076 13.63C18.2276 13.11 16.2776 13.62 15.0676 14.9C14.2576 15.74 13.8476 16.81 13.8576 17.97C13.8576 18.16 13.7676 18.33 13.6176 18.44C12.8176 19.05 12.3176 20.01 12.3176 21.12C12.3176 21.2 12.3176 21.28 12.3276 21.36C12.3476 21.68 12.1176 21.99 11.7876 21.99H8.88763C5.80763 21.99 3.31763 19.99 3.31763 16.42V7.57C3.31763 4 5.80763 2 8.88763 2H13.1276C13.6776 2 14.1276 2.45 14.1276 3V5.89C14.1276 8.27 16.0476 10.19 18.4276 10.19H21.3176C21.8676 10.19 22.3176 10.64 22.3176 11.19Z" fill="#FFE15A"/>
</svg>
