<svg width="17" height="20" viewBox="0 0 17 20" fill="none" xmlns="http://www.w3.org/2000/svg">
<path d="M14.8164 20H2.81641C2.26641 20 1.79574 19.8043 1.40441 19.413C1.01241 19.021 0.816406 18.55 0.816406 18V2C0.816406 1.45 1.01241 0.979 1.40441 0.587C1.79574 0.195667 2.26641 0 2.81641 0H9.99141C10.2581 0 10.5124 0.0500001 10.7544 0.15C10.9957 0.25 11.2081 0.391667 11.3914 0.575L16.2414 5.425C16.4247 5.60833 16.5664 5.82067 16.6664 6.062C16.7664 6.304 16.8164 6.55833 16.8164 6.825V18C16.8164 18.55 16.6207 19.021 16.2294 19.413C15.8374 19.8043 15.3664 20 14.8164 20ZM8.81641 15.75C10.1164 15.75 11.2331 15.2833 12.1664 14.35C13.0997 13.4167 13.5664 12.3 13.5664 11C13.5664 9.7 13.0997 8.58333 12.1664 7.65C11.2331 6.71667 10.1164 6.25 8.81641 6.25C8.18307 6.25 7.59141 6.36667 7.04141 6.6C6.49141 6.83333 5.99974 7.15 5.56641 7.55V6.75C5.56641 6.53333 5.49574 6.354 5.35441 6.212C5.21241 6.07067 5.03307 6 4.81641 6C4.59974 6 4.42074 6.07067 4.27941 6.212C4.13741 6.354 4.06641 6.53333 4.06641 6.75V9.25C4.06641 9.53333 4.16207 9.77067 4.35341 9.962C4.54541 10.154 4.78307 10.25 5.06641 10.25H7.56641C7.78307 10.25 7.96241 10.179 8.10441 10.037C8.24574 9.89567 8.31641 9.71667 8.31641 9.5C8.31641 9.28333 8.24574 9.104 8.10441 8.962C7.96241 8.82067 7.78307 8.75 7.56641 8.75H6.51641C6.79974 8.45 7.14141 8.20833 7.54141 8.025C7.94141 7.84167 8.36641 7.75 8.81641 7.75C9.71641 7.75 10.4831 8.06667 11.1164 8.7C11.7497 9.33333 12.0664 10.1 12.0664 11C12.0664 11.9 11.7497 12.6667 11.1164 13.3C10.4831 13.9333 9.71641 14.25 8.81641 14.25C8.16641 14.25 7.58707 14.0793 7.07841 13.738C6.57041 13.396 6.17474 12.95 5.89141 12.4C5.84141 12.2833 5.75807 12.1877 5.64141 12.113C5.52474 12.0377 5.39974 12 5.26641 12C4.94974 12 4.71241 12.1083 4.55441 12.325C4.39574 12.5417 4.38307 12.7833 4.51641 13.05C4.89974 13.85 5.47474 14.5 6.24141 15C7.00807 15.5 7.86641 15.75 8.81641 15.75Z" fill="#FFE15A"/>
</svg>
