<svg width="195" height="195" viewBox="0 0 195 195" fill="none" xmlns="http://www.w3.org/2000/svg">
<rect width="195" height="195" fill="#DAE4F5"/>
<g clip-path="url(#clip0_4881_10770)">
<path d="M174.083 153.081C167.996 133.479 150.248 119.6 129.773 119.088C129.342 119.079 128.911 119.07 128.475 119.07H65.6617C52.6511 119.07 40.7825 123.97 31.7755 132.022C26.8032 136.467 23.0884 142.155 20.7822 148.422C19.2803 152.497 18.0939 156.39 17.1786 159.744C15.4945 165.917 14.668 172.291 14.668 178.686V194.997H179.469V187.073C179.469 176.036 177.803 165.057 174.532 154.519L174.083 153.081ZM68.6255 124.468H125.52C126.68 124.468 127.835 124.562 128.973 124.642L117.269 186.218H76.8504L65.1551 124.642C66.306 124.558 67.4569 124.468 68.6255 124.468Z" fill="#1E417C"/>
<path d="M42.8135 59.558C42.8135 89.5955 67.1061 113.945 97.0732 113.945C127.04 113.945 151.32 89.5955 151.32 59.558C151.32 29.5205 127.027 5.17969 97.0732 5.17969C67.1195 5.17969 42.8135 29.5294 42.8135 59.558Z" fill="#1E417C"/>
<path d="M103.412 144.045H103.421L109.718 194.998H117.262C121.846 165.402 125.416 148.596 130 119C128.855 118.896 126.701 118.998 125.538 118.998H68.4803C67.3083 118.998 64.6542 118.901 63.5 119L76.7287 194.998H84.2954L90.5875 144.045H90.8192L84.634 130.055H109.388L103.19 144.045H103.412Z" fill="white"/>
<path d="M84 195H110L103.564 144.002H103.555H103.327L109.667 130H84.3464L90.6732 144.002H90.4362L84 195Z" fill="#C22032"/>
</g>
<defs>
<clipPath id="clip0_4881_10770">
<rect width="164.801" height="189.823" fill="white" transform="translate(14.668 5.17969)"/>
</clipPath>
</defs>
</svg>
