<svg width="24" height="24" viewBox="0 0 24 24" fill="none" xmlns="http://www.w3.org/2000/svg">
<path d="M18.1247 7C17.8926 7 17.67 7.08616 17.5058 7.23951C17.3417 7.39287 17.2495 7.60087 17.2495 7.81775V11.0888C17.2495 11.3056 17.1572 11.5136 16.9931 11.667C16.8289 11.8203 16.6063 11.9065 16.3742 11.9065H7.98032L9.11817 10.8516C9.28299 10.6976 9.37558 10.4888 9.37558 10.271C9.37558 10.0532 9.28299 9.84439 9.11817 9.6904C8.95335 9.53641 8.72981 9.44991 8.49673 9.44991C8.26364 9.44991 8.0401 9.53641 7.87528 9.6904L5.24946 12.1437C5.16978 12.2214 5.10732 12.3131 5.06566 12.4135C4.97811 12.6126 4.97811 12.8359 5.06566 13.035C5.10732 13.1354 5.16978 13.2271 5.24946 13.3049L7.87528 15.7581C7.95665 15.8348 8.05346 15.8956 8.16012 15.9371C8.26678 15.9786 8.38118 16 8.49673 16C8.61227 16 8.72668 15.9786 8.83334 15.9371C8.94 15.8956 9.0368 15.8348 9.11817 15.7581C9.20021 15.6821 9.26532 15.5916 9.30976 15.492C9.3542 15.3923 9.37707 15.2855 9.37707 15.1775C9.37707 15.0696 9.3542 14.9627 9.30976 14.863C9.26532 14.7634 9.20021 14.6729 9.11817 14.5969L7.98032 13.542H16.3742C17.0706 13.542 17.7385 13.2835 18.2309 12.8235C18.7234 12.3634 19 11.7394 19 11.0888V7.81775C19 7.60087 18.9078 7.39287 18.7436 7.23951C18.5795 7.08616 18.3569 7 18.1247 7Z" fill="url(#paint0_linear_3785_1725)"/>
<rect x="0.5" y="0.5" width="23" height="23" rx="7.5" stroke="url(#paint1_linear_3785_1725)"/>
<defs>
<linearGradient id="paint0_linear_3785_1725" x1="5" y1="11.557" x2="19.2234" y2="11.557" gradientUnits="userSpaceOnUse">
<stop stop-color="#07A1C0"/>
<stop offset="1" stop-color="#99D592"/>
</linearGradient>
<linearGradient id="paint1_linear_3785_1725" x1="3.03276e-08" y1="12.1519" x2="24.383" y2="12.1519" gradientUnits="userSpaceOnUse">
<stop stop-color="#07A1C0"/>
<stop offset="1" stop-color="#99D592"/>
</linearGradient>
</defs>
</svg>
