<svg
                      width="137"
                      height="164"
                      viewBox="0 0 137 164"
                      fill="none"
                      xmlns="http://www.w3.org/2000/svg"
                    >
                      <g clip-path="url(#clip0_2858_1350)">
                        <path
                          d="M95.5115 10.6191L124.027 40.3441V153.381H17.5039V153.75H124.391V40.7183L95.5115 10.6191Z"
                          fill="#909090"
                        />
                        <path
                          d="M95.1585 10.25H17.1406V153.381H124.028V40.3491L95.1534 10.25"
                          fill="#F4F4F4"
                        />
                        <path
                          d="M27.8403 18H0.5V53H86.5V18H27.8403Z"
                          fill="#7A7B7C"
                        />
                        <path
                          d="M87.1681 52.3304H0.5V17.3164H87.1681V52.3304Z"
                          fill="#DD2025"
                        />
                        <path
                          d="M18.3917 23.2363H18.238H17.1771H11.6934V47.8363H16.9619V39.539L18.1252 39.6056C19.2557 39.5861 20.3755 39.3836 21.4411 39.006C22.3754 38.6846 23.2349 38.1773 23.9677 37.5146C24.7134 36.8833 25.3013 36.0865 25.6846 35.1878C26.1986 33.6939 26.3822 32.1062 26.2227 30.5343C26.1907 29.4115 25.9939 28.2994 25.6385 27.2338C25.315 26.4646 24.8348 25.7712 24.2287 25.1976C23.6225 24.6241 22.9036 24.1831 22.1176 23.9026C21.4381 23.6566 20.736 23.478 20.0215 23.3696C19.4804 23.2861 18.9341 23.2416 18.3866 23.2363M17.418 34.9931H16.9619V27.4081H17.951C18.3875 27.3766 18.8256 27.4436 19.2327 27.6042C19.6399 27.7647 20.0058 28.0147 20.3034 28.3357C20.92 29.1609 21.2494 30.1653 21.2412 31.1955C21.2412 32.4562 21.2412 33.5991 20.1035 34.4037C19.2838 34.8545 18.3509 35.0575 17.418 34.988"
                          fill="#464648"
                        />
                        <path
                          d="M36.2311 23.1692C35.6622 23.1692 35.1087 23.2102 34.7192 23.2256L33.4995 23.2563H29.502V47.8563H34.2067C36.0047 47.9056 37.7948 47.6008 39.4752 46.9594C40.8278 46.423 42.0254 45.5581 42.9602 44.4431C43.8692 43.3179 44.5216 42.0078 44.8718 40.6044C45.2745 39.015 45.4708 37.3804 45.4561 35.7408C45.5555 33.8044 45.4056 31.8632 45.0102 29.9649C44.635 28.5677 43.9322 27.2799 42.9602 26.2083C42.1976 25.343 41.264 24.645 40.2183 24.1583C39.3203 23.7428 38.3757 23.4365 37.4047 23.2461C37.0186 23.1823 36.6275 23.1531 36.2362 23.1589M35.3035 43.3361H34.791V27.6331H34.8576C35.9141 27.5115 36.9832 27.7021 37.9326 28.1814C38.6278 28.7366 39.1944 29.436 39.5931 30.2314C40.0233 31.0685 40.2714 31.9873 40.3208 32.9272C40.367 34.0547 40.3208 34.9772 40.3208 35.7408C40.3417 36.6204 40.2851 37.5002 40.1517 38.3699C39.9937 39.2629 39.7017 40.1268 39.2856 40.9324C38.8145 41.6815 38.1781 42.3126 37.4252 42.7774C36.7929 43.1864 36.0441 43.3772 35.2932 43.3207"
                          fill="#464648"
                        />
                        <path
                          d="M61.3288 23.2578H48.875V47.8578H54.1435V38.0998H60.806V33.5283H54.1435V27.8293H61.3185V23.2578"
                          fill="#464648"
                        />
                        <path
                          d="M83.6275 103.806C83.6275 103.806 99.966 100.844 99.966 106.425C99.966 112.006 89.8441 109.736 83.6275 103.806ZM71.5479 104.232C68.952 104.805 66.4223 105.645 63.9988 106.738L66.0488 102.125C68.0988 97.5128 70.2256 91.2244 70.2256 91.2244C72.6718 95.3415 75.518 99.2073 78.7229 102.766C76.306 103.126 73.9107 103.619 71.5479 104.242V104.232ZM65.0801 70.9191C65.0801 66.0555 66.6535 64.7281 67.8784 64.7281C69.1033 64.7281 70.4819 65.3175 70.528 69.5405C70.129 73.7869 69.2398 77.9728 67.8784 82.0148C66.0135 78.6212 65.0484 74.8067 65.075 70.9345L65.0801 70.9191ZM41.254 124.814C36.2418 121.816 51.7654 112.585 54.579 112.288C54.5636 112.293 46.502 127.95 41.254 124.814ZM104.737 107.086C104.686 106.574 104.225 100.9 94.1286 101.141C89.9204 101.073 85.7141 101.37 81.557 102.028C77.5301 97.9709 74.0624 93.395 71.2455 88.421C73.0202 83.2931 74.0942 77.9489 74.4384 72.5335C74.2898 66.3835 72.8189 62.8575 68.1039 62.9088C63.3889 62.96 62.7021 67.0856 63.3223 73.2254C63.9297 77.3513 65.0755 81.3797 66.7304 85.2076C66.7304 85.2076 64.5523 91.988 61.672 98.7325C58.7918 105.477 56.8238 109.013 56.8238 109.013C51.8152 110.644 47.1003 113.066 42.8581 116.188C38.6351 120.119 36.9183 123.138 39.1425 126.156C41.0593 128.76 47.7679 129.349 53.7641 121.493C56.9501 117.435 59.8608 113.168 62.4766 108.721C62.4766 108.721 71.6196 106.215 74.464 105.528C77.3084 104.842 80.7473 104.298 80.7473 104.298C80.7473 104.298 89.0959 112.698 97.1473 112.401C105.199 112.104 104.809 107.589 104.758 107.097"
                          fill="#DD2025"
                        />
                        <path
                          d="M94.7637 10.6445V40.7437H123.633L94.7637 10.6445Z"
                          fill="#909090"
                        />
                        <path
                          d="M95.1582 10.25V40.3491H124.027L95.1582 10.25Z"
                          fill="#F4F4F4"
                        />
                        <path
                          d="M17.9972 22.8418H17.8435H16.7826H11.2988V47.4418H16.5878V39.1495L17.7563 39.2162C18.8868 39.1967 20.0066 38.9942 21.0722 38.6165C22.0064 38.2951 22.8659 37.7878 23.5988 37.1252C24.3389 36.4922 24.9215 35.6956 25.3003 34.7984C25.8143 33.3045 25.9979 31.7168 25.8385 30.1449C25.8064 29.0221 25.6096 27.91 25.2542 26.8444C24.9307 26.0752 24.4506 25.3818 23.8444 24.8082C23.2382 24.2347 22.5193 23.7937 21.7333 23.5132C21.0507 23.2648 20.3451 23.0845 19.627 22.975C19.0859 22.8916 18.5395 22.847 17.9921 22.8418M17.0235 34.5985H16.5673V27.0135H17.5616C17.9981 26.9821 18.4362 27.0491 18.8433 27.2096C19.2505 27.3702 19.6164 27.6202 19.914 27.9412C20.5306 28.7664 20.86 29.7708 20.8518 30.8009C20.8518 32.0617 20.8518 33.2045 19.7141 34.0092C18.8944 34.46 17.9614 34.663 17.0286 34.5934"
                          fill="white"
                        />
                        <path
                          d="M35.8368 22.7746C35.2679 22.7746 34.7144 22.8156 34.3249 22.831L33.1205 22.8618H29.123V47.4618H33.8278C35.6258 47.5111 37.4159 47.2063 39.0963 46.5649C40.4489 46.0284 41.6465 45.1636 42.5813 44.0485C43.4903 42.9234 44.1427 41.6133 44.4929 40.2099C44.8956 38.6205 45.0919 36.9858 45.0772 35.3463C45.1766 33.4098 45.0267 31.4686 44.6313 29.5704C44.2561 28.1731 43.5533 26.8854 42.5813 25.8138C41.8187 24.9485 40.8851 24.2505 39.8394 23.7638C38.9414 23.3482 37.9968 23.0419 37.0258 22.8515C36.6397 22.7877 36.2486 22.7586 35.8573 22.7644M34.9245 42.9415H34.412V27.2385H34.4787C35.5352 27.117 36.6043 27.3076 37.5537 27.7869C38.2489 28.3421 38.8155 29.0415 39.2142 29.8369C39.6444 30.674 39.8925 31.5927 39.9419 32.5326C39.988 33.6601 39.9419 34.5826 39.9419 35.3463C39.9628 36.2259 39.9062 37.1057 39.7728 37.9754C39.6148 38.8683 39.3228 39.7322 38.9067 40.5379C38.4356 41.2869 37.7992 41.9181 37.0463 42.3829C36.414 42.7919 35.6652 42.9827 34.9143 42.9261"
                          fill="white"
                        />
                        <path
                          d="M60.9342 22.8633H48.4805V47.4633H53.749V37.7053H60.4115V33.1338H53.749V27.4348H60.924V22.8633"
                          fill="white"
                        />
                      </g>
                      <defs>
                        <clipPath id="clip0_2858_1350">
                          <rect
                            width="136"
                            height="164"
                            fill="white"
                            transform="translate(0.5)"
                          />
                        </clipPath>
                      </defs>
                    </svg>