 <svg
                width="54"
                height="54"
                viewBox="0 0 54 54"
                fill="none"
                xmlns="http://www.w3.org/2000/svg"
              >
                <rect
                  width="54"
                  height="54"
                  rx="8"
                  fill="url(#paint0_linear_3785_1721)"
                />
                <path
                  fill-rule="evenodd"
                  clip-rule="evenodd"
                  d="M27.0001 8.67969C27.4051 8.67969 27.7934 8.84055 28.0797 9.12687C28.3661 9.4132 28.5269 9.80154 28.5269 10.2065V25.4743H43.7948C44.1997 25.4743 44.5881 25.6352 44.8744 25.9215C45.1607 26.2078 45.3216 26.5962 45.3216 27.0011C45.3216 27.406 45.1607 27.7944 44.8744 28.0807C44.5881 28.367 44.1997 28.5279 43.7948 28.5279H28.5269V43.7958C28.5269 44.2007 28.3661 44.589 28.0797 44.8754C27.7934 45.1617 27.4051 45.3225 27.0001 45.3225C26.5952 45.3225 26.2069 45.1617 25.9205 44.8754C25.6342 44.589 25.4734 44.2007 25.4734 43.7958V28.5279H10.2055C9.80057 28.5279 9.41222 28.367 9.1259 28.0807C8.83957 27.7944 8.67871 27.406 8.67871 27.0011C8.67871 26.5962 8.83957 26.2078 9.1259 25.9215C9.41222 25.6352 9.80057 25.4743 10.2055 25.4743H25.4734V10.2065C25.4734 9.80154 25.6342 9.4132 25.9205 9.12687C26.2069 8.84055 26.5952 8.67969 27.0001 8.67969Z"
                  fill="#151929"
                />
                <defs>
                  <linearGradient
                    id="paint0_linear_3785_1721"
                    x1="6.82371e-08"
                    y1="27.3418"
                    x2="54.8617"
                    y2="27.3418"
                    gradientUnits="userSpaceOnUse"
                  >
                    <stop stop-color="#07A1C0" />
                    <stop offset="1" stop-color="#99D592" />
                  </linearGradient>
                </defs>
              </svg>