<svg width="24" height="24" viewBox="0 0 24 24" fill="none" xmlns="http://www.w3.org/2000/svg">
<path d="M19.2 11.2012C18.9878 11.2012 18.7843 11.2854 18.6343 11.4355C18.4843 11.5855 18.4 11.789 18.4 12.0012C18.4095 13.4996 17.8962 14.9544 16.9485 16.1151C16.0008 17.2758 14.678 18.0697 13.208 18.36C11.7379 18.6504 10.2126 18.419 8.8948 17.7058C7.57698 16.9925 6.54912 15.8421 5.98826 14.4526C5.4274 13.063 5.36863 11.5214 5.8221 10.0932C6.27556 8.66503 7.21286 7.43967 8.47256 6.62819C9.73227 5.81671 11.2355 5.4699 12.7234 5.6475C14.2113 5.8251 15.5907 6.51598 16.624 7.60117H14.704C14.4918 7.60117 14.2883 7.68545 14.1383 7.83548C13.9883 7.98551 13.904 8.18899 13.904 8.40117C13.904 8.61334 13.9883 8.81682 14.1383 8.96685C14.2883 9.11688 14.4918 9.20116 14.704 9.20116H18.328C18.5402 9.20116 18.7437 9.11688 18.8937 8.96685C19.0437 8.81682 19.128 8.61334 19.128 8.40117V4.80117C19.128 4.589 19.0437 4.38551 18.8937 4.23549C18.7437 4.08546 18.5402 4.00117 18.328 4.00117C18.1158 4.00117 17.9123 4.08546 17.7623 4.23549C17.6123 4.38551 17.528 4.589 17.528 4.80117V6.21717C16.1957 4.94362 14.4646 4.16913 12.6272 4.02463C10.7898 3.88014 8.95891 4.37449 7.44394 5.42412C5.92897 6.47376 4.82289 8.01429 4.31267 9.78532C3.80244 11.5563 3.91937 13.4492 4.64369 15.144C5.36801 16.8387 6.65528 18.2314 8.28792 19.0866C9.92055 19.9418 11.7984 20.2071 13.604 19.8375C15.4097 19.468 17.0323 18.4863 18.1977 17.0585C19.3631 15.6307 19.9997 13.8442 20 12.0012C20 11.789 19.9157 11.5855 19.7657 11.4355C19.6157 11.2854 19.4122 11.2012 19.2 11.2012Z" fill="url(#paint0_linear_3785_1723)"/>
<rect x="0.5" y="0.5" width="23" height="23" rx="7.5" stroke="url(#paint1_linear_3785_1723)"/>
<defs>
<linearGradient id="paint0_linear_3785_1723" x1="4" y1="12.1013" x2="20.2553" y2="12.1013" gradientUnits="userSpaceOnUse">
<stop stop-color="#07A1C0"/>
<stop offset="1" stop-color="#99D592"/>
</linearGradient>
<linearGradient id="paint1_linear_3785_1723" x1="3.03276e-08" y1="12.1519" x2="24.383" y2="12.1519" gradientUnits="userSpaceOnUse">
<stop stop-color="#07A1C0"/>
<stop offset="1" stop-color="#99D592"/>
</linearGradient>
</defs>
</svg>
