<svg width="22" height="16" viewBox="0 0 22 16" fill="none" xmlns="http://www.w3.org/2000/svg">
<path d="M10.9989 10.9119C12.6056 10.9119 13.908 9.60949 13.908 8.00284C13.908 6.39619 12.6056 5.09375 10.9989 5.09375C9.39229 5.09375 8.08984 6.39619 8.08984 8.00284C8.08984 9.60949 9.39229 10.9119 10.9989 10.9119Z" fill="#57CD53"/>
<path d="M21.8641 7.75273C21.0087 5.54011 19.5237 3.62663 17.5927 2.24879C15.6616 0.87095 13.3692 0.089144 10.9986 0C8.62809 0.089144 6.33563 0.87095 4.40459 2.24879C2.47355 3.62663 0.98856 5.54011 0.133171 7.75273C0.0754014 7.91251 0.0754014 8.08749 0.133171 8.24727C0.98856 10.4599 2.47355 12.3734 4.40459 13.7512C6.33563 15.1291 8.62809 15.9109 10.9986 16C13.3692 15.9109 15.6616 15.1291 17.5927 13.7512C19.5237 12.3734 21.0087 10.4599 21.8641 8.24727C21.9219 8.08749 21.9219 7.91251 21.8641 7.75273ZM10.9986 12.7273C10.0637 12.7273 9.14969 12.45 8.37229 11.9306C7.5949 11.4111 6.98899 10.6728 6.6312 9.80905C6.2734 8.94525 6.17978 7.99476 6.36219 7.07775C6.54459 6.16075 6.99482 5.31843 7.65594 4.65731C8.31706 3.99619 9.15938 3.54596 10.0764 3.36356C10.9934 3.18116 11.9439 3.27477 12.8077 3.63257C13.6715 3.99037 14.4098 4.59627 14.9292 5.37367C15.4486 6.15106 15.7259 7.06503 15.7259 8C15.724 9.25316 15.2253 10.4544 14.3392 11.3406C13.4531 12.2267 12.2518 12.7253 10.9986 12.7273Z" fill="#57CD53"/>
</svg>
