<svg width="18" height="19" viewBox="0 0 18 19" fill="none" xmlns="http://www.w3.org/2000/svg">
<path d="M12.0986 3.35545H16.7802C16.9871 3.35545 17.1856 3.43766 17.3319 3.58399C17.4783 3.73032 17.5605 3.92878 17.5605 4.13572C17.5605 4.34267 17.4783 4.54113 17.3319 4.68746C17.1856 4.83379 16.9871 4.91599 16.7802 4.91599H15.9172L14.7437 15.4902C14.6377 16.4445 14.1835 17.3263 13.468 17.9666C12.7525 18.607 11.826 18.961 10.8658 18.9609H7.08925C6.12905 18.961 5.20253 18.607 4.48703 17.9666C3.77153 17.3263 3.31731 16.4445 3.21131 15.4902L2.03622 4.91599H1.1748C0.967861 4.91599 0.769396 4.83379 0.623067 4.68746C0.476738 4.54113 0.394531 4.34267 0.394531 4.13572C0.394531 3.92878 0.476738 3.73032 0.623067 3.58399C0.769396 3.43766 0.967861 3.35545 1.1748 3.35545H5.85642C5.85642 2.52769 6.18525 1.73383 6.77056 1.14852C7.35588 0.563202 8.14974 0.234375 8.9775 0.234375C9.80526 0.234375 10.5991 0.563202 11.1844 1.14852C11.7698 1.73383 12.0986 2.52769 12.0986 3.35545ZM8.9775 1.79491C8.56362 1.79491 8.16669 1.95933 7.87403 2.25199C7.58138 2.54464 7.41696 2.94157 7.41696 3.35545H10.538C10.538 2.94157 10.3736 2.54464 10.081 2.25199C9.78831 1.95933 9.39138 1.79491 8.9775 1.79491ZM6.63669 8.03707V14.2792C6.63669 14.4862 6.7189 14.6846 6.86523 14.831C7.01156 14.9773 7.21002 15.0595 7.41696 15.0595C7.6239 15.0595 7.82237 14.9773 7.9687 14.831C8.11502 14.6846 8.19723 14.4862 8.19723 14.2792V8.03707C8.19723 7.83013 8.11502 7.63167 7.9687 7.48534C7.82237 7.33901 7.6239 7.2568 7.41696 7.2568C7.21002 7.2568 7.01156 7.33901 6.86523 7.48534C6.7189 7.63167 6.63669 7.83013 6.63669 8.03707ZM10.538 7.2568C10.3311 7.2568 10.1326 7.33901 9.98631 7.48534C9.83998 7.63167 9.75777 7.83013 9.75777 8.03707V14.2792C9.75777 14.4862 9.83998 14.6846 9.98631 14.831C10.1326 14.9773 10.3311 15.0595 10.538 15.0595C10.745 15.0595 10.9434 14.9773 11.0898 14.831C11.2361 14.6846 11.3183 14.4862 11.3183 14.2792V8.03707C11.3183 7.83013 11.2361 7.63167 11.0898 7.48534C10.9434 7.33901 10.745 7.2568 10.538 7.2568Z" fill="#EF4949"/>
</svg>
