<svg width="23" height="23" viewBox="0 0 23 23" fill="none" xmlns="http://www.w3.org/2000/svg">
<path d="M15.6107 2.23438H7.76426C4.35604 2.23438 2.32422 4.2662 2.32422 7.67442V15.5114C2.32422 18.929 4.35604 20.9609 7.76426 20.9609H15.6013C19.0095 20.9609 21.0413 18.929 21.0413 15.5208V7.67442C21.0507 4.2662 19.0189 2.23438 15.6107 2.23438ZM10.7043 16.7568C10.4328 17.0283 9.91781 17.2905 9.54328 17.3466L7.23992 17.6744C7.15565 17.6837 7.07138 17.6931 6.98711 17.6931C6.60322 17.6931 6.24742 17.562 5.99461 17.3092C5.68562 17.0002 5.55454 16.5508 5.62944 16.0545L5.95716 13.7512C6.01334 13.3673 6.26614 12.8617 6.54704 12.5901L10.723 8.41411C10.798 8.61074 10.8729 8.80737 10.9759 9.03209C11.0695 9.22872 11.1725 9.43471 11.2848 9.62197C11.3785 9.78115 11.4815 9.93096 11.5657 10.0433C11.6687 10.2025 11.7905 10.3523 11.8654 10.4366C11.9122 10.5021 11.9496 10.5489 11.9684 10.5677C12.2024 10.8486 12.474 11.1107 12.7081 11.3074C12.7736 11.3729 12.811 11.4104 12.8298 11.4197C12.9702 11.5321 13.1107 11.6444 13.2324 11.7287C13.3822 11.8411 13.532 11.9441 13.6912 12.0283C13.8785 12.1407 14.0844 12.2437 14.2904 12.3467C14.5058 12.4403 14.7024 12.5246 14.899 12.5901L10.7043 16.7568ZM16.7155 10.7456L15.8541 11.6163C15.7979 11.6725 15.723 11.7006 15.6481 11.7006C15.62 11.7006 15.5826 11.7006 15.5638 11.6912C13.6631 11.1482 12.1463 9.63133 11.6032 7.7306C11.5751 7.6276 11.6032 7.51524 11.6781 7.4497L12.5489 6.57892C13.9721 5.15571 15.3298 5.1838 16.7249 6.57892C17.4365 7.29052 17.7829 7.97404 17.7829 8.68565C17.7736 9.3598 17.4271 10.034 16.7155 10.7456Z" fill="#E7EC00"/>
</svg>
