<svg width="51" height="48" viewBox="0 0 51 48" fill="none" xmlns="http://www.w3.org/2000/svg">
<path d="M50.6627 24.0237C50.6814 22.5902 49.9049 21.2728 48.644 20.5813L19.2602 4.43703C17.9441 3.69321 16.3927 3.78459 15.1525 4.63143C13.8896 5.49254 13.2432 7.54242 13.5962 9.02295L16.3393 20.5155C16.6209 21.694 17.6757 22.5238 18.8891 22.5186L35.241 22.4678C36.0784 22.451 36.7575 23.1301 36.7407 23.9675C36.7382 24.7906 36.0691 25.4597 35.2317 25.4765L18.8642 25.5145C17.6508 25.5169 16.5909 26.3504 16.302 27.5306L13.4619 39.0689C13.117 40.4324 13.5102 41.7936 14.4722 42.7556C14.5854 42.8688 14.7127 42.9961 14.8402 43.0951C16.0861 44.0563 17.7177 44.1789 19.1108 43.4366L48.5943 27.4503C49.8594 26.7794 50.6441 25.4571 50.6627 24.0237Z" fill="white"/>
<path d="M50.6627 24.0237C50.6814 22.5902 49.9049 21.2728 48.644 20.5813L19.2602 4.43703C17.9441 3.69321 16.3927 3.78459 15.1525 4.63143C13.8896 5.49254 13.2432 7.54242 13.5962 9.02295L16.3393 20.5155C16.6209 21.694 17.6757 22.5238 18.8891 22.5186L35.241 22.4678C36.0784 22.451 36.7575 23.1301 36.7407 23.9675C36.7382 24.7906 36.0691 25.4597 35.2317 25.4765L18.8642 25.5145C17.6508 25.5169 16.5909 26.3504 16.302 27.5306L13.4619 39.0689C13.117 40.4324 13.5102 41.7936 14.4722 42.7556C14.5854 42.8688 14.7127 42.9961 14.8402 43.0951C16.0861 44.0563 17.7177 44.1789 19.1108 43.4366L48.5943 27.4503C49.8594 26.7794 50.6441 25.4571 50.6627 24.0237Z" fill="url(#paint0_linear_3829_3212)"/>
<defs>
<linearGradient id="paint0_linear_3829_3212" x1="20.2889" y1="1.43188" x2="52.1707" y2="45.4146" gradientUnits="userSpaceOnUse">
<stop stop-color="#07A1C0"/>
<stop offset="1" stop-color="#99D592"/>
</linearGradient>
</defs>
</svg>
