<svg width="28" height="28" viewBox="0 0 28 28" fill="none" xmlns="http://www.w3.org/2000/svg">
<path d="M17.9649 2.8914C17.503 2.4295 16.7031 2.74494 16.7031 3.3871V7.31891C16.7031 8.96373 18.1001 10.3269 19.8013 10.3269C20.8715 10.3382 22.3586 10.3382 23.6317 10.3382C24.2738 10.3382 24.6118 9.58336 24.1612 9.13272C22.5389 7.49916 19.6323 4.55876 17.9649 2.8914Z" fill="#FFE15A"/>
<path d="M16.7903 22.0973C14.1428 22.2888 14.1428 26.1192 16.7903 26.3107H23.0542C23.809 26.3107 24.5525 26.0291 25.1046 25.5221C26.9634 23.8998 25.972 20.6552 23.5273 20.3511C22.6486 15.0673 15.0103 17.0727 16.8128 22.1085" fill="#FFE15A"/>
<path d="M24.3857 13.0018V16.6633C24.3857 17.0012 23.89 17.159 23.6422 16.9224C23.1014 16.3929 22.4367 15.9873 21.6706 15.7507C19.778 15.1649 17.5811 15.7394 16.2179 17.1815C15.3054 18.1278 14.8435 19.3333 14.8548 20.6401C14.8548 20.8542 14.7534 21.0457 14.5844 21.1696C13.6831 21.8568 13.1198 22.9384 13.1198 24.1889C13.1198 24.279 13.1198 24.3692 13.1311 24.4593C13.1536 24.8198 12.8945 25.169 12.5227 25.169H9.25559C5.78569 25.169 2.98047 22.9158 2.98047 18.8939V8.92356C2.98047 4.90162 5.78569 2.64844 9.25559 2.64844H14.0323C14.652 2.64844 15.1589 3.1554 15.1589 3.77503V7.03088C15.1589 9.71218 17.322 11.8752 20.0033 11.8752H23.2591C23.8788 11.8752 24.3857 12.3822 24.3857 13.0018Z" fill="#FFE15A"/>
</svg>
