<svg width="24" height="24" viewBox="0 0 24 24" fill="none" xmlns="http://www.w3.org/2000/svg">
<path d="M11.789 2.55469C6.62051 2.55469 2.42578 6.74942 2.42578 11.9179C2.42578 17.0864 6.62051 21.2812 11.789 21.2812C16.9575 21.2812 21.1523 17.0864 21.1523 11.9179C21.1523 6.74942 16.9575 2.55469 11.789 2.55469ZM15.0942 11.946C14.9538 12.0865 14.7759 12.152 14.598 12.152C14.4201 12.152 14.2422 12.0865 14.1017 11.946L12.4913 10.3355V15.1951C12.4913 15.579 12.1729 15.8973 11.789 15.8973C11.4051 15.8973 11.0868 15.579 11.0868 15.1951V10.3355L9.4763 11.946C9.20477 12.2176 8.75533 12.2176 8.4838 11.946C8.21226 11.6745 8.21226 11.225 8.4838 10.9535L11.2928 8.14454C11.5643 7.87301 12.0137 7.87301 12.2853 8.14454L15.0942 10.9535C15.3658 11.225 15.3658 11.6745 15.0942 11.946Z" fill="url(#paint0_linear_4745_7005)"/>
<defs>
<linearGradient id="paint0_linear_4745_7005" x1="2.42578" y1="12.0365" x2="21.4511" y2="12.0365" gradientUnits="userSpaceOnUse">
<stop stop-color="#07A1C0"/>
<stop offset="1" stop-color="#99D592"/>
</linearGradient>
</defs>
</svg>
