<svg width="64" height="64" viewBox="0 0 64 64" fill="none" xmlns="http://www.w3.org/2000/svg">
<g clip-path="url(#clip0_3137_1400)">
<path d="M10.3426 44.0001C10.7218 44.4743 11.1483 44.5885 11.6219 44.343L12.6274 43.7624C12.9029 44.0021 13.2242 44.1903 13.5763 44.3119V45.4716C13.5763 45.989 13.9957 46.4084 14.5129 46.4084C15.0302 46.4084 15.4496 45.989 15.4496 45.4716V44.3119C15.8017 44.1903 16.1231 44.002 16.3984 43.7624L17.4039 44.343C17.8776 44.5885 18.3041 44.4743 18.6833 44.0001C18.9419 43.5521 18.7884 42.9791 18.3406 42.7205L17.3366 42.1406C17.4066 41.7748 17.4066 41.4089 17.3366 41.0431L18.3406 40.4633C18.7886 40.2045 18.9421 39.6316 18.6833 39.1836C18.4246 38.7355 17.8518 38.5821 17.4039 38.8408L16.3984 39.4214C16.1229 39.1816 15.8016 38.9935 15.4494 38.8719V37.7121C15.4494 37.1948 15.0301 36.7754 14.5128 36.7754C13.9956 36.7754 13.5762 37.1948 13.5762 37.7121V38.8719C13.2241 38.9935 12.9027 39.1818 12.6273 39.4214L11.6218 38.8408C11.1738 38.582 10.6009 38.7355 10.3424 39.1836C10.0838 39.6316 10.2373 40.2046 10.6852 40.4633L11.6892 41.0431C11.6192 41.409 11.6192 41.7749 11.6892 42.1406L10.6852 42.7205C10.2374 42.9793 10.0839 43.5521 10.3426 44.0001ZM15.5158 41.5919C15.5158 42.145 15.0659 42.595 14.5129 42.595C13.9599 42.595 13.5101 42.145 13.5101 41.5919C13.5101 41.0389 13.9599 40.5889 14.5129 40.5889C15.0659 40.5889 15.5158 41.0388 15.5158 41.5919Z" fill="#C41230"/>
<path d="M37.8209 42.126C38.2002 42.6001 38.6267 42.7144 39.1003 42.4689L40.1058 41.8882C40.3813 42.128 40.7026 42.3161 41.0547 42.4377V43.5975C41.0547 44.1149 41.4741 44.5342 41.9913 44.5342C42.5086 44.5342 42.9279 44.1149 42.9279 43.5975V42.4377C43.2801 42.3161 43.6014 42.1279 43.8768 41.8882L44.8823 42.4689C45.3559 42.7144 45.7824 42.6001 46.1617 42.126C46.4203 41.678 46.2668 41.105 45.8189 40.8464L44.8149 40.2666C44.8849 39.9007 44.8849 39.5349 44.8149 39.169L45.8189 38.5892C46.2669 38.3305 46.4204 37.7576 46.1617 37.3096C45.9031 36.8616 45.3302 36.7081 44.8823 36.9667L43.8768 37.5474C43.6013 37.3076 43.2799 37.1195 42.9278 36.9979V35.8381C42.9278 35.3207 42.5084 34.9014 41.9912 34.9014C41.4739 34.9014 41.0546 35.3207 41.0546 35.8381V36.9979C40.7024 37.1195 40.3811 37.3077 40.1057 37.5474L39.1003 36.9667C38.6523 36.708 38.0794 36.8615 37.8209 37.3096C37.5623 37.7576 37.7158 38.3306 38.1637 38.5892L39.1677 39.169C39.0977 39.5349 39.0977 39.9007 39.1677 40.2666L38.1637 40.8464C37.7158 41.105 37.5623 41.678 37.8209 42.126ZM42.9942 39.7176C42.9942 40.2707 42.5443 40.7207 41.9913 40.7207C41.4383 40.7207 40.9884 40.2707 40.9884 39.7176C40.9884 39.1646 41.4383 38.7146 41.9913 38.7146C42.5443 38.7146 42.9942 39.1646 42.9942 39.7176Z" fill="#C41230"/>
<path d="M16.2272 26.6071C16.6064 27.0812 17.0329 27.1954 17.5066 26.9499L18.5121 26.3693C18.7876 26.6091 19.1089 26.7972 19.4611 26.9188V28.0786C19.4611 28.5959 19.8804 29.0153 20.3977 29.0153C20.9149 29.0153 21.3343 28.5959 21.3343 28.0786V26.9188C21.6864 26.7972 22.0078 26.6089 22.2832 26.3693L23.2887 26.9499C23.7623 27.1954 24.1888 27.0812 24.5681 26.6071C24.8267 26.1591 24.6732 25.5861 24.2253 25.3274L23.2213 24.7476C23.2913 24.3817 23.2913 24.0158 23.2213 23.6501L24.2253 23.0702C24.6733 22.8114 24.8268 22.2386 24.5681 21.7906C24.3094 21.3426 23.7366 21.1891 23.2887 21.4477L22.2832 22.0283C22.0077 21.7886 21.6864 21.6004 21.3343 21.4788V20.3191C21.3343 19.8017 20.9149 19.3823 20.3977 19.3823C19.8804 19.3823 19.4611 19.8017 19.4611 20.3191V21.4788C19.1089 21.6004 18.7876 21.7887 18.5122 22.0283L17.5067 21.4477C17.0587 21.1889 16.4858 21.3424 16.2273 21.7906C15.9687 22.2386 16.1222 22.8116 16.5701 23.0702L17.5741 23.6501C17.5041 24.0159 17.5041 24.3818 17.5741 24.7476L16.5701 25.3274C16.1221 25.5861 15.9686 26.1589 16.2272 26.6071ZM21.4004 24.1988C21.4004 24.7518 20.9506 25.2018 20.3976 25.2018C19.8446 25.2018 19.3947 24.7518 19.3947 24.1988C19.3947 23.6457 19.8446 23.1957 20.3976 23.1957C20.9506 23.1957 21.4004 23.6457 21.4004 24.1988Z" fill="#C41230"/>
<path d="M62.5918 1.39355C60.7327 -0.465703 57.6411 -0.463328 55.7815 1.39355L48.2154 8.96142L47.553 8.29892C47.1873 7.93317 46.5942 7.93317 46.2285 8.29892C45.8628 8.6648 45.8628 9.25792 46.2285 9.6238L46.8908 10.2863L44.3667 12.8109C39.6089 9.44917 34.0216 7.67667 28.1555 7.67667C12.8074 7.6768 0 20.4854 0 35.8377C0 51.1899 12.807 64 28.1558 64C35.5827 64 42.5892 61.1335 47.8845 55.9285C48.2535 55.5659 48.2586 54.9727 47.896 54.6038C47.5335 54.2348 46.9405 54.2297 46.5716 54.5922C41.6289 59.4508 35.0886 62.1264 28.1558 62.1264C13.6635 62.1264 1.87325 50.3333 1.87325 35.8377C1.87325 21.3428 13.6636 9.5503 28.1558 9.5503C33.5229 9.5503 38.6393 11.1394 43.0216 14.1565L41.5774 15.601C37.5944 12.9523 32.9712 11.5563 28.1558 11.5563C22.0413 11.5563 16.1996 13.8375 11.7069 17.9797C7.24062 22.0974 4.49375 27.686 3.972 33.7159C3.92737 34.2314 4.309 34.6854 4.82438 34.7299C4.85188 34.7324 4.87913 34.7334 4.90613 34.7334C5.38688 34.7334 5.796 34.3653 5.83813 33.8774C6.83 22.4114 16.6331 13.4298 28.1556 13.4298C32.4726 13.4298 36.6216 14.6452 40.2239 16.9548L33.453 23.7273C32.6483 24.5338 32.1975 25.6489 32.2166 26.7865C32.2272 27.421 31.9766 28.0413 31.5279 28.4892L28.3779 31.641C27.2661 32.9818 27.1879 34.3913 28.3775 35.6633C29.4171 36.775 31.0578 36.7734 32.3981 35.6632L35.5711 32.488C36.015 32.044 36.606 31.7995 37.2352 31.7995H37.2528C38.3815 31.7995 39.4429 31.3595 40.2414 30.5609L47.0341 23.7667C49.3433 27.3698 50.5583 31.5197 50.5583 35.8377C50.5583 48.1934 40.5085 58.2455 28.1556 58.2455C16.6343 58.2455 6.83113 49.2644 5.83813 37.799C5.7935 37.2835 5.33837 36.9004 4.82412 36.9467C4.30887 36.9913 3.92725 37.4453 3.97187 37.9608C4.49412 43.9908 7.24137 49.5792 11.7071 53.6964C16.1996 57.8382 22.0411 60.1192 28.1555 60.1192C41.5413 60.1192 52.4314 49.2265 52.4314 35.8377C52.4314 31.021 51.0358 26.3968 48.3875 22.413L49.8317 20.9684C52.8482 25.3518 54.4369 30.4694 54.4369 35.8377C54.4369 41.5842 52.6166 47.0428 49.1729 51.6234C48.862 52.0369 48.9451 52.6243 49.3585 52.9352C49.5273 53.062 49.7248 53.1233 49.9206 53.1233C50.205 53.1233 50.4859 52.9944 50.6699 52.7495C54.3596 47.8417 56.31 41.9935 56.31 35.8377C56.31 29.9703 54.538 24.3819 51.1771 19.6228L53.7011 17.0983L54.4569 17.8543C54.8984 18.22 55.3399 18.22 55.7814 17.8543C56.1471 17.4884 56.1471 16.8953 55.7814 16.5294L55.0256 15.7734L58.5894 12.2088C58.9551 11.8429 58.9551 11.2498 58.5894 10.8839C58.2236 10.5183 57.6306 10.5183 57.2649 10.8839L53.701 14.4485L49.54 10.2863L57.1055 2.71892C58.4927 1.5688 59.88 1.56855 61.2673 2.7183C62.4145 3.86592 62.4145 5.73317 61.2673 6.88067L60.1521 7.99605C59.7864 8.36192 59.7864 8.95505 60.1521 9.32092C60.5179 9.68655 61.1109 9.68655 61.4766 9.32092L62.5918 8.20555C64.4694 6.32755 64.4694 3.2718 62.5918 1.39355ZM52.3766 15.7734L38.917 29.2362C38.4722 29.681 37.8813 29.926 37.2529 29.926H37.2354C36.1058 29.926 35.0444 30.3655 34.2466 31.1635L31.0748 34.3374C30.617 34.7173 30.1593 34.7175 29.7015 34.338C29.3223 33.8808 29.3225 33.4237 29.7021 32.9665L32.852 29.8148C33.6578 29.0104 34.1088 27.8953 34.0896 26.7553C34.079 26.1218 34.3301 25.5007 34.7783 25.0517L48.2155 11.6112L52.3766 15.7734Z" fill="#C41230"/>
<path d="M32.9707 44.4684C32.9707 43.198 31.3546 40.8141 30.8594 40.1136C30.6839 39.8654 30.3987 39.7178 30.0947 39.7178C29.7907 39.7178 29.5056 39.8654 29.3301 40.1136C28.8349 40.814 27.2188 43.1979 27.2188 44.4684C27.2188 46.0546 28.5089 47.3451 30.0947 47.3451C31.6806 47.3451 32.9707 46.0546 32.9707 44.4684ZM29.0919 44.4688C29.0969 44.169 29.5166 43.3081 30.095 42.36C30.6731 43.3075 31.0925 44.1683 31.0976 44.4688C31.0974 45.0218 30.6476 45.4715 30.0947 45.4715C29.5417 45.4715 29.0919 45.0216 29.0919 44.4688Z" fill="#C41230"/>
</g>
<defs>
<clipPath id="clip0_3137_1400">
<rect width="64" height="64" fill="white"/>
</clipPath>
</defs>
</svg>
