<svg width="64" height="64" viewBox="0 0 64 64" fill="none" xmlns="http://www.w3.org/2000/svg">
<g clip-path="url(#clip0_3140_1424)">
<path d="M41.5269 50.8197C38.3329 50.5637 36.2301 53.5745 34.0795 55.4073L35.5936 50.5677C32.6073 49.3169 29.3711 50.4545 28.3193 53.6229L27.4481 56.4074L21.3171 55.5513L17.7305 49.7185L22.8226 51.2454C26.3587 52.2695 29.6325 49.9342 30.3044 46.409L13.3853 41.4253H0V43.3003H13.1147L27.8708 47.6468C27.0118 49.1827 25.0431 49.9774 23.3569 49.448L15.2006 47.0024V49.1838L20.1829 57.2859L32.8985 59.0617L38.6302 53.7415C39.9076 52.513 42.0215 52.3469 43.4774 53.3402L34.013 62.125H21.0023L15.484 58.9235L14.5431 60.5454L20.4976 64H34.7491L46.2074 53.3645C45.0417 51.9258 43.4258 50.8498 41.5269 50.8197ZM31.6196 56.99L29.3306 56.6704L30.1089 54.1828C30.5004 52.8548 31.8282 51.8974 33.2036 51.9273L31.6196 56.99Z" fill="#C41230"/>
<path d="M0 54.5103V56.3853H7.37262L12.7795 59.5221L13.7205 57.9004L7.87738 54.5103H0Z" fill="#C41230"/>
<path d="M58.25 20.6997H64V22.5747H58.25V20.6997Z" fill="#C41230"/>
<path d="M56.6276 7.6145L43.5026 0H29.2512L17.793 10.6356C19.9641 13.4928 23.9398 14.1248 26.6458 11.6326L29.9208 8.59275L28.4067 13.4324C29.1582 13.675 30.0437 13.9768 30.8306 13.949C32.9936 13.9731 35.0645 12.4637 35.6811 10.3772L36.5522 7.59263L42.6832 8.44888L46.2698 14.2816L41.1777 12.7548C37.6416 11.7306 34.3678 14.066 33.696 17.5911L50.6151 22.5749H56.3753V20.6999H50.8856L36.1296 16.3534C36.9886 14.8175 38.9571 14.0229 40.6435 14.5521L48.7997 16.9977V14.8164L43.8175 6.71425L31.1018 4.93813L25.3701 10.2584C24.0926 11.4865 21.9788 11.653 20.523 10.6597L29.9873 1.875H42.9982L56.1231 9.4895H64.0003V7.6145H56.6276ZM32.3807 7.00987L34.6697 7.3295L33.8915 9.81725C33.4992 11.1456 32.1736 12.1021 30.7967 12.0728L32.3807 7.00987Z" fill="#C41230"/>
<path d="M42.5789 34.2107C49.3017 26.9324 38.9522 17.0673 31.9998 24.1087C25.0417 17.0642 14.6997 26.9403 21.4207 34.2105L31.9998 44.7895L42.5789 34.2107ZM22.7467 25.1959C24.7706 23.0868 28.4117 23.0868 30.4356 25.196L31.9999 26.7603L33.5644 25.1959C38.8232 20.2812 46.1627 27.6158 41.2532 32.8848L31.9998 42.1379L22.7467 32.8848C20.6269 30.765 20.6269 27.3158 22.7467 25.1959Z" fill="#C41230"/>
<path d="M23.5625 27.3125H25.4375V29.1875H23.5625V27.3125Z" fill="#C41230"/>
<path d="M27.3125 27.3125H29.1875V29.1875H27.3125V27.3125Z" fill="#C41230"/>
<path d="M11.7959 34.7876L17.1988 34.029L17.4595 35.8854L12.0565 36.644L11.7959 34.7876Z" fill="#C41230"/>
<path d="M11.6611 27.3301L11.9218 25.4737L17.3247 26.2323L17.0641 28.0887L11.6611 27.3301Z" fill="#C41230"/>
<path d="M11.5771 30.2026H17.0346V32.0776H11.5771V30.2026Z" fill="#C41230"/>
<path d="M46.6465 35.8989L46.9071 34.0426L52.3099 34.8011L52.0493 36.6575L46.6465 35.8989Z" fill="#C41230"/>
<path d="M46.7812 26.2354L52.1842 25.4768L52.4448 27.3331L47.0419 28.0917L46.7812 26.2354Z" fill="#C41230"/>
<path d="M47.0996 30.2026H52.5571V32.0776H47.0996V30.2026Z" fill="#C41230"/>
</g>
<defs>
<clipPath id="clip0_3140_1424">
<rect width="64" height="64" fill="white"/>
</clipPath>
</defs>
</svg>
