<svg width="64" height="64" viewBox="0 0 64 64" fill="none" xmlns="http://www.w3.org/2000/svg">
<path d="M13.9639 44.962H17.972C18.4897 44.962 18.9095 44.5423 18.9095 44.0245V37.0103C18.9095 35.3883 17.5899 34.0688 15.9679 34.0688C14.3459 34.0688 13.0264 35.3883 13.0264 37.0103V44.0245C13.0264 44.5422 13.4461 44.962 13.9639 44.962ZM14.9014 37.0103C14.9014 36.4222 15.3799 35.9438 15.968 35.9438C16.5561 35.9438 17.0345 36.4223 17.0345 37.0103V43.087H14.9014V37.0103Z" fill="#C41230"/>
<path d="M46.0283 44.962H50.0364C50.5542 44.962 50.9739 44.5423 50.9739 44.0245V37.0103C50.9739 35.3883 49.6543 34.0688 48.0323 34.0688C46.4103 34.0688 45.0908 35.3883 45.0908 37.0103V44.0245C45.0908 44.5422 45.5104 44.962 46.0283 44.962ZM46.9658 37.0103C46.9658 36.4222 47.4443 35.9438 48.0324 35.9438C48.6206 35.9438 49.0989 36.4223 49.0989 37.0103V43.087H46.9658V37.0103Z" fill="#C41230"/>
<path d="M29.9961 35.9438H34.0041C34.5218 35.9438 34.9416 35.5241 34.9416 35.0063C34.9416 34.4886 34.5218 34.0688 34.0041 34.0688H29.9961C29.4783 34.0688 29.0586 34.4886 29.0586 35.0063C29.0586 35.5241 29.4783 35.9438 29.9961 35.9438Z" fill="#C41230"/>
<path d="M25.9883 27.9277H38.0124C38.5302 27.9277 38.9499 27.508 38.9499 26.9902C38.9499 26.4725 38.5302 26.0527 38.0124 26.0527H25.9883C25.4705 26.0527 25.0508 26.4725 25.0508 26.9902C25.0508 27.508 25.4705 27.9277 25.9883 27.9277Z" fill="#C41230"/>
<path d="M29.9961 23.9194H34.0041C34.5218 23.9194 34.9416 23.4998 34.9416 22.9819C34.9416 22.4642 34.5218 22.0444 34.0041 22.0444H29.9961C29.4783 22.0444 29.0586 22.4642 29.0586 22.9819C29.0586 23.4997 29.4783 23.9194 29.9961 23.9194Z" fill="#C41230"/>
<path d="M63.0625 55.1109H61.996V48.0323C61.996 47.5145 61.5762 47.0948 61.0585 47.0948H58.99V31.9355H60.0565C60.4964 31.9355 60.8771 31.6297 60.972 31.2002C61.0669 30.7707 60.8502 30.3329 60.4512 30.1478L52.9779 26.6779V18.9094H54.0444C54.4856 18.9094 54.8672 18.6017 54.9606 18.1703C55.0541 17.739 54.834 17.3009 54.4323 17.1183L32.388 7.09816C32.1415 6.98616 31.8586 6.98616 31.6121 7.09816L9.56775 17.1184C9.166 17.301 8.946 17.739 9.03938 18.1704C9.13288 18.6018 9.51437 18.9095 9.95562 18.9095H11.0221V26.678L3.54875 30.1478C3.14975 30.3329 2.93325 30.7707 3.028 31.2002C3.12275 31.6297 3.50362 31.9355 3.9435 31.9355H5.01V47.0948H2.9415C2.42375 47.0948 2.004 47.5145 2.004 48.0323V55.1109H0.9375C0.41975 55.1109 0 55.5307 0 56.0484C0 56.5663 0.41975 56.9859 0.9375 56.9859H63.0625C63.5802 56.9859 64 56.5663 64 56.0484C64 55.5307 63.5802 55.1109 63.0625 55.1109ZM60.121 55.1109H48.9699V52.0404C48.9699 51.5227 48.5501 51.1029 48.0324 51.1029H44.9618V48.9699H60.121V55.1109ZM43.0866 48.9698V51.1028H20.9134V48.9698H43.0866ZM25.0504 31.9355V47.0948H22.9174V31.9355H25.0504ZM37.0746 31.9355V38.0767H26.9255V31.9355H37.0746ZM41.0826 31.9355V40.0162C41.0826 40.534 41.5024 40.9537 42.0201 40.9537C42.5379 40.9537 42.9576 40.534 42.9576 40.0162V31.9355H53.1069V47.0948H42.9576V44.0244C42.9576 43.5067 42.5379 43.0869 42.0201 43.0869C41.5024 43.0869 41.0826 43.5067 41.0826 44.0244V47.0948H38.9496V31.9355H41.0826ZM32.9375 47.0948V39.9517H37.0746V47.0948H32.9375ZM26.9254 47.0948V39.9517H31.0625V47.0948H26.9254ZM47.0947 52.9779V55.1109H16.9053V52.9779H47.0947ZM57.1149 47.0948H54.9819V31.9355H57.1149V47.0948ZM51.1029 25.8074L36.2455 18.9093H51.1029V25.8074ZM32 8.98153L49.7163 17.0344H14.2837L32 8.98153ZM12.8971 18.9094H27.7545L12.8971 25.8075V18.9094ZM32 19.0054L55.811 30.0605H8.189L32 19.0054ZM6.88513 31.9355H9.01812V34.0042C9.01812 34.5219 9.43787 34.9417 9.95562 34.9417C10.4734 34.9417 10.8931 34.5219 10.8931 34.0042V31.9355H21.0424V47.0948H10.8931V38.0124C10.8931 37.4945 10.4734 37.0749 9.95562 37.0749C9.43787 37.0749 9.01812 37.4945 9.01812 38.0124V47.0948H6.88513V31.9355ZM3.879 48.9698H19.0382V51.1028H15.9676C15.4499 51.1028 15.0301 51.5225 15.0301 52.0403V55.1108H3.879V48.9698Z" fill="#C41230"/>
</svg>
