<svg width="64" height="64" viewBox="0 0 64 64" fill="none" xmlns="http://www.w3.org/2000/svg">
<g clip-path="url(#clip0_3136_1394)">
<path d="M63.7899 28.0029C63.51 27.5181 63.0086 27.2286 62.4487 27.2286H61.7094C60.718 20.9558 57.8121 15.2654 53.2734 10.7266C47.7584 5.21157 40.4327 2.08457 32.6456 1.92157C32.2281 1.91532 31.8281 2.06994 31.5276 2.36432C31.2277 2.65807 31.0625 3.05094 31.0625 3.47069V6.52769C31.0625 7.36132 31.7402 8.05544 32.5732 8.07507C38.1922 8.20782 43.6121 10.3372 47.8346 14.0712C51.744 17.5283 54.4224 22.1673 55.4531 27.2287H55.0793C54.5194 27.2287 54.018 27.5182 53.7381 28.0031C53.4581 28.4879 53.4581 29.0669 53.7381 29.5518L57.423 35.9339C57.7029 36.4188 58.2043 36.7082 58.764 36.7083H58.7641C59.324 36.7083 59.8254 36.4189 60.1052 35.9339L63.79 29.5517C64.0699 29.0667 64.0699 28.4878 63.7899 28.0029ZM58.764 34.5069L55.6442 29.1036H56.5735C56.8472 29.1036 57.1074 28.9838 57.2854 28.7759C57.4635 28.5681 57.5419 28.2927 57.4997 28.0222C56.5811 22.1112 53.5898 16.6578 49.0765 12.6667C44.6034 8.71082 38.8836 6.42494 32.9374 6.21019V3.80494C40.1147 4.03819 46.8545 6.95944 51.9476 12.0524C56.3874 16.4922 59.1609 22.1062 59.968 28.2874C60.029 28.7543 60.4268 29.1036 60.8976 29.1036H61.8838L58.764 34.5069Z" fill="#C41230"/>
<path d="M31.4263 55.9251C25.8074 55.7924 20.3876 53.6629 16.1654 49.9289C12.2561 46.4717 9.57788 41.8329 8.54712 36.7715H8.92062C9.4805 36.7715 9.98188 36.482 10.2618 35.9972C10.5417 35.5124 10.5417 34.9334 10.2618 34.4485L6.577 28.0664C6.29713 27.5815 5.79575 27.292 5.236 27.292C4.67613 27.292 4.17475 27.5814 3.89488 28.0664L0.21 34.4485C-0.07 34.9334 -0.07 35.5124 0.21 35.9972C0.489875 36.4821 0.99125 36.7715 1.55113 36.7715H2.29012C3.2455 42.8092 5.98787 48.3325 10.2525 52.7889C10.6104 53.163 11.2039 53.176 11.578 52.818C11.9521 52.46 11.965 51.8666 11.6071 51.4926C7.42913 47.1267 4.8095 41.67 4.0315 35.7126C3.9705 35.2457 3.57275 34.8965 3.10188 34.8965H2.11625L5.236 29.4931L8.35575 34.8965H7.42688C7.15313 34.8965 6.893 35.0162 6.71488 35.2241C6.53675 35.432 6.45837 35.7074 6.5005 35.978C7.41913 41.889 10.4105 47.3422 14.9234 51.3334C19.3965 55.2891 25.1164 57.575 31.0625 57.79V60.1952C24.9899 59.9992 19.2819 57.9161 14.5355 54.1597C14.1297 53.8385 13.54 53.9071 13.2186 54.3131C12.8973 54.7191 12.966 55.3087 13.372 55.63C18.5278 59.7104 24.7459 61.9402 31.3542 62.0787C31.3654 62.0789 31.3764 62.079 31.3875 62.079C31.7956 62.079 32.1798 61.9224 32.4723 61.636C32.7721 61.3422 32.9374 60.9492 32.9374 60.5296V57.4727C32.9375 56.6249 32.2736 55.9452 31.4263 55.9251Z" fill="#C41230"/>
<path d="M45.2574 18.8415C44.8721 19.1875 44.8404 19.7801 45.1863 20.1654C46.4131 21.5315 47.4076 23.0652 48.1497 24.7086H38.9178C37.7656 24.7086 36.8283 25.646 36.8283 26.7981V31.3932C36.8283 32.5454 37.7656 33.4827 38.9178 33.4827H40.159C40.2774 33.4827 40.3736 33.579 40.3736 33.6974V40.5044C40.3736 41.0625 40.591 41.5872 40.9856 41.9819L44.0143 45.0104C41.7176 47.1327 38.8604 48.6562 35.6922 49.3305V44.9836C35.6922 43.8315 34.7549 42.8941 33.6028 42.8941H31.3354C31.2781 42.8941 31.2241 42.8719 31.1836 42.8312L28.789 40.4366C27.9744 39.622 26.6486 39.622 25.834 40.4366L20.6639 45.6067C19.7977 44.884 19.0014 44.0804 18.2866 43.2074L20.8964 40.5976C21.2911 40.203 21.5084 39.6782 21.5084 39.1201V32.4634C21.5084 32.4061 21.5306 32.3521 21.5711 32.3116L23.4595 30.4232C23.8256 30.0572 23.8256 29.4636 23.4595 29.0975C23.0934 28.7314 22.4999 28.7314 22.1337 29.0975L20.2454 30.9859C19.8508 31.3805 19.6334 31.9052 19.6334 32.4634V39.1201C19.6334 39.1774 19.611 39.2314 19.5705 39.2719L17.1649 41.6775C15.3425 38.8935 14.2811 35.5686 14.2811 32C14.2811 26.4842 16.815 21.5494 20.7794 18.2972L26.705 24.2229C26.7569 24.2749 26.7679 24.3341 26.7679 24.3746C26.7679 24.4151 26.757 24.4744 26.705 24.5264L25.0227 26.2087C24.6566 26.5749 24.6566 27.1684 25.0227 27.5345C25.2057 27.7176 25.4458 27.8091 25.6856 27.8091C25.9255 27.8091 26.1655 27.7176 26.3485 27.5345L28.0307 25.8522C28.4255 25.4576 28.6429 24.9329 28.6429 24.3747C28.6429 23.8166 28.4255 23.2919 28.0309 22.8972L22.3082 17.1746C25.0951 15.3466 28.4251 14.2816 31.9999 14.2816C35.7668 14.2816 39.3634 15.4477 42.4008 17.654C42.8198 17.9582 43.4059 17.8651 43.7103 17.4464C44.0145 17.0275 43.9215 16.4412 43.5026 16.1369C40.1426 13.6966 36.165 12.4067 31.9996 12.4067C21.1958 12.4067 12.4062 21.1962 12.4062 32.0001C12.4062 42.804 21.1958 51.5936 31.9996 51.5936C42.8035 51.5936 51.593 42.8041 51.593 32.0002C51.593 27.1591 49.8131 22.5112 46.5813 18.9126C46.2353 18.5274 45.6425 18.4956 45.2574 18.8415ZM22.1806 46.7416L27.1598 41.7626C27.2118 41.7107 27.271 41.6997 27.3115 41.6997C27.3521 41.6997 27.4113 41.7106 27.4633 41.7626L29.8579 44.1572C30.2525 44.5519 30.7773 44.7692 31.3354 44.7692H33.6028C33.7211 44.7692 33.8174 44.8655 33.8174 44.9839V49.6262C33.2197 49.6874 32.6134 49.7189 31.9998 49.7189C28.3704 49.7187 24.993 48.6211 22.1806 46.7416ZM45.3228 43.6675L42.3114 40.6561C42.2709 40.6156 42.2486 40.5617 42.2486 40.5044V33.6974C42.2486 32.5452 41.3113 31.6079 40.1591 31.6079H38.9179C38.7995 31.6079 38.7033 31.5116 38.7033 31.3932V26.7981C38.7033 26.6797 38.7995 26.5835 38.9179 26.5835H48.8711C49.4275 28.3184 49.7181 30.1434 49.7181 32.0001C49.7181 36.4647 48.0576 40.5484 45.3228 43.6675Z" fill="#C41230"/>
</g>
<defs>
<clipPath id="clip0_3136_1394">
<rect width="64" height="64" fill="white"/>
</clipPath>
</defs>
</svg>
