<svg width="64" height="64" viewBox="0 0 64 64" fill="none" xmlns="http://www.w3.org/2000/svg">
<g clip-path="url(#clip0_2891_1503)">
<path d="M21.0335 10.888C20.5114 10.4406 19.8212 10.244 19.14 10.3498C13.5402 11.2168 9.31738 16.137 9.31738 21.7946C9.31738 24.8686 10.5272 27.7713 12.7237 29.9679C14.9202 32.1646 17.8229 33.3742 20.8971 33.3742C26.5547 33.3742 31.4749 29.1515 32.3418 23.5517C32.4473 22.8704 32.2512 22.1802 31.8036 21.6581C31.3588 21.1392 30.7116 20.8415 30.0281 20.8415H22.2859C22.0456 20.8415 21.8501 20.646 21.8501 20.4057V12.6634C21.8501 11.9799 21.5524 11.3328 21.0335 10.888ZM22.2859 22.7476H30.0281C30.201 22.7476 30.3079 22.8422 30.3563 22.8986C30.4063 22.9568 30.4858 23.0812 30.4581 23.26C29.7336 27.9394 25.6233 31.4681 20.8971 31.4681C15.563 31.4681 11.2235 27.1286 11.2235 21.7946C11.2235 17.0684 14.7522 12.958 19.4316 12.2335C19.457 12.2296 19.4813 12.2278 19.5044 12.2278C19.6445 12.2278 19.7431 12.2925 19.793 12.3353C19.8493 12.3836 19.944 12.4905 19.944 12.6635V20.4057C19.944 21.6971 20.9945 22.7476 22.2859 22.7476Z" fill="#C41230"/>
<path d="M57.9945 52.3089C58.5208 52.3089 58.9475 51.8822 58.9475 51.3558V7.50519C58.9475 4.86211 56.7978 2.71183 54.1554 2.71183H52.2459C51.4694 1.1085 49.8255 0 47.9274 0H9.8461C7.20301 0 5.05273 2.15028 5.05273 4.79336V22.6998C5.05273 23.2262 5.47946 23.6529 6.00581 23.6529C6.53217 23.6529 6.9589 23.2262 6.9589 22.6998V4.79336C6.9589 3.20133 8.25407 1.90616 9.8461 1.90616H47.9274C49.52 1.90616 50.8159 3.20133 50.8159 4.79336V47.3452H43.3958C41.9166 47.3452 40.7132 48.5487 40.7132 50.0278V57.73H9.8461C8.25407 57.73 6.9589 56.4353 6.9589 54.8441V27.0205C6.9589 26.4941 6.53217 26.0674 6.00581 26.0674C5.47946 26.0674 5.05273 26.4941 5.05273 27.0205V54.8441C5.05273 57.4864 7.20301 59.6362 9.8461 59.6362H11.2985C11.5165 62.0786 13.5734 64 16.0715 64H54.1553C56.7976 64 58.9474 61.8497 58.9474 59.2066V55.8035C58.9474 55.2772 58.5207 54.8504 57.9943 54.8504C57.468 54.8504 57.0412 55.2772 57.0412 55.8035V59.2066C57.0412 60.7987 55.7466 62.0938 54.1553 62.0938H16.0716C14.6256 62.0938 13.4247 61.0251 13.2166 59.6362H41.6548C41.6588 59.6362 41.6628 59.6367 41.6668 59.6367C41.9151 59.6367 42.1632 59.5402 42.35 59.3481L52.4521 48.9632C52.6231 48.7873 52.722 48.5434 52.722 48.2982V4.61799H54.1554C55.7467 4.61799 57.0414 5.91317 57.0414 7.50519V51.3558C57.0414 51.8822 57.4681 52.3089 57.9945 52.3089ZM43.3958 49.2514H49.5127L42.6194 56.3376V50.0278C42.6194 49.5997 42.9677 49.2514 43.3958 49.2514Z" fill="#C41230"/>
<path d="M42.9106 44.4116C42.9106 43.8852 42.4838 43.4585 41.9575 43.4585H12.5224C11.9961 43.4585 11.5693 43.8852 11.5693 44.4116C11.5693 44.9379 11.9961 45.3647 12.5224 45.3647H41.9575C42.4838 45.3647 42.9106 44.9379 42.9106 44.4116Z" fill="#C41230"/>
<path d="M12.2314 48.2534C11.705 48.2534 11.2783 48.6801 11.2783 49.2065C11.2783 49.7329 11.705 50.1596 12.2314 50.1596H33.1356C33.662 50.1596 34.0887 49.7329 34.0887 49.2065C34.0887 48.6801 33.662 48.2534 33.1356 48.2534H12.2314Z" fill="#C41230"/>
<path d="M11.5693 39.6167C11.5693 40.143 11.9961 40.5697 12.5224 40.5697H41.9575C42.4838 40.5697 42.9106 40.143 42.9106 39.6167C42.9106 39.0903 42.4838 38.6636 41.9575 38.6636H12.5224C11.9961 38.6636 11.5693 39.0903 11.5693 39.6167Z" fill="#C41230"/>
<path d="M26.4646 6.58706C25.7855 6.48451 25.0984 6.68237 24.579 7.12943C24.0621 7.5742 23.7656 8.22052 23.7656 8.90254V16.7897C23.7656 18.0811 24.8162 19.1316 26.1075 19.1316H35.488C36.0144 19.1316 36.4411 18.7049 36.4411 18.1786C36.4411 15.0927 35.1896 12.0716 33.0077 9.88955C31.249 8.1308 28.9252 6.958 26.4646 6.58706ZM26.1075 17.2256C25.8668 17.2256 25.6718 17.0305 25.6718 16.7899V8.90254C25.708 8.57951 25.8775 8.46044 26.1805 8.47188C28.241 8.78245 30.187 9.76463 31.6598 11.2375C33.2053 12.783 34.1933 14.8312 34.4611 16.9899C34.4766 17.1153 34.3767 17.2255 34.2504 17.2255H26.1075V17.2256Z" fill="#C41230"/>
<path d="M39.1094 28.355C39.1094 28.3579 39.1098 28.3607 39.1098 28.3636V31.1459C39.1098 32.3781 39.9677 33.4113 41.1168 33.6863V35.4734C41.1168 35.9997 41.5435 36.4264 42.0699 36.4264C42.5963 36.4264 43.023 35.9997 43.023 35.4734V33.6866C44.1728 33.4122 45.0313 32.3785 45.0313 31.1459V11.8713C45.6132 11.8347 46.1797 12.0466 46.5913 12.4582C46.9739 12.8419 47.1848 13.3506 47.1848 13.8906V19.2054C47.1848 19.7318 47.6115 20.1585 48.1378 20.1585C48.6642 20.1585 49.0909 19.7318 49.0909 19.2054V13.8906C49.0909 12.8423 48.6825 11.8555 47.94 11.1112C47.1979 10.369 46.2112 9.96027 45.1618 9.96027C45.1184 9.96027 45.0748 9.96167 45.0313 9.96319V8.48376C45.0313 7.04207 43.8584 5.86914 42.4167 5.86914H41.7244C40.2827 5.86914 39.1098 7.04207 39.1098 8.48376V18.3072C39.1098 18.3101 39.1094 18.3129 39.1094 18.3159C39.1094 18.3188 39.1098 18.3216 39.1098 18.3245V28.3465C39.1098 28.3493 39.1094 28.3521 39.1094 28.355ZM43.1253 27.4019H41.016V19.2689H43.1253V27.4019ZM42.4167 31.8543H41.7244C41.3337 31.8543 41.0159 31.5365 41.0159 31.1459V29.3081H43.1251V31.1457C43.1253 31.5365 42.8075 31.8543 42.4167 31.8543ZM41.7245 7.7753H42.4168C42.8075 7.7753 43.1253 8.09312 43.1253 8.48376V17.3628H41.016V8.48376C41.0159 8.09312 41.3337 7.7753 41.7245 7.7753Z" fill="#C41230"/>
</g>
<defs>
<clipPath id="clip0_2891_1503">
<rect width="64" height="64" fill="white"/>
</clipPath>
</defs>
</svg>
