<svg width="64" height="64" viewBox="0 0 64 64" fill="none" xmlns="http://www.w3.org/2000/svg">
<g clip-path="url(#clip0_2901_1591)">
<path d="M27.3559 25.7776C27.696 27.0465 28.5567 28.1267 29.7177 28.7416C30.4415 29.125 30.8899 29.9016 30.8601 30.7202C30.7607 33.4314 33.0599 35.735 35.7731 35.6333C36.5944 35.6054 37.3686 36.0518 37.7518 36.7757C39.0209 39.1721 42.1609 40.018 44.4633 38.5741C45.1574 38.1389 46.0543 38.139 46.748 38.5741C49.0491 40.0173 52.1895 39.1739 53.4595 36.7758C53.8427 36.0519 54.6169 35.6029 55.4381 35.6334C58.1507 35.7352 60.4508 33.4318 60.3514 30.7203C60.3215 29.9016 60.77 29.125 61.4937 28.7416C63.8919 27.4716 64.7355 24.3315 63.2922 22.0301C62.8569 21.3362 62.8569 20.4393 63.2922 19.7454C64.7354 17.4443 63.8921 14.304 61.4939 13.0339C60.77 12.6505 60.3215 11.8738 60.3514 11.0552C60.4506 8.34491 58.1514 6.03888 55.4382 6.14203C54.6189 6.17078 53.8429 5.72356 53.4595 4.99964C52.1895 2.60146 49.0493 1.75802 46.748 3.20135C46.0539 3.63658 45.1572 3.63658 44.4633 3.20135C42.1623 1.75827 39.0218 2.60146 37.7519 4.99964C37.3686 5.72356 36.5918 6.17078 35.7732 6.14203C33.0606 6.03988 30.7607 8.34354 30.8601 11.0552C30.8899 11.8737 30.4415 12.6505 29.7177 13.0339C27.3194 14.3039 26.4759 17.444 27.9193 19.7454C28.3545 20.4393 28.3545 21.3362 27.9193 22.0301C27.2213 23.1427 27.0159 24.5088 27.3559 25.7776ZM30.0376 18.4166C29.3527 17.3246 29.7519 15.8453 30.8879 15.2436C32.4536 14.4144 33.4235 12.7344 33.3589 10.9638C33.3118 9.67897 34.3959 8.59397 35.6817 8.64098C37.4486 8.70587 39.1323 7.7359 39.9617 6.16991C40.5632 5.0339 42.0428 4.63493 43.1345 5.31971C44.636 6.26131 46.5756 6.26106 48.0765 5.31971C49.1685 4.63481 50.6479 5.0339 51.2496 6.16991C52.079 7.73577 53.7578 8.70812 55.5295 8.64085C56.8142 8.59397 57.8994 9.67822 57.8523 10.9638C57.7875 12.7344 58.7575 14.4143 60.3234 15.2436C61.4592 15.8453 61.8585 17.3249 61.1735 18.4166C60.2322 19.9176 60.2322 21.8575 61.1735 23.3586C61.8583 24.4505 61.4594 25.93 60.3234 26.5316C58.7576 27.3608 57.7876 29.0407 57.8523 30.8115C57.8994 32.0964 56.8153 33.1818 55.5294 33.1344C53.7605 33.0696 52.0787 34.0395 51.2496 35.6053C50.6479 36.7412 49.1685 37.1405 48.0765 36.4555C46.5756 35.5142 44.6359 35.514 43.1345 36.4555C42.0426 37.1404 40.5632 36.7412 39.9615 35.6053C39.1584 34.0888 37.5574 33.1313 35.8486 33.1313C34.5088 33.1313 33.3054 32.2691 33.3588 30.8113C33.4235 29.0406 32.4536 27.3607 30.8877 26.5315C29.7516 25.9298 29.3528 24.4504 30.0375 23.3584C30.9791 21.8575 30.9791 19.9177 30.0376 18.4166Z" fill="#C41230"/>
<path d="M34.2068 24.3796C35.7032 29.2547 40.2471 32.8092 45.6059 32.8092C52.1795 32.8092 57.5274 27.4613 57.5274 20.8877C57.5274 20.0944 57.4488 19.3192 57.3003 18.5688C57.2978 18.5555 57.2955 18.5423 57.2926 18.5291C56.195 13.0815 51.3721 8.96631 45.6059 8.96631C39.0326 8.96631 33.6846 14.3142 33.6846 20.8877C33.6846 22.0721 33.859 23.2163 34.1821 24.297C34.1896 24.325 34.1976 24.3525 34.2068 24.3796ZM45.6059 11.4669C49.0021 11.4669 51.9837 13.2737 53.6417 15.9762C51.7236 14.9303 49.7508 15.6041 48.3049 17.05C47.9851 17.3697 47.56 17.5458 47.1079 17.5458H46.4596C45.7692 17.5458 45.2094 18.1055 45.2094 18.7961C45.2094 19.4866 45.7692 20.0464 46.4596 20.0464H47.1079C48.2279 20.0464 49.2809 19.6103 50.0731 18.8181C51.1125 17.779 52.1538 17.7622 53.1853 18.825C53.6783 19.3332 54.2999 19.6984 54.9737 19.8907C55.0084 20.2184 55.027 20.5509 55.027 20.8876C55.027 26.0823 50.8008 30.3085 45.6061 30.3085C41.9757 30.3085 38.8206 28.2431 37.2483 25.2268H40.08C40.3886 25.2268 40.6786 25.347 40.8967 25.5651C42.4722 27.141 45.0891 26.9129 46.5994 25.4037C46.8175 25.1855 47.1075 25.0654 47.4161 25.0654H48.375C49.0654 25.0654 49.6252 24.5056 49.6252 23.8151C49.6252 23.1246 49.0654 22.5648 48.375 22.5648H47.4161C46.4395 22.5648 45.5215 22.9452 44.8315 23.6352C44.2924 24.1738 43.2644 24.3967 42.6648 23.7969C41.9744 23.1064 41.0563 22.7262 40.0799 22.7262H36.3666C36.2483 22.1312 36.1851 21.5167 36.1851 20.8876C36.1851 15.693 40.4112 11.4669 45.6059 11.4669Z" fill="#C41230"/>
<path d="M39.7269 19.2748C39.9889 19.9033 40.7298 20.212 41.3599 19.9512C41.9896 19.6904 42.2961 18.9476 42.0361 18.3183C41.7762 17.689 41.0324 17.3807 40.4033 17.6419C39.7725 17.9038 39.4685 18.6439 39.7269 19.2748Z" fill="#C41230"/>
<path d="M3.02846 60.5303C4.04932 60.5303 5.06742 60.3225 6.0514 60.0674C7.34332 59.7323 8.60724 59.2913 9.8494 58.8051C11.7762 60.4877 14.2284 61.447 16.7785 61.5071C16.7885 61.5073 16.7985 61.5074 16.8085 61.5074C17.4853 61.5074 18.0418 60.9668 18.0578 60.2865C18.074 59.5962 17.5277 59.0234 16.8373 59.0072C15.2578 58.9701 13.7733 58.487 12.5111 57.6767C14.7809 56.6463 17.2065 55.3825 19.6432 53.9518C21.7254 52.7292 23.6972 51.4544 25.4789 50.1857C25.5428 51.5775 25.2618 52.9615 24.6553 54.2216C24.3557 54.8439 24.6174 55.5911 25.2397 55.8905C25.8617 56.1898 26.6089 55.9284 26.9086 55.3061C27.8079 53.4374 28.1556 51.3593 27.9137 49.2966C27.8807 49.0151 27.8372 48.7372 27.7835 48.4634C28.7166 47.7298 29.5737 47.007 30.3326 46.3079C33.566 43.3297 34.6479 41.2203 33.737 39.6691C32.7082 37.9166 29.8698 38.4938 28.9372 38.6834C27.1394 39.049 24.8439 39.8342 22.2694 40.9617C20.3512 39.916 18.1037 39.4318 15.7733 39.7048C10.1925 40.3592 6.07753 45.1293 6.10729 50.6223C4.13609 52.1837 2.56072 53.6636 1.53261 54.9239C0.986235 55.5936 -0.676399 57.6317 0.302577 59.2993C0.785188 60.1206 1.67614 60.5303 3.02846 60.5303ZM31.5051 40.9783C31.3497 41.4792 30.5702 42.7781 28.0906 44.9619C27.7316 45.2779 27.3503 45.5995 26.953 45.9243C26.376 44.6968 25.5804 43.6011 24.6212 42.6818C28.8282 40.9742 30.8731 40.8404 31.5051 40.9783ZM16.0648 42.1882C19.9552 41.7315 23.5507 44.0144 24.9125 47.5073C22.9657 48.9449 20.7359 50.4104 18.3771 51.7953C15.6657 53.3873 12.9456 54.7768 10.4723 55.8431C9.5047 54.6413 8.8548 53.1699 8.66525 51.5535C8.12325 46.9316 11.4426 42.7302 16.0648 42.1882ZM6.51451 53.5188C6.84371 54.696 7.36545 55.8079 8.06011 56.8083C7.0235 57.1876 5.96976 57.531 4.89176 57.7724C4.29325 57.9065 3.67823 58.0195 3.06309 58.0271C2.8873 58.0293 2.70776 58.0246 2.53509 57.9882C2.70813 57.4312 3.64347 55.9485 6.51451 53.5188Z" fill="#C41230"/>
<path d="M43.9826 55.7777C46.5411 55.7777 48.6224 53.6963 48.6224 51.1379C48.6224 48.5794 46.5411 46.498 43.9826 46.498C41.4241 46.498 39.3428 48.5794 39.3428 51.1379C39.3428 53.6963 41.4241 55.7777 43.9826 55.7777ZM43.9826 48.9985C45.1622 48.9985 46.1218 49.9582 46.1218 51.1377C46.1218 52.3173 45.1621 53.277 43.9826 53.277C42.8031 53.277 41.8433 52.3173 41.8433 51.1377C41.8433 49.9582 42.8029 48.9985 43.9826 48.9985Z" fill="#C41230"/>
<path d="M14.9173 35.0301C18.542 35.0301 21.4909 32.0812 21.4909 28.4565C21.4909 24.8317 18.542 21.8828 14.9173 21.8828C11.2927 21.8828 8.34375 24.8317 8.34375 28.4565C8.34375 32.0812 11.2927 35.0301 14.9173 35.0301ZM14.9173 24.3834C17.1632 24.3834 18.9903 26.2106 18.9903 28.4565C18.9903 30.7023 17.1632 32.5295 14.9173 32.5295C12.6714 32.5295 10.8443 30.7023 10.8443 28.4565C10.8443 26.2106 12.6714 24.3834 14.9173 24.3834Z" fill="#C41230"/>
<path d="M21.0628 59.5338C21.4361 60.1034 22.232 60.2557 22.7957 59.8801C23.3638 59.5015 23.5178 58.7126 23.1407 58.146C22.763 57.5783 21.9745 57.4251 21.408 57.8009C20.8392 58.1781 20.6861 58.9678 21.0628 59.5338Z" fill="#C41230"/>
</g>
<defs>
<clipPath id="clip0_2901_1591">
<rect width="64" height="64" fill="white"/>
</clipPath>
</defs>
</svg>
