<svg width="64" height="64" viewBox="0 0 64 64" fill="none" xmlns="http://www.w3.org/2000/svg">
<g clip-path="url(#clip0_2901_1574)">
<path d="M56.832 33.9615C53.7019 31.8305 50.0455 30.9107 46.4696 31.1589C47.2161 28.8268 47.5952 26.3984 47.5952 23.9129C47.5952 10.9428 36.7543 0.115234 23.7974 0.115234C10.8335 0.115109 0 10.9502 0 23.9128C0 36.8844 10.8634 47.7103 23.7975 47.7103C26.3622 47.7103 28.8634 47.3077 31.2602 46.5149C31.1452 48.4444 31.3683 50.3962 31.9344 52.2647C33.0143 55.8288 35.3075 58.9479 38.3914 61.0474C39.4056 61.7379 40.4957 62.3143 41.6313 62.7606C42.2741 63.0134 42.9992 62.6971 43.2517 62.0546C43.5043 61.412 43.1881 60.6865 42.5456 60.434C41.5833 60.0558 40.6588 59.5668 39.7984 58.981C37.1469 57.1761 35.2548 54.603 34.3269 51.5399C33.4313 48.5838 33.5479 45.3397 34.6729 42.4618C34.798 42.1417 34.7857 41.7844 34.6392 41.4736L32.4557 36.8445L37.4985 37.3706C37.8461 37.4068 38.1916 37.2963 38.4534 37.0661C40.3113 35.4329 42.4975 34.481 44.8776 33.8898C48.4449 33.1758 52.2536 33.8689 55.4252 36.0282C58.4907 38.1151 60.5599 41.2709 61.2518 44.9143C61.9436 48.5578 61.1753 52.2525 59.0881 55.3178C57.4516 57.7217 55.1497 59.5226 52.4313 60.5258C51.7836 60.7648 51.4524 61.4836 51.6914 62.1312C51.9272 62.7702 52.6571 63.107 53.2968 62.8712C56.5064 61.6866 59.2235 59.5613 61.1546 56.7247C63.6174 53.1073 64.5241 48.7473 63.7076 44.4479C62.8912 40.1485 60.4493 36.4244 56.832 33.9615ZM27.9385 8.69342V6.30867C27.9385 5.03023 27.5371 3.8298 26.8514 2.83485C26.9061 2.84272 26.9613 2.8496 27.016 2.85797C27.032 2.86047 27.048 2.86297 27.064 2.86547C32.2519 3.66743 36.8264 6.34892 40.0702 10.1893V17.2169C40.0702 17.8453 39.8256 18.4362 39.3814 18.8804L35.9978 22.264C35.059 23.2029 34.5214 24.4714 34.523 25.7443C34.5245 27.0232 33.4497 28.0988 32.1706 28.0988H29.5957C28.9755 28.0988 28.3702 27.8483 27.9333 27.4098L23.9207 23.3986C23.4832 22.9602 23.2322 22.3541 23.2322 21.7354V17.3117C23.2322 16.2848 23.6672 15.3002 24.426 14.6101L25.9281 13.2432C27.2056 12.0784 27.9385 10.4201 27.9385 8.69342ZM10.3853 10.0224C10.533 10.17 10.6142 10.3661 10.6142 10.5747V15.107C10.6142 15.9833 10.9554 16.8073 11.5753 17.4271C11.8766 17.7285 11.8768 18.2302 11.5753 18.5317L10.3141 19.7929C10.1665 19.9406 9.97037 20.0218 9.76175 20.0218H7.40312C7.19451 20.0218 6.99839 19.9406 6.85078 19.7929L3.75806 16.7003C4.87125 13.6167 6.67716 10.8619 8.98679 8.6238L10.3853 10.0224ZM19.1423 44.6966C12.3667 43.1798 6.61979 38.2775 4.02855 31.8342H11.9784C13.1743 31.8342 14.1818 32.8388 14.1818 34.0358C14.1818 35.8727 15.2602 37.5517 16.9285 38.3129L17.8563 38.7371C18.6376 39.0941 19.1424 39.8805 19.1424 40.7405V44.6966H19.1423ZM31.6708 43.7076C29.1686 44.7051 26.5233 45.2103 23.7975 45.2103C23.0701 45.2103 22.3511 45.1734 21.6423 45.1018V40.7404C21.6423 38.9046 20.5641 37.2259 18.8954 36.4633L17.967 36.0388C17.1861 35.6824 16.6817 34.8961 16.6817 34.0356C16.6817 31.475 14.5386 29.3343 11.9784 29.3343H3.20009C2.74386 27.6027 2.49987 25.7858 2.49987 23.9128C2.49987 22.3821 2.66361 20.8892 2.97185 19.4493L5.08299 21.5604C5.70271 22.1802 6.52667 22.5216 7.40312 22.5216H9.76175C10.6381 22.5216 11.462 22.1804 12.0819 21.5605L13.3431 20.2993C14.6075 19.0349 14.6084 16.9246 13.3431 15.6593C13.1953 15.5117 13.1141 15.3156 13.1141 15.107V10.5747C13.1141 9.69825 12.7729 8.87429 12.1531 8.25457L10.8858 6.98739C14.0663 4.55526 17.9483 2.99684 22.1716 2.67648C24.0097 2.86922 25.4385 4.44901 25.4385 6.30854V8.6933C25.4385 9.7185 25.0031 10.7036 24.2446 11.395L22.7438 12.7608C21.4654 13.9234 20.7323 15.5819 20.7323 17.3116V21.7353C20.7323 23.0298 21.2363 24.2478 22.1523 25.1653L26.164 29.1759C27.0649 30.0798 28.3157 30.5984 29.5956 30.5984H32.1705C34.8146 30.5984 37.026 28.3855 37.0227 25.7409C37.022 25.1273 37.2926 24.5041 37.7653 24.0315L41.1489 20.6479C42.0652 19.7316 42.5698 18.5131 42.5698 17.2167V13.8623C44.18 16.8578 45.095 20.2802 45.095 23.9127C45.095 26.5673 44.6145 29.1488 43.666 31.5961C41.317 32.1774 39.0964 33.2917 37.2259 34.8277L30.5082 34.1273C29.5549 34.028 28.8403 35.0403 29.2476 35.9039L32.1535 42.0649C31.9645 42.603 31.8025 43.153 31.6708 43.7076Z" fill="#C41230"/>
<path d="M53.4214 45.9684C53.3392 42.5907 51.4563 39.4438 48.2558 37.3351C47.8385 37.0602 47.2975 37.0602 46.8803 37.3351C43.6799 39.4438 41.797 42.5905 41.7147 45.9682C41.6338 49.2891 43.3116 52.4573 46.3181 54.6647V57.3C46.3181 57.9903 46.8778 58.55 47.568 58.55C48.2583 58.55 48.818 57.9903 48.818 57.3V54.6648C51.8246 52.4574 53.5021 49.2893 53.4214 45.9684ZM47.5679 46.2543C46.8777 46.2543 46.318 46.8141 46.318 47.5043V51.3247C44.9188 49.7887 44.1675 47.9324 44.2137 46.0291C44.2698 43.7245 45.4811 41.5338 47.5679 39.9143C49.6548 41.534 50.8661 43.7246 50.9221 46.0292C50.9685 47.9325 50.217 49.7888 48.8178 51.3247V47.5043C48.8178 46.8141 48.2583 46.2543 47.5679 46.2543Z" fill="#C41230"/>
<path d="M48.7225 62.162C48.5207 61.6691 48.0068 61.3545 47.4761 61.394C46.9542 61.4328 46.5046 61.8029 46.3644 62.3065C46.0682 63.3704 47.2621 64.2762 48.2103 63.7113C48.7344 63.399 48.9573 62.7251 48.7225 62.162Z" fill="#C41230"/>
</g>
<defs>
<clipPath id="clip0_2901_1574">
<rect width="64" height="64" fill="white"/>
</clipPath>
</defs>
</svg>
