<svg width="64" height="64" viewBox="0 0 64 64" fill="none" xmlns="http://www.w3.org/2000/svg">
<g clip-path="url(#clip0_2901_1600)">
<path d="M62.8694 57.6477C62.1664 56.9447 61.2319 56.5575 60.2381 56.5575H52.9417V11.1864C52.9417 9.80238 52.2919 8.56812 51.2821 7.77011C52.2919 6.9721 52.9417 5.73783 52.9417 4.35381C52.9417 1.95315 50.9887 0 48.5881 0C46.1874 0 44.2342 1.95315 44.2342 4.35381C44.2342 5.73783 44.8841 6.9721 45.8939 7.77011C44.8841 8.56812 44.2342 9.80238 44.2342 11.1864V16.2478C41.8158 14.8883 39.3892 14.9241 37.0493 15.4943V11.1868C37.0493 9.80263 36.3995 8.56824 35.39 7.77011C36.3996 6.9721 37.0495 5.73783 37.0495 4.35393C37.0494 1.95328 35.0964 0.000125002 32.6957 0.000125002C30.2951 0.000125002 28.342 1.95328 28.342 4.35393C28.342 5.73783 28.9918 6.97197 30.0013 7.76998C29.4039 8.24211 28.9332 8.86675 28.6479 9.58513C24.4525 7.0186 20.2203 8.763 16.4465 10.319C15.727 10.6158 14.983 10.9225 14.2587 11.1929C13.7737 11.3739 13.5272 11.914 13.7083 12.399C13.8893 12.8842 14.4295 13.1308 14.9145 12.9496C15.6684 12.6682 16.4274 12.3552 17.1614 12.0525C21.0486 10.4496 24.727 8.93312 28.3413 11.6419V18.6338C25.7746 19.3439 23.2816 19.3415 20.8163 17.3071C20.5363 17.0761 20.1483 17.0276 19.8199 17.1822C19.4915 17.337 19.282 17.6674 19.282 18.0302V30.6573C18.3245 30.993 17.3714 31.3851 16.4441 31.7676C12.5572 33.3706 8.87901 34.8874 5.26434 32.1783V12.9693C7.03436 13.9648 8.96089 14.3008 11.107 13.9944C11.6197 13.9213 11.9759 13.4466 11.9028 12.9339C11.8298 12.4213 11.3534 12.0652 10.8424 12.1382C8.58038 12.4608 6.69961 11.9285 4.92333 10.4635C4.64333 10.2325 4.25507 10.184 3.92694 10.3388C3.59869 10.4935 3.38919 10.8238 3.38919 11.1868V32.6331C3.38919 32.913 3.51419 33.1781 3.73007 33.3562C5.68047 34.9654 7.64899 35.5419 9.58602 35.5419C12.2101 35.5419 14.7761 34.4836 17.1589 33.5007C17.8579 33.2125 18.572 32.9182 19.2819 32.6514V39.4764C19.2819 39.7563 19.4069 40.0214 19.6228 40.1996C21.5729 41.8087 23.5415 42.3852 25.4784 42.3852C26.4426 42.3852 27.3989 42.2415 28.3412 42.012V56.5575H3.76244C1.71054 56.5575 0.0410156 58.2269 0.0410156 60.279C0.0410156 61.2743 0.428521 62.2091 1.13116 62.9101C1.83417 63.6131 2.76868 64.0003 3.76244 64.0003H52.9181C53.436 64.0003 53.8556 63.5805 53.8556 63.0627C53.8556 62.545 53.436 62.1252 52.9181 62.1252H3.76244C3.26956 62.1252 2.80593 61.9331 2.4563 61.5836C2.10804 61.2361 1.91617 60.7728 1.91617 60.279C1.91617 59.2608 2.74443 58.4326 3.76257 58.4326H60.2382C60.7311 58.4326 61.1947 58.6247 61.5444 58.9743C61.8926 59.3218 62.0845 59.7851 62.0845 60.279C62.0845 61.297 61.2562 62.1252 60.2381 62.1252H56.6625C56.1447 62.1252 55.725 62.545 55.725 63.0627C55.725 63.5805 56.1447 64.0003 56.6625 64.0003H60.2381C62.29 64.0003 63.9595 62.3309 63.9595 60.279C63.9595 59.2833 63.572 58.3487 62.8694 57.6477ZM46.1093 4.35393C46.1093 2.98717 47.2213 1.87515 48.5881 1.87515C49.9548 1.87515 51.0667 2.98717 51.0667 4.35393C51.0667 5.7207 49.9547 6.83272 48.5881 6.83272C47.2212 6.83259 46.1093 5.7207 46.1093 4.35393ZM51.0667 11.1864V56.5575H46.1093V39.4764V11.1864C46.1093 9.81963 47.2213 8.70762 48.5881 8.70762C49.9547 8.70762 51.0667 9.81963 51.0667 11.1864ZM44.2342 39.9315V56.5575H37.0493V38.8732C39.4979 38.1955 41.8797 38.1665 44.2342 39.9315ZM30.2171 4.35393C30.2171 2.98717 31.3291 1.87515 32.6957 1.87515C34.0624 1.87515 35.1744 2.98717 35.1744 4.35393C35.1744 5.71908 34.065 6.82972 32.7006 6.83247C32.6991 6.83247 32.6975 6.83234 32.696 6.83234C32.6943 6.83234 32.6927 6.83247 32.691 6.83247C31.3264 6.82972 30.2171 5.71908 30.2171 4.35393ZM30.2164 11.1868C30.2164 9.82126 31.3261 8.71024 32.6911 8.70749C32.6927 8.70749 32.6942 8.70762 32.6957 8.70762C32.6973 8.70762 32.699 8.70749 32.7007 8.70749C34.065 8.71012 35.1741 9.82113 35.1741 11.1868V16.056C34.2064 16.3929 33.2586 16.7837 32.3381 17.1634C31.6241 17.458 30.9172 17.7491 30.2163 18.0122V11.1868H30.2164ZM21.1572 39.0215V19.8128C25.2526 22.1151 29.3712 20.4159 33.0532 18.8968C36.9412 17.2929 40.6191 15.7751 44.2341 18.485V37.6938C40.1386 35.3915 36.02 37.0906 32.3381 38.6098C28.4507 40.2137 24.7724 41.7316 21.1572 39.0215ZM30.2164 56.5575V41.4502C31.1844 41.1132 32.1327 40.7228 33.0532 40.3429C33.767 40.0484 34.4735 39.7574 35.1741 39.4944V56.5574H30.2164V56.5575Z" fill="#C41230"/>
</g>
<defs>
<clipPath id="clip0_2901_1600">
<rect width="64" height="64" fill="white"/>
</clipPath>
</defs>
</svg>
