<svg width="64" height="64" viewBox="0 0 64 64" fill="none" xmlns="http://www.w3.org/2000/svg">
<g clip-path="url(#clip0_2966_1392)">
<path d="M30.2942 49.7372L25.7968 48.8717C25.5516 48.8249 25.2976 48.8771 25.0913 49.0179C24.885 49.1587 24.7433 49.3759 24.6978 49.6214L23.2102 57.6472C23.1158 58.1563 23.4521 58.6454 23.9612 58.7398C24.019 58.7506 24.0763 58.7557 24.1331 58.7557C24.5761 58.7557 24.9702 58.4403 25.0538 57.9889L26.3693 50.8913L29.9397 51.5784C30.4481 51.6756 30.9397 51.3433 31.0375 50.8349C31.1352 50.3266 30.8026 49.8352 30.2942 49.7372Z" fill="#C41230"/>
<path d="M27.4108 32.6562V27.8653H33.8151C36.4272 27.8653 38.8176 26.2522 39.6278 23.9423C40.2173 22.2618 39.8378 20.5957 38.6172 19.3927C38.7037 17.3532 37.9301 15.4483 36.4092 13.9843C35.2017 12.822 33.6636 12.1173 32.3276 12.0814C31.5256 11.0013 30.1637 10.1594 28.4224 9.68004C26.4131 9.12692 24.3289 9.16054 22.8999 9.74042C21.4654 8.89479 19.3509 8.68642 17.0947 9.19179C14.4828 9.77667 12.2997 11.1602 11.2718 12.8547C9.41968 13.4445 7.57231 15.0117 6.57656 16.8717C5.86281 18.2049 5.64256 19.5483 5.92718 20.7942C5.00418 21.8599 4.62781 23.4107 4.86343 25.2363C4.92968 25.7497 5.39981 26.1122 5.91318 26.0462C6.42668 25.9799 6.78931 25.5099 6.72306 24.9964C6.59318 23.9902 6.71356 23.1112 7.05318 22.463C8.82818 23.9548 11.4064 24.5208 13.7722 23.5745C14.2529 23.3822 14.4867 22.8367 14.2944 22.3559C14.1022 21.8752 13.5568 21.6412 13.0758 21.8335C11.0401 22.6482 8.88668 21.8198 7.81793 20.6004C7.48193 19.524 7.84981 18.4667 8.22968 17.7567C9.03156 16.2587 10.5823 14.9708 12.0286 14.5888H12.4107C14.1096 14.5888 15.4917 15.971 15.4917 17.6698V18.0409C15.4917 19.903 17.0067 21.4182 18.8689 21.4182H20.1114C20.6292 21.4182 21.0489 20.9985 21.0489 20.4807C21.0489 19.9628 20.6292 19.5432 20.1114 19.5432H18.8689C18.0406 19.5432 17.3667 18.8693 17.3667 18.0409V17.6698C17.3667 15.3739 15.7973 13.4383 13.6752 12.8778C14.5916 12.0458 15.9608 11.3672 17.5046 11.0214C19.2467 10.6314 20.8709 10.7498 21.8839 11.3192V13.6797C21.8839 15.8438 23.6444 17.6043 25.8086 17.6043H28.1419C28.6597 17.6043 29.0794 17.1847 29.0794 16.6668C29.0794 16.1489 28.6597 15.7293 28.1419 15.7293H25.8083C24.6781 15.7293 23.7587 14.8099 23.7587 13.6797V11.4209C24.7901 11.0634 26.4327 11.0772 27.9248 11.4879C29.4166 11.8987 30.5412 12.6293 31.0103 13.4925C31.1982 13.8385 31.5823 14.0308 31.9714 13.9723C32.6904 13.8659 33.9782 14.247 35.1088 15.3353C35.7847 15.9859 36.8667 17.3642 36.7372 19.4259L36.1044 20.2325C35.4238 21.1 34.4011 21.5977 33.2983 21.5977H32.5013C31.9836 21.5977 31.5638 22.0173 31.5638 22.5352C31.5638 23.053 31.9836 23.4727 32.5013 23.4727H33.2983C34.9807 23.4727 36.5412 22.7135 37.5796 21.3899L37.7029 21.2327C38.1787 22.0225 38.0278 22.8392 37.8586 23.3218C37.4077 24.607 35.9501 25.9904 33.8151 25.9904C32.6598 25.9904 25.7368 25.9904 24.7082 25.9904C24.1978 25.9904 23.7813 26.3987 23.7708 26.9088C23.7329 28.7645 23.0641 30.1327 21.7827 30.9754C19.8784 32.2278 16.8358 32.161 14.6606 31.4603V28.9088C14.6606 27.2929 15.9752 25.9784 17.5909 25.9784H19.6537C20.1714 25.9784 20.5912 25.5588 20.5912 25.0409C20.5912 24.523 20.1714 24.1034 19.6537 24.1034H17.5909C14.9413 24.1034 12.7856 26.2592 12.7856 28.9088V31.3033C10.4147 31.4322 8.80868 29.5584 8.19268 28.6834C7.89443 28.26 7.30981 28.1584 6.88643 28.4565C6.46306 28.7547 6.36143 29.3394 6.65956 29.7628C8.45481 32.3125 11.0446 33.5397 13.6369 33.0898C14.5127 33.4162 15.5092 33.643 16.5173 33.7559C16.3486 34.4884 15.9672 35.1658 15.4136 35.6883L14.8148 36.2533C13.6167 37.3837 12.9294 38.9775 12.9294 40.6263V45.8225C12.9294 46.3404 13.3492 46.76 13.8669 46.76C14.3847 46.76 14.8044 46.3404 14.8044 45.8225V40.6263C14.8044 39.4915 15.2772 38.3947 16.1016 37.6169L16.7003 37.0519C17.6114 36.192 18.2103 35.0507 18.4132 33.8273C22.1129 33.6732 24.9487 31.8185 25.5356 28.1778V32.6563C25.5356 34.2299 24.5834 35.6417 23.1099 36.2529L20.1976 37.4615C18.0216 38.3643 16.6156 40.4563 16.6156 42.7913V45.8225C16.6156 46.3404 17.0353 46.76 17.5531 46.76C18.0708 46.76 18.4906 46.3404 18.4906 45.8225V42.7913C18.4906 41.2169 19.4426 39.8047 20.9162 39.1934L23.8286 37.9848C26.0048 37.0819 27.4108 34.9904 27.4108 32.6562Z" fill="#C41230"/>
<path d="M61.0064 24.1024C59.6831 24.1024 58.5584 24.9657 58.1639 26.1584H57.7421L56.5667 23.4138C57.1874 22.8649 57.5798 22.0635 57.5798 21.1717C57.5798 19.5209 56.2367 18.178 54.5861 18.178C52.9355 18.178 51.5925 19.5209 51.5925 21.1717C51.5925 22.098 52.0155 22.9273 52.6784 23.4769L50.6219 28.7345C50.5728 28.732 50.5234 28.7308 50.4738 28.7308C50.1982 28.7308 49.9317 28.7689 49.6781 28.8389L48.1889 26.5799C48.0154 26.3168 47.7214 26.1584 47.4061 26.1584H46.5495C46.7366 24.6273 46.6371 23.0689 46.2371 21.5754C43.662 11.9597 34.9027 5.24365 24.9361 5.24365H17.8862C8.02362 5.24365 0 13.2674 0 23.1298C0 27.1637 1.3845 31.1223 3.89838 34.2769L7.10463 38.3003C7.72863 39.0834 7.96663 40.094 7.75763 41.0733L4.225 57.6227C4.117 58.129 4.43975 58.627 4.94625 58.7351C5.01225 58.7491 5.078 58.756 5.14288 58.756C5.57575 58.7559 5.96475 58.4544 6.05888 58.0139L9.5915 41.4644C9.91813 39.9344 9.54625 38.3552 8.57113 37.1317L5.36487 33.1083C3.11437 30.2844 1.875 26.7408 1.875 23.1298C1.875 14.3012 9.0575 7.11865 17.8861 7.11865H24.936C34.0554 7.11865 42.07 13.2629 44.426 22.0605C45.1461 24.7494 44.7119 27.6925 43.2346 30.1353L42.1174 31.9829C41.6524 32.7519 41.6607 33.7022 42.1389 34.4625L45.128 39.218C45.2821 39.4633 45.3257 39.7524 45.2505 40.0323C45.1753 40.312 44.9927 40.5405 44.7364 40.6755L41.4938 42.3834C40.8673 42.7133 40.4062 43.2954 40.2287 43.9807L38.8279 49.3902C38.5442 50.485 37.4185 51.1609 36.3187 50.8978C36.305 50.8945 36.2911 50.8914 36.2772 50.8888L34.5959 50.5652C34.0869 50.467 33.5959 50.8002 33.4981 51.3087C33.4002 51.817 33.7331 52.3085 34.2415 52.4064L35.9035 52.7263C37.9835 53.2122 40.1068 51.931 40.6431 49.8601L42.044 44.4506C42.0894 44.2755 42.2072 44.1266 42.3674 44.0423L45.61 42.3344C46.3232 41.9588 46.8521 41.2969 47.0612 40.5187C47.2704 39.7402 47.1442 38.9024 46.7152 38.2201L43.7261 33.4645C43.6275 33.3077 43.6259 33.1118 43.7217 32.953L44.839 31.1054C45.4243 30.1377 45.8696 29.1023 46.1715 28.0334H46.9012L48.1184 29.8798C47.719 30.3885 47.4799 31.0289 47.4799 31.7244C47.4799 33.3752 48.8229 34.718 50.4735 34.718C52.1242 34.718 53.4673 33.3752 53.4673 31.7244C53.4673 30.7932 53.0397 29.9599 52.3708 29.4104L54.4241 24.1608C54.5634 24.1683 54.6879 24.1669 54.8435 24.1534L56.2617 27.4649C56.4095 27.8097 56.7485 28.0333 57.1236 28.0333H58.1636C58.558 29.2262 59.6829 30.0895 61.0062 30.0895C62.657 30.0895 63.9999 28.7467 63.9999 27.0959C63.9999 25.4452 62.657 24.1024 61.0064 24.1024ZM50.4738 32.8432C49.8569 32.8432 49.3551 32.3413 49.3551 31.7245C49.3551 31.1104 49.8554 30.6059 50.4738 30.6059C51.0906 30.6059 51.5925 31.1078 51.5925 31.7245C51.5925 32.3413 51.0906 32.8432 50.4738 32.8432ZM54.5861 20.0532C55.203 20.0532 55.7048 20.555 55.7048 21.1718C55.7048 21.7885 55.2029 22.2904 54.5861 22.2904C53.9694 22.2904 53.4675 21.7885 53.4675 21.1718C53.4675 20.555 53.9692 20.0532 54.5861 20.0532ZM61.0064 28.2148C60.3895 28.2148 59.8876 27.7129 59.8876 27.0962C59.8876 26.4794 60.3895 25.9775 61.0064 25.9775C61.6232 25.9775 62.125 26.4794 62.125 27.0962C62.125 27.7129 61.6231 28.2148 61.0064 28.2148Z" fill="#C41230"/>
</g>
<defs>
<clipPath id="clip0_2966_1392">
<rect width="64" height="64" fill="white"/>
</clipPath>
</defs>
</svg>
