<svg width="64" height="64" viewBox="0 0 64 64" fill="none" xmlns="http://www.w3.org/2000/svg">
<g clip-path="url(#clip0_2967_1404)">
<path d="M63.6164 60.9032L61.4927 58.0716V45.29C61.4927 44.2576 61.2793 43.2559 60.8584 42.3131L56.9905 33.6511V22.9823C56.9905 22.4642 56.5708 22.0445 56.0527 22.0445C55.5347 22.0445 55.1149 22.4642 55.1149 22.9823V33.8499C55.1109 33.8684 55.1302 34.0918 55.1958 34.2324L59.1456 43.0778C59.4585 43.7786 59.6171 44.5229 59.6171 45.29V58.3844C59.6171 58.5873 59.6829 58.7847 59.8047 58.947L62.1159 62.0287C62.1248 62.0407 62.1289 62.0462 62.1192 62.0655C62.1094 62.085 62.1026 62.085 62.0877 62.085H57.1083C56.4764 62.085 55.9622 61.5709 55.9622 60.9389V47.2343C55.9622 47.0326 55.8971 46.836 55.7767 46.6742L49.8002 38.6462C49.7272 38.548 49.6356 38.465 49.5305 38.4021C48.0826 37.5821 47.2599 35.9203 47.178 34.4456V26.5634L50.6876 20.0815C50.9342 19.6259 50.7649 19.0569 50.3095 18.8102C49.8536 18.5636 49.285 18.733 49.0382 19.1883L45.4171 25.8762C45.3738 25.9737 45.3014 26.1071 45.3024 26.3257V35.6248C45.3024 36.4193 44.6561 37.0655 43.8617 37.0655C43.4775 37.0655 43.1159 36.9155 42.8434 36.643C42.5718 36.3716 42.4223 36.0099 42.4223 35.6247V25.9408C42.4223 25.3853 42.5453 24.8247 42.7782 24.3203L45.8786 17.6061C46.1197 17.0844 46.5831 16.7219 47.1501 16.6116C47.3292 16.5715 47.5293 16.4854 47.6888 16.2946C48.1003 15.8052 48.7034 15.5246 49.3433 15.5246H52.9499C54.1438 15.5246 55.1151 16.4961 55.1151 17.6898V18.5994C55.1151 19.1174 55.5348 19.5372 56.0529 19.5372C56.5709 19.5372 56.9907 19.1174 56.9907 18.5994V17.6898C56.9907 15.868 55.7785 14.3246 54.1186 13.822V11.9296C55.4851 11.3818 56.4531 10.0446 56.4531 8.48476V4.71692C56.4531 2.12647 54.3457 0.019043 51.7552 0.019043H50.0004C47.41 0.019043 45.3026 2.12647 45.3026 4.71692V5.92594C45.3026 8.1519 46.4697 10.1093 48.2231 11.222V13.8077C47.5637 13.9976 46.9608 14.3545 46.4719 14.8499C45.4636 15.1431 44.6192 15.8602 44.1757 16.8198L41.0752 23.5346C40.7293 24.2838 40.5465 25.1161 40.5465 25.9412V35.6251C40.5465 36.5112 40.8911 37.3439 41.517 37.9697C42.1437 38.5964 42.9763 38.9414 43.8616 38.9414C44.5303 38.9414 45.1529 38.7418 45.6744 38.4001L44.4882 46.1631L34.9591 55.5761C34.3851 56.143 34.0663 56.9 34.0616 57.7075C34.0568 58.5148 34.3664 59.2754 34.9334 59.8492L38.4329 63.3925C38.7991 63.7627 39.2861 63.9608 39.7872 63.9608C39.9866 63.9608 40.1882 63.9294 40.3852 63.865C41.0776 63.6388 41.5746 63.051 41.6824 62.3302L42.2034 58.8294L51.3587 49.7865C51.4802 49.6666 51.5988 49.5417 51.7115 49.4152C52.0561 49.0286 52.0221 48.4359 51.6355 48.0912C51.2488 47.7466 50.656 47.7807 50.3114 48.1672C49.6963 48.8284 41.1856 57.1789 40.6629 57.7146C40.5185 57.8573 40.4242 58.043 40.3945 58.2437L39.8275 62.0532C39.8252 62.0682 39.8243 62.075 39.8032 62.0819C39.7823 62.0888 39.7768 62.0839 39.7669 62.0738L36.2677 58.5312C36.0526 58.3136 35.9353 58.025 35.9371 57.7185C35.9389 57.4123 36.0595 57.1253 36.277 56.9105L46.0272 47.2792C46.1707 47.1374 46.2646 46.9531 46.2952 46.7536L47.4524 39.1813C47.7323 39.4378 48.0462 39.6831 48.4025 39.9098L54.0866 47.5451V60.9389C54.0866 62.6051 55.4422 63.9606 57.1083 63.9606H62.0877C62.816 63.9606 63.4709 63.5559 63.7967 62.9044C64.1226 62.2527 64.0534 61.4861 63.6164 60.9032ZM52.2429 13.6492H50.0986V12.0188C50.5714 12.133 51.0643 12.1952 51.5717 12.1952H52.2429V13.6492ZM47.1779 5.92594V4.71692C47.1779 3.16067 48.4439 1.89464 50.0002 1.89464H51.755C53.3112 1.89464 54.5773 3.16067 54.5773 4.71692V8.48488C54.5832 10.1135 52.8693 10.469 51.5716 10.3197C49.1489 10.3196 47.1779 8.34871 47.1779 5.92594Z" fill="#C41230"/>
<path d="M29.2763 52.1094L27.2969 36.6474C27.2915 36.5758 27.3222 36.5252 27.3493 36.4952C27.3776 36.4638 27.4273 36.4265 27.504 36.4265H29.7538C31.331 36.4265 32.6141 35.1428 32.6141 33.5649V32.8604C32.6141 31.861 32.106 30.9505 31.2542 30.4246L30.0012 29.6519C28.3574 26.1883 25.8583 24.1309 23.4373 24.2601C20.8392 24.3997 18.5156 28.6069 18.0957 30.3709C17.7848 31.6768 16.9607 33.6985 16.632 34.4815L11.215 36.9971C10.7452 37.2153 10.5413 37.773 10.7594 38.2428C10.9776 38.7125 11.5351 38.9165 12.005 38.6984L17.749 36.0309C17.9571 35.9343 18.1225 35.7646 18.214 35.5543C18.266 35.4347 19.4912 32.6069 19.9203 30.8054C20.0756 30.1529 20.6179 28.9456 21.4418 27.8365C22.3492 26.6148 23.1196 26.1556 23.5382 26.1331C25.1796 26.0436 27.1405 27.8752 28.4148 30.6891C28.4918 30.8591 28.6178 31.0024 28.7768 31.1005L30.2693 32.0209C30.5632 32.2023 30.7386 32.5162 30.7386 32.8605V33.5651C30.7386 34.1089 30.2969 34.5512 29.754 34.5512L24.7775 34.5506C24.2595 34.5506 23.8397 34.9703 23.8397 35.4884C23.8397 36.0064 24.2595 36.4262 24.7775 36.4262H25.3691L27.4521 52.6266C27.4755 52.8062 27.5503 52.975 27.6675 53.113L30.4941 56.4386C30.6519 56.6241 30.7388 56.8606 30.7388 57.1043V59.038C30.7388 59.2067 30.6015 59.3439 30.4329 59.3439H28.6444C28.5172 59.3439 28.402 59.2637 28.3576 59.1448L27.4961 56.8336C27.4476 56.7034 27.3708 56.5856 27.2713 56.4887L25.1361 54.4123C24.87 54.1535 24.6792 53.827 24.5842 53.4684L22.6288 46.0799C22.5371 45.8133 22.5568 45.9012 22.3152 45.5236C22.3002 45.5051 20.8133 43.6364 20.2377 41.8383C20.0797 41.345 19.5512 41.0732 19.0585 41.2312C18.5654 41.3891 18.2934 41.9169 18.4515 42.4103C18.8262 43.5807 19.4907 44.7298 20.0262 45.5441L16.0447 45.9352L13.4625 44.4286C13.0155 44.1673 12.441 44.3184 12.18 44.766C11.9189 45.2132 12.0699 45.7875 12.5173 46.0485L17.3013 48.6919C17.9813 49.0361 18.4036 49.7229 18.4036 50.4847V58.7208C18.4036 58.9238 18.4693 59.1211 18.5911 59.2835L20.7072 62.1053H16.1297C15.5757 62.1053 15.125 61.6546 15.125 61.1004V52.912C15.125 52.5158 14.8762 52.1625 14.5031 52.0289L4.8096 48.5603C2.48222 47.3529 1.81339 43.6236 4.45011 42.2071L8.03488 40.5422C8.50465 40.3242 8.70859 39.7665 8.4904 39.2967C8.27245 38.8269 7.7149 38.6227 7.24488 38.8412L3.62497 40.5224C-0.628147 42.8336 0.396807 48.464 4.11375 50.303L7.0902 51.3681L1.07852 55.6372C-0.140991 56.5681 -0.380318 58.4984 0.638884 59.734L3.59571 63.3104C3.9522 63.7418 4.47049 63.981 5.01266 63.9809C5.15208 63.9809 5.29325 63.9651 5.43355 63.9326C6.11864 63.7739 6.64631 63.2503 6.81049 62.5667L7.56773 59.4257C7.65926 59.3516 13.152 55.5654 13.2495 55.4666V61.1002C13.2495 62.6885 14.5417 63.9806 16.1298 63.9806H20.7693C21.4729 63.9806 22.1054 63.5895 22.4199 62.96C22.7341 62.331 22.6671 61.5912 22.2453 61.0297L20.2792 58.4078V50.4843C20.2792 49.3296 19.7771 48.2636 18.9269 47.5365L21.0198 47.3309L22.771 53.9482C22.9529 54.6355 23.3185 55.2608 23.8283 55.7567L25.8122 57.6862L26.6001 59.7999C26.9167 60.6489 27.7382 61.2195 28.6442 61.2195H30.4328C31.6357 61.2195 32.6143 60.2409 32.6143 59.038V57.1043C32.6143 56.4158 32.3687 55.748 31.923 55.2237L29.2763 52.1094ZM12.0453 54.0304L6.20454 58.089C6.01573 58.2201 5.88181 58.416 5.82792 58.6393L5.00166 62.0673L2.08522 58.5398C1.73886 58.1197 1.79088 57.4995 2.19738 57.1432L8.80663 52.4496C8.93804 52.3561 9.03995 52.2315 9.10785 52.0901L12.6757 53.3667C12.4902 53.6093 12.2791 53.833 12.0453 54.0304Z" fill="#C41230"/>
<path d="M13.8308 23.9651C15.7255 23.9651 17.267 22.4236 17.267 20.529C17.267 15.9876 20.7182 12.1937 25.1356 11.663V12.8689C25.1356 13.9616 25.7032 14.9354 26.654 15.4741C27.6047 16.0129 28.7317 15.999 29.669 15.4371L37.8681 10.5229C38.779 9.97684 39.3229 9.01666 39.3228 7.95457C39.3228 6.8926 38.7789 5.93255 37.868 5.38662L29.6691 0.472421C28.7319 -0.0893837 27.6047 -0.103263 26.654 0.435409C25.7032 0.973957 25.1356 1.94789 25.1356 3.04049V4.7613C16.9259 5.31247 10.3945 12.1994 10.3945 20.529C10.3945 22.4236 11.936 23.9651 13.8308 23.9651ZM26.0812 6.60188C26.596 6.59763 27.0112 6.179 27.0112 5.66408V3.04037C27.0112 2.45206 27.4079 2.16371 27.5784 2.06718C27.6803 2.00941 27.8825 1.91763 28.1363 1.91763C28.3073 1.91763 28.5017 1.95927 28.7049 2.08106L36.9038 6.99526C37.2491 7.20233 37.4472 7.55194 37.4472 7.95469C37.4473 8.35745 37.2491 8.70718 36.9038 8.91425L28.7048 13.8285C28.2002 14.1307 27.749 13.9387 27.5784 13.8422C27.4079 13.7455 27.0112 13.4573 27.0112 12.8689V10.6624C27.0112 10.4116 26.9108 10.1713 26.7324 9.9951C26.5568 9.82167 26.32 9.72464 26.0734 9.72464C26.0696 9.72464 26.0657 9.72464 26.0615 9.72476C20.178 9.79878 15.3914 14.6456 15.3914 20.5288C15.3914 21.3894 14.6912 22.0893 13.8308 22.0893C12.9704 22.0893 12.2703 21.3892 12.2703 20.5288C12.2701 12.9129 18.4657 6.66528 26.0812 6.60188Z" fill="#C41230"/>
</g>
<defs>
<clipPath id="clip0_2967_1404">
<rect width="64" height="64" fill="white"/>
</clipPath>
</defs>
</svg>
