<svg width="64" height="64" viewBox="0 0 64 64" fill="none" xmlns="http://www.w3.org/2000/svg">
<g clip-path="url(#clip0_2906_1688)">
<path d="M36.8202 10.6445C36.8202 7.98647 34.6578 5.82422 31.9999 5.82422C29.3421 5.82422 27.1797 7.98659 27.1797 10.6445C27.1797 13.3023 29.3421 15.4647 31.9999 15.4647C34.6578 15.4647 36.8202 13.3025 36.8202 10.6445ZM29.0546 10.6445C29.0546 9.02047 30.3758 7.69922 31.9998 7.69922C33.6238 7.69922 34.9451 9.02047 34.9451 10.6445C34.9451 12.2685 33.6238 13.5897 31.9998 13.5897C30.3758 13.5898 29.0546 12.2685 29.0546 10.6445Z" fill="#C41230"/>
<path d="M58.1757 32.0001C58.1757 29.3421 56.0133 27.1797 53.3554 27.1797C50.6975 27.1797 48.5352 29.3421 48.5352 32.0001C48.5352 34.6581 50.6975 36.8203 53.3554 36.8203C56.0133 36.8203 58.1757 34.6581 58.1757 32.0001ZM50.41 32.0001C50.41 30.3761 51.7313 29.0547 53.3553 29.0547C54.9793 29.0547 56.3005 30.3759 56.3005 32.0001C56.3005 33.6241 54.9793 34.9453 53.3553 34.9453C51.7313 34.9453 50.41 33.6241 50.41 32.0001Z" fill="#C41230"/>
<path d="M43.6917 43.6919C41.8124 45.5714 41.8124 48.6294 43.6917 50.5087C45.5708 52.3877 48.6289 52.3886 50.5087 50.5087C51.4192 49.5984 51.9207 48.3879 51.9207 47.1002C51.9207 45.8126 51.4192 44.6022 50.5088 43.6917C48.6292 41.8124 45.5713 41.8124 43.6917 43.6919ZM50.0457 47.1004C50.0457 47.8871 49.7393 48.6267 49.1829 49.183C48.0347 50.3315 46.1658 50.3315 45.0177 49.183C43.8694 48.0346 43.8693 46.166 45.0177 45.0177C46.1659 43.8692 48.0347 43.8694 49.183 45.0177C49.7392 45.574 50.0457 46.3136 50.0457 47.1004Z" fill="#C41230"/>
<path d="M54.6275 9.37248C48.5834 3.32849 40.5475 0 32 0C24.9387 0 18.2519 2.23725 12.6627 6.46986C12.2499 6.78236 12.1688 7.37049 12.4813 7.78323C12.7941 8.19598 13.3822 8.27736 13.7947 7.96461C19.0554 3.98074 25.3507 1.875 32.0002 1.875C48.6111 1.875 62.1251 15.389 62.1251 31.9999C62.1251 48.5015 48.7025 62.0153 32.2039 62.1243C31.9807 62.1258 31.7579 62.1248 31.5359 62.1215C29.2713 62.0873 27.1623 61.1643 25.5974 59.5224C23.9894 57.8351 23.1465 55.6088 23.224 53.2533C23.2935 51.1412 22.8174 49.0722 21.8422 47.223C40.8404 29.6863 40.0104 30.4532 40.0633 30.4036C40.0855 30.3828 40.5234 29.9441 41.606 28.8617C41.9721 28.4956 41.9721 27.9019 41.6059 27.5359C41.2399 27.1697 40.6463 27.1698 40.2801 27.5359L39.4244 28.3917L38.0046 26.9721L38.7145 26.2622C39.0806 25.8961 39.0806 25.3024 38.7145 24.9364C38.3483 24.5703 37.7548 24.5703 37.3886 24.9364L36.6788 25.6463L35.259 24.2266L35.9688 23.5167C37.0514 22.4342 38.5814 21.9328 40.1651 22.1416C41.6643 22.339 43.1371 21.8395 44.2055 20.7712C44.3144 20.6622 44.4178 20.5485 44.5154 20.4301C44.8774 21.7898 44.5183 23.2977 43.4625 24.3536C43.0963 24.7197 43.0963 25.3132 43.4624 25.6793C43.8284 26.0453 44.422 26.0456 44.7881 25.6793C45.8871 24.5803 46.4719 23.1423 46.5226 21.6837C47.9738 21.8553 49.4548 21.3622 50.5091 20.308C52.3885 18.4285 52.3885 15.3705 50.509 13.491C48.6296 11.6116 45.5716 11.6116 43.692 13.491C42.0991 15.0838 41.833 17.4956 42.9561 19.3656C42.321 20.0503 41.3918 20.4118 40.4098 20.2823C38.2441 19.9976 36.1413 20.6926 34.6429 22.1907C34.6239 22.2097 33.2637 23.5688 33.2359 23.5996C32.863 24.0035 19.7861 38.1702 16.3169 41.9284C14.5863 41.1095 12.6751 40.7119 10.7466 40.7762C8.39033 40.8543 6.16483 40.0107 4.47759 38.4027C2.83572 36.8378 1.91272 34.7289 1.87859 32.4639C1.75534 24.4646 4.74046 16.6758 10.5741 10.7849C10.9384 10.417 10.9356 9.82336 10.5676 9.45911C10.1997 9.09473 9.6062 9.09761 9.24183 9.46561C3.10546 15.6622 -0.129528 23.9101 0.00397178 32.4924C0.0457217 35.2641 1.17509 37.8449 3.18397 39.7597C5.23834 41.7179 7.94758 42.7439 10.8084 42.65C12.2407 42.6027 13.6587 42.8553 14.9721 43.3853L11.6562 46.9777C11.3049 47.358 11.3287 47.9513 11.7092 48.3024C12.0906 48.6543 12.6834 48.629 13.0339 48.2494C15.4358 45.6473 22.4064 38.0959 24.7353 35.5731L28.0778 38.9155C17.6096 48.5785 14.9831 51.003 4.52296 60.6585C4.09421 61.0543 3.43534 61.0413 3.02247 60.6285C2.60984 60.2159 2.59672 59.5568 2.99247 59.128L10.0292 51.5049C10.3805 51.1245 10.3567 50.5313 9.9762 50.1801C9.59558 49.8289 9.0027 49.8527 8.65145 50.2332L1.61472 57.8563C0.533721 59.0274 0.569721 60.8275 1.69659 61.9544C2.82309 63.0809 4.62321 63.1175 5.79458 62.0363L20.4071 48.5479C21.0792 49.9917 21.4033 51.5764 21.3501 53.1916C21.2558 56.0539 22.2822 58.7618 24.2402 60.816C26.1549 62.825 28.7359 63.9544 31.5078 63.9962C40.2759 64.127 48.5576 60.7778 54.7227 54.5704C60.7053 48.5469 64.0002 40.5312 64.0002 31.9999C64 23.4523 60.6715 15.4165 54.6275 9.37248ZM45.0179 14.8167C46.1664 13.6683 48.0349 13.6682 49.1833 14.8167C50.3317 15.9651 50.3317 17.8337 49.1833 18.9821C48.4156 19.7497 47.2849 20.0251 46.2626 19.7236C46.0561 19.0546 45.728 18.4133 45.2758 17.8336C45.0273 17.5152 44.6006 17.3902 44.2178 17.5285C44.0083 16.5786 44.2804 15.5541 45.0179 14.8167ZM31.3245 28.4346L35.216 32.3262L32.3122 35.0067L28.6439 31.3384L31.3245 28.4346ZM36.5949 31.0533L32.5973 27.0557L33.9602 25.5792C35.4245 27.0436 37.5019 29.1209 38.0714 29.6904L36.5949 31.0533ZM27.3712 32.7173L30.9333 36.2794L29.4565 37.6427L26.0079 34.1942L27.3712 32.7173Z" fill="#C41230"/>
<path d="M5.82422 30.0585C5.82422 32.7165 7.98659 34.8789 10.6445 34.8789C13.3023 34.8789 15.4647 32.7165 15.4647 30.0585C15.4647 27.4007 13.3023 25.2383 10.6445 25.2383C7.98659 25.2383 5.82422 27.4005 5.82422 30.0585ZM10.6446 27.1132C12.2686 27.1132 13.5898 28.4344 13.5898 30.0584C13.5898 31.6824 12.2686 33.0038 10.6446 33.0038C9.02059 33.0038 7.69934 31.6825 7.69934 30.0584C7.69934 28.4343 9.02059 27.1132 10.6446 27.1132Z" fill="#C41230"/>
</g>
<defs>
<clipPath id="clip0_2906_1688">
<rect width="64" height="64" fill="white"/>
</clipPath>
</defs>
</svg>
