<svg width="64" height="64" viewBox="0 0 64 64" fill="none" xmlns="http://www.w3.org/2000/svg">
<path d="M14.6485 31.974C13.5299 32.6112 12.8135 33.811 12.8135 35.1305C12.8135 37.1329 14.4424 38.7617 16.4446 38.7617H42.872C43.3897 38.7617 43.8095 38.3421 43.8095 37.8242V29.4144C43.8095 28.8965 43.3897 28.4769 42.872 28.4769C42.3542 28.4769 41.9345 28.8965 41.9345 29.4144V36.8867H33.9339C34.7554 36.3774 35.5241 35.7696 36.2246 35.07C38.5441 32.7535 39.8579 29.6874 39.924 26.4369L39.9257 26.3309C39.933 25.7425 39.5177 25.2392 38.9385 25.1342C38.358 25.0295 37.7914 25.3552 37.5912 25.9101C36.4449 29.0875 33.4034 31.158 30.0204 31.0584C28.536 31.0152 27.105 30.5477 25.8731 29.7047C25.5305 29.3232 25.135 28.9921 24.6989 28.7216C23.3094 27.309 22.5144 25.4581 22.4575 23.4956C22.3592 20.1135 24.4282 17.0711 27.6059 15.9247C28.1606 15.7244 28.4867 15.1577 28.3816 14.5774C28.2766 13.9981 27.7732 13.5769 27.1824 13.5902L27.0794 13.592C26.0479 13.613 25.035 13.7596 24.0586 14.0241C25.8349 11.3361 28.8802 9.64099 32.1944 9.64099C34.9611 9.64099 37.5242 10.7765 39.3655 12.7876C38.6547 13.3891 38.1187 14.1969 37.8511 15.1321C36.7912 15.6899 36.1104 16.7916 36.1104 18.0222C36.1104 19.8237 37.576 21.2895 39.3775 21.2895H41.9346V25.0397C41.9346 25.5576 42.3544 25.9772 42.8721 25.9772C43.3899 25.9772 43.8096 25.5576 43.8096 25.0397V21.2895H47.1431C48.9447 21.2895 50.4104 19.8237 50.4104 18.0222C50.4104 16.8554 49.7877 15.7926 48.8107 15.2121C48.5862 14.068 47.5756 13.202 46.3666 13.202C46.2587 13.202 46.152 13.2087 46.0466 13.2222C45.1396 12.2269 43.851 11.6489 42.4839 11.6489C41.9862 11.6489 41.5046 11.7241 41.0506 11.8645C38.8384 9.25086 35.6499 7.76611 32.1945 7.76611C27.4398 7.76611 23.1491 10.6921 21.3997 15.0859C20.3272 15.6647 19.3326 16.404 18.4475 17.29C16.1311 19.6085 14.8206 22.6754 14.7575 25.9255C14.7274 27.4782 14.9741 28.9892 15.4916 30.428C15.0571 30.828 14.7524 31.3671 14.6485 31.974ZM44.9225 14.8166C45.1827 15.1997 45.6841 15.3354 46.1019 15.136C46.1845 15.0966 46.2735 15.0765 46.3666 15.0765C46.7252 15.0765 47.0105 15.3836 46.98 15.7447C46.9445 16.1704 47.2011 16.5662 47.6041 16.7075C48.1611 16.9027 48.5354 17.431 48.5354 18.0219C48.5354 18.7896 47.9107 19.4141 47.1431 19.4141H39.3775C38.6099 19.4141 37.9854 18.7896 37.9854 18.0219C37.9854 17.4162 38.3719 16.884 38.947 16.6972C39.2781 16.5897 39.5224 16.3076 39.5814 15.9645C39.7422 15.03 40.3296 14.2647 41.1246 13.8531C41.1539 13.8404 41.1826 13.8261 41.2107 13.8102C41.5975 13.6257 42.0297 13.5235 42.4837 13.5235C43.4609 13.5235 44.3726 14.0069 44.9225 14.8166ZM14.6885 35.1305C14.6885 34.3852 15.1606 33.719 15.8632 33.4725C16.2662 33.3312 16.5227 32.9355 16.4872 32.51C16.4452 32.0057 16.8431 31.5785 17.3425 31.5785C17.4721 31.5785 17.5961 31.6064 17.7111 31.6614C18.1292 31.8612 18.6306 31.7257 18.891 31.3422C19.5542 30.3657 20.6536 29.7826 21.8319 29.7826C23.5644 29.7826 25.0382 31.019 25.3321 32.727C25.3911 33.07 25.6354 33.3521 25.9665 33.4596C26.6921 33.6951 27.1796 34.3666 27.1796 35.1304C27.1796 36.0987 26.3917 36.8866 25.4234 36.8866H16.4444C15.4764 36.8867 14.6885 36.0989 14.6885 35.1305ZM37.4174 29.7706C36.0606 33.4921 32.6704 36.3026 28.6451 36.8052C29.3387 35.4765 29.144 33.8319 28.125 32.6999C28.7264 32.836 29.3424 32.9144 29.966 32.9325C32.8636 33.0139 35.5581 31.8181 37.4174 29.7706ZM16.632 25.9612C16.7194 21.4657 19.6929 17.5756 23.7455 16.0981C21.6975 17.9572 20.4992 20.6532 20.5832 23.5499C20.628 25.0932 21.0394 26.5802 21.7724 27.908C20.2294 27.9249 18.78 28.5951 17.7694 29.7364C17.5961 29.7092 17.4136 29.698 17.2251 29.706C16.8062 28.5085 16.607 27.2522 16.632 25.9612Z" fill="#C41230"/>
<path d="M28.9385 21.9517C29.4562 21.9517 29.876 21.5319 29.876 21.0142C29.876 20.4964 29.4562 20.0767 28.9385 20.0767C28.4207 20.0767 28.001 20.4964 28.001 21.0142C28.001 21.5319 28.4207 21.9517 28.9385 21.9517Z" fill="#C41230"/>
<path d="M33.165 25.1719C33.6828 25.1719 34.1025 24.7521 34.1025 24.2344C34.1025 23.7166 33.6828 23.2969 33.165 23.2969C32.6473 23.2969 32.2275 23.7166 32.2275 24.2344C32.2275 24.7521 32.6473 25.1719 33.165 25.1719Z" fill="#C41230"/>
<path d="M33.165 15.4648C33.6828 15.4648 34.1025 15.0451 34.1025 14.5273C34.1025 14.0096 33.6828 13.5898 33.165 13.5898C32.6473 13.5898 32.2275 14.0096 32.2275 14.5273C32.2275 15.0451 32.6473 15.4648 33.165 15.4648Z" fill="#C41230"/>
<path d="M58.6212 3.88275H36.8203V0.9375C36.8203 0.419625 36.4005 0 35.8828 0H28.1172C27.5994 0 27.1797 0.419625 27.1797 0.9375V3.88275H12.3152C11.7974 3.88275 11.3777 4.30237 11.3777 4.82025C11.3777 5.33813 11.7974 5.75775 12.3152 5.75775H58.6212C59.4828 5.75775 60.1837 6.45862 60.1837 7.32025V43.0897C60.1837 43.9514 59.4828 44.6522 58.6212 44.6522H48.4688V43.6484C48.4688 43.1305 48.049 42.7109 47.5313 42.7109H26.5902C26.0724 42.7109 25.6527 43.1305 25.6527 43.6484C25.6527 44.1663 26.0724 44.5859 26.5902 44.5859H46.5938V46.5936C29.073 46.5936 35.0403 46.5936 17.4063 46.5936V44.5859H22.2152C22.7329 44.5859 23.1527 44.1663 23.1527 43.6484C23.1527 43.1305 22.7329 42.7109 22.2152 42.7109H16.4688C15.951 42.7109 15.5313 43.1305 15.5313 43.6484V44.6522H5.37891C4.51728 44.6522 3.81641 43.9514 3.81641 43.0897V7.32025C3.81641 6.45862 4.51728 5.75775 5.37891 5.75775H7.94003C8.45778 5.75775 8.87753 5.33813 8.87753 4.82025C8.87753 4.30237 8.45778 3.88275 7.94003 3.88275H5.37891C3.48341 3.88275 1.94141 5.42488 1.94141 7.32025V43.0897C1.94141 44.9851 3.48341 46.5272 5.37891 46.5272H15.5313V47.5311C15.5313 48.049 15.951 48.4686 16.4688 48.4686H23.5039L15.6492 62.607C15.4878 62.8974 15.4923 63.2514 15.6607 63.5378C15.8292 63.824 16.1365 63.9997 16.4687 63.9997H20.3514C20.6919 63.9997 21.0055 63.8151 21.1709 63.5176L29.1209 49.2076V63.0625C29.1209 63.5804 29.5407 64 30.0584 64H33.9412C34.4589 64 34.8787 63.5804 34.8787 63.0625V49.2079L42.8287 63.5179C42.994 63.8155 43.3078 64 43.6482 64H47.5309C47.863 64 48.1704 63.8242 48.3389 63.538C48.5074 63.2516 48.5118 62.8976 48.3504 62.6073L40.4962 48.4688H47.5313C48.049 48.4688 48.4688 48.0491 48.4688 47.5312V46.5274H58.6212C60.5167 46.5274 62.0587 44.9852 62.0587 43.0899V7.32025C62.0587 5.42488 60.5165 3.88275 58.6212 3.88275ZM29.0548 1.875H34.9454V3.88275H29.0548V1.875ZM19.7999 62.125H18.062L25.6488 48.4688H27.3867L19.7999 62.125ZM30.9962 62.125V48.4688H33.0039V62.125H30.9962ZM45.9379 62.125H44.2L36.6133 48.4688H38.3512L45.9379 62.125Z" fill="#C41230"/>
</svg>
