<svg width="64" height="64" viewBox="0 0 64 64" fill="none" xmlns="http://www.w3.org/2000/svg">
<g clip-path="url(#clip0_2900_1539)">
<path d="M48.3348 60.2393C46.6615 55.2195 43.3878 50.8182 39.0341 47.6919C44.1606 44.9058 47.6818 39.8235 48.3639 34.0782C48.425 33.5635 48.0574 33.0969 47.5428 33.0358C47.0308 32.9744 46.5615 33.3423 46.5005 33.8569C45.7254 40.3853 40.7688 45.8529 34.4435 47.5062C27.4136 49.2609 21.6458 54.6109 19.357 61.477C18.9704 62.6332 16.97 62.1872 17.4228 60.8325C19.7159 53.9482 25.4019 48.3027 32.285 46.0128C38.8853 43.8488 44.571 39.7523 44.571 32.011C44.571 26.0524 40.4345 20.6805 34.8535 18.7717C35.6626 18.3978 36.4539 17.9797 37.2229 17.5197C42.2529 19.8622 45.7824 24.6023 46.4801 29.9997C46.7183 30.5985 47.0686 30.8687 47.531 30.8099C48.0449 30.7435 48.4075 30.273 48.3413 29.7592C47.6093 24.0979 44.0974 19.0865 39.0326 16.3318C43.3868 13.2058 46.661 8.80378 48.3348 3.78241C48.839 2.26728 48.017 0.624407 46.5034 0.120532C44.7859 -0.280218 43.5674 0.322407 42.8478 1.92866H34.0026C33.4844 1.92866 33.0644 2.34878 33.0644 2.86691C33.0644 3.38503 33.4844 3.80516 34.0026 3.80516H42.1161C41.4781 5.22291 40.6791 6.54816 39.7406 7.75791H24.2364C23.2979 6.54816 22.499 5.22303 21.861 3.80516H29.9134C30.4315 3.80516 30.8516 3.38503 30.8516 2.86691C30.8516 2.34878 30.4315 1.92866 29.9134 1.92866H21.1295C20.4096 0.322907 19.191 -0.279968 17.4736 0.120282C15.8511 0.835157 15.2409 2.05603 15.6426 3.78278C17.3151 8.80378 20.589 13.2058 24.9435 16.332C19.9024 19.075 16.3943 24.061 15.644 29.6932C15.5755 30.2068 15.9365 30.6787 16.4501 30.747C16.9635 30.8159 17.4356 30.4545 17.504 29.9409C18.3554 23.5502 23.3305 18.1369 29.5325 16.5162C36.5638 14.7608 42.3308 9.41166 44.6206 2.54428C44.8721 1.97316 45.3019 1.75866 45.9098 1.90078C46.4428 2.07828 46.7319 2.65653 46.5545 3.18953C44.2498 10.104 38.7471 16.196 31.692 18.0095C25.4014 19.6265 19.4211 24.3458 19.4063 31.9852C19.2438 37.9382 23.6326 43.3677 29.1243 45.2504C28.3151 45.6244 27.5231 46.043 26.7529 46.5039C21.6416 44.1254 18.1018 39.2993 17.4699 33.7993C17.4106 33.2844 16.9446 32.9153 16.4306 32.9743C15.9159 33.0335 15.5465 33.4987 15.6056 34.0135C16.2691 39.7882 19.7934 44.895 24.9429 47.6923C20.5884 50.8187 17.3148 55.2199 15.6429 60.239C15.2205 62.0524 15.8576 63.281 17.5543 63.9252C18.935 64.251 20.6485 63.493 21.1295 62.0934H42.8476C43.3271 63.4938 45.0406 64.2517 46.4211 63.9253C48.1178 63.2813 48.7556 62.0528 48.3348 60.2393ZM31.9886 13.7224C29.6903 12.749 27.6303 11.355 25.8968 9.63403H38.0804C36.3469 11.355 34.287 12.749 31.9886 13.7224ZM26.9136 15.4069C22.4416 12.4872 19.0805 8.16566 17.4226 3.18853C17.281 2.58066 17.4959 2.15116 18.0674 1.90003C18.6753 1.75841 19.1051 1.97316 19.3569 2.54416C21.0573 7.64541 24.7289 12.042 29.4694 14.5932C28.6015 14.8103 27.7496 15.0817 26.9136 15.4069ZM22.3656 27.1204H41.612C42.1826 28.3552 42.5435 29.6885 42.6565 31.0727H21.321C21.434 29.6885 21.7949 28.3552 22.3656 27.1204ZM21.321 32.9492H42.6565C42.5436 34.3312 42.1838 35.6627 41.6146 36.8957H22.3626C21.7936 35.6625 21.4339 34.3312 21.321 32.9492ZM31.9888 19.8862C34.7839 20.5852 38.6313 22.0535 40.5309 25.2439H23.4468C24.9 22.5048 29.1128 20.5852 31.9888 19.8862ZM23.4423 38.7722H40.5348C38.3848 41.841 35.3896 43.0479 31.9885 44.1355C28.5676 43.0434 25.5819 41.8269 23.4423 38.7722ZM24.2376 56.2627L39.7411 56.2642C40.6794 57.4738 41.4783 58.7989 42.1163 60.2165H21.8613C22.4994 58.7983 23.2988 57.4727 24.2376 56.2627ZM25.8983 54.3863C27.6318 52.6657 29.6914 51.2722 31.9894 50.299C34.2875 51.2724 36.3471 52.6663 38.0806 54.3874L25.8983 54.3863ZM45.9903 62.0985C45.0143 62.4977 44.6693 61.6242 44.6205 61.4777C42.9196 56.3767 39.2488 51.9799 34.5083 49.4283C35.3758 49.211 36.2275 48.9402 37.0635 48.6159C41.5349 51.5359 44.896 55.857 46.5544 60.8322C46.6508 61.1215 46.7204 61.8 45.9903 62.0985Z" fill="#C41230"/>
</g>
<defs>
<clipPath id="clip0_2900_1539">
<rect width="64" height="64" fill="white"/>
</clipPath>
</defs>
</svg>
