<svg width="64" height="64" viewBox="0 0 64 64" fill="none" xmlns="http://www.w3.org/2000/svg">
<path d="M52.5652 44.3604H36.9922C36.4743 44.3604 36.0547 44.7801 36.0547 45.2978C36.0547 45.8156 36.4743 46.2353 36.9922 46.2353H52.5652C53.0831 46.2353 53.5027 45.8156 53.5027 45.2978C53.5027 44.7801 53.083 44.3604 52.5652 44.3604Z" fill="#C41230"/>
<path d="M52.5652 48.2432H36.9922C36.4743 48.2432 36.0547 48.6629 36.0547 49.1807C36.0547 49.6984 36.4743 50.1181 36.9922 50.1181H52.5652C53.0831 50.1181 53.5027 49.6984 53.5027 49.1807C53.5027 48.6629 53.083 48.2432 52.5652 48.2432Z" fill="#C41230"/>
<path d="M52.5652 52.126H36.9922C36.4743 52.126 36.0547 52.5457 36.0547 53.0635C36.0547 53.5812 36.4743 54.001 36.9922 54.001H52.5652C53.0831 54.001 53.5027 53.5812 53.5027 53.0635C53.5027 52.5457 53.083 52.126 52.5652 52.126Z" fill="#C41230"/>
<path d="M32.4182 20.7512C32.9361 20.7512 33.3557 20.3314 33.3557 19.8137V1.97995C33.3557 0.395093 31.5796 -0.545895 30.2686 0.343593L7.19584 15.9941C6.46835 16.4876 6.03398 17.307 6.03398 18.1861V62.125H5.97948C5.46161 62.125 5.04199 62.5447 5.04199 63.0625C5.04199 63.5802 5.46161 64 5.97948 64H58.0201C58.538 64 58.9576 63.5802 58.9576 63.0625C58.9576 62.5447 58.538 62.125 58.0201 62.125H57.9471V41.7395C57.9471 40.688 57.0917 39.8326 56.0402 39.8326H46.9658C46.4479 39.8326 46.0283 40.2523 46.0283 40.77C46.0283 41.2878 46.4479 41.7075 46.9658 41.7075H56.0402C56.0578 41.7075 56.0722 41.7219 56.0722 41.7395V62.125H53.5023V57.8579C53.5023 56.8383 52.6728 56.009 51.6532 56.009H44.7783H37.9034C36.8838 56.009 36.0543 56.8384 36.0543 57.8579V62.125H33.3557V41.7075H42.5911C43.109 41.7075 43.5286 41.2878 43.5286 40.77C43.5286 40.2523 43.109 39.8326 42.5911 39.8326H33.3557V24.1886C33.3557 23.6709 32.9361 23.2512 32.4182 23.2512C31.9004 23.2512 31.4808 23.6709 31.4808 24.1886V40.7699V62.1249H7.90908V57.8838H27.5027C28.0206 57.8838 28.4402 57.4641 28.4402 56.9463C28.4402 56.4286 28.0206 56.0088 27.5027 56.0088H7.90908V54.001H27.5027C28.0206 54.001 28.4402 53.5812 28.4402 53.0635C28.4402 52.5458 28.0206 52.126 27.5027 52.126H7.90908V50.1182H27.5027C28.0206 50.1182 28.4402 49.6984 28.4402 49.1807C28.4402 48.6629 28.0206 48.2432 27.5027 48.2432H7.90908V46.2355H27.5027C28.0206 46.2355 28.4402 45.8157 28.4402 45.298C28.4402 44.7802 28.0206 44.3605 27.5027 44.3605H7.90908V42.3526H27.5027C28.0206 42.3526 28.4402 41.9329 28.4402 41.4152C28.4402 40.8974 28.0206 40.4777 27.5027 40.4777H7.90908V38.4698H27.5027C28.0206 38.4698 28.4402 38.0501 28.4402 37.5323C28.4402 37.0146 28.0206 36.5948 27.5027 36.5948H7.90908V34.5871H27.5027C28.0206 34.5871 28.4402 34.1674 28.4402 33.6496C28.4402 33.1319 28.0206 32.7122 27.5027 32.7122H7.90908V30.7043H27.5027C28.0206 30.7043 28.4402 30.2846 28.4402 29.7668C28.4402 29.2491 28.0206 28.8293 27.5027 28.8293H7.90908V26.8215H27.5027C28.0206 26.8215 28.4402 26.4017 28.4402 25.884C28.4402 25.3663 28.0206 24.9465 27.5027 24.9465H7.90908V22.9387H27.5027C28.0206 22.9387 28.4402 22.5189 28.4402 22.0012C28.4402 21.4834 28.0206 21.0637 27.5027 21.0637H7.90908V18.1861C7.90908 17.9292 8.03595 17.6899 8.24845 17.5457L31.3211 1.8952C31.3905 1.84832 31.4806 1.8962 31.4806 1.97982V19.8137C31.4808 20.3316 31.9004 20.7512 32.4182 20.7512ZM45.7161 57.8838H51.6276V62.125H45.7161V57.8838ZM37.9295 57.8838H43.8411V62.125H37.9295V57.8838Z" fill="#C41230"/>
</svg>
