<svg width="64" height="64" viewBox="0 0 64 64" fill="none" xmlns="http://www.w3.org/2000/svg">
<g clip-path="url(#clip0_2891_1487)">
<path d="M50.6533 42.5035H50.0394V39.2974L56.5182 34.0474C56.9367 33.7082 57.154 33.1856 57.0992 32.6496C57.0443 32.1135 56.7258 31.6458 56.2472 31.3982L50.0395 28.1872V27.6061C50.0395 26.4945 49.1353 25.5903 48.0237 25.5903H45.7716C44.6601 25.5903 43.7558 26.4945 43.7558 27.6061V42.5035H43.1413C42.6206 42.5035 42.1988 42.9254 42.1988 43.4461C42.1988 43.9667 42.6206 44.3886 43.1413 44.3886H45.2056L41.2225 50.6979C40.852 50.5564 40.4505 50.4781 40.0309 50.4781C39.4381 50.4781 38.8812 50.6335 38.3978 50.9047L34.7607 47.6689C34.9437 47.2557 35.0461 46.7994 35.0461 46.3192C35.0461 44.4738 33.5439 42.9725 31.6974 42.9725C29.8509 42.9725 28.3487 44.4738 28.3487 46.3192C28.3487 46.6706 28.4035 47.0094 28.5044 47.3279L23.972 51.4445C23.5089 51.2024 22.9828 51.0645 22.4249 51.0645C20.5783 51.0645 19.0762 52.5658 19.0762 54.4112C19.0762 56.2566 20.5783 57.7579 22.4249 57.7579C24.2714 57.7579 25.7735 56.2566 25.7735 54.4112C25.7735 53.809 25.6127 53.2438 25.3329 52.7551L29.5728 48.9041C30.1512 49.3797 30.8914 49.6659 31.6974 49.6659C32.3793 49.6659 33.0139 49.4607 33.5437 49.1094L37.0761 52.252C36.825 52.7213 36.6821 53.2565 36.6821 53.8248C36.6821 55.6702 38.1843 57.1715 40.0308 57.1715C41.8773 57.1715 43.3795 55.6702 43.3795 53.8248C43.3795 53.0842 43.137 52.3993 42.728 51.8443C42.728 51.8443 47.3962 44.4389 47.4167 44.3886H50.653C51.1737 44.3886 51.5956 43.9667 51.5956 43.4461C51.5956 42.9254 51.1739 42.5035 50.6533 42.5035ZM22.4247 55.8728C21.6177 55.8728 20.9611 55.2171 20.9611 54.4112C20.9611 53.6052 21.6178 52.9496 22.4247 52.9496C23.2317 52.9496 23.8883 53.6052 23.8883 54.4112C23.8883 55.2171 23.2318 55.8728 22.4247 55.8728ZM31.6973 47.7808C30.8902 47.7808 30.2337 47.1252 30.2337 46.3192C30.2337 45.5133 30.8903 44.8576 31.6973 44.8576C32.5042 44.8576 33.1609 45.5133 33.1609 46.3192C33.1609 47.1252 32.5043 47.7808 31.6973 47.7808ZM40.0309 55.2864C39.2238 55.2864 38.5673 54.6307 38.5673 53.8248C38.5673 53.0189 39.2239 52.3632 40.0309 52.3632C40.8378 52.3632 41.4945 53.0189 41.4945 53.8248C41.4945 54.6307 40.8378 55.2864 40.0309 55.2864ZM54.9818 32.8659L50.0394 36.871V30.3094L54.9818 32.8659ZM45.6408 27.6061C45.6408 27.5341 45.6995 27.4754 45.7715 27.4754H48.0236C48.0956 27.4754 48.1543 27.5341 48.1543 27.6061V42.5035H45.6408V27.6061Z" fill="#C41230"/>
<path d="M62.6562 27.938C62.1355 27.938 61.7137 28.3599 61.7137 28.8805V62.1148H54.4963C53.9756 62.1148 53.5537 62.5367 53.5537 63.0573C53.5537 63.578 53.9756 63.9999 54.4963 63.9999H62.1163C62.9337 63.9999 63.5988 63.3348 63.5988 62.5174V28.8805C63.5988 28.3599 63.1767 27.938 62.6562 27.938Z" fill="#C41230"/>
<path d="M51.5965 12.303H27.6686C27.3609 9.15113 25.9795 6.23112 23.7014 3.96913C21.1215 1.40716 17.7045 0 14.0696 0C14.0366 0 14.0035 0.000125673 13.9704 0.000377019C10.4004 0.025763 7.0266 1.43003 4.47041 3.95443C1.91384 6.47932 0.469855 9.83391 0.404631 13.4005C0.330987 17.477 2.03851 21.3004 5.10468 23.962V25.3392C3.46125 25.4386 2.15438 26.8066 2.15438 28.4746V28.7742C2.15438 30.3477 3.31698 31.6543 4.82807 31.881V33.8481C3.54218 34.2906 2.61535 35.5116 2.61535 36.9457V36.9777C2.61535 38.4492 3.59082 39.697 4.92899 40.1089V52.5952C4.92899 58.8839 10.0451 64 16.3338 64H50.2228C50.7435 64 51.1654 63.5781 51.1654 63.0575C51.1654 62.5368 50.7435 62.1149 50.2228 62.1149H16.3338C11.0846 62.1149 6.81408 57.8444 6.81408 52.5952V40.2533H8.54158C9.11893 42.9361 11.3769 44.9024 13.9762 44.9024C16.5755 44.9024 18.8335 42.9361 19.4108 40.2533H22.0615C23.8677 40.2533 25.337 38.784 25.337 36.9778V36.9459C25.337 35.5117 24.4102 34.2906 23.1243 33.8483V31.9162H23.2094C24.9418 31.9162 26.3512 30.5068 26.3512 28.7744V28.4747C26.3512 26.7423 24.9418 25.3329 23.2094 25.3329H23.0322V23.9621C25.892 21.4788 27.5773 17.9635 27.7228 14.1884H51.5964C57.1748 14.1884 61.7131 18.7267 61.7131 24.305V24.6079C61.7131 25.1286 62.135 25.5505 62.6556 25.5505C63.1763 25.5505 63.5982 25.1286 63.5982 24.6079V24.305C63.5983 17.687 58.2144 12.303 51.5965 12.303ZM13.9763 43.0173C12.3937 43.0173 10.998 41.8715 10.4889 40.2533H17.4637C16.9548 41.8715 15.5589 43.0173 13.9763 43.0173ZM23.4522 36.9777C23.4522 37.7444 22.8283 38.3681 22.0617 38.3681H5.89101C5.12428 38.3681 4.50057 37.7443 4.50057 36.9777V36.9457C4.50057 36.179 5.12441 35.5553 5.89101 35.5553H22.0616C22.8283 35.5553 23.4521 36.1791 23.4521 36.9457V36.9777H23.4522ZM21.2393 33.6702H6.71329V31.9161H21.2393V33.6702ZM24.4662 28.4746V28.7742C24.4662 29.4672 23.9025 30.031 23.2095 30.031H5.29633C4.60337 30.031 4.0396 29.4672 4.0396 28.7742V28.4746C4.0396 27.7817 4.60337 27.2179 5.29633 27.2179H23.2095C23.9025 27.2179 24.4662 27.7817 24.4662 28.4746ZM21.4953 22.7914C21.275 22.9704 21.1471 23.2392 21.1471 23.5229V25.3327H6.9899V23.5229C6.9899 23.2391 6.86196 22.9704 6.64178 22.7914C3.80999 20.4899 2.22362 17.0793 2.28948 13.4347C2.40497 7.11146 7.65106 1.93046 13.9839 1.88547C14.0125 1.88522 14.0407 1.8851 14.0693 1.8851C17.2031 1.8851 20.1491 3.09834 22.3732 5.3068C24.6148 7.53272 25.8493 10.4976 25.8493 13.6553C25.8493 17.2128 24.2623 20.5429 21.4953 22.7914Z" fill="#C41230"/>
</g>
<defs>
<clipPath id="clip0_2891_1487">
<rect width="64" height="64" fill="white"/>
</clipPath>
</defs>
</svg>
