<svg width="64" height="64" viewBox="0 0 64 64" fill="none" xmlns="http://www.w3.org/2000/svg">
<g clip-path="url(#clip0_2901_1554)">
<path d="M39.9023 56.3892L36.2636 50.7291C35.9837 50.2936 35.4033 50.1674 34.968 50.4474C34.5325 50.7273 34.4063 51.3074 34.6863 51.7431L38.3243 57.4023C39.5606 59.3301 38.0975 62.1251 35.7475 62.1251H12.6882C10.3925 62.1251 8.91109 59.2713 10.1103 57.4032L21.1245 40.2716C21.2217 40.1203 21.2733 39.9444 21.2733 39.7646V33.9507C21.2733 33.4328 20.8536 33.0132 20.3358 33.0132C19.8181 33.0132 19.3983 33.4329 19.3983 33.9507V39.4892L8.53284 56.3897C6.47171 59.5998 8.93071 64.0001 12.6882 64.0001H35.7476C39.5485 64.0001 41.9398 59.5672 39.9023 56.3892Z" fill="#C41230"/>
<path d="M19.3982 25.0143V29.8641C19.3982 30.382 19.8179 30.8016 20.3357 30.8016C20.8534 30.8016 21.2732 30.382 21.2732 29.8641V25.1715H27.1633V39.7643C27.1633 39.9442 27.2149 40.1201 27.3122 40.2713L32.4773 48.3052C32.8704 48.7612 33.3023 48.8551 33.7729 48.5868C34.2084 48.3068 34.3346 47.7267 34.0546 47.2912L29.0383 39.4888V25.0142C30.1669 24.6245 30.9798 23.5515 30.9798 22.2921C30.9798 20.7046 29.6883 19.4131 28.1008 19.4131H20.3349C18.7474 19.4131 17.4561 20.7046 17.4561 22.2921C17.4562 23.5517 18.2693 24.6248 19.3982 25.0143ZM20.3351 21.2881H28.1009C28.6546 21.2881 29.1048 21.7385 29.1048 22.292C29.1048 22.8455 28.6544 23.2957 28.1009 23.2957H20.3351C19.7816 23.2957 19.3313 22.8453 19.3313 22.292C19.3313 21.7385 19.7816 21.2881 20.3351 21.2881Z" fill="#C41230"/>
<path d="M28.4228 46.5635H20.0134C19.6944 46.5635 19.3973 46.7257 19.2248 46.994L11.8227 58.5085C11.4235 59.1337 11.9218 60.0871 12.6884 60.0871H35.7479C36.5174 60.0871 37.0129 59.1307 36.6114 58.5051L29.2114 46.994C29.0389 46.7257 28.7418 46.5635 28.4228 46.5635ZM14.2423 58.2121L20.5253 48.4385H27.911L34.194 58.2121H14.2423Z" fill="#C41230"/>
<path d="M54.8071 25.5524L49.7745 20.521C49.4081 20.1549 48.8145 20.1549 48.4486 20.5211C48.0825 20.8874 48.0825 21.4809 48.4487 21.847L53.4812 26.8784C54.6297 28.0267 54.6297 29.8954 53.4812 31.0437C52.333 32.1922 50.4641 32.1922 49.3159 31.0437L31.7944 13.5222H40.125L45.56 18.9569C45.926 19.3229 46.5196 19.323 46.8859 18.9567C47.252 18.5906 47.252 17.997 46.8857 17.6309L33.3939 4.14011C33.9166 3.06636 33.7327 1.73248 32.8421 0.841734C31.7195 -0.280641 29.8932 -0.280516 28.7706 0.841734L23.2794 6.33298C22.1569 7.45561 22.1569 9.28198 23.2795 10.4046C24.3197 11.295 25.4189 11.479 26.577 10.9566L47.99 32.3696C49.8476 34.227 52.9496 34.227 54.8074 32.3696C56.6867 30.4901 56.6867 27.4319 54.8071 25.5524ZM29.9192 11.6471L28.0137 9.74161L32.1787 5.57661L38.2497 11.6471H29.9192ZM24.6052 9.07861C24.2137 8.68723 24.2137 8.05023 24.6052 7.65886L30.0965 2.16761C30.5697 1.77611 31.0429 1.77611 31.5161 2.16761C31.9076 2.55898 31.9076 3.19598 31.5161 3.58736L26.0245 9.07811C25.6955 9.42536 25.101 9.56098 24.6052 9.07861Z" fill="#C41230"/>
<path d="M15.7893 9.36463C16.2568 9.87325 16.6733 9.73063 17.1153 9.36463C17.4815 8.99838 17.4815 8.40488 17.1153 8.03863L15.1738 6.09725C14.8076 5.73125 14.2141 5.73125 13.8478 6.09725C13.4817 6.4635 13.4817 7.057 13.8478 7.42325L15.7893 9.36463Z" fill="#C41230"/>
<path d="M10.6279 13.5225H12.5694C13.0873 13.5225 13.5069 13.1027 13.5069 12.585C13.5069 12.0671 13.0872 11.6475 12.5694 11.6475H10.6279C10.1101 11.6475 9.69043 12.0672 9.69043 12.585C9.69043 13.1027 10.1101 13.5225 10.6279 13.5225Z" fill="#C41230"/>
<path d="M15.174 19.0718L17.1155 17.1303C17.4816 16.764 17.4816 16.1705 17.1155 15.8043C16.7492 15.4383 16.1557 15.4383 15.7895 15.8043L13.848 17.7458C13.4819 18.112 13.4789 18.7085 13.848 19.0718C14.1945 19.4128 14.9029 19.3319 15.174 19.0718Z" fill="#C41230"/>
</g>
<defs>
<clipPath id="clip0_2901_1554">
<rect width="64" height="64" fill="white"/>
</clipPath>
</defs>
</svg>
