<svg width="64" height="64" viewBox="0 0 64 64" fill="none" xmlns="http://www.w3.org/2000/svg">
<g clip-path="url(#clip0_2901_1543)">
<path d="M60.3604 55.7707L56.7454 52.1558C57.7879 51.7438 58.5274 50.726 58.5274 49.5387V47.63C58.5274 47.1121 58.1078 46.6925 57.5899 46.6925C57.0721 46.6925 56.6524 47.1121 56.6524 47.63V49.5387C56.6524 50.0557 56.2319 50.4762 55.7149 50.4762H49.7574C49.2404 50.4762 48.8199 50.0557 48.8199 49.5387V48.4688L52.7358 48.4689C53.2536 48.4689 53.6733 48.0491 53.6733 47.5314C53.6733 47.0136 53.2537 46.5939 52.7358 46.5939L48.8199 46.5938V44.586L52.7358 44.5861C53.2536 44.5861 53.6733 44.1664 53.6733 43.6486C53.6733 43.1309 53.2537 42.7111 52.7358 42.7111L48.8199 42.711V41.64C48.8199 41.123 49.2404 40.7025 49.7574 40.7025H55.7149C56.2319 40.7025 56.6524 41.123 56.6524 41.64V43.545C56.6524 44.0629 57.0721 44.4825 57.5899 44.4825C58.1078 44.4825 58.5274 44.0629 58.5274 43.545V41.64C58.5274 39.9352 57.0777 39.0114 55.6149 38.8275V35.8825C55.6149 35.3646 55.1953 34.945 54.6774 34.945H50.7937C50.2758 34.945 49.8562 35.3646 49.8562 35.8825V38.8276C48.0671 38.9478 47.0709 39.937 46.9449 41.7267L45.0841 39.8646C44.4658 39.2464 43.6897 38.8079 42.8394 38.5964L32.0688 35.9225L30.2846 34.4476C30.1918 34.3709 30.0879 34.3148 29.9787 34.279V31.7257C32.7309 29.6961 34.0447 26.364 33.9032 23.0084H34.8483C36.8056 23.0084 38.3979 21.416 38.3979 19.4587V17.5012C38.3979 16.0034 37.4653 14.7193 36.1503 14.1989L36.1462 10.325C36.1462 8.46663 35.6468 6.645 34.7018 5.05688C34.4371 4.61175 33.8614 4.46575 33.4168 4.73063C32.9718 4.99538 32.8257 5.57075 33.0906 6.01562C33.8629 7.31388 34.2712 8.804 34.2712 10.3259L34.2752 13.9515L33.8613 13.9506C33.6308 12.6301 32.4762 11.6231 31.0907 11.6231H16.0287C14.6429 11.6231 13.4881 12.6306 13.2579 13.9515H12.8603L12.9097 10.3378C12.9098 10.3335 12.9098 10.3293 12.9098 10.3249C12.9098 5.66563 16.7004 1.87487 21.3599 1.87487H25.8211C27.5242 1.87487 29.1654 2.37925 30.5673 3.33363C30.9954 3.625 31.5786 3.51425 31.8699 3.08625C32.1612 2.65825 32.0504 2.075 31.6226 1.78363C29.9082 0.616875 27.9022 0 25.8211 0H21.3599C15.6688 0 11.0383 4.62787 11.0348 10.3182L10.9818 14.1939C9.66006 14.7109 8.72144 15.9985 8.72144 17.5011V19.4585C8.72144 21.4158 10.3138 23.0081 12.2711 23.0081H13.2162C13.0013 26.3529 14.4153 29.7159 17.1411 31.7257V34.2786C17.0317 34.3143 16.9277 34.3705 16.8349 34.4473L15.0482 35.9241L6.17656 38.1263C4.02569 38.6596 2.52344 40.58 2.52344 42.7961V47.5686C2.52344 48.0865 2.94306 48.5061 3.46094 48.5061C3.97881 48.5061 4.39844 48.0865 4.39844 47.5686V42.7961C4.39844 41.4436 5.31519 40.2716 6.62806 39.946L13.2239 38.3088L9.16481 45.1091C8.91531 45.638 9.03006 46.0703 9.50894 46.4059L12.2418 47.9492L11.0364 51.0766C10.9141 51.394 10.9732 51.7526 11.1909 52.014L19.6168 62.125H12.2429V55.2967C12.2429 54.7789 11.8233 54.3592 11.3054 54.3592C10.7876 54.3592 10.3679 54.7789 10.3679 55.2967V62.125H4.39856V51.6538C4.39856 51.1359 3.97894 50.7163 3.46106 50.7163C2.94319 50.7163 2.52356 51.1359 2.52356 51.6538V63.0625C2.52356 63.5804 2.94319 64 3.46106 64H38.3849C38.9028 64 39.3224 63.5804 39.3224 63.0625V51.49C39.3224 50.6448 40.2952 50.3069 40.8536 50.764L45.9478 54.9347L45.1119 55.7709C42.8716 58.0116 44.5079 62.0588 47.7162 62.0588H57.7562C60.8978 62.0588 62.8144 58.2709 60.3604 55.7707ZM51.7311 36.82H53.7398V38.8276H51.7311V36.82ZM32.8368 47.8684L34.1353 51.237L27.4431 59.2675L32.4887 39.6105L35.8522 45.2456L33.2507 46.7149C32.8456 46.9436 32.6696 47.4346 32.8368 47.8684ZM30.8633 37.3585L27.3301 42.2101L24.9869 39.867L29.6591 36.363L30.8633 37.3585ZM36.5229 19.4586C36.5229 20.3821 35.7717 21.1332 34.8483 21.1332H33.9032V15.8265L34.9201 15.828C35.8103 15.8658 36.5229 16.6017 36.5229 17.5011V19.4586ZM15.0912 14.4356C15.0912 13.9186 15.5117 13.4981 16.0287 13.4981H31.0907C31.6077 13.4981 32.0282 13.9186 32.0282 14.4356V20.1957C32.0282 20.7127 31.6077 21.1332 31.0907 21.1332H26.6741C26.3716 21.1332 26.1018 20.9412 26.0027 20.6553C25.6364 19.5991 24.6774 18.9166 23.5596 18.9166C22.4418 18.9167 21.4829 19.5992 21.1168 20.6554C21.0177 20.9412 20.7478 21.1332 20.4453 21.1332H16.0287C15.5117 21.1332 15.0912 20.7127 15.0912 20.1957V14.4356ZM12.2712 21.1332C11.3477 21.1332 10.5966 20.382 10.5966 19.4586V17.5012C10.5966 16.6144 11.2896 15.8862 12.1624 15.8301C12.4248 15.829 12.7813 15.8282 13.2163 15.8276V21.1334H12.2712V21.1332ZM15.0912 23.9745V22.8476C15.3846 22.9516 15.7002 23.0082 16.0287 23.0082H20.4453C21.5461 23.0082 22.5182 22.3061 22.8883 21.2694C23.1686 20.4844 23.9342 20.5 24.2312 21.2696C24.6274 22.2965 25.5734 23.0082 26.6741 23.0082H31.0907C31.4192 23.0082 31.7348 22.9516 32.0282 22.8476V23.9745C32.0282 28.2481 28.5514 31.725 24.2777 31.725H22.8417C18.5681 31.725 15.0912 28.2481 15.0912 23.9745ZM28.1037 32.8068V35.1859L23.5597 38.5938L19.0161 35.1861V32.807C21.6184 34.0416 25.5012 33.9584 28.1037 32.8068ZM17.4604 36.363L22.1324 39.867L19.7894 42.2101L16.2561 37.3585L17.4604 36.363ZM13.8688 46.715L11.2673 45.2458L14.6308 39.6106L19.6763 59.2676L12.9843 51.2371L14.2827 47.8685C14.4498 47.4345 14.2738 46.9436 13.8688 46.715ZM17.1053 41.7095L18.9192 44.2004C19.2617 44.6706 19.9373 44.714 20.3399 44.3114L23.5596 41.0916L26.7794 44.3115C27.1821 44.7137 27.8578 44.6709 28.2002 44.2004L30.0139 41.7098L24.7738 62.125H22.3456L17.1053 41.7095ZM42.0416 49.3135C40.2371 47.8355 37.4474 49.158 37.4474 51.49V62.125H27.5027L35.9284 52.0141C36.1462 51.7528 36.2053 51.3941 36.0829 51.0768L34.8774 47.9494L37.6103 46.406C38.0892 46.0704 38.2039 45.6381 37.9544 45.1092L33.8944 38.3075L42.3873 40.4159C42.9066 40.545 43.3806 40.8129 43.7579 41.19L46.9448 44.3791V49.5385C46.9448 50.7255 47.6841 51.7431 48.7263 52.1553L47.2798 53.6021L42.0416 49.3135ZM57.7562 60.1838H47.7162C46.1966 60.1838 45.3652 58.1696 46.4378 57.0966L51.1821 52.3512H54.2891L59.0344 57.0965C60.1001 58.163 59.3931 60.1838 57.7562 60.1838Z" fill="#C41230"/>
<path d="M23.5601 28.0655C25.3735 28.0655 26.8487 26.5902 26.8487 24.7769C26.8487 24.259 26.4291 23.8394 25.9112 23.8394C25.3934 23.8394 24.9737 24.259 24.9737 24.7769C24.9737 25.5562 24.3396 26.1905 23.5601 26.1905C22.7806 26.1905 22.1465 25.5564 22.1465 24.7769C22.1465 24.259 21.7269 23.8394 21.209 23.8394C20.6911 23.8394 20.2715 24.259 20.2715 24.7769C20.2716 26.5904 21.7467 28.0655 23.5601 28.0655Z" fill="#C41230"/>
<path d="M19.5215 19.2715C20.0394 19.2715 20.459 18.8519 20.459 18.334V17.1035C20.459 16.5856 20.0394 16.166 19.5215 16.166C19.0036 16.166 18.584 16.5856 18.584 17.1035V18.334C18.584 18.8518 19.0036 19.2715 19.5215 19.2715Z" fill="#C41230"/>
<path d="M27.5986 19.2715C28.1165 19.2715 28.5361 18.8519 28.5361 18.334V17.1035C28.5361 16.5856 28.1165 16.166 27.5986 16.166C27.0808 16.166 26.6611 16.5856 26.6611 17.1035V18.334C26.6611 18.8518 27.0808 19.2715 27.5986 19.2715Z" fill="#C41230"/>
<path d="M48.8535 28.7969C48.3358 28.7969 47.916 28.3771 47.916 27.8594C47.916 27.3416 48.3358 26.9219 48.8535 26.9219C49.3713 26.9219 49.791 27.3416 49.791 27.8594C49.791 28.3771 49.3714 28.7969 48.8535 28.7969Z" fill="#C41230"/>
<path d="M52.7363 32.9512C52.2186 32.9512 51.7988 32.5314 51.7988 32.0137C51.7988 31.4959 52.2186 31.0762 52.7363 31.0762C53.2541 31.0762 53.6738 31.4959 53.6738 32.0137C53.6738 32.5314 53.2541 32.9512 52.7363 32.9512Z" fill="#C41230"/>
<path d="M56.6191 30.5151C56.1014 30.5151 55.6816 30.0954 55.6816 29.5776C55.6816 29.0599 56.1014 28.6401 56.6191 28.6401C57.1369 28.6401 57.5566 29.0599 57.5566 29.5776C57.5566 30.0954 57.1369 30.5151 56.6191 30.5151Z" fill="#C41230"/>
</g>
<defs>
<clipPath id="clip0_2901_1543">
<rect width="64" height="64" fill="white"/>
</clipPath>
</defs>
</svg>
