<svg width="64" height="64" viewBox="0 0 64 64" fill="none" xmlns="http://www.w3.org/2000/svg">
<path d="M54.2259 30.85H54.1659V22.2525C54.1659 19.4523 53.5134 16.6824 52.2764 14.1894L53.0031 13.6372C54.0732 12.8241 54.2823 11.2919 53.4692 10.2218L52.6707 9.17087C52.2768 8.6525 51.7046 8.3185 51.0594 8.2305C50.4144 8.14237 49.7736 8.311 49.2552 8.70487L48.6139 9.19213C46.1599 6.83 43.0617 5.18937 39.7437 4.4945L39.7951 3.64488C39.8521 2.70288 39.5137 1.7685 38.8667 1.08138C38.2197 0.394125 37.3073 0 36.3636 0H27.6357C26.6919 0 25.7796 0.394125 25.1328 1.08125C24.4859 1.7685 24.1476 2.70288 24.2044 3.64488L24.2558 4.4945C20.9378 5.18937 17.8396 6.83 15.3856 9.19213L14.7443 8.70487C14.2261 8.311 13.5853 8.14262 12.9401 8.2305C12.2949 8.31863 11.7227 8.6525 11.3288 9.17087L10.5303 10.2218C9.71719 11.2919 9.92619 12.8241 10.9964 13.6372L11.7221 14.1886C10.6227 16.3955 9.99619 18.7671 9.86119 21.2516C9.83306 21.7686 10.2294 22.2105 10.7464 22.2386C10.7637 22.2396 10.7809 22.24 10.7981 22.24C11.2926 22.24 11.7062 21.853 11.7333 21.3534C11.8478 19.2469 12.3563 17.2311 13.2446 15.3456L16.7951 18.0434C17.1357 18.3021 17.5427 18.4386 17.9633 18.4386C18.0516 18.4386 18.1404 18.4326 18.2293 18.4204C18.7421 18.3504 19.1969 18.0849 19.5101 17.6729L20.9136 15.8258C21.2267 15.4138 21.3606 14.9044 21.2907 14.3915C21.2207 13.8788 20.9552 13.4239 20.5432 13.1108L16.9011 10.3433C18.9993 8.39538 21.5929 7.023 24.3707 6.391L25.4907 24.9258C25.5922 26.6054 26.9898 27.921 28.6724 27.921H35.3274C37.0101 27.921 38.4077 26.6054 38.5092 24.9258L39.6292 6.391C42.4069 7.023 45.0007 8.39538 47.0988 10.3433L43.4567 13.1108C42.6061 13.757 42.4399 14.975 43.0862 15.8256L44.4898 17.6728C44.8029 18.0848 45.2578 18.3503 45.7706 18.4202C45.8596 18.4324 45.9483 18.4385 46.0366 18.4385C46.4571 18.4385 46.8642 18.3021 47.2047 18.0432L50.7546 15.3459C51.7619 17.4955 52.2912 19.8615 52.2912 22.2524V30.8499H11.7084V25.6774C11.7084 25.1596 11.2887 24.7399 10.7709 24.7399C10.2532 24.7399 9.83344 25.1596 9.83344 25.6774V30.8499H9.77344C8.01581 30.8499 6.58594 32.2798 6.58594 34.0374V36.2649C6.58594 38.0225 8.01581 39.4524 9.77344 39.4524H11.0184V45.2786C11.0184 49.4233 12.5781 53.3708 15.4101 56.3939C18.0276 59.1881 21.5006 60.9505 25.2662 61.4152V61.8124C25.2662 63.0185 26.2476 63.9999 27.4537 63.9999H37.7181C38.9242 63.9999 39.9056 63.0185 39.9056 61.8124V61.2269C43.4154 60.5283 46.6159 58.6761 48.9869 55.9535C51.5624 52.996 52.9809 49.2049 52.9809 45.2786V39.4524H54.2259C55.9836 39.4524 57.4134 38.0225 57.4134 36.2649V34.0375C57.4134 32.2799 55.9834 30.85 54.2259 30.85ZM19.4327 14.645C19.4362 14.6708 19.4244 14.6862 19.4204 14.6914L18.0169 16.5385C18.0131 16.5436 18.0013 16.5591 17.9756 16.5626C17.9501 16.566 17.9343 16.5544 17.9293 16.5504L12.1308 12.1444C12.0112 12.0535 11.9341 11.9214 11.9138 11.7725C11.8936 11.6236 11.9323 11.4757 12.0233 11.3561L12.8218 10.3053C12.9323 10.1597 13.1004 10.0833 13.2703 10.0833C13.3889 10.0833 13.5084 10.1205 13.6099 10.1978L19.4086 14.6038C19.4136 14.6076 19.4291 14.6194 19.4327 14.645ZM37.9233 3.53175L36.6373 24.8129C36.5956 25.5045 36.0201 26.0462 35.3272 26.0462H32.9372V23.0713C32.9372 22.5535 32.5174 22.1338 31.9997 22.1338C31.4819 22.1338 31.0622 22.5535 31.0622 23.0713V26.0462H28.6722C27.9793 26.0462 27.4039 25.5045 27.3621 24.8129L26.0761 3.53175C26.0498 3.09713 26.1997 2.68337 26.4981 2.36637C26.7964 2.0495 27.2004 1.87487 27.6358 1.87487H29.2497V4.78613C29.2497 5.30387 29.6694 5.72363 30.1872 5.72363C30.7049 5.72363 31.1247 5.30387 31.1247 4.78613V1.875H32.8747V4.78625C32.8747 5.304 33.2944 5.72375 33.8122 5.72375C34.3299 5.72375 34.7497 5.304 34.7497 4.78625V1.875H36.3637C36.7989 1.875 37.2031 2.0495 37.5014 2.3665C37.7997 2.68337 37.9496 3.09725 37.9233 3.53175ZM46.0701 16.5504C46.0426 16.5713 46.0032 16.5659 45.9824 16.5384L44.5789 14.6914C44.5581 14.6639 44.5633 14.6246 44.5908 14.6038L50.3894 10.1978C50.5091 10.1068 50.6567 10.0681 50.8058 10.0883C50.9547 10.1086 51.0868 10.1856 51.1777 10.3053L51.9762 11.3561C52.0672 11.4757 52.1061 11.6236 52.0857 11.7725C52.0653 11.9214 51.9883 12.0535 51.8687 12.1444L46.0701 16.5504ZM9.77344 32.725H54.2259C54.9497 32.725 55.5384 33.3137 55.5384 34.0375V34.2137H8.46094V34.0375C8.46094 33.3137 9.04981 32.725 9.77344 32.725ZM38.0306 61.8125C38.0306 61.9847 37.8903 62.125 37.7181 62.125H27.4537C27.2814 62.125 27.1412 61.9847 27.1412 61.8125V59.3913C27.1412 59.219 27.2814 59.0788 27.4537 59.0788H37.7181C37.8903 59.0788 38.0306 59.219 38.0306 59.3913V61.8125ZM54.2259 37.5775H48.1547C47.6369 37.5775 47.2172 37.9972 47.2172 38.515C47.2172 39.0327 47.6369 39.4525 48.1547 39.4525H51.1059V45.2788C51.1059 51.9981 46.3599 57.8473 39.9014 59.3109C39.8587 58.1421 38.8971 57.2038 37.7181 57.2038H27.4537C26.2476 57.2038 25.2662 58.1851 25.2662 59.3913V59.5245C18.2517 58.5403 12.8934 52.468 12.8934 45.2788V39.4525H43.7797C44.2974 39.4525 44.7172 39.0327 44.7172 38.515C44.7172 37.9972 44.2974 37.5775 43.7797 37.5775H9.77344C9.04969 37.5775 8.46094 36.9888 8.46094 36.265V36.0887H55.5384V36.265C55.5384 36.9888 54.9496 37.5775 54.2259 37.5775Z" fill="#C41230"/>
<path d="M33.0625 7.1167H30.9375C30.007 7.1167 29.25 7.8737 29.25 8.8042V12.3748C29.25 13.3053 30.007 14.0623 30.9375 14.0623H33.0625C33.993 14.0623 34.75 13.3053 34.75 12.3748V8.8042C34.75 7.8737 33.993 7.1167 33.0625 7.1167ZM32.875 12.1873H31.125V8.9917H32.875V12.1873Z" fill="#C41230"/>
</svg>
