<svg width="64" height="64" viewBox="0 0 64 64" fill="none" xmlns="http://www.w3.org/2000/svg">
<g clip-path="url(#clip0_2969_1427)">
<path d="M63.0161 25.0395L57.275 16.0177C56.5919 14.9441 55.4242 14.3032 54.1519 14.3032H46.0199C45.502 14.3032 45.0824 14.723 45.0824 15.2407C45.0824 15.7585 45.502 16.1782 46.0199 16.1782H54.1519C54.7798 16.1782 55.3561 16.4946 55.6932 17.0243L61.4344 26.0461C61.8861 26.7561 62.125 27.5763 62.125 28.4181V59.6436C62.125 60.113 61.7431 60.495 61.2736 60.495H55.3203C54.8509 60.495 54.4689 60.1131 54.4689 59.6436V55.4513C54.4689 53.9481 53.2459 52.7251 51.7425 52.7251H38.9829C37.4796 52.7251 36.2565 53.9481 36.2565 55.4513V59.6436C36.2565 60.113 35.8745 60.495 35.4051 60.495H2.72638C2.25688 60.495 1.875 60.1131 1.875 59.6436V44.0448C1.875 43.4931 2.12462 42.9823 2.55988 42.6433L7.7375 38.6096C7.9655 38.432 8.09888 38.1591 8.09888 37.87V14.8635C8.09888 14.6148 8.00012 14.3763 7.82438 14.2006L4.64125 11.0176C4.19525 10.5716 3.94963 9.97859 3.94963 9.34784V7.22222C3.94963 6.75284 4.33162 6.37097 4.801 6.37097H34.0575C34.6871 6.37097 35.2834 6.70422 35.6134 7.24047L40.839 15.7321C41.1105 16.1731 41.6877 16.3106 42.1287 16.0392C42.5696 15.768 42.7072 15.1903 42.4359 14.7495L37.2103 6.25784C36.5414 5.17122 35.3333 4.49609 34.0574 4.49609H4.80088C3.29763 4.49609 2.0745 5.71909 2.0745 7.22234V9.34784C2.0745 10.4795 2.51513 11.5433 3.31538 12.3435L6.22388 15.2518V37.412L1.4075 41.1642C0.513 41.8611 0 42.9111 0 44.045V59.6437C0 61.147 1.223 62.3701 2.72638 62.3701H35.4054C36.9086 62.3701 38.1317 61.1471 38.1317 59.6437V55.4515C38.1317 54.9821 38.5137 54.6002 38.9831 54.6002H51.7429C52.2122 54.6002 52.5942 54.9821 52.5942 55.4515V59.6437C52.5942 61.147 53.8172 62.3701 55.3206 62.3701H61.274C62.7772 62.3701 64.0004 61.1471 64.0004 59.6437V28.4181C64 27.2191 63.6597 26.0508 63.0161 25.0395Z" fill="#C41230"/>
<path d="M44.6432 9.38877H55.9971C56.8059 9.38877 57.5385 8.97565 57.9571 8.28377C58.3756 7.59177 58.4015 6.75114 58.026 6.03477L56.7565 3.61289C56.1154 2.38939 54.8589 1.62939 53.4776 1.62939H44.6434C43.2176 1.62939 42.0576 2.78927 42.0576 4.21514V6.80314C42.0576 8.22889 43.2175 9.38877 44.6432 9.38877ZM43.9326 4.21514C43.9326 3.82327 44.2515 3.50439 44.6434 3.50439H53.4776C54.1594 3.50439 54.7794 3.87939 55.0957 4.48327L56.3654 6.90527C56.46 7.08589 56.3981 7.23852 56.3527 7.31327C56.3075 7.38814 56.201 7.51377 55.9971 7.51377H44.6432C44.2514 7.51377 43.9325 7.19502 43.9325 6.80302V4.21514H43.9326Z" fill="#C41230"/>
<path d="M25.2929 36.971C26.9208 36.971 28.2452 35.6466 28.2452 34.0187V32.489C29.717 32.6241 31.1999 31.3796 31.187 29.8015V28.0838C32.208 27.7026 32.937 26.7173 32.937 25.5651V22.1847C32.937 16.386 28.2194 11.6685 22.4207 11.6685C16.6219 11.6685 11.9043 16.3861 11.9043 22.1847V25.565C11.9043 26.7172 12.6333 27.7026 13.6543 28.0837V29.8013C13.6467 31.3103 15.0119 32.6068 16.5963 32.4888V34.0186C16.5963 35.6465 17.9207 36.9708 19.5484 36.9708H25.2929V36.971ZM18.4713 34.0187V31.5515C18.4713 31.0337 18.0517 30.614 17.5338 30.614H16.3418C15.8938 30.614 15.5293 30.2495 15.5293 29.8015V27.315C15.5293 26.7972 15.1097 26.3775 14.5918 26.3775C14.1438 26.3775 13.7793 26.013 13.7793 25.565V22.1847C13.7793 17.4198 17.6558 13.5435 22.4207 13.5435C27.1855 13.5435 31.062 17.42 31.062 22.1847V25.565C31.062 26.013 30.6975 26.3775 30.2495 26.3775C29.7317 26.3775 29.312 26.7972 29.312 27.315V29.8015C29.312 30.2495 28.9475 30.614 28.4995 30.614H27.3077C26.7898 30.614 26.3702 31.0337 26.3702 31.5515V34.0187C26.3702 34.6127 25.8869 35.096 25.2929 35.096H19.5485C18.9545 35.096 18.4713 34.6127 18.4713 34.0187Z" fill="#C41230"/>
<path d="M21.5359 24.3198C21.5359 22.7383 20.2493 21.4517 18.6679 21.4517C17.0864 21.4517 15.7998 22.7383 15.7998 24.3198C15.7998 25.9013 17.0864 27.1879 18.6679 27.1879C20.2493 27.1879 21.5359 25.9012 21.5359 24.3198ZM18.6679 25.3129C18.1203 25.3129 17.6748 24.8674 17.6748 24.3198C17.6748 23.7722 18.1203 23.3267 18.6679 23.3267C19.2156 23.3267 19.6609 23.7722 19.6609 24.3198C19.6609 24.8674 19.2156 25.3129 18.6679 25.3129Z" fill="#C41230"/>
<path d="M26.1746 27.1879C27.7561 27.1879 29.0428 25.9013 29.0428 24.3198C29.0428 22.7383 27.7561 21.4517 26.1746 21.4517C24.5933 21.4517 23.3066 22.7383 23.3066 24.3198C23.3066 25.9013 24.5931 27.1879 26.1746 27.1879ZM26.1746 23.3267C26.7223 23.3267 27.1678 23.7722 27.1678 24.3198C27.1678 24.8674 26.7223 25.3129 26.1746 25.3129C25.627 25.3129 25.1816 24.8674 25.1816 24.3198C25.1816 23.7722 25.627 23.3267 26.1746 23.3267Z" fill="#C41230"/>
<path d="M21.4834 29.6558C21.4834 30.1735 21.903 30.5933 22.4209 30.5933C22.9388 30.5933 23.3584 30.1735 23.3584 29.6558V28.2231C23.3584 27.7054 22.9388 27.2856 22.4209 27.2856C21.903 27.2856 21.4834 27.7054 21.4834 28.2231V29.6558Z" fill="#C41230"/>
<path d="M51.6856 31.0157C50.7906 31.7023 49.0446 31.8484 47.1622 30.6278C46.7911 30.387 46.3021 30.4387 45.9891 30.7514L35.8974 40.8432C35.5313 41.2093 35.5313 41.8029 35.8974 42.1689C36.2638 42.535 36.8573 42.5349 37.2233 42.1689L46.8038 32.5884C47.7698 33.0953 48.7821 33.3762 49.7682 33.4069C50.9318 33.4438 52.0193 33.1225 52.8266 32.5034C54.0824 31.5404 54.5241 30.0135 54.0082 28.419C53.4511 26.697 51.9871 25.7485 49.8858 25.7484C49.4099 25.7484 49.0078 25.3463 49.0078 24.8703C49.0076 22.7689 48.0592 21.305 46.3372 20.7479C44.7428 20.2322 43.2157 20.6737 42.2527 21.9297C41.6337 22.7369 41.3127 23.823 41.3491 24.988C41.3799 25.974 41.6608 26.9863 42.1677 27.9523L25.6559 44.4639C24.6899 43.9572 23.6777 43.6763 22.6917 43.6454C21.5267 43.6095 20.4404 43.9299 19.6333 44.5489C18.3774 45.5119 17.9357 47.0388 18.4516 48.6334C19.0087 50.3554 20.4727 51.3039 22.5739 51.304C23.0498 51.304 23.4519 51.7062 23.4519 52.1822C23.4522 54.2835 24.4006 55.7474 26.1226 56.3045C26.5612 56.4464 26.9944 56.5159 27.4124 56.5159C28.5142 56.5158 29.5088 56.0333 30.2069 55.1228C30.8259 54.3155 31.1469 53.2294 31.1106 52.0644C31.0797 51.0784 30.7988 50.066 30.2919 49.1002L34.1243 45.2678C34.4904 44.9017 34.4904 44.308 34.1243 43.942C33.7581 43.5759 33.1646 43.5759 32.7984 43.942L28.4549 48.2855C28.1422 48.5983 28.0906 49.0874 28.3313 49.4585C29.5521 51.3409 29.4057 53.0867 28.7193 53.9819C28.2469 54.5979 27.5299 54.7892 26.6998 54.5207C25.4694 54.1227 25.3272 52.9953 25.3271 52.182C25.3268 50.6642 24.0918 49.4293 22.5742 49.4292C21.7608 49.4292 20.6337 49.2867 20.2356 48.0564C19.9672 47.2264 20.1584 46.5093 20.7744 46.037C21.6694 45.3504 23.4156 45.2042 25.2977 46.4248C25.6692 46.6657 26.1579 46.6139 26.4708 46.3012L44.0048 28.767C44.3176 28.4543 44.3692 27.9652 44.1284 27.594C42.9077 25.7118 43.0541 23.966 43.7406 23.0708C44.2128 22.4548 44.9301 22.2637 45.7599 22.532C46.9903 22.93 47.1326 24.0574 47.1327 24.8707C47.1329 26.3885 48.3679 27.6234 49.8856 27.6235C50.6989 27.6235 51.8261 27.766 52.2242 28.9964C52.4928 29.8262 52.3016 30.5434 51.6856 31.0157Z" fill="#C41230"/>
<path d="M47.6284 56.6538H43.0611C41.4853 56.6538 40.2031 57.9359 40.2031 59.5119C40.2031 61.0879 41.4853 62.3701 43.0611 62.3701H47.6284C49.2043 62.3701 50.4864 61.0879 50.4864 59.5119C50.4865 57.9359 49.2044 56.6538 47.6284 56.6538ZM47.6284 60.4951H43.0611C42.5191 60.4951 42.0781 60.0541 42.0781 59.5119C42.0781 58.9699 42.5191 58.5288 43.0611 58.5288H47.6284C48.1704 58.5288 48.6114 58.9698 48.6114 59.5119C48.6115 60.0541 48.1704 60.4951 47.6284 60.4951Z" fill="#C41230"/>
<path d="M7.20898 43.6182C6.69111 43.6182 6.27148 44.0379 6.27148 44.5557V48.1584C6.27148 48.6762 6.69111 49.0959 7.20898 49.0959C7.72686 49.0959 8.14648 48.6762 8.14648 48.1584V44.5557C8.14648 44.0379 7.72673 43.6182 7.20898 43.6182Z" fill="#C41230"/>
<path d="M12.8428 11.3203C13.3605 11.3203 13.7803 10.9006 13.7803 10.3828C13.7803 9.86505 13.3605 9.44531 12.8428 9.44531C12.325 9.44531 11.9053 9.86505 11.9053 10.3828C11.9053 10.9006 12.325 11.3203 12.8428 11.3203Z" fill="#C41230"/>
<path d="M13.8877 54.6162C14.4055 54.6162 14.8252 54.1965 14.8252 53.6787C14.8252 53.1609 14.4055 52.7412 13.8877 52.7412C13.3699 52.7412 12.9502 53.1609 12.9502 53.6787C12.9502 54.1965 13.3699 54.6162 13.8877 54.6162Z" fill="#C41230"/>
<path d="M16.7373 56.5161C17.2551 56.5161 17.6748 56.0964 17.6748 55.5786C17.6748 55.0608 17.2551 54.6411 16.7373 54.6411C16.2195 54.6411 15.7998 55.0608 15.7998 55.5786C15.7998 56.0964 16.2195 56.5161 16.7373 56.5161Z" fill="#C41230"/>
<path d="M57.0322 44.418C57.55 44.418 57.9697 43.9982 57.9697 43.4805C57.9697 42.9627 57.55 42.543 57.0322 42.543C56.5145 42.543 56.0947 42.9627 56.0947 43.4805C56.0947 43.9982 56.5145 44.418 57.0322 44.418Z" fill="#C41230"/>
</g>
<defs>
<clipPath id="clip0_2969_1427">
<rect width="64" height="64" fill="white"/>
</clipPath>
</defs>
</svg>
