<svg width="46" height="64" viewBox="0 0 46 64" fill="none" xmlns="http://www.w3.org/2000/svg">
<path d="M25.894 44.7703C24.317 44.7703 23.0342 46.0532 23.0342 47.6301C23.0342 49.207 24.3171 50.4899 25.894 50.4899C27.4708 50.4899 28.7537 49.207 28.7537 47.6301C28.7537 46.0532 27.4708 44.7703 25.894 44.7703ZM25.894 48.6302C25.3426 48.6302 24.894 48.1816 24.894 47.6302C24.894 47.0789 25.3426 46.6303 25.894 46.6303C26.4453 46.6303 26.8939 47.0789 26.8939 47.6302C26.8939 48.1816 26.4453 48.6302 25.894 48.6302Z" fill="url(#paint0_linear_2708_1996)"/>
<path d="M26.3834 18.8563C26.3834 16.7934 24.7052 15.1152 22.6423 15.1152C20.5795 15.1152 18.9014 16.7934 18.9014 18.8563C18.9014 20.9191 20.5795 22.5972 22.6423 22.5972C24.7052 22.5972 26.3834 20.9191 26.3834 18.8563ZM20.7612 18.8563C20.7612 17.819 21.605 16.975 22.6423 16.975C23.6796 16.975 24.5236 17.819 24.5236 18.8563C24.5236 19.8936 23.6796 20.7374 22.6423 20.7374C21.605 20.7374 20.7612 19.8936 20.7612 18.8563Z" fill="url(#paint1_linear_2708_1996)"/>
<path d="M44.7822 61.9012H43.3828V59.2363C43.3828 57.1467 41.6826 55.4464 39.5929 55.4464H32.2776V47.2704C32.2776 46.3311 32.0721 45.4394 31.706 44.6354H41.8544C43.1957 44.6354 44.2871 43.5441 44.2871 42.2027V38.0803C44.2871 36.739 43.1957 35.6477 41.8544 35.6477H19.5127C18.1714 35.6477 17.0801 36.739 17.0801 38.0803V42.2027C17.0801 42.8638 17.346 43.4634 17.7754 43.9023C13.0776 42.7234 9.58851 38.4654 9.58851 33.4072C9.58851 31.5209 10.0847 29.6616 11.0235 28.03C11.2796 27.5849 11.1264 27.0164 10.6812 26.7603C10.2362 26.5045 9.66761 26.6572 9.41145 27.1026C8.31057 29.0158 7.72869 31.1959 7.72869 33.4074C7.72869 40.1363 12.9978 45.6567 19.6265 46.0619C19.5512 46.4535 19.5102 46.8572 19.5102 47.2704V51.6438C9.85768 51.174 2.14925 43.1741 2.14925 33.4072C2.14925 25.0069 7.91715 17.75 15.8774 15.7162C15.4323 16.6714 15.182 17.7349 15.182 18.8564C15.182 19.8357 15.3735 20.7705 15.718 21.628C14.4363 22.1391 13.251 22.8556 12.1838 23.7673C11.7934 24.1007 11.7473 24.6878 12.0808 25.0782C12.2647 25.2936 12.5257 25.4042 12.7883 25.4042C13.0019 25.4042 13.2165 25.3309 13.3917 25.1813C14.3651 24.3498 15.4535 23.7103 16.6325 23.2703C17.8251 24.8898 19.6553 26.0106 21.7498 26.2617V27.0939C21.7498 28.4762 22.7281 29.6339 24.0285 29.9124L25.3046 32.4318C25.3095 32.4417 25.3148 32.4517 25.3202 32.4615C25.6897 33.1301 26.3939 33.5455 27.1581 33.5455H30.626C31.3901 33.5455 32.0944 33.13 32.4639 32.4615C32.4692 32.4517 32.4745 32.4417 32.4795 32.4318L33.7556 29.9124C35.0559 29.634 36.0342 28.4762 36.0342 27.0939V18.4502H38.2334C38.2599 19.6398 39.2338 20.5997 40.4296 20.5997H41.7003C42.9127 20.5997 43.899 19.6134 43.899 18.401V12.8314C43.899 11.619 42.9127 10.6327 41.7003 10.6327H40.4296C39.2338 10.6327 38.2599 11.5926 38.2334 12.7821H36.0342V10.011C36.0342 8.75651 35.0137 7.73584 33.759 7.73584H32.2773V6.11284H34.1048C35.1686 6.11284 36.0342 5.24741 36.0342 4.18359V2.16818C36.0342 1.10449 35.1688 0.238928 34.1048 0.238928H29.0259C28.5122 0.238928 28.096 0.655154 28.096 1.16884C28.096 1.68252 28.5122 2.09874 29.0259 2.09874H34.1048C34.1431 2.09874 34.1744 2.12986 34.1744 2.16818V4.18372C34.1744 4.22203 34.1431 4.25315 34.1048 4.25315H31.3473H26.4364H23.6788C23.6405 4.25315 23.6094 4.22203 23.6094 4.18372V2.16818C23.6094 2.12986 23.6405 2.09874 23.6788 2.09874H25.063C25.5767 2.09874 25.9929 1.68252 25.9929 1.16884C25.9929 0.655154 25.5767 0.238928 25.063 0.238928H23.6788C22.6151 0.238928 21.7496 1.10436 21.7496 2.16818V4.18372C21.7496 5.24741 22.615 6.11297 23.6788 6.11297H25.5065V7.73609H24.0246C22.7703 7.73609 21.7496 8.75663 21.7496 10.0113V11.4511C20.0878 11.6503 18.5927 12.3972 17.4501 13.5065C12.7733 14.1965 8.47894 16.5251 5.32866 20.089C2.07882 23.7655 0.289062 28.4953 0.289062 33.4074C0.289062 44.1999 8.83156 53.0335 19.5099 53.505V55.4465H12.1946C10.1049 55.4465 8.40467 57.1468 8.40467 59.2365V61.9013H7.36094C6.84726 61.9013 6.43104 62.3176 6.43104 62.8312C6.43104 63.3449 6.84726 63.7611 7.36094 63.7611H9.33458H42.4525H44.7818C45.2955 63.7611 45.7117 63.3449 45.7117 62.8312C45.7117 62.3176 45.2958 61.9012 44.7822 61.9012ZM17.0418 18.8563C17.0418 15.768 19.5543 13.2554 22.6425 13.2554C22.6547 13.2554 22.6667 13.2563 22.679 13.2563H22.6799H22.6801C25.7512 13.2766 28.2434 15.7804 28.2434 18.8562C28.2434 21.9319 25.7512 24.4356 22.6801 24.4559C22.68 24.4559 22.6799 24.4559 22.6799 24.4559C22.6796 24.4559 22.6792 24.4559 22.679 24.4559C22.6668 24.4559 22.6548 24.4568 22.6425 24.4568C19.5543 24.4571 17.0418 21.9446 17.0418 18.8563ZM30.8311 31.5709C30.7875 31.6419 30.71 31.6857 30.6262 31.6857H27.1583C27.0744 31.6857 26.9969 31.6419 26.9535 31.5709L26.1459 29.9766H31.6386L30.8311 31.5709ZM33.152 28.1167H24.6325C24.0685 28.1167 23.6098 27.6579 23.6098 27.0939V26.2522C25.0328 26.067 26.3318 25.4816 27.3871 24.6098H34.1748V27.0939C34.1748 27.6579 33.7159 28.1167 33.152 28.1167ZM40.091 12.8314C40.091 12.6445 40.2431 12.4925 40.4298 12.4925H41.7006C41.8874 12.4925 42.0394 12.6446 42.0394 12.8314V18.401C42.0394 18.5879 41.8873 18.7399 41.7006 18.7399H40.4298C40.243 18.7399 40.091 18.5877 40.091 18.401V17.5203V13.7119V12.8314ZM38.2311 14.6418V16.5904H36.0345V14.6418H38.2311ZM27.3666 6.11284H30.4177V7.73596H27.3666V6.11284ZM24.0249 9.59578H26.4343C26.4351 9.59578 26.4359 9.5959 26.4367 9.5959H31.3476C31.3485 9.5959 31.3492 9.59578 31.35 9.59578H33.7593C33.9883 9.59578 34.1746 9.78213 34.1746 10.0111V13.712V17.5204V22.7501H29.0036C29.7004 21.6159 30.1033 20.2825 30.1033 18.8565C30.1033 15.0706 27.268 11.9365 23.6098 11.4607V10.011C23.6098 9.78213 23.796 9.59578 24.0249 9.59578ZM18.9399 38.0802C18.9399 37.7643 19.1968 37.5074 19.5127 37.5074H41.8544C42.1703 37.5074 42.4272 37.7643 42.4272 38.0802V42.2025C42.4272 42.5185 42.1703 42.7755 41.8544 42.7755H30.422C29.2648 41.6098 27.6624 40.8867 25.894 40.8867C24.1256 40.8867 22.5231 41.6099 21.366 42.7755H19.5127C19.1968 42.7755 18.9399 42.5185 18.9399 42.2025V38.0802ZM21.3701 47.2703C21.3701 44.7759 23.3995 42.7465 25.8939 42.7465C28.3883 42.7465 30.4177 44.7759 30.4177 47.2703V55.4463H21.3699V47.2703H21.3701ZM10.2649 61.9012V59.2363C10.2649 58.172 11.1307 57.3062 12.195 57.3062H20.4402H31.3477H39.5929C40.6572 57.3062 41.523 58.172 41.523 59.2363V61.9012H10.2649Z" fill="url(#paint2_linear_2708_1996)"/>
<defs>
<linearGradient id="paint0_linear_2708_1996" x1="25.894" y1="44.7703" x2="25.894" y2="50.4899" gradientUnits="userSpaceOnUse">
<stop stop-color="#FF4B55"/>
<stop offset="1" stop-color="#C41230"/>
</linearGradient>
<linearGradient id="paint1_linear_2708_1996" x1="22.6424" y1="15.1152" x2="22.6424" y2="22.5972" gradientUnits="userSpaceOnUse">
<stop stop-color="#FF4B55"/>
<stop offset="1" stop-color="#C41230"/>
</linearGradient>
<linearGradient id="paint2_linear_2708_1996" x1="23.0004" y1="0.238928" x2="23.0004" y2="63.7611" gradientUnits="userSpaceOnUse">
<stop stop-color="#FF4B55"/>
<stop offset="1" stop-color="#C41230"/>
</linearGradient>
</defs>
</svg>
