<svg width="64" height="64" viewBox="0 0 64 64" fill="none" xmlns="http://www.w3.org/2000/svg">
<g clip-path="url(#clip0_2902_1656)">
<path d="M60.0625 5.15146H58.0299V3.13721C58.0299 1.51746 56.7121 0.199707 55.0924 0.199707H8.90763C7.28788 0.199707 5.97013 1.51746 5.97013 3.13721V5.15158H3.9375C1.76638 5.15158 0 6.91796 0 9.08908V10.9553C0 11.4731 0.419625 11.8928 0.9375 11.8928C1.45537 11.8928 1.875 11.4731 1.875 10.9553V9.08908C1.875 7.95183 2.80025 7.02658 3.9375 7.02658H5.97013V34.2568C5.97013 35.8766 7.28788 37.1943 8.90763 37.1943H55.0925C56.7122 37.1943 58.03 35.8766 58.03 34.2568V7.02646H60.0625C61.1999 7.02646 62.125 7.95171 62.125 9.08896V41.0533H1.875V15.3303C1.875 14.8126 1.45537 14.3928 0.9375 14.3928C0.419625 14.3928 0 14.8125 0 15.3303V46.5278C0 48.699 1.76638 50.4653 3.9375 50.4653H22.0551L20.5286 55.9591H18.1413C16.5215 55.9591 15.2037 57.2768 15.2037 58.8966V60.8628C15.2037 62.4826 16.5215 63.8003 18.1413 63.8003H40.0838C40.6016 63.8003 41.0213 63.3806 41.0213 62.8628C41.0213 62.3451 40.6016 61.9253 40.0838 61.9253H18.1413C17.5554 61.9253 17.0788 61.4487 17.0788 60.8628V58.8966C17.0788 58.3107 17.5554 57.8341 18.1413 57.8341H45.8587C46.4446 57.8341 46.9212 58.3107 46.9212 58.8966V60.8628C46.9212 61.4487 46.4446 61.9253 45.8587 61.9253H44.4588C43.9409 61.9253 43.5213 62.3451 43.5213 62.8628C43.5213 63.3806 43.9409 63.8003 44.4588 63.8003H45.8587C47.4785 63.8003 48.7962 62.4826 48.7962 60.8628V58.8966C48.7962 57.2768 47.4785 55.9591 45.8587 55.9591H43.4714L41.9449 50.4653H60.0625C62.2336 50.4653 64 48.699 64 46.5278V9.08896C64 6.91783 62.2336 5.15146 60.0625 5.15146ZM56.1549 34.2567C56.1549 34.8426 55.6783 35.3192 55.0924 35.3192H8.90763C8.32175 35.3192 7.84513 34.8426 7.84513 34.2567V3.13721C7.84513 2.55133 8.32175 2.07471 8.90763 2.07471H55.0925C55.6784 2.07471 56.155 2.55133 56.155 3.13721V34.2567H56.1549ZM37.5518 42.9283L37.2059 44.4073C37.146 44.6633 36.921 44.8422 36.6586 44.8422H27.3412C27.0789 44.8422 26.854 44.6633 26.794 44.4075L26.4481 42.9283H37.5518ZM41.5252 55.959H22.4748L24.0012 50.4652H39.9987L41.5252 55.959ZM60.0625 48.5903H3.9375C2.80013 48.5903 1.875 47.6651 1.875 46.5278V42.9285H24.5228L24.9684 44.8346C25.2277 45.9431 26.2035 46.7173 27.3412 46.7173H36.6586C37.7965 46.7173 38.7721 45.9432 39.0315 44.8346L39.4771 42.9286H62.125V46.528C62.125 47.6651 61.1999 48.5903 60.0625 48.5903Z" fill="#C41230"/>
<path d="M29.8823 14.1475C29.9959 14.1928 30.1132 14.2141 30.2285 14.2141C30.6012 14.2141 30.9538 13.9903 31.0999 13.6229L34.6434 4.7139C34.8348 4.23277 34.5999 3.68765 34.1188 3.49627C33.6379 3.30502 33.0927 3.53977 32.9013 4.0209L29.3578 12.9299C29.1662 13.411 29.401 13.9561 29.8823 14.1475Z" fill="#C41230"/>
<path d="M36.835 13.6604C36.9829 13.7462 37.1445 13.7869 37.304 13.7869C37.6275 13.7869 37.9423 13.6193 38.1162 13.3192L40.4957 9.21118C40.6669 8.91543 40.6638 8.54993 40.4873 8.25718L38.1078 4.31043C37.8404 3.86705 37.2643 3.72443 36.8209 3.99168C36.3774 4.25905 36.2348 4.83518 36.502 5.27855L38.5954 8.7508L36.4937 12.3793C36.234 12.8273 36.3869 13.4008 36.835 13.6604Z" fill="#C41230"/>
<path d="M25.8837 13.3192C26.0576 13.6193 26.3724 13.787 26.6959 13.787C26.8552 13.787 27.017 13.7462 27.1649 13.6605C27.613 13.401 27.7659 12.8273 27.5062 12.3793L25.4045 8.75083L27.4979 5.27858C27.7652 4.8352 27.6225 4.25895 27.179 3.9917C26.736 3.72445 26.1596 3.86695 25.8921 4.31045L23.5126 8.2572C23.3361 8.54995 23.3329 8.91545 23.5042 9.2112L25.8837 13.3192Z" fill="#C41230"/>
<path d="M48.7369 16.3389H15.2637C14.7458 16.3389 14.3262 16.7586 14.3262 17.2764C14.3262 17.7941 14.7458 18.2139 15.2637 18.2139H48.7368C49.2547 18.2139 49.6743 17.7941 49.6743 17.2764C49.6743 16.7586 49.2547 16.3389 48.7369 16.3389Z" fill="#C41230"/>
<path d="M48.7369 20.0889H15.2637C14.7458 20.0889 14.3262 20.5086 14.3262 21.0264C14.3262 21.5441 14.7458 21.9639 15.2637 21.9639H48.7368C49.2547 21.9639 49.6743 21.5441 49.6743 21.0264C49.6743 20.5086 49.2547 20.0889 48.7369 20.0889Z" fill="#C41230"/>
<path d="M48.7369 23.8389H15.2637C14.7458 23.8389 14.3262 24.2586 14.3262 24.7764C14.3262 25.2941 14.7458 25.7139 15.2637 25.7139H48.7368C49.2547 25.7139 49.6743 25.2941 49.6743 24.7764C49.6743 24.2586 49.2547 23.8389 48.7369 23.8389Z" fill="#C41230"/>
<path d="M48.7369 27.5889H15.2637C14.7458 27.5889 14.3262 28.0086 14.3262 28.5264C14.3262 29.0441 14.7458 29.4639 15.2637 29.4639H48.7368C49.2547 29.4639 49.6743 29.0441 49.6743 28.5264C49.6743 28.0086 49.2547 27.5889 48.7369 27.5889Z" fill="#C41230"/>
<path d="M48.7369 31.3389H15.2637C14.7458 31.3389 14.3262 31.7586 14.3262 32.2764C14.3262 32.7941 14.7458 33.2139 15.2637 33.2139H48.7368C49.2547 33.2139 49.6743 32.7941 49.6743 32.2764C49.6743 31.7586 49.2547 31.3389 48.7369 31.3389Z" fill="#C41230"/>
</g>
<defs>
<clipPath id="clip0_2902_1656">
<rect width="64" height="64" fill="white"/>
</clipPath>
</defs>
</svg>
