<svg width="64" height="64" viewBox="0 0 64 64" fill="none" xmlns="http://www.w3.org/2000/svg">
<path d="M50.3491 26.5419C53.5342 24.8375 55.7066 21.4784 55.7066 17.6204C55.7066 17.1026 55.2868 16.6829 54.7691 16.6829H47.8328L45.6068 7.43313C45.4857 6.92975 44.9794 6.62013 44.4759 6.741C43.9726 6.86213 43.6627 7.3685 43.7838 7.87187L44.7829 12.0238H19.2174L20.6554 6.048C20.9404 4.86337 21.6239 3.79663 22.5808 3.04338C23.5359 2.29 24.7328 1.875 25.9514 1.875C28.2888 1.875 30.3628 3.36262 31.1122 5.57675C31.2411 5.95737 31.5982 6.21362 32.0001 6.21375H32.0002C32.4019 6.21375 32.7591 5.95775 32.8881 5.57725C33.2512 4.506 33.9271 3.58662 34.8428 2.9185C35.7782 2.23587 36.8868 1.875 38.0489 1.875C39.9734 1.875 41.7736 2.9055 42.7466 4.56437C43.0087 5.01113 43.5832 5.16075 44.0296 4.89875C44.4762 4.63675 44.6259 4.06238 44.3639 3.61575C43.0557 1.38538 40.6359 0 38.0489 0C36.4867 0 34.9959 0.4855 33.7376 1.40387C33.0531 1.90338 32.4682 2.5075 32.0001 3.19325C30.6594 1.22875 28.4142 0 25.9514 0C24.3133 0 22.7038 0.558125 21.4203 1.57075C20.1347 2.58262 19.2156 4.01688 18.8324 5.60938L16.1677 16.6829H9.23145C8.7137 16.6829 8.29395 17.1026 8.29395 17.6204C8.29395 21.4765 10.4642 24.8341 13.6466 26.5395C13.1993 26.7866 12.7838 27.097 12.4128 27.468C11.3736 28.505 10.8011 29.8876 10.8011 31.3612C10.8011 34.3939 13.2692 36.8611 16.3028 36.8611H16.9334C17.2836 40.3418 18.8141 43.5649 21.3314 46.0635C21.8323 46.5606 22.3621 47.0175 22.9161 47.4346C21.7189 48.2326 20.6328 49.1833 19.6763 50.2746C18.9186 51.1391 18.2526 52.0819 17.6967 53.0765C17.4441 53.5285 17.6058 54.0996 18.0578 54.3522C18.2026 54.4331 18.3594 54.4715 18.5143 54.4715C18.8429 54.4715 19.1619 54.2984 19.3336 53.9911C19.8254 53.1109 20.4151 52.2764 21.0863 51.5105C21.5912 50.9345 22.1388 50.4051 22.7216 49.9196L21.9479 52.2795C21.6393 53.2211 21.7758 54.2352 22.3226 55.0617C22.8692 55.8882 23.7489 56.4108 24.7363 56.4951L26.0762 56.6097V62.125H17.4914V61.0713C17.4914 59.7756 17.6624 58.4904 17.9997 57.2513C18.1357 56.7516 17.8408 56.2364 17.3413 56.1004C16.8417 55.9648 16.3264 56.2593 16.1904 56.7588C15.8096 58.1584 15.6163 59.6092 15.6163 61.0713V63.0625C15.6163 63.5802 16.0361 64 16.5538 64H47.4463C47.9641 64 48.3838 63.5802 48.3838 63.0625V61.265C48.3838 57.2605 46.9429 53.3889 44.3274 50.3639C43.3519 49.2331 42.2421 48.2504 41.0159 47.4296C44.2979 44.9552 46.5634 41.1715 47.0452 36.861H47.6949C49.1663 36.861 50.5487 36.2889 51.5876 35.2501C52.6264 34.2111 53.1984 32.8301 53.1984 31.3611C53.1984 29.2885 52.0462 27.4803 50.3491 26.5419ZM45.2341 13.8988L45.9039 16.6825H18.0963L18.7662 13.8988H45.2341ZM10.2219 18.5579H53.7784C53.3118 22.6604 49.8193 25.8577 45.5941 25.8577H18.4063C14.1811 25.8577 10.6886 22.6604 10.2219 18.5579ZM12.6761 31.3612C12.6761 30.3892 13.0529 29.478 13.7379 28.7945C14.4226 28.1098 15.3334 27.7327 16.3028 27.7327H16.8558V34.9861H16.3028C14.3031 34.9861 12.6761 33.36 12.6761 31.3612ZM23.8864 54.0274C23.6577 53.6816 23.6006 53.2574 23.7298 52.8635L25.0663 48.7863C26.7027 49.631 28.4844 50.1683 30.3407 50.369L27.1319 54.8181L24.8961 54.6269C24.4832 54.5916 24.1151 54.3731 23.8864 54.0274ZM38.7496 48.8444L40.0669 52.863C40.1961 53.2569 40.1391 53.681 39.9104 54.0267C39.6818 54.3725 39.3138 54.5911 38.9008 54.6264L28.9689 55.4765L32.5967 50.4464C34.7991 50.3596 36.8831 49.7916 38.7496 48.8444ZM42.9086 51.5894C45.2303 54.2745 46.5089 57.7108 46.5089 61.265V62.125H27.9512V57.4456L39.0606 56.4948C40.0478 56.4103 40.9277 55.8877 41.4742 55.0612C42.0208 54.2347 42.1572 53.2206 41.8486 52.2791L41.0233 49.7617C41.7013 50.3099 42.3312 50.9202 42.9086 51.5894ZM32.1002 48.5838C28.5357 48.6163 25.1811 47.2426 22.6523 44.7327C20.1236 42.2226 18.7308 38.8785 18.7308 35.3162V27.7329H26.9082V29.4506C26.9082 29.9684 27.3279 30.3881 27.8457 30.3881C28.3634 30.3881 28.7832 29.9684 28.7832 29.4506V27.7329H35.2153V29.4506C35.2153 29.9684 35.6351 30.3881 36.1528 30.3881C36.6706 30.3881 37.0903 29.9684 37.0903 29.4506V27.7329H45.2671V35.1389C45.2671 42.4991 39.3604 48.5305 32.1002 48.5838ZM50.2617 33.9244C49.5769 34.609 48.6654 34.9861 47.6949 34.9861H47.1421V27.7327H47.6949C49.6957 27.7327 51.3234 29.3605 51.3234 31.3612C51.3234 32.3294 50.9464 33.2396 50.2617 33.9244Z" fill="#C41230"/>
<path d="M34.6391 36.5889H29.3623C28.8446 36.5889 28.4248 37.0086 28.4248 37.5264C28.4248 38.0441 28.8446 38.4639 29.3623 38.4639H34.6391C35.1568 38.4639 35.5766 38.0441 35.5766 37.5264C35.5766 37.0086 35.1568 36.5889 34.6391 36.5889Z" fill="#C41230"/>
<path d="M30.7744 59.1143C30.2567 59.1143 29.8369 59.534 29.8369 60.0518V60.1143C29.8369 60.632 30.2567 61.0518 30.7744 61.0518C31.2922 61.0518 31.7119 60.632 31.7119 60.1143V60.0518C31.7119 59.534 31.2922 59.1143 30.7744 59.1143Z" fill="#C41230"/>
</svg>
