<svg width="64" height="64" viewBox="0 0 64 64" fill="none" xmlns="http://www.w3.org/2000/svg">
<g clip-path="url(#clip0_2907_1748)">
<path d="M52.0394 48.6749C52.0208 48.1574 51.5853 47.7563 51.0687 47.7718C50.5512 47.7904 50.1469 48.225 50.1655 48.7425C50.3413 53.6103 49.4668 59.919 49.1304 62.125H45.857C46.0004 60.9321 46.1813 59.2551 46.3127 57.4419C46.35 56.9254 45.9618 56.4765 45.4454 56.4391C44.9283 56.3996 44.48 56.7901 44.4426 57.3064C44.3054 59.202 44.1129 60.9456 43.9684 62.125H20.0342C19.8898 60.9453 19.6973 59.2011 19.56 57.3064C19.5227 56.7899 19.0744 56.4002 18.5573 56.4391C18.0409 56.4766 17.6525 56.9255 17.69 57.4419C17.8213 59.2544 18.0022 60.9316 18.1455 62.125H14.872C13.7957 55.1031 13.1549 46.1724 14.8439 43.7174C15.1193 43.3169 16.1689 42.3035 20.0805 41.0196V43.5104C18.7218 44.2894 17.6215 45.7971 17.0738 47.6709C16.4175 49.9152 16.7144 52.2109 17.8682 53.812C18.0514 54.0662 18.3384 54.2015 18.6295 54.2015C18.8194 54.2015 19.011 54.1439 19.1768 54.0245C19.5968 53.7218 19.692 53.1359 19.3893 52.7158C18.5709 51.5801 18.378 49.8908 18.8733 48.1971C19.2813 46.8018 20.0842 45.6665 21.0179 45.1339C21.9517 45.6665 22.7545 46.8018 23.1625 48.1971C23.6578 49.8909 23.4649 51.58 22.6465 52.7158C22.3439 53.1357 22.439 53.7218 22.859 54.0245C23.2792 54.3274 23.865 54.2321 24.1678 53.812C25.3214 52.2109 25.6184 49.9151 24.9623 47.6709C24.4144 45.7972 23.3142 44.2895 21.9555 43.5104V40.449C23.5987 39.9836 25.1185 39.635 26.0252 39.4394L30.5482 57.1833C30.7204 57.8582 31.3044 58.3117 32.0014 58.3117C32.6984 58.3117 33.2824 57.8582 33.4547 57.183L37.9794 39.4351C39.1458 39.6811 40.4722 40.0019 41.7977 40.3739V46.1618C40.5807 46.5579 39.6983 47.7029 39.6983 49.0505C39.6983 50.7251 41.0608 52.0877 42.7355 52.0877C44.4103 52.0877 45.7729 50.7253 45.7729 49.0505C45.7729 47.7026 44.8902 46.5578 43.6727 46.1616V40.9376C46.2407 41.7665 48.4973 42.7551 49.1594 43.7181C49.322 43.9543 49.4704 44.2754 49.6004 44.6727C49.7298 45.068 50.0968 45.319 50.4913 45.319C50.5879 45.319 50.6862 45.304 50.7829 45.2723C51.275 45.1114 51.5434 44.5819 51.3824 44.0897C51.1939 43.5136 50.9718 43.0441 50.7039 42.6551C48.9233 40.0655 41.306 38.2292 38.2288 37.5747V32.5304C40.295 30.8123 43.3244 27.3352 44.0568 25.0024H46.1539C48.4209 25.0024 50.2652 23.1586 50.2652 20.8924C50.2652 19.5923 49.6578 18.4319 48.7127 17.678V11.7487C48.7127 5.2705 43.4417 0 36.9627 0H27.0402C23.2984 0 19.7469 1.80762 17.54 4.83525C17.2352 5.25375 17.327 5.84013 17.7454 6.14512C18.1639 6.45012 18.7503 6.358 19.0553 5.93975C20.9103 3.3945 23.8954 1.875 27.04 1.875H36.9625C42.4077 1.875 46.8375 6.30437 46.8375 11.7487V16.8391C46.2823 16.7458 46.0118 16.7951 44.7215 16.7812C44.7148 16.271 44.7035 15.7421 44.6874 15.1931C44.6533 14.0324 43.7155 13.1231 42.5527 13.1231H30.9568C29.8199 13.1231 28.8949 12.1982 28.8949 11.0612V11.0057C28.8949 8.4205 26.7917 6.31725 24.2065 6.31725C21.7379 6.31725 19.6825 8.24763 19.5272 10.712C19.4079 12.6041 19.3083 14.724 19.2818 16.7812H17.8488C17.6158 16.7812 17.3875 16.8018 17.165 16.8391V11.7487C17.165 11.0036 17.2484 10.2614 17.4127 9.54275C17.528 9.038 17.2124 8.53525 16.7077 8.41988C16.2027 8.30437 15.7002 8.62012 15.5848 9.12488C15.3892 9.9805 15.29 10.8632 15.29 11.7489V17.6781C14.3449 18.432 13.7375 19.5923 13.7375 20.8925C13.7375 23.1588 15.5818 25.0025 17.8488 25.0025H19.9462C19.9465 25.0037 19.9469 25.0051 19.9473 25.0064C20.7453 27.526 23.7309 30.8319 25.7749 32.5311V37.5749C22.6833 38.2323 15.0769 40.0692 13.2989 42.655C12.1463 44.3301 11.7313 47.7702 12.0302 53.1719C12.2545 57.229 12.8253 61.1723 13.0603 62.6791C13.1795 63.4446 13.8288 64.0001 14.604 64.0001H49.3984C50.1735 64.0001 50.8229 63.4446 50.9422 62.6791C51.2475 60.7203 52.2289 53.9217 52.0394 48.6749ZM42.7353 50.2127C42.0944 50.2127 41.573 49.6914 41.573 49.0505C41.573 48.4094 42.0943 47.8879 42.7349 47.8879C43.376 47.8879 43.8977 48.4094 43.8977 49.0505C43.8977 49.6914 43.3763 50.2127 42.7353 50.2127ZM32.0013 55.2935L28.3398 40.9292C30.7677 42.2076 33.2398 42.2195 35.6567 40.9556L32.0013 55.2935ZM48.39 20.8925C48.39 22.1249 47.3869 23.1275 46.1538 23.1275H44.4484C44.6113 21.9414 44.7033 20.4478 44.7242 18.6562H46.1538C47.3868 18.6562 48.39 19.6594 48.39 20.8925ZM21.3987 10.83C21.4919 9.35087 22.7253 8.19225 24.2067 8.19225C25.758 8.19225 27.02 9.45437 27.02 11.0057V11.0612C27.02 13.232 28.786 14.9981 30.9569 14.9981H42.5528C42.6924 14.9981 42.8093 15.1103 42.8133 15.2483C42.8398 16.1489 42.8525 16.9678 42.854 17.7139C42.854 17.7155 42.8538 17.717 42.8538 17.7188C42.8538 17.7204 42.854 17.7219 42.854 17.7235C42.8597 20.7247 42.6815 22.533 42.4697 23.622C40.2052 22.1755 36.1708 20.0525 32.0014 20.0525C28.3372 20.0525 24.6047 21.685 21.5605 23.7585C21.0745 21.44 21.0152 16.9137 21.3987 10.83ZM17.8488 23.1275C16.6158 23.1275 15.6125 22.1249 15.6125 20.8925C15.6125 19.6595 16.6157 18.6562 17.8488 18.6562H19.2797C19.2994 20.3074 19.3814 21.8523 19.5559 23.1275H17.8488ZM22.2417 25.5686C24.001 24.3234 27.9183 21.9275 32.0013 21.9275C35.9417 21.9275 39.8409 24.1222 41.8304 25.4429C40.4704 27.9948 36.9664 31.6283 34.7659 32.5954C33.5775 33.117 30.4253 33.1171 29.2372 32.5955C27.072 31.644 23.647 28.1126 22.2417 25.5686ZM28.4832 34.3121C30.1604 35.0484 33.8428 35.0483 35.5199 34.312C35.787 34.1946 36.0664 34.0476 36.3535 33.8779V38.2223L36.345 38.255C33.4045 40.6451 30.6292 40.6369 27.6513 38.229L27.6497 38.2223V33.8783C27.9368 34.048 28.2162 34.1948 28.4832 34.3121Z" fill="#C41230"/>
<path d="M26.4023 19.3154C26.9201 19.3154 27.3398 18.8957 27.3398 18.3779V17.7192C27.3398 17.2014 26.9201 16.7817 26.4023 16.7817C25.8846 16.7817 25.4648 17.2014 25.4648 17.7192V18.3779C25.4648 18.8957 25.8846 19.3154 26.4023 19.3154Z" fill="#C41230"/>
<path d="M37.5996 19.3154C38.1174 19.3154 38.5371 18.8957 38.5371 18.3779V17.7192C38.5371 17.2014 38.1174 16.7817 37.5996 16.7817C37.0819 16.7817 36.6621 17.2014 36.6621 17.7192V18.3779C36.6621 18.8957 37.0819 19.3154 37.5996 19.3154Z" fill="#C41230"/>
</g>
<defs>
<clipPath id="clip0_2907_1748">
<rect width="64" height="64" fill="white"/>
</clipPath>
</defs>
</svg>
