<svg width="64" height="64" viewBox="0 0 64 64" fill="none" xmlns="http://www.w3.org/2000/svg">
<path d="M57.2075 9.28813L52.7706 4.851C49.6423 1.72275 45.4831 0 41.0591 0H18.3438C16.7929 0 15.5312 1.26175 15.5312 2.8125V6.96725C15.5312 7.48513 15.951 7.90475 16.4688 7.90475C16.9865 7.90475 17.4062 7.48513 17.4062 6.96725V2.8125C17.4062 2.2955 17.8268 1.875 18.3438 1.875H39.4062C43.3695 1.875 46.5938 5.09925 46.5938 9.0625V12.6524C46.5938 12.9809 46.6504 13.2965 46.7544 13.5899H25.1719V12.586C25.1719 12.0681 24.7521 11.6485 24.2344 11.6485C23.7166 11.6485 23.2969 12.0681 23.2969 12.586V13.5899H22.293C21.7752 13.5899 21.3555 14.0095 21.3555 14.5274C21.3555 15.0452 21.7752 15.4649 22.293 15.4649H23.2969V44.6524H22.293C21.7752 44.6524 21.3555 45.072 21.3555 45.5899C21.3555 46.1077 21.7752 46.5274 22.293 46.5274H23.2969V50.4766H22.293C21.7752 50.4766 21.3555 50.8962 21.3555 51.4141C21.3555 51.932 21.7752 52.3516 22.293 52.3516H23.2969V55.2969C23.2969 55.8148 23.7166 56.2344 24.2344 56.2344C24.7521 56.2344 25.1719 55.8148 25.1719 55.2969V52.3516H34.9454V52.3849C34.9454 54.5075 36.6722 56.2345 38.795 56.2345C40.9177 56.2345 42.6446 54.5076 42.6446 52.3849V52.3516H52.4181V55.2969C52.4181 55.8148 52.8379 56.2344 53.3556 56.2344C53.8734 56.2344 54.2931 55.8148 54.2931 55.2969V52.3516H55.297C55.8148 52.3516 56.2345 51.932 56.2345 51.4141C56.2345 50.8962 55.8148 50.4766 55.297 50.4766H54.2931V46.5274H55.297C55.8148 46.5274 56.2345 46.1077 56.2345 45.5899C56.2345 45.072 55.8148 44.6524 55.297 44.6524H54.2931V44.0173C54.2931 43.4994 53.8734 43.0798 53.3556 43.0798C52.8379 43.0798 52.4181 43.4994 52.4181 44.0173V44.6524H47.0098C47.1064 44.5 47.1934 44.3403 47.2697 44.1735L48.4723 41.5476C48.6375 41.1865 48.8621 40.8773 49.1398 40.6283C50.4775 39.4284 51.5806 38.0209 52.4181 36.4764V39.6423C52.4181 40.1601 52.8379 40.5798 53.3556 40.5798C53.8734 40.5798 54.2931 40.1601 54.2931 39.6423V15.5821C57.6395 16.1944 60.1838 19.1317 60.1838 22.6524V61.1875C60.1838 61.7045 59.7631 62.125 59.2463 62.125H18.3438C17.8269 62.125 17.4062 61.7045 17.4062 61.1875V11.3422C17.4062 10.8244 16.9865 10.4047 16.4688 10.4047C15.951 10.4047 15.5312 10.8244 15.5312 11.3422V61.1875C15.5312 62.7383 16.7929 64 18.3438 64H59.2461C60.797 64 62.0586 62.7383 62.0586 61.1875V20.9994C62.0586 16.5754 60.3358 12.4161 57.2075 9.28813ZM31.4084 15.4649C30.254 16.0956 29.172 16.8795 28.1866 17.8075C26.9627 18.9603 25.9511 20.2724 25.1717 21.6986V15.4649H31.4084ZM25.1719 36.4767C26.0091 38.0204 27.1116 39.4272 28.4489 40.627C28.7275 40.877 28.9543 41.1904 29.1229 41.5584L30.3202 44.1734C30.3966 44.3401 30.4836 44.5 30.5802 44.6522H25.1719V36.4767ZM38.7949 36.2617L34.8456 30.9961H42.7441L38.7949 36.2617ZM42.711 46.5274V49.5391C42.711 50.0561 42.2905 50.4766 41.7735 50.4766H35.8165C35.2995 50.4766 34.879 50.0561 34.879 49.5391V46.5274H42.711ZM25.1719 46.5274H33.0039V49.5391C33.0039 49.8676 33.0605 50.1833 33.1645 50.4766H25.1717V46.5274H25.1719ZM40.7695 52.3848C40.7695 53.4735 39.8838 54.3594 38.7949 54.3594C37.706 54.3594 36.8203 53.4735 36.8203 52.3848V52.3515H40.7695V52.3848ZM52.418 50.4765H44.4253C44.5293 50.1831 44.5859 49.8675 44.5859 49.539V46.5272H52.4179V50.4765H52.418ZM47.8876 39.2324C47.4173 39.6543 47.0404 40.1705 46.7673 40.7669L45.5649 43.3926C45.2144 44.1579 44.4443 44.6522 43.6026 44.6522H39.7324V38.1366L45.0879 30.996H46.5605C47.0783 30.996 47.498 30.5764 47.498 30.0585C47.498 29.5406 47.0783 29.121 46.5605 29.121C44.4501 29.121 32.7206 29.121 31.0292 29.121C30.5115 29.121 30.0917 29.5406 30.0917 30.0585C30.0917 30.5764 30.5115 30.996 31.0292 30.996H32.5019L37.8574 38.1366V44.6522H33.9871C33.1456 44.6522 32.3754 44.1579 32.0249 43.3927L30.8275 40.7777C30.5512 40.1744 30.1721 39.6541 29.7009 39.2314C26.7549 36.5881 25.1049 32.8021 25.174 28.844C25.2384 25.1572 26.7649 21.7222 29.4722 19.1723C32.1698 16.6314 35.6926 15.3199 39.3849 15.4771C46.5764 15.782 52.3004 21.662 52.4161 28.8633C52.4796 32.8149 50.829 36.5941 47.8876 39.2324ZM46.1891 15.4649H52.418V21.6979C50.9885 19.0692 48.8203 16.8971 46.1891 15.4649ZM53.4046 13.599C53.4029 13.5989 53.401 13.5989 53.3993 13.5988C53.2656 13.5929 53.1312 13.5899 52.9963 13.5899H49.4062C48.8893 13.5899 48.4688 13.1694 48.4688 12.6524V9.0625C48.4688 6.56363 47.4524 4.298 45.811 2.657C47.909 3.37188 49.8315 4.56363 51.4449 6.17688L55.8817 10.6139C57.495 12.227 58.6869 14.1496 59.4017 16.2476C57.8506 14.6962 55.7412 13.7031 53.4046 13.599Z" fill="#C41230"/>
<path d="M11.2852 16.4362L8.43878 10.7434C8.11916 10.1042 7.47653 9.70703 6.76178 9.70703C6.04703 9.70703 5.40441 10.1042 5.08478 10.7434L2.23841 16.4362C2.04316 16.8267 1.94153 17.2583 1.94153 17.6939V43.3158C1.94153 43.8337 2.36128 44.2533 2.87903 44.2533C3.39678 44.2533 3.81653 43.8337 3.81653 43.3158V18.8354C4.46366 19.0677 5.13816 19.2229 5.82428 19.2972V48.5353H3.81641V47.6909C3.81641 47.173 3.39666 46.7534 2.87891 46.7534C2.36116 46.7534 1.94141 47.173 1.94141 47.6909V53.422C1.94141 54.9728 3.20303 56.2345 4.75391 56.2345H8.76953C10.3204 56.2345 11.582 54.9728 11.582 53.422V17.694C11.582 17.2579 11.4804 16.8269 11.2852 16.4362ZM4.08828 16.929L4.98866 15.1283C6.12191 15.577 7.40016 15.5775 8.53491 15.1283L9.43528 16.929C7.73053 17.6535 5.79466 17.6542 4.08828 16.929ZM6.76178 11.582L7.69103 13.4404C7.09703 13.6377 6.42666 13.6377 5.83266 13.4404L6.76178 11.582ZM7.69928 19.2972C8.38553 19.2229 9.05991 19.0677 9.70703 18.8354V48.5353H7.69928V19.2972ZM9.70703 53.4219C9.70703 53.9389 9.28653 54.3594 8.76953 54.3594H4.75391C4.23691 54.3594 3.81641 53.9389 3.81641 53.4219V50.4102H9.70703V53.4219Z" fill="#C41230"/>
</svg>
