<svg width="64" height="64" viewBox="0 0 64 64" fill="none" xmlns="http://www.w3.org/2000/svg">
<g clip-path="url(#clip0_2963_1372)">
<path d="M63.0625 35.5716H60.994V33.5031C60.994 32.915 61.4725 32.4366 62.0605 32.4366H63.0625C63.5802 32.4366 64 32.0169 64 31.4991C64 30.9814 63.5802 30.5616 63.0625 30.5616H62.0605C60.4385 30.5616 59.119 31.8813 59.119 33.5031V35.5716H57.0505C57.0289 35.5716 57.0075 35.5729 56.986 35.5733V33.503C56.986 31.881 55.6664 30.5615 54.0445 30.5615H49.0344C47.4124 30.5615 46.0928 31.881 46.0928 33.503V35.5715H43.9598V33.503C43.9598 31.881 42.6401 30.5615 41.0182 30.5615H36.0081C34.3861 30.5615 33.0666 31.881 33.0666 33.503V35.5715H30.9336V33.503C30.9336 31.881 29.614 30.5615 27.9921 30.5615H22.982C21.36 30.5615 20.0405 31.881 20.0405 33.503V35.5715H17.9075V33.503C17.9075 31.881 16.5879 30.5615 14.9659 30.5615H9.95562C8.33362 30.5615 7.01412 31.881 7.01412 33.503V35.5733C6.99262 35.5728 6.97125 35.5716 6.94963 35.5716H4.881V33.5031C4.881 31.8811 3.56138 30.5616 1.9395 30.5616H0.9375C0.41975 30.5616 0 30.9814 0 31.4991C0 32.0169 0.41975 32.4366 0.9375 32.4366H1.9395C2.52763 32.4366 3.006 32.9151 3.006 33.5031V35.5716H0.9375C0.41975 35.5716 0 35.9914 0 36.5091C0 37.0269 0.41975 37.4466 0.9375 37.4466H6.94963C7.53775 37.4466 8.01612 37.9251 8.01612 38.5131V41.5838H5.94763C4.32563 41.5838 3.00612 42.9033 3.00612 44.5253V55.5474C3.00612 57.1694 4.32575 58.4889 5.94763 58.4889H12.9618C14.5837 58.4889 15.9032 57.1693 15.9032 55.5474V54.4809H18.0364V55.5474C18.0364 57.1694 19.356 58.4889 20.9779 58.4889H27.992C29.614 58.4889 30.9335 57.1693 30.9335 55.5474V54.4809H33.0665V55.5474C33.0665 57.1694 34.3861 58.4889 36.008 58.4889H43.0221C44.6441 58.4889 45.9636 57.1693 45.9636 55.5474V54.4809H48.0967V55.5474C48.0967 57.1694 49.4164 58.4889 51.0382 58.4889H58.0524C59.6744 58.4889 60.9939 57.1693 60.9939 55.5474V44.5253C60.9939 42.9033 59.6743 41.5838 58.0524 41.5838H55.9839V38.5131C55.9839 37.925 56.4624 37.4466 57.0504 37.4466H63.0625C63.5802 37.4466 64 37.0269 64 36.5091C64 35.9914 63.5802 35.5716 63.0625 35.5716ZM34.9415 33.503C34.9415 32.9149 35.42 32.4365 36.008 32.4365H41.0181C41.6062 32.4365 42.0846 32.915 42.0846 33.503V35.7256C40.9211 36.118 40.0806 37.2189 40.0806 38.5131V41.5838H37.9476V38.5131C37.9476 36.8911 36.628 35.5716 35.0061 35.5716H34.9416V33.503H34.9415ZM22.9819 32.4365H27.992C28.5801 32.4365 29.0585 32.915 29.0585 33.503V35.5715H28.994C27.372 35.5715 26.0525 36.891 26.0525 38.513V41.5836H23.9195V38.513C23.9195 37.2188 23.079 36.118 21.9155 35.7255V33.5029C21.9154 32.915 22.3937 32.4365 22.9819 32.4365ZM29.0585 52.6059H19.9114V44.5253C19.9114 43.9371 20.3899 43.4588 20.9779 43.4588H27.992C28.5801 43.4588 29.0585 43.9373 29.0585 44.5253V52.6059ZM5.94763 43.4588H12.9618C13.5499 43.4588 14.0282 43.9373 14.0282 44.5253V52.6059H4.881V44.5253C4.881 43.9371 5.3595 43.4588 5.94763 43.4588ZM14.0282 55.5474C14.0282 56.1355 13.5498 56.6139 12.9618 56.6139H5.94763C5.3595 56.6139 4.88112 56.1354 4.88112 55.5474V54.4809H14.0282V55.5474ZM15.9032 52.6059V44.5253C15.9032 42.9033 14.5836 41.5838 12.9618 41.5838H9.89112V38.5131C9.89112 37.6338 9.50275 36.8439 8.88912 36.3044V33.5031C8.88912 32.915 9.36762 32.4366 9.95562 32.4366H14.9657C15.5539 32.4366 16.0324 32.9151 16.0324 33.5031V35.5716H14.9657C13.3438 35.5716 12.0243 36.8911 12.0243 38.5131C12.0243 39.0309 12.444 39.4506 12.9618 39.4506C13.4795 39.4506 13.8993 39.0309 13.8993 38.5131C13.8993 37.925 14.3777 37.4466 14.9657 37.4466H20.9779C21.566 37.4466 22.0444 37.9251 22.0444 38.5131V41.5838H20.9779C19.3559 41.5838 18.0364 42.9033 18.0364 44.5253V52.6059H15.9032ZM29.0585 55.5474C29.0585 56.1355 28.58 56.6139 27.992 56.6139H20.9779C20.3897 56.6139 19.9114 56.1354 19.9114 55.5474V54.4809H29.0585V55.5474ZM30.9335 52.6059V44.5253C30.9335 42.9033 29.6139 41.5838 27.992 41.5838H27.9275V38.5131C27.9275 37.925 28.406 37.4466 28.994 37.4466H35.0061C35.5942 37.4466 36.0726 37.9251 36.0726 38.5131V41.5838H36.0081C34.3861 41.5838 33.0666 42.9033 33.0666 44.5253V52.6059H30.9335ZM44.0886 55.5474C44.0886 56.1355 43.6101 56.6139 43.0221 56.6139H36.008C35.4199 56.6139 34.9415 56.1354 34.9415 55.5474V54.4809H44.0886V55.5474ZM45.9636 52.6059V51.5389C45.9636 51.0211 45.5439 50.6014 45.0261 50.6014C44.5084 50.6014 44.0886 51.0211 44.0886 51.5389V52.6059H34.9415V44.5253C34.9415 43.9371 35.42 43.4588 36.008 43.4588H43.0221C43.6102 43.4588 44.0886 43.9373 44.0886 44.5253V47.5315C44.0886 48.0493 44.5084 48.469 45.0261 48.469C45.5439 48.469 45.9636 48.0493 45.9636 47.5315V44.5253C45.9636 42.9033 44.644 41.5838 43.0221 41.5838H41.9556V38.5131C41.9556 37.925 42.4341 37.4466 43.0221 37.4466H49.0342C49.6224 37.4466 50.1007 37.9251 50.1007 38.5131V41.7378C48.9372 42.1301 48.0967 43.231 48.0967 44.5253V52.6059H45.9636ZM58.0524 56.6139H51.0382C50.4501 56.6139 49.9717 56.1354 49.9717 55.5474V54.4809H59.1189V55.5474C59.119 56.1355 58.6405 56.6139 58.0524 56.6139ZM59.119 44.5253V52.6059H49.9719V44.5253C49.9719 43.9371 50.4504 43.4588 51.0384 43.4588H58.0525C58.6405 43.4588 59.119 43.9371 59.119 44.5253ZM51.9759 41.5838V38.5131C51.9759 36.8911 50.6562 35.5716 49.0344 35.5716H47.9678V33.5031C47.9678 32.915 48.4463 32.4366 49.0344 32.4366H54.0445C54.6326 32.4366 55.111 32.9151 55.111 33.5031V36.3044C54.4974 36.8439 54.109 37.6338 54.109 38.5131V41.5838H51.9759Z" fill="#C41230"/>
<path d="M9.95605 28.4286C10.4738 28.4286 10.8936 28.0089 10.8936 27.4911V23.9517L12.9234 22.4294C14.1622 21.5004 14.9017 20.0214 14.9017 18.4729V10.6819C16.1906 11.148 17.5653 11.3944 18.9743 11.3944C20.2191 11.3944 21.4408 11.2042 22.6137 10.8297C24.8363 13.644 28.2723 15.4025 32.0006 15.4025C35.7288 15.4025 39.1648 13.644 41.3874 10.8297C42.5602 11.2042 43.7821 11.3944 45.0268 11.3944C46.4358 11.3944 47.8106 11.148 49.0994 10.6819V18.473C49.0994 20.0214 49.8389 21.5005 51.0777 22.4295L53.1076 23.9519V27.4912C53.1076 28.009 53.5273 28.4287 54.0451 28.4287C54.5628 28.4287 54.9826 28.009 54.9826 27.4912V6.44873C54.9826 5.93098 54.5628 5.51123 54.0451 5.51123H9.95605C9.4383 5.51123 9.01855 5.93098 9.01855 6.44873V27.4911C9.01855 28.0089 9.4383 28.4286 9.95605 28.4286ZM13.0266 18.4729C13.0266 19.4342 12.5674 20.3525 11.7983 20.9294L10.8934 21.608V8.2526C11.5488 8.85423 12.2646 9.37673 13.0264 9.81386V18.4729H13.0266ZM18.9743 9.51923C16.6978 9.51923 14.5261 8.75898 12.7701 7.38611H20.7203C20.9406 8.01586 21.2111 8.61911 21.5268 9.19236C20.6978 9.40873 19.8429 9.51923 18.9743 9.51923ZM32.0004 13.5274C27.9414 13.5274 24.2908 11.0567 22.7274 7.38623H25.1044C26.5113 9.83911 29.1556 11.3942 32.0004 11.3942C34.8453 11.3942 37.4896 9.83911 38.8964 7.38611H41.2734C39.7101 11.0567 36.0594 13.5274 32.0004 13.5274ZM27.3902 7.38623H36.6107C35.4707 8.71473 33.7874 9.51936 32.0004 9.51936C30.2134 9.51936 28.5302 8.71473 27.3902 7.38623ZM42.4742 9.19248C42.7899 8.61923 43.0604 8.01598 43.2807 7.38623H51.2309C49.4749 8.75911 47.3031 9.51936 45.0267 9.51936C44.1579 9.51923 43.3031 9.40873 42.4742 9.19248ZM52.2024 20.9294C51.4333 20.3526 50.9742 19.4342 50.9742 18.4729V9.81386C51.7361 9.37673 52.4518 8.85423 53.1072 8.2526V21.608L52.2024 20.9294Z" fill="#C41230"/>
</g>
<defs>
<clipPath id="clip0_2963_1372">
<rect width="64" height="64" fill="white"/>
</clipPath>
</defs>
</svg>
