<svg width="64" height="64" viewBox="0 0 64 64" fill="none" xmlns="http://www.w3.org/2000/svg">
<g clip-path="url(#clip0_2902_1610)">
<path d="M30.6925 63.9034C31.7402 64.3398 32.7958 63.1972 32.2866 62.1876C32.0469 61.7124 31.5138 61.4353 30.9869 61.5137C30.4573 61.5926 30.0329 62.0102 29.9394 62.5359C29.8386 63.1036 30.1586 63.6846 30.6925 63.9034Z" fill="#C41230"/>
<path d="M41.7702 0.299301C39.7236 -0.577073 37.2933 0.547336 36.65 2.67839C36.0927 4.5249 37.0101 6.4888 38.7839 7.24703C40.3436 7.9135 41.8056 8.77749 43.1353 9.80926L41.1563 12.1062C38.7507 10.3041 35.8669 9.16442 32.77 8.87001C32.7696 8.87001 32.7691 8.87001 32.7687 8.86988H32.7686H32.7685C32.2401 8.81912 31.7026 8.79337 31.1707 8.79337C21.9833 8.79337 14.5089 16.2678 14.5089 25.4552C14.5089 29.8761 16.3143 34.1849 19.4527 37.296L17.5714 39.4796C15.5984 37.5922 14.0267 35.3055 12.9752 32.7655C12.2378 30.9842 10.2842 30.0466 8.4314 30.5827C6.2966 31.2174 5.13669 33.6087 5.99644 35.6788C7.84257 40.1235 10.8345 44.0103 14.6489 46.919C18.3292 49.7253 22.5693 51.5111 27.0779 52.1778V56.1848H20.3215C18.2298 56.1848 16.528 57.8865 16.528 59.9783V62.7497C16.528 63.4401 17.0877 63.9999 17.7782 63.9999H25.5877C26.2782 63.9999 26.8379 63.4401 26.8379 62.7497C26.8379 62.0594 26.2782 61.4995 25.5877 61.4995H19.0284V59.9784C19.0284 59.2655 19.6085 58.6853 20.3215 58.6853H42.0194C42.7324 58.6853 43.3124 59.2655 43.3124 59.9784V61.4997H36.7171C36.0267 61.4997 35.467 62.0595 35.467 62.7498C35.467 63.4402 36.0267 64 36.7171 64H44.5626C45.2531 64 45.8128 63.4402 45.8128 62.7498V59.9784C45.8128 57.8868 44.111 56.1849 42.0194 56.1849H35.2623V52.1533C48.0911 50.1652 58.0669 39.1244 58.285 25.7589C58.3849 19.6345 56.4963 13.8228 52.8233 8.95202C49.9684 5.16636 46.1465 2.17431 41.7702 0.299301ZM46.7848 13.5055C49.3919 16.9628 50.7545 21.0883 50.7254 25.4362C50.6902 30.6558 48.6358 35.5513 44.9404 39.2206C41.2451 42.8899 36.3351 44.9104 31.1146 44.9104C26.883 44.9104 22.8686 43.5905 19.4836 41.0909L21.3543 38.9196C24.1917 40.9924 27.6576 42.1172 31.1707 42.1172C40.3581 42.1172 47.8326 34.6428 47.8326 25.4555C47.8326 22.7776 47.1821 20.1162 45.9518 17.7593C45.1711 16.2624 44.1851 14.9182 43.0386 13.7522L45.0096 11.4647C45.6458 12.1025 46.2402 12.7833 46.7848 13.5055ZM19.6929 33.7461C18.3584 31.8997 17.4828 29.7369 17.1574 27.4825H19.7062C19.9471 27.4825 20.1736 27.5763 20.3438 27.7465L22.7575 30.1602C22.9278 30.3305 23.0216 30.5569 23.0216 30.7978V31.9704C23.0216 32.8791 23.3755 33.7335 24.0181 34.3761C24.1859 34.544 24.2821 34.7763 24.2821 35.0137V37.8296C22.4773 36.8242 20.9023 35.4212 19.6929 33.7461ZM34.3162 24.68L31.1669 21.5314C30.8193 21.1839 30.8192 20.6037 31.1669 20.2561L32.904 18.5189C33.5466 17.8764 33.9005 17.022 33.9005 16.1133V11.557C37.7928 12.3124 41.2394 14.7327 43.2894 18.1233L41.2081 20.2047C40.5654 20.8472 40.2116 21.7016 40.2116 22.6103V26.0282C40.2116 26.2691 40.1179 26.4954 39.9475 26.6658L37.4682 29.1452C37.1344 29.4789 36.6446 29.4093 36.2148 29.4093C35.7176 29.4093 35.3131 29.0048 35.3131 28.5075V27.0858C35.3129 26.1772 34.959 25.3227 34.3162 24.68ZM31.1707 11.2938C31.247 11.2938 31.3236 11.2953 31.4 11.2966V16.1134C31.4 16.3543 31.3062 16.5806 31.1358 16.751L29.3986 18.4882C28.0878 19.7992 28.0878 21.9891 29.3989 23.2999L32.548 26.4484C32.7184 26.6188 32.8123 26.8453 32.8123 27.0862V28.5079C32.8123 30.3838 34.3385 31.91 36.2144 31.91C37.3505 31.91 38.3897 31.7595 39.2357 30.9136L41.715 28.4341C42.3576 27.7917 42.7115 26.9373 42.7115 26.0285V22.6107C42.7115 22.3734 42.8077 22.141 42.9756 21.9731L44.4441 20.5046C45.0336 22.0777 45.332 23.7363 45.332 25.4555C45.332 33.2641 38.9792 39.6168 31.1705 39.6168C29.6655 39.6168 28.1933 39.3832 26.7822 38.9231V35.0138C26.7822 34.1051 26.4283 33.2507 25.7858 32.6083C25.6154 32.4379 25.5217 32.2114 25.5217 31.9705V30.798C25.5217 29.8891 25.1678 29.0347 24.5253 28.3924L22.1118 25.9787C21.4692 25.3361 20.615 24.9823 19.7062 24.9823H17.018C17.2685 17.3918 23.5205 11.2938 31.1707 11.2938ZM32.762 52.4229V56.1849H29.5784V52.4316C30.638 52.4904 31.7026 52.4874 32.762 52.4229ZM55.7849 25.7181C55.5798 38.2891 45.8625 48.5908 33.6134 49.8433C31.9681 50.0112 30.3076 50.0138 28.6616 49.8526C24.1165 49.4082 19.834 47.7285 16.165 44.9308C12.7005 42.2891 9.98275 38.7581 8.30551 34.7198C8.01197 34.0133 8.40378 33.1962 9.1345 32.9824C9.75959 32.8051 10.4166 33.1222 10.665 33.7221C12.1581 37.3285 14.6141 40.5263 17.7186 42.8934C21.5941 45.8487 26.2264 47.4108 31.1145 47.4108H31.1146C36.9993 47.4108 42.5355 45.132 46.702 40.995C50.8693 36.8571 53.186 31.3377 53.2256 25.4532C53.2585 20.5516 51.7216 15.8997 48.7811 12.0004C46.4519 8.91151 43.3347 6.47292 39.7666 4.9482C39.1657 4.69142 38.8549 4.02632 39.0436 3.40124C39.2625 2.67613 40.0901 2.30058 40.7856 2.59787C44.7618 4.30149 48.234 7.01937 50.8267 10.4576C54.1612 14.8791 55.8757 20.1561 55.7849 25.7181Z" fill="#C41230"/>
</g>
<defs>
<clipPath id="clip0_2902_1610">
<rect width="64" height="64" fill="white"/>
</clipPath>
</defs>
</svg>
