<svg width="64" height="64" viewBox="0 0 64 64" fill="none" xmlns="http://www.w3.org/2000/svg">
<g clip-path="url(#clip0_2891_1525)">
<path d="M13.9047 29.4868C14.4237 29.4868 14.8445 29.0661 14.8445 28.547V27.3695C14.8445 26.8504 14.4237 26.4297 13.9047 26.4297C13.3856 26.4297 12.9648 26.8504 12.9648 27.3695V28.547C12.9648 29.066 13.3856 29.4868 13.9047 29.4868Z" fill="#C41230"/>
<path d="M23.9398 29.4868C24.4589 29.4868 24.8797 29.0661 24.8797 28.547V27.3695C24.8797 26.8504 24.4589 26.4297 23.9398 26.4297C23.4208 26.4297 23 26.8504 23 27.3695V28.547C23 29.066 23.4207 29.4868 23.9398 29.4868Z" fill="#C41230"/>
<path d="M25.1845 33.2592C25.1845 32.74 24.7637 32.3193 24.2447 32.3193H13.89C13.371 32.3193 12.9502 32.74 12.9502 33.2592C12.9502 36.6322 15.6944 39.3764 19.0674 39.3764C22.4405 39.3764 25.1845 36.6322 25.1845 33.2592ZM14.9349 34.199H23.1998C22.7713 36.085 21.0811 37.4967 19.0674 37.4967C17.0538 37.4967 15.3636 36.085 14.9349 34.199Z" fill="#C41230"/>
<path d="M35.7783 59.4435C35.2593 59.4435 34.8385 59.8642 34.8385 60.3834V61.2906C34.8385 61.748 34.4658 62.1202 34.0076 62.1202H3.23101C2.77287 62.1202 2.40019 61.748 2.40019 61.2906V58.7543C2.40019 58.2351 1.97939 57.8145 1.46035 57.8145C0.941306 57.8145 0.520508 58.2351 0.520508 58.7543V61.2906C0.520508 62.7845 1.73641 63.9999 3.23101 63.9999H34.0076C35.5022 63.9999 36.7181 62.7845 36.7181 61.2906V60.3834C36.7181 59.8643 36.2973 59.4435 35.7783 59.4435Z" fill="#C41230"/>
<path d="M56.1965 30.7123L41.5637 28.6846C41.4669 28.6712 41.3904 28.5986 41.3729 28.5029L38.6923 13.9531C38.6151 13.537 38.3681 13.1648 38.0145 12.9321C37.6628 12.7008 37.2264 12.6211 36.818 12.7142C35.3389 13.0484 33.9221 13.5741 32.5896 14.2817C31.947 11.2787 29.3244 8.84606 25.8999 7.91386C25.9864 7.35835 26.0043 6.79294 25.9529 6.22365C25.6528 2.89925 22.9135 0.229974 19.5811 0.0146875C17.6633 -0.108244 15.8379 0.54363 14.4414 1.85276C13.0641 3.14398 12.2742 4.96664 12.2742 6.85359C12.2742 7.18705 12.2983 7.51862 12.3458 7.84606C8.60823 8.85583 5.80901 11.6517 5.51039 15.0518L4.9139 21.8449C4.82731 22.8309 5.49447 23.7127 6.46564 23.8962C6.6303 23.9272 6.80787 23.9593 6.99609 23.9916L6.98707 34.7568C6.98707 38.3009 9.21198 41.3336 12.3378 42.5368V46.2281H9.63316C7.35624 46.2281 5.17631 47.068 3.49512 48.5929C1.82383 50.1088 0.783242 52.1719 0.565074 54.4021C0.514573 54.9188 0.892389 55.3786 1.40893 55.4291C1.44013 55.4319 1.47095 55.4336 1.50153 55.4336C1.97935 55.4336 2.38836 55.0707 2.43586 54.5851C2.79713 50.8923 5.89134 48.1077 9.63328 48.1077H12.338V48.1363C12.338 51.0661 15.1558 53.4496 18.6193 53.4496C22.0828 53.4496 24.9006 51.0661 24.9006 48.1363V48.0587L27.5885 48.1076C27.5941 48.1077 27.5999 48.1077 27.6055 48.1077C31.5938 48.1077 34.8386 51.3305 34.8386 55.2918V56.1227C34.8386 56.6418 35.2593 57.0625 35.7784 57.0625C36.2974 57.0625 36.7182 56.6418 36.7182 56.1227V55.2918C36.7182 50.2972 32.6349 46.233 27.6143 46.228L24.9004 46.1786V42.8269C26.0748 42.523 27.149 41.968 28.0636 41.2242C31.3249 44.7218 35.8409 46.7092 40.6003 46.7092C44.6169 46.7092 48.5355 45.275 51.6345 42.6708C54.7246 40.0739 56.8144 36.4721 57.5192 32.5279C57.5927 32.1134 57.4927 31.6802 57.2446 31.3396C56.996 30.9981 56.6134 30.7694 56.1965 30.7123ZM14.1539 6.85359C14.1539 5.46401 14.7126 4.17505 15.727 3.22405C16.7404 2.27406 18.0657 1.80063 19.4599 1.89036C21.8766 2.0465 23.8631 3.98194 24.0808 6.39257C24.1166 6.78893 24.1054 7.18229 24.0497 7.569C23.6742 7.5299 23.2933 7.50597 22.9067 7.50271C22.9067 7.50271 15.4572 7.43993 15.4227 7.43993C15.0083 7.43993 14.6002 7.46336 14.1983 7.50459C14.1702 7.28955 14.1539 7.07239 14.1539 6.85359ZM6.78644 22.0095L7.38293 15.2163C7.63155 12.3852 10.2338 10.0924 13.6127 9.48076C13.624 9.47888 13.6351 9.4775 13.6464 9.47525C14.2463 9.36873 14.8699 9.31422 15.5097 9.32011L22.8908 9.38252C27.1335 9.41835 30.6309 12.0537 30.853 15.3822L31.471 24.6454C31.4896 24.9241 31.3213 25.1777 31.0616 25.2624C31.0616 25.2624 31.0616 25.2624 31.0615 25.2624C27.3968 26.4584 24.6086 22.7353 23.2727 20.4094C22.9726 19.8867 22.4577 19.5436 21.86 19.4678C21.7785 19.4575 21.6974 19.4523 21.6169 19.4523C21.1122 19.4523 20.6332 19.6525 20.2748 20.0194C16.7768 23.6016 9.08792 22.4786 6.81489 22.0493C6.79722 22.0459 6.78481 22.0284 6.78644 22.0095ZM8.86687 34.7576L8.87564 24.2582C12.6726 24.685 18.3857 24.6443 21.618 21.3325C21.6182 21.3325 21.6335 21.3295 21.6429 21.3456C23.7923 25.0878 26.4819 27.1744 29.2687 27.3562V34.757C29.2687 38.3163 26.373 41.2122 22.8135 41.2122H15.3233C11.7632 41.212 8.86687 38.3163 8.86687 34.7576ZM23.0206 48.1364C23.0206 50.0297 21.0461 51.5701 18.619 51.5701C16.192 51.5701 14.2174 50.0297 14.2174 48.1364V43.0161C14.5796 43.0644 22.9514 43.0882 23.0206 43.0864V48.1364ZM40.6003 44.8297C36.3373 44.8297 32.2917 43.0348 29.381 39.8797C30.4868 38.4652 31.1484 36.6874 31.1484 34.7568V27.1906C31.3139 27.1503 31.4794 27.1033 31.6447 27.0493C32.7228 26.6976 33.4226 25.6577 33.3467 24.5202L32.7997 16.3218C34.0805 15.5563 35.4571 14.9862 36.9049 14.6253L39.5242 28.8421C39.6876 29.7366 40.4037 30.4215 41.3059 30.5465L55.6061 32.528C54.1693 39.6765 47.9116 44.8297 40.6003 44.8297Z" fill="#C41230"/>
<path d="M58.4237 9.91492C55.163 6.64967 50.855 4.85156 46.2933 4.85156C45.5658 4.85156 44.8311 4.89843 44.1095 4.99091C43.6923 5.04454 43.3092 5.26935 43.0582 5.6077C42.8063 5.94717 42.7022 6.38075 42.7724 6.79728L45.1449 20.8991C45.3424 22.0729 46.2607 23.0109 47.4301 23.2327L61.458 25.8956C61.5537 25.9139 61.6504 25.9228 61.7469 25.9228C62.0694 25.9228 62.3889 25.8229 62.6543 25.6343C62.9978 25.3902 63.2302 25.0116 63.2921 24.5957C63.4165 23.7588 63.4797 22.9058 63.4797 22.0603C63.4796 17.493 61.6841 13.1798 58.4237 9.91492ZM61.4786 23.9863L47.7806 21.3861C47.3804 21.3102 47.0661 20.9891 46.9985 20.5874L44.6818 6.81646C45.2166 6.75994 45.7572 6.73124 46.2933 6.73124C54.7334 6.73124 61.5999 13.6079 61.5999 22.0603C61.5999 22.7018 61.5592 23.3481 61.4786 23.9863Z" fill="#C41230"/>
</g>
<defs>
<clipPath id="clip0_2891_1525">
<rect width="64" height="64" fill="white"/>
</clipPath>
</defs>
</svg>
