<svg width="64" height="64" viewBox="0 0 64 64" fill="none" xmlns="http://www.w3.org/2000/svg">
<path d="M1.25 54.9974H43.1065C43.8254 54.9974 44.4064 54.3667 44.3529 53.6512C44.3079 52.9696 43.7223 52.4473 43.039 52.4856C42.999 52.4877 42.9595 52.4917 42.9206 52.4974H33.1444V51.6021C35.2188 50.3578 37.6641 49.7822 40.0719 49.7822H57.3862C58.0766 49.7822 58.6362 49.2226 58.6362 48.5322V14.3834H61.5V52.4974H54.2916C53.5094 52.3804 52.8141 53.0314 52.8575 53.8149C52.8934 54.4782 53.4415 54.9974 54.1056 54.9974H62.75C63.4404 54.9974 64 54.4378 64 53.7474V13.1333C64 12.4429 63.4404 11.8833 62.75 11.8833H58.6361V10.2524C58.6361 9.56207 58.0765 9.00244 57.3861 9.00244H40.0718C37.1048 9.00244 34.2356 9.76457 31.8943 11.1574C29.5529 9.76469 26.6839 9.00244 23.7169 9.00244H6.6525C5.96213 9.00244 5.4025 9.56207 5.4025 10.2524V11.8833H1.25C0.559625 11.8833 0 12.4429 0 13.1333V53.7474C0 54.4378 0.559625 54.9974 1.25 54.9974ZM56.1361 11.5024L56.1359 47.2821H40.0724C37.6965 47.2821 35.301 47.7671 33.1442 48.7736V13.3192C35.1054 12.1441 37.5387 11.5024 40.0718 11.5024H56.1361ZM23.7169 11.5024C26.2499 11.5024 28.6831 12.1439 30.6443 13.3192V48.7736C28.4876 47.7673 26.0924 47.2821 23.7169 47.2821H7.9025V11.5024H23.7169ZM2.5 14.3833H5.40188V48.5319C5.40188 49.1361 5.83038 49.6401 6.40013 49.7566C6.48163 49.7733 6.566 49.7821 6.65238 49.7821H23.7167C26.1225 49.7821 28.5713 50.3592 30.6441 51.6017V52.4973H2.5V14.3833Z" fill="#C41230"/>
<path d="M12.793 36.6387H25.7752C26.4656 36.6387 27.0252 36.079 27.0252 35.3887C27.0252 34.6983 26.4656 34.1387 25.7752 34.1387H12.793C12.1026 34.1387 11.543 34.6983 11.543 35.3887C11.543 36.079 12.1026 36.6387 12.793 36.6387Z" fill="#C41230"/>
<path d="M12.668 42.6069H25.6502C26.3406 42.6069 26.9002 42.0473 26.9002 41.3569C26.9002 40.6666 26.3406 40.1069 25.6502 40.1069H12.668C11.9776 40.1069 11.418 40.6666 11.418 41.3569C11.418 42.0473 11.9776 42.6069 12.668 42.6069Z" fill="#C41230"/>
<path d="M12.87 24.1802H15.769L17.555 27.2737C17.7782 27.6605 18.1909 27.8987 18.6375 27.8987H22.2344L23.7415 30.3375C24.0995 30.9167 24.8821 31.102 25.462 30.7437C26.0492 30.3807 26.2311 29.6105 25.8681 29.0232L24.3872 26.627L26.1607 23.5552C26.3841 23.1685 26.3841 22.692 26.1607 22.3052L24.3677 19.1997L25.7892 16.6398C26.1244 16.0363 25.9067 15.2753 25.3032 14.9402C24.6995 14.6048 23.9386 14.8227 23.6036 15.4262L22.1957 17.9617H18.6376C18.191 17.9617 17.7784 18.2 17.5551 18.5867L15.7691 21.6802H12.8701C12.1797 21.6802 11.6201 22.2398 11.6201 22.9302C11.6201 23.6206 12.1796 24.1802 12.87 24.1802ZM19.3592 20.4617H22.2096L23.6349 22.9302L22.2096 25.3987H19.3592L17.9341 22.9302L19.3592 20.4617Z" fill="#C41230"/>
<path d="M38.8223 18.8721H50.6038C51.2941 18.8721 51.8538 18.3124 51.8538 17.6221C51.8538 16.9317 51.2941 16.3721 50.6038 16.3721H38.8223C38.1319 16.3721 37.5723 16.9317 37.5723 17.6221C37.5723 18.3124 38.1319 18.8721 38.8223 18.8721Z" fill="#C41230"/>
<path d="M38.8223 25.2173H50.6038C51.2941 25.2173 51.8538 24.6577 51.8538 23.9673C51.8538 23.2769 51.2941 22.7173 50.6038 22.7173H38.8223C38.1319 22.7173 37.5723 23.2769 37.5723 23.9673C37.5723 24.6577 38.1319 25.2173 38.8223 25.2173Z" fill="#C41230"/>
<path d="M38.8223 42.2319H50.6038C51.2941 42.2319 51.8538 41.6722 51.8538 40.9819V30.584C51.8538 29.8936 51.2941 29.334 50.6038 29.334H38.8223C38.1319 29.334 37.5723 29.8936 37.5723 30.584V40.9819C37.5723 41.6722 38.1319 42.2319 38.8223 42.2319ZM40.0723 31.8341H49.3538V39.732H40.0723V31.8341Z" fill="#C41230"/>
<path d="M47.5667 54.4411C48.2003 55.4092 49.7341 55.0022 49.8503 53.8697C49.9634 52.7669 48.6226 52.0846 47.7893 52.8015C47.3176 53.2071 47.2222 53.9241 47.5667 54.4411Z" fill="#C41230"/>
</svg>
