<svg width="64" height="64" viewBox="0 0 64 64" fill="none" xmlns="http://www.w3.org/2000/svg">
<g clip-path="url(#clip0_2906_1675)">
<path d="M61.3125 45.9402H61.2588V22.6307C62.4409 22.2504 63.2988 21.1407 63.2988 19.8339V16.8877C63.2988 15.2679 61.981 13.9502 60.3613 13.9502H59.5875V11.9864C59.5875 10.2288 58.1576 8.79891 56.4 8.79891H54.0025V7.28516C54.0025 5.80328 52.7969 4.59766 51.315 4.59766H49.19C47.7081 4.59766 46.5025 5.80328 46.5025 7.28516V8.79891H17.4975V7.28516C17.4975 5.80328 16.2919 4.59766 14.81 4.59766H12.685C11.2031 4.59766 9.9975 5.80328 9.9975 7.28516V8.79891H7.6C5.84237 8.79891 4.4125 10.2288 4.4125 11.9864V13.9502H3.63875C2.019 13.9502 0.70125 15.2679 0.70125 16.8877V19.8339C0.70125 21.1407 1.55925 22.2504 2.74125 22.6307V45.9402H2.6875C1.20563 45.9402 0 47.1458 0 48.6277V56.7152C0 58.197 1.20563 59.4027 2.6875 59.4027H54.2038C54.7215 59.4027 55.1413 58.9829 55.1413 58.4652C55.1413 57.9474 54.7215 57.5277 54.2038 57.5277H2.6875C2.2395 57.5277 1.875 57.1632 1.875 56.7152V48.6277C1.875 48.1797 2.2395 47.8152 2.6875 47.8152H7.995C8.02337 47.8152 8.04862 47.8342 8.05575 47.8598L9.23162 52.0708C9.46337 52.9058 10.2305 53.4889 11.0975 53.4889H52.9025C53.7695 53.4889 54.5366 52.9058 54.7679 52.0723L55.9437 47.8613C55.9514 47.834 55.9766 47.815 56.005 47.815H61.3125C61.7605 47.815 62.125 48.1795 62.125 48.6275V56.715C62.125 57.163 61.7605 57.5275 61.3125 57.5275H58.5788C58.061 57.5275 57.6413 57.9473 57.6413 58.465C57.6413 58.9828 58.061 59.4025 58.5788 59.4025H61.3125C62.7944 59.4025 64 58.1969 64 56.715V48.6275C64 47.1458 62.7944 45.9402 61.3125 45.9402ZM48.3775 7.28516C48.3775 6.83716 48.742 6.47266 49.19 6.47266H51.315C51.763 6.47266 52.1275 6.83716 52.1275 7.28516V8.79891H48.3775V7.28516ZM11.8725 7.28516C11.8725 6.83716 12.237 6.47266 12.685 6.47266H14.81C15.258 6.47266 15.6225 6.83716 15.6225 7.28516V8.79891H11.8725V7.28516ZM2.57625 16.8877C2.57625 16.3018 3.05288 15.8252 3.63875 15.8252H8.32375C8.8415 15.8252 9.26125 15.4054 9.26125 14.8877C9.26125 14.3699 8.8415 13.9502 8.32375 13.9502H6.2875V11.9864C6.2875 11.2627 6.87625 10.6739 7.6 10.6739H56.4C57.1238 10.6739 57.7125 11.2627 57.7125 11.9864V13.9502H12.6987C12.181 13.9502 11.7612 14.3699 11.7612 14.8877C11.7612 15.4054 12.181 15.8252 12.6987 15.8252H60.3613C60.9471 15.8252 61.4238 16.3018 61.4238 16.8877V19.8339C61.4238 20.4198 60.9471 20.8964 60.3613 20.8964H3.63875C3.05288 20.8964 2.57625 20.4198 2.57625 19.8339V16.8877ZM54.1382 47.3555L52.9615 51.5695C52.9542 51.5957 52.93 51.6139 52.9024 51.6139H11.0975C11.07 51.6139 11.0456 51.5957 11.038 51.568L9.86125 47.3539C9.62725 46.5215 8.85987 45.9402 7.995 45.9402H4.61625V22.7714H59.3838V45.9402H56.005C55.1401 45.9402 54.3727 46.5215 54.1382 47.3555Z" fill="#C41230"/>
<path d="M38.7396 34.9985H34.2811L34.7803 27.0453C34.8173 26.4535 34.4667 25.9231 33.9076 25.7256C33.3482 25.5282 32.7425 25.7205 32.3996 26.2042L24.1897 37.7871C23.9047 38.1892 23.8683 38.711 24.0946 39.1488C24.3208 39.5867 24.7676 39.8586 25.2605 39.8586H29.8227L28.1788 47.3137C28.0477 47.9087 28.3388 48.5102 28.8867 48.7767C29.0713 48.8665 29.2677 48.9097 29.462 48.9097C29.8443 48.9097 30.2178 48.7418 30.4743 48.4298L39.7535 37.1446C40.0792 36.7483 40.1455 36.2142 39.9263 35.7503C39.7072 35.2866 39.2525 34.9985 38.7396 34.9985ZM30.5145 45.4287L31.8045 39.5785C31.8905 39.188 31.7962 38.7853 31.5458 38.4738C31.2955 38.1623 30.9226 37.9836 30.5227 37.9836H26.3487L32.785 28.9028L32.3722 35.4787C32.3496 35.839 32.4783 36.1965 32.7255 36.4595C32.9726 36.7225 33.3213 36.8735 33.6822 36.8735H37.5488L30.5145 45.4287Z" fill="#C41230"/>
<path d="M14.7827 30.6362C11.1192 30.6362 8.13867 33.6167 8.13867 37.2802C8.13867 40.9437 11.1192 43.9242 14.7827 43.9242C18.4462 43.9242 21.4267 40.9437 21.4267 37.2802C21.4267 33.6167 18.4462 30.6362 14.7827 30.6362ZM14.7827 42.0492C12.153 42.0492 10.0137 39.9099 10.0137 37.2802C10.0137 34.6506 12.153 32.5112 14.7827 32.5112C17.4123 32.5112 19.5517 34.6506 19.5517 37.2802C19.5517 39.9099 17.4123 42.0492 14.7827 42.0492Z" fill="#C41230"/>
<path d="M16.231 36.3425H15.7205V35.832C15.7205 35.3143 15.3007 34.8945 14.783 34.8945C14.2652 34.8945 13.8455 35.3143 13.8455 35.832V36.3425H13.335C12.8172 36.3425 12.3975 36.7623 12.3975 37.28C12.3975 37.7978 12.8172 38.2175 13.335 38.2175H13.8455V38.728C13.8455 39.2458 14.2652 39.6655 14.783 39.6655C15.3007 39.6655 15.7205 39.2458 15.7205 38.728V38.2175H16.231C16.7487 38.2175 17.1685 37.7978 17.1685 37.28C17.1685 36.7623 16.7487 36.3425 16.231 36.3425Z" fill="#C41230"/>
<path d="M49.2172 30.6362C45.5537 30.6362 42.5732 33.6167 42.5732 37.2802C42.5732 40.9437 45.5537 43.9242 49.2172 43.9242C52.8807 43.9242 55.8612 40.9437 55.8612 37.2802C55.8612 33.6167 52.8807 30.6362 49.2172 30.6362ZM49.2172 42.0492C46.5876 42.0492 44.4482 39.9099 44.4482 37.2802C44.4482 34.6506 46.5876 32.5112 49.2172 32.5112C51.8469 32.5112 53.9862 34.6506 53.9862 37.2802C53.9862 39.9099 51.8469 42.0492 49.2172 42.0492Z" fill="#C41230"/>
<path d="M50.6655 36.3428H47.7695C47.2518 36.3428 46.832 36.7625 46.832 37.2803C46.832 37.798 47.2518 38.2178 47.7695 38.2178H50.6655C51.1833 38.2178 51.603 37.798 51.603 37.2803C51.603 36.7625 51.1833 36.3428 50.6655 36.3428Z" fill="#C41230"/>
</g>
<defs>
<clipPath id="clip0_2906_1675">
<rect width="64" height="64" fill="white"/>
</clipPath>
</defs>
</svg>
