<svg width="64" height="64" viewBox="0 0 64 64" fill="none" xmlns="http://www.w3.org/2000/svg">
<g clip-path="url(#clip0_3182_1439)">
<path d="M64 48.8184V10.0984C64 7.9905 62.285 6.2755 60.177 6.2755H55.1086C54.5112 2.719 51.4124 0 47.6888 0H16.3113C12.5876 0 9.48875 2.719 8.89137 6.2755H3.823C1.715 6.2755 0 7.9905 0 10.0984V48.8184C0 50.9071 1.684 52.6089 3.76537 52.6399V61.5H1.25C0.559625 61.5 0 62.0597 0 62.75C0 63.4403 0.559625 64 1.25 64H15.0561C15.7464 64 16.3061 63.4403 16.3061 62.75C16.3061 62.0597 15.7464 61.5 15.0561 61.5H12.5407V52.6414H51.4593V61.5H48.9439C48.2535 61.5 47.6939 62.0597 47.6939 62.75C47.6939 63.4403 48.2535 64 48.9439 64H62.75C63.4403 64 64 63.4403 64 62.75C64 62.0597 63.4403 61.5 62.75 61.5H60.2346V52.6399C62.316 52.6089 64 50.9071 64 48.8184ZM16.3113 2.5H47.6888C50.0285 2.5 51.9997 4.10712 52.5569 6.2755H11.4431C12.0002 4.10712 13.9715 2.5 16.3113 2.5ZM2.5 48.8184V10.0984C2.5 9.36888 3.0935 8.7755 3.823 8.7755H60.177C60.9065 8.7755 61.5 9.36888 61.5 10.0984V48.8184C61.5 49.5479 60.9065 50.1414 60.177 50.1414H3.823C3.0935 50.1414 2.5 49.5479 2.5 48.8184ZM10.0407 61.5H6.26538V52.6414H10.0407V61.5ZM53.9593 61.5V52.6414H57.7346V61.5H53.9593Z" fill="#C41230"/>
<path d="M14.4808 27.6018C15.1251 27.8505 15.8484 27.5298 16.0971 26.8856L16.9777 24.6036H22.933L23.8042 26.882C23.9946 27.38 24.4688 27.686 24.9721 27.686C25.8442 27.686 26.453 26.809 26.1395 25.9893L21.4076 13.6145C21.1855 13.0379 20.6255 12.6348 19.9733 12.6348C19.3146 12.6354 18.7547 13.0474 18.5403 13.6114L13.765 25.9855C13.5162 26.6296 13.8367 27.3533 14.4808 27.6018ZM19.969 16.8526L21.9769 22.1038H17.9426L19.969 16.8526Z" fill="#C41230"/>
<path d="M37.9073 26.9045C38.1178 27.3314 38.5524 27.6018 39.0284 27.6018H49.0691C49.7594 27.6018 50.3191 27.042 50.3191 26.3518C50.3191 25.6614 49.7594 25.1018 49.0691 25.1018H41.5639L49.6551 14.562C49.9449 14.1844 49.9953 13.6749 49.7848 13.248C49.5741 12.8212 49.1395 12.5508 48.6635 12.5508H39.2819C38.5916 12.5508 38.0319 13.1104 38.0319 13.8008C38.0319 14.491 38.5916 15.0508 39.2819 15.0508H46.128L38.0368 25.5905C37.747 25.9682 37.6966 26.4777 37.9073 26.9045Z" fill="#C41230"/>
<path d="M28.9873 21.3267H35.2627C35.9529 21.3267 36.5127 20.7669 36.5127 20.0767C36.5127 19.3863 35.9529 18.8267 35.2627 18.8267H28.9873C28.2971 18.8267 27.7373 19.3863 27.7373 20.0767C27.7373 20.767 28.2971 21.3267 28.9873 21.3267Z" fill="#C41230"/>
<path d="M7.52539 33.8774C8.21575 33.8774 8.77539 33.3178 8.77539 32.6274C8.77539 31.9371 8.21575 31.3774 7.52539 31.3774C6.83503 31.3774 6.27539 31.9371 6.27539 32.6274C6.27539 33.3178 6.83503 33.8774 7.52539 33.8774Z" fill="#C41230"/>
<path d="M13.8008 33.8774H56.4743C57.1645 33.8774 57.7243 33.3177 57.7243 32.6274C57.7243 31.9371 57.1645 31.3774 56.4743 31.3774H13.8008C13.1104 31.3774 12.5508 31.9372 12.5508 32.6274C12.5508 33.3177 13.1105 33.8774 13.8008 33.8774Z" fill="#C41230"/>
<path d="M7.52539 40.0898C8.21575 40.0898 8.77539 39.5302 8.77539 38.8398C8.77539 38.1495 8.21575 37.5898 7.52539 37.5898C6.83503 37.5898 6.27539 38.1495 6.27539 38.8398C6.27539 39.5302 6.83503 40.0898 7.52539 40.0898Z" fill="#C41230"/>
<path d="M13.8008 40.0903H56.4743C57.1645 40.0903 57.7243 39.5306 57.7243 38.8403C57.7243 38.1501 57.1645 37.5903 56.4743 37.5903H13.8008C13.1104 37.5903 12.5508 38.1501 12.5508 38.8403C12.5508 39.5306 13.1105 40.0903 13.8008 40.0903Z" fill="#C41230"/>
<path d="M7.52539 46.3662C8.21575 46.3662 8.77539 45.8066 8.77539 45.1162C8.77539 44.4259 8.21575 43.8662 7.52539 43.8662C6.83503 43.8662 6.27539 44.4259 6.27539 45.1162C6.27539 45.8066 6.83503 46.3662 7.52539 46.3662Z" fill="#C41230"/>
<path d="M13.8008 46.3657H56.4743C57.1645 46.3657 57.7243 45.806 57.7243 45.1157C57.7243 44.4255 57.1645 43.8657 56.4743 43.8657H13.8008C13.1104 43.8657 12.5508 44.4255 12.5508 45.1157C12.5508 45.806 13.1105 46.3657 13.8008 46.3657Z" fill="#C41230"/>
</g>
<defs>
<clipPath id="clip0_3182_1439">
<rect width="64" height="64" fill="white"/>
</clipPath>
</defs>
</svg>
