<svg width="64" height="64" viewBox="0 0 64 64" fill="none" xmlns="http://www.w3.org/2000/svg">
<g clip-path="url(#clip0_3143_1486)">
<path d="M55.0479 7.64158L41.575 2.63848C41.0118 2.42986 40.3801 2.65023 40.0699 3.16411C39.9493 3.36373 39.8315 3.5661 39.7153 3.7696C37.815 3.33336 37.343 1.10587 37.3252 1.01749C37.2134 0.427248 36.6977 0 36.097 0H27.9046C27.3039 0 26.7896 0.419998 26.6779 1.01024C26.6586 1.10574 26.1867 3.33348 24.2856 3.7696C24.1692 3.5661 24.0516 3.36373 23.931 3.16411C23.6209 2.65048 22.989 2.42986 22.4259 2.63848L8.95283 7.64158C8.32171 7.87595 7.98959 8.56807 8.20159 9.20707L12.2567 21.4272C12.4717 22.0752 13.1667 22.4306 13.8178 22.2261L17.6878 21.0099C18.4799 23.3411 19.9544 29.2498 16.8925 34.5589C12.9797 41.3436 13.9699 45.1392 14.0957 45.5497C14.2567 46.0749 14.7415 46.4334 15.2909 46.4334L28.0161 46.4337V51.7088C28.0161 52.2994 28.0096 52.8982 27.997 53.4883C27.9387 56.2037 27.6436 59.0134 27.1197 61.84L26.9934 62.5221C26.8676 63.201 27.316 63.8531 27.9948 63.9789C28.6743 64.105 29.326 63.6561 29.4516 62.9774L29.578 62.2954C30.1262 59.3367 30.4351 56.3915 30.4965 53.5419C30.5095 52.9339 30.5161 52.3171 30.5161 51.7087V46.4336H33.4848V51.7087C33.4848 52.3171 33.4914 52.9339 33.5044 53.5419C33.5657 56.3915 33.8747 59.3367 34.4229 62.2953L34.5493 62.9774C34.6734 63.6476 35.3362 64.1022 36.0061 63.9789C36.6849 63.8531 37.1333 63.2009 37.0075 62.5221L36.8812 61.8399C36.3574 59.0134 36.0622 56.2035 36.0039 53.4883C35.9912 52.8981 35.9848 52.2993 35.9848 51.7088V46.4336L48.71 46.4332C49.2552 46.4332 49.7376 46.0799 49.9018 45.56C49.9385 45.4439 50.2537 44.3712 50.0325 42.471C49.7512 40.0564 48.766 37.392 47.1042 34.552C44.0338 29.3041 45.5209 23.3532 46.3146 21.0103L50.183 22.2261C50.8345 22.4311 51.5292 22.075 51.7441 21.4272L55.7992 9.20707C56.0112 8.56807 55.6791 7.87595 55.0479 7.64158ZM19.0583 35.8078C23.595 27.9412 19.7375 19.3084 19.571 18.9448C19.3088 18.3716 18.6608 18.0833 18.0597 18.2724L14.2421 19.4723L10.9544 9.56519L22.3069 5.34947C25.0356 10.2859 26.2757 16.0134 26.2295 21.6313V43.9332H16.405C16.389 42.6089 16.726 39.8515 19.0583 35.8078ZM49.7587 19.4721L45.9411 18.2723C45.3397 18.0831 44.6925 18.3714 44.43 18.9439C44.2622 19.31 40.3734 27.9986 44.9465 35.8144C47.3077 39.8499 47.6309 42.6118 47.605 43.9331H37.771V38.6173C37.771 37.927 37.2113 37.3673 36.521 37.3673H36.5209H36.5208C35.8306 37.3673 35.2708 37.927 35.2708 38.6173V43.9335H28.7298V21.6415C28.7368 20.7711 28.7133 19.9001 28.6612 19.0314C28.3911 14.4009 27.3035 9.97144 25.4581 6.02896C27.4407 5.31834 28.3987 3.60998 28.8266 2.50024H35.1751C35.6029 3.6101 36.5608 5.31859 38.543 6.02909C36.6985 9.97107 35.6109 14.3985 35.3398 19.0223C35.2873 19.8908 35.2643 20.7613 35.2707 21.6314V27.6186C35.2707 28.3088 35.8304 28.8686 36.5207 28.8686H36.5208H36.5209C37.2112 28.8686 37.7709 28.3088 37.7709 27.6186V21.6214C37.7242 15.7542 39.112 10.0199 41.6938 5.34947L53.0462 9.56519L49.7587 19.4721Z" fill="#C41230"/>
<path d="M37.6739 32.64C37.2561 31.6203 35.7532 31.639 35.3556 32.6648C35.163 33.1618 35.3125 33.7454 35.7264 34.084C36.1252 34.4104 36.6981 34.4568 37.1445 34.2C37.6801 33.8922 37.9117 33.2104 37.6739 32.64Z" fill="#C41230"/>
</g>
<defs>
<clipPath id="clip0_3143_1486">
<rect width="64" height="64" fill="white"/>
</clipPath>
</defs>
</svg>
