<svg width="64" height="64" viewBox="0 0 64 64" fill="none" xmlns="http://www.w3.org/2000/svg">
<path d="M54.625 32.7268V37.1749H52.75V35.2999H47.125V30.1438C47.125 28.5931 45.8633 27.3313 44.3125 27.3313H39.4999V25.6946C45.6111 25.2149 50.4374 20.0888 50.4374 13.8564C50.4374 7.30857 45.1102 1.98145 38.5624 1.98145C33.654 1.98145 29.4316 4.97495 27.6249 9.2322C25.8181 4.97507 21.5959 1.98145 16.6874 1.98145C13.892 1.98145 11.1762 2.97245 9.0405 4.77195L10.2486 6.20582C12.0468 4.69082 14.3335 3.85645 16.6874 3.85645C22.2014 3.85645 26.6874 8.34245 26.6874 13.8564C26.6874 19.3704 22.2014 23.8564 16.6874 23.8564C11.1734 23.8564 6.68738 19.3704 6.68738 13.8564C6.68738 11.5021 7.52175 9.21545 9.03675 7.4177L7.603 6.20944C5.8035 8.34494 4.8125 11.0606 4.8125 13.8566C4.8125 20.0889 9.63863 25.2151 15.75 25.6947V27.3314H12.1875C10.9654 27.3314 9.92325 28.1153 9.53625 29.2064H0V36.7064H4.4035L9.37488 40.0206V51.7062C9.37488 53.2569 10.6365 54.5187 12.1874 54.5187H24.5V62.0187H32V54.5187H35.875V52.6437H12.1874C11.6704 52.6437 11.2499 52.2232 11.2499 51.7062V30.1438C11.2499 29.6268 11.6704 29.2063 12.1874 29.2063H44.3125C44.8295 29.2063 45.25 29.6268 45.25 30.1438V51.7061C45.25 52.2231 44.8295 52.6436 44.3125 52.6436H41.5001V54.5186H44.3125C45.8633 54.5186 47.125 53.2568 47.125 51.7061V46.5499H52.75V44.6749H54.625V48.8857L64 53.5732V28.0393L54.625 32.7268ZM30.125 60.1436H26.375V54.5186H30.125V60.1436ZM1.875 31.0813H3.74988V34.8313H1.875V31.0813ZM5.62488 35.2671V31.0813H9.37488V37.7671L5.62488 35.2671ZM38.5624 3.85657C44.0764 3.85657 48.5624 8.34257 48.5624 13.8566C48.5624 19.3706 44.0764 23.8566 38.5624 23.8566C33.0484 23.8566 28.5624 19.3706 28.5624 13.8566C28.5624 8.34257 33.0484 3.85657 38.5624 3.85657ZM17.625 25.6946C22.1287 25.3412 25.9344 22.4643 27.625 18.4808C29.3156 22.4643 33.1213 25.3412 37.625 25.6946V27.3313H17.625V25.6946ZM50.875 44.6749H47.125V37.1749H50.875V44.6749ZM52.75 42.7999V39.0499H54.625V42.7999H52.75ZM62.125 50.5392L56.5 47.7267V33.8858L62.125 31.0733V50.5392Z" fill="#C41230"/>
<path d="M37.75 52.6436H39.625V54.5186H37.75V52.6436Z" fill="#C41230"/>
<path d="M38.5625 20.1064C42.0087 20.1064 44.8125 17.3027 44.8125 13.8564C44.8125 10.4102 42.0087 7.60645 38.5625 7.60645C35.1163 7.60645 32.3125 10.4102 32.3125 13.8564C32.3125 17.3027 35.1163 20.1064 38.5625 20.1064ZM38.5625 9.48144C40.9749 9.48144 42.9375 11.4441 42.9375 13.8564C42.9375 16.2688 40.9749 18.2314 38.5625 18.2314C36.1501 18.2314 34.1875 16.2688 34.1875 13.8564C34.1875 11.4441 36.1501 9.48144 38.5625 9.48144Z" fill="#C41230"/>
<path d="M22.9375 13.8564C22.9375 10.4102 20.1337 7.60645 16.6875 7.60645C13.2413 7.60645 10.4375 10.4102 10.4375 13.8564C10.4375 17.3027 13.2413 20.1064 16.6875 20.1064C20.1337 20.1064 22.9375 17.3027 22.9375 13.8564ZM12.3125 13.8564C12.3125 11.4441 14.2751 9.48144 16.6875 9.48144C19.0999 9.48144 21.0625 11.4441 21.0625 13.8564C21.0625 16.2688 19.0999 18.2314 16.6875 18.2314C14.2751 18.2314 12.3125 16.2687 12.3125 13.8564Z" fill="#C41230"/>
<path d="M36.8125 41.8623C35.2617 41.8623 34 43.1241 34 44.6748C34 46.2256 35.2617 47.4873 36.8125 47.4873C38.3632 47.4873 39.625 46.2256 39.625 44.6748C39.625 43.1241 38.3632 41.8623 36.8125 41.8623ZM36.8125 45.6123C36.2955 45.6123 35.875 45.1918 35.875 44.6748C35.875 44.1578 36.2955 43.7373 36.8125 43.7373C37.3295 43.7373 37.75 44.1578 37.75 44.6748C37.75 45.1918 37.3295 45.6123 36.8125 45.6123Z" fill="#C41230"/>
<path d="M26.5 44.6748C26.5 46.2256 27.7616 47.4873 29.3125 47.4873C30.8634 47.4873 32.125 46.2256 32.125 44.6748C32.125 43.1241 30.8634 41.8623 29.3125 41.8623C27.7616 41.8623 26.5 43.1241 26.5 44.6748ZM30.25 44.6748C30.25 45.1918 29.8295 45.6123 29.3125 45.6123C28.7956 45.6123 28.375 45.1918 28.375 44.6748C28.375 44.1578 28.7956 43.7373 29.3125 43.7373C29.8295 43.7373 30.25 44.1579 30.25 44.6748Z" fill="#C41230"/>
<path d="M13.125 39.9873H39.6253V32.9561H13.125V39.9873ZM15 34.8311H37.7503V38.1123H15V34.8311Z" fill="#C41230"/>
<path d="M41.5 31.0811H43.375V32.9561H41.5V31.0811Z" fill="#C41230"/>
<path d="M41.5 34.8311H43.375V36.7061H41.5V34.8311Z" fill="#C41230"/>
</svg>
