<svg width="64" height="64" viewBox="0 0 64 64" fill="none" xmlns="http://www.w3.org/2000/svg">
<g clip-path="url(#clip0_3240_1382)">
<path d="M22.5157 48.3486H10.4248C8.92141 48.3486 7.69729 49.5718 7.69534 51.0752L7.69045 55.0757C7.68508 57.4248 8.59622 59.6338 10.2554 61.2964C11.9141 62.959 14.1211 63.875 16.4703 63.875C18.8189 63.875 21.0259 62.9595 22.6851 61.2964C24.3443 59.6338 25.2549 57.4248 25.2496 55.0772L25.2452 51.0752C25.2432 49.5718 24.0186 48.3486 22.5157 48.3486ZM21.3585 59.9732C20.0538 61.2808 18.3174 62.001 16.4703 62.001C14.6226 62.001 12.8868 61.2808 11.5816 59.9732C10.2769 58.6656 9.56057 56.9278 9.56448 55.0791L9.56936 51.0772C9.56985 50.606 9.95364 50.2227 10.4248 50.2227H22.5157C22.9869 50.2227 23.3707 50.606 23.3712 51.0772L23.376 55.0801C23.3799 56.9278 22.6636 58.6651 21.3585 59.9732Z" fill="#C41230"/>
<path d="M21.1861 51.4717H11.7534C11.2363 51.4717 10.8169 51.8906 10.8164 52.4077L10.8135 55.083C10.8101 56.5962 11.397 58.0195 12.4658 59.0904C13.5347 60.1616 14.9566 60.7515 16.4698 60.7515C17.9829 60.7515 19.4048 60.1616 20.4737 59.0908C21.5425 58.0195 22.1294 56.5947 22.126 55.0806L22.1231 52.4077C22.1221 51.8906 21.7032 51.4717 21.1861 51.4717ZM19.147 57.7671C18.4326 58.4834 17.4815 58.8779 16.4698 58.8779C15.4575 58.8779 14.5069 58.4834 13.792 57.7671C13.0772 57.0508 12.6851 56.0991 12.687 55.0859L12.689 53.3457H20.25L20.252 55.0835C20.2544 56.0977 19.8619 57.0508 19.147 57.7671Z" fill="#C41230"/>
<path d="M59.1657 47.1427L47.2541 35.336C48.6125 32.9459 49.3893 30.1847 49.3893 27.2447C49.3893 18.1866 42.0197 10.817 32.9611 10.817C31.0914 10.817 29.2941 11.1319 27.6183 11.7095C26.2423 7.85015 23.9405 4.36772 20.9171 1.59183C18.4352 -0.686981 14.6812 -0.698212 12.1871 1.564L12.1627 1.58548C5.2613 7.84429 2.37457 17.3477 4.62848 26.3873L6.58698 34.2394C6.774 34.9899 6.93659 35.5758 7.08015 36.0929C7.51911 37.6754 7.71931 38.3976 7.71443 40.7081L7.71052 42.8268C7.70954 43.5568 7.99275 44.2433 8.50837 44.7599C9.024 45.2765 9.71053 45.5607 10.44 45.5607H22.5001C23.2301 45.5607 23.9161 45.2765 24.4318 44.7599C24.9474 44.2433 25.2311 43.5568 25.2296 42.8268L25.2277 41.735C27.5338 42.9708 30.1671 43.673 32.9611 43.673C36.6339 43.673 40.0294 42.4611 42.7682 40.4166L54.403 51.9474C55.0607 52.5993 55.9225 52.925 56.7844 52.925C57.6511 52.925 58.5178 52.5954 59.1765 51.9372C59.8171 51.296 60.1691 50.444 60.1672 49.5377C60.1652 48.631 59.8093 47.7804 59.1657 47.1427ZM23.3556 42.8297C23.3561 43.0587 23.2672 43.2741 23.1056 43.4362C22.944 43.5978 22.7291 43.6871 22.5001 43.6871H10.44C10.2115 43.6871 9.99617 43.5978 9.83455 43.4362C9.67293 43.2741 9.58406 43.0587 9.58455 42.8297L9.58846 40.712C9.59383 38.1442 9.34236 37.2379 8.88582 35.5919C8.74519 35.086 8.5865 34.5128 8.40486 33.7862L6.44685 25.9342C4.35993 17.5655 7.0323 8.76763 13.4205 2.97514L13.4444 2.95316C15.2179 1.34476 17.8858 1.35306 19.6495 2.97221C22.4703 5.56157 24.6134 8.81548 25.8839 12.4214C20.3585 15.0704 16.5333 20.7193 16.5333 27.2452C16.5333 32.7184 19.2247 37.5743 23.3526 40.5612C23.3522 40.6115 23.3522 40.6598 23.3522 40.7115L23.3556 42.8297ZM18.4073 27.2452C18.4073 19.2198 24.9361 12.691 32.9611 12.691C40.9865 12.691 47.5153 19.2198 47.5153 27.2452C47.5153 35.2701 40.9865 41.799 32.9611 41.799C24.9361 41.799 18.4073 35.2701 18.4073 27.2452ZM57.8513 50.612C57.2658 51.1974 56.3107 51.1994 55.7224 50.6168L44.2091 39.2067C44.944 38.5153 45.6149 37.7574 46.2126 36.9425L57.8464 48.4738C58.1335 48.758 58.2922 49.1373 58.2932 49.5416C58.2941 49.9459 58.1369 50.3258 57.8513 50.612Z" fill="#C41230"/>
<path d="M32.961 14.6899C26.0381 14.6899 20.4062 20.3218 20.4062 27.2451C20.4062 34.168 26.0381 39.7999 32.961 39.7999C39.8843 39.7999 45.5162 34.168 45.5162 27.2451C45.5162 20.3218 39.8843 14.6899 32.961 14.6899ZM32.961 37.9263C30.3296 37.9263 27.919 36.9678 26.0552 35.3838C26.147 35.045 26.2471 34.6661 26.3535 34.2393L27.6987 28.8457C27.8237 28.3438 27.5186 27.835 27.0161 27.71C26.5142 27.5855 26.0059 27.8902 25.8804 28.3926L24.5352 33.7862C24.5347 33.7891 24.5337 33.7915 24.5332 33.7945C23.1231 31.9844 22.2803 29.712 22.2803 27.2447C22.2803 23.5039 24.2149 20.208 27.1343 18.2998C27.3081 20.4351 27.1885 22.5786 26.773 24.6905C26.6734 25.1978 27.0039 25.6905 27.5117 25.7906C27.5728 25.8028 27.6333 25.8086 27.6934 25.8086C28.1323 25.8086 28.5239 25.499 28.6118 25.0523C29.1123 22.5103 29.2168 19.9253 28.9268 17.3574C30.1724 16.8472 31.5342 16.5635 32.9615 16.5635C38.8511 16.5635 43.6426 21.3555 43.6426 27.2451C43.6426 33.1348 38.8506 37.9263 32.961 37.9263Z" fill="#C41230"/>
<path d="M16.8457 36.8819H12.4175C12.2842 36.1822 12.1084 35.526 11.895 34.7569C11.7598 34.2696 11.6065 33.7174 11.4356 33.0303L11.2666 32.3526H14.5972C15.1143 32.3526 15.5337 31.9332 15.5337 31.4156C15.5337 30.898 15.1143 30.4786 14.5972 30.4786H10.7993L9.47754 25.1783C9.42578 24.9722 9.37891 24.7657 9.33399 24.5591H14.5972C15.1143 24.5591 15.5337 24.1397 15.5337 23.6221C15.5337 23.1045 15.1143 22.6851 14.5972 22.6851H9.02051C8.81885 21.0088 8.82666 19.3311 9.03809 17.688H16.4707C16.9883 17.688 17.4077 17.2686 17.4077 16.751C17.4077 16.2334 16.9883 15.814 16.4707 15.814H9.37158C9.70899 14.3208 10.2163 12.8697 10.8833 11.4883H18.5947C19.1123 11.4883 19.5318 11.0689 19.5318 10.5513C19.5318 10.0337 19.1123 9.61427 18.5947 9.61427H11.9126C12.8936 8.03468 14.0996 6.57472 15.5195 5.28711L15.5376 5.27051C15.8135 5.02051 16.168 4.88282 16.5366 4.88282C16.9082 4.88282 17.2637 5.021 17.5376 5.27247C19.5513 7.12159 21.1465 9.32374 22.2793 11.8184C22.4932 12.2896 23.0484 12.4981 23.5196 12.2842C23.9908 12.0703 24.1993 11.5147 23.9854 11.0435C22.7481 8.31837 21.0054 5.9126 18.8047 3.89209C18.1846 3.32275 17.3789 3.00879 16.5366 3.00879C15.7022 3.00879 14.9004 3.31885 14.2793 3.88233L14.2612 3.89893C10.542 7.27101 8.15625 11.7188 7.32763 16.4859C7.30908 16.5484 7.29736 16.6138 7.29248 16.6812C6.81054 19.6065 6.91503 22.648 7.65918 25.6319L9.61719 33.4835C9.79444 34.1944 9.95117 34.7593 10.0894 35.2579C10.5986 37.0928 10.8433 38.0914 10.8374 40.7135L10.8359 41.4991C10.835 42.0167 11.2539 42.4371 11.7715 42.4376H11.773C12.2896 42.4376 12.709 42.0191 12.71 41.5025L12.7114 40.7174C12.7129 39.963 12.6929 39.3238 12.6538 38.7564H16.8457C17.3633 38.7564 17.7827 38.337 17.7827 37.8194C17.7827 37.3018 17.3633 36.8819 16.8457 36.8819Z" fill="#C41230"/>
</g>
<defs>
<clipPath id="clip0_3240_1382">
<rect width="64" height="64" fill="white"/>
</clipPath>
</defs>
</svg>
