<svg width="64" height="64" viewBox="0 0 64 64" fill="none" xmlns="http://www.w3.org/2000/svg">
<g clip-path="url(#clip0_2906_1683)">
<path d="M38.4686 20.204C38.4686 16.6372 35.5668 13.7354 31.9999 13.7354C28.4331 13.7354 25.5312 16.6372 25.5312 20.204C25.5312 23.7709 28.4331 26.6727 31.9999 26.6727C35.5668 26.6727 38.4686 23.771 38.4686 20.204ZM27.4062 20.204C27.4062 17.6711 29.467 15.6103 31.9999 15.6103C34.5329 15.6103 36.5936 17.6711 36.5936 20.204C36.5936 22.737 34.5329 24.7977 31.9999 24.7977C29.467 24.7977 27.4062 22.7371 27.4062 20.204Z" fill="#C41230"/>
<path d="M56.4363 21.1417C56.8559 22.8071 58.3659 24.0435 60.1597 24.0435C62.2769 24.0435 63.9993 22.3211 63.9993 20.204C63.9993 18.0867 62.2768 16.3642 60.1597 16.3642C58.3657 16.3642 56.8556 17.6011 56.4362 19.2667H52.1116C52.0627 18.1254 51.9166 16.9967 51.6789 15.8918H53.2344C53.7616 15.8918 54.2721 15.7005 54.6738 15.3514L56.5922 13.6748C57.0926 13.9895 57.6838 14.1724 58.3173 14.1724C60.1093 14.1724 61.5673 12.7144 61.5673 10.9224C61.5673 9.13044 60.1093 7.67246 58.3173 7.67246C56.5253 7.67246 55.0673 9.13044 55.0673 10.9224C55.0673 11.4004 55.172 11.8542 55.3581 12.2634L53.442 13.938C53.3834 13.9889 53.3097 14.0169 53.2344 14.0169H51.1799C50.3419 11.3868 48.966 8.93707 47.1117 6.83222C46.7694 6.44384 46.1769 6.40609 45.7886 6.74859C45.4001 7.09084 45.3626 7.68321 45.7048 8.0717C48.6395 11.4028 50.2556 15.6859 50.2556 20.1318C50.2556 24.8979 48.4303 29.4075 45.1158 32.8297C43.286 34.7201 42.2782 37.2303 42.2782 39.8979V42.9216H35.4158L35.4059 31.2674C36.1004 31.054 36.7734 30.7754 37.4143 30.4361L38.7196 31.7416C39.2801 32.3022 40.1922 32.3021 40.7525 31.7416L43.5368 28.9573C43.8084 28.6858 43.9581 28.3246 43.9581 27.9408C43.9581 27.5568 43.8084 27.1958 43.5369 26.9243L42.2316 25.6188C42.5708 24.9782 42.8495 24.3049 43.0628 23.6104H44.9097C45.7023 23.6104 46.3472 22.9656 46.3472 22.1729V18.2352C46.3472 17.4426 45.7023 16.7977 44.9097 16.7977H43.063C42.8496 16.1031 42.571 15.4301 42.2317 14.7894L43.5371 13.484C43.8086 13.2125 43.9582 12.8515 43.9582 12.4675C43.9582 12.0835 43.8086 11.7225 43.5371 11.451L40.7526 8.66657C40.1922 8.10608 39.2801 8.10633 38.7197 8.66657L37.4143 9.97206C36.7735 9.63281 36.1003 9.35419 35.4059 9.14082V7.29371C35.4059 6.50109 34.761 5.85622 33.9684 5.85622H30.0306C29.238 5.85622 28.5931 6.50109 28.5931 7.29371V9.14057C27.8987 9.35394 27.2256 9.63244 26.5847 9.97181L25.2794 8.66632C24.719 8.10583 23.8069 8.10595 23.2465 8.66632L20.4622 11.4507C20.1906 11.7222 20.0409 12.0833 20.0409 12.4673C20.0409 12.8513 20.1904 13.2122 20.462 13.4838L21.7674 14.7891C21.4282 15.4299 21.1495 16.1029 20.9362 16.7975H19.0894C18.2968 16.7975 17.652 17.4424 17.652 18.235V22.1727C17.652 22.9653 18.2968 23.6102 19.0894 23.6102H20.9363C21.1497 24.3048 21.4283 24.9778 21.7675 25.6185L20.4623 26.9239C20.1907 27.1954 20.0411 27.5565 20.0411 27.9405C20.0411 28.3245 20.1907 28.6855 20.4622 28.9569L23.2466 31.7413C23.8071 32.302 24.7193 32.3017 25.2795 31.7413L26.585 30.4359C27.2259 30.7752 27.8991 31.0539 28.5933 31.2671L28.5935 42.9214H21.721V39.8976C21.721 37.2237 20.7187 34.7193 18.8988 32.846C15.483 29.327 13.653 24.6847 13.746 19.7745C13.9355 9.85281 22.1009 1.87501 32.0031 1.87501C32.0859 1.87501 32.1701 1.87551 32.2532 1.87676C35.9978 1.92739 39.5816 3.10388 42.6173 5.27886C43.0385 5.58048 43.624 5.48373 43.9254 5.06273C44.2271 4.64186 44.1303 4.05624 43.7093 3.75462C40.3607 1.35552 36.408 0.0579064 32.2786 0.00190698C26.9022 -0.0707173 21.8254 1.93314 17.9861 5.6451C15.5548 7.99558 13.7935 10.8644 12.8014 14.0166H10.7649C10.6895 14.0166 10.6159 13.9886 10.5593 13.9395L8.64117 12.2633C8.82729 11.8542 8.93191 11.4004 8.93191 10.9223C8.93191 9.13032 7.47393 7.67233 5.68194 7.67233C3.88996 7.67233 2.43198 9.13032 2.43198 10.9223C2.43198 12.7143 3.88996 14.1723 5.68194 14.1723C6.31544 14.1723 6.90668 13.9894 7.40705 13.6746L9.32741 15.353C9.72716 15.7004 10.2376 15.8916 10.7649 15.8916H12.3095C12.0769 16.9925 11.934 18.1204 11.886 19.2666H7.56305C7.14368 17.601 5.63357 16.3641 3.83959 16.3641C1.72236 16.3641 0 18.0866 0 20.2038C0 22.3211 1.72248 24.0434 3.83959 24.0434C5.63332 24.0434 7.14331 22.8069 7.56293 21.1416H11.8934C11.9496 22.2869 12.1016 23.4149 12.3453 24.5165H10.7649C10.2353 24.5165 9.72391 24.7085 9.32541 25.0569L7.40743 26.7331C6.90706 26.4183 6.31569 26.2354 5.68194 26.2354C3.88996 26.2354 2.43198 27.6934 2.43198 29.4854C2.43198 31.2774 3.88996 32.7353 5.68194 32.7353C7.47393 32.7353 8.93191 31.2774 8.93191 29.4854C8.93191 29.0075 8.82741 28.5539 8.64142 28.1449L10.5594 26.4686C10.617 26.4183 10.6881 26.3916 10.7649 26.3916H12.8569C13.795 29.2691 15.3833 31.9165 17.5536 34.1523C19.0318 35.6741 19.8459 37.7145 19.8459 39.8978V43.0032C18.5562 43.3131 17.5947 44.4756 17.5947 45.859V47.9839C17.5947 49.2657 18.4202 50.3577 19.5672 50.7578V53.4214H18.4361C17.9183 53.4214 17.4986 53.8411 17.4986 54.3589C17.4986 54.8766 17.9183 55.2964 18.4361 55.2964H19.5672V56.2339C19.5672 58.405 21.3335 60.1713 23.5046 60.1713H23.9121V61.5626C23.9121 62.9065 25.0056 64 26.3496 64H37.6495C38.9935 64 40.087 62.9065 40.087 61.5626V60.1713H40.4945C42.6656 60.1713 44.4319 58.405 44.4319 56.2339V55.2964H45.5631C46.0808 55.2964 46.5005 54.8766 46.5005 54.3589C46.5005 53.8411 46.0808 53.4214 45.5631 53.4214H44.4319V50.7578C45.5789 50.3575 46.4044 49.2657 46.4044 47.9839V45.859C46.4044 44.4756 45.4428 43.3132 44.1532 43.0032V39.8978C44.1532 37.7195 44.9734 35.6724 46.4628 34.1338C48.6188 31.9077 50.2029 29.2641 51.14 26.3916H53.2344C53.3111 26.3916 53.3821 26.4183 53.44 26.4689L55.3578 28.145C55.1718 28.554 55.0673 29.0076 55.0673 29.4855C55.0673 31.2775 56.5253 32.7355 58.3173 32.7355C60.1093 32.7355 61.5673 31.2775 61.5673 29.4855C61.5673 27.6935 60.1093 26.2355 58.3173 26.2355C57.6837 26.2355 57.0923 26.4185 56.5918 26.7333L54.674 25.0572C54.2753 24.7085 53.7641 24.5167 53.2344 24.5167H51.6524C51.8965 23.4146 52.049 22.2864 52.1054 21.1417H56.4363ZM58.3173 9.54731C59.0754 9.54731 59.6923 10.1642 59.6923 10.9223C59.6923 11.6804 59.0754 12.2973 58.3173 12.2973C57.5592 12.2973 56.9423 11.6804 56.9423 10.9223C56.9423 10.1642 57.5592 9.54731 58.3173 9.54731ZM5.68194 12.2973C4.92383 12.2973 4.30696 11.6804 4.30696 10.9223C4.30696 10.1642 4.92383 9.54731 5.68194 9.54731C6.44006 9.54731 7.05693 10.1642 7.05693 10.9223C7.05693 11.6804 6.44006 12.2973 5.68194 12.2973ZM5.68194 30.8604C4.92383 30.8604 4.30696 30.2435 4.30696 29.4854C4.30696 28.7273 4.92383 28.1104 5.68194 28.1104C6.44006 28.1104 7.05693 28.7273 7.05693 29.4854C7.05693 30.2435 6.44006 30.8604 5.68194 30.8604ZM3.83959 22.1686C2.75622 22.1686 1.87498 21.2872 1.87498 20.204C1.87498 19.1206 2.75635 18.2392 3.83959 18.2392C4.92283 18.2392 5.80419 19.1206 5.80419 20.204C5.80419 21.2872 4.92283 22.1686 3.83959 22.1686ZM27.2156 28.6436C26.656 28.326 25.9471 28.4223 25.4916 28.8776L24.2629 30.1064L22.0972 27.9406L23.3258 26.7119C23.7813 26.2564 23.8774 25.5475 23.5596 24.9878C23.1675 24.2972 22.8614 23.5574 22.6498 22.7892C22.4789 22.1687 21.9095 21.7353 21.2653 21.7353H19.5269V18.6726H21.2653C21.9095 18.6726 22.4789 18.2392 22.6498 17.6189C22.8615 16.8505 23.1676 16.1108 23.5598 15.4201C23.8775 14.8604 23.7814 14.1515 23.3259 13.696L22.0972 12.4673L24.2629 10.3016L25.4916 11.5303C25.9471 11.9858 26.656 12.0819 27.2156 11.7642C27.9065 11.3719 28.6463 11.0658 29.4143 10.8542C30.0347 10.6833 30.4681 10.1139 30.4681 9.46969V7.73121H33.5309V9.46957C33.5309 10.1138 33.9643 10.6832 34.5847 10.8541C35.3528 11.0657 36.0925 11.3718 36.7834 11.764C37.3429 12.0818 38.0519 11.9855 38.5075 11.5302L39.7362 10.3014L41.902 12.4672L40.6732 13.6959C40.2177 14.1514 40.1216 14.8603 40.4394 15.42C40.8315 16.1106 41.1376 16.8504 41.3492 17.6187C41.5201 18.2391 42.0895 18.6725 42.7337 18.6725H44.4721V21.7352H42.7337C42.0895 21.7352 41.5201 22.1686 41.3492 22.7889C41.1375 23.5572 40.8314 24.297 40.4392 24.9878C40.1215 25.5475 40.2177 26.2564 40.6731 26.7118L41.9017 27.9405L39.736 30.1062L38.5071 28.8774C38.0516 28.4221 37.3428 28.326 36.7831 28.6436C36.0923 29.0359 35.3524 29.342 34.5842 29.5536C33.9639 29.7247 33.5307 30.294 33.5307 30.9381V32.6765H30.4678V30.9381C30.4678 30.294 30.0346 29.7247 29.4141 29.5536C28.6463 29.3421 27.9066 29.036 27.2156 28.6436ZM30.4685 34.5516H33.5409V42.9215H30.4685V34.5516ZM38.2121 61.5626C38.2121 61.8727 37.9598 62.125 37.6496 62.125H26.3497C26.0396 62.125 25.7872 61.8727 25.7872 61.5626V60.1713H38.2121V61.5626ZM42.557 56.2339C42.557 57.3711 41.6317 58.2963 40.4945 58.2963H23.5046C22.3674 58.2963 21.4422 57.3711 21.4422 56.2339V55.2964H42.557V56.2339ZM44.5296 45.859V47.9839C44.5296 48.5698 44.0529 49.0464 43.4671 49.0464H27.806C27.2882 49.0464 26.8685 49.4662 26.8685 49.9839C26.8685 50.5017 27.2882 50.9214 27.806 50.9214H42.5571V53.4214H21.4423V50.9214H23.431C23.9488 50.9214 24.3685 50.5017 24.3685 49.9839C24.3685 49.4662 23.9488 49.0464 23.431 49.0464H20.5323C19.9464 49.0464 19.4698 48.5698 19.4698 47.9839V45.859C19.4698 45.2731 19.9464 44.7965 20.5323 44.7965H43.4671C44.0529 44.7965 44.5296 45.2731 44.5296 45.859ZM59.6923 29.4854C59.6923 30.2435 59.0754 30.8604 58.3173 30.8604C57.5592 30.8604 56.9423 30.2435 56.9423 29.4854C56.9423 28.7273 57.5592 28.1104 58.3173 28.1104C59.0754 28.1104 59.6923 28.7273 59.6923 29.4854ZM60.1597 18.2392C61.243 18.2392 62.1243 19.1206 62.1243 20.204C62.1243 21.2873 61.2429 22.1686 60.1597 22.1686C59.0764 22.1686 58.1951 21.2872 58.1951 20.204C58.1951 19.1205 59.0764 18.2392 60.1597 18.2392Z" fill="#C41230"/>
</g>
<defs>
<clipPath id="clip0_2906_1683">
<rect width="64" height="64" fill="white"/>
</clipPath>
</defs>
</svg>
