<svg width="64" height="64" viewBox="0 0 64 64" fill="none" xmlns="http://www.w3.org/2000/svg">
<g clip-path="url(#clip0_3180_1433)">
<path d="M55.6127 29.9247C55.1764 30.2034 55.0456 30.7812 55.3227 31.2185C55.5999 31.6558 56.1844 31.7941 56.6165 31.5085C57.0662 31.2111 58.3796 30.51 59.6054 29.2274C61.326 27.4626 62.9067 24.4723 62.8196 22.1373C62.7986 21.5764 62.5024 21.0631 62.027 20.7645C60.9766 20.1047 59.5056 19.7295 57.655 19.6495C53.8291 19.4855 51.4939 21.1507 49.8214 21.9685V13.904C50.7319 13.6054 51.4096 12.7896 51.5041 11.805H53.6601C54.6942 11.805 55.553 11.0494 55.719 10.0618L58.2971 10.5253C58.4204 10.5474 58.5441 10.5583 58.6671 10.5583C59.1516 10.5583 59.6235 10.3892 60.002 10.0728C60.4767 9.67562 60.749 9.09288 60.749 8.47375V5.55375C60.749 4.9345 60.4769 4.35162 60.0024 3.95475C59.5281 3.55788 58.9062 3.39325 58.2969 3.50225L55.719 3.96575C55.5531 2.9775 54.6944 2.22125 53.6601 2.22125H51.5042C51.3842 0.9765 50.333 0 49.0574 0H20.3565C19.8387 0 19.419 0.41975 19.419 0.9375C19.419 1.45525 19.8387 1.875 20.3565 1.875H49.0574C49.3794 1.875 49.6412 2.13687 49.6412 2.45887V11.5682C49.6412 11.8902 49.3794 12.1521 49.0574 12.1521H12.8695C12.5475 12.1521 12.2856 11.8902 12.2856 11.5682V2.45887C12.2856 2.13687 12.5476 1.875 12.8695 1.875H15.9815C16.4992 1.875 16.919 1.45525 16.919 0.9375C16.919 0.41975 16.4992 0 15.9815 0H12.8695C11.5939 0 10.5425 0.9765 10.4225 2.22125H8.26648C7.23236 2.22125 6.37361 2.97738 6.20773 3.96575L3.62961 3.50225C3.02036 3.39313 2.39886 3.55788 1.92448 3.95475C1.44998 4.35162 1.17786 4.9345 1.17786 5.55375V8.47375C1.17786 9.09275 1.45011 9.6755 1.92486 10.0728C2.30323 10.3892 2.77511 10.5583 3.25973 10.5583C3.38273 10.5583 3.50661 10.5474 3.62998 10.5253L6.20786 10.0618C6.37386 11.0494 7.23261 11.805 8.26661 11.805H10.4226C10.5172 12.7896 11.195 13.6054 12.1054 13.904V50.096C11.1949 50.3946 10.5171 51.2104 10.4226 52.195H8.26648C7.23248 52.195 6.37373 52.9506 6.20773 53.9383L3.62961 53.4748C3.02086 53.3657 2.39923 53.5305 1.92473 53.9274C1.44998 54.3245 1.17773 54.9072 1.17773 55.5264V58.4464C1.17773 59.0656 1.44986 59.6485 1.92436 60.0454C2.30261 60.3619 2.77448 60.5309 3.25936 60.5309C3.38248 60.5309 3.50648 60.52 3.62986 60.4979L6.20773 60.0344C6.37361 61.0226 7.23236 61.7789 8.26648 61.7789H10.4225C10.5425 63.0236 11.5937 64.0001 12.8694 64.0001H49.0574C50.333 64.0001 51.3842 63.0236 51.5042 61.7789H53.6602C54.6944 61.7789 55.5532 61.0228 55.7191 60.0344L58.2972 60.4979C58.4206 60.52 58.5445 60.5309 58.6675 60.5309C59.1521 60.5309 59.6241 60.3619 60.0024 60.0454C60.4769 59.6485 60.749 59.0656 60.749 58.4464V55.5264C60.749 54.9074 60.4767 54.3246 60.002 53.9274C59.5275 53.5305 58.9061 53.3655 58.2969 53.4749L55.719 53.9384C55.553 52.9507 54.6942 52.1951 53.6601 52.1951H51.5042C51.4096 51.2105 50.732 50.3948 49.8215 50.0961V35.8155L52.9231 33.8495C53.3605 33.5724 53.4902 32.9931 53.213 32.5558C52.936 32.1185 52.3567 31.9886 51.9192 32.2659L49.915 33.5363L45.7564 32.1561L48.3825 30.6399C50.9224 31.4202 50.852 31.4475 51.1037 31.4475C51.5027 31.4475 51.8726 31.1908 51.9981 30.79C52.1529 30.2959 51.8777 29.7699 51.3836 29.6151L50.5887 29.3661L53.1826 27.8685L57.0242 28.9979C56.5482 29.3498 56.2816 29.4976 55.6127 29.9247ZM53.1881 22.3529L52.2454 26.2447L49.6515 27.7424L50.5555 23.7006C52.4567 22.7139 52.6084 22.6057 53.1881 22.3529ZM39.989 33.321L40.8476 28.7826L41.9801 28.1898L42.8672 29.6216C43.0845 29.9722 43.4762 30.1768 43.8876 30.1609C44.2996 30.1429 44.6711 29.903 44.8571 29.5347L46.783 25.7201C46.803 25.6805 46.8341 25.6488 46.873 25.6285L48.3794 24.84L47.4452 29.0163L39.989 33.321ZM34.5371 36.4686L35.309 31.682L38.7296 29.8914L37.8467 34.5579L34.5371 36.4686ZM38.7842 36.1816L43.267 37.7503L40.1592 39.7201C40.0632 39.7809 39.9426 39.793 39.8364 39.7528L35.4746 38.0925L38.7842 36.1816ZM58.6284 5.34775C58.708 5.33325 58.7654 5.36425 58.7994 5.39275C58.8334 5.42125 58.8741 5.47237 58.8741 5.55375V8.47375C58.8741 8.55475 58.8332 8.60588 58.799 8.6345C58.7651 8.66312 58.708 8.69438 58.6287 8.67975L55.7504 8.16225V5.86525L58.6284 5.34775ZM53.8752 4.3125V9.715C53.8752 9.8335 53.7789 9.93 53.6602 9.93H51.5162V4.09625H53.6602C53.7789 4.09625 53.8752 4.19325 53.8752 4.3125ZM3.29848 8.67975C3.21936 8.69425 3.16186 8.66313 3.12786 8.63463C3.09361 8.606 3.05273 8.55488 3.05273 8.47388V5.55375C3.05273 5.47237 3.09336 5.42125 3.12748 5.39275C3.16148 5.36425 3.21861 5.33337 3.29811 5.34762L6.17648 5.86513V8.16212L3.29848 8.67975ZM8.05161 9.715V4.3125C8.05161 4.19325 8.14798 4.09625 8.26661 4.09625H10.4105V9.93H8.26648C8.14798 9.93 8.05161 9.8335 8.05161 9.715ZM3.29848 58.6522C3.21873 58.6666 3.16136 58.6356 3.12748 58.6073C3.09348 58.5788 3.05273 58.5276 3.05273 58.4463V55.5262C3.05273 55.4452 3.09361 55.3941 3.12786 55.3655C3.16186 55.337 3.21911 55.306 3.29811 55.3203L6.17648 55.8377V58.1348L3.29848 58.6522ZM8.05161 59.6875V54.285C8.05161 54.1665 8.14798 54.07 8.26661 54.07H10.4105V59.9038H8.26648C8.14798 59.9038 8.05161 59.8068 8.05161 59.6875ZM49.6412 61.5411C49.6412 61.8631 49.3794 62.125 49.0574 62.125H12.8695C12.5475 62.125 12.2856 61.8631 12.2856 61.5411V52.4318C12.2856 52.1098 12.5476 51.8479 12.8695 51.8479H49.0575C49.3795 51.8479 49.6414 52.1098 49.6414 52.4318V61.5411H49.6412ZM58.6284 55.3203C58.7076 55.3059 58.765 55.3369 58.799 55.3654C58.8332 55.394 58.8741 55.4451 58.8741 55.5261V58.4461C58.8741 58.5275 58.8335 58.5786 58.7994 58.6071C58.7654 58.6356 58.7087 58.6667 58.6287 58.6522L55.7504 58.1348V55.8377L58.6284 55.3203ZM53.8752 54.285V59.6875C53.8752 59.8068 53.7789 59.9038 53.6602 59.9038H51.5162V54.07H53.6602C53.7789 54.07 53.8752 54.1665 53.8752 54.285ZM47.9465 49.9729H13.9802V14.0271H47.9465V22.95L46.0035 23.9671C45.6157 24.1701 45.3065 24.4841 45.1091 24.8751L43.7726 27.5225L43.2151 26.6226C42.9016 26.1164 42.2427 25.936 41.7149 26.2122L34.32 30.0834C33.8739 30.3169 33.5596 30.7531 33.4795 31.2501L32.443 37.6776L27.8285 40.3418C27.3801 40.6006 27.2265 41.174 27.4854 41.6224C27.659 41.9231 27.9741 42.0913 28.2981 42.0913C28.4571 42.0913 28.6184 42.0508 28.766 41.9655L33.3805 39.3014L39.1695 41.5049C39.4251 41.6022 39.6945 41.6501 39.963 41.6501C40.3831 41.6501 40.8015 41.5327 41.1631 41.3036L47.9467 37.0037V49.9729H47.9465ZM47.8695 34.8329L45.2861 36.4704L40.9265 34.9448L43.5837 33.4106L47.8695 34.8329ZM58.5594 23.6819C58.3005 23.2334 57.7271 23.0798 57.2787 23.3388L54.4882 24.9499L55.2757 21.699C56.0346 21.5495 56.8062 21.4891 57.5741 21.5228C59.0217 21.5854 60.1851 21.8546 60.9481 22.3027C60.9546 23.1877 60.6062 24.3298 59.9367 25.6145C59.5815 26.2962 59.1432 26.9344 58.6344 27.5169L55.4257 26.5736L58.2162 24.9625C58.6646 24.7036 58.8182 24.1303 58.5594 23.6819Z" fill="#C41230"/>
</g>
<defs>
<clipPath id="clip0_3180_1433">
<rect width="64" height="64" fill="white"/>
</clipPath>
</defs>
</svg>
