<svg width="64" height="64" viewBox="0 0 64 64" fill="none" xmlns="http://www.w3.org/2000/svg">
<g clip-path="url(#clip0_3140_1448)">
<path d="M16.3857 17.5004C16.9036 17.5004 17.3232 17.0807 17.3232 16.5629V14.7954C17.3232 14.2777 16.9036 13.8579 16.3857 13.8579C15.8679 13.8579 15.4482 14.2777 15.4482 14.7954V16.5629C15.4482 17.0808 15.8679 17.5004 16.3857 17.5004Z" fill="#C41230"/>
<path d="M20.9512 17.5004C21.469 17.5004 21.8887 17.0807 21.8887 16.5629V14.7954C21.8887 14.2777 21.469 13.8579 20.9512 13.8579C20.4333 13.8579 20.0137 14.2777 20.0137 14.7954V16.5629C20.0137 17.0808 20.4334 17.5004 20.9512 17.5004Z" fill="#C41230"/>
<path d="M18.6684 22.732C19.7988 22.732 20.8616 22.2919 21.6608 21.4925C22.0269 21.1264 22.0269 20.5327 21.6607 20.1667C21.2947 19.8005 20.7011 19.8006 20.3349 20.1667C19.8898 20.612 19.2979 20.857 18.6684 20.857C18.0388 20.857 17.4469 20.6119 17.0018 20.1667C16.6357 19.8006 16.0421 19.8005 15.6761 20.1667C15.3098 20.5329 15.3098 21.1264 15.6759 21.4925C16.4752 22.2919 17.5379 22.732 18.6684 22.732Z" fill="#C41230"/>
<path d="M60.4907 53.0804C60.4907 52.1095 60.0867 51.2319 59.4387 50.6048L60.2511 44.9931C60.3252 44.4806 59.97 44.0051 59.4575 43.9308C58.9456 43.8566 58.4695 44.2118 58.3953 44.7243L57.6761 49.6924C57.5068 49.6609 57.3332 49.6418 57.1563 49.636V46.2639C57.1563 45.7461 56.7367 45.3264 56.2188 45.3264C56.2165 45.3264 56.2142 45.3264 56.2121 45.3264H55.3364C54.1611 45.3264 53.2047 44.3701 53.2047 43.1946C53.2047 42.7933 52.9493 42.4366 52.5695 42.3072C52.19 42.1778 51.7698 42.3045 51.5248 42.6222C50.7752 43.5946 49.641 44.1522 48.4131 44.1523C47.1854 44.1523 46.0511 43.5947 45.3014 42.6222C45.0564 42.3045 44.6362 42.178 44.2566 42.3072C43.8769 42.4366 43.6215 42.7933 43.6215 43.1946C43.6215 44.37 42.6652 45.3264 41.4897 45.3264H40.6141C40.0962 45.3264 39.6766 45.7461 39.6766 46.2639V49.6359C39.5003 49.6415 39.3264 49.6601 39.1559 49.6915L38.3812 44.3402C38.0829 42.2765 38.6948 40.1887 40.0598 38.6121C41.4253 37.0352 43.4049 36.1307 45.491 36.1307H51.3414C54.5648 36.1307 57.4141 38.2999 58.2702 41.4058C58.4078 41.9048 58.9235 42.1981 59.4232 42.0605C59.9224 41.9228 60.2155 41.4067 60.0779 40.9074C59.5825 39.1101 58.5567 37.5627 57.2001 36.413C57.4033 35.0719 57.5065 33.705 57.5065 32.3418C57.5065 17.4545 45.3947 5.34279 30.5075 5.34279C30.0652 5.34279 29.6192 5.35479 29.1746 5.37667C27.537 2.18827 24.2165 0 20.3923 0H16.9445C11.5032 0 7.07632 4.42729 7.07632 9.86933V15.8512C6.76219 16.3781 6.59444 16.9824 6.59444 17.6133C6.59444 18.1614 6.72381 18.6796 6.95257 19.1402C4.6983 23.1558 3.50879 27.7076 3.50879 32.3421C3.50879 47.2295 15.6205 59.3411 30.5076 59.3411C33.785 59.3411 36.9727 58.7623 40.0008 57.6228C40.4025 59.0623 41.1697 60.3808 42.2601 61.4632C43.9097 63.1007 46.0936 64 48.4161 64C48.4385 64 48.4609 63.9999 48.4833 63.9998C52.8077 63.9675 56.4023 60.7229 57.0515 56.5254C57.9701 56.5234 58.833 56.1654 59.482 55.5164C60.1324 54.8657 60.4907 54.0006 60.4907 53.0804ZM39.6767 54.6449C38.8628 54.5869 38.2178 53.9083 38.2178 53.0804C38.2178 52.659 38.3809 52.2644 38.6778 51.9682C38.9477 51.6983 39.2991 51.5403 39.6767 51.5138V54.6449ZM37.3527 50.6415C36.7014 51.2913 36.3428 52.1574 36.3428 53.0804C36.3428 53.2697 36.3588 53.455 36.3883 53.636C35.0857 55.4564 33.0678 57.4661 30.5075 57.4661C27.6835 57.4661 24.8567 54.8809 22.7519 50.3735C22.0372 48.8429 21.4253 47.1486 20.9227 45.3304C23.9179 44.0955 27.1581 43.4473 30.5075 43.4473C32.5289 43.4473 34.5322 43.6888 36.4733 44.1616C36.4873 44.3107 36.504 44.4599 36.5255 44.6089L37.3934 50.6028C37.3799 50.6159 37.3661 50.6283 37.3527 50.6415ZM38.6424 37.3849C37.4457 38.7672 36.7094 40.4612 36.4973 42.24C34.5425 41.7973 32.533 41.5725 30.5075 41.5725C27.0028 41.5725 23.6093 42.2322 20.4618 43.4918C19.7478 40.3388 19.344 36.8765 19.2842 33.2795H41.7323C41.722 33.8884 41.7011 34.497 41.6708 35.1017C40.5248 35.6347 39.4896 36.4065 38.6424 37.3849ZM11.807 49.101C8.01032 44.8687 5.62656 39.3457 5.40293 33.2796H17.4089C17.4714 37.1479 17.9199 40.8768 18.7163 44.2632C16.2029 45.4852 13.8752 47.1096 11.807 49.101ZM9.92221 19.1775C9.11108 19.1167 8.46933 18.4391 8.46933 17.6133C8.46933 17.192 8.63245 16.7971 8.92921 16.501C9.19783 16.2325 9.54696 16.0745 9.92221 16.0468V19.1775ZM10.0128 21.0578C10.146 21.9779 10.4251 22.8646 10.8476 23.7057C11.0801 24.1683 11.6435 24.3548 12.1061 24.1226C12.5689 23.8901 12.7555 23.3266 12.5231 22.8639C12.0414 21.905 11.7971 20.8698 11.7971 19.7869V11.8601C11.7971 11.3108 11.7971 10.6602 11.7972 10.0477C12.5255 10.6243 13.4847 11.2843 14.655 11.8768C17.0743 13.1017 20.8561 14.2431 25.5386 13.0989V19.6888C25.5386 23.5036 22.4802 26.6302 18.7214 26.6583C17.2468 26.6685 15.8309 26.2175 14.6411 25.3528C14.2226 25.0484 13.636 25.1412 13.3316 25.5599C13.0271 25.9788 13.12 26.5651 13.5387 26.8696C14.7289 27.7346 16.0921 28.2737 17.5344 28.4596C17.4678 29.4345 17.4263 30.4189 17.4101 31.4044H5.40243C5.54331 27.6178 6.53694 23.9163 8.30208 20.586C8.80533 20.8814 9.38946 21.0528 10.0128 21.0578ZM38.2643 14.3109C38.9647 15.8106 39.5667 17.4668 40.0636 19.2434C37.0756 20.4709 33.845 21.1152 30.5075 21.1152C29.6665 21.1152 28.8237 21.0725 27.9879 20.9893C28.6454 20.8563 29.2495 20.534 29.7341 20.0493C30.3848 19.3985 30.7431 18.5334 30.7431 17.6133C30.7431 16.9721 30.5666 16.3718 30.2606 15.857V9.86933C30.2606 8.9647 30.1359 8.08906 29.9069 7.25618C30.1072 7.23118 30.3077 7.21831 30.5076 7.21831C33.332 7.21831 36.1593 9.80345 38.2643 14.3109ZM28.868 17.6133C28.868 18.0326 28.7046 18.4269 28.408 18.7235C28.1395 18.9921 27.7897 19.15 27.4137 19.1778V16.047C28.2256 16.1078 28.868 16.7861 28.868 17.6133ZM26.872 22.7454C28.0726 22.9071 29.2917 22.9902 30.5075 22.9902C34.0019 22.9902 37.3874 22.3333 40.529 21.0797C41.259 24.2627 41.6717 27.7647 41.7322 31.4046H19.2854C19.3019 30.4317 19.3447 29.4606 19.4119 28.4992C22.8416 28.2043 25.7186 25.8902 26.872 22.7454ZM49.1499 15.5179C52.9806 19.7584 55.3872 25.3074 55.6122 31.4045H43.6075C43.5442 27.4941 43.0863 23.7263 42.2735 20.3107C44.7729 19.0986 47.0895 17.4896 49.1499 15.5179ZM51.3414 34.2559H45.491C44.8409 34.2559 44.1991 34.3261 43.575 34.461C43.5895 34.0676 43.6011 33.6738 43.6076 33.2795H55.6128C55.5883 33.94 55.5379 34.5994 55.4622 35.2542C54.2139 34.6141 52.8089 34.2559 51.3414 34.2559ZM47.8429 14.1735C46.02 15.9156 43.9817 17.352 41.7871 18.4569C41.278 16.6856 40.6685 15.0275 39.9633 13.5174C38.8439 11.1205 37.5388 9.2152 36.1069 7.84794C40.5918 8.87282 44.6237 11.1007 47.8429 14.1735ZM16.9445 1.87501H20.3923C24.7998 1.87501 28.3855 5.46117 28.3855 9.86933V14.3435C28.0784 14.2409 27.7522 14.1805 27.4139 14.169V11.8601C27.4139 11.5606 27.2706 11.2791 27.0287 11.1026C26.7866 10.9261 26.4751 10.8758 26.1896 10.9675C22.4882 12.1565 18.9148 11.9106 15.5681 10.2373C13.0366 8.97145 11.5847 7.31806 11.5716 7.30306C11.3232 7.01406 10.9242 6.90455 10.563 7.02581C10.2015 7.14693 9.94959 7.47493 9.92534 7.85531C9.92271 7.89644 9.92221 7.90619 9.92221 11.8601V14.1689C9.58759 14.1801 9.26146 14.2389 8.95121 14.3417V9.86933C8.95121 5.46117 12.537 1.87501 16.9445 1.87501ZM13.1094 50.4496C14.9401 48.6876 16.9898 47.2359 19.1982 46.1201C19.7133 47.9319 20.3334 49.6264 21.0528 51.167C22.1721 53.564 23.4772 55.4694 24.909 56.8367C20.3943 55.8052 16.3391 53.554 13.1094 50.4496ZM37.3323 55.4934C37.6261 55.7923 37.9738 56.0374 38.3594 56.2141C37.6146 56.4594 36.8602 56.6702 36.097 56.8436C36.5198 56.4404 36.9322 55.9907 37.3323 55.4934ZM55.2813 55.1622C55.2813 58.9733 52.2254 62.0967 48.4691 62.1247C48.4514 62.1249 48.434 62.125 48.4163 62.125C46.5919 62.125 44.8765 61.4186 43.5806 60.1325C42.2722 58.8337 41.5517 57.1034 41.5517 55.2601V47.2009C43.0949 47.1774 44.4291 46.2772 45.0776 44.9775C46.0405 45.6561 47.1956 46.0272 48.4134 46.0272C49.6308 46.0272 50.7859 45.656 51.7488 44.9775C52.3982 46.279 53.7357 47.1799 55.2814 47.2009V55.1622H55.2813ZM58.1557 54.1907C57.886 54.4606 57.5343 54.6186 57.1563 54.6452V51.514C57.9706 51.5723 58.6157 52.2517 58.6157 53.0804C58.6157 53.4998 58.4523 53.8941 58.1557 54.1907Z" fill="#C41230"/>
<path d="M46.1338 52.9677C46.6517 52.9677 47.0713 52.5479 47.0713 52.0302V50.2627C47.0713 49.7449 46.6517 49.3252 46.1338 49.3252C45.6159 49.3252 45.1963 49.7449 45.1963 50.2627V52.0302C45.1963 52.5479 45.616 52.9677 46.1338 52.9677Z" fill="#C41230"/>
<path d="M50.6992 52.9677C51.2171 52.9677 51.6367 52.5479 51.6367 52.0302V50.2627C51.6367 49.7449 51.2171 49.3252 50.6992 49.3252C50.1813 49.3252 49.7617 49.7449 49.7617 50.2627V52.0302C49.7617 52.5479 50.1813 52.9677 50.6992 52.9677Z" fill="#C41230"/>
<path d="M50.0829 55.6335C49.6377 56.0788 49.0459 56.3238 48.4164 56.3238C47.7869 56.3238 47.195 56.0787 46.7499 55.6335C46.3837 55.2674 45.7901 55.2674 45.4241 55.6335C45.0579 55.9997 45.0579 56.5932 45.424 56.9593C46.2234 57.7587 47.286 58.1988 48.4164 58.1988C49.5467 58.1988 50.6095 57.7587 51.4087 56.9593C51.7749 56.5932 51.7749 55.9995 51.4086 55.6335C51.0427 55.2673 50.4491 55.2674 50.0829 55.6335Z" fill="#C41230"/>
</g>
<defs>
<clipPath id="clip0_3140_1448">
<rect width="64" height="64" fill="white"/>
</clipPath>
</defs>
</svg>
