<svg width="64" height="64" viewBox="0 0 64 64" fill="none" xmlns="http://www.w3.org/2000/svg">
<g clip-path="url(#clip0_3179_1422)">
<path d="M59.625 12.5H57.75V10.625C57.75 8.21259 55.7874 6.24998 53.375 6.24998H51.5V5.79348C51.5 2.59899 48.9012 0 45.7067 0H5.79348C2.59899 0 0 2.59899 0 5.79348V53.6632C0 59.363 4.63711 64 10.3368 64H55.875C55.9365 64 55.9969 63.9955 56.0559 63.987C56.2029 63.9956 56.3508 64 56.5 64C60.6355 64 64 60.6355 64 56.5V16.8749C64 14.4626 62.0374 12.5 59.625 12.5ZM10.3368 61.5C6.0156 61.5 2.49999 57.9844 2.49999 53.6632V5.79348C2.49999 3.97736 3.97736 2.49999 5.79348 2.49999H45.7067C47.5227 2.49999 49.0002 3.97736 49.0002 5.79348V56.5C49.0002 58.4191 49.7247 60.1721 50.9145 61.5H10.3368ZM61.5 56.5C61.5 59.257 59.257 61.5 56.5 61.5C53.743 61.5 51.5 59.257 51.5 56.5V8.74997H53.375C54.4089 8.74997 55.25 9.59109 55.25 10.625V56.5C55.25 57.1904 55.8097 57.75 56.5 57.75C57.1904 57.75 57.75 57.1904 57.75 56.5V14.9999H59.625C60.6589 14.9999 61.5 15.8411 61.5 16.8749V56.5Z" fill="#C41230"/>
<path d="M43.7653 45.7437H27.8154C27.1251 45.7437 26.5654 46.3033 26.5654 46.9937C26.5654 47.684 27.1251 48.2437 27.8154 48.2437H43.7653C44.4557 48.2437 45.0153 47.684 45.0153 46.9937C45.0153 46.3033 44.4557 45.7437 43.7653 45.7437Z" fill="#C41230"/>
<path d="M43.7653 51.5688H27.8154C27.1251 51.5688 26.5654 52.1285 26.5654 52.8188C26.5654 53.5092 27.1251 54.0688 27.8154 54.0688H43.7653C44.4557 54.0688 45.0153 53.5092 45.0153 52.8188C45.0153 52.1285 44.4557 51.5688 43.7653 51.5688Z" fill="#C41230"/>
<path d="M43.7656 39.6436H7.5C6.80962 39.6436 6.25 40.2032 6.25 40.8935C6.25 41.5839 6.80962 42.1435 7.5 42.1435H43.7656C44.456 42.1435 45.0156 41.5839 45.0156 40.8935C45.0156 40.2032 44.456 39.6436 43.7656 39.6436Z" fill="#C41230"/>
<path d="M43.7662 33.3936H21.5664C20.876 33.3936 20.3164 33.9532 20.3164 34.6436C20.3164 35.3339 20.876 35.8936 21.5664 35.8936H43.7663C44.4567 35.8936 45.0163 35.3339 45.0163 34.6436C45.0163 33.9532 44.4565 33.3936 43.7662 33.3936Z" fill="#C41230"/>
<path d="M7.5 35.8936H15.316C16.0064 35.8936 16.566 35.3339 16.566 34.6436C16.566 33.9532 16.0064 33.3936 15.316 33.3936H7.5C6.80963 33.3936 6.25 33.9532 6.25 34.6436C6.25 35.3339 6.80963 35.8936 7.5 35.8936Z" fill="#C41230"/>
<path d="M44.0001 6.25H7.5C6.80962 6.25 6.25 6.80962 6.25 7.5V28.3937C6.25 29.084 6.80962 29.6437 7.5 29.6437H44.0001C44.6905 29.6437 45.2501 29.084 45.2501 28.3937V7.5C45.2501 6.80962 44.6905 6.25 44.0001 6.25ZM42.7501 27.1437H8.74999V8.74999H42.7501V27.1437Z" fill="#C41230"/>
<path d="M21.566 45.7437H7.5C6.80963 45.7437 6.25 46.3033 6.25 46.9937V52.8188C6.25 53.5092 6.80963 54.0688 7.5 54.0688H21.566C22.2564 54.0688 22.816 53.5092 22.816 52.8188V46.9937C22.816 46.3033 22.2564 45.7437 21.566 45.7437ZM20.316 51.5687H8.75V48.2435H20.316V51.5687Z" fill="#C41230"/>
</g>
<defs>
<clipPath id="clip0_3179_1422">
<rect width="64" height="64" fill="white"/>
</clipPath>
</defs>
</svg>
