<svg width="64" height="64" viewBox="0 0 64 64" fill="none" xmlns="http://www.w3.org/2000/svg">
<g clip-path="url(#clip0_3179_1419)">
<path d="M61.25 18.8848C62.7666 18.8848 64 17.6514 64 16.1348V13.1348C64 11.6187 62.7666 10.3848 61.25 10.3848C60.2603 10.3848 59.3911 10.9106 58.9067 11.6973H42.9375V10.7163C42.9375 9.01172 41.5508 7.625 39.8462 7.625H39.8193C38.9805 7.625 38.2188 7.96143 37.6616 8.50586C37.1021 7.96143 36.3389 7.625 35.4985 7.625C34.6558 7.625 33.8911 7.96289 33.3315 8.50928C32.7715 7.96289 32.0068 7.625 31.1641 7.625C30.3237 7.625 29.5605 7.96143 29.0015 8.50537C28.4438 7.96143 27.6826 7.625 26.8438 7.625H26.8164C25.1118 7.625 23.7251 9.01172 23.7251 10.7163V11.6973H18.3623C17.8447 11.6973 17.4248 12.1172 17.4248 12.6348C17.4248 13.1528 17.8447 13.5723 18.3623 13.5723H23.7251V13.9575C22.9888 14.2183 22.3564 14.6997 21.9067 15.3223H13.4468L12.937 13.5723H14.6123C15.1304 13.5723 15.5498 13.1528 15.5498 12.6348C15.5498 12.1172 15.1304 11.6973 14.6123 11.6973H5.09326C4.60889 10.9106 3.73975 10.3848 2.75 10.3848C1.2334 10.3848 0 11.6187 0 13.1348V16.1348C0 17.6514 1.2334 18.8848 2.75 18.8848C3.88965 18.8848 4.87012 18.1875 5.28613 17.1973H9.38232L3.30322 38.0723H2.625C1.17773 38.0723 0 39.25 0 40.6973C0 41.6401 0.501465 42.4663 1.25 42.9292V46.0723C1.25 51.793 5.9043 56.4473 11.625 56.4473C17.3457 56.4473 22 51.793 22 46.0723V43.0049C22.8184 42.5601 23.375 41.6924 23.375 40.6973C23.375 39.25 22.1973 38.0723 20.75 38.0723H20.0718L13.9927 17.1973H21.2046C21.1943 17.3115 21.188 17.4268 21.188 17.5439V27.5825C21.188 29.7588 22.4448 31.6465 24.2695 32.5601V50.1973H23.5625C23.0444 50.1973 22.625 50.6172 22.625 51.1348C22.625 51.6528 23.0444 52.0723 23.5625 52.0723H40.4375C40.9556 52.0723 41.375 51.6528 41.375 51.1348C41.375 50.6172 40.9556 50.1973 40.4375 50.1973H39.73V42.3848C39.73 41.8672 39.3105 41.4473 38.7925 41.4473C38.2744 41.4473 37.855 41.8672 37.855 42.3848V50.1973H26.145V33.1128C26.3442 33.1343 26.5464 33.1465 26.752 33.1465H27.3169C27.835 33.1465 28.2544 32.7266 28.2544 32.209C28.2544 31.6909 27.835 31.2715 27.3169 31.2715H26.752C24.7178 31.2715 23.063 29.6167 23.063 27.5825V17.5439C23.063 16.48 23.9282 15.6147 24.9922 15.6147H32.6519C33.3296 15.6147 33.8813 16.166 33.8813 16.8442C33.8813 16.9067 33.8755 16.9673 33.8662 17.0273C33.8638 17.0425 33.8608 17.0576 33.8594 17.0728C33.752 17.6421 33.2515 18.0737 32.6519 18.0737H26.3052C25.7871 18.0737 25.3677 18.4937 25.3677 19.0112V21.1392C25.3677 21.6567 25.7871 22.0767 26.3052 22.0767H26.7559C29.1064 22.0767 31.019 23.9888 31.019 26.3394C31.019 26.8574 31.4385 27.2769 31.9565 27.2769C32.4741 27.2769 32.894 26.8574 32.894 26.3394C32.894 23.1187 30.4004 20.4697 27.2427 20.2207V19.9487H32.6519C33.8633 19.9487 34.9141 19.251 35.4253 18.2363C35.4497 18.2368 35.4741 18.2393 35.4985 18.2393C36.3389 18.2393 37.1021 17.9033 37.6611 17.3589C38.2188 17.9028 38.9805 18.2393 39.8188 18.2393H39.8462C40.022 18.2393 40.1938 18.2236 40.3613 18.1958V27.5825C40.3613 29.6167 38.7065 31.2715 36.6724 31.2715C36.1548 31.2715 35.7349 31.6909 35.7349 32.209C35.7349 32.7266 36.1548 33.1465 36.6724 33.1465C37.0781 33.1465 37.4736 33.1016 37.855 33.0186V38.6348C37.855 39.1528 38.2744 39.5723 38.7925 39.5723C39.3101 39.5723 39.73 39.1528 39.73 38.6348V32.2275C41.2383 31.2314 42.2363 29.522 42.2363 27.5825V17.1973H50.0073L43.9277 38.0723H43.25C41.8027 38.0723 40.625 39.25 40.625 40.6973C40.625 41.6924 41.1816 42.5601 42 43.0049V46.0723C42 51.793 46.6543 56.4473 52.375 56.4473C58.0957 56.4473 62.75 51.793 62.75 46.0723V42.9292C63.4985 42.4663 64 41.6401 64 40.6973C64 39.25 62.8223 38.0723 61.375 38.0723H60.6968L54.6177 17.1973H58.7139C59.1299 18.1875 60.1104 18.8848 61.25 18.8848ZM11.4937 15.3223H5.5V13.5723H10.9839L11.4937 15.3223ZM2.75 17.0098C2.26758 17.0098 1.875 16.6172 1.875 16.1348V13.1348C1.875 12.6523 2.26758 12.2598 2.75 12.2598C3.23242 12.2598 3.625 12.6523 3.625 13.1348V16.1348C3.625 16.6172 3.23242 17.0098 2.75 17.0098ZM20.125 46.0723C20.125 50.7593 16.312 54.5723 11.625 54.5723C6.93799 54.5723 3.125 50.7593 3.125 46.0723V43.3223H20.125V46.0723ZM21.5 40.6973C21.5 41.1108 21.1636 41.4473 20.75 41.4473H2.625C2.21143 41.4473 1.875 41.1108 1.875 40.6973C1.875 40.2837 2.21143 39.9473 2.625 39.9473H20.75C21.1636 39.9473 21.5 40.2837 21.5 40.6973ZM18.1187 38.0723H5.25635L11.3354 17.1973H12.0396L18.1187 38.0723ZM52.5063 15.3223L53.0161 13.5723H58.5V15.3223H52.5063ZM61.25 12.2598C61.7324 12.2598 62.125 12.6523 62.125 13.1348V16.1348C62.125 16.6172 61.7324 17.0098 61.25 17.0098C60.7676 17.0098 60.375 16.6172 60.375 16.1348V13.1348C60.375 12.6523 60.7676 12.2598 61.25 12.2598ZM31.1641 9.5C31.8423 9.5 32.3936 10.0518 32.3936 10.73V13.7397H29.9346V10.73C29.9346 10.0518 30.4863 9.5 31.1641 9.5ZM25.6001 10.7163C25.6001 10.0454 26.1455 9.5 26.8164 9.5H26.8438C27.5142 9.5 28.0596 10.0454 28.0596 10.7163V13.7393H25.6001V10.7163ZM35.7158 16.3442C35.5679 15.4355 35.0249 14.6582 34.269 14.1953V10.73C34.269 10.0518 34.8203 9.5 35.4985 9.5C36.1768 9.5 36.728 10.0518 36.728 10.73V15.1348C36.728 15.7383 36.29 16.2412 35.7158 16.3442ZM39.8193 16.3643C39.1489 16.3643 38.603 15.8188 38.603 15.1484V10.7163C38.603 10.0454 39.1484 9.5 39.8193 9.5H39.8467C40.5171 9.5 41.0625 10.0454 41.0625 10.7163V15.148C41.0625 15.8188 40.5171 16.3643 39.8467 16.3643H39.8193ZM42.9321 15.3223C42.9355 15.2646 42.9375 15.2065 42.9375 15.148V13.5723H51.063L50.5532 15.3223H42.9321ZM60.875 46.0723C60.875 50.7593 57.062 54.5723 52.375 54.5723C47.688 54.5723 43.875 50.7593 43.875 46.0723V43.3223H60.875V46.0723ZM62.125 40.6973C62.125 41.1108 61.7886 41.4473 61.375 41.4473H43.25C42.8364 41.4473 42.5 41.1108 42.5 40.6973C42.5 40.2837 42.8364 39.9473 43.25 39.9473H61.375C61.7886 39.9473 62.125 40.2837 62.125 40.6973ZM58.7437 38.0723H45.8813L51.9604 17.1973H52.6646L58.7437 38.0723Z" fill="#C41230"/>
</g>
<defs>
<clipPath id="clip0_3179_1419">
<rect width="64" height="64" fill="white"/>
</clipPath>
</defs>
</svg>
