<svg width="64" height="64" viewBox="0 0 64 64" fill="none" xmlns="http://www.w3.org/2000/svg">
<g clip-path="url(#clip0_2901_1571)">
<path d="M49.4953 0H45.6128C39.8485 0 32.7836 5.64975 33.9299 12.0324C33.1255 13.0616 32.4823 14.1868 32.0001 15.4076C31.5179 14.1866 30.8745 13.0614 30.07 12.0319C31.2164 5.63675 24.1698 0.000125 18.3876 0.000125H14.5049C13.5055 0.000125 12.6924 0.81325 12.6924 1.81263C12.6924 8.27 17.9458 13.5235 24.4033 13.5235C25.6999 13.5686 27.5201 13.8321 28.8046 13.4479C30.0678 15.1588 30.8484 17.2084 31.0245 19.3993H26.1908C24.5953 19.3993 23.2973 20.6974 23.2973 22.2929C23.2973 23.555 24.1096 24.6311 25.239 25.0256V29.9574C25.239 30.4753 25.6586 30.8949 26.1765 30.8949C26.6944 30.8949 27.114 30.4753 27.114 29.9574V25.1865H31.1301V42.7113H25.6215C25.438 42.7113 25.2588 42.7651 25.1055 42.866C21.5605 45.2026 19.444 49.1237 19.444 53.3549C19.444 55.1155 19.7961 56.8105 20.4909 58.3936C20.9434 59.4225 21.9564 60.0875 23.0716 60.0875H30.0254C30.5433 60.0875 30.9629 59.6679 30.9629 59.15C30.9629 58.6321 30.5433 58.2125 30.0254 58.2125H23.0716C22.6998 58.2125 22.3606 57.9873 22.2076 57.6395C21.618 56.2961 21.3191 54.8546 21.3191 53.355C21.3191 49.848 23.0299 46.5906 25.9091 44.5864H31.1304V50.4765H28.1176C27.5998 50.4765 27.1801 50.8961 27.1801 51.414C27.1801 51.9319 27.5998 52.3515 28.1176 52.3515H31.1304V55.2967C31.1304 55.8146 31.55 56.2342 32.0679 56.2342C32.5858 56.2342 33.0054 55.8146 33.0054 55.2967V48.4686H33.9419C34.4598 48.4686 34.8794 48.049 34.8794 47.5311C34.8794 47.0132 34.4598 46.5936 33.9419 46.5936H33.0054V44.5863H38.0918C40.971 46.5905 42.6818 49.848 42.6818 53.3549C42.6818 54.8545 42.3828 56.296 41.7936 57.6387C41.6403 57.9872 41.3011 58.2125 40.9293 58.2125H34.1105C33.5926 58.2125 33.173 58.6321 33.173 59.15C33.173 59.6679 33.5926 60.0875 34.1105 60.0875H40.9293C42.0445 60.0875 43.0574 59.4226 43.5103 58.3929C44.2046 56.8105 44.5568 55.1155 44.5568 53.3549C44.5568 49.1237 42.4403 45.2026 38.8953 42.866C38.742 42.765 38.5628 42.7113 38.3793 42.7113H33.0051V25.1866H36.8865V27.1798H35.8831C35.3653 27.1798 34.9456 27.5994 34.9456 28.1173C34.9456 28.6351 35.3653 29.0548 35.8831 29.0548H36.8865V30.9989H35.8831C35.3653 30.9989 34.9456 31.4185 34.9456 31.9364C34.9456 32.4543 35.3653 32.8739 35.8831 32.8739H36.8865V34.9601H35.8831C35.3653 34.9601 34.9456 35.3797 34.9456 35.8976C34.9456 36.4155 35.3653 36.8351 35.8831 36.8351H36.8955C36.9936 38.4339 37.897 39.9024 39.303 40.7175C43.8004 43.3219 46.5941 48.1642 46.5941 53.355C46.5941 55.9201 45.9189 58.4439 44.6413 60.6534C44.1164 61.561 43.1404 62.125 42.094 62.125H21.9065C20.8601 62.125 19.8841 61.561 19.3593 60.6534C18.0818 58.4439 17.4065 55.9202 17.4065 53.355C17.4065 48.1644 20.2004 43.3219 24.698 40.7173C26.1883 39.8534 27.114 38.2547 27.114 36.545V34.0425C27.114 33.5246 26.6944 33.105 26.1765 33.105C25.6586 33.105 25.239 33.5246 25.239 34.0425V36.5451C25.239 37.5885 24.6714 38.5655 23.7579 39.095C18.6836 42.0335 15.5314 47.4976 15.5314 53.355C15.5314 56.2492 16.2938 59.0975 17.736 61.5919C18.5948 63.0774 20.1928 64.0001 21.9064 64.0001H42.0939C43.8075 64.0001 45.4055 63.0774 46.2643 61.5919C47.7065 59.0976 48.4689 56.2494 48.4689 53.355C48.4689 47.4976 45.3166 42.0335 40.2428 39.0952C39.3289 38.5655 38.7613 37.5884 38.7613 36.5451V25.0259C39.8908 24.6314 40.7031 23.5554 40.7031 22.2931C40.7031 20.6975 39.405 19.3995 37.8095 19.3995H32.9758C33.1519 17.2086 33.9324 15.1593 35.1954 13.4484C36.4716 13.83 38.2746 13.56 39.5975 13.5239C41.6935 13.5239 43.749 12.9635 45.5421 11.9032C45.9878 11.6397 46.1355 11.0648 45.872 10.6191C45.6084 10.1735 45.0336 10.026 44.5879 10.2893C43.0836 11.1788 41.358 11.6489 39.5976 11.6489H36.8451C38.869 9.863 41.679 8.79488 44.0679 7.60038C44.5309 7.36875 44.7186 6.80575 44.4871 6.34263C44.2555 5.87963 43.6928 5.69213 43.2294 5.92338C40.8018 7.13725 38.0289 8.22513 35.929 9.972C36.2778 8.0065 37.2169 6.19687 38.6584 4.7555C40.5156 2.898 42.9855 1.875 45.6128 1.875H49.4325C49.4193 4.047 48.713 6.10063 47.3881 7.81725C47.0719 8.227 47.1476 8.81575 47.5575 9.13225C47.9671 9.44825 48.556 9.37288 48.8725 8.96288C50.4656 6.89863 51.3078 4.42613 51.3078 1.81263C51.3078 0.813125 50.4946 0 49.4953 0V0ZM14.5678 1.87525H18.3879C23.2174 1.87525 27.2451 5.374 28.0694 9.97C25.9673 8.22188 23.1969 7.13613 20.7714 5.92325C20.3081 5.6915 19.745 5.87938 19.5136 6.3425C19.282 6.80562 19.4698 7.36875 19.9329 7.60025C22.3234 8.7955 25.1345 9.86538 27.1554 11.6485H24.4036C19.0008 11.6485 14.6015 7.27 14.5678 1.87525ZM26.1908 21.2744H31.1301V23.3113H26.1765C26.1741 23.3113 26.1716 23.3114 26.1693 23.3114C25.6175 23.2999 25.1723 22.8475 25.1723 22.2931C25.1723 21.7315 25.6291 21.2744 26.1908 21.2744ZM38.8284 22.2931C38.8284 22.8476 38.383 23.2999 37.8313 23.3114C37.8289 23.3114 37.8264 23.3113 37.824 23.3113H33.0051V21.2744H37.8098C38.3714 21.2744 38.8284 21.7315 38.8284 22.2931Z" fill="#C41230"/>
</g>
<defs>
<clipPath id="clip0_2901_1571">
<rect width="64" height="64" fill="white"/>
</clipPath>
</defs>
</svg>
