<svg width="64" height="64" viewBox="0 0 64 64" fill="none" xmlns="http://www.w3.org/2000/svg">
<g clip-path="url(#clip0_2906_1704)">
<path d="M19.4826 20.6542H25.3454C25.6532 20.6542 25.9416 20.5031 26.1167 20.2499C26.2917 19.9966 26.3313 19.6736 26.2227 19.3855L23.3048 11.6535C23.1671 11.2889 22.8186 11.0475 22.4289 11.0469C22.4284 11.0469 22.428 11.0469 22.4275 11.0469C22.0384 11.0469 21.6898 11.2872 21.5512 11.6509L18.6063 19.3829C18.4966 19.671 18.5356 19.9949 18.7105 20.2488C18.8855 20.5026 19.1742 20.6542 19.4826 20.6542ZM22.4234 14.6295L23.9893 18.7789H20.843L22.4234 14.6295Z" fill="#C41230"/>
<path d="M51.8689 23.8052H43.7011V10.4919C43.7011 4.70672 38.9939 0 33.208 0H12.1318C6.34589 0 1.63867 4.7066 1.63867 10.4919V23.893C1.63867 28.6672 4.86188 32.8101 9.40757 34.0259V36.9804C9.40757 38.2011 10.0848 39.3003 11.1753 39.8492C12.2608 40.3963 13.5499 40.2896 14.5334 39.56L20.2997 35.2812V47.6981C20.2997 53.484 25.0069 58.1912 30.7928 58.1912H42.4951L49.468 63.3654C50.4519 64.0949 51.7409 64.2013 52.8265 63.6539C53.9163 63.1051 54.5933 62.006 54.5933 60.7854V57.8305C56.1565 57.4112 57.6075 56.6319 58.8271 55.5511C59.2146 55.2077 59.2504 54.6151 58.907 54.2275C58.5635 53.8399 57.9708 53.8042 57.5834 54.1476C56.4206 55.1779 55.0021 55.8745 53.4814 56.1622C53.0385 56.2459 52.718 56.6329 52.718 57.0835V60.7854C52.718 61.3011 52.4432 61.7472 51.9831 61.979C51.5223 62.2112 50.9994 62.166 50.5851 61.859L43.3638 56.5005C43.2023 56.3806 43.0064 56.3159 42.8051 56.3159H30.7929C26.0411 56.3159 22.1751 52.4499 22.1751 47.6981V34.2969C22.1751 29.5458 26.0411 25.6804 30.7929 25.6804H51.8692C56.6211 25.6804 60.487 29.5457 60.487 34.2969V47.6981C60.487 49.0151 60.1978 50.2779 59.6275 51.4514C59.4011 51.9172 59.5952 52.4782 60.0609 52.7046C60.5268 52.9309 61.0877 52.7369 61.3141 52.2711C62.0096 50.84 62.3623 49.3015 62.3623 47.6979V34.2968C62.3621 28.5118 57.6549 23.8052 51.8689 23.8052ZM20.3989 32.8723L13.416 38.0538C13.0018 38.3611 12.4792 38.4059 12.0184 38.174C11.5578 37.9422 11.2829 37.496 11.2829 36.9804V33.2785C11.2829 32.8278 10.9623 32.4408 10.5195 32.3571C6.46029 31.5896 3.51401 28.0299 3.51401 23.893V10.4919C3.51401 5.74078 7.37995 1.87534 12.1318 1.87534H33.2081C37.9599 1.87534 41.8259 5.74066 41.8259 10.4919V23.8052H32.0899L25.552 6.48079C25.5443 6.45991 25.536 6.43891 25.5272 6.4174L25.5188 6.39652C25.0025 5.1413 23.7915 4.3304 22.43 4.3304C21.071 4.33215 19.8603 5.14567 19.3485 6.39615C19.3407 6.41465 19.3336 6.43303 19.3297 6.44416C19.3262 6.45253 19.3228 6.46116 19.3196 6.46966L17.6418 10.8767C17.4575 11.3607 17.7006 11.9024 18.1845 12.0867C18.6689 12.2711 19.2102 12.0279 19.3945 11.544L21.0692 7.14516C21.0734 7.13453 21.0777 7.12328 21.0824 7.11065C21.3086 6.56143 21.8382 6.20637 22.4339 6.20562C23.0285 6.20562 23.5587 6.56055 23.7805 7.0994L23.7907 7.12366C23.7924 7.12853 23.7942 7.13328 23.7959 7.13803L30.0955 23.8308C29.386 23.8777 28.6958 23.9949 28.0314 24.1765L27.7059 23.3139C27.5681 22.949 27.2188 22.7073 26.8286 22.7073H17.9857C17.5967 22.7073 17.248 22.9476 17.1095 23.3113L15.8006 26.7481C15.5989 27.2769 15.0047 27.5438 14.4764 27.3433C13.9471 27.1418 13.6802 26.5466 13.8811 26.0178L18.0594 15.0483C18.2438 14.5644 18.0009 14.0226 17.5169 13.8384C17.0328 13.6538 16.4912 13.8969 16.3069 14.3808L12.1284 25.3511C11.5605 26.8465 12.3143 28.5263 13.8097 29.096C14.1477 29.2244 14.4947 29.2851 14.8365 29.2851C16.0066 29.285 17.1125 28.572 17.5532 27.4156L18.6321 24.5825H26.1803L26.2736 24.8296C23.1527 26.3251 20.8838 29.3186 20.3989 32.8723Z" fill="#C41230"/>
<path d="M50.4953 39.4535C52.0066 39.4535 53.2362 38.224 53.2362 36.7126C53.2362 35.2012 52.0067 33.9718 50.4953 33.9718H44.0719V30.8004C44.0719 29.2892 42.8424 28.0596 41.331 28.0596C39.8196 28.0596 38.5902 29.289 38.5902 30.8004V33.9718H32.1666C30.6554 33.9718 29.4258 35.2012 29.4258 36.7126C29.4258 38.224 30.6553 39.4535 32.1666 39.4535H34.6991C35.0978 41.6979 35.9856 43.8258 37.3019 45.6952C35.8468 46.4661 34.2278 46.8698 32.5652 46.8698C31.0539 46.8698 29.8244 48.0993 29.8244 49.6107C29.8244 51.1221 31.0538 52.3516 32.5652 52.3516C35.7214 52.3516 38.7373 51.4226 41.3308 49.6583C43.9244 51.4226 46.9403 52.3516 50.0965 52.3516C51.6078 52.3516 52.8374 51.1221 52.8374 49.6107C52.8374 48.0993 51.6079 46.8698 50.0965 46.8698C48.4339 46.8698 46.8149 46.4661 45.3598 45.6952C46.6761 43.8258 47.5639 41.6979 47.9626 39.4535H50.4953ZM46.2251 38.4016C45.9114 40.9545 44.8837 43.3654 43.2529 45.3737C43.0862 45.579 43.014 45.845 43.0539 46.1063C43.0937 46.3677 43.2421 46.6 43.4626 46.7462C45.4343 48.0538 47.7284 48.745 50.0966 48.745C50.5738 48.745 50.9622 49.1332 50.9622 49.6106C50.9622 50.0879 50.574 50.4761 50.0966 50.4761C47.1172 50.4761 44.28 49.5353 41.8913 47.7555C41.725 47.6316 41.528 47.5697 41.331 47.5697C41.1341 47.5697 40.937 47.6316 40.7708 47.7555C38.3823 49.5353 35.5449 50.4761 32.5655 50.4761C32.0883 50.4761 31.6999 50.0879 31.6999 49.6106C31.6999 49.1332 32.0881 48.745 32.5655 48.745C34.9338 48.745 37.2278 48.0538 39.1995 46.7462C39.4198 46.6 39.5682 46.3677 39.6082 46.1063C39.6481 45.845 39.5759 45.5788 39.4092 45.3737C37.7784 43.3654 36.7506 40.9545 36.4369 38.4016C36.3792 37.9315 35.98 37.5783 35.5062 37.5783H32.1668C31.6896 37.5783 31.3012 37.1901 31.3012 36.7128C31.3012 36.2354 31.6894 35.8472 32.1668 35.8472H39.528C40.0458 35.8472 40.4656 35.4274 40.4656 34.9096V30.8004C40.4656 30.3232 40.8538 29.9349 41.3312 29.9349C41.8085 29.9349 42.1967 30.3231 42.1967 30.8004V34.9094C42.1967 35.4273 42.6165 35.8471 43.1344 35.8471H50.4954C50.9727 35.8471 51.361 36.2353 51.361 36.7126C51.361 37.19 50.9728 37.5782 50.4954 37.5782H47.1558C46.682 37.5782 46.2828 37.9313 46.2251 38.4016Z" fill="#C41230"/>
<path d="M43.5123 37.5781H39.1486C38.8733 37.5781 38.612 37.699 38.4339 37.9088C38.2557 38.1186 38.1787 38.396 38.2233 38.6677C38.5457 40.6307 39.3639 42.5026 40.5899 44.0809C40.7676 44.3096 41.0409 44.4434 41.3304 44.4434C41.62 44.4434 41.8933 44.3096 42.0709 44.0809C43.297 42.5025 44.1153 40.6307 44.4376 38.6677C44.4821 38.3961 44.4052 38.1186 44.2271 37.9088C44.0488 37.6991 43.7875 37.5781 43.5123 37.5781ZM41.3304 41.8368C40.892 41.0884 40.5504 40.2862 40.3161 39.4536H42.3448C42.1104 40.2861 41.7689 41.0884 41.3304 41.8368Z" fill="#C41230"/>
</g>
<defs>
<clipPath id="clip0_2906_1704">
<rect width="64" height="64" fill="white"/>
</clipPath>
</defs>
</svg>
