<svg width="64" height="64" viewBox="0 0 64 64" fill="none" xmlns="http://www.w3.org/2000/svg">
<g clip-path="url(#clip0_3179_1413)">
<path d="M62.717 50.2367L47.1853 34.7049C46.6973 34.2171 45.9055 34.2171 45.4174 34.7049L44.0825 36.0399L41.147 33.1045C47.3698 26.2283 47.1998 15.5822 40.5287 8.91209C33.6634 2.04673 22.5514 2.04573 15.685 8.91209C9.99808 14.599 8.9648 23.3434 12.8928 30.1244H3.76025C1.68693 30.1244 0 31.8112 0 33.8847V51.4566C0 53.5301 1.68693 55.217 3.76025 55.217H4.24289L6.40759 59.5465C6.74347 60.2184 7.5935 60.4447 8.21902 60.0277L15.435 55.2171H18.8219C20.8953 55.2171 22.5823 53.5302 22.5823 51.4568V38.0126C28.1389 39.8569 34.5326 38.849 39.3421 34.8352L42.3147 37.8077L40.9797 39.1426C40.4916 39.6307 40.4916 40.4223 40.9797 40.9105L56.5114 56.4422C58.2224 58.1531 61.0059 58.153 62.7168 56.4422C64.4278 54.7311 64.4276 51.9475 62.717 50.2367ZM20.0823 51.4566C20.0823 52.1515 19.5169 52.7169 18.822 52.7169H15.0566C14.8099 52.7169 14.5686 52.7899 14.3632 52.9269L8.01052 57.1619L6.13345 53.4081C5.9217 52.9844 5.48881 52.717 5.01542 52.717H3.76025C3.06535 52.717 2.50008 52.1516 2.50008 51.4568V33.8847C2.50008 33.1898 3.06535 32.6245 3.76025 32.6245H18.822C19.5169 32.6245 20.0823 33.1898 20.0823 33.8847V51.4566ZM22.5824 35.3505V33.8845C22.5824 31.8111 20.8954 30.1243 18.822 30.1243H15.8689C11.5801 24.173 12.2168 15.9159 17.453 10.6798C23.3413 4.79145 32.8718 4.79057 38.761 10.6798C44.6491 16.5668 44.6501 26.0985 38.7609 31.9865C34.5239 36.2237 28.1139 37.527 22.5824 35.3505ZM60.9492 54.6744C60.213 55.4103 59.0152 55.4103 58.2793 54.6742L43.6317 40.0266C44.5262 39.1322 45.3098 38.3486 46.3014 37.3568L60.9492 52.0046C61.6852 52.7407 61.6851 53.9383 60.9492 54.6744Z" fill="#C41230"/>
<path d="M33.5232 26.4233C33.3159 26.3312 31.494 25.9123 29.7522 24.28C30.8673 22.6877 31.586 20.8167 31.7991 18.8179H33.1277C33.818 18.8179 34.3777 18.2583 34.3777 17.5679C34.3777 16.8775 33.818 16.3178 33.1277 16.3178H29.3571V15.0577C29.3571 14.3674 28.7975 13.8076 28.1071 13.8076C27.4167 13.8076 26.8571 14.3674 26.8571 15.0577V16.3178H23.0864C22.396 16.3178 21.8364 16.8775 21.8364 17.5679C21.8364 18.2583 22.396 18.8179 23.0864 18.8179H24.415C24.6281 20.8167 25.3468 22.6877 26.4618 24.28C24.7194 25.9128 22.8969 26.3315 22.6908 26.4233C22.0359 26.6418 21.682 27.3497 21.9005 28.0046C22.1183 28.6574 22.8244 29.014 23.4818 28.7949C23.7062 28.6947 25.9368 28.1665 28.1069 26.1633C30.2759 28.1655 32.5101 28.696 32.7319 28.7949C33.391 29.0144 34.0961 28.6557 34.3132 28.0046C34.5319 27.3498 34.1781 26.6418 33.5232 26.4233ZM29.281 18.818C29.1151 20.0352 28.7104 21.187 28.107 22.2171C27.5037 21.187 27.0989 20.0352 26.9331 18.818H29.281Z" fill="#C41230"/>
<path d="M12.7336 36.0903C12.4941 35.5159 11.9367 35.145 11.3132 35.145C10.668 35.1456 10.1039 35.5419 9.88018 36.1218L5.10465 48.4963C4.85614 49.1404 5.17677 49.864 5.82079 50.1126C6.46507 50.3613 7.18847 50.0405 7.4371 49.3966L8.31775 47.1147H14.2733L15.1445 49.393C15.3899 50.0348 16.1106 50.3619 16.7585 50.1143C17.4034 49.8676 17.7262 49.145 17.4797 48.5002C12.5059 35.4939 12.7461 36.1205 12.7336 36.0903ZM9.28253 44.6146L11.3091 39.3632L13.3172 44.6146H9.28253Z" fill="#C41230"/>
</g>
<defs>
<clipPath id="clip0_3179_1413">
<rect width="64" height="64" fill="white"/>
</clipPath>
</defs>
</svg>
