<svg width="64" height="64" viewBox="0 0 64 64" fill="none" xmlns="http://www.w3.org/2000/svg">
<path d="M56.3191 14.7623H47.8921V5.86918C47.8921 4.44961 46.731 3.29455 45.3038 3.29455H43.9121V2.00375C43.912 0.898895 43.0132 0 41.9084 0H21.4845C20.3796 0 19.4807 0.898895 19.4807 2.00375V3.29468H18.2651C16.8379 3.29468 15.6769 4.44961 15.6769 5.86931V14.7626H7.6809C4.30663 14.7626 1.56152 17.4884 1.56152 20.8388V25.346C1.56152 25.871 1.98714 26.2966 2.51213 26.2966C3.03712 26.2966 3.46274 25.871 3.46274 25.346V20.8388C3.46274 18.5367 5.35496 16.6638 7.6809 16.6638H56.3191C58.645 16.6638 60.5372 18.5367 60.5372 20.8388V41.6559C60.5372 42.9437 59.9504 44.14 58.9268 44.9384C58.1788 45.5223 57.277 45.831 56.3191 45.831H39.0592V44.2518C39.0592 42.7372 37.827 41.5051 36.3125 41.5051H26.1246C24.61 41.5051 23.3778 42.7373 23.3778 44.2518V45.831H7.6809C6.72282 45.831 5.82113 45.5223 5.07282 44.9383C4.04958 44.1399 3.46274 42.9435 3.46274 41.6556V29.7819C3.46274 29.2569 3.03712 28.8313 2.51213 28.8313C1.98714 28.8313 1.56152 29.2569 1.56152 29.7819V41.6556C1.56152 43.3729 2.27727 44.9758 3.53752 46.1253V57.9237C3.53752 61.2742 6.28262 64 9.6569 64H54.3443C57.7179 64 60.4625 61.2742 60.4625 57.9237V55.5751C60.4625 55.0501 60.037 54.6245 59.5119 54.6245C58.9867 54.6245 58.5612 55.0501 58.5612 55.5751V57.9237C58.5612 60.2258 56.6695 62.0988 54.3443 62.0988H9.6569C7.33095 62.0988 5.43874 60.2258 5.43874 57.9237V47.3138C6.14396 47.5896 6.89976 47.7319 7.6809 47.7319H23.3778V48.9253C23.3778 50.4398 24.6101 51.672 26.1246 51.672H36.3125C37.827 51.672 39.0592 50.4398 39.0592 48.9253V47.7319H56.3191C57.1002 47.7319 57.856 47.5896 58.5611 47.3138V51.2657C58.5611 51.7906 58.9866 52.2163 59.5117 52.2163C60.0368 52.2163 60.4623 51.7906 60.4623 51.2657V46.1253C61.7227 44.9755 62.4385 43.3727 62.4385 41.6556V20.8386C62.4385 17.4881 59.6934 14.7623 56.3191 14.7623ZM21.382 2.00375C21.382 1.94723 21.428 1.90122 21.4845 1.90122H41.9084C41.9649 1.90122 42.0109 1.94723 42.0109 2.00375V5.94231C42.0109 5.99884 41.965 6.04485 41.9084 6.04485H21.4845C21.428 6.04485 21.382 5.99884 21.382 5.94231V2.00375ZM17.578 5.86918C17.578 5.49794 17.8863 5.19577 18.265 5.19577H19.4806V5.94219C19.4806 7.04705 20.3795 7.94594 21.4844 7.94594H41.9082C43.0131 7.94594 43.912 7.04705 43.912 5.94219V5.19577H45.3037C45.6825 5.19577 45.9908 5.49781 45.9908 5.86918V14.7624H17.578V5.86918ZM37.158 48.9253C37.158 49.3914 36.7788 49.7708 36.3125 49.7708H26.1246C25.6583 49.7708 25.2791 49.3914 25.2791 48.9253V44.2516C25.2791 43.7853 25.6584 43.406 26.1246 43.406H36.3125C36.7788 43.406 37.158 43.7854 37.158 44.2516V48.9253Z" fill="#C41230"/>
</svg>
