<svg width="64" height="64" viewBox="0 0 64 64" fill="none" xmlns="http://www.w3.org/2000/svg">
<path d="M57.4375 48.0625H59.3125V49.9375H57.4375V48.0625Z" fill="#C41230"/>
<path d="M64 31.0625C64 28.2804 61.9692 25.9649 59.3125 25.5171V7.5C59.3125 6.01813 58.1069 4.8125 56.625 4.8125H54.5C53.1493 4.8125 52.0312 5.81512 51.8434 7.11475C46.1852 13.6955 36.5002 19.5021 27.894 21.5101C27.4615 20.5124 26.4672 19.8125 25.3124 19.8125H8.43738C7.21525 19.8125 6.17325 20.5964 5.78625 21.6875H4.6875C2.10275 21.6875 0 23.7903 0 26.375V35.75C0 38.3348 2.10275 40.4375 4.6875 40.4375H5.78625C6.17325 41.5286 7.21525 42.3125 8.43738 42.3125H10.3125V50.75C10.3125 55.4025 14.0975 59.1875 18.75 59.1875H19.6875V51.6875H18.75C18.2505 51.6875 17.8124 51.2494 17.8124 50.75V47.9375H18.75C21.3346 47.9375 23.4374 45.8348 23.4374 43.25V42.3125H25.3124C26.4672 42.3125 27.4615 41.6126 27.894 40.6149C36.5001 42.6229 46.1852 48.4295 51.8434 55.0103C52.0312 56.3099 53.1493 57.3125 54.5 57.3125H56.625C58.1069 57.3125 59.3125 56.1069 59.3125 54.625V51.8125H57.4375V54.625C57.4375 55.073 57.073 55.4375 56.625 55.4375H54.5C54.052 55.4375 53.6875 55.073 53.6875 54.625V7.5C53.6875 7.052 54.052 6.6875 54.5 6.6875H56.625C57.073 6.6875 57.4375 7.052 57.4375 7.5V46.1875H59.3125V36.6079C61.9692 36.1601 64 33.8446 64 31.0625ZM17.8125 53.4019V57.2458C14.6365 56.7895 12.1875 54.0504 12.1875 50.75V42.3125H15.9374V50.75C15.9374 51.9723 16.7211 53.0149 17.8125 53.4019ZM21.5624 43.25C21.5624 44.8008 20.3008 46.0625 18.75 46.0625H17.8124V42.3125H21.5624V43.25ZM26.25 39.5C26.25 40.017 25.8294 40.4375 25.3124 40.4375H17.8124H10.3125H8.43738C7.9205 40.4375 7.5 40.017 7.5 39.5V32H5.625V38.5625H4.6875C3.13675 38.5625 1.875 37.3008 1.875 35.75V26.375C1.875 24.8242 3.13675 23.5625 4.6875 23.5625H5.625V30.125H7.5V22.625C7.5 22.108 7.9205 21.6875 8.43738 21.6875H25.3124C25.8294 21.6875 26.25 22.108 26.25 22.625V39.5ZM28.125 38.7449V23.3801C36.4398 21.4866 45.756 16.1601 51.8125 9.92425V52.2007C45.756 45.9649 36.4398 40.6385 28.125 38.7449ZM59.3125 34.6939V27.4312C60.9281 27.8486 62.125 29.3185 62.125 31.0626C62.125 32.8068 60.9281 34.2765 59.3125 34.6939Z" fill="#C41230"/>
<path d="M10.3125 34.8125H19.6875V36.6875H10.3125V34.8125Z" fill="#C41230"/>
<path d="M10.3125 30.125H19.6875V32H10.3125V30.125Z" fill="#C41230"/>
<path d="M10.3125 25.4375H19.6875V27.3125H10.3125V25.4375Z" fill="#C41230"/>
<path d="M48.0732 16.4175H49.9482V18.2925H48.0732V16.4175Z" fill="#C41230"/>
<path d="M44.3232 18.2925H46.1982V20.1675H44.3232V18.2925Z" fill="#C41230"/>
</svg>
