<svg width="64" height="64" viewBox="0 0 64 64" fill="none" xmlns="http://www.w3.org/2000/svg">
<path d="M61.4894 43.3813C59.4601 42.2095 56.9254 42.6818 55.4371 44.3817L50.201 41.3589C51.095 38.6567 49.364 35.659 46.5504 35.1025V29.022C49.4145 28.4954 51.1893 25.4714 50.2546 22.7157L55.5303 19.6699C57.0215 21.3797 59.5829 21.8255 61.5838 20.6702C63.8918 19.3377 64.6855 16.3758 63.3529 14.0678C62.0203 11.7597 59.0581 10.9662 56.7504 12.2987C56.2929 12.5628 55.8888 12.8934 55.548 13.2772L50.2545 10.221C50.6861 8.94816 50.5894 7.50291 49.8661 6.25016C48.5335 3.94216 45.5714 3.14853 43.2636 4.48103C40.9556 5.81366 40.162 8.77541 41.4946 11.0834C43.0976 13.8602 47.203 14.2698 49.3171 11.8508L54.6004 14.9009C54.2545 15.9023 54.251 16.9493 54.5901 18.0418L49.3171 21.086C47.4446 18.9435 43.8679 18.9612 42.0203 21.1113L38.4653 19.0594C38.8529 18.0954 39.0188 17.1129 38.9629 16.1119C38.9311 15.5937 38.4815 15.1979 37.9671 15.231C37.4489 15.2628 37.0545 15.7085 37.0863 16.2267C37.136 17.0354 36.7571 18.2577 36.367 18.9337C33.926 23.1643 27.2933 21.3599 27.2933 16.4838C27.2933 13.7815 29.4916 11.583 32.1939 11.583C33.5301 11.583 34.7775 12.1109 35.7064 13.0694C36.0676 13.4423 36.6626 13.4515 37.0356 13.0903C37.4085 12.7289 37.4178 12.1339 37.0564 11.761C35.7704 10.4338 34.0434 9.70291 32.1938 9.70291C28.4548 9.70291 25.413 12.7448 25.413 16.4837C25.413 17.3455 25.5748 18.1703 25.8694 18.9294L22.2724 21.006C20.326 18.8789 16.8399 18.9664 15.0013 21.1662L9.64639 18.0752C9.99764 16.9682 9.99727 15.9074 9.64502 14.8929L14.9996 11.802C17.1028 14.3104 21.2325 13.9893 22.8929 11.1139C24.2255 8.80578 23.4316 5.84403 21.1238 4.51153C18.8158 3.17891 15.854 3.97278 14.5214 6.28066C13.8965 7.36291 13.7158 8.93678 14.0979 10.1519L8.69452 13.2709C6.57252 10.8894 2.49264 11.3007 0.895394 14.0677C-0.423106 16.3514 0.380769 19.3515 2.66439 20.67C4.61077 21.7937 7.18939 21.3968 8.69452 19.6963L14.1 22.8165C13.271 25.4484 14.8806 28.3059 17.5578 28.9622V29.9775C17.5578 30.4967 17.9785 30.9175 18.4978 30.9175C19.017 30.9175 19.4378 30.4967 19.4378 29.9775V29.0477C22.395 28.599 24.2805 25.4402 23.2483 22.6137L26.7873 20.5705C29.4039 24.0225 34.8185 24.091 37.5145 20.681L41.0931 22.7465C40.1966 25.4444 41.9105 28.409 44.6704 28.9968V35.1025C41.9403 35.6432 40.2109 38.4918 40.9565 41.1485L37.5148 43.1352C36.2721 41.5629 34.349 40.5523 32.1943 40.5523C29.9893 40.5523 28.0268 41.6102 26.7876 43.2452L23.213 41.1814C23.3355 40.7565 23.4013 40.3078 23.4013 39.8439C23.4013 37.4758 21.6893 35.5 19.438 35.0892V34.0735C19.438 33.5544 19.0173 33.1335 18.498 33.1335C17.9788 33.1335 17.558 33.5544 17.558 34.0735V35.1169C15.3761 35.5827 13.7348 37.5252 13.7348 39.8439C13.7348 40.3219 13.8045 40.7839 13.9344 41.2203L8.45777 44.3815C6.96539 42.6703 4.38352 42.2382 2.40414 43.3812C0.120519 44.6998 -0.683481 47.6999 0.635144 49.9835C2.23902 52.7619 6.33964 53.1668 8.45777 50.7538L13.9073 53.8994C13.525 55.1144 13.706 56.6885 14.3308 57.7707C15.6011 59.9709 18.7348 60.8092 20.9333 59.5398C23.2169 58.2212 24.0209 55.2212 22.7023 52.9374C21.0749 50.1184 16.8933 49.7638 14.8091 52.2492L9.39589 49.1249C9.73327 48.1309 9.73377 47.0925 9.39739 46.0098L14.8126 42.8839C15.6995 43.9773 17.0534 44.6773 18.5676 44.6773C20.0963 44.6773 21.4613 43.964 22.3476 42.8528L25.8699 44.8863C25.5751 45.6457 25.4134 46.4708 25.4134 47.333C25.4134 51.0713 28.4551 54.1125 32.1941 54.1125C33.7376 54.1125 35.2484 53.579 36.4481 52.6104C36.8521 52.2843 36.9153 51.6925 36.5891 51.2885C36.263 50.8848 35.6711 50.8213 35.2673 51.1477C34.388 51.8574 33.3255 52.2325 32.1941 52.2325C29.4919 52.2325 27.2935 50.0347 27.2935 47.333C27.2935 44.6308 29.4919 42.4323 32.1941 42.4323C33.8758 42.4323 35.5483 43.4625 36.3676 44.8825C36.8848 45.7783 37.2063 47.1329 37.0191 48.186C36.9281 48.6972 37.2689 49.1853 37.78 49.2762C38.2904 49.3673 38.7791 49.0265 38.8701 48.5154C39.0921 47.2434 38.9573 45.9907 38.4655 44.757L41.8101 42.8265C43.6694 45.1907 47.316 45.2669 49.2736 42.9942L54.4969 46.0095C54.1438 47.0463 54.1631 48.1517 54.5083 49.149L49.2229 52.2004C48.8829 51.8114 48.4745 51.471 48.0028 51.1987C45.6948 49.866 42.7331 50.6599 41.4004 52.9678C40.0819 55.2515 40.8858 58.2518 43.1695 59.5702C45.368 60.8395 48.5015 60.0012 49.7719 57.801C50.4951 56.5483 50.5919 55.103 50.1603 53.8302L55.4556 50.773C57.5881 53.183 61.6268 52.8098 63.2586 49.9835C64.5911 47.6755 63.7974 44.7138 61.4894 43.3813ZM47.1571 11.2244C45.5139 11.9782 44.1691 11.6178 43.123 10.1434C42.3088 8.73316 42.7938 6.92341 44.2039 6.10928C45.5473 5.33378 47.4619 5.84591 48.2381 7.19028C49.0524 8.60041 48.5674 10.4102 47.1571 11.2244ZM57.6906 13.9268C59.034 13.1513 60.9486 13.6634 61.7249 15.0078C62.5391 16.418 62.0541 18.2278 60.6439 19.042C59.1839 19.885 57.4468 19.3434 56.5993 17.9427C55.859 16.306 56.2229 14.9674 57.6906 13.9268ZM16.1495 7.22066C16.9256 5.87628 18.8404 5.36416 20.1836 6.13966C21.5939 6.95391 22.0789 8.76366 21.2646 10.1738C20.4505 11.584 18.6406 12.069 17.2305 11.2548C15.7563 10.2087 15.3959 8.86391 16.1495 7.22066ZM3.60439 19.0419C2.10177 18.0367 1.76964 16.6509 2.52352 15.0077C3.35039 13.5753 5.19339 13.1393 6.55764 13.9267C7.97389 14.7444 8.43877 16.573 7.56864 17.961C6.76627 19.2413 4.83914 19.868 3.60439 19.0419ZM20.1836 26.8275C18.7735 27.6417 16.9638 27.1569 16.1495 25.7465C15.3353 24.3363 15.8203 22.5265 17.2305 21.7124C18.6204 20.9098 20.3798 21.3819 21.1603 22.7339C21.9158 24.0425 21.6348 25.9898 20.1836 26.8275ZM17.0396 52.7965C18.4038 52.0089 20.247 52.4453 21.0738 53.8775C21.8275 55.5208 21.4673 56.8655 19.9929 57.9117C18.5828 58.7257 16.7728 58.2409 15.9586 56.8307C15.2049 55.1875 15.5653 53.8428 17.0396 52.7965ZM6.29714 50.1247C4.65389 50.8784 3.30914 50.518 2.26302 49.0437C1.50927 47.4004 1.86952 46.0557 3.34389 45.0094C4.70577 44.2232 6.54527 44.6567 7.37389 46.0833C8.20352 47.5304 7.67202 49.3308 6.29714 50.1247ZM18.5678 42.7973C16.9394 42.7973 15.6145 41.4724 15.6145 39.844C15.6145 38.2157 16.9394 36.8908 18.5678 36.8908C20.1961 36.8908 21.521 38.2155 21.521 39.844C21.521 41.3497 20.1114 42.7973 18.5678 42.7973ZM43.123 22.7933C43.9498 21.3612 45.793 20.9248 47.1571 21.7124C48.5674 22.5267 49.0524 24.3364 48.2381 25.7465C47.424 27.1567 45.6144 27.6418 44.2039 26.8275C42.7938 26.0134 42.3088 24.2037 43.123 22.7933ZM45.6109 42.7973C43.9825 42.7973 42.6576 41.4724 42.6576 39.844C42.6576 38.2157 43.9825 36.8908 45.6109 36.8908C47.2393 36.8908 48.5641 38.2155 48.5641 39.844C48.5641 41.4724 47.2393 42.7973 45.6109 42.7973ZM48.1436 56.8612C47.3294 58.2714 45.5196 58.7564 44.1095 57.9422C42.6351 56.8959 42.2749 55.5513 43.0285 53.908C43.8046 52.5637 45.7194 52.0515 47.0626 52.827C48.4729 53.6413 48.9579 55.4509 48.1436 56.8612ZM61.6304 49.0437C60.8163 50.4539 59.0064 50.9389 57.5963 50.1247C56.1869 49.311 55.7016 47.503 56.5136 46.0932C57.285 44.7608 59.2159 44.2397 60.5494 45.0094C61.9596 45.8237 62.4446 47.6334 61.6304 49.0437Z" fill="#C41230"/>
</svg>
