<svg width="64" height="64" viewBox="0 0 64 64" fill="none" xmlns="http://www.w3.org/2000/svg">
<g clip-path="url(#clip0_2891_1520)">
<path d="M61.0794 19.3639L59.2472 18.1988C61.7853 16.3746 63.4429 13.399 63.4429 10.042C63.4427 4.50484 58.938 0 53.4008 0C48.4917 0 44.3969 3.54182 43.5305 8.20375L33.2856 1.68803C32.2408 1.02385 30.8899 1.02385 29.8451 1.68815L2.05132 19.3639C0.817846 20.1482 0.284619 21.5618 0.693053 22.9653C1.09985 24.3634 2.30065 25.268 3.75468 25.2748V27.9924C3.75468 28.9494 4.53321 29.728 5.49021 29.728H6.61623V51.76C5.56976 51.9075 4.76131 52.8051 4.76131 53.8899V55.7665C3.3098 55.9601 2.18629 57.2054 2.18629 58.7091V61.0302C2.18629 62.6678 3.51854 63.9999 5.15592 63.9999H48.9049C49.4255 63.9999 49.8474 63.5779 49.8474 63.0573C49.8474 62.5368 49.4255 62.1148 48.9049 62.1148H5.15592C4.55785 62.1148 4.07137 61.6283 4.07137 61.0302V58.7091C4.07137 58.1111 4.55785 57.6245 5.15592 57.6245H58.8857C59.4838 57.6245 59.9703 58.1111 59.9703 58.7091V61.0302C59.9703 61.6283 59.4838 62.1148 58.8857 62.1148H53.1777C52.6571 62.1148 52.2352 62.5368 52.2352 63.0573C52.2352 63.5779 52.6571 63.9999 53.1777 63.9999H58.8857C60.5231 63.9999 61.8554 62.6678 61.8554 61.0302V58.7091C61.8554 57.0716 60.5231 55.7395 58.8857 55.7395H58.5659V53.8899C58.5659 52.7782 57.7178 51.8607 56.6337 51.7482V29.728H57.6403C58.5973 29.728 59.376 28.9494 59.376 27.9924V25.2748C60.83 25.268 62.0308 24.3634 62.4375 22.9653C62.8459 21.5618 62.3128 20.1482 61.0794 19.3639ZM53.4008 1.88508C57.8985 1.88508 61.5577 5.54427 61.5577 10.042C61.5577 14.5398 57.8985 18.1988 53.4008 18.1988C48.9031 18.1988 45.2441 14.5396 45.2441 10.042C45.2441 5.54427 48.9031 1.88508 53.4008 1.88508ZM14.5337 29.728V51.7364H8.50144V29.728H14.5337ZM16.4328 55.7396H6.64652V53.8901C6.64652 53.742 6.76842 53.6216 6.91822 53.6216H16.1599C16.3103 53.6216 16.4328 53.742 16.4328 53.8901V55.7396ZM38.3375 55.7396H24.9901V42.9659C24.9901 41.5288 25.8388 40.3148 26.8433 40.3148H36.4842C37.4888 40.3148 38.3375 41.529 38.3375 42.9659V55.7396ZM56.681 55.7396H46.8948V53.8901C46.8948 53.742 47.0167 53.6216 47.1663 53.6216H56.4094C56.5591 53.6216 56.681 53.742 56.681 53.8901V55.7396ZM54.7488 51.7365H48.7165V29.728H54.7488V51.7365ZM60.6276 22.4387C60.4937 22.8988 60.0903 23.3905 59.3597 23.3905H23.9591C23.4384 23.3905 23.0166 23.8125 23.0166 24.333C23.0166 24.8535 23.4384 25.2755 23.9591 25.2755H57.4909V27.843H42.6214C42.1007 27.843 41.6789 28.265 41.6789 28.7856C41.6789 29.3061 42.1007 29.7281 42.6214 29.7281H46.8314V51.7653C45.8012 51.9268 45.0097 52.8168 45.0097 53.8902V55.7397H40.2226V42.9659C40.2226 40.4646 38.5455 38.4298 36.4842 38.4298H26.8433C24.782 38.4298 23.105 40.4646 23.105 42.9659V55.7397H18.3179V53.8902C18.3179 52.7903 17.4869 51.882 16.4188 51.7536V29.728H38.3485C38.8692 29.728 39.2911 29.306 39.2911 28.7854C39.2911 28.2649 38.8692 27.8429 38.3485 27.8429H5.63988V25.2754H19.6862C20.2069 25.2754 20.6288 24.8534 20.6288 24.3329C20.6288 23.8123 20.2069 23.3903 19.6862 23.3903H3.77114C3.04048 23.3903 2.63707 22.8987 2.50311 22.4386C2.36927 21.9784 2.44593 21.3469 3.06285 20.9546L30.8564 3.27904C31.2872 3.0052 31.8438 3.00532 32.2741 3.27891L43.3663 10.3334C43.5215 15.7359 47.9615 20.0839 53.4007 20.0839C54.819 20.0839 56.1687 19.7867 57.3931 19.254L60.0676 20.9548C60.6847 21.3469 60.7614 21.9785 60.6276 22.4387Z" fill="#C41230"/>
<path d="M32.0208 8.12354C28.3019 8.12354 25.2764 11.1491 25.2764 14.868C25.2764 18.5869 28.3019 21.6124 32.0208 21.6124C35.7398 21.6124 38.7654 18.5869 38.7654 14.868C38.7654 11.1491 35.7398 8.12354 32.0208 8.12354ZM32.0208 19.7275C29.3414 19.7275 27.1614 17.5476 27.1614 14.8681C27.1614 12.1886 29.3414 10.0087 32.0208 10.0087C34.7003 10.0087 36.8803 12.1886 36.8803 14.8681C36.8803 17.5476 34.7003 19.7275 32.0208 19.7275Z" fill="#C41230"/>
<path d="M53.4006 16.2246C56.8098 16.2246 59.5834 13.4511 59.5834 10.0417C59.5834 6.63247 56.8098 3.85889 53.4006 3.85889C49.9914 3.85889 47.2178 6.63247 47.2178 10.0417C47.2178 13.4511 49.9914 16.2246 53.4006 16.2246ZM53.4006 5.74409C55.7704 5.74409 57.6983 7.67203 57.6983 10.0418C57.6983 12.4116 55.7704 14.3397 53.4006 14.3397C51.0308 14.3397 49.1029 12.4117 49.1029 10.0418C49.1029 7.67203 51.0308 5.74409 53.4006 5.74409Z" fill="#C41230"/>
</g>
<defs>
<clipPath id="clip0_2891_1520">
<rect width="64" height="64" fill="white"/>
</clipPath>
</defs>
</svg>
