<svg width="64" height="64" viewBox="0 0 64 64" fill="none" xmlns="http://www.w3.org/2000/svg">
<g clip-path="url(#clip0_3177_1395)">
<path d="M39.264 36.6838L42.7037 32.2167C43.1257 32.1526 43.5306 31.9923 43.8913 31.7412L44.6776 31.1944C45.0357 30.945 45.3159 30.6255 45.5186 30.2685L51.0678 28.4412L55.5464 31.3639C55.8556 31.5656 56.2028 31.6632 56.5465 31.6632C57.0839 31.6632 57.6124 31.4249 57.9725 30.974L59.082 29.5845C59.3924 29.196 59.5291 28.7103 59.4672 28.217C59.4054 27.7237 59.1528 27.2869 58.7564 26.9871L53.0075 22.6387C52.5145 22.2659 51.8725 22.1674 51.291 22.3751L43.8632 25.0271L42.8762 23.5946C43.2768 22.6537 43.2055 21.5651 42.6504 20.6716L37.6772 12.6563C38.6298 11.0504 38.364 8.96807 36.9481 7.65394L32.3132 3.34719C31.5269 2.61695 30.5066 2.2383 29.433 2.27939C28.3611 2.32112 27.3697 2.77921 26.639 3.57159L21.0946 9.62601C20.7441 10.0088 20.7702 10.6032 21.153 10.9538C21.5358 11.3044 22.1301 11.2782 22.4808 10.8954L28.0231 4.84325C28.4104 4.42312 28.937 4.17954 29.506 4.15736C30.0736 4.13531 30.6168 4.33679 31.034 4.72421L35.6692 9.03109C36.5196 9.82047 36.5934 11.1292 35.8371 12.0106C35.8328 12.0156 35.7912 12.0634 35.7875 12.0676L23.8906 24.994V21.7204C23.8906 20.1902 22.6484 18.9451 21.1214 18.9451H15.0439L19.5601 14.0383C19.9115 13.6564 19.8868 13.0619 19.5051 12.7104C19.123 12.3588 18.5287 12.3836 18.1772 12.7654L12.4896 18.9449H11.6628C10.1373 18.9449 8.89618 20.19 8.89618 21.7203V43.3769C7.38684 45.2657 6.51238 47.6216 6.39635 50.1204H3.60095C1.61547 50.1205 0 51.736 0 53.7216V57.8828C0 59.8684 1.61547 61.4838 3.60095 61.4838H29.1856C31.1326 61.4838 32.747 59.9006 32.7841 57.9546C32.7938 57.4356 32.3812 57.0069 31.8624 56.997C31.345 56.9859 30.9147 57.3998 30.9048 57.9186C30.8872 58.8481 30.116 59.6043 29.1856 59.6043H3.60095C2.65169 59.6043 1.87947 58.8319 1.87947 57.8827V53.7215C1.87947 52.7722 2.65169 51.9999 3.60095 51.9999H29.1856C30.1182 51.9999 30.8895 52.7588 30.9048 53.6918C30.9132 54.2108 31.3427 54.6221 31.8599 54.616C32.3788 54.6075 32.7924 54.18 32.7841 53.661C32.7521 51.7087 31.1378 50.1204 29.1856 50.1204H26.3893C26.2733 47.6221 25.3992 45.2667 23.8905 43.3781V36.7611C23.8905 36.2421 23.4699 35.8214 22.9508 35.8214C22.4317 35.8214 22.011 36.2421 22.011 36.7611V41.5352C20.3624 40.2827 18.4226 39.6083 16.3928 39.6083C14.3634 39.6083 12.424 40.2825 10.7755 41.5345V21.7204C10.7755 21.2265 11.1735 20.8245 11.6626 20.8245H21.1213C21.6118 20.8245 22.011 21.2265 22.011 21.7204V32.5011C22.011 33.0201 22.4317 33.4408 22.9508 33.4408C23.4699 33.4408 23.8905 33.0201 23.8905 32.5011V27.7693L31.0256 20.017L34.5707 25.7292C35.158 26.6766 36.1784 27.2269 37.2509 27.2269C37.279 27.2269 37.3072 27.2252 37.3354 27.2244L38.4148 28.7911L33.4797 34.8821C33.1064 35.3427 32.9799 35.9582 33.1408 36.5283L35.0545 43.3137C35.2812 44.1174 36.017 44.6449 36.8147 44.6449C36.976 44.6449 37.1401 44.6232 37.3028 44.578L39.205 44.0486C40.1547 43.7843 40.7206 42.8259 40.493 41.8668L39.264 36.6838ZM16.3929 41.4877C20.7063 41.4877 24.2441 45.3106 24.5065 50.1205H8.27934C8.54171 45.3106 12.0795 41.4877 16.3929 41.4877ZM43.6044 29.6514L42.8179 30.1982C42.61 30.3432 42.3584 30.3985 42.1096 30.3529C41.8612 30.3076 41.6453 30.1678 41.5012 29.9583L39.1398 26.5308C39.437 26.3488 39.8179 26.1101 40.3093 25.7959C40.8478 25.4516 41.2491 25.1886 41.5517 24.9841L43.8473 28.3159C44.1469 28.7505 44.0377 29.3498 43.6044 29.6514ZM51.8966 24.1547L57.5802 28.4537L56.5337 29.764L52.074 26.8535C51.6067 26.5485 51.0345 26.4736 50.504 26.6482L45.8131 28.193C45.734 27.8641 45.5976 27.5438 45.3947 27.2495L44.9672 26.6289L51.8966 24.1547ZM36.1677 24.7386L32.3468 18.5817L36.4059 14.1715L41.0541 21.6629C41.3165 22.085 41.3154 22.6137 41.0563 23.0354C40.5483 23.4335 38.0248 25.0385 37.4861 25.325C36.9695 25.4201 36.448 25.1904 36.1677 24.7386ZM37.4295 37.0933L38.6526 42.2514L36.8491 42.7533L34.957 36.0443L39.5264 30.4047L39.9529 31.024C40.1537 31.316 40.4034 31.5609 40.6872 31.7548L37.7595 35.557C37.4222 35.9952 37.3019 36.5551 37.4295 37.0933Z" fill="#C41230"/>
<path d="M53.7068 41.1377C48.0313 41.1377 43.4141 45.7551 43.4141 51.4305C43.4141 57.1058 48.0314 61.7233 53.7068 61.7233C59.3822 61.7233 63.9996 57.106 63.9996 51.4305C63.9996 45.7549 59.3823 41.1377 53.7068 41.1377ZM53.7068 59.8439C49.0678 59.8439 45.2935 56.0696 45.2935 51.4305C45.2935 46.7913 49.0678 43.0172 53.7068 43.0172C58.3459 43.0172 62.1201 46.7914 62.1201 51.4305C62.1201 56.0695 58.3459 59.8439 53.7068 59.8439Z" fill="#C41230"/>
<path d="M44.8739 41.9696C45.0049 41.9696 45.138 41.942 45.2651 41.8837C45.7368 41.6673 45.9438 41.1095 45.7274 40.6378L44.5265 38.0194C44.31 37.5475 43.7526 37.3407 43.2806 37.5569C42.8088 37.7733 42.6018 38.3312 42.8182 38.8029L44.0191 41.4213C44.1772 41.7662 44.5178 41.9696 44.8739 41.9696Z" fill="#C41230"/>
<path d="M52.014 33.7386C51.5422 33.955 51.3352 34.5128 51.5516 34.9845L52.7525 37.6028C52.9107 37.9476 53.2512 38.1509 53.6073 38.1509C53.7383 38.1509 53.8714 38.1234 53.9985 38.0651C54.4702 37.8487 54.6772 37.2909 54.4608 36.8191L53.2599 34.2009C53.0436 33.7293 52.4861 33.5223 52.014 33.7386Z" fill="#C41230"/>
<path d="M46.9554 33.8173C46.4836 34.0336 46.2766 34.5915 46.493 35.0632L48.3789 39.175C48.5371 39.5198 48.8776 39.7232 49.2337 39.7232C49.3647 39.7232 49.4978 39.6956 49.6249 39.6374C50.0966 39.421 50.3036 38.8631 50.0872 38.3914L48.2013 34.2796C47.985 33.8079 47.4276 33.6009 46.9554 33.8173Z" fill="#C41230"/>
<path d="M53.7068 44.9775C50.1487 44.9775 47.2539 47.8723 47.2539 51.4304C47.2539 54.9885 50.1487 57.8833 53.7068 57.8833C57.2649 57.8833 60.1596 54.9885 60.1596 51.4304C60.1596 47.8723 57.2649 44.9775 53.7068 44.9775ZM53.7068 56.0038C51.185 56.0038 49.1334 53.9522 49.1334 51.4304C49.1334 48.9086 51.185 46.857 53.7068 46.857C56.2285 46.857 58.2802 48.9086 58.2802 51.4304C58.2802 53.9522 56.2285 56.0038 53.7068 56.0038Z" fill="#C41230"/>
</g>
<defs>
<clipPath id="clip0_3177_1395">
<rect width="64" height="64" fill="white"/>
</clipPath>
</defs>
</svg>
