<svg width="64" height="64" viewBox="0 0 64 64" fill="none" xmlns="http://www.w3.org/2000/svg">
<path d="M53.6875 55.0942H55.5625V56.9692H53.6875V55.0942Z" fill="#C41230"/>
<path d="M1.875 54.1566V22.0312H0V54.1566C0 55.7074 1.26175 56.9691 2.8125 56.9691H51.8125V55.0941H2.8125C2.2955 55.0941 1.875 54.6736 1.875 54.1566Z" fill="#C41230"/>
<path d="M61.1875 7.03125H2.8125C1.26175 7.03125 0 8.293 0 9.84375V20.1561H1.875V16.4062H62.125V54.1565C62.125 54.6735 61.7045 55.094 61.1875 55.094H57.4375V56.969H61.1875C62.7383 56.969 64 55.7073 64 54.1565V9.84375C64 8.293 62.7383 7.03125 61.1875 7.03125ZM17.4544 14.5312L18.3919 12.6562H24.733L25.6705 14.5312H17.4544ZM27.7666 14.5312L25.8919 10.7812H17.233L15.358 14.5312H1.875V9.84375C1.875 9.32675 2.2955 8.90625 2.8125 8.90625H61.1875C61.7045 8.90625 62.125 9.32675 62.125 9.84375V14.5312H27.7666Z" fill="#C41230"/>
<path d="M45.25 10.7812H56.4999V12.6562H45.25V10.7812Z" fill="#C41230"/>
<path d="M58.375 10.7812H60.25V12.6562H58.375V10.7812Z" fill="#C41230"/>
<path d="M7.5 10.7812H9.375V12.6562H7.5V10.7812Z" fill="#C41230"/>
<path d="M3.75 10.7812H5.625V12.6562H3.75V10.7812Z" fill="#C41230"/>
<path d="M11.25 10.7812H13.125V12.6562H11.25V10.7812Z" fill="#C41230"/>
<path d="M58.375 22.0312H60.25V23.9062H58.375V22.0312Z" fill="#C41230"/>
<path d="M58.375 18.2812H60.25V20.1562H58.375V18.2812Z" fill="#C41230"/>
<path d="M55.4375 40.9062V22.1562C55.4375 20.6055 54.1758 19.3438 52.625 19.3438H11.375C9.82425 19.3438 8.5625 20.6055 8.5625 22.1562V40.9062C8.5625 42.457 9.82425 43.7188 11.375 43.7188H52.625C54.1758 43.7188 55.4375 42.457 55.4375 40.9062ZM53.5625 40.9062C53.5625 41.4233 53.142 41.8438 52.625 41.8438H11.375C10.858 41.8438 10.4375 41.4233 10.4375 40.9062V22.1562C10.4375 21.6393 10.858 21.2188 11.375 21.2188H52.625C53.142 21.2188 53.5625 21.6393 53.5625 22.1562V40.9062Z" fill="#C41230"/>
<path d="M27.3126 51.2186V49.3436H54.5V47.4686H27.3126V45.5938H25.4376V47.4686H9.5V49.3436H25.4376V51.2186H27.3126Z" fill="#C41230"/>
<path d="M27.7812 36.897L37.1709 31.5315L27.7812 26.166V36.897ZM29.6562 29.397L33.3916 31.5315L29.6562 33.666V29.397Z" fill="#C41230"/>
</svg>
