<svg width="64" height="64" viewBox="0 0 64 64" fill="none" xmlns="http://www.w3.org/2000/svg">
<g clip-path="url(#clip0_2901_1588)">
<path d="M63.7254 0.274594C63.3592 -0.0915312 62.7657 -0.0915312 62.3995 0.274594L49.9275 12.7467L49.2067 12.0258C48.8905 11.7098 48.3957 11.6607 48.0235 11.9087L40.3304 17.0386C38.4833 15.6267 35.7942 15.8136 34.1444 17.4632L30.3219 21.2857C29.9558 21.6518 29.9558 22.2455 30.3219 22.6115C30.6882 22.9776 31.2817 22.9776 31.6478 22.6115L35.4703 18.789C36.5592 17.7 38.5402 17.8423 39.5819 18.8852C41.4553 20.7587 43.3264 22.6347 45.2043 24.5037C46.3067 25.6072 46.3028 27.4065 45.1958 28.5145L42.9018 30.8085L41.4747 29.3813L43.6532 27.2028C44.0193 26.8367 44.0193 26.2431 43.6532 25.8771L38.1425 20.3665C37.7763 20.0003 37.1828 20.0003 36.8167 20.3665L25.8249 31.3582C25.328 32.234 25.5742 32.7665 26.563 32.9556C27.8323 32.8235 28.4133 33.4266 28.3058 34.7652C28.2819 36.7578 29.1828 38.8645 31.6742 38.5332L33.4255 40.2847L30.6763 43.034L28.6234 40.9811C28.2572 40.615 27.6637 40.615 27.2975 40.9811C26.9314 41.3472 26.9314 41.9408 27.2975 42.3068L29.3505 44.3598L26.6013 47.1091L24.5484 45.0562C24.1822 44.6901 23.5887 44.6901 23.2225 45.0562C22.8564 45.4223 22.8564 46.016 23.2225 46.382L25.2754 48.4348L22.2449 51.4653L18.8567 48.077C18.4905 47.7108 17.897 47.7108 17.5308 48.077C17.1914 48.4228 17.1905 48.866 17.5283 49.4065L22.9802 54.8522C23.3774 55.2493 23.3775 55.8957 22.9803 56.293C22.4999 56.6911 22.0195 56.6912 21.5392 56.2931L7.70666 42.4606C7.30866 41.9801 7.30866 41.4997 7.70678 41.0193C8.10428 40.6223 8.75053 40.6222 9.14766 41.0195L14.6383 46.5162C14.9884 46.8667 15.6282 46.8537 15.968 46.5138C16.3342 46.1477 16.3342 45.5541 15.968 45.1881L12.5197 41.7397L28.7592 25.5002C29.1253 25.1341 29.1253 24.5405 28.7592 24.1745C28.393 23.8085 27.7995 23.8082 27.4333 24.1745L11.1937 40.4141L10.4735 39.694C9.34553 38.566 7.50953 38.5656 6.38128 39.6935C5.25066 41.0577 5.25041 42.4221 6.38066 43.7866L11.2508 48.6567L7.04366 52.8638L4.93991 50.7601C3.57578 49.6301 2.21166 49.6301 0.847656 50.7601C-0.282469 52.1242 -0.282594 53.4883 0.847531 54.8526L9.14728 63.1523C10.5114 64.2825 11.8757 64.2825 13.2398 63.1523C14.3679 62.0241 14.3679 60.1882 13.2398 59.06L11.136 56.9563L15.3432 52.7492L20.2132 57.6192C21.3435 58.7496 23.1762 58.7493 24.3064 57.6188C25.4343 56.4905 25.434 54.6546 24.3059 53.5266L23.5707 52.7913L46.5218 29.8402C48.2023 28.1582 48.349 25.5147 46.9594 23.672L48.5098 21.3463C48.797 20.9156 48.6805 20.3335 48.2498 20.0463C47.8192 19.7591 47.2369 19.8755 46.9498 20.3063L45.633 22.2813L41.7179 18.3671L48.4242 13.8952L50.1047 15.5757L49.2173 16.9062C48.93 17.337 49.0464 17.9191 49.4772 18.2063C49.9079 18.4936 50.49 18.3772 50.7773 17.9465L52.091 15.9765C52.3389 15.6046 52.2899 15.1095 51.9739 14.7935L51.253 14.0726L63.725 1.60047C64.0914 1.23434 64.0914 0.640594 63.7254 0.274594ZM11.9139 61.8265C11.4337 62.2243 10.9534 62.2245 10.4732 61.8265L2.17328 53.5267C1.77541 53.0465 1.77553 52.5662 2.17341 52.086C2.65366 51.6881 3.13391 51.6881 3.61403 52.086L11.9138 60.3857C12.311 60.783 12.311 61.4293 11.9139 61.8265ZM9.81028 55.6305L8.36953 54.1897L12.5767 49.9826L14.0174 51.4233L9.81028 55.6305ZM41.5758 32.1345L38.8265 34.8837L37.3994 33.4566L40.1487 30.7073L41.5758 32.1345ZM30.1807 34.7775C30.182 33.5087 29.6893 31.9748 28.4462 31.3886L37.4794 22.3553L41.6643 26.5402L31.544 36.6605C30.3915 36.8025 29.937 36.1748 30.1807 34.7775ZM33.3243 37.5317L36.0735 34.7825L37.5007 36.2096L34.7514 38.9588L33.3243 37.5317Z" fill="#C41230"/>
</g>
<defs>
<clipPath id="clip0_2901_1588">
<rect width="64" height="64" fill="white"/>
</clipPath>
</defs>
</svg>
