<svg width="64" height="64" viewBox="0 0 64 64" fill="none" xmlns="http://www.w3.org/2000/svg">
<path d="M54.4375 15.9375C52.2664 15.9375 50.5 17.7039 50.5 19.875C50.5 22.0461 52.2664 23.8125 54.4375 23.8125C56.6086 23.8125 58.375 22.0461 58.375 19.875C58.375 17.7039 56.6086 15.9375 54.4375 15.9375ZM54.4375 21.9375C53.3003 21.9375 52.375 21.0122 52.375 19.875C52.375 18.7378 53.3003 17.8125 54.4375 17.8125C55.5747 17.8125 56.5 18.7378 56.5 19.875C56.5 21.0122 55.5747 21.9375 54.4375 21.9375ZM9.5625 15.9375C7.39138 15.9375 5.625 17.7039 5.625 19.875C5.625 22.0461 7.39138 23.8125 9.5625 23.8125C11.7336 23.8125 13.5 22.0461 13.5 19.875C13.5 17.7039 11.7336 15.9375 9.5625 15.9375ZM9.5625 21.9375C8.42525 21.9375 7.5 21.0122 7.5 19.875C7.5 18.7378 8.42525 17.8125 9.5625 17.8125C10.6997 17.8125 11.625 18.7378 11.625 19.875C11.625 21.0122 10.6997 21.9375 9.5625 21.9375ZM59.3125 10.3125H4.6875C2.10275 10.3125 0 12.4153 0 15V49C0 51.5848 2.10275 53.6875 4.6875 53.6875H59.3125C61.8973 53.6875 64 51.5848 64 49V15C64 12.4153 61.8973 10.3125 59.3125 10.3125ZM7.945 51.8125H4.6875C3.13675 51.8125 1.875 50.5509 1.875 49V29.4375H6.00763V40.25C6.00763 41.0426 6.6525 41.6875 7.44513 41.6875H7.945V51.8125ZM7.88263 39.8125V29.4375H9.88262V39.8125H7.88263ZM15.6512 51.8125H9.82V41.6875H10.3201C11.1128 41.6875 11.7576 41.0426 11.7576 40.25V29.4375H15.6512V51.8125ZM23.3563 51.8125H17.5263V29.4375H21.4193V40.25C21.4193 41.0426 22.0641 41.6875 22.8568 41.6875H23.3563V51.8125ZM23.2943 39.8125V29.4375H25.2943V39.8125H23.2943ZM31.0625 51.8125H25.2313V41.6875H25.7318C26.5244 41.6875 27.1693 41.0426 27.1693 40.25V29.4375H29.125V40.25C29.125 41.0426 29.7699 41.6875 30.5625 41.6875H31.0625V51.8125ZM31 39.8125V29.4375H33V39.8125H31ZM38.7687 51.8125H32.9375V41.6875H33.4375C34.2301 41.6875 34.875 41.0426 34.875 40.25V29.4375H36.8307V40.25C36.8307 41.0426 37.4756 41.6875 38.2682 41.6875H38.7687V51.8125ZM38.7057 39.8125V29.4375H40.7057V39.8125H38.7057ZM54.18 51.8125H48.3488V43.25C48.3488 42.7323 47.9291 42.3125 47.4113 42.3125C46.8934 42.3125 46.4738 42.7323 46.4738 43.25V51.8125H40.6437V41.6875H41.1432C41.9359 41.6875 42.5807 41.0426 42.5807 40.25V29.4375H46.4738V38.875C46.4738 39.3927 46.8934 39.8125 47.4113 39.8125C47.9291 39.8125 48.3488 39.3927 48.3488 38.875V29.4375H52.2424V40.25C52.2424 41.0426 52.8872 41.6875 53.6799 41.6875H54.18V51.8125ZM54.1174 39.8125V29.4375H56.1174V39.8125H54.1174ZM62.125 49C62.125 50.5509 60.8633 51.8125 59.3125 51.8125H56.055V41.6875H56.5549C57.3475 41.6875 57.9924 41.0426 57.9924 40.25V29.4375H62.125V49ZM62.125 27.5625H1.875V15C1.875 13.4491 3.13675 12.1875 4.6875 12.1875H59.3125C60.8633 12.1875 62.125 13.4491 62.125 15V27.5625ZM45.4631 15.9375H35.2682C34.7504 15.9375 34.3307 16.3573 34.3307 16.875C34.3307 17.3927 34.7504 17.8125 35.2682 17.8125H45.4631C45.7176 17.8125 45.9246 18.0196 45.9246 18.2741V21.4759C45.9246 21.7304 45.7176 21.9375 45.4631 21.9375H18.5369C18.2824 21.9375 18.0754 21.7304 18.0754 21.4759V18.2741C18.0754 18.0196 18.2824 17.8125 18.5369 17.8125H30.8934C31.4113 17.8125 31.8309 17.3927 31.8309 16.875C31.8309 16.3573 31.4113 15.9375 30.8934 15.9375H18.5369C17.2485 15.9375 16.2004 16.9857 16.2004 18.2741V21.4759C16.2004 22.7643 17.2486 23.8125 18.5369 23.8125H45.4631C46.7515 23.8125 47.7996 22.7643 47.7996 21.4759V18.2741C47.7996 16.9857 46.7515 15.9375 45.4631 15.9375Z" fill="#C41230"/>
</svg>
