<svg width="64" height="64" viewBox="0 0 64 64" fill="none" xmlns="http://www.w3.org/2000/svg">
<path d="M49.4226 52.5355C48.9065 52.5173 48.4719 52.9243 48.4547 53.4419C48.4416 53.8408 48.4232 54.2417 48.401 54.6416H44.0701C43.5701 54.6416 43.158 55.034 43.1336 55.5335C43.0001 58.2653 42.7517 60.8499 42.6182 62.1249H32.9502V52.0754L38.956 43.6186C42.698 44.4299 46.8611 45.686 47.6335 46.8088C47.8517 47.1258 48.1492 47.8037 48.3266 49.2327C48.3856 49.7074 48.7896 50.055 49.2559 50.055C49.2945 50.055 49.3334 50.0525 49.3726 50.0477C49.8865 49.9839 50.2514 49.5156 50.1876 49.0018C50.0052 47.5322 49.6749 46.467 49.1782 45.7455C48.8789 45.3104 47.968 43.9863 42.0729 42.4403C40.1789 41.9436 38.3979 41.585 37.4171 41.4006V39.923C40.3317 39.4474 43.167 38.5901 45.8554 37.3683C46.6265 37.0184 47.2095 36.3477 47.4547 35.529C48.9315 30.6089 49.3465 24.44 48.5652 19.0273C47.7085 13.0921 45.4891 8.55425 42.2834 6.13788L43.157 3.73925C43.4566 2.91612 43.0224 2.00725 42.1887 1.72325C35.4364 -0.574375 28.589 -0.5745 21.8362 1.72337C21.4336 1.8605 21.1109 2.147 20.9274 2.53012C20.7444 2.912 20.7234 3.34137 20.8682 3.73925L21.7415 6.137C20.44 7.11363 19.3016 8.42863 18.3514 10.0569C18.0904 10.5041 18.2414 11.0782 18.6886 11.3392C18.8372 11.426 18.9999 11.4672 19.1604 11.4672C19.4827 11.4672 19.7967 11.3007 19.971 11.0021C20.6805 9.7865 21.5007 8.77962 22.4184 7.99575L23.7827 11.7421C24.0112 12.3694 24.6071 12.7706 25.2494 12.7706C25.9171 12.7706 31.1299 11.0627 38.4302 12.7315C39.1951 12.9065 39.9732 12.4806 40.2421 11.742L41.6054 7.99875C44.1705 10.198 45.9661 14.1489 46.7091 19.2952C47.4534 24.4513 47.0606 30.3184 45.6584 34.9904C45.5685 35.2905 45.3577 35.5349 45.0797 35.661C42.6349 36.7723 40.0619 37.5644 37.417 38.0223V37.5769C40.22 35.393 42.516 32.2629 43.1469 30.6133C43.717 29.2073 43.8526 26.8285 43.7919 25.2846C43.5614 19.5162 39.06 18.6644 35.4431 17.9797C32.7454 17.4692 30.4154 17.0281 29.5475 15.065C29.2619 14.4175 28.5726 14.036 27.8705 14.1371L25.0196 14.5533C22.183 14.9651 20.0697 17.4381 20.104 20.3056C20.1119 20.9483 20.1226 21.5785 20.1356 22.193H18.6125C18.0425 22.193 17.496 22.3173 17.0016 22.5445C17.1482 19.7454 17.594 17.1096 18.3152 14.8244C18.4711 14.3305 18.1971 13.8039 17.7032 13.648C17.2095 13.4919 16.6827 13.766 16.5269 14.2599C15.5794 17.2619 15.0785 20.813 15.0731 24.5413C14.8725 25.0147 14.7707 25.5164 14.7707 26.0359C14.7707 26.6454 14.9164 27.2454 15.1926 27.7861C15.3989 30.5324 15.8737 33.2054 16.5704 35.5284C16.8157 36.3475 17.3987 37.0181 18.1695 37.368C20.8584 38.5901 23.6936 39.4473 26.6082 39.9229V41.4005C25.6274 41.585 23.8464 41.9435 21.9524 42.4401C16.0571 43.9861 15.1464 45.3102 14.847 45.7455C12.7425 48.8055 13.9791 58.6054 14.6085 62.6768C14.7271 63.4434 15.3765 63.9999 16.1527 63.9999H47.8722C48.6487 63.9999 49.2981 63.4431 49.4165 62.6764C49.6497 61.1669 50.2057 57.2516 50.329 53.5033C50.346 52.9859 49.9402 52.5525 49.4226 52.5355ZM38.5744 10.842C36.3966 10.3645 34.2045 10.1257 32.0126 10.1257C29.8207 10.1257 27.6286 10.3645 25.4509 10.842L22.7399 3.39838C28.8949 1.37063 35.1307 1.37063 41.2854 3.39838L38.5744 10.842ZM34.5627 37.1774C33.4664 37.6581 30.5587 37.6581 29.4634 37.1779C27.3801 36.262 24.2379 32.93 22.9896 30.6842C24.7975 29.4205 28.307 27.3617 31.981 27.3617C35.5931 27.3617 39.2047 29.371 41.0805 30.6038C39.841 32.8888 36.6347 36.2669 34.5627 37.1774ZM25.2899 16.4089L27.926 16.0241C29.2442 18.7152 32.2171 19.2776 35.0945 19.8223C36.813 20.1476 38.59 20.484 39.855 21.2803C40.6917 21.8069 41.816 22.8029 41.9182 25.3589C41.9714 26.7079 41.8515 27.9393 41.7076 28.7728C37.2649 25.9355 33.7514 25.4862 31.9811 25.4862C28.096 25.4862 24.4584 27.4481 22.3654 28.8409C22.3645 28.834 22.3636 28.8284 22.3627 28.8214C22.2167 27.688 22.1026 25.7113 22.0326 23.1059C22.0091 22.2069 21.991 21.2569 21.9791 20.2827C21.9559 18.3519 23.379 16.6865 25.2899 16.4089ZM16.9195 27.038C16.7406 26.7351 16.646 26.3886 16.646 26.036C16.646 25.73 16.7146 25.4365 16.85 25.1628C17.184 24.4876 17.8594 24.0683 18.6124 24.0683H20.1852C20.2277 25.3609 20.2936 26.8169 20.3939 28.0036H18.6124C17.9205 28.0036 17.2716 27.6335 16.9195 27.038ZM18.9449 35.6608C18.6674 35.5348 18.4566 35.2904 18.3666 34.99C17.8764 33.3554 17.5024 31.5322 17.2619 29.6294C17.6886 29.7905 18.1451 29.8787 18.6124 29.8787H20.6402C21.1344 32.0811 24.1157 35.6343 26.6082 37.5764V38.0221C23.9634 37.5644 21.3902 36.7723 18.9449 35.6608ZM16.4212 62.1247C16.2542 61.0171 15.9579 58.8872 15.757 56.5168H19.0662C19.1995 58.8181 19.398 60.9225 19.5217 62.1247H16.4212ZM31.075 62.1247H21.4071C21.2735 60.8497 21.0251 58.2651 20.8916 55.5334C20.8672 55.0339 20.4551 54.6415 19.9551 54.6415H15.6244C15.6217 54.5945 15.619 54.5474 15.6165 54.5004C15.334 49.1996 15.9811 47.4056 16.3921 46.8083C17.1635 45.6866 21.3271 44.4304 25.0696 43.6188L31.075 52.0751V62.1247ZM27.084 43.2168C27.2944 43.1786 27.5007 43.1424 27.7019 43.1085C28.1531 43.0324 28.4835 42.6415 28.4835 42.184V38.7886C28.5596 38.8257 28.6354 38.8621 28.7096 38.8947C30.2154 39.5549 33.772 39.6532 35.5417 38.7886V42.1839C35.5417 42.6416 35.8722 43.0324 36.3235 43.1084C36.5246 43.1424 36.731 43.1785 36.9412 43.2166L32.0125 50.1567L27.084 43.2168ZM47.6039 62.1247H44.5034C44.6272 60.9225 44.8256 58.818 44.9589 56.5168H48.2684C48.0696 58.8656 47.7766 60.9804 47.6039 62.1247Z" fill="#C41230"/>
<path d="M26.9786 24.0688C27.4965 24.0688 27.9163 23.649 27.9163 23.1311V22.7028C27.9163 22.1849 27.4965 21.7651 26.9786 21.7651C26.4608 21.7651 26.041 22.1849 26.041 22.7028V23.1311C26.0411 23.649 26.4609 24.0688 26.9786 24.0688Z" fill="#C41230"/>
<path d="M37.046 24.0688C37.5639 24.0688 37.9836 23.649 37.9836 23.1311V22.7028C37.9836 22.1849 37.5639 21.7651 37.046 21.7651C36.5281 21.7651 36.1084 22.1849 36.1084 22.7028V23.1311C36.1084 23.649 36.5281 24.0688 37.046 24.0688Z" fill="#C41230"/>
<path d="M31.0751 4.64612V5.15762H30.5636C30.0457 5.15762 29.626 5.57737 29.626 6.09525C29.626 6.61312 30.0457 7.03287 30.5636 7.03287H31.0751V7.54425C31.0751 8.06212 31.4949 8.48187 32.0127 8.48187C32.5306 8.48187 32.9504 8.06212 32.9504 7.54425V7.03287H33.4618C33.9797 7.03287 34.3995 6.61312 34.3995 6.09525C34.3995 5.57737 33.9797 5.15762 33.4618 5.15762H32.9504V4.64612C32.9504 4.12825 32.5306 3.7085 32.0127 3.7085C31.4949 3.7085 31.0751 4.12825 31.0751 4.64612Z" fill="#C41230"/>
<path d="M35.7717 54.21H35.6281C35.1102 54.21 34.6904 54.6297 34.6904 55.1476C34.6904 55.6655 35.1102 56.0852 35.6281 56.0852H35.7717C36.2896 56.0852 36.7093 55.6655 36.7093 55.1476C36.7093 54.6297 36.2896 54.21 35.7717 54.21Z" fill="#C41230"/>
<path d="M35.7717 58.8354H35.6281C35.1102 58.8354 34.6904 59.2552 34.6904 59.7731C34.6904 60.291 35.1102 60.7107 35.6281 60.7107H35.7717C36.2896 60.7107 36.7093 60.291 36.7093 59.7731C36.7093 59.2552 36.2896 58.8354 35.7717 58.8354Z" fill="#C41230"/>
</svg>
