<svg width="64" height="64" viewBox="0 0 64 64" fill="none" xmlns="http://www.w3.org/2000/svg">
<path d="M48.072 54.0301V50.8871H51.215C51.9502 50.8871 52.5483 50.289 52.5483 49.5539V45.6694C52.5483 44.9342 51.9502 44.336 51.215 44.336H48.072V41.1931C48.072 40.458 47.4739 39.8599 46.7388 39.8599H42.8544C42.1192 39.8599 41.521 40.458 41.521 41.1931V44.336H38.3782C37.643 44.336 37.0449 44.9341 37.0449 45.6694V49.5539C37.0449 50.289 37.643 50.8871 38.3782 50.8871H41.521V54.0301C41.521 54.7652 42.1192 55.3634 42.8544 55.3634H46.7388C47.4739 55.3634 48.072 54.7652 48.072 54.0301ZM46.197 50.2135V53.4884H43.396V50.2135C43.396 49.5511 42.857 49.0121 42.1948 49.0121H38.92V46.2111H42.1948C42.8572 46.2111 43.396 45.6721 43.396 45.0097V41.735H46.197V45.0097C46.197 45.6721 46.736 46.2111 47.3984 46.2111H50.6732V49.0121H47.3984C46.736 49.0121 46.197 49.5511 46.197 50.2135Z" fill="#C41230"/>
<path d="M55.0299 35.9463V27.2856C55.0299 26.424 54.329 25.7231 53.4674 25.7231H36.126C35.2644 25.7231 34.5635 26.424 34.5635 27.2856V35.9463C34.5635 36.8079 35.2644 37.5088 36.126 37.5088H53.4674C54.329 37.5088 55.0299 36.8079 55.0299 35.9463ZM53.1549 35.6338H36.4385V27.5981H53.1549V35.6338Z" fill="#C41230"/>
<path d="M25.101 29.6343H17.168C16.3753 29.6343 15.7305 30.2792 15.7305 31.0718V37.8537C15.7305 38.6463 16.3753 39.2912 17.168 39.2912H25.101C25.8936 39.2912 26.5385 38.6463 26.5385 37.8537V31.0718C26.5385 30.2792 25.8935 29.6343 25.101 29.6343ZM24.6635 37.4162H17.6055V31.5093H24.6635V37.4162Z" fill="#C41230"/>
<path d="M15.5596 43.1597C15.0417 43.1597 14.6221 43.5794 14.6221 44.0972V45.3689C14.6221 45.8867 15.0417 46.3064 15.5596 46.3064C16.0774 46.3064 16.4971 45.8867 16.4971 45.3689V44.0972C16.4971 43.5794 16.0773 43.1597 15.5596 43.1597Z" fill="#C41230"/>
<path d="M51.5119 4.41064H12.4881C9.30087 4.41064 6.26638 5.61127 3.9435 7.79139C3.56588 8.14577 3.54712 8.73902 3.9015 9.11664C4.25575 9.49402 4.84912 9.51314 5.22675 9.15864C7.20062 7.30602 9.7795 6.28564 12.4882 6.28564H15.3081C14.738 6.82552 14.2089 7.47589 13.7323 8.23077C12.2615 10.5603 11.4516 13.6386 11.4516 16.8988V19.672H1.875V16.8988C1.875 15.3424 2.20388 13.8434 2.8525 12.4431C3.07 11.9734 2.86562 11.4161 2.39587 11.1984C1.92613 10.9809 1.36875 11.1851 1.15112 11.655C0.387375 13.3041 0 15.0683 0 16.8988V19.9845C0 20.8461 0.700875 21.547 1.5625 21.547H4.385V58.0266C4.385 58.8883 5.08588 59.5891 5.9475 59.5891H40.3807C40.8986 59.5891 41.3182 59.1694 41.3182 58.6516C41.3182 58.1339 40.8986 57.7141 40.3807 57.7141H31.5154V27.2855C31.5154 26.4239 30.8145 25.723 29.9529 25.723H12.3166C11.455 25.723 10.7541 26.4239 10.7541 27.2855V57.7141H6.26V21.547H57.74V57.7141H44.7557C44.2379 57.7141 43.8182 58.1339 43.8182 58.6516C43.8182 59.1694 44.2379 59.5891 44.7557 59.5891H58.0525C58.9141 59.5891 59.615 58.8883 59.615 58.0266V21.547H62.4375C63.2991 21.547 64 20.8461 64 19.9845V16.8988C64 10.0129 58.3979 4.41064 51.5119 4.41064ZM12.6291 27.598H29.6404V57.7141H12.6291V27.598ZM13.3265 16.8988C13.3265 13.9883 14.0336 11.2655 15.3176 9.23177C16.5171 7.33189 18.0667 6.28564 19.6814 6.28564H25.462C24.2741 8.98652 23.9645 13.8771 23.9645 16.8988V19.672H13.3265V16.8988ZM25.8395 19.672V16.8988C25.8395 14.1533 26.0658 11.5138 26.4764 9.46652C26.9146 7.28139 27.4254 6.46202 27.6274 6.28552H36.3727C36.5747 6.46202 37.0855 7.28139 37.5238 9.46652C37.9344 11.5138 38.1606 14.1533 38.1606 16.8988V19.672H25.8395ZM40.0355 19.672V16.8988C40.0355 13.7453 39.7525 10.7705 39.2389 8.52239C39.0348 7.62914 38.8016 6.88502 38.538 6.28564H44.3186C45.9333 6.28564 47.4829 7.33189 48.6824 9.23177C49.9663 11.2655 50.6734 13.9884 50.6734 16.8988V19.672H40.0355ZM62.125 19.672H52.5485V16.8988C52.5485 13.6385 51.7386 10.5603 50.2679 8.23077C49.7913 7.47589 49.2621 6.82552 48.692 6.28564H51.5119C57.364 6.28564 62.125 11.0466 62.125 16.8988V19.672Z" fill="#C41230"/>
</svg>
