<svg width="64" height="64" viewBox="0 0 64 64" fill="none" xmlns="http://www.w3.org/2000/svg">
<path d="M53.5625 54.625V1.875H46.0624V0H44.1874V1.875H38.5624V0H36.6874V1.875H31.0625V0H29.1875V1.875H23.5626V0H21.6876V1.875H16.0627V0H14.1877V1.875H6.6875V7.5H8.5625V3.75H14.1876V4.84875C13.0965 5.23575 12.3126 6.27775 12.3126 7.5C12.3126 9.05087 13.5743 10.3125 15.1251 10.3125C16.676 10.3125 17.9376 9.05087 17.9376 7.5C17.9376 6.27775 17.1538 5.23575 16.0626 4.84875V3.75H21.6875V4.84875C20.5964 5.23575 19.8125 6.27775 19.8125 7.5C19.8125 9.05087 21.0741 10.3125 22.625 10.3125C24.1759 10.3125 25.4375 9.05087 25.4375 7.5C25.4375 6.27775 24.6536 5.23575 23.5625 4.84875V3.75H29.1875V4.84875C28.0964 5.23575 27.3125 6.27775 27.3125 7.5C27.3125 9.05087 28.5741 10.3125 30.125 10.3125C31.6759 10.3125 32.9375 9.05087 32.9375 7.5C32.9375 6.27775 32.1536 5.23575 31.0625 4.84875V3.75H36.6874V4.84875C35.5962 5.23575 34.8124 6.27775 34.8124 7.5C34.8124 9.05087 36.0741 10.3125 37.6249 10.3125C39.1756 10.3125 40.4374 9.05087 40.4374 7.5C40.4374 6.27787 39.6535 5.23575 38.5624 4.84875V3.75H44.1872V4.84875C43.0961 5.23575 42.3122 6.27775 42.3122 7.5C42.3122 9.05087 43.574 10.3125 45.1247 10.3125C46.6755 10.3125 47.9372 9.05087 47.9372 7.5C47.9372 6.27787 47.1534 5.23575 46.0622 4.84875V3.75H51.6875V54.625H14.1875V59.3125C14.1875 60.8633 12.9257 62.125 11.375 62.125C9.82425 62.125 8.5625 60.8634 8.5625 59.3125V9.375H6.6875V59.3125C6.6875 61.8973 8.79025 64 11.375 64H44.1875V62.125H15.1229C15.7126 61.3411 16.0626 60.3669 16.0626 59.3125V56.5H55.4376V59.3125C55.4376 60.8633 54.1759 62.125 52.6251 62.125H49.8126V64H52.625C55.2098 64 57.3125 61.8973 57.3125 59.3125V54.625H53.5625ZM15.1251 8.4375C14.6081 8.4375 14.1876 8.017 14.1876 7.5C14.1876 6.983 14.6081 6.5625 15.1251 6.5625C15.6421 6.5625 16.0626 6.983 16.0626 7.5C16.0626 8.017 15.6421 8.4375 15.1251 8.4375ZM22.625 8.4375C22.1081 8.4375 21.6875 8.017 21.6875 7.5C21.6875 6.983 22.1081 6.5625 22.625 6.5625C23.142 6.5625 23.5625 6.983 23.5625 7.5C23.5625 8.017 23.142 8.4375 22.625 8.4375ZM30.125 8.4375C29.608 8.4375 29.1875 8.017 29.1875 7.5C29.1875 6.983 29.608 6.5625 30.125 6.5625C30.642 6.5625 31.0625 6.983 31.0625 7.5C31.0625 8.017 30.6419 8.4375 30.125 8.4375ZM37.6249 8.4375C37.1079 8.4375 36.6874 8.017 36.6874 7.5C36.6874 6.983 37.1079 6.5625 37.6249 6.5625C38.1419 6.5625 38.5624 6.983 38.5624 7.5C38.5624 8.017 38.1419 8.4375 37.6249 8.4375ZM45.1247 8.4375C44.6077 8.4375 44.1872 8.017 44.1872 7.5C44.1872 6.983 44.6077 6.5625 45.1247 6.5625C45.6417 6.5625 46.0622 6.983 46.0622 7.5C46.0622 8.017 45.6417 8.4375 45.1247 8.4375Z" fill="#C41230"/>
<path d="M46.0625 62.125H47.9375V64H46.0625V62.125Z" fill="#C41230"/>
<path d="M16.0625 47.627H44.1872V49.502H16.0625V47.627Z" fill="#C41230"/>
<path d="M16.0625 26.375H44.1872V28.25H16.0625V26.375Z" fill="#C41230"/>
<path d="M16.0625 38.2524H44.1872V40.1274H16.0625V38.2524Z" fill="#C41230"/>
<path d="M16.0625 17H44.1872V18.875H16.0625V17Z" fill="#C41230"/>
<path d="M16.0625 42.9395H44.1872V44.8145H16.0625V42.9395Z" fill="#C41230"/>
<path d="M16.0625 21.6875H44.1872V23.5625H16.0625V21.6875Z" fill="#C41230"/>
<path d="M16 31H38.4999V32.875H16V31Z" fill="#C41230"/>
<path d="M47.9375 12.1875H49.8125V14.0625H47.9375V12.1875Z" fill="#C41230"/>
<path d="M47.9375 15.9375H49.8125V17.8125H47.9375V15.9375Z" fill="#C41230"/>
</svg>
