<svg width="64" height="64" viewBox="0 0 64 64" fill="none" xmlns="http://www.w3.org/2000/svg">
<g clip-path="url(#clip0_3141_1458)">
<path d="M52.6916 3.51875H40.7399C38.4687 1.3405 35.3882 0 32.0003 0C28.6124 0 25.5319 1.3405 23.2607 3.51875H18.4403C17.9226 3.51875 17.5028 3.9385 17.5028 4.45625C17.5028 4.974 17.9226 5.39375 18.4403 5.39375H21.6521C20.2117 7.44588 19.3648 9.9435 19.3648 12.6356C19.3648 15.3278 20.2117 17.8254 21.6521 19.8776H2.72656V13.9764C2.72656 9.244 6.57669 5.39388 11.3091 5.39388H14.0653C14.5831 5.39388 15.0028 4.97412 15.0028 4.45638C15.0028 3.93863 14.5831 3.51887 14.0653 3.51887H11.3091C5.54281 3.51887 0.851562 8.21012 0.851562 13.9764V19.9401C0.851562 20.9395 1.66469 21.7526 2.66406 21.7526H4.14531V62.1875C4.14531 63.1869 4.95844 64 5.95781 64H58.0428C59.0422 64 59.8553 63.1869 59.8553 62.1875V54.4263C59.8553 53.9085 59.4357 53.4888 58.9178 53.4888C58.3999 53.4888 57.9803 53.9085 57.9803 54.4263V62.125H39.3706V49.8153H39.8877C40.7493 49.8153 41.4502 49.1144 41.4502 48.2528V45.3391C41.4502 44.4775 40.7493 43.7766 39.8877 43.7766H24.1129C23.2513 43.7766 22.5504 44.4775 22.5504 45.3391V48.2528C22.5504 49.1144 23.2513 49.8153 24.1129 49.8153H24.6301V62.125H6.02031V21.7525H23.2608C25.5321 23.9306 28.6124 25.2711 32.0003 25.2711C35.3882 25.2711 38.4687 23.9306 40.7399 21.7525H57.9803V50.0513C57.9803 50.569 58.3999 50.9888 58.9178 50.9888C59.4357 50.9888 59.8553 50.569 59.8553 50.0513V21.7525H61.3367C62.3361 21.7525 63.1492 20.9394 63.1492 19.94V13.9762C63.1491 8.21 58.4578 3.51875 52.6916 3.51875ZM37.4956 62.125H32.9378V49.8153H37.4956V62.125ZM24.4254 45.6516H39.5751V47.9403H24.4254V45.6516ZM26.5051 49.8153H31.0628V62.125H26.5051V49.8153ZM21.2398 12.6355C21.2398 6.70213 26.0669 1.875 32.0003 1.875C37.9337 1.875 42.7608 6.70213 42.7608 12.6355C42.7608 18.5689 37.9337 23.3961 32.0003 23.3961C26.0669 23.3961 21.2398 18.569 21.2398 12.6355ZM61.2741 19.8775H42.3486C43.7891 17.8254 44.6358 15.3276 44.6358 12.6355C44.6358 9.9435 43.7891 7.44575 42.3487 5.39362H52.6917C57.4241 5.39362 61.2742 9.24375 61.2742 13.9761V19.8775H61.2741Z" fill="#C41230"/>
<path d="M39.7515 10.6933C39.7515 9.95816 39.1534 9.36004 38.4183 9.36004H35.2753V6.21716C35.2753 5.48204 34.6772 4.88379 33.942 4.88379H30.0575C29.3224 4.88379 28.7243 5.48191 28.7243 6.21716V9.36004H25.5814C24.8463 9.36004 24.248 9.95816 24.248 10.6933V14.5778C24.248 15.3129 24.8462 15.9112 25.5814 15.9112H28.7243V19.054C28.7243 19.7892 29.3224 20.3874 30.0575 20.3874H33.942C34.6772 20.3874 35.2753 19.7893 35.2753 19.054V15.9112H38.4183C39.1534 15.9112 39.7515 15.313 39.7515 14.5778V10.6933ZM37.8765 14.0362H34.6017C33.9393 14.0362 33.4004 14.5752 33.4004 15.2375V18.5124H30.5994V15.2375C30.5994 14.5752 30.0604 14.0362 29.398 14.0362H26.1232V11.235H29.398C30.0604 11.235 30.5994 10.696 30.5994 10.0337V6.75891H33.4004V10.0338C33.4004 10.6962 33.9394 11.2352 34.6017 11.2352H37.8765V14.0362Z" fill="#C41230"/>
<path d="M51.8575 48.3101H45.4932C44.6315 48.3101 43.9307 49.0109 43.9307 49.8726V56.8586C43.9307 57.7202 44.6315 58.4211 45.4932 58.4211H51.8575C52.7192 58.4211 53.42 57.7202 53.42 56.8586V49.8726C53.42 49.0111 52.7192 48.3101 51.8575 48.3101ZM51.545 56.5462H45.8057V50.1851H51.545V56.5462Z" fill="#C41230"/>
<path d="M18.507 48.3101H12.1426C11.281 48.3101 10.5801 49.0109 10.5801 49.8726V56.8586C10.5801 57.7202 11.281 58.4211 12.1426 58.4211H18.507C19.3686 58.4211 20.0695 57.7202 20.0695 56.8586V49.8726C20.0695 49.0111 19.3686 48.3101 18.507 48.3101ZM18.1945 56.5462H12.4551V50.1851H18.1945V56.5462Z" fill="#C41230"/>
<path d="M53.42 30.8989C53.42 30.0373 52.7192 29.3364 51.8575 29.3364H45.4932C44.6315 29.3364 43.9307 30.0373 43.9307 30.8989V37.885C43.9307 38.7467 44.6315 39.4475 45.4932 39.4475H51.8575C52.7192 39.4475 53.42 38.7467 53.42 37.885V30.8989ZM51.545 37.5725H45.8057V31.2114H51.545V37.5725Z" fill="#C41230"/>
<path d="M28.8184 29.3364C27.9567 29.3364 27.2559 30.0373 27.2559 30.8989V37.885C27.2559 38.7467 27.9567 39.4475 28.8184 39.4475H35.1829C36.0445 39.4475 36.7454 38.7467 36.7454 37.885V30.8989C36.7454 30.0373 36.0445 29.3364 35.1829 29.3364H28.8184ZM34.8704 37.5725H29.1309V31.2114H34.8704V37.5725Z" fill="#C41230"/>
<path d="M20.0695 30.8989C20.0695 30.0373 19.3686 29.3364 18.507 29.3364H12.1426C11.281 29.3364 10.5801 30.0373 10.5801 30.8989V37.885C10.5801 38.7467 11.281 39.4475 12.1426 39.4475H18.507C19.3686 39.4475 20.0695 38.7467 20.0695 37.885V30.8989ZM18.1945 37.5725H12.4551V31.2114H18.1945V37.5725Z" fill="#C41230"/>
</g>
<defs>
<clipPath id="clip0_3141_1458">
<rect width="64" height="64" fill="white"/>
</clipPath>
</defs>
</svg>
