<svg width="64" height="64" viewBox="0 0 64 64" fill="none" xmlns="http://www.w3.org/2000/svg">
<g clip-path="url(#clip0_2906_1710)">
<path d="M57.9128 46.2012C57.4271 46.0193 56.8863 46.2654 56.7045 46.7509C56.1337 48.2747 55.4195 49.7238 54.5807 51.0802C52.7882 46.3677 47.1311 44.114 42.5887 46.3439C42.1232 46.5724 41.9312 47.1349 42.1597 47.6003C42.3882 48.0657 42.951 48.2578 43.416 48.0293C47.44 46.0538 52.4866 48.6527 53.1863 53.1024C51.936 54.7347 50.4917 56.1947 48.8947 57.443C46.9933 56.709 45.9166 54.6329 46.4678 52.6265C46.6051 52.1265 46.3111 51.61 45.8112 51.4727C45.311 51.3354 44.7947 51.6294 44.6573 52.1292C43.9561 54.6822 45.0517 57.3119 47.1748 58.667C45.412 59.8052 43.5001 60.7005 41.4852 61.3088C37.9516 62.7162 32.9888 62.3908 32.9888 57.271V47.0339C33.3025 44.6245 35.3681 42.7578 37.8615 42.7578C38.38 42.7578 38.8002 42.3375 38.8002 41.819C38.8002 41.3005 38.38 40.8803 37.8615 40.8803C35.952 40.8803 34.224 41.6725 32.9888 42.9454V37.3425C32.9888 36.8242 32.5686 36.4038 32.0501 36.4038C32.0467 36.4038 32.0435 36.4039 32.0401 36.4039C32.0367 36.4039 32.0335 36.4038 32.0301 36.4038C31.5116 36.4038 31.0913 36.824 31.0913 37.3425V51.0107C29.8562 49.7377 28.1283 48.9455 26.2187 48.9455C25.7002 48.9455 25.28 49.3658 25.28 49.8843C25.28 50.4028 25.7002 50.823 26.2187 50.823C28.712 50.823 30.7775 52.6897 31.0913 55.0988V57.271C31.0913 62.3908 26.1285 62.7163 22.5948 61.3088C20.5603 60.6947 18.6517 59.7987 16.903 58.6685C19.0277 57.3139 20.1245 54.683 19.423 52.1292C19.2856 51.6294 18.7688 51.3355 18.2691 51.4727C17.7692 51.61 17.4752 52.1265 17.6125 52.6265C18.1637 54.6332 17.0866 56.7097 15.1847 57.4433C13.58 56.1853 12.14 54.7175 10.8967 53.0849C11.6036 48.6658 16.6286 46.048 20.6642 48.0292C21.1293 48.2578 21.692 48.0655 21.9205 47.6002C22.149 47.1348 21.9568 46.5723 21.4915 46.3438C16.9568 44.1173 11.3086 46.3593 9.50747 51.0593C7.26284 47.4129 5.92084 43.1332 5.76797 38.6203C7.62522 37.9938 9.77822 38.9188 10.6378 40.6257C11.0007 41.122 11.4208 41.2608 11.8983 41.0419C12.3615 40.8087 12.5477 40.2443 12.3146 39.7813C11.1515 37.4713 8.32047 36.1019 5.76747 36.673C5.83747 33.9944 6.16559 31.3209 6.75309 28.7067C6.86672 28.2009 6.54897 27.6987 6.04322 27.5849C5.53647 27.471 5.05347 27.7935 4.92134 28.2949C1.08309 42.8635 7.01297 58.5663 22.0525 63.1062C25.6603 64.4218 29.7706 64.7469 32.0402 60.8088C34.3098 64.7468 38.4202 64.4218 42.028 63.106C49.6211 60.8137 55.7 54.784 58.4626 47.4094C58.6445 46.924 58.3983 46.383 57.9128 46.2012Z" fill="#C41230"/>
<path d="M12.8218 24.2304C12.3208 24.0965 11.8062 24.3934 11.672 24.8941C10.3045 29.9965 13.9485 35.2582 19.1799 35.8184C18.7734 37.6086 17.169 38.9491 15.2577 38.9491C14.7392 38.9491 14.3189 39.3694 14.3189 39.8879C14.3189 40.4064 14.7392 40.8266 15.2577 40.8266C18.2103 40.8266 20.663 38.6462 21.0908 35.8111C24.5504 35.4119 27.6049 32.7716 28.5068 29.4051C28.641 28.9044 28.3439 28.3896 27.843 28.2554C27.342 28.1211 26.8274 28.4184 26.6933 28.9192C24.4348 37.3481 11.1388 34.137 13.4853 25.3802C13.6197 24.8794 13.3225 24.3645 12.8218 24.2304Z" fill="#C41230"/>
<path d="M45.7602 33.754C42.1852 34.7121 38.3501 32.515 37.3867 28.9196C37.2526 28.4187 36.7381 28.122 36.237 28.2557C35.7362 28.39 35.4391 28.9046 35.5732 29.4055C36.4761 32.7756 39.5252 35.412 42.9892 35.8116C43.417 38.6467 45.8698 40.8271 48.8223 40.8271C49.3408 40.8271 49.7611 40.4068 49.7611 39.8883C49.7611 39.37 49.3408 38.9496 48.8223 38.9496C46.9108 38.9496 45.3066 37.6091 44.9001 35.8188C50.1315 35.2587 53.7755 29.997 52.408 24.8946C52.2738 24.3938 51.7593 24.097 51.2582 24.2308C50.7575 24.3651 50.4603 24.8798 50.5945 25.3806C51.5538 28.9596 49.3011 32.8052 45.7602 33.754Z" fill="#C41230"/>
<path d="M60.2036 37.9631C60.2485 31.9583 58.9883 25.903 56.5661 20.4106C55.8039 18.6841 54.3639 17.4065 52.61 16.8565C53.4905 11.5835 48.8061 8.04083 45.9423 5.87545C45.5529 5.58108 40.0266 1.58245 37.4023 0.310577C35.5645 -0.580923 33.1206 0.578702 32.0401 2.1177C30.9598 0.578577 28.5159 -0.580923 26.678 0.310577C24.0538 1.58245 18.5275 5.58108 18.138 5.87545C15.2741 8.04083 10.5898 11.5835 11.4703 16.8565C9.7164 17.4065 8.27639 18.6841 7.51402 20.4111C6.96039 21.6666 6.46314 22.9625 6.03552 24.2627C5.87352 24.7552 6.14164 25.2858 6.63402 25.4477C7.12714 25.6096 7.65714 25.3416 7.81902 24.8492C8.22752 23.6067 8.70289 22.3683 9.23164 21.169C10.514 18.2638 14.5031 17.5935 16.8085 19.6372C18.2733 20.9357 19.1201 23.0926 19.0184 25.2665C18.9959 25.7466 19.4698 26.249 19.9569 26.249C20.4551 26.249 20.8703 25.8571 20.8939 25.3541C21.0939 21.0757 17.9949 16.3408 13.3219 16.5396C12.6436 12.3837 16.4488 9.50658 19.2703 7.37308C19.5771 7.14108 19.8713 6.91858 20.1428 6.70658C22.2146 6.86683 23.8515 8.60408 23.8515 10.7165C23.8515 11.235 24.2718 11.6552 24.7903 11.6552C25.3088 11.6552 25.729 11.235 25.729 10.7165C25.729 8.24708 24.2039 6.1272 22.0461 5.24933C23.7483 4.02595 25.5504 2.94883 27.4246 2.03533C29.3496 1.5087 31.0913 3.17445 31.0913 5.08195V19.5721C28.2828 20.0228 26.1301 22.4631 26.1301 25.3967C26.1301 25.9152 26.5504 26.3355 27.0689 26.3355C27.5874 26.3355 28.0076 25.9152 28.0076 25.3967C28.0076 23.502 29.3246 21.9092 31.0913 21.4855V33.2512C31.0913 33.7696 31.5115 34.19 32.03 34.19C32.0334 34.19 32.0366 34.1898 32.04 34.1898C32.0434 34.1898 32.0466 34.19 32.05 34.19C32.5685 34.19 32.9888 33.7697 32.9888 33.2512V13.7096C34.7554 14.1333 36.0724 15.7262 36.0724 17.6208C36.0724 18.1393 36.4926 18.5596 37.0111 18.5596C37.5296 18.5596 37.9499 18.1393 37.9499 17.6208C37.9499 14.6872 35.7974 12.247 32.9888 11.7962V5.08183C32.9888 3.17433 34.7304 1.50858 36.6554 2.0352C38.5296 2.9487 40.3318 4.02583 42.0339 5.2492C39.8761 6.1272 38.351 8.24695 38.351 10.7163C38.351 11.2348 38.7713 11.6551 39.2898 11.6551C39.8083 11.6551 40.2285 11.2348 40.2285 10.7163C40.2285 8.60395 41.8654 6.86683 43.9373 6.70645C44.2086 6.91858 44.5029 7.14095 44.8098 7.37295C47.6313 9.50633 51.4364 12.3836 50.7581 16.5393C49.0126 16.465 47.3581 17.0512 46.026 18.2322C44.1468 19.8981 43.0585 22.627 43.186 25.3541C43.2096 25.8571 43.6246 26.2491 44.123 26.249C44.6101 26.249 45.0839 25.7466 45.0615 25.2665C44.9598 23.0926 45.8066 20.9356 47.2714 19.6372C49.5844 17.5867 53.5628 18.2566 54.8481 21.1686C56.9959 26.0391 58.1736 31.3538 58.3125 36.6733C55.7594 36.1022 52.9285 37.4717 51.7654 39.7816C51.5321 40.2446 51.7185 40.809 52.1816 41.0422C52.6591 41.2611 53.0794 41.1223 53.4421 40.6259C54.3018 38.9189 56.4549 37.9941 58.3123 38.6207C58.2635 40.082 58.0915 41.5368 57.7993 42.9572C57.6948 43.465 58.0216 43.9613 58.5295 44.0658C59.0001 44.1592 59.3696 43.9158 59.6381 43.3356C59.9735 41.707 60.2804 39.6702 60.2036 37.9631Z" fill="#C41230"/>
</g>
<defs>
<clipPath id="clip0_2906_1710">
<rect width="64" height="64" fill="white"/>
</clipPath>
</defs>
</svg>
