<svg width="64" height="64" viewBox="0 0 64 64" fill="none" xmlns="http://www.w3.org/2000/svg">
<path d="M48.1017 33.0625H36.4136V31.739C39.8234 31.1814 42.4976 28.4096 42.9057 24.9521C45.2893 24.9 47.2127 22.9461 47.2127 20.5501V19.5874C47.2127 18.4466 46.7767 17.4059 46.0626 16.6227V8.9375C46.0626 4.97425 42.8383 1.75 38.8751 1.75H35.6924C34.4323 0.661 32.7924 0 31.0001 0H25.1251C21.1618 0 17.9376 3.22425 17.9376 7.1875V16.6227C17.2236 17.4059 16.7874 18.4466 16.7874 19.5874V20.5501C16.7874 22.946 18.7108 24.8999 21.0944 24.9521C21.5027 28.4097 24.1763 31.1823 27.5866 31.7396V33.0625H22.8751C22.3573 33.0625 21.9376 33.4821 21.9376 34C21.9376 34.5179 22.3573 34.9375 22.8751 34.9375H27.5956C27.7349 37.2464 29.6567 39.0824 32.0001 39.0824C34.3434 39.0824 36.2652 37.2464 36.4046 34.9375H48.1017C49.9972 34.9375 51.5392 36.4796 51.5392 38.375V56.1516L46.8414 51.4538V45.1731C46.8414 44.6553 46.4217 44.2356 45.9039 44.2356C45.3862 44.2356 44.9664 44.6553 44.9664 45.1731V49.5788L38.6887 43.301V43.1036C38.6887 41.1513 37.1002 39.5629 35.1478 39.5629H32.3746C32.2494 39.5629 32.1272 39.575 32.0067 39.5926C31.8822 39.5736 31.7552 39.5629 31.6256 39.5629H28.8523C26.8998 39.5629 25.3114 41.1513 25.3114 43.1036V43.301L19.0337 49.5788V45.1731C19.0337 44.6553 18.6139 44.2356 18.0962 44.2356C17.5784 44.2356 17.1587 44.6553 17.1587 45.1731V51.4538L12.4609 56.1516V38.375C12.4609 36.4796 14.0029 34.9375 15.8984 34.9375H18.5001C19.0178 34.9375 19.4376 34.5179 19.4376 34C19.4376 33.4821 19.0178 33.0625 18.5001 33.0625H15.8984C12.9691 33.0625 10.5859 35.4456 10.5859 38.375V59.7761C10.5859 62.1053 12.4808 64 14.8098 64H49.1903C51.5193 64 53.4142 62.1053 53.4142 59.7761V38.375C53.4142 35.4456 51.0311 33.0625 48.1017 33.0625ZM45.3377 19.5874V20.5501C45.3377 21.893 44.2849 22.9916 42.9619 23.0718V17.0659C44.2849 17.146 45.3377 18.2446 45.3377 19.5874ZM38.8751 3.625C41.8044 3.625 44.1876 6.00813 44.1876 8.9375V15.4055C43.7997 15.2773 43.3886 15.2011 42.9618 15.1862V13.4125C42.9618 11.1724 41.1393 9.35 38.8993 9.35H38.1876V7.1875C38.1876 5.89162 37.8411 4.676 37.2386 3.625H38.8751ZM21.0383 23.0718C19.7152 22.9916 18.6626 21.893 18.6626 20.5501V19.5874C18.6626 18.2445 19.7153 17.146 21.0383 17.0659V23.0718ZM34.5386 34.669C34.5386 36.0686 33.3998 37.2075 32.0001 37.2075C30.6003 37.2075 29.4616 36.0687 29.4616 34.669V31.8435H34.5384V34.669H34.5386ZM28.8508 29.9684C25.5769 29.9684 22.9133 27.3047 22.9133 24.0309V13.4125C22.9133 12.2064 23.8947 11.225 25.1008 11.225H27.0001C27.5178 11.225 27.9376 10.8054 27.9376 10.2875C27.9376 9.76963 27.5178 9.35 27.0001 9.35H25.1008C22.8608 9.35 21.0383 11.1724 21.0383 13.4125V15.187C20.6117 15.2017 20.2004 15.2773 19.8126 15.4055V7.1875C19.8126 4.25813 22.1957 1.875 25.1251 1.875H31.0001C33.9294 1.875 36.3126 4.25813 36.3126 7.1875V9.35H31.3751C30.8573 9.35 30.4376 9.76963 30.4376 10.2875C30.4376 10.8054 30.8573 11.225 31.3751 11.225H38.8993C40.1054 11.225 41.0868 12.2064 41.0868 13.4125V24.0309C41.0868 27.3047 38.4232 29.9684 35.1493 29.9684H28.8508ZM32.1604 45.515C31.9109 45.4427 31.7368 45.2113 31.7368 44.952C31.7368 44.6926 31.9111 44.4611 32.1604 44.3889C32.5614 44.2729 32.8374 43.9058 32.8374 43.4884C32.8374 43.0709 32.5614 42.7039 32.1604 42.5879C31.9067 42.5144 31.7324 42.2785 31.7369 42.0143C31.7422 41.7019 32.0342 41.4379 32.3747 41.4379H35.1479C36.0666 41.4379 36.8138 42.1852 36.8138 43.1036V49.7274C36.8138 50.646 36.0664 51.3932 35.1479 51.3932H32.3747C32.0343 51.3932 31.7422 51.1292 31.7369 50.8167C31.7324 50.5525 31.9066 50.3166 32.1604 50.2431C32.5614 50.1271 32.8376 49.76 32.8374 49.3425C32.8374 48.9251 32.5614 48.558 32.1603 48.442C31.9109 48.37 31.7368 48.1384 31.7368 47.8791C31.7368 47.6197 31.9111 47.3883 32.1604 47.316C32.5614 47.2 32.8374 46.833 32.8374 46.4155C32.8374 45.998 32.5613 45.631 32.1604 45.515ZM27.1864 43.1036C27.1864 42.1851 27.9338 41.4379 28.8523 41.4379H29.9368C29.8924 41.6133 29.8653 41.7951 29.8621 41.9826C29.8527 42.5385 30.0317 43.0646 30.3469 43.4897C30.0401 43.9041 29.8617 44.4139 29.8617 44.952C29.8617 45.4907 30.0406 46.001 30.3479 46.4155C30.0406 46.8301 29.8617 47.3404 29.8617 47.8791C29.8617 48.4174 30.0401 48.927 30.3469 49.3413C30.0318 49.7664 29.8527 50.2924 29.8621 50.8484C29.8652 51.036 29.8923 51.2179 29.9368 51.3932H28.8523C27.9337 51.3932 27.1864 50.6459 27.1864 49.7274V43.1036ZM13.1489 61.4371C12.2332 60.5213 12.2332 59.031 13.1489 58.1152L25.3114 45.9528V49.7274C25.3114 50.5326 25.5822 51.2756 26.0366 51.8711L16.4707 61.437C15.5549 62.3529 14.0648 62.3528 13.1489 61.4371ZM50.8512 61.437C49.9354 62.3529 48.4452 62.3529 47.5294 61.437L44.4056 58.3131C44.0394 57.9471 43.4458 57.9471 43.0798 58.3131C42.7137 58.6794 42.7137 59.2729 43.0798 59.639L45.5657 62.125H18.4344L27.5431 53.0164C27.9483 53.1783 28.3899 53.2684 28.8523 53.2684H31.6256C31.7551 53.2684 31.8822 53.2576 32.0067 53.2386C32.1272 53.2562 32.2494 53.2684 32.3746 53.2684H35.1478C35.6102 53.2684 36.0517 53.1784 36.4569 53.0165L39.9861 56.5455C40.1691 56.7285 40.4091 56.82 40.6489 56.82C40.8888 56.82 41.1288 56.7285 41.3118 56.5455C41.6779 56.1793 41.6779 55.5857 41.3118 55.2196L37.9634 51.8713C38.4179 51.2757 38.6887 50.5327 38.6887 49.7275V45.9529L50.8512 58.1155C51.2948 58.5591 51.5391 59.149 51.5391 59.7762C51.5391 60.4036 51.2948 60.9934 50.8512 61.437Z" fill="#C41230"/>
<path d="M34.1633 24.1934C32.9704 25.3863 31.0295 25.3863 29.8367 24.1934C29.4705 23.8274 28.8769 23.8274 28.5109 24.1934C28.1448 24.5597 28.1448 25.1532 28.5109 25.5193C29.4729 26.4812 30.7364 26.9622 32 26.9622C33.2637 26.9622 34.5272 26.4812 35.4892 25.5193C35.8553 25.1531 35.8553 24.5596 35.4892 24.1934C35.1229 23.8274 34.5293 23.8274 34.1633 24.1934Z" fill="#C41230"/>
<path d="M31.9999 23.162C32.5176 23.162 32.9374 22.7424 32.9374 22.2245C32.9374 21.7066 32.5176 21.287 31.9999 21.287C31.9105 21.287 31.8379 21.2143 31.8379 21.1249C31.8379 21.0355 31.9106 20.9629 31.9999 20.9629C32.5176 20.9629 32.9374 20.5433 32.9374 20.0254C32.9374 19.5075 32.5176 19.0879 31.9999 19.0879C30.8766 19.0879 29.9629 20.0018 29.9629 21.1249C29.9629 22.2481 30.8766 23.162 31.9999 23.162Z" fill="#C41230"/>
<path d="M30.0695 16.594C29.7034 16.2277 29.1098 16.2279 28.7437 16.5939C27.8973 17.4402 26.52 17.4402 25.6737 16.5939C25.3074 16.2279 24.7139 16.2277 24.3478 16.594C23.9817 16.9601 23.9818 17.5537 24.3478 17.9197C25.1365 18.7084 26.1725 19.1027 27.2085 19.1027C28.2445 19.1027 29.2805 18.7084 30.0693 17.9197C30.4355 17.5537 30.4357 16.9601 30.0695 16.594Z" fill="#C41230"/>
<path d="M39.6515 16.594C39.2854 16.2277 38.6917 16.2279 38.3256 16.5939C37.4792 17.4402 36.102 17.4402 35.2556 16.5939C34.8895 16.2279 34.2959 16.2277 33.9299 16.594C33.5637 16.9601 33.5637 17.5537 33.9299 17.9197C34.7187 18.7085 35.7545 19.1027 36.7906 19.1027C37.8265 19.1027 38.8627 18.7084 39.6514 17.9197C40.0176 17.5537 40.0176 16.9601 39.6515 16.594Z" fill="#C41230"/>
</svg>
