<svg width="64" height="64" viewBox="0 0 64 64" fill="none" xmlns="http://www.w3.org/2000/svg">
<g clip-path="url(#clip0_2969_1455)">
<path d="M60.5091 52.6743C59.8855 52.0012 59.1284 51.4969 58.2936 51.1835C58.0073 44.0015 52.311 38.1884 45.1775 37.7165V35.7612H48.8975C54.0854 35.7612 58.3061 31.5405 58.3061 26.3527V20.8069H52.7603C49.6516 20.8069 46.8916 22.3233 45.1775 24.6542V21.4204L48.904 17.694L47.5778 16.3679L44.2398 19.7059L35.3379 10.804C30.6276 5.76291 37.6573 -1.27022 42.7071 3.43491C42.707 3.43491 44.2398 4.96753 44.2398 4.96753L45.7724 3.43478C50.8263 -1.27184 57.8506 5.76741 53.1415 10.804L49.0263 14.9193L50.3525 16.2454L54.4678 12.1302C60.9773 5.11541 51.0056 -4.46172 44.2398 2.31503C37.4675 -4.46447 27.5045 5.12253 34.0118 12.1302L43.302 21.4204V24.6542C41.5879 22.3233 38.8279 20.8069 35.7193 20.8069H30.1734V26.3527C30.1734 31.5405 34.394 35.7612 39.582 35.7612H43.302V37.7174C39.4183 37.9802 35.7773 39.863 33.315 42.8922L28.3148 41.4193H2.85352V43.2948H28.0443L42.8043 47.6424C41.9453 49.1789 39.9756 49.9737 38.2891 49.4442L30.1308 46.9979V49.1799L35.1143 57.2843L47.8334 59.0605L53.5666 53.739C54.8451 52.5099 56.9588 52.3442 58.415 53.3375L48.9483 62.1245H35.9339L30.414 58.9222L29.4729 60.5444L35.4293 64H49.6845L61.1459 53.3617L60.5091 52.6743ZM52.7603 22.6824H56.4305V26.3527C56.4305 30.5064 53.0511 33.8857 48.8975 33.8857H46.4294L51.7663 28.5488L50.44 27.2227L45.2274 32.4353V30.2154C45.2273 26.0617 48.6065 22.6824 52.7603 22.6824ZM32.0489 26.3527V22.6824H35.7191C39.8729 22.6824 43.252 26.0617 43.252 30.2154V32.4353L38.0394 27.2227L36.7131 28.5488L42.05 33.8857H39.5819C35.4283 33.8857 32.0489 30.5064 32.0489 26.3527ZM52.2906 52.3644L47.2104 57.0799L36.2488 55.5492L32.6613 49.7148L37.7546 51.242C41.2916 52.2665 44.5664 49.9305 45.2384 46.4044L35.2914 43.4744C37.585 41.003 40.8396 39.5602 44.2398 39.5602C50.647 39.5602 55.9156 44.5287 56.395 50.8153C54.8673 50.7749 53.4123 51.3233 52.2906 52.3644Z" fill="#C41230"/>
<path d="M2.85352 54.5078V56.3833H22.3005L27.7089 59.5209L28.65 57.8987L22.8053 54.5078H2.85352Z" fill="#C41230"/>
<path d="M34.0752 25.917L35.4013 24.5909L36.7471 25.9368L35.4211 27.2629L34.0752 25.917Z" fill="#C41230"/>
<path d="M51.7178 25.9429L53.0636 24.597L54.3897 25.9231L53.0438 27.2689L51.7178 25.9429Z" fill="#C41230"/>
<path d="M35.7998 5.77783H37.6753V7.65333H35.7998V5.77783Z" fill="#C41230"/>
<path d="M39.5508 5.77783H41.4263V7.65333H39.5508V5.77783Z" fill="#C41230"/>
</g>
<defs>
<clipPath id="clip0_2969_1455">
<rect width="64" height="64" fill="white"/>
</clipPath>
</defs>
</svg>
