<svg width="64" height="64" viewBox="0 0 64 64" fill="none" xmlns="http://www.w3.org/2000/svg">
<path d="M50.4019 18.1382C47.5441 20.3099 46.9138 24.2838 49.405 26.9912L52.4448 30.2661L47.6053 28.7519C46.3543 31.7386 47.492 34.9744 50.6605 36.0263L53.445 36.8974L52.5888 43.0284L46.756 46.6151L48.2829 41.5229C49.3074 37.9881 46.9715 34.7126 43.4466 34.0412L38.4629 50.9603V63.9999H40.3379V51.2309L44.6844 36.4749C46.2204 37.3338 47.0146 39.3027 46.4856 40.9888L44.04 49.1451H46.2214L54.3236 44.1628L56.0994 31.4472L50.7791 25.7154C49.5505 24.4374 49.3846 22.3243 50.3778 20.8683L59.1624 30.3326V43.3434L55.9609 48.8617L57.5828 49.8026L61.0375 43.8478V29.5964L50.4019 18.1382ZM51.2203 34.2368C49.8919 33.8447 48.9353 32.5186 48.9646 31.1421L54.0275 32.7261L53.7079 35.0151L51.2203 34.2368Z" fill="#C41230"/>
<path d="M51.5479 56.4686V64.0002H53.4229V56.9732L56.5597 51.5664L54.9379 50.6255L51.5479 56.4686Z" fill="#C41230"/>
<path d="M19.6553 34.3049C16.6358 35.1252 14.7719 38.5426 15.719 41.5272L17.2445 46.6149L11.4118 43.0283L10.5555 36.8973L13.34 36.0262C16.5099 34.9733 17.6455 31.7378 16.3951 28.7519L11.5556 30.2661L14.5955 26.9911C17.0874 24.2827 16.4556 20.3094 13.5985 18.1382L2.96289 29.5964V43.8479L10.5775 56.9729V63.9998H12.4525V56.4682L4.83802 43.3433V30.3324L13.6226 20.8682C14.6158 22.3246 14.4499 24.4372 13.2213 25.7153L7.90114 31.4471L9.67689 44.1627L17.7791 49.1449H19.9605L17.5161 40.9931C16.9856 39.3018 17.7784 37.3357 19.316 36.4748L23.6625 51.2308V63.9998H25.5375V50.9603L20.5538 34.0412L19.6553 34.3049ZM14.6688 32.6586C13.8948 34.2971 11.7938 34.4636 10.2926 35.0149L9.97302 32.7259L15.0359 31.1419C15.041 31.6639 14.9175 32.1827 14.6688 32.6586Z" fill="#C41230"/>
<path d="M45.1324 13.1316C45.1324 5.89075 39.2416 0 32.0008 0C24.7599 0 18.8691 5.89075 18.8691 13.1316C18.8691 20.3725 24.7599 26.2633 32.0008 26.2633C39.2416 26.2633 45.1324 20.3724 45.1324 13.1316ZM43.218 12.1941H37.5969C37.4846 8.45988 36.7051 4.70975 35.3164 2.37363C39.623 3.7035 42.8335 7.554 43.218 12.1941ZM35.7213 14.0691C35.537 20.4865 33.4893 24.3884 32.0008 24.3884C30.5123 24.3884 28.4645 20.4865 28.2803 14.0691H30.1258V12.1941H28.2803C28.4645 5.77675 30.5123 1.875 32.0008 1.875C33.4893 1.875 35.537 5.77675 35.7213 12.1941H32.0008V14.0691H35.7213ZM28.6853 2.3735C27.2964 4.70963 26.5169 8.45975 26.4048 12.194H20.7836C21.168 7.554 24.3785 3.7035 28.6853 2.3735ZM20.7835 14.0691H26.4046C26.5169 17.8035 27.2964 21.5536 28.6851 23.8897C24.3785 22.5597 21.1679 18.7092 20.7835 14.0691ZM35.3163 23.8897C36.7051 21.5536 37.4846 17.8034 37.5968 14.0691H43.2179C42.8336 18.7092 39.623 22.5597 35.3163 23.8897Z" fill="#C41230"/>
</svg>
