<svg width="64" height="64" viewBox="0 0 64 64" fill="none" xmlns="http://www.w3.org/2000/svg">
<g clip-path="url(#clip0_3240_1376)">
<path d="M60.6014 17.636C60.3687 17.1734 59.805 16.9874 59.3422 17.2199C58.8798 17.4527 58.6935 18.0165 58.9263 18.4791C60.9084 22.4176 61.9773 26.6465 62.1098 31.0626H50.9209C50.4029 31.0626 49.9832 31.4824 49.9832 32.0003C49.9832 32.5181 50.4029 32.938 50.9209 32.938H62.1086C61.8897 40.1466 59.1503 46.921 54.3093 52.2439C51.8125 49.8122 48.971 47.8242 45.8406 46.3226C46.1054 45.2091 46.3404 44.0591 46.5436 42.8757C46.6312 42.3652 46.2884 41.8805 45.7781 41.793C45.2668 41.7052 44.783 42.0483 44.6953 42.5585C43.7031 48.3399 41.9436 53.2742 39.607 56.8278C38.018 59.2444 35.4085 62.125 32.0004 62.125C28.593 62.125 25.9837 59.2444 24.3947 56.8278C22.0581 53.2742 20.2981 48.3399 19.3054 42.5584C19.2179 42.048 18.7341 41.7052 18.2225 41.7929C17.7122 41.8805 17.3695 42.3654 17.4571 42.8757C17.6603 44.059 17.8956 45.209 18.1604 46.3225C15.03 47.8239 12.1883 49.812 9.69156 52.2437C4.85064 46.9208 2.1113 40.1465 1.89238 32.9378H13.08C13.598 32.9378 14.0177 32.518 14.0177 32.0001C14.0177 31.4823 13.598 31.0624 13.08 31.0624H1.89226C2.11231 23.8199 4.87727 17.0162 9.76107 11.6816C12.242 14.0798 15.0985 16.0626 18.1929 17.5466C18.1191 17.8525 18.0475 18.1609 17.9783 18.4723C17.8661 18.978 18.1848 19.4788 18.6904 19.5911C19.1965 19.7035 19.6967 19.3844 19.809 18.8789C19.8507 18.6911 19.8935 18.5049 19.9368 18.3196C20.7607 18.6556 21.5986 18.9578 22.4488 19.2233C22.5418 19.2523 22.6358 19.2661 22.7284 19.2661C23.1277 19.2661 23.4979 19.009 23.6232 18.6076C23.7775 18.1133 23.5018 17.5874 23.0074 17.4331C22.1246 17.1576 21.2555 16.8404 20.403 16.4839C22.8666 7.53012 27.2948 1.8759 32.0001 1.8759C36.7054 1.8759 41.1336 7.53012 43.5972 16.4839C42.7447 16.8404 41.8756 17.1576 40.9928 17.4331C40.4984 17.5874 40.2227 18.1133 40.377 18.6076C40.5023 19.009 40.8725 19.2661 41.2718 19.2661C41.3644 19.2661 41.4585 19.2524 41.5514 19.2233C42.4016 18.9579 43.2395 18.6556 44.0634 18.3196C44.1068 18.505 44.1496 18.6911 44.1912 18.8789C44.2882 19.316 44.6757 19.6136 45.1057 19.6136C45.1729 19.6136 45.2413 19.6062 45.3098 19.5911C45.8154 19.4788 46.1343 18.978 46.0219 18.4723C45.9527 18.1609 45.8811 17.8526 45.8073 17.5466C48.9019 16.0626 51.7585 14.0798 54.2394 11.6815C55.274 12.815 56.2318 14.0333 57.0976 15.3348C57.3844 15.7659 57.9666 15.883 58.3977 15.5961C58.8287 15.3093 58.9459 14.7272 58.659 14.2961C52.7042 5.3444 42.7382 0 32.0004 0C23.4531 0 15.4173 3.32872 9.37324 9.37301C3.32944 15.4172 0.000976562 23.4532 0.000976562 32.0006C0.000976562 40.548 3.32944 48.5837 9.37337 54.6276C15.4173 60.6715 23.453 64 32.0005 64C40.5479 64 48.5837 60.6715 54.6276 54.6276C60.6715 48.5837 64 40.548 64 32.0006C63.9997 26.9494 62.8564 22.1165 60.6014 17.636ZM41.1738 57.8584C42.8902 55.248 44.3085 51.9588 45.3623 48.178C48.1787 49.5717 50.7424 51.3873 53.0049 53.5914C48.8198 57.6656 43.6561 60.3825 38.0487 61.5195C39.1509 60.5641 40.1987 59.3414 41.1738 57.8584ZM22.8276 57.8584C23.8016 59.3396 24.8474 60.5633 25.9482 61.5181C20.3422 60.3806 15.18 57.6645 10.9958 53.5911C13.2583 51.3869 15.822 49.5714 18.6385 48.1777C19.6927 51.9588 21.111 55.248 22.8276 57.8584ZM23.3921 5.32389C21.4576 7.99447 19.8484 11.5437 18.6764 15.6972C15.8904 14.3196 13.3162 12.5094 11.0686 10.3376C15.2428 6.30035 20.3825 3.60753 25.9607 2.47816C25.0647 3.25257 24.2047 4.20215 23.3921 5.32389ZM40.6087 5.32389C39.7994 4.20665 38.9431 3.25958 38.051 2.48678C43.6611 3.63278 48.8182 6.35599 52.9328 10.3365C50.685 12.5088 48.1104 14.3193 45.3241 15.6972C44.1521 11.5435 42.543 7.99422 40.6087 5.32389Z" fill="#C41230"/>
<path d="M32.0009 24.8864C33.9071 24.8864 35.4579 23.3356 35.4579 21.4293C35.4579 19.523 33.9071 17.9722 32.0009 17.9722C30.0948 17.9722 28.5439 19.523 28.5439 21.4293C28.5438 23.3356 30.0948 24.8864 32.0009 24.8864ZM32.0009 19.8477C32.8731 19.8477 33.5825 20.5572 33.5825 21.4294C33.5825 22.3016 32.873 23.0111 32.0009 23.0111C31.1289 23.0111 30.4193 22.3016 30.4193 21.4294C30.4192 20.5572 31.1288 19.8477 32.0009 19.8477Z" fill="#C41230"/>
<path d="M45.4049 28.4592C46.9278 27.8353 48.0032 26.3412 48.0032 24.601C48.0032 22.3016 46.1265 20.4309 43.8198 20.4309H39.3706C38.9066 16.7904 35.7785 13.9663 32.001 13.9663C28.2234 13.9663 25.0954 16.7904 24.6314 20.4309H20.1821C17.8754 20.4309 15.9988 22.3016 15.9988 24.601C15.9988 26.3413 17.0743 27.8353 18.5971 28.4592L14.2023 33.7402L14.2024 33.7403C14.067 33.9028 13.9854 34.1119 13.9854 34.3401C13.9854 37.745 16.7652 40.5153 20.1821 40.5153C23.599 40.5153 26.3789 37.745 26.3789 34.3401C26.3789 34.1119 26.2972 33.9028 26.1618 33.7403L26.162 33.7402L22.0266 28.771H28.6175V42.1441H24.0715C23.1736 42.1441 22.3293 42.4938 21.6943 43.129C21.0592 43.7641 20.7095 44.6083 20.7095 45.5061C20.7095 47.3599 22.2176 48.8681 24.0715 48.8681H25.2543C25.7723 48.8681 26.192 48.4482 26.192 47.9304C26.192 47.4125 25.7723 46.9927 25.2543 46.9927H24.0715C23.2518 46.9927 22.585 46.3258 22.585 45.5061C22.585 45.1091 22.7396 44.7358 23.0204 44.455C23.3012 44.1742 23.6744 44.0195 24.0714 44.0195H39.9298C40.7495 44.0195 41.4164 44.6864 41.4164 45.5061C41.4164 45.903 41.2617 46.2764 40.9809 46.5572C40.7001 46.838 40.3269 46.9927 39.9299 46.9927H29.0051C28.4871 46.9927 28.0674 47.4125 28.0674 47.9304C28.0674 48.4482 28.4871 48.8681 29.0051 48.8681H39.9299C40.8279 48.8681 41.6722 48.5184 42.3072 47.8832C42.9422 47.2481 43.2919 46.4039 43.2919 45.5061C43.2919 43.6523 41.7838 42.1441 39.9299 42.1441H35.384V28.771H41.9755L37.8401 33.7402L37.8402 33.7403C37.7048 33.9028 37.6232 34.1119 37.6232 34.3401C37.6232 37.745 40.403 40.5153 43.8199 40.5153C47.2369 40.5153 50.0167 37.745 50.0167 34.3401C50.0167 34.1119 49.9351 33.9028 49.7997 33.7403L49.7998 33.7402L45.4049 28.4592ZM17.8742 24.601C17.8742 23.3357 18.9094 22.3064 20.1821 22.3064H25.5097C26.0277 22.3064 26.4474 21.8865 26.4474 21.3686C26.4474 18.3211 28.9387 15.8417 32.001 15.8417C35.0633 15.8417 37.5545 18.3211 37.5545 21.3686C37.5545 21.8865 37.9743 22.3064 38.4922 22.3064H43.8198C45.0924 22.3064 46.1278 23.3357 46.1278 24.601C46.1278 25.8662 45.0924 26.8956 43.8198 26.8956H20.1821C18.9094 26.8956 17.8742 25.8662 17.8742 24.601ZM20.1821 29.4864L23.4409 33.4022H16.9232L20.1821 29.4864ZM20.1821 38.6399C18.1229 38.6399 16.3954 37.1992 15.9643 35.2778H24.4001C23.9689 37.1992 22.2413 38.6399 20.1821 38.6399ZM33.5084 42.1441H30.4929V28.771H33.5084V42.1441ZM47.0787 33.4022H40.5611L43.8199 29.4864L47.0787 33.4022ZM43.8198 38.6399C41.7606 38.6399 40.0331 37.1992 39.602 35.2778H48.0378C47.6066 37.1992 45.8791 38.6399 43.8198 38.6399Z" fill="#C41230"/>
</g>
<defs>
<clipPath id="clip0_3240_1376">
<rect width="64" height="64" fill="white"/>
</clipPath>
</defs>
</svg>
