<svg width="64" height="64" viewBox="0 0 64 64" fill="none" xmlns="http://www.w3.org/2000/svg">
<g clip-path="url(#clip0_2969_1445)">
<path d="M20.2645 5.62288C20.7822 5.62288 21.2016 5.20328 21.2016 4.68571C21.2016 4.16814 20.7822 3.74854 20.2645 3.74854H16.7331C16.2154 3.74854 15.7959 4.16814 15.7959 4.68571C15.7959 5.20328 16.2154 5.62288 16.7331 5.62288H20.2645Z" fill="#C41230"/>
<path d="M22.5259 39.7808H10.3473C9.82963 39.7808 9.41016 40.2004 9.41016 40.7179C9.41016 41.2355 9.82963 41.6551 10.3473 41.6551H22.5261C23.0438 41.6551 23.4632 41.2355 23.4632 40.7179C23.4632 40.2004 23.0436 39.7808 22.5259 39.7808Z" fill="#C41230"/>
<path d="M10.3473 46.8187H21.5264C22.0441 46.8187 22.4636 46.3991 22.4636 45.8815C22.4636 45.3639 22.0441 44.9443 21.5264 44.9443H10.3473C9.82963 44.9443 9.41016 45.3639 9.41016 45.8815C9.41016 46.3991 9.82963 46.8187 10.3473 46.8187Z" fill="#C41230"/>
<path d="M22.5259 50.1074H10.3473C9.82963 50.1074 9.41016 50.527 9.41016 51.0446C9.41016 51.5622 9.82963 51.9818 10.3473 51.9818H22.5261C23.0438 51.9818 23.4632 51.5622 23.4632 51.0446C23.4632 50.527 23.0436 50.1074 22.5259 50.1074Z" fill="#C41230"/>
<path d="M44.7506 25.5013C42.0464 25.5013 39.4208 26.0579 36.9969 27.1273V7.55986C36.9969 3.39131 33.6055 0 29.4371 0H7.55986C3.39144 0 0 3.39131 0 7.55986V15.7445C0 16.2621 0.419478 16.6817 0.937172 16.6817C1.45487 16.6817 1.87434 16.2621 1.87434 15.7445V7.55986C1.87434 4.42483 4.42483 1.87434 7.55986 1.87434H29.4371C32.5721 1.87434 35.1226 4.42483 35.1226 7.55986V28.0803C34.7374 28.3037 34.358 28.5396 33.9864 28.7909L33.2481 28.4604V7.76816C33.2481 5.55181 31.445 3.74869 29.2288 3.74869H25.683C24.8597 3.74869 24.085 4.11106 23.5573 4.74272L22.5444 5.95529C22.1278 6.45412 21.5161 6.74014 20.8661 6.74014H16.2012C15.5693 6.74014 14.9688 6.46711 14.5534 5.99103L13.4248 4.69748C12.8987 4.09457 12.138 3.74869 11.3378 3.74869H7.76816C5.55181 3.74869 3.74869 5.55181 3.74869 7.76816V56.2096C3.74869 58.4258 5.55181 60.2289 7.76816 60.2289H29.2288C30.2584 60.2289 31.2405 59.8262 31.9772 59.1377C32.4694 59.5752 32.9838 59.988 33.519 60.3739C32.4569 61.4699 30.991 62.1033 29.4371 62.1033H7.55986C4.42483 62.1033 1.87434 59.5528 1.87434 56.4178V19.6181C1.87434 19.1006 1.45487 18.681 0.937172 18.681C0.419478 18.681 0 19.1006 0 19.6181V56.4178C0 60.5863 3.39144 63.9776 7.55986 63.9776H29.4371C31.6279 63.9776 33.6882 63.0321 35.1148 61.4093C37.9505 63.0558 41.2423 64 44.7507 64C48.7328 64 52.555 62.7934 55.8039 60.5108C56.2275 60.2133 56.3294 59.6288 56.0319 59.2053C55.7344 58.7817 55.1498 58.6796 54.7264 58.9773C51.7946 61.0369 48.3451 62.1257 44.7506 62.1257C35.2983 62.1257 27.3757 54.2133 27.3757 44.7506C27.3757 41.2877 28.3918 37.9436 30.3142 35.08C30.4838 34.8273 30.5202 34.5079 30.4117 34.2235L28.1756 28.3626C28.168 28.2972 28.1966 28.2702 28.2615 28.2814L33.7043 30.718C34.0089 30.8543 34.3626 30.8185 34.6336 30.6242C37.5956 28.4989 41.094 27.3756 44.7509 27.3756C54.3314 27.3756 62.1258 35.17 62.1258 44.7505C62.1258 49.2019 60.4435 53.4358 57.3891 56.6727C57.0337 57.0491 57.0509 57.6422 57.4274 57.9975C57.8039 58.3527 58.397 58.3357 58.7522 57.9591C62.1365 54.3731 64.0003 49.6821 64.0003 44.7505C64 34.1366 55.3646 25.5013 44.7506 25.5013ZM5.62303 13.6411H31.3738V20.3784H26.0508L23.1701 17.4978C22.804 17.1318 22.2107 17.1318 21.8447 17.4978L14.1354 25.2072L11.2057 22.2772C11.0299 22.1014 10.7916 22.0027 10.5429 22.0027H5.62303V13.6411ZM7.76816 5.62303H11.3378C11.5964 5.62303 11.8424 5.73487 12.0124 5.9298L13.141 7.22322C13.9124 8.10729 15.0277 8.61436 16.2011 8.61436H20.866C22.0729 8.61436 23.2089 8.08317 23.9826 7.15687L24.9956 5.94417C25.1661 5.73999 25.4166 5.62291 25.6828 5.62291H29.2285C30.4114 5.62291 31.3735 6.5852 31.3735 7.76803V11.7666H5.62303V7.76803C5.62303 6.58532 6.58532 5.62303 7.76816 5.62303ZM25.5013 44.7506C25.5013 49.7941 27.452 54.3897 30.6373 57.8255C30.2512 58.1607 29.7513 58.3546 29.2289 58.3546H7.76816C6.58532 58.3546 5.62303 57.3923 5.62303 56.2095V32.926H27.9105L28.4902 34.4453C26.5333 37.526 25.5013 41.0784 25.5013 44.7506ZM26.9041 26.931C26.3323 27.4714 26.144 28.2955 26.4244 29.0306L27.1954 31.0515H5.62303V23.8769H10.1548L13.4728 27.1949C13.9146 27.5609 14.3565 27.5609 14.7982 27.1949L22.5075 19.4854L24.9999 21.9779C25.1757 22.1538 25.414 22.2525 25.6627 22.2525H31.3738V27.6211L29.0274 26.5707C28.3092 26.2492 27.4759 26.3908 26.9041 26.931Z" fill="#C41230"/>
<path d="M57.4652 38.7702L57.0132 37.1802C56.8154 36.4852 56.2586 35.939 55.5599 35.7551L54.0588 35.3597C53.2344 34.5517 50.7215 32.184 48.9322 31.5176C48.3782 31.3113 47.7937 31.3819 47.3281 31.7114C46.8468 32.0522 46.5661 32.6278 46.5774 33.2579C46.6336 35.5306 45.2338 35.9084 42.0263 36.2291C41.6516 36.2666 41.3357 36.5247 41.2242 36.8846L37.9939 47.3224L35.141 49.668C33.9822 50.6208 33.3174 52.0277 33.3174 53.5279C33.3174 54.9388 34.457 56.0866 35.8577 56.0866H40.9056C42.1893 56.0866 43.4328 55.5529 44.3173 54.6224L56.7596 41.5307C57.4743 40.8095 57.7446 39.7531 57.4652 38.7702ZM46.2857 37.1897C47.735 36.4416 48.4637 35.1467 48.4533 33.3458C49.4465 33.7878 50.9502 34.9983 52.2416 36.2127L49.6371 38.8174L42.3766 39.5009L42.8317 38.0303C44.0144 37.9027 45.2711 37.7137 46.2857 37.1897ZM47.172 43.2282C47.1076 43.4468 47.0038 43.6486 46.864 43.8279L46.1669 44.6892L41.2205 43.2362C41.4058 42.6376 41.591 42.0388 41.7763 41.4401L47.9124 40.8625C47.8367 41.0258 47.7713 41.1941 47.7203 41.3673L47.172 43.2282ZM36.3313 51.1157L39.4013 48.5916C39.543 48.4752 39.6473 48.3198 39.7014 48.1448L40.6663 45.0269L44.8895 46.2674L40.6737 51.4764C40.6507 51.5047 40.6182 51.5227 40.582 51.5271C40.568 51.5287 40.554 51.5307 40.5401 51.5331L35.4077 52.3862C35.5996 51.8972 35.9137 51.4591 36.3313 51.1157ZM55.4253 40.2146C55.4197 40.2202 55.414 40.2259 55.4085 40.2317L42.9588 53.3311C42.4266 53.891 41.6782 54.2123 40.9057 54.2123H35.8579C35.8562 54.2123 35.8546 54.2123 35.853 54.2123L40.8298 53.3851C41.3433 53.3172 41.8048 53.0587 42.1309 52.6555L48.3258 45.0013C48.3285 44.9978 48.3315 44.9941 48.3343 44.9905C48.6233 44.6224 48.8371 44.2079 48.9698 43.7586L49.5185 41.8972C49.6033 41.6093 49.7604 41.345 49.9728 41.1326L53.8597 37.2456L55.0824 37.5676C55.1439 37.5838 55.1929 37.632 55.2102 37.6931L55.6622 39.2828C55.7572 39.6164 55.6663 39.9735 55.4253 40.2146Z" fill="#C41230"/>
<path d="M47.5583 54.2124C47.0406 54.2124 46.6211 54.632 46.6211 55.1496C46.6211 55.6671 47.0406 56.0867 47.5583 56.0867H52.8714C53.3891 56.0867 53.8086 55.6671 53.8086 55.1496C53.8086 54.632 53.3891 54.2124 52.8714 54.2124H47.5583Z" fill="#C41230"/>
<path d="M56.2129 51.3166C56.2129 50.799 55.7934 50.3794 55.2757 50.3794H50.8464C50.3287 50.3794 49.9092 50.799 49.9092 51.3166C49.9092 51.8341 50.3287 52.2537 50.8464 52.2537H55.2757C55.7934 52.2537 56.2129 51.8341 56.2129 51.3166Z" fill="#C41230"/>
</g>
<defs>
<clipPath id="clip0_2969_1445">
<rect width="64" height="64" fill="white"/>
</clipPath>
</defs>
</svg>
