<svg width="64" height="64" viewBox="0 0 64 64" fill="none" xmlns="http://www.w3.org/2000/svg">
<path d="M13.1641 22.8379C12.6462 22.8379 12.2266 23.2575 12.2266 23.7754V26.2935C12.2266 26.8114 12.6462 27.231 13.1641 27.231C13.6819 27.231 14.1016 26.8114 14.1016 26.2935V23.7754C14.1016 23.2576 13.6818 22.8379 13.1641 22.8379Z" fill="#C41230"/>
<path d="M17.4541 22.8379C16.9362 22.8379 16.5166 23.2575 16.5166 23.7754V26.2935C16.5166 26.8114 16.9362 27.231 17.4541 27.231C17.972 27.231 18.3916 26.8114 18.3916 26.2935V23.7754C18.3916 23.2576 17.972 22.8379 17.4541 22.8379Z" fill="#C41230"/>
<path d="M21.7441 22.8379C21.2263 22.8379 20.8066 23.2575 20.8066 23.7754V26.2935C20.8066 26.8114 21.2263 27.231 21.7441 27.231C22.262 27.231 22.6816 26.8114 22.6816 26.2935V23.7754C22.6816 23.2576 22.262 22.8379 21.7441 22.8379Z" fill="#C41230"/>
<path d="M26.0342 22.8379C25.5163 22.8379 25.0967 23.2575 25.0967 23.7754V26.2935C25.0967 26.8114 25.5163 27.231 26.0342 27.231C26.5521 27.231 26.9717 26.8114 26.9717 26.2935V23.7754C26.9717 23.2576 26.5519 22.8379 26.0342 22.8379Z" fill="#C41230"/>
<path d="M23.8012 42.4443H20.2402C19.7224 42.4443 19.3027 42.864 19.3027 43.3818C19.3027 43.8997 19.7224 44.3193 20.2402 44.3193H23.8012C24.3191 44.3193 24.7387 43.8997 24.7387 43.3818C24.7387 42.864 24.3191 42.4443 23.8012 42.4443Z" fill="#C41230"/>
<path d="M33.7807 42.4443H30.2197C29.7019 42.4443 29.2822 42.864 29.2822 43.3818C29.2822 43.8997 29.7019 44.3193 30.2197 44.3193H33.7807C34.2986 44.3193 34.7182 43.8997 34.7182 43.3818C34.7182 42.864 34.2986 42.4443 33.7807 42.4443Z" fill="#C41230"/>
<path d="M43.7591 42.4443H40.1982C39.6804 42.4443 39.2607 42.864 39.2607 43.3818C39.2607 43.8997 39.6804 44.3193 40.1982 44.3193H43.7591C44.277 44.3193 44.6966 43.8997 44.6966 43.3818C44.6966 42.864 44.277 42.4443 43.7591 42.4443Z" fill="#C41230"/>
<path d="M63.2637 47.0954C62.7962 46.6806 62.1725 46.4855 61.5531 46.5599C60.36 46.703 59.5529 47.0153 58.8409 47.291C57.9264 47.645 57.0628 47.9794 55.2964 47.9794C55.2467 47.9794 55.2002 47.9781 55.152 47.9776L57.5942 39.9231H58.8705C59.5254 39.9231 60.1096 39.5074 60.3244 38.8885L62.4916 32.6393C62.6545 32.1698 62.5796 31.6476 62.2915 31.2429C62.0033 30.838 61.5346 30.5963 61.0378 30.5963H55.7004V25.0258C55.7004 23.8195 54.7191 22.8383 53.5129 22.8383H50.5286V17.2678C50.5286 16.0616 49.5472 15.0803 48.3411 15.0803H46.4625C45.9446 15.0803 45.525 15.4999 45.525 16.0178C45.525 16.5356 45.9446 16.9553 46.4625 16.9553H48.3411C48.5135 16.9553 48.6536 17.0954 48.6536 17.2678V22.8383H44.5445C44.5234 22.8383 44.5027 22.84 44.482 22.8414C44.4613 22.84 44.4406 22.8383 44.4195 22.8383H40.1854V17.2678C40.1854 17.0954 40.3255 16.9553 40.4979 16.9553H42.3766C42.8945 16.9553 43.3141 16.5356 43.3141 16.0178C43.3141 15.4999 42.8945 15.0803 42.3766 15.0803H40.4979C39.2918 15.0803 38.3104 16.0616 38.3104 17.2678V22.8383H35.3262C34.1201 22.8383 33.1387 23.8195 33.1387 25.0258V30.5963H30.8979V19.7858C30.8979 18.5796 29.9165 17.5983 28.7104 17.5983H24.1238V7.44238C24.1238 6.23626 23.1424 5.25488 21.9363 5.25488H17.2612C16.0551 5.25488 15.0737 6.23626 15.0737 7.44238V17.598H10.4873C9.28113 17.598 8.29975 18.5794 8.29975 19.7855V30.596H2.96225C2.46537 30.596 1.99675 30.8376 1.70875 31.2424C1.4205 31.6471 1.34575 32.1693 1.5085 32.639L3.67575 38.8884C3.8905 39.5071 4.47475 39.9229 5.12962 39.9229H6.40588L8.84813 47.9774C8.79963 47.9779 8.75288 47.9791 8.70288 47.9791C6.93663 47.9791 6.073 47.6448 5.15863 47.2908C4.44663 47.0151 3.63975 46.7028 2.44688 46.5596C1.82763 46.4856 1.20375 46.6806 0.73625 47.0951C0.268375 47.5105 0 48.1071 0 48.7323V56.5571C0 57.7633 0.981375 58.7446 2.1875 58.7446H43.5589C44.0768 58.7446 44.4964 58.325 44.4964 57.8071C44.4964 57.2893 44.0768 56.8696 43.5589 56.8696H2.1875C2.01513 56.8696 1.875 56.7295 1.875 56.5571V48.7323C1.875 48.6098 1.94112 48.5329 1.98075 48.4979C2.01975 48.4631 2.10262 48.4066 2.2235 48.4214C3.18237 48.5365 3.8135 48.7808 4.4815 49.0394C5.46813 49.4214 6.58625 49.8541 8.70275 49.8541C10.8194 49.8541 11.9375 49.4213 12.9241 49.0394C13.8384 48.6855 14.7021 48.3511 16.4683 48.3511C18.2346 48.3511 19.0982 48.6855 20.0126 49.0395C20.9991 49.4214 22.1172 49.8543 24.2337 49.8543C26.3503 49.8543 27.4683 49.4214 28.4549 49.0395C29.3691 48.6855 30.2329 48.3511 31.9989 48.3511C33.7651 48.3511 34.6289 48.6855 35.5434 49.0395C36.5299 49.4214 37.648 49.8543 39.7646 49.8543C41.8811 49.8543 42.9994 49.4214 43.9859 49.0395C44.9002 48.6855 45.7641 48.3511 47.5304 48.3511C49.2968 48.3511 50.1605 48.6855 51.075 49.0395C52.0616 49.4214 53.1799 49.8543 55.2964 49.8543C57.413 49.8543 58.5311 49.4214 59.5177 49.0395C60.1861 48.7809 60.8172 48.5365 61.7764 48.4215C61.8973 48.4071 61.9802 48.4631 62.0192 48.498C62.0588 48.533 62.125 48.6099 62.125 48.7324V56.5573C62.125 56.7296 61.9849 56.8698 61.8125 56.8698H47.8085C47.2906 56.8698 46.871 57.2894 46.871 57.8073C46.871 58.3251 47.2906 58.7448 47.8085 58.7448H61.8125C63.0186 58.7448 64 57.7634 64 56.5573V48.7323C64 48.1071 63.7316 47.5105 63.2637 47.0954ZM53.8254 25.0255V30.596H45.357V24.713H53.5129C53.6851 24.713 53.8254 24.8531 53.8254 25.0255ZM35.0136 25.0255C35.0136 24.8531 35.1538 24.713 35.3261 24.713H43.4819V30.596H35.0136V25.0255ZM17.2612 7.12988H21.9363C22.1086 7.12988 22.2488 7.27001 22.2488 7.44238V11.4264H16.9487V7.44238C16.9487 7.27001 17.0889 7.12988 17.2612 7.12988ZM16.9487 13.3014H22.2488V17.598H16.9487V13.3014ZM10.1748 19.7855C10.1748 19.6131 10.3149 19.473 10.4873 19.473H28.7103C28.8826 19.473 29.0228 19.6131 29.0228 19.7855V30.596H10.1748V19.7855ZM47.5303 46.4761C45.4136 46.4761 44.2954 46.909 43.3089 47.2909C42.3946 47.6449 41.5308 47.9793 39.7646 47.9793C37.9984 47.9793 37.1346 47.6449 36.2202 47.2909C35.2336 46.909 34.1155 46.4761 31.999 46.4761C29.8825 46.4761 28.7645 46.909 27.778 47.2909C26.8638 47.6449 26 47.9793 24.2339 47.9793C22.4676 47.9793 21.604 47.6449 20.6896 47.291C19.703 46.909 18.5849 46.4761 16.4683 46.4761C14.3518 46.4761 13.2336 46.909 12.2471 47.2909C11.7771 47.4729 11.3195 47.6493 10.7469 47.778L8.36512 39.9229H16.3945C16.9124 39.9229 17.332 39.5033 17.332 38.9854C17.332 38.4675 16.9124 38.0479 16.3945 38.0479H5.36875L3.43462 32.471H60.5653L58.6311 38.0479H20.4804C19.9625 38.0479 19.5429 38.4675 19.5429 38.9854C19.5429 39.5033 19.9625 39.9229 20.4804 39.9229H55.6349L53.2531 47.7783C52.68 47.6494 52.2221 47.4729 51.7518 47.2909C50.7651 46.909 49.647 46.4761 47.5303 46.4761Z" fill="#C41230"/>
</svg>
