<svg width="64" height="64" viewBox="0 0 64 64" fill="none" xmlns="http://www.w3.org/2000/svg">
<g clip-path="url(#clip0_2968_1410)">
<path d="M12.542 53.9789C11.5255 54.5179 10.3755 54.8028 9.21625 54.8028H4.93337C4.27962 54.8028 3.74775 55.3346 3.74775 55.9884V58.45C3.74775 59.3191 4.45487 60.0261 5.32387 60.0261C5.55687 60.0261 5.74638 60.2156 5.74638 60.4486V61.2153C5.74638 61.5938 5.4385 61.9016 5.06 61.9016H2.55875C2.18025 61.9016 1.87238 61.5938 1.87238 61.2153V52.6388C1.87238 52.4993 1.98587 52.3858 2.12525 52.3858C3.40062 52.3858 4.43825 51.3481 4.43825 50.0728V47.9551V43.2394V42.8196C4.43825 39.6748 5.66813 36.7226 7.90112 34.5071C8.10625 34.3038 8.20587 34.017 8.17112 33.7304C8.1365 33.4438 7.97137 33.189 7.72388 33.0403C4.17775 30.91 1.97488 27.0273 1.97488 22.9074V19.0004C1.97488 18.4843 2.39475 18.0644 2.91087 18.0644C3.427 18.0644 3.84687 18.4843 3.84687 19.0004V22.9074C3.84687 27.0876 6.49325 30.8476 10.4321 32.2636C10.6663 32.3478 10.9243 32.3354 11.149 32.229L11.2424 32.1836C12.7844 31.4711 14.4349 31.1099 16.148 31.1099H30.1058C30.6228 31.1099 31.0417 30.6908 31.0417 30.1739C31.0417 29.6569 30.6226 29.2379 30.1058 29.2379H16.1479C14.2575 29.2379 12.4319 29.6178 10.7168 30.3675C7.7125 29.1274 5.71887 26.1755 5.71887 22.9075V19.0005C5.71887 17.4521 4.45913 16.1924 2.91075 16.1924C1.36237 16.1924 0.102625 17.452 0.102625 19.0004V22.9074C0.102625 27.299 2.262 31.4574 5.80512 34.0154C3.7085 36.4696 2.56587 39.5553 2.56587 42.8198V43.2395V47.9553V50.0729C2.56587 50.316 2.36812 50.5138 2.125 50.5138C0.95325 50.5138 0 51.467 0 52.6388V61.2153C0 62.626 1.14775 63.7738 2.5585 63.7738H5.05975C6.4705 63.7738 7.61825 62.626 7.61825 61.2153V60.4486C7.61825 59.2836 6.74563 58.3186 5.61963 58.173V56.6749H9.21638C10.6801 56.6749 12.1334 56.3146 13.419 55.633C13.8757 55.3909 14.0496 54.8243 13.8075 54.3675C13.5652 53.9106 12.9986 53.737 12.542 53.9789Z" fill="#C41230"/>
<path d="M62.2187 19.1392H59.5631H57.045C56.1453 19.1392 55.2898 18.7989 54.636 18.1812C53.633 17.2337 52.3209 16.7118 50.9413 16.7118H46.9507C45.3396 16.7118 43.773 17.1677 42.4201 18.0302C42.4033 18.0409 42.3878 18.0528 42.372 18.0644H40.709C39.029 18.0644 37.6621 19.4313 37.6621 21.1113V23.0042C37.6621 24.0707 37.9552 25.0967 38.5122 25.9959V28.6108C38.5122 28.9567 38.231 29.2381 37.885 29.2381H35.4623L30.7032 24.4789L31.5271 23.6551C31.9561 23.2261 32.1925 22.6556 32.1925 22.0488C32.1925 21.4421 31.9561 20.8717 31.5271 20.4426L22.4402 11.3556C22.0747 10.9901 21.482 10.9901 21.1165 11.3556C20.7508 11.7211 20.7508 12.3138 21.1165 12.6793L30.2033 21.7662C30.3051 21.8679 30.3203 21.9868 30.3203 22.0487C30.3203 22.1104 30.3052 22.2294 30.2033 22.3312L27.2318 25.3027C27.1301 25.4044 27.0112 25.4197 26.9493 25.4197C26.8876 25.4197 26.7687 25.4046 26.6668 25.3027L11.1757 9.81145L14.7121 6.27507L18.2048 9.76782C18.5703 10.1333 19.1631 10.1333 19.5286 9.76782C19.8942 9.40232 19.8942 8.80958 19.5286 8.44407L16.0358 4.95132L17.3491 3.63807C17.7147 3.27257 17.7147 2.67982 17.3491 2.31432C16.9836 1.94882 16.3908 1.94882 16.0253 2.31432L14.0508 4.28882C14.0506 4.28907 13.8386 4.50107 13.8386 4.50107L10.0206 0.682949C9.72595 0.388324 9.3342 0.226074 8.91745 0.226074C8.5007 0.226074 8.10895 0.388324 7.81433 0.682949L5.59945 2.89795C5.30483 3.19257 5.14258 3.58432 5.14258 4.00107C5.14258 4.41782 5.30483 4.80957 5.59945 5.1042L9.41745 8.9222L7.21495 11.1247C6.84933 11.4902 6.84933 12.0829 7.21495 12.4484C7.3977 12.6312 7.63733 12.7226 7.87683 12.7226C8.11633 12.7226 8.35595 12.6312 8.5387 12.4484L9.85195 11.1352L25.3432 26.6264C25.7722 27.0554 26.3426 27.2917 26.9495 27.2917C27.5562 27.2917 28.1266 27.0554 28.5557 26.6264L29.3796 25.8026L35.8817 32.3048C36.0646 32.4876 36.3042 32.5789 36.5436 32.5789C36.7829 32.5789 37.0227 32.4876 37.2055 32.3048C37.5307 31.9796 37.5657 31.4749 37.3123 31.1101H37.885C39.2631 31.1101 40.3842 29.9889 40.3842 28.6108V28.5994C40.9377 29.2359 41.7234 29.5968 42.5808 29.5969H42.581C43.532 29.5969 44.3961 29.1542 44.9515 28.3821L46.4286 26.3287H46.4287C47.1296 25.3542 47.5002 24.2047 47.5002 23.0043V21.1112C47.5002 20.0861 46.9907 19.1782 46.2122 18.6257C46.4563 18.5983 46.7027 18.5838 46.9507 18.5838H50.9413C51.841 18.5838 52.6965 18.9241 53.3503 19.5418C54.3532 20.4893 55.6653 21.0112 57.045 21.0112H58.7068C59.0502 22.6678 60.4257 23.9501 62.1282 24.1553V24.6964C62.1282 27.2412 60.058 29.3114 57.5132 29.3114H55.3267C54.5353 29.3114 53.8915 29.9553 53.8915 30.7467V35.7529C53.8048 35.7486 53.7182 35.7437 53.6313 35.7437C50.7617 35.7437 48.427 38.0784 48.427 40.9482C48.427 43.3123 50.012 45.312 52.1747 45.9437C50.7862 47.8586 48.6612 49.2229 46.1952 49.5787C45.7346 49.6452 45.3928 50.0398 45.3928 50.5052V58.4501C45.3928 59.3192 46.0998 60.0262 46.969 60.0262C47.2018 60.0262 47.3915 60.2157 47.3915 60.4487V61.2153C47.3915 61.5938 47.0835 61.9017 46.7051 61.9017H44.2038C43.8253 61.9017 43.5175 61.5938 43.5175 61.2153V50.6092C43.5175 50.0922 43.0984 49.6732 42.5815 49.6732H40.0852V46.2837C40.0852 43.3421 37.692 40.9488 34.7503 40.9488C31.8087 40.9488 29.4155 43.3419 29.4155 46.2837V49.6731H17.9795C18.1247 49.0277 18.1993 48.3641 18.1993 47.6921C18.1993 44.7207 15.782 42.3033 12.8106 42.3033H7.57833C7.06133 42.3033 6.64233 42.7225 6.64233 43.2393C6.64233 43.7563 7.06145 44.1753 7.57833 44.1753H12.8105C14.7495 44.1753 16.3271 45.7528 16.3271 47.692C16.3271 49.092 15.9208 50.4463 15.1523 51.6086C14.8672 52.0397 14.9856 52.6204 15.4167 52.9056C15.5757 53.0107 15.755 53.061 15.9322 53.061C16.2358 53.061 16.5337 52.9133 16.7138 52.6411C16.9467 52.2888 17.1526 51.9224 17.3321 51.5449H41.6452V61.2151C41.6452 62.6258 42.7929 63.7736 44.2037 63.7736H46.705C48.1157 63.7736 49.2635 62.6258 49.2635 61.2151V60.4485C49.2635 59.2835 48.3908 58.3185 47.2648 58.1728V51.2843C49.512 50.7841 51.5555 49.5737 53.0852 47.8223C53.6646 47.159 54.1543 46.4317 54.5525 45.6601C55.3627 44.1662 55.7635 42.3703 55.7635 40.6801V36.8506V31.1832H57.5132C61.0902 31.1832 64.0003 28.2731 64.0003 24.6961V23.2149V20.9207C64.0002 19.9384 63.2011 19.1392 62.2187 19.1392ZM7.14383 4.00107L8.91745 2.22732L12.5148 5.8247L10.7411 7.59845L7.14383 4.00107ZM45.6281 23.0042C45.6281 23.8098 45.3795 24.5813 44.909 25.2353L43.4318 27.2887C43.2325 27.5658 42.9223 27.7247 42.581 27.7247C42.2396 27.7247 41.9296 27.5658 41.7302 27.2887L40.2532 25.2354C39.7826 24.5813 39.534 23.8098 39.534 23.0042V21.1112C39.534 20.4634 40.061 19.9364 40.7087 19.9364H44.4528C45.1007 19.9364 45.6277 20.4634 45.6277 21.1112V23.0042H45.6281ZM31.2873 49.6731V46.2837C31.2873 44.3743 32.8407 42.8209 34.7501 42.8209C36.6595 42.8209 38.2128 44.3743 38.2128 46.2837V49.6731H31.2873ZM50.299 40.9482C50.299 39.1107 51.7938 37.6158 53.6313 37.6158C53.7182 37.6158 53.8048 37.6192 53.8915 37.6261V40.6806C53.8915 40.8248 53.8873 40.9682 53.8807 41.1112C53.8761 41.2062 53.8685 41.3004 53.861 41.3947C53.8577 41.437 53.8552 41.4793 53.8513 41.5215C53.8391 41.6508 53.8242 41.7796 53.8065 41.9076C53.8062 41.9091 53.8061 41.9106 53.8058 41.9121C53.692 42.7265 53.4667 43.5098 53.1458 44.2453C51.5376 44.0093 50.299 42.6207 50.299 40.9482ZM60.6573 21.0112H62.1282V22.2582C61.4618 22.1029 60.9158 21.6316 60.6573 21.0112Z" fill="#C41230"/>
<path d="M24.0731 44.0876C22.6911 44.0876 21.4068 43.4649 20.5494 42.3792C20.3411 42.1156 20.0078 41.9646 19.6341 41.9646C19.6325 41.9646 19.6311 41.9646 19.6295 41.9646H19.6145C18.3741 41.9646 17.1773 41.4441 16.3309 40.5367C15.4726 39.6164 15.0484 38.4154 15.1364 37.1552C15.2898 34.9596 17.0593 33.1734 19.2526 33.0004C20.7338 32.8832 22.1745 33.5019 23.1063 34.6543C23.343 34.9472 23.6803 35.1084 24.0265 35.1093C24.2574 35.1066 24.4926 35.1226 24.7241 35.1558C26.8159 35.4567 28.4268 37.2087 28.5541 39.3218C28.6296 40.5741 28.1993 41.7649 27.3423 42.6752C26.4971 43.5728 25.3056 44.0876 24.0731 44.0876ZM19.6256 40.0897C20.5853 40.0897 21.4545 40.5002 22.0209 41.2172C22.5205 41.8498 23.2686 42.2126 24.0733 42.2126C24.8015 42.2126 25.4776 41.9204 25.9771 41.3898C26.4761 40.8598 26.7266 40.1654 26.6826 39.4346C26.6085 38.2054 25.6726 37.1864 24.4573 37.0117C24.3204 36.9919 24.1826 36.9832 24.046 36.9841C23.1263 36.9943 22.2473 36.5742 21.6481 35.8331C21.1051 35.1616 20.2638 34.8017 19.4 34.8696C18.1249 34.9702 17.096 36.0089 17.0069 37.2858C16.9555 38.0217 17.2024 38.7222 17.7021 39.2579C18.2024 39.7943 18.8815 40.0897 19.6145 40.0897H19.6256Z" fill="#C41230"/>
</g>
<defs>
<clipPath id="clip0_2968_1410">
<rect width="64" height="64" fill="white"/>
</clipPath>
</defs>
</svg>
