<svg width="32" height="32" viewBox="0 0 32 32" fill="none" xmlns="http://www.w3.org/2000/svg">
<path d="M32 16C32 19.1645 31.0616 22.2579 29.3035 24.8891C27.5454 27.5203 25.0466 29.5711 22.1229 30.7821C19.1993 31.9931 15.9823 32.3099 12.8786 31.6926C9.77487 31.0752 6.92394 29.5513 4.6863 27.3137C2.44866 25.0761 0.924806 22.2251 0.307443 19.1214C-0.309921 16.0177 0.0069325 12.8007 1.21793 9.87706C2.42894 6.95345 4.4797 4.45459 7.11088 2.69649C9.74207 0.938383 12.8355 0 16 0C20.2435 0 24.3131 1.68571 27.3137 4.68629C30.3143 7.68687 32 11.7565 32 16ZM23.59 14.5H17.5V8.41C17.5 8.01218 17.342 7.63064 17.0607 7.34934C16.7794 7.06804 16.3978 6.91 16 6.91C15.6022 6.91 15.2207 7.06804 14.9393 7.34934C14.658 7.63064 14.5 8.01218 14.5 8.41V14.5H8.41001C8.01218 14.5 7.63065 14.658 7.34935 14.9393C7.06804 15.2206 6.91001 15.6022 6.91001 16C6.91001 16.3978 7.06804 16.7794 7.34935 17.0607C7.63065 17.342 8.01218 17.5 8.41001 17.5H14.5V23.59C14.5 23.9878 14.658 24.3694 14.9393 24.6507C15.2207 24.932 15.6022 25.09 16 25.09C16.3978 25.09 16.7794 24.932 17.0607 24.6507C17.342 24.3694 17.5 23.9878 17.5 23.59V17.5H23.59C23.9878 17.5 24.3694 17.342 24.6507 17.0607C24.932 16.7794 25.09 16.3978 25.09 16C25.09 15.6022 24.932 15.2206 24.6507 14.9393C24.3694 14.658 23.9878 14.5 23.59 14.5Z" fill="black"/>
<path d="M32 16C32 19.1645 31.0616 22.2579 29.3035 24.8891C27.5454 27.5203 25.0466 29.5711 22.1229 30.7821C19.1993 31.9931 15.9823 32.3099 12.8786 31.6926C9.77487 31.0752 6.92394 29.5513 4.6863 27.3137C2.44866 25.0761 0.924806 22.2251 0.307443 19.1214C-0.309921 16.0177 0.0069325 12.8007 1.21793 9.87706C2.42894 6.95345 4.4797 4.45459 7.11088 2.69649C9.74207 0.938383 12.8355 0 16 0C20.2435 0 24.3131 1.68571 27.3137 4.68629C30.3143 7.68687 32 11.7565 32 16ZM23.59 14.5H17.5V8.41C17.5 8.01218 17.342 7.63064 17.0607 7.34934C16.7794 7.06804 16.3978 6.91 16 6.91C15.6022 6.91 15.2207 7.06804 14.9393 7.34934C14.658 7.63064 14.5 8.01218 14.5 8.41V14.5H8.41001C8.01218 14.5 7.63065 14.658 7.34935 14.9393C7.06804 15.2206 6.91001 15.6022 6.91001 16C6.91001 16.3978 7.06804 16.7794 7.34935 17.0607C7.63065 17.342 8.01218 17.5 8.41001 17.5H14.5V23.59C14.5 23.9878 14.658 24.3694 14.9393 24.6507C15.2207 24.932 15.6022 25.09 16 25.09C16.3978 25.09 16.7794 24.932 17.0607 24.6507C17.342 24.3694 17.5 23.9878 17.5 23.59V17.5H23.59C23.9878 17.5 24.3694 17.342 24.6507 17.0607C24.932 16.7794 25.09 16.3978 25.09 16C25.09 15.6022 24.932 15.2206 24.6507 14.9393C24.3694 14.658 23.9878 14.5 23.59 14.5Z" fill="url(#paint0_linear_1415_3133)"/>
<defs>
<linearGradient id="paint0_linear_1415_3133" x1="1.13475" y1="5.33334" x2="44.0502" y2="12.1787" gradientUnits="userSpaceOnUse">
<stop stop-color="#07A1C0"/>
<stop offset="1" stop-color="#99D592"/>
</linearGradient>
</defs>
</svg>
