<svg width="16" height="16" viewBox="0 0 16 16" fill="none" xmlns="http://www.w3.org/2000/svg">
<path fill-rule="evenodd" clip-rule="evenodd" d="M7.2824 0.0189325C5.73632 0.170303 4.30738 0.739883 3.05451 1.70416C2.44439 2.17374 1.65206 3.05623 1.19418 3.77612C0.996433 4.08703 0.611496 4.87487 0.4736 5.25085C0.319419 5.67128 0.15509 6.31376 0.0742252 6.81229C-0.0247417 7.42247 -0.0247417 8.58097 0.0742252 9.19115C0.214157 10.0537 0.435517 10.7511 0.81441 11.5231C1.22838 12.3665 1.65882 12.9643 2.34811 13.6532C3.03744 14.3421 3.63562 14.7723 4.4795 15.1861C5.25195 15.5647 5.94966 15.786 6.81274 15.9258C7.42327 16.0247 8.58243 16.0247 9.19296 15.9258C10.056 15.786 10.7538 15.5647 11.5262 15.1861C12.3701 14.7723 12.9683 14.3421 13.6576 13.6532C14.3469 12.9643 14.7773 12.3665 15.1913 11.5231C15.4662 10.9628 15.6045 10.5957 15.7527 10.0327C15.95 9.28289 16 8.87188 16 8.00172C16 7.13156 15.95 6.72055 15.7527 5.97077C15.6045 5.40776 15.4662 5.04061 15.1913 4.48038C14.7773 3.63699 14.3469 3.03914 13.6576 2.35021C12.9683 1.66131 12.3701 1.23112 11.5262 0.817383C10.7545 0.439051 10.043 0.213341 9.20862 0.08216C8.74826 0.00979267 7.72032 -0.0239495 7.2824 0.0189325ZM12.1978 4.56571C12.3544 4.61379 12.5934 4.85058 12.6595 5.02323C12.7361 5.22328 12.7284 5.48314 12.6406 5.66443C12.542 5.86792 7.38669 10.9822 7.15299 11.1083C6.92925 11.2291 6.66501 11.2291 6.44093 11.1083C6.30826 11.0368 3.93359 8.91119 3.52986 8.50253C3.37223 8.34299 3.29381 8.14814 3.29672 7.92347C3.30293 7.44973 3.64856 7.13021 4.1184 7.1638C4.23115 7.17187 4.36854 7.2018 4.42369 7.23028C4.5071 7.27338 6.09032 8.69584 6.60178 9.1872L6.75101 9.33053L9.09161 6.99468C10.379 5.70997 11.4776 4.63617 11.533 4.60847C11.75 4.49995 11.943 4.48752 12.1978 4.56571Z" fill="#57CD53"/>
</svg>
