<svg width="12" height="8" viewBox="0 0 12 8" fill="none" xmlns="http://www.w3.org/2000/svg">
<path d="M5.05136 7.2845C5.10186 7.35112 5.16944 7.40559 5.24827 7.44322C5.3271 7.48085 5.41482 7.50052 5.50387 7.50052C5.59293 7.50052 5.68065 7.48085 5.75948 7.44322C5.83831 7.40559 5.90589 7.35112 5.95639 7.2845L10.9109 0.7845C10.9683 0.709529 11.0019 0.621716 11.0082 0.530603C11.0144 0.43949 10.9931 0.348562 10.9464 0.267697C10.8998 0.186832 10.8296 0.119124 10.7436 0.0719291C10.6576 0.024734 10.5589 -0.000143172 10.4584 6.19827e-07L0.549328 6.19827e-07C0.44905 0.000376824 0.350782 0.0255739 0.265091 0.0728821C0.179401 0.12019 0.109531 0.18782 0.0629944 0.268497C0.016458 0.349175 -0.00498381 0.439848 0.000974833 0.530766C0.00693348 0.621684 0.0400671 0.709407 0.0968126 0.7845L5.05136 7.2845Z" fill="#1E417C"/>
</svg>
