<svg width="37" height="36" viewBox="0 0 37 36" fill="none" xmlns="http://www.w3.org/2000/svg">
<ellipse cx="18.1942" cy="18" rx="18.1942" ry="18" fill="#C22032"/>
<path fill-rule="evenodd" clip-rule="evenodd" d="M17.3552 6.07244C15.6233 6.34446 14.1047 7.09207 12.8168 8.30668C11.3753 9.66622 10.4924 11.4344 10.2403 13.4665C10.194 13.8402 10.1685 13.9002 9.96708 14.1086C9.29517 14.8036 8.99607 15.5396 9.00004 16.488C9.00836 18.4701 10.1596 19.754 11.8426 19.6581C12.4665 19.6225 12.7914 19.4882 12.9773 19.189L13.1119 18.9726V16.4321C13.1119 14.1291 13.1029 13.8752 13.0153 13.7152C12.8915 13.4889 12.6781 13.3221 12.4094 13.2416C12.2102 13.1819 12.1987 13.1668 12.2299 13.0044C12.3702 12.2738 12.8685 11.2011 13.3911 10.5047C15.4671 7.73863 19.3419 7.0665 22.21 8.97489C23.4474 9.79827 24.4013 11.0626 24.8244 12.44C25.0617 13.2127 25.0667 13.1554 24.7526 13.2669C24.569 13.3321 24.4253 13.4326 24.322 13.568L24.1669 13.7712L24.1514 16.3642L24.1358 18.9572L24.2715 19.1888C24.5596 19.6805 25.1321 19.7965 25.9647 19.5321C27.3196 19.1019 28.2227 17.8647 28.2236 16.4377C28.2241 15.5433 27.9185 14.796 27.2823 14.1367C27.0514 13.8975 27.0303 13.8501 26.9827 13.4667C26.5074 9.63468 23.6242 6.6396 19.8678 6.07574C19.2041 5.97613 17.9789 5.97451 17.3552 6.07244ZM17.6081 10.5418C15.8835 10.9317 14.6495 12.2388 14.3422 14.0012C13.8787 16.659 15.3573 19.688 17.5397 20.5515C17.8739 20.6837 17.9876 20.6994 18.6115 20.6993C19.3855 20.6991 19.6374 20.631 20.3111 20.2396C20.7173 20.0037 21.5195 19.2133 21.8236 18.7492C22.6193 17.5352 23.0074 16.1576 22.9483 14.7571C22.8921 13.4253 22.4742 12.4183 21.6472 11.622C21.1304 11.1244 20.645 10.8451 19.8957 10.6142C19.4089 10.4641 18.1304 10.4237 17.6081 10.5418ZM15.6861 21.7418C14.2133 21.8971 12.9348 22.5102 11.8557 23.5788C10.7041 24.7191 10.117 25.9486 9.94926 27.5709C9.90091 28.0384 9.90153 28.26 9.95183 28.4987C10.0885 29.1471 10.6116 29.7368 11.2098 29.9168C11.447 29.9882 12.4713 29.9997 18.6115 29.9997C26.5963 29.9997 26.0735 30.0265 26.6105 29.5896C26.8159 29.4226 26.9609 29.2381 27.0982 28.9692C27.2892 28.595 27.2934 28.5724 27.285 27.967C27.2619 26.3114 26.6198 24.8238 25.4002 23.6C24.3182 22.5144 23.0189 21.9004 21.459 21.7377C20.8286 21.672 16.3181 21.6752 15.6861 21.7418Z" fill="white"/>
</svg>
