<svg width="16" height="16" viewBox="0 0 16 16" fill="none" xmlns="http://www.w3.org/2000/svg">
<path d="M8 16C9.58225 16 11.129 15.5308 12.4446 14.6518C13.7602 13.7727 14.7855 12.5233 15.391 11.0615C15.9965 9.59966 16.155 7.99113 15.8463 6.43928C15.5376 4.88743 14.7757 3.46197 13.6569 2.34315C12.538 1.22433 11.1126 0.462403 9.56072 0.153722C8.00887 -0.154961 6.40034 0.00346661 4.93853 0.608968C3.47672 1.21447 2.2273 2.23985 1.34824 3.55544C0.469193 4.87103 1.90735e-06 6.41775 1.90735e-06 8C1.90735e-06 9.05058 0.206926 10.0909 0.608964 11.0615C1.011 12.0321 1.60028 12.914 2.34315 13.6569C3.08601 14.3997 3.96793 14.989 4.93853 15.391C5.90914 15.7931 6.94942 16 8 16ZM7.2 4.8C7.2 4.58783 7.28428 4.38435 7.43431 4.23432C7.58434 4.08429 7.78783 4 8 4C8.21217 4 8.41565 4.08429 8.56568 4.23432C8.71571 4.38435 8.8 4.58783 8.8 4.8L8.8 8.8C8.8 9.01218 8.71571 9.21566 8.56568 9.36569C8.41565 9.51572 8.21217 9.6 8 9.6C7.78783 9.6 7.58434 9.51572 7.43431 9.36569C7.28428 9.21566 7.2 9.01218 7.2 8.8L7.2 4.8ZM8 10.4C8.15822 10.4 8.3129 10.4469 8.44445 10.5348C8.57601 10.6227 8.67855 10.7477 8.7391 10.8939C8.79965 11.04 8.81549 11.2009 8.78463 11.3561C8.75376 11.5113 8.67757 11.6538 8.56568 11.7657C8.4538 11.8776 8.31126 11.9538 8.15607 11.9846C8.00089 12.0155 7.84003 11.9997 7.69385 11.9391C7.54767 11.8786 7.42273 11.776 7.33482 11.6445C7.24692 11.5129 7.2 11.3582 7.2 11.2C7.2 10.9878 7.28428 10.7843 7.43431 10.6343C7.58434 10.4843 7.78783 10.4 8 10.4Z" fill="#EF4949"/>
</svg>
