<svg width="58" height="11" viewBox="0 0 58 11" fill="none" xmlns="http://www.w3.org/2000/svg">
<path d="M5.14454 1.13477C4.33147 1.01686 4.24277 0.736816 2.86793 0.736816C1.59658 0.736816 0.118265 1.51799 0.118265 3.28668C0.118265 5.01115 2.02529 5.92497 3.08968 6.33767C3.99145 6.69141 4.43495 7.4431 4.43495 8.29797C4.43495 9.38866 3.87319 9.97822 2.74967 9.97822C1.7592 9.97822 0.88699 9.15283 0.591326 7.81158L0 7.85579C0.147832 8.97596 0.251314 9.68344 0.28088 10.4351C0.532194 10.4351 0.665242 10.3614 0.960906 10.3614C1.3157 10.3614 1.61136 10.5825 3.06011 10.5825C4.7454 10.5825 6.01675 9.68344 6.01675 7.72314C6.01675 5.93971 4.55321 5.15854 3.31143 4.71637C2.69054 4.49528 1.52267 3.75833 1.52267 2.81503C1.52267 1.98964 1.87746 1.31164 2.85315 1.31164C4.10972 1.31164 4.59756 2.47603 4.86366 3.44881L5.45499 3.37511C5.32194 2.6529 5.20367 1.91594 5.14454 1.13477Z" fill="white"/>
<path d="M15.3983 10.5825C16.9653 10.5825 18.2366 9.86031 19.2419 8.53379L18.7984 8.18005C17.6601 9.46235 16.5809 9.934 15.3835 9.934C13.3286 9.934 12.3382 7.60523 12.3382 5.51228C12.3382 2.59394 13.9791 1.34112 15.4131 1.34112C17.3053 1.34112 17.941 2.59394 18.3993 3.99415L18.961 3.87624C18.8132 3.06559 18.6949 2.2402 18.6358 1.38534C17.8819 1.38534 17.3792 0.736816 15.4131 0.736816C12.6782 0.736816 10.4164 2.88872 10.4164 5.79232C10.4164 8.16531 12.0277 10.5825 15.3983 10.5825Z" fill="white"/>
<path d="M30.8617 2.0486V6.33767C30.8617 7.92949 30.5808 9.97822 28.4077 9.97822C27.8607 9.97822 27.3285 9.6687 26.8998 9.25601C26.2198 8.56327 26.2198 7.42836 26.2198 6.45558V2.0486C26.2198 1.6359 26.412 1.40008 27.0181 1.40008H27.225C27.299 1.40008 27.3433 1.35586 27.3433 1.28216V0.928425L27.3137 0.913686C27.3137 0.913686 25.8354 0.928425 25.318 0.928425C24.7267 0.928425 23.2927 0.913686 23.2927 0.913686L23.2632 0.928425V1.28216C23.2632 1.35586 23.3223 1.40008 23.3962 1.40008H23.6032C24.1797 1.40008 24.4015 1.57694 24.4015 2.0486V6.94197C24.4015 9.7424 26.6633 10.5825 28.0972 10.5825C31.3643 10.5825 31.9409 8.71066 31.9409 6.0871V2.0486C31.9409 1.6359 32.1478 1.40008 32.7539 1.40008H32.9609C33.0348 1.40008 33.0792 1.35586 33.0792 1.28216V0.928425L33.0496 0.913686C33.0496 0.913686 31.9261 0.928425 31.3939 0.928425C30.8173 0.928425 29.7382 0.913686 29.7382 0.913686L29.7086 0.928425V1.28216C29.7086 1.35586 29.7677 1.40008 29.8417 1.40008H30.0486C30.6252 1.40008 30.8617 1.57694 30.8617 2.0486Z" fill="white"/>
<path d="M40.2069 2.15177C40.2069 1.72434 40.2808 1.51799 41.2417 1.51799C41.9217 1.51799 42.8974 1.78329 42.8974 3.22772C42.8974 4.40685 42.0843 4.89324 41.0347 4.89324H40.2069V2.15177ZM40.2069 5.51228H41.2565C42.7791 5.51228 43.5922 6.41136 43.5922 7.67893C43.5922 8.56327 43.1339 9.84557 41.1825 9.84557C40.2956 9.84557 40.2069 9.62448 40.2069 9.19705V5.51228ZM37.265 10.1256V10.4204L37.2798 10.4351H41.4634C44.494 10.4351 45.4697 9.12335 45.4697 7.84105C45.4697 6.54402 44.8192 5.5565 43.2522 5.1438V5.11432C44.0505 4.76059 44.6714 3.94994 44.6714 3.19824C44.6714 2.18125 44.1096 0.898947 41.1382 0.898947C40.399 0.898947 39.6599 0.928425 39.2164 0.928425C38.7729 0.928425 37.2946 0.898947 37.2946 0.898947L37.265 0.928425V1.25268C37.265 1.35586 37.3094 1.40008 37.472 1.40008H37.9598C38.3146 1.40008 38.4033 1.5622 38.4033 2.00438V9.34444C38.4033 9.81609 38.2998 9.94874 37.9598 9.94874H37.5311C37.3093 9.94874 37.265 10.0224 37.265 10.1256Z" fill="white"/>
<path d="M49.9063 10.4351H57.1205C57.224 9.63922 57.3718 8.7254 57.5197 7.94423L56.884 7.79684C56.6327 8.88753 56.1005 9.75714 55.2874 9.75714H53.0256C52.8925 9.75714 52.8186 9.6687 52.8186 9.3297V5.67441H54.4891C54.8587 5.67441 54.9178 6.11658 55.0065 6.72088C55.0065 6.77984 55.0952 6.86828 55.2431 6.86828H55.5535L55.6422 6.73562C55.6126 6.48506 55.5387 5.8955 55.5387 5.36489C55.5387 4.81954 55.6126 4.22998 55.6422 3.99415L55.5535 3.84676H55.2431C55.0952 3.84676 55.0065 3.94994 55.0065 4.00889C54.9178 4.59846 54.8587 5.05537 54.4891 5.05537H52.8186V2.01912C52.8186 1.7096 52.8925 1.59168 53.0256 1.59168H54.9474C55.9379 1.59168 56.3074 2.68238 56.5144 3.43407L57.1057 3.30142C56.9579 2.54972 56.8544 1.76855 56.7953 0.913686H49.9063L49.862 0.943163V1.28216C49.862 1.35586 49.9211 1.40008 49.9803 1.40008H50.1872C50.7785 1.40008 51.0003 1.57694 51.0003 2.0486V9.30022C51.0003 9.77187 50.7785 9.94874 50.1872 9.94874H49.9803C49.9211 9.94874 49.862 9.99296 49.862 10.0814V10.4057L49.9063 10.4351Z" fill="white"/>
</svg>
