<svg width="111" height="19" viewBox="0 0 111 19" fill="none" xmlns="http://www.w3.org/2000/svg">
<path d="M9.9278 0.767964C8.35875 0.540419 8.18758 0 5.53447 0C3.08104 0 0.228225 1.50748 0.228225 4.92066C0.228225 8.2485 3.90836 10.012 5.96239 10.8084C7.70261 11.491 8.55845 12.9416 8.55845 14.5913C8.55845 16.6961 7.47438 17.8338 5.30624 17.8338C3.39485 17.8338 1.71169 16.241 1.14113 13.6527L0 13.738C0.285282 15.8997 0.484979 17.265 0.542035 18.7156C1.02701 18.7156 1.28377 18.5734 1.85433 18.5734C2.53901 18.5734 3.10957 19 5.90533 19C9.15754 19 11.611 17.265 11.611 13.482C11.611 10.0404 8.78668 8.53293 6.39031 7.67964C5.19213 7.25299 2.9384 5.83084 2.9384 4.01048C2.9384 2.41767 3.62308 1.10928 5.50594 1.10928C7.93083 1.10928 8.87226 3.35629 9.38577 5.23353L10.5269 5.09132C10.2701 3.69761 10.0419 2.27545 9.9278 0.767964Z" fill="#1E417C"/>
<path d="M29.7152 19C32.7392 19 35.1926 17.6063 37.1325 15.0464L36.2767 14.3638C34.08 16.8383 31.9975 17.7485 29.6867 17.7485C25.7213 17.7485 23.8099 13.2545 23.8099 9.21557C23.8099 3.58383 26.9765 1.16617 29.7437 1.16617C33.3953 1.16617 34.6221 3.58383 35.5064 6.28593L36.5905 6.05838C36.3052 4.49401 36.077 2.9012 35.9629 1.2515C34.5079 1.2515 33.538 0 29.7437 0C24.466 0 20.1012 4.15269 20.1012 9.75599C20.1012 14.3353 23.2108 19 29.7152 19Z" fill="#1E417C"/>
<path d="M59.5561 2.53144V10.8084C59.5561 13.8802 59.0141 17.8338 54.8204 17.8338C53.7649 17.8338 52.7379 17.2365 51.9106 16.4401C50.5983 15.1033 50.5983 12.9132 50.5983 11.0359V2.53144C50.5983 1.73503 50.9691 1.27994 52.1388 1.27994H52.5382C52.6808 1.27994 52.7664 1.19461 52.7664 1.05239V0.369761L52.7094 0.341318C52.7094 0.341318 49.8565 0.369761 48.8581 0.369761C47.7169 0.369761 44.9497 0.341318 44.9497 0.341318L44.8926 0.369761V1.05239C44.8926 1.19461 45.0068 1.27994 45.1494 1.27994H45.5488C46.6614 1.27994 47.0893 1.62126 47.0893 2.53144V11.9745C47.0893 17.3787 51.4541 19 54.2214 19C60.5261 19 61.6387 15.3877 61.6387 10.3248V2.53144C61.6387 1.73503 62.0381 1.27994 63.2077 1.27994H63.6071C63.7498 1.27994 63.8354 1.19461 63.8354 1.05239V0.369761L63.7783 0.341318C63.7783 0.341318 61.6101 0.369761 60.5831 0.369761C59.4705 0.369761 57.388 0.341318 57.388 0.341318L57.3309 0.369761V1.05239C57.3309 1.19461 57.445 1.27994 57.5877 1.27994H57.9871C59.0997 1.27994 59.5561 1.62126 59.5561 2.53144Z" fill="#1E417C"/>
<path d="M77.5902 2.73054C77.5902 1.90569 77.7328 1.50749 79.5871 1.50749C80.8994 1.50749 82.7823 2.01946 82.7823 4.80689C82.7823 7.08233 81.2132 8.02096 79.1877 8.02096H77.5902V2.73054ZM77.5902 9.21557H79.6157C82.5541 9.21557 84.1231 10.9506 84.1231 13.3967C84.1231 15.1033 83.2387 17.5778 79.473 17.5778C77.7613 17.5778 77.5902 17.1512 77.5902 16.3263V9.21557ZM71.913 18.1183V18.6871L71.9416 18.7156H80.0151C85.8633 18.7156 87.7462 16.1841 87.7462 13.7096C87.7462 11.2066 86.491 9.3009 83.467 8.50449V8.4476C85.0075 7.76497 86.2057 6.2006 86.2057 4.75C86.2057 2.78743 85.1216 0.312875 79.3874 0.312875C77.961 0.312875 76.5346 0.369761 75.6788 0.369761C74.8229 0.369761 71.9701 0.312875 71.9701 0.312875L71.913 0.369761V0.995509C71.913 1.19461 71.9986 1.27994 72.3124 1.27994H73.2539C73.9386 1.27994 74.1097 1.59281 74.1097 2.44611V16.6108C74.1097 17.521 73.91 17.7769 73.2539 17.7769H72.4266C71.9986 17.7769 71.913 17.9192 71.913 18.1183Z" fill="#1E417C"/>
<path d="M96.308 18.7156H110.23C110.429 17.1796 110.715 15.4162 111 13.9087L109.773 13.6243C109.288 15.729 108.261 17.4072 106.692 17.4072H102.327C102.071 17.4072 101.928 17.2365 101.928 16.5823V9.52844H105.152C105.865 9.52844 105.979 10.3817 106.15 11.5479C106.15 11.6617 106.321 11.8323 106.607 11.8323H107.206L107.377 11.5763C107.32 11.0928 107.177 9.95509 107.177 8.93114C107.177 7.87874 107.32 6.74102 107.377 6.28593L107.206 6.0015H106.607C106.321 6.0015 106.15 6.2006 106.15 6.31437C105.979 7.4521 105.865 8.33383 105.152 8.33383H101.928V2.47455C101.928 1.87725 102.071 1.6497 102.327 1.6497H106.036C107.947 1.6497 108.661 3.75449 109.06 5.20509L110.201 4.9491C109.916 3.4985 109.716 1.99102 109.602 0.341318H96.308L96.2224 0.398203V1.05239C96.2224 1.19461 96.3365 1.27994 96.4506 1.27994H96.85C97.9911 1.27994 98.4191 1.62126 98.4191 2.53144V16.5254C98.4191 17.4356 97.9911 17.7769 96.85 17.7769H96.4506C96.3365 17.7769 96.2224 17.8623 96.2224 18.0329V18.6587L96.308 18.7156Z" fill="#1E417C"/>
</svg>
