<svg width="311" height="64" viewBox="0 0 311 64" fill="none" xmlns="http://www.w3.org/2000/svg">
<path d="M17.6392 13.5444C17.6392 13.8455 17.6025 14.1629 17.5293 14.4966C17.4642 14.8302 17.3543 15.1639 17.1997 15.4976C17.0532 15.8231 16.862 16.1364 16.626 16.4375C16.3981 16.7386 16.1174 17.0072 15.7837 17.2432C15.4582 17.471 15.0798 17.6541 14.6484 17.7925C14.2171 17.9308 13.7329 18 13.1958 18H1.5625V14.8262H13.1958C13.5946 14.8262 13.8997 14.7041 14.1113 14.46C14.3311 14.2158 14.4409 13.9106 14.4409 13.5444V12.1284C14.4409 11.7134 14.3351 11.396 14.1235 11.1763C13.9119 10.9565 13.5946 10.8467 13.1714 10.8467H6.01807C5.19613 10.8467 4.50033 10.7002 3.93066 10.4072C3.36914 10.1061 2.91341 9.73177 2.56348 9.28418C2.21354 8.83659 1.95719 8.35238 1.79443 7.83154C1.63981 7.31071 1.5625 6.8265 1.5625 6.37891V0.495117H16.1865V3.66895H4.73633V6.37891C4.73633 6.80208 4.84619 7.11947 5.06592 7.33105C5.28564 7.54264 5.60303 7.64844 6.01807 7.64844H13.1958C13.6353 7.64844 14.1154 7.72982 14.6362 7.89258C15.1571 8.0472 15.6372 8.30355 16.0767 8.66162C16.5243 9.01156 16.8945 9.47135 17.1875 10.041C17.4886 10.6107 17.6392 11.3065 17.6392 12.1284V13.5444ZM36.4136 13.5444C36.4136 13.8455 36.377 14.1629 36.3037 14.4966C36.2386 14.8302 36.1287 15.1639 35.9741 15.4976C35.8276 15.8231 35.6364 16.1364 35.4004 16.4375C35.1725 16.7386 34.8918 17.0072 34.5581 17.2432C34.2326 17.471 33.8542 17.6541 33.4229 17.7925C32.9915 17.9308 32.5073 18 31.9702 18H20.3369V14.8262H31.9702C32.369 14.8262 32.6742 14.7041 32.8857 14.46C33.1055 14.2158 33.2153 13.9106 33.2153 13.5444V12.1284C33.2153 11.7134 33.1095 11.396 32.8979 11.1763C32.6864 10.9565 32.369 10.8467 31.9458 10.8467H24.7925C23.9705 10.8467 23.2747 10.7002 22.7051 10.4072C22.1436 10.1061 21.6878 9.73177 21.3379 9.28418C20.988 8.83659 20.7316 8.35238 20.5688 7.83154C20.4142 7.31071 20.3369 6.8265 20.3369 6.37891V0.495117H34.9609V3.66895H23.5107V6.37891C23.5107 6.80208 23.6206 7.11947 23.8403 7.33105C24.0601 7.54264 24.3774 7.64844 24.7925 7.64844H31.9702C32.4097 7.64844 32.8898 7.72982 33.4106 7.89258C33.9315 8.0472 34.4116 8.30355 34.8511 8.66162C35.2987 9.01156 35.6689 9.47135 35.9619 10.041C36.263 10.6107 36.4136 11.3065 36.4136 12.1284V13.5444ZM40.3442 20.2461H38.1104L39.2456 14.106H42.2363L40.3442 20.2461ZM64.7339 10.6758C64.7339 11.3919 64.6403 12.0715 64.4531 12.7144C64.2741 13.3491 64.0177 13.9391 63.6841 14.4844C63.3504 15.0296 62.9557 15.5179 62.5 15.9492C62.0443 16.3805 61.5438 16.7508 60.9985 17.0601C60.4614 17.3612 59.8877 17.5931 59.2773 17.7559C58.667 17.9186 58.0444 18 57.4097 18H51.6846C51.0417 18 50.415 17.9186 49.8047 17.7559C49.1943 17.5931 48.6165 17.3612 48.0713 17.0601C47.5342 16.7508 47.0378 16.3805 46.582 15.9492C46.1263 15.5179 45.7316 15.0296 45.3979 14.4844C45.0724 13.9391 44.8161 13.3491 44.6289 12.7144C44.4499 12.0715 44.3604 11.3919 44.3604 10.6758V7.81934C44.3604 6.74512 44.5597 5.76042 44.9585 4.86523C45.3654 3.97005 45.9066 3.20101 46.582 2.55811C47.2575 1.90706 48.0347 1.40251 48.9136 1.04443C49.8006 0.678223 50.7243 0.495117 51.6846 0.495117H57.4097C58.0444 0.495117 58.667 0.576497 59.2773 0.739258C59.8877 0.902018 60.4614 1.13802 60.9985 1.44727C61.5438 1.74837 62.0443 2.11458 62.5 2.5459C62.9557 2.97721 63.3504 3.46549 63.6841 4.01074C64.0177 4.55599 64.2741 5.15007 64.4531 5.79297C64.6403 6.42773 64.7339 7.10319 64.7339 7.81934V10.6758ZM61.5356 7.81934C61.5356 7.19271 61.4217 6.62305 61.1938 6.11035C60.966 5.59766 60.6608 5.1582 60.2783 4.79199C59.904 4.42578 59.4686 4.14502 58.9722 3.94971C58.4757 3.75439 57.9549 3.66081 57.4097 3.66895H51.6846C51.1556 3.66081 50.6388 3.75439 50.1343 3.94971C49.6379 4.13688 49.1943 4.41357 48.8037 4.77979C48.4212 5.13786 48.112 5.57731 47.876 6.09814C47.6481 6.61084 47.5342 7.18457 47.5342 7.81934V10.6758C47.5342 11.3105 47.6481 11.8843 47.876 12.397C48.1038 12.9097 48.409 13.3491 48.7915 13.7153C49.174 14.0734 49.6134 14.3501 50.1099 14.5454C50.6144 14.7407 51.1393 14.8343 51.6846 14.8262H57.4097C58.0363 14.8262 58.6019 14.7244 59.1064 14.521C59.6191 14.3094 60.0545 14.0205 60.4126 13.6543C60.7707 13.2881 61.0474 12.8527 61.2427 12.3481C61.438 11.8354 61.5356 11.278 61.5356 10.6758V7.81934ZM60.1562 5.5C60.2783 5.67904 60.3597 5.87435 60.4004 6.08594C60.4411 6.28939 60.4411 6.49284 60.4004 6.69629C60.3597 6.8916 60.2783 7.07878 60.1562 7.25781C60.0423 7.42871 59.8918 7.5752 59.7046 7.69727L51.1353 13.4224C50.9969 13.5282 50.8545 13.6014 50.708 13.6421C50.5615 13.6828 50.411 13.7031 50.2563 13.7031C49.9959 13.7031 49.7477 13.6421 49.5117 13.52C49.2757 13.3979 49.0845 13.223 48.938 12.9951C48.8159 12.8161 48.7345 12.6248 48.6938 12.4214C48.6532 12.2098 48.6491 12.0063 48.6816 11.811C48.7223 11.6076 48.7996 11.4204 48.9136 11.2495C49.0275 11.0705 49.1781 10.9199 49.3652 10.7979L57.959 5.07275C58.138 4.95068 58.3293 4.8693 58.5327 4.82861C58.7443 4.78792 58.9478 4.78792 59.1431 4.82861C59.3465 4.8693 59.5337 4.94661 59.7046 5.06055C59.8836 5.17448 60.0342 5.32096 60.1562 5.5ZM87.8784 10.6758C87.8784 11.3919 87.7848 12.0715 87.5977 12.7144C87.4186 13.3491 87.1623 13.9391 86.8286 14.4844C86.495 15.0296 86.1003 15.5179 85.6445 15.9492C85.1888 16.3805 84.6883 16.7508 84.1431 17.0601C83.606 17.3612 83.0322 17.5931 82.4219 17.7559C81.8115 17.9186 81.189 18 80.5542 18H74.8291C74.1862 18 73.5596 17.9186 72.9492 17.7559C72.3389 17.5931 71.7611 17.3612 71.2158 17.0601C70.6787 16.7508 70.1823 16.3805 69.7266 15.9492C69.2708 15.5179 68.8761 15.0296 68.5425 14.4844C68.217 13.9391 67.9606 13.3491 67.7734 12.7144C67.5944 12.0715 67.5049 11.3919 67.5049 10.6758V7.81934C67.5049 6.74512 67.7043 5.76042 68.103 4.86523C68.5099 3.97005 69.0511 3.20101 69.7266 2.55811C70.402 1.90706 71.1792 1.40251 72.0581 1.04443C72.9451 0.678223 73.8688 0.495117 74.8291 0.495117H80.5542C81.189 0.495117 81.8115 0.576497 82.4219 0.739258C83.0322 0.902018 83.606 1.13802 84.1431 1.44727C84.6883 1.74837 85.1888 2.11458 85.6445 2.5459C86.1003 2.97721 86.495 3.46549 86.8286 4.01074C87.1623 4.55599 87.4186 5.15007 87.5977 5.79297C87.7848 6.42773 87.8784 7.10319 87.8784 7.81934V10.6758ZM84.6802 7.81934C84.6802 7.19271 84.5662 6.62305 84.3384 6.11035C84.1105 5.59766 83.8053 5.1582 83.4229 4.79199C83.0485 4.42578 82.6131 4.14502 82.1167 3.94971C81.6203 3.75439 81.0994 3.66081 80.5542 3.66895H74.8291C74.3001 3.66081 73.7834 3.75439 73.2788 3.94971C72.7824 4.13688 72.3389 4.41357 71.9482 4.77979C71.5658 5.13786 71.2565 5.57731 71.0205 6.09814C70.7926 6.61084 70.6787 7.18457 70.6787 7.81934V10.6758C70.6787 11.3105 70.7926 11.8843 71.0205 12.397C71.2484 12.9097 71.5535 13.3491 71.936 13.7153C72.3185 14.0734 72.758 14.3501 73.2544 14.5454C73.759 14.7407 74.2839 14.8343 74.8291 14.8262H80.5542C81.1808 14.8262 81.7464 14.7244 82.251 14.521C82.7637 14.3094 83.1991 14.0205 83.5571 13.6543C83.9152 13.2881 84.1919 12.8527 84.3872 12.3481C84.5825 11.8354 84.6802 11.278 84.6802 10.6758V7.81934ZM83.3008 5.5C83.4229 5.67904 83.5042 5.87435 83.5449 6.08594C83.5856 6.28939 83.5856 6.49284 83.5449 6.69629C83.5042 6.8916 83.4229 7.07878 83.3008 7.25781C83.1868 7.42871 83.0363 7.5752 82.8491 7.69727L74.2798 13.4224C74.1414 13.5282 73.999 13.6014 73.8525 13.6421C73.7061 13.6828 73.5555 13.7031 73.4009 13.7031C73.1405 13.7031 72.8923 13.6421 72.6562 13.52C72.4202 13.3979 72.229 13.223 72.0825 12.9951C71.9604 12.8161 71.8791 12.6248 71.8384 12.4214C71.7977 12.2098 71.7936 12.0063 71.8262 11.811C71.8669 11.6076 71.9442 11.4204 72.0581 11.2495C72.172 11.0705 72.3226 10.9199 72.5098 10.7979L81.1035 5.07275C81.2826 4.95068 81.4738 4.8693 81.6772 4.82861C81.8888 4.78792 82.0923 4.78792 82.2876 4.82861C82.491 4.8693 82.6782 4.94661 82.8491 5.06055C83.0282 5.17448 83.1787 5.32096 83.3008 5.5ZM111.023 10.6758C111.023 11.3919 110.929 12.0715 110.742 12.7144C110.563 13.3491 110.307 13.9391 109.973 14.4844C109.639 15.0296 109.245 15.5179 108.789 15.9492C108.333 16.3805 107.833 16.7508 107.288 17.0601C106.75 17.3612 106.177 17.5931 105.566 17.7559C104.956 17.9186 104.333 18 103.699 18H97.9736C97.3307 18 96.7041 17.9186 96.0938 17.7559C95.4834 17.5931 94.9056 17.3612 94.3604 17.0601C93.8232 16.7508 93.3268 16.3805 92.8711 15.9492C92.4154 15.5179 92.0207 15.0296 91.687 14.4844C91.3615 13.9391 91.1051 13.3491 90.918 12.7144C90.7389 12.0715 90.6494 11.3919 90.6494 10.6758V7.81934C90.6494 6.74512 90.8488 5.76042 91.2476 4.86523C91.6545 3.97005 92.1956 3.20101 92.8711 2.55811C93.5465 1.90706 94.3237 1.40251 95.2026 1.04443C96.0897 0.678223 97.0133 0.495117 97.9736 0.495117H103.699C104.333 0.495117 104.956 0.576497 105.566 0.739258C106.177 0.902018 106.75 1.13802 107.288 1.44727C107.833 1.74837 108.333 2.11458 108.789 2.5459C109.245 2.97721 109.639 3.46549 109.973 4.01074C110.307 4.55599 110.563 5.15007 110.742 5.79297C110.929 6.42773 111.023 7.10319 111.023 7.81934V10.6758ZM107.825 7.81934C107.825 7.19271 107.711 6.62305 107.483 6.11035C107.255 5.59766 106.95 5.1582 106.567 4.79199C106.193 4.42578 105.758 4.14502 105.261 3.94971C104.765 3.75439 104.244 3.66081 103.699 3.66895H97.9736C97.4447 3.66081 96.9279 3.75439 96.4233 3.94971C95.9269 4.13688 95.4834 4.41357 95.0928 4.77979C94.7103 5.13786 94.401 5.57731 94.165 6.09814C93.9372 6.61084 93.8232 7.18457 93.8232 7.81934V10.6758C93.8232 11.3105 93.9372 11.8843 94.165 12.397C94.3929 12.9097 94.6981 13.3491 95.0806 13.7153C95.4631 14.0734 95.9025 14.3501 96.3989 14.5454C96.9035 14.7407 97.4284 14.8343 97.9736 14.8262H103.699C104.325 14.8262 104.891 14.7244 105.396 14.521C105.908 14.3094 106.344 14.0205 106.702 13.6543C107.06 13.2881 107.336 12.8527 107.532 12.3481C107.727 11.8354 107.825 11.278 107.825 10.6758V7.81934ZM106.445 5.5C106.567 5.67904 106.649 5.87435 106.689 6.08594C106.73 6.28939 106.73 6.49284 106.689 6.69629C106.649 6.8916 106.567 7.07878 106.445 7.25781C106.331 7.42871 106.181 7.5752 105.994 7.69727L97.4243 13.4224C97.286 13.5282 97.1436 13.6014 96.9971 13.6421C96.8506 13.6828 96.7 13.7031 96.5454 13.7031C96.285 13.7031 96.0368 13.6421 95.8008 13.52C95.5648 13.3979 95.3735 13.223 95.2271 12.9951C95.105 12.8161 95.0236 12.6248 94.9829 12.4214C94.9422 12.2098 94.9382 12.0063 94.9707 11.811C95.0114 11.6076 95.0887 11.4204 95.2026 11.2495C95.3166 11.0705 95.4671 10.9199 95.6543 10.7979L104.248 5.07275C104.427 4.95068 104.618 4.8693 104.822 4.82861C105.033 4.78792 105.237 4.78792 105.432 4.82861C105.636 4.8693 105.823 4.94661 105.994 5.06055C106.173 5.17448 106.323 5.32096 106.445 5.5ZM124.866 10.6758H120.569V14.9727H117.725V10.6758H113.416V7.81934H117.725V3.52246H120.569V7.81934H124.866V10.6758ZM6.92139 58H3.73535V43.6689H0.866699V40.4951H6.92139V58ZM30.6274 50.6758C30.6274 51.3919 30.5339 52.0715 30.3467 52.7144C30.1676 53.3491 29.9113 53.9391 29.5776 54.4844C29.244 55.0296 28.8493 55.5179 28.3936 55.9492C27.9378 56.3805 27.4373 56.7508 26.8921 57.0601C26.355 57.3612 25.7812 57.5931 25.1709 57.7559C24.5605 57.9186 23.938 58 23.3032 58H17.5781C16.9352 58 16.3086 57.9186 15.6982 57.7559C15.0879 57.5931 14.5101 57.3612 13.9648 57.0601C13.4277 56.7508 12.9313 56.3805 12.4756 55.9492C12.0199 55.5179 11.6252 55.0296 11.2915 54.4844C10.966 53.9391 10.7096 53.3491 10.5225 52.7144C10.3434 52.0715 10.2539 51.3919 10.2539 50.6758V47.8193C10.2539 46.7451 10.4533 45.7604 10.8521 44.8652C11.259 43.9701 11.8001 43.201 12.4756 42.5581C13.151 41.9071 13.9282 41.4025 14.8071 41.0444C15.6942 40.6782 16.6178 40.4951 17.5781 40.4951H23.3032C23.938 40.4951 24.5605 40.5765 25.1709 40.7393C25.7812 40.902 26.355 41.138 26.8921 41.4473C27.4373 41.7484 27.9378 42.1146 28.3936 42.5459C28.8493 42.9772 29.244 43.4655 29.5776 44.0107C29.9113 44.556 30.1676 45.1501 30.3467 45.793C30.5339 46.4277 30.6274 47.1032 30.6274 47.8193V50.6758ZM27.4292 47.8193C27.4292 47.1927 27.3153 46.623 27.0874 46.1104C26.8595 45.5977 26.5544 45.1582 26.1719 44.792C25.7975 44.4258 25.3621 44.145 24.8657 43.9497C24.3693 43.7544 23.8485 43.6608 23.3032 43.6689H17.5781C17.0492 43.6608 16.5324 43.7544 16.0278 43.9497C15.5314 44.1369 15.0879 44.4136 14.6973 44.7798C14.3148 45.1379 14.0055 45.5773 13.7695 46.0981C13.5417 46.6108 13.4277 47.1846 13.4277 47.8193V50.6758C13.4277 51.3105 13.5417 51.8843 13.7695 52.397C13.9974 52.9097 14.3026 53.3491 14.6851 53.7153C15.0675 54.0734 15.507 54.3501 16.0034 54.5454C16.508 54.7407 17.0329 54.8343 17.5781 54.8262H23.3032C23.9299 54.8262 24.4954 54.7244 25 54.521C25.5127 54.3094 25.9481 54.0205 26.3062 53.6543C26.6642 53.2881 26.9409 52.8527 27.1362 52.3481C27.3315 51.8354 27.4292 51.278 27.4292 50.6758V47.8193ZM26.0498 45.5C26.1719 45.679 26.2533 45.8743 26.2939 46.0859C26.3346 46.2894 26.3346 46.4928 26.2939 46.6963C26.2533 46.8916 26.1719 47.0788 26.0498 47.2578C25.9359 47.4287 25.7853 47.5752 25.5981 47.6973L17.0288 53.4224C16.8905 53.5282 16.748 53.6014 16.6016 53.6421C16.4551 53.6828 16.3045 53.7031 16.1499 53.7031C15.8895 53.7031 15.6413 53.6421 15.4053 53.52C15.1693 53.3979 14.978 53.223 14.8315 52.9951C14.7095 52.8161 14.6281 52.6248 14.5874 52.4214C14.5467 52.2098 14.5426 52.0063 14.5752 51.811C14.6159 51.6076 14.6932 51.4204 14.8071 51.2495C14.9211 51.0705 15.0716 50.9199 15.2588 50.7979L23.8525 45.0728C24.0316 44.9507 24.2228 44.8693 24.4263 44.8286C24.6379 44.7879 24.8413 44.7879 25.0366 44.8286C25.2401 44.8693 25.4272 44.9466 25.5981 45.0605C25.7772 45.1745 25.9277 45.321 26.0498 45.5Z" fill="#1E417C"/>
<path d="M151.526 18H140.076C139.783 18 139.465 17.9674 139.124 17.9023C138.79 17.8291 138.456 17.7192 138.123 17.5728C137.797 17.4263 137.484 17.2391 137.183 17.0112C136.882 16.7752 136.613 16.4945 136.377 16.1689C136.149 15.8353 135.966 15.4528 135.828 15.0215C135.689 14.582 135.62 14.0897 135.62 13.5444V4.95068C135.62 4.65771 135.653 4.3444 135.718 4.01074C135.791 3.66895 135.901 3.33529 136.047 3.00977C136.194 2.67611 136.385 2.35872 136.621 2.05762C136.857 1.75651 137.138 1.49202 137.463 1.26416C137.797 1.02816 138.18 0.840983 138.611 0.702637C139.042 0.56429 139.53 0.495117 140.076 0.495117H151.526V3.66895H140.076C139.661 3.66895 139.343 3.77881 139.124 3.99854C138.904 4.21826 138.794 4.54378 138.794 4.9751V13.5444C138.794 13.9513 138.904 14.2687 139.124 14.4966C139.351 14.7163 139.669 14.8262 140.076 14.8262H151.526V18ZM168.359 13.5444C168.359 14.0897 168.29 14.582 168.152 15.0215C168.014 15.4528 167.83 15.8353 167.603 16.1689C167.375 16.4945 167.11 16.7752 166.809 17.0112C166.508 17.2391 166.191 17.4263 165.857 17.5728C165.531 17.7192 165.198 17.8291 164.856 17.9023C164.522 17.9674 164.205 18 163.904 18H158.179C157.739 18 157.259 17.9227 156.738 17.7681C156.217 17.6134 155.733 17.3612 155.286 17.0112C154.846 16.6532 154.476 16.1934 154.175 15.6318C153.882 15.0622 153.735 14.3664 153.735 13.5444V9.24756C153.735 8.43376 153.882 7.74609 154.175 7.18457C154.476 6.61491 154.846 6.15511 155.286 5.80518C155.733 5.4471 156.217 5.19076 156.738 5.03613C157.259 4.88151 157.739 4.8042 158.179 4.8042H163.904C164.718 4.8042 165.409 4.95068 165.979 5.24365C166.549 5.53662 167.008 5.9069 167.358 6.35449C167.708 6.79395 167.961 7.27409 168.115 7.79492C168.278 8.31576 168.359 8.79997 168.359 9.24756V13.5444ZM165.186 9.27197C165.186 8.83252 165.076 8.507 164.856 8.29541C164.636 8.08382 164.319 7.97803 163.904 7.97803H158.203C157.78 7.97803 157.458 8.08789 157.239 8.30762C157.019 8.51921 156.909 8.83252 156.909 9.24756V13.5444C156.909 13.9595 157.019 14.2769 157.239 14.4966C157.458 14.7163 157.78 14.8262 158.203 14.8262H163.904C164.335 14.8262 164.657 14.7163 164.868 14.4966C165.08 14.2769 165.186 13.9595 165.186 13.5444V9.27197ZM185.498 16.4009C185.498 16.6287 185.457 16.8403 185.376 17.0356C185.295 17.231 185.181 17.4019 185.034 17.5483C184.896 17.6867 184.729 17.7965 184.534 17.8779C184.347 17.9593 184.143 18 183.923 18H176.746C176.355 18 175.936 17.9552 175.488 17.8657C175.049 17.7762 174.613 17.6338 174.182 17.4385C173.751 17.235 173.332 16.9827 172.925 16.6816C172.526 16.3724 172.176 16.0021 171.875 15.5708C171.574 15.1313 171.33 14.6268 171.143 14.0571C170.964 13.4875 170.874 12.8446 170.874 12.1284V4.8042H174.048V12.1284C174.048 12.5435 174.117 12.9178 174.255 13.2515C174.402 13.577 174.597 13.8577 174.841 14.0938C175.085 14.3298 175.37 14.5129 175.696 14.6431C176.029 14.7651 176.388 14.8262 176.77 14.8262H182.324V4.8042H185.498V16.4009ZM200.024 7.97803H192.883C192.452 7.97803 192.126 8.08789 191.907 8.30762C191.687 8.51921 191.577 8.83252 191.577 9.24756V18H188.403V9.24756C188.403 8.70231 188.472 8.21403 188.611 7.78271C188.749 7.3514 188.932 6.97298 189.16 6.64746C189.396 6.3138 189.665 6.03304 189.966 5.80518C190.267 5.56917 190.58 5.37793 190.906 5.23145C191.239 5.08496 191.573 4.97917 191.907 4.91406C192.249 4.84082 192.566 4.8042 192.859 4.8042H200.024V7.97803ZM214.88 13.5444C214.88 14.0897 214.811 14.582 214.673 15.0215C214.535 15.4528 214.351 15.8353 214.124 16.1689C213.896 16.4945 213.631 16.7752 213.33 17.0112C213.029 17.2391 212.712 17.4263 212.378 17.5728C212.052 17.7192 211.719 17.8291 211.377 17.9023C211.043 17.9674 210.726 18 210.425 18H201.831V14.8262H210.4C210.832 14.8262 211.157 14.7163 211.377 14.4966C211.597 14.2769 211.707 13.9595 211.707 13.5444C211.666 12.6981 211.239 12.2749 210.425 12.2749H205.505C204.806 12.2749 204.211 12.1528 203.723 11.9087C203.235 11.6646 202.836 11.3594 202.527 10.9932C202.226 10.627 202.006 10.2323 201.868 9.80908C201.737 9.3859 201.672 8.99121 201.672 8.625C201.672 7.91699 201.799 7.32292 202.051 6.84277C202.303 6.35449 202.62 5.9598 203.003 5.65869C203.385 5.35758 203.8 5.14193 204.248 5.01172C204.696 4.87337 205.115 4.8042 205.505 4.8042H213.306V7.97803H205.53C205.367 7.97803 205.237 7.99837 205.139 8.03906C205.05 8.07161 204.98 8.12044 204.932 8.18555C204.891 8.24251 204.867 8.30762 204.858 8.38086C204.85 8.44596 204.846 8.51107 204.846 8.57617C204.854 8.70638 204.879 8.80811 204.919 8.88135C204.96 8.95459 205.009 9.00749 205.066 9.04004C205.131 9.07259 205.2 9.09294 205.273 9.10107C205.355 9.10107 205.432 9.10107 205.505 9.10107H210.425C211.239 9.10107 211.93 9.24756 212.5 9.54053C213.07 9.8335 213.529 10.2038 213.879 10.6514C214.229 11.0908 214.482 11.571 214.636 12.0918C214.799 12.6126 214.88 13.0968 214.88 13.5444ZM231.311 9.17432C231.311 9.61377 231.234 10.0898 231.079 10.6025C230.924 11.1071 230.672 11.5791 230.322 12.0186C229.98 12.4499 229.529 12.812 228.967 13.105C228.414 13.3979 227.738 13.5444 226.941 13.5444H221.216V10.5293H226.941C227.372 10.5293 227.706 10.3991 227.942 10.1387C228.178 9.87012 228.296 9.54053 228.296 9.1499C228.296 8.73486 228.162 8.40934 227.893 8.17334C227.633 7.93734 227.315 7.81934 226.941 7.81934H221.216C220.785 7.81934 220.451 7.95361 220.215 8.22217C219.979 8.48258 219.861 8.80811 219.861 9.19873V13.6299C219.861 14.0531 219.991 14.3826 220.251 14.6187C220.52 14.8547 220.85 14.9727 221.24 14.9727H226.941V18H221.216C220.776 18 220.3 17.9227 219.788 17.7681C219.283 17.6134 218.811 17.3652 218.372 17.0234C217.94 16.6735 217.578 16.2218 217.285 15.6685C216.992 15.1069 216.846 14.4274 216.846 13.6299V9.17432C216.846 8.73486 216.923 8.26286 217.078 7.7583C217.232 7.24561 217.48 6.7736 217.822 6.34229C218.172 5.90283 218.624 5.53662 219.177 5.24365C219.739 4.95068 220.418 4.8042 221.216 4.8042H226.941C227.38 4.8042 227.852 4.88151 228.357 5.03613C228.87 5.19076 229.342 5.44303 229.773 5.79297C230.212 6.13477 230.579 6.58643 230.872 7.14795C231.165 7.70133 231.311 8.37679 231.311 9.17432ZM246.204 13.5444C246.204 14.0897 246.134 14.582 245.996 15.0215C245.858 15.4528 245.675 15.8353 245.447 16.1689C245.219 16.4945 244.954 16.7752 244.653 17.0112C244.352 17.2391 244.035 17.4263 243.701 17.5728C243.376 17.7192 243.042 17.8291 242.7 17.9023C242.367 17.9674 242.049 18 241.748 18H233.154V14.8262H241.724C242.155 14.8262 242.48 14.7163 242.7 14.4966C242.92 14.2769 243.03 13.9595 243.03 13.5444C242.989 12.6981 242.562 12.2749 241.748 12.2749H236.829C236.129 12.2749 235.535 12.1528 235.046 11.9087C234.558 11.6646 234.159 11.3594 233.85 10.9932C233.549 10.627 233.329 10.2323 233.191 9.80908C233.061 9.3859 232.996 8.99121 232.996 8.625C232.996 7.91699 233.122 7.32292 233.374 6.84277C233.626 6.35449 233.944 5.9598 234.326 5.65869C234.709 5.35758 235.124 5.14193 235.571 5.01172C236.019 4.87337 236.438 4.8042 236.829 4.8042H244.629V7.97803H236.853C236.69 7.97803 236.56 7.99837 236.462 8.03906C236.373 8.07161 236.304 8.12044 236.255 8.18555C236.214 8.24251 236.19 8.30762 236.182 8.38086C236.174 8.44596 236.169 8.51107 236.169 8.57617C236.178 8.70638 236.202 8.80811 236.243 8.88135C236.283 8.95459 236.332 9.00749 236.389 9.04004C236.454 9.07259 236.523 9.09294 236.597 9.10107C236.678 9.10107 236.755 9.10107 236.829 9.10107H241.748C242.562 9.10107 243.254 9.24756 243.823 9.54053C244.393 9.8335 244.853 10.2038 245.203 10.6514C245.553 11.0908 245.805 11.571 245.959 12.0918C246.122 12.6126 246.204 13.0968 246.204 13.5444ZM251.086 16.4009C251.086 16.6206 251.042 16.8281 250.952 17.0234C250.871 17.2106 250.757 17.3774 250.61 17.5239C250.472 17.6623 250.305 17.7721 250.11 17.8535C249.923 17.9349 249.723 17.9756 249.512 17.9756C249.292 17.9756 249.084 17.9349 248.889 17.8535C248.702 17.7721 248.535 17.6623 248.389 17.5239C248.25 17.3774 248.14 17.2106 248.059 17.0234C247.978 16.8281 247.937 16.6206 247.937 16.4009C247.937 16.1893 247.978 15.9899 248.059 15.8027C248.14 15.6074 248.25 15.4406 248.389 15.3022C248.535 15.1558 248.702 15.0418 248.889 14.9604C249.084 14.8709 249.292 14.8262 249.512 14.8262C249.723 14.8262 249.923 14.8709 250.11 14.9604C250.305 15.0418 250.472 15.1558 250.61 15.3022C250.757 15.4406 250.871 15.6074 250.952 15.8027C251.042 15.9899 251.086 16.1893 251.086 16.4009ZM58.8013 52.8486C58.8013 53.4753 58.7199 54.0409 58.5571 54.5454C58.4025 55.0418 58.195 55.4813 57.9346 55.8638C57.6742 56.2463 57.369 56.5718 57.019 56.8403C56.6691 57.1089 56.307 57.3286 55.9326 57.4995C55.5583 57.6704 55.1758 57.7965 54.7852 57.8779C54.4027 57.9593 54.0405 58 53.6987 58H41.4551V54.8262H53.6987C54.3091 54.8262 54.7811 54.6471 55.1147 54.2891C55.4565 53.931 55.6274 53.4508 55.6274 52.8486C55.6274 52.5557 55.5827 52.2871 55.4932 52.043C55.4036 51.7988 55.2734 51.5872 55.1025 51.4082C54.9398 51.2292 54.7363 51.0908 54.4922 50.9932C54.2562 50.8955 53.9917 50.8467 53.6987 50.8467H46.3989C45.8862 50.8467 45.3328 50.7572 44.7388 50.5781C44.1447 50.391 43.5913 50.0939 43.0786 49.687C42.5741 49.2801 42.1509 48.7471 41.8091 48.0879C41.4754 47.4287 41.3086 46.623 41.3086 45.6709C41.3086 44.7188 41.4754 43.9172 41.8091 43.2661C42.1509 42.6069 42.5741 42.0739 43.0786 41.667C43.5913 41.252 44.1447 40.9549 44.7388 40.7759C45.3328 40.5887 45.8862 40.4951 46.3989 40.4951H57.2021V43.6689H46.3989C45.7967 43.6689 45.3247 43.8521 44.9829 44.2183C44.6493 44.5845 44.4824 45.0687 44.4824 45.6709C44.4824 46.2812 44.6493 46.7655 44.9829 47.1235C45.3247 47.4735 45.7967 47.6484 46.3989 47.6484H53.6987H53.7231C54.0649 47.6566 54.4271 47.7054 54.8096 47.7949C55.1921 47.8763 55.5705 48.0065 55.9448 48.1855C56.3273 48.3646 56.6895 48.5924 57.0312 48.8691C57.373 49.1377 57.6742 49.4632 57.9346 49.8457C58.2031 50.2282 58.4147 50.6676 58.5693 51.1641C58.724 51.6605 58.8013 52.222 58.8013 52.8486ZM72.522 47.978H66.98V58H63.7695V47.978H59.6436V44.8042H63.7695V40.4951H66.98V44.8042H72.522V47.978ZM89.0381 56.4009C89.0381 56.6287 88.9974 56.8403 88.916 57.0356C88.8346 57.231 88.7207 57.4019 88.5742 57.5483C88.4359 57.6867 88.269 57.7965 88.0737 57.8779C87.8866 57.9593 87.6831 58 87.4634 58H80.2856C79.895 58 79.4759 57.9552 79.0283 57.8657C78.5889 57.7762 78.1535 57.6338 77.7222 57.4385C77.2909 57.235 76.8717 56.9827 76.4648 56.6816C76.0661 56.3724 75.7161 56.0021 75.415 55.5708C75.1139 55.1313 74.8698 54.6268 74.6826 54.0571C74.5036 53.4875 74.4141 52.8446 74.4141 52.1284V44.8042H77.5879V52.1284C77.5879 52.5435 77.6571 52.9178 77.7954 53.2515C77.9419 53.577 78.1372 53.8577 78.3813 54.0938C78.6255 54.3298 78.9103 54.5129 79.2358 54.6431C79.5695 54.7651 79.9276 54.8262 80.3101 54.8262H85.8643V44.8042H89.0381V56.4009ZM106.494 53.5444C106.494 54.0897 106.425 54.582 106.287 55.0215C106.148 55.4528 105.965 55.8353 105.737 56.1689C105.509 56.4945 105.245 56.7752 104.944 57.0112C104.643 57.2391 104.325 57.4263 103.992 57.5728C103.666 57.7192 103.333 57.8291 102.991 57.9023C102.657 57.9674 102.34 58 102.039 58H96.3135C95.7682 58 95.2799 57.9308 94.8486 57.7925C94.4173 57.6541 94.0348 57.471 93.7012 57.2432C93.3757 57.0072 93.0949 56.7386 92.8589 56.4375C92.631 56.1364 92.4438 55.8231 92.2974 55.4976C92.1509 55.1639 92.041 54.8302 91.9678 54.4966C91.9027 54.1548 91.8701 53.8374 91.8701 53.5444V49.2476C91.8701 48.4338 92.0166 47.7461 92.3096 47.1846C92.6107 46.6149 92.981 46.1551 93.4204 45.8052C93.868 45.4471 94.3522 45.1908 94.873 45.0361C95.3939 44.8815 95.874 44.8042 96.3135 44.8042H102.039V47.978H96.3379C95.9147 47.978 95.5933 48.0879 95.3735 48.3076C95.1538 48.5192 95.0439 48.8325 95.0439 49.2476V53.52C95.0439 53.9513 95.1497 54.2769 95.3613 54.4966C95.5811 54.7163 95.8984 54.8262 96.3135 54.8262H102.039C102.47 54.8262 102.791 54.7163 103.003 54.4966C103.215 54.2769 103.32 53.9595 103.32 53.5444V39.2256H106.494V53.5444ZM124.072 59.2695C124.072 59.8148 124.003 60.3031 123.865 60.7344C123.726 61.1738 123.543 61.5563 123.315 61.8818C123.088 62.2155 122.823 62.4963 122.522 62.7241C122.221 62.9601 121.903 63.1514 121.57 63.2979C121.244 63.4443 120.915 63.5501 120.581 63.6152C120.247 63.6885 119.93 63.7251 119.629 63.7251H113.904V60.5513H119.629C120.052 60.5513 120.369 60.4414 120.581 60.2217C120.793 60.002 120.898 59.6846 120.898 59.2695V44.8042H124.072V59.2695ZM119.629 58H113.904C113.448 58 112.96 57.9227 112.439 57.7681C111.926 57.6134 111.446 57.3612 110.999 57.0112C110.551 56.6532 110.181 56.1934 109.888 55.6318C109.595 55.0622 109.448 54.3664 109.448 53.5444V44.8042H112.622V53.5444C112.622 53.9595 112.732 54.2769 112.952 54.4966C113.171 54.7163 113.497 54.8262 113.928 54.8262H119.629V58ZM149.707 53.5444C149.707 54.0897 149.638 54.582 149.5 55.0215C149.361 55.4528 149.178 55.8353 148.95 56.1689C148.722 56.4945 148.458 56.7752 148.157 57.0112C147.856 57.2391 147.538 57.4263 147.205 57.5728C146.879 57.7192 146.545 57.8291 146.204 57.9023C145.87 57.9674 145.553 58 145.251 58H139.526C138.981 58 138.493 57.9308 138.062 57.7925C137.63 57.6541 137.248 57.471 136.914 57.2432C136.589 57.0072 136.308 56.7386 136.072 56.4375C135.844 56.1364 135.657 55.8231 135.51 55.4976C135.364 55.1639 135.254 54.8302 135.181 54.4966C135.116 54.1548 135.083 53.8374 135.083 53.5444V49.2476C135.083 48.4338 135.229 47.7461 135.522 47.1846C135.824 46.6149 136.194 46.1551 136.633 45.8052C137.081 45.4471 137.565 45.1908 138.086 45.0361C138.607 44.8815 139.087 44.8042 139.526 44.8042H145.251V47.978H139.551C139.128 47.978 138.806 48.0879 138.586 48.3076C138.367 48.5192 138.257 48.8325 138.257 49.2476V53.52C138.257 53.9513 138.363 54.2769 138.574 54.4966C138.794 54.7163 139.111 54.8262 139.526 54.8262H145.251C145.683 54.8262 146.004 54.7163 146.216 54.4966C146.427 54.2769 146.533 53.9595 146.533 53.5444V39.2256H149.707V53.5444ZM166.931 49.1743C166.931 49.6138 166.854 50.0898 166.699 50.6025C166.545 51.1071 166.292 51.5791 165.942 52.0186C165.601 52.4499 165.149 52.812 164.587 53.105C164.034 53.3979 163.359 53.5444 162.561 53.5444H156.836V50.5293H162.561C162.992 50.5293 163.326 50.3991 163.562 50.1387C163.798 49.8701 163.916 49.5405 163.916 49.1499C163.916 48.7349 163.782 48.4093 163.513 48.1733C163.253 47.9373 162.935 47.8193 162.561 47.8193H156.836C156.405 47.8193 156.071 47.9536 155.835 48.2222C155.599 48.4826 155.481 48.8081 155.481 49.1987V53.6299C155.481 54.0531 155.611 54.3826 155.872 54.6187C156.14 54.8547 156.47 54.9727 156.86 54.9727H162.561V58H156.836C156.396 58 155.92 57.9227 155.408 57.7681C154.903 57.6134 154.431 57.3652 153.992 57.0234C153.56 56.6735 153.198 56.2218 152.905 55.6685C152.612 55.1069 152.466 54.4274 152.466 53.6299V49.1743C152.466 48.7349 152.543 48.2629 152.698 47.7583C152.852 47.2456 153.101 46.7736 153.442 46.3423C153.792 45.9028 154.244 45.5366 154.797 45.2437C155.359 44.9507 156.038 44.8042 156.836 44.8042H162.561C163 44.8042 163.472 44.8815 163.977 45.0361C164.49 45.1908 164.962 45.443 165.393 45.793C165.833 46.1348 166.199 46.5864 166.492 47.1479C166.785 47.7013 166.931 48.3768 166.931 49.1743ZM181.824 53.5444C181.824 54.0897 181.755 54.582 181.616 55.0215C181.478 55.4528 181.295 55.8353 181.067 56.1689C180.839 56.4945 180.575 56.7752 180.273 57.0112C179.972 57.2391 179.655 57.4263 179.321 57.5728C178.996 57.7192 178.662 57.8291 178.32 57.9023C177.987 57.9674 177.669 58 177.368 58H168.774V54.8262H177.344C177.775 54.8262 178.101 54.7163 178.32 54.4966C178.54 54.2769 178.65 53.9595 178.65 53.5444C178.609 52.6981 178.182 52.2749 177.368 52.2749H172.449C171.749 52.2749 171.155 52.1528 170.667 51.9087C170.178 51.6646 169.779 51.3594 169.47 50.9932C169.169 50.627 168.949 50.2323 168.811 49.8091C168.681 49.3859 168.616 48.9912 168.616 48.625C168.616 47.917 168.742 47.3229 168.994 46.8428C169.246 46.3545 169.564 45.9598 169.946 45.6587C170.329 45.3576 170.744 45.1419 171.191 45.0117C171.639 44.8734 172.058 44.8042 172.449 44.8042H180.249V47.978H172.473C172.31 47.978 172.18 47.9984 172.083 48.0391C171.993 48.0716 171.924 48.1204 171.875 48.1855C171.834 48.2425 171.81 48.3076 171.802 48.3809C171.794 48.446 171.79 48.5111 171.79 48.5762C171.798 48.7064 171.822 48.8081 171.863 48.8813C171.903 48.9546 171.952 49.0075 172.009 49.04C172.074 49.0726 172.144 49.0929 172.217 49.1011C172.298 49.1011 172.375 49.1011 172.449 49.1011H177.368C178.182 49.1011 178.874 49.2476 179.443 49.5405C180.013 49.8335 180.473 50.2038 180.823 50.6514C181.173 51.0908 181.425 51.571 181.58 52.0918C181.742 52.6126 181.824 53.0968 181.824 53.5444ZM195.837 47.978H190.295V58H187.085V47.978H182.959V44.8042H187.085V40.4951H190.295V44.8042H195.837V47.978ZM201.147 42.0942H197.974V39.2256H201.147V42.0942ZM201.147 58H197.974V44.8042H201.147V58ZM218.823 58H215.649V50.6758C215.649 50.2607 215.576 49.8905 215.43 49.5649C215.291 49.2313 215.1 48.9465 214.856 48.7104C214.612 48.4744 214.323 48.2954 213.989 48.1733C213.664 48.0431 213.31 47.978 212.927 47.978H207.373V58H204.199V46.3789C204.199 46.1592 204.24 45.9557 204.321 45.7686C204.403 45.5732 204.517 45.4064 204.663 45.2681C204.81 45.1216 204.98 45.0076 205.176 44.9263C205.371 44.8449 205.579 44.8042 205.798 44.8042H212.952C213.35 44.8042 213.77 44.849 214.209 44.9385C214.657 45.028 215.096 45.1745 215.527 45.3779C215.967 45.5732 216.382 45.8255 216.772 46.1348C217.171 46.4359 217.521 46.8062 217.822 47.2456C218.132 47.6769 218.376 48.1774 218.555 48.7471C218.734 49.3167 218.823 49.9596 218.823 50.6758V58ZM235.229 53.6299C235.229 54.0693 235.152 54.5454 234.998 55.0581C234.843 55.5627 234.591 56.0347 234.241 56.4741C233.899 56.9054 233.447 57.2676 232.886 57.5605C232.332 57.8535 231.657 58 230.859 58H225.134C224.695 58 224.219 57.9227 223.706 57.7681C223.201 57.6134 222.729 57.3652 222.29 57.0234C221.859 56.6735 221.497 56.2218 221.204 55.6685C220.911 55.1069 220.764 54.4274 220.764 53.6299C220.764 53.1904 220.841 52.7144 220.996 52.2017C221.151 51.689 221.399 51.217 221.741 50.7856C222.091 50.3462 222.542 49.98 223.096 49.687C223.657 49.394 224.337 49.2476 225.134 49.2476H230.859V52.2749H225.134C224.703 52.2749 224.369 52.4092 224.133 52.6777C223.897 52.9382 223.779 53.2637 223.779 53.6543C223.779 54.0693 223.914 54.3949 224.182 54.6309C224.459 54.8587 224.784 54.9727 225.159 54.9727H230.859C231.291 54.9727 231.624 54.8424 231.86 54.582C232.096 54.3216 232.214 53.9961 232.214 53.6055V49.1743C232.214 48.7593 232.084 48.4297 231.824 48.1855C231.571 47.9414 231.25 47.8193 230.859 47.8193H223.889V44.8042H230.859C231.299 44.8042 231.771 44.8815 232.275 45.0361C232.788 45.1908 233.26 45.443 233.691 45.793C234.131 46.1348 234.497 46.5864 234.79 47.1479C235.083 47.7013 235.229 48.3768 235.229 49.1743V53.6299ZM249.89 47.978H244.348V58H241.138V47.978H237.012V44.8042H241.138V40.4951H244.348V44.8042H249.89V47.978ZM255.2 42.0942H252.026V39.2256H255.2V42.0942ZM255.2 58H252.026V44.8042H255.2V58ZM272.607 53.5444C272.607 54.0897 272.538 54.582 272.4 55.0215C272.262 55.4528 272.078 55.8353 271.851 56.1689C271.623 56.4945 271.358 56.7752 271.057 57.0112C270.756 57.2391 270.439 57.4263 270.105 57.5728C269.779 57.7192 269.446 57.8291 269.104 57.9023C268.77 57.9674 268.453 58 268.152 58H262.427C261.987 58 261.507 57.9227 260.986 57.7681C260.465 57.6134 259.981 57.3612 259.534 57.0112C259.094 56.6532 258.724 56.1934 258.423 55.6318C258.13 55.0622 257.983 54.3664 257.983 53.5444V49.2476C257.983 48.4338 258.13 47.7461 258.423 47.1846C258.724 46.6149 259.094 46.1551 259.534 45.8052C259.981 45.4471 260.465 45.1908 260.986 45.0361C261.507 44.8815 261.987 44.8042 262.427 44.8042H268.152C268.966 44.8042 269.657 44.9507 270.227 45.2437C270.797 45.5366 271.257 45.9069 271.606 46.3545C271.956 46.7939 272.209 47.2741 272.363 47.7949C272.526 48.3158 272.607 48.8 272.607 49.2476V53.5444ZM269.434 49.272C269.434 48.8325 269.324 48.507 269.104 48.2954C268.884 48.0838 268.567 47.978 268.152 47.978H262.451C262.028 47.978 261.707 48.0879 261.487 48.3076C261.267 48.5192 261.157 48.8325 261.157 49.2476V53.5444C261.157 53.9595 261.267 54.2769 261.487 54.4966C261.707 54.7163 262.028 54.8262 262.451 54.8262H268.152C268.583 54.8262 268.905 54.7163 269.116 54.4966C269.328 54.2769 269.434 53.9595 269.434 53.5444V49.272ZM289.941 58H286.768V50.6758C286.768 50.2607 286.694 49.8905 286.548 49.5649C286.41 49.2313 286.218 48.9465 285.974 48.7104C285.73 48.4744 285.441 48.2954 285.107 48.1733C284.782 48.0431 284.428 47.978 284.045 47.978H278.491V58H275.317V46.3789C275.317 46.1592 275.358 45.9557 275.439 45.7686C275.521 45.5732 275.635 45.4064 275.781 45.2681C275.928 45.1216 276.099 45.0076 276.294 44.9263C276.489 44.8449 276.697 44.8042 276.917 44.8042H284.07C284.469 44.8042 284.888 44.849 285.327 44.9385C285.775 45.028 286.214 45.1745 286.646 45.3779C287.085 45.5732 287.5 45.8255 287.891 46.1348C288.289 46.4359 288.639 46.8062 288.94 47.2456C289.25 47.6769 289.494 48.1774 289.673 48.7471C289.852 49.3167 289.941 49.9596 289.941 50.6758V58ZM305.481 53.5444C305.481 54.0897 305.412 54.582 305.273 55.0215C305.135 55.4528 304.952 55.8353 304.724 56.1689C304.496 56.4945 304.232 56.7752 303.931 57.0112C303.63 57.2391 303.312 57.4263 302.979 57.5728C302.653 57.7192 302.319 57.8291 301.978 57.9023C301.644 57.9674 301.326 58 301.025 58H292.432V54.8262H301.001C301.432 54.8262 301.758 54.7163 301.978 54.4966C302.197 54.2769 302.307 53.9595 302.307 53.5444C302.266 52.6981 301.839 52.2749 301.025 52.2749H296.106C295.406 52.2749 294.812 52.1528 294.324 51.9087C293.835 51.6646 293.437 51.3594 293.127 50.9932C292.826 50.627 292.607 50.2323 292.468 49.8091C292.338 49.3859 292.273 48.9912 292.273 48.625C292.273 47.917 292.399 47.3229 292.651 46.8428C292.904 46.3545 293.221 45.9598 293.604 45.6587C293.986 45.3576 294.401 45.1419 294.849 45.0117C295.296 44.8734 295.715 44.8042 296.106 44.8042H303.906V47.978H296.13C295.968 47.978 295.837 47.9984 295.74 48.0391C295.65 48.0716 295.581 48.1204 295.532 48.1855C295.492 48.2425 295.467 48.3076 295.459 48.3809C295.451 48.446 295.447 48.5111 295.447 48.5762C295.455 48.7064 295.479 48.8081 295.52 48.8813C295.561 48.9546 295.61 49.0075 295.667 49.04C295.732 49.0726 295.801 49.0929 295.874 49.1011C295.955 49.1011 296.033 49.1011 296.106 49.1011H301.025C301.839 49.1011 302.531 49.2476 303.101 49.5405C303.67 49.8335 304.13 50.2038 304.48 50.6514C304.83 51.0908 305.082 51.571 305.237 52.0918C305.4 52.6126 305.481 53.0968 305.481 53.5444ZM310.364 56.4009C310.364 56.6206 310.319 56.8281 310.229 57.0234C310.148 57.2106 310.034 57.3774 309.888 57.5239C309.749 57.6623 309.583 57.7721 309.387 57.8535C309.2 57.9349 309.001 57.9756 308.789 57.9756C308.569 57.9756 308.362 57.9349 308.167 57.8535C307.979 57.7721 307.812 57.6623 307.666 57.5239C307.528 57.3774 307.418 57.2106 307.336 57.0234C307.255 56.8281 307.214 56.6206 307.214 56.4009C307.214 56.1893 307.255 55.9899 307.336 55.8027C307.418 55.6074 307.528 55.4406 307.666 55.3022C307.812 55.1558 307.979 55.0418 308.167 54.9604C308.362 54.8709 308.569 54.8262 308.789 54.8262C309.001 54.8262 309.2 54.8709 309.387 54.9604C309.583 55.0418 309.749 55.1558 309.888 55.3022C310.034 55.4406 310.148 55.6074 310.229 55.8027C310.319 55.9899 310.364 56.1893 310.364 56.4009Z" fill="#C12133"/>
</svg>
