<svg width="110" height="111" viewBox="0 0 110 111" fill="none" xmlns="http://www.w3.org/2000/svg">
<path d="M109.014 19.4414L55.7885 0.883811C55.3943 0.698235 54.8029 0.698235 54.4086 0.883811L1.1828 19.4414C0.591398 19.627 0 20.3693 0 21.1116C0 21.8539 0.591397 22.5962 1.37993 22.7817L19.7133 29.2769V39.6691C19.7133 40.0403 19.7133 40.2259 19.9104 40.597C20.1075 40.7826 21.0932 42.6383 23.6559 44.8653C23.6559 45.0508 23.4588 45.2364 23.4588 45.422V45.6076C17.9391 46.5354 13.6022 50.9893 13.6022 56.5565C13.6022 62.1238 17.9391 66.5776 23.4588 67.5055V68.0622C23.4588 68.2478 25.0358 77.5266 32.3298 84.9496C21.8817 89.7746 13.405 97.9399 8.4767 107.961C8.27957 108.518 8.27957 109.26 8.67383 109.817C9.0681 110.373 9.6595 110.745 10.2509 110.745H99.7491C100.34 110.745 101.129 110.373 101.326 109.817C101.523 109.26 101.72 108.703 101.523 107.961C96.595 97.9399 88.1183 89.9602 77.6703 84.9496C84.767 77.5266 86.5412 68.2478 86.5412 68.0622V67.5055C92.0609 66.5776 96.3979 62.1238 96.3979 56.5565C96.3979 50.9893 92.0609 46.5354 86.5412 45.6076V45.422C86.5412 45.2364 86.5412 45.0508 86.3441 44.8653C88.9068 42.6383 90.0896 40.9682 90.0896 40.597C90.2867 40.2259 90.2867 40.0403 90.2867 39.6691V29.2769L98.172 26.4933V41.896C95.8065 42.6383 94.2294 44.6797 94.2294 47.0922C94.2294 50.247 96.7921 52.6594 100.143 52.6594C103.495 52.6594 106.057 50.247 106.057 47.0922C106.057 44.6797 104.48 42.6383 102.115 41.896V25.1942L108.62 22.9673C109.409 22.7817 110 22.0394 110 21.2971C110 20.5548 109.803 19.627 109.014 19.4414ZM100.538 48.9479C99.3548 48.9479 98.5663 48.2056 98.5663 47.0922C98.5663 45.9787 99.3548 45.2364 100.538 45.2364C101.72 45.2364 102.509 45.9787 102.509 47.0922C102.509 48.2056 101.72 48.9479 100.538 48.9479ZM27.5986 47.6489C29.9642 49.1335 32.724 50.6181 36.2724 51.7316C34.8925 53.4017 31.9355 55.6287 27.5986 56.1854V47.6489ZM17.7419 56.3709C17.7419 52.845 20.3047 50.0614 23.6559 49.1335V63.4228C20.3047 62.6805 17.7419 59.8969 17.7419 56.3709ZM35.4839 87.3621C38.638 89.7746 42.5806 91.8159 47.509 92.7438L55.5914 106.476H13.405C18.5305 97.9399 26.2186 91.2592 35.4839 87.3621ZM52.6344 93.4861H57.7599L55.1971 97.5688L52.6344 93.4861ZM96.7921 106.476H60.3226L57.1685 101.28L62.6882 92.7438C67.6165 91.8159 71.5591 89.7746 74.7133 87.3621C84.1756 91.2592 91.8638 97.9399 96.7921 106.476ZM82.7957 67.3199C82.4014 69.3613 78.2617 89.7746 55.1971 89.7746C32.3298 89.7746 27.9928 69.3613 27.5986 67.3199V59.8969C34.8925 59.1546 38.8351 54.8863 40.4122 52.845C42.1864 53.2162 43.9606 53.5873 45.9319 53.9585C46.9176 55.4431 52.8315 62.8661 62.6882 64.5363C64.0681 64.7219 65.448 64.9074 66.828 64.9074H67.0251V65.8353C67.0251 66.9488 67.8136 67.6911 68.9964 67.6911C70.1792 67.6911 70.9678 66.9488 70.9678 65.8353V64.5363C74.9104 63.9796 78.8531 62.3094 82.7957 60.0825V67.3199ZM82.7957 55.4431C76.0932 60.0825 69.3907 61.9382 63.4767 60.8248C57.957 59.8969 53.8172 56.7421 51.4516 54.3296C52.6344 54.3296 54.0143 54.5152 55.1971 54.5152C68.6021 54.5152 77.276 51.1748 82.7957 47.6489V55.4431ZM92.6523 56.3709C92.6523 59.8969 90.0896 62.6805 86.7384 63.6084V49.3191C90.0896 50.0614 92.6523 52.845 92.6523 56.3709ZM86.7384 39.1124C85.1613 41.1537 77.0789 50.8037 55.1971 50.8037C33.3154 50.8037 25.233 41.1537 23.6559 39.1124V30.5759L54.6057 41.3393C54.8029 41.3393 55 41.5249 55.1971 41.5249C55.3943 41.5249 55.5914 41.5249 55.7885 41.3393L86.7384 30.5759V39.1124ZM55.1971 37.6278L7.68817 21.1116L55.1971 4.59532L102.706 21.1116L55.1971 37.6278Z" fill="#1E417C"/>
<path d="M41.3985 60.082C40.2158 60.082 39.4272 60.8243 39.4272 61.9377V65.6492C39.4272 66.7627 40.2158 67.505 41.3985 67.505C42.5813 67.505 43.3699 66.7627 43.3699 65.6492V61.9377C43.3699 60.8243 42.5813 60.082 41.3985 60.082ZM65.6459 76.9694C64.6602 76.5982 63.4774 77.1549 63.0831 78.0828C63.0831 78.0828 61.5061 82.3511 55.0007 82.3511C48.6925 82.3511 47.1154 78.2684 46.9183 78.0828C46.524 77.1549 45.5383 76.5982 44.3555 76.9694C43.3699 77.3405 42.7785 78.2684 43.1727 79.3818C43.3699 79.753 45.7355 86.2481 54.8036 86.2481C63.8717 86.2481 66.4344 79.753 66.4344 79.3818C67.2229 78.2684 66.6315 77.1549 65.6459 76.9694Z" fill="#1E417C"/>
</svg>
