<svg width="355" height="81" viewBox="0 0 355 81" fill="none" xmlns="http://www.w3.org/2000/svg">
<path d="M110.387 58H105.816V51.8125H89.75V58H85.1797V45.3965C85.1797 43.5566 85.4961 41.8633 86.1289 40.3164C86.7617 38.7695 87.6406 37.4395 88.7656 36.3262C89.8906 35.2129 91.2207 34.3457 92.7559 33.7246C94.291 33.1035 95.9668 32.793 97.7832 32.793H108.084C108.4 32.793 108.699 32.8516 108.98 32.9688C109.262 33.0859 109.508 33.25 109.719 33.4609C109.93 33.6719 110.094 33.918 110.211 34.1992C110.328 34.4805 110.387 34.7793 110.387 35.0957V58ZM89.75 47.2422H105.816V37.3633H97.7832C97.6426 37.3633 97.3438 37.3867 96.8867 37.4336C96.4414 37.4688 95.9199 37.5684 95.3223 37.7324C94.7363 37.8965 94.1152 38.1484 93.459 38.4883C92.8027 38.8281 92.1992 39.2969 91.6484 39.8945C91.0977 40.4922 90.6406 41.2422 90.2773 42.1445C89.9258 43.0352 89.75 44.1191 89.75 45.3965V47.2422ZM136.051 51.584C136.051 52.3691 135.951 53.0781 135.752 53.7109C135.553 54.332 135.289 54.8828 134.961 55.3633C134.633 55.832 134.252 56.2363 133.818 56.5762C133.385 56.9043 132.928 57.1738 132.447 57.3848C131.979 57.5957 131.504 57.7539 131.023 57.8594C130.543 57.9531 130.086 58 129.652 58H121.408V53.4297H129.652C130.262 53.4297 130.719 53.2715 131.023 52.9551C131.328 52.6387 131.48 52.1816 131.48 51.584V45.4316C131.48 44.7988 131.322 44.3301 131.006 44.0254C130.701 43.7207 130.25 43.5684 129.652 43.5684H121.443C120.822 43.5684 120.354 43.7266 120.037 44.043C119.721 44.3477 119.562 44.7988 119.562 45.3965V63.9414H114.992V45.3965C114.992 44.6113 115.092 43.9082 115.291 43.2871C115.49 42.666 115.754 42.1211 116.082 41.6523C116.422 41.1719 116.809 40.7676 117.242 40.4395C117.676 40.0996 118.127 39.8242 118.596 39.6133C119.076 39.4023 119.557 39.25 120.037 39.1562C120.529 39.0508 120.986 38.998 121.408 38.998H129.652C130.438 38.998 131.141 39.0977 131.762 39.2969C132.383 39.4961 132.928 39.7598 133.396 40.0879C133.877 40.416 134.281 40.7969 134.609 41.2305C134.949 41.6641 135.225 42.1211 135.436 42.6016C135.646 43.0703 135.799 43.5449 135.893 44.0254C135.998 44.5059 136.051 44.9629 136.051 45.3965V51.584ZM160.906 51.584C160.906 52.3691 160.807 53.0781 160.607 53.7109C160.408 54.332 160.145 54.8828 159.816 55.3633C159.488 55.832 159.107 56.2363 158.674 56.5762C158.24 56.9043 157.783 57.1738 157.303 57.3848C156.834 57.5957 156.359 57.7539 155.879 57.8594C155.398 57.9531 154.941 58 154.508 58H146.264V53.4297H154.508C155.117 53.4297 155.574 53.2715 155.879 52.9551C156.184 52.6387 156.336 52.1816 156.336 51.584V45.4316C156.336 44.7988 156.178 44.3301 155.861 44.0254C155.557 43.7207 155.105 43.5684 154.508 43.5684H146.299C145.678 43.5684 145.209 43.7266 144.893 44.043C144.576 44.3477 144.418 44.7988 144.418 45.3965V63.9414H139.848V45.3965C139.848 44.6113 139.947 43.9082 140.146 43.2871C140.346 42.666 140.609 42.1211 140.938 41.6523C141.277 41.1719 141.664 40.7676 142.098 40.4395C142.531 40.0996 142.982 39.8242 143.451 39.6133C143.932 39.4023 144.412 39.25 144.893 39.1562C145.385 39.0508 145.842 38.998 146.264 38.998H154.508C155.293 38.998 155.996 39.0977 156.617 39.2969C157.238 39.4961 157.783 39.7598 158.252 40.0879C158.732 40.416 159.137 40.7969 159.465 41.2305C159.805 41.6641 160.08 42.1211 160.291 42.6016C160.502 43.0703 160.654 43.5449 160.748 44.0254C160.854 44.5059 160.906 44.9629 160.906 45.3965V51.584ZM173.158 58H171.119C170.463 58 169.76 57.8887 169.01 57.666C168.271 57.4434 167.58 57.0801 166.936 56.5762C166.291 56.0605 165.758 55.3984 165.336 54.5898C164.914 53.7695 164.703 52.7676 164.703 51.584V30.9648H169.273V51.584C169.273 52.1465 169.449 52.5977 169.801 52.9375C170.152 53.2656 170.592 53.4297 171.119 53.4297H173.158V58ZM197.047 59.8281C197.047 60.6133 196.947 61.3164 196.748 61.9375C196.549 62.5703 196.285 63.1211 195.957 63.5898C195.629 64.0703 195.248 64.4746 194.814 64.8027C194.381 65.1426 193.924 65.418 193.443 65.6289C192.975 65.8398 192.5 65.9922 192.02 66.0859C191.539 66.1914 191.082 66.2441 190.648 66.2441H182.404V61.6738H190.648C191.258 61.6738 191.715 61.5156 192.02 61.1992C192.324 60.8828 192.477 60.4258 192.477 59.8281V38.998H197.047V59.8281ZM190.648 58H182.404C181.748 58 181.045 57.8887 180.295 57.666C179.557 57.4434 178.865 57.0801 178.221 56.5762C177.576 56.0605 177.043 55.3984 176.621 54.5898C176.199 53.7695 175.988 52.7676 175.988 51.584V38.998H180.559V51.584C180.559 52.1816 180.717 52.6387 181.033 52.9551C181.35 53.2715 181.818 53.4297 182.439 53.4297H190.648V58ZM226.613 55.6973C226.613 56.0254 226.555 56.3301 226.438 56.6113C226.32 56.8926 226.156 57.1387 225.945 57.3496C225.734 57.5488 225.488 57.707 225.207 57.8242C224.926 57.9414 224.627 58 224.311 58H214.01C213.037 58 212.053 57.8945 211.057 57.6836C210.061 57.4727 209.094 57.1504 208.156 56.7168C207.23 56.2715 206.357 55.709 205.537 55.0293C204.717 54.3496 203.996 53.5469 203.375 52.6211C202.766 51.6836 202.285 50.6172 201.934 49.4219C201.582 48.2148 201.406 46.873 201.406 45.3965V32.793H205.977V45.3965C205.977 46.6855 206.152 47.7754 206.504 48.666C206.867 49.5566 207.324 50.3008 207.875 50.8984C208.426 51.4961 209.029 51.9648 209.686 52.3047C210.342 52.6445 210.963 52.8965 211.549 53.0605C212.146 53.2246 212.668 53.3301 213.113 53.377C213.57 53.4121 213.869 53.4297 214.01 53.4297H222.043V32.793H226.613V55.6973ZM252.488 58H247.918V47.4531C247.918 46.8555 247.812 46.3223 247.602 45.8535C247.402 45.373 247.127 44.9629 246.775 44.623C246.424 44.2832 246.008 44.0254 245.527 43.8496C245.059 43.6621 244.549 43.5684 243.998 43.5684H236V58H231.43V41.2656C231.43 40.9492 231.488 40.6562 231.605 40.3867C231.723 40.1055 231.887 39.8652 232.098 39.666C232.309 39.4551 232.555 39.291 232.836 39.1738C233.117 39.0566 233.416 38.998 233.732 38.998H244.033C244.607 38.998 245.211 39.0625 245.844 39.1914C246.488 39.3203 247.121 39.5312 247.742 39.8242C248.375 40.1055 248.973 40.4688 249.535 40.9141C250.109 41.3477 250.613 41.8809 251.047 42.5137C251.492 43.1348 251.844 43.8555 252.102 44.6758C252.359 45.4961 252.488 46.4219 252.488 47.4531V58ZM261.137 35.0957H256.566V30.9648H261.137V35.0957ZM261.137 58H256.566V38.998H261.137V58Z" fill="#1E417C"/>
<path d="M293.844 57.0488C293.844 57.377 293.779 57.6816 293.65 57.9629C293.533 58.2441 293.369 58.4902 293.158 58.7012C292.959 58.9004 292.719 59.0586 292.438 59.1758C292.156 59.293 291.857 59.3516 291.541 59.3516C291.26 59.3516 290.973 59.2988 290.68 59.1934C290.398 59.0879 290.146 58.918 289.924 58.6836L273.225 41.2461V59H268.654V35.7441C268.654 35.2754 268.783 34.8535 269.041 34.4785C269.311 34.0918 269.65 33.8047 270.061 33.6172C270.494 33.4414 270.939 33.4004 271.396 33.4941C271.854 33.5762 272.246 33.7871 272.574 34.127L289.273 51.5469V33.793H293.844V57.0488ZM319.191 52.584C319.191 53.3691 319.092 54.0781 318.893 54.7109C318.693 55.332 318.43 55.8828 318.102 56.3633C317.773 56.832 317.393 57.2363 316.959 57.5762C316.525 57.9043 316.068 58.1738 315.588 58.3848C315.119 58.5957 314.639 58.7539 314.146 58.8594C313.666 58.9531 313.209 59 312.775 59H304.531C303.898 59 303.207 58.8887 302.457 58.666C301.707 58.4434 301.01 58.0801 300.365 57.5762C299.732 57.0605 299.199 56.3984 298.766 55.5898C298.344 54.7695 298.133 53.7676 298.133 52.584V46.3965C298.133 45.2246 298.344 44.2344 298.766 43.4258C299.199 42.6055 299.732 41.9434 300.365 41.4395C301.01 40.9238 301.707 40.5547 302.457 40.332C303.207 40.1094 303.898 39.998 304.531 39.998H312.775C313.947 39.998 314.943 40.209 315.764 40.6309C316.584 41.0527 317.246 41.5859 317.75 42.2305C318.254 42.8633 318.617 43.5547 318.84 44.3047C319.074 45.0547 319.191 45.752 319.191 46.3965V52.584ZM314.621 46.4316C314.621 45.7988 314.463 45.3301 314.146 45.0254C313.83 44.7207 313.373 44.5684 312.775 44.5684H304.566C303.957 44.5684 303.494 44.7266 303.178 45.043C302.861 45.3477 302.703 45.7988 302.703 46.3965V52.584C302.703 53.1816 302.861 53.6387 303.178 53.9551C303.494 54.2715 303.957 54.4297 304.566 54.4297H312.775C313.396 54.4297 313.859 54.2715 314.164 53.9551C314.469 53.6387 314.621 53.1816 314.621 52.584V46.4316ZM354.383 39.998C353.656 41.627 352.871 43.2324 352.027 44.8145C351.184 46.3848 350.299 47.873 349.373 49.2793C348.459 50.6855 347.521 51.9863 346.561 53.1816C345.6 54.3652 344.645 55.3906 343.695 56.2578C342.758 57.1133 341.838 57.7871 340.936 58.2793C340.045 58.7598 339.201 59 338.404 59C338.076 59 337.771 58.9414 337.49 58.8242C337.209 58.707 336.963 58.5488 336.752 58.3496C336.541 58.1387 336.377 57.8926 336.26 57.6113C336.143 57.3301 336.084 57.0254 336.084 56.6973V48.1719L327.014 58.3145C326.779 58.5488 326.521 58.7246 326.24 58.8418C325.971 58.9473 325.689 59 325.396 59C325.08 59 324.781 58.9414 324.5 58.8242C324.23 58.707 323.99 58.5488 323.779 58.3496C323.568 58.1387 323.398 57.8926 323.27 57.6113C323.152 57.3301 323.094 57.0254 323.094 56.6973V39.998H327.664V50.8262L336.77 40.6484C337.098 40.3203 337.484 40.1152 337.93 40.0332C338.387 39.9395 338.832 39.9863 339.266 40.1738C339.699 40.3496 340.039 40.6309 340.285 41.0176C340.543 41.3926 340.672 41.8086 340.672 42.2656V53.1289C341.656 52.1797 342.547 51.1777 343.344 50.123C344.141 49.0684 344.879 47.9844 345.559 46.8711C346.25 45.7461 346.895 44.6094 347.492 43.4609C348.102 42.3008 348.693 41.1465 349.268 39.998H354.383Z" fill="#C22032"/>
<g clip-path="url(#clip0_272_10861)">
<path d="M55.4014 51.2483L54.8108 47.2653L54.8147 47.2433L37.1993 21.9759L33.7575 24.3858L51.3651 49.6973L51.369 49.6753L55.4014 51.2483Z" fill="url(#paint0_linear_272_10861)"/>
<path d="M51.2999 54.0632L50.7092 50.0803L50.6872 50.0764L33.0978 24.7908L29.656 27.2008L47.2635 52.5123L51.2999 54.0632Z" fill="url(#paint1_linear_272_10861)"/>
<path d="M47.1109 56.9768L46.5203 52.9938L46.4983 52.9899L28.9088 27.7044L25.445 30.1105L43.0526 55.4219L43.0785 55.4038L47.1109 56.9768Z" fill="url(#paint2_linear_272_10861)"/>
<path d="M50.7561 31.2844L43.2472 6.46071L37.9063 21.8281L55.2653 46.6194C55.3236 46.675 55.4193 46.6466 55.4193 46.6466L76.7016 31.8217L50.7561 31.2844Z" fill="url(#paint3_linear_272_10861)"/>
<path d="M8.8038 30.4424L29.473 46.109L20.9578 70.6024L42.262 55.7814L42.2918 55.7413L24.8978 30.7624L8.8038 30.4424Z" fill="url(#paint4_linear_272_10861)"/>
<path d="M62.9329 71.4481L46.9434 68.606L51.4362 67.697L62.9329 71.4481Z" fill="url(#paint5_linear_272_10861)"/>
<path d="M59.4081 59.8027L53.6322 64.7726L62.9346 71.4486C62.9346 71.4486 59.8275 61.283 59.4081 59.8027Z" fill="#1E417C"/>
</g>
<defs>
<linearGradient id="paint0_linear_272_10861" x1="35.6464" y1="23.3733" x2="54.904" y2="51.123" gradientUnits="userSpaceOnUse">
<stop stop-color="white"/>
<stop offset="0.0571262" stop-color="#FAEDEF"/>
<stop offset="0.1712" stop-color="#EEC0C5"/>
<stop offset="0.3317" stop-color="#D97681"/>
<stop offset="0.5023" stop-color="#C22032"/>
</linearGradient>
<linearGradient id="paint1_linear_272_10861" x1="31.5531" y1="26.2148" x2="50.8107" y2="53.9645" gradientUnits="userSpaceOnUse">
<stop stop-color="white"/>
<stop offset="0.0571262" stop-color="#FAEDEF"/>
<stop offset="0.1712" stop-color="#EEC0C5"/>
<stop offset="0.3317" stop-color="#D97681"/>
<stop offset="0.5023" stop-color="#C22032"/>
</linearGradient>
<linearGradient id="paint2_linear_272_10861" x1="27.3595" y1="29.1247" x2="46.6171" y2="56.8744" gradientUnits="userSpaceOnUse">
<stop stop-color="white"/>
<stop offset="0.0571262" stop-color="#FAEDEF"/>
<stop offset="0.1712" stop-color="#EEC0C5"/>
<stop offset="0.3317" stop-color="#D97681"/>
<stop offset="0.5023" stop-color="#C22032"/>
</linearGradient>
<linearGradient id="paint3_linear_272_10861" x1="35.813" y1="-6.59272" x2="62.4333" y2="34.8019" gradientUnits="userSpaceOnUse">
<stop stop-color="#9EAACB"/>
<stop offset="0.9576" stop-color="#1E417C"/>
</linearGradient>
<linearGradient id="paint4_linear_272_10861" x1="1.11513" y1="15.7202" x2="27.7355" y2="57.1148" gradientUnits="userSpaceOnUse">
<stop stop-color="#9EAACB"/>
<stop offset="0.9576" stop-color="#1E417C"/>
</linearGradient>
<linearGradient id="paint5_linear_272_10861" x1="50.555" y1="68.3811" x2="60.1085" y2="71.976" gradientUnits="userSpaceOnUse">
<stop stop-color="white"/>
<stop offset="1" stop-color="#6A747C"/>
</linearGradient>
<clipPath id="clip0_272_10861">
<rect width="69.3387" height="69.3387" fill="white" transform="translate(13.0391) rotate(10)"/>
</clipPath>
</defs>
</svg>
