<svg width="12" height="8" viewBox="0 0 12 8" fill="none" xmlns="http://www.w3.org/2000/svg">
<path d="M5.95743 0.215988C5.90693 0.149367 5.83935 0.0948958 5.76052 0.0572648C5.68169 0.0196338 5.59397 -2.81334e-05 5.50492 -2.81334e-05C5.41586 -2.81334e-05 5.32814 0.0196338 5.24931 0.0572648C5.17048 0.0948958 5.1029 0.149367 5.0524 0.215988L0.0978546 6.71599C0.0405064 6.79096 0.00687599 6.87877 0.000617027 6.96989C-0.00564194 7.061 0.0157108 7.15193 0.062355 7.23279C0.108999 7.31366 0.179152 7.38136 0.265189 7.42856C0.351227 7.47575 0.449859 7.50063 0.55037 7.50049L10.4595 7.50049C10.5597 7.50011 10.658 7.47491 10.7437 7.42761C10.8294 7.3803 10.8993 7.31267 10.9458 7.23199C10.9923 7.15131 11.0138 7.06064 11.0078 6.96972C11.0019 6.8788 10.9687 6.79108 10.912 6.71599L5.95743 0.215988Z" fill="#C41230"/>
</svg>
