<svg width="22" height="16" viewBox="0 0 22 16" fill="none" xmlns="http://www.w3.org/2000/svg">
<path d="M10.9091 10.908C12.5157 10.908 13.8182 9.60558 13.8182 7.99893C13.8182 6.39229 12.5157 5.08984 10.9091 5.08984C9.30244 5.08984 8 6.39229 8 7.99893C8 9.60558 9.30244 10.908 10.9091 10.908Z" fill="#57CD53"/>
<path d="M21.7742 7.75273C20.9188 5.54011 19.4339 3.62663 17.5028 2.24879C15.5718 0.87095 13.2793 0.089144 10.9088 0C8.53825 0.089144 6.24579 0.87095 4.31475 2.24879C2.3837 3.62663 0.898717 5.54011 0.043327 7.75273C-0.0144423 7.91251 -0.0144423 8.08749 0.043327 8.24727C0.898717 10.4599 2.3837 12.3734 4.31475 13.7512C6.24579 15.1291 8.53825 15.9109 10.9088 16C13.2793 15.9109 15.5718 15.1291 17.5028 13.7512C19.4339 12.3734 20.9188 10.4599 21.7742 8.24727C21.832 8.08749 21.832 7.91251 21.7742 7.75273ZM10.9088 12.7273C9.97382 12.7273 9.05985 12.45 8.28245 11.9306C7.50505 11.4111 6.89915 10.6728 6.54135 9.80905C6.18356 8.94525 6.08994 7.99476 6.27234 7.07775C6.45475 6.16075 6.90497 5.31843 7.56609 4.65731C8.22722 3.99619 9.06954 3.54596 9.98654 3.36356C10.9035 3.18116 11.854 3.27477 12.7178 3.63257C13.5816 3.99037 14.3199 4.59627 14.8394 5.37367C15.3588 6.15106 15.6361 7.06503 15.6361 8C15.6341 9.25316 15.1355 10.4544 14.2493 11.3406C13.3632 12.2267 12.1619 12.7253 10.9088 12.7273Z" fill="#57CD53"/>
</svg>
