<svg width="166" height="76" viewBox="0 0 166 76" fill="none" xmlns="http://www.w3.org/2000/svg">
<path d="M14.0107 64.4789H73.5209V13.4938H14.0107V64.4789Z" fill="white"/>
<path d="M0.224609 75.5586V0.545593H73.5124V15.5482H14.8822V60.5549H73.5124V75.5586H0.224609Z" fill="#004188"/>
<path d="M42.8867 19.9758H45.9573V30.0193C45.9573 31.1625 46.0005 31.4257 46.2145 31.8431C46.559 32.5247 47.2671 32.8979 48.2545 32.8979C49.5654 32.8979 50.402 32.2389 50.5306 31.1183C50.5738 30.7883 50.5738 30.5693 50.5738 29.755V19.9758H53.6233V30.2609C53.6233 31.7115 53.6012 31.9973 53.3873 32.6563C53.0006 33.8654 51.5401 35.536 48.3188 35.536C46.0437 35.536 44.3894 34.8328 43.5306 33.4922C43.0374 32.7005 42.8867 32.0858 42.8867 30.6125V19.9758Z" fill="#004188"/>
<path d="M56.6309 19.9758H59.9586L62.8142 26.0847C63.5655 27.7112 64.1451 29.3161 64.4465 30.4151C64.339 29.2287 64.2315 27.2722 64.2094 26.2174L64.1451 19.9758H67.0018V35.2502H63.8669L61.3105 29.4034C60.4949 27.4922 59.5719 25.3384 59.2926 24.3925C59.4001 25.6458 59.4212 27.448 59.4433 28.7229L59.5286 35.2502H56.6309V19.9758Z" fill="#004188"/>
<path d="M70.3838 35.2501H73.5187V19.9757H70.3838V35.2501Z" fill="#004188"/>
<path d="M75.6982 19.9755H78.9838L81.4527 27.9309C81.5181 28.1951 81.7541 28.9857 81.9259 29.6458C82.0112 30.019 82.0544 30.1721 82.1398 30.5906C82.2262 30.1505 82.2694 30.019 82.3979 29.4916C82.634 28.6783 82.7625 28.3052 82.9996 27.5361L85.5328 19.9755L88.6888 19.9529L83.4928 35.3599H80.7657L75.6982 19.9755Z" fill="#004188"/>
<path d="M90.3184 19.9758H98.8221L98.4353 22.4802H93.3247V26.0189H97.5976V28.5244H93.3679V32.6121H99.0149V35.2502H90.3184V19.9758Z" fill="#004188"/>
<path d="M101.27 19.9529L106.831 19.9755C109.473 19.9755 111.212 21.7778 111.212 24.458C111.212 26.7445 109.73 28.6341 107.884 28.6783C108.184 28.9199 108.313 29.0526 108.506 29.3158C109.365 30.4148 112.093 35.2499 112.093 35.2499H108.55C107.969 34.2382 107.733 33.8208 107.154 32.7445C105.672 29.9974 105.2 29.2715 104.684 29.0084C104.534 28.9415 104.449 28.8983 104.212 28.8757V35.2499H101.27V19.9529ZM104.233 22.4368L104.212 26.5687H105.221C106.51 26.5687 107.067 26.436 107.475 26.0628C107.841 25.7112 108.056 25.1612 108.056 24.5248C108.056 23.58 107.691 22.9415 106.982 22.6568C106.638 22.5241 106.016 22.4368 105.285 22.4368H104.233Z" fill="#004188"/>
<path d="M123.775 21.0527L122.358 23.2507C121.006 22.4149 119.996 22.0859 118.879 22.0859C117.655 22.0859 116.796 22.8107 116.796 23.8439C116.796 24.6356 117.205 25.0303 118.45 25.382L120.253 25.8878C122.701 26.5694 124.032 28.1732 124.032 30.4371C124.032 33.5358 121.585 35.5796 117.871 35.5796C116.173 35.5796 114.284 35.0749 112.781 34.1958L113.898 31.8004C115.293 32.5478 116.496 33.031 117.999 33.031C119.717 33.031 120.619 32.3052 120.619 30.9429C120.619 29.9539 119.996 29.3165 118.664 28.9649L117.011 28.5033C115.529 28.0859 114.606 27.4927 114.069 26.5694C113.661 25.8878 113.447 25.0972 113.447 24.2398C113.447 21.4485 115.637 19.5146 118.794 19.5146C120.619 19.5146 122.465 20.0863 123.775 21.0527Z" fill="#004188"/>
<path d="M126.694 35.2502H129.829V19.9758H126.694V35.2502Z" fill="#004188"/>
<path d="M131.795 19.9758H142.553L142.058 22.5244H138.495V35.2502H135.445V22.5244H131.795V19.9758Z" fill="#004188"/>
<path d="M146.998 19.9312H150.241L154.943 35.2498H151.722L150.671 31.6237H146.29L145.237 35.2498H142.103L146.998 19.9312ZM146.096 16.0193C147.02 16.0193 147.772 16.8099 147.772 17.7773C147.772 18.7448 146.998 19.5354 146.053 19.5354C145.13 19.5354 144.358 18.7448 144.358 17.7773C144.358 16.8099 145.152 16.0193 146.096 16.0193ZM147.02 29.074H149.94C149.94 29.074 149.446 27.4692 149.125 25.9969C148.974 25.2937 148.523 23.2941 148.523 23.2941C148.523 23.2941 148.093 25.0963 147.814 26.2385C147.535 27.3376 147.342 28.0624 147.02 29.074ZM152.302 17.7773C152.302 18.7448 151.529 19.5354 150.584 19.5354C149.64 19.5354 148.888 18.7448 148.888 17.7773C148.888 16.8099 149.661 16.0193 150.627 16.0193C151.55 16.0193 152.302 16.8099 152.302 17.7773Z" fill="#004188"/>
<path d="M155.112 19.9757H165.87L165.376 22.5243H161.812V35.2501H158.762V22.5243H155.112V19.9757Z" fill="#004188"/>
<path d="M42.8486 41.1295H46.0267L47.3144 47.151C47.9382 50.0081 48.1089 52.1846 48.1089 52.1846C48.1732 51.5914 48.4314 49.4149 48.8824 47.3053L50.2132 41.1295H53.4988L54.8729 47.9643C55.1521 49.3933 55.5167 52.0088 55.5167 52.0088C55.5599 51.5246 56.0752 48.2059 56.3334 46.9321L57.5568 41.1295H60.7127L57.1058 56.5355H53.8213L52.4893 50.3155C51.974 47.9427 51.8023 46.0089 51.7812 45.8762C51.7812 45.8762 51.4809 48.0301 51.051 50.2724L49.8276 56.5355H46.4124L42.8486 41.1295Z" fill="#004188"/>
<path d="M62.7725 41.1454H65.8431V51.19C65.8431 52.3321 65.8863 52.5964 66.1012 53.0138C66.4448 53.6943 67.1529 54.0686 68.1413 54.0686C69.4511 54.0686 70.2878 53.4085 70.4163 52.289C70.4595 51.959 70.4595 51.7389 70.4595 50.9257V41.1454H73.5091V51.4305C73.5091 52.8822 73.488 53.168 73.273 53.827C72.8863 55.0361 71.4258 56.7057 68.2045 56.7057C65.9295 56.7057 64.2762 56.0024 63.4174 54.6618C62.9232 53.8702 62.7725 53.2554 62.7725 51.7831V41.1454Z" fill="#004188"/>
<path d="M76.874 41.1068L82.4357 41.1295C85.0764 41.1295 86.815 42.9317 86.815 45.613C86.815 47.8984 85.3335 49.7891 83.4873 49.8323C83.7876 50.0749 83.9172 50.2065 84.1101 50.4697C84.9689 51.5687 87.696 56.4038 87.696 56.4038H84.1533C83.5727 55.3932 83.3377 54.9759 82.7571 53.8984C81.2755 51.1513 80.8034 50.4255 80.2881 50.1623C80.1375 50.0965 80.0521 50.0523 79.815 50.0296V56.4038H76.874V41.1068ZM79.8371 43.5907L79.815 47.7226H80.8245C82.1132 47.7226 82.6717 47.59 83.0795 47.2179C83.4441 46.8652 83.6591 46.3162 83.6591 45.6788C83.6591 44.734 83.2945 44.0965 82.5853 43.8107C82.2418 43.6781 81.619 43.5907 80.8888 43.5907H79.8371Z" fill="#004188"/>
<path d="M90.0581 41.1295H98.9907V43.3492L93.4511 52.9094C93.1287 53.4595 92.6777 53.9858 92.6777 53.9858C92.6777 53.9858 93.5586 53.8984 94.1592 53.8984H99.1835L98.4111 56.4039H89.0918V54.25L94.5892 44.954C94.997 44.2498 95.5123 43.5692 95.5123 43.5692C95.5123 43.5692 94.8895 43.6781 93.9875 43.6781H89.3921L90.0581 41.1295Z" fill="#004188"/>
<path d="M101.868 41.1068H106.915C108.739 41.1068 109.684 41.3926 110.586 42.2059C111.424 42.9533 111.809 43.8323 111.809 44.9313C111.809 45.9646 111.445 46.8436 110.801 47.5026C110.371 47.92 110.114 48.0742 109.427 48.2943C111.424 48.909 112.39 50.1397 112.39 52.1404C112.39 54.25 111.101 56.1838 108.481 56.3596C108.009 56.3812 107.387 56.4038 106.57 56.4038H101.868V41.1068ZM104.831 43.7234V47.2394H106.613C107.322 47.2394 107.644 47.1952 107.902 47.041C108.31 46.821 108.675 46.0735 108.675 45.4588C108.675 44.8213 108.331 44.1839 107.815 43.9207C107.558 43.8107 107.236 43.7234 106.57 43.7234H104.831ZM104.874 49.7665V53.8984H106.828C107.451 53.8984 107.88 53.7884 108.224 53.5468C108.675 53.1952 108.997 52.492 108.997 51.7661C108.997 50.8871 108.546 50.1396 107.902 49.8981C107.536 49.7891 107.429 49.7665 106.743 49.7665H104.874Z" fill="#004188"/>
<path d="M114.725 41.1293H117.795V51.1728C117.795 52.316 117.837 52.5792 118.052 52.9966C118.396 53.6782 119.105 54.0525 120.092 54.0525C121.402 54.0525 122.24 53.3924 122.368 52.2718C122.412 51.9418 122.412 51.7228 122.412 50.9096V41.1293H125.46V51.4144C125.46 52.865 125.439 53.1508 125.224 53.8098C124.837 55.0189 123.378 56.6895 120.157 56.6895C117.881 56.6895 116.227 55.9863 115.368 54.6457C114.874 53.854 114.725 53.2393 114.725 51.766V41.1293Z" fill="#004188"/>
<path d="M128.873 41.1068L134.435 41.1295C137.075 41.1295 138.815 42.9317 138.815 45.613C138.815 47.8984 137.334 49.7891 135.486 49.8323C135.788 50.0749 135.916 50.2065 136.109 50.4697C136.968 51.5687 139.696 56.4038 139.696 56.4038H136.152C135.573 55.3932 135.337 54.9759 134.757 53.8984C133.275 51.1513 132.802 50.4255 132.287 50.1623C132.138 50.0965 132.051 50.0523 131.815 50.0296V56.4038H128.873V41.1068ZM131.836 43.5907L131.815 47.7226H132.824C134.112 47.7226 134.671 47.59 135.079 47.2179C135.444 46.8652 135.658 46.3162 135.658 45.6788C135.658 44.734 135.294 44.0965 134.584 43.8107C134.242 43.6781 133.619 43.5907 132.889 43.5907H131.836Z" fill="#004188"/>
<path d="M152.033 42.6446L150.444 44.5558C149.478 43.7436 148.468 43.3694 147.33 43.3694C146.45 43.3694 145.699 43.6336 145.182 44.1384C144.174 45.1274 143.916 46.7765 143.916 49.0619C143.916 51.2374 144.281 52.6449 145.033 53.4139C145.59 53.9628 146.407 54.2702 147.373 54.2702C148.039 54.2702 148.575 54.1613 149.07 53.8971V50.4241H146.794L146.407 47.9187H152.184V55.2161C150.659 56.1394 148.983 56.5783 147.222 56.5783C144.99 56.5783 143.336 55.8309 142.134 54.2487C141.039 52.8207 140.545 51.1942 140.545 48.9077C140.545 45.6774 141.575 43.392 143.659 41.9629C144.754 41.2155 145.871 40.8865 147.288 40.8865C149.091 40.8865 150.723 41.4797 152.033 42.6446Z" fill="#004188"/>
<path d="M65.8424 36.5372C66.7633 36.5372 67.5146 37.2879 67.5146 38.2111C67.5146 39.1527 66.7633 39.9217 65.8613 39.9217C64.9404 39.9217 64.208 39.1527 64.208 38.2111C64.208 37.2879 64.9404 36.5372 65.8424 36.5372Z" fill="#004188"/>
<path d="M70.4801 36.5372C71.4 36.5372 72.1513 37.2879 72.1513 38.2111C72.1513 39.1527 71.4 39.9217 70.498 39.9217C69.5781 39.9217 68.8457 39.1527 68.8457 38.2111C68.8457 37.2879 69.5781 36.5372 70.4801 36.5372Z" fill="#004188"/>
<path d="M78.15 3.81848H79.0825V10.4461C79.0825 10.7492 79.0709 11.0868 79.0604 11.2971C79.0372 11.6811 78.9455 11.996 78.798 12.2754C78.5483 12.7294 78.0804 13.0907 77.4777 13.3L77.0225 12.7057C77.444 12.531 77.797 12.2398 77.9561 11.9259C78.1036 11.6574 78.15 11.2853 78.15 10.4699V3.81848Z" fill="#004188"/>
<path d="M80.6416 6.05541L81.5173 5.88068V10.0503C81.5173 10.6209 81.5858 10.8312 81.8471 11.0059C82.0294 11.1332 82.3023 11.227 82.5531 11.227C83.1105 11.227 83.6911 10.8075 83.9978 10.1787V6.06726L84.8745 5.91518V10.0266C84.8745 10.691 84.8977 10.8884 85.0115 11.1105C85.0684 11.2378 85.1126 11.2971 85.2612 11.4363L84.6922 12.0543C84.3171 11.7393 84.1579 11.5064 84.0779 11.1224C83.6448 11.7156 83.0536 12.0068 82.2802 12.0068C81.5626 12.0068 81.0051 11.7048 80.7891 11.1807C80.6869 10.9585 80.6416 10.6565 80.6416 10.3178V6.05541Z" fill="#004188"/>
<path d="M86.5801 3.52791L87.5021 3.34131C87.6496 3.78351 87.638 4.43604 87.638 5.13494V10.6442C87.638 11.0982 87.7065 11.2266 87.9573 11.2266C87.991 11.2266 88.0711 11.2028 88.0711 11.2028L88.2524 11.7971C88.0258 11.9017 87.9225 11.9255 87.6844 11.9255C87.3988 11.9255 87.1828 11.8435 87.0121 11.6806C86.8077 11.4941 86.7392 11.2729 86.7392 10.8534V5.13494C86.7392 4.26131 86.7171 3.93452 86.5801 3.52791Z" fill="#004188"/>
<path d="M90.0167 3.50507C90.4034 3.50507 90.7111 3.81892 90.7111 4.21474C90.7111 4.61165 90.4034 4.92659 90.0167 4.92659C89.63 4.92659 89.3223 4.61165 89.3223 4.22662C89.3223 3.83079 89.63 3.50507 90.0167 3.50507ZM89.5383 6.0321L90.4835 5.8811V11.8099H89.5383V6.0321Z" fill="#004188"/>
<path d="M92.4043 6.05541L93.28 5.88068V10.0503C93.28 10.6209 93.3485 10.8312 93.6108 11.0059C93.7921 11.1332 94.065 11.227 94.3158 11.227C94.8743 11.227 95.4538 10.8075 95.7615 10.1787V6.06726L96.6372 5.91518V10.0266C96.6372 10.691 96.6604 10.8884 96.7742 11.1105C96.8311 11.2378 96.8764 11.2971 97.0239 11.4363L96.4549 12.0543C96.0798 11.7393 95.9206 11.5064 95.8406 11.1224C95.4085 11.7156 94.8163 12.0068 94.0429 12.0068C93.3253 12.0068 92.7678 11.7048 92.5518 11.1807C92.4496 10.9585 92.4043 10.6565 92.4043 10.3178V6.05541Z" fill="#004188"/>
<path d="M101.826 6.24219L101.496 6.91735C100.995 6.67359 100.574 6.49888 100.074 6.49888C99.4248 6.49888 99.0033 6.88284 99.0033 7.45339C99.0033 7.66263 99.0602 7.83734 99.1634 7.96569C99.2878 8.12855 99.4817 8.2224 99.8231 8.29142L100.574 8.45428C101.599 8.68832 102.088 9.21143 102.088 10.0743C102.088 11.2035 101.222 11.9725 99.9485 11.9725C99.2309 11.9725 98.4458 11.7514 97.8652 11.3901L98.2066 10.7149C98.7873 11.0752 99.3795 11.2628 100.005 11.2628C100.699 11.2628 101.155 10.8778 101.155 10.2598C101.155 9.73559 100.869 9.44547 100.221 9.30525L99.5154 9.15319C99.0033 9.0367 98.7082 8.87492 98.4458 8.57185C98.2066 8.29143 98.0823 7.94198 98.0823 7.55802C98.0823 6.50966 98.9127 5.77625 100.096 5.77625C100.688 5.77625 101.348 5.96284 101.826 6.24219Z" fill="#004188"/>
<path d="M103.262 9.1441H105.436V8.25861H103.262V9.1441Z" fill="#004188"/>
<path d="M107.484 3.8186H108.848L110.271 9.0366C110.419 9.59637 110.476 9.81748 110.578 10.4344C110.704 9.75924 110.761 9.53813 110.863 9.13044L112.331 3.8186H113.708L114.379 11.8096H113.446L112.99 5.95089C112.957 5.43858 112.934 4.5876 112.934 4.5876C112.855 4.98343 112.719 5.53132 112.627 5.84518L110.955 11.8096H110.157L108.61 6.13748C108.45 5.53133 108.337 5.13551 108.223 4.57574C108.223 4.57574 108.166 5.63594 108.132 6.1256L107.7 11.8096H106.801L107.484 3.8186Z" fill="#004188"/>
<path d="M115.344 6.63658C116.095 6.12427 116.904 5.85571 117.722 5.85571C118.507 5.85571 119.054 6.17064 119.293 6.76492C119.396 7.02054 119.418 7.219 119.418 7.75504V8.04625L119.373 9.95634C119.362 10.0383 119.362 10.1311 119.362 10.2238C119.362 10.9346 119.464 11.1902 119.828 11.3768L119.373 12.0293C118.986 11.901 118.701 11.586 118.599 11.1794C118.053 11.7381 117.609 11.9592 116.959 11.9592C116.243 11.9592 115.891 11.7726 115.595 11.4933C115.276 11.1902 115.14 10.6779 115.14 10.3058C115.14 8.98997 116.243 8.22096 118.144 8.22096C118.281 8.22096 118.348 8.22097 118.542 8.23175V7.82406C118.542 7.31175 118.519 7.10251 118.36 6.91592C118.178 6.70668 117.95 6.60099 117.598 6.60099C117.267 6.60099 116.926 6.67217 116.505 6.85769C116.164 6.99789 116.05 7.07879 115.788 7.28911L115.344 6.63658ZM118.519 8.86163C118.325 8.84977 118.234 8.8379 118.075 8.8379C117.21 8.8379 116.733 9.00076 116.448 9.30383C116.232 9.53679 116.129 9.828 116.129 10.2238C116.129 10.9119 116.46 11.284 117.108 11.284C117.689 11.284 118.223 10.9227 118.485 10.3748L118.519 8.86163Z" fill="#004188"/>
<path d="M120.683 6.0329H121.775L122.89 7.94301L123.971 6.0329H125.007L123.334 8.59552L125.508 11.8107H124.427L122.89 9.34187L121.354 11.8107H120.308L122.425 8.59552L120.683 6.0329Z" fill="#004188"/>
<path d="M126.839 3.50507C127.225 3.50507 127.532 3.81892 127.532 4.21474C127.532 4.61165 127.225 4.92659 126.839 4.92659C126.451 4.92659 126.144 4.61165 126.144 4.22662C126.144 3.83079 126.451 3.50507 126.839 3.50507ZM126.361 6.0321L127.305 5.8811V11.8099H126.361V6.0321Z" fill="#004188"/>
<path d="M129.011 6.07682L129.876 5.86757C129.99 6.10054 130.08 6.43813 130.08 6.68296V6.72933C130.343 6.44999 130.455 6.36803 130.775 6.17065C131.138 5.94955 131.423 5.85571 131.73 5.85571C132.174 5.85571 132.606 6.08868 132.857 6.43814C132.937 6.55462 132.982 6.62472 133.051 6.82317C133.597 6.22889 134.291 5.85571 134.872 5.85571C135.714 5.85571 136.294 6.50824 136.294 7.42932V11.8082H135.384V7.52207C135.384 6.9623 135.133 6.67217 134.655 6.67217C134.382 6.67217 134.087 6.78757 133.824 6.98603C133.654 7.11437 133.46 7.27724 133.255 7.47461L133.153 7.56845V11.8082H132.254V7.68493C132.254 7.1834 132.243 7.10251 132.094 6.93965C131.958 6.77571 131.776 6.70669 131.513 6.70669C131.081 6.70669 130.661 6.92779 130.069 7.47461V11.8082H129.215V7.48647C129.215 6.68295 129.193 6.55462 129.011 6.07682Z" fill="#004188"/>
<path d="M138.606 3.50525C138.992 3.50525 139.299 3.8191 139.299 4.21493C139.299 4.61183 138.992 4.92677 138.606 4.92677C138.218 4.92677 137.911 4.61184 137.911 4.2268C137.911 3.83097 138.218 3.50525 138.606 3.50525ZM138.127 6.03228L139.071 5.88129V11.8101H138.127V6.03228Z" fill="#004188"/>
<path d="M140.835 3.52791L141.757 3.34131C141.905 3.78351 141.893 4.43604 141.893 5.13494V10.6442C141.893 11.0982 141.961 11.2266 142.212 11.2266C142.246 11.2266 142.326 11.2028 142.326 11.2028L142.507 11.7971C142.281 11.9017 142.177 11.9255 141.939 11.9255C141.655 11.9255 141.438 11.8435 141.267 11.6806C141.063 11.4941 140.994 11.2729 140.994 10.8534V5.13494C140.994 4.26131 140.972 3.93452 140.835 3.52791Z" fill="#004188"/>
<path d="M144.273 3.50507C144.659 3.50507 144.967 3.81892 144.967 4.21474C144.967 4.61165 144.659 4.92659 144.273 4.92659C143.886 4.92659 143.578 4.61165 143.578 4.22662C143.578 3.83079 143.886 3.50507 144.273 3.50507ZM143.794 6.0321L144.739 5.8811V11.8099H143.794V6.0321Z" fill="#004188"/>
<path d="M146.39 6.63658C147.141 6.12427 147.95 5.85571 148.768 5.85571C149.553 5.85571 150.1 6.17064 150.339 6.76492C150.442 7.02054 150.464 7.219 150.464 7.75504V8.04625L150.418 9.95634C150.407 10.0383 150.407 10.1311 150.407 10.2238C150.407 10.9346 150.51 11.1902 150.874 11.3768L150.418 12.0293C150.032 11.901 149.747 11.586 149.645 11.1794C149.098 11.7381 148.654 11.9592 148.006 11.9592C147.29 11.9592 146.937 11.7726 146.641 11.4933C146.321 11.1902 146.186 10.6779 146.186 10.3058C146.186 8.98997 147.29 8.22096 149.19 8.22096C149.326 8.22096 149.394 8.22097 149.588 8.23175V7.82406C149.588 7.31175 149.565 7.10251 149.406 6.91592C149.223 6.70668 148.996 6.60099 148.643 6.60099C148.313 6.60099 147.972 6.67217 147.551 6.85769C147.21 6.99789 147.096 7.07879 146.834 7.28911L146.39 6.63658ZM149.565 8.86163C149.371 8.84977 149.28 8.8379 149.121 8.8379C148.256 8.8379 147.779 9.00076 147.494 9.30383C147.278 9.53679 147.175 9.828 147.175 10.2238C147.175 10.9119 147.505 11.284 148.154 11.284C148.735 11.284 149.269 10.9227 149.531 10.3748L149.565 8.86163Z" fill="#004188"/>
<path d="M152.147 6.11416L153.012 5.86932C153.16 6.19505 153.217 6.43988 153.217 6.77746C153.808 6.1724 154.4 5.8812 155.003 5.8812C155.617 5.8812 156.163 6.21878 156.391 6.73109C156.483 6.94141 156.528 7.17437 156.528 7.40733V11.81H155.629V7.88406C155.629 7.26713 155.595 7.10426 155.425 6.91767C155.299 6.76667 155.06 6.67392 154.798 6.67392C154.343 6.67392 153.637 7.04602 153.229 7.48822V11.81H152.363V7.48822C152.363 6.68471 152.34 6.55637 152.147 6.11416Z" fill="#004188"/>
<path d="M161.772 6.24219L161.443 6.91735C160.941 6.67359 160.521 6.49888 160.019 6.49888C159.371 6.49888 158.949 6.88284 158.949 7.45339C158.949 7.66263 159.007 7.83734 159.109 7.96569C159.235 8.12855 159.428 8.2224 159.769 8.29142L160.521 8.45428C161.545 8.68832 162.034 9.21143 162.034 10.0743C162.034 11.2035 161.17 11.9725 159.895 11.9725C159.178 11.9725 158.392 11.7514 157.812 11.3901L158.154 10.7149C158.733 11.0752 159.326 11.2628 159.952 11.2628C160.646 11.2628 161.101 10.8778 161.101 10.2598C161.101 9.73559 160.817 9.44547 160.168 9.30525L159.462 9.15319C158.949 9.0367 158.654 8.87492 158.392 8.57185C158.154 8.29143 158.027 7.94198 158.027 7.55802C158.027 6.50966 158.859 5.77625 160.042 5.77625C160.634 5.77625 161.294 5.96284 161.772 6.24219Z" fill="#004188"/>
<path d="M163.453 9.1441H165.626V8.25861H163.453V9.1441Z" fill="#004188"/>
</svg>
