<svg width="205" height="62" viewBox="0 0 205 62" fill="none" xmlns="http://www.w3.org/2000/svg">
<path fill-rule="evenodd" clip-rule="evenodd" d="M181.123 19.8519V22.7467H183.894V19.8519H181.123Z" fill="#00305E"/>
<path fill-rule="evenodd" clip-rule="evenodd" d="M188.684 19.8519V22.7467H191.454V19.8519H188.684Z" fill="#00305E"/>
<path fill-rule="evenodd" clip-rule="evenodd" d="M146.146 39.3461L142.567 32.1968C144.125 31.6668 145.453 30.189 145.453 27.885C145.453 25.1674 143.548 22.8633 140.258 22.8633H133.967V39.3461H137.084V32.7293H139.335L142.51 39.3461H146.146ZM142.336 27.885C142.336 29.1847 141.413 30.0708 140.084 30.0708H137.084V25.6991H140.085C141.413 25.6991 142.336 26.6443 142.336 27.885Z" fill="#00305E"/>
<path fill-rule="evenodd" clip-rule="evenodd" d="M193.359 39.3461L187.472 22.8633H185.048L179.16 39.3461H182.45L183.431 36.3922H189.146L190.069 39.3461H193.359ZM188.28 33.6746H184.297L186.317 27.7077L188.28 33.6746Z" fill="#00305E"/>
<path fill-rule="evenodd" clip-rule="evenodd" d="M80.1723 33.6746V22.8633H77.0554V33.5556C77.0554 35.4469 75.9011 36.5686 74.2272 36.5686C72.5533 36.5686 71.4567 35.4469 71.4567 33.5556V22.8633H68.3398V33.6746C68.3398 37.1602 70.9372 39.465 74.2272 39.465C77.5172 39.465 80.1723 37.1602 80.1723 33.6746Z" fill="#00305E"/>
<path fill-rule="evenodd" clip-rule="evenodd" d="M96.1605 39.3462V22.8635H92.9859V32.9068L86.6368 22.8635H83.8086V39.3462H86.9831V29.1849L93.3323 39.3462H96.1605Z" fill="#00305E"/>
<path fill-rule="evenodd" clip-rule="evenodd" d="M103.087 39.3462V22.8635H99.9121V39.3462H103.087Z" fill="#00305E"/>
<path fill-rule="evenodd" clip-rule="evenodd" d="M118.153 22.8635H114.863L111.631 33.5558L108.398 22.8635H105.166L110.476 39.3462H112.785L118.153 22.8635Z" fill="#00305E"/>
<path fill-rule="evenodd" clip-rule="evenodd" d="M130.793 39.2872V36.4522H123.347V32.4341H129.696V29.5984H123.347V25.6993H130.793V22.8635H120.23V39.2872H130.793Z" fill="#00305E"/>
<path fill-rule="evenodd" clip-rule="evenodd" d="M159.247 34.4429C159.247 33.0259 158.843 31.7844 157.977 30.9574C157.342 30.3075 156.419 29.894 154.918 29.7167L153.013 29.4213C152.378 29.3032 151.86 29.0669 151.512 28.7715C151.225 28.4761 151.052 28.0035 151.052 27.5899C151.052 26.4674 151.86 25.5222 153.533 25.5222C154.63 25.5222 155.842 25.6404 156.823 26.6447L158.844 24.636C157.458 23.2772 155.843 22.6865 153.65 22.6865C150.187 22.6865 148.052 24.7542 148.052 27.7081C148.052 29.0669 148.398 30.1303 149.205 30.9574C149.898 31.6671 150.937 32.0807 152.323 32.3161L154.228 32.6107C154.978 32.7297 155.381 32.8478 155.671 33.1424C156.017 33.4969 156.189 33.9695 156.189 34.5611C156.189 35.8608 155.15 36.5689 153.303 36.5689C151.86 36.5689 150.475 36.2145 149.436 35.2118L147.416 37.2795C148.974 38.9337 150.821 39.4654 153.303 39.4654C156.649 39.4654 159.247 37.634 159.247 34.4429Z" fill="#00305E"/>
<path fill-rule="evenodd" clip-rule="evenodd" d="M165.422 39.3462V22.8635H162.305V39.3462H165.422Z" fill="#00305E"/>
<path fill-rule="evenodd" clip-rule="evenodd" d="M179.681 25.6993V22.8635H168.137V25.6993H172.35V39.2872H175.467V25.6993H179.681Z" fill="#00305E"/>
<path fill-rule="evenodd" clip-rule="evenodd" d="M204.442 25.6993V22.8635H192.898V25.6993H197.112V39.3462H200.229V25.6993H204.442Z" fill="#00305E"/>
<path fill-rule="evenodd" clip-rule="evenodd" d="M79.9991 52.9341C79.9991 50.452 80.23 48.2079 78.383 46.3764C77.344 45.2531 75.8433 44.7805 74.1695 44.7805H68.3398V61.2649H74.1695C75.8433 61.2649 77.344 60.7923 78.383 59.669C80.23 57.8367 79.9991 55.4153 79.9991 52.9341ZM76.8823 52.9341C76.8823 55.4744 76.7668 56.6552 76.1896 57.3649C75.6702 58.0139 74.9198 58.3684 73.8809 58.3684H71.5144V47.6762H73.8809C74.9198 47.6762 75.6702 48.0306 76.1896 48.6813C76.7668 49.3894 76.8823 50.452 76.8823 52.9341Z" fill="#00305E"/>
<path fill-rule="evenodd" clip-rule="evenodd" d="M95.5244 61.2649L91.9459 54.1747C93.5043 53.5831 94.8895 52.1652 94.8895 49.862C94.8895 47.0846 92.9271 44.7805 89.6371 44.7805H83.3457V61.2649H86.4625V54.7072H88.7713L91.8881 61.2649H95.5244ZM91.715 49.862C91.715 51.1027 90.8492 51.9888 89.4639 51.9888H86.4625V47.6762H89.4639C90.8492 47.6762 91.715 48.5623 91.715 49.862Z" fill="#00305E"/>
<path fill-rule="evenodd" clip-rule="evenodd" d="M108.859 61.2649V58.3684H101.355V54.4102H107.704V51.5162H101.355V47.6762H108.859V44.7805H98.2383V61.2649H108.859Z" fill="#00305E"/>
<path fill-rule="evenodd" clip-rule="evenodd" d="M122.421 56.4202C122.421 54.9425 122.017 53.7617 121.152 52.9346C120.459 52.2839 119.535 51.8704 118.093 51.6349L116.188 51.3387C115.553 51.2813 115.033 50.9842 114.687 50.6897C114.341 50.3951 114.225 49.9217 114.225 49.5089C114.225 48.3856 115.033 47.4404 116.707 47.4404C117.747 47.4404 119.017 47.6184 119.997 48.5637L122.017 46.5542C120.632 45.1971 119.017 44.6646 116.824 44.6646C113.302 44.6646 111.225 46.7323 111.225 49.6263C111.225 51.045 111.572 52.1084 112.321 52.8764C113.073 53.5845 114.111 54.0571 115.496 54.2352L117.401 54.5297C118.152 54.6487 118.497 54.8243 118.844 55.1213C119.191 55.4159 119.305 55.8893 119.305 56.4801C119.305 57.8373 118.324 58.5478 116.478 58.5478C114.977 58.5478 113.591 58.1934 112.611 57.1292L110.59 59.1969C112.148 60.8511 113.995 61.3828 116.419 61.3828C119.824 61.3819 122.421 59.6096 122.421 56.4202Z" fill="#00305E"/>
<path fill-rule="evenodd" clip-rule="evenodd" d="M137.14 52.9341C137.14 50.452 137.313 48.2079 135.524 46.3764C134.485 45.2531 132.926 44.7805 131.252 44.7805H125.48V61.2649H131.252C132.926 61.2649 134.485 60.7923 135.524 59.669C137.313 57.8367 137.14 55.4153 137.14 52.9341ZM134.023 52.9341C134.023 55.4744 133.907 56.6552 133.33 57.3649C132.812 58.0139 132.06 58.3684 130.964 58.3684H128.597V47.6762H130.964C132.06 47.6762 132.812 48.0306 133.33 48.6813C133.907 49.3894 134.023 50.452 134.023 52.9341Z" fill="#00305E"/>
<path fill-rule="evenodd" clip-rule="evenodd" d="M151.051 61.2649V58.3684H143.605V54.4102H149.954V51.5162H143.605V47.6762H151.051V44.7805H140.488V61.2649H151.051Z" fill="#00305E"/>
<path fill-rule="evenodd" clip-rule="evenodd" d="M166.578 61.2649V44.7805H163.404V54.8828L157.055 44.7805H154.227V61.2649H157.401V51.1617L163.75 61.2649H166.578Z" fill="#00305E"/>
<path fill-rule="evenodd" clip-rule="evenodd" d="M79.8837 3.723V0.887268H68.3398V3.723H72.5533V17.3109H75.6702V3.723H79.8837Z" fill="#00305E"/>
<path fill-rule="evenodd" clip-rule="evenodd" d="M93.3899 17.3109V14.4752H85.8864V10.4579H92.2355V7.62214H85.8864V3.723H93.3899V0.887268H82.7695V17.3109H93.3899Z" fill="#00305E"/>
<path fill-rule="evenodd" clip-rule="evenodd" d="M107.992 12.2896H104.817C104.471 13.5893 103.664 14.5936 102.105 14.5936C101.239 14.5936 100.546 14.2982 100.085 13.7665C99.4496 13.0576 99.2764 12.2896 99.2764 9.09938C99.2764 5.90918 99.4496 5.14116 100.085 4.43223C100.546 3.90053 101.239 3.60514 102.105 3.60514C103.663 3.60514 104.471 4.60946 104.817 5.90918H107.992C107.416 2.48266 105.049 0.710327 102.048 0.710327C100.316 0.710327 98.8732 1.36018 97.7188 2.54174C96.1027 4.19592 96.1604 6.26364 96.1604 9.09938C96.1604 11.9351 96.1027 14.0028 97.7188 15.657C98.8732 16.8386 100.316 17.4884 102.048 17.4884C105.049 17.4884 107.416 15.7161 107.992 12.2896Z" fill="#00305E"/>
<path fill-rule="evenodd" clip-rule="evenodd" d="M122.654 17.3111V0.887451H119.538V7.62232H114.054V0.887451H110.938V17.3111H114.054V10.4581H119.538V17.3111H122.654Z" fill="#00305E"/>
<path fill-rule="evenodd" clip-rule="evenodd" d="M138.987 17.3111V0.887451H135.871V10.9307L129.464 0.887451H126.693V17.3111H129.81V7.20878L136.216 17.3111H138.987Z" fill="#00305E"/>
<path fill-rule="evenodd" clip-rule="evenodd" d="M146.144 17.3111V0.887451H143.027V17.3111H146.144Z" fill="#00305E"/>
<path fill-rule="evenodd" clip-rule="evenodd" d="M160.573 12.4668C160.573 11.0489 160.169 9.80831 159.304 8.98122C158.669 8.33137 157.745 7.91782 156.245 7.74059L154.34 7.4452C153.705 7.32704 153.185 7.09073 152.839 6.79534C152.551 6.44088 152.377 6.02733 152.377 5.61461C152.377 4.49213 153.185 3.54688 154.86 3.54688C155.956 3.54688 157.169 3.66504 158.15 4.66936L160.171 2.66072C158.784 1.30111 157.168 0.710327 154.975 0.710327C151.512 0.710327 149.376 2.77805 149.376 5.73194C149.376 7.09073 149.723 8.15413 150.53 8.98122C151.223 9.69016 152.262 10.1037 153.647 10.34L155.552 10.6354C156.303 10.7536 156.706 10.8717 156.996 11.1671C157.342 11.5216 157.514 11.9942 157.514 12.585C157.514 13.8847 156.475 14.5936 154.628 14.5936C153.185 14.5936 151.8 14.2391 150.761 13.2348L148.74 15.3026C150.299 16.9567 152.146 17.4884 154.628 17.4884C157.976 17.4884 160.573 15.657 160.573 12.4668Z" fill="#00305E"/>
<path fill-rule="evenodd" clip-rule="evenodd" d="M175.12 12.2896H171.945C171.657 13.5893 170.792 14.5936 169.232 14.5936C168.367 14.5936 167.674 14.2982 167.211 13.7665C166.634 13.0576 166.461 12.2896 166.461 9.09938C166.461 5.90918 166.634 5.14116 167.211 4.43223C167.673 3.90053 168.366 3.60514 169.232 3.60514C170.791 3.60514 171.657 4.60946 171.945 5.90918H175.12C174.543 2.48266 172.234 0.710327 169.232 0.710327C167.443 0.710327 166 1.36018 164.846 2.54174C163.229 4.19592 163.287 6.26364 163.287 9.09938C163.287 11.9351 163.23 14.0028 164.846 15.657C165.999 16.8386 167.442 17.4884 169.232 17.4884C172.176 17.4884 174.543 15.7161 175.12 12.2896Z" fill="#00305E"/>
<path fill-rule="evenodd" clip-rule="evenodd" d="M189.781 17.3111V0.887451H186.665V7.62232H181.239V0.887451H178.064V17.3111H181.239V10.4581H186.665V17.3111H189.781Z" fill="#00305E"/>
<path fill-rule="evenodd" clip-rule="evenodd" d="M204.499 17.3111V14.4753H196.996V10.4581H203.345V7.62232H196.996V3.72319H204.499V0.887451H193.879V17.3111H204.499Z" fill="#00305E"/>
<path fill-rule="evenodd" clip-rule="evenodd" d="M3.57859 24.6958H19.6822V43.8969H39.3644V24.6958H55.4104V41.533L39.7108 57.6022H19.2782L3.57859 41.533V24.6958ZM53.6788 26.5272H41.1537V45.7267H17.8929V26.5272H5.36788V40.8249L20.0285 55.7707H39.0181L53.6211 40.8249L53.6788 26.5272ZM53.3325 21.033L39.0181 6.38169H20.0285L5.71419 21.033H23.2608V40.2333H35.7859V21.033H53.3325ZM55.4104 22.8644H37.5752V42.0647H21.4715V22.8644H3.57859V20.6194L19.2782 4.55028H39.7108L55.4104 20.6194V22.8644ZM0 19.2016V42.9509L17.8929 61.265H41.1537L58.989 42.9509V19.2016L41.1537 0.887451H17.8929L0 19.2016ZM1.78929 19.9105V42.2411L18.5856 59.4336H40.4034L57.1997 42.2411V19.9105L40.4034 2.71886H18.5856L1.78929 19.9105Z" fill="#00305E"/>
</svg>
