<svg width="164" height="92" viewBox="0 0 164 92" fill="none" xmlns="http://www.w3.org/2000/svg">
<path d="M35.2716 90.6246C34.4859 89.4945 31.0676 84.7643 30.928 84.6139C30.8423 84.5217 30.8311 84.8338 30.8437 86.9543C30.8607 89.8291 30.8965 90.4781 31.0431 90.573C31.1003 90.6099 31.3886 90.723 31.684 90.8244C32.1162 90.9727 32.221 91.0365 32.221 91.1513C32.221 91.2827 32.1923 91.2899 31.8572 91.2423C31.3879 91.1757 29.6603 91.1758 29.1895 91.2423C28.8544 91.2898 28.8257 91.2826 28.8257 91.151C28.8257 91.0371 28.9481 90.9595 29.4299 90.7682C29.9925 90.5447 30.0382 90.5113 30.093 90.2838C30.1253 90.1493 30.1689 88.6191 30.1898 86.8833C30.2336 83.2383 30.3139 83.6179 29.432 83.2997C29.061 83.1659 28.895 83.0704 28.895 82.991C28.895 82.8892 29.0328 82.877 30.1069 82.8837L31.3188 82.8912L31.6544 83.4156C31.839 83.704 32.826 85.0889 33.8478 86.4932L35.7056 89.0465L35.6712 86.4789C35.642 84.3005 35.6202 83.8856 35.5274 83.7406C35.4596 83.6347 35.2054 83.4821 34.8589 83.3391C34.479 83.1823 34.2998 83.0712 34.2998 82.9923C34.2998 82.8878 34.4713 82.8761 35.9975 82.8761C37.6491 82.8761 37.6951 82.8799 37.6949 83.018C37.6947 83.131 37.5786 83.2031 37.1239 83.3731C36.6942 83.5337 36.5336 83.6301 36.4739 83.7632C36.3615 84.0139 36.2337 88.3681 36.2872 90.128L36.3308 91.5642H36.1278C35.9465 91.5642 35.8553 91.4641 35.2716 90.6245V90.6246ZM161.379 90.8984C161.133 90.5321 159.996 88.9437 158.853 87.3687L156.774 84.505L156.752 85.9602C156.719 88.1413 156.802 90.4128 156.92 90.5326C156.972 90.5862 157.265 90.7151 157.57 90.8193C158.019 90.9723 158.126 91.0359 158.126 91.1513C158.126 91.2827 158.097 91.2899 157.762 91.2419C157.294 91.1749 155.566 91.1752 155.094 91.2426C154.759 91.2903 154.73 91.2831 154.73 91.1511C154.73 91.0366 154.848 90.9623 155.322 90.7792C155.648 90.6535 155.944 90.4947 155.979 90.4265C156.041 90.3088 156.183 86.2507 156.185 84.5744C156.186 83.6224 156.162 83.5856 155.361 83.3001C154.978 83.164 154.799 83.0646 154.799 82.9884C154.799 82.8905 154.952 82.8775 156.026 82.8841L157.253 82.8917L157.501 83.3097C157.718 83.6741 161.353 88.7162 161.535 88.905C161.58 88.9517 161.595 88.0991 161.578 86.4104C161.548 83.4382 161.617 83.6959 160.754 83.3311C160.397 83.1806 160.204 83.0599 160.204 82.9878C160.204 82.8898 160.407 82.8766 161.902 82.8766C163.574 82.8766 163.6 82.8788 163.6 83.0239C163.6 83.1442 163.499 83.2072 163.048 83.3676C162.745 83.4757 162.459 83.6107 162.413 83.6675C162.295 83.8128 162.224 85.7429 162.218 88.9228L162.214 91.5647H162.02C161.853 91.5647 161.763 91.4721 161.379 90.8987L161.379 90.8984ZM63.3344 91.2757C62.4726 91.0448 61.9351 90.5982 61.5858 89.8228C61.4319 89.4812 61.4269 89.3991 61.3932 86.6675C61.3632 84.2382 61.3435 83.8395 61.2461 83.6887C61.1739 83.5771 60.9439 83.4412 60.6051 83.3101C60.2468 83.1715 60.0766 83.0687 60.0766 82.991C60.0766 82.888 60.2757 82.8762 62.0168 82.8762C63.7578 82.8762 63.957 82.888 63.957 82.9909C63.957 83.0698 63.7721 83.177 63.3656 83.3341C63.012 83.4707 62.7348 83.6242 62.6763 83.7159C62.5442 83.9227 62.4561 87.5419 62.559 88.5288C62.7127 90.0015 63.2395 90.5469 64.5845 90.6257C65.6683 90.6892 66.3718 90.3177 66.7382 89.4882C66.9011 89.1193 66.9019 89.1047 66.8993 86.4579C66.8974 84.5083 66.8742 83.7568 66.8125 83.643C66.7543 83.5356 66.5468 83.4272 66.1395 83.2915C65.7377 83.1576 65.5507 83.0605 65.5507 82.9857C65.5507 82.8901 65.7573 82.8762 67.1791 82.8762C68.6373 82.8762 68.8075 82.8883 68.8075 82.9917C68.8075 83.0677 68.6671 83.1609 68.3964 83.2645C67.6919 83.5342 67.739 83.3277 67.6949 86.341C67.6589 88.7942 67.6459 89.0076 67.506 89.4397C67.2527 90.2214 66.8213 90.7658 66.1951 91.0936C65.544 91.4346 64.2375 91.5177 63.3344 91.2757ZM0.277177 91.149C0.277177 91.0349 0.399021 90.9671 0.929476 90.7862C1.29091 90.663 1.59988 90.5155 1.6224 90.4554C1.64475 90.3958 1.66303 88.8557 1.66303 87.033C1.66303 84.4893 1.6429 83.6927 1.57641 83.606C1.52877 83.5439 1.21696 83.4035 0.883487 83.2941C0.466997 83.1575 0.277177 83.0609 0.277177 82.9857C0.277177 82.8886 0.638974 82.8762 3.48196 82.8762H6.68674L6.68685 83.925C6.68696 84.9188 6.68001 84.9727 6.55401 84.9534C6.45364 84.938 6.37554 84.7879 6.23545 84.3411C6.13337 84.0156 6.00607 83.7208 5.95254 83.6862C5.89902 83.6515 5.19724 83.6226 4.39303 83.622L2.93084 83.6209L2.88634 84.2061C2.86186 84.5279 2.84164 85.1852 2.84142 85.6666L2.841 86.5421L4.15517 86.5177C5.21186 86.4981 5.48828 86.4725 5.566 86.387C5.61915 86.3285 5.73513 86.0651 5.82372 85.8018C5.94305 85.4472 6.0174 85.3231 6.11057 85.3231C6.22827 85.3231 6.23633 85.4236 6.23633 86.8886C6.23633 88.3194 6.22627 88.4522 6.1194 88.4311C6.04306 88.4161 5.93226 88.2071 5.80032 87.8294C5.6483 87.3942 5.56132 87.2406 5.44953 87.2099C5.36778 87.1874 4.74741 87.1686 4.07094 87.1681L2.841 87.1671L2.84791 88.6742C2.85171 89.5031 2.87616 90.2611 2.90225 90.3587C2.94152 90.5055 3.05299 90.5727 3.55113 90.7497C4.63622 91.1354 4.56737 91.3029 3.35977 91.2151C2.54264 91.1557 1.66637 91.1667 0.744902 91.248C0.311518 91.2862 0.277177 91.2789 0.277177 91.149ZM9.00804 91.1517C9.00804 91.0351 9.11951 90.9708 9.61434 90.8023C10.069 90.6474 10.2424 90.5528 10.3077 90.424C10.3746 90.2919 10.3906 89.4876 10.377 86.934C10.3617 84.0742 10.3449 83.6066 10.2553 83.55C10.1981 83.5138 9.89411 83.3967 9.5797 83.2898C9.19249 83.158 9.00806 83.0599 9.00811 82.9858C9.00818 82.8891 9.2977 82.8765 11.4853 82.878C14.1085 82.8797 14.2491 82.8943 14.9011 83.2326C15.2922 83.4354 15.6821 83.8664 15.8055 84.2323C15.8566 84.3837 15.8958 84.7165 15.8926 84.972C15.8807 85.9302 15.3149 86.6321 14.3191 86.924L13.874 87.0544L15.0507 88.8534C16.2504 90.6878 16.4065 90.8673 16.8809 90.9584C17.0383 90.9887 17.1153 91.0431 17.1153 91.1243C17.1153 91.2326 17.0146 91.2449 16.1482 91.2418L15.1812 91.2383L14.6518 90.3907C14.062 89.4464 13.4009 88.4566 12.8422 87.6813L12.4717 87.1671H12.0218H11.5719L11.5758 88.6388C11.5809 90.5712 11.5683 90.5361 12.3514 90.8025C12.8463 90.9709 12.9577 91.0351 12.9577 91.1517C12.9577 91.2853 12.9296 91.2912 12.5246 91.242C11.9727 91.1749 10.0081 91.1756 9.44111 91.243C9.03651 91.2912 9.00804 91.2852 9.00804 91.1517ZM13.5842 86.4859C14.1014 86.3287 14.4385 85.9743 14.5422 85.4785C14.6867 84.7881 14.4731 84.1114 14.0131 83.8018C13.6531 83.5597 13.2556 83.4829 12.3514 83.4809L11.5719 83.4791V85.0395V86.5998H12.3908C12.9408 86.5998 13.3327 86.5624 13.5842 86.4859ZM18.3625 91.1587C18.3625 91.0606 18.4934 90.9648 18.847 90.804C19.1829 90.6512 19.351 90.5313 19.3949 90.413C19.4298 90.3192 19.8707 89.2872 20.3747 88.1197C20.8788 86.9521 21.613 85.2309 22.0064 84.2947C22.9514 82.0455 22.8565 82.0591 23.6391 84.0608C23.964 84.8916 24.6948 86.7067 25.2631 88.0944L26.2965 90.6174L26.8335 90.8125C27.2614 90.9679 27.3706 91.0365 27.3706 91.1498C27.3706 91.2825 27.3406 91.2887 26.9237 91.243C26.3161 91.1764 24.6008 91.174 24.0272 91.239C23.5961 91.2879 23.5595 91.2815 23.5595 91.1576C23.5595 91.0504 23.6857 90.9828 24.1831 90.8236C24.5261 90.7138 24.8067 90.6189 24.8067 90.6126C24.8067 90.5721 24.3764 89.2574 24.2535 88.9225L24.1038 88.5147H22.5261H20.9484L20.7622 88.9934C20.5733 89.4792 20.3027 90.3952 20.3027 90.5488C20.3027 90.595 20.3729 90.655 20.4586 90.6821C21.094 90.883 21.3421 91.0144 21.3421 91.1502C21.3421 91.2788 21.3129 91.2881 21.052 91.243C20.6706 91.1771 19.0321 91.1762 18.657 91.2418C18.3965 91.2873 18.3625 91.2777 18.3625 91.1587ZM23.254 86.3203C22.9057 85.4645 22.6049 84.748 22.5854 84.7281C22.5583 84.7003 21.5433 87.0086 21.2577 87.7477C21.2107 87.8693 21.2815 87.8764 22.5476 87.8764H23.8872L23.254 86.3203ZM40.3283 91.1513C40.3283 91.036 40.4347 90.9724 40.8837 90.8193C41.1892 90.7152 41.482 90.5862 41.5343 90.5326C41.6047 90.4606 41.643 90.0696 41.6815 89.0317C41.7401 87.4535 41.6707 83.803 41.5788 83.6273C41.5458 83.5642 41.251 83.4233 40.9235 83.3141C40.4877 83.1689 40.3283 83.0836 40.3283 82.996C40.3283 82.8865 40.4961 82.8763 42.3031 82.8763C44.0373 82.8763 44.2779 82.8896 44.2779 82.9858C44.2779 83.0604 44.0925 83.1571 43.6957 83.2893C43.3754 83.3961 43.0714 83.5352 43.0201 83.5985C42.9447 83.6915 42.9267 84.3598 42.9267 87.0691C42.9267 89.9597 42.9411 90.4384 43.0307 90.525C43.0878 90.5803 43.3918 90.7117 43.7063 90.8171C44.1714 90.9729 44.2779 91.0353 44.2779 91.1516C44.2779 91.2854 44.2499 91.2912 43.8448 91.2418C43.2977 91.1751 41.1653 91.1762 40.6882 91.2433C40.3573 91.2899 40.3283 91.2825 40.3283 91.1513ZM45.5945 91.1459C45.5945 91.0322 45.6729 90.9774 45.9583 90.8915C46.1584 90.8313 46.3668 90.7531 46.4215 90.7177C46.5357 90.6437 46.672 90.8093 44.558 88.4528C43.7751 87.5801 43.1346 86.8395 43.1346 86.8071C43.1346 86.7746 43.7738 86.155 44.5551 85.4301C46.0591 84.0347 46.4953 83.598 46.4953 83.4877C46.4953 83.4503 46.2926 83.3507 46.0449 83.2663C45.7304 83.1592 45.5945 83.0772 45.5945 82.9946C45.5945 82.8876 45.7462 82.8763 47.1882 82.8763C48.6132 82.8763 48.7819 82.8885 48.7819 82.9915C48.7819 83.0614 48.7044 83.1227 48.5848 83.1471C48.0104 83.2647 47.6002 83.5561 46.0196 84.9693C45.1352 85.7601 44.4204 86.4318 44.4313 86.462C44.4422 86.4922 45.308 87.4495 46.3552 88.5892C48.2654 90.668 48.4171 90.8031 49.0071 90.9517C49.1382 90.9847 49.1977 91.0453 49.1977 91.1458C49.1977 91.284 49.1722 91.2892 48.7319 91.2409C48.1175 91.1736 46.4952 91.1721 45.9929 91.2383C45.6211 91.2874 45.5945 91.2812 45.5945 91.1459ZM51.1379 91.1504C51.1379 91.0354 51.2519 90.97 51.7442 90.8023C52.1989 90.6474 52.3723 90.5528 52.4375 90.424C52.5717 90.1593 52.5285 83.6406 52.392 83.5543C52.3386 83.5206 52.0346 83.4044 51.7164 83.2962C51.3178 83.1607 51.1379 83.0647 51.1379 82.9879C51.1379 82.888 51.4722 82.8763 54.3253 82.8763H57.5128L57.5128 83.9224C57.5128 84.8832 57.5026 84.9685 57.3879 84.9685C57.2936 84.9685 57.2239 84.8423 57.1038 84.4543C56.8243 83.5509 56.9787 83.621 55.2673 83.621C53.7909 83.621 53.7871 83.6217 53.7454 83.7805C53.7224 83.8683 53.7032 84.5226 53.7027 85.2345L53.7017 86.5288L54.8277 86.5281C56.0849 86.5274 56.4409 86.4636 56.5129 86.2249C56.7044 85.59 56.8378 85.3228 56.9634 85.3228C57.0913 85.3228 57.097 85.3895 57.097 86.8831C57.097 88.3739 57.0911 88.4435 56.9642 88.4435C56.8596 88.4435 56.7918 88.3223 56.6464 87.8753C56.5368 87.5385 56.4094 87.2786 56.3334 87.237C56.2625 87.1982 55.6466 87.1668 54.9535 87.1668H53.7017V88.7548C53.7017 90.1654 53.7152 90.3586 53.823 90.4853C53.8897 90.5638 54.2015 90.7136 54.5159 90.8182C54.9791 90.9723 55.0876 91.0352 55.0876 91.15C55.0876 91.2827 55.0581 91.2884 54.6198 91.2399C54.3626 91.2114 53.6844 91.1881 53.1127 91.1881C52.5411 91.1881 51.8629 91.2114 51.6056 91.2399C51.1675 91.2884 51.1379 91.2827 51.1379 91.1501V91.1504ZM71.0941 91.1516C71.0941 91.0361 71.1988 90.9729 71.6384 90.8231C72.539 90.5161 72.4453 90.952 72.4453 87.069C72.4453 84.1635 72.4309 83.683 72.3414 83.5965C72.2842 83.5412 71.9802 83.4098 71.6658 83.3044C71.253 83.1661 71.0942 83.08 71.0942 82.9945C71.0942 82.8863 71.3044 82.8764 73.5714 82.8776C76.1966 82.8791 76.3332 82.8933 76.9891 83.2335C77.3476 83.4194 77.716 83.8132 77.8588 84.1632C77.9751 84.4479 77.9832 85.2427 77.8737 85.6168C77.7771 85.9466 77.4062 86.4072 77.0536 86.635C76.9124 86.7262 76.6057 86.8609 76.3719 86.9344L75.9468 87.0679L77.0544 88.7665C77.6635 89.7007 78.2554 90.5524 78.3698 90.6591C78.4841 90.7658 78.718 90.8892 78.8895 90.9334C79.0996 90.9876 79.2014 91.0516 79.2014 91.1295C79.2014 91.2312 79.0834 91.2448 78.2299 91.2417L77.2583 91.2383L76.5691 90.1424C76.19 89.5397 75.5878 88.6317 75.2308 88.1246L74.5817 87.2026L74.1151 87.1815L73.6485 87.1604L73.6706 88.7926C73.6886 90.1306 73.7113 90.4429 73.7965 90.5251C73.8537 90.5803 74.1577 90.7117 74.4721 90.817C74.9372 90.9729 75.0438 91.0353 75.0438 91.1516C75.0438 91.2853 75.0156 91.2912 74.6107 91.2424C74.057 91.1756 72.0911 91.1762 71.5266 91.2432C71.1226 91.2912 71.0941 91.2852 71.0941 91.1516ZM75.6516 86.4916C76.0754 86.3628 76.4131 86.0901 76.543 85.772C76.595 85.6446 76.6375 85.321 76.6375 85.0528C76.6375 84.3809 76.4528 84.0306 75.9431 83.7358C75.5794 83.5255 75.5252 83.5155 74.611 83.4898L73.658 83.463V85.0314V86.5997H74.4769C75.009 86.5997 75.4204 86.5619 75.6516 86.4916ZM82.3195 91.1561C82.3195 91.0524 82.4534 90.9693 82.9009 90.7953C83.2206 90.671 83.5247 90.517 83.5765 90.4532C83.6524 90.3596 83.6746 89.683 83.6906 86.979L83.7105 83.6209L82.963 83.6249C82.5519 83.6271 82.1064 83.667 81.9731 83.7136C81.7524 83.7906 81.7082 83.8557 81.4819 84.4365C81.2868 84.9373 81.2009 85.0797 81.0834 85.0975C80.9353 85.1199 80.9337 85.1078 80.9337 83.9982V82.8762H84.2944H87.655V83.9982C87.655 85.1048 87.653 85.1199 87.5066 85.0975C87.3905 85.0798 87.3099 84.9445 87.1366 84.4764C86.9959 84.0963 86.8556 83.8376 86.7521 83.7672C86.6326 83.6859 86.3608 83.6497 85.733 83.6313L84.877 83.6061L84.8975 86.9865L84.918 90.3668L85.0766 90.4893C85.1639 90.5566 85.4679 90.7026 85.7522 90.8137C86.1498 90.9691 86.2692 91.0475 86.2692 91.1533C86.2692 91.2795 86.2364 91.2866 85.8708 91.2387C85.3574 91.1715 83.2353 91.1718 82.7179 91.2387C82.3549 91.2859 82.3195 91.2785 82.3195 91.1558V91.1561ZM94.515 91.1621C94.515 91.0701 94.6619 90.9572 95.0077 90.7835L95.5003 90.536L96.3974 88.4438C97.8055 85.1598 98.3634 83.8459 98.6257 83.1954C98.8292 82.691 98.8967 82.5891 99.0393 82.571C99.2 82.5506 99.24 82.6273 99.743 83.9185C100.036 84.6716 100.765 86.4813 101.363 87.9403C102.562 90.8695 102.382 90.5798 103.194 90.885C103.436 90.9761 103.523 91.0461 103.523 91.1504C103.523 91.2823 103.493 91.2887 103.077 91.2431C102.464 91.1759 100.748 91.1731 100.18 91.2383C99.7478 91.2879 99.7119 91.2817 99.7119 91.1572C99.7119 91.0488 99.8344 90.9848 100.336 90.8312C100.679 90.7261 100.959 90.615 100.959 90.5843C100.959 90.5098 100.522 89.1965 100.371 88.8161L100.251 88.5147H98.68H97.1087L96.9278 88.9934C96.7141 89.5584 96.4552 90.4052 96.4552 90.5387C96.4552 90.5905 96.5254 90.655 96.6111 90.6821C97.2465 90.883 97.4946 91.0144 97.4946 91.1502C97.4946 91.2788 97.4654 91.2881 97.2045 91.243C96.8231 91.1771 95.1846 91.1762 94.8095 91.2417C94.5511 91.2869 94.515 91.2771 94.515 91.1621ZM99.9122 87.5395C99.8345 87.3542 99.5518 86.66 99.2841 85.9969C99.0163 85.3338 98.7761 84.7679 98.7501 84.7394C98.7242 84.7109 98.4857 85.2055 98.22 85.8385C97.9544 86.4716 97.6527 87.1891 97.5495 87.4329L97.3618 87.8764H98.7077H100.053L99.9122 87.5395ZM105.325 91.1497C105.325 91.042 105.411 90.9795 105.688 90.8867C106.188 90.7196 106.417 90.5931 106.497 90.4403C106.636 90.1746 107.066 86.6037 107.191 84.6848C107.265 83.5296 107.251 83.4939 106.611 83.2626C106.28 83.143 106.156 83.0637 106.156 82.9713C106.156 82.8524 106.235 82.847 107.386 82.8871C108.063 82.9106 108.637 82.9497 108.663 82.974C108.689 82.9983 108.979 83.6724 109.306 84.4721C110.135 86.4954 111.168 88.8693 111.22 88.8693C111.283 88.8693 112.322 86.6337 113.032 84.9685C113.373 84.1689 113.71 83.379 113.781 83.2132L113.909 82.9117L114.589 82.911C114.962 82.911 115.525 82.8901 115.84 82.8651C116.376 82.8224 116.411 82.8282 116.411 82.9579C116.411 83.0644 116.282 83.1503 115.852 83.3304C115.545 83.4591 115.274 83.6149 115.251 83.6767C115.143 83.9633 115.863 90.2822 116.034 90.5503C116.099 90.6523 116.303 90.7583 116.619 90.8548C117.015 90.9756 117.104 91.0294 117.104 91.1482C117.104 91.2831 117.078 91.2899 116.741 91.2417C116.272 91.1745 114.337 91.1747 113.865 91.2417C113.533 91.289 113.501 91.2814 113.501 91.1545C113.501 91.0461 113.615 90.973 114.017 90.8229C114.301 90.7169 114.57 90.5841 114.616 90.5276C114.71 90.4122 114.635 89.5577 114.237 86.2091L114.009 84.2942L113.784 84.7907C113.196 86.083 112.309 88.1332 111.697 89.6134C111.187 90.8487 110.994 91.2447 110.903 91.2447C110.812 91.2447 110.646 90.8979 110.211 89.7908C109.702 88.497 107.824 84.0974 107.82 84.1878C107.819 84.2073 107.755 85.0371 107.679 86.0318C107.603 87.0265 107.521 88.4514 107.496 89.1981L107.451 90.5559L107.653 90.6602C107.763 90.7176 108.018 90.8192 108.218 90.8862C108.495 90.9789 108.581 91.0415 108.581 91.1491C108.581 91.2791 108.551 91.2864 108.197 91.2413C107.68 91.175 106.215 91.173 105.723 91.2379C105.354 91.2865 105.325 91.2799 105.325 91.1491V91.1497ZM124.38 91.1512C124.38 91.0418 124.493 90.9693 124.899 90.8178C125.184 90.7113 125.447 90.5879 125.483 90.5435C125.613 90.3831 125.915 88.1303 126.145 85.6113C126.275 84.1835 126.28 83.5915 126.164 83.4964C126.117 83.4573 125.883 83.3534 125.645 83.2654C125.33 83.1493 125.212 83.0703 125.212 82.977C125.212 82.8562 125.286 82.8509 126.442 82.8891C127.118 82.9114 127.69 82.9495 127.712 82.9739C127.734 82.9982 127.915 83.433 128.114 83.9401C128.313 84.4472 128.871 85.7818 129.353 86.9059L130.229 88.9497L130.573 88.2535C130.992 87.4034 131.971 85.2076 132.52 83.8869L132.926 82.9117L133.625 82.911C134.009 82.911 134.581 82.8901 134.895 82.8651C135.428 82.8226 135.467 82.8288 135.467 82.9555C135.467 83.0593 135.344 83.1393 134.948 83.294C134.663 83.4055 134.391 83.5446 134.344 83.6032C134.29 83.6692 134.264 83.8754 134.275 84.144C134.317 85.1312 134.856 89.8538 134.986 90.3639C135.057 90.6467 135.17 90.7231 135.761 90.8926C136.078 90.9835 136.16 91.0361 136.16 91.1503C136.16 91.2826 136.132 91.2897 135.796 91.242C135.323 91.1748 133.39 91.1754 132.915 91.2429C132.559 91.2933 132.546 91.2892 132.568 91.1377C132.586 91.0161 132.69 90.9436 133.024 90.8202C133.619 90.6004 133.665 90.5493 133.665 90.1176C133.665 89.6326 133.081 84.4172 133.019 84.3544C132.991 84.3256 131.598 87.5077 130.803 89.4184C130.242 90.7646 129.996 91.2799 129.915 91.2801C129.839 91.2801 129.749 91.1332 129.643 90.8372C129.288 89.8479 127.256 85.0086 126.917 84.3455C126.846 84.2079 126.814 84.4489 126.715 85.8337C126.651 86.7425 126.562 88.1481 126.517 88.9572C126.441 90.3451 126.444 90.4365 126.562 90.5707C126.632 90.649 126.713 90.713 126.744 90.713C126.775 90.713 126.973 90.7792 127.184 90.86C127.474 90.9709 127.568 91.0417 127.568 91.1488C127.568 91.2801 127.538 91.2868 127.169 91.2397C126.649 91.1732 125.285 91.1726 124.779 91.2387C124.411 91.2866 124.38 91.2798 124.38 91.1509V91.1512ZM137.754 91.1538C137.754 91.0512 137.876 90.964 138.242 90.8068L138.73 90.5968L139.238 89.3962C139.518 88.7358 140.119 87.3338 140.575 86.2806C141.03 85.2274 141.57 83.9572 141.774 83.4579C142.319 82.1243 142.279 82.0948 143.261 84.5784C143.693 85.6706 144.421 87.4739 144.879 88.5856L145.711 90.6069L146.271 90.81C146.715 90.971 146.831 91.042 146.831 91.1529C146.831 91.2847 146.8 91.2897 146.294 91.2398C145.608 91.1721 143.936 91.1717 143.418 91.2391C143.048 91.2872 143.02 91.2806 143.02 91.1482C143.02 91.0309 143.124 90.9729 143.609 90.8217C143.933 90.7205 144.198 90.6035 144.198 90.5617C144.198 90.4697 143.651 88.8141 143.562 88.6388C143.506 88.5261 143.356 88.5146 141.939 88.5146H140.379L140.212 88.9024C140.039 89.3026 139.663 90.5649 139.705 90.6039C139.718 90.616 139.947 90.7055 140.213 90.8028C140.593 90.9412 140.703 91.0135 140.721 91.1353C140.743 91.2816 140.725 91.2882 140.435 91.2435C140.006 91.1777 138.633 91.1744 138.152 91.2381C137.787 91.2865 137.754 91.2795 137.754 91.1538ZM143.163 87.5395C143.091 87.3542 142.797 86.6281 142.51 85.926L141.989 84.6493L141.851 84.9685C141.775 85.144 141.465 85.8701 141.161 86.582L140.61 87.8764H141.952H143.295L143.163 87.5395ZM148.425 91.1503C148.425 91.0356 148.533 90.9721 148.996 90.8171C149.311 90.7117 149.615 90.5802 149.672 90.525C149.761 90.4384 149.776 89.9597 149.776 87.069C149.776 84.3598 149.758 83.6915 149.682 83.5985C149.631 83.5352 149.327 83.3961 149.007 83.2893C148.61 83.1571 148.425 83.0604 148.425 82.9858C148.425 82.8896 148.665 82.8763 150.399 82.8763C152.116 82.8763 152.374 82.8903 152.374 82.9835C152.374 83.0545 152.173 83.1622 151.779 83.302C151.421 83.429 151.155 83.5665 151.114 83.6467C151.022 83.8223 150.954 88.0279 151.021 89.3859C151.057 90.1233 151.101 90.4635 151.168 90.5322C151.22 90.586 151.513 90.7152 151.819 90.8193C152.266 90.9718 152.374 91.0362 152.374 91.1503C152.374 91.2831 152.345 91.2887 151.907 91.2401C151.3 91.1728 149.493 91.1726 148.892 91.2394C148.454 91.2884 148.425 91.2828 148.425 91.15V91.1503ZM30.6219 74.8442C29.6409 73.3837 22.2583 63.1252 21.9833 62.8404C21.8925 62.7464 21.8851 63.3363 21.9196 67.9114C21.9454 71.3211 21.9845 73.1789 22.0342 73.3527C22.0757 73.4978 22.1787 73.6664 22.2629 73.7274C22.3472 73.7883 22.8605 73.9824 23.4036 74.1587L24.391 74.4793V74.6974V74.9156L24.0618 74.873C23.8808 74.8495 23.1943 74.7953 22.5362 74.7525C21.4075 74.6791 19.7604 74.7303 18.6917 74.872C18.3628 74.9156 18.3625 74.9155 18.3625 74.7031C18.3625 74.4948 18.3821 74.483 19.3499 74.1095C19.893 73.8998 20.4038 73.6615 20.4851 73.5797C20.5954 73.4688 20.6441 73.307 20.6774 72.9408C20.7776 71.8373 20.8601 69.1161 20.9031 65.4986L20.9486 61.6674L20.7816 61.4026C20.6386 61.1759 20.5149 61.0983 19.9216 60.8626C19.5405 60.7112 19.065 60.5332 18.8649 60.467C18.5318 60.3568 18.5011 60.3285 18.5011 60.1315C18.5011 59.9271 18.5123 59.9186 18.7263 59.9602C19.2524 60.0625 21.4926 60.0928 22.1131 60.006C22.6397 59.9324 22.7545 59.9337 22.7998 60.0137C23.3007 60.8982 23.9675 61.8968 25.0561 63.3927C25.786 64.3957 27.3248 66.5089 28.4758 68.0887L30.5684 70.9611L30.5422 66.422C30.5147 61.656 30.514 61.6466 30.2013 61.3048C30.1246 61.221 29.6277 60.9694 29.0973 60.7458C28.1604 60.3509 28.1328 60.3331 28.1328 60.1267V59.9142L28.5658 59.9678C29.7676 60.1167 32.0104 60.1166 33.5549 59.9676L34.0919 59.9158L34.0916 60.1901L34.0912 60.4644L33.3121 60.7406C32.3423 61.0843 32.0414 61.2367 31.9319 61.4398C31.7831 61.7157 31.6658 65.0991 31.6221 70.376L31.5805 75.3938H31.2858C30.9962 75.3938 30.9847 75.3843 30.6219 74.8442ZM7.13714 75.1408C7.04186 75.1237 6.73556 75.0752 6.45646 75.033C4.52847 74.7416 3.16512 73.6261 2.61593 71.8907C2.45511 71.3825 2.43939 70.9223 2.39884 65.5355C2.37072 61.8005 2.35122 61.5495 2.06429 61.2315C1.98741 61.1462 1.50708 60.9102 0.996898 60.7069C0.0966839 60.3483 0.0692995 60.3312 0.0692995 60.1276V59.9177L0.640963 59.9696C2.27042 60.1173 4.87655 60.117 6.42689 59.9688L6.99855 59.9142V60.1203C6.99855 60.3159 6.96546 60.3388 6.3576 60.5655C5.29448 60.9619 4.73638 61.2468 4.59717 61.4642C4.48005 61.6472 4.46405 61.9424 4.40555 65.0004C4.33745 68.5602 4.39755 70.4428 4.60488 71.2448C4.96753 72.6475 5.7745 73.4322 7.15154 73.7214C7.84326 73.8666 9.19104 73.8693 9.72653 73.7265C10.9343 73.4046 11.6871 72.6658 12.1113 71.3866L12.2994 70.8192L12.2952 66.9894C12.2905 62.6894 12.2222 61.4293 11.9795 61.1648C11.8204 60.9915 11.44 60.8254 10.5151 60.5254C9.94345 60.34 9.90884 60.3175 9.90884 60.1306C9.90884 59.9021 9.8865 59.9054 10.775 60.0048C11.5909 60.096 14.0101 60.0963 14.7593 60.0052C15.6028 59.9026 15.5908 59.9007 15.5908 60.1366C15.5908 60.3224 15.552 60.3553 15.1577 60.503C14.5334 60.737 13.9836 61.0278 13.8239 61.2087C13.6895 61.3609 13.6839 61.4986 13.6409 65.7733C13.6002 69.8175 13.585 70.2365 13.4569 70.8547C13.2276 71.9618 12.9591 72.6125 12.4403 73.3188C11.8546 74.1164 10.9443 74.6908 9.82055 74.972C9.27083 75.1096 7.56169 75.2171 7.13714 75.1408ZM54.6025 75.1083C54.6025 74.7205 50.1206 63.1868 49.3127 61.4955C49.0538 60.9535 48.852 60.7954 48.0855 60.5341C47.565 60.3567 47.5347 60.335 47.5347 60.1395C47.5347 59.8987 47.5098 59.902 48.5394 60.0066C49.4271 60.0968 51.9569 60.0958 52.7663 60.005C53.6597 59.9047 53.6324 59.9004 53.6324 60.1425C53.6324 60.3298 53.6004 60.3613 53.3379 60.433C52.5841 60.6388 51.7689 60.9373 51.6879 61.0371C51.614 61.1283 51.6259 61.2355 51.7568 61.657C52.052 62.6075 54.5853 69.0317 55.3801 70.8451L55.5468 71.2256L56.4575 68.8947C57.8961 65.2128 59.076 61.8415 59.1215 61.2827C59.139 61.0673 59.1117 61.0236 58.8722 60.8841C58.7243 60.798 58.3424 60.6368 58.0234 60.526C57.4838 60.3385 57.4435 60.3109 57.4435 60.1285C57.4435 59.9019 57.4352 59.9032 58.275 60.005C59.029 60.0964 60.9473 60.0968 61.5318 60.0056C62.2049 59.9006 62.2053 59.9007 62.1701 60.146C62.1472 60.3059 62.0936 60.3705 61.9569 60.4037C61.5655 60.4984 61.0519 60.7988 60.8746 61.0366C60.3928 61.6832 58.144 67.2201 56.1236 72.7342L55.2401 75.1456L54.9213 75.1672C54.7172 75.1811 54.6025 75.1598 54.6025 75.1083ZM101.236 75.1357C101.141 75.1214 100.829 75.0747 100.543 75.032C100.258 74.9892 99.7353 74.8601 99.3828 74.7451C98.618 74.4957 98.6698 74.7493 98.9151 72.4575C99.0104 71.5672 99.0883 70.7945 99.0883 70.7404C99.0883 70.6788 99.1644 70.6419 99.2913 70.6419C99.5235 70.6419 99.4888 70.5481 99.9928 72.5375L100.284 73.6884L100.66 73.8324C101.543 74.1704 102.825 74.2542 103.731 74.0331C105.005 73.7224 105.837 72.7805 105.927 71.5493C105.972 70.9269 105.885 70.5598 105.584 70.1009C105.211 69.534 104.639 69.1355 102.902 68.2317C100.981 67.2327 100.526 66.9419 99.9122 66.3186C99.1977 65.5934 98.8828 64.8334 98.8813 63.8305C98.8797 62.7797 99.2485 61.8772 99.9811 61.1391C101.506 59.6031 103.92 59.2466 106.632 60.1573L107.281 60.3753L107.232 61.9802C107.204 62.8629 107.157 63.612 107.127 63.6449C107.006 63.7756 106.827 63.6421 106.714 63.3368C106.649 63.1613 106.446 62.579 106.264 62.0429L105.933 61.0681L105.5 60.9312C104.449 60.599 103.411 60.5717 102.667 60.8566C102.145 61.0567 101.514 61.6528 101.256 62.1895C101.086 62.5443 101.063 62.6722 101.063 63.2659C101.063 64.0753 101.191 64.4011 101.72 64.9401C102.18 65.4076 102.541 65.6224 104.192 66.4104C105.9 67.2257 106.321 67.4835 106.96 68.1044C107.792 68.9133 108.171 69.9422 108.068 71.109C107.979 72.1168 107.655 72.8118 106.926 73.5577C106.497 73.9974 106.277 74.1576 105.74 74.421C105.01 74.7797 104.222 75 103.281 75.1082C102.685 75.1766 101.605 75.1911 101.236 75.1357ZM37.7644 74.6986C37.7644 74.486 37.7744 74.4802 38.6479 74.1854C39.8397 73.7832 39.9572 73.7221 40.0524 73.4554C40.1852 73.0834 40.2735 69.2079 40.2263 65.8278C40.1736 62.0557 40.1234 61.2987 39.9145 61.1256C39.8342 61.059 39.3175 60.8519 38.7664 60.6654C37.7826 60.3324 37.7644 60.3225 37.7644 60.1202V59.9142L38.2668 59.9688C39.6251 60.1166 42.5095 60.1171 44.122 59.9699L44.6937 59.9177V60.132C44.6937 60.3449 44.6873 60.3484 43.6758 60.6935C42.8935 60.9604 42.6271 61.0831 42.5247 61.2235C42.4057 61.3867 42.385 61.5961 42.333 63.1695C42.2598 65.3806 42.2589 70.0788 42.3313 71.968C42.3968 73.6761 42.3975 73.6778 43.0799 73.9075C43.3387 73.9945 43.8076 74.1601 44.122 74.2755C44.6674 74.4756 44.6937 74.4951 44.6937 74.7004V74.9156L44.3645 74.8724C44.1835 74.8486 43.4104 74.7953 42.6464 74.7541C41.3408 74.6836 39.2321 74.7378 38.1282 74.8701L37.7644 74.9137V74.6986ZM64.385 74.6839L64.4074 74.4512L65.4705 74.0828C66.0552 73.8802 66.5619 73.6694 66.5965 73.6144C66.7872 73.3112 66.802 72.8042 66.783 67.218C66.7649 61.9171 66.7538 61.4361 66.6449 61.266C66.5493 61.1167 66.3181 61.0099 65.4496 60.7136C64.382 60.3494 64.3728 60.3445 64.3728 60.1355V59.9246L65.4988 59.9818C66.9418 60.055 73.1027 60.0559 74.7369 59.9831L75.9891 59.9274V61.703V63.4787H75.8096C75.641 63.4787 75.6096 63.4181 75.2919 62.4805C75.1059 61.9314 74.9038 61.4206 74.8428 61.3453C74.7757 61.2624 74.5736 61.1788 74.3307 61.1337C73.769 61.0292 69.0506 61.0736 68.9425 61.1843C68.8868 61.2414 68.8513 62.0572 68.8247 63.8972L68.7865 66.5284L70.512 66.5267C72.5478 66.5247 73.8106 66.4399 74.0339 66.2901C74.1323 66.2241 74.2616 65.9793 74.3825 65.6298C74.8383 64.3122 74.8295 64.3298 75.0376 64.3298H75.2293L75.2309 67.0603L75.2325 69.7909H75.0427C74.8616 69.7909 74.8389 69.7493 74.5499 68.889C74.3833 68.3929 74.1846 67.9141 74.1084 67.8249C73.8897 67.5689 73.4036 67.5213 71.0047 67.5213H68.7862L68.8291 70.4469C68.8527 72.056 68.8914 73.4408 68.9151 73.5242C68.9573 73.6727 68.998 73.6769 70.875 73.7289C73.0169 73.7881 74.4731 73.7416 74.7503 73.6051C75.0382 73.4634 75.2034 73.1462 75.5698 72.0311C75.9024 71.0192 75.9142 70.9966 76.1093 70.9966H76.3088L76.2649 71.3689C76.2408 71.5737 76.201 72.455 76.1766 73.3274L76.1322 74.9136L75.6746 74.87C75.423 74.846 74.0478 74.7934 72.6186 74.7531C70.1601 74.6839 66.4316 74.7406 64.9047 74.8705L64.3626 74.9166L64.385 74.6839ZM80.9337 74.6995C80.9337 74.4954 80.9607 74.4753 81.5053 74.2755C81.8197 74.1601 82.2879 73.9948 82.5458 73.908C82.8036 73.8213 83.06 73.7037 83.1156 73.6469C83.3507 73.4063 83.3637 73.0381 83.3439 67.218C83.3258 61.9171 83.3147 61.4361 83.2058 61.266C83.1102 61.1167 82.879 61.0099 82.0105 60.7136C80.9384 60.3479 80.9337 60.3453 80.9337 60.1324V59.9186L81.3667 59.9704C82.1987 60.0699 83.6103 60.1095 84.7448 60.0651C88.546 59.9164 88.8506 59.9142 89.5403 60.0308C92.1917 60.4791 93.4673 62.0543 93.0541 64.3699C92.8063 65.7583 91.734 66.7852 90.0592 67.238L89.4626 67.3993L91.4171 70.3783C92.4921 72.0167 93.5085 73.5138 93.6757 73.7052C94.0166 74.0955 94.3102 74.2697 94.8441 74.3983C95.17 74.4768 95.2079 74.5056 95.2079 74.6739L95.2079 74.8619L93.5431 74.8551L91.8782 74.8484L91.372 74.001C90.4413 72.4432 88.9309 70.1667 87.6729 68.4255L87.0195 67.5213H86.1865H85.3536L85.3888 70.1986C85.4258 73.008 85.4673 73.4239 85.736 73.6739C85.8196 73.7517 86.3324 73.9657 86.8755 74.1495C87.857 74.4815 87.8629 74.4848 87.8629 74.6986V74.9136L87.4991 74.8704C86.3728 74.7364 84.364 74.683 83.0562 74.7523C82.289 74.793 81.4975 74.8459 81.2975 74.8699L80.9337 74.9136V74.6995ZM88.348 66.5964C89.5175 66.4076 90.176 66.0019 90.5584 65.2347C90.7674 64.8153 90.7977 64.6825 90.8272 64.0567C90.8546 63.4735 90.8349 63.2657 90.7133 62.8558C90.4477 61.961 89.701 61.3299 88.6336 61.0984C88.3275 61.032 87.7075 60.9984 86.7716 60.9976L85.3684 60.9964V63.8333V66.6702L86.633 66.6697C87.3285 66.6694 88.1002 66.6364 88.348 66.5964ZM112.531 74.7031C112.531 74.4935 112.544 74.4858 113.484 74.1554C114.008 73.9711 114.506 73.7755 114.59 73.7207C114.916 73.5087 114.922 73.3873 114.915 67.4149C114.909 62.8374 114.89 61.7471 114.811 61.4574L114.714 61.1027L113.622 60.7232C112.537 60.3457 112.531 60.3427 112.531 60.1298V59.9158L113.068 59.9675C114.615 60.1162 117.591 60.1168 118.958 59.9686L119.46 59.9142V60.1204C119.46 60.3222 119.441 60.3333 118.542 60.6352C117.329 61.0431 117.264 61.0802 117.175 61.4161C116.989 62.1251 116.936 70.9477 117.107 72.8406C117.16 73.4279 117.189 73.5339 117.339 73.6665C117.434 73.7501 117.95 73.9682 118.486 74.1511C119.453 74.4812 119.46 74.4851 119.46 74.6986V74.9137L119.097 74.8703C117.957 74.7345 115.923 74.6815 114.598 74.753C113.823 74.7949 113.041 74.8486 112.86 74.8724C112.531 74.9156 112.531 74.9154 112.531 74.7031ZM125.004 74.7031C125.004 74.4977 125.028 74.4818 125.714 74.2309C126.829 73.8235 127.164 73.6301 127.325 73.3007C127.46 73.0257 127.464 72.8548 127.484 67.1042L127.504 61.1905L126.202 61.2413C124.976 61.2892 124.336 61.3595 124.15 61.4671C123.878 61.6235 123.73 61.892 123.369 62.8832C122.985 63.9399 122.966 63.9751 122.775 63.9751H122.578V61.9538V59.9325L122.838 59.9342C122.981 59.9351 123.659 59.9671 124.345 60.0052C125.031 60.0433 126.902 60.0745 128.503 60.0745C130.104 60.0745 131.975 60.0433 132.661 60.0052C133.347 59.9671 134.025 59.9351 134.168 59.9342L134.427 59.9325V61.9538V63.9751H134.231C134.04 63.9751 134.021 63.9399 133.637 62.8832C133.233 61.7741 133.105 61.5679 132.73 61.4208C132.525 61.3403 130.887 61.216 129.973 61.2115L129.502 61.2091L129.522 67.1135C129.546 73.9673 129.483 73.3939 130.248 73.7844C130.508 73.9172 131.009 74.1305 131.361 74.2585C131.977 74.4819 132.002 74.4997 132.002 74.7039C132.002 74.9153 132 74.9164 131.689 74.8727C131.517 74.8485 130.724 74.7937 129.928 74.7508C128.561 74.6771 126.385 74.7348 125.333 74.8725C125.004 74.9156 125.004 74.9154 125.004 74.7031ZM135.12 74.7088C135.12 74.5153 135.162 74.4864 135.904 74.1691C136.335 73.9848 136.735 73.7939 136.793 73.7451C136.851 73.6962 137.127 73.1137 137.405 72.4505C137.684 71.7874 138.596 69.665 139.432 67.7341C140.801 64.5757 142.181 61.3157 142.72 59.968C142.916 59.4793 142.923 59.4712 143.195 59.4508L143.47 59.4301L144.053 60.9402C145.069 63.5726 147.609 69.8529 149.126 73.481L149.26 73.8022L150.228 74.1458C151.183 74.4849 151.196 74.4923 151.196 74.7026C151.196 74.9154 151.196 74.9156 150.867 74.8733C149.771 74.7323 147.516 74.6715 146.256 74.7492C145.524 74.7943 144.824 74.8496 144.7 74.8722C144.486 74.9111 144.475 74.9022 144.475 74.6952C144.475 74.4987 144.504 74.4695 144.769 74.3972C145.119 74.3022 146.568 73.8297 146.636 73.7885C146.685 73.7588 145.773 70.9298 145.528 70.3519L145.39 70.0264L144.396 69.9798C143.134 69.9208 142.071 69.9205 140.753 69.9789L139.711 70.0251L139.432 70.7059C138.981 71.8052 138.454 73.6609 138.564 73.7654C138.595 73.7948 139.033 73.9696 139.538 74.1538C140.44 74.4829 140.456 74.4926 140.456 74.7022C140.456 74.9089 140.448 74.9142 140.196 74.8735C139.32 74.7318 137.634 74.6733 136.632 74.7499C136.048 74.7944 135.469 74.8494 135.346 74.872C135.134 74.9106 135.12 74.9005 135.12 74.7088ZM145.029 68.9193C145.029 68.9081 144.49 67.5708 143.832 65.9475L142.634 62.9962L141.562 65.522C140.973 66.9111 140.406 68.2485 140.303 68.4938L140.115 68.9398H142.572C143.924 68.9398 145.029 68.9306 145.029 68.9193ZM153.829 74.7026C153.829 74.4977 153.854 74.481 154.47 74.2618C155.268 73.9784 155.915 73.6676 156.068 73.4946C156.132 73.422 156.216 73.193 156.254 72.9856C156.297 72.7517 156.324 70.4404 156.324 66.8996V61.1908L155.025 61.2415C153.17 61.3138 152.845 61.3951 152.618 61.8442C152.561 61.9586 152.376 62.4291 152.207 62.8896C152.039 63.3501 151.88 63.7828 151.853 63.8511C151.823 63.9293 151.731 63.9752 151.605 63.9752H151.404V61.9438V59.9124L152.253 59.9677C154.541 60.1168 159.639 60.1173 162.3 59.9686L163.253 59.9154V61.9453V63.9752L163.063 63.9745C162.881 63.9739 162.855 63.9272 162.5 62.9453C162.129 61.9193 161.974 61.6271 161.725 61.491C161.479 61.3563 160.934 61.291 159.633 61.2402L158.333 61.1895L158.334 66.6427C158.334 69.6903 158.364 72.359 158.402 72.6923C158.497 73.5419 158.64 73.6697 160.118 74.2221C160.804 74.4788 160.828 74.4948 160.828 74.7016C160.828 74.9089 160.82 74.9143 160.568 74.8742C160.425 74.8515 159.645 74.7965 158.835 74.752C157.439 74.6753 155.224 74.7324 154.159 74.8724C153.83 74.9157 153.83 74.9156 153.83 74.7027L153.829 74.7026ZM140.487 58.627C140.053 58.4336 139.709 57.8041 139.791 57.3551C139.852 57.0209 140.201 56.6294 140.563 56.4879C140.825 56.3852 140.92 56.3788 141.148 56.4486C142.071 56.7315 142.336 57.7378 141.66 58.3854C141.306 58.7238 140.894 58.8086 140.487 58.627ZM144.925 58.5983C144.343 58.2166 144.115 57.6031 144.367 57.1026C144.518 56.8042 144.926 56.4703 145.204 56.4168C145.733 56.3152 146.322 56.7245 146.494 57.3142C146.739 58.1502 145.628 59.0594 144.925 58.5983ZM6.9304e-06 51.5813V50.8188L54.1521 50.842L108.304 50.8652L108.305 50.381C108.308 48.7973 109.045 47.0989 110.271 45.8479C111.622 44.4698 113.058 43.6262 117.382 41.6712C120.652 40.1925 122.717 39.1632 122.717 39.0122C122.717 38.8109 122.207 37.8167 121.37 36.3859C120.24 34.4546 119.98 33.8977 119.98 33.4071C119.98 33.1336 120.032 32.9112 120.153 32.6625C120.42 32.1127 121.557 31.0038 122.942 29.9412C123.619 29.4223 124.172 28.9688 124.172 28.9333C124.172 28.8838 123.434 27.8144 123.3 27.6691C123.285 27.6533 123.059 27.7859 122.798 27.9637C121.623 28.7637 120.801 29.0121 119.805 28.8681C118.409 28.6662 117.531 27.7447 117.264 26.202C117.066 25.0574 117.331 23.5522 117.942 22.3421L118.211 21.8092L117.937 21.157C117.555 20.2508 117.381 19.5241 117.382 18.8368C117.383 18.1515 117.526 17.7891 118.065 17.1035C118.52 16.5253 118.517 16.5745 118.205 14.8961C118.061 14.1188 117.997 13.5466 117.988 12.9425C117.976 12.1285 117.984 12.0726 118.164 11.7579C118.269 11.5762 118.536 11.2839 118.759 11.1084C119.237 10.7318 119.391 10.4406 119.391 9.91273C119.391 9.31223 119.507 8.80751 119.774 8.25159C120.194 7.37331 120.999 6.67015 122.588 5.79174L123.186 5.46108L123.338 4.78718C123.671 3.31097 124.21 2.64253 125.644 1.92808C128.131 0.688795 130.179 0.524905 131.663 1.44632L132.051 1.68725L132.529 1.47802C133.566 1.02403 134.917 0.708977 136.739 0.495807C138.948 0.237348 139.646 0.318585 140.431 0.925734C140.768 1.18594 141.577 2.13104 141.647 2.34642C141.665 2.40256 141.824 2.35175 142.122 2.19422C142.512 1.98788 142.637 1.95742 143.1 1.95518C143.581 1.95285 143.659 1.97275 143.932 2.16814C144.101 2.28967 144.33 2.55261 144.456 2.77099C144.578 2.98402 144.703 3.19881 144.733 3.24831C144.774 3.31792 144.857 3.30186 145.099 3.17738C145.354 3.04536 145.523 3.01646 146.039 3.01646C146.642 3.01646 146.694 3.02929 147.276 3.32485C148.286 3.83722 149.228 4.86057 149.773 6.037C150.29 7.15398 150.421 8.27371 150.157 9.32865C150.081 9.63369 150.018 9.90723 150.018 9.93652C150.018 9.9658 150.158 10.059 150.329 10.1435C151.427 10.6875 152.095 12.515 152.376 15.7424C152.471 16.8279 152.438 17.0895 152.055 18.3197C151.687 19.502 151.674 19.7053 151.957 19.9193C152.525 20.3493 153.054 20.938 153.225 21.3308C153.765 22.5716 153.754 24.6426 153.201 25.7594C152.79 26.5892 151.871 27.479 151.236 27.6609C150.704 27.8133 149.908 27.7181 148.885 27.3798C148.396 27.2178 147.958 27.0998 147.912 27.1177C147.728 27.1899 146.951 28.5133 147.092 28.5135C147.12 28.5136 147.704 28.8193 148.39 29.193C150.441 30.3104 151.391 31.0317 151.652 31.6715C151.794 32.0187 151.774 32.678 151.604 33.2401C151.523 33.5075 151.239 34.205 150.972 34.7902C150.002 36.917 149.048 39.118 149.048 39.2293C149.048 39.3588 149.457 39.5631 152.27 40.8405C157.471 43.2017 159.83 44.4977 161.055 45.6672C161.768 46.348 162.469 47.5284 162.81 48.6202C163.09 49.5158 163.183 50.101 163.23 51.2621L163.274 52.3437H81.637H0L6.9304e-06 51.5813ZM128.697 47.2845C128.688 47.1589 128.461 46.7729 128.092 46.2561C127.767 45.801 127.168 44.918 126.761 44.2939C126.355 43.6698 125.813 42.84 125.557 42.4499C125.301 42.0598 124.959 41.5172 124.798 41.2442C124.478 40.7024 124.126 40.2867 123.988 40.2867C123.939 40.2867 123.865 40.3541 123.822 40.4364C123.755 40.563 123.796 40.6913 124.085 41.2709C124.521 42.1452 125.519 43.8087 126.772 45.7526C127.828 47.3896 127.974 47.5398 128.468 47.5033C128.688 47.4871 128.71 47.4666 128.697 47.2845ZM135.799 47.3372C136.902 47.1042 137.799 46.6932 138.203 46.2355C138.562 45.8298 138.57 45.6912 138.275 45.1306C137.874 44.3718 137.881 44.3787 137.557 44.4681C137.233 44.5575 137.065 44.7931 136.897 45.3977C136.837 45.6147 136.714 45.9019 136.625 46.036L136.464 46.2798L135.73 46.2729C135.102 46.2671 134.947 46.2413 134.66 46.0956C134.21 45.8674 134.193 45.7089 134.575 45.2847C135.001 44.8118 135.202 44.7203 135.579 44.8281C135.837 44.9022 135.905 44.8979 136.054 44.798C136.44 44.5394 136.821 43.4288 136.766 42.7242C136.703 41.9325 136.297 41.5107 136.057 41.9876C135.968 42.1637 135.955 42.3257 135.992 42.7944C136.029 43.2662 136.016 43.4246 135.925 43.6048C135.721 44.0085 135.459 44.062 134.809 43.8329C133.881 43.5064 133.457 43.7601 133.457 44.6413C133.457 45.7334 134.242 47.156 134.967 47.3799C135.23 47.4609 135.207 47.4621 135.799 47.3372ZM141.76 47.0475C142.741 46.3561 144.32 44.1005 144.755 42.769C144.852 42.4726 144.919 42.0491 144.943 41.5827C144.975 40.941 144.966 40.852 144.861 40.8106C144.696 40.7458 144.592 40.8832 144.401 41.4215C144.006 42.5357 142.488 44.3979 141.495 44.9864C141.248 45.1333 140.78 45.3358 140.456 45.4364C139.825 45.6325 139.624 45.7621 139.624 45.9744C139.624 46.2036 139.879 46.6326 140.181 46.9117C140.767 47.4535 141.139 47.4855 141.76 47.0475ZM132.916 46.7644C133.112 46.5831 133.067 46.3006 132.74 45.6508C132.237 44.6492 132.011 44.3865 131.361 44.0435C130.126 43.3922 129.291 42.5912 128.019 40.8364C127.536 40.1701 127.215 39.7903 127.137 39.7903C126.948 39.7903 126.98 40.0319 127.291 40.9542C128.255 43.8152 129.44 45.4969 131.122 46.393C132.177 46.9544 132.613 47.0448 132.916 46.7644ZM132.983 43.3297C133.42 43.0422 134.576 41.7988 135.029 41.1284C135.701 40.133 135.882 39.641 135.648 39.4422C135.595 39.3973 135.213 39.33 134.799 39.2925C133.035 39.1331 131.763 38.4853 130.155 36.9282C129.394 36.1907 128.802 35.3256 128.231 34.1164C127.61 32.8007 127.724 32.7288 128.803 33.7562C130.345 35.2241 131.609 36.2244 132.451 36.6424L132.934 36.8824H134.361C135.966 36.8824 136.302 36.8207 136.792 36.4373C137.19 36.1259 137.407 35.688 137.407 35.1952C137.407 34.4867 137.01 34.1209 136.069 33.9612C135.711 33.9005 135.502 33.9084 135.008 34.0011C134.228 34.1477 133.975 34.1446 133.631 33.9842C132.843 33.6173 133.147 33.1082 134.225 32.9903C134.606 32.9486 134.842 32.9758 135.579 33.1459C136.352 33.3243 136.511 33.3412 136.763 33.2713C137.154 33.1631 137.456 32.8887 137.554 32.5541C137.658 32.2017 137.522 31.9642 137.107 31.7715C136.707 31.5853 136.454 31.6004 135.848 31.8468C135.247 32.0912 134.965 32.1096 134.486 31.9357C134.147 31.8122 134.144 31.8125 133.608 32.0066C133.313 32.1138 133.005 32.2014 132.925 32.2014C132.845 32.2014 132.589 32.0578 132.356 31.8823C132.123 31.7068 131.914 31.5631 131.892 31.5631C131.87 31.5631 131.717 31.6624 131.552 31.7837C131.254 32.0028 131.25 32.0034 131.077 31.8723C130.881 31.7242 130.888 31.5787 131.114 31.117C131.304 30.7285 131.512 30.6709 131.934 30.8899C132.42 31.1418 132.625 31.1215 133.007 30.7834C133.572 30.2824 133.858 30.3117 134.438 30.9303C134.95 31.476 135.071 31.4793 135.572 30.9621C136.135 30.3812 136.441 30.3605 137.165 30.8538C137.393 31.0097 137.631 31.1372 137.694 31.1374C137.756 31.1375 138.012 31.0395 138.263 30.9195C138.513 30.7996 138.788 30.7118 138.874 30.7245C139.125 30.7614 139.347 31.1696 139.347 31.5933C139.347 32.1501 139.465 32.2724 140.003 32.2724H140.444L140.848 31.8183C141.539 31.0436 142.761 28.8901 142.985 28.0524C143.057 27.7824 143.119 27.1474 143.154 26.3148C143.203 25.1571 143.235 24.9116 143.426 24.228C143.654 23.4152 143.689 22.9692 143.574 22.335C143.505 21.9506 143.241 21.5969 143.064 21.6518C142.877 21.71 142.673 22.2976 142.673 22.7782C142.673 23.1936 142.649 23.284 142.483 23.4879C142.146 23.9014 141.887 24.1107 141.399 24.3644C140.847 24.6521 140.631 24.6726 140.408 24.4584C140.212 24.2697 140.206 24.0766 140.387 23.797C140.569 23.5145 140.565 23.4949 140.283 23.3572C139.843 23.1425 139.993 22.9572 140.736 22.7988C141.012 22.7397 141.289 22.6635 141.35 22.6295C141.538 22.5245 141.89 22.1093 142.043 21.8122C142.273 21.3648 142.229 21.162 141.844 20.8995C141.586 20.7236 141.531 20.7551 141.522 21.0846C141.495 22.0699 140.606 22.7289 139.781 22.3759C139.289 22.1654 139.001 21.7225 139.001 21.1757C139.001 20.7787 138.91 20.7623 138.435 21.0743C138.224 21.2125 138.082 21.3637 138.054 21.4793C138.014 21.6406 138.066 21.7177 138.47 22.0921C138.724 22.3277 138.932 22.5744 138.932 22.6405C138.931 22.8086 138.665 22.9814 138.405 22.9814C138.062 22.9814 138.032 23.0847 138.18 23.7616C138.252 24.0931 138.336 24.7852 138.367 25.2995C138.428 26.3138 138.382 26.1871 138.954 26.9113C139.023 26.999 139.109 27.2046 139.145 27.368C139.198 27.6124 139.186 27.7123 139.076 27.9298C138.93 28.2175 138.639 28.5455 138.349 28.749C138.248 28.82 138.087 29.0047 137.991 29.1595C137.738 29.5694 137.597 29.6131 136.958 29.478C136.21 29.3195 135.985 29.3316 135.712 29.5449C135.356 29.8229 135.046 29.6981 134.783 29.1703C134.701 29.0052 134.562 28.8223 134.475 28.7639C134.331 28.667 134.271 28.6742 133.8 28.8461C133.178 29.0736 133.014 29.0463 132.587 28.644C132.21 28.2884 132.079 27.9211 132.22 27.6186C132.291 27.4666 132.372 27.4085 132.536 27.3922C132.722 27.3737 132.774 27.4042 132.866 27.5872C132.927 27.7066 132.993 27.8042 133.015 27.8042C133.036 27.8042 133.246 27.6288 133.481 27.4144C133.729 27.1877 133.973 27.0245 134.064 27.0244C134.344 27.0238 134.649 27.4551 134.742 27.984C134.814 28.3908 134.894 28.5128 135.163 28.6279C135.651 28.8365 136.22 28.5061 136.373 27.9255C136.435 27.6917 136.421 27.5309 136.294 27.005C136.131 26.3325 136.132 26.4309 136.273 24.1516C136.312 23.5131 136.295 23.354 136.105 22.5559C135.824 21.3745 135.789 21.0467 135.878 20.3945C135.985 19.6085 136.141 19.2953 136.621 18.9084C137.107 18.5162 138.079 18.0182 138.793 17.7957C139.763 17.4932 140.846 17.6322 141.666 18.1644C141.918 18.3277 142.038 18.3689 142.116 18.3187C142.278 18.2147 142.458 17.6699 142.461 17.2721C142.465 16.8285 142.296 16.45 141.646 15.4411C141.172 14.7058 140.941 14.1569 140.941 13.7662C140.941 13.666 141.004 13.1908 141.08 12.7102C141.236 11.7316 141.202 11.2274 140.94 10.675C140.637 10.0325 139.906 9.36592 139.301 9.17954C139.044 9.10041 138.825 9.10193 137.941 9.18902C136.201 9.36038 136.103 9.35117 134.784 8.89037C133.771 8.53645 133.563 8.48709 133.076 8.48372C132.412 8.47912 130.483 8.69173 129.856 8.83866C128.368 9.18756 127.228 10.319 126.749 11.9221C126.562 12.5465 126.438 13.6672 126.495 14.2116C126.555 14.7853 126.483 15.0454 125.903 16.3501C125.644 16.9352 125.393 17.5575 125.348 17.7331C125.285 17.9739 125.279 18.6354 125.325 20.4282C125.412 23.8668 125.409 23.9663 125.223 24.2739C125.138 24.4154 124.926 24.6164 124.752 24.7205C124.255 25.0191 124.155 25.432 124.311 26.541C124.409 27.2344 124.548 27.4846 124.926 27.6522C125.305 27.82 125.394 27.7848 125.701 27.3471C126.12 26.7497 126.295 26.8481 126.266 27.6657C126.234 28.5495 126.636 30.1207 127.229 31.429L127.569 32.1813L127.296 32.9893C127.146 33.4336 126.909 34.241 126.769 34.7835C126.419 36.1411 126.438 36.5702 126.89 37.5387C127.999 39.9156 129.328 41.544 131.298 42.9393C132.265 43.624 132.464 43.6702 132.983 43.3297ZM133.674 25.5586C133.356 25.1633 132.977 24.385 132.932 24.034C132.897 23.7606 132.926 23.6704 133.189 23.2296C133.424 22.8352 133.491 22.6493 133.514 22.3254C133.551 21.8057 133.445 21.7887 132.958 22.2367C132.676 22.4957 132.562 22.5559 132.35 22.5559C131.928 22.5559 131.883 22.4149 132.171 22.0043C132.306 21.8116 132.463 21.541 132.519 21.4028C132.615 21.1688 132.612 21.1387 132.479 20.9657C132.401 20.8635 132.242 20.7297 132.126 20.6683C131.855 20.5251 131.79 20.6172 131.842 21.0693C131.869 21.3026 131.845 21.4754 131.759 21.6601C131.603 21.9984 131.077 22.4699 130.797 22.5236C130.448 22.5907 129.835 22.3194 129.539 21.9663C129.3 21.682 129.29 21.6497 129.312 21.2083C129.333 20.7744 129.325 20.746 129.176 20.7244C128.993 20.6977 128.63 21.0536 128.563 21.3261C128.469 21.7121 128.917 22.414 129.259 22.414C129.425 22.414 129.392 22.6102 129.191 22.8159C129.037 22.973 128.969 22.9936 128.701 22.9628C128.306 22.9171 128.099 22.7231 127.815 22.1303L127.595 21.6693L127.25 21.6906C126.931 21.7103 126.883 21.6905 126.603 21.4268L126.302 21.1417L126.337 20.6254C126.387 19.8957 126.602 19.3734 127.062 18.8647C127.94 17.8937 129.711 17.4307 131.261 17.7669C131.935 17.9131 132.92 18.5053 133.696 19.231C134.127 19.6344 134.182 19.7382 134.319 20.4058C134.403 20.8184 134.396 20.9114 134.201 21.8608L133.993 22.875L134.142 23.797C134.309 24.8247 134.32 25.1706 134.198 25.5338C134.086 25.8708 133.931 25.8781 133.674 25.5586ZM130.716 21.2635C130.872 21.0358 130.856 20.6635 130.687 20.5708C130.488 20.4619 130.201 20.5594 130.126 20.7612C129.95 21.2368 130.446 21.659 130.716 21.2635ZM128.324 20.2509C128.635 19.9466 128.772 19.8608 128.942 19.8608C129.146 19.8608 129.161 19.8777 129.161 20.109C129.161 20.2455 129.169 20.3569 129.179 20.3564C129.188 20.3559 129.367 20.3084 129.577 20.2509C129.787 20.1933 130.109 20.1458 130.293 20.1453L130.629 20.1445L130.582 19.8608L130.535 19.5771H130.787C130.942 19.5771 131.138 19.6455 131.294 19.7544C131.621 19.9817 131.656 19.9777 131.656 19.7121C131.656 19.2489 131.168 18.7914 130.38 18.515C129.917 18.3523 129.642 18.3384 129.053 18.4478C128.366 18.5754 127.821 18.9931 127.508 19.6322C127.292 20.0753 127.276 20.2487 127.435 20.4551C127.658 20.7454 127.866 20.6975 128.324 20.2509ZM140.467 43.1018C141.298 42.6798 142.495 41.876 142.823 41.5199C143.57 40.7095 144.49 39.1703 144.788 38.2351C144.947 37.7334 144.936 37.3199 144.721 35.8185C144.485 34.1685 144.414 33.8316 144.29 33.783C144.141 33.7245 144.031 33.873 143.801 34.4406C143.503 35.1777 143.14 35.7049 142.435 36.4244C141.267 37.6171 139.063 38.9194 137.705 39.219C136.644 39.453 136.475 39.5183 136.449 39.7032C136.426 39.8693 137.302 41.669 137.679 42.2294C137.919 42.5865 138.339 42.9848 138.782 43.2765C139.238 43.5762 139.609 43.5377 140.467 43.1018ZM137.81 28.2825C137.985 28.1338 138.112 27.7373 138.062 27.4954C138.007 27.2308 137.861 27.0479 137.592 26.9054L137.395 26.8012L137.443 27.2569C137.48 27.6092 137.465 27.7625 137.379 27.9322C137.318 28.053 137.268 28.2212 137.268 28.306C137.268 28.4412 137.295 28.4547 137.487 28.4155C137.607 28.3909 137.752 28.331 137.81 28.2825ZM120.96 25.8117C121.22 25.68 121.435 25.4643 121.903 24.8662C122.247 24.4265 122.509 24.0247 122.509 23.9372C122.509 23.8241 122.438 23.7544 122.241 23.6754L121.974 23.5678L121.677 23.9201C121.151 24.5458 120.689 24.7039 120.329 24.3821C120.196 24.264 120.132 24.1135 120.084 23.8023C120.007 23.3101 119.96 23.246 119.698 23.2773C119.531 23.2973 119.484 23.3559 119.37 23.6906C119.296 23.9052 119.22 24.2899 119.201 24.5455C119.166 25.0106 119.263 25.3286 119.545 25.6797C119.867 26.0793 120.345 26.1239 120.96 25.8117ZM150.207 23.3198C150.446 23.2398 150.767 23.0631 150.926 22.9236C151.213 22.6718 151.213 22.6718 151.177 22.26C151.152 21.9756 151.067 21.7108 150.903 21.4041C150.552 20.7496 150.364 20.7641 149.8 21.4888C149.091 22.3998 147.97 22.4287 147.12 21.5581C146.732 21.1614 146.592 20.8306 146.597 20.3218C146.605 19.537 147.102 18.8256 147.813 18.5809C148.308 18.4104 148.379 18.2269 148.122 17.7782C147.756 17.1398 147.004 16.799 146.556 17.0687C146.14 17.3182 145.619 18.2911 145.438 19.1528C145.263 19.9913 145.992 21.671 146.891 22.4982C147.316 22.89 148.067 23.3015 148.608 23.4394C149.089 23.5622 149.596 23.5242 150.207 23.3198ZM140.469 21.1714C140.529 21.0377 140.521 20.964 140.433 20.8265C140.266 20.5652 140.041 20.5175 139.889 20.7107C139.717 20.9278 139.731 21.1111 139.936 21.3207C140.079 21.4674 140.133 21.4842 140.251 21.4195C140.329 21.3765 140.428 21.2649 140.469 21.1714ZM142.238 20.0557C142.269 19.7797 142.247 19.7116 142.057 19.4901C141.808 19.2001 141.51 19.0399 140.944 18.8931C140.589 18.8006 140.493 18.8016 140.072 18.9014C139.545 19.0266 139.417 19.1055 139.417 19.305C139.417 19.4038 139.296 19.4967 138.976 19.6433C138.544 19.8419 138.446 19.9485 138.446 20.2234C138.446 20.4451 138.586 20.4439 139.194 20.2166C139.853 19.9704 140.077 19.9557 140.599 20.1239C141.111 20.2888 141.117 20.2871 141.091 19.9849C141.072 19.7534 141.088 19.7189 141.217 19.7189C141.304 19.7189 141.512 19.8731 141.725 20.0956C141.922 20.3028 142.111 20.4492 142.144 20.4209C142.177 20.3927 142.219 20.2284 142.238 20.0557ZM147.327 14.7011C147.344 14.2768 147.321 14.1113 147.17 13.5841C146.924 12.7236 146.573 12.0661 146.106 11.5878C145.707 11.1795 145.636 11.1382 144.991 10.9366C144.255 10.7069 144.18 10.6902 143.938 10.7033C143.825 10.7094 143.782 10.7555 143.782 10.8715C143.782 10.9822 143.941 11.1722 144.298 11.4885C144.924 12.0435 145.178 12.3806 145.652 13.287C146.232 14.3968 146.743 14.9661 147.16 14.9668C147.292 14.967 147.318 14.9264 147.327 14.7011ZM123.768 11.4768C124.161 11.2507 124.316 10.9477 124.389 10.2643C124.467 9.54234 124.666 9.11989 125.066 8.83283C125.342 8.6341 125.402 8.62029 125.928 8.63214C126.239 8.63914 126.569 8.6551 126.662 8.6676C126.809 8.68742 126.84 8.65127 126.905 8.38638C127.003 7.98113 127.754 7.03003 128.306 6.6119C129.077 6.02754 129.519 5.93182 130.491 6.13861C131.326 6.31646 131.66 6.45264 132.319 6.88563C133.08 7.38519 133.235 7.43469 133.459 7.2491C133.711 7.04008 133.573 6.83507 132.908 6.43138C132.263 6.04001 132.072 5.85787 132.072 5.63594C132.072 5.10294 133.046 5.14443 134.181 5.72574C134.736 6.01001 135.536 6.57041 135.536 6.67462C135.536 6.83877 136.031 7.79242 136.138 7.83442C136.216 7.86519 136.325 7.80936 136.464 7.66701C136.644 7.48269 136.677 7.39023 136.701 6.99178C136.758 6.0771 136.597 5.78999 135.683 5.17549C134.899 4.64818 134.675 4.59763 133.833 4.75836C133.455 4.83056 133.018 4.89104 132.862 4.89278C132.371 4.89825 131.523 4.63254 131.071 4.33169C129.812 3.49387 129.18 3.4354 127.949 4.043C127.263 4.38144 126.83 4.7458 126.898 4.92719C126.942 5.04429 127.016 5.05061 127.798 5.0044L128.651 4.95408L128.871 5.14408C129.144 5.37931 129.146 5.46595 128.885 5.77096C128.54 6.17231 127.965 6.53385 127.519 6.62911C126.441 6.85929 124.109 8.75558 123.271 10.083C122.792 10.8415 122.741 11.3142 123.116 11.5226C123.373 11.665 123.45 11.6595 123.768 11.4768ZM142.836 9.80449C143.39 9.4219 143.717 9.2793 144.131 9.2409C144.617 9.19576 145.151 9.36184 145.486 9.66261C145.652 9.81262 145.73 9.84657 145.75 9.77888C145.765 9.72629 145.796 9.62706 145.818 9.55837C146.004 8.96792 144.937 7.98623 143.943 7.83368C143.548 7.77304 142.628 7.90509 141.85 8.13413C141.303 8.2951 141.261 8.2981 141.14 8.18531C140.86 7.92636 141.052 7.02421 141.545 6.2823C141.925 5.71004 142.831 4.70904 143.027 4.6455C143.226 4.58069 143.192 4.33999 142.976 4.28441C142.597 4.1871 141.044 4.88515 140.566 5.36717C140.255 5.6812 140.001 6.20236 139.887 6.76108C139.78 7.28144 139.929 7.68975 140.393 8.1454C140.688 8.4348 140.741 8.53218 140.808 8.90168C140.908 9.4559 141.025 9.67481 141.34 9.8985C141.566 10.059 141.656 10.0794 142.051 10.0587C142.423 10.0393 142.56 9.99487 142.836 9.80449ZM7.89935 44.1454C7.80408 44.1283 7.4299 44.0635 7.06784 44.0012C3.98048 43.4702 1.56991 41.5745 0.58591 38.9037C-0.00962472 37.2873 -0.0858188 35.1696 0.390969 33.4856C1.40445 29.906 4.83341 27.3515 9.17351 26.9428C10.1403 26.8517 11.744 26.9344 12.9336 27.1367L13.616 27.2527V29.4466V31.6404L13.4088 31.6195C13.2091 31.5993 13.1899 31.5645 12.8712 30.6411C12.6894 30.1145 12.417 29.4191 12.266 29.0957C11.957 28.4343 11.897 28.3909 11.0001 28.1812C10.635 28.0959 10.1666 28.064 9.28521 28.0643C8.25607 28.0646 7.98871 28.0881 7.51825 28.2193C5.43122 28.8012 3.94171 30.2635 3.20922 32.4497C2.79057 33.6992 2.64435 35.8697 2.88159 37.3132C3.30954 39.9171 4.73771 41.8876 6.77623 42.6867C7.6294 43.0212 8.03601 43.0855 9.25056 43.0784C10.304 43.0721 10.7483 43.0151 11.6238 42.7738L11.9183 42.6926V40.2451V37.7976L11.7464 37.6346C11.6519 37.5449 11.1452 37.3023 10.6204 37.0954C10.0957 36.8886 9.56497 36.6779 9.44111 36.6272C9.25593 36.5514 9.21591 36.4966 9.21591 36.3186C9.21591 36.0546 9.11799 36.0595 11.284 36.2142C12.5609 36.3054 13.0452 36.3115 13.8923 36.247C14.4644 36.2035 15.2366 36.1483 15.6081 36.1244L16.2838 36.0808V36.303C16.2838 36.5184 16.2552 36.5392 15.3554 36.9789C14.6982 37.3001 14.3896 37.4913 14.2987 37.6334C14.1792 37.8204 14.1702 38.0308 14.1687 40.6713L14.1671 43.5082L13.6837 43.6379C12.3711 43.9898 11.2411 44.1342 9.63167 44.1556C8.77417 44.167 7.99463 44.1624 7.89935 44.1454ZM25.6036 44.0434C24.8873 43.8893 24.3257 43.6927 23.7327 43.3885C20.8069 41.8873 19.1517 38.41 19.5377 34.5756C19.76 32.3675 20.4881 30.6875 21.8272 29.2933C23.1971 27.867 24.7586 27.1504 26.9421 26.9463C30.5049 26.6132 33.5252 28.3298 34.7878 31.4056C36.0063 34.3741 35.5265 38.5232 33.6707 41.0643C32.4842 42.689 30.9019 43.7007 28.9568 44.0784C28.1459 44.2358 26.4142 44.2177 25.6036 44.0434ZM29.2122 43.0262C31.8458 42.1572 33.1388 38.9453 32.7015 34.3592C32.3727 30.9115 31.1868 28.8358 29.1349 28.1163C28.3961 27.8573 27.1654 27.7975 26.354 27.9812C24.1799 28.4736 22.6983 30.2766 22.2756 32.9445C22.147 33.7558 22.1467 35.5909 22.2749 36.6696C22.7221 40.4329 24.1517 42.593 26.5737 43.1651C27.239 43.3222 28.5194 43.2548 29.2122 43.0262ZM38.3309 43.6899L38.3534 43.4543L39.4533 43.0787C40.0582 42.8721 40.6257 42.6543 40.7144 42.5949C41.0419 42.3752 41.0457 42.3074 41.073 36.2673C41.1002 30.2514 41.0606 28.98 40.8369 28.6733C40.7047 28.4921 40.6088 28.4501 39.1676 27.9423C38.3338 27.6486 38.3188 27.6395 38.3188 27.429V27.2148L39.3408 27.2627C43.6135 27.4631 45.5681 27.463 50.2371 27.2622L51.3111 27.216V29.1768V31.1376H51.1002C50.8962 31.1376 50.8828 31.1171 50.6924 30.517C50.3201 29.3439 50.0891 28.7941 49.9213 28.6815C49.6567 28.5041 48.1328 28.4341 45.6566 28.4856L43.3974 28.5327L43.3526 29.3852C43.328 29.8542 43.3078 31.2062 43.3078 32.3899V34.5419L45.7157 34.5413C48.0582 34.5408 48.856 34.4866 49.1342 34.3091C49.2559 34.2314 49.4421 33.7969 49.8931 32.5383C50.029 32.1587 50.0544 32.1305 50.2594 32.1305H50.4796V35.1802V38.2299H50.2638H50.0479L49.683 37.1601C49.3124 36.0736 49.1935 35.8736 48.863 35.781C48.7613 35.7524 47.4655 35.7149 45.9836 35.6976L43.2892 35.6662L43.321 39.0751C43.3385 40.95 43.3751 42.5069 43.4024 42.5348C43.4296 42.5626 44.8826 42.5869 46.6312 42.5886C49.7519 42.5916 49.8141 42.5889 50.0064 42.4432C50.2939 42.2253 50.4623 41.8754 50.8628 40.6639C51.2195 39.5845 51.2232 39.5774 51.4305 39.5774H51.6391L51.5976 40.0562C51.5748 40.3195 51.5355 41.2972 51.5103 42.229L51.4645 43.9231L50.9028 43.8802C50.5938 43.8565 49.0432 43.8008 47.4569 43.7563C44.7151 43.6795 41.088 43.7325 38.9545 43.8806L38.3084 43.9254L38.3309 43.6899ZM58.3565 43.6934C58.3783 43.4684 58.3989 43.4547 59.1065 43.1938C60.4428 42.701 60.8421 42.4706 60.99 42.1067C61.0627 41.928 61.0852 40.5395 61.1007 35.2689L61.1201 28.6553L60.096 28.6571C58.1746 28.6605 57.2327 28.8371 57.0196 29.2337C56.9704 29.3252 56.7402 29.9106 56.5079 30.5347C56.091 31.6549 56.0826 31.6698 55.8637 31.6917L55.6419 31.714V29.4643V27.2147L56.6986 27.2619C61.1719 27.4617 63.366 27.4617 67.8201 27.262L68.8768 27.2146V29.4598V31.705H68.6506H68.4244L67.987 30.5073C67.6743 29.6511 67.493 29.2542 67.3511 29.115C67.0351 28.8052 66.5778 28.7242 64.8751 28.6765L63.3334 28.6333L63.3357 34.5841C63.3381 40.7548 63.3749 41.8404 63.5943 42.2265C63.7504 42.5011 64.3267 42.812 65.3775 43.1886C66.1234 43.4559 66.1402 43.4667 66.1622 43.6932L66.1847 43.9247L65.7811 43.8809C65.5591 43.8567 64.6656 43.7991 63.7954 43.7528C62.2887 43.6727 60.165 43.7265 58.7376 43.881L58.334 43.9247L58.3565 43.6934ZM72.0764 43.6913L72.0989 43.4574L73.2545 43.058C73.89 42.8383 74.4732 42.6001 74.5504 42.5286C74.8288 42.2706 74.8417 41.9271 74.8211 35.3163C74.7985 28.0729 74.849 28.6331 74.196 28.3868C73.9953 28.3111 73.4336 28.1145 72.9477 27.9499C72.0717 27.6531 72.0642 27.6488 72.0642 27.4332V27.2159L72.7052 27.2619C75.5111 27.4636 76.3315 27.4635 79.184 27.2613L79.825 27.2159V27.4317V27.6475L78.6519 28.0528C77.3861 28.4901 77.2225 28.5972 77.1184 29.0562C77.0844 29.2063 77.0559 30.5019 77.0549 31.9355L77.0533 34.5419H80.7666H84.48L84.4526 31.7936C84.4339 29.9135 84.3996 28.9838 84.3442 28.8503C84.227 28.5683 83.9387 28.4163 82.7526 28.0113C81.6962 27.6507 81.6959 27.6505 81.6959 27.4331V27.2156L82.3368 27.2625C85.0445 27.461 86.2463 27.4606 88.8209 27.26L89.3977 27.2151L89.3752 27.451L89.3527 27.6868L88.2006 28.0824C87.567 28.3 86.9996 28.5203 86.9398 28.5721C86.6976 28.7817 86.681 29.2838 86.7005 35.7854C86.7163 41.0616 86.7362 42.1994 86.8158 42.3578C86.9347 42.5946 87.0843 42.6659 88.3653 43.096L89.3873 43.4391V43.6816V43.924L88.9889 43.8816C88.7698 43.8583 87.8941 43.8025 87.043 43.7576C85.5776 43.6802 83.51 43.7323 82.0891 43.8825L81.6855 43.9251L81.708 43.6934C81.7305 43.4622 81.7326 43.461 82.7699 43.0926C83.3416 42.8896 83.8757 42.6868 83.9569 42.6419C84.2404 42.4853 84.3381 42.0467 84.4023 40.6413C84.4352 39.9197 84.4634 38.5074 84.4649 37.503L84.4676 35.6767H80.7526H77.0377L77.0744 38.6377C77.0958 40.3548 77.1429 41.7478 77.1866 41.9534C77.3165 42.5641 77.3899 42.6194 78.6521 43.0594L79.7904 43.4561L79.8129 43.6906L79.8353 43.9251L79.4317 43.8825C79.2098 43.859 78.3521 43.8029 77.5257 43.7578C76.0962 43.6797 74.1469 43.7276 72.5268 43.8805L72.0539 43.9252L72.0764 43.6913ZM92.3098 43.6916L92.3323 43.4574L93.4956 43.0553C94.1355 42.8341 94.7199 42.5909 94.7943 42.5147C95.0589 42.2438 95.0751 41.7966 95.0539 35.31C95.0319 28.5406 95.0399 28.6799 94.6634 28.4856C94.5627 28.4336 93.9892 28.2244 93.389 28.0208L92.2976 27.6506V27.4327V27.2148L93.3197 27.2629C97.5103 27.4602 99.8506 27.4601 104.261 27.2624L105.31 27.2153L105.309 29.1765L105.308 31.1376H105.114C104.897 31.1376 104.877 31.0954 104.429 29.7051C104.168 28.8968 104.023 28.6822 103.675 28.5929C103.22 28.476 101.554 28.433 99.4709 28.4845L97.438 28.5347L97.3981 28.79C97.3762 28.9305 97.3376 30.2847 97.3123 31.7994L97.2665 34.5535L99.9963 34.5285C102.349 34.507 102.761 34.4874 102.981 34.3865C103.28 34.2496 103.332 34.153 103.734 32.9993C104.031 32.1448 104.04 32.1305 104.249 32.1305H104.461L104.463 35.1802L104.465 38.2299H104.252C104.04 38.2299 104.037 38.2252 103.737 37.2902C103.571 36.7733 103.391 36.2602 103.336 36.1498C103.131 35.7359 102.997 35.7175 99.996 35.6901L97.266 35.6651L97.311 38.7383C97.3357 40.4286 97.3752 41.9757 97.3987 42.1764L97.4415 42.5413L98.8365 42.591C101.049 42.6699 103.722 42.6145 103.973 42.4844C104.248 42.3426 104.548 41.7223 104.924 40.5172L105.217 39.5775H105.452C105.673 39.5775 105.685 39.5889 105.642 39.7725C105.617 39.8798 105.578 40.8576 105.555 41.9454L105.513 43.9232L104.951 43.8802C104.642 43.8566 103.094 43.8009 101.51 43.7566C98.7725 43.6798 95.2151 43.7315 92.968 43.8806L92.2872 43.9258L92.3098 43.6916Z" fill="#005EA8"/>
</svg>
