<svg width="182" height="104" viewBox="0 0 182 104" fill="none" xmlns="http://www.w3.org/2000/svg">
<path d="M147.243 91.8629C154.436 91.8629 159.604 89.6775 163.618 86.9255C167.36 84.3584 170.261 81.3212 172.486 77.4031C175.363 72.3387 176.249 67.6315 176.492 64.9011C176.493 64.8784 181.776 7.9789 181.776 7.9789L155.113 7.97706C155.113 7.97706 147.235 91.8629 147.243 91.8629Z" fill="#C50E1F"/>
<path d="M122.016 27.0469L118.406 65.4277C117.742 74.6124 121.106 79.3315 123.2 81.8182C127.024 86.3587 134.056 89.9287 142.176 91.4178C142.401 88.9768 149.397 14.6842 149.397 14.6708C149.64 10.8573 148.554 7.52223 146.069 4.61559C143.17 1.2262 138.88 0.210953 137.109 0.210953L73.3556 0.218323C68.5598 0.218323 61.3496 5.19969 61.3496 13.4156C61.3496 23.5677 70.1631 27.0477 73.1956 27.0477C74.7437 27.0477 122.016 27.0469 122.016 27.0469Z" fill="#C50E1F"/>
<path d="M84.8926 84.15L108.634 84.1489L113.491 32.5097L89.7499 32.5104C89.7499 32.5104 85.5073 77.4624 84.8926 84.15Z" fill="#C50E1F"/>
<path d="M164.416 53.818C164.271 55.3431 165.91 56.1636 167.46 56.1655L170.3 56.1679C170.469 55.7488 170.568 55.2729 170.625 54.6817C170.776 53.0616 169.922 51.9557 167.451 51.9531C165.606 51.9521 164.535 52.5423 164.416 53.818ZM172.178 54.8347C172.053 56.1691 171.829 57.1792 171.472 58.2085L158.247 58.197L158.441 56.1572L162.665 56.1608C163.199 56.1619 163.932 56.2195 164.4 56.3346L164.404 56.2957C163.306 55.8002 162.693 54.6745 162.825 53.2829C163.036 51.0344 164.703 49.7975 167.468 49.7992C170.641 49.8018 172.475 51.6904 172.178 54.8347Z" fill="white"/>
<path d="M165.181 43.9217C165.074 45.0644 165.829 45.8658 167.085 46.0396L167.463 42.018C166.175 41.9785 165.294 42.7205 165.181 43.9217ZM169.012 40.0556L168.446 46.0781C170.526 46.1375 171.533 45.2234 171.716 43.2794C171.803 42.3653 171.707 41.4116 171.438 40.5533L172.994 40.2888C173.27 41.2792 173.38 42.4614 173.269 43.6428C172.994 46.5585 171.366 48.1773 168.138 48.1744C165.389 48.1719 163.459 46.5507 163.715 43.8065C163.97 41.1003 165.809 39.9764 167.894 39.9783C168.19 39.9783 168.631 39.9991 169.012 40.0556Z" fill="white"/>
<path d="M166.702 32.8646C166.174 34.7503 167.36 35.6662 170.108 35.6688L173.835 35.6716L173.642 37.7111L164.476 37.7031L164.658 35.7587C165.173 35.7598 165.981 35.8174 166.669 35.9512L166.673 35.9135C165.476 35.4924 164.422 34.5387 164.774 32.7664L166.702 32.8646Z" fill="white"/>
<path d="M174.27 31.0223L160.806 31.0105L160.997 28.9717L174.462 28.9836L174.27 31.0223Z" fill="white"/>
<path d="M174.722 26.1956L165.556 26.1874L165.748 24.1487L174.916 24.157L174.722 26.1956ZM164.028 25.1574C163.962 25.8825 163.37 26.4717 162.669 26.4709C161.987 26.4709 161.49 25.8797 161.557 25.1545C161.623 24.4491 162.234 23.86 162.916 23.86C163.597 23.8608 164.095 24.4521 164.028 25.1574Z" fill="white"/>
<path d="M175.734 15.4541L169.851 15.4486C168.707 15.4476 167.994 15.7715 167.892 16.8576C167.758 18.2881 169.115 19.3361 170.961 19.3378L175.368 19.3414L175.177 21.3812L166.011 21.3729L166.193 19.4288C166.691 19.4296 167.481 19.4685 167.986 19.5638L167.988 19.5447C166.86 18.9916 166.157 17.8472 166.308 16.2458C166.51 14.0927 167.901 13.4269 169.506 13.4287L175.924 13.4341L175.734 15.4541Z" fill="white"/>
<path d="M8.09013 54.9864L7.19215 64.5314H5.44822L6.3462 54.9864H3.38574L3.52779 53.4803H11.2084L11.0664 54.9864H8.09013Z" fill="#C50E1F"/>
<path d="M14.2451 57.5408C13.2853 57.5408 12.5434 58.2774 12.2927 59.4067H15.6691C15.809 58.2605 15.2532 57.5408 14.2451 57.5408ZM17.2035 60.6184H12.1475C11.9246 62.4681 12.6159 63.2869 14.2484 63.2869C15.0166 63.2869 15.8315 63.1232 16.5811 62.8119L16.6772 64.1715C15.814 64.4978 14.8042 64.6951 13.8116 64.6951C11.3638 64.6951 10.1268 63.3851 10.3969 60.5195C10.6261 58.0805 12.1601 56.2308 14.4638 56.2308C16.7362 56.2308 17.535 57.77 17.3611 59.6197C17.3364 59.8817 17.2836 60.2748 17.2035 60.6184Z" fill="#C50E1F"/>
<path d="M21.7957 64.6609C19.7476 64.6609 18.3563 63.6298 18.6288 60.7321C18.8724 58.1453 20.3449 56.2625 23.0012 56.2625C23.6728 56.2625 24.3204 56.3614 24.8274 56.5738L24.3999 58.0636C23.9382 57.8675 23.3599 57.72 22.7685 57.72C21.4247 57.72 20.596 58.8661 20.4388 60.5349C20.2985 62.0258 20.7049 63.1548 22.2731 63.1548C22.8972 63.1548 23.4994 63.0407 24.0195 62.7949L24.138 64.2517C23.4559 64.5306 22.5951 64.6609 21.7957 64.6609Z" fill="#C50E1F"/>
<path d="M30.6828 64.5314L31.1744 59.3084C31.2696 58.2937 31.0552 57.6873 30.1428 57.6873C28.9428 57.6873 27.9414 58.981 27.7874 60.6184L27.4189 64.5314H25.707L26.8311 52.5799H28.5433L28.1952 56.2794C28.1478 56.7875 28.0518 57.458 27.8975 57.9169L27.9274 57.9337C28.4885 56.902 29.4958 56.2308 30.7915 56.2308C32.5994 56.2308 33.0494 57.4094 32.9155 58.8334L32.3793 64.5314H30.6828Z" fill="#C50E1F"/>
<path d="M39.7027 64.5315L40.1939 59.3086C40.2892 58.2938 40.0747 57.6874 39.1623 57.6874C37.9627 57.6874 36.961 58.9811 36.8073 60.6185L36.4388 64.5315H34.7266L35.4924 56.3946H37.1244C37.0826 56.8362 36.9842 57.5409 36.8608 57.9987H36.8766C37.4394 56.9514 38.4672 56.2309 39.811 56.2309C41.6193 56.2309 42.0693 57.4095 41.9354 58.8336L41.3992 64.5315H39.7027Z" fill="#C50E1F"/>
<path d="M45.5033 54.9533C44.8951 54.9533 44.4443 54.4789 44.5026 53.8574C44.5596 53.251 45.1015 52.7598 45.7097 52.7598C46.3015 52.7598 46.7518 53.251 46.6949 53.8574C46.6376 54.4628 46.0951 54.9533 45.5033 54.9533ZM43.7383 64.5314L44.5041 56.3945H46.216L45.4505 64.5314H43.7383Z" fill="#C50E1F"/>
<path d="M49.1412 64.6948C48.533 64.6948 47.8853 64.6121 47.4033 64.4652L47.6708 62.9753C48.148 63.1726 48.7777 63.2866 49.3852 63.2866C50.2818 63.2866 50.9446 62.8775 51.0061 62.2225C51.1633 60.5527 47.5791 61.5675 47.8438 58.7522C47.9782 57.3271 49.1377 56.2306 51.33 56.2306C51.8099 56.2306 52.3636 56.2961 52.8186 56.3943L52.5897 57.8014C52.1401 57.6546 51.6197 57.5729 51.107 57.5729C50.1634 57.5729 49.6785 57.9659 49.6202 58.5877C49.4693 60.1917 53.0717 59.3082 52.8148 62.0425C52.6696 63.5817 51.2536 64.6948 49.1412 64.6948Z" fill="#C50E1F"/>
<path d="M57.4587 64.6609C55.4107 64.6609 54.0194 63.6298 54.2919 60.7321C54.5355 58.1453 56.008 56.2625 58.6643 56.2625C59.3362 56.2625 59.9835 56.3614 60.4905 56.5738L60.063 58.0636C59.6013 57.8675 59.0229 57.72 58.4316 57.72C57.0877 57.72 56.259 58.8661 56.1018 60.5349C55.9616 62.0258 56.368 63.1548 57.9361 63.1548C58.5603 63.1548 59.1625 63.0407 59.6826 62.7949L59.801 64.2517C59.119 64.5306 58.2582 64.6609 57.4587 64.6609Z" fill="#C50E1F"/>
<path d="M66.3459 64.5314L66.8375 59.3084C66.9327 58.2937 66.7183 57.6873 65.8059 57.6873C64.6059 57.6873 63.6045 58.981 63.4505 60.6184L63.082 64.5314H61.3701L62.4942 52.5799H64.2064L63.8583 56.2794C63.8109 56.7875 63.7149 57.458 63.5606 57.9169L63.5905 57.9337C64.1516 56.902 65.1589 56.2308 66.4546 56.2308C68.2625 56.2308 68.7125 57.4094 68.5786 58.8334L68.0424 64.5314H66.3459Z" fill="#C50E1F"/>
<path d="M73.9589 57.5405C72.999 57.5405 72.2572 58.2772 72.0069 59.4065H75.3829C75.5232 58.2602 74.9673 57.5405 73.9589 57.5405ZM76.9172 60.6182H71.8612C71.6384 62.4679 72.3299 63.2866 73.9621 63.2866C74.7303 63.2866 75.5457 63.1229 76.2949 62.8116L76.3913 64.1713C75.5281 64.4976 74.518 64.6948 73.5258 64.6948C71.0775 64.6948 69.841 63.3849 70.1106 60.5192C70.3403 58.0803 71.8739 56.2306 74.178 56.2306C76.45 56.2306 77.2492 57.7697 77.0751 59.6195C77.0505 59.8815 76.9978 60.2745 76.9172 60.6182Z" fill="#C50E1F"/>
<path d="M3.77613 84.343C0.383909 84.343 -0.157553 82.4436 0.0337171 80.4132L0.718984 73.1283H2.46292L1.78995 80.2826C1.65143 81.7555 2.02658 82.8693 4.02612 82.8693C5.78658 82.8693 6.65748 82.1172 6.85157 80.0533L7.50308 73.1283H9.21538L8.57616 79.9227C8.2991 82.8693 6.60827 84.343 3.77613 84.343Z" fill="#C50E1F"/>
<path d="M15.5456 84.1775L16.0368 78.9547C16.132 77.9398 15.9175 77.3334 15.0052 77.3334C13.8054 77.3334 12.8038 78.6271 12.6495 80.2645L12.2817 84.1775H10.5693L11.3348 76.0407H12.9673C12.9254 76.4823 12.8266 77.1869 12.7035 77.6447H12.7194C13.2823 76.5975 14.31 75.8769 15.6539 75.8769C17.4621 75.8769 17.9118 77.0563 17.7778 78.4796L17.2416 84.1775H15.5456Z" fill="#C50E1F"/>
<path d="M21.3451 74.5992C20.7368 74.5992 20.2857 74.1249 20.3444 73.5034C20.4014 72.897 20.9432 72.4058 21.5518 72.4058C22.1432 72.4058 22.5936 72.897 22.5366 73.5034C22.4793 74.1087 21.9364 74.5992 21.3451 74.5992ZM19.5801 84.1772L20.3454 76.0405H22.0581L21.2923 84.1772H19.5801Z" fill="#C50E1F"/>
<path d="M27.3874 84.1775H25.6435L23.4326 76.0407H25.3207L26.4036 80.3466C26.527 80.9034 26.6656 81.4767 26.7591 82.0164H26.7749C26.95 81.509 27.1807 80.9358 27.3899 80.4114L29.3212 76.0407H31.1607L27.3874 84.1775Z" fill="#C50E1F"/>
<path d="M35.1831 77.1886C34.2233 77.1886 33.4818 77.9253 33.2315 79.0546H36.6075C36.7478 77.9084 36.1916 77.1886 35.1831 77.1886ZM38.1416 80.2662H33.0856C32.863 82.1171 33.5546 82.9347 35.1867 82.9347C35.955 82.9347 36.7703 82.771 37.5195 82.4597L37.6159 83.8193C36.7527 84.1457 35.7426 84.3429 34.7504 84.3429C32.3022 84.3429 31.0656 83.033 31.3353 80.1684C31.5649 77.7284 33.0985 75.8786 35.4026 75.8786C37.6746 75.8786 38.4738 77.4178 38.2997 79.2677C38.2751 79.5296 38.2224 79.9226 38.1416 80.2662Z" fill="#C50E1F"/>
<path d="M44.4357 77.612C42.8813 77.3007 42.0075 78.43 41.7779 80.87L41.4668 84.1772H39.7549L40.5203 76.0405H42.1528C42.1095 76.4982 41.9931 77.2191 41.8229 77.8406H41.8546C42.3096 76.744 43.2058 75.7292 44.6776 75.8929L44.4357 77.612Z" fill="#C50E1F"/>
<path d="M46.8945 84.3429C46.2862 84.3429 45.6382 84.2609 45.1562 84.1133L45.4238 82.6234C45.9013 82.8207 46.531 82.9347 47.1382 82.9347C48.0347 82.9347 48.6975 82.5256 48.7594 81.8705C48.9162 80.2007 45.332 81.2156 45.5971 78.4003C45.7311 76.9752 46.891 75.8786 49.0833 75.8786C49.5632 75.8786 50.1169 75.9441 50.5719 76.0424L50.3423 77.4502C49.8933 77.3027 49.3723 77.221 48.86 77.221C47.9159 77.221 47.4314 77.614 47.3731 78.2358C47.2222 79.8398 50.8247 78.9564 50.5677 81.6906C50.4228 83.2298 49.0066 84.3429 46.8945 84.3429Z" fill="#C50E1F"/>
<path d="M53.8793 74.5992C53.2706 74.5992 52.8198 74.1249 52.8783 73.5034C52.9356 72.897 53.4774 72.4058 54.0856 72.4058C54.677 72.4058 55.1278 72.897 55.0704 73.5034C55.0135 74.1087 54.4706 74.5992 53.8793 74.5992ZM52.1143 84.1772L52.8796 76.0405H54.5919L53.8261 84.1772H52.1143Z" fill="#C50E1F"/>
<path d="M58.9004 84.3269C57.2046 84.3269 56.7556 83.6557 56.9265 81.8383L57.3442 77.4018H55.8242L55.9522 76.0426H57.4722L57.7151 73.4558L59.4721 72.9807L59.1841 76.0426H61.2642L61.1362 77.4018H59.0565L58.6898 81.2985C58.5755 82.5095 58.7847 82.837 59.5846 82.837C59.9373 82.837 60.278 82.7874 60.5712 82.7218L60.5831 84.1297C60.0923 84.2448 59.4285 84.3269 58.9004 84.3269Z" fill="#C50E1F"/>
<path d="M67.764 74.5039C67.2201 74.5039 66.8291 74.0613 66.8814 73.5053C66.9325 72.9644 67.4064 72.5229 67.9503 72.5229C68.4778 72.5229 68.869 72.9644 68.8181 73.5053C68.7657 74.0613 68.2913 74.5039 67.764 74.5039ZM64.6119 74.5039C64.0679 74.5039 63.6939 74.0613 63.7462 73.5053C63.7973 72.9644 64.2543 72.5229 64.7983 72.5229C65.3426 72.5229 65.7328 72.9644 65.6818 73.5053C65.6294 74.0613 65.1561 74.5039 64.6119 74.5039ZM66.8526 80.4462C64.4846 80.4462 63.7674 81.1012 63.6949 81.8705C63.6363 82.4931 64.0072 82.9671 64.6797 82.9671C65.8312 82.9671 66.7232 81.8209 66.8322 80.6596L66.8526 80.4462ZM66.6139 84.1792C66.6631 83.6555 66.73 83.1146 66.8355 82.6731L66.8206 82.657C66.3463 83.6221 65.2863 84.3429 64.0223 84.3429C62.6623 84.3429 61.8863 83.4097 62.0111 82.0836C62.1834 80.2501 64.0511 79.2677 66.9634 79.2677L66.9958 78.9239C67.1033 77.7778 66.7545 77.2379 65.5866 77.2379C64.8507 77.2379 63.8676 77.4827 63.1327 77.8112L62.9566 76.4516C63.787 76.1241 64.8984 75.8786 65.9543 75.8786C68.2749 75.8786 68.8926 76.959 68.7266 78.727L68.4232 81.9523C68.3571 82.657 68.2942 83.4907 68.2618 84.1792H66.6139Z" fill="#C50E1F"/>
<path d="M73.2633 84.3269C71.5679 84.3269 71.1189 83.6557 71.2898 81.8383L71.7071 77.4018H70.1875L70.3151 76.0426H71.8351L72.0781 73.4558L73.8354 72.9807L73.5474 76.0426H75.6271L75.4991 77.4018H73.4195L73.053 81.2985C72.9388 82.5095 73.148 82.837 73.9479 82.837C74.3002 82.837 74.6409 82.7874 74.9345 82.7218L74.9464 84.1297C74.4552 84.2448 73.7917 84.3269 73.2633 84.3269Z" fill="#C50E1F"/>
<path d="M38.4681 94.136C38.0041 94.136 37.5382 94.1536 37.1528 94.1691L36.8427 97.4609C37.13 97.4767 37.4014 97.4767 37.7695 97.4767C39.3851 97.4767 40.2012 96.8048 40.3056 95.6921C40.3903 94.791 39.9561 94.136 38.4681 94.136ZM37.6767 98.8032C37.5168 98.8032 36.9566 98.8032 36.7154 98.819L36.3821 102.356C36.651 102.387 37.239 102.437 37.6546 102.437C39.2385 102.437 40.0507 101.634 40.1523 100.555C40.2691 99.3092 39.293 98.8032 37.6767 98.8032ZM37.4229 103.878C36.6873 103.878 35.6982 103.844 34.5 103.829L35.5397 92.7781C36.3891 92.7617 37.592 92.7281 38.9038 92.7281C41.2081 92.7281 42.3319 93.7102 42.1712 95.4128C42.065 96.5432 41.3344 97.508 40.1748 97.9345L40.1717 97.9669C41.3994 98.1806 42.1371 99.1793 42.014 100.489C41.8646 102.077 40.6066 103.878 37.4229 103.878Z" fill="#C50E1F"/>
<path d="M47.3671 96.8374C46.4072 96.8374 45.6654 97.5744 45.4151 98.703H48.7911C48.9314 97.5568 48.3756 96.8374 47.3671 96.8374ZM50.3255 99.9154H45.2695C45.0466 101.765 45.7382 102.583 47.3703 102.583C48.1386 102.583 48.9539 102.419 49.7032 102.109L49.7995 103.468C48.9363 103.795 47.9261 103.991 46.934 103.991C44.4858 103.991 43.2492 102.682 43.5188 99.8168C43.7485 97.3772 45.2821 95.5271 47.5862 95.5271C49.8582 95.5271 50.6574 97.0666 50.4833 98.9167C50.4587 99.1784 50.406 99.5717 50.3255 99.9154Z" fill="#C50E1F"/>
<path d="M56.6177 97.2627C55.0634 96.9514 54.1896 98.081 53.96 100.52L53.6489 103.828H51.9365L52.702 95.6911H54.3345C54.2912 96.1489 54.1751 96.8693 54.005 97.4923H54.0363C54.4913 96.3939 55.3875 95.3798 56.8593 95.5446L56.6177 97.2627Z" fill="#C50E1F"/>
<path d="M57.5615 103.828L58.6859 91.8761H60.3982L59.2741 103.828H57.5615Z" fill="#C50E1F"/>
<path d="M63.3943 94.2495C62.7861 94.2495 62.3349 93.7758 62.3934 93.154C62.4506 92.5476 62.9925 92.056 63.6007 92.056C64.1925 92.056 64.6429 92.5476 64.5855 93.154C64.5286 93.7593 63.9857 94.2495 63.3943 94.2495ZM61.6289 103.828L62.3947 95.6911H64.107L63.3416 103.828H61.6289Z" fill="#C50E1F"/>
<path d="M70.6617 103.828L71.1529 98.6049C71.2481 97.5897 71.0337 96.9836 70.1213 96.9836C68.9217 96.9836 67.9199 98.2778 67.7663 99.9152L67.3978 103.828H65.6855L66.451 95.691H68.0834C68.0415 96.1333 67.9432 96.8372 67.8198 97.2957H67.8355C68.3984 96.2473 69.4262 95.5269 70.77 95.5269C72.5783 95.5269 73.0283 96.7062 72.8943 98.1295L72.3578 103.828H70.6617Z" fill="#C50E1F"/>
</svg>
