<svg width="154" height="76" viewBox="0 0 154 76" fill="none" xmlns="http://www.w3.org/2000/svg">
<path d="M73.1173 0.943115H0.382812V75.4259H73.1173V0.943115Z" fill="#2F854C"/>
<path d="M153.758 0.943115H81.0234V75.4259H153.758V0.943115Z" fill="#2F854C"/>
<path d="M44.3708 59.9441V44.0801H52.9583V60.8164C52.9583 62.0038 53.2234 62.8494 53.7548 63.3532C54.2887 63.8579 55.002 64.1097 55.8931 64.1097C56.7863 64.1097 57.5054 63.8579 58.0499 63.3532C58.5942 62.8494 58.8701 62.0038 58.8701 60.8164V44.0801H67.4168V59.9441C67.4168 61.8374 67.1385 63.4457 66.5811 64.7721C66.0254 66.0983 65.2427 67.1754 64.2408 68.0103C63.2364 68.8452 62.0215 69.4504 60.5972 69.8261C59.1719 70.2071 57.6031 70.3958 55.8934 70.3958C54.209 70.3958 52.6593 70.2071 51.247 69.8261C49.8355 69.4506 48.6198 68.8452 47.6051 68.0103C46.5877 67.1754 45.7936 66.0983 45.2257 64.7721C44.6544 63.4457 44.3708 61.8374 44.3708 59.9441ZM29.2037 63.9201C29.2037 64.0956 29.288 64.1844 29.4628 64.1844C29.5846 64.1844 29.648 64.0953 29.648 63.9201C29.8707 62.2531 30.1558 60.4311 30.5029 58.4487C30.8515 56.4674 31.195 54.5358 31.5439 52.6541C31.891 50.7761 32.2256 49.0643 32.5466 47.5272C32.8692 45.9845 33.117 44.8391 33.2919 44.0798H41.3211V69.7145H36.4895V48.1324C36.4895 48.005 36.4009 47.9428 36.2286 47.9428C36.1304 47.9428 36.0798 48.005 36.0798 48.1324C35.8824 49.14 35.6702 50.2704 35.4485 51.5209C35.2232 52.7696 34.952 54.233 34.6283 55.9119C34.3067 57.5914 33.9171 59.554 33.4596 61.7989C33.0012 64.0473 32.4613 66.6839 31.842 69.7145H26.8216C26.2034 66.7354 25.6762 64.1603 25.2423 61.9885C24.8066 59.8193 24.4293 57.9146 24.1074 56.2714C23.7866 54.632 23.5003 53.1677 23.2525 51.8798C23.0065 50.5928 22.7576 49.343 22.5089 48.1326C22.5089 48.0052 22.4219 47.943 22.248 47.943C22.1505 47.943 22.1002 48.0052 22.1002 48.1326V69.7147H17.6773V44.0801H25.743C25.8674 44.6347 26.0177 45.3529 26.19 46.2386C26.3614 47.1243 26.5562 48.1123 26.7648 49.2115C26.977 50.3064 27.1918 51.4831 27.4171 52.7293C27.6389 53.9825 27.8624 55.2554 28.0859 56.5567C28.3094 57.8562 28.5129 59.1318 28.6999 60.3823C28.8855 61.6299 29.0534 62.8102 29.2037 63.9201ZM5.55859 44.0801H8.01191V67.8214H15.149V69.7147H5.55859V44.0801Z" fill="white"/>
<path d="M86.375 39.6872V34.2433H87.3663V38.8799H90.01V39.6872H86.375Z" fill="white"/>
<path d="M93.6279 39.7982C92.4834 39.7982 91.4043 39.3772 91.4043 37.5098V34.2432H92.3992V37.6032C92.3992 38.4666 92.8035 39.0497 93.6281 39.0497C94.4387 39.0497 94.8343 38.5049 94.8343 37.6032V34.2432H95.8283V37.5098C95.828 39.2445 94.727 39.7982 93.6279 39.7982Z" fill="white"/>
<path d="M99.4099 35.0131H98.8456V38.91H99.4099C100.54 38.91 101.159 38.3973 101.159 36.9269C101.159 35.6514 100.561 35.0131 99.4099 35.0131ZM99.4551 39.687H97.8516V34.2432H99.4551C101.349 34.2432 102.196 35.3629 102.196 36.9267C102.196 38.7159 101.173 39.687 99.4551 39.687Z" fill="white"/>
<path d="M109.078 39.6872H108.022L106.992 35.8677L105.961 39.6872H104.908L103.289 34.2433H104.395L105.481 38.505L106.504 34.6865H107.556L108.575 38.505L109.651 34.2433H110.69L109.078 39.6872Z" fill="white"/>
<path d="M113.188 34.2432H112.195V39.687H113.188V34.2432Z" fill="white"/>
<path d="M117.619 39.7969C116 39.7969 115.031 38.6594 115.031 36.9174C115.031 35.0339 116.382 34.1322 117.619 34.1322C118.491 34.1322 119.055 34.4125 119.415 34.7392L119.009 35.5012C118.719 35.1665 118.324 34.863 117.619 34.863C116.725 34.863 116.061 35.681 116.061 36.9174C116.061 38.1848 116.725 39.0643 117.664 39.0643C118.207 39.0643 118.521 38.9237 118.65 38.8009V37.415H117.458V36.6683H119.606V39.2826C119.146 39.5699 118.528 39.7969 117.619 39.7969Z" fill="white"/>
<path d="M123.058 36.9094H120.973V37.5869H123.058V36.9094Z" fill="white"/>
<path d="M91.1968 49.6929L91.0142 45.554L89.6602 48.9453H88.7584L87.3766 45.554L87.2158 49.6929H86.2461L86.5591 44.2456H87.7976L89.2551 47.8547L90.6394 44.2456H91.876L92.1881 49.6929H91.1968Z" fill="white"/>
<path d="M96.0969 45.2585L95.2647 47.6385H96.9449L96.0969 45.2585ZM97.67 49.6929L97.2038 48.3686H95.021L94.5479 49.6929H93.5L95.6236 44.2456H96.6637L98.7708 49.6929H97.67Z" fill="white"/>
<path d="M103.651 49.6929L102.208 47.4961L100.735 49.6929H99.543L101.59 46.8695L99.703 44.2456H100.948L102.262 46.2679L103.545 44.2456H104.737L102.857 46.8695L104.896 49.6929H103.651Z" fill="white"/>
<path d="M107.349 44.2456H106.355V49.6929H107.349V44.2456Z" fill="white"/>
<path d="M114.301 49.6929L114.115 45.554L112.764 48.9453H111.862L110.48 45.554L110.319 49.6929H109.35L109.664 44.2456H110.901L112.359 47.8547L113.742 44.2456H114.98L115.292 49.6929H114.301Z" fill="white"/>
<path d="M118.284 44.2456H117.293V49.6929H118.284V44.2456Z" fill="white"/>
<path d="M124.054 49.6929V48.8829H121.412V44.2456H120.418V49.6929H124.054Z" fill="white"/>
<path d="M126.732 44.2456H125.74V49.6929H126.732V44.2456Z" fill="white"/>
<path d="M130.806 45.2585L129.973 47.6385H131.653L130.806 45.2585ZM132.379 49.6929L131.913 48.3686H129.728L129.255 49.6929H128.209L130.331 44.2456H131.37L133.48 49.6929H132.379Z" fill="white"/>
<path d="M138.13 49.6929L135.901 45.6324V49.6929H134.922V44.2456H136.221L138.452 48.3061V44.2456H139.428V49.6929H138.13Z" fill="white"/>
<path d="M145.085 48.1811C145.085 47.3587 144.597 46.9688 143.993 46.7036L142.94 46.2461C142.61 46.1055 142.267 45.9184 142.267 45.5287C142.267 45.2172 142.534 44.8684 143.122 44.8684C143.788 44.8684 144.162 45.171 144.467 45.5538L144.888 44.8773C144.503 44.4099 143.833 44.1367 143.122 44.1367C142.267 44.1367 141.25 44.6503 141.25 45.7005C141.25 46.3707 141.693 46.8132 142.267 47.0625L143.32 47.5209C143.733 47.7007 144.046 47.9019 144.046 48.331C144.046 48.6799 143.733 49.0697 143.061 49.0697C142.381 49.0697 141.94 48.7582 141.555 48.3151L141.137 48.9986C141.388 49.3031 141.992 49.7998 143.046 49.7998C144.649 49.7994 145.085 48.7418 145.085 48.1811Z" fill="white"/>
<path d="M148.448 46.912H146.363V47.5903H148.448V46.912Z" fill="white"/>
<path d="M88.5215 59.8016C87.3745 59.8016 86.2988 59.3789 86.2988 57.5141V54.2456H87.2902V57.6048C87.2902 58.4681 87.6953 59.0538 88.5215 59.0538C89.3294 59.0538 89.7277 58.5089 89.7277 57.6048V54.2456H90.719V57.5141C90.719 59.2479 89.6215 59.8016 88.5215 59.8016Z" fill="white"/>
<path d="M95.9559 59.6904L93.7245 55.6287V59.6904H92.7461V54.2456H94.0453L96.276 58.3061V54.2456H97.2518V59.6904H95.9559Z" fill="white"/>
<path d="M100.373 54.2456H99.3789V59.6904H100.373V54.2456Z" fill="white"/>
<path d="M104.871 59.6904H103.819L101.693 54.2456H102.817L104.368 58.6641L105.919 54.2456H106.995L104.871 59.6904Z" fill="white"/>
<path d="M108.471 59.6904V54.2456H112.054V55.0395H109.465V56.4709H111.848V57.2488H109.465V58.8831H112.154V59.6904H108.471Z" fill="white"/>
<path d="M115.701 55.0146H114.845V56.5956H115.701C116.467 56.5956 116.656 56.2146 116.656 55.7625C116.656 55.3512 116.342 55.0146 115.701 55.0146ZM116.931 59.6904L115.855 58.05C115.58 57.6298 115.342 57.3407 115.092 57.3407H114.845V59.6904H113.854V54.2456H115.893C116.832 54.2456 117.68 54.7503 117.68 55.7623C117.68 56.7886 116.778 57.1714 116.32 57.2247C116.474 57.3252 116.671 57.5897 116.741 57.692L118.117 59.6904H116.931Z" fill="white"/>
<path d="M121.08 59.8025C120.026 59.8025 119.423 59.3024 119.17 59.0014L119.59 58.316C119.974 58.7592 120.416 59.0706 121.095 59.0706C121.768 59.0706 122.081 58.6808 122.081 58.3319C122.081 57.9019 121.768 57.7001 121.355 57.5219L120.302 57.0625C119.728 56.8132 119.285 56.3709 119.285 55.7005C119.285 54.6503 120.302 54.1367 121.156 54.1367C121.868 54.1367 122.538 54.4081 122.922 54.8755L122.502 55.552C122.196 55.1719 121.822 54.8693 121.156 54.8693C120.568 54.8693 120.302 55.2182 120.302 55.5296C120.302 55.9195 120.645 56.1064 120.974 56.2463L122.026 56.7047C122.63 56.97 123.12 57.3589 123.12 58.1822C123.12 58.7432 122.684 59.8025 121.08 59.8025Z" fill="white"/>
<path d="M125.9 54.2456H124.906V59.6904H125.9V54.2456Z" fill="white"/>
<path d="M130.17 55.0557V59.6904H129.179V55.0557H127.383V54.2456H131.965V55.0557H130.17Z" fill="white"/>
<path d="M136.106 53.751C135.823 53.751 135.588 53.5018 135.588 53.2276C135.588 52.9569 135.817 52.7079 136.106 52.7079C136.396 52.7079 136.625 52.9572 136.625 53.2276C136.625 53.502 136.39 53.751 136.106 53.751ZM135.357 55.2597L134.524 57.6389H136.205L135.357 55.2597ZM134.631 53.751C134.349 53.751 134.113 53.5018 134.113 53.2276C134.113 52.9569 134.341 52.7079 134.631 52.7079C134.923 52.7079 135.152 52.9572 135.152 53.2276C135.152 53.502 134.914 53.751 134.631 53.751ZM136.932 59.6926L136.466 58.3708H134.28L133.808 59.6926H132.762L134.884 54.2478H135.924L138.031 59.6926H136.932Z" fill="white"/>
<path d="M141.611 55.0557V59.6904H140.62V55.0557H138.826V54.2456H143.408V55.0557H141.611Z" fill="white"/>
<path d="M91.1968 69.6947L91.0142 65.5585L89.6602 68.9498H88.7584L87.3766 65.5585L87.2158 69.6947H86.2461L86.5591 64.2501H87.7976L89.2551 67.8592L90.6394 64.2501H91.876L92.1881 69.6947H91.1968Z" fill="white"/>
<path d="M96.9692 63.7497C96.685 63.7497 96.4483 63.5004 96.4483 63.229C96.4483 62.9577 96.6787 62.7084 96.9692 62.7084C97.258 62.7084 97.4962 62.9577 97.4962 63.229C97.4962 63.5004 97.2493 63.7497 96.9692 63.7497ZM95.4935 63.7497C95.2125 63.7497 94.9752 63.5004 94.9752 63.229C94.9752 62.9577 95.2038 62.7084 95.4935 62.7084C95.7831 62.7084 96.0213 62.9577 96.0213 63.229C96.0213 63.5004 95.7769 63.7497 95.4935 63.7497ZM96.3047 69.8024C95.1578 69.8024 94.082 69.3841 94.082 67.5149V64.2483H95.0734V67.6102C95.0734 68.4735 95.4786 69.0576 96.3047 69.0576C97.1126 69.0576 97.5109 68.5118 97.5109 67.6102V64.2483H98.5022V67.5149C98.5024 69.2506 97.4049 69.8024 96.3047 69.8024Z" fill="white"/>
<path d="M103.737 69.6947L101.506 65.636V69.6947H100.527V64.2501H101.827L104.057 68.3116V64.2501H105.033V69.6947H103.737Z" fill="white"/>
<path d="M109.38 69.8024C107.654 69.8024 106.844 68.4344 106.844 66.9318C106.844 65.4614 107.828 64.1387 109.38 64.1387C110.145 64.1387 110.74 64.3968 111.145 64.8311L110.755 65.5877C110.456 65.245 110.161 64.8863 109.395 64.8863C108.493 64.8863 107.883 65.7818 107.883 66.9318C107.883 68.0604 108.54 69.0573 109.404 69.0573C110.039 69.0573 110.456 68.8384 110.907 68.3471L111.289 69.1259C110.67 69.6092 110.221 69.8024 109.38 69.8024Z" fill="white"/>
<path d="M116.215 69.6948V67.2293H113.833V69.6948H112.84V64.2502H113.833V66.4842H116.215V64.2502H117.208V69.6948H116.215Z" fill="white"/>
<path d="M119.311 69.6947V64.2501H122.893V65.0449H120.304V66.4752H122.686V67.254H120.304V68.8874H122.992V69.6947H119.311Z" fill="white"/>
<path d="M127.902 69.6948L125.672 65.6361V69.6948H124.693V64.2502H125.991L128.223 68.3117V64.2502H129.201V69.6948H127.902Z" fill="white"/>
</svg>
