<svg width="250" height="34" viewBox="0 0 250 34" fill="none" xmlns="http://www.w3.org/2000/svg">
<path d="M23.4374 25.7358H19.188V19.9827H4.24946V25.7358H0V14.0171C0 12.3064 0.294194 10.732 0.882581 9.29369C1.47097 7.85541 2.28817 6.6187 3.33419 5.58358C4.38021 4.54845 5.61692 3.74214 7.0443 3.16465C8.47168 2.58716 10.0298 2.29842 11.7187 2.29842H21.2963C21.5905 2.29842 21.8684 2.3529 22.1299 2.46186C22.3914 2.57082 22.6202 2.72336 22.8163 2.91949C23.0125 3.11562 23.165 3.34444 23.274 3.60594C23.3829 3.86745 23.4374 4.1453 23.4374 4.43949V25.7358ZM4.24946 15.7333H19.188V6.54788H11.7187C11.588 6.54788 11.3101 6.56967 10.8852 6.61326C10.4711 6.64594 9.98624 6.73856 9.43054 6.8911C8.88573 7.04365 8.30824 7.27792 7.69806 7.5939C7.08788 7.90989 6.52674 8.34573 6.01462 8.90143C5.50251 9.45713 5.07756 10.1545 4.73978 10.9935C4.4129 11.8216 4.24946 12.8295 4.24946 14.0171V15.7333Z" fill="#1E417C"/>
<path d="M47.2998 19.7702C47.2998 20.5003 47.2072 21.1595 47.0219 21.7479C46.8367 22.3254 46.5915 22.8375 46.2864 23.2842C45.9814 23.7201 45.6272 24.096 45.2241 24.412C44.8209 24.7171 44.396 24.9677 43.9492 25.1638C43.5134 25.3599 43.0721 25.507 42.6254 25.6051C42.1786 25.6922 41.7537 25.7358 41.3505 25.7358H33.6852V21.4864H41.3505C41.9171 21.4864 42.3421 21.3393 42.6254 21.0451C42.9087 20.7509 43.0503 20.3259 43.0503 19.7702V14.0498C43.0503 13.4614 42.9032 13.0256 42.609 12.7423C42.3257 12.459 41.9062 12.3173 41.3505 12.3173H33.7178C33.1404 12.3173 32.7045 12.4644 32.4103 12.7586C32.1161 13.0419 31.969 13.4614 31.969 14.0171V31.2601H27.7196V14.0171C27.7196 13.2871 27.8122 12.6333 27.9974 12.0558C28.1826 11.4783 28.4278 10.9717 28.7329 10.5358C29.0489 10.0891 29.4085 9.71318 29.8116 9.40809C30.2148 9.09211 30.6343 8.83605 31.0701 8.63992C31.5168 8.44379 31.9636 8.30214 32.4103 8.21498C32.868 8.11691 33.2929 8.06788 33.6852 8.06788H41.3505C42.0806 8.06788 42.7343 8.1605 43.3118 8.34573C43.8893 8.53096 44.396 8.77612 44.8318 9.08121C45.2786 9.3863 45.6545 9.74042 45.9596 10.1436C46.2755 10.5467 46.5316 10.9717 46.7277 11.4184C46.9239 11.8543 47.0655 12.2955 47.1527 12.7423C47.2507 13.189 47.2998 13.614 47.2998 14.0171V19.7702Z" fill="#1E417C"/>
<path d="M70.4103 19.7702C70.4103 20.5003 70.3177 21.1595 70.1325 21.7479C69.9472 22.3254 69.7021 22.8375 69.397 23.2842C69.0919 23.7201 68.7378 24.096 68.3346 24.412C67.9315 24.7171 67.5065 24.9677 67.0598 25.1638C66.6239 25.3599 66.1826 25.507 65.7359 25.6051C65.2892 25.6922 64.8642 25.7358 64.4611 25.7358H56.7957V21.4864H64.4611C65.0277 21.4864 65.4526 21.3393 65.7359 21.0451C66.0192 20.7509 66.1609 20.3259 66.1609 19.7702V14.0498C66.1609 13.4614 66.0138 13.0256 65.7196 12.7423C65.4363 12.459 65.0168 12.3173 64.4611 12.3173H56.8284C56.2509 12.3173 55.815 12.4644 55.5209 12.7586C55.2267 13.0419 55.0796 13.4614 55.0796 14.0171V31.2601H50.8301V14.0171C50.8301 13.2871 50.9227 12.6333 51.1079 12.0558C51.2932 11.4783 51.5383 10.9717 51.8434 10.5358C52.1594 10.0891 52.519 9.71318 52.9221 9.40809C53.3253 9.09211 53.7448 8.83605 54.1806 8.63992C54.6274 8.44379 55.0741 8.30214 55.5209 8.21498C55.9785 8.11691 56.4034 8.06788 56.7957 8.06788H64.4611C65.1911 8.06788 65.8449 8.1605 66.4224 8.34573C66.9998 8.53096 67.5065 8.77612 67.9424 9.08121C68.3891 9.3863 68.765 9.74042 69.0701 10.1436C69.3861 10.5467 69.6421 10.9717 69.8383 11.4184C70.0344 11.8543 70.176 12.2955 70.2632 12.7423C70.3613 13.189 70.4103 13.614 70.4103 14.0171V19.7702Z" fill="#1E417C"/>
<path d="M81.8021 25.7358H79.9062C79.296 25.7358 78.6423 25.6323 77.9449 25.4253C77.2585 25.2183 76.6156 24.8805 76.0163 24.412C75.417 23.9325 74.9213 23.3169 74.529 22.5651C74.1368 21.8024 73.9406 20.8707 73.9406 19.7702V0.598633H78.1901V19.7702C78.1901 20.2933 78.3535 20.7128 78.6804 21.0287C79.0073 21.3338 79.4159 21.4864 79.9062 21.4864H81.8021V25.7358Z" fill="#1E417C"/>
<path d="M104.014 27.4356C104.014 28.1657 103.921 28.8194 103.736 29.3969C103.551 29.9853 103.306 30.4974 103 30.9333C102.695 31.38 102.341 31.7559 101.938 32.061C101.535 32.377 101.11 32.633 100.663 32.8292C100.227 33.0253 99.7861 33.1669 99.3393 33.2541C98.8926 33.3522 98.4677 33.4012 98.0645 33.4012H90.3991V29.1517H98.0645C98.6311 29.1517 99.056 29.0047 99.3393 28.7105C99.6226 28.4163 99.7643 27.9913 99.7643 27.4356V8.06788H104.014V27.4356ZM98.0645 25.7358H90.3991C89.7889 25.7358 89.1352 25.6323 88.4378 25.4253C87.7514 25.2183 87.1085 24.8805 86.5092 24.412C85.91 23.9325 85.4142 23.3169 85.0219 22.5651C84.6297 21.8024 84.4335 20.8707 84.4335 19.7702V8.06788H88.683V19.7702C88.683 20.3259 88.8301 20.7509 89.1243 21.0451C89.4185 21.3393 89.8543 21.4864 90.4318 21.4864H98.0645V25.7358Z" fill="#1E417C"/>
<path d="M131.504 23.5948C131.504 23.8998 131.45 24.1831 131.341 24.4447C131.232 24.7062 131.08 24.935 130.883 25.1311C130.687 25.3163 130.458 25.4634 130.197 25.5724C129.935 25.6814 129.658 25.7358 129.363 25.7358H119.786C118.881 25.7358 117.966 25.6378 117.04 25.4416C116.114 25.2455 115.215 24.9459 114.343 24.5427C113.482 24.1287 112.671 23.6057 111.908 22.9737C111.145 22.3417 110.475 21.5953 109.898 20.7345C109.331 19.8629 108.884 18.8713 108.557 17.7599C108.231 16.6376 108.067 15.39 108.067 14.0171V2.29842H112.317V14.0171C112.317 15.2157 112.48 16.229 112.807 17.0571C113.145 17.8852 113.57 18.5771 114.082 19.1328C114.594 19.6885 115.155 20.1244 115.765 20.4404C116.375 20.7563 116.953 20.9906 117.498 21.1431C118.053 21.2957 118.538 21.3938 118.952 21.4373C119.377 21.47 119.655 21.4864 119.786 21.4864H127.255V2.29842H131.504V23.5948Z" fill="#C22032"/>
<path d="M155.563 25.7358H151.314V15.9294C151.314 15.3737 151.215 14.8779 151.019 14.4421C150.834 13.9953 150.578 13.614 150.251 13.298C149.924 12.982 149.537 12.7423 149.091 12.5788C148.655 12.4045 148.181 12.3173 147.669 12.3173H140.232V25.7358H135.983V10.1763C135.983 9.88207 136.037 9.60967 136.146 9.35906C136.255 9.09756 136.408 8.87419 136.604 8.68895C136.8 8.49283 137.029 8.34028 137.29 8.23132C137.552 8.12236 137.83 8.06788 138.124 8.06788H147.701C148.235 8.06788 148.797 8.12781 149.385 8.24766C149.984 8.36752 150.573 8.56365 151.15 8.83605C151.738 9.09756 152.294 9.43533 152.817 9.84938C153.351 10.2525 153.82 10.7483 154.223 11.3367C154.637 11.9142 154.964 12.5843 155.203 13.347C155.443 14.1097 155.563 14.9705 155.563 15.9294V25.7358Z" fill="#C22032"/>
<path d="M163.604 4.43949H159.355V0.598633H163.604V4.43949ZM163.604 25.7358H159.355V8.06788H163.604V25.7358Z" fill="#C22032"/>
<path d="M191.585 23.9216C191.585 24.2267 191.525 24.51 191.406 24.7715C191.297 25.033 191.144 25.2619 190.948 25.458C190.763 25.6432 190.539 25.7903 190.278 25.8993C190.016 26.0082 189.738 26.0627 189.444 26.0627C189.183 26.0627 188.916 26.0137 188.643 25.9156C188.382 25.8176 188.148 25.6596 187.941 25.4416L172.414 9.22831V25.7358H168.164V4.11261C168.164 3.67677 168.284 3.28451 168.524 2.93584C168.774 2.57627 169.09 2.30931 169.472 2.13498C169.875 1.97154 170.289 1.9334 170.714 2.02057C171.139 2.09684 171.504 2.29297 171.809 2.60895L187.336 18.8059V2.29842H191.585V23.9216Z" fill="#C22032"/>
<path d="M215.154 19.7702C215.154 20.5003 215.061 21.1595 214.876 21.7479C214.69 22.3254 214.445 22.8375 214.14 23.2842C213.835 23.7201 213.481 24.096 213.078 24.412C212.675 24.7171 212.25 24.9677 211.803 25.1638C211.367 25.3599 210.92 25.507 210.463 25.6051C210.016 25.6922 209.591 25.7358 209.188 25.7358H201.523C200.934 25.7358 200.291 25.6323 199.594 25.4253C198.897 25.2183 198.248 24.8805 197.649 24.412C197.061 23.9325 196.565 23.3169 196.162 22.5651C195.769 21.8024 195.573 20.8707 195.573 19.7702V14.0171C195.573 12.9275 195.769 12.0068 196.162 11.255C196.565 10.4923 197.061 9.87662 197.649 9.40809C198.248 8.92867 198.897 8.58544 199.594 8.37842C200.291 8.17139 200.934 8.06788 201.523 8.06788H209.188C210.278 8.06788 211.204 8.26401 211.966 8.65627C212.729 9.04852 213.345 9.54429 213.813 10.1436C214.282 10.732 214.62 11.3748 214.827 12.0722C215.045 12.7695 215.154 13.4178 215.154 14.0171V19.7702ZM210.904 14.0498C210.904 13.4614 210.757 13.0256 210.463 12.7423C210.169 12.459 209.744 12.3173 209.188 12.3173H201.555C200.989 12.3173 200.558 12.4644 200.264 12.7586C199.97 13.0419 199.823 13.4614 199.823 14.0171V19.7702C199.823 20.3259 199.97 20.7509 200.264 21.0451C200.558 21.3393 200.989 21.4864 201.555 21.4864H209.188C209.765 21.4864 210.196 21.3393 210.479 21.0451C210.762 20.7509 210.904 20.3259 210.904 19.7702V14.0498Z" fill="#C22032"/>
<path d="M247.874 8.06788C247.199 9.58243 246.469 11.0752 245.684 12.5462C244.9 14.0062 244.077 15.39 243.216 16.6976C242.366 18.0051 241.495 19.2145 240.601 20.3259C239.708 21.4264 238.82 22.3798 237.937 23.1862C237.065 23.9816 236.21 24.6081 235.371 25.0657C234.543 25.5125 233.759 25.7358 233.018 25.7358C232.713 25.7358 232.429 25.6814 232.168 25.5724C231.906 25.4634 231.677 25.3163 231.481 25.1311C231.285 24.935 231.133 24.7062 231.024 24.4447C230.915 24.1831 230.86 23.8998 230.86 23.5948V15.6679L222.427 25.0984C222.209 25.3163 221.969 25.4798 221.707 25.5887C221.457 25.6868 221.195 25.7358 220.923 25.7358C220.629 25.7358 220.351 25.6814 220.089 25.5724C219.839 25.4634 219.615 25.3163 219.419 25.1311C219.223 24.935 219.065 24.7062 218.945 24.4447C218.836 24.1831 218.782 23.8998 218.782 23.5948V8.06788H223.031V18.1358L231.498 8.67261C231.803 8.36752 232.162 8.17684 232.576 8.10057C233.001 8.0134 233.415 8.05698 233.818 8.23132C234.222 8.39476 234.538 8.65627 234.766 9.01584C235.006 9.36451 235.126 9.75132 235.126 10.1763V20.2769C236.041 19.3943 236.869 18.4627 237.61 17.4821C238.351 16.5014 239.038 15.4935 239.67 14.4584C240.312 13.4124 240.912 12.3555 241.467 11.2877C242.034 10.209 242.584 9.13569 243.118 8.06788H247.874Z" fill="#C22032"/>
<path d="M243.422 5.8524H242.482V2.13529H241.184V1.36012H244.723V2.13529H243.422V5.8524Z" fill="#1E417C"/>
<path d="M250 5.8524H249.163V2.82019H249.138L247.917 5.80882H247.326L246.105 2.82019H246.081V5.8524H245.243V1.36012H246.333L247.609 4.54488H247.634L248.91 1.36012H250V5.8524Z" fill="#1E417C"/>
</svg>
