<svg width="18" height="18" viewBox="0 0 18 18" fill="none" xmlns="http://www.w3.org/2000/svg">
<path d="M0.900955 2.24994H17.1003C17.4218 2.24994 17.7189 2.03553 17.8797 1.68749C18.0405 1.33928 18.0405 0.910488 17.8797 0.562451C17.7189 0.214414 17.4218 0 17.1003 0H0.900955C0.579419 0 0.28232 0.214405 0.121553 0.562451C-0.0392154 0.910488 -0.0392154 1.33932 0.121553 1.68749C0.28232 2.03552 0.579419 2.24994 0.900955 2.24994Z" fill="#1E417C"/>
<path d="M17.0993 15.7498H0.899979C0.578443 15.7498 0.281344 15.9642 0.120576 16.3124C-0.040192 16.6604 -0.040192 17.0893 0.120576 17.4373C0.281344 17.7855 0.578443 17.9999 0.899979 17.9999H17.0993C17.4209 17.9999 17.718 17.7855 17.8787 17.4373C18.0395 17.0893 18.0395 16.6604 17.8787 16.3124C17.718 15.9642 17.4209 15.7498 17.0993 15.7498Z" fill="#1E417C"/>
<path d="M17.0993 7.875H0.899979C0.578443 7.875 0.281344 8.0894 0.120576 8.43745C-0.040192 8.78549 -0.040192 9.21445 0.120576 9.56249C0.281344 9.91052 0.578443 10.1249 0.899979 10.1249H17.0993C17.4209 10.1249 17.718 9.91053 17.8787 9.56249C18.0395 9.21444 18.0395 8.78549 17.8787 8.43745C17.718 8.08941 17.4209 7.875 17.0993 7.875Z" fill="#C22032"/>
</svg>
