<svg width="20" height="20" viewBox="0 0 20 20" fill="none" xmlns="http://www.w3.org/2000/svg">
<path d="M10.0012 10.7016C12.9516 10.7016 15.352 8.30109 15.352 5.35081C15.3518 2.40063 12.9513 0 10.0012 0C7.05081 0 4.65039 2.40053 4.65039 5.35081C4.65039 8.30098 7.05092 10.7016 10.0012 10.7016ZM10.0012 1.6101C12.0644 1.6101 13.7421 3.28779 13.7421 5.35101C13.7419 7.41423 12.0644 9.09172 10.0012 9.09172C7.93798 9.09172 6.26028 7.41402 6.26028 5.35081C6.26028 3.28779 7.9388 1.6101 10.0012 1.6101Z" fill="#C22032"/>
<path d="M0.826937 19.971C1.25515 20.0876 1.69876 19.8373 1.81698 19.4083C2.82563 15.7415 6.19145 13.1806 10.0004 13.1806C13.8094 13.1806 17.1745 15.7413 18.1838 19.4083C18.2829 19.7658 18.6065 19.9999 18.9598 19.9999C19.0307 19.9999 19.1022 19.9903 19.1739 19.9709C19.6021 19.8527 19.8542 19.4099 19.7366 18.9809C18.5356 14.6178 14.532 11.5706 10.0008 11.5706C5.46976 11.5706 1.46558 14.6174 0.264527 18.9809C0.146288 19.4091 0.398146 19.8527 0.826348 19.9709L0.826937 19.971Z" fill="#1E417C"/>
</svg>
