<svg
        width="13"
        height="8"
        viewBox="0 0 13 8"
        fill="none"
        xmlns="http://www.w3.org/2000/svg"
      >
        <path
          d="M5.39539 7.38205L0.26665 1.78619C-0.338618 1.12779 0.153296 0.0937504 1.07189 0.0937504H11.3294C11.535 0.0935821 11.7362 0.149982 11.9091 0.256196C12.082 0.362411 12.2191 0.513937 12.3041 0.692629C12.389 0.871321 12.4182 1.0696 12.3882 1.26373C12.3581 1.45786 12.2701 1.63961 12.1346 1.78721L7.00587 7.38103C6.9055 7.49067 6.78172 7.57855 6.64283 7.63875C6.50394 7.69896 6.35317 7.73011 6.20063 7.73011C6.04809 7.73011 5.89732 7.69896 5.75843 7.63875C5.61955 7.57855 5.49576 7.49067 5.39539 7.38103V7.38205Z"
          fill="white"
        />
      </svg>