<svg width="15" height="18" viewBox="0 0 15 18" fill="none" xmlns="http://www.w3.org/2000/svg">
<path d="M1.81757 16C1.81757 17.1 2.71757 18 3.81757 18H11.8176C12.9176 18 13.8176 17.1 13.8176 16V6C13.8176 4.9 12.9176 4 11.8176 4H3.81757C2.71757 4 1.81757 4.9 1.81757 6V16ZM13.8176 1H11.3176L10.6076 0.29C10.4276 0.11 10.1676 0 9.90757 0H5.72757C5.46757 0 5.20757 0.11 5.02757 0.29L4.31757 1H1.81757C1.26757 1 0.817566 1.45 0.817566 2C0.817566 2.55 1.26757 3 1.81757 3H13.8176C14.3676 3 14.8176 2.55 14.8176 2C14.8176 1.45 14.3676 1 13.8176 1Z" fill="#EF4949"/>
</svg>
