<svg
              width="14"
              height="14"
              viewBox="0 0 14 14"
              fill="none"
              xmlns="http://www.w3.org/2000/svg"
            >
              <path
                fill-rule="evenodd"
                clip-rule="evenodd"
                d="M2.04345 1C1.46738 1 1 1.47524 1 2.06027V2.6843C1 3.11765 1.16479 3.53439 1.45957 3.84785L4.69007 7.28288L4.69149 7.28072C5.31514 7.91919 5.66604 8.78228 5.66604 9.68221V12.7301C5.66604 12.9338 5.87913 13.0638 6.056 12.9677L7.8957 11.9653C8.17343 11.8136 8.34675 11.5189 8.34675 11.1989V9.67427C8.34675 8.77939 8.69267 7.91991 9.31064 7.28288L12.5411 3.84785C12.8352 3.53439 13 3.11765 13 2.6843V2.06027C13 1.47524 12.5333 1 11.9573 1H2.04345Z"
                stroke="url(#paint0_linear_4233_2843)"
                stroke-width="1.5"
                stroke-linecap="round"
                stroke-linejoin="round"
              />
              <defs>
                <linearGradient
                  id="paint0_linear_4233_2843"
                  x1="1"
                  y1="7.07595"
                  x2="13.1915"
                  y2="7.07595"
                  gradientUnits="userSpaceOnUse"
                >
                  <stop stop-color="#07A1C0" />
                  <stop offset="1" stop-color="#99D592" />
                </linearGradient>
              </defs>
            </svg>