<svg width="73" height="73" viewBox="0 0 73 73" fill="none" xmlns="http://www.w3.org/2000/svg">
<path d="M72.1016 35.3612H63.901C63.2096 21.1174 51.6417 9.54821 37.3966 8.94389V0.65625H34.8065V8.85813C20.5627 9.54821 8.99353 21.1174 8.38921 35.3612H0.101562V37.9513H8.30345C8.99353 52.1964 20.5627 63.7643 34.8065 64.3686V72.5705H37.3966V64.3686C51.6417 63.7643 63.2096 52.1964 63.8139 37.9513H72.0158L72.1016 35.3612ZM60.3608 35.3612H55.3534C54.7491 25.692 46.98 18.0087 37.3109 17.3186V12.3112C49.7417 13.0013 59.7565 23.0161 60.3608 35.3612ZM53.0232 37.9513C52.4189 46.2389 45.7714 52.8865 37.3966 53.5779V51.3335H34.8065V53.5779C26.5188 52.9736 19.8713 46.326 19.1812 37.9513H21.4257V35.3612H19.1812C19.7856 27.0735 26.4331 20.426 34.8065 19.7359V21.9803H37.3966V19.7359C45.6843 20.3402 52.3318 26.9878 53.0232 35.3612H50.7788V37.9513H53.0232ZM34.8065 12.397V17.4044C25.1374 18.0087 17.454 25.7791 16.7639 35.4483H11.7565C12.4466 23.0161 22.4615 13.0013 34.8065 12.397ZM11.8423 37.9513H16.8497C17.454 47.6204 25.2244 55.3038 34.8936 55.9952V61.0026C22.4615 60.3112 12.4466 50.2977 11.8423 37.9513ZM37.3966 60.9155V55.9081C47.0658 55.3038 54.7491 47.5347 55.4405 37.8655H60.4479C59.7565 50.2977 49.7417 60.3112 37.3966 60.9155Z" fill="#1E417C"/>
</svg>
