<svg width="63" height="72" viewBox="0 0 63 72" fill="none" xmlns="http://www.w3.org/2000/svg">
<mask id="mask0_58343_22002" style="mask-type:luminance" maskUnits="userSpaceOnUse" x="18" y="0" width="29" height="29">
<path d="M18.0518 0.253906H46.6963V28.348H18.0518V0.253906Z" fill="white"/>
</mask>
<g mask="url(#mask0_58343_22002)">
<path d="M32.4533 28.1951C40.1613 28.1951 46.4291 21.9291 46.4291 14.2265C46.4291 6.52395 40.1613 0.259766 32.4533 0.259766C24.7453 0.259766 18.4775 6.52395 18.4775 14.2265C18.4775 21.9291 24.7453 28.1951 32.4533 28.1951Z" fill="#1E417C"/>
</g>
<mask id="mask1_58343_22002" style="mask-type:luminance" maskUnits="userSpaceOnUse" x="0" y="25" width="63" height="47">
<path d="M0.398438 25.1172H62.7389V71.2567H0.398438V25.1172Z" fill="white"/>
</mask>
<g mask="url(#mask1_58343_22002)">
<path d="M32.6758 64.1789V49.6455C32.7101 49.5769 32.7588 49.4831 32.813 49.3802C32.8328 49.3441 32.8581 49.2972 32.8798 49.2575C32.9195 49.1817 32.9646 49.1023 33.0133 49.0156C33.0494 48.9525 33.0891 48.8839 33.1288 48.8153C33.1757 48.7359 33.2281 48.6493 33.2804 48.5609C33.3327 48.476 33.3851 48.3912 33.441 48.301C33.4952 48.2143 33.5565 48.1223 33.6161 48.0303C33.6847 47.9256 33.7496 47.8245 33.8254 47.7126C33.8435 47.6856 33.8669 47.6549 33.885 47.626C34.0781 47.3445 34.3001 47.0431 34.5401 46.7255C34.6051 46.6406 34.67 46.5558 34.7386 46.4674C34.8523 46.323 34.975 46.1732 35.0978 46.0234C35.1718 45.9332 35.2494 45.8411 35.327 45.7491C35.4605 45.5939 35.5977 45.4351 35.7421 45.2745C35.8197 45.1878 35.9027 45.0994 35.9857 45.011C36.1427 44.8413 36.3015 44.6699 36.4712 44.4966C36.5235 44.4425 36.583 44.3865 36.639 44.3324C37.0162 43.9534 37.4259 43.5708 37.8644 43.1882C37.9294 43.1304 37.9889 43.0763 38.0539 43.0186C38.2524 42.8507 38.4618 42.6829 38.6711 42.515C38.792 42.4194 38.9129 42.3219 39.0375 42.2263C39.245 42.0657 39.4616 41.9068 39.6818 41.7498C39.8225 41.647 39.9687 41.5459 40.1149 41.4466C40.3387 41.2914 40.5661 41.138 40.8007 40.9882C40.9595 40.8872 41.1273 40.7879 41.2898 40.6887C41.5316 40.5425 41.7716 40.3927 42.0243 40.2501C42.5657 39.9469 43.1396 39.6582 43.7352 39.3802C44.1845 39.1709 44.6447 38.9706 45.123 38.7775C45.6193 38.5807 46.1264 38.3894 46.657 38.2144L52.2534 55.74C52.1073 55.7671 51.9484 55.7996 51.7824 55.8321C51.7391 55.8411 51.694 55.8501 51.6489 55.8591C51.5027 55.888 51.3475 55.9205 51.1869 55.9548C51.1544 55.9602 51.1255 55.9674 51.0912 55.9747C50.8891 56.018 50.6797 56.0631 50.4577 56.1118C50.4397 56.1154 50.4217 56.119 50.4036 56.1226C50.2015 56.1696 49.9903 56.2165 49.7738 56.267C49.7341 56.276 49.6944 56.2851 49.6528 56.2941C49.1674 56.4078 48.6512 56.5341 48.108 56.6731C48.0773 56.6821 48.0448 56.6893 48.0142 56.6983C47.7633 56.7633 47.507 56.8301 47.2472 56.9005C47.2165 56.9095 47.1876 56.9167 47.1569 56.9257C46.8645 57.0051 46.5686 57.0882 46.2654 57.1748C46.2654 57.1748 46.2654 57.1748 46.2654 57.1766C41.5767 58.5265 35.7944 60.7734 32.6758 64.1789ZM62.7244 68.6835C62.7208 68.6474 62.7262 68.6131 62.719 68.577L58.6422 48.7431C58.5772 48.4147 58.3606 48.1349 58.061 47.9851C57.9455 47.9274 57.4077 47.6639 56.5559 47.3048C56.7255 48.5663 56.7995 49.6599 56.7995 50.62L60.1166 66.7597C58.1531 65.9096 54.6176 64.6788 48.4545 63.291C46.6732 62.8885 45.0237 62.7189 43.5096 62.7189C40.1311 62.7189 37.424 63.5689 35.3847 64.594C40.1059 60.6687 49.6059 58.3479 53.8434 57.6729C54.1574 57.6242 54.4354 57.4401 54.6014 57.1676C54.7692 56.8969 54.8089 56.5666 54.7115 56.2634L54.1845 54.6121C54.9948 52.8038 55.5218 49.4542 53.3597 41.3384C51.6543 34.9551 46.2311 29.4146 42.7011 26.3574C39.9326 28.6981 36.3557 30.113 32.4557 30.113C28.1099 30.113 24.1666 28.3588 21.2953 25.5254C17.8897 28.3263 11.5245 34.3234 9.653 41.3384C6.87373 51.766 8.53587 54.3287 9.53208 55.8591C10.1403 56.7958 11.8439 57.6639 13.4934 57.8786C14.311 57.9851 15.836 58.0212 16.8773 57.0773C17.5703 56.4511 17.4458 54.7619 17.2924 52.6251C17.0361 49.1005 16.6878 44.2764 19.4833 38.9597C19.727 38.4887 20.3153 38.31 20.7773 38.5555C21.2465 38.8027 21.427 39.382 21.1798 39.8495C20.3893 41.3528 19.8822 42.8218 19.5573 44.2349C19.5754 44.2349 19.5934 44.2349 19.6115 44.2349C19.5934 44.2349 19.5736 44.2349 19.5537 44.2349C19.3786 45.0001 19.2613 45.7473 19.1819 46.4746C23.2047 46.258 27.3916 47.0268 30.4903 50.0588V66.2922C27.8699 64.2691 22.6109 61.5133 14.7098 63.291C8.57016 64.6752 5.03652 65.9006 3.06937 66.7506L6.25471 51.84C6.16628 50.6453 6.20598 49.2106 6.43518 47.4419C5.77826 47.7307 5.35956 47.9382 5.2603 47.987C4.96253 48.1367 4.75318 48.4111 4.68279 48.7341L0.443503 68.568C0.434479 68.6095 0.441698 68.6492 0.438089 68.6889C0.432674 68.7412 0.42726 68.7936 0.429065 68.8459C0.432674 68.9001 0.441698 68.9488 0.452526 69.0011C0.46516 69.0625 0.477793 69.1239 0.501254 69.1834C0.513887 69.2177 0.533739 69.2484 0.549981 69.2809C0.575247 69.3314 0.593295 69.3873 0.627584 69.4361C0.642022 69.4559 0.661874 69.4667 0.678117 69.4848C0.685336 69.4956 0.696164 69.5028 0.706992 69.5137C0.993943 69.8367 1.4379 69.9721 1.8548 69.8331C2.04429 69.7736 21.0137 63.6573 27.0902 70.8744C27.2996 71.1217 27.6028 71.2643 27.9258 71.2643H35.2367C35.5616 71.2643 35.8648 71.1217 36.0723 70.8744C42.1416 63.6628 61.1218 69.7699 61.3095 69.8331C61.3438 69.8457 61.3781 69.8421 61.4142 69.8512C61.481 69.8656 61.5478 69.88 61.6163 69.8818C61.6687 69.8854 61.7192 69.8764 61.7697 69.871C61.8293 69.8638 61.8871 69.8584 61.943 69.8421C62.0007 69.8277 62.0531 69.8006 62.1072 69.7754C62.1433 69.7591 62.183 69.7519 62.2173 69.7302C62.2299 69.723 62.239 69.7104 62.2498 69.7032C62.2949 69.6725 62.3328 69.6346 62.3725 69.5985C62.4212 69.557 62.4664 69.5155 62.5043 69.4667C62.5133 69.4559 62.5259 69.4487 62.5349 69.4361C62.5548 69.4072 62.5638 69.3747 62.5801 69.3458C62.6144 69.2899 62.645 69.2339 62.6685 69.1744C62.6865 69.1239 62.6956 69.0769 62.7064 69.0246C62.719 68.9686 62.7299 68.9109 62.7335 68.8513C62.7371 68.7954 62.7299 68.7394 62.7244 68.6835Z" fill="#1E417C"/>
</g>
</svg>
