<svg width="229" height="67" viewBox="0 0 229 67" fill="none" xmlns="http://www.w3.org/2000/svg">
<path d="M25.1224 65.6221C20.8096 62.3743 16.9359 58.5799 13.6084 54.3436L13.3154 53.9698L25.4293 42.0978L37.5817 53.9981L37.2864 54.373C33.9542 58.5964 30.0734 62.3814 25.7514 65.6221L25.4364 65.8584L25.1224 65.6221Z" fill="white"/>
<path d="M25.4294 41.36L24.6965 42.077L13.2886 53.2567L12.6094 53.9221L13.1976 54.672C16.5521 58.9447 20.4596 62.7708 24.8085 66.0457L25.4364 66.5194L26.0655 66.048C30.4248 62.7779 34.3371 58.9601 37.6973 54.7037L38.2891 53.9527L37.6074 53.2849L26.1624 42.077L25.4294 41.36ZM25.4294 42.8364L36.8744 54.0443C33.5538 58.2524 29.7022 61.9986 25.4375 65.1982C21.1272 61.9527 17.2977 58.1866 14.0215 54.0149L25.4294 42.8364Z" fill="white"/>
<path d="M25.4417 30.5346L8.57164 46.8545L8.23901 46.2574C5.21491 40.8374 3.04631 35.0435 1.79518 29.0404L1.66211 28.4033H49.233L48.9365 29.868C47.6468 35.6477 45.5424 41.1735 42.6771 46.3043L42.3445 46.9002L25.4417 30.5346Z" fill="white"/>
<path d="M49.8808 27.8755H1.0166L1.28274 29.1509C2.54563 35.2068 4.73172 41.0487 7.78262 46.5193L8.44674 47.7101L9.426 46.7626L25.4428 31.2702L41.4924 46.8084L42.4716 47.7547L43.1357 46.564C46.0267 41.3908 48.1498 35.8157 49.4489 29.9925L49.5364 29.5493L49.6157 29.1496L49.8808 27.8755ZM48.5875 28.9334C48.5303 29.2108 48.4812 29.4835 48.4229 29.7609C47.1216 35.5959 45.0079 41.0558 42.2207 46.0456L25.4428 29.8021L8.69887 45.9997C5.7343 40.6878 3.56334 34.9411 2.31099 28.9333L48.5875 28.9334Z" fill="white"/>
<path d="M25.4324 43.5738L13.9732 54.8029L13.6114 54.3433C11.6039 51.7867 9.79246 49.0666 8.22968 46.2573L8.03125 45.8989L25.4323 29.0664L42.8662 45.9471L42.6677 46.3021C41.0932 49.1266 39.2841 51.8419 37.2883 54.3727L36.9276 54.8311L25.4324 43.5738Z" fill="white"/>
<path d="M25.4312 28.333L24.7041 29.0371L7.95893 45.236L7.37305 45.8026L7.7699 46.5161C9.3467 49.3478 11.1733 52.0924 13.1994 54.6726L13.9219 55.5917L14.7564 54.7736L25.4311 44.3121L36.1432 54.803L36.9766 55.6188L37.699 54.7008C39.7113 52.1488 41.5367 49.4089 43.1253 46.5631L43.5231 45.8473L42.9373 45.2819L26.1594 29.0383L25.4312 28.333ZM25.4312 29.8012L42.2091 46.0448C40.6452 48.8494 38.862 51.5242 36.8764 54.0437L25.4311 42.8357L14.0235 54.0156C12.0322 51.4813 10.2465 48.8013 8.68606 45.999L25.4312 29.8012Z" fill="white"/>
<path d="M25.4324 43.5738L13.9732 54.8029L13.6114 54.3433C11.6039 51.7867 9.79246 49.0666 8.22968 46.2573L8.03125 45.8989L25.4323 29.0664L42.8662 45.9471L42.6677 46.3021C41.0932 49.1266 39.2841 51.8419 37.2883 54.3727L36.9276 54.8311L25.4324 43.5738Z" fill="white"/>
<path d="M25.4312 28.333L24.7041 29.0371L7.95893 45.236L7.37305 45.8026L7.7699 46.5161C9.3467 49.3478 11.1733 52.0924 13.1994 54.6726L13.9219 55.5917L14.7564 54.7736L25.4311 44.3121L36.1432 54.803L36.9766 55.6188L37.699 54.7008C39.7113 52.1488 41.5367 49.4089 43.1253 46.5631L43.5231 45.8473L42.9373 45.2819L26.1594 29.0383L25.4312 28.333ZM25.4312 29.8012L42.2091 46.0448C40.6452 48.8494 38.862 51.5242 36.8764 54.0437L25.4311 42.8357L14.0235 54.0156C12.0322 51.4813 10.2465 48.8013 8.68606 45.999L25.4312 29.8012Z" fill="white"/>
<path d="M1.87254 29.4748L1.78499 29.054C0.593292 23.3189 0.245525 17.4523 0.754385 11.6172L0.810434 10.9684L1.43017 11.1577C3.39094 11.7572 5.4324 12.0616 7.49708 12.0616C14.6646 12.0616 21.3722 8.29544 25.0032 2.23361L25.4526 1.48132L25.903 2.23361C29.5283 8.29544 36.2347 12.0616 43.4034 12.0616C45.4739 12.0616 47.5164 11.756 49.4785 11.1541L50.0994 10.9637L50.1542 11.6149C50.6514 17.404 50.2931 23.2706 49.0897 29.0539L49.0034 29.4747L1.87254 29.4748Z" fill="white"/>
<path d="M25.4503 0.458496L24.5504 1.96069C21.0151 7.86502 14.479 11.5336 7.49485 11.5336C5.49119 11.5344 3.49839 11.2373 1.58085 10.6521L0.341376 10.2747L0.229278 11.5724C-0.284325 17.4559 0.0660797 23.3836 1.26919 29.1642L1.4443 30.0047H49.4283L49.6023 29.1642C50.8161 23.3293 51.1767 17.4097 50.6761 11.5701L50.564 10.2676L49.3221 10.6485C47.4115 11.235 45.4192 11.5336 43.4023 11.5336C36.4158 11.5336 29.8819 7.86616 26.3502 1.96193L25.4503 0.458496ZM25.4503 2.5085C29.0592 8.53964 35.7458 12.5915 43.4023 12.5915C45.5733 12.5915 47.6624 12.2648 49.6291 11.6618C50.1134 17.3133 49.7855 23.1212 48.5739 28.9468H2.29763C1.11578 23.2681 0.771246 17.4451 1.27512 11.6653C3.23833 12.2648 5.32756 12.5915 7.49494 12.5915C15.1503 12.5915 21.8381 8.53974 25.4503 2.5085Z" fill="white"/>
<path d="M14.0205 54.0146C17.2967 58.1863 21.1261 61.9525 25.4364 65.1979C29.7012 61.9983 33.5529 58.2521 36.8734 54.0441L25.4282 42.8361L14.0205 54.0146Z" fill="#F46F1B"/>
<path d="M8.6954 45.9997L25.4406 29.802L42.2173 46.0456C45.0044 41.0558 47.1193 35.5958 48.4207 29.7609C48.4779 29.4834 48.5269 29.2108 48.5841 28.9333H2.30762C3.55997 34.9411 5.73205 40.6877 8.6954 45.9997Z" fill="#F46F1B"/>
<path d="M8.6875 45.9996C10.248 48.803 12.0326 51.4819 14.0237 54.0162L25.4327 42.8366L36.8766 54.0444C38.8622 51.5249 40.6455 48.8501 42.2093 46.0455L25.4327 29.802L8.6875 45.9996Z" fill="#F46F1B"/>
<path d="M25.4326 42.0977L14.0784 53.2245C12.3289 50.9559 10.7404 48.5615 9.3457 46.0954L25.4325 30.5348L41.5522 46.1412C40.1455 48.6218 38.5659 50.9987 36.8252 53.254L25.4326 42.0977Z" fill="#231F20"/>
<path d="M25.4313 29.8011L8.68618 45.9988C10.2466 48.8022 12.0324 51.4811 14.0236 54.0153L25.4312 42.8369L36.8764 54.0448C38.862 51.5249 40.6453 48.8497 42.2091 46.0446L25.4313 29.8011ZM25.4313 31.2693L40.8903 46.2363C39.6468 48.3961 38.2699 50.4752 36.7679 52.4614L26.1643 42.0775L25.4313 41.3605L24.6984 42.0775L14.1333 52.4321C12.6242 50.4326 11.2399 48.3415 10.005 46.1916L25.4313 31.2693ZM49.6296 11.6608C47.663 12.2651 45.5737 12.5906 43.4028 12.5906C35.7463 12.5906 29.0597 8.54004 25.4508 2.50757C21.8385 8.54004 15.1507 12.5906 7.49533 12.5906C5.32795 12.5906 3.23872 12.265 1.27551 11.6656C0.771641 17.445 1.11618 23.2676 2.29802 28.9458H48.5745C49.786 23.1215 50.1139 17.3124 49.6296 11.6608Z" fill="#231F20"/>
<path d="M36.8488 18.7891V16.8085H35.6466V15.4108L34.386 15.0558H34.295V13.8699C34.295 13.8699 33.8608 14.3942 31.865 14.3942C29.9766 14.3942 28.8689 13.7782 27.3656 13.7782C25.9207 13.7782 25.4783 14.6093 25.4783 14.6093V15.0889H25.4282V14.6093C25.4282 14.6093 24.9765 13.7782 23.5397 13.7782C22.0376 13.7782 20.9288 14.3988 19.0415 14.3988C17.0457 14.3988 16.7013 13.8735 16.7013 13.8735V15.1218H16.6186L15.2518 15.4109V16.8085H14.0449V18.7892H15.2518V21.9935H14.0449V23.9776H15.2518V26.4413C15.2518 26.4413 17.2755 26.7599 19.1477 26.7599C21.3606 26.7599 22.6375 26.4379 24.0743 26.4085V27.0326C24.0743 27.0326 24.6532 27.323 25.4247 27.323C26.2043 27.323 26.8241 27.0326 26.8241 27.0326V26.4085C28.2573 26.4378 29.5342 26.7598 31.7588 26.7598C33.6227 26.7598 35.6466 26.4413 35.6466 26.4413V23.9776H36.8488V21.9935H35.6466V18.7891H36.8488Z" fill="white"/>
<path d="M35.4093 26.3136C34.8946 26.3876 33.2548 26.6027 31.7292 26.6027C29.542 26.6027 26.8447 26.2595 26.8178 26.256L26.5821 26.223V26.946C26.3743 27.0248 25.9215 27.1658 25.3916 27.1658C24.8722 27.1658 24.4474 27.0247 24.2501 26.9507V26.223L24.0144 26.256C23.9875 26.2595 21.289 26.6027 19.1146 26.6027C17.5845 26.6027 15.9435 26.3876 15.4287 26.3136V15.6358C15.6213 15.5982 16.1944 15.4747 16.4733 15.4172V25.0888C16.576 25.3121 17.0149 25.8247 19.0224 25.8247L21.5633 25.4896L23.5055 25.2087C24.8021 25.2087 25.2095 25.9034 25.227 25.9316L25.2877 25.8986H25.5865L25.6437 25.9316C25.6612 25.9034 26.0603 25.2087 27.3478 25.2087L29.2888 25.4861L31.8507 25.8246C33.885 25.8246 34.3938 25.2874 34.444 25.2251L34.4837 15.3667C34.7499 15.4418 35.2389 15.5782 35.4093 15.6275V26.3136ZM16.8924 14.3299C17.2285 14.4991 17.8319 14.6765 19.0224 14.6765L21.582 14.338L23.5219 14.0571C24.7963 14.0571 25.2025 14.7425 25.2259 14.7801V25.3321C24.9154 25.0723 24.3948 24.7867 23.5055 24.7867L21.4734 25.0758L19.0224 25.4026C17.2285 25.4026 16.8551 24.9688 16.8515 24.9654C16.8515 24.9654 16.8877 15.0492 16.8924 14.3299ZM25.6437 14.7801C25.6612 14.7507 26.0603 14.0571 27.3478 14.0571L29.2888 14.3334L31.8507 14.6719C33.0913 14.6719 33.7227 14.4779 34.0729 14.3087V25.0723C34.0461 25.0183 33.543 25.4026 31.8507 25.4026L29.3797 25.0723L27.3478 24.7867C26.4677 24.7867 25.9518 25.0723 25.6437 25.3286V14.7801ZM34.4861 14.9247L34.4919 13.4071L34.1266 13.7962C34.1219 13.7997 33.6737 14.2511 31.8507 14.2511L29.3797 13.9196L27.3478 13.6352C26.2331 13.6352 25.6776 14.0936 25.4348 14.371C25.1908 14.0936 24.6306 13.6351 23.5219 13.6351L21.4922 13.9243L19.0224 14.2546C17.2285 14.2546 16.8551 13.8208 16.8515 13.8162L16.4792 13.3578L16.4733 13.9408V14.9823L15.0098 15.2925V26.6814L15.1871 26.7061C15.207 26.7109 17.2472 27.0283 19.1146 27.0283C20.9564 27.0283 23.1424 26.7849 23.8323 26.7026V27.2187L23.9466 27.2809C23.9735 27.2939 24.5793 27.5913 25.3916 27.5913C26.2086 27.5913 26.8529 27.2939 26.8797 27.2809L27.001 27.2234V26.7026C27.6909 26.7849 29.877 27.0283 31.7292 27.0283C33.5897 27.0283 35.6322 26.7109 35.652 26.7062L35.8295 26.6815V15.3055L34.4861 14.9247Z" fill="#231F20"/>
<path d="M19.868 16.227C19.7035 16.2398 19.5973 16.3256 19.5483 16.4373L18.8749 17.9466C18.8749 17.9466 18.8421 17.9712 18.8212 17.9712C18.8013 17.9712 18.7756 17.9466 18.7593 17.9008C18.7429 17.8478 18.6612 17.6363 18.485 17.2237L18.2668 16.7312C18.1897 16.549 18.1279 16.4291 18.1069 16.3927C18.0287 16.2563 17.9306 16.2433 17.8244 16.227C17.8115 16.2105 17.8115 16.194 17.8115 16.1811C17.8115 16.1646 17.8115 16.1564 17.8197 16.1364H17.9307C18.0578 16.1364 18.164 16.1447 18.2586 16.1447C18.3695 16.1447 18.5539 16.1317 18.6776 16.1317H18.7511C18.764 16.1364 18.7675 16.161 18.7675 16.1729C18.7675 16.1811 18.7675 16.2105 18.7593 16.2222C18.6776 16.2317 18.4931 16.227 18.4931 16.3421C18.4931 16.368 18.4967 16.4127 18.5095 16.442L18.953 17.5L19.3218 16.6243C19.3548 16.5516 19.3715 16.4726 19.3708 16.3927C19.3708 16.2928 19.302 16.2481 19.1164 16.227C19.113 16.214 19.1048 16.1976 19.1048 16.1858C19.1048 16.1694 19.113 16.1446 19.1164 16.1318H19.1701C19.253 16.1318 19.3346 16.1447 19.5191 16.1447C19.5518 16.1447 19.679 16.1364 19.7409 16.1364H19.868C19.8762 16.1529 19.8844 16.161 19.8844 16.1775C19.8844 16.1894 19.8762 16.214 19.868 16.227ZM21.7442 17.9178C21.2061 17.9178 20.9155 17.9061 20.8408 17.9061C20.7836 17.9061 20.6529 17.9013 20.5863 17.9013C20.5128 17.9013 20.3401 17.9142 20.1509 17.9142L20.0448 17.9095C20.0366 17.8931 20.0366 17.8849 20.0366 17.8684C20.0366 17.8555 20.0366 17.8355 20.0401 17.8191C20.1836 17.8062 20.2875 17.7814 20.3121 17.7603C20.3401 17.7238 20.361 17.6486 20.3693 17.4875C20.3693 17.4052 20.3728 17.3148 20.3728 17.2195C20.3728 17.0831 20.3693 16.9174 20.3693 16.7188V16.4379C20.3646 16.2439 20.2701 16.2439 20.0693 16.2193C20.0658 16.2017 20.0611 16.1852 20.0611 16.1734C20.0611 16.1605 20.0658 16.1322 20.0775 16.1276H20.1755C20.242 16.1276 20.4183 16.1323 20.7544 16.1323C21.0625 16.1323 21.3625 16.1358 21.4279 16.1358C21.4687 16.1358 21.5878 16.1406 21.6134 16.1406C21.6543 16.1406 21.6706 16.144 21.6706 16.1817L21.6951 16.586C21.6706 16.599 21.6659 16.6036 21.6462 16.6036C21.6298 16.6036 21.617 16.6036 21.6041 16.5989C21.4862 16.3968 21.4279 16.3556 21.338 16.2886C21.3053 16.264 21.2563 16.2475 21.1816 16.2439C21.1572 16.2439 21.0952 16.2392 20.9435 16.2392C20.821 16.2392 20.7592 16.2439 20.7427 16.2439C20.7217 16.2439 20.7264 16.2439 20.7183 16.3133C20.7136 16.3556 20.7101 16.4379 20.7101 16.6729V16.9045H20.7707C20.849 16.9045 20.9271 16.8964 20.9726 16.8846C21.0427 16.8634 21.1162 16.8141 21.1536 16.7565C21.1699 16.7353 21.1863 16.6366 21.1944 16.6071C21.2061 16.599 21.2271 16.5954 21.2517 16.5954C21.2676 16.5949 21.2834 16.599 21.2972 16.6071C21.2925 16.6812 21.2808 16.8176 21.2808 16.9915C21.2808 17.0785 21.289 17.269 21.289 17.3477C21.2726 17.3594 21.2645 17.3594 21.2388 17.3594C21.2271 17.3594 21.2026 17.3594 21.1898 17.3559C21.1734 17.2031 21.1489 17.0997 21.0217 17.0456C20.9517 17.0163 20.8945 17.008 20.8244 17.008C20.7871 17.008 20.7427 17.0128 20.7054 17.0162V17.484C20.7054 17.5911 20.7136 17.6568 20.7298 17.6945C20.7427 17.7238 20.7836 17.7849 20.8373 17.7932C20.8618 17.7979 20.9073 17.8062 21.0007 17.8062H21.2563C21.3216 17.8062 21.4161 17.7979 21.4489 17.7768C21.5107 17.7356 21.6741 17.558 21.7325 17.3924C21.7569 17.3841 21.7687 17.3841 21.785 17.3841C21.8013 17.3841 21.8177 17.3889 21.8387 17.3971V17.8684C21.8387 17.9142 21.8095 17.9178 21.7442 17.9178ZM23.8787 16.694C23.8671 16.694 23.8496 16.6892 23.8298 16.6892C23.7889 16.5777 23.7387 16.479 23.6979 16.4248C23.6243 16.3344 23.5543 16.272 23.3699 16.2521C23.329 16.2473 23.2297 16.2473 23.1971 16.2473L23.1936 17.0372C23.1936 17.1607 23.1936 17.3064 23.1971 17.5791C23.2018 17.7848 23.2917 17.7848 23.5053 17.8142C23.5181 17.8353 23.5216 17.8518 23.5216 17.8635C23.5217 17.8796 23.5176 17.8953 23.51 17.9094H23.4317C23.308 17.9094 23.0618 17.9011 22.9835 17.9011C22.9311 17.9011 22.6602 17.9141 22.5319 17.9141C22.5202 17.893 22.5155 17.893 22.5155 17.8635C22.5155 17.8518 22.5202 17.8353 22.5284 17.8189C22.812 17.7977 22.84 17.7436 22.8481 17.6532C22.8563 17.5956 22.8563 17.3593 22.8563 17.1195V16.4671C22.8563 16.3837 22.8528 16.3014 22.84 16.2474C22.7863 16.2474 22.6147 16.2474 22.5645 16.2685C22.421 16.3214 22.3183 16.4424 22.2085 16.6611C22.1957 16.6646 22.1747 16.6646 22.163 16.6646C22.1467 16.6646 22.1304 16.6611 22.1222 16.6481V16.1897C22.1222 16.1486 22.1257 16.1357 22.1747 16.1357C22.2167 16.1357 22.2821 16.1404 22.3684 16.1404C22.4292 16.1404 22.6882 16.1439 23.0127 16.1439C23.4399 16.1439 23.7551 16.1321 23.8379 16.1321C23.8787 16.1321 23.908 16.1321 23.9243 16.1486C23.9278 16.1568 23.9243 16.1897 23.9243 16.2145V16.6728C23.9161 16.6893 23.8952 16.694 23.8787 16.694ZM19.782 19.4928C19.7656 19.4928 19.7528 19.4881 19.7283 19.4881C19.6921 19.3777 19.6419 19.2779 19.5976 19.2237C19.5275 19.1332 19.454 19.0709 19.2684 19.0509C19.2275 19.0462 19.1295 19.0462 19.0968 19.0462L19.0921 19.8361C19.0921 19.9607 19.0921 20.1041 19.0968 20.378C19.1004 20.5849 19.1949 20.5849 19.4084 20.6131C19.4169 20.6281 19.4209 20.6452 19.4201 20.6624C19.4201 20.6789 19.4201 20.6918 19.4119 20.7083H19.3349C19.2077 20.7083 18.9615 20.7001 18.8867 20.7001C18.8331 20.7001 18.5623 20.713 18.4315 20.713C18.4234 20.6919 18.4187 20.6919 18.4187 20.6624C18.4187 20.6507 18.4234 20.6343 18.4268 20.6178C18.7105 20.5966 18.7397 20.5426 18.7513 20.4521C18.756 20.3945 18.756 20.1582 18.756 19.9184V19.2649C18.756 19.1826 18.756 19.1003 18.7432 19.0462C18.6895 19.0462 18.5133 19.0462 18.4642 19.0674C18.3207 19.1203 18.2215 19.2402 18.1117 19.46C18.0942 19.4635 18.0744 19.4635 18.0616 19.4635C18.054 19.464 18.0464 19.4627 18.0393 19.4599C18.0322 19.457 18.0258 19.4526 18.0207 19.447V18.9886C18.0207 18.9475 18.0289 18.9346 18.0744 18.9346C18.1199 18.9346 18.1806 18.9393 18.267 18.9393C18.3335 18.9393 18.5914 18.9428 18.9159 18.9428C19.3384 18.9428 19.6582 18.931 19.7365 18.931C19.782 18.931 19.8111 18.931 19.8228 18.9475C19.831 18.9557 19.8275 18.9886 19.8275 19.0133V19.4717C19.8222 19.4787 19.8152 19.4842 19.8073 19.4879C19.7994 19.4916 19.7907 19.4933 19.782 19.4928ZM21.8098 20.7167C21.2765 20.7167 20.98 20.7037 20.9111 20.7037C20.8528 20.7037 20.7221 20.7002 20.6521 20.7002C20.582 20.7002 20.4058 20.712 20.2213 20.712L20.1139 20.7084C20.1059 20.692 20.1023 20.6838 20.1023 20.6673C20.1023 20.6544 20.1023 20.6344 20.1105 20.6179C20.2541 20.605 20.3568 20.5803 20.3766 20.5592C20.4092 20.5227 20.4268 20.4474 20.4349 20.2864C20.4385 20.2042 20.4431 20.1125 20.4431 20.0184C20.4431 19.8821 20.4384 19.7164 20.4384 19.5178C20.4384 19.3766 20.4349 19.2944 20.4349 19.2367C20.4302 19.0429 20.3404 19.0429 20.1385 19.017C20.1314 19.0032 20.1274 18.9879 20.1268 18.9723C20.1268 18.9593 20.135 18.93 20.1467 18.9265H20.2412C20.3112 18.9265 20.484 18.93 20.8201 18.93C21.1329 18.93 21.4282 18.9347 21.4981 18.9347C21.5344 18.9347 21.6581 18.9395 21.678 18.9395C21.7235 18.9395 21.7398 18.943 21.7398 18.9806L21.7608 19.3861C21.7398 19.3979 21.7317 19.4025 21.7119 19.4025C21.699 19.4025 21.6861 19.4025 21.6698 19.3978C21.5554 19.1956 21.4982 19.1534 21.4036 19.0875C21.371 19.0629 21.3256 19.0464 21.2508 19.0429C21.2264 19.0429 21.1656 19.0381 21.0091 19.0381C20.8902 19.0381 20.8248 19.0429 20.8119 19.0429C20.7875 19.0429 20.7922 19.0429 20.7839 19.1122C20.7839 19.1533 20.7792 19.2367 20.7792 19.4719V19.7035H20.8365C20.9193 19.7035 20.9963 19.6952 21.0384 19.6835C21.1119 19.6623 21.182 19.6129 21.2227 19.5554C21.2345 19.5341 21.2554 19.4355 21.2601 19.4061C21.2779 19.3974 21.2975 19.393 21.3173 19.3931C21.3384 19.3931 21.3546 19.3979 21.3663 19.4061C21.3628 19.4801 21.3466 19.6164 21.3466 19.7904C21.3466 19.8774 21.3582 20.0678 21.3582 20.1465C21.3384 20.1584 21.3337 20.1584 21.3091 20.1584C21.2929 20.1584 21.2718 20.1584 21.2555 20.1548C21.2392 20.0009 21.2181 19.8986 21.0874 19.8445C21.0174 19.8151 20.9601 19.8069 20.8948 19.8069C20.8574 19.8069 20.812 19.8116 20.7757 19.8151V20.283C20.7757 20.3899 20.7839 20.4558 20.7956 20.4933C20.8119 20.5227 20.8528 20.5838 20.903 20.5921C20.9274 20.5968 20.9765 20.605 21.0664 20.605H21.3255C21.3908 20.605 21.4819 20.5968 21.5145 20.5757C21.58 20.5345 21.7445 20.357 21.8017 20.1912C21.8215 20.183 21.839 20.183 21.8553 20.183C21.8671 20.183 21.888 20.1877 21.9044 20.196V20.6673C21.9044 20.712 21.8752 20.7167 21.8098 20.7167ZM23.0577 20.7579C22.9094 20.7579 22.7461 20.7003 22.6468 20.6509C22.6264 20.6407 22.6042 20.6347 22.5815 20.6333C22.5617 20.6333 22.508 20.6626 22.4496 20.7038C22.4088 20.7038 22.3598 20.6838 22.348 20.6509C22.348 20.6133 22.3807 20.5016 22.3807 20.4311C22.3807 20.3899 22.3678 20.1877 22.3644 20.1419C22.3807 20.1173 22.4134 20.1043 22.4415 20.1043H22.4706C22.508 20.1796 22.5815 20.3735 22.6352 20.4523C22.7461 20.5804 22.9094 20.6379 23.0285 20.6379C23.1604 20.6379 23.2584 20.6133 23.3168 20.5509C23.3984 20.4722 23.4148 20.4229 23.4148 20.336C23.4148 20.27 23.4031 20.216 23.3658 20.1749C23.3203 20.1173 23.283 20.0925 23.1814 20.0432C23.1032 20.0056 22.8278 19.935 22.7297 19.881C22.606 19.8234 22.5442 19.7739 22.4834 19.7082C22.4088 19.6129 22.3807 19.4849 22.3807 19.3815C22.3807 19.0958 22.606 18.8806 22.9258 18.8806C23.046 18.8806 23.2094 18.8936 23.3495 19.0053C23.3813 18.9685 23.4156 18.9339 23.4521 18.9019C23.5047 18.9019 23.542 18.9301 23.5468 18.9512C23.542 18.9923 23.5176 19.104 23.5176 19.1956C23.5176 19.2403 23.5468 19.4308 23.5468 19.4602C23.5257 19.4684 23.5047 19.4848 23.4767 19.4848C23.4685 19.4848 23.4557 19.4801 23.444 19.4766C23.3938 19.3896 23.3495 19.2451 23.2958 19.1663C23.214 19.0546 23.0985 19.0135 22.9433 19.0135C22.7659 19.0135 22.6223 19.1252 22.6223 19.2779C22.6223 19.4261 22.7414 19.4966 22.8405 19.5425C22.9281 19.5773 23.0169 19.609 23.1066 19.6377C23.2386 19.6835 23.3367 19.7165 23.3904 19.7447C23.5957 19.8527 23.6821 20.0056 23.6821 20.216C23.6821 20.5474 23.3858 20.7579 23.0577 20.7579ZM20.4962 23.5196C19.9582 23.5196 19.6664 23.5079 19.5929 23.5079C19.5357 23.5079 19.4038 23.5032 19.3384 23.5032C19.2648 23.5032 19.0922 23.516 18.9031 23.516L18.7968 23.5113C18.7887 23.4949 18.7887 23.4867 18.7887 23.4702C18.7887 23.4573 18.7887 23.4373 18.7922 23.4209C18.9358 23.408 19.0385 23.3833 19.063 23.3621C19.0922 23.3257 19.1132 23.2504 19.1213 23.0894C19.1213 23.0072 19.1248 22.9166 19.1248 22.8213C19.1248 22.685 19.1213 22.5192 19.1213 22.3206V22.0397C19.1166 21.8457 19.0221 21.8457 18.8213 21.8211C18.8169 21.8062 18.8141 21.7908 18.8132 21.7753C18.8132 21.7623 18.8167 21.7341 18.8295 21.7294H18.9276C18.9941 21.7294 19.1703 21.7342 19.5065 21.7342C19.8146 21.7342 20.1146 21.7377 20.1799 21.7377C20.2208 21.7377 20.3398 21.7424 20.3644 21.7424C20.4063 21.7424 20.4227 21.7458 20.4227 21.7835L20.4471 22.189C20.4227 22.2008 20.418 22.2054 20.3982 22.2054C20.3819 22.2054 20.3691 22.2054 20.3562 22.2007C20.2371 21.9986 20.18 21.9574 20.0901 21.8904C20.0574 21.8658 20.0072 21.8493 19.9337 21.8457C19.9092 21.8457 19.8473 21.841 19.6956 21.841C19.573 21.841 19.5112 21.8457 19.4948 21.8457C19.4738 21.8457 19.4785 21.8457 19.4703 21.9152C19.4656 21.9574 19.4621 22.0397 19.4621 22.2748V22.5063H19.5228C19.601 22.5063 19.6792 22.4982 19.7247 22.4864C19.7948 22.4652 19.8683 22.4159 19.9045 22.3583C19.9208 22.3371 19.9384 22.2384 19.9466 22.2089C19.9582 22.2008 19.9792 22.1972 20.0037 22.1972C20.0197 22.1968 20.0355 22.2008 20.0492 22.2089C20.0445 22.283 20.0329 22.4194 20.0329 22.5934C20.0329 22.6803 20.0411 22.8708 20.0411 22.9495C20.0247 22.9612 20.0154 22.9612 19.9908 22.9612C19.9792 22.9612 19.9546 22.9612 19.9419 22.9577C19.9255 22.805 19.9009 22.7015 19.7738 22.6475C19.7037 22.6181 19.6466 22.6099 19.5765 22.6099C19.5392 22.6099 19.4948 22.6146 19.4574 22.618V23.0859C19.4574 23.1929 19.4656 23.2598 19.4819 23.2963C19.4948 23.3257 19.5357 23.3868 19.5894 23.395C19.6138 23.3997 19.6582 23.408 19.7527 23.408H20.0072C20.0737 23.408 20.1683 23.3997 20.2009 23.3786C20.2616 23.3374 20.4262 23.1598 20.4834 22.9942C20.5079 22.9859 20.5208 22.9859 20.537 22.9859C20.5534 22.9859 20.5698 22.9907 20.5907 22.9989V23.4702C20.5907 23.516 20.5616 23.5196 20.4962 23.5196ZM23.0823 21.8205C22.9013 21.8288 22.7462 21.9287 22.7462 22.2178L22.7415 23.1359C22.7415 23.1723 22.7578 23.4333 22.7578 23.532C22.7298 23.5485 22.7007 23.5614 22.6843 23.5614C22.6761 23.5614 22.6598 23.5485 22.6388 23.532L21.3864 22.1755L21.3992 22.453L21.4039 22.9537C21.4039 22.9901 21.4121 23.0854 21.4203 23.1559C21.4285 23.2676 21.4611 23.3051 21.5102 23.3462C21.572 23.4004 21.6748 23.4168 21.7482 23.425C21.756 23.4373 21.76 23.4516 21.7599 23.4662C21.7583 23.4823 21.7527 23.4976 21.7436 23.5108H21.6082C21.4938 23.5108 21.4039 23.5073 21.2849 23.5073C21.2067 23.5073 21.0958 23.5156 21.0176 23.5156H20.9604C20.9557 23.5026 20.9557 23.4827 20.9557 23.4745C20.9557 23.4662 20.9557 23.4497 20.9639 23.4286C21.0549 23.4204 21.1938 23.3792 21.2475 23.3051C21.2674 23.2593 21.2767 23.1771 21.2767 23.0901V22.4494C21.2767 22.346 21.272 22.2919 21.2674 22.1932C21.2639 22.1097 21.2475 22.0474 21.2067 21.9981C21.202 21.9863 21.1612 21.9451 21.1203 21.9028C21.0795 21.87 20.9802 21.8418 20.9184 21.8159C20.9121 21.8029 20.9082 21.789 20.9067 21.7747C20.9067 21.763 20.9102 21.7418 20.9184 21.7301H20.9639C21.0012 21.7301 21.1938 21.7383 21.342 21.7383H21.4285C21.4448 21.7465 21.4728 21.763 21.4809 21.7747L22.4088 22.7961C22.4789 22.8749 22.5687 22.9784 22.6189 23.0443V22.3084C22.6189 22.2096 22.6142 22.1391 22.6108 22.1015C22.6026 22.0275 22.5851 21.9617 22.5572 21.9111C22.5279 21.8664 22.3551 21.8418 22.2652 21.8205C22.2572 21.8042 22.2572 21.7829 22.2572 21.7666C22.2572 21.7583 22.2572 21.7465 22.2619 21.7301H22.3143C22.4007 21.7301 22.5407 21.7418 22.6271 21.7418C22.8407 21.7418 22.906 21.7336 23.0123 21.7336H23.0823C23.0905 21.7501 23.0905 21.7665 23.0905 21.7794C23.0905 21.7877 23.0905 21.8077 23.0823 21.8205ZM28.932 16.2187C28.7558 16.2269 28.5959 16.3256 28.5959 16.6159V17.5327C28.5959 17.5704 28.6076 17.8313 28.6076 17.9301C28.5832 17.9466 28.5504 17.9595 28.5375 17.9595C28.5259 17.9595 28.5131 17.9466 28.4886 17.9301L27.2362 16.5748L27.2537 16.851L27.2572 17.3518C27.2572 17.3882 27.2653 17.4835 27.2701 17.5539C27.2817 17.6657 27.3144 17.7032 27.36 17.7443C27.4253 17.7985 27.528 17.8149 27.598 17.8231C27.6058 17.8354 27.6098 17.8497 27.6097 17.8643C27.6082 17.8797 27.6042 17.8948 27.598 17.9089H27.4579C27.3471 17.9089 27.2572 17.9054 27.1346 17.9054C27.0565 17.9054 26.9491 17.9136 26.8708 17.9136H26.8137C26.8097 17.9002 26.807 17.8865 26.8055 17.8725C26.8055 17.8643 26.8055 17.8478 26.8184 17.8267C26.9047 17.8185 27.0436 17.7773 27.0973 17.7032C27.1217 17.6574 27.1264 17.5752 27.1264 17.4882V16.8475C27.1264 16.7441 27.1264 16.69 27.1217 16.5913C27.1184 16.5078 27.0973 16.4455 27.06 16.3962C27.0518 16.3844 27.0144 16.3432 26.9701 16.3009C26.9327 16.2681 26.83 16.2398 26.7682 16.214C26.7647 16.1975 26.76 16.1775 26.76 16.1728C26.761 16.1576 26.7637 16.1427 26.7682 16.1282H26.8184C26.851 16.1282 27.0436 16.1364 27.1918 16.1364H27.2782C27.2946 16.1446 27.3225 16.161 27.3354 16.1728L28.2633 17.1942C28.3333 17.273 28.4232 17.3765 28.4722 17.4424V16.7065C28.4722 16.6077 28.464 16.5372 28.4605 16.4996C28.4568 16.4329 28.4385 16.3679 28.4069 16.3092C28.3777 16.2645 28.2049 16.2398 28.1197 16.2186C28.1116 16.2018 28.1073 16.1833 28.1069 16.1646C28.1069 16.1564 28.1069 16.1446 28.1151 16.1282H28.1687C28.2551 16.1282 28.394 16.1399 28.4804 16.1399C28.6893 16.1399 28.7593 16.1317 28.8667 16.1317H28.932C28.9396 16.1458 28.944 16.1615 28.9449 16.1775C28.9438 16.192 28.9394 16.2062 28.932 16.2187ZM30.488 16.3882C30.4016 16.273 30.2955 16.2025 30.1355 16.2025C29.9873 16.2025 29.8928 16.2683 29.8064 16.3881C29.7002 16.5245 29.6418 16.7432 29.6418 17.0206C29.6418 17.2933 29.7002 17.5084 29.7983 17.6448C29.8881 17.7775 29.9908 17.8434 30.1472 17.8434C30.3363 17.8434 30.4472 17.7529 30.5336 17.5989C30.6117 17.4625 30.6479 17.2733 30.6479 17.0253C30.6479 16.7314 30.5907 16.5246 30.488 16.3882ZM30.7752 17.6942C30.6035 17.8634 30.3642 17.9633 30.1426 17.9633C29.9336 17.9633 29.6921 17.8728 29.5228 17.7071C29.3384 17.5296 29.2567 17.2898 29.2567 17.0253C29.2567 16.7726 29.3384 16.5328 29.5228 16.3506C29.72 16.1602 29.9336 16.0825 30.1473 16.0825C30.3036 16.0825 30.4473 16.1237 30.6152 16.2142C30.8908 16.3917 31.0506 16.6855 31.0506 17.0076C31.0506 17.2603 30.9515 17.5132 30.7752 17.6942ZM33.2957 16.227C33.1358 16.2398 33.0295 16.3256 32.9794 16.4373L32.306 17.9466C32.306 17.9466 32.2733 17.9712 32.2534 17.9712C32.2324 17.9712 32.2045 17.9466 32.1916 17.9008C32.1753 17.8478 32.0924 17.6363 31.9126 17.2237L31.6991 16.7312C31.6209 16.549 31.559 16.4291 31.5392 16.3927C31.4563 16.2563 31.3617 16.2433 31.2555 16.227C31.2392 16.2105 31.2392 16.194 31.2392 16.1811C31.2392 16.1646 31.2392 16.1564 31.2508 16.1364H31.3618C31.4855 16.1364 31.5916 16.1447 31.6862 16.1447C31.7971 16.1447 31.9827 16.1317 32.1099 16.1317H32.1787C32.1962 16.1364 32.1998 16.161 32.1998 16.1729C32.1998 16.1811 32.1998 16.2105 32.1916 16.2222C32.1052 16.2317 31.9243 16.227 31.9243 16.3421C31.9243 16.368 31.9243 16.4127 31.9406 16.442L32.3807 17.5L32.7541 16.6243C32.7842 16.5508 32.7997 16.4721 32.7997 16.3927C32.7997 16.2928 32.7296 16.2481 32.5441 16.227C32.5406 16.214 32.5359 16.1976 32.5359 16.1858C32.5359 16.1694 32.5406 16.1446 32.5441 16.1318H32.5977C32.6795 16.1318 32.7623 16.1447 32.9503 16.1447C32.9794 16.1447 33.1114 16.1364 33.172 16.1364H33.3004C33.3086 16.1529 33.312 16.161 33.312 16.1775C33.312 16.1894 33.3086 16.214 33.2957 16.227ZM28.3532 19.4928C28.3369 19.4928 28.3252 19.4881 28.2995 19.4881C28.2633 19.3777 28.2131 19.2779 28.1688 19.2237C28.0987 19.1332 28.0252 19.0709 27.8397 19.0509C27.7988 19.0462 27.7008 19.0462 27.668 19.0462L27.6633 19.8361C27.6633 19.9607 27.6633 20.1041 27.668 20.378C27.6715 20.5849 27.7661 20.5849 27.9797 20.6131C27.9925 20.6343 27.9925 20.6507 27.9925 20.6624C27.9925 20.6789 27.9925 20.6918 27.9844 20.7083H27.9061C27.7789 20.7083 27.5326 20.7001 27.4579 20.7001C27.4055 20.7001 27.1346 20.713 27.0028 20.713C26.9946 20.6919 26.9899 20.6919 26.9899 20.6624C26.9899 20.6507 26.9946 20.6343 26.9981 20.6178C27.2817 20.5966 27.3109 20.5426 27.3225 20.4521C27.3272 20.3945 27.3272 20.1582 27.3272 19.9184V19.2649C27.3272 19.1826 27.3272 19.1003 27.3144 19.0462C27.2607 19.0462 27.0845 19.0462 27.0354 19.0674C26.8919 19.1203 26.7938 19.2402 26.6829 19.46C26.6666 19.4635 26.6456 19.4635 26.6328 19.4635C26.6252 19.464 26.6176 19.4627 26.6105 19.4599C26.6034 19.457 26.5971 19.4526 26.5919 19.447V18.9886C26.5919 18.9475 26.6001 18.9346 26.6456 18.9346C26.6911 18.9346 26.7519 18.9393 26.8382 18.9393C26.9047 18.9393 27.1627 18.9428 27.4871 18.9428C27.9096 18.9428 28.2295 18.931 28.3076 18.931C28.3531 18.931 28.3824 18.931 28.394 18.9475C28.4022 18.9557 28.3987 18.9886 28.3987 19.0133V19.4717C28.3934 19.4787 28.3864 19.4842 28.3785 19.4879C28.3706 19.4916 28.362 19.4933 28.3532 19.4928ZM29.3592 19.2987H29.3545C29.3183 19.3692 29.2529 19.522 29.2272 19.5878C29.1327 19.8194 29.1 19.8982 29.0837 19.9311H29.6136C29.5728 19.824 29.4373 19.4973 29.3592 19.2987ZM30.4796 20.7163H30.3407C30.2497 20.7163 30.147 20.7046 30.0407 20.7046C29.8727 20.7046 29.6591 20.7163 29.5762 20.7163C29.5681 20.7081 29.5646 20.6917 29.5646 20.6716C29.5646 20.6587 29.5681 20.6422 29.5728 20.6293C29.7455 20.6211 29.8143 20.5929 29.8143 20.5223C29.8143 20.493 29.8143 20.4354 29.7618 20.2908C29.7082 20.158 29.679 20.1004 29.6673 20.0675C29.6591 20.0557 29.6545 20.0475 29.6183 20.0475H29.0592C29.0219 20.0922 28.9775 20.2167 28.9285 20.3896C28.9156 20.4354 28.9156 20.4765 28.9156 20.493C28.9156 20.5517 28.9693 20.6175 29.1666 20.6211C29.1751 20.6365 29.1792 20.654 29.1783 20.6716C29.1783 20.6834 29.1783 20.6962 29.1748 20.7128H29.1246C28.9938 20.7128 28.9565 20.7046 28.8176 20.7046C28.7266 20.7046 28.5094 20.7128 28.4359 20.7128C28.4312 20.6963 28.4278 20.6916 28.4278 20.6752C28.4278 20.6634 28.4278 20.6505 28.4359 20.6293C28.5422 20.6046 28.6401 20.5764 28.6904 20.4976C28.7184 20.4565 28.8129 20.2908 28.9156 20.0345C29.0137 19.7948 29.1327 19.4927 29.1864 19.3692C29.2611 19.2117 29.2856 19.1624 29.3101 19.1083C29.3394 19.0453 29.371 18.9834 29.4047 18.9226C29.421 18.9014 29.4572 18.8896 29.4735 18.8896C29.5027 18.8896 29.54 18.9061 29.5517 18.9261C29.5681 18.959 29.5891 18.9931 29.5926 19.013C29.6953 19.2611 29.7781 19.4809 29.9054 19.7865C29.9707 19.9393 30.0034 20.0392 30.0734 20.2002C30.1224 20.299 30.1517 20.3778 30.2007 20.4683C30.266 20.6046 30.3734 20.6046 30.4796 20.634C30.4843 20.647 30.496 20.6586 30.496 20.6752C30.496 20.6916 30.4878 20.6998 30.4796 20.7163ZM33.2218 20.7167L32.504 20.7084H32.3068C32.2998 20.6941 32.2954 20.6786 32.2939 20.6626C32.2939 20.638 32.2986 20.6344 32.3103 20.6179C32.3476 20.6132 32.4422 20.6179 32.4865 20.6015C32.5612 20.5674 32.5904 20.4934 32.5904 20.3863V19.1004H32.5857L32.2076 19.935C32.1667 20.0267 32.1177 20.1254 32.0769 20.2242C31.9905 20.4193 31.945 20.5509 31.9204 20.6297C31.9088 20.6626 31.8796 20.6626 31.8632 20.6626C31.8388 20.6626 31.8224 20.6544 31.8096 20.6133C31.7605 20.5062 31.7278 20.4358 31.7115 20.3899L31.1198 19.0792H31.1081V19.4142L31.1198 20.2501C31.1198 20.5062 31.2517 20.6261 31.4525 20.6261C31.4602 20.6388 31.4657 20.6528 31.4687 20.6673C31.4682 20.6829 31.4642 20.6981 31.4571 20.712C31.4443 20.712 31.4035 20.7167 31.366 20.7167C31.3416 20.7167 31.2109 20.7037 31.0217 20.7037C30.9681 20.7037 30.8572 20.7084 30.7708 20.7084H30.6518C30.6482 20.692 30.6436 20.6791 30.6436 20.6626C30.6436 20.6591 30.6483 20.638 30.6518 20.6261C30.7019 20.6133 30.8735 20.5722 30.9109 20.5345C30.9482 20.498 30.9809 20.4228 30.9809 20.2453V19.3273C30.9762 19.1827 30.9599 19.1251 30.8899 19.0757C30.8619 19.0546 30.751 19.0429 30.6564 19.0299C30.6489 19.0145 30.6445 18.9977 30.6436 18.9806C30.6436 18.9676 30.6483 18.9512 30.6564 18.93C30.7265 18.93 30.849 18.9395 30.9728 18.9395H31.4035C31.4197 18.9511 31.4279 18.9593 31.4408 18.9841L31.9695 20.1912L32.064 19.9514C32.1469 19.7575 32.2659 19.4637 32.434 19.1498C32.4702 19.0792 32.5158 18.9888 32.5402 18.943L33.2136 18.93C33.2219 18.9476 33.23 18.9593 33.23 18.9758C33.23 18.9918 33.226 19.0076 33.2184 19.0217C33.1436 19.0346 33.0164 19.0346 32.9546 19.1368C32.9347 19.1709 32.9219 19.2039 32.9219 19.3484V20.2125C32.9219 20.5427 33.0047 20.5757 33.0409 20.6015C33.0619 20.6133 33.1647 20.6261 33.2219 20.6261C33.23 20.6426 33.2346 20.6544 33.2346 20.6709C33.2346 20.6955 33.2264 20.7002 33.2218 20.7167ZM28.3123 22.296C28.296 22.296 28.2832 22.2912 28.2587 22.2912C28.2224 22.1808 28.1722 22.081 28.128 22.0268C28.0578 21.9364 27.9844 21.874 27.7988 21.8541C27.7579 21.8493 27.6599 21.8493 27.6272 21.8493L27.6225 22.6392C27.6225 22.7627 27.6225 22.9072 27.6272 23.1811C27.6307 23.3869 27.7252 23.3869 27.9388 23.4162C27.9472 23.4312 27.9513 23.4483 27.9505 23.4656C27.9505 23.482 27.9505 23.4949 27.9424 23.5114H27.8652C27.7381 23.5114 27.4919 23.5032 27.4171 23.5032C27.3634 23.5032 27.0927 23.5161 26.962 23.5161C26.9538 23.495 26.9491 23.495 26.9491 23.4656C26.9491 23.4538 26.9538 23.4373 26.9573 23.4209C27.2409 23.3997 27.27 23.3457 27.2817 23.2552C27.2864 23.1976 27.2864 22.9613 27.2864 22.7215V22.0692C27.2864 21.9857 27.2864 21.9034 27.2735 21.8494C27.2199 21.8494 27.0436 21.8494 26.9946 21.8705C26.851 21.9234 26.7518 22.0433 26.6421 22.2631C26.6246 22.2666 26.6048 22.2666 26.5919 22.2666C26.5843 22.2671 26.5767 22.2659 26.5697 22.263C26.5626 22.2602 26.5563 22.2558 26.5511 22.2501V21.7917C26.5511 21.7506 26.5593 21.7378 26.6047 21.7378C26.6503 21.7378 26.711 21.7424 26.7974 21.7424C26.8628 21.7424 27.1218 21.7459 27.4463 21.7459C27.8688 21.7459 28.1886 21.7342 28.2668 21.7342C28.3123 21.7342 28.3415 21.7342 28.3531 21.7506C28.3613 21.7588 28.3578 21.7917 28.3578 21.8165V22.2749C28.3525 22.2818 28.3456 22.2874 28.3376 22.291C28.3297 22.2947 28.321 22.2964 28.3123 22.296ZM30.5167 21.8289C30.3568 21.8406 30.2493 21.9276 30.2003 22.0392L29.5269 23.5485C29.5269 23.5485 29.4941 23.5731 29.4743 23.5731C29.4533 23.5731 29.4242 23.5485 29.4125 23.5027C29.3961 23.4497 29.3144 23.2383 29.1335 22.8256L28.92 22.3331C28.8418 22.1509 28.7799 22.031 28.76 21.9946C28.6772 21.8582 28.5826 21.8453 28.4764 21.8289C28.4601 21.8124 28.4601 21.7959 28.4601 21.783C28.4601 21.7666 28.4601 21.7583 28.4729 21.7383H28.5826C28.7063 21.7383 28.8125 21.7466 28.907 21.7466C29.018 21.7466 29.2023 21.7336 29.3308 21.7336H29.3996C29.416 21.7383 29.4207 21.763 29.4207 21.7748C29.4207 21.783 29.4207 21.8124 29.4125 21.8241C29.3261 21.8324 29.1452 21.8289 29.1452 21.944C29.1452 21.9699 29.1452 22.0146 29.1615 22.044L29.6016 23.1019L29.975 22.2262C30.0048 22.1527 30.0199 22.074 30.0194 21.9946C30.0194 21.8947 29.9505 21.8488 29.765 21.8289C29.7615 21.8159 29.7568 21.7995 29.7568 21.7877C29.7568 21.7713 29.7615 21.7466 29.765 21.7337H29.8186C29.9015 21.7337 29.9832 21.7466 30.1723 21.7466C30.2003 21.7466 30.3321 21.7383 30.3929 21.7383H30.5213C30.5294 21.7548 30.5329 21.763 30.5329 21.7794C30.5329 21.7913 30.5294 21.8159 30.5167 21.8289ZM33.2587 23.5196L32.5444 23.5114H32.3437C32.3355 23.4949 32.3355 23.4738 32.3355 23.4656C32.3355 23.4409 32.3355 23.4373 32.3472 23.4209C32.3892 23.4161 32.479 23.4209 32.5281 23.4044C32.5981 23.3703 32.6261 23.2963 32.6261 23.1894V22.1466C32.6261 22.1466 32.6308 21.9574 32.6308 21.9034H32.6226L32.2491 22.7379C32.2036 22.8296 32.1593 22.9284 32.1137 23.0283C32.0309 23.2222 31.9818 23.3539 31.9574 23.4327C31.9492 23.4656 31.9212 23.4656 31.9002 23.4656C31.8791 23.4656 31.8628 23.4573 31.8465 23.4162C31.8021 23.3092 31.7683 23.2386 31.7519 23.1928L31.1566 21.8822H31.145V22.2172L31.1567 23.053C31.1614 23.3092 31.2885 23.4291 31.494 23.4291C31.5021 23.4408 31.5057 23.4656 31.5057 23.4702C31.5057 23.482 31.5057 23.4984 31.4975 23.516C31.4811 23.516 31.4438 23.5196 31.4029 23.5196C31.3784 23.5196 31.2512 23.5079 31.0621 23.5079C31.0049 23.5079 30.894 23.5114 30.8123 23.5114H30.6934C30.6852 23.4949 30.6805 23.482 30.6805 23.4656C30.6805 23.4621 30.6852 23.4409 30.6934 23.4291C30.7389 23.4162 30.9151 23.3751 30.9524 23.3374C30.9851 23.301 31.0178 23.2258 31.0178 23.0483L31.0213 22.6262L31.0178 22.1302C31.0131 21.9856 31.0014 21.928 30.9268 21.8787C30.8987 21.8576 30.7879 21.8457 30.6968 21.8328C30.6869 21.8183 30.6812 21.8012 30.6805 21.7835C30.6805 21.7705 30.6852 21.7541 30.6968 21.7341C30.7633 21.7341 30.8906 21.7423 31.0096 21.7423H31.4438C31.4566 21.7541 31.4695 21.7623 31.4777 21.787L32.0064 22.9942L32.1056 22.7544C32.1837 22.5604 32.3064 22.2666 32.4744 21.9528C32.507 21.8822 32.5573 21.7917 32.5818 21.7458L33.2505 21.7341C33.2587 21.7505 33.2716 21.7623 33.2716 21.7788C33.2716 21.7952 33.2634 21.8081 33.2552 21.8246C33.1852 21.8376 33.0579 21.8376 32.9962 21.9398C32.9751 21.9739 32.9587 22.0068 32.9587 22.1514V23.0153C32.9587 23.3457 33.0417 23.3785 33.0825 23.4044C33.0989 23.4162 33.2015 23.4291 33.2587 23.4291C33.2716 23.4456 33.2751 23.4573 33.2751 23.4738C33.2751 23.4984 33.2669 23.5032 33.2587 23.5196Z" fill="#231F20"/>
<path d="M74.1714 18.972C74.1714 17.2394 73.1863 15.6231 71.7204 14.9578C70.9652 14.6311 69.6359 14.4242 67.6202 14.4242C65.8543 14.4242 63.1045 14.5652 61.893 14.5652C61.0433 14.5652 59.7605 14.4701 59.0498 14.4701C58.9809 14.5852 58.9331 14.7462 58.9331 14.8379C58.9331 14.9332 58.9331 15.1847 59.003 15.3011C59.4385 15.4409 60.1481 15.5526 60.6079 15.6725C60.9965 16.0157 61.0888 16.3179 61.2265 16.9878C61.2942 17.7931 61.3409 18.811 61.3409 20.5635C61.3409 25.4335 61.3187 27.9924 61.2488 28.5472C61.1588 29.2419 60.7001 29.9565 59.9426 30.1834C59.5984 30.254 59.0929 30.3704 58.6156 30.415C58.5834 30.5744 58.5673 30.7367 58.5677 30.8993C58.5677 31.085 58.5922 31.1097 58.6354 31.2261C59.3684 31.2261 61.5241 31.1309 62.3493 31.1309C64.3895 31.1309 66.474 31.2261 67.3202 31.2261H67.8945C67.9645 31.1309 67.9645 30.9698 67.9645 30.8581C67.9645 30.717 67.9645 30.5314 67.9178 30.4397C67.2291 30.3492 66.1997 30.2093 65.7644 29.7003C65.5345 29.4276 65.3046 29.0303 65.3046 28.3403L65.2345 23.2636C66.6094 23.3541 68.0777 23.4 68.8796 23.4C69.9335 23.4 70.8263 23.2177 71.536 22.9861C73.163 22.3667 74.1714 20.7458 74.1714 18.972ZM70.0724 18.8768C70.0724 20.0546 69.6581 21.0925 68.904 21.7626C68.422 22.1551 67.6646 22.3867 66.5195 22.3867C66.0387 22.3867 65.6698 22.3667 65.5345 22.3409C65.3512 22.3162 65.2345 22.2962 65.2345 22.1763L65.259 15.4162C65.5345 15.3963 65.9243 15.3011 66.5897 15.3011C68.1465 15.3011 69.1095 15.6936 69.567 16.6646C69.8856 17.2852 70.0724 18.0705 70.0724 18.8768ZM94.9549 30.8335C94.9549 30.717 94.9106 30.4397 94.8405 30.3492C94.613 30.3492 93.6746 30.3033 93.3302 30.0471C93.2147 29.9107 93.0327 29.6345 92.9393 29.4687C92.6404 28.4108 92.2996 27.695 91.9542 26.8193C91.4721 25.665 90.8093 24.5777 90.2595 24.0699C90.0517 23.8878 89.3421 23.5856 88.5391 23.3082C88.1737 23.1718 87.8761 23.0567 87.6007 22.9403C87.9438 22.871 88.1038 22.8451 88.5391 22.8039C90.2362 22.5936 90.6248 22.2963 91.0589 21.9483C91.9775 21.2536 92.4794 20.1957 92.4794 18.9473C92.4794 17.0784 91.2889 15.2799 89.6163 14.7462C89.0643 14.5852 88.0839 14.4947 86.8689 14.4947C85.1485 14.4947 82.743 14.6557 81.5981 14.6557C81.2525 14.6557 79.2579 14.6099 78.4573 14.6099C78.1117 14.6099 77.2422 14.5652 77.1068 14.5652C77.0368 14.7263 76.9912 14.9072 76.9912 15.0038C76.9912 15.0942 77.0147 15.3258 77.0368 15.4162C77.4267 15.4621 78.1374 15.5526 78.5039 15.6232C79.0524 16.0405 79.2369 16.3637 79.4644 16.8714C79.5824 17.6121 79.6022 19.501 79.6022 22.7546C79.6022 25.1114 79.6267 27.8314 79.5123 28.7118C79.4446 29.2866 79.2369 29.9777 78.5716 30.254C78.2763 30.3033 77.7243 30.3951 77.2667 30.415C77.1967 30.5314 77.1512 30.763 77.1512 30.8781C77.1512 30.9487 77.1967 31.1309 77.2422 31.2461C77.5667 31.2461 81.0716 31.1803 81.8023 31.1803C83.2682 31.1803 84.5077 31.2461 85.8138 31.2461C85.8581 31.1555 85.9037 30.9945 85.9037 30.8993C85.9037 30.7418 85.8581 30.5103 85.8138 30.415C85.3539 30.3704 84.7832 30.234 84.531 30.1834C83.958 29.9107 83.5436 29.3571 83.5436 28.5472L83.5226 23.2177C83.7036 23.1931 83.9336 23.1931 84.1179 23.1931C84.4132 23.1931 84.7587 23.2424 85.3306 23.561C86.1791 24.0488 86.5935 24.3967 87.1431 25.2478C87.8762 26.4009 88.3581 28.5225 88.587 30.2093C88.6547 30.6924 88.8367 31.1097 89.2744 31.1555C89.4565 31.1802 90.6715 31.2261 91.5422 31.2261H94.8196C94.9106 31.1309 94.9549 30.9486 94.9549 30.8335ZM88.3115 18.7651C88.3115 20.1957 87.3485 21.833 86.2281 22.1104C85.7682 22.2257 85.1929 22.2962 84.3478 22.2962C84.1179 22.2962 83.7736 22.2962 83.4982 22.2457L83.476 20.2861V16.0405C83.476 15.7643 83.5437 15.602 83.6125 15.5327C83.6802 15.4622 84.0957 15.3963 84.5778 15.3963C86.3635 15.3963 87.1432 15.5527 87.7839 16.64C88.1493 17.2641 88.3115 17.9798 88.3115 18.7651ZM106.687 30.8089C106.687 30.6925 106.663 30.4398 106.62 30.3493C106.275 30.3246 105.337 30.2341 104.925 30.1424C104.557 29.7004 104.303 29.1962 104.144 28.3651C104.122 27.2567 104.097 24.9704 104.097 22.8252V17.1489C104.097 16.5248 104.349 16.0405 104.512 15.9007C104.947 15.4869 105.818 15.3963 106.552 15.3011C106.597 15.2095 106.62 14.9579 106.62 14.8626C106.62 14.7263 106.552 14.5395 106.505 14.4948H105.84C104.877 14.4948 102.631 14.61 101.852 14.61C101.372 14.61 99.1263 14.5395 98.1179 14.5195H97.6161C97.546 14.61 97.5005 14.7017 97.5005 14.9073C97.5005 15.0038 97.5204 15.2341 97.546 15.3458C98.67 15.441 99.1707 15.5527 99.3329 15.6726C99.6085 15.8794 99.9959 16.3884 100.09 17.6322C100.111 18.0706 100.134 19.018 100.156 21.1432C100.181 22.2963 100.204 23.9077 100.204 25.2479C100.204 25.9179 100.156 27.4189 100.134 28.2241C100.09 28.7789 99.9737 29.3078 99.8161 29.61C99.5406 29.8415 99.2641 30.254 97.5904 30.3705C97.546 30.4609 97.5203 30.7631 97.5203 30.8582C97.5203 31.0392 97.5682 31.131 97.5682 31.2462H97.958C98.8754 31.2462 101.167 31.131 102.357 31.131C102.701 31.131 105.082 31.2015 105.84 31.2015H106.597C106.663 31.0852 106.687 30.8993 106.687 30.8089ZM129.344 14.8169C129.344 14.7264 129.318 14.5653 129.274 14.4949H128.744C127.599 14.4949 126.868 14.5394 124.804 14.5394C124.093 14.5394 123.038 14.4949 122.788 14.4949H122.193C122.123 14.5394 122.098 14.7969 122.098 14.8874C122.098 15.0039 122.123 15.1847 122.217 15.28C122.583 15.3963 123.979 15.5528 124.577 15.95C124.988 16.4331 125.169 17.4005 125.238 18.3021C125.264 18.6454 125.288 18.9921 125.288 19.9395V24.7635C125.288 25.3184 125.264 25.4994 125.238 25.7568C124.853 25.3184 124.298 24.4873 123.383 23.4493L115.74 14.9074C115.67 14.8169 115.534 14.7017 115.394 14.61C115.212 14.61 114.89 14.5853 114.709 14.5853C113.24 14.5853 110.583 14.5195 110.193 14.5195C110.148 14.61 110.103 14.7463 110.103 14.838C110.103 14.8874 110.148 15.2095 110.169 15.28C110.513 15.3705 111.271 15.4869 111.889 16.1569C112.258 16.5695 112.899 17.1489 113.104 17.6121C113.173 17.7731 113.196 18.0247 113.196 18.348C113.196 19.5469 113.129 21.2337 113.129 22.8452V27.5341C113.129 28.2946 113.059 28.8941 112.989 29.2867C112.509 29.7957 111.776 30.1635 110.583 30.4609C110.538 30.5808 110.493 30.7631 110.493 30.8782C110.493 30.9488 110.513 31.1804 110.561 31.2015H110.996C111.454 31.2015 112.509 31.131 113.196 31.131C114.204 31.131 114.89 31.2015 115.83 31.2015H117.197C117.287 31.1804 117.312 30.8993 117.312 30.8089C117.312 30.7172 117.287 30.5314 117.243 30.4398C116.447 30.2341 115.281 30.0472 114.501 29.0093C114.344 28.6625 114.204 26.9558 114.204 26.1447C114.204 25.4088 114.179 24.3968 114.179 23.0322C114.179 21.209 114.204 19.6174 114.227 18.8111C114.364 18.9721 114.525 19.179 114.639 19.3153L125.218 31.2968C125.332 31.4084 125.743 31.4331 125.859 31.4331C125.973 31.4331 126.043 31.4331 126.133 31.3872C126.179 31.2708 126.339 30.8994 126.339 30.3493C126.339 29.6793 126.314 28.9846 126.314 28.6426V19.0178C126.314 16.1319 127.669 15.3257 129.249 15.2551C129.318 15.1387 129.344 14.9334 129.344 14.8169ZM147.182 27.9923C147.113 27.7855 146.927 27.4387 146.402 27.4387C146.355 27.4387 146.285 27.4634 146.242 27.4634C144.865 29.4276 143.352 30.1634 141.634 30.1634C139.251 30.1634 137.556 28.5471 137.005 27.1165C136.706 26.355 136.296 24.694 136.296 22.9156C136.296 21.2335 136.548 19.8687 136.983 18.8767C137.99 16.2014 139.456 15.3703 141.245 15.3703C142.736 15.3703 143.972 16.2272 144.912 17.4461C145.301 17.9798 145.712 19.0178 146.077 20.2414C146.172 20.2613 146.377 20.3072 146.583 20.3072C146.721 20.3072 147.043 20.1955 147.133 20.1003C147.113 19.8488 146.883 18.0704 146.883 17.5167C146.883 16.8267 147.065 15.6935 147.065 15.2551C146.927 15.114 146.47 15.0236 146.172 15.0036C145.828 15.2551 145.712 15.5525 145.392 15.9498C144.11 15.0236 142.917 14.3089 140.306 14.3089C137.9 14.3089 135.996 15.1387 134.553 16.5952C132.973 18.1621 132.102 20.3319 132.102 23.1024C132.102 26.054 133.339 28.4801 135.333 30.0023C136.596 30.9239 138.45 31.548 140.671 31.548C143.467 31.548 145.507 30.4854 146.537 29.0808C146.948 28.5224 146.995 28.3849 147.182 27.9923ZM166.566 27.186C166.566 26.8639 166.566 26.724 166.541 26.5171C166.427 26.4466 166.381 26.4466 166.197 26.4466C166.037 26.4466 165.856 26.4466 165.692 26.4925C164.917 28.2697 163.791 29.6544 163.174 30.0223C162.831 30.2339 162.303 30.2786 161.454 30.2786H159.577C158.845 30.2786 158.27 30.2092 158.064 30.1634C157.72 30.0929 157.355 29.5392 157.195 29.1713C157.032 28.7787 156.94 28.7787 156.94 27.7161V22.664H157.79C158.017 22.664 158.569 22.7087 159.186 22.986C159.76 23.2423 159.99 23.5855 160.217 23.9581C160.425 24.2755 160.561 25.5497 160.606 25.8718C160.723 25.9377 161.021 25.9623 161.205 25.9623C161.386 25.9623 161.5 25.9377 161.66 25.8471C161.66 25.223 161.524 23.5397 161.524 22.6147C161.524 21.4603 161.683 19.8687 161.751 19.0424C161.66 18.9919 161.524 18.9472 161.295 18.9472C161.135 18.9472 160.836 18.9472 160.7 19.0178C160.631 19.3398 160.377 20.3072 160.331 20.3778C159.99 20.9561 159.39 21.3945 158.775 21.5802C158.362 21.6919 157.765 21.7625 157.444 21.7625H156.965V19.6173C156.965 17.4003 157.009 16.6856 157.032 16.2683C157.055 15.9957 157.1 15.6935 157.125 15.4867C157.33 15.4621 157.444 15.4408 158.5 15.4408C159.825 15.4408 160.448 15.462 160.653 15.462C161.295 15.5114 161.776 15.6477 162.12 15.9251C162.991 16.5952 163.656 17.6531 164.319 18.7862C164.457 18.8309 164.687 18.8309 164.801 18.8309C164.939 18.8309 164.961 18.7862 165.145 18.6945C165.145 17.2851 165.052 15.4621 165.006 14.8872C164.982 14.6557 164.939 14.585 164.481 14.585C164.296 14.585 163.426 14.5393 162.51 14.5393C161.205 14.5393 160.675 14.5652 158.68 14.5652C157.604 14.5652 155.382 14.585 154.442 14.585C153.069 14.585 151.899 14.5393 151.304 14.5393H150.523C150.454 14.631 150.411 14.8167 150.411 14.9072C150.411 15.0236 150.454 15.2798 150.523 15.3703C150.799 15.462 151.876 15.4408 152.198 15.6231C152.519 15.9005 152.814 16.0156 153.022 17.1241C153.069 17.6119 153.091 18.9473 153.091 20.0099V24.7634C153.091 25.7307 153.069 27.1413 153.044 27.7161C152.999 28.6165 152.679 29.7003 152.543 29.9106C152.333 30.0729 151.394 30.2092 150.479 30.2539C150.411 30.395 150.363 30.6265 150.363 30.7629C150.363 30.8993 150.411 31.065 150.479 31.1802H151.234C151.968 31.1802 154.671 31.1096 155.292 31.1096C155.864 31.1096 156.965 31.1554 158.293 31.1554C159.025 31.1554 161.18 31.2966 165.809 31.2966C165.991 31.2966 166.197 31.3165 166.427 31.246C166.497 31.1308 166.497 31.085 166.519 30.878C166.566 30.4149 166.566 29.0549 166.566 27.186ZM186.315 19.6866V14.9777C186.315 14.631 186.18 14.5392 185.835 14.5392C185.148 14.5392 181.53 14.631 177.864 14.631C175.021 14.631 172.661 14.5851 171.378 14.5851H169.68C169.384 14.5851 169.292 14.6557 169.292 14.9777V19.3857C169.384 19.455 169.542 19.4809 169.66 19.4809C169.75 19.4809 170.072 19.4809 170.163 19.4303C171.192 17.3345 172.157 16.2014 173.372 15.5772C174.058 15.5114 175.408 15.4867 175.776 15.4867C175.799 15.7382 175.824 16.5493 175.843 17.5167C175.868 19.1789 175.868 19.8935 175.868 23.8171C175.868 27.2118 175.843 28.7329 175.799 29.1008C175.708 29.7461 175.824 30.2339 173.073 30.3491C173.003 30.5101 173.003 30.6923 173.003 30.878C173.003 30.9697 173.003 31.1555 173.027 31.246H173.919C174.768 31.246 176.761 31.1554 177.588 31.1554C178.251 31.1554 180.384 31.226 181.78 31.226H182.42C182.489 31.1096 182.489 30.8581 182.489 30.7418C182.489 30.6019 182.467 30.4396 182.399 30.3245C182.145 30.3245 180.679 30.3703 180.039 29.8859C179.969 29.6344 179.832 28.9644 179.832 28.1546C179.809 25.6649 179.785 24.7187 179.785 23.0566C179.785 20.9103 179.809 19.455 179.809 15.462C180.129 15.462 180.865 15.4408 181.55 15.462C182.972 15.8546 183.66 16.3882 184.277 17.2146C184.666 17.7483 185.08 18.6452 185.491 19.7324C185.63 19.7783 185.746 19.7783 185.881 19.7783C185.973 19.7783 186.271 19.7324 186.315 19.6866ZM206.458 22.5935C206.458 19.3645 205.036 16.8961 202.377 15.4161C200.959 14.631 199.538 14.2384 198.025 14.2384C194.681 14.2384 191.656 16.2472 190.301 18.5335C189.43 19.964 188.976 21.5309 188.976 23.193C188.976 25.8471 190.259 28.4554 192.251 29.9565C193.765 31.065 195.482 31.6139 197.477 31.6139C198.694 31.6139 199.837 31.387 200.959 30.9486C202.22 30.4608 203.296 29.7003 204.143 28.754C205.634 27.1166 206.458 25.016 206.458 22.5935ZM202.311 22.1549C202.311 25.6403 201.348 28.7117 200.043 29.7955C199.379 30.3491 198.553 30.6265 197.613 30.6265C196.333 30.6265 195.207 30.1175 194.568 29.0808C193.697 27.7408 193.214 25.2476 193.214 23.0813C193.214 19.8687 194.038 17.3557 195.505 16.132C196.285 15.4867 197.086 15.234 197.889 15.234C199.128 15.234 200.319 15.8335 201.005 16.8267C201.876 18.0245 202.311 19.757 202.311 22.1549ZM228.568 14.8167C228.568 14.7262 228.55 14.5652 228.501 14.4947H227.976C226.828 14.4947 226.099 14.5392 224.033 14.5392C223.322 14.5392 222.267 14.4947 222.017 14.4947H221.422C221.353 14.5392 221.33 14.7967 221.33 14.8872C221.33 15.0037 221.353 15.1846 221.443 15.2798C221.813 15.3961 223.209 15.5526 223.803 15.9498C224.217 16.4329 224.401 17.4003 224.469 18.3019C224.49 18.6452 224.514 18.9919 224.514 19.9393V24.7634C224.514 25.3182 224.49 25.4993 224.469 25.7566C224.078 25.3182 223.53 24.4871 222.611 23.4492L214.959 14.9072C214.892 14.8167 214.753 14.7015 214.616 14.6099C214.432 14.6099 214.112 14.5851 213.931 14.5851C212.461 14.5851 209.805 14.5193 209.414 14.5193C209.37 14.6098 209.322 14.7461 209.322 14.8378C209.322 14.8872 209.37 15.2093 209.39 15.2798C209.734 15.3703 210.49 15.4867 211.111 16.1567C211.477 16.5693 212.117 17.1488 212.324 17.6119C212.393 17.7729 212.416 18.0245 212.416 18.3478C212.416 19.5467 212.346 21.2335 212.346 22.845V27.5339C212.346 28.2944 212.28 28.894 212.21 29.2865C211.731 29.7955 210.995 30.1634 209.805 30.4607C209.757 30.5806 209.715 30.7629 209.715 30.878C209.715 30.9486 209.734 31.1802 209.781 31.2013H210.215C210.676 31.2013 211.731 31.1308 212.416 31.1308C213.425 31.1308 214.112 31.2013 215.052 31.2013H216.427C216.516 31.1802 216.542 30.8992 216.542 30.8087C216.542 30.717 216.516 30.5312 216.472 30.4396C215.671 30.2339 214.501 30.047 213.721 29.0091C213.561 28.6623 213.425 26.9556 213.425 26.1445C213.425 25.4086 213.401 24.3966 213.401 23.032C213.401 21.2088 213.425 19.6172 213.448 18.8109C213.587 18.9719 213.747 19.1788 213.86 19.3152L224.447 31.2966C224.56 31.4082 224.972 31.4329 225.088 31.4329C225.201 31.4329 225.27 31.4329 225.364 31.387C225.409 31.2706 225.569 30.8993 225.569 30.3491C225.569 29.6791 225.546 28.9844 225.546 28.6424V19.0178C225.546 16.1319 226.897 15.3257 228.477 15.2551C228.55 15.1387 228.568 14.9332 228.568 14.8167ZM76.7617 40.6955C76.7617 40.605 76.7162 40.4639 76.6485 40.3981H75.9855C75.2736 40.3981 74.3106 40.4427 73.4855 40.4427C72.5704 40.4427 71.5398 40.3981 70.8734 40.3981H70.0494C69.9805 40.5345 69.956 40.5791 69.956 40.6955C69.956 40.7907 69.9804 40.8811 70.0249 40.9976C70.1194 40.9976 71.7907 41.0175 72.0884 41.436C72.3405 41.7827 72.8903 42.635 72.9813 43.1427C73.0256 43.3743 73.1656 44.3205 73.1656 45.6817C73.1656 47.6413 73.1656 48.9554 73.1435 49.6501C73.0956 50.9442 72.9579 51.9575 72.728 52.718C72.0885 54.7268 70.6003 55.7189 68.2392 55.7189C67.2295 55.7189 66.36 55.5132 65.5571 55.1406C64.0665 54.4047 63.3569 52.9942 63.3358 52.2337L63.2192 45.3139L63.1981 42.4975C63.1981 41.965 63.8611 41.4807 64.0898 41.2045C64.2743 41.1128 65.2815 41.0175 65.8546 40.9729C65.9247 40.8365 65.969 40.766 65.969 40.6497C65.969 40.5344 65.9013 40.4181 65.8091 40.3523L64.9396 40.3734C64.0898 40.398 62.9682 40.4181 62.2586 40.4181C61.158 40.4181 60.3083 40.3981 59.6231 40.3981H58.6626C58.5681 40.4639 58.5459 40.605 58.5459 40.7201C58.5459 40.8365 58.5681 40.9271 58.6381 40.9976C59.3688 41.0881 59.8508 41.1586 60.1729 41.2245C60.5616 41.456 60.8382 41.8486 60.9759 42.2412C60.9981 42.5433 61.0436 43.2792 61.0436 44.7343V50.2742C61.0436 51.7047 61.1136 52.718 61.2736 53.3669C61.5689 54.5658 62.2108 55.5132 63.2659 56.2032C64.3887 56.9426 65.7869 57.3105 67.4594 57.3105C68.9954 57.3105 70.3004 56.9884 71.4009 56.3643C72.5459 55.7436 73.2555 54.7268 73.6687 53.2963C73.8963 52.4453 74.0364 51.519 74.0364 50.5516V46.1201C74.0364 45.2891 74.0806 44.2512 74.0806 43.8339C74.1052 42.5891 74.4262 41.8486 74.7705 41.2949C75.1358 41.1798 75.4568 41.1128 76.6718 40.9729C76.7162 40.8812 76.7617 40.8108 76.7617 40.6955ZM97.9806 40.5791C97.9806 40.4886 97.9584 40.4181 97.9105 40.3523H97.3853C96.2403 40.3523 95.7349 40.3981 93.6749 40.3981C92.9618 40.3981 91.909 40.3523 91.6592 40.3523H91.0593C90.9939 40.3981 90.9694 40.5591 90.9694 40.6497C90.9694 40.766 90.9939 40.8107 91.0839 40.9024C91.4516 41.0175 92.8498 41.1798 93.445 41.5723C93.8547 42.0601 94.0402 43.0276 94.1091 43.928C94.1301 44.2712 94.1546 44.6192 94.1546 45.5654V52.4205C94.1546 52.9742 94.1301 53.1599 94.1091 53.4127C93.7193 52.9742 93.0552 52.1185 92.1623 51.0559L83.4074 40.766C83.3375 40.6708 83.202 40.5591 83.0632 40.4638C82.8798 40.4638 82.6523 40.4427 82.4679 40.4427C81.0019 40.4427 79.7193 40.3734 79.327 40.3734C79.2839 40.4639 79.2617 40.5098 79.2617 40.605C79.2617 40.6497 79.2839 40.8365 79.3049 40.9024C79.6491 40.9975 80.6576 41.1128 81.072 41.5511C81.4373 41.965 81.987 42.448 82.1925 42.9112C82.2625 43.0722 82.287 43.325 82.287 43.6518C82.287 44.8507 82.2169 47.0418 82.2169 48.658V53.5737C82.2169 54.3343 82.1481 54.9338 82.0804 55.3263C81.5972 55.8353 80.8642 56.2032 79.6726 56.5053C79.627 56.6205 79.5815 56.6663 79.5815 56.7816C79.5815 56.852 79.6025 56.9884 79.6492 57.0095H80.0846C80.5421 57.0095 81.5972 56.9426 82.287 56.9426C83.2931 56.9426 83.7506 57.0095 84.689 57.0095H86.0674C86.1584 56.9884 86.1784 56.8027 86.1784 56.711C86.1784 56.6205 86.1584 56.5711 86.1106 56.4794C85.3111 56.2737 84.1427 56.0869 83.3631 55.0489C83.202 54.7022 83.0631 52.9496 83.0631 52.1432C83.0631 51.4026 83.0409 50.2037 83.0409 48.8437C83.0409 47.0205 83.0631 44.5028 83.0877 43.6964C83.2254 43.8586 83.432 44.1102 83.5907 44.2959L94.4522 57.1048C94.5655 57.22 94.6121 57.2412 94.73 57.2412C94.8397 57.2412 94.7721 57.2412 94.8655 57.1953C94.9098 57.079 94.9798 56.711 94.9798 56.1573C94.9798 55.4873 94.9576 54.7973 94.9576 54.4506V44.6438C94.9576 41.7581 96.3103 40.9471 97.8907 40.8812C97.9584 40.766 97.9806 40.6955 97.9806 40.5791ZM108.338 56.711C108.338 56.5958 108.317 56.4794 108.27 56.389C107.925 56.3643 106.987 56.2737 106.573 56.182C106.207 55.7435 105.957 55.2359 105.792 54.4048C105.773 53.2963 105.749 50.7832 105.749 48.6333V42.7749C105.749 42.1507 106 41.6629 106.162 41.5266C106.598 41.1127 107.467 41.0175 108.2 40.9271C108.248 40.8365 108.27 40.7201 108.27 40.6297C108.27 40.5779 108.26 40.5265 108.24 40.4788C108.22 40.4311 108.191 40.388 108.154 40.3522H107.491C106.528 40.3522 105.153 40.4639 104.372 40.4639C103.894 40.4639 102.517 40.3981 101.511 40.3734H101.006C100.937 40.4639 100.891 40.4639 100.891 40.6708C100.891 40.766 100.914 40.8565 100.937 40.9729C102.059 41.067 102.564 41.1798 102.722 41.2949C102.999 41.5054 103.389 42.0108 103.481 43.2592C103.502 43.6964 103.527 44.8753 103.549 46.9959C103.571 48.149 103.597 49.7206 103.597 51.0559C103.597 51.7294 103.549 53.4586 103.527 54.2637C103.481 54.8185 103.367 55.351 103.205 55.6484C102.932 55.8799 102.656 56.2937 100.984 56.4136C100.937 56.5053 100.914 56.6663 100.914 56.7568C100.914 56.9425 100.961 56.9425 100.961 57.059H101.349C102.266 57.059 103.687 56.9425 104.877 56.9425C105.222 56.9425 106.733 57.0095 107.491 57.0095H108.248C108.317 56.8979 108.338 56.8027 108.338 56.711ZM128.404 40.6297C128.404 40.5344 128.379 40.3981 128.288 40.3734H127.508C126.959 40.3734 126.088 40.4181 125.698 40.4181C123.842 40.4181 123.178 40.3028 122.903 40.3028H122.492C122.443 40.4181 122.373 40.4886 122.373 40.605C122.373 40.6955 122.422 40.766 122.422 40.8565C122.959 40.9215 123.488 41.038 124.002 41.2045C124.278 41.4807 124.578 42.0355 124.578 42.6596C124.578 42.8865 124.348 43.9738 124.023 44.7591L120.337 53.8957L115.809 42.3329C115.877 41.7828 116.174 41.2491 116.562 41.0422C116.949 40.9975 117.427 40.8565 118.046 40.8565C118.092 40.766 118.136 40.6297 118.136 40.5345C118.136 40.4427 118.116 40.3028 118.022 40.2817H117.448C116.745 40.2817 115.67 40.3734 114.455 40.3734C113.929 40.3734 112.898 40.3276 111.888 40.3276H110.995C110.949 40.4181 110.906 40.4639 110.906 40.605C110.906 40.7413 110.928 40.7906 110.973 40.8812C111.614 41.0422 112.234 41.2949 112.898 41.6629C113.333 42.3116 114.274 44.6438 114.778 45.8628L116.675 50.4811C118.252 54.3143 119.191 56.8721 119.307 57.3105C119.421 57.381 119.307 57.4469 119.512 57.4469C119.718 57.4469 119.697 57.4057 119.742 57.2905L125.653 42.9817C125.858 42.4727 126.179 41.9896 126.478 41.6629C126.843 41.2491 127.599 41.088 128.309 40.927C128.333 40.8365 128.404 40.7414 128.404 40.6297ZM145.368 53.2258C145.368 52.9037 145.368 52.7626 145.347 52.5569C145.232 52.4865 145.187 52.4865 145.003 52.4865C144.842 52.4865 144.866 52.4865 144.705 52.5358C144.2 54.2191 143.332 55.4674 142.344 56.0669C142.001 56.2737 141.381 56.3184 140.398 56.3184H137.831C137.03 56.2938 136.526 56.249 136.318 56.2032C135.975 56.1373 135.607 55.579 135.45 55.2111C135.285 54.8185 135.195 54.681 135.195 53.6196V48.3559H135.929C136.662 48.3559 137.258 48.4053 137.876 48.6826C138.45 48.9354 138.886 49.3033 139.113 49.6712C139.321 49.9979 139.39 51.2663 139.436 51.5896C139.549 51.6589 139.619 51.6801 139.801 51.6801C139.984 51.6801 140.006 51.6589 140.169 51.5648C140.169 50.9442 140.031 49.2575 140.031 48.3359C140.031 47.1816 140.191 45.7723 140.258 44.9412C140.169 44.8953 140.122 44.8507 139.893 44.8507C139.731 44.8507 139.666 44.8507 139.527 44.9166C139.459 45.2433 139.273 46.2107 139.23 46.2812C138.886 46.8548 138.082 47.3179 137.465 47.5049C137.051 47.62 136.456 47.6905 135.585 47.6905H135.22V45.4255C135.22 43.2133 135.265 42.3117 135.285 41.8944C135.31 41.6169 135.355 41.3196 135.38 41.1128C135.585 41.0881 136.25 41.067 137.306 41.067C138.631 41.067 139.619 41.0881 139.825 41.0881C140.466 41.1339 140.947 41.2737 141.291 41.5512C142.414 42.4281 142.712 43.0064 143.332 44.4122C143.469 44.4581 143.489 44.4581 143.607 44.4581C143.742 44.4581 143.767 44.4122 143.948 44.3205C143.948 42.9113 143.857 41.3196 143.811 40.7413C143.787 40.5098 143.742 40.4427 143.285 40.4427C143.102 40.4427 142.231 40.3981 141.316 40.3981C140.006 40.3981 139.481 40.418 137.486 40.418C136.41 40.418 134.51 40.4427 133.569 40.4427C132.195 40.4427 131.895 40.3981 131.297 40.3981H130.514C130.444 40.4886 130.396 40.5791 130.396 40.6708C130.396 40.7907 130.444 40.9024 130.514 40.9975C130.79 41.0881 131.875 41.067 132.195 41.2491C132.514 41.5266 132.812 41.5971 133.02 42.7043C133.065 43.1886 133.09 44.759 133.09 45.8216V50.5716C133.09 51.539 133.065 53.1353 133.042 53.7101C132.995 54.6117 132.674 55.7435 132.538 55.9505C132.33 56.1115 131.39 56.249 130.466 56.2937C130.396 56.4348 130.349 56.5253 130.349 56.6663C130.349 56.8027 130.396 56.872 130.466 56.9884H131.228C131.965 56.9884 133.799 56.9179 134.416 56.9179C134.99 56.9179 135.768 56.9637 137.098 56.9637C137.831 56.9637 139.984 57.1048 144.614 57.1048C144.797 57.1048 145.003 57.1294 145.232 57.059C145.302 56.9425 145.302 56.898 145.325 56.691C145.368 56.2279 145.368 55.0948 145.368 53.2258ZM164.594 56.7321C164.594 56.6205 164.55 56.4794 164.48 56.3889C164.252 56.3889 163.311 56.3431 162.967 56.0868C162.853 55.9505 162.67 55.6742 162.578 55.5132C162.28 54.4506 161.96 53.5032 161.615 52.6275C161.135 51.4732 160.47 50.3859 159.92 49.8816C159.715 49.6959 159.073 49.3939 158.27 49.1211C157.905 48.98 157.605 48.8648 157.33 48.7485C157.675 48.6827 157.835 48.658 158.27 48.6121C159.76 48.4264 160.265 48.1043 160.7 47.7564C161.615 47.0664 162.211 46.0285 162.211 44.7802C162.211 42.9112 161.02 41.1339 159.347 40.605C158.797 40.4427 157.81 40.3523 156.597 40.3523C154.879 40.3523 153.594 40.5098 152.449 40.5098C152.109 40.5098 150.983 40.4639 150.183 40.4639C149.838 40.4639 148.968 40.4181 148.83 40.4181C148.762 40.5791 148.716 40.6297 148.716 40.7202C148.716 40.8107 148.738 40.9471 148.762 41.0422C149.151 41.0881 149.861 41.1798 150.228 41.2491C150.778 41.6629 150.962 41.9897 151.191 42.4974C151.303 43.2333 151.328 45.3139 151.328 48.5674C151.328 50.9196 151.351 53.8759 151.234 54.7515C151.168 55.3263 150.962 56.0163 150.296 56.2937C149.998 56.343 149.449 56.4348 148.99 56.4594C148.921 56.5712 148.873 56.6663 148.873 56.7815C148.873 56.852 148.921 56.9425 148.968 57.059C149.287 57.059 151.923 56.9884 152.656 56.9884C154.124 56.9884 154.489 57.059 155.794 57.059C155.842 56.9637 155.889 56.898 155.889 56.8027C155.889 56.6417 155.842 56.55 155.794 56.4594C155.339 56.4136 154.764 56.2738 154.512 56.2279C153.939 55.9505 153.529 55.3968 153.529 54.5869L153.505 48.8191C153.689 48.7944 154.352 48.7944 154.534 48.7944C155.154 48.7944 155.775 48.8436 156.368 49.1211C157.239 49.509 158.064 50.1343 158.614 50.99C159.347 52.1432 159.829 54.3342 160.059 56.0163C160.126 56.5053 160.31 56.9179 160.745 56.9637C160.927 56.9884 161.205 57.0342 162.075 57.0342H164.456C164.55 56.9426 164.594 56.852 164.594 56.7321ZM159.783 44.5028C159.783 45.9791 158.614 47.6412 157.264 47.9433C156.712 48.0585 155.91 48.129 154.879 48.129C154.604 48.129 153.824 48.129 153.481 48.0785L153.459 46.0497V41.6876C153.459 41.3855 153.529 41.2245 153.619 41.1586C153.711 41.0881 154.649 41.0175 155.222 41.0175C157.375 41.0175 158.362 41.2245 159.142 42.3576C159.577 42.9817 159.783 43.6964 159.783 44.5028ZM180.06 52.4652C180.06 50.6174 179.239 49.3527 177.471 48.4053C176.989 48.129 176.144 47.8269 174.929 47.4802C173.53 47.0864 172.362 46.628 171.606 46.2107C171.103 45.9333 170.253 45.1727 170.253 43.6964C170.253 42.2212 171.745 40.9975 173.484 40.9975C174.859 40.9975 175.961 41.6876 176.623 42.6091C177.199 43.4201 177.404 43.7881 178.044 45.2433C178.114 45.2632 178.204 45.2891 178.274 45.2891C178.479 45.2891 178.664 45.1727 178.779 45.0564C178.709 44.478 178.596 43.6718 178.596 42.9817C178.596 42.3822 178.734 41.5971 178.804 41.1798C178.617 40.9024 178.412 40.8565 178.114 40.8565C177.794 41.067 177.494 41.3855 177.219 41.6876C175.708 40.4639 174.471 40.257 173.325 40.257C170.508 40.257 168.492 42.1507 168.492 44.6639C168.492 45.5207 168.787 46.3507 169.337 47.2028C169.842 47.9174 170.576 48.4723 171.563 48.8895C172.226 49.1623 175.203 50.0674 175.616 50.2296C177.449 50.9442 178.138 51.5648 178.138 53.2011C178.138 54.0121 177.794 54.7269 177.129 55.5332C176.534 56.2738 175.593 56.6205 174.586 56.6205C173.508 56.6205 171.652 56.1573 170.735 54.9138C170.185 54.1979 169.407 52.6968 169.177 51.7964C169.017 51.7506 169.017 51.7506 168.857 51.7506C168.719 51.7506 168.557 51.7964 168.422 51.8869C168.422 52.1891 168.514 53.7101 168.514 54.1732C168.514 55.3016 168.306 55.8553 168.262 56.2279C168.33 56.4595 168.719 56.691 168.996 56.691C169.475 56.2737 169.978 55.9505 170.142 55.9505C170.278 55.9505 170.483 56.0163 170.687 56.1573C172.178 57.1294 173.417 57.3105 174.518 57.3105C177.749 57.3105 180.06 55.6742 180.06 52.4652ZM191.381 56.711C191.381 56.5958 191.356 56.4794 191.312 56.389C190.971 56.3643 190.029 56.2737 189.616 56.182C189.251 55.7435 188.999 55.2359 188.839 54.4048C188.816 53.2963 188.791 50.7832 188.791 48.6333V42.7749C188.791 42.1507 189.045 41.6629 189.204 41.5266C189.638 41.1127 190.511 41.0175 191.242 40.9271C191.289 40.8365 191.312 40.7201 191.312 40.6297C191.312 40.4886 191.242 40.3981 191.199 40.3522H190.536C189.572 40.3522 188.196 40.4639 187.416 40.4639C186.935 40.4639 185.56 40.3981 184.553 40.3734H184.048C183.98 40.4639 183.935 40.4639 183.935 40.6708C183.935 40.766 183.958 40.8565 183.98 40.9729C185.105 41.067 185.608 41.1798 185.768 41.2949C186.042 41.5054 186.431 42.0108 186.526 43.2592C186.548 43.6964 186.568 44.8753 186.591 46.9959C186.615 48.149 186.638 49.7206 186.638 51.0559C186.638 51.7294 186.591 53.4586 186.568 54.2637C186.526 54.8185 186.408 55.351 186.25 55.6484C185.972 55.8799 185.698 56.2937 184.026 56.4136C183.98 56.5053 183.958 56.6663 183.958 56.7568C183.958 56.9425 184 56.9425 184 57.059H184.392C185.311 57.059 186.73 56.9425 187.92 56.9425C188.266 56.9425 189.775 57.0095 190.536 57.0095H191.289C191.356 56.8979 191.381 56.8027 191.381 56.711ZM210.425 45.3139V40.8365C210.425 40.4886 210.285 40.398 209.942 40.398C209.255 40.398 206.092 40.4886 202.426 40.4886C199.582 40.4886 197.682 40.4427 196.399 40.4427H194.704C194.407 40.4427 194.313 40.5098 194.313 40.8365V45.0117C194.407 45.0823 194.477 45.1023 194.586 45.1023C194.682 45.1023 194.771 45.1023 194.864 45.0564C195.758 43.0476 196.215 41.9897 197.751 41.2045C198.438 41.1339 200.843 41.1128 201.212 41.1128C201.234 41.3655 201.257 42.1719 201.281 43.1427C201.304 44.8049 201.304 45.7018 201.304 49.6301C201.304 53.0201 201.281 54.7727 201.234 55.1406C201.144 55.7894 201.257 56.2737 198.509 56.3889C198.438 56.5499 198.438 56.5958 198.438 56.7816C198.438 56.872 198.438 56.9637 198.462 57.059H199.355C200.202 57.059 201.325 56.9637 202.151 56.9637C202.816 56.9637 204.076 57.0342 205.474 57.0342H206.115C206.184 56.9178 206.184 56.8027 206.184 56.691C206.184 56.5499 206.161 56.4794 206.092 56.3643C205.84 56.3643 204.375 56.4136 203.732 55.9258C203.662 55.6742 203.523 55.0042 203.523 54.1979C203.504 51.7047 203.48 50.5269 203.48 48.8648C203.48 46.7196 203.504 45.0823 203.504 41.0881C203.824 41.0881 205.52 41.067 206.21 41.0881C207.627 41.4807 208.176 42.0108 208.795 42.8407C209.346 43.5812 209.483 44.2512 209.824 45.3585C209.966 45.4043 210.032 45.4043 210.171 45.4043C210.26 45.4043 210.378 45.3585 210.425 45.3139ZM228.936 40.5591C228.936 40.418 228.845 40.3734 228.8 40.2817C227.86 40.2817 226.624 40.3523 226.141 40.3523C224.972 40.3523 223.554 40.257 222.934 40.257C222.864 40.3981 222.84 40.418 222.84 40.5345C222.841 40.6285 222.856 40.7219 222.887 40.8107C223.554 40.9471 224.514 41.1128 224.698 41.436C224.858 41.7334 224.905 41.965 224.905 42.333C224.905 42.6091 224.884 42.8865 224.766 43.1886C224.561 43.7635 224.125 44.6638 223.507 45.9333C222.452 48.0785 221.788 49.4185 221.42 49.9475C220.826 48.9354 219.497 46.26 219.178 45.5654L217.892 42.7502C217.847 42.6596 217.801 42.3329 217.801 42.126C217.801 41.8286 217.847 41.617 217.892 41.5265C218.099 41.1128 218.81 41.067 219.772 40.9471C219.816 40.8365 219.84 40.6955 219.84 40.605C219.84 40.4427 219.772 40.4886 219.703 40.3734H219.291C217.755 40.3734 218.213 40.4427 215.577 40.4427C214.457 40.4427 213.103 40.3734 212.921 40.3734C212.829 40.5344 212.782 40.5591 212.782 40.7201C212.782 40.8107 212.805 40.8811 212.876 40.9976C214.409 41.3655 214.866 41.6417 215.029 41.9438L219.039 49.8569C219.428 50.5976 219.656 51.1711 219.772 51.5896C219.932 52.2337 219.958 53.1811 219.958 54.3554C219.958 55.351 219.612 55.8799 219.221 56.1373C219.062 56.2279 217.914 56.3889 217.389 56.4347C217.296 56.5957 217.271 56.6417 217.271 56.7568C217.271 56.872 217.32 56.9425 217.343 57.0342C218.511 57.0342 219.726 57.0096 220.414 57.0096C220.895 57.0096 221.628 57.0342 222.979 57.0589C223.758 57.0789 224.354 57.1048 224.766 57.1048C224.813 57.0095 224.884 56.9178 224.884 56.8027C224.884 56.691 224.858 56.6205 224.79 56.5053C224.055 56.4136 223.028 56.2737 222.797 56.0422C222.428 55.6484 222.249 55.4674 222.2 54.5658L222.018 51.1018C221.994 50.849 222.086 50.6174 222.11 50.5516C222.176 50.2954 222.267 50.0885 222.357 49.9029L225.889 42.8653C226.208 42.2658 226.897 41.5971 227.356 41.3196C227.679 41.1128 228.388 40.9729 228.845 40.8565C228.894 40.7413 228.936 40.6497 228.936 40.5591Z" fill="black"/>
</svg>
