<svg width="76" height="111" viewBox="0 0 76 111" fill="none" xmlns="http://www.w3.org/2000/svg">
<path fill-rule="evenodd" clip-rule="evenodd" d="M37.592 22.8688C37.0413 22.9174 36.5325 23.0624 36.1387 23.2831L19.0848 32.8205C18.8401 32.9572 18.646 33.1196 18.5135 33.2983C18.3811 33.4771 18.3129 33.6686 18.3129 33.8621C18.3129 34.0555 18.3811 34.2471 18.5135 34.4258C18.646 34.6046 18.8401 34.7669 19.0848 34.9037L26.1585 38.8591V47.5754C26.1595 48.3825 26.6564 49.1068 27.4113 49.4016C34.2516 52.0808 41.4449 52.2854 48.6091 49.3937C49.3523 49.0927 49.8384 48.3738 49.8388 47.5753V38.8627L51.8163 37.758V41.4371C51.8163 41.9581 52.0243 42.4577 52.3944 42.8261C52.7646 43.1944 53.2666 43.4014 53.79 43.4014C54.3135 43.4014 54.8155 43.1944 55.1856 42.8261C55.5558 42.4577 55.7637 41.9581 55.7637 41.4371V35.552L56.9202 34.9037C57.1649 34.7669 57.359 34.6046 57.4915 34.4258C57.6239 34.2471 57.6921 34.0555 57.6921 33.8621C57.6921 33.6686 57.6239 33.4771 57.4915 33.2983C57.359 33.1196 57.1649 32.9572 56.9202 32.8205L39.8624 23.2831C39.5692 23.1189 39.2106 22.9957 38.816 22.9237C38.4215 22.8517 38.002 22.8329 37.592 22.8688ZM38.0006 26.406L51.3345 33.8602L38.0006 41.3144L24.6705 33.8602L38.0006 26.406ZM30.1058 41.0688L36.1387 44.4411C36.6325 44.7172 37.3022 44.8723 38.0006 44.8723C38.6989 44.8723 39.3686 44.7172 39.8624 44.4411L45.8915 41.0688V46.0025C40.5056 47.8803 35.324 47.7863 30.1058 46.0025V41.0688ZM24.2002 81.808C22.6 82.2774 21.0939 82.8203 19.7286 83.4461C17.3231 84.5489 15.3059 85.8817 13.8152 87.4974C12.9118 88.4766 12.2043 89.5887 11.7838 90.7891H10.369C9.27898 90.7891 8.39532 91.6685 8.39532 92.7533C8.39532 93.8382 9.27898 94.7176 10.369 94.7176H11.5178C11.849 96.2822 12.6779 97.728 13.8152 98.9607C15.3059 100.576 17.3231 101.909 19.7286 103.012C24.0864 105.01 29.753 106.248 36.0269 106.465V108.467C36.0269 109.552 36.9106 110.432 38.0006 110.432C39.0906 110.432 39.9743 109.552 39.9743 108.467V106.465C46.2482 106.248 51.9148 105.01 56.2726 103.012C58.6781 101.909 60.6952 100.576 62.1859 98.9607C63.3233 97.728 64.1522 96.2822 64.4834 94.7176H65.6322C66.7222 94.7176 67.6059 93.8382 67.6059 92.7533C67.6059 91.6685 66.7222 90.7891 65.6322 90.7891H64.2251C63.3219 88.186 61.0255 86.0188 58.0998 84.3746C57.1503 83.84 55.9452 84.1734 55.4091 85.1188C54.872 86.0637 55.2069 87.2631 56.1569 87.7967C57.8696 88.7591 59.0509 89.7806 59.7844 90.7891H59.7111C58.6211 90.7891 57.7375 91.6685 57.7375 92.7533C57.7375 93.8382 58.6211 94.7176 59.7111 94.7176H60.3703C60.1415 95.2289 59.7851 95.7539 59.2794 96.302C58.2733 97.3925 56.6779 98.5002 54.6189 99.4441C50.9185 101.14 45.7488 102.308 39.9743 102.529C39.9492 101.462 39.0728 100.61 38.0006 100.61C36.9299 100.612 36.0559 101.463 36.0308 102.529C30.2547 102.308 25.0836 101.141 21.3823 99.4441C19.3233 98.5002 17.728 97.3925 16.7218 96.302C16.2161 95.7539 15.8597 95.2289 15.6309 94.7176H16.2901C17.3801 94.7176 18.2638 93.8382 18.2638 92.7533C18.2638 91.6685 17.3801 90.7891 16.2901 90.7891H16.2015C16.3548 90.581 16.5238 90.3708 16.7219 90.1561C17.728 89.0656 19.3234 87.958 21.3824 87.014C22.9845 86.2796 24.8667 85.6497 26.9488 85.1457C26.059 84.0824 25.1485 82.9773 24.2002 81.808Z" fill="black"/>
<path fill-rule="evenodd" clip-rule="evenodd" d="M37.592 22.8688C37.0413 22.9174 36.5325 23.0624 36.1387 23.2831L19.0848 32.8205C18.8401 32.9572 18.646 33.1196 18.5135 33.2983C18.3811 33.4771 18.3129 33.6686 18.3129 33.8621C18.3129 34.0555 18.3811 34.2471 18.5135 34.4258C18.646 34.6046 18.8401 34.7669 19.0848 34.9037L26.1585 38.8591V47.5754C26.1595 48.3825 26.6564 49.1068 27.4113 49.4016C34.2516 52.0808 41.4449 52.2854 48.6091 49.3937C49.3523 49.0927 49.8384 48.3738 49.8388 47.5753V38.8627L51.8163 37.758V41.4371C51.8163 41.9581 52.0243 42.4577 52.3944 42.8261C52.7646 43.1944 53.2666 43.4014 53.79 43.4014C54.3135 43.4014 54.8155 43.1944 55.1856 42.8261C55.5558 42.4577 55.7637 41.9581 55.7637 41.4371V35.552L56.9202 34.9037C57.1649 34.7669 57.359 34.6046 57.4915 34.4258C57.6239 34.2471 57.6921 34.0555 57.6921 33.8621C57.6921 33.6686 57.6239 33.4771 57.4915 33.2983C57.359 33.1196 57.1649 32.9572 56.9202 32.8205L39.8624 23.2831C39.5692 23.1189 39.2106 22.9957 38.816 22.9237C38.4215 22.8517 38.002 22.8329 37.592 22.8688ZM38.0006 26.406L51.3345 33.8602L38.0006 41.3144L24.6705 33.8602L38.0006 26.406ZM30.1058 41.0688L36.1387 44.4411C36.6325 44.7172 37.3022 44.8723 38.0006 44.8723C38.6989 44.8723 39.3686 44.7172 39.8624 44.4411L45.8915 41.0688V46.0025C40.5056 47.8803 35.324 47.7863 30.1058 46.0025V41.0688ZM24.2002 81.808C22.6 82.2774 21.0939 82.8203 19.7286 83.4461C17.3231 84.5489 15.3059 85.8817 13.8152 87.4974C12.9118 88.4766 12.2043 89.5887 11.7838 90.7891H10.369C9.27898 90.7891 8.39532 91.6685 8.39532 92.7533C8.39532 93.8382 9.27898 94.7176 10.369 94.7176H11.5178C11.849 96.2822 12.6779 97.728 13.8152 98.9607C15.3059 100.576 17.3231 101.909 19.7286 103.012C24.0864 105.01 29.753 106.248 36.0269 106.465V108.467C36.0269 109.552 36.9106 110.432 38.0006 110.432C39.0906 110.432 39.9743 109.552 39.9743 108.467V106.465C46.2482 106.248 51.9148 105.01 56.2726 103.012C58.6781 101.909 60.6952 100.576 62.1859 98.9607C63.3233 97.728 64.1522 96.2822 64.4834 94.7176H65.6322C66.7222 94.7176 67.6059 93.8382 67.6059 92.7533C67.6059 91.6685 66.7222 90.7891 65.6322 90.7891H64.2251C63.3219 88.186 61.0255 86.0188 58.0998 84.3746C57.1503 83.84 55.9452 84.1734 55.4091 85.1188C54.872 86.0637 55.2069 87.2631 56.1569 87.7967C57.8696 88.7591 59.0509 89.7806 59.7844 90.7891H59.7111C58.6211 90.7891 57.7375 91.6685 57.7375 92.7533C57.7375 93.8382 58.6211 94.7176 59.7111 94.7176H60.3703C60.1415 95.2289 59.7851 95.7539 59.2794 96.302C58.2733 97.3925 56.6779 98.5002 54.6189 99.4441C50.9185 101.14 45.7488 102.308 39.9743 102.529C39.9492 101.462 39.0728 100.61 38.0006 100.61C36.9299 100.612 36.0559 101.463 36.0308 102.529C30.2547 102.308 25.0836 101.141 21.3823 99.4441C19.3233 98.5002 17.728 97.3925 16.7218 96.302C16.2161 95.7539 15.8597 95.2289 15.6309 94.7176H16.2901C17.3801 94.7176 18.2638 93.8382 18.2638 92.7533C18.2638 91.6685 17.3801 90.7891 16.2901 90.7891H16.2015C16.3548 90.581 16.5238 90.3708 16.7219 90.1561C17.728 89.0656 19.3234 87.958 21.3824 87.014C22.9845 86.2796 24.8667 85.6497 26.9488 85.1457C26.059 84.0824 25.1485 82.9773 24.2002 81.808Z" fill="url(#paint0_linear_4637_10457)"/>
<path fill-rule="evenodd" clip-rule="evenodd" d="M38 0.431641C17.3127 0.431641 0.5 17.1641 0.5 37.7525C0.5 48.7015 9.69648 62.8318 18.6564 74.7358C27.6162 86.6398 36.566 96.0664 36.566 96.0664C36.7505 96.2605 36.9728 96.4151 37.2194 96.5208C37.4659 96.6264 37.7316 96.6809 38 96.6809C38.2684 96.6809 38.5341 96.6264 38.7806 96.5208C39.0272 96.4151 39.2495 96.2605 39.434 96.0664C39.434 96.0664 62.4719 71.9436 71.7531 51.721C71.8611 51.4863 71.9215 51.2326 71.931 50.9746C71.9404 50.7166 71.8987 50.4592 71.8081 50.2173C71.7175 49.9754 71.5799 49.7536 71.4031 49.5646C71.2263 49.3756 71.0138 49.2232 70.7778 49.1161C70.5419 49.0086 70.2871 48.9484 70.0278 48.939C69.7686 48.9296 69.51 48.9712 69.2669 49.0613C69.0238 49.1515 68.8009 49.2884 68.6111 49.4644C68.4212 49.6403 68.268 49.8518 68.1604 50.0867C59.9118 68.0592 40.2763 89.2672 37.9692 91.7427C36.0727 89.7066 29.4507 82.5218 21.8173 72.3802C13.0141 60.6843 4.44737 46.3304 4.44737 37.7525C4.44737 19.2872 19.4461 4.36015 38 4.36015C56.554 4.36015 71.5526 19.2872 71.5526 37.7525C71.5526 38.2735 71.7606 38.7731 72.1307 39.1414C72.5008 39.5098 73.0029 39.7168 73.5263 39.7168C74.0498 39.7168 74.5518 39.5098 74.9219 39.1414C75.2921 38.7731 75.5 38.2735 75.5 37.7525C75.5 17.1641 58.6873 0.431641 38 0.431641Z" fill="black"/>
<path fill-rule="evenodd" clip-rule="evenodd" d="M38 0.431641C17.3127 0.431641 0.5 17.1641 0.5 37.7525C0.5 48.7015 9.69648 62.8318 18.6564 74.7358C27.6162 86.6398 36.566 96.0664 36.566 96.0664C36.7505 96.2605 36.9728 96.4151 37.2194 96.5208C37.4659 96.6264 37.7316 96.6809 38 96.6809C38.2684 96.6809 38.5341 96.6264 38.7806 96.5208C39.0272 96.4151 39.2495 96.2605 39.434 96.0664C39.434 96.0664 62.4719 71.9436 71.7531 51.721C71.8611 51.4863 71.9215 51.2326 71.931 50.9746C71.9404 50.7166 71.8987 50.4592 71.8081 50.2173C71.7175 49.9754 71.5799 49.7536 71.4031 49.5646C71.2263 49.3756 71.0138 49.2232 70.7778 49.1161C70.5419 49.0086 70.2871 48.9484 70.0278 48.939C69.7686 48.9296 69.51 48.9712 69.2669 49.0613C69.0238 49.1515 68.8009 49.2884 68.6111 49.4644C68.4212 49.6403 68.268 49.8518 68.1604 50.0867C59.9118 68.0592 40.2763 89.2672 37.9692 91.7427C36.0727 89.7066 29.4507 82.5218 21.8173 72.3802C13.0141 60.6843 4.44737 46.3304 4.44737 37.7525C4.44737 19.2872 19.4461 4.36015 38 4.36015C56.554 4.36015 71.5526 19.2872 71.5526 37.7525C71.5526 38.2735 71.7606 38.7731 72.1307 39.1414C72.5008 39.5098 73.0029 39.7168 73.5263 39.7168C74.0498 39.7168 74.5518 39.5098 74.9219 39.1414C75.2921 38.7731 75.5 38.2735 75.5 37.7525C75.5 17.1641 58.6873 0.431641 38 0.431641Z" fill="url(#paint1_linear_4637_10457)"/>
<path fill-rule="evenodd" clip-rule="evenodd" d="M72.5656 42.8184C72.0422 42.8184 71.5401 43.0254 71.17 43.3937C70.7999 43.7621 70.5919 44.2617 70.5919 44.7827C70.5919 45.3036 70.7999 45.8033 71.17 46.1716C71.5401 46.54 72.0422 46.7469 72.5656 46.7469C73.0891 46.7469 73.5911 46.54 73.9612 46.1716C74.3313 45.8033 74.5393 45.3036 74.5393 44.7827C74.5393 44.2617 74.3313 43.7621 73.9612 43.3937C73.5911 43.0254 73.0891 42.8184 72.5656 42.8184ZM38.0007 65.2513C33.4264 65.2513 29.0961 64.1427 25.2913 62.1783C25.0611 62.0593 24.8567 61.8963 24.6899 61.6986C24.523 61.5009 24.3969 61.2724 24.3189 61.0262C24.2409 60.78 24.2123 60.5208 24.235 60.2636C24.2577 60.0065 24.331 59.7562 24.4509 59.5273C24.6925 59.0656 25.1082 58.7182 25.607 58.5614C26.1057 58.4046 26.6465 58.4512 27.1108 58.691C30.3705 60.3739 34.0668 61.3227 38.0007 61.3227C51.1044 61.3227 61.6849 50.7928 61.6849 37.7517C61.6849 34.825 61.1495 32.0298 60.1738 29.4496C59.9901 28.9622 60.0083 28.4222 60.2244 27.9481C60.4405 27.4741 60.8369 27.1048 61.3264 26.9214C61.5691 26.8303 61.8276 26.7877 62.0868 26.796C62.3461 26.8044 62.6012 26.8635 62.8375 26.9701C63.0738 27.0766 63.2866 27.2285 63.4639 27.4169C63.6412 27.6054 63.7794 27.8268 63.8706 28.0685C65.0101 31.0821 65.6323 34.3486 65.6323 37.7517C65.6323 52.9159 53.2378 65.2513 38.0007 65.2513ZM15.0335 52.0539C14.5305 51.9115 14.1049 51.5762 13.8501 51.1217C11.6334 47.1636 10.3691 42.5966 10.3691 37.7517C10.3691 22.5874 22.7637 10.2521 38.0007 10.2521C42.6174 10.2521 46.9839 11.3841 50.8142 13.3826C51.2778 13.6243 51.626 14.0394 51.7821 14.5365C51.9383 15.0337 51.8896 15.5722 51.6469 16.0336C51.5266 16.2625 51.3622 16.4656 51.163 16.6312C50.9637 16.7968 50.7336 16.9217 50.4858 16.9987C50.238 17.0756 49.9774 17.1032 49.7189 17.0798C49.4604 17.0564 49.2091 16.9825 48.9793 16.8623C45.6977 15.15 41.9711 14.1806 38.0007 14.1806C24.897 14.1806 14.3165 24.7105 14.3165 37.7517C14.3165 41.9183 15.3968 45.8194 17.2963 49.2111C17.5506 49.666 17.613 50.2027 17.4699 50.7034C17.3267 51.204 16.9898 51.6277 16.5331 51.8813C16.076 52.1343 15.5366 52.1964 15.0335 52.0539Z" fill="black"/>
<path fill-rule="evenodd" clip-rule="evenodd" d="M72.5656 42.8184C72.0422 42.8184 71.5401 43.0254 71.17 43.3937C70.7999 43.7621 70.5919 44.2617 70.5919 44.7827C70.5919 45.3036 70.7999 45.8033 71.17 46.1716C71.5401 46.54 72.0422 46.7469 72.5656 46.7469C73.0891 46.7469 73.5911 46.54 73.9612 46.1716C74.3313 45.8033 74.5393 45.3036 74.5393 44.7827C74.5393 44.2617 74.3313 43.7621 73.9612 43.3937C73.5911 43.0254 73.0891 42.8184 72.5656 42.8184ZM38.0007 65.2513C33.4264 65.2513 29.0961 64.1427 25.2913 62.1783C25.0611 62.0593 24.8567 61.8963 24.6899 61.6986C24.523 61.5009 24.3969 61.2724 24.3189 61.0262C24.2409 60.78 24.2123 60.5208 24.235 60.2636C24.2577 60.0065 24.331 59.7562 24.4509 59.5273C24.6925 59.0656 25.1082 58.7182 25.607 58.5614C26.1057 58.4046 26.6465 58.4512 27.1108 58.691C30.3705 60.3739 34.0668 61.3227 38.0007 61.3227C51.1044 61.3227 61.6849 50.7928 61.6849 37.7517C61.6849 34.825 61.1495 32.0298 60.1738 29.4496C59.9901 28.9622 60.0083 28.4222 60.2244 27.9481C60.4405 27.4741 60.8369 27.1048 61.3264 26.9214C61.5691 26.8303 61.8276 26.7877 62.0868 26.796C62.3461 26.8044 62.6012 26.8635 62.8375 26.9701C63.0738 27.0766 63.2866 27.2285 63.4639 27.4169C63.6412 27.6054 63.7794 27.8268 63.8706 28.0685C65.0101 31.0821 65.6323 34.3486 65.6323 37.7517C65.6323 52.9159 53.2378 65.2513 38.0007 65.2513ZM15.0335 52.0539C14.5305 51.9115 14.1049 51.5762 13.8501 51.1217C11.6334 47.1636 10.3691 42.5966 10.3691 37.7517C10.3691 22.5874 22.7637 10.2521 38.0007 10.2521C42.6174 10.2521 46.9839 11.3841 50.8142 13.3826C51.2778 13.6243 51.626 14.0394 51.7821 14.5365C51.9383 15.0337 51.8896 15.5722 51.6469 16.0336C51.5266 16.2625 51.3622 16.4656 51.163 16.6312C50.9637 16.7968 50.7336 16.9217 50.4858 16.9987C50.238 17.0756 49.9774 17.1032 49.7189 17.0798C49.4604 17.0564 49.2091 16.9825 48.9793 16.8623C45.6977 15.15 41.9711 14.1806 38.0007 14.1806C24.897 14.1806 14.3165 24.7105 14.3165 37.7517C14.3165 41.9183 15.3968 45.8194 17.2963 49.2111C17.5506 49.666 17.613 50.2027 17.4699 50.7034C17.3267 51.204 16.9898 51.6277 16.5331 51.8813C16.076 52.1343 15.5366 52.1964 15.0335 52.0539Z" fill="url(#paint2_linear_4637_10457)"/>
<defs>
<linearGradient id="paint0_linear_4637_10457" x1="36.7133" y1="59.769" x2="36.7133" y2="85.9352" gradientUnits="userSpaceOnUse">
<stop stop-color="#F4303B"/>
<stop offset="1" stop-color="#2E23F3"/>
</linearGradient>
<linearGradient id="paint1_linear_4637_10457" x1="36.7133" y1="59.769" x2="36.7133" y2="85.9352" gradientUnits="userSpaceOnUse">
<stop stop-color="#F4303B"/>
<stop offset="1" stop-color="#2E23F3"/>
</linearGradient>
<linearGradient id="paint2_linear_4637_10457" x1="36.7133" y1="59.769" x2="36.7133" y2="85.9352" gradientUnits="userSpaceOnUse">
<stop stop-color="#F4303B"/>
<stop offset="1" stop-color="#2E23F3"/>
</linearGradient>
</defs>
</svg>
