<svg width="128" height="111" viewBox="0 0 128 111" fill="none" xmlns="http://www.w3.org/2000/svg">
<path d="M100.078 49.1206C96.4272 49.1396 92.9316 50.6119 90.3613 53.2131C87.7911 55.8155 86.3545 59.3336 86.3688 62.9964C86.3822 66.6581 87.8458 70.166 90.4361 72.7469C93.0265 75.3291 96.532 76.7735 100.184 76.7643C103.836 76.7551 107.335 75.2931 109.913 72.6998C112.49 70.1054 113.936 66.5906 113.933 62.9289C113.914 59.2572 112.446 55.7435 109.848 53.1557C107.253 50.5679 103.739 49.1168 100.078 49.1203L100.078 49.1206ZM100.078 72.8863C97.4487 72.8706 94.9322 71.8101 93.0815 69.9359C91.2307 68.0619 90.1969 65.5279 90.2081 62.8898C90.2182 60.2527 91.2711 57.7266 93.1365 55.8673C95.0017 54.0078 97.526 52.9664 100.156 52.971C102.786 52.9766 105.306 54.0281 107.165 55.8943C109.022 57.7616 110.065 60.2911 110.066 62.9292C110.058 65.5776 109.002 68.1149 107.129 69.9822C105.256 71.8495 102.72 72.8943 100.078 72.8863Z" fill="url(#paint0_linear_4640_10509)"/>
<path d="M99.8921 83.0769C99.9558 83.1173 100.014 83.1656 100.065 83.2217L99.8921 83.0769ZM90.353 80.2546L89.8047 82.0064L89.8036 82.0053C92.1858 82.7908 94.4384 83.9276 96.4859 85.3785L96.9044 84.0465C97.2289 83.0286 98.3131 82.4653 99.3291 82.7874C99.5339 82.8457 99.7253 82.9434 99.8921 83.0769C96.7053 80.5688 93.0194 78.7766 89.0831 77.8229C89.5731 77.9766 89.9816 78.3189 90.2199 78.7745C90.4583 79.2312 90.5064 79.7631 90.352 80.2546L90.353 80.2546ZM124.369 61.7286C120.683 57.5708 118.484 52.3001 118.12 46.7485C118.05 45.7901 117.286 45.0304 116.33 44.9687C110.768 44.6118 105.48 42.4191 101.293 38.7304C100.584 38.1648 99.5777 38.1648 98.8683 38.7304C94.679 42.4156 89.392 44.6084 83.8309 44.9687C82.8697 45.0237 82.0976 45.7856 82.0272 46.7485C81.6713 52.3067 79.4715 57.5855 75.778 61.743C75.2163 62.4499 75.2163 63.4532 75.778 64.1602C79.4695 68.3145 81.6679 73.5875 82.0272 79.1403C82.0965 80.1065 82.8664 80.8718 83.8309 80.9347C84.5817 80.9347 85.2743 81.0649 86.0106 81.1659H86.0095C87.2963 81.3443 88.5663 81.6304 89.8049 82.0199C92.1872 82.8054 94.4397 83.9422 96.4872 85.3919C97.266 85.9272 98.0604 86.5063 98.8683 87.1571V87.1582C99.1514 87.3939 99.4983 87.5398 99.8642 87.5779H100.297C100.662 87.5353 101.007 87.3894 101.293 87.1582C102.101 86.5074 102.895 85.9283 103.674 85.3931V85.3919C105.722 83.9421 107.974 82.8053 110.355 82.0199C111.595 81.6304 112.865 81.3443 114.152 81.1659C114.859 81.0649 115.595 80.9773 116.332 80.9347H116.331C117.288 80.8651 118.05 80.1009 118.12 79.1403C118.476 73.5743 120.674 68.2866 124.369 64.1165C124.932 63.4207 124.932 62.4244 124.369 61.7286ZM114.411 77.2293C113.382 77.3404 112.36 77.5143 111.351 77.7511H111.062C107.167 78.6949 103.516 80.4612 100.354 82.9322L100.138 83.0915L99.9499 82.9614C96.7643 80.4533 93.0786 78.6611 89.1411 77.7073H88.8524C87.8442 77.4728 86.8226 77.2989 85.7931 77.1866C85.1811 71.9484 83.1043 66.9917 79.8035 62.8868C83.1065 58.7885 85.1833 53.8352 85.7931 48.6012C91.0131 47.9953 95.9609 45.9406 100.08 42.6672C104.204 45.9675 109.17 48.0391 114.411 48.6452C115.02 53.8814 117.102 58.8358 120.414 62.9307C117.101 67.029 115.019 71.9888 114.411 77.2293Z" fill="url(#paint1_linear_4640_10509)"/>
<path d="M91.1898 110.432C90.9939 110.432 90.7992 110.402 90.6124 110.345L79.8751 106.958C79.3884 106.805 78.9833 106.465 78.7472 106.011C78.5123 105.558 78.4653 105.028 78.6197 104.541L86.658 79.0824C86.9803 78.0589 88.069 77.4922 89.0895 77.8165C90.1099 78.1397 90.675 79.2316 90.3516 80.2551L82.877 103.861L89.9767 106.09L96.9041 84.0471C97.2264 83.0237 98.3151 82.4569 99.3356 82.7801C100.356 83.1044 100.921 84.1963 100.599 85.2198L93.0361 109.086C92.7787 109.89 92.0312 110.435 91.1898 110.432Z" fill="url(#paint2_linear_4640_10509)"/>
<path d="M108.952 110.432C108.111 110.435 107.364 109.89 107.106 109.086L99.5577 85.2196C99.3999 84.7303 99.4435 84.1973 99.6796 83.7405C99.9146 83.2838 100.323 82.9404 100.813 82.7878C101.832 82.4736 102.916 83.0324 103.252 84.0469L110.18 106.09L117.237 103.861L109.804 80.2549C109.551 79.2584 110.116 78.2372 111.093 77.9263C112.07 77.6155 113.118 78.1227 113.484 79.0822L121.552 104.541C121.692 105.023 121.645 105.54 121.422 105.989C121.18 106.441 120.771 106.779 120.282 106.929L109.545 110.316C109.354 110.383 109.155 110.422 108.953 110.431L108.952 110.432Z" fill="url(#paint3_linear_4640_10509)"/>
<path d="M125.564 80.0346H120.931C119.872 80.0346 119.012 79.1728 119.012 78.1101C119.012 77.0474 119.872 76.1856 120.931 76.1856H123.63V68.456C123.63 67.3855 124.496 66.5169 125.564 66.5169C126.632 66.5169 127.498 67.3855 127.498 68.456V78.1247C127.494 78.6353 127.288 79.1235 126.925 79.4814C126.563 79.8394 126.073 80.0391 125.564 80.0346Z" fill="url(#paint4_linear_4640_10509)"/>
<path d="M2.43353 16.4541C3.50101 16.4541 4.36706 17.5247 4.36706 18.3932V18.8567C4.36706 19.9273 3.50101 20.7958 2.43353 20.7958C1.36605 20.7958 0.5 19.7253 0.5 18.8567V18.3932C0.5 17.3227 1.36605 16.4541 2.43353 16.4541Z" fill="url(#paint5_linear_4640_10509)"/>
<path d="M79.2248 78.0811C79.2315 78.5996 79.0312 79.099 78.6675 79.467C78.3039 79.834 77.8071 80.0394 77.2901 80.0349H2.43527C1.9172 80.0349 1.42039 79.8273 1.05786 79.4569C0.694211 79.0866 0.493895 78.5862 0.501744 78.0666V27.0775C0.501744 26.0069 1.36668 25.1383 2.43527 25.1383C3.50276 25.1383 4.36881 26.0069 4.36881 27.0775V76.1562H77.2901C77.8015 76.1517 78.2938 76.3537 78.6575 76.715C79.02 77.0764 79.2248 77.5679 79.2248 78.0807V78.0811Z" fill="url(#paint6_linear_4640_10509)"/>
<path d="M127.5 56.0526C127.5 57.1243 126.634 57.9917 125.565 57.9917C124.498 57.9917 123.632 57.1243 123.632 56.0526V4.29646H4.36881V10.1722C4.36881 11.2439 3.50276 12.1113 2.43528 12.1113C1.36668 12.1113 0.501746 11.2439 0.501746 10.1722V2.35618C0.509578 1.29124 1.37229 0.431641 2.43528 0.431641H125.565C126.628 0.431641 127.492 1.29124 127.5 2.35618V56.0526Z" fill="url(#paint7_linear_4640_10509)"/>
<path d="M116.558 30.8267H10.9038C9.84308 30.8267 8.98373 29.9648 8.98373 28.901C8.98373 27.8383 9.84308 26.9765 10.9038 26.9765H116.558C117.618 26.9765 118.478 27.8383 118.478 28.901C118.478 29.9648 117.618 30.8267 116.558 30.8267Z" fill="url(#paint8_linear_4640_10509)"/>
<path d="M67.678 44.8085H10.9038C9.84308 44.8085 8.98373 43.9467 8.98373 42.8829C8.98373 41.8202 9.84308 40.9583 10.9038 40.9583H67.678C68.7388 40.9583 69.5981 41.8202 69.5981 42.8829C69.5981 43.9467 68.7388 44.8085 67.678 44.8085Z" fill="url(#paint9_linear_4640_10509)"/>
<path d="M67.678 58.8622H10.9038C9.84308 58.8622 8.98373 58.0004 8.98373 56.9377C8.98373 55.875 9.84308 55.0131 10.9038 55.0131H67.678C68.7388 55.0131 69.5981 55.875 69.5981 56.9377C69.5981 58.0004 68.7388 58.8622 67.678 58.8622Z" fill="url(#paint10_linear_4640_10509)"/>
<path d="M91.0007 14.0381H36.9965C36.4571 14.0841 35.9223 13.9023 35.5228 13.5353C35.1234 13.1673 34.8962 12.6488 34.8962 12.1057C34.8962 11.5625 35.1234 11.0441 35.5228 10.676C35.9223 10.3091 36.4571 10.1261 36.9965 10.1733H91.0007C91.54 10.1261 92.0749 10.3091 92.4743 10.676C92.8738 11.0441 93.1009 11.5625 93.1009 12.1057C93.1009 12.6488 92.8738 13.1673 92.4743 13.5353C92.0749 13.9023 91.54 14.0841 91.0007 14.0381Z" fill="url(#paint11_linear_4640_10509)"/>
<defs>
<linearGradient id="paint0_linear_4640_10509" x1="61.8213" y1="59.769" x2="61.8213" y2="85.9352" gradientUnits="userSpaceOnUse">
<stop stop-color="#F4303B"/>
<stop offset="1" stop-color="#2E23F3"/>
</linearGradient>
<linearGradient id="paint1_linear_4640_10509" x1="61.8213" y1="59.769" x2="61.8213" y2="85.9352" gradientUnits="userSpaceOnUse">
<stop stop-color="#F4303B"/>
<stop offset="1" stop-color="#2E23F3"/>
</linearGradient>
<linearGradient id="paint2_linear_4640_10509" x1="61.8213" y1="59.769" x2="61.8213" y2="85.9352" gradientUnits="userSpaceOnUse">
<stop stop-color="#F4303B"/>
<stop offset="1" stop-color="#2E23F3"/>
</linearGradient>
<linearGradient id="paint3_linear_4640_10509" x1="61.8213" y1="59.769" x2="61.8213" y2="85.9352" gradientUnits="userSpaceOnUse">
<stop stop-color="#F4303B"/>
<stop offset="1" stop-color="#2E23F3"/>
</linearGradient>
<linearGradient id="paint4_linear_4640_10509" x1="61.8213" y1="59.769" x2="61.8213" y2="85.9352" gradientUnits="userSpaceOnUse">
<stop stop-color="#F4303B"/>
<stop offset="1" stop-color="#2E23F3"/>
</linearGradient>
<linearGradient id="paint5_linear_4640_10509" x1="61.8213" y1="59.769" x2="61.8213" y2="85.9352" gradientUnits="userSpaceOnUse">
<stop stop-color="#F4303B"/>
<stop offset="1" stop-color="#2E23F3"/>
</linearGradient>
<linearGradient id="paint6_linear_4640_10509" x1="61.8213" y1="59.769" x2="61.8213" y2="85.9352" gradientUnits="userSpaceOnUse">
<stop stop-color="#F4303B"/>
<stop offset="1" stop-color="#2E23F3"/>
</linearGradient>
<linearGradient id="paint7_linear_4640_10509" x1="61.8213" y1="59.769" x2="61.8213" y2="85.9352" gradientUnits="userSpaceOnUse">
<stop stop-color="#F4303B"/>
<stop offset="1" stop-color="#2E23F3"/>
</linearGradient>
<linearGradient id="paint8_linear_4640_10509" x1="61.8213" y1="59.769" x2="61.8213" y2="85.9352" gradientUnits="userSpaceOnUse">
<stop stop-color="#F4303B"/>
<stop offset="1" stop-color="#2E23F3"/>
</linearGradient>
<linearGradient id="paint9_linear_4640_10509" x1="61.8213" y1="59.769" x2="61.8213" y2="85.9352" gradientUnits="userSpaceOnUse">
<stop stop-color="#F4303B"/>
<stop offset="1" stop-color="#2E23F3"/>
</linearGradient>
<linearGradient id="paint10_linear_4640_10509" x1="61.8213" y1="59.769" x2="61.8213" y2="85.9352" gradientUnits="userSpaceOnUse">
<stop stop-color="#F4303B"/>
<stop offset="1" stop-color="#2E23F3"/>
</linearGradient>
<linearGradient id="paint11_linear_4640_10509" x1="61.8213" y1="59.769" x2="61.8213" y2="85.9352" gradientUnits="userSpaceOnUse">
<stop stop-color="#F4303B"/>
<stop offset="1" stop-color="#2E23F3"/>
</linearGradient>
</defs>
</svg>
