<svg width="110" height="111" viewBox="0 0 110 111" fill="none" xmlns="http://www.w3.org/2000/svg">
<path d="M79.4137 97.1723C79.4137 98.2199 78.5711 99.0688 77.5325 99.0688C76.494 99.0688 75.6523 98.2199 75.6523 97.1723C75.6523 96.1248 76.494 95.2758 77.5325 95.2758C78.5711 95.2758 79.4137 96.1248 79.4137 97.1723Z" fill="url(#paint0_linear_4640_10463)"/>
<path d="M86.9336 97.1723C86.9336 98.2199 86.091 99.0688 85.0524 99.0688C84.0139 99.0688 83.1722 98.2199 83.1722 97.1723C83.1722 96.1248 84.0139 95.2758 85.0524 95.2758C86.091 95.2758 86.9336 96.1248 86.9336 97.1723Z" fill="url(#paint1_linear_4640_10463)"/>
<path d="M94.4559 97.1723C94.4559 98.2199 93.6133 99.0688 92.5748 99.0688C91.5362 99.0688 90.6945 98.2199 90.6945 97.1723C90.6945 96.1248 91.5362 95.2758 92.5748 95.2758C93.6133 95.2758 94.4559 96.1248 94.4559 97.1723Z" fill="url(#paint2_linear_4640_10463)"/>
<path d="M101.978 97.1723C101.978 98.2199 101.136 99.0688 100.097 99.0688C99.0585 99.0688 98.2168 98.2199 98.2168 97.1723C98.2168 96.1248 99.0585 95.2758 100.097 95.2758C101.136 95.2758 101.978 96.1248 101.978 97.1723Z" fill="url(#paint3_linear_4640_10463)"/>
<path d="M100.096 78.1857V76.2892C100.096 75.2417 99.2547 74.3927 98.2161 74.3927C97.1775 74.3927 96.3359 75.2417 96.3359 76.2892V78.1857H81.292V76.2892C81.292 75.2417 80.4503 74.3927 79.4117 74.3927C78.3731 74.3927 77.5305 75.2417 77.5305 76.2892V78.1857H70.0097C68.9711 78.1857 68.1285 79.0356 68.1285 80.0832V108.534C68.1285 109.038 68.3273 109.52 68.68 109.875C69.0318 110.231 69.5105 110.432 70.0097 110.432H107.619C108.118 110.432 108.596 110.231 108.949 109.875C109.301 109.52 109.5 109.038 109.5 108.534V80.0832C109.5 79.5797 109.301 79.0978 108.949 78.742C108.596 78.3862 108.118 78.1857 107.619 78.1857H100.096ZM71.889 81.9797H77.5306H77.5297C77.5297 83.0272 78.3723 83.8762 79.4109 83.8762C80.4494 83.8762 81.2911 83.0272 81.2911 81.9797H96.335C96.335 83.0272 97.1767 83.8762 98.2152 83.8762C99.2538 83.8762 100.095 83.0272 100.095 81.9797H105.737V87.6701H71.8879L71.889 81.9797ZM71.889 106.638V91.4641H105.738V106.638H71.889Z" fill="url(#paint4_linear_4640_10463)"/>
<path d="M54.9668 14.0385C53.9003 15.1152 52.4512 15.7166 50.9422 15.7081C47.5596 15.7081 44.4337 17.5275 42.7429 20.4827C41.0511 23.4372 41.0511 27.0777 42.7429 30.0332C44.4337 32.9876 47.5596 34.8078 50.9422 34.8078H56.847C58.3428 34.8078 59.7781 35.4073 60.8361 36.4746C61.8942 37.542 62.4886 38.9887 62.4886 40.4982C62.484 43.0337 63.4862 45.4648 65.2711 47.2503C67.044 49.0442 69.4544 50.0484 71.9652 50.038H94.4562C94.4076 57.5534 92.5078 64.9382 88.9273 71.5283C88.6782 71.9706 88.6129 72.4958 88.7472 72.9862C88.8807 73.4775 89.2026 73.8945 89.6421 74.1458C90.5556 74.67 91.7173 74.3472 92.237 73.4248C96.1766 66.1624 98.2334 58.0136 98.2164 49.7349V48.2177C97.8572 37.616 94.133 27.4107 87.5927 19.1017C81.0525 10.7946 72.0412 4.82463 61.887 2.06892C51.6591 -0.657634 40.8309 0.0349916 31.0261 4.04355C21.2218 8.05122 12.9712 15.1592 7.51231 24.299C2.05345 33.4391 -0.319339 44.1178 0.750839 54.733C1.82021 65.3489 6.27492 75.3274 13.4451 83.1743C19.6017 89.9228 27.5017 94.8056 36.2581 97.2753C45.0144 99.744 54.2803 99.7016 63.0149 97.1529C64.0535 96.8593 64.6591 95.7722 64.3689 94.7247C64.0778 93.6771 63 93.0663 61.9615 93.359C54.6336 95.5096 46.8841 95.7496 39.4388 94.0583C31.9934 92.366 25.0948 88.7979 19.3877 83.6862H32.5511C35.0446 83.6862 37.436 82.6867 39.1996 80.9079C40.9632 79.1299 41.9532 76.7176 41.9532 74.2018C41.9532 71.6868 40.9632 69.2747 39.1996 67.4968C37.436 65.7179 35.0443 64.7184 32.5511 64.7184H26.5718C24.5357 64.7184 22.6546 63.6229 21.6365 61.8449C20.6194 60.067 20.6194 57.8758 21.6365 56.0978C22.6546 54.3199 24.5358 53.2243 26.5718 53.2243C29.0829 53.2337 31.4932 52.2294 33.2659 50.4365C35.0631 48.653 36.0756 46.2171 36.0756 43.6741C36.0756 41.1319 35.0631 38.6952 33.2659 36.9127C31.4929 35.1188 29.0826 34.1146 26.5718 34.124H6.93876C10.6302 23.9692 17.7863 15.4713 27.1241 10.1536C36.4618 4.83687 47.3719 3.04663 57.8989 5.10408C57.0311 6.55352 56.5636 8.21012 56.5449 9.90325C56.5944 11.4402 56.0242 12.932 54.966 14.0379L54.9668 14.0385ZM26.76 37.8611V37.8621C28.2782 37.8526 29.7357 38.4616 30.8032 39.5496C31.8885 40.6207 32.5006 42.087 32.5006 43.6185C32.5006 45.1498 31.8885 46.6161 30.8032 47.6864C29.7357 48.7754 28.2783 49.3834 26.76 49.3749C23.381 49.3749 20.2579 51.1933 18.5681 54.1449C16.8791 57.0975 16.8791 60.7343 18.5681 63.6859C20.258 66.6375 23.381 68.456 26.76 68.456H32.8337C34.3519 68.4475 35.8094 69.0555 36.877 70.1445C37.9445 71.2193 38.5407 72.6819 38.5314 74.203C38.5314 75.7127 37.937 77.1601 36.8798 78.2265C35.8216 79.2939 34.3863 79.8934 32.8907 79.8934H15.6092C10.632 74.25 7.12617 67.4471 5.40552 60.0963C3.68578 52.7455 3.80522 45.0785 5.75543 37.786L26.76 37.8611ZM60.3082 9.90405C60.3473 8.48473 60.91 7.1322 61.8879 6.1101C70.6825 8.72197 78.4862 13.9606 84.2707 21.1353C90.0551 28.31 93.5478 37.0848 94.2878 46.3022H72.0795C70.5968 46.2909 69.1783 45.6914 68.1306 44.6335C67.0659 43.5473 66.4649 42.0828 66.4575 40.5552C66.4575 38.0402 65.4665 35.6281 63.703 33.8492C61.9403 32.0712 59.5486 31.0718 57.0554 31.0718H50.8493C49.3321 31.0802 47.8746 30.4722 46.8061 29.3833C45.7208 28.3131 45.1087 26.8468 45.1087 25.3153C45.1087 23.7839 45.7208 22.3168 46.8061 21.2465C47.8745 20.1585 49.332 19.5495 50.8493 19.558C53.3435 19.558 55.7351 18.5594 57.4978 16.7806C59.2614 15.0027 60.2514 12.5903 60.2514 10.0745L60.3082 9.90405Z" fill="url(#paint5_linear_4640_10463)"/>
<defs>
<linearGradient id="paint0_linear_4640_10463" x1="53.1301" y1="59.769" x2="53.1301" y2="85.9352" gradientUnits="userSpaceOnUse">
<stop stop-color="#F4303B"/>
<stop offset="1" stop-color="#2E23F3"/>
</linearGradient>
<linearGradient id="paint1_linear_4640_10463" x1="53.1301" y1="59.769" x2="53.1301" y2="85.9352" gradientUnits="userSpaceOnUse">
<stop stop-color="#F4303B"/>
<stop offset="1" stop-color="#2E23F3"/>
</linearGradient>
<linearGradient id="paint2_linear_4640_10463" x1="53.1301" y1="59.769" x2="53.1301" y2="85.9352" gradientUnits="userSpaceOnUse">
<stop stop-color="#F4303B"/>
<stop offset="1" stop-color="#2E23F3"/>
</linearGradient>
<linearGradient id="paint3_linear_4640_10463" x1="53.1301" y1="59.769" x2="53.1301" y2="85.9352" gradientUnits="userSpaceOnUse">
<stop stop-color="#F4303B"/>
<stop offset="1" stop-color="#2E23F3"/>
</linearGradient>
<linearGradient id="paint4_linear_4640_10463" x1="53.1301" y1="59.769" x2="53.1301" y2="85.9352" gradientUnits="userSpaceOnUse">
<stop stop-color="#F4303B"/>
<stop offset="1" stop-color="#2E23F3"/>
</linearGradient>
<linearGradient id="paint5_linear_4640_10463" x1="53.1301" y1="59.769" x2="53.1301" y2="85.9352" gradientUnits="userSpaceOnUse">
<stop stop-color="#F4303B"/>
<stop offset="1" stop-color="#2E23F3"/>
</linearGradient>
</defs>
</svg>
