<svg width="112" height="111" viewBox="0 0 112 111" fill="none" xmlns="http://www.w3.org/2000/svg">
<path d="M17.8484 72.0197H10.911C9.95188 72.0197 9.17662 72.8001 9.17662 73.7656V82.4954C9.17662 83.4609 9.95188 84.2413 10.911 84.2413H17.8484C18.8075 84.2413 19.5827 83.4609 19.5827 82.4954V73.7656C19.5827 72.8001 18.8075 72.0197 17.8484 72.0197ZM16.114 80.7494H12.6453V75.5116H16.114V80.7494ZM31.7231 72.0197H24.7858C23.8267 72.0197 23.0514 72.8001 23.0514 73.7656V82.4954C23.0514 83.4609 23.8267 84.2413 24.7858 84.2413H31.7231C32.6822 84.2413 33.4575 83.4609 33.4575 82.4954V73.7656C33.4575 72.8001 32.6822 72.0197 31.7231 72.0197ZM29.9888 80.7494H26.5201V75.5116H29.9888V80.7494ZM52.5423 72.0197H45.6049C44.6458 72.0197 43.8705 72.8001 43.8705 73.7656V82.4954C43.8705 83.4609 44.6458 84.2413 45.6049 84.2413H52.5423C53.5014 84.2413 54.2766 83.4609 54.2766 82.4954V73.7656C54.2766 72.8001 53.5014 72.0197 52.5423 72.0197ZM50.8079 80.7494H47.3392V75.5116H50.8079V80.7494ZM68.1653 73.7656C68.1653 72.8001 67.39 72.0197 66.4309 72.0197H59.4935C58.5344 72.0197 57.7592 72.8001 57.7592 73.7656V82.4954C57.7592 83.4609 58.5344 84.2413 59.4935 84.2413H66.4309C67.39 84.2413 68.1653 83.4609 68.1653 82.4954V73.7656ZM64.6966 80.7494H61.2279V75.5116H64.6966V80.7494ZM80.2849 84.2413H87.2223C88.1814 84.2413 88.9566 83.4609 88.9566 82.4954V73.7656C88.9566 72.8001 88.1814 72.0197 87.2223 72.0197H80.2849C79.3258 72.0197 78.5505 72.8001 78.5505 73.7656V82.4954C78.5505 83.4609 79.3258 84.2413 80.2849 84.2413ZM82.0192 75.5116H85.4879V80.7494H82.0192V75.5116ZM94.1597 84.2413H101.097C102.056 84.2413 102.831 83.4609 102.831 82.4954V73.7656C102.831 72.8001 102.056 72.0197 101.097 72.0197H94.1597C93.2006 72.0197 92.4253 72.8001 92.4253 73.7656V82.4954C92.4253 83.4609 93.2006 84.2413 94.1597 84.2413ZM95.894 75.5116H99.3627V80.7494H95.894V75.5116ZM17.8484 87.7489H10.911C9.95188 87.7489 9.17662 88.5294 9.17662 89.4949V98.2246C9.17662 99.1901 9.95188 99.9706 10.911 99.9706H17.8484C18.8075 99.9706 19.5827 99.1901 19.5827 98.2246V89.4949C19.5827 88.5294 18.8075 87.7489 17.8484 87.7489ZM16.114 96.4787H12.6453V91.2408H16.114V96.4787ZM31.7231 87.7489H24.7858C23.8267 87.7489 23.0514 88.5294 23.0514 89.4949V98.2246C23.0514 99.1901 23.8267 99.9706 24.7858 99.9706H31.7231C32.6822 99.9706 33.4575 99.1901 33.4575 98.2246V89.4949C33.4575 88.5294 32.6822 87.7489 31.7231 87.7489ZM29.9888 96.4787H26.5201V91.2408H29.9888V96.4787ZM80.2849 99.9706H87.2223C88.1814 99.9706 88.9566 99.1901 88.9566 98.2246V89.4949C88.9566 88.5294 88.1814 87.7489 87.2223 87.7489H80.2849C79.3258 87.7489 78.5505 88.5294 78.5505 89.4949V98.2246C78.5505 99.1901 79.3258 99.9706 80.2849 99.9706ZM82.0192 91.2408H85.4879V96.4787H82.0192V91.2408ZM94.1597 99.9706H101.097C102.056 99.9706 102.831 99.1901 102.831 98.2246V89.4949C102.831 88.5294 102.056 87.7489 101.097 87.7489H94.1597C93.2006 87.7489 92.4253 88.5294 92.4253 89.4949V98.2246C92.4253 99.1901 93.2006 99.9706 94.1597 99.9706ZM95.894 91.2408H99.3627V96.4787H95.894V91.2408Z" fill="url(#paint0_linear_4637_10455)"/>
<path d="M111.46 64.8292C111.451 64.7541 111.469 64.6808 111.45 64.6057L109.719 57.6219C109.707 57.5765 109.675 57.5434 109.66 57.4997C109.623 57.3845 109.568 57.2815 109.507 57.1767C109.453 57.0842 109.401 56.9951 109.332 56.9166C109.256 56.8258 109.167 56.7559 109.075 56.6826C108.992 56.6198 108.914 56.5604 108.822 56.5115C108.72 56.4574 108.612 56.4242 108.498 56.3928C108.389 56.3614 108.286 56.3369 108.172 56.3264C108.125 56.3229 108.083 56.2985 108.035 56.2985H87.2902V49.3217C87.2902 48.3562 86.515 47.5757 85.5559 47.5757H80.2817C79.3226 47.5757 78.5474 48.3562 78.5474 49.3217V56.2985H68.1361V45.8507C68.1361 44.887 67.3643 44.11 66.4087 44.1065V26.6244C67.3678 26.6244 68.143 25.8439 68.143 24.8784V19.6406C68.143 18.6751 67.3678 17.8946 66.4087 17.8946H65.5658L57.7352 6.86546V2.17759C57.7352 1.21208 56.96 0.431641 56.0009 0.431641C55.0418 0.431641 54.2665 1.21208 54.2665 2.17759V6.86546L46.4359 17.8946H45.5948C44.6357 17.8946 43.8604 18.6751 43.8604 19.6406V24.8697C43.8604 24.8732 43.8587 24.8749 43.8587 24.8784C43.8587 25.8439 44.634 26.6244 45.593 26.6244V44.1065C44.6374 44.11 43.8656 44.887 43.8656 45.8507V56.2985H33.4543V49.3217C33.4543 48.3562 32.6791 47.5757 31.72 47.5757H26.4458C25.4868 47.5757 24.7115 48.3562 24.7115 49.3217V56.2985H3.96696C3.92013 56.2985 3.87851 56.3229 3.83168 56.3264C3.71722 56.3369 3.60969 56.3631 3.50042 56.3945C3.39116 56.426 3.28536 56.4574 3.18304 56.508C3.08765 56.5569 3.00787 56.6198 2.92462 56.6861C2.8327 56.7577 2.74598 56.8275 2.6714 56.9148C2.6003 56.9951 2.54826 57.0842 2.49277 57.1785C2.4338 57.2815 2.38003 57.3827 2.34188 57.498C2.32627 57.5416 2.29505 57.5765 2.28291 57.6219L0.55203 64.6057C0.532953 64.6791 0.550296 64.7489 0.541624 64.8222C0.534687 64.8938 0.501734 64.9549 0.501734 65.0282C0.501734 65.0736 0.524281 65.1138 0.529484 65.1592C0.538156 65.2814 0.565905 65.3932 0.598858 65.5084C0.630076 65.6149 0.657826 65.7144 0.708122 65.8122C0.756684 65.9117 0.820854 65.9972 0.890228 66.0863C0.957868 66.1736 1.02551 66.2574 1.10876 66.3307C1.192 66.4041 1.28393 66.4564 1.37758 66.5123C1.47991 66.5717 1.57703 66.624 1.6915 66.6625C1.73486 66.6782 1.76954 66.7096 1.81464 66.7218C1.95338 66.7567 2.09387 66.7707 2.23088 66.7724H2.23435V106.933C1.27525 106.933 0.5 107.713 0.5 108.679C0.5 109.644 1.27525 110.425 2.23435 110.425H45.5566C45.5688 110.425 45.5792 110.432 45.5913 110.432H66.4174C66.4295 110.432 66.4399 110.425 66.452 110.425H109.766C110.725 110.425 111.5 109.644 111.5 108.679C111.5 107.713 110.725 106.933 109.766 106.933V66.7794C109.79 66.7794 109.807 66.7672 109.83 66.7655C109.948 66.762 110.067 66.7515 110.185 66.7236C110.224 66.7131 110.253 66.6869 110.291 66.6729C110.421 66.6328 110.536 66.5717 110.648 66.5018C110.73 66.4529 110.81 66.4058 110.881 66.3447C110.976 66.2626 111.051 66.1701 111.125 66.0723C111.186 65.9903 111.245 65.9134 111.292 65.8227C111.344 65.7196 111.377 65.6149 111.408 65.5014C111.439 65.3879 111.465 65.2814 111.474 65.1644C111.477 65.119 111.5 65.0789 111.5 65.0335C111.5 64.9602 111.467 64.899 111.46 64.8292ZM47.3257 106.935V91.2489H54.2665V106.935H47.3257ZM57.7352 106.935V91.2489H64.683V106.935H57.7352ZM66.4174 87.757H45.5913C44.6322 87.757 43.857 88.5374 43.857 89.503V106.935H40.3935V65.8733L56.0009 53.299L71.6117 65.8733V106.935H68.1517V89.503C68.1517 88.5374 67.3765 87.757 66.4174 87.757ZM4.45605 63.2823L5.32149 59.7904H26.4198C26.4285 59.7904 26.4372 59.7956 26.4458 59.7956H31.72C31.7287 59.7956 31.7373 59.7904 31.746 59.7904H42.3914L38.0573 63.2823H4.45605ZM47.3343 47.5967H64.6674V55.8061L57.0848 49.6988C57.0432 49.6639 56.9894 49.6569 56.9461 49.6272C56.8455 49.5609 56.7449 49.5103 56.6356 49.4666C56.5333 49.4265 56.4362 49.3898 56.3304 49.3688C56.2194 49.3461 56.1101 49.3409 55.9974 49.3409C55.8881 49.3409 55.7841 49.3461 55.6765 49.3688C55.5673 49.3898 55.4667 49.4247 55.3609 49.4684C55.2516 49.5103 55.1545 49.5609 55.0557 49.6255C55.0106 49.6569 54.9568 49.6639 54.9152 49.6988L47.3326 55.8079L47.3343 47.5967ZM73.9566 63.2875L69.6155 59.7904H80.2575C80.2661 59.7904 80.2748 59.7956 80.2835 59.7956H85.5576C85.5663 59.7956 85.575 59.7904 85.5836 59.7904H106.682L107.547 63.2875H73.9566ZM82.0161 51.0676H83.8215V56.2985H82.0161V51.0676ZM62.94 44.1048H49.0617V26.6244H54.2665V28.6933C52.2529 29.4161 50.7978 31.3367 50.7978 33.6082V37.1001C50.7978 38.0656 51.5731 38.846 52.5322 38.846H54.2665C54.2665 39.8115 55.0418 40.592 56.0009 40.592C56.96 40.592 57.7352 39.8115 57.7352 38.846H59.4696C60.4287 38.846 61.2039 38.0656 61.2039 37.1001V33.6082C61.2039 31.3349 59.7488 29.4161 57.7352 28.6933V26.6244H62.94V44.1048ZM64.6743 21.3865V23.1325H47.3291V21.3865H64.6743ZM57.7352 35.3541H54.2665V33.6082C54.2665 32.6444 55.0435 31.8622 56.0009 31.8622C56.9582 31.8622 57.7352 32.6444 57.7352 33.6082V35.3541ZM56.0009 10.4272L61.3045 17.8946H50.699L56.0009 10.4272ZM28.1802 51.0676H29.9857V56.2985H28.1802V51.0676ZM5.70478 66.7742H36.9248V106.935H5.70478V66.7742ZM106.297 106.935H75.0804V66.7794H106.297V106.935Z" fill="url(#paint1_linear_4637_10455)"/>
<path d="M61.2035 63.2826C61.2035 60.3965 58.8708 58.0482 56.0039 58.0482C53.137 58.0482 50.8043 60.3965 50.8043 63.2826C50.8043 66.1686 53.137 68.5169 56.0039 68.5169C58.8708 68.5169 61.2035 66.1686 61.2035 63.2826ZM56.0039 65.025C55.0483 65.025 54.273 64.2446 54.273 63.2826C54.273 62.3206 55.0483 61.5401 56.0039 61.5401C56.9595 61.5401 57.7348 62.3206 57.7348 63.2826C57.7348 64.2446 56.9595 65.025 56.0039 65.025Z" fill="url(#paint2_linear_4637_10455)"/>
<defs>
<linearGradient id="paint0_linear_4637_10455" x1="54.0958" y1="59.769" x2="54.0958" y2="85.9352" gradientUnits="userSpaceOnUse">
<stop stop-color="#F4303B"/>
<stop offset="1" stop-color="#2E23F3"/>
</linearGradient>
<linearGradient id="paint1_linear_4637_10455" x1="54.0958" y1="59.769" x2="54.0958" y2="85.9352" gradientUnits="userSpaceOnUse">
<stop stop-color="#F4303B"/>
<stop offset="1" stop-color="#2E23F3"/>
</linearGradient>
<linearGradient id="paint2_linear_4637_10455" x1="54.0958" y1="59.769" x2="54.0958" y2="85.9352" gradientUnits="userSpaceOnUse">
<stop stop-color="#F4303B"/>
<stop offset="1" stop-color="#2E23F3"/>
</linearGradient>
</defs>
</svg>
