<svg width="90" height="111" viewBox="0 0 90 111" fill="none" xmlns="http://www.w3.org/2000/svg">
<path fill-rule="evenodd" clip-rule="evenodd" d="M44.9994 54.6463C47.518 54.6463 49.9799 55.3901 52.074 56.7839C54.1681 58.1776 55.8002 60.1585 56.764 62.4761C57.7278 64.7938 57.98 67.3441 57.4887 69.8045C56.9973 72.2649 55.7846 74.5249 54.0037 76.2988C52.2228 78.0726 49.9538 79.2806 47.4837 79.77C45.0136 80.2594 42.4532 80.0083 40.1264 79.0483C37.7996 78.0883 35.8108 76.4625 34.4116 74.3767C33.0123 72.2909 32.2655 69.8386 32.2655 67.33C32.2655 63.9661 33.6071 60.7399 35.9952 58.3612C38.3833 55.9826 41.6222 54.6463 44.9994 54.6463ZM21.9594 31.5216C21.9513 31.7818 22.0265 32.0378 22.1742 32.2525C22.3219 32.4672 22.5344 32.6295 22.7809 32.7159L30.0478 35.4644L30.9069 25.0368L21.9594 21.8851V31.5216ZM32.7064 36.4699L44.5401 40.9458C44.835 41.0632 45.1639 41.0632 45.4588 40.9458L67.218 32.7159C67.4645 32.6295 67.677 32.4672 67.8247 32.2525C67.9724 32.0378 68.0476 31.7818 68.0395 31.5216V21.8851L46.3355 29.5297C45.4726 29.8458 44.5249 29.8458 43.662 29.5297L33.5702 25.9751L32.7057 36.4699H32.7064ZM68.0395 35.3117C68.0395 36.2546 68.2223 37.1975 67.218 37.5791L45.4588 45.8089C45.1639 45.9266 44.8349 45.9266 44.5401 45.8089L32.318 41.1862L32.4742 39.2897L43.5795 43.489C44.4925 43.848 45.5082 43.848 46.4211 43.489L68.0404 35.3122L68.0395 35.3117ZM29.8156 38.2831L29.6595 40.1798L22.7809 37.5782C21.7766 37.1984 21.9594 36.2537 21.9594 35.3108L29.8156 38.2831ZM28.3732 51.0147V57.7891H31.9004V51.014C31.9004 50.5481 31.7146 50.1013 31.3839 49.7719C31.0531 49.4424 30.6045 49.2573 30.1368 49.2573C29.6691 49.2573 29.2205 49.4424 28.8898 49.7719C28.559 50.1013 28.3732 50.5481 28.3732 51.014V51.0147ZM25.6394 59.1516C25.6394 59.5128 25.7834 59.8592 26.0399 60.1146C26.2963 60.3701 26.6441 60.5135 27.0067 60.5135H33.2684C33.6311 60.5135 33.9789 60.3701 34.2353 60.1146C34.4918 59.8592 34.6358 59.5128 34.6358 59.1516V51.0147C34.6358 50.1266 34.371 49.2586 33.8749 48.5208C33.3789 47.7829 32.674 47.2084 31.8497 46.8701L32.0857 44.004L43.5795 48.3511C44.4925 48.7099 45.5082 48.7099 46.4211 48.3511L68.1804 40.1212C68.9451 39.838 69.604 39.3277 70.0681 38.6592C70.5321 37.9908 70.7789 37.1966 70.7749 36.3839V20.9218L81.3121 17.2101C81.6339 17.0974 81.9257 16.9132 82.1654 16.6714C82.4051 16.4296 82.5864 16.1366 82.6954 15.8146C82.8045 15.4927 82.8384 15.1502 82.7948 14.8132C82.7511 14.4762 82.631 14.1535 82.4435 13.8697L82.446 13.8681C82.1765 13.4576 81.7776 13.1481 81.3121 12.9883L46.3362 0.668698C45.4733 0.352621 44.5256 0.352621 43.6627 0.668698L8.68679 12.9883C8.36496 13.101 8.07314 13.2853 7.83345 13.527C7.59377 13.7688 7.41252 14.0618 7.30347 14.3838C7.19442 14.7058 7.16043 15.0482 7.20408 15.3852C7.24773 15.7222 7.36787 16.0449 7.55539 16.3288L7.55291 16.3303C7.82241 16.7408 8.22131 17.0503 8.68679 17.2101L19.2248 20.9218V36.3839C19.2208 37.1966 19.4675 37.991 19.9315 38.6595C20.3956 39.328 21.0546 39.8384 21.8194 40.1217L29.4271 42.999L29.1267 46.6481C28.1356 46.8764 27.2514 47.4324 26.6181 48.2253C25.9849 49.0183 25.6399 50.0014 25.6394 51.0147V59.1516ZM44.2088 13.9927L32.1407 22.5873L10.8815 15.0992L44.5712 3.23284C44.8474 3.13001 45.1515 3.13001 45.4277 3.23284L79.1173 15.0992L45.4277 26.9665C45.1515 27.0693 44.8474 27.0693 44.5712 26.9665L35.2782 23.6932L45.7903 16.2069C45.9385 16.1044 46.0648 15.9736 46.1618 15.8222C46.2589 15.6708 46.3249 15.5016 46.3559 15.3246C46.3869 15.1476 46.3823 14.9663 46.3424 14.791C46.3026 14.6158 46.2282 14.4502 46.1236 14.3038C46.019 14.1574 45.8863 14.0331 45.7332 13.9382C45.58 13.8432 45.4095 13.7795 45.2314 13.7506C45.0533 13.7218 44.8713 13.7285 44.6959 13.7702C44.5204 13.812 44.355 13.888 44.2093 13.9938L44.2088 13.9927ZM27.9405 84.2681C26.5195 83.587 24.9616 83.2367 23.3847 83.2437H13.3817C10.5608 83.2532 7.85821 84.3736 5.86358 86.3604C3.86895 88.3472 2.7442 91.0392 2.73475 93.8489V95.1061C5.26075 97.441 8.28091 99.1811 11.5723 100.198C14.8637 101.215 18.3424 101.482 21.7516 100.981C21.5128 100.729 21.38 100.395 21.3806 100.048V97.648C21.3834 95.0683 21.9755 92.523 23.1121 90.2049C24.2486 87.8868 25.8997 85.8567 27.9405 84.2683V84.2681ZM25.4863 100.683C25.0187 100.294 24.5617 99.8904 24.1151 99.4729V97.648C24.1272 93.8624 25.6424 90.2353 28.3298 87.5585C31.0172 84.8817 34.6586 83.3725 38.4592 83.3605H51.5399C52.4824 83.3601 53.4227 83.4528 54.3468 83.637V83.6319C57.5947 84.2903 60.5154 86.0438 62.6168 88.5969C64.7181 91.15 65.8716 94.3466 65.8829 97.648V99.4713L64.5231 100.669L64.5254 100.672L62.3246 102.337C57.0574 105.955 50.7817 107.833 44.3846 107.705C37.9875 107.576 31.7928 105.449 26.6761 101.622L25.4868 100.683H25.4863ZM24.3385 103.251C20.1331 104.245 15.7444 104.168 11.5766 103.028C7.40875 101.889 3.59596 99.7223 0.489524 96.7291C0.33613 96.6014 0.212775 96.4417 0.128185 96.2613C0.0435954 96.0809 -0.00016449 95.8842 4.6462e-07 95.685V93.8489C0.00945884 90.3168 1.42234 86.932 3.92985 84.4343C6.43735 81.9367 9.83553 80.5294 13.3817 80.52H23.3856C25.9152 80.5243 28.3915 81.244 30.5265 82.5954C32.9708 81.3074 35.6946 80.6352 38.4598 80.6376H51.5399C52.6618 80.6373 53.781 80.7478 54.881 80.9674V80.9725C56.4807 81.2907 58.0259 81.8373 59.4688 82.5954C61.6041 81.24 64.0833 80.5197 66.6153 80.5191H76.6183C80.1631 80.5329 83.5587 81.9417 86.0653 84.4383C88.5718 86.935 89.9861 90.3172 90 93.848V95.6839H89.9959C89.9959 96.4052 89.4598 96.7927 88.9243 97.2778L88.0931 97.9989L88.0908 97.9962C81.9774 103.166 73.4729 105.092 65.6604 103.25C59.7859 107.9 52.5036 110.432 45 110.432C37.4964 110.432 30.2141 107.9 24.3396 103.25L24.3385 103.251ZM18.3833 59.0606C20.3728 59.0607 22.3177 59.6484 23.972 60.7494C25.6262 61.8504 26.9155 63.4153 27.6769 65.2462C28.4383 67.077 28.6375 69.0917 28.2493 71.0353C27.8612 72.979 26.9032 74.7644 25.4963 76.1657C24.0895 77.567 22.2971 78.5213 20.3458 78.908C18.3944 79.2946 16.3718 79.0962 14.5337 78.3379C12.6955 77.5796 11.1244 76.2954 10.019 74.6477C8.91362 73 8.32357 71.0628 8.32348 69.081C8.3236 66.4236 9.38351 63.875 11.2701 61.9959C13.1566 60.1168 15.7153 59.0611 18.3833 59.0611V59.0606ZM23.5629 63.9213C22.5385 62.901 21.2334 62.2062 19.8125 61.9248C18.3916 61.6433 16.9189 61.7878 15.5805 62.3401C14.2421 62.8923 13.0982 63.8274 12.2933 65.0272C11.4885 66.227 11.0589 67.6376 11.0589 69.0806C11.0589 70.5236 11.4885 71.9341 12.2933 73.1339C13.0982 74.3337 14.2421 75.2689 15.5805 75.8211C16.9189 76.3733 18.3916 76.5179 19.8125 76.2364C21.2334 75.9549 22.5385 75.2601 23.5629 74.2398C24.2432 73.5623 24.7828 72.758 25.1509 71.8728C25.5191 70.9875 25.7086 70.0388 25.7086 69.0806C25.7086 68.1224 25.5191 67.1736 25.1509 66.2884C24.7828 65.4032 24.2432 64.5988 23.5629 63.9213ZM68.2423 100.981C71.4472 101.453 74.7161 101.246 77.8351 100.373C80.9541 99.5006 83.853 97.982 86.3423 95.9167L86.3401 95.9142L87.2641 95.1047V93.8489C87.2582 91.0381 86.1345 88.3441 84.1392 86.3566C82.1438 84.369 79.4391 83.2497 76.6172 83.2437H66.6133C65.0351 83.2409 63.4765 83.5916 62.0528 84.2699C64.0937 85.8582 65.7454 87.8879 66.8829 90.2056C68.0205 92.5232 68.6142 95.0682 68.6192 97.648V100.048H68.6151C68.6156 100.395 68.4824 100.729 68.243 100.981H68.2423ZM71.6167 59.0606C73.6063 59.0609 75.551 59.6487 77.2052 60.7498C78.8593 61.8509 80.1485 63.4159 80.9097 65.2468C81.6709 67.0777 81.87 69.0923 81.4818 71.0359C81.0935 72.9795 80.1354 74.7648 78.7285 76.166C77.3217 77.5672 75.5293 78.5214 73.578 78.908C71.6267 79.2946 69.6041 79.0962 67.766 78.3378C65.9279 77.5795 64.3569 76.2953 63.2515 74.6476C62.1461 72.9999 61.5561 71.0627 61.556 69.081C61.556 67.7651 61.8162 66.462 62.3218 65.2462C62.8274 64.0304 63.5685 62.9257 64.5027 61.9952C65.4369 61.0648 66.546 60.3267 67.7667 59.8231C68.9873 59.3196 70.2956 59.0605 71.6167 59.0606ZM76.7964 63.9213C75.772 62.901 74.4668 62.2062 73.046 61.9248C71.6251 61.6433 70.1523 61.7878 68.8139 62.3401C67.4755 62.8923 66.3316 63.8274 65.5268 65.0272C64.7219 66.227 64.2924 67.6376 64.2924 69.0806C64.2924 70.5236 64.7219 71.9341 65.5268 73.1339C66.3316 74.3337 67.4755 75.2689 68.8139 75.8211C70.1523 76.3733 71.6251 76.5179 73.046 76.2364C74.4668 75.9549 75.772 75.2601 76.7964 74.2398C77.4766 73.5623 78.0162 72.758 78.3844 71.8728C78.7525 70.9875 78.942 70.0388 78.942 69.0806C78.942 68.1224 78.7525 67.1736 78.3844 66.2884C78.0162 65.4032 77.4766 64.5988 76.7964 63.9213ZM52.0723 60.287C50.6738 58.8941 48.892 57.9455 46.9523 57.5612C45.0126 57.177 43.002 57.3742 41.1748 58.1281C39.3477 58.882 37.786 60.1586 36.6872 61.7965C35.5884 63.4345 35.002 65.3602 35.002 67.3301C35.002 69.3 35.5884 71.2257 36.6872 72.8637C37.786 74.5016 39.3477 75.7782 41.1748 76.5321C43.002 77.286 45.0126 77.4833 46.9523 77.099C48.892 76.7147 50.6738 75.7661 52.0723 74.3732C53.9472 72.5049 55.0003 69.9713 54.9999 67.3297C54.9996 64.6881 53.9457 62.1548 52.0703 60.287H52.0723Z" fill="url(#paint0_linear_4633_24694)"/>
<defs>
<linearGradient id="paint0_linear_4633_24694" x1="43.456" y1="59.769" x2="43.456" y2="85.9352" gradientUnits="userSpaceOnUse">
<stop stop-color="#F4303B"/>
<stop offset="1" stop-color="#2E23F3"/>
</linearGradient>
</defs>
</svg>
