<svg width="108" height="109" viewBox="0 0 108 109" fill="none" xmlns="http://www.w3.org/2000/svg">
<path d="M73.0661 85.3043C72.7732 84.4005 71.991 83.7417 71.0502 83.6032L60.8209 82.1186L56.2395 72.8416C55.8208 71.9915 54.9505 71.4502 54.0021 71.4502C53.0496 71.4502 52.1835 71.9915 51.7622 72.8416L47.1826 82.1186L36.9506 83.6032C36.0124 83.74 35.2294 84.4005 34.9348 85.3043C34.6419 86.2082 34.8861 87.2002 35.5667 87.864L42.9713 95.089L41.219 105.278C41.0587 106.216 41.4439 107.162 42.2135 107.723C42.9831 108.284 44.0002 108.356 44.8436 107.913L54.0013 103.102L63.1541 107.913C63.5217 108.106 63.9212 108.199 64.319 108.199C64.8376 108.199 65.3504 108.038 65.7868 107.723C66.5555 107.162 66.9391 106.217 66.7788 105.281L65.0315 95.089L72.4361 87.864C73.115 87.2002 73.3615 86.2082 73.0661 85.3043ZM60.6017 92.432C60.0142 93.0052 59.7465 93.8335 59.8858 94.6408L60.9995 101.136L55.1617 98.0699C54.7992 97.8794 54.3997 97.7821 54.0019 97.7821C53.6025 97.7821 53.203 97.8794 52.8371 98.0699L47.0019 101.136L48.1173 94.6432C48.2566 93.8316 47.9897 93.005 47.3989 92.4318L42.6757 87.8227L49.2007 86.8744C50.014 86.7552 50.7173 86.245 51.0798 85.509L53.9995 79.5941L56.9193 85.509C57.2818 86.245 57.9851 86.7569 58.7983 86.8744L65.3233 87.8227L60.6017 92.432Z" fill="url(#paint0_linear_4640_10474)"/>
<path d="M0.90432 92.4028L6.38026 97.7462L5.08617 105.28C4.92336 106.216 5.30941 107.161 6.07815 107.722C6.84688 108.283 7.86906 108.356 8.71084 107.913L15.4801 104.356L22.246 107.913C22.6111 108.106 23.0105 108.198 23.4109 108.198C23.927 108.198 24.4423 108.038 24.8787 107.722C25.6457 107.161 26.0309 106.216 25.8706 105.28L24.5791 97.7462L30.055 92.4028C30.7331 91.7406 30.979 90.7487 30.6844 89.8431C30.3915 88.9393 29.6094 88.2805 28.6686 88.1445L21.1046 87.0477L17.7217 80.192C17.2995 79.3368 16.4326 78.798 15.4817 78.798C14.5292 78.798 13.6631 79.3368 13.2392 80.192L9.85366 87.0477L2.28965 88.1445C1.35139 88.2788 0.568392 88.9393 0.273819 89.8431C-0.0215908 90.7487 0.222861 91.7406 0.90432 92.4028ZM11.8689 91.8036C12.6846 91.6819 13.3879 91.1741 13.7504 90.4381L15.4784 86.9402L17.2022 90.4381C17.5673 91.1741 18.2705 91.6836 19.0838 91.8036L22.94 92.3617L20.147 95.0867C19.5595 95.6599 19.2893 96.4883 19.4286 97.2981L20.0891 101.137L16.6398 99.3232C15.913 98.9422 15.0436 98.9422 14.3143 99.3232L10.865 101.137L11.5255 97.2981C11.6648 96.4866 11.3962 95.6599 10.8071 95.0867L8.0141 92.3617L11.8689 91.8036Z" fill="url(#paint1_linear_4640_10474)"/>
<path d="M105.709 88.1446L98.148 87.0477L94.7607 80.192C94.3395 79.3368 93.4717 78.7981 92.5208 78.7981C91.5708 78.7981 90.7022 79.3368 90.2808 80.192L86.8953 87.0477L79.3339 88.1446C78.3931 88.2788 77.6101 88.9393 77.3155 89.8432C77.0226 90.7496 77.2669 91.7415 77.9475 92.4028L83.4234 97.7462L82.1318 105.28C81.969 106.216 82.3551 107.161 83.1238 107.722C83.5602 108.038 84.0738 108.198 84.5916 108.198C84.9911 108.198 85.3889 108.105 85.7565 107.913L92.5224 104.356L99.2916 107.913C100.133 108.356 101.155 108.283 101.924 107.722C102.694 107.161 103.077 106.216 102.916 105.28L101.622 97.7462L107.098 92.4028C107.779 91.7407 108.022 90.7487 107.728 89.8432C107.433 88.9393 106.65 88.2788 105.709 88.1446ZM97.1928 95.0866C96.6053 95.6598 96.3351 96.4881 96.4744 97.298L97.1349 101.137L93.6832 99.323C93.3206 99.1325 92.9212 99.0377 92.5208 99.0377C92.1213 99.0377 91.7219 99.1325 91.3585 99.323L87.9092 101.137L88.5696 97.298C88.7064 96.4865 88.4404 95.6598 87.8512 95.0866L85.0591 92.3615L88.913 91.8034C89.7287 91.6817 90.432 91.174 90.7946 90.438L92.5209 86.9401L94.2472 90.438C94.6122 91.174 95.3155 91.6834 96.1287 91.8034L99.985 92.3615L97.1928 95.0866Z" fill="url(#paint2_linear_4640_10474)"/>
<path d="M83.3463 57.6153C84.909 62.8379 85.1473 69.9798 85.1498 70.0511C85.1918 71.4031 86.3004 72.4739 87.6457 72.4739C87.6708 72.4739 87.6994 72.4739 87.7245 72.4714C89.1017 72.4294 90.1869 71.2796 90.145 69.8999C90.1332 69.581 89.8865 62.0413 88.1308 56.1817C86.2048 49.7407 75.5466 46.194 71.0424 44.9628L71.1145 44.7186C71.3848 43.8097 71.1145 42.8294 70.4247 42.1815L67.4212 39.3801C66.4527 38.4737 64.9447 38.488 63.9871 39.4036L53.9004 49.075L43.8137 39.4036C42.8562 38.4863 41.3465 38.4746 40.3771 39.3843L37.3819 42.1857C36.6921 42.8294 36.4244 43.8113 36.6946 44.7176L36.7802 45.0122C32.1778 46.2853 21.7631 49.821 19.863 56.1797C19.8286 56.2989 19.8026 56.4164 19.7841 56.5381L17.8807 69.615C17.681 70.9779 18.6268 72.2451 19.9922 72.4449C20.1139 72.4642 20.2364 72.4726 20.3523 72.4726C21.5742 72.4726 22.6408 71.578 22.8212 70.3351L24.6961 57.4655C25.8098 54.3653 32.7804 51.309 38.1986 49.8074L40.3782 57.1675C40.5804 57.8406 41.0538 58.4012 41.6891 58.7059C42.0306 58.8737 42.4024 58.9568 42.7759 58.9568C43.0923 58.9568 43.4095 58.8964 43.7074 58.7764L47.348 57.3086L48.1595 59.4688L42.1363 72.9283C41.5715 74.1906 42.1363 75.665 43.396 76.229C43.7275 76.3775 44.0741 76.4505 44.4132 76.4505C45.3682 76.4505 46.2805 75.9 46.6968 74.971L52.4632 62.0821H55.4072L61.2499 74.9475C61.8205 76.2072 63.3018 76.7595 64.558 76.1879C65.8127 75.6181 66.3674 74.1385 65.7984 72.8821L59.6996 59.4593L60.4969 57.3268L64.0929 58.777C64.7433 59.0397 65.4777 59.0162 66.1113 58.7065C66.7449 58.4019 67.2199 57.8438 67.4196 57.1682L69.6201 49.7544C75.1422 51.2558 82.3911 54.4203 83.3463 57.6153ZM41.9201 44.7758L42.062 44.6466L48.9688 51.2672L44.3892 53.1143L41.9201 44.7758ZM55.2791 57.0176H52.5751L51.9826 55.4407L53.8986 54.6661L55.8616 55.4591L55.2791 57.0176ZM63.4114 53.1143L58.8275 51.2672L65.7394 44.6439L65.8829 44.7807L63.4114 53.1143Z" fill="url(#paint3_linear_4640_10474)"/>
<path d="M79.8465 66.1016C79.8465 64.7219 78.727 63.6041 77.3464 63.6041H70.5745C69.1948 63.6041 68.0769 64.7211 68.0769 66.1016C68.0769 67.4822 69.194 68.5992 70.5745 68.5992H77.3464C78.7261 68.5983 79.8465 67.4813 79.8465 66.1016Z" fill="url(#paint4_linear_4640_10474)"/>
<path d="M37.0862 22.4432C37.4202 25.5123 38.0152 28.2045 38.9098 30.6861C40.1603 34.1152 42.5362 37.3766 45.784 40.1182C47.6756 41.7144 49.3381 42.9733 52.0748 43.4264C52.6858 43.5237 53.2573 43.5724 53.8246 43.5724C56.3447 43.5724 58.2147 42.5947 59.8503 41.5423C63.8116 39.0121 66.9167 35.3092 68.5925 31.1181C70.177 27.1669 70.95 22.9171 70.9524 18.12L70.9574 17.7759C70.965 17.4511 70.9691 17.1205 70.9498 16.8075C70.8181 13.9775 69.9486 11.255 68.3709 8.71816C66.8913 6.32974 64.9099 4.36005 62.4676 2.86367C59.9651 1.34717 57.2594 0.531536 54.4361 0.440872L53.8554 0.431641C51.2882 0.431641 48.8074 1.03086 46.4894 2.20829C43.3231 3.802 40.818 6.19794 39.0438 9.33079C37.6448 11.8125 36.9063 14.4183 36.85 17.0811C36.8106 18.8846 36.8931 20.6918 37.0862 22.4432ZM43.3946 11.7891C44.6694 9.53411 46.4654 7.81193 48.7447 6.66638C50.361 5.84478 52.0831 5.42851 53.8556 5.42851L54.2693 5.43355C56.2323 5.49901 58.118 6.06968 59.8654 7.12963C61.6261 8.20972 63.0577 9.62719 64.1261 11.3535C65.2667 13.1863 65.8667 15.0468 65.9615 17.0711C65.9733 17.2784 65.9666 17.4806 65.9615 17.6804L65.9565 18.1193C65.9515 22.266 65.296 25.9117 63.9533 29.2609C62.6617 32.4954 60.2481 35.3596 57.153 37.336C55.3126 38.5185 54.3399 38.7375 52.8781 38.4958C51.4396 38.2617 50.5945 37.6457 49.0051 36.302C46.4194 34.1209 44.552 31.5856 43.6013 28.9823C42.846 26.8893 42.3391 24.5754 42.0487 21.9017C41.8759 20.3617 41.8096 18.7747 41.8414 17.1878C41.8851 15.3575 42.4051 13.5414 43.3946 11.7891Z" fill="url(#paint5_linear_4640_10474)"/>
<defs>
<linearGradient id="paint0_linear_4640_10474" x1="52.1529" y1="58.5658" x2="52.1529" y2="84.2013" gradientUnits="userSpaceOnUse">
<stop stop-color="#F4303B"/>
<stop offset="1" stop-color="#2E23F3"/>
</linearGradient>
<linearGradient id="paint1_linear_4640_10474" x1="52.1529" y1="58.5658" x2="52.1529" y2="84.2013" gradientUnits="userSpaceOnUse">
<stop stop-color="#F4303B"/>
<stop offset="1" stop-color="#2E23F3"/>
</linearGradient>
<linearGradient id="paint2_linear_4640_10474" x1="52.1529" y1="58.5658" x2="52.1529" y2="84.2013" gradientUnits="userSpaceOnUse">
<stop stop-color="#F4303B"/>
<stop offset="1" stop-color="#2E23F3"/>
</linearGradient>
<linearGradient id="paint3_linear_4640_10474" x1="52.1529" y1="58.5658" x2="52.1529" y2="84.2013" gradientUnits="userSpaceOnUse">
<stop stop-color="#F4303B"/>
<stop offset="1" stop-color="#2E23F3"/>
</linearGradient>
<linearGradient id="paint4_linear_4640_10474" x1="52.1529" y1="58.5658" x2="52.1529" y2="84.2013" gradientUnits="userSpaceOnUse">
<stop stop-color="#F4303B"/>
<stop offset="1" stop-color="#2E23F3"/>
</linearGradient>
<linearGradient id="paint5_linear_4640_10474" x1="52.1529" y1="58.5658" x2="52.1529" y2="84.2013" gradientUnits="userSpaceOnUse">
<stop stop-color="#F4303B"/>
<stop offset="1" stop-color="#2E23F3"/>
</linearGradient>
</defs>
</svg>
