<svg width="96" height="111" viewBox="0 0 96 111" fill="none" xmlns="http://www.w3.org/2000/svg">
<path d="M47.1321 42.9534C49.8562 42.9566 52.5207 41.3456 53.8095 38.956C54.9158 36.8141 51.7542 35.117 50.5748 37.2182C49.2887 39.7333 45.4624 39.9661 43.8813 37.634C42.483 35.6897 39.5041 37.8013 40.8905 39.7606C42.2981 41.7319 44.7097 42.9534 47.1321 42.9534Z" fill="url(#paint0_linear_4637_10454)"/>
<path d="M85.573 50.9789C84.9177 50.0238 83.9777 49.28 82.846 48.8916C78.0286 45.4915 72.1252 42.8599 65.5832 41.158C69.3616 37.9965 70.3547 32.8127 68.1583 28.6074C70.1338 23.7322 70.844 19.0998 70.2369 14.8309C69.016 3.5755 56.525 -3.94596 47.4114 3.27079C36.1398 2.24469 20.2274 4.07283 24.9178 19.323C25.6675 22.0869 26.7429 25.1436 26.1978 27.6903C26.1191 28.0717 26.1963 28.4356 26.3395 28.7682C24.1434 33.0995 25.4053 38.3507 29.3155 41.4528C23.1994 43.159 17.6742 45.6888 13.1478 48.8929C12.0034 49.287 11.0545 50.0445 10.3992 51.0168C-2.38482 61.4623 -2.87465 77.5032 9.4418 88.3676V96.0045C9.37837 99.0864 12.2127 101.728 15.2899 101.466C14.4154 104.379 15.3006 107.871 17.4549 109.915C18.0304 110.472 18.8992 110.589 19.5976 110.215C28.625 105.284 38.8249 105.372 47.9991 109.082C57.1857 105.357 67.3893 105.295 76.4014 110.215C77.0998 110.589 77.9687 110.472 78.5441 109.915C80.6971 107.871 81.5851 104.379 80.7092 101.467C83.795 101.736 86.6159 99.0829 86.5572 96.0044V88.3676C98.8864 77.4851 98.3814 61.4416 85.573 50.9789ZM9.4418 83.1395C2.39971 75.2074 2.3893 64.9989 9.4418 57.0806V83.1395ZM34.7509 7.57619C39.1418 6.58366 43.1672 6.41005 47.7969 7.00962C48.3671 7.08031 48.9409 6.88703 49.3425 6.47717C51.9335 3.84711 56.599 3.35493 60.1904 5.33172C66.0613 8.53204 67.9747 16.6965 66.068 23.2689C65.3589 16.2104 60.0425 10.2651 52.5946 11.6559C47.9551 12.8481 43.3725 11.4925 38.7348 11.53C34.0541 11.9966 29.9162 15.9072 29.0916 20.6232C26.6262 13.4256 27.357 8.91403 34.7509 7.57619ZM28.9286 33.4363C28.9322 32.1647 29.2711 30.9128 29.9076 29.8165C31.507 27.071 32.1974 23.9372 32.7191 21.2158C33.2925 18.0911 36.0531 15.4761 39.1293 15.1745C43.8564 15.4267 48.5526 16.4015 53.28 15.2564C56.6332 14.5768 60.0981 16.538 61.4222 19.7724C62.4003 22.8776 62.6393 26.148 64.4139 29.2966C67.376 33.8225 64.5323 38.6586 60.0396 40.4835C57.4255 41.4178 54.406 42.65 51.8312 44.7002C49.2277 46.7781 45.3494 46.7736 42.7459 44.7011C38.07 40.5919 29.4778 40.8005 28.9286 33.4363ZM44.3273 49.5143C46.713 50.2411 49.4191 50.0307 51.6717 49.0046C52.3719 54.7635 44.1873 55.2806 44.3273 49.5143ZM13.114 70.1408C14.2723 70.1408 14.9823 70.1909 15.5292 70.6222C16.3369 71.2136 16.7751 72.5392 15.9003 73.0831C13.8323 74.8152 14.3502 77.1016 16.1945 78.6277C18.0412 80.7377 15.3258 82.9833 13.114 82.9393V70.1408ZM19.2534 106.28C18.4088 104.8 18.4265 102.754 19.2699 101.287C24.0764 101.211 28.9049 101.727 33.3792 102.751C28.5642 102.951 23.7633 104.114 19.2534 106.28ZM46.1634 103.516C39.1634 99.7291 29.8377 97.5993 20.3489 97.5993C18.6049 97.6127 16.8595 97.6714 15.1204 97.8176C14.5843 97.8588 14.0858 97.6923 13.6985 97.3362C13.322 96.9907 13.114 96.5182 13.114 96.0046V86.6041C19.0644 86.6083 23.0822 80.0645 18.4662 75.7051C22.6185 71.736 18.0868 65.8083 13.114 66.4776V54.0956C13.0608 53.1432 14.1467 52.8292 14.757 52.2574C26.186 50.2801 38.4184 54.6563 46.1634 63.4614V103.516ZM21.6879 48.1581C25.3511 46.4209 29.4325 45.0558 33.7827 44.1154C36.0757 44.9335 38.5867 46.0684 40.6552 47.6999C40.5171 50.3254 40.7359 53.2453 42.8089 55.1335C47.2424 59.754 55.4709 56.3519 55.3438 49.952V46.7217C57.2404 45.4909 59.3668 44.6177 61.2788 43.9342C65.9923 44.8688 70.3859 46.2963 74.3125 48.1588C64.4926 48.544 54.8431 52.8304 47.9995 60.0485C41.155 52.8315 31.5028 48.5438 21.6879 48.1581ZM76.7456 106.28C72.2395 104.113 67.442 102.951 62.6299 102.749C67.1022 101.726 71.9273 101.211 76.7291 101.287C77.5725 102.754 77.5902 104.8 76.7456 106.28ZM80.0986 73.0831C79.2241 72.5393 79.662 71.2135 80.4698 70.6222C81.0167 70.1909 81.7267 70.1408 82.8815 70.1408C82.885 70.1408 82.885 82.9393 82.885 82.9393C80.6695 82.9812 77.9597 80.7384 79.8046 78.6258C81.657 77.0742 82.1723 74.8421 80.0986 73.0831ZM82.885 66.4778C77.9116 65.8121 73.3806 71.734 77.5328 75.7051C72.9157 80.0613 76.9371 86.6122 82.885 86.6041V96.0046C82.885 96.5182 82.6771 96.9908 82.3005 97.3362C80.9712 98.3511 79.0358 97.4873 77.4821 97.6482C67.377 97.3542 57.2843 99.4849 49.8356 103.516V63.4614C57.5829 54.652 69.8236 50.2746 81.2516 52.2588C81.8729 52.8162 82.937 53.1349 82.885 54.0954V66.4778ZM86.5572 83.1395V57.0803C93.609 65.0043 93.5998 75.2053 86.5572 83.1395Z" fill="url(#paint1_linear_4637_10454)"/>
<path d="M73.7051 27.9596C74.7199 27.9596 75.5411 27.139 75.5411 26.1269C75.4941 23.8082 77.8268 21.9721 80.0991 22.5626C83.4942 23.3185 83.7071 27.9901 80.983 29.3404C78.7256 30.5825 77.3772 32.7472 77.3772 35.1312C77.2992 36.1974 78.1325 37.051 79.2133 37.0435C80.2282 37.0435 81.0494 36.1433 81.0494 35.1312C81.0494 34.1029 81.6877 33.1374 82.7546 32.5503C85.6575 30.9548 87.1081 27.6911 86.3658 24.4293C85.3518 19.2976 78.5786 17.042 74.6339 20.3954C72.6705 21.679 69.9533 27.4932 73.7051 27.9596ZM79.2133 42.6213C81.6254 42.5747 81.625 39.0015 79.2133 38.9559C76.8014 39.0019 76.8016 42.575 79.2133 42.6213ZM9.44222 9.63244C10.4571 9.63244 11.2783 8.81185 11.2783 7.79973C11.2314 5.48155 13.5641 3.6439 15.8362 4.23543C19.2314 4.99139 19.4443 9.663 16.7201 11.0132C14.4627 12.2553 13.1144 14.4201 13.1144 16.804C13.0364 17.8703 13.8697 18.7239 14.9504 18.7164C15.9653 18.7164 16.7865 17.8161 16.7865 16.804C16.7865 15.7758 17.4249 14.8102 18.4917 14.2232C21.3947 12.6276 22.8452 9.36399 22.1029 6.10216C21.0876 0.969458 14.3191 -1.28273 10.3709 2.06826C8.4075 3.35186 5.69051 9.16609 9.44222 9.63244ZM14.9506 24.2942C17.3625 24.2475 17.362 20.6744 14.9505 20.6287C12.5386 20.6747 12.5388 24.2478 14.9506 24.2942ZM55.031 75.3194C53.5723 75.3562 52.6539 73.559 53.5518 72.403C56.322 68.6338 59.9816 65.6771 64.1378 63.8533C66.5839 62.7884 69.2058 62.0729 71.9053 61.8264C74.1823 61.8211 74.3737 65.2322 72.1096 65.4811C66.2231 65.7005 58.8307 70.7686 56.514 74.5708C56.1695 75.0393 55.6155 75.3194 55.031 75.3194ZM55.031 89.9811C53.5723 90.0179 52.6539 88.2208 53.5518 87.0647C56.322 83.2955 59.9816 80.3388 64.1378 78.515C66.5831 77.4511 69.203 76.7343 71.9017 76.489C74.1819 76.4823 74.3751 79.8927 72.1096 80.1428C66.2231 80.3623 58.8307 85.4304 56.514 89.2325C56.1695 89.701 55.6155 89.9811 55.031 89.9811ZM41.8287 75.3194C41.2442 75.3194 40.6902 75.0393 40.3459 74.5704C38.027 70.7669 30.6375 65.7024 24.7498 65.4815C22.4948 65.2367 22.6696 61.8183 24.9545 61.8264C27.6527 62.0723 30.2752 62.7884 32.7219 63.8533C36.8781 65.6771 40.5377 68.6338 43.308 72.4039C44.2028 73.5569 43.2903 75.3586 41.8287 75.3194ZM41.8287 89.9811C41.2442 89.9811 40.6902 89.701 40.3459 89.2321C38.027 85.4286 30.6375 80.3642 24.7498 80.1432C22.4933 79.8971 22.67 76.4795 24.9581 76.489C27.6543 76.733 30.2755 77.451 32.7219 78.515C36.8781 80.3388 40.5377 83.2955 43.308 87.0656C44.2028 88.2187 43.2903 90.0204 41.8287 89.9811Z" fill="url(#paint2_linear_4637_10454)"/>
<defs>
<linearGradient id="paint0_linear_4637_10454" x1="46.3702" y1="59.769" x2="46.3702" y2="85.9352" gradientUnits="userSpaceOnUse">
<stop stop-color="#F4303B"/>
<stop offset="1" stop-color="#2E23F3"/>
</linearGradient>
<linearGradient id="paint1_linear_4637_10454" x1="46.3702" y1="59.769" x2="46.3702" y2="85.9352" gradientUnits="userSpaceOnUse">
<stop stop-color="#F4303B"/>
<stop offset="1" stop-color="#2E23F3"/>
</linearGradient>
<linearGradient id="paint2_linear_4637_10454" x1="46.3702" y1="59.769" x2="46.3702" y2="85.9352" gradientUnits="userSpaceOnUse">
<stop stop-color="#F4303B"/>
<stop offset="1" stop-color="#2E23F3"/>
</linearGradient>
</defs>
</svg>
