<svg width="110" height="111" viewBox="0 0 110 111" fill="none" xmlns="http://www.w3.org/2000/svg">
<path d="M45.8333 110.431C52.2848 110.431 57.6253 105.64 58.52 99.4306H78.0743L75.7038 101.801L78.2961 104.393L83.7961 98.8934C83.967 98.7235 84.1025 98.5216 84.1951 98.2991C84.2876 98.0767 84.3352 97.8381 84.3352 97.5972C84.3352 97.3563 84.2876 97.1178 84.1951 96.8953C84.1025 96.6729 83.967 96.4709 83.7961 96.3011L78.2961 90.801L75.7038 93.3934L78.0743 95.7639H58.52C57.6253 89.5544 52.2848 84.7639 45.8333 84.7639C38.7566 84.7639 33 90.5206 33 97.5972C33 104.674 38.7566 110.431 45.8333 110.431ZM45.8333 88.4306C50.8878 88.4306 55 92.5427 55 97.5972C55 102.652 50.8878 106.764 45.8333 106.764C40.7788 106.764 36.6666 102.652 36.6666 97.5972C36.6666 92.5427 40.7788 88.4306 45.8333 88.4306Z" fill="url(#paint0_linear_4637_10456)"/>
<path d="M97.1667 110.432C104.243 110.432 110 104.675 110 97.5983C110 90.5216 104.243 84.765 97.1667 84.765C90.09 84.765 84.3333 90.5216 84.3333 97.5983C84.3333 104.675 90.09 110.432 97.1667 110.432ZM97.1667 88.4316C102.221 88.4316 106.333 92.5438 106.333 97.5983C106.333 102.653 102.221 106.765 97.1667 106.765C92.1122 106.765 88 102.653 88 97.5983C88 92.5438 92.1122 88.4316 97.1667 88.4316ZM38.5 42.5983C32.0485 42.5983 26.708 47.3888 25.8133 53.5983H22.9167C10.2795 53.5983 0 63.8778 0 76.515C0 89.1521 10.2795 99.4316 22.9167 99.4316H26.741L24.3705 101.802L26.9628 104.394L32.4628 98.8945C32.6337 98.7246 32.7692 98.5226 32.8618 98.3002C32.9543 98.0778 33.0019 97.8392 33.0019 97.5983C33.0019 97.3574 32.9543 97.1189 32.8618 96.8964C32.7692 96.674 32.6337 96.472 32.4628 96.3021L26.9628 90.8021L24.3705 93.3945L26.741 95.765H22.9167C12.3017 95.765 3.66667 87.13 3.66667 76.515C3.66667 65.9 12.3017 57.265 22.9167 57.265H25.8133C26.708 63.4745 32.0485 68.265 38.5 68.265C45.5767 68.265 51.3333 62.5083 51.3333 55.4316C51.3333 48.355 45.5767 42.5983 38.5 42.5983ZM38.5 64.5983C33.4455 64.5983 29.3333 60.4861 29.3333 55.4316C29.3333 50.3771 33.4455 46.265 38.5 46.265C43.5545 46.265 47.6667 50.3771 47.6667 55.4316C47.6667 60.4861 43.5545 64.5983 38.5 64.5983ZM45.2962 6.46881L42.7038 9.06114L45.0743 11.4316H25.52C24.6253 5.22214 19.2867 0.431641 12.8333 0.431641C5.75667 0.431641 0 6.18831 0 13.265C0 20.3416 5.75667 26.0983 12.8333 26.0983C19.2848 26.0983 24.6253 21.3078 25.52 15.0983H45.0743L42.7038 17.4688L45.2962 20.0611L50.7962 14.5611C50.967 14.3913 51.1026 14.1893 51.1951 13.9669C51.2876 13.7444 51.3352 13.5059 51.3352 13.265C51.3352 13.0241 51.2876 12.7855 51.1951 12.5631C51.1026 12.3406 50.967 12.1387 50.7962 11.9688L45.2962 6.46881ZM12.8333 22.4316C7.77883 22.4316 3.66667 18.3195 3.66667 13.265C3.66667 8.21047 7.77883 4.09831 12.8333 4.09831C17.8878 4.09831 22 8.21047 22 13.265C22 18.3195 17.8878 22.4316 12.8333 22.4316Z" fill="url(#paint1_linear_4637_10456)"/>
<path d="M110 34.3483C110 21.7111 99.7205 11.4316 87.0833 11.4316H76.8533C75.9587 5.22214 70.62 0.431641 64.1667 0.431641C57.09 0.431641 51.3333 6.18831 51.3333 13.265C51.3333 20.3416 57.09 26.0983 64.1667 26.0983C70.6182 26.0983 75.9587 21.3078 76.8533 15.0983H87.0833C97.6983 15.0983 106.333 23.7333 106.333 34.3483C106.333 44.9633 97.6983 53.5983 87.0833 53.5983H57.5923L59.9628 51.2278L57.3705 48.6355L51.8705 54.1355C51.6997 54.3053 51.5641 54.5073 51.4716 54.7297C51.3791 54.9522 51.3314 55.1907 51.3314 55.4316C51.3314 55.6726 51.3791 55.9111 51.4716 56.1335C51.5641 56.356 51.6997 56.5579 51.8705 56.7278L57.3705 62.2278L59.9628 59.6355L57.5923 57.265H87.0833C99.7205 57.265 110 46.9855 110 34.3483ZM64.1667 22.4316C59.1122 22.4316 55 18.3195 55 13.265C55 8.21047 59.1122 4.09831 64.1667 4.09831C69.2212 4.09831 73.3333 8.21047 73.3333 13.265C73.3333 18.3195 69.2212 22.4316 64.1667 22.4316Z" fill="url(#paint2_linear_4637_10456)"/>
<defs>
<linearGradient id="paint0_linear_4637_10456" x1="53.1129" y1="59.769" x2="53.1129" y2="85.9352" gradientUnits="userSpaceOnUse">
<stop stop-color="#F4303B"/>
<stop offset="1" stop-color="#2E23F3"/>
</linearGradient>
<linearGradient id="paint1_linear_4637_10456" x1="53.1129" y1="59.769" x2="53.1129" y2="85.9352" gradientUnits="userSpaceOnUse">
<stop stop-color="#F4303B"/>
<stop offset="1" stop-color="#2E23F3"/>
</linearGradient>
<linearGradient id="paint2_linear_4637_10456" x1="53.1129" y1="59.769" x2="53.1129" y2="85.9352" gradientUnits="userSpaceOnUse">
<stop stop-color="#F4303B"/>
<stop offset="1" stop-color="#2E23F3"/>
</linearGradient>
</defs>
</svg>
