<svg width="128" height="111" viewBox="0 0 128 111" fill="none" xmlns="http://www.w3.org/2000/svg">
<path d="M127.5 30.047V11.0086C127.5 5.17645 122.752 0.431641 116.917 0.431641H72.4667C72.049 0.433729 71.6412 0.559021 71.2945 0.791803C70.9478 1.02459 70.6776 1.35449 70.5178 1.74015C70.358 2.1258 70.3156 2.55004 70.3961 2.95964C70.4766 3.36925 70.6763 3.74598 70.9702 4.0426L86.407 19.4701H74.9305C69.2747 14.2282 61.7246 11.0086 53.4167 11.0086C45.1088 11.0086 37.5565 14.2282 31.9029 19.4701H15.3167C11.8157 19.4701 8.96667 22.3174 8.96667 25.8163V93.5086H2.61667C2.05529 93.5086 1.51691 93.7314 1.11996 94.1282C0.723005 94.5249 0.5 95.0629 0.5 95.624V99.8547C0.5 105.687 5.24768 110.432 11.0833 110.432H116.917C122.752 110.432 127.5 105.687 127.5 99.8547V95.624C127.5 95.0629 127.277 94.5249 126.88 94.1282C126.483 93.7314 125.945 93.5086 125.383 93.5086H119.033V40.4103C121.422 39.919 123.568 38.6202 125.11 36.7326C126.652 34.845 127.496 32.4839 127.5 30.047ZM116.917 4.66241C120.418 4.66241 123.267 7.50972 123.267 11.0086V30.047C123.267 33.5459 120.418 36.3932 116.917 36.3932H97.8667C94.3657 36.3932 91.5167 33.5459 91.5167 30.047V19.4701C91.517 19.1923 91.4623 18.9171 91.3559 18.6605C91.2495 18.4038 91.0933 18.1707 90.8965 17.9745L77.5763 4.66241H116.917ZM34.3667 44.8547H38.6C40.2436 44.8545 41.8646 44.4714 43.3343 43.7359C44.8039 43.0004 46.0819 41.9327 47.0667 40.6176C48.0515 41.9327 49.3294 43.0004 50.7991 43.7359C52.2687 44.4714 53.8897 44.8545 55.5333 44.8547H72.4667V55.4316C72.4667 64.7626 64.8699 72.3547 55.5333 72.3547H51.3C41.9634 72.3547 34.3667 64.7626 34.3667 55.4316V44.8547ZM34.4916 40.624C35.5499 31.1195 43.6292 23.7009 53.4167 23.7009C63.2041 23.7009 71.2835 31.1195 72.3418 40.624H55.5333C52.0324 40.624 49.1833 37.7766 49.1833 34.2778C49.1833 33.7168 48.9603 33.1787 48.5634 32.782C48.1664 32.3853 47.628 32.1624 47.0667 32.1624C46.5053 32.1624 45.9669 32.3853 45.57 32.782C45.173 33.1787 44.95 33.7168 44.95 34.2778C44.95 37.7766 42.101 40.624 38.6 40.624H34.4916ZM65.6764 77.7257L53.4167 84.7255L41.1569 77.7236L42.228 74.5145C45.0589 75.8743 48.1591 76.582 51.3 76.5855H55.5333C58.6743 76.582 61.7744 75.8743 64.6054 74.5145L65.6764 77.7257ZM52.3668 88.9986C52.6864 89.1815 53.0483 89.2778 53.4167 89.2778C53.785 89.2778 54.1469 89.1815 54.4665 88.9986L68.7265 80.8543C72.1894 81.3642 79.5617 86.8028 83.4056 92.5651C83.5982 92.8549 83.7781 93.1913 83.9623 93.5064H78.8167C78.2553 93.5064 77.7169 93.7293 77.32 94.126C76.923 94.5227 76.7 95.0608 76.7 95.6218C76.7 96.7874 75.7496 97.7372 74.5833 97.7372H53.4167C52.2504 97.7372 51.3 96.7874 51.3 95.6218C51.3 95.0608 51.077 94.5227 50.68 94.126C50.2831 93.7293 49.7447 93.5064 49.1833 93.5064H22.8711C23.0573 93.1913 23.2351 92.8549 23.4277 92.5651C27.2695 86.8028 34.6439 81.3642 38.1068 80.8543L52.3668 88.9986ZM88.7417 93.5086C88.2145 92.3712 87.6084 91.272 86.9277 90.2191C83.1114 84.497 75.2839 77.9478 69.8251 76.7843L68.3138 72.2532C72.3913 69.1511 75.2072 64.6786 76.2407 59.6624H83.05C86.551 59.6624 89.4 56.8151 89.4 53.3163V46.9701C89.3954 45.6464 88.9761 44.3573 88.2009 43.284C87.4256 42.2106 86.3335 41.4069 85.0778 40.9857C84.7294 34.7234 82.524 28.7064 78.7426 23.7009H87.2833V30.047C87.2833 35.8791 92.031 40.624 97.8667 40.624H114.8V93.5086H88.7417ZM76.7 44.8547H83.05C84.2163 44.8547 85.1667 45.8045 85.1667 46.9701V53.3163C85.1667 54.4818 84.2163 55.4316 83.05 55.4316H76.7V44.8547ZM53.4167 15.2393C67.8756 15.2393 79.7395 26.4488 80.8254 40.624H76.592C75.5189 28.782 65.5409 19.4701 53.4167 19.4701C41.2924 19.4701 31.3144 28.782 30.2413 40.624H26.0079C27.0938 26.4488 38.9577 15.2393 53.4167 15.2393ZM30.1333 55.4316H23.7833C22.6171 55.4316 21.6667 54.4818 21.6667 53.3163V46.9701C21.6667 45.8045 22.6171 44.8547 23.7833 44.8547H30.1333V55.4316ZM13.2 25.8163C13.2 24.6507 14.1504 23.7009 15.3167 23.7009H28.0907C24.3084 28.7059 22.103 34.7232 21.7556 40.9857C20.4999 41.4069 19.4077 42.2106 18.6325 43.284C17.8573 44.3573 17.4379 45.6464 17.4333 46.9701V53.3163C17.4333 56.8151 20.2824 59.6624 23.7833 59.6624H30.5926C31.624 64.6795 34.4403 69.1527 38.5196 72.2532L37.0083 76.7843C31.5515 77.9478 23.7241 84.4949 19.9056 90.2191C19.2516 91.1986 18.6568 92.3218 18.0916 93.5086H13.2V25.8163ZM123.267 97.7393V99.8547C123.267 103.354 120.418 106.201 116.917 106.201H11.0833C7.58237 106.201 4.73333 103.354 4.73333 99.8547V97.7393H47.4286C47.868 98.9758 48.6794 100.046 49.7514 100.804C50.8235 101.561 52.1038 101.969 53.4167 101.97H74.5833C75.8962 101.969 77.1765 101.561 78.2486 100.804C79.3206 100.046 80.132 98.9758 80.5714 97.7393H123.267ZM44.95 53.3163V51.2009C44.95 50.6398 45.173 50.1018 45.57 49.7051C45.9669 49.3084 46.5053 49.0855 47.0667 49.0855C47.628 49.0855 48.1664 49.3084 48.5634 49.7051C48.9603 50.1018 49.1833 50.6398 49.1833 51.2009V53.3163C49.1833 53.8773 48.9603 54.4153 48.5634 54.8121C48.1664 55.2088 47.628 55.4316 47.0667 55.4316C46.5053 55.4316 45.9669 55.2088 45.57 54.8121C45.173 54.4153 44.95 53.8773 44.95 53.3163ZM57.65 53.3163V51.2009C57.65 50.6398 57.873 50.1018 58.27 49.7051C58.6669 49.3084 59.2053 49.0855 59.7667 49.0855C60.328 49.0855 60.8664 49.3084 61.2634 49.7051C61.6603 50.1018 61.8833 50.6398 61.8833 51.2009V53.3163C61.8833 53.8773 61.6603 54.4153 61.2634 54.8121C60.8664 55.2088 60.328 55.4316 59.7667 55.4316C59.2053 55.4316 58.6669 55.2088 58.27 54.8121C57.873 54.4153 57.65 53.8773 57.65 53.3163Z" fill="url(#paint0_linear_4633_24666)"/>
<defs>
<linearGradient id="paint0_linear_4633_24666" x1="61.8213" y1="59.769" x2="61.8213" y2="85.9352" gradientUnits="userSpaceOnUse">
<stop stop-color="#F4303B"/>
<stop offset="1" stop-color="#2E23F3"/>
</linearGradient>
</defs>
</svg>
