<svg width="28" height="28" viewBox="0 0 28 28" fill="none" xmlns="http://www.w3.org/2000/svg">
<path d="M17.726 17.852C17.0265 18.5507 16.1355 19.0263 15.1658 19.2188C14.196 19.4113 13.191 19.3119 12.2777 18.9333C11.3644 18.5547 10.5838 17.9139 10.0346 17.0917C9.48549 16.2696 9.19238 15.3031 9.19238 14.3145C9.19238 13.3258 9.48549 12.3593 10.0346 11.5372C10.5838 10.7151 11.3644 10.0742 12.2777 9.69559C13.191 9.31699 14.196 9.21765 15.1658 9.41012C16.1355 9.6026 17.0265 10.0782 17.726 10.777M26.6875 14.3145C26.6875 21.218 21.0911 26.8145 14.1875 26.8145C7.28394 26.8145 1.6875 21.218 1.6875 14.3145C1.6875 7.41089 7.28394 1.81445 14.1875 1.81445C21.0911 1.81445 26.6875 7.41089 26.6875 14.3145Z" stroke="#C22032" stroke-width="2" stroke-linecap="round" stroke-linejoin="round"/>
</svg>
