<svg width="31" height="31" viewBox="0 0 31 31" fill="none" xmlns="http://www.w3.org/2000/svg">
<path d="M28.6625 0.314453H1.9625C1.52489 0.314453 1.10521 0.488292 0.795774 0.797727C0.486339 1.10716 0.3125 1.52685 0.3125 1.96445V28.6645C0.3125 29.1021 0.486339 29.5217 0.795774 29.8312C1.10521 30.1406 1.52489 30.3145 1.9625 30.3145H16.3325V18.6895H12.4325V14.1895H16.3325V10.8145C16.2517 10.0221 16.3453 9.22164 16.6066 8.46926C16.8679 7.71687 17.2906 7.03077 17.8452 6.45907C18.3997 5.88737 19.0727 5.44391 19.8167 5.15981C20.5608 4.87571 21.358 4.75783 22.1525 4.81445C23.32 4.80639 24.487 4.8665 25.6475 4.99445V9.04445H23.2625C21.3725 9.04445 21.0125 9.94445 21.0125 11.2495V14.1445H25.5125L24.9275 18.6445H21.0125V30.3145H28.6625C28.8792 30.3145 29.0937 30.2718 29.2939 30.1889C29.4941 30.1059 29.676 29.9844 29.8292 29.8312C29.9824 29.678 30.104 29.4961 30.1869 29.2959C30.2698 29.0957 30.3125 28.8811 30.3125 28.6645V1.96445C30.3125 1.74777 30.2698 1.53321 30.1869 1.33303C30.104 1.13284 29.9824 0.950944 29.8292 0.797727C29.676 0.64451 29.4941 0.522972 29.2939 0.440052C29.0937 0.357132 28.8792 0.314453 28.6625 0.314453Z" fill="#1877F2"/>
</svg>
