<svg width="31" height="31" viewBox="0 0 31 31" fill="none" xmlns="http://www.w3.org/2000/svg">
<path d="M23.2812 0.314453H7.34375C3.4605 0.314453 0.3125 3.46245 0.3125 7.3457V23.2832C0.3125 27.1665 3.4605 30.3145 7.34375 30.3145H23.2812C27.1645 30.3145 30.3125 27.1665 30.3125 23.2832V7.3457C30.3125 3.46245 27.1645 0.314453 23.2812 0.314453Z" fill="url(#paint0_radial_5255_4891)"/>
<path d="M23.2812 0.314453H7.34375C3.4605 0.314453 0.3125 3.46245 0.3125 7.3457V23.2832C0.3125 27.1665 3.4605 30.3145 7.34375 30.3145H23.2812C27.1645 30.3145 30.3125 27.1665 30.3125 23.2832V7.3457C30.3125 3.46245 27.1645 0.314453 23.2812 0.314453Z" fill="url(#paint1_radial_5255_4891)"/>
<path d="M15.3136 3.5957C12.131 3.5957 11.7315 3.60965 10.4816 3.66648C9.23398 3.72367 8.38238 3.92113 7.6373 4.21094C6.86645 4.51023 6.21266 4.91066 5.56133 5.56223C4.90941 6.21367 4.50898 6.86746 4.20875 7.63797C3.91813 8.38328 3.72043 9.23523 3.6643 10.4822C3.6084 11.7323 3.59375 12.1319 3.59375 15.3146C3.59375 18.4973 3.60781 18.8955 3.66453 20.1454C3.72195 21.393 3.91941 22.2446 4.20898 22.9896C4.50852 23.7605 4.90895 24.4143 5.56051 25.0656C6.21172 25.7175 6.86551 26.1189 7.63578 26.4182C8.38144 26.708 9.23316 26.9055 10.4805 26.9627C11.7305 27.0195 12.1297 27.0334 15.3121 27.0334C18.4951 27.0334 18.8933 27.0195 20.1432 26.9627C21.3908 26.9055 22.2433 26.708 22.989 26.4182C23.7595 26.1189 24.4123 25.7175 25.0634 25.0656C25.7154 24.4143 26.1157 23.7605 26.416 22.99C26.7041 22.2446 26.9019 21.3927 26.9605 20.1456C27.0166 18.8957 27.0312 18.4973 27.0312 15.3146C27.0312 12.1319 27.0166 11.7325 26.9605 10.4825C26.9019 9.23488 26.7041 8.3834 26.416 7.63832C26.1157 6.86746 25.7154 6.21367 25.0634 5.56223C24.4116 4.91043 23.7597 4.51 22.9883 4.21105C22.2412 3.92113 21.3891 3.72355 20.1416 3.66648C18.8915 3.60965 18.4936 3.5957 15.3099 3.5957H15.3136ZM14.2623 5.70607C14.2623 5.70688 14.2629 5.70754 14.2637 5.70754C14.5754 5.70707 14.9231 5.70754 15.3136 5.70754C18.4426 5.70754 18.8134 5.71879 20.049 5.77492C21.1916 5.82719 21.8117 6.01809 22.2248 6.17852C22.7717 6.39086 23.1616 6.6448 23.5715 7.05508C23.9817 7.46523 24.2355 7.85582 24.4484 8.40273C24.6089 8.81523 24.8 9.43539 24.852 10.578C24.9082 11.8134 24.9204 12.1844 24.9204 15.3119C24.9204 18.4394 24.9082 18.8105 24.852 20.0458C24.7998 21.1884 24.6089 21.8085 24.4484 22.2211C24.2361 22.768 23.9817 23.1575 23.5715 23.5674C23.1614 23.9775 22.772 24.2314 22.2248 24.4438C21.8122 24.605 21.1916 24.7954 20.049 24.8477C18.8136 24.9038 18.4426 24.916 15.3136 24.916C12.1844 24.916 11.8135 24.9038 10.5782 24.8477C9.43566 24.7949 8.81551 24.604 8.40207 24.4436C7.85527 24.2311 7.46457 23.9773 7.05441 23.5671C6.64426 23.157 6.39043 22.7673 6.1775 22.2202C6.01707 21.8076 5.82594 21.1874 5.77391 20.0448C5.71777 18.8095 5.70652 18.4384 5.70652 15.3089C5.70652 12.1795 5.71777 11.8104 5.77391 10.575C5.82617 9.43246 6.01707 8.8123 6.1775 8.39922C6.38996 7.8523 6.64426 7.46172 7.05453 7.05156C7.4648 6.64141 7.85527 6.38746 8.40219 6.17465C8.81527 6.01352 9.43566 5.82309 10.5782 5.77059C11.659 5.72173 12.0781 5.70708 14.2608 5.70461C14.2616 5.70461 14.2623 5.70527 14.2623 5.70607ZM21.569 7.65332C20.7927 7.65332 20.1628 8.28262 20.1628 9.0591C20.1628 9.83547 20.7927 10.4654 21.569 10.4654C22.3454 10.4654 22.9753 9.83547 22.9753 9.0591C22.9753 8.28273 22.3454 7.65332 21.569 7.65332ZM15.3136 9.29641C11.9901 9.29641 9.29551 11.991 9.29551 15.3146C9.29551 18.6381 11.9901 21.3314 15.3136 21.3314C18.6371 21.3314 21.3308 18.6381 21.3308 15.3146C21.3308 11.9911 18.6371 9.29641 15.3136 9.29641ZM15.3136 11.4082C17.4709 11.4082 19.2199 13.157 19.2199 15.3146C19.2199 17.4719 17.4709 19.2209 15.3136 19.2209C13.1562 19.2209 11.4073 17.4719 11.4073 15.3146C11.4073 13.157 13.1561 11.4082 15.3136 11.4082Z" fill="white"/>
<defs>
<radialGradient id="paint0_radial_5255_4891" cx="0" cy="0" r="1" gradientUnits="userSpaceOnUse" gradientTransform="translate(8.28125 32.625) rotate(-90) scale(29.7322 27.6533)">
<stop stop-color="#FFDD55"/>
<stop offset="0.1" stop-color="#FFDD55"/>
<stop offset="0.5" stop-color="#FF543E"/>
<stop offset="1" stop-color="#C837AB"/>
</radialGradient>
<radialGradient id="paint1_radial_5255_4891" cx="0" cy="0" r="1" gradientUnits="userSpaceOnUse" gradientTransform="translate(-4.71262 2.47551) rotate(78.681) scale(13.2905 54.7837)">
<stop stop-color="#3771C8"/>
<stop offset="0.128" stop-color="#3771C8"/>
<stop offset="1" stop-color="#6600FF" stop-opacity="0"/>
</radialGradient>
</defs>
</svg>
