<svg width="31" height="31" viewBox="0 0 31 31" fill="none" xmlns="http://www.w3.org/2000/svg">
<path d="M28.0994 0.314567H2.52561C1.94536 0.308661 1.38647 0.533183 0.971563 0.938864C0.556658 1.34455 0.319634 1.89825 0.3125 2.47848V28.1553C0.320924 28.7347 0.558515 29.2872 0.97328 29.6918C1.38804 30.0964 1.9462 30.3203 2.52561 30.3143H28.0994C28.6797 30.3189 29.2382 30.0937 29.6529 29.6877C30.0676 29.2818 30.3047 28.7282 30.3125 28.148V2.47111C30.3022 1.89258 30.0639 1.34151 29.6495 0.937691C29.235 0.533871 28.678 0.309938 28.0994 0.314567Z" fill="#0076B2"/>
<path d="M4.75348 11.5596H9.20676V25.8881H4.75348V11.5596ZM6.98135 4.42847C7.49212 4.42847 7.99142 4.57996 8.41607 4.86378C8.84073 5.14759 9.17166 5.55098 9.36701 6.02292C9.56236 6.49485 9.61335 7.01412 9.51353 7.51504C9.4137 8.01595 9.16755 8.47601 8.80621 8.837C8.44487 9.19799 7.98457 9.44371 7.48356 9.54305C6.98255 9.6424 6.46332 9.59092 5.99157 9.39512C5.51982 9.19932 5.11674 8.868 4.83333 8.44308C4.54992 8.01816 4.3989 7.51872 4.39939 7.00796C4.40004 6.32361 4.67235 5.66751 5.1565 5.18384C5.64064 4.70016 6.297 4.42847 6.98135 4.42847ZM12.0002 11.5596H16.2691V13.5268H16.3281C16.9232 12.4005 18.374 11.2128 20.5404 11.2128C25.0502 11.203 25.8863 14.171 25.8863 18.0194V25.8881H21.433V18.9169C21.433 17.2571 21.4035 15.1202 19.1191 15.1202C16.8346 15.1202 16.4461 16.93 16.4461 18.8087V25.8881H12.0002V11.5596Z" fill="white"/>
</svg>
