<svg width="32" height="31" viewBox="0 0 32 31" fill="none" xmlns="http://www.w3.org/2000/svg">
<path d="M14.32 11.8389H17.6791V20.2366H14.32V11.8389ZM14.3184 21.9161H17.6774V25.2752H14.3184V21.9161Z" fill="black"/>
<path d="M18.9691 2.09812C18.3846 0.998026 17.2459 0.314453 15.9997 0.314453C14.7535 0.314453 13.6147 0.998026 13.0303 2.0998L0.705793 25.3833C0.432958 25.8948 0.297857 26.4684 0.313758 27.0479C0.329659 27.6274 0.496015 28.1928 0.796488 28.6886C1.09275 29.1868 1.51411 29.599 2.01877 29.8842C2.52344 30.1693 3.09388 30.3177 3.67354 30.3144H28.3258C29.5149 30.3144 30.5915 29.7064 31.2046 28.6886C31.505 28.1928 31.6714 27.6274 31.6873 27.0479C31.7032 26.4684 31.5681 25.8948 31.2953 25.3833L18.9691 2.09812ZM3.67354 26.9553L15.9997 3.67185L28.3342 26.9553H3.67354Z" fill="#C22032"/>
</svg>
