<svg width="31" height="31" viewBox="0 0 31 31" fill="none" xmlns="http://www.w3.org/2000/svg">
<path d="M30.2975 7.13529C30.2835 6.4918 30.232 5.84967 30.143 5.2122C30.0354 4.64527 29.8523 4.09533 29.5985 3.57712C29.0435 2.48083 28.1534 1.59012 27.0575 1.03449C26.5425 0.782062 25.9962 0.599443 25.433 0.491462C24.7907 0.400907 24.1435 0.348313 23.495 0.333954C23.2205 0.323454 22.865 0.318953 22.7 0.318953L7.928 0.314453C7.763 0.314453 7.4075 0.318953 7.133 0.329454C6.48954 0.343405 5.84744 0.394996 5.21 0.483961C4.6431 0.591517 4.09319 0.77466 3.575 1.02849C2.47877 1.58348 1.58811 2.47365 1.0325 3.56962C0.780085 4.08459 0.597476 4.63094 0.4895 5.1942C0.398448 5.83654 0.345356 6.4837 0.3305 7.13229C0.3215 7.40681 0.3155 7.76233 0.3155 7.92733L0.3125 22.7001C0.3125 22.8651 0.317 23.2206 0.3275 23.4951C0.341451 24.1386 0.393039 24.7807 0.482 25.4182C0.58955 25.9851 0.772684 26.5351 1.0265 27.0533C1.58146 28.1496 2.47159 29.0403 3.5675 29.5959C4.08245 29.8483 4.62877 30.031 5.192 30.1389C5.83434 30.2295 6.48147 30.2821 7.13 30.2965C7.4045 30.307 7.76 30.3115 7.925 30.3115L22.697 30.3145C22.862 30.3145 23.2175 30.31 23.492 30.2995C24.1355 30.2855 24.7776 30.2339 25.415 30.1449C25.9819 30.0374 26.5318 29.8542 27.05 29.6004C28.1468 29.0457 29.038 28.1555 29.594 27.0593C29.8464 26.5443 30.029 25.998 30.137 25.4347C30.2281 24.7924 30.2811 24.1452 30.296 23.4966C30.305 23.2221 30.311 22.8666 30.311 22.7016L30.3125 7.93033C30.3125 7.76533 30.308 7.40981 30.2975 7.13529ZM15.638 25.7512H15.6335C13.8478 25.7525 12.0904 25.3048 10.523 24.4492L4.853 25.9357L6.371 20.396C5.19568 18.3563 4.72606 15.9859 5.03495 13.6522C5.34384 11.3185 6.41398 9.15189 8.07946 7.48831C9.74494 5.82473 11.9127 4.75711 14.2467 4.45098C16.5806 4.14485 18.9504 4.61731 20.9885 5.79512C23.0266 6.97292 24.6193 8.79027 25.5195 10.9654C26.4197 13.1405 26.5772 15.5519 25.9676 17.8256C25.358 20.0993 24.0153 22.1085 22.1477 23.5414C20.2801 24.9744 17.9919 25.7511 15.638 25.7512Z" fill="#278D46"/>
<path d="M15.6425 6.16625C14.0541 6.16578 12.4946 6.59088 11.1262 7.39734C9.75776 8.20379 8.63035 9.36216 7.86122 10.752C7.09209 12.1418 6.70932 13.7123 6.75272 15.3001C6.79612 16.888 7.2641 18.4352 8.108 19.7809L8.3195 20.1169L7.421 23.3961L10.7855 22.5141L11.1095 22.7061C12.4786 23.5185 14.0415 23.9466 15.6335 23.9451H15.638C17.9957 23.9455 20.257 23.0093 21.9244 21.3423C23.5919 19.6754 24.5289 17.4143 24.5293 15.0564C24.5296 12.6986 23.5934 10.4372 21.9266 8.76968C20.2597 7.10217 17.9987 6.16514 15.641 6.16475L15.6425 6.16625ZM20.8685 18.8719C20.6722 19.1968 20.4106 19.4775 20.1002 19.6962C19.7899 19.9149 19.4375 20.0669 19.0655 20.1424C18.504 20.2389 17.9277 20.203 17.3825 20.0374C16.8652 19.8771 16.3569 19.6888 15.86 19.4734C14.0146 18.5473 12.4416 17.1572 11.2955 15.4397C10.67 14.6448 10.2905 13.6844 10.2035 12.6766C10.1966 12.2607 10.2762 11.8479 10.4373 11.4644C10.5985 11.0809 10.8376 10.7351 11.1395 10.449C11.2291 10.3474 11.3385 10.2654 11.4611 10.2078C11.5836 10.1503 11.7167 10.1185 11.852 10.1144C12.029 10.1144 12.2075 10.1144 12.3635 10.1234C12.5285 10.1309 12.7475 10.0604 12.9635 10.5825C13.1885 11.1165 13.7225 12.4321 13.7885 12.5656C13.8306 12.6357 13.8547 12.7151 13.8586 12.7967C13.8626 12.8784 13.8462 12.9598 13.811 13.0336C13.744 13.1942 13.6541 13.3443 13.544 13.4791C13.409 13.6351 13.2635 13.8271 13.1435 13.9471C13.0085 14.0806 12.8705 14.2246 13.025 14.4917C13.4269 15.1784 13.9278 15.8021 14.5115 16.3428C15.1461 16.9055 15.8734 17.3541 16.661 17.6688C16.928 17.8038 17.084 17.7798 17.24 17.6013C17.396 17.4228 17.9075 16.8213 18.086 16.5543C18.2645 16.2873 18.4415 16.3323 18.686 16.4208C18.9305 16.5093 20.246 17.1558 20.513 17.2908C20.78 17.4258 20.9585 17.4903 21.0245 17.6013C21.0966 18.031 21.0424 18.4724 20.8685 18.8719Z" fill="#278D46"/>
</svg>
