<svg width="40" height="40" viewBox="0 0 40 40" fill="none" xmlns="http://www.w3.org/2000/svg">
<path d="M12.5115 28.5264C12.6663 28.3773 12.7892 28.2001 12.873 28.0051C12.9569 27.8101 13 27.6011 13 27.3899C13 27.1788 12.9569 26.9697 12.873 26.7747C12.7892 26.5797 12.6663 26.4026 12.5115 26.2534L6.02997 19.9986L12.5115 13.7438C12.8238 13.4424 12.9993 13.0335 12.9993 12.6073C12.9993 12.181 12.8238 11.7722 12.5115 11.4708C12.1991 11.1693 11.7755 11 11.3338 11C10.8921 11 10.4684 11.1693 10.1561 11.4708L2.48852 18.8701C2.33366 19.0193 2.2108 19.1964 2.12698 19.3915C2.04315 19.5865 2 19.7955 2 20.0067C2 20.2178 2.04315 20.4268 2.12698 20.6219C2.2108 20.8169 2.33366 20.994 2.48852 21.1432L10.1561 28.5426C10.7909 29.1551 11.86 29.1551 12.5115 28.5264Z" fill="#1E417C"/>
<path d="M24.5559 28.5264C24.6967 28.3773 24.8084 28.2001 24.8846 28.0051C24.9608 27.8101 25 27.6011 25 27.3899C25 27.1788 24.9608 26.9697 24.8846 26.7747C24.8084 26.5797 24.6967 26.4026 24.5559 26.2534L18.6636 19.9986L24.5559 13.7438C24.8398 13.4423 24.9994 13.0335 24.9994 12.6073C24.9994 12.181 24.8398 11.7722 24.5559 11.4708C24.2719 11.1693 23.8868 11 23.4853 11C23.0837 11 22.6986 11.1693 22.4146 11.4708L15.4441 18.8701C15.3033 19.0193 15.1916 19.1964 15.1154 19.3915C15.0392 19.5865 15 19.7955 15 20.0067C15 20.2178 15.0392 20.4268 15.1154 20.6219C15.1916 20.8169 15.3033 20.994 15.4441 21.1432L22.4146 28.5426C22.9917 29.1551 23.9636 29.1551 24.5559 28.5264Z" fill="#C41230"/>
<path d="M37.5115 28.5264C37.6663 28.3773 37.7892 28.2001 37.873 28.0051C37.9569 27.8101 38 27.6011 38 27.3899C38 27.1788 37.9569 26.9697 37.873 26.7747C37.7892 26.5797 37.6663 26.4026 37.5115 26.2534L31.03 19.9986L37.5115 13.7438C37.8238 13.4424 37.9993 13.0335 37.9993 12.6073C37.9993 12.181 37.8238 11.7722 37.5115 11.4708C37.1991 11.1693 36.7755 11 36.3338 11C35.8921 11 35.4684 11.1693 35.1561 11.4708L27.4885 18.8701C27.3337 19.0193 27.2108 19.1964 27.127 19.3915C27.0431 19.5865 27 19.7955 27 20.0067C27 20.2178 27.0431 20.4268 27.127 20.6219C27.2108 20.8169 27.3337 20.994 27.4885 21.1432L35.1561 28.5426C35.7909 29.1551 36.86 29.1551 37.5115 28.5264Z" fill="#1E417C"/>
</svg>
