<svg width="45" height="30" viewBox="0 0 45 30" fill="none" xmlns="http://www.w3.org/2000/svg">
<path d="M15.7725 19.3757H2.25C1.0125 19.3757 0 20.3882 0 21.6257C0 22.8632 1.0125 23.8757 2.25 23.8757H15.7725V27.9032C15.7725 28.9157 16.9875 29.4107 17.685 28.6907L23.94 22.4132C24.3675 21.9632 24.3675 21.2657 23.94 20.8157L17.685 14.5382C16.9875 13.8182 15.7725 14.3357 15.7725 15.3257V19.3757ZM29.2275 14.4032V10.3757H42.75C43.9875 10.3757 45 9.36318 45 8.12568C45 6.88818 43.9875 5.87568 42.75 5.87568H29.2275V1.84818C29.2275 0.835679 28.0125 0.340679 27.315 1.06068L21.06 7.33818C20.6325 7.78818 20.6325 8.48568 21.06 8.93568L27.315 15.2132C28.0125 15.9107 29.2275 15.4157 29.2275 14.4032Z" fill="#1E417C"/>
</svg>
