<svg width="35" height="36" viewBox="0 0 35 36" fill="none" xmlns="http://www.w3.org/2000/svg">
<path d="M13.488 21.08C11.771 19.55 9.578 18.751 7.3 18.7V23.8L0.5 17L7.3 10.2V15.3C10.139 15.3 12.91 16.269 15.171 18.003C14.4795 18.9517 13.9138 19.986 13.488 21.08ZM27.7 23.8V18.7C26.85 18.7 20.05 18.972 19.285 25.84C21.937 26.775 23.331 29.699 22.396 32.351C21.9434 33.6257 21.0039 34.669 19.7834 35.2521C18.563 35.8353 17.161 35.9107 15.885 35.462C13.25 34.51 11.839 31.603 12.774 28.951C13.25 27.489 14.44 26.35 15.885 25.84C16.1236 22.9019 17.4838 20.1682 19.6835 18.2059C21.8832 16.2435 24.7538 15.203 27.7 15.3V10.2L34.5 17L27.7 23.8ZM19.2 30.6C19.2 30.1491 19.0209 29.7167 18.7021 29.3979C18.3833 29.0791 17.9509 28.9 17.5 28.9C17.0491 28.9 16.6167 29.0791 16.2979 29.3979C15.9791 29.7167 15.8 30.1491 15.8 30.6C15.8 31.0509 15.9791 31.4833 16.2979 31.8021C16.6167 32.1209 17.0491 32.3 17.5 32.3C17.9509 32.3 18.3833 32.1209 18.7021 31.8021C19.0209 31.4833 19.2 31.0509 19.2 30.6ZM15.8 17.204C16.786 16.082 17.925 15.113 19.2 14.331V6.8H24.3L17.5 0L10.7 6.8H15.8V17.204Z" fill="#1E417C"/>
</svg>
