<svg width="19" height="16" viewBox="0 0 19 16" fill="none" xmlns="http://www.w3.org/2000/svg">
<path d="M17.1828 6.65095V0.727398C17.1828 0.325633 16.8559 0 16.4522 0C16.0485 0 15.7213 0.32564 15.7213 0.727398V6.65123C14.6663 6.96447 13.8945 7.938 13.8945 9.09088C13.8945 10.2415 14.6648 11.217 15.7213 11.5305V15.2727C15.7213 15.6742 16.0485 15.9999 16.4522 15.9999C16.8559 15.9999 17.1828 15.6742 17.1828 15.2727V11.5305C18.2381 11.2173 19.0098 10.2435 19.0098 9.09088C19.0098 7.94002 18.2395 6.96448 17.1828 6.65095ZM10.2405 1.19655V0.727398C10.2405 0.325633 9.91331 0 9.50991 0C9.10621 0 8.77901 0.32564 8.77901 0.727398V1.19655C7.72399 1.50978 6.95204 2.4836 6.95204 3.63648C6.95204 4.78705 7.72261 5.76259 8.77901 6.07613V15.2729C8.77901 15.6744 9.10622 16 9.50991 16C9.91333 16 10.2405 15.6744 10.2405 15.2729V6.07613C11.2955 5.7629 12.0675 4.78907 12.0675 3.63648C12.0675 2.48563 11.2969 1.51008 10.2405 1.19655ZM3.29825 9.92344V0.727398C3.29825 0.325633 2.97104 0 2.56735 0C2.16393 0 1.83673 0.32564 1.83673 0.727398V9.92344C0.781718 10.2367 0.00976562 11.2105 0.00976562 12.3634C0.00976562 13.5139 0.78034 14.4895 1.83673 14.803V15.2725C1.83673 15.6739 2.16394 15.9996 2.56735 15.9996C2.97105 15.9996 3.29825 15.6739 3.29825 15.2725V14.803C4.35327 14.4898 5.12522 13.516 5.12522 12.3634C5.12522 11.2125 4.35464 10.237 3.29825 9.92344Z" fill="#1E417C"/>
</svg>
