<svg width="320" height="336" viewBox="0 0 320 336" fill="none" xmlns="http://www.w3.org/2000/svg">
<g style="mix-blend-mode:multiply" opacity="0.33">
<path d="M160 335.507C248.366 335.507 320 260.401 320 167.753C320 75.1058 248.366 0 160 0C71.6344 0 0 75.1058 0 167.753C0 260.401 71.6344 335.507 160 335.507Z" fill="#83C0FC"/>
</g>
<path d="M38.9939 152.933C33.3719 203.035 56.7233 252.588 98.7333 278.151" stroke="white" stroke-width="1.5" stroke-linecap="round" stroke-linejoin="round"/>
<path d="M202.165 47.9382C184.59 41.1384 166.479 38.8594 148.994 40.539" stroke="white" stroke-width="1.5" stroke-linecap="round" stroke-linejoin="round"/>
<path d="M250.179 253.668C260.416 241.866 268.7 227.842 274.286 211.957C294.261 155.186 273.334 93.0701 227.125 61.1504" stroke="white" stroke-width="1.5" stroke-linecap="round" stroke-linejoin="round"/>
<path d="M160.01 267.911C212.768 267.911 255.536 223.071 255.536 167.757C255.536 112.442 212.768 67.6016 160.01 67.6016C107.253 67.6016 64.4844 112.442 64.4844 167.757C64.4844 223.071 107.253 267.911 160.01 267.911Z" fill="url(#paint0_linear_57489_1466)"/>
<mask id="mask0_57489_1466" style="mask-type:luminance" maskUnits="userSpaceOnUse" x="64" y="67" width="192" height="201">
<path d="M160.016 267.911C212.774 267.911 255.542 223.07 255.542 167.756C255.542 112.441 212.774 67.6006 160.016 67.6006C107.259 67.6006 64.4902 112.441 64.4902 167.756C64.4902 223.07 107.259 267.911 160.016 267.911Z" fill="white"/>
</mask>
<g mask="url(#mask0_57489_1466)">
<g style="mix-blend-mode:multiply" opacity="0.58">
<path d="M121.389 105.963C122.395 105.257 124.188 106.531 124.837 105.357C125.266 104.583 124.557 103.54 123.771 103.365C122.979 103.19 122.187 103.534 121.389 103.659C120.591 103.79 119.626 103.59 119.286 102.76C118.655 101.217 121.627 98.4949 119.483 97.4959C118.875 97.2149 118.161 97.421 117.595 97.8081C115.117 99.519 115.278 103.559 114.653 106.787C114.367 108.254 113.682 109.853 112.402 110.178C109.758 110.858 108.394 105.813 105.69 105.638C104.88 105.588 103.945 105.975 103.32 105.382C102.397 104.508 103.272 102.841 104.147 101.898C104.957 101.024 105.773 100.15 106.583 99.2692C110.663 94.8734 115.213 90.2278 120.805 89.7845C123.271 89.5909 125.724 90.2465 128.094 91.052C129.917 91.6702 131.715 92.3758 133.484 93.1688C134.181 93.481 135.015 94.3426 134.526 94.992C134.378 95.1918 134.151 95.3042 133.919 95.3167C132.329 95.3917 130.733 95.4603 129.143 95.5353C130.506 102.341 138.118 96.2596 140.684 94.9109C146.431 91.895 151.678 92.4257 157.729 93.3623C158.354 93.4622 159.182 93.4248 159.379 92.7379C159.653 91.8075 158.456 91.3018 157.914 90.5338C156.818 88.9852 158.938 87.7239 160.081 87.955C161.606 88.2609 162.071 90.0467 162.368 91.5391C162.636 92.8753 163.393 94.4675 164.578 94.2677C165.638 94.0866 166.043 92.6255 166.388 91.4641C169.39 81.4049 181.64 80.0312 189.257 82.9285C189.912 83.1782 190.609 83.5654 191.169 84.0711C192.586 85.3512 194.296 86.1442 196.094 86.3377C201.907 86.9684 212.353 89.4723 213.782 89.6221C217.367 89.9968 220.327 89.1975 223.781 88.5357C227.819 87.7614 232.024 89.516 236.002 90.053C240.343 90.6399 244.673 90.9271 248.991 91.8388C250.212 92.0948 251.456 92.3758 252.677 92.1198C253.463 91.9512 254.202 91.564 254.97 91.333C257.376 90.6087 259.937 91.3018 262.236 92.1884C263.981 92.8628 265.732 93.4997 267.506 94.0617C269.466 94.6798 270.383 94.5362 269.186 96.322C268.852 96.8215 268.769 97.6957 269.001 98.2702C269.228 98.8321 269.591 99.3192 269.793 99.8936C270.168 100.98 269.883 102.323 269.102 103.084C267.679 104.477 263.278 101.836 263.159 105.245C263.123 106.238 263.665 107.137 264.267 107.849C264.868 108.56 265.571 109.197 265.994 110.065C266.798 111.707 266.422 113.755 266.083 115.579C266.059 115.71 266.023 115.841 265.97 115.96C265.618 116.734 264.963 116.509 264.463 116.228C260.533 114.018 258.269 108.523 259.282 103.659C259.8 101.18 258.156 101.217 256.548 101.436C253.779 101.811 253.547 102.56 252.135 104.989C251.486 106.106 250.14 106.412 248.979 106.244C247.812 106.075 246.704 105.538 245.537 105.37C243.702 105.101 241.779 105.801 240.415 107.237C239.105 108.617 238.408 111.177 239.647 112.65C240.713 113.918 242.499 113.656 244.03 113.843C247.055 114.211 249.753 116.902 250.474 120.274C251.194 123.646 249.896 127.461 247.359 129.378C245.983 130.421 244.107 131.258 243.905 133.125C243.702 135.042 245.435 136.371 246.769 137.564C248.103 138.757 249.175 141.248 247.824 142.41C246.489 143.558 244.745 141.81 243.792 140.243C242.845 138.688 241.904 137.133 240.957 135.585C240.701 135.16 240.367 134.692 239.915 134.704C239.14 134.723 238.64 136.134 237.925 135.803C237.503 135.61 237.455 134.96 237.312 134.467C236.252 130.845 230.582 136.109 233.179 138.913C233.804 139.587 234.721 139.787 235.448 140.318C236.532 141.111 237.074 142.547 237.693 143.833C238.706 145.931 240.052 147.823 240.921 150.002C241.791 152.181 242.13 154.841 241.076 156.914C240.183 158.675 238.551 159.568 237.05 160.505C235.21 161.66 233.947 162.977 232.476 164.688C232.041 165.194 231.416 165.737 230.874 165.406C230.582 165.232 230.433 164.857 230.297 164.52C229.111 161.66 225.735 162.416 225.52 165.631C225.401 167.442 226.33 169.122 227.366 170.495C228.403 171.875 229.606 173.155 230.213 174.835C230.892 176.708 230.713 178.956 229.755 180.654C228.843 182.265 226.997 183.377 225.449 182.64C223.233 181.585 222.852 177.589 220.53 176.871C219.654 176.602 218.582 176.846 217.939 176.115C217.2 175.278 217.504 173.63 216.653 172.956C215.092 171.713 214.092 172.956 213.163 170.502C211.983 167.392 210.072 163.727 207.338 162.116C206.582 161.672 205.688 161.454 204.867 161.722C204.176 161.947 203.61 162.497 203.062 163.021C201.15 164.876 199.108 166.618 197.285 168.585C195.814 170.171 194.724 172.05 194.397 174.348C194.057 176.752 195.165 179.231 194.474 181.572C194.135 182.709 193.212 183.72 192.164 183.633C191.348 183.564 190.657 182.865 190.264 182.047C188.06 177.47 186.994 171.794 186.214 166.718C186.071 165.806 186.012 164.02 185.136 163.571C184.273 163.127 182.98 164.108 181.932 163.596C180.872 163.077 180.27 161.835 179.55 160.805C178.049 158.65 175.762 157.245 173.362 157.002C171.2 156.783 168.907 157.439 166.918 156.44C165.489 155.722 164.423 154.267 162.91 153.718C161.237 153.106 159.575 153.074 158.009 152.063C156.83 151.301 155.305 149.197 154.12 151.507C153.56 152.6 153.804 154.023 154.364 155.116C155.293 156.921 157.044 158.132 158.878 158.226C160.451 158.307 162.029 157.626 163.571 157.951C165.626 158.382 167.192 160.798 166.96 163.171C166.793 164.863 165.858 166.318 164.876 167.598C161.832 171.551 157.973 174.691 153.709 176.683C152.899 177.064 152.018 177.408 151.16 177.201C149.707 176.852 148.891 175.128 148.266 173.586C146.348 168.841 144.633 163.92 142.227 159.462C141.268 157.683 138.576 151.507 136.2 152.125C135.193 152.388 135.313 154.067 135.694 155.16C138.654 163.664 142.81 171.626 147.968 178.631C148.373 179.187 148.802 179.743 149.367 180.074C150.63 180.811 152.131 180.199 153.512 179.861C154.894 179.518 156.699 179.712 157.223 181.216C157.461 181.903 157.348 182.678 157.181 183.396C155.942 188.678 152.161 192.562 148.921 196.589C145.687 200.617 142.691 205.806 143.626 211.169C144.091 213.829 145.502 216.439 144.913 219.062C143.906 223.52 137.742 225.15 137.873 229.752C137.909 230.925 138.392 232.087 138.183 233.236C138.04 234.004 137.605 234.653 137.177 235.278C135.956 237.051 134.741 238.83 133.52 240.604C130.048 245.661 125.772 251.194 120.144 251.194C119.489 251.194 118.786 251.094 118.292 250.607C117.875 250.195 117.672 249.57 117.482 248.977C115.296 242.021 113.11 235.072 110.925 228.116C110.341 226.249 109.746 224.338 109.775 222.352C109.817 219.867 110.83 217.551 111.294 215.122C112.17 210.539 110.925 205.493 108.09 202.103C107.25 201.098 106.232 200.142 105.94 198.793C105.446 196.477 107.286 193.867 106.244 191.8C105.869 191.057 105.196 190.589 104.552 190.152C102.373 188.672 100.092 187.155 97.5667 186.936C93.3681 186.574 89.6638 189.671 85.5187 189.633C80.7246 189.596 79.5692 184.875 76.8535 181.366C75.6148 179.768 73.9056 178.469 73.4113 176.415C72.8872 174.229 73.977 172.394 74.376 170.345C74.8346 167.973 74.4356 165.619 74.6083 163.227C74.8942 159.125 77.1632 156.421 79.4918 153.568C81.8978 150.62 84.3157 147.661 87.1267 145.226C92.4331 140.624 98.6089 139.506 105.142 139.618C108.429 139.675 107.185 141.897 108.507 144.214C109.4 145.775 111.104 146.73 112.521 147.511C114.284 148.485 116.356 149.465 118.119 148.497C118.762 148.148 119.286 147.567 119.924 147.205C121.901 146.087 124.206 147.349 126.332 148.042C128.767 148.835 131.4 148.853 133.842 148.085C135.128 147.68 136.408 147.03 137.26 145.862C138.118 144.695 138.439 142.922 137.742 141.623C136.867 139.974 134.878 139.731 133.186 139.812C131.501 139.893 129.607 140.055 128.333 138.788C127.273 137.733 126.981 136.003 126.195 134.679C125.409 133.349 123.443 132.6 122.717 133.974C122.133 135.085 122.86 136.796 122.038 137.689C120.495 139.369 118.875 135.797 118.405 134.586C116.904 130.721 114.087 127.536 110.609 126.025C110.317 125.9 109.984 125.919 109.722 126.1C109.007 126.593 109.448 127.761 110.02 128.373C110.568 128.96 111.27 129.628 111.121 130.465C110.853 131.982 109.204 131.364 108.501 130.739C107.947 130.252 107.489 129.622 106.911 129.166C105.428 127.986 103.361 128.148 101.747 129.078C98.0312 131.214 96.4947 136.297 92.7844 138.407C88.9015 140.617 82.8388 136.172 85.8642 131.145C86.7098 129.74 88.2344 128.916 89.7233 129.066C90.4618 129.141 91.1765 129.434 91.9149 129.484C92.6534 129.534 93.4931 129.259 93.8445 128.516C94.4282 127.274 93.3443 125.906 92.9929 124.551C92.6594 123.271 93.0346 121.86 93.6956 120.761C96.9414 115.404 105.142 111.545 110.71 112.738C113.134 113.256 116.058 113.593 117.672 111.464C118.292 110.646 118.673 109.509 119.536 109.066C119.858 108.904 120.221 108.854 120.537 108.679C121.353 108.248 121.71 106.962 121.269 106.069C121.317 106.025 121.365 105.988 121.412 105.95L121.389 105.963Z" fill="url(#paint1_linear_57489_1466)"/>
<path d="M252.338 246.898C251.201 246.117 249.73 246.042 248.312 246.348C243.226 247.46 238.456 249.845 233.376 250.95C232.84 251.069 232.25 251.162 231.78 250.85C230.815 250.213 231.679 248.708 231.881 247.909C232.548 245.337 231.863 243.064 231.923 240.491C232.036 235.54 232.512 231.687 236.878 229.833C238.551 229.121 240.296 228.721 241.934 227.822C243.048 227.21 244.108 226.217 244.412 224.85C244.453 224.656 244.483 224.444 244.596 224.288C244.965 223.776 245.936 223.844 246.407 223.332C247.306 222.352 247.866 220.866 248.842 219.855C249.176 219.511 249.563 219.168 250.01 219.149C250.546 219.13 251.004 219.574 251.35 220.036C253.357 222.683 254.036 219.892 255.501 218.1C256.912 216.377 259.36 216.058 261.319 216.239C261.563 216.264 261.825 216.302 262.01 216.489C262.409 216.889 262.212 217.625 262.028 218.194C260.646 222.49 266.834 226.592 268.454 221.909C268.96 220.441 269.151 218.905 269.794 217.488C271.217 214.366 273.48 224.431 273.462 225.761C273.462 226.036 273.45 226.323 273.558 226.567C273.724 226.96 274.129 227.135 274.451 227.366C275.642 228.222 276.053 230.257 276.607 231.65C277.363 233.548 279.108 233.104 279.269 235.652C279.358 237.026 279.305 238.412 279.257 239.792C279.239 240.21 279.227 240.629 279.114 241.028C278.882 241.871 278.245 242.545 278.167 243.426C278.137 243.776 278.197 244.131 278.114 244.469C278.042 244.756 277.869 244.993 277.703 245.224C275.594 248.115 273.331 250.825 271.027 253.51C269.669 255.09 267.93 256.083 266.185 256.988C264.249 258 262.594 257.506 260.503 257.225C259.806 257.132 259.008 256.963 258.657 256.27C258.21 255.377 258.812 254.44 258.621 253.548C258.443 252.723 257.692 252.255 257.567 251.431C257.472 250.831 257.805 250.107 257.448 249.657C257.109 249.233 256.495 249.489 256.09 249.826C255.685 250.163 255.227 250.588 254.744 250.425C254.256 250.257 254.083 249.595 253.887 249.058C253.529 248.059 252.976 247.36 252.308 246.904L252.338 246.898Z" fill="url(#paint2_linear_57489_1466)"/>
<path d="M44.1356 82.0273C44.1058 82.0086 44.0701 81.9961 44.0403 81.9836C42.879 81.4591 43.0279 79.5422 44.2547 79.2924C44.8621 79.1675 45.3445 79.0489 45.5828 78.9178C47.0002 78.131 46.2557 76.9446 44.9217 77.2131C41.676 77.8688 38.5076 78.8678 35.2738 79.5796C33.237 80.023 31.5576 81.584 29.6935 82.5206C29.2945 82.7204 28.8717 82.8952 28.4369 82.9015C27.621 82.9015 26.9123 82.3083 26.1441 82.0023C25.352 81.6839 24.4884 81.6714 23.6904 81.3842C22.8924 81.0969 22.1003 80.3914 22.0586 79.436C23.0174 78.1747 24.5242 77.644 25.9773 77.4379C27.6567 77.2006 29.3005 77.2943 30.9323 76.7011C32.6177 76.0892 34.1661 75.0527 35.8991 74.5719C37.7275 74.0661 39.6392 74.2035 41.5211 74.3471C44.2606 74.5532 47.0002 74.7655 49.7456 74.9715C50.1804 75.0027 50.6092 75.0402 51.0439 75.0714C53.1224 75.2275 56.2609 75.7895 58.2501 74.7779C58.5121 74.6406 58.7563 74.4345 59.0362 74.3658C59.3578 74.2847 59.6913 74.3846 60.0069 74.497C62.9966 75.521 65.6349 75.6896 68.7436 75.6708C71.2449 75.6584 73.7522 75.6396 76.2535 75.6271C76.8669 75.6271 77.4863 75.6209 78.0759 75.4211C78.5464 75.265 78.9811 74.9902 79.4635 74.9091C80.3747 74.753 83.1261 75.8207 83.2691 76.9946C83.2988 77.2381 83.275 77.5066 83.1499 77.7002C83.0427 77.8625 82.876 77.9624 82.7092 78.0498C82.0184 78.4307 81.3097 78.8054 80.7142 79.3611C80.1186 79.9168 79.6362 80.6786 79.5409 81.5528C79.4814 82.096 79.5707 82.6892 79.3325 83.17C79.1538 83.5321 78.8144 83.7507 78.4689 83.888C77.6471 84.2252 76.7478 84.2002 75.8902 84.3813C74.4132 84.6873 73.3532 85.8861 73.5497 87.6907C73.6212 88.365 73.8892 89.0394 73.7403 89.7013C73.6093 90.2757 73.1805 90.7128 72.704 90.9438C70.697 91.9179 68.2374 91.4246 66.1351 91.9804C63.3599 92.7172 61.0253 94.8963 58.2858 95.7768C56.8744 96.2326 55.5641 96.5011 54.5994 97.8435C53.5452 99.3047 53.2772 101.346 51.8956 102.527C50.9903 103.301 49.7218 103.494 48.6677 103.014C46.2736 101.927 45.41 97.394 44.9813 94.8464C44.9098 94.4218 44.8502 93.9597 45.0289 93.5788C45.3803 92.842 46.6011 93.4165 47.2026 93.198C48.09 92.8733 48.7987 91.9367 49.0429 90.9251C49.3883 89.464 48.9595 87.8842 48.2568 86.598C47.3337 84.8996 46.0354 83.2449 44.4512 82.2021C44.35 82.1335 44.2428 82.0773 44.1356 82.0211V82.0273Z" fill="url(#paint3_linear_57489_1466)"/>
<path d="M231.739 195.727C231.876 195.727 232.007 195.615 232.126 195.272C232.221 194.984 232.203 194.666 232.269 194.366C232.394 193.767 232.864 193.561 233.102 193.067C233.364 192.537 233.275 191.962 233.615 191.456C233.942 190.969 234.478 190.645 234.972 190.432C235.764 190.089 236.652 189.858 237.23 189.146C237.623 188.665 237.837 187.991 238.296 187.591C239.564 186.492 240.839 188.166 241.053 189.521C241.232 190.67 240.493 191.531 240.291 192.587C240.052 193.829 241.44 195.053 241.023 196.077C240.827 196.552 240.362 196.751 240.195 197.263C239.999 197.869 240.219 198.437 239.832 199.024C239.469 199.574 238.974 199.873 238.677 200.492C238.403 201.06 238.373 201.809 237.837 202.171C237.575 202.346 237.259 202.365 236.95 202.377C235.61 202.421 234.24 202.408 232.936 202.021C231.292 201.541 230.792 200.829 230.148 199.118C229.857 198.35 229.219 194.947 230.827 195.153C231.125 195.19 231.453 195.715 231.745 195.721L231.739 195.727Z" fill="url(#paint4_linear_57489_1466)"/>
<path d="M147.327 223.212C147.506 222.55 148.095 222.157 148.673 221.944C150.454 221.282 151.776 220.421 152.913 218.641C153.086 218.366 153.259 218.079 153.509 217.898C154.426 217.255 154.563 218.766 154.593 219.44C154.629 220.346 154.468 221.245 154.361 222.132C154.11 224.18 153.396 226.072 152.806 228.02C152.258 229.824 151.752 231.635 151.21 233.44C150.799 234.82 150.543 236.331 149.185 236.88C148.232 237.267 147.095 236.936 146.41 236.081C145.874 235.419 145.63 234.507 145.552 233.614C145.487 232.89 145.523 232.141 145.761 231.467C146.053 230.661 146.613 230.024 147.006 229.275C147.768 227.832 147.726 226.246 147.411 224.66C147.315 224.18 147.202 223.674 147.327 223.206V223.212Z" fill="url(#paint5_linear_57489_1466)"/>
<path d="M225.321 203.742V204.891C225.321 205.727 224.785 206.458 224.053 206.558C223.88 206.583 223.707 206.583 223.523 206.558C223.13 206.52 222.76 206.302 222.51 205.946C220.42 202.999 219.05 199.508 216.96 196.567C216.936 196.53 216.912 196.499 216.888 196.461C216.001 195.125 217.216 193.32 218.598 193.895C218.782 193.97 218.967 194.02 219.157 194.013C219.658 193.995 220.128 194.269 220.414 194.738C222.093 197.504 223.737 200.083 225.137 202.924C225.262 203.174 225.321 203.455 225.321 203.742Z" fill="url(#paint6_linear_57489_1466)"/>
</g>
</g>
<path opacity="0.31" d="M148.987 230.881C188.318 230.881 220.203 197.452 220.203 156.215C220.203 114.977 188.318 81.5479 148.987 81.5479C109.656 81.5479 77.7715 114.977 77.7715 156.215C77.7715 197.452 109.656 230.881 148.987 230.881Z" fill="white"/>
<path opacity="0.31" d="M142.549 204.281C171.424 204.281 194.832 179.739 194.832 149.464C194.832 119.19 171.424 94.6475 142.549 94.6475C113.674 94.6475 90.2656 119.19 90.2656 149.464C90.2656 179.739 113.674 204.281 142.549 204.281Z" fill="white"/>
<path d="M160.938 207.674C172.158 207.674 176.166 226.044 176.166 236.01C176.166 245.982 172.164 264.345 160.938 264.345C149.712 264.345 18.834 264.345 18.834 264.345V207.668C18.834 207.668 149.718 207.668 160.938 207.668V207.674Z" fill="url(#paint7_linear_57489_1466)"/>
<path style="mix-blend-mode:multiply" opacity="0.43" d="M167.644 236.01C167.644 226.039 163.642 207.675 152.416 207.675C156.632 207.675 159.604 207.675 160.926 207.675C172.147 207.675 176.155 226.045 176.155 236.01C176.155 245.982 172.152 264.346 160.926 264.346H152.416C163.636 264.346 167.644 245.976 167.644 236.01Z" fill="url(#paint8_linear_57489_1466)"/>
<path d="M13.3223 207.677C13.3223 207.677 149.709 207.677 160.929 207.677C172.149 207.677 176.157 226.047 176.157 236.012C176.157 245.984 172.155 264.348 160.929 264.348C149.703 264.348 13.3223 264.348 13.3223 264.348" stroke="url(#paint9_linear_57489_1466)" stroke-width="9.06" stroke-miterlimit="10"/>
<path style="mix-blend-mode:multiply" opacity="0.43" d="M150.954 218.958H31.582" stroke="url(#paint10_linear_57489_1466)" stroke-width="1.51" stroke-linecap="round" stroke-linejoin="round"/>
<path style="mix-blend-mode:multiply" opacity="0.43" d="M150.954 225.778H31.582" stroke="url(#paint11_linear_57489_1466)" stroke-width="1.51" stroke-linecap="round" stroke-linejoin="round"/>
<path style="mix-blend-mode:multiply" opacity="0.43" d="M150.954 232.605H31.582" stroke="url(#paint12_linear_57489_1466)" stroke-width="1.51" stroke-linecap="round" stroke-linejoin="round"/>
<path style="mix-blend-mode:multiply" opacity="0.43" d="M150.954 239.418H31.582" stroke="url(#paint13_linear_57489_1466)" stroke-width="1.51" stroke-linecap="round" stroke-linejoin="round"/>
<path style="mix-blend-mode:multiply" opacity="0.43" d="M150.954 246.247H31.582" stroke="url(#paint14_linear_57489_1466)" stroke-width="1.51" stroke-linecap="round" stroke-linejoin="round"/>
<path style="mix-blend-mode:multiply" opacity="0.43" d="M150.954 253.064H31.582" stroke="url(#paint15_linear_57489_1466)" stroke-width="1.51" stroke-linecap="round" stroke-linejoin="round"/>
<path d="M66.2224 256.608H79.3066V232.6H66.2224V256.608Z" fill="#C22032"/>
<path d="M114.05 47.5182L45.3281 119.57L67.4788 142.794L136.201 70.7423L114.05 47.5182Z" fill="url(#paint16_linear_57489_1466)"/>
<path style="mix-blend-mode:multiply" opacity="0.16" d="M114.062 47.5243L99.8242 62.4521L121.975 85.6762L136.213 70.7484L114.062 47.5243Z" fill="url(#paint17_linear_57489_1466)"/>
<path d="M126.431 34.1459L58.0795 60.883L32.5782 132.54L27.8555 137.492L30.0114 139.752L105.241 110.33L133.309 31.4547L131.153 29.1943L126.431 34.1459Z" fill="url(#paint18_linear_57489_1466)"/>
<path style="mix-blend-mode:multiply" opacity="0.25" d="M126.431 34.1459L58.0795 60.883L32.5782 132.54L27.8555 137.492L30.0114 139.752L105.241 110.33L133.309 31.4547L131.153 29.1943L126.431 34.1459Z" fill="url(#paint19_linear_57489_1466)"/>
<path d="M55.9237 58.6227L27.8555 137.492L103.085 108.063L131.153 29.1943L55.9237 58.6227Z" fill="url(#paint20_linear_57489_1466)"/>
<path style="mix-blend-mode:screen" opacity="0.19" d="M31.3281 127.724C43.4892 125.395 55.1203 119.307 64.524 109.447C80.2762 92.9316 85.9518 69.8472 81.5388 48.5986L55.9183 58.6204L31.3281 127.724Z" fill="#1E417C"/>
<path d="M77.7503 81.5166C77.7503 81.5166 58.4665 99.3497 54.1309 144.476" stroke="white" stroke-width="1.5" stroke-linecap="round" stroke-linejoin="round"/>
<path d="M51.5466 154.516C51.5466 154.516 51.618 157.975 52.5471 162.309C53.1903 162.24 53.893 162.196 54.6494 162.196C57.7998 162.196 60.8788 163.233 60.8788 163.233C54.8042 155.378 54.5481 142.796 54.5481 142.796C54.5481 142.796 48.4199 149.452 48.4199 163.233C48.4199 163.233 49.3252 162.852 50.8736 162.552C50.2542 156.939 51.5466 154.51 51.5466 154.51V154.516Z" fill="white"/>
<path d="M248.106 10.8018L245.86 9.35938L216.643 24.8634C214.689 23.421 208.019 19.019 207.328 18.5194C204.684 16.6087 198.657 16.7461 197.198 19.2437C195.739 21.7414 198.36 27.4297 201.188 29.0282C201.927 29.4466 208.698 33.6738 210.812 34.8414L210.926 69.1713L213.171 70.6137L221.896 41.2354C226.237 43.4832 237.737 49.4651 241.447 51.0948L241.96 59.9051L242.74 60.4047L245.706 52.8244C248.35 53.7797 250.142 54.1106 250.524 53.4675C250.905 52.8244 249.797 51.3008 247.79 49.2652L252.882 43.0524L252.102 42.5529L244.383 46.0808C241.316 43.3584 231.002 35.341 227.119 32.3063L248.106 10.8018Z" fill="#1E417C"/>
<path opacity="0.31" d="M192.054 147.706C179.958 159.532 179.297 179.47 190.577 192.145C201.857 204.827 220.872 205.52 232.962 193.694C245.058 181.867 245.719 161.93 234.439 149.254C223.159 136.573 204.143 135.88 192.054 147.706Z" fill="white"/>
<path d="M194.496 188.052C184.091 176.356 183.853 158.492 193.37 146.51C192.923 146.897 192.483 147.297 192.054 147.721C179.958 159.547 179.297 179.485 190.577 192.16C201.857 204.842 220.872 205.535 232.962 193.709C233.903 192.791 234.761 191.817 235.565 190.811C223.445 201.358 205.37 200.284 194.496 188.058V188.052Z" fill="url(#paint21_linear_57489_1466)"/>
<path d="M236.729 194.068L233.08 197.638L244.309 210.258L247.958 206.689L236.729 194.068Z" fill="white"/>
<path d="M247.553 203.148L240.969 209.588L244.71 213.793L251.295 207.353L247.553 203.148Z" fill="#C22032"/>
<g style="mix-blend-mode:multiply" opacity="0.36">
<path d="M247.553 203.148L240.969 209.588L244.71 213.793L251.295 207.353L247.553 203.148Z" fill="#C22032"/>
</g>
<path d="M243.764 212.733L250.348 206.293L277.042 236.296C278.736 238.2 278.637 241.192 276.821 242.968C275.005 244.744 272.152 244.64 270.458 242.736L243.764 212.733Z" fill="#C22032"/>
<g style="mix-blend-mode:screen" opacity="0.45">
<path d="M230.268 153.337C227.416 150.134 223.961 147.873 220.263 146.568L218.846 152.8C222.58 153.68 226.105 155.703 228.916 158.857C235.122 165.831 235.831 176.109 231.245 183.839L233.228 183.977C238.785 174.467 237.879 161.879 230.268 153.324V153.337Z" fill="white"/>
</g>
<path d="M238.876 200.338C223.291 215.58 198.784 214.687 184.253 198.346C169.715 182.005 170.567 156.311 186.152 141.075C201.738 125.834 226.245 126.726 240.776 143.067C255.313 159.408 254.462 185.102 238.876 200.338ZM192.06 147.707C179.965 159.533 179.304 179.47 190.583 192.146C201.863 204.827 220.879 205.52 232.968 193.694C245.064 181.868 245.725 161.931 234.445 149.255C223.166 136.573 204.15 135.88 192.06 147.707Z" fill="#C22032"/>
<g style="mix-blend-mode:multiply" opacity="0.36">
<path d="M236.355 147.391C224.093 133.61 203.427 132.854 190.284 145.711C177.14 158.568 176.419 180.234 188.682 194.015C200.944 207.796 221.61 208.551 234.753 195.695C247.897 182.838 248.618 161.171 236.355 147.391ZM232.973 193.697C220.877 205.523 201.867 204.83 190.587 192.148C179.308 179.466 179.969 159.535 192.064 147.709C204.16 135.883 223.17 136.576 234.45 149.258C245.729 161.939 245.068 181.87 232.973 193.697Z" fill="#C22032"/>
</g>
<defs>
<linearGradient id="paint0_linear_57489_1466" x1="226.658" y1="237.64" x2="83.0928" y2="100.71" gradientUnits="userSpaceOnUse">
<stop stop-color="#C4C8E6"/>
<stop offset="1" stop-color="white"/>
</linearGradient>
<linearGradient id="paint1_linear_57489_1466" x1="73.2564" y1="166.399" x2="269.96" y2="166.399" gradientUnits="userSpaceOnUse">
<stop stop-color="#C4C8E6"/>
<stop offset="1" stop-color="#C4C8E6"/>
</linearGradient>
<linearGradient id="paint2_linear_57489_1466" x1="231.339" y1="236.895" x2="279.334" y2="236.895" gradientUnits="userSpaceOnUse">
<stop stop-color="#C4C8E6"/>
<stop offset="1" stop-color="#C4C8E6"/>
</linearGradient>
<linearGradient id="paint3_linear_57489_1466" x1="22.0645" y1="88.7522" x2="83.281" y2="88.7522" gradientUnits="userSpaceOnUse">
<stop stop-color="#C4C8E6"/>
<stop offset="1" stop-color="#C4C8E6"/>
</linearGradient>
<linearGradient id="paint4_linear_57489_1466" x1="229.773" y1="194.816" x2="241.101" y2="194.816" gradientUnits="userSpaceOnUse">
<stop stop-color="#C4C8E6"/>
<stop offset="1" stop-color="#C4C8E6"/>
</linearGradient>
<linearGradient id="paint5_linear_57489_1466" x1="145.523" y1="227.395" x2="154.599" y2="227.395" gradientUnits="userSpaceOnUse">
<stop stop-color="#C4C8E6"/>
<stop offset="1" stop-color="#C4C8E6"/>
</linearGradient>
<linearGradient id="paint6_linear_57489_1466" x1="216.585" y1="200.176" x2="225.321" y2="200.176" gradientUnits="userSpaceOnUse">
<stop stop-color="#C4C8E6"/>
<stop offset="1" stop-color="#C4C8E6"/>
</linearGradient>
<linearGradient id="paint7_linear_57489_1466" x1="97.4999" y1="264.345" x2="97.4999" y2="207.674" gradientUnits="userSpaceOnUse">
<stop stop-color="white"/>
<stop offset="1" stop-color="#C4C8E6"/>
</linearGradient>
<linearGradient id="paint8_linear_57489_1466" x1="164.291" y1="264.346" x2="164.291" y2="207.675" gradientUnits="userSpaceOnUse">
<stop stop-color="#C4C8E6"/>
<stop offset="1" stop-color="#C4C8E6"/>
</linearGradient>
<linearGradient id="paint9_linear_57489_1466" x1="96.0916" y1="267.177" x2="96.0916" y2="204.848" gradientUnits="userSpaceOnUse">
<stop stop-color="#1E417C"/>
<stop offset="1" stop-color="#1E417C"/>
</linearGradient>
<linearGradient id="paint10_linear_57489_1466" x1="-nan" y1="-nan" x2="-nan" y2="-nan" gradientUnits="userSpaceOnUse">
<stop stop-color="#C4C8E6"/>
<stop offset="1" stop-color="#C4C8E6"/>
</linearGradient>
<linearGradient id="paint11_linear_57489_1466" x1="-nan" y1="-nan" x2="-nan" y2="-nan" gradientUnits="userSpaceOnUse">
<stop stop-color="#C4C8E6"/>
<stop offset="1" stop-color="#C4C8E6"/>
</linearGradient>
<linearGradient id="paint12_linear_57489_1466" x1="-nan" y1="-nan" x2="-nan" y2="-nan" gradientUnits="userSpaceOnUse">
<stop stop-color="#C4C8E6"/>
<stop offset="1" stop-color="#C4C8E6"/>
</linearGradient>
<linearGradient id="paint13_linear_57489_1466" x1="-nan" y1="-nan" x2="-nan" y2="-nan" gradientUnits="userSpaceOnUse">
<stop stop-color="#C4C8E6"/>
<stop offset="1" stop-color="#C4C8E6"/>
</linearGradient>
<linearGradient id="paint14_linear_57489_1466" x1="-nan" y1="-nan" x2="-nan" y2="-nan" gradientUnits="userSpaceOnUse">
<stop stop-color="#C4C8E6"/>
<stop offset="1" stop-color="#C4C8E6"/>
</linearGradient>
<linearGradient id="paint15_linear_57489_1466" x1="-nan" y1="-nan" x2="-nan" y2="-nan" gradientUnits="userSpaceOnUse">
<stop stop-color="#C4C8E6"/>
<stop offset="1" stop-color="#C4C8E6"/>
</linearGradient>
<linearGradient id="paint16_linear_57489_1466" x1="56.4035" y1="131.182" x2="128.375" y2="62.5373" gradientUnits="userSpaceOnUse">
<stop stop-color="#1E417C"/>
<stop offset="1" stop-color="#1E417C"/>
</linearGradient>
<linearGradient id="paint17_linear_57489_1466" x1="88.8078" y1="50.9019" x2="-87.4979" y2="219.059" gradientUnits="userSpaceOnUse">
<stop stop-color="#1E417C"/>
<stop offset="1" stop-color="#1E417C"/>
</linearGradient>
<linearGradient id="paint18_linear_57489_1466" x1="30.0119" y1="139.755" x2="138.192" y2="36.5751" gradientUnits="userSpaceOnUse">
<stop stop-color="#1E417C"/>
<stop offset="1" stop-color="#1E417C"/>
</linearGradient>
<linearGradient id="paint19_linear_57489_1466" x1="30.0119" y1="139.755" x2="138.192" y2="36.5751" gradientUnits="userSpaceOnUse">
<stop stop-color="#1E417C"/>
<stop offset="1" stop-color="#1E417C"/>
</linearGradient>
<linearGradient id="paint20_linear_57489_1466" x1="27.8558" y1="137.494" x2="136.036" y2="34.3145" gradientUnits="userSpaceOnUse">
<stop stop-color="#1E417C"/>
<stop offset="1" stop-color="#1E417C"/>
</linearGradient>
<linearGradient id="paint21_linear_57489_1466" x1="182.531" y1="174.327" x2="235.57" y2="174.327" gradientUnits="userSpaceOnUse">
<stop stop-color="#C4C8E6"/>
<stop offset="1" stop-color="#C4C8E6"/>
</linearGradient>
</defs>
</svg>
