<svg width="20" height="16" viewBox="0 0 20 16" fill="none" xmlns="http://www.w3.org/2000/svg">
<path fill-rule="evenodd" clip-rule="evenodd" d="M16.9905 7.70758C17.7007 6.9861 18.0953 6.01201 18.0874 4.99959C18.0795 3.98717 17.6697 3.01937 16.9483 2.30908C16.591 1.95738 16.168 1.67948 15.7034 1.49127C15.2387 1.30305 14.7416 1.20819 14.2403 1.21211C13.2279 1.22002 12.2601 1.62979 11.5498 2.35127C11.3569 2.54414 11.1118 2.78089 10.8144 3.06149L9.98767 3.84003L9.16092 3.06149C8.8629 2.78022 8.61745 2.54347 8.42458 2.35127C7.70869 1.63539 6.73774 1.23321 5.72533 1.23321C4.71291 1.23321 3.74196 1.63539 3.02608 2.35127C1.55138 3.82697 1.53431 6.21279 2.97183 7.69552L9.98767 14.7114L16.9905 7.70758ZM2.17321 1.4994C2.63963 1.03285 3.1934 0.662758 3.80288 0.410256C4.41236 0.157754 5.06561 0.0277918 5.72533 0.0277918C6.38504 0.0277918 7.03829 0.157754 7.64777 0.410256C8.25725 0.662758 8.81102 1.03285 9.27745 1.4994C9.46028 1.6829 9.69702 1.91127 9.98767 2.18451C10.277 1.91127 10.5137 1.68257 10.6979 1.4984C11.6326 0.549257 12.9062 0.0103198 14.2383 0.000146664C15.5704 -0.0100265 16.852 0.509398 17.8011 1.44415C18.7503 2.37891 19.2892 3.65242 19.2994 4.98454C19.3096 6.31665 18.7901 7.59825 17.8554 8.54739L10.6979 15.7059C10.5095 15.8942 10.254 16 9.98767 16C9.7213 16 9.46583 15.8942 9.27745 15.7059L2.11796 8.54639C1.19983 7.59949 0.690989 6.32946 0.701326 5.01057C0.711664 3.69168 1.24035 2.42978 2.17321 1.49739V1.4994Z" fill="#2D23F4"/>
</svg>
