<svg width="110" height="111" viewBox="0 0 110 111" fill="none" xmlns="http://www.w3.org/2000/svg">
<path d="M89.8195 70.3246C87.0501 70.3256 84.3108 70.8997 81.7736 72.0108C79.2364 73.1219 76.9561 74.746 75.076 76.7812C72.9949 75.9138 70.8012 75.347 68.5608 75.0977V70.7688C71.486 69.4202 73.928 67.2067 75.5579 64.4265C77.1878 61.6463 77.9273 58.433 77.6769 55.2193C79.1527 54.8513 80.4914 54.066 81.5334 52.9571C82.5753 51.8483 83.2764 50.4627 83.553 48.9659C83.8295 47.4691 83.6699 45.9242 83.093 44.5157C82.5162 43.1073 81.5465 41.8947 80.2998 41.0228C81.648 31.717 80.6117 22.424 69.7714 20.3642C63.4622 19.7359 57.1039 19.7864 50.8054 20.5147C47.4488 -6.97322 6.09609 -5.34851 5.40826 22.5929C5.5073 25.4421 6.29969 28.5263 4.18482 30.8725C-2.40556 38.3847 -1.04273 51.6174 7.08107 57.5692C4.33665 61.6661 2.88482 66.4936 2.9137 71.4261V79.6322C2.91371 80.0262 3.04033 80.4097 3.27484 80.726C3.50936 81.0424 3.83933 81.2749 4.21601 81.3891C15.0775 84.6331 26.4741 85.6877 37.7457 84.4917C34.6367 88.619 32.9561 93.6478 32.9584 98.8167V105.205C32.9584 105.605 33.0886 105.994 33.3293 106.312C33.5699 106.631 33.9079 106.862 34.2919 106.971C42.7842 109.465 51.5903 110.727 60.4406 110.717C67.3822 110.702 74.3066 110.025 81.1197 108.695C93.963 115.304 110.354 105.048 109.994 90.5187C109.992 85.1635 107.866 80.0282 104.082 76.2415C100.299 72.4547 95.1682 70.3265 89.8177 70.3246H89.8195ZM16.0284 27.6873C21.9695 28.4694 32.166 24.6655 36.0766 20.344L40.2953 23.5108V28.8072C39.5543 45.5977 15.3534 44.4999 16.0284 27.6873ZM25.3463 50.1488V44.3585C27.2073 44.7066 29.1165 44.7066 30.9774 44.3585V50.5526C30.9793 50.9221 30.9077 51.2882 30.7666 51.6296C30.6255 51.9709 30.4178 52.2807 30.1557 52.5408C29.7332 52.9527 29.1933 53.223 28.6106 53.3145C28.0279 53.4059 27.4313 53.314 26.9031 53.0514C26.3749 52.7888 25.9412 52.3684 25.662 51.8485C25.3828 51.3285 25.2719 50.7346 25.3445 50.1488H25.3463ZM34.6459 43.2185C37.0483 42.1313 39.1415 40.461 40.7355 38.359C40.796 39.2494 40.9024 40.138 41.0235 41.0265C39.7866 41.8738 38.8166 43.0563 38.227 44.4355C37.6374 45.8148 37.4526 47.3336 37.6944 48.8141C36.6917 48.586 35.6722 48.4392 34.6459 48.3753V43.2185ZM56.4182 72.1604H64.8923V75.2152C63.5551 75.7944 62.1138 76.0944 60.6568 76.0969C59.1997 76.0995 57.7574 75.8044 56.4182 75.2299V72.1604ZM75.8427 51.7826C75.3572 51.786 74.8926 51.9805 74.5494 52.3241C74.2061 52.6676 74.0118 53.1326 74.0084 53.6185V56.6476C73.8213 72.7001 47.4946 72.6561 47.3204 56.6476V53.6185C47.317 53.1326 47.1227 52.6676 46.7794 52.3241C46.4362 51.9805 45.9716 51.786 45.4862 51.7826C44.6723 51.7712 43.8788 51.5255 43.2007 51.0749C42.5226 50.6242 41.9885 49.9877 41.6621 49.2413C41.3358 48.495 41.2311 47.6703 41.3605 46.866C41.4899 46.0617 41.8479 45.3116 42.3918 44.7055C42.7697 45.0219 43.2123 45.2513 43.6885 45.3777C44.1648 45.504 44.6629 45.5241 45.1477 45.4365C45.6325 45.3489 46.0922 45.1559 46.4942 44.871C46.8963 44.586 47.2309 44.2162 47.4745 43.7876C48.5677 41.8691 49.0006 40.2628 49.9764 38.9208C55.2149 44.9056 66.4532 44.5935 71.3525 38.9134C72.8932 40.8209 73.3591 45.5371 76.7579 45.5004C77.5557 45.5068 78.3289 45.2245 78.9352 44.7055C79.4847 45.3096 79.8476 46.06 79.9802 46.8661C80.1127 47.6722 80.0092 48.4994 79.6821 49.2479C79.3551 49.9964 78.8185 50.634 78.1371 51.0839C77.4558 51.5337 76.6589 51.7764 75.8427 51.7826ZM51.9427 24.0157C57.7391 23.4759 63.5732 23.4759 69.3697 24.0157C72.2861 24.2139 76.4168 27.7057 76.7396 30.6357C77.1781 34.114 77.1306 37.6365 76.5984 41.1018C75.4208 38.4582 73.4252 33.4775 69.7475 35.5282C68.4826 36.7174 67.092 37.7651 65.6003 38.6528C63.4726 40.0205 57.0767 39.8442 55.1966 38.3902C53.4431 37.4668 52.7717 36.1138 51.1007 35.2803C47.4323 34.0283 45.9722 38.5867 44.7268 41.1073C44.1871 37.6402 44.1401 34.1141 44.5874 30.6338C45.0619 28.9471 46.005 27.4297 47.307 26.2582C48.6091 25.0867 50.2165 24.309 51.9427 24.0157ZM3.75745 44.9937C3.46071 42.9066 3.59822 40.7807 4.16133 38.7493C4.72444 36.718 5.701 34.825 7.02971 33.1893C7.93866 32.0639 8.60574 30.7629 8.98921 29.3676C9.37268 27.9723 9.46429 26.5128 9.2583 25.0804C6.89948 -0.437649 45.0148 -3.46677 47.2085 21.8622C46.0076 22.5533 44.9139 23.4161 43.9619 24.4232V21.0398C43.962 20.7094 43.872 20.3852 43.7015 20.1023C43.5309 19.8193 43.2864 19.5884 42.9944 19.4344C42.7023 19.2804 42.3738 19.2092 42.0442 19.2284C41.7146 19.2476 41.3966 19.3566 41.1244 19.5436L37.0212 16.463C36.6623 16.1946 36.2178 16.0666 35.7713 16.1031C35.3248 16.1396 34.9069 16.3381 34.5963 16.6613C32.1679 19.1939 29.2155 21.1645 25.9461 22.435C22.792 23.6705 19.4077 24.2066 16.0266 24.0065V21.0398C16.0266 20.5529 15.8334 20.0859 15.4894 19.7416C15.1454 19.3974 14.6788 19.2039 14.1924 19.2039C13.7059 19.2039 13.2394 19.3974 12.8954 19.7416C12.5514 20.0859 12.3582 20.5529 12.3582 21.0398V28.8053C12.3591 31.8508 13.239 34.8312 14.892 37.3881C16.545 39.9451 18.9008 41.9697 21.676 43.2185V48.4506C16.966 49.0091 12.6089 51.2292 9.3867 54.7126C6.32983 52.3191 4.31288 48.838 3.75561 44.9937H3.75745ZM6.58216 78.248V71.4261C6.55098 62.0523 12.6846 53.3211 21.8851 52.1094C22.2438 53.5107 23.0601 54.7518 24.2045 55.6354C25.3488 56.519 26.7554 56.9943 28.2006 56.9859C29.6459 56.9774 31.0468 56.4857 32.1807 55.5888C33.3147 54.6919 34.1165 53.4414 34.4588 52.036C37.851 52.2863 41.0734 53.6197 43.6519 55.8398C43.506 58.9498 44.2948 62.0322 45.9165 64.6891C47.5382 67.346 49.9184 69.4554 52.7497 70.745V75.329C48.7725 75.9883 45.0353 77.6725 41.9058 80.216C30.1299 82.1689 18.0687 81.4969 6.58216 78.248ZM61.3743 107.041C53.0138 107.136 44.682 106.045 36.6268 103.803V98.8167C36.619 93.7326 38.533 88.8338 41.9846 85.1037C45.4362 81.3736 50.1698 79.0885 55.2351 78.707C56.9567 79.4038 58.7964 79.7616 60.6534 79.7607C62.5576 79.7424 64.4408 79.3605 66.202 78.6354C68.4344 78.6546 70.6483 79.0436 72.7538 79.7865C70.218 83.8737 69.2172 88.7304 69.9303 93.4883C70.6433 98.2462 73.0238 102.595 76.6461 105.758C71.5939 106.561 66.4895 106.989 61.3743 107.041ZM101.489 102.2C91.5639 112.496 73.15 105.18 73.3114 90.5187C73.3163 86.1382 75.0571 81.9384 78.1519 78.8409C81.2467 75.7434 85.4428 74.0011 89.8195 73.9962C104.438 73.8861 111.816 92.0939 101.489 102.2Z" fill="#1E417C"/>
<path d="M98.9915 88.6826H91.6546V81.3393C91.6546 80.8524 91.4613 80.3854 91.1173 80.0411C90.7733 79.6969 90.3068 79.5034 89.8203 79.5034C89.3339 79.5034 88.8673 79.6969 88.5233 80.0411C88.1794 80.3854 87.9861 80.8524 87.9861 81.3393V88.6826H80.6492C80.1627 88.6826 79.6962 88.876 79.3522 89.2203C79.0082 89.5646 78.815 90.0315 78.815 90.5184C78.815 91.0053 79.0082 91.4723 79.3522 91.8166C79.6962 92.1608 80.1627 92.3543 80.6492 92.3543H87.9861V99.6976C87.9861 100.184 88.1794 100.651 88.5233 100.996C88.8673 101.34 89.3339 101.533 89.8203 101.533C90.3068 101.533 90.7733 101.34 91.1173 100.996C91.4613 100.651 91.6546 100.184 91.6546 99.6976V92.3543H98.9915C99.478 92.3543 99.9445 92.1608 100.288 91.8166C100.632 91.4723 100.826 91.0053 100.826 90.5184C100.826 90.0315 100.632 89.5646 100.288 89.2203C99.9445 88.876 99.478 88.6826 98.9915 88.6826Z" fill="#1E417C"/>
</svg>
