<svg width="110" height="111" viewBox="0 0 110 111" fill="none" xmlns="http://www.w3.org/2000/svg">
<path d="M43.9804 55.7446C43.9804 57.924 44.6266 60.0545 45.8374 61.8666C47.0482 63.6788 48.7692 65.0911 50.7827 65.9252C52.7962 66.7592 55.0118 66.9774 57.1494 66.5522C59.2869 66.127 61.2503 65.0776 62.7914 63.5365C64.3325 61.9954 65.382 60.0319 65.8071 57.8944C66.2323 55.7569 66.0141 53.5412 65.1801 51.5277C64.3461 49.5142 62.9337 47.7932 61.1216 46.5824C59.3095 45.3716 57.179 44.7253 54.9996 44.7253C52.0782 44.7287 49.2774 45.8908 47.2116 47.9566C45.1458 50.0223 43.9838 52.8232 43.9804 55.7446ZM62.7962 55.7446C62.7962 57.2867 62.339 58.7941 61.4823 60.0762C60.6256 61.3584 59.4079 62.3577 57.9832 62.9478C56.5586 63.5379 54.991 63.6923 53.4786 63.3915C51.9662 63.0907 50.5769 62.3481 49.4866 61.2577C48.3962 60.1673 47.6536 58.7781 47.3528 57.2657C47.052 55.7533 47.2064 54.1856 47.7965 52.761C48.3866 51.3363 49.3859 50.1186 50.668 49.2619C51.9502 48.4052 53.4576 47.9479 54.9996 47.9479C57.0667 47.9502 59.0485 48.7724 60.5101 50.2341C61.9718 51.6957 62.794 53.6775 62.7962 55.7446ZM8.27144 102.903H17.7245C18.1518 102.903 18.5617 102.733 18.8639 102.431C19.166 102.129 19.3358 101.719 19.3358 101.292V91.8384C19.3358 91.411 19.166 91.0012 18.8639 90.699C18.5617 90.3968 18.1518 90.2271 17.7245 90.2271H8.27144C7.84409 90.2271 7.43424 90.3968 7.13206 90.699C6.82988 91.0012 6.66012 91.411 6.66012 91.8384V101.292C6.66012 101.719 6.82988 102.129 7.13206 102.431C7.43424 102.733 7.84409 102.903 8.27144 102.903ZM9.88275 93.4497H16.1132V99.6802H9.88275V93.4497ZM91.845 102.903H101.298C101.725 102.903 102.135 102.733 102.437 102.431C102.74 102.129 102.909 101.719 102.909 101.292V91.8384C102.909 91.411 102.74 91.0012 102.437 90.699C102.135 90.3968 101.725 90.2271 101.298 90.2271H91.845C91.4177 90.2271 91.0078 90.3968 90.7057 90.699C90.4035 91.0012 90.2337 91.411 90.2337 91.8384V101.292C90.2337 101.719 90.4035 102.129 90.7057 102.431C91.0078 102.733 91.4177 102.903 91.845 102.903ZM93.4564 93.4497H99.6868V99.6802H93.4564V93.4497ZM109.999 65.8208C110 65.8101 110 65.7993 109.999 65.7886C109.994 65.7308 109.985 65.6734 109.973 65.6167L103.528 35.5386C103.452 35.1753 103.252 34.8496 102.963 34.6167C102.674 34.3837 102.314 34.2578 101.943 34.2603H66.7386C66.6992 34.2581 66.6598 34.2581 66.6204 34.2603L65.2111 33.4009V22.1753C65.2143 22.1195 65.2143 22.0635 65.2111 22.0077V21.9884C65.2111 21.939 65.1982 21.8895 65.1874 21.8423V21.8187C65.1874 21.7735 65.1659 21.7263 65.1509 21.6812C65.1479 21.6709 65.1444 21.6609 65.1402 21.6511C65.1251 21.6103 65.1101 21.5694 65.0929 21.5308L65.0736 21.4878L65.022 21.3868L64.9919 21.3374L64.9361 21.2515C64.9237 21.2327 64.91 21.2147 64.8952 21.1978C64.8781 21.172 64.8566 21.1483 64.8372 21.1247C64.8179 21.1011 64.805 21.0903 64.79 21.0731C64.7749 21.056 64.747 21.028 64.7234 21.0065C64.7153 20.9974 64.7067 20.9888 64.6976 20.9808L56.6109 13.6868V11.7017H65.312C65.7394 11.7017 66.1492 11.5319 66.4514 11.2297C66.7536 10.9275 66.9233 10.5177 66.9233 10.0903V2.35596C66.9233 1.92861 66.7536 1.51876 66.4514 1.21658C66.1492 0.914393 65.7394 0.744629 65.312 0.744629L54.9996 0.744629C54.5723 0.744629 54.1624 0.914393 53.8602 1.21658C53.5581 1.51876 53.3883 1.92861 53.3883 2.35596V13.6868L45.3188 20.9808L45.293 21.0065L45.2264 21.0731C45.2114 21.0903 45.1942 21.1054 45.1792 21.1247C45.1641 21.144 45.1384 21.172 45.1212 21.1978C45.1064 21.2147 45.0927 21.2327 45.0803 21.2515L45.0245 21.3374L44.9944 21.3868L44.9428 21.4878L44.9235 21.5308C44.9063 21.5694 44.8913 21.6103 44.8762 21.6511C44.8612 21.6919 44.8762 21.6726 44.8762 21.6812C44.8612 21.7263 44.8505 21.7735 44.8397 21.8187V21.8423C44.8397 21.8895 44.8225 21.939 44.8161 21.9884V22.0077C44.8128 22.0635 44.8128 22.1195 44.8161 22.1753V33.4138L43.3981 34.2603H8.05659C7.68787 34.26 7.33025 34.3865 7.04359 34.6184C6.75692 34.8503 6.5586 35.1736 6.4818 35.5343L0.0365361 65.6124C0.0365361 65.6446 0.0365361 65.679 0.0214971 65.7134C0.00645816 65.7477 0.0214971 65.7563 0.0214971 65.7757C0.0204258 65.7921 0.0204258 65.8086 0.0214971 65.8251C0.0193591 65.8645 0.0193591 65.9039 0.0214971 65.9433H1.28917e-05V109.127C-0.000835686 109.339 0.040216 109.549 0.120812 109.745C0.201408 109.942 0.319963 110.12 0.469672 110.27C0.619381 110.421 0.797298 110.54 0.993213 110.621C1.18913 110.703 1.39918 110.745 1.61133 110.745H108.388C108.815 110.745 109.225 110.575 109.527 110.273C109.829 109.97 109.999 109.561 109.999 109.133V65.9497C109.999 65.9067 109.999 65.8638 109.999 65.8208ZM56.6109 3.96729H63.7007V8.479H56.6109V3.96729ZM100.641 37.4829L106.394 64.3384H86.5814V58.789L91.5378 61.814C91.7812 61.9634 92.0599 62.0454 92.3455 62.0516C92.631 62.0577 92.913 61.9878 93.1625 61.8489C93.4121 61.71 93.6202 61.5072 93.7655 61.2613C93.9107 61.0154 93.9879 60.7353 93.9892 60.4497L94.0493 51.9247V51.914C94.0491 51.6377 93.9778 51.3661 93.8424 51.1253C93.7069 50.8845 93.5119 50.6826 93.2759 50.539L71.8905 37.4829H100.641ZM54.9996 16.5743L59.4146 20.564H50.5846L54.9996 16.5743ZM48.0108 23.7866H61.9884V31.4394L59.217 29.7485L55.8461 27.6903C55.5933 27.5353 55.3026 27.4533 55.0061 27.4533C54.7095 27.4533 54.4188 27.5353 54.166 27.6903L48.0108 31.448V23.7866ZM54.9996 30.9517L90.8267 52.8142L90.7923 57.5794L55.8461 36.2497C55.5933 36.0958 55.3031 36.0144 55.0071 36.0144C54.7112 36.0144 54.421 36.0958 54.1682 36.2497L19.2198 57.5794L19.1876 52.8142L54.9996 30.9517ZM23.4178 107.522H3.22265V67.561H23.4178V107.522ZM23.4178 64.3384H3.60506L9.35854 37.4829H38.1216L16.7169 50.5476C16.4487 50.7114 16.2341 50.9498 16.0994 51.2337C15.9647 51.5176 15.9158 51.8347 15.9585 52.146L16.0165 60.4497C16.0188 60.8754 16.1896 61.2828 16.4916 61.5828C16.7936 61.8828 17.2022 62.0509 17.6278 62.0503C17.9244 62.0512 18.2153 61.9693 18.4678 61.814L23.4092 58.8062L23.4178 64.3384ZM30.5076 107.522H26.6404V56.8296L30.5076 54.4663V107.522ZM62.9488 107.522H47.0504V82.7548C47.0504 80.6465 47.888 78.6246 49.3787 77.1338C50.8695 75.6431 52.8914 74.8056 54.9996 74.8056C57.1079 74.8056 59.1298 75.6431 60.6205 77.1338C62.1113 78.6246 62.9488 80.6465 62.9488 82.7548V107.522ZM76.269 107.522H66.1714V82.7548C66.1714 79.7918 64.9944 76.9502 62.8993 74.8551C60.8041 72.7599 57.9626 71.5829 54.9996 71.5829C52.0367 71.5829 49.1951 72.7599 47.1 74.8551C45.0048 76.9502 43.8278 79.7918 43.8278 82.7548V107.522H33.7302V52.5026L54.9996 39.5132L76.269 52.494V107.522ZM83.3588 107.522H79.4916V54.4556L83.3588 56.8188V107.522ZM106.777 107.522H86.5814V67.561H106.777V107.522ZM8.27144 85.5005H17.7245C18.1518 85.5005 18.5617 85.3307 18.8639 85.0285C19.166 84.7264 19.3358 84.3165 19.3358 83.8892V74.436C19.3358 74.0087 19.166 73.5988 18.8639 73.2967C18.5617 72.9945 18.1518 72.8247 17.7245 72.8247H8.27144C7.84409 72.8247 7.43424 72.9945 7.13206 73.2967C6.82988 73.5988 6.66012 74.0087 6.66012 74.436V83.8892C6.66012 84.3165 6.82988 84.7264 7.13206 85.0285C7.43424 85.3307 7.84409 85.5005 8.27144 85.5005ZM9.88275 76.0474H16.1132V82.2778H9.88275V76.0474ZM53.4527 53.1364C53.2646 53.0396 53.0592 52.9809 52.8483 52.9635C52.6374 52.9461 52.4251 52.9704 52.2236 53.0351C51.8167 53.1656 51.4783 53.4525 51.2828 53.8325C51.0874 54.2126 51.0509 54.6547 51.1815 55.0616C51.312 55.4686 51.5989 55.807 51.9789 56.0024L54.252 57.1712L54.2863 57.1862C54.3314 57.2077 54.3787 57.2313 54.426 57.2485C54.4732 57.2657 54.5248 57.2808 54.5742 57.2937L54.6086 57.3044C54.7324 57.3342 54.8593 57.3494 54.9867 57.3495H55.0082C55.077 57.3495 55.1457 57.3495 55.223 57.3345L55.3197 57.313C55.3605 57.313 55.4035 57.2979 55.4443 57.2872L55.541 57.2528L55.6592 57.2056L55.7451 57.1626C55.7878 57.1411 55.8294 57.1174 55.8697 57.0917L55.9019 57.0724L59.3265 54.7563C59.5084 54.6408 59.6652 54.4899 59.7878 54.3127C59.9103 54.1354 59.996 53.9354 60.0399 53.7244C60.0838 53.5135 60.0849 53.2958 60.0432 53.0844C60.0014 52.873 59.9177 52.6722 59.797 52.4937C59.6763 52.3152 59.521 52.1627 59.3404 52.0453C59.1597 51.9279 58.9573 51.8479 58.7452 51.8101C58.533 51.7722 58.3155 51.7774 58.1054 51.8251C57.8952 51.8728 57.6968 51.9622 57.5219 52.088L54.8879 53.869L53.4527 53.1364ZM91.845 85.5005H101.298C101.725 85.5005 102.135 85.3307 102.437 85.0285C102.74 84.7264 102.909 84.3165 102.909 83.8892V74.436C102.909 74.0087 102.74 73.5988 102.437 73.2967C102.135 72.9945 101.725 72.8247 101.298 72.8247H91.845C91.4177 72.8247 91.0078 72.9945 90.7057 73.2967C90.4035 73.5988 90.2337 74.0087 90.2337 74.436V83.8892C90.2337 84.3165 90.4035 84.7264 90.7057 85.0285C91.0078 85.3307 91.4177 85.5005 91.845 85.5005ZM93.4564 76.0474H99.6868V82.2778H93.4564V76.0474Z" fill="#1E417C"/>
</svg>
