<svg width="31" height="31" viewBox="0 0 31 31" fill="none" xmlns="http://www.w3.org/2000/svg">
<path d="M30.2266 28.0439L24.5938 22.5127C26.7803 19.8138 27.8391 16.3882 27.5526 12.9402C27.2662 9.49223 25.6561 6.28395 23.0535 3.97505C20.451 1.66616 17.0537 0.432163 13.5603 0.526795C10.0669 0.621428 6.74292 2.0375 4.27179 4.48383C1.80066 6.93017 0.370241 10.2208 0.274649 13.6792C0.179058 17.1375 1.42556 20.5007 3.75786 23.0771C6.09015 25.6536 9.33095 27.2475 12.8139 27.5311C16.2968 27.8147 19.7572 26.7665 22.4834 24.6019L28.0707 30.1332C28.2118 30.274 28.3797 30.3859 28.5648 30.4622C28.7498 30.5385 28.9482 30.5778 29.1486 30.5778C29.3491 30.5778 29.5475 30.5385 29.7325 30.4622C29.9176 30.3859 30.0855 30.274 30.2266 30.1332C30.5003 29.8529 30.6533 29.4783 30.6533 29.0885C30.6533 28.6987 30.5003 28.3242 30.2266 28.0439ZM13.9658 24.6019C11.8638 24.6019 9.80899 23.9849 8.06122 22.8288C6.31346 21.6727 4.95124 20.0295 4.14684 18.1069C3.34243 16.1844 3.13196 14.0689 3.54204 12.028C3.95213 9.98704 4.96435 8.11231 6.4507 6.64087C7.93705 5.16944 9.83077 4.16738 11.8924 3.76141C13.954 3.35544 16.091 3.5638 18.033 4.36013C19.975 5.15647 21.6348 6.50502 22.8027 8.23524C23.9705 9.96547 24.5938 11.9997 24.5938 14.0806C24.5938 16.871 23.4741 19.5472 21.4809 21.5203C19.4878 23.4934 16.7845 24.6019 13.9658 24.6019Z" fill="url(#paint0_linear_4018_16155)"/>
<defs>
<linearGradient id="paint0_linear_4018_16155" x1="3.3056" y1="3.52733" x2="28.8519" y2="29.3326" gradientUnits="userSpaceOnUse">
<stop stop-color="#DB0E34"/>
<stop offset="1" stop-color="#7E03E6"/>
</linearGradient>
</defs>
</svg>
