<svg width="35" height="36" viewBox="0 0 35 36" fill="none" xmlns="http://www.w3.org/2000/svg">
<path d="M34.425 32.0405L27.816 25.451C29.9484 22.7344 31.1054 19.3798 31.1011 15.9263C31.1011 12.8507 30.1891 9.84414 28.4804 7.28686C26.7716 4.72959 24.343 2.73644 21.5015 1.55945C18.66 0.38247 15.5333 0.0745176 12.5168 0.674539C9.50028 1.27456 6.72944 2.75561 4.55466 4.93039C2.37987 7.10517 0.898827 9.87601 0.298806 12.8925C-0.301215 15.909 0.00673776 19.0357 1.18372 21.8772C2.36071 24.7187 4.35386 27.1474 6.91113 28.8561C9.4684 30.5648 12.4749 31.4768 15.5506 31.4768C19.004 31.4811 22.3587 30.3241 25.0753 28.1918L31.6648 34.8008C31.8455 34.9829 32.0605 35.1276 32.2974 35.2262C32.5342 35.3249 32.7883 35.3757 33.0449 35.3757C33.3015 35.3757 33.5556 35.3249 33.7925 35.2262C34.0293 35.1276 34.2443 34.9829 34.425 34.8008C34.6072 34.62 34.7518 34.4051 34.8505 34.1682C34.9492 33.9313 35 33.6772 35 33.4206C35 33.164 34.9492 32.91 34.8505 32.6731C34.7518 32.4362 34.6072 32.2212 34.425 32.0405ZM3.88764 15.9263C3.88764 13.6196 4.57166 11.3647 5.8532 9.44672C7.13473 7.52876 8.95623 6.0339 11.0873 5.15116C13.2185 4.26842 15.5635 4.03746 17.8259 4.48747C20.0883 4.93749 22.1664 6.04827 23.7975 7.67936C25.4286 9.31045 26.5393 11.3886 26.9894 13.651C27.4394 15.9133 27.2084 18.2584 26.3257 20.3895C25.4429 22.5206 23.9481 24.3421 22.0301 25.6236C20.1122 26.9052 17.8573 27.5892 15.5506 27.5892C12.4574 27.5892 9.49085 26.3604 7.30363 24.1732C5.11641 21.986 3.88764 19.0195 3.88764 15.9263Z" fill="#1E417C"/>
</svg>
