<svg width="25" height="24" viewBox="0 0 25 24" fill="none" xmlns="http://www.w3.org/2000/svg">
<path d="M13.5441 11.7324L14.4643 11.9452C14.897 12.0454 15.3908 11.7915 15.5606 11.3809L15.9775 10.3752C16.1476 9.964 15.987 9.44113 15.6206 9.21284L14.7994 8.69987C13.9787 8.18752 13.9777 7.35719 14.7994 6.84483L15.6011 6.34447C15.9783 6.10897 16.1476 5.58069 15.9775 5.17027L15.5606 4.16459C15.3902 3.75417 14.9074 3.49798 14.4873 3.59559L13.5442 3.8131C12.6007 4.03144 12.0134 3.44424 12.2309 2.50101L12.4445 1.58092C12.545 1.14818 12.2915 0.654856 11.8807 0.484897L10.8738 0.0678638C10.4632 -0.10209 9.94023 0.058353 9.71197 0.424318L9.20041 1.24595C8.68781 2.06659 7.85677 2.0668 7.34378 1.24595L6.84462 0.444325C6.60931 0.0671967 6.08141 -0.102127 5.67095 0.0680229L4.66413 0.485262C4.25368 0.655634 3.99747 1.13863 4.09509 1.55895L4.31427 2.50116C4.5318 3.44481 3.94517 4.0318 3.00165 3.81389L2.08106 3.60052C1.64786 3.50003 1.15449 3.75393 0.98473 4.16433L0.56787 5.17043C0.397902 5.58084 0.558357 6.10375 0.924352 6.3322L1.74606 6.84475C2.56718 7.35669 2.56718 8.18743 1.74544 8.69916L0.943159 9.19993C0.566413 9.43543 0.397297 9.96393 0.567445 10.3745L0.984098 11.3798C1.15448 11.7904 1.63774 12.0469 2.05851 11.9502L3.00123 11.7312C3.94537 11.5125 4.53157 12.1003 4.31342 13.0429L4.09982 13.9626C3.99933 14.3953 4.25325 14.8891 4.66368 15.0588L5.6705 15.4756C6.08095 15.6458 6.60347 15.4856 6.83136 15.1194L7.34375 14.2977C7.85738 13.4769 8.68781 13.4769 9.20101 14.2984L9.69997 15.0991C9.93528 15.4765 10.4632 15.646 10.8743 15.4763L11.8805 15.0595C12.2915 14.8893 12.5475 14.4063 12.4499 13.9855L12.2312 13.0433C12.0134 12.1005 12.6015 11.5127 13.5442 11.7323L13.5441 11.7324ZM9.43256 10.5711C7.88608 11.2114 6.11298 10.4772 5.47241 8.93165C4.83307 7.38571 5.56753 5.61483 7.11339 4.97368C8.65945 4.33333 10.4307 5.06672 11.0717 6.61288C11.7119 8.15924 10.9786 9.93034 9.43256 10.5711Z" fill="#fff"/>
<path d="M23.9696 17.3515C23.9696 17.3515 23.9644 17.3504 23.3029 17.2394C22.6419 17.1309 22.4204 16.5972 22.8106 16.053L23.2043 15.5025C23.3765 15.2616 23.3457 14.8929 23.1361 14.6835L22.573 14.1209C22.3631 13.9112 21.9942 13.8808 21.7531 14.0524C21.7531 14.0524 21.75 14.0545 21.2029 14.4465C20.6572 14.8358 20.1258 14.615 20.0162 13.954L19.9052 13.2866C19.8561 12.9941 19.5745 12.7555 19.2776 12.7555H18.4813C18.1852 12.7555 17.9022 12.9945 17.8525 13.2864C17.8525 13.2864 17.8519 13.2916 17.7415 13.9536C17.6319 14.615 17.0984 14.8354 16.5548 14.4467L16.0045 14.0526C15.7634 13.8804 15.3946 13.9112 15.1852 14.1207L14.6203 14.6849C14.4111 14.8941 14.3809 15.2626 14.5533 15.5032C14.5533 15.5032 14.5554 15.5068 14.9474 16.0538C15.3366 16.5986 15.116 17.1306 14.4533 17.2408L13.7872 17.3519C13.4946 17.4009 13.256 17.6831 13.2562 17.9794V18.7766C13.2565 19.0727 13.4953 19.3545 13.7881 19.4027C13.7881 19.4027 13.7918 19.4033 14.4552 19.5156C15.1162 19.6243 15.3379 20.1578 14.9475 20.7021L14.553 21.2524C14.3807 21.4934 14.4111 21.8617 14.6208 22.0711L15.1839 22.6337C15.3937 22.8434 15.7626 22.8734 16.0031 22.7015C16.0031 22.7015 16.0079 22.6986 16.5544 22.3075C17.0999 21.9194 17.6313 22.1392 17.7423 22.8014L17.8527 23.4678C17.9017 23.7604 18.184 23.9992 18.4803 23.9996L19.277 24C19.5731 24.0002 19.8549 23.7614 19.9031 23.4691C19.9031 23.4691 19.9039 23.4639 20.0141 22.8025C20.1252 22.1398 20.6566 21.9196 21.2027 22.3089L21.7529 22.7028C21.994 22.875 22.3629 22.8444 22.5722 22.635L23.1357 22.072C23.3449 21.8627 23.376 21.4939 23.2039 21.2528C23.2039 21.2528 23.2008 21.248 22.8094 20.7024C22.4192 20.1557 22.64 19.6235 23.3021 19.5154L23.9688 19.4039C24.2612 19.3543 24.5 19.0723 24.5 18.7762V17.9794C24.5008 17.6825 24.2622 17.4001 23.9696 17.3515ZM18.8785 20.5215C17.6943 20.5205 16.7338 19.5615 16.7343 18.3783C16.7343 17.1935 17.6953 16.2335 18.8785 16.234C20.0607 16.2333 21.0213 17.194 21.0213 18.3766C21.0217 19.5601 20.0617 20.5209 18.8785 20.5215V20.5215Z" fill="#fff"/>
</svg>
