<svg width="26" height="25" viewBox="0 0 26 25" fill="none" xmlns="http://www.w3.org/2000/svg">
<path fill-rule="evenodd" clip-rule="evenodd" d="M12.9906 0.547885C11.7082 0.653952 10.5232 1.06995 9.42961 1.79796C8.76171 2.24262 7.77595 3.2341 7.38713 3.85229C7.13583 4.25185 7.09863 4.28954 6.98441 4.26073C6.76725 4.20589 5.81497 4.22847 5.49939 4.29593C4.61568 4.48483 3.73967 5.02628 3.17269 5.73405C2.49084 6.58522 2.20748 7.50025 2.27121 8.64497L2.30277 9.21137L2.06245 9.40585C1.50786 9.85477 0.963936 10.5403 0.61332 11.2323C-0.499288 13.4282 -0.0709981 16.149 1.6777 17.9933C2.34511 18.6972 3.03602 19.1652 3.84931 19.4643C4.63863 19.7546 4.83858 19.7708 7.62403 19.7708C10.4622 19.7708 10.3466 19.7849 10.5538 19.4134C10.7431 19.0739 10.6478 18.6813 10.3242 18.4674C10.1966 18.3831 9.97948 18.3736 7.59081 18.348C4.72044 18.3172 4.76564 18.3221 4.01885 17.9671C2.71928 17.3494 1.78518 16.102 1.49517 14.5968C1.46557 14.4434 1.44106 14.0766 1.4407 13.7817C1.43879 12.3585 2.12638 11.0765 3.35044 10.2211C3.84916 9.87253 3.94978 9.64315 3.8118 9.16887C3.78346 9.07142 3.7373 8.8288 3.70926 8.62971C3.53161 7.36938 4.37193 6.11434 5.64054 5.74536C6.00208 5.64021 6.65781 5.63934 7.03475 5.74358C7.63118 5.90849 7.95058 5.7974 8.1754 5.34686C8.90019 3.89419 10.2329 2.73491 11.741 2.24526C12.9283 1.8598 14.3099 1.86994 15.5208 2.27311C16.4348 2.57746 17.1586 3.03074 17.8605 3.73856C18.7202 4.60566 19.275 5.6572 19.4945 6.83585C19.6948 7.91088 19.711 7.93314 20.4368 8.12971C21.6465 8.45729 22.5436 9.0521 23.2473 9.9932C23.9642 10.952 24.305 11.9767 24.3063 13.1777C24.3076 14.5002 23.8348 15.7213 22.949 16.6829C22.217 17.4775 21.4839 17.9315 20.4794 18.212C20.1258 18.3108 19.9295 18.3207 17.7956 18.3473L15.4933 18.3759L15.3038 18.567C15.1287 18.7434 15.1143 18.7802 15.1143 19.0488C15.1143 19.3821 15.2178 19.5673 15.4743 19.6931C15.7073 19.8073 19.7465 19.8076 20.4059 19.6934C21.6799 19.4729 22.8398 18.8579 23.7994 17.894C25.2721 16.415 25.9907 14.2724 25.6879 12.2635C25.3083 9.7447 23.5743 7.6329 21.2744 6.8883L20.9406 6.78031L20.8806 6.46566C20.8476 6.29263 20.7428 5.91468 20.6476 5.62575C19.8375 3.16511 17.7319 1.26864 15.1722 0.694127C14.8137 0.613676 13.5916 0.47616 13.4782 0.503552C13.4644 0.506899 13.245 0.526834 12.9906 0.547885ZM12.6225 9.47885C12.471 9.53845 8.56916 13.4479 8.46616 13.6432C8.42645 13.7186 8.39392 13.8867 8.39392 14.0169C8.39392 14.2236 8.41834 14.2783 8.58607 14.4473C8.80485 14.6678 8.96735 14.7245 9.23747 14.6747C9.39961 14.6448 9.61708 14.448 10.7976 13.2627L12.1694 11.8855V17.9358C12.1694 24.5822 12.1493 24.1557 12.474 24.3887C12.5833 24.4671 12.7025 24.5 12.8775 24.5C13.1638 24.5 13.3377 24.4043 13.4804 24.1685C13.5762 24.0102 13.5786 23.8635 13.5787 17.9451L13.5789 11.8837L14.9255 13.2379C15.6661 13.9827 16.3359 14.616 16.4138 14.6452C16.4917 14.6744 16.6132 14.6983 16.6838 14.6983C16.8642 14.6983 17.1718 14.5123 17.2708 14.3433C17.3735 14.1681 17.3791 13.827 17.2822 13.6432C17.1707 13.4317 13.2703 9.53596 13.11 9.47591C12.9387 9.41179 12.7905 9.41265 12.6225 9.47885Z" fill="url(#paint0_linear_4747_48726)"/>
<defs>
<linearGradient id="paint0_linear_4747_48726" x1="0" y1="12.5" x2="25.7561" y2="12.5" gradientUnits="userSpaceOnUse">
<stop stop-color="#FF3131"/>
<stop offset="1" stop-color="#2323FF"/>
</linearGradient>
</defs>
</svg>
